# vtk DataFile Version 3.0
DEM2D particles
ASCII
DATASET POLYDATA
POINTS 25 double
0.000210492 0.000355509 0
0.00247694 -4.37799e-05 0
0.00456711 0.000603547 0
0.00674628 0.000484833 0
0.00933215 0.00140196 0
0.000976388 0.00355613 0
0.00272805 0.00324058 0
0.00430175 0.00277177 0
0.00620408 0.00219445 0
0.00807857 0.00264042 0
0.00194188 0.0044931 0
0.00315848 0.00421217 0
0.00447748 0.00471637 0
0.00666273 0.00578892 0
0.00823043 0.00524145 0
0.0014505 0.00641177 0
0.0023961 0.00752514 0
0.00577483 0.00655022 0
0.00705357 0.00711183 0
0.00819693 0.00681754 0
6.49654e-05 0.00845873 0
0.00285477 0.00981874 0
0.0050706 0.00875153 0
0.00716435 0.00934654 0
0.00986735 0.00889545 0
VERTICES 25 50
1 0
1 1
1 2
1 3
1 4
1 5
1 6
1 7
1 8
1 9
1 10
1 11
1 12
1 13
1 14
1 15
1 16
1 17
1 18
1 19
1 20
1 21
1 22
1 23
1 24
POINT_DATA 25
VECTORS velocity double
-2.76573e-07 -0.00970876 0
-1.83235e-07 -0.0097089 0
-1.51647e-07 -0.00970867 0
-8.88815e-08 -0.00970871 0
1.16355e-07 -0.00970839 0
-8.27165e-09 -0.00970834 0
-9.52685e-08 -0.00970845 0
-2.44605e-07 -0.00970861 0
-2.78818e-07 -0.00970882 0
-3.22788e-07 -0.00970866 0
3.29951e-07 -0.00970871 0
5.55175e-08 -0.00970881 0
-1.83044e-07 -0.00970863 0
-1.18148e-07 -0.00970826 0
-2.69588e-07 -0.00970845 0
1.57815e-07 -0.00970874 0
-2.11552e-07 -0.00970835 0
2.71432e-07 -0.00970869 0
1.87665e-08 -0.00970849 0
-2.81324e-07 -0.0097086 0
-3.27552e-07 -0.00970872 0
-5.08739e-08 -0.00970825 0
2.4733e-08 -0.00970862 0
5.75747e-08 -0.00970841 0
3.03841e-07 -0.00970857 0
SCALARS radius double 1
LOOKUP_TABLE default
0.0005192
0.000759374
0.000731582
0.000932767
0.000864852
0.00092132
0.000824734
0.000662097
0.000535446
0.00094621
0.000999249
0.000802661
0.000671708
0.000819153
0.000645007
0.000827505
0.000602392
0.000772815
0.000550095
0.000626194
0.000886859
0.000531918
0.000790192
0.000909137
0.00096445
SCALARS mass double 1
LOOKUP_TABLE default
0.00228657
0.0048913
0.00453983
0.00738005
0.00634449
0.00720004
0.00576955
0.0037184
0.0024319
0.00759432
0.00846957
0.00546484
0.00382714
0.00569173
0.00352892
0.00580838
0.00307803
0.005066
0.00256678
0.00332607
0.00667148
0.00239995
0.00529637
0.00701087
0.00788992
