# vtk DataFile Version 3.0
DEM2D particles
ASCII
DATASET POLYDATA
POINTS 25 double
0.000210492 -0.000209531 0
0.00247694 -0.00060882 0
0.00456711 3.85073e-05 0
0.00674628 -8.02068e-05 0
0.00933215 0.00083692 0
0.000976388 0.00299109 0
0.00272805 0.00267554 0
0.00430175 0.00220673 0
0.00620408 0.00162942 0
0.00807857 0.00207538 0
0.00194188 0.00392806 0
0.00315848 0.00364713 0
0.00447748 0.00415133 0
0.00666273 0.00522389 0
0.00823043 0.00467641 0
0.0014505 0.00584673 0
0.0023961 0.0069601 0
0.00577483 0.00598518 0
0.00705357 0.00654679 0
0.00819693 0.0062525 0
6.49651e-05 0.00789369 0
0.00285477 0.0092537 0
0.0050706 0.00818649 0
0.00716435 0.0087815 0
0.00986735 0.00833041 0
VERTICES 25 50
1 0
1 1
1 2
1 3
1 4
1 5
1 6
1 7
1 8
1 9
1 10
1 11
1 12
1 13
1 14
1 15
1 16
1 17
1 18
1 19
1 20
1 21
1 22
1 23
1 24
POINT_DATA 25
VECTORS velocity double
-1.09306e-32 -0.00970858 0
-7.24169e-33 -0.00970858 0
-5.99329e-33 -0.00970858 0
-3.51272e-33 -0.00970858 0
4.59851e-33 -0.00970858 0
-3.26907e-34 -0.00970858 0
-3.76515e-33 -0.00970858 0
-9.66712e-33 -0.00970858 0
-1.10193e-32 -0.00970858 0
-1.2757e-32 -0.00970858 0
1.30401e-32 -0.00970858 0
2.19413e-33 -0.00970858 0
-7.23415e-33 -0.00970858 0
-4.66938e-33 -0.00970858 0
-1.06545e-32 -0.00970858 0
6.23707e-33 -0.00970858 0
-8.36084e-33 -0.00970858 0
1.07274e-32 -0.00970858 0
7.41678e-34 -0.00970858 0
-1.11183e-32 -0.00970858 0
-1.29453e-32 -0.00970858 0
-2.01061e-33 -0.00970858 0
9.77483e-34 -0.00970858 0
2.27543e-33 -0.00970858 0
1.20082e-32 -0.00970858 0
SCALARS radius double 1
LOOKUP_TABLE default
0.0005192
0.000759374
0.000731582
0.000932767
0.000864852
0.00092132
0.000824734
0.000662097
0.000535446
0.00094621
0.000999249
0.000802661
0.000671708
0.000819153
0.000645007
0.000827505
0.000602392
0.000772815
0.000550095
0.000626194
0.000886859
0.000531918
0.000790192
0.000909137
0.00096445
SCALARS mass double 1
LOOKUP_TABLE default
0.00228657
0.0048913
0.00453983
0.00738005
0.00634449
0.00720004
0.00576955
0.0037184
0.0024319
0.00759432
0.00846957
0.00546484
0.00382714
0.00569173
0.00352892
0.00580838
0.00307803
0.005066
0.00256678
0.00332607
0.00667148
0.00239995
0.00529637
0.00701087
0.00788992
