# vtk DataFile Version 3.0
DEM2D particles
ASCII
DATASET POLYDATA
POINTS 25 double
0.000210492 0.000264248 0
0.00247694 -0.000135041 0
0.00456711 0.000512286 0
0.00674628 0.000393572 0
0.00933215 0.0013107 0
0.000976388 0.00346487 0
0.00272805 0.00314932 0
0.00430175 0.00268051 0
0.00620408 0.00210319 0
0.00807857 0.00254916 0
0.00194188 0.00440183 0
0.00315848 0.00412091 0
0.00447748 0.00462511 0
0.00666273 0.00569766 0
0.00823043 0.00515018 0
0.0014505 0.00632051 0
0.0023961 0.00743388 0
0.00577483 0.00645896 0
0.00705357 0.00702057 0
0.00819693 0.00672628 0
6.49651e-05 0.00836747 0
0.00285477 0.00972748 0
0.0050706 0.00866027 0
0.00716435 0.00925528 0
0.00986735 0.00880419 0
VERTICES 25 50
1 0
1 1
1 2
1 3
1 4
1 5
1 6
1 7
1 8
1 9
1 10
1 11
1 12
1 13
1 14
1 15
1 16
1 17
1 18
1 19
1 20
1 21
1 22
1 23
1 24
POINT_DATA 25
VECTORS velocity double
-2.18219e-11 -0.00970858 0
-1.44574e-11 -0.00970858 0
-1.19651e-11 -0.00970858 0
-7.01285e-12 -0.00970858 0
9.18053e-12 -0.00970858 0
-6.52642e-13 -0.00970858 0
-7.51679e-12 -0.00970858 0
-1.92996e-11 -0.00970858 0
-2.1999e-11 -0.00970858 0
-2.54683e-11 -0.00970858 0
2.60335e-11 -0.00970858 0
4.38039e-12 -0.00970858 0
-1.44423e-11 -0.00970858 0
-9.32201e-12 -0.00970858 0
-2.12708e-11 -0.00970858 0
1.24518e-11 -0.00970858 0
-1.66917e-11 -0.00970858 0
2.14163e-11 -0.00970858 0
1.4807e-12 -0.00970858 0
-2.21968e-11 -0.00970858 0
-2.58442e-11 -0.00970858 0
-4.01401e-12 -0.00970858 0
1.95146e-12 -0.00970858 0
4.5427e-12 -0.00970858 0
2.39734e-11 -0.00970858 0
SCALARS radius double 1
LOOKUP_TABLE default
0.0005192
0.000759374
0.000731582
0.000932767
0.000864852
0.00092132
0.000824734
0.000662097
0.000535446
0.00094621
0.000999249
0.000802661
0.000671708
0.000819153
0.000645007
0.000827505
0.000602392
0.000772815
0.000550095
0.000626194
0.000886859
0.000531918
0.000790192
0.000909137
0.00096445
SCALARS mass double 1
LOOKUP_TABLE default
0.00228657
0.0048913
0.00453983
0.00738005
0.00634449
0.00720004
0.00576955
0.0037184
0.0024319
0.00759432
0.00846957
0.00546484
0.00382714
0.00569173
0.00352892
0.00580838
0.00307803
0.005066
0.00256678
0.00332607
0.00667148
0.00239995
0.00529637
0.00701087
0.00788992
