# vtk DataFile Version 3.0
DEM2D particles
ASCII
DATASET POLYDATA
POINTS 25 double
0.000210492 -0.00012992 0
0.00247694 -0.000529209 0
0.00456711 0.000118118 0
0.00674628 -5.96384e-07 0
0.00933215 0.00091653 0
0.000976388 0.0030707 0
0.00272805 0.00275515 0
0.00430175 0.00228634 0
0.00620408 0.00170903 0
0.00807857 0.00215499 0
0.00194188 0.00400767 0
0.00315848 0.00372674 0
0.00447748 0.00423094 0
0.00666273 0.0053035 0
0.00823043 0.00475602 0
0.0014505 0.00592634 0
0.0023961 0.00703971 0
0.00577483 0.00606479 0
0.00705357 0.0066264 0
0.00819693 0.00633211 0
6.49651e-05 0.0079733 0
0.00285477 0.00933331 0
0.0050706 0.0082661 0
0.00716435 0.00886111 0
0.00986735 0.00841002 0
VERTICES 25 50
1 0
1 1
1 2
1 3
1 4
1 5
1 6
1 7
1 8
1 9
1 10
1 11
1 12
1 13
1 14
1 15
1 16
1 17
1 18
1 19
1 20
1 21
1 22
1 23
1 24
POINT_DATA 25
VECTORS velocity double
-4.14746e-29 -0.00970858 0
-2.74777e-29 -0.00970858 0
-2.27408e-29 -0.00970858 0
-1.33286e-29 -0.00970858 0
1.74485e-29 -0.00970858 0
-1.24041e-30 -0.00970858 0
-1.42864e-29 -0.00970858 0
-3.66807e-29 -0.00970858 0
-4.18112e-29 -0.00970858 0
-4.84049e-29 -0.00970858 0
4.94792e-29 -0.00970858 0
8.32536e-30 -0.00970858 0
-2.74491e-29 -0.00970858 0
-1.77174e-29 -0.00970858 0
-4.04272e-29 -0.00970858 0
2.36658e-29 -0.00970858 0
-3.17242e-29 -0.00970858 0
4.07037e-29 -0.00970858 0
2.81421e-30 -0.00970858 0
-4.21872e-29 -0.00970858 0
-4.91195e-29 -0.00970858 0
-7.62901e-30 -0.00970858 0
3.70894e-30 -0.00970858 0
8.63385e-30 -0.00970858 0
4.55637e-29 -0.00970858 0
SCALARS radius double 1
LOOKUP_TABLE default
0.0005192
0.000759374
0.000731582
0.000932767
0.000864852
0.00092132
0.000824734
0.000662097
0.000535446
0.00094621
0.000999249
0.000802661
0.000671708
0.000819153
0.000645007
0.000827505
0.000602392
0.000772815
0.000550095
0.000626194
0.000886859
0.000531918
0.000790192
0.000909137
0.00096445
SCALARS mass double 1
LOOKUP_TABLE default
0.00228657
0.0048913
0.00453983
0.00738005
0.00634449
0.00720004
0.00576955
0.0037184
0.0024319
0.00759432
0.00846957
0.00546484
0.00382714
0.00569173
0.00352892
0.00580838
0.00307803
0.005066
0.00256678
0.00332607
0.00667148
0.00239995
0.00529637
0.00701087
0.00788992
