# vtk DataFile Version 3.0
DEM2D particles
ASCII
DATASET POLYDATA
POINTS 25 double
0.000210492 -0.000768745 0
0.00247694 -0.00116803 0
0.00456711 -0.000520707 0
0.00674628 -0.000639421 0
0.00933215 0.000277705 0
0.000976388 0.00243188 0
0.00272805 0.00211633 0
0.00430175 0.00164752 0
0.00620408 0.0010702 0
0.00807857 0.00151616 0
0.00194188 0.00336884 0
0.00315848 0.00308792 0
0.00447748 0.00359212 0
0.00666273 0.00466467 0
0.00823043 0.00411719 0
0.0014505 0.00528752 0
0.0023961 0.00640088 0
0.00577483 0.00542596 0
0.00705357 0.00598758 0
0.00819693 0.00569329 0
6.49651e-05 0.00733448 0
0.00285477 0.00869449 0
0.0050706 0.00762727 0
0.00716435 0.00822229 0
0.00986735 0.0077712 0
VERTICES 25 50
1 0
1 1
1 2
1 3
1 4
1 5
1 6
1 7
1 8
1 9
1 10
1 11
1 12
1 13
1 14
1 15
1 16
1 17
1 18
1 19
1 20
1 21
1 22
1 23
1 24
POINT_DATA 25
VECTORS velocity double
-7.8952e-58 -0.00970858 0
-5.23071e-58 -0.00970858 0
-4.32899e-58 -0.00970858 0
-2.53726e-58 -0.00970858 0
3.32153e-58 -0.00970858 0
-2.36127e-59 -0.00970858 0
-2.71959e-58 -0.00970858 0
-6.98262e-58 -0.00970858 0
-7.95928e-58 -0.00970858 0
-9.21447e-58 -0.00970858 0
9.41896e-58 -0.00970858 0
1.58483e-58 -0.00970858 0
-5.22526e-58 -0.00970858 0
-3.37272e-58 -0.00970858 0
-7.69581e-58 -0.00970858 0
4.50507e-58 -0.00970858 0
-6.03908e-58 -0.00970858 0
7.74845e-58 -0.00970858 0
5.35718e-59 -0.00970858 0
-8.03084e-58 -0.00970858 0
-9.35048e-58 -0.00970858 0
-1.45227e-58 -0.00970858 0
7.06041e-59 -0.00970858 0
1.64356e-58 -0.00970858 0
8.6736e-58 -0.00970858 0
SCALARS radius double 1
LOOKUP_TABLE default
0.0005192
0.000759374
0.000731582
0.000932767
0.000864852
0.00092132
0.000824734
0.000662097
0.000535446
0.00094621
0.000999249
0.000802661
0.000671708
0.000819153
0.000645007
0.000827505
0.000602392
0.000772815
0.000550095
0.000626194
0.000886859
0.000531918
0.000790192
0.000909137
0.00096445
SCALARS mass double 1
LOOKUP_TABLE default
0.00228657
0.0048913
0.00453983
0.00738005
0.00634449
0.00720004
0.00576955
0.0037184
0.0024319
0.00759432
0.00846957
0.00546484
0.00382714
0.00569173
0.00352892
0.00580838
0.00307803
0.005066
0.00256678
0.00332607
0.00667148
0.00239995
0.00529637
0.00701087
0.00788992
