# vtk DataFile Version 3.0
DEM2D particles
ASCII
DATASET POLYDATA
POINTS 25 double
0.001 0.001 0
0.003 0.001 0
0.005 0.001 0
0.007 0.001 0
0.009 0.001 0
0.001 0.003 0
0.003 0.003 0
0.005 0.003 0
0.007 0.003 0
0.009 0.003 0
0.001 0.005 0
0.003 0.005 0
0.005 0.005 0
0.007 0.005 0
0.009 0.005 0
0.001 0.007 0
0.003 0.007 0
0.005 0.007 0
0.007 0.007 0
0.009 0.007 0
0.001 0.009 0
0.003 0.009 0
0.005 0.009 0
0.007 0.009 0
0.009 0.009 0
VERTICES 25 50
1 0
1 1
1 2
1 3
1 4
1 5
1 6
1 7
1 8
1 9
1 10
1 11
1 12
1 13
1 14
1 15
1 16
1 17
1 18
1 19
1 20
1 21
1 22
1 23
1 24
POINT_DATA 25
VECTORS velocity double
-0.797483 -0.515571 0
-0.528347 -0.918894 0
-0.437265 -0.265028 0
-0.256285 -0.384941 0
0.335503 0.541449 0
-0.0238509 0.697181 0
-0.274702 0.378441 0
-0.705305 -0.0951054 0
-0.803956 -0.678252 0
-0.930741 -0.227786 0
0.951396 -0.376595 0
0.160082 -0.660358 0
-0.527797 -0.151062 0
-0.340674 0.932324 0
-0.777344 0.379314 0
0.455051 -0.458743 0
-0.609999 0.665872 0
0.78266 -0.318896 0
0.0541122 0.24839 0
-0.811184 -0.0488696 0
-0.94448 -0.411303 0
-0.146692 0.962439 0
0.0713163 -0.115553 0
0.166014 0.485471 0
0.876109 0.0298237 0
SCALARS radius double 1
LOOKUP_TABLE default
0.0005192
0.000759374
0.000731582
0.000932767
0.000864852
0.00092132
0.000824734
0.000662097
0.000535446
0.00094621
0.000999249
0.000802661
0.000671708
0.000819153
0.000645007
0.000827505
0.000602392
0.000772815
0.000550095
0.000626194
0.000886859
0.000531918
0.000790192
0.000909137
0.00096445
SCALARS mass double 1
LOOKUP_TABLE default
0.00228657
0.0048913
0.00453983
0.00738005
0.00634449
0.00720004
0.00576955
0.0037184
0.0024319
0.00759432
0.00846957
0.00546484
0.00382714
0.00569173
0.00352892
0.00580838
0.00307803
0.005066
0.00256678
0.00332607
0.00667148
0.00239995
0.00529637
0.00701087
0.00788992
