# vtk DataFile Version 3.0
DEM2D particles
ASCII
DATASET POLYDATA
POINTS 25 double
0.000210492 -0.000316325 0
0.00247694 -0.000715614 0
0.00456711 -6.82871e-05 0
0.00674628 -0.000187001 0
0.00933215 0.000730125 0
0.000976388 0.0028843 0
0.00272805 0.00256875 0
0.00430175 0.00209994 0
0.00620408 0.00152262 0
0.00807857 0.00196858 0
0.00194188 0.00382126 0
0.00315848 0.00354034 0
0.00447748 0.00404454 0
0.00666273 0.00511709 0
0.00823043 0.00456961 0
0.0014505 0.00573994 0
0.0023961 0.0068533 0
0.00577483 0.00587838 0
0.00705357 0.00644 0
0.00819693 0.00614571 0
6.49651e-05 0.0077869 0
0.00285477 0.00914691 0
0.0050706 0.00807969 0
0.00716435 0.00867471 0
0.00986735 0.00822362 0
VERTICES 25 50
1 0
1 1
1 2
1 3
1 4
1 5
1 6
1 7
1 8
1 9
1 10
1 11
1 12
1 13
1 14
1 15
1 16
1 17
1 18
1 19
1 20
1 21
1 22
1 23
1 24
POINT_DATA 25
VECTORS velocity double
-1.72725e-37 -0.00970858 0
-1.14434e-37 -0.00970858 0
-9.47065e-38 -0.00970858 0
-5.55083e-38 -0.00970858 0
7.2666e-38 -0.00970858 0
-5.16582e-39 -0.00970858 0
-5.94971e-38 -0.00970858 0
-1.52761e-37 -0.00970858 0
-1.74127e-37 -0.00970858 0
-2.01587e-37 -0.00970858 0
2.06061e-37 -0.00970858 0
3.46718e-38 -0.00970858 0
-1.14315e-37 -0.00970858 0
-7.37859e-38 -0.00970858 0
-1.68363e-37 -0.00970858 0
9.85586e-38 -0.00970858 0
-1.32119e-37 -0.00970858 0
1.69515e-37 -0.00970858 0
1.17201e-38 -0.00970858 0
-1.75693e-37 -0.00970858 0
-2.04563e-37 -0.00970858 0
-3.17718e-38 -0.00970858 0
1.54463e-38 -0.00970858 0
3.59566e-38 -0.00970858 0
1.89755e-37 -0.00970858 0
SCALARS radius double 1
LOOKUP_TABLE default
0.0005192
0.000759374
0.000731582
0.000932767
0.000864852
0.00092132
0.000824734
0.000662097
0.000535446
0.00094621
0.000999249
0.000802661
0.000671708
0.000819153
0.000645007
0.000827505
0.000602392
0.000772815
0.000550095
0.000626194
0.000886859
0.000531918
0.000790192
0.000909137
0.00096445
SCALARS mass double 1
LOOKUP_TABLE default
0.00228657
0.0048913
0.00453983
0.00738005
0.00634449
0.00720004
0.00576955
0.0037184
0.0024319
0.00759432
0.00846957
0.00546484
0.00382714
0.00569173
0.00352892
0.00580838
0.00307803
0.005066
0.00256678
0.00332607
0.00667148
0.00239995
0.00529637
0.00701087
0.00788992
