# vtk DataFile Version 3.0
DEM2D particles
ASCII
DATASET POLYDATA
POINTS 25 double
0.000210492 2.54171e-05 0
0.00247694 -0.000373872 0
0.00456711 0.000273455 0
0.00674628 0.000154741 0
0.00933215 0.00107187 0
0.000976388 0.00322604 0
0.00272805 0.00291049 0
0.00430175 0.00244168 0
0.00620408 0.00186436 0
0.00807857 0.00231032 0
0.00194188 0.004163 0
0.00315848 0.00388208 0
0.00447748 0.00438628 0
0.00666273 0.00545883 0
0.00823043 0.00491135 0
0.0014505 0.00608168 0
0.0023961 0.00719505 0
0.00577483 0.00622013 0
0.00705357 0.00678174 0
0.00819693 0.00648745 0
6.49651e-05 0.00812864 0
0.00285477 0.00948865 0
0.0050706 0.00842144 0
0.00716435 0.00901645 0
0.00986735 0.00856536 0
VERTICES 25 50
1 0
1 1
1 2
1 3
1 4
1 5
1 6
1 7
1 8
1 9
1 10
1 11
1 12
1 13
1 14
1 15
1 16
1 17
1 18
1 19
1 20
1 21
1 22
1 23
1 24
POINT_DATA 25
VECTORS velocity double
-3.99458e-22 -0.00970858 0
-2.64648e-22 -0.00970858 0
-2.19026e-22 -0.00970858 0
-1.28373e-22 -0.00970858 0
1.68053e-22 -0.00970858 0
-1.19469e-23 -0.00970858 0
-1.37598e-22 -0.00970858 0
-3.53286e-22 -0.00970858 0
-4.027e-22 -0.00970858 0
-4.66207e-22 -0.00970858 0
4.76553e-22 -0.00970858 0
8.01848e-23 -0.00970858 0
-2.64373e-22 -0.00970858 0
-1.70643e-22 -0.00970858 0
-3.8937e-22 -0.00970858 0
2.27934e-22 -0.00970858 0
-3.05548e-22 -0.00970858 0
3.92033e-22 -0.00970858 0
2.71047e-23 -0.00970858 0
-4.06321e-22 -0.00970858 0
-4.73088e-22 -0.00970858 0
-7.34779e-23 -0.00970858 0
3.57222e-23 -0.00970858 0
8.31559e-23 -0.00970858 0
4.38842e-22 -0.00970858 0
SCALARS radius double 1
LOOKUP_TABLE default
0.0005192
0.000759374
0.000731582
0.000932767
0.000864852
0.00092132
0.000824734
0.000662097
0.000535446
0.00094621
0.000999249
0.000802661
0.000671708
0.000819153
0.000645007
0.000827505
0.000602392
0.000772815
0.000550095
0.000626194
0.000886859
0.000531918
0.000790192
0.000909137
0.00096445
SCALARS mass double 1
LOOKUP_TABLE default
0.00228657
0.0048913
0.00453983
0.00738005
0.00634449
0.00720004
0.00576955
0.0037184
0.0024319
0.00759432
0.00846957
0.00546484
0.00382714
0.00569173
0.00352892
0.00580838
0.00307803
0.005066
0.00256678
0.00332607
0.00667148
0.00239995
0.00529637
0.00701087
0.00788992
