# vtk DataFile Version 3.0
DEM2D particles
ASCII
DATASET POLYDATA
POINTS 25 double
0.000210492 0.000305024 0
0.00247694 -9.42648e-05 0
0.00456711 0.000553062 0
0.00674628 0.000434348 0
0.00933215 0.00135147 0
0.000976388 0.00350565 0
0.00272805 0.0031901 0
0.00430175 0.00272129 0
0.00620408 0.00214397 0
0.00807857 0.00258993 0
0.00194188 0.00444261 0
0.00315848 0.00416169 0
0.00447748 0.00466589 0
0.00666273 0.00573844 0
0.00823043 0.00519096 0
0.0014505 0.00636128 0
0.0023961 0.00747465 0
0.00577483 0.00649973 0
0.00705357 0.00706135 0
0.00819693 0.00676706 0
6.49651e-05 0.00840825 0
0.00285477 0.00976825 0
0.0050706 0.00870104 0
0.00716435 0.00929606 0
0.00986735 0.00884497 0
VERTICES 25 50
1 0
1 1
1 2
1 3
1 4
1 5
1 6
1 7
1 8
1 9
1 10
1 11
1 12
1 13
1 14
1 15
1 16
1 17
1 18
1 19
1 20
1 21
1 22
1 23
1 24
POINT_DATA 25
VECTORS velocity double
-1.48631e-09 -0.00970858 0
-9.8471e-10 -0.00970859 0
-8.14956e-10 -0.00970858 0
-4.77653e-10 -0.00970858 0
6.25297e-10 -0.00970858 0
-4.44522e-11 -0.00970858 0
-5.11977e-10 -0.00970858 0
-1.31452e-09 -0.00970858 0
-1.49838e-09 -0.00970858 0
-1.73467e-09 -0.00970858 0
1.77317e-09 -0.00970858 0
2.98354e-10 -0.00970858 0
-9.83685e-10 -0.00970858 0
-6.34933e-10 -0.00970858 0
-1.44878e-09 -0.00970858 0
8.48104e-10 -0.00970858 0
-1.13689e-09 -0.00970858 0
1.45869e-09 -0.00970858 0
1.00852e-10 -0.00970858 0
-1.51185e-09 -0.00970858 0
-1.76028e-09 -0.00970858 0
-2.73399e-10 -0.00970858 0
1.32916e-10 -0.00970858 0
3.09409e-10 -0.00970858 0
1.63285e-09 -0.00970858 0
SCALARS radius double 1
LOOKUP_TABLE default
0.0005192
0.000759374
0.000731582
0.000932767
0.000864852
0.00092132
0.000824734
0.000662097
0.000535446
0.00094621
0.000999249
0.000802661
0.000671708
0.000819153
0.000645007
0.000827505
0.000602392
0.000772815
0.000550095
0.000626194
0.000886859
0.000531918
0.000790192
0.000909137
0.00096445
SCALARS mass double 1
LOOKUP_TABLE default
0.00228657
0.0048913
0.00453983
0.00738005
0.00634449
0.00720004
0.00576955
0.0037184
0.0024319
0.00759432
0.00846957
0.00546484
0.00382714
0.00569173
0.00352892
0.00580838
0.00307803
0.005066
0.00256678
0.00332607
0.00667148
0.00239995
0.00529637
0.00701087
0.00788992
