# vtk DataFile Version 3.0
DEM2D particles
ASCII
DATASET POLYDATA
POINTS 25 double
0.000210492 -0.00104059 0
0.00247694 -0.00143987 0
0.00456711 -0.000792547 0
0.00674628 -0.000911262 0
0.00933215 5.86491e-06 0
0.000976388 0.00216004 0
0.00272805 0.00184449 0
0.00430175 0.00137568 0
0.00620408 0.00079836 0
0.00807857 0.00124432 0
0.00194188 0.003097 0
0.00315848 0.00281608 0
0.00447748 0.00332028 0
0.00666273 0.00439283 0
0.00823043 0.00384535 0
0.0014505 0.00501567 0
0.0023961 0.00612904 0
0.00577483 0.00515412 0
0.00705357 0.00571574 0
0.00819693 0.00542145 0
6.49651e-05 0.00706264 0
0.00285477 0.00842264 0
0.0050706 0.00735543 0
0.00716435 0.00795045 0
0.00986735 0.00749936 0
VERTICES 25 50
1 0
1 1
1 2
1 3
1 4
1 5
1 6
1 7
1 8
1 9
1 10
1 11
1 12
1 13
1 14
1 15
1 16
1 17
1 18
1 19
1 20
1 21
1 22
1 23
1 24
POINT_DATA 25
VECTORS velocity double
-4.74141e-70 -0.00970858 0
-3.14127e-70 -0.00970858 0
-2.59975e-70 -0.00970858 0
-1.52374e-70 -0.00970858 0
1.99473e-70 -0.00970858 0
-1.41805e-71 -0.00970858 0
-1.63323e-70 -0.00970858 0
-4.19337e-70 -0.00970858 0
-4.7799e-70 -0.00970858 0
-5.53369e-70 -0.00970858 0
5.6565e-70 -0.00970858 0
9.51762e-71 -0.00970858 0
-3.138e-70 -0.00970858 0
-2.02547e-70 -0.00970858 0
-4.62168e-70 -0.00970858 0
2.70549e-70 -0.00970858 0
-3.62673e-70 -0.00970858 0
4.65328e-70 -0.00970858 0
3.21722e-71 -0.00970858 0
-4.82287e-70 -0.00970858 0
-5.61538e-70 -0.00970858 0
-8.72155e-71 -0.00970858 0
4.24009e-71 -0.00970858 0
9.87029e-71 -0.00970858 0
5.20888e-70 -0.00970858 0
SCALARS radius double 1
LOOKUP_TABLE default
0.0005192
0.000759374
0.000731582
0.000932767
0.000864852
0.00092132
0.000824734
0.000662097
0.000535446
0.00094621
0.000999249
0.000802661
0.000671708
0.000819153
0.000645007
0.000827505
0.000602392
0.000772815
0.000550095
0.000626194
0.000886859
0.000531918
0.000790192
0.000909137
0.00096445
SCALARS mass double 1
LOOKUP_TABLE default
0.00228657
0.0048913
0.00453983
0.00738005
0.00634449
0.00720004
0.00576955
0.0037184
0.0024319
0.00759432
0.00846957
0.00546484
0.00382714
0.00569173
0.00352892
0.00580838
0.00307803
0.005066
0.00256678
0.00332607
0.00667148
0.00239995
0.00529637
0.00701087
0.00788992
