# vtk DataFile Version 3.0
DEM2D particles
ASCII
DATASET POLYDATA
POINTS 25 double
0.000210492 -0.00132602 0
0.00247694 -0.00172531 0
0.00456711 -0.00107798 0
0.00674628 -0.00119669 0
0.00933215 -0.000279567 0
0.000976388 0.00187461 0
0.00272805 0.00155905 0
0.00430175 0.00109024 0
0.00620408 0.000512928 0
0.00807857 0.000958889 0
0.00194188 0.00281157 0
0.00315848 0.00253064 0
0.00447748 0.00303485 0
0.00666273 0.0041074 0
0.00823043 0.00355992 0
0.0014505 0.00473024 0
0.0023961 0.00584361 0
0.00577483 0.00486869 0
0.00705357 0.0054303 0
0.00819693 0.00513602 0
6.49651e-05 0.00677721 0
0.00285477 0.00813721 0
0.0050706 0.00707 0
0.00716435 0.00766501 0
0.00986735 0.00721392 0
VERTICES 25 50
1 0
1 1
1 2
1 3
1 4
1 5
1 6
1 7
1 8
1 9
1 10
1 11
1 12
1 13
1 14
1 15
1 16
1 17
1 18
1 19
1 20
1 21
1 22
1 23
1 24
POINT_DATA 25
VECTORS velocity double
-6.97236e-83 -0.00970858 0
-4.61932e-83 -0.00970858 0
-3.82299e-83 -0.00970858 0
-2.24069e-83 -0.00970858 0
2.93329e-83 -0.00970858 0
-2.08527e-84 -0.00970858 0
-2.40171e-83 -0.00970858 0
-6.16645e-83 -0.00970858 0
-7.02895e-83 -0.00970858 0
-8.13743e-83 -0.00970858 0
8.31802e-83 -0.00970858 0
1.39959e-83 -0.00970858 0
-4.61451e-83 -0.00970858 0
-2.9785e-83 -0.00970858 0
-6.79629e-83 -0.00970858 0
3.97849e-83 -0.00970858 0
-5.3332e-83 -0.00970858 0
6.84276e-83 -0.00970858 0
4.731e-84 -0.00970858 0
-7.09215e-83 -0.00970858 0
-8.25755e-83 -0.00970858 0
-1.28252e-83 -0.00970858 0
6.23515e-84 -0.00970858 0
1.45145e-83 -0.00970858 0
7.65978e-83 -0.00970858 0
SCALARS radius double 1
LOOKUP_TABLE default
0.0005192
0.000759374
0.000731582
0.000932767
0.000864852
0.00092132
0.000824734
0.000662097
0.000535446
0.00094621
0.000999249
0.000802661
0.000671708
0.000819153
0.000645007
0.000827505
0.000602392
0.000772815
0.000550095
0.000626194
0.000886859
0.000531918
0.000790192
0.000909137
0.00096445
SCALARS mass double 1
LOOKUP_TABLE default
0.00228657
0.0048913
0.00453983
0.00738005
0.00634449
0.00720004
0.00576955
0.0037184
0.0024319
0.00759432
0.00846957
0.00546484
0.00382714
0.00569173
0.00352892
0.00580838
0.00307803
0.005066
0.00256678
0.00332607
0.00667148
0.00239995
0.00529637
0.00701087
0.00788992
