# vtk DataFile Version 3.0
DEM2D particles
ASCII
DATASET POLYDATA
POINTS 25 double
0.000214734 0.000451403 0
0.00247975 5.42593e-05 0
0.00456943 0.000698108 0
0.00674764 0.000580032 0
0.00933036 0.00149223 0
0.000976515 0.00364558 0
0.00272951 0.00333172 0
0.0043055 0.00286543 0
0.00620836 0.00229121 0
0.00808352 0.00273478 0
0.00193682 0.00458825 0
0.00315763 0.00430883 0
0.00448029 0.00481033 0
0.00666455 0.00587712 0
0.00823457 0.00533258 0
0.00144808 0.00650736 0
0.00239935 0.00761475 0
0.00577067 0.00664506 0
0.00705328 0.00720366 0
0.00820124 0.00691095 0
6.999e-05 0.00855407 0
0.00285556 0.00990677 0
0.00507022 0.00884529 0
0.00716347 0.00943711 0
0.00986269 0.00898844 0
VERTICES 25 50
1 0
1 1
1 2
1 3
1 4
1 5
1 6
1 7
1 8
1 9
1 10
1 11
1 12
1 13
1 14
1 15
1 16
1 17
1 18
1 19
1 20
1 21
1 22
1 23
1 24
POINT_DATA 25
VECTORS velocity double
-0.00428571 -0.0124271 0
-0.00283936 -0.0145946 0
-0.00234988 -0.0110807 0
-0.00137729 -0.0117251 0
0.00180301 -0.00674664 0
-0.000128176 -0.00590973 0
-0.00147626 -0.00762265 0
-0.00379034 -0.0101675 0
-0.00432049 -0.0133014 0
-0.00500184 -0.0108805 0
0.00511285 -0.0116802 0
0.000860287 -0.0132052 0
-0.0028364 -0.0104682 0
-0.0018308 -0.00464606 0
-0.00417748 -0.00761796 0
0.00244546 -0.0121217 0
-0.00327816 -0.00607798 0
0.00420605 -0.0113702 0
0.000290801 -0.00832155 0
-0.00435934 -0.00991904 0
-0.00507568 -0.0118668 0
-0.000788331 -0.00448422 0
0.000383257 -0.0102774 0
0.000892164 -0.00704747 0
0.00470825 -0.00949614 0
SCALARS radius double 1
LOOKUP_TABLE default
0.0005192
0.000759374
0.000731582
0.000932767
0.000864852
0.00092132
0.000824734
0.000662097
0.000535446
0.00094621
0.000999249
0.000802661
0.000671708
0.000819153
0.000645007
0.000827505
0.000602392
0.000772815
0.000550095
0.000626194
0.000886859
0.000531918
0.000790192
0.000909137
0.00096445
SCALARS mass double 1
LOOKUP_TABLE default
0.00228657
0.0048913
0.00453983
0.00738005
0.00634449
0.00720004
0.00576955
0.0037184
0.0024319
0.00759432
0.00846957
0.00546484
0.00382714
0.00569173
0.00352892
0.00580838
0.00307803
0.005066
0.00256678
0.00332607
0.00667148
0.00239995
0.00529637
0.00701087
0.00788992
