# vtk DataFile Version 3.0
DEM2D particles
ASCII
DATASET POLYDATA
POINTS 25 double
0.000210492 -0.000741561 0
0.00247694 -0.00114085 0
0.00456711 -0.000493523 0
0.00674628 -0.000612237 0
0.00933215 0.000304889 0
0.000976388 0.00245906 0
0.00272805 0.00214351 0
0.00430175 0.0016747 0
0.00620408 0.00109738 0
0.00807857 0.00154335 0
0.00194188 0.00339603 0
0.00315848 0.0031151 0
0.00447748 0.0036193 0
0.00666273 0.00469186 0
0.00823043 0.00414438 0
0.0014505 0.0053147 0
0.0023961 0.00642807 0
0.00577483 0.00545315 0
0.00705357 0.00601476 0
0.00819693 0.00572047 0
6.49651e-05 0.00736166 0
0.00285477 0.00872167 0
0.0050706 0.00765446 0
0.00716435 0.00824947 0
0.00986735 0.00779838 0
VERTICES 25 50
1 0
1 1
1 2
1 3
1 4
1 5
1 6
1 7
1 8
1 9
1 10
1 11
1 12
1 13
1 14
1 15
1 16
1 17
1 18
1 19
1 20
1 21
1 22
1 23
1 24
POINT_DATA 25
VECTORS velocity double
-1.31677e-56 -0.00970858 0
-8.72381e-57 -0.00970858 0
-7.21991e-57 -0.00970858 0
-4.23166e-57 -0.00970858 0
5.53967e-57 -0.00970858 0
-3.93814e-58 -0.00970858 0
-4.53574e-57 -0.00970858 0
-1.16456e-56 -0.00970858 0
-1.32745e-56 -0.00970858 0
-1.53679e-56 -0.00970858 0
1.5709e-56 -0.00970858 0
2.64319e-57 -0.00970858 0
-8.71473e-57 -0.00970858 0
-5.62504e-57 -0.00970858 0
-1.28351e-56 -0.00970858 0
7.51358e-57 -0.00970858 0
-1.0072e-56 -0.00970858 0
1.29229e-56 -0.00970858 0
8.93474e-58 -0.00970858 0
-1.33939e-56 -0.00970858 0
-1.55948e-56 -0.00970858 0
-2.42211e-57 -0.00970858 0
1.17754e-57 -0.00970858 0
2.74114e-57 -0.00970858 0
1.44659e-56 -0.00970858 0
SCALARS radius double 1
LOOKUP_TABLE default
0.0005192
0.000759374
0.000731582
0.000932767
0.000864852
0.00092132
0.000824734
0.000662097
0.000535446
0.00094621
0.000999249
0.000802661
0.000671708
0.000819153
0.000645007
0.000827505
0.000602392
0.000772815
0.000550095
0.000626194
0.000886859
0.000531918
0.000790192
0.000909137
0.00096445
SCALARS mass double 1
LOOKUP_TABLE default
0.00228657
0.0048913
0.00453983
0.00738005
0.00634449
0.00720004
0.00576955
0.0037184
0.0024319
0.00759432
0.00846957
0.00546484
0.00382714
0.00569173
0.00352892
0.00580838
0.00307803
0.005066
0.00256678
0.00332607
0.00667148
0.00239995
0.00529637
0.00701087
0.00788992
