# vtk DataFile Version 3.0
DEM2D particles
ASCII
DATASET POLYDATA
POINTS 25 double
0.000210492 -0.000671659 0
0.00247694 -0.00107095 0
0.00456711 -0.000423621 0
0.00674628 -0.000542335 0
0.00933215 0.000374791 0
0.000976388 0.00252897 0
0.00272805 0.00221341 0
0.00430175 0.0017446 0
0.00620408 0.00116729 0
0.00807857 0.00161325 0
0.00194188 0.00346593 0
0.00315848 0.003185 0
0.00447748 0.00368921 0
0.00666273 0.00476176 0
0.00823043 0.00421428 0
0.0014505 0.0053846 0
0.0023961 0.00649797 0
0.00577483 0.00552305 0
0.00705357 0.00608466 0
0.00819693 0.00579038 0
6.49651e-05 0.00743157 0
0.00285477 0.00879157 0
0.0050706 0.00772436 0
0.00716435 0.00831937 0
0.00986735 0.00786828 0
VERTICES 25 50
1 0
1 1
1 2
1 3
1 4
1 5
1 6
1 7
1 8
1 9
1 10
1 11
1 12
1 13
1 14
1 15
1 16
1 17
1 18
1 19
1 20
1 21
1 22
1 23
1 24
POINT_DATA 25
VECTORS velocity double
-1.82881e-53 -0.00970858 0
-1.21162e-53 -0.00970858 0
-1.00275e-53 -0.00970858 0
-5.8772e-54 -0.00970858 0
7.69385e-54 -0.00970858 0
-5.46954e-55 -0.00970858 0
-6.29953e-54 -0.00970858 0
-1.61742e-53 -0.00970858 0
-1.84365e-53 -0.00970858 0
-2.1344e-53 -0.00970858 0
2.18177e-53 -0.00970858 0
3.67104e-54 -0.00970858 0
-1.21036e-53 -0.00970858 0
-7.81242e-54 -0.00970858 0
-1.78263e-53 -0.00970858 0
1.04353e-53 -0.00970858 0
-1.39887e-53 -0.00970858 0
1.79482e-53 -0.00970858 0
1.24091e-54 -0.00970858 0
-1.86023e-53 -0.00970858 0
-2.16591e-53 -0.00970858 0
-3.36399e-54 -0.00970858 0
1.63544e-54 -0.00970858 0
3.80707e-54 -0.00970858 0
2.00912e-53 -0.00970858 0
SCALARS radius double 1
LOOKUP_TABLE default
0.0005192
0.000759374
0.000731582
0.000932767
0.000864852
0.00092132
0.000824734
0.000662097
0.000535446
0.00094621
0.000999249
0.000802661
0.000671708
0.000819153
0.000645007
0.000827505
0.000602392
0.000772815
0.000550095
0.000626194
0.000886859
0.000531918
0.000790192
0.000909137
0.00096445
SCALARS mass double 1
LOOKUP_TABLE default
0.00228657
0.0048913
0.00453983
0.00738005
0.00634449
0.00720004
0.00576955
0.0037184
0.0024319
0.00759432
0.00846957
0.00546484
0.00382714
0.00569173
0.00352892
0.00580838
0.00307803
0.005066
0.00256678
0.00332607
0.00667148
0.00239995
0.00529637
0.00701087
0.00788992
