# vtk DataFile Version 3.0
DEM2D particles
ASCII
DATASET POLYDATA
POINTS 25 double
0.000210492 0.000365218 0
0.00247694 -3.40708e-05 0
0.00456711 0.000613256 0
0.00674628 0.000494542 0
0.00933215 0.00141167 0
0.000976388 0.00356584 0
0.00272805 0.00325029 0
0.00430175 0.00278148 0
0.00620408 0.00220416 0
0.00807857 0.00265012 0
0.00194188 0.0045028 0
0.00315848 0.00422188 0
0.00447748 0.00472608 0
0.00666273 0.00579863 0
0.00823043 0.00525115 0
0.0014505 0.00642148 0
0.0023961 0.00753485 0
0.00577483 0.00655993 0
0.00705357 0.00712154 0
0.00819693 0.00682725 0
6.4966e-05 0.00846844 0
0.00285477 0.00982845 0
0.0050706 0.00876124 0
0.00716435 0.00935625 0
0.00986735 0.00890516 0
VERTICES 25 50
1 0
1 1
1 2
1 3
1 4
1 5
1 6
1 7
1 8
1 9
1 10
1 11
1 12
1 13
1 14
1 15
1 16
1 17
1 18
1 19
1 20
1 21
1 22
1 23
1 24
POINT_DATA 25
VECTORS velocity double
-7.55597e-07 -0.00970906 0
-5.00597e-07 -0.00970944 0
-4.14299e-07 -0.00970883 0
-2.42824e-07 -0.00970894 0
3.17882e-07 -0.00970806 0
-2.25981e-08 -0.00970791 0
-2.60273e-07 -0.00970822 0
-6.6826e-07 -0.00970866 0
-7.61729e-07 -0.00970922 0
-8.81855e-07 -0.00970879 0
9.01426e-07 -0.00970893 0
1.51674e-07 -0.0097092 0
-5.00075e-07 -0.00970872 0
-3.2278e-07 -0.00970769 0
-7.36515e-07 -0.00970821 0
4.3115e-07 -0.00970901 0
-5.7796e-07 -0.00970794 0
7.41552e-07 -0.00970888 0
5.127e-08 -0.00970834 0
-7.68578e-07 -0.00970862 0
-8.94873e-07 -0.00970896 0
-1.38988e-07 -0.00970766 0
6.75705e-08 -0.00970868 0
1.57294e-07 -0.00970811 0
8.30093e-07 -0.00970855 0
SCALARS radius double 1
LOOKUP_TABLE default
0.0005192
0.000759374
0.000731582
0.000932767
0.000864852
0.00092132
0.000824734
0.000662097
0.000535446
0.00094621
0.000999249
0.000802661
0.000671708
0.000819153
0.000645007
0.000827505
0.000602392
0.000772815
0.000550095
0.000626194
0.000886859
0.000531918
0.000790192
0.000909137
0.00096445
SCALARS mass double 1
LOOKUP_TABLE default
0.00228657
0.0048913
0.00453983
0.00738005
0.00634449
0.00720004
0.00576955
0.0037184
0.0024319
0.00759432
0.00846957
0.00546484
0.00382714
0.00569173
0.00352892
0.00580838
0.00307803
0.005066
0.00256678
0.00332607
0.00667148
0.00239995
0.00529637
0.00701087
0.00788992
