# vtk DataFile Version 3.0
DEM2D particles
ASCII
DATASET POLYDATA
POINTS 25 double
0.000210492 -0.000856122 0
0.00247694 -0.00125541 0
0.00456711 -0.000608084 0
0.00674628 -0.000726798 0
0.00933215 0.000190328 0
0.000976388 0.0023445 0
0.00272805 0.00202895 0
0.00430175 0.00156014 0
0.00620408 0.000982823 0
0.00807857 0.00142878 0
0.00194188 0.00328146 0
0.00315848 0.00300054 0
0.00447748 0.00350474 0
0.00666273 0.00457729 0
0.00823043 0.00402981 0
0.0014505 0.00520014 0
0.0023961 0.00631351 0
0.00577483 0.00533859 0
0.00705357 0.0059002 0
0.00819693 0.00560591 0
6.49651e-05 0.0072471 0
0.00285477 0.00860711 0
0.0050706 0.0075399 0
0.00716435 0.00813491 0
0.00986735 0.00768382 0
VERTICES 25 50
1 0
1 1
1 2
1 3
1 4
1 5
1 6
1 7
1 8
1 9
1 10
1 11
1 12
1 13
1 14
1 15
1 16
1 17
1 18
1 19
1 20
1 21
1 22
1 23
1 24
POINT_DATA 25
VECTORS velocity double
-9.3119e-62 -0.00970858 0
-6.1693e-62 -0.00970858 0
-5.10577e-62 -0.00970858 0
-2.99254e-62 -0.00970858 0
3.91754e-62 -0.00970858 0
-2.78497e-63 -0.00970858 0
-3.20758e-62 -0.00970858 0
-8.23556e-62 -0.00970858 0
-9.38747e-62 -0.00970858 0
-1.08679e-61 -0.00970858 0
1.11091e-61 -0.00970858 0
1.86921e-62 -0.00970858 0
-6.16288e-62 -0.00970858 0
-3.97791e-62 -0.00970858 0
-9.07674e-62 -0.00970858 0
5.31345e-62 -0.00970858 0
-7.12272e-62 -0.00970858 0
9.13881e-62 -0.00970858 0
6.31846e-63 -0.00970858 0
-9.47188e-62 -0.00970858 0
-1.10283e-61 -0.00970858 0
-1.71287e-62 -0.00970858 0
8.32732e-63 -0.00970858 0
1.93847e-62 -0.00970858 0
1.023e-61 -0.00970858 0
SCALARS radius double 1
LOOKUP_TABLE default
0.0005192
0.000759374
0.000731582
0.000932767
0.000864852
0.00092132
0.000824734
0.000662097
0.000535446
0.00094621
0.000999249
0.000802661
0.000671708
0.000819153
0.000645007
0.000827505
0.000602392
0.000772815
0.000550095
0.000626194
0.000886859
0.000531918
0.000790192
0.000909137
0.00096445
SCALARS mass double 1
LOOKUP_TABLE default
0.00228657
0.0048913
0.00453983
0.00738005
0.00634449
0.00720004
0.00576955
0.0037184
0.0024319
0.00759432
0.00846957
0.00546484
0.00382714
0.00569173
0.00352892
0.00580838
0.00307803
0.005066
0.00256678
0.00332607
0.00667148
0.00239995
0.00529637
0.00701087
0.00788992
