# vtk DataFile Version 3.0
DEM2D particles
ASCII
DATASET POLYDATA
POINTS 25 double
0.000210492 -0.000982334 0
0.00247694 -0.00138162 0
0.00456711 -0.000734296 0
0.00674628 -0.00085301 0
0.00933215 6.41164e-05 0
0.000976388 0.00221829 0
0.00272805 0.00190274 0
0.00430175 0.00143393 0
0.00620408 0.000856612 0
0.00807857 0.00130257 0
0.00194188 0.00315525 0
0.00315848 0.00287433 0
0.00447748 0.00337853 0
0.00666273 0.00445108 0
0.00823043 0.0039036 0
0.0014505 0.00507393 0
0.0023961 0.0061873 0
0.00577483 0.00521237 0
0.00705357 0.00577399 0
0.00819693 0.0054797 0
6.49651e-05 0.00712089 0
0.00285477 0.0084809 0
0.0050706 0.00741368 0
0.00716435 0.0080087 0
0.00986735 0.00755761 0
VERTICES 25 50
1 0
1 1
1 2
1 3
1 4
1 5
1 6
1 7
1 8
1 9
1 10
1 11
1 12
1 13
1 14
1 15
1 16
1 17
1 18
1 19
1 20
1 21
1 22
1 23
1 24
POINT_DATA 25
VECTORS velocity double
-1.97147e-67 -0.00970858 0
-1.30614e-67 -0.00970858 0
-1.08097e-67 -0.00970858 0
-6.33568e-68 -0.00970858 0
8.29404e-68 -0.00970858 0
-5.89622e-69 -0.00970858 0
-6.79096e-68 -0.00970858 0
-1.7436e-67 -0.00970858 0
-1.98747e-67 -0.00970858 0
-2.3009e-67 -0.00970858 0
2.35197e-67 -0.00970858 0
3.95742e-68 -0.00970858 0
-1.30478e-67 -0.00970858 0
-8.42186e-68 -0.00970858 0
-1.92169e-67 -0.00970858 0
1.12494e-67 -0.00970858 0
-1.50799e-67 -0.00970858 0
1.93483e-67 -0.00970858 0
1.33772e-68 -0.00970858 0
-2.00534e-67 -0.00970858 0
-2.33487e-67 -0.00970858 0
-3.62641e-68 -0.00970858 0
1.76302e-68 -0.00970858 0
4.10405e-68 -0.00970858 0
2.16585e-67 -0.00970858 0
SCALARS radius double 1
LOOKUP_TABLE default
0.0005192
0.000759374
0.000731582
0.000932767
0.000864852
0.00092132
0.000824734
0.000662097
0.000535446
0.00094621
0.000999249
0.000802661
0.000671708
0.000819153
0.000645007
0.000827505
0.000602392
0.000772815
0.000550095
0.000626194
0.000886859
0.000531918
0.000790192
0.000909137
0.00096445
SCALARS mass double 1
LOOKUP_TABLE default
0.00228657
0.0048913
0.00453983
0.00738005
0.00634449
0.00720004
0.00576955
0.0037184
0.0024319
0.00759432
0.00846957
0.00546484
0.00382714
0.00569173
0.00352892
0.00580838
0.00307803
0.005066
0.00256678
0.00332607
0.00667148
0.00239995
0.00529637
0.00701087
0.00788992
