# vtk DataFile Version 3.0
DEM2D particles
ASCII
DATASET POLYDATA
POINTS 25 double
0.000210492 -3.28344e-05 0
0.00247694 -0.000432124 0
0.00456711 0.000215204 0
0.00674628 9.64895e-05 0
0.00933215 0.00101362 0
0.000976388 0.00316779 0
0.00272805 0.00285224 0
0.00430175 0.00238343 0
0.00620408 0.00180611 0
0.00807857 0.00225207 0
0.00194188 0.00410475 0
0.00315848 0.00382383 0
0.00447748 0.00432803 0
0.00666273 0.00540058 0
0.00823043 0.0048531 0
0.0014505 0.00602343 0
0.0023961 0.00713679 0
0.00577483 0.00616187 0
0.00705357 0.00672349 0
0.00819693 0.0064292 0
6.49651e-05 0.00807039 0
0.00285477 0.0094304 0
0.0050706 0.00836318 0
0.00716435 0.0089582 0
0.00986735 0.00850711 0
VERTICES 25 50
1 0
1 1
1 2
1 3
1 4
1 5
1 6
1 7
1 8
1 9
1 10
1 11
1 12
1 13
1 14
1 15
1 16
1 17
1 18
1 19
1 20
1 21
1 22
1 23
1 24
POINT_DATA 25
VECTORS velocity double
-9.607e-25 -0.00970858 0
-6.36481e-25 -0.00970858 0
-5.26758e-25 -0.00970858 0
-3.08738e-25 -0.00970858 0
4.04169e-25 -0.00970858 0
-2.87323e-26 -0.00970858 0
-3.30924e-25 -0.00970858 0
-8.49656e-25 -0.00970858 0
-9.68497e-25 -0.00970858 0
-1.12123e-24 -0.00970858 0
1.14611e-24 -0.00970858 0
1.92845e-25 -0.00970858 0
-6.35819e-25 -0.00970858 0
-4.10398e-25 -0.00970858 0
-9.36439e-25 -0.00970858 0
5.48184e-25 -0.00970858 0
-7.34845e-25 -0.00970858 0
9.42843e-25 -0.00970858 0
6.51871e-26 -0.00970858 0
-9.77206e-25 -0.00970858 0
-1.13778e-24 -0.00970858 0
-1.76715e-25 -0.00970858 0
8.59122e-26 -0.00970858 0
1.99991e-25 -0.00970858 0
1.05542e-24 -0.00970858 0
SCALARS radius double 1
LOOKUP_TABLE default
0.0005192
0.000759374
0.000731582
0.000932767
0.000864852
0.00092132
0.000824734
0.000662097
0.000535446
0.00094621
0.000999249
0.000802661
0.000671708
0.000819153
0.000645007
0.000827505
0.000602392
0.000772815
0.000550095
0.000626194
0.000886859
0.000531918
0.000790192
0.000909137
0.00096445
SCALARS mass double 1
LOOKUP_TABLE default
0.00228657
0.0048913
0.00453983
0.00738005
0.00634449
0.00720004
0.00576955
0.0037184
0.0024319
0.00759432
0.00846957
0.00546484
0.00382714
0.00569173
0.00352892
0.00580838
0.00307803
0.005066
0.00256678
0.00332607
0.00667148
0.00239995
0.00529637
0.00701087
0.00788992
