# vtk DataFile Version 3.0
DEM2D particles
ASCII
DATASET POLYDATA
POINTS 25 double
0.000210492 5.06595e-05 0
0.00247694 -0.00034863 0
0.00456711 0.000298697 0
0.00674628 0.000179983 0
0.00933215 0.00109711 0
0.000976388 0.00325128 0
0.00272805 0.00293573 0
0.00430175 0.00246692 0
0.00620408 0.00188961 0
0.00807857 0.00233557 0
0.00194188 0.00418825 0
0.00315848 0.00390732 0
0.00447748 0.00441152 0
0.00666273 0.00548408 0
0.00823043 0.0049366 0
0.0014505 0.00610692 0
0.0023961 0.00722029 0
0.00577483 0.00624537 0
0.00705357 0.00680698 0
0.00819693 0.00651269 0
6.49651e-05 0.00815388 0
0.00285477 0.00951389 0
0.0050706 0.00844668 0
0.00716435 0.00904169 0
0.00986735 0.0085906 0
VERTICES 25 50
1 0
1 1
1 2
1 3
1 4
1 5
1 6
1 7
1 8
1 9
1 10
1 11
1 12
1 13
1 14
1 15
1 16
1 17
1 18
1 19
1 20
1 21
1 22
1 23
1 24
POINT_DATA 25
VECTORS velocity double
-5.44905e-21 -0.00970858 0
-3.61009e-21 -0.00970858 0
-2.98775e-21 -0.00970858 0
-1.75115e-21 -0.00970858 0
2.29243e-21 -0.00970858 0
-1.62968e-22 -0.00970858 0
-1.87698e-21 -0.00970858 0
-4.81921e-21 -0.00970858 0
-5.49327e-21 -0.00970858 0
-6.35957e-21 -0.00970858 0
6.50071e-21 -0.00970858 0
1.09381e-21 -0.00970858 0
-3.60633e-21 -0.00970858 0
-2.32776e-21 -0.00970858 0
-5.31144e-21 -0.00970858 0
3.10928e-21 -0.00970858 0
-4.168e-21 -0.00970858 0
5.34776e-21 -0.00970858 0
3.69738e-22 -0.00970858 0
-5.54266e-21 -0.00970858 0
-6.45345e-21 -0.00970858 0
-1.00232e-21 -0.00970858 0
4.8729e-22 -0.00970858 0
1.13434e-21 -0.00970858 0
5.98628e-21 -0.00970858 0
SCALARS radius double 1
LOOKUP_TABLE default
0.0005192
0.000759374
0.000731582
0.000932767
0.000864852
0.00092132
0.000824734
0.000662097
0.000535446
0.00094621
0.000999249
0.000802661
0.000671708
0.000819153
0.000645007
0.000827505
0.000602392
0.000772815
0.000550095
0.000626194
0.000886859
0.000531918
0.000790192
0.000909137
0.00096445
SCALARS mass double 1
LOOKUP_TABLE default
0.00228657
0.0048913
0.00453983
0.00738005
0.00634449
0.00720004
0.00576955
0.0037184
0.0024319
0.00759432
0.00846957
0.00546484
0.00382714
0.00569173
0.00352892
0.00580838
0.00307803
0.005066
0.00256678
0.00332607
0.00667148
0.00239995
0.00529637
0.00701087
0.00788992
