# vtk DataFile Version 3.0
DEM2D particles
ASCII
DATASET POLYDATA
POINTS 25 double
0.000210492 -0.00107748 0
0.00247694 -0.00147677 0
0.00456711 -0.00082944 0
0.00674628 -0.000948154 0
0.00933215 -3.10277e-05 0
0.000976388 0.00212315 0
0.00272805 0.00180759 0
0.00430175 0.00133878 0
0.00620408 0.000761468 0
0.00807857 0.00120743 0
0.00194188 0.00306011 0
0.00315848 0.00277918 0
0.00447748 0.00328339 0
0.00666273 0.00435594 0
0.00823043 0.00380846 0
0.0014505 0.00497878 0
0.0023961 0.00609215 0
0.00577483 0.00511723 0
0.00705357 0.00567884 0
0.00819693 0.00538456 0
6.49651e-05 0.00702575 0
0.00285477 0.00838575 0
0.0050706 0.00731854 0
0.00716435 0.00791355 0
0.00986735 0.00746246 0
VERTICES 25 50
1 0
1 1
1 2
1 3
1 4
1 5
1 6
1 7
1 8
1 9
1 10
1 11
1 12
1 13
1 14
1 15
1 16
1 17
1 18
1 19
1 20
1 21
1 22
1 23
1 24
POINT_DATA 25
VECTORS velocity double
-1.0406e-71 -0.00970858 0
-6.89413e-72 -0.00970858 0
-5.70565e-72 -0.00970858 0
-3.34413e-72 -0.00970858 0
4.37781e-72 -0.00970858 0
-3.11218e-73 -0.00970858 0
-3.58444e-72 -0.00970858 0
-9.20316e-72 -0.00970858 0
-1.04904e-71 -0.00970858 0
-1.21448e-71 -0.00970858 0
1.24143e-71 -0.00970858 0
2.08883e-72 -0.00970858 0
-6.88695e-72 -0.00970858 0
-4.44528e-72 -0.00970858 0
-1.01432e-71 -0.00970858 0
5.93773e-72 -0.00970858 0
-7.95957e-72 -0.00970858 0
1.02125e-71 -0.00970858 0
7.06082e-73 -0.00970858 0
-1.05847e-71 -0.00970858 0
-1.2324e-71 -0.00970858 0
-1.91411e-72 -0.00970858 0
9.3057e-73 -0.00970858 0
2.16623e-72 -0.00970858 0
1.14319e-71 -0.00970858 0
SCALARS radius double 1
LOOKUP_TABLE default
0.0005192
0.000759374
0.000731582
0.000932767
0.000864852
0.00092132
0.000824734
0.000662097
0.000535446
0.00094621
0.000999249
0.000802661
0.000671708
0.000819153
0.000645007
0.000827505
0.000602392
0.000772815
0.000550095
0.000626194
0.000886859
0.000531918
0.000790192
0.000909137
0.00096445
SCALARS mass double 1
LOOKUP_TABLE default
0.00228657
0.0048913
0.00453983
0.00738005
0.00634449
0.00720004
0.00576955
0.0037184
0.0024319
0.00759432
0.00846957
0.00546484
0.00382714
0.00569173
0.00352892
0.00580838
0.00307803
0.005066
0.00256678
0.00332607
0.00667148
0.00239995
0.00529637
0.00701087
0.00788992
