# vtk DataFile Version 3.0
DEM2D particles
ASCII
DATASET POLYDATA
POINTS 25 double
0.000210492 -0.000995926 0
0.00247694 -0.00139522 0
0.00456711 -0.000747888 0
0.00674628 -0.000866602 0
0.00933215 5.05244e-05 0
0.000976388 0.0022047 0
0.00272805 0.00188915 0
0.00430175 0.00142034 0
0.00620408 0.00084302 0
0.00807857 0.00128898 0
0.00194188 0.00314166 0
0.00315848 0.00286074 0
0.00447748 0.00336494 0
0.00666273 0.00443749 0
0.00823043 0.00389001 0
0.0014505 0.00506033 0
0.0023961 0.0061737 0
0.00577483 0.00519878 0
0.00705357 0.0057604 0
0.00819693 0.00546611 0
6.49651e-05 0.0071073 0
0.00285477 0.0084673 0
0.0050706 0.00740009 0
0.00716435 0.00799511 0
0.00986735 0.00754402 0
VERTICES 25 50
1 0
1 1
1 2
1 3
1 4
1 5
1 6
1 7
1 8
1 9
1 10
1 11
1 12
1 13
1 14
1 15
1 16
1 17
1 18
1 19
1 20
1 21
1 22
1 23
1 24
POINT_DATA 25
VECTORS velocity double
-4.82746e-68 -0.00970858 0
-3.19828e-68 -0.00970858 0
-2.64693e-68 -0.00970858 0
-1.55139e-68 -0.00970858 0
2.03092e-68 -0.00970858 0
-1.44378e-69 -0.00970858 0
-1.66287e-68 -0.00970858 0
-4.26947e-68 -0.00970858 0
-4.86664e-68 -0.00970858 0
-5.63411e-68 -0.00970858 0
5.75915e-68 -0.00970858 0
9.69034e-69 -0.00970858 0
-3.19495e-68 -0.00970858 0
-2.06222e-68 -0.00970858 0
-4.70555e-68 -0.00970858 0
2.75459e-68 -0.00970858 0
-3.69255e-68 -0.00970858 0
4.73773e-68 -0.00970858 0
3.27561e-69 -0.00970858 0
-4.91039e-68 -0.00970858 0
-5.71728e-68 -0.00970858 0
-8.87982e-69 -0.00970858 0
4.31703e-69 -0.00970858 0
1.00494e-68 -0.00970858 0
5.30341e-68 -0.00970858 0
SCALARS radius double 1
LOOKUP_TABLE default
0.0005192
0.000759374
0.000731582
0.000932767
0.000864852
0.00092132
0.000824734
0.000662097
0.000535446
0.00094621
0.000999249
0.000802661
0.000671708
0.000819153
0.000645007
0.000827505
0.000602392
0.000772815
0.000550095
0.000626194
0.000886859
0.000531918
0.000790192
0.000909137
0.00096445
SCALARS mass double 1
LOOKUP_TABLE default
0.00228657
0.0048913
0.00453983
0.00738005
0.00634449
0.00720004
0.00576955
0.0037184
0.0024319
0.00759432
0.00846957
0.00546484
0.00382714
0.00569173
0.00352892
0.00580838
0.00307803
0.005066
0.00256678
0.00332607
0.00667148
0.00239995
0.00529637
0.00701087
0.00788992
