# vtk DataFile Version 3.0
DEM2D particles
ASCII
DATASET POLYDATA
POINTS 25 double
0.000210492 -0.000155163 0
0.00247694 -0.000554452 0
0.00456711 9.28754e-05 0
0.00674628 -2.58387e-05 0
0.00933215 0.000891288 0
0.000976388 0.00304546 0
0.00272805 0.00272991 0
0.00430175 0.0022611 0
0.00620408 0.00168378 0
0.00807857 0.00212974 0
0.00194188 0.00398242 0
0.00315848 0.0037015 0
0.00447748 0.0042057 0
0.00666273 0.00527825 0
0.00823043 0.00473077 0
0.0014505 0.0059011 0
0.0023961 0.00701447 0
0.00577483 0.00603955 0
0.00705357 0.00660116 0
0.00819693 0.00630687 0
6.49651e-05 0.00794806 0
0.00285477 0.00930807 0
0.0050706 0.00824086 0
0.00716435 0.00883587 0
0.00986735 0.00838478 0
VERTICES 25 50
1 0
1 1
1 2
1 3
1 4
1 5
1 6
1 7
1 8
1 9
1 10
1 11
1 12
1 13
1 14
1 15
1 16
1 17
1 18
1 19
1 20
1 21
1 22
1 23
1 24
POINT_DATA 25
VECTORS velocity double
-3.04042e-30 -0.00970858 0
-2.01433e-30 -0.00970858 0
-1.66708e-30 -0.00970858 0
-9.77091e-31 -0.00970858 0
1.27911e-30 -0.00970858 0
-9.09318e-32 -0.00970858 0
-1.0473e-30 -0.00970858 0
-2.68898e-30 -0.00970858 0
-3.06509e-30 -0.00970858 0
-3.54846e-30 -0.00970858 0
3.62721e-30 -0.00970858 0
6.10315e-31 -0.00970858 0
-2.01223e-30 -0.00970858 0
-1.29882e-30 -0.00970858 0
-2.96364e-30 -0.00970858 0
1.73489e-30 -0.00970858 0
-2.32563e-30 -0.00970858 0
2.9839e-30 -0.00970858 0
2.06303e-31 -0.00970858 0
-3.09265e-30 -0.00970858 0
-3.60084e-30 -0.00970858 0
-5.59267e-31 -0.00970858 0
2.71894e-31 -0.00970858 0
6.32929e-31 -0.00970858 0
3.34018e-30 -0.00970858 0
SCALARS radius double 1
LOOKUP_TABLE default
0.0005192
0.000759374
0.000731582
0.000932767
0.000864852
0.00092132
0.000824734
0.000662097
0.000535446
0.00094621
0.000999249
0.000802661
0.000671708
0.000819153
0.000645007
0.000827505
0.000602392
0.000772815
0.000550095
0.000626194
0.000886859
0.000531918
0.000790192
0.000909137
0.00096445
SCALARS mass double 1
LOOKUP_TABLE default
0.00228657
0.0048913
0.00453983
0.00738005
0.00634449
0.00720004
0.00576955
0.0037184
0.0024319
0.00759432
0.00846957
0.00546484
0.00382714
0.00569173
0.00352892
0.00580838
0.00307803
0.005066
0.00256678
0.00332607
0.00667148
0.00239995
0.00529637
0.00701087
0.00788992
