# vtk DataFile Version 3.0
DEM2D particles
ASCII
DATASET POLYDATA
POINTS 25 double
0.000210803 0.000423666 0
0.00247714 2.45345e-05 0
0.00456728 0.000671607 0
0.00674638 0.000552939 0
0.00933202 0.0014697 0
0.000976397 0.00362382 0
0.00272815 0.00330839 0
0.00430202 0.00283976 0
0.0062044 0.00226268 0
0.00807893 0.00270846 0
0.00194151 0.0045612 0
0.00315842 0.00428038 0
0.00447769 0.00478439 0
0.00666287 0.00585652 0
0.00823073 0.00530925 0
0.00145032 0.0064799 0
0.00239634 0.00759283 0
0.00577453 0.0066183 0
0.00705355 0.00717969 0
0.00819724 0.00688552 0
6.53334e-05 0.00852685 0
0.00285483 0.00988632 0
0.00507058 0.00881953 0
0.00716429 0.00941431 0
0.00986701 0.00896339 0
VERTICES 25 50
1 0
1 1
1 2
1 3
1 4
1 5
1 6
1 7
1 8
1 9
1 10
1 11
1 12
1 13
1 14
1 15
1 16
1 17
1 18
1 19
1 20
1 21
1 22
1 23
1 24
POINT_DATA 25
VECTORS velocity double
-0.000314176 -0.00990787 0
-0.000208147 -0.0100668 0
-0.000172265 -0.00980917 0
-0.000100966 -0.00985641 0
0.000132175 -0.00949145 0
-9.39628e-06 -0.0094301 0
-0.000108221 -0.00955567 0
-0.000277862 -0.00974223 0
-0.000316726 -0.00997196 0
-0.000366674 -0.0097945 0
0.000374812 -0.00985312 0
6.30658e-05 -0.00996491 0
-0.000207931 -0.00976427 0
-0.000134212 -0.00933746 0
-0.000306242 -0.00955532 0
0.000179272 -0.00988548 0
-0.000240315 -0.00944243 0
0.000308336 -0.00983039 0
2.1318e-05 -0.0096069 0
-0.000319574 -0.00972401 0
-0.000372087 -0.0098668 0
-5.77909e-05 -0.0093256 0
2.80957e-05 -0.00975028 0
6.54026e-05 -0.0095135 0
0.000345152 -0.00969301 0
SCALARS radius double 1
LOOKUP_TABLE default
0.0005192
0.000759374
0.000731582
0.000932767
0.000864852
0.00092132
0.000824734
0.000662097
0.000535446
0.00094621
0.000999249
0.000802661
0.000671708
0.000819153
0.000645007
0.000827505
0.000602392
0.000772815
0.000550095
0.000626194
0.000886859
0.000531918
0.000790192
0.000909137
0.00096445
SCALARS mass double 1
LOOKUP_TABLE default
0.00228657
0.0048913
0.00453983
0.00738005
0.00634449
0.00720004
0.00576955
0.0037184
0.0024319
0.00759432
0.00846957
0.00546484
0.00382714
0.00569173
0.00352892
0.00580838
0.00307803
0.005066
0.00256678
0.00332607
0.00667148
0.00239995
0.00529637
0.00701087
0.00788992
