# vtk DataFile Version 3.0
DEM2D particles
ASCII
DATASET POLYDATA
POINTS 25 double
0.000210492 -0.000137687 0
0.00247694 -0.000536976 0
0.00456711 0.000110351 0
0.00674628 -8.36325e-06 0
0.00933215 0.000908763 0
0.000976388 0.00306294 0
0.00272805 0.00274739 0
0.00430175 0.00227857 0
0.00620408 0.00170126 0
0.00807857 0.00214722 0
0.00194188 0.0039999 0
0.00315848 0.00371897 0
0.00447748 0.00422318 0
0.00666273 0.00529573 0
0.00823043 0.00474825 0
0.0014505 0.00591857 0
0.0023961 0.00703194 0
0.00577483 0.00605702 0
0.00705357 0.00661863 0
0.00819693 0.00632435 0
6.49651e-05 0.00796554 0
0.00285477 0.00932554 0
0.0050706 0.00825833 0
0.00716435 0.00885334 0
0.00986735 0.00840225 0
VERTICES 25 50
1 0
1 1
1 2
1 3
1 4
1 5
1 6
1 7
1 8
1 9
1 10
1 11
1 12
1 13
1 14
1 15
1 16
1 17
1 18
1 19
1 20
1 21
1 22
1 23
1 24
POINT_DATA 25
VECTORS velocity double
-1.85609e-29 -0.00970858 0
-1.22969e-29 -0.00970858 0
-1.0177e-29 -0.00970858 0
-5.96486e-30 -0.00970858 0
7.8086e-30 -0.00970858 0
-5.55112e-31 -0.00970858 0
-6.39349e-30 -0.00970858 0
-1.64155e-29 -0.00970858 0
-1.87115e-29 -0.00970858 0
-2.16623e-29 -0.00970858 0
2.21431e-29 -0.00970858 0
3.72579e-30 -0.00970858 0
-1.22841e-29 -0.00970858 0
-7.92894e-30 -0.00970858 0
-1.80921e-29 -0.00970858 0
1.0591e-29 -0.00970858 0
-1.41973e-29 -0.00970858 0
1.82159e-29 -0.00970858 0
1.25942e-30 -0.00970858 0
-1.88797e-29 -0.00970858 0
-2.19821e-29 -0.00970858 0
-3.41416e-30 -0.00970858 0
1.65984e-30 -0.00970858 0
3.86385e-30 -0.00970858 0
2.03908e-29 -0.00970858 0
SCALARS radius double 1
LOOKUP_TABLE default
0.0005192
0.000759374
0.000731582
0.000932767
0.000864852
0.00092132
0.000824734
0.000662097
0.000535446
0.00094621
0.000999249
0.000802661
0.000671708
0.000819153
0.000645007
0.000827505
0.000602392
0.000772815
0.000550095
0.000626194
0.000886859
0.000531918
0.000790192
0.000909137
0.00096445
SCALARS mass double 1
LOOKUP_TABLE default
0.00228657
0.0048913
0.00453983
0.00738005
0.00634449
0.00720004
0.00576955
0.0037184
0.0024319
0.00759432
0.00846957
0.00546484
0.00382714
0.00569173
0.00352892
0.00580838
0.00307803
0.005066
0.00256678
0.00332607
0.00667148
0.00239995
0.00529637
0.00701087
0.00788992
