# vtk DataFile Version 3.0
DEM2D particles
ASCII
DATASET POLYDATA
POINTS 25 double
0.000210492 -0.000269724 0
0.00247694 -0.000669013 0
0.00456711 -2.16859e-05 0
0.00674628 -0.0001404 0
0.00933215 0.000776726 0
0.000976388 0.0029309 0
0.00272805 0.00261535 0
0.00430175 0.00214654 0
0.00620408 0.00156922 0
0.00807857 0.00201518 0
0.00194188 0.00386786 0
0.00315848 0.00358694 0
0.00447748 0.00409114 0
0.00666273 0.00516369 0
0.00823043 0.00461621 0
0.0014505 0.00578654 0
0.0023961 0.00689991 0
0.00577483 0.00592498 0
0.00705357 0.0064866 0
0.00819693 0.00619231 0
6.49651e-05 0.0078335 0
0.00285477 0.00919351 0
0.0050706 0.00812629 0
0.00716435 0.00872131 0
0.00986735 0.00827022 0
VERTICES 25 50
1 0
1 1
1 2
1 3
1 4
1 5
1 6
1 7
1 8
1 9
1 10
1 11
1 12
1 13
1 14
1 15
1 16
1 17
1 18
1 19
1 20
1 21
1 22
1 23
1 24
POINT_DATA 25
VECTORS velocity double
-2.15012e-35 -0.00970858 0
-1.42449e-35 -0.00970858 0
-1.17893e-35 -0.00970858 0
-6.90979e-36 -0.00970858 0
9.04561e-36 -0.00970858 0
-6.43051e-37 -0.00970858 0
-7.40632e-36 -0.00970858 0
-1.90159e-35 -0.00970858 0
-2.16757e-35 -0.00970858 0
-2.5094e-35 -0.00970858 0
2.56509e-35 -0.00970858 0
4.31602e-36 -0.00970858 0
-1.42301e-35 -0.00970858 0
-9.18502e-36 -0.00970858 0
-2.09582e-35 -0.00970858 0
1.22688e-35 -0.00970858 0
-1.64464e-35 -0.00970858 0
2.11015e-35 -0.00970858 0
1.45894e-36 -0.00970858 0
-2.18706e-35 -0.00970858 0
-2.54644e-35 -0.00970858 0
-3.95502e-36 -0.00970858 0
1.92278e-36 -0.00970858 0
4.47594e-36 -0.00970858 0
2.36211e-35 -0.00970858 0
SCALARS radius double 1
LOOKUP_TABLE default
0.0005192
0.000759374
0.000731582
0.000932767
0.000864852
0.00092132
0.000824734
0.000662097
0.000535446
0.00094621
0.000999249
0.000802661
0.000671708
0.000819153
0.000645007
0.000827505
0.000602392
0.000772815
0.000550095
0.000626194
0.000886859
0.000531918
0.000790192
0.000909137
0.00096445
SCALARS mass double 1
LOOKUP_TABLE default
0.00228657
0.0048913
0.00453983
0.00738005
0.00634449
0.00720004
0.00576955
0.0037184
0.0024319
0.00759432
0.00846957
0.00546484
0.00382714
0.00569173
0.00352892
0.00580838
0.00307803
0.005066
0.00256678
0.00332607
0.00667148
0.00239995
0.00529637
0.00701087
0.00788992
