# vtk DataFile Version 3.0
DEM2D particles
ASCII
DATASET POLYDATA
POINTS 25 double
0.000210492 -0.00100175 0
0.00247694 -0.00140104 0
0.00456711 -0.000753713 0
0.00674628 -0.000872427 0
0.00933215 4.46992e-05 0
0.000976388 0.00219887 0
0.00272805 0.00188332 0
0.00430175 0.00141451 0
0.00620408 0.000837195 0
0.00807857 0.00128316 0
0.00194188 0.00313584 0
0.00315848 0.00285491 0
0.00447748 0.00335911 0
0.00666273 0.00443167 0
0.00823043 0.00388419 0
0.0014505 0.00505451 0
0.0023961 0.00616788 0
0.00577483 0.00519296 0
0.00705357 0.00575457 0
0.00819693 0.00546028 0
6.49651e-05 0.00710147 0
0.00285477 0.00846148 0
0.0050706 0.00739427 0
0.00716435 0.00798928 0
0.00986735 0.00753819 0
VERTICES 25 50
1 0
1 1
1 2
1 3
1 4
1 5
1 6
1 7
1 8
1 9
1 10
1 11
1 12
1 13
1 14
1 15
1 16
1 17
1 18
1 19
1 20
1 21
1 22
1 23
1 24
POINT_DATA 25
VECTORS velocity double
-2.64137e-68 -0.00970858 0
-1.74996e-68 -0.00970858 0
-1.44828e-68 -0.00970858 0
-8.48852e-69 -0.00970858 0
1.11123e-68 -0.00970858 0
-7.89974e-70 -0.00970858 0
-9.0985e-69 -0.00970858 0
-2.33607e-68 -0.00970858 0
-2.66281e-68 -0.00970858 0
-3.08274e-68 -0.00970858 0
3.15116e-68 -0.00970858 0
5.30213e-69 -0.00970858 0
-1.74814e-68 -0.00970858 0
-1.12836e-68 -0.00970858 0
-2.57467e-68 -0.00970858 0
1.50719e-68 -0.00970858 0
-2.0204e-68 -0.00970858 0
2.59228e-68 -0.00970858 0
1.79227e-69 -0.00970858 0
-2.68675e-68 -0.00970858 0
-3.12825e-68 -0.00970858 0
-4.85865e-69 -0.00970858 0
2.36209e-69 -0.00970858 0
5.4986e-69 -0.00970858 0
2.90179e-68 -0.00970858 0
SCALARS radius double 1
LOOKUP_TABLE default
0.0005192
0.000759374
0.000731582
0.000932767
0.000864852
0.00092132
0.000824734
0.000662097
0.000535446
0.00094621
0.000999249
0.000802661
0.000671708
0.000819153
0.000645007
0.000827505
0.000602392
0.000772815
0.000550095
0.000626194
0.000886859
0.000531918
0.000790192
0.000909137
0.00096445
SCALARS mass double 1
LOOKUP_TABLE default
0.00228657
0.0048913
0.00453983
0.00738005
0.00634449
0.00720004
0.00576955
0.0037184
0.0024319
0.00759432
0.00846957
0.00546484
0.00382714
0.00569173
0.00352892
0.00580838
0.00307803
0.005066
0.00256678
0.00332607
0.00667148
0.00239995
0.00529637
0.00701087
0.00788992
