# vtk DataFile Version 3.0
DEM2D particles
ASCII
DATASET POLYDATA
POINTS 25 double
0.000210492 -0.00113767 0
0.00247694 -0.00153696 0
0.00456711 -0.000889633 0
0.00674628 -0.00100835 0
0.00933215 -9.12209e-05 0
0.000976388 0.00206295 0
0.00272805 0.0017474 0
0.00430175 0.00127859 0
0.00620408 0.000701274 0
0.00807857 0.00114724 0
0.00194188 0.00299992 0
0.00315848 0.00271899 0
0.00447748 0.00322319 0
0.00666273 0.00429575 0
0.00823043 0.00374827 0
0.0014505 0.00491859 0
0.0023961 0.00603196 0
0.00577483 0.00505704 0
0.00705357 0.00561865 0
0.00819693 0.00532436 0
6.49651e-05 0.00696555 0
0.00285477 0.00832556 0
0.0050706 0.00725835 0
0.00716435 0.00785336 0
0.00986735 0.00740227 0
VERTICES 25 50
1 0
1 1
1 2
1 3
1 4
1 5
1 6
1 7
1 8
1 9
1 10
1 11
1 12
1 13
1 14
1 15
1 16
1 17
1 18
1 19
1 20
1 21
1 22
1 23
1 24
POINT_DATA 25
VECTORS velocity double
-2.04693e-74 -0.00970858 0
-1.35613e-74 -0.00970858 0
-1.12234e-74 -0.00970858 0
-6.57816e-75 -0.00970858 0
8.61148e-75 -0.00970858 0
-6.12189e-76 -0.00970858 0
-7.05086e-75 -0.00970858 0
-1.81033e-74 -0.00970858 0
-2.06354e-74 -0.00970858 0
-2.38896e-74 -0.00970858 0
2.44198e-74 -0.00970858 0
4.10888e-75 -0.00970858 0
-1.35471e-74 -0.00970858 0
-8.74419e-75 -0.00970858 0
-1.99524e-74 -0.00970858 0
1.168e-74 -0.00970858 0
-1.56571e-74 -0.00970858 0
2.00888e-74 -0.00970858 0
1.38892e-75 -0.00970858 0
-2.08209e-74 -0.00970858 0
-2.42423e-74 -0.00970858 0
-3.7652e-75 -0.00970858 0
1.8305e-75 -0.00970858 0
4.26113e-75 -0.00970858 0
2.24874e-74 -0.00970858 0
SCALARS radius double 1
LOOKUP_TABLE default
0.0005192
0.000759374
0.000731582
0.000932767
0.000864852
0.00092132
0.000824734
0.000662097
0.000535446
0.00094621
0.000999249
0.000802661
0.000671708
0.000819153
0.000645007
0.000827505
0.000602392
0.000772815
0.000550095
0.000626194
0.000886859
0.000531918
0.000790192
0.000909137
0.00096445
SCALARS mass double 1
LOOKUP_TABLE default
0.00228657
0.0048913
0.00453983
0.00738005
0.00634449
0.00720004
0.00576955
0.0037184
0.0024319
0.00759432
0.00846957
0.00546484
0.00382714
0.00569173
0.00352892
0.00580838
0.00307803
0.005066
0.00256678
0.00332607
0.00667148
0.00239995
0.00529637
0.00701087
0.00788992
