# vtk DataFile Version 3.0
DEM2D particles
ASCII
DATASET POLYDATA
POINTS 25 double
0.000210492 0.000114736 0
0.00247694 -0.000284553 0
0.00456711 0.000362774 0
0.00674628 0.00024406 0
0.00933215 0.00116119 0
0.000976388 0.00331536 0
0.00272805 0.00299981 0
0.00430175 0.002531 0
0.00620408 0.00195368 0
0.00807857 0.00239964 0
0.00194188 0.00425232 0
0.00315848 0.0039714 0
0.00447748 0.0044756 0
0.00666273 0.00554815 0
0.00823043 0.00500067 0
0.0014505 0.006171 0
0.0023961 0.00728437 0
0.00577483 0.00630944 0
0.00705357 0.00687106 0
0.00819693 0.00657677 0
6.49651e-05 0.00821796 0
0.00285477 0.00957797 0
0.0050706 0.00851075 0
0.00716435 0.00910577 0
0.00986735 0.00865468 0
VERTICES 25 50
1 0
1 1
1 2
1 3
1 4
1 5
1 6
1 7
1 8
1 9
1 10
1 11
1 12
1 13
1 14
1 15
1 16
1 17
1 18
1 19
1 20
1 21
1 22
1 23
1 24
POINT_DATA 25
VECTORS velocity double
-4.14088e-18 -0.00970858 0
-2.7434e-18 -0.00970858 0
-2.27047e-18 -0.00970858 0
-1.33074e-18 -0.00970858 0
1.74208e-18 -0.00970858 0
-1.23844e-19 -0.00970858 0
-1.42637e-18 -0.00970858 0
-3.66224e-18 -0.00970858 0
-4.17448e-18 -0.00970858 0
-4.83281e-18 -0.00970858 0
4.94006e-18 -0.00970858 0
8.31214e-19 -0.00970858 0
-2.74055e-18 -0.00970858 0
-1.76892e-18 -0.00970858 0
-4.0363e-18 -0.00970858 0
2.36282e-18 -0.00970858 0
-3.16738e-18 -0.00970858 0
4.06391e-18 -0.00970858 0
2.80974e-19 -0.00970858 0
-4.21202e-18 -0.00970858 0
-4.90414e-18 -0.00970858 0
-7.61689e-19 -0.00970858 0
3.70305e-19 -0.00970858 0
8.62014e-19 -0.00970858 0
4.54913e-18 -0.00970858 0
SCALARS radius double 1
LOOKUP_TABLE default
0.0005192
0.000759374
0.000731582
0.000932767
0.000864852
0.00092132
0.000824734
0.000662097
0.000535446
0.00094621
0.000999249
0.000802661
0.000671708
0.000819153
0.000645007
0.000827505
0.000602392
0.000772815
0.000550095
0.000626194
0.000886859
0.000531918
0.000790192
0.000909137
0.00096445
SCALARS mass double 1
LOOKUP_TABLE default
0.00228657
0.0048913
0.00453983
0.00738005
0.00634449
0.00720004
0.00576955
0.0037184
0.0024319
0.00759432
0.00846957
0.00546484
0.00382714
0.00569173
0.00352892
0.00580838
0.00307803
0.005066
0.00256678
0.00332607
0.00667148
0.00239995
0.00529637
0.00701087
0.00788992
