# vtk DataFile Version 3.0
DEM2D particles
ASCII
DATASET POLYDATA
POINTS 25 double
0.000227819 0.000473295 0
0.00248842 8.27685e-05 0
0.00457661 0.000715889 0
0.00675185 0.00059978 0
0.00932486 0.00149678 0
0.000976906 0.00364757 0
0.00273401 0.00333894 0
0.00431707 0.00288042 0
0.00622155 0.00231577 0
0.00809879 0.00275195 0
0.00192121 0.00460786 0
0.003155 0.0043331 0
0.00448895 0.00482624 0
0.00667013 0.00587525 0
0.00824732 0.00533979 0
0.00144061 0.00652832 0
0.00240935 0.00761725 0
0.00575783 0.00666373 0
0.0070524 0.00721302 0
0.00821455 0.00692519 0
8.54862e-05 0.00857425 0
0.00285796 0.00990441 0
0.00506905 0.00886062 0
0.00716075 0.00944258 0
0.00984831 0.00900139 0
VERTICES 25 50
1 0
1 1
1 2
1 3
1 4
1 5
1 6
1 7
1 8
1 9
1 10
1 11
1 12
1 13
1 14
1 15
1 16
1 17
1 18
1 19
1 20
1 21
1 22
1 23
1 24
POINT_DATA 25
VECTORS velocity double
-0.0175023 -0.0208107 0
-0.0115956 -0.0296624 0
-0.00959664 -0.0153121 0
-0.00562467 -0.0179438 0
0.00736327 0.00238764 0
-0.000523454 0.00580549 0
-0.00602886 -0.00118988 0
-0.0154793 -0.0115828 0
-0.0176444 -0.0243811 0
-0.0204269 -0.0144947 0
0.0208802 -0.0177606 0
0.00351331 -0.0239883 0
-0.0115835 -0.0128109 0
-0.00747675 0.0109661 0
-0.0170603 -0.00117073 0
0.00998698 -0.0195635 0
-0.0133876 0.00511835 0
0.017177 -0.0164943 0
0.0011876 -0.00404412 0
-0.017803 -0.010568 0
-0.0207284 -0.0185224 0
-0.00321945 0.0116271 0
0.00156517 -0.0120315 0
0.00364349 0.00115909 0
0.0192279 -0.00884097 0
SCALARS radius double 1
LOOKUP_TABLE default
0.0005192
0.000759374
0.000731582
0.000932767
0.000864852
0.00092132
0.000824734
0.000662097
0.000535446
0.00094621
0.000999249
0.000802661
0.000671708
0.000819153
0.000645007
0.000827505
0.000602392
0.000772815
0.000550095
0.000626194
0.000886859
0.000531918
0.000790192
0.000909137
0.00096445
SCALARS mass double 1
LOOKUP_TABLE default
0.00228657
0.0048913
0.00453983
0.00738005
0.00634449
0.00720004
0.00576955
0.0037184
0.0024319
0.00759432
0.00846957
0.00546484
0.00382714
0.00569173
0.00352892
0.00580838
0.00307803
0.005066
0.00256678
0.00332607
0.00667148
0.00239995
0.00529637
0.00701087
0.00788992
