# vtk DataFile Version 3.0
DEM2D particles
ASCII
DATASET POLYDATA
POINTS 25 double
0.000446855 0.000637477 0
0.00263353 0.000357727 0
0.00469671 0.000811257 0
0.00682224 0.000728083 0
0.00923271 0.00137064 0
0.000983457 0.00347866 0
0.00280946 0.00325758 0
0.00451079 0.00292912 0
0.00644237 0.00252464 0
0.00835443 0.00283709 0
0.0016599 0.00473387 0
0.00311103 0.00453705 0
0.00463391 0.00489031 0
0.0067637 0.00564176 0
0.00846082 0.00525818 0
0.00131563 0.00667689 0
0.0025769 0.00745694 0
0.00554286 0.00677389 0
0.00703753 0.00716737 0
0.00843735 0.00696119 0
0.000344896 0.0087098 0
0.00289825 0.00966264 0
0.00504947 0.00891493 0
0.00711515 0.00933181 0
0.00960768 0.00901577 0
VERTICES 25 50
1 0
1 1
1 2
1 3
1 4
1 5
1 6
1 7
1 8
1 9
1 10
1 11
1 12
1 13
1 14
1 15
1 16
1 17
1 18
1 19
1 20
1 21
1 22
1 23
1 24
POINT_DATA 25
VECTORS velocity double
-0.238751 -0.161154 0
-0.158177 -0.281901 0
-0.130909 -0.0861462 0
-0.0767267 -0.122046 0
0.100443 0.155297 0
-0.00714048 0.20192 0
-0.0822403 0.106496 0
-0.211154 -0.0352747 0
-0.240689 -0.209857 0
-0.278646 -0.0749968 0
0.284829 -0.119547 0
0.0479254 -0.2045 0
-0.158012 -0.052027 0
-0.101991 0.272317 0
-0.232722 0.106757 0
0.136233 -0.144141 0
-0.182622 0.192547 0
0.234313 -0.102273 0
0.0162001 0.0675609 0
-0.242853 -0.0214326 0
-0.282759 -0.129938 0
-0.0439168 0.281333 0
0.0213507 -0.0413963 0
0.0497012 0.138538 0
0.26229 0.0021266 0
SCALARS radius double 1
LOOKUP_TABLE default
0.0005192
0.000759374
0.000731582
0.000932767
0.000864852
0.00092132
0.000824734
0.000662097
0.000535446
0.00094621
0.000999249
0.000802661
0.000671708
0.000819153
0.000645007
0.000827505
0.000602392
0.000772815
0.000550095
0.000626194
0.000886859
0.000531918
0.000790192
0.000909137
0.00096445
SCALARS mass double 1
LOOKUP_TABLE default
0.00228657
0.0048913
0.00453983
0.00738005
0.00634449
0.00720004
0.00576955
0.0037184
0.0024319
0.00759432
0.00846957
0.00546484
0.00382714
0.00569173
0.00352892
0.00580838
0.00307803
0.005066
0.00256678
0.00332607
0.00667148
0.00239995
0.00529637
0.00701087
0.00788992
