# vtk DataFile Version 3.0
DEM2D particles
ASCII
DATASET POLYDATA
POINTS 25 double
0.000210492 0.000318616 0
0.00247694 -8.06728e-05 0
0.00456711 0.000566654 0
0.00674628 0.00044794 0
0.00933215 0.00136507 0
0.000976388 0.00351924 0
0.00272805 0.00320369 0
0.00430175 0.00273488 0
0.00620408 0.00215756 0
0.00807857 0.00260352 0
0.00194188 0.0044562 0
0.00315848 0.00417528 0
0.00447748 0.00467948 0
0.00666273 0.00575203 0
0.00823043 0.00520455 0
0.0014505 0.00637488 0
0.0023961 0.00748825 0
0.00577483 0.00651332 0
0.00705357 0.00707494 0
0.00819693 0.00678065 0
6.49651e-05 0.00842184 0
0.00285477 0.00978185 0
0.0050706 0.00871463 0
0.00716435 0.00930965 0
0.00986735 0.00885856 0
VERTICES 25 50
1 0
1 1
1 2
1 3
1 4
1 5
1 6
1 7
1 8
1 9
1 10
1 11
1 12
1 13
1 14
1 15
1 16
1 17
1 18
1 19
1 20
1 21
1 22
1 23
1 24
POINT_DATA 25
VECTORS velocity double
-6.06993e-09 -0.00970859 0
-4.02144e-09 -0.00970859 0
-3.32818e-09 -0.00970859 0
-1.95068e-09 -0.00970859 0
2.55363e-09 -0.00970858 0
-1.81537e-10 -0.00970858 0
-2.09085e-09 -0.00970858 0
-5.36832e-09 -0.00970858 0
-6.11919e-09 -0.00970859 0
-7.0842e-09 -0.00970859 0
7.24142e-09 -0.00970859 0
1.21844e-09 -0.00970859 0
-4.01725e-09 -0.00970858 0
-2.59299e-09 -0.00970858 0
-5.91664e-09 -0.00970858 0
3.46355e-09 -0.00970859 0
-4.64292e-09 -0.00970858 0
5.9571e-09 -0.00970859 0
4.11867e-10 -0.00970858 0
-6.17421e-09 -0.00970858 0
-7.18877e-09 -0.00970859 0
-1.11653e-09 -0.00970858 0
5.42813e-10 -0.00970858 0
1.26359e-09 -0.00970858 0
6.66838e-09 -0.00970858 0
SCALARS radius double 1
LOOKUP_TABLE default
0.0005192
0.000759374
0.000731582
0.000932767
0.000864852
0.00092132
0.000824734
0.000662097
0.000535446
0.00094621
0.000999249
0.000802661
0.000671708
0.000819153
0.000645007
0.000827505
0.000602392
0.000772815
0.000550095
0.000626194
0.000886859
0.000531918
0.000790192
0.000909137
0.00096445
SCALARS mass double 1
LOOKUP_TABLE default
0.00228657
0.0048913
0.00453983
0.00738005
0.00634449
0.00720004
0.00576955
0.0037184
0.0024319
0.00759432
0.00846957
0.00546484
0.00382714
0.00569173
0.00352892
0.00580838
0.00307803
0.005066
0.00256678
0.00332607
0.00667148
0.00239995
0.00529637
0.00701087
0.00788992
