# vtk DataFile Version 3.0
DEM2D particles
ASCII
DATASET POLYDATA
POINTS 25 double
0.000210492 -0.000722144 0
0.00247694 -0.00112143 0
0.00456711 -0.000474106 0
0.00674628 -0.00059282 0
0.00933215 0.000324306 0
0.000976388 0.00247848 0
0.00272805 0.00216293 0
0.00430175 0.00169412 0
0.00620408 0.0011168 0
0.00807857 0.00156276 0
0.00194188 0.00341544 0
0.00315848 0.00313452 0
0.00447748 0.00363872 0
0.00666273 0.00471127 0
0.00823043 0.00416379 0
0.0014505 0.00533412 0
0.0023961 0.00644749 0
0.00577483 0.00547256 0
0.00705357 0.00603418 0
0.00819693 0.00573989 0
6.49651e-05 0.00738108 0
0.00285477 0.00874109 0
0.0050706 0.00767387 0
0.00716435 0.00826889 0
0.00986735 0.0078178 0
VERTICES 25 50
1 0
1 1
1 2
1 3
1 4
1 5
1 6
1 7
1 8
1 9
1 10
1 11
1 12
1 13
1 14
1 15
1 16
1 17
1 18
1 19
1 20
1 21
1 22
1 23
1 24
POINT_DATA 25
VECTORS velocity double
-9.8281e-56 -0.00970858 0
-6.51129e-56 -0.00970858 0
-5.38881e-56 -0.00970858 0
-3.15843e-56 -0.00970858 0
4.13471e-56 -0.00970858 0
-2.93936e-57 -0.00970858 0
-3.3854e-56 -0.00970858 0
-8.6921e-56 -0.00970858 0
-9.90787e-56 -0.00970858 0
-1.14704e-55 -0.00970858 0
1.17249e-55 -0.00970858 0
1.97283e-56 -0.00970858 0
-6.50451e-56 -0.00970858 0
-4.19843e-56 -0.00970858 0
-9.5799e-56 -0.00970858 0
5.608e-56 -0.00970858 0
-7.51757e-56 -0.00970858 0
9.64542e-56 -0.00970858 0
6.66873e-57 -0.00970858 0
-9.99695e-56 -0.00970858 0
-1.16397e-55 -0.00970858 0
-1.80782e-56 -0.00970858 0
8.78894e-57 -0.00970858 0
2.04593e-56 -0.00970858 0
1.07971e-55 -0.00970858 0
SCALARS radius double 1
LOOKUP_TABLE default
0.0005192
0.000759374
0.000731582
0.000932767
0.000864852
0.00092132
0.000824734
0.000662097
0.000535446
0.00094621
0.000999249
0.000802661
0.000671708
0.000819153
0.000645007
0.000827505
0.000602392
0.000772815
0.000550095
0.000626194
0.000886859
0.000531918
0.000790192
0.000909137
0.00096445
SCALARS mass double 1
LOOKUP_TABLE default
0.00228657
0.0048913
0.00453983
0.00738005
0.00634449
0.00720004
0.00576955
0.0037184
0.0024319
0.00759432
0.00846957
0.00546484
0.00382714
0.00569173
0.00352892
0.00580838
0.00307803
0.005066
0.00256678
0.00332607
0.00667148
0.00239995
0.00529637
0.00701087
0.00788992
