# vtk DataFile Version 3.0
DEM2D particles
ASCII
DATASET POLYDATA
POINTS 25 double
0.000210492 -0.00118816 0
0.00247694 -0.00158744 0
0.00456711 -0.000940118 0
0.00674628 -0.00105883 0
0.00933215 -0.000141706 0
0.000976388 0.00201247 0
0.00272805 0.00169692 0
0.00430175 0.00122811 0
0.00620408 0.00065079 0
0.00807857 0.00109675 0
0.00194188 0.00294943 0
0.00315848 0.00266851 0
0.00447748 0.00317271 0
0.00666273 0.00424526 0
0.00823043 0.00369778 0
0.0014505 0.0048681 0
0.0023961 0.00598147 0
0.00577483 0.00500655 0
0.00705357 0.00556817 0
0.00819693 0.00527388 0
6.49651e-05 0.00691507 0
0.00285477 0.00827507 0
0.0050706 0.00720786 0
0.00716435 0.00780288 0
0.00986735 0.00735179 0
VERTICES 25 50
1 0
1 1
1 2
1 3
1 4
1 5
1 6
1 7
1 8
1 9
1 10
1 11
1 12
1 13
1 14
1 15
1 16
1 17
1 18
1 19
1 20
1 21
1 22
1 23
1 24
POINT_DATA 25
VECTORS velocity double
-1.10003e-76 -0.00970858 0
-7.28788e-77 -0.00970858 0
-6.03153e-77 -0.00970858 0
-3.53513e-77 -0.00970858 0
4.62785e-77 -0.00970858 0
-3.28993e-78 -0.00970858 0
-3.78916e-77 -0.00970858 0
-9.72879e-77 -0.00970858 0
-1.10896e-76 -0.00970858 0
-1.28384e-76 -0.00970858 0
1.31233e-76 -0.00970858 0
2.20813e-77 -0.00970858 0
-7.28029e-77 -0.00970858 0
-4.69917e-77 -0.00970858 0
-1.07225e-76 -0.00970858 0
6.27686e-77 -0.00970858 0
-8.41417e-77 -0.00970858 0
1.07958e-76 -0.00970858 0
7.46409e-78 -0.00970858 0
-1.11893e-76 -0.00970858 0
-1.30279e-76 -0.00970858 0
-2.02344e-77 -0.00970858 0
9.83718e-78 -0.00970858 0
2.28995e-77 -0.00970858 0
1.20848e-76 -0.00970858 0
SCALARS radius double 1
LOOKUP_TABLE default
0.0005192
0.000759374
0.000731582
0.000932767
0.000864852
0.00092132
0.000824734
0.000662097
0.000535446
0.00094621
0.000999249
0.000802661
0.000671708
0.000819153
0.000645007
0.000827505
0.000602392
0.000772815
0.000550095
0.000626194
0.000886859
0.000531918
0.000790192
0.000909137
0.00096445
SCALARS mass double 1
LOOKUP_TABLE default
0.00228657
0.0048913
0.00453983
0.00738005
0.00634449
0.00720004
0.00576955
0.0037184
0.0024319
0.00759432
0.00846957
0.00546484
0.00382714
0.00569173
0.00352892
0.00580838
0.00307803
0.005066
0.00256678
0.00332607
0.00667148
0.00239995
0.00529637
0.00701087
0.00788992
