# vtk DataFile Version 3.0
DEM2D particles
ASCII
DATASET POLYDATA
POINTS 25 double
0.000210492 -0.000252248 0
0.00247694 -0.000651538 0
0.00456711 -4.21042e-06 0
0.00674628 -0.000122925 0
0.00933215 0.000794202 0
0.000976388 0.00294838 0
0.00272805 0.00263282 0
0.00430175 0.00216401 0
0.00620408 0.0015867 0
0.00807857 0.00203266 0
0.00194188 0.00388534 0
0.00315848 0.00360441 0
0.00447748 0.00410862 0
0.00666273 0.00518117 0
0.00823043 0.00463369 0
0.0014505 0.00580401 0
0.0023961 0.00691738 0
0.00577483 0.00594246 0
0.00705357 0.00650407 0
0.00819693 0.00620979 0
6.49651e-05 0.00785098 0
0.00285477 0.00921098 0
0.0050706 0.00814377 0
0.00716435 0.00873878 0
0.00986735 0.00828769 0
VERTICES 25 50
1 0
1 1
1 2
1 3
1 4
1 5
1 6
1 7
1 8
1 9
1 10
1 11
1 12
1 13
1 14
1 15
1 16
1 17
1 18
1 19
1 20
1 21
1 22
1 23
1 24
POINT_DATA 25
VECTORS velocity double
-1.31259e-34 -0.00970858 0
-8.69612e-35 -0.00970858 0
-7.197e-35 -0.00970858 0
-4.21822e-35 -0.00970858 0
5.52208e-35 -0.00970858 0
-3.92564e-36 -0.00970858 0
-4.52134e-35 -0.00970858 0
-1.16087e-34 -0.00970858 0
-1.32324e-34 -0.00970858 0
-1.53192e-34 -0.00970858 0
1.56591e-34 -0.00970858 0
2.6348e-35 -0.00970858 0
-8.68706e-35 -0.00970858 0
-5.60718e-35 -0.00970858 0
-1.27944e-34 -0.00970858 0
7.48973e-35 -0.00970858 0
-1.004e-34 -0.00970858 0
1.28819e-34 -0.00970858 0
8.90638e-36 -0.00970858 0
-1.33514e-34 -0.00970858 0
-1.55453e-34 -0.00970858 0
-2.41442e-35 -0.00970858 0
1.1738e-35 -0.00970858 0
2.73243e-35 -0.00970858 0
1.442e-34 -0.00970858 0
SCALARS radius double 1
LOOKUP_TABLE default
0.0005192
0.000759374
0.000731582
0.000932767
0.000864852
0.00092132
0.000824734
0.000662097
0.000535446
0.00094621
0.000999249
0.000802661
0.000671708
0.000819153
0.000645007
0.000827505
0.000602392
0.000772815
0.000550095
0.000626194
0.000886859
0.000531918
0.000790192
0.000909137
0.00096445
SCALARS mass double 1
LOOKUP_TABLE default
0.00228657
0.0048913
0.00453983
0.00738005
0.00634449
0.00720004
0.00576955
0.0037184
0.0024319
0.00759432
0.00846957
0.00546484
0.00382714
0.00569173
0.00352892
0.00580838
0.00307803
0.005066
0.00256678
0.00332607
0.00667148
0.00239995
0.00529637
0.00701087
0.00788992
