# vtk DataFile Version 3.0
DEM2D particles
ASCII
DATASET POLYDATA
POINTS 25 double
0.000210492 -0.00110466 0
0.00247694 -0.00150395 0
0.00456711 -0.000856624 0
0.00674628 -0.000975338 0
0.00933215 -5.82117e-05 0
0.000976388 0.00209596 0
0.00272805 0.00178041 0
0.00430175 0.0013116 0
0.00620408 0.000734284 0
0.00807857 0.00118025 0
0.00194188 0.00303292 0
0.00315848 0.002752 0
0.00447748 0.0032562 0
0.00666273 0.00432875 0
0.00823043 0.00378127 0
0.0014505 0.0049516 0
0.0023961 0.00606497 0
0.00577483 0.00509005 0
0.00705357 0.00565166 0
0.00819693 0.00535737 0
6.49651e-05 0.00699856 0
0.00285477 0.00835857 0
0.0050706 0.00729136 0
0.00716435 0.00788637 0
0.00986735 0.00743528 0
VERTICES 25 50
1 0
1 1
1 2
1 3
1 4
1 5
1 6
1 7
1 8
1 9
1 10
1 11
1 12
1 13
1 14
1 15
1 16
1 17
1 18
1 19
1 20
1 21
1 22
1 23
1 24
POINT_DATA 25
VECTORS velocity double
-6.23931e-73 -0.00970858 0
-4.13365e-73 -0.00970858 0
-3.42105e-73 -0.00970858 0
-2.00511e-73 -0.00970858 0
2.62489e-73 -0.00970858 0
-1.86603e-74 -0.00970858 0
-2.1492e-73 -0.00970858 0
-5.51812e-73 -0.00970858 0
-6.28994e-73 -0.00970858 0
-7.28188e-73 -0.00970858 0
7.44348e-73 -0.00970858 0
1.25244e-73 -0.00970858 0
-4.12935e-73 -0.00970858 0
-2.66534e-73 -0.00970858 0
-6.08174e-73 -0.00970858 0
3.5602e-73 -0.00970858 0
-4.77248e-73 -0.00970858 0
6.12333e-73 -0.00970858 0
4.2336e-74 -0.00970858 0
-6.3465e-73 -0.00970858 0
-7.38937e-73 -0.00970858 0
-1.14768e-73 -0.00970858 0
5.5796e-74 -0.00970858 0
1.29885e-73 -0.00970858 0
6.85445e-73 -0.00970858 0
SCALARS radius double 1
LOOKUP_TABLE default
0.0005192
0.000759374
0.000731582
0.000932767
0.000864852
0.00092132
0.000824734
0.000662097
0.000535446
0.00094621
0.000999249
0.000802661
0.000671708
0.000819153
0.000645007
0.000827505
0.000602392
0.000772815
0.000550095
0.000626194
0.000886859
0.000531918
0.000790192
0.000909137
0.00096445
SCALARS mass double 1
LOOKUP_TABLE default
0.00228657
0.0048913
0.00453983
0.00738005
0.00634449
0.00720004
0.00576955
0.0037184
0.0024319
0.00759432
0.00846957
0.00546484
0.00382714
0.00569173
0.00352892
0.00580838
0.00307803
0.005066
0.00256678
0.00332607
0.00667148
0.00239995
0.00529637
0.00701087
0.00788992
