# vtk DataFile Version 3.0
DEM2D particles
ASCII
DATASET POLYDATA
POINTS 25 double
0.000210492 -0.000320208 0
0.00247694 -0.000719498 0
0.00456711 -7.21705e-05 0
0.00674628 -0.000190885 0
0.00933215 0.000726242 0
0.000976388 0.00288042 0
0.00272805 0.00256486 0
0.00430175 0.00209605 0
0.00620408 0.00151874 0
0.00807857 0.0019647 0
0.00194188 0.00381738 0
0.00315848 0.00353645 0
0.00447748 0.00404066 0
0.00666273 0.00511321 0
0.00823043 0.00456573 0
0.0014505 0.00573605 0
0.0023961 0.00684942 0
0.00577483 0.0058745 0
0.00705357 0.00643611 0
0.00819693 0.00614183 0
6.49651e-05 0.00778302 0
0.00285477 0.00914302 0
0.0050706 0.00807581 0
0.00716435 0.00867082 0
0.00986735 0.00821973 0
VERTICES 25 50
1 0
1 1
1 2
1 3
1 4
1 5
1 6
1 7
1 8
1 9
1 10
1 11
1 12
1 13
1 14
1 15
1 16
1 17
1 18
1 19
1 20
1 21
1 22
1 23
1 24
POINT_DATA 25
VECTORS velocity double
-1.15548e-37 -0.00970858 0
-7.65529e-38 -0.00970858 0
-6.3356e-38 -0.00970858 0
-3.71335e-38 -0.00970858 0
4.86115e-38 -0.00970858 0
-3.45578e-39 -0.00970858 0
-3.98019e-38 -0.00970858 0
-1.02193e-37 -0.00970858 0
-1.16486e-37 -0.00970858 0
-1.34856e-37 -0.00970858 0
1.37849e-37 -0.00970858 0
2.31945e-38 -0.00970858 0
-7.64732e-38 -0.00970858 0
-4.93607e-38 -0.00970858 0
-1.1263e-37 -0.00970858 0
6.59329e-38 -0.00970858 0
-8.83836e-38 -0.00970858 0
1.13401e-37 -0.00970858 0
7.84038e-39 -0.00970858 0
-1.17534e-37 -0.00970858 0
-1.36847e-37 -0.00970858 0
-2.12544e-38 -0.00970858 0
1.03331e-38 -0.00970858 0
2.40539e-38 -0.00970858 0
1.26941e-37 -0.00970858 0
SCALARS radius double 1
LOOKUP_TABLE default
0.0005192
0.000759374
0.000731582
0.000932767
0.000864852
0.00092132
0.000824734
0.000662097
0.000535446
0.00094621
0.000999249
0.000802661
0.000671708
0.000819153
0.000645007
0.000827505
0.000602392
0.000772815
0.000550095
0.000626194
0.000886859
0.000531918
0.000790192
0.000909137
0.00096445
SCALARS mass double 1
LOOKUP_TABLE default
0.00228657
0.0048913
0.00453983
0.00738005
0.00634449
0.00720004
0.00576955
0.0037184
0.0024319
0.00759432
0.00846957
0.00546484
0.00382714
0.00569173
0.00352892
0.00580838
0.00307803
0.005066
0.00256678
0.00332607
0.00667148
0.00239995
0.00529637
0.00701087
0.00788992
