# vtk DataFile Version 3.0
DEM2D particles
ASCII
DATASET POLYDATA
POINTS 25 double
0.000210492 -0.00102894 0
0.00247694 -0.00142822 0
0.00456711 -0.000780897 0
0.00674628 -0.000899611 0
0.00933215 1.75152e-05 0
0.000976388 0.00217169 0
0.00272805 0.00185614 0
0.00430175 0.00138733 0
0.00620408 0.000810011 0
0.00807857 0.00125597 0
0.00194188 0.00310865 0
0.00315848 0.00282773 0
0.00447748 0.00333193 0
0.00666273 0.00440448 0
0.00823043 0.003857 0
0.0014505 0.00502733 0
0.0023961 0.00614069 0
0.00577483 0.00516577 0
0.00705357 0.00572739 0
0.00819693 0.0054331 0
6.49651e-05 0.00707429 0
0.00285477 0.0084343 0
0.0050706 0.00736708 0
0.00716435 0.0079621 0
0.00986735 0.00751101 0
VERTICES 25 50
1 0
1 1
1 2
1 3
1 4
1 5
1 6
1 7
1 8
1 9
1 10
1 11
1 12
1 13
1 14
1 15
1 16
1 17
1 18
1 19
1 20
1 21
1 22
1 23
1 24
POINT_DATA 25
VECTORS velocity double
-1.58374e-69 -0.00970858 0
-1.04926e-69 -0.00970858 0
-8.68376e-70 -0.00970858 0
-5.08963e-70 -0.00970858 0
6.66285e-70 -0.00970858 0
-4.73661e-71 -0.00970858 0
-5.45537e-70 -0.00970858 0
-1.40068e-69 -0.00970858 0
-1.5966e-69 -0.00970858 0
-1.84838e-69 -0.00970858 0
1.8894e-69 -0.00970858 0
3.17911e-70 -0.00970858 0
-1.04817e-69 -0.00970858 0
-6.76553e-70 -0.00970858 0
-1.54375e-69 -0.00970858 0
9.03697e-70 -0.00970858 0
-1.21141e-69 -0.00970858 0
1.5543e-69 -0.00970858 0
1.07463e-70 -0.00970858 0
-1.61095e-69 -0.00970858 0
-1.87567e-69 -0.00970858 0
-2.9132e-70 -0.00970858 0
1.41629e-70 -0.00970858 0
3.29691e-70 -0.00970858 0
1.73989e-69 -0.00970858 0
SCALARS radius double 1
LOOKUP_TABLE default
0.0005192
0.000759374
0.000731582
0.000932767
0.000864852
0.00092132
0.000824734
0.000662097
0.000535446
0.00094621
0.000999249
0.000802661
0.000671708
0.000819153
0.000645007
0.000827505
0.000602392
0.000772815
0.000550095
0.000626194
0.000886859
0.000531918
0.000790192
0.000909137
0.00096445
SCALARS mass double 1
LOOKUP_TABLE default
0.00228657
0.0048913
0.00453983
0.00738005
0.00634449
0.00720004
0.00576955
0.0037184
0.0024319
0.00759432
0.00846957
0.00546484
0.00382714
0.00569173
0.00352892
0.00580838
0.00307803
0.005066
0.00256678
0.00332607
0.00667148
0.00239995
0.00529637
0.00701087
0.00788992
