# vtk DataFile Version 3.0
DEM2D particles
ASCII
DATASET POLYDATA
POINTS 25 double
0.000210492 -0.00112602 0
0.00247694 -0.00152531 0
0.00456711 -0.000877983 0
0.00674628 -0.000996697 0
0.00933215 -7.95706e-05 0
0.000976388 0.0020746 0
0.00272805 0.00175905 0
0.00430175 0.00129024 0
0.00620408 0.000712925 0
0.00807857 0.00115889 0
0.00194188 0.00301157 0
0.00315848 0.00273064 0
0.00447748 0.00323484 0
0.00666273 0.0043074 0
0.00823043 0.00375992 0
0.0014505 0.00493024 0
0.0023961 0.00604361 0
0.00577483 0.00506869 0
0.00705357 0.0056303 0
0.00819693 0.00533601 0
6.49651e-05 0.0069772 0
0.00285477 0.00833721 0
0.0050706 0.00727 0
0.00716435 0.00786501 0
0.00986735 0.00741392 0
VERTICES 25 50
1 0
1 1
1 2
1 3
1 4
1 5
1 6
1 7
1 8
1 9
1 10
1 11
1 12
1 13
1 14
1 15
1 16
1 17
1 18
1 19
1 20
1 21
1 22
1 23
1 24
POINT_DATA 25
VECTORS velocity double
-6.83721e-74 -0.00970858 0
-4.52978e-74 -0.00970858 0
-3.74889e-74 -0.00970858 0
-2.19726e-74 -0.00970858 0
2.87643e-74 -0.00970858 0
-2.04485e-75 -0.00970858 0
-2.35515e-74 -0.00970858 0
-6.04692e-74 -0.00970858 0
-6.8927e-74 -0.00970858 0
-7.9797e-74 -0.00970858 0
8.15679e-74 -0.00970858 0
1.37246e-74 -0.00970858 0
-4.52506e-74 -0.00970858 0
-2.92076e-74 -0.00970858 0
-6.66455e-74 -0.00970858 0
3.90137e-74 -0.00970858 0
-5.22982e-74 -0.00970858 0
6.71013e-74 -0.00970858 0
4.6393e-75 -0.00970858 0
-6.95468e-74 -0.00970858 0
-8.09749e-74 -0.00970858 0
-1.25766e-74 -0.00970858 0
6.11429e-75 -0.00970858 0
1.42332e-74 -0.00970858 0
7.51131e-74 -0.00970858 0
SCALARS radius double 1
LOOKUP_TABLE default
0.0005192
0.000759374
0.000731582
0.000932767
0.000864852
0.00092132
0.000824734
0.000662097
0.000535446
0.00094621
0.000999249
0.000802661
0.000671708
0.000819153
0.000645007
0.000827505
0.000602392
0.000772815
0.000550095
0.000626194
0.000886859
0.000531918
0.000790192
0.000909137
0.00096445
SCALARS mass double 1
LOOKUP_TABLE default
0.00228657
0.0048913
0.00453983
0.00738005
0.00634449
0.00720004
0.00576955
0.0037184
0.0024319
0.00759432
0.00846957
0.00546484
0.00382714
0.00569173
0.00352892
0.00580838
0.00307803
0.005066
0.00256678
0.00332607
0.00667148
0.00239995
0.00529637
0.00701087
0.00788992
