# vtk DataFile Version 3.0
DEM2D particles
ASCII
DATASET POLYDATA
POINTS 25 double
0.000210492 -9.10859e-05 0
0.00247694 -0.000490375 0
0.00456711 0.000156952 0
0.00674628 3.82379e-05 0
0.00933215 0.000955364 0
0.000976388 0.00310954 0
0.00272805 0.00279399 0
0.00430175 0.00232518 0
0.00620408 0.00174786 0
0.00807857 0.00219382 0
0.00194188 0.0040465 0
0.00315848 0.00376558 0
0.00447748 0.00426978 0
0.00666273 0.00534233 0
0.00823043 0.00479485 0
0.0014505 0.00596517 0
0.0023961 0.00707854 0
0.00577483 0.00610362 0
0.00705357 0.00666524 0
0.00819693 0.00637095 0
6.49651e-05 0.00801214 0
0.00285477 0.00937214 0
0.0050706 0.00830493 0
0.00716435 0.00889995 0
0.00986735 0.00844886 0
VERTICES 25 50
1 0
1 1
1 2
1 3
1 4
1 5
1 6
1 7
1 8
1 9
1 10
1 11
1 12
1 13
1 14
1 15
1 16
1 17
1 18
1 19
1 20
1 21
1 22
1 23
1 24
POINT_DATA 25
VECTORS velocity double
-2.31049e-27 -0.00970858 0
-1.53074e-27 -0.00970858 0
-1.26686e-27 -0.00970858 0
-7.42517e-28 -0.00970858 0
9.72031e-28 -0.00970858 0
-6.91015e-29 -0.00970858 0
-7.95874e-28 -0.00970858 0
-2.04343e-27 -0.00970858 0
-2.32925e-27 -0.00970858 0
-2.69657e-27 -0.00970858 0
2.75642e-27 -0.00970858 0
4.63794e-28 -0.00970858 0
-1.52915e-27 -0.00970858 0
-9.87011e-28 -0.00970858 0
-2.25214e-27 -0.00970858 0
1.31839e-27 -0.00970858 0
-1.76731e-27 -0.00970858 0
2.26755e-27 -0.00970858 0
1.56775e-28 -0.00970858 0
-2.35019e-27 -0.00970858 0
-2.73638e-27 -0.00970858 0
-4.25002e-28 -0.00970858 0
2.0662e-28 -0.00970858 0
4.8098e-28 -0.00970858 0
2.53829e-27 -0.00970858 0
SCALARS radius double 1
LOOKUP_TABLE default
0.0005192
0.000759374
0.000731582
0.000932767
0.000864852
0.00092132
0.000824734
0.000662097
0.000535446
0.00094621
0.000999249
0.000802661
0.000671708
0.000819153
0.000645007
0.000827505
0.000602392
0.000772815
0.000550095
0.000626194
0.000886859
0.000531918
0.000790192
0.000909137
0.00096445
SCALARS mass double 1
LOOKUP_TABLE default
0.00228657
0.0048913
0.00453983
0.00738005
0.00634449
0.00720004
0.00576955
0.0037184
0.0024319
0.00759432
0.00846957
0.00546484
0.00382714
0.00569173
0.00352892
0.00580838
0.00307803
0.005066
0.00256678
0.00332607
0.00667148
0.00239995
0.00529637
0.00701087
0.00788992
