# vtk DataFile Version 3.0
DEM2D particles
ASCII
DATASET POLYDATA
POINTS 25 double
0.000210492 -0.000151279 0
0.00247694 -0.000550568 0
0.00456711 9.67588e-05 0
0.00674628 -2.19553e-05 0
0.00933215 0.000895171 0
0.000976388 0.00304935 0
0.00272805 0.00273379 0
0.00430175 0.00226498 0
0.00620408 0.00168767 0
0.00807857 0.00213363 0
0.00194188 0.00398631 0
0.00315848 0.00370538 0
0.00447748 0.00420959 0
0.00666273 0.00528214 0
0.00823043 0.00473466 0
0.0014505 0.00590498 0
0.0023961 0.00701835 0
0.00577483 0.00604343 0
0.00705357 0.00660504 0
0.00819693 0.00631076 0
6.49651e-05 0.00795195 0
0.00285477 0.00931195 0
0.0050706 0.00824474 0
0.00716435 0.00883975 0
0.00986735 0.00838866 0
VERTICES 25 50
1 0
1 1
1 2
1 3
1 4
1 5
1 6
1 7
1 8
1 9
1 10
1 11
1 12
1 13
1 14
1 15
1 16
1 17
1 18
1 19
1 20
1 21
1 22
1 23
1 24
POINT_DATA 25
VECTORS velocity double
-4.54491e-30 -0.00970858 0
-3.01109e-30 -0.00970858 0
-2.492e-30 -0.00970858 0
-1.46059e-30 -0.00970858 0
1.91206e-30 -0.00970858 0
-1.35928e-31 -0.00970858 0
-1.56554e-30 -0.00970858 0
-4.01958e-30 -0.00970858 0
-4.5818e-30 -0.00970858 0
-5.30435e-30 -0.00970858 0
5.42207e-30 -0.00970858 0
9.12318e-31 -0.00970858 0
-3.00795e-30 -0.00970858 0
-1.94152e-30 -0.00970858 0
-4.43014e-30 -0.00970858 0
2.59337e-30 -0.00970858 0
-3.47643e-30 -0.00970858 0
4.46043e-30 -0.00970858 0
3.08389e-31 -0.00970858 0
-4.62299e-30 -0.00970858 0
-5.38265e-30 -0.00970858 0
-8.36009e-31 -0.00970858 0
4.06436e-31 -0.00970858 0
9.46122e-31 -0.00970858 0
4.993e-30 -0.00970858 0
SCALARS radius double 1
LOOKUP_TABLE default
0.0005192
0.000759374
0.000731582
0.000932767
0.000864852
0.00092132
0.000824734
0.000662097
0.000535446
0.00094621
0.000999249
0.000802661
0.000671708
0.000819153
0.000645007
0.000827505
0.000602392
0.000772815
0.000550095
0.000626194
0.000886859
0.000531918
0.000790192
0.000909137
0.00096445
SCALARS mass double 1
LOOKUP_TABLE default
0.00228657
0.0048913
0.00453983
0.00738005
0.00634449
0.00720004
0.00576955
0.0037184
0.0024319
0.00759432
0.00846957
0.00546484
0.00382714
0.00569173
0.00352892
0.00580838
0.00307803
0.005066
0.00256678
0.00332607
0.00667148
0.00239995
0.00529637
0.00701087
0.00788992
