# vtk DataFile Version 3.0
DEM2D particles
ASCII
DATASET POLYDATA
POINTS 25 double
0.000210492 0.000330267 0
0.00247694 -6.90225e-05 0
0.00456711 0.000578305 0
0.00674628 0.00045959 0
0.00933215 0.00137672 0
0.000976388 0.00353089 0
0.00272805 0.00321534 0
0.00430175 0.00274653 0
0.00620408 0.00216921 0
0.00807857 0.00261517 0
0.00194188 0.00446785 0
0.00315848 0.00418693 0
0.00447748 0.00469113 0
0.00666273 0.00576368 0
0.00823043 0.0052162 0
0.0014505 0.00638653 0
0.0023961 0.0074999 0
0.00577483 0.00652497 0
0.00705357 0.00708659 0
0.00819693 0.0067923 0
6.49651e-05 0.00843349 0
0.00285477 0.0097935 0
0.0050706 0.00872628 0
0.00716435 0.0093213 0
0.00986735 0.00887021 0
VERTICES 25 50
1 0
1 1
1 2
1 3
1 4
1 5
1 6
1 7
1 8
1 9
1 10
1 11
1 12
1 13
1 14
1 15
1 16
1 17
1 18
1 19
1 20
1 21
1 22
1 23
1 24
POINT_DATA 25
VECTORS velocity double
-2.0275e-08 -0.0097086 0
-1.34325e-08 -0.00970861 0
-1.11169e-08 -0.00970859 0
-6.51571e-09 -0.00970859 0
8.52973e-09 -0.00970857 0
-6.06377e-10 -0.00970857 0
-6.98393e-09 -0.00970857 0
-1.79314e-08 -0.00970859 0
-2.04395e-08 -0.0097086 0
-2.36629e-08 -0.00970859 0
2.4188e-08 -0.00970859 0
4.06987e-09 -0.0097086 0
-1.34185e-08 -0.00970859 0
-8.66118e-09 -0.00970856 0
-1.97629e-08 -0.00970857 0
1.15691e-08 -0.00970859 0
-1.55084e-08 -0.00970857 0
1.98981e-08 -0.00970859 0
1.37573e-09 -0.00970858 0
-2.06233e-08 -0.00970858 0
-2.40122e-08 -0.00970859 0
-3.72946e-09 -0.00970856 0
1.81312e-09 -0.00970859 0
4.22068e-09 -0.00970857 0
2.22739e-08 -0.00970858 0
SCALARS radius double 1
LOOKUP_TABLE default
0.0005192
0.000759374
0.000731582
0.000932767
0.000864852
0.00092132
0.000824734
0.000662097
0.000535446
0.00094621
0.000999249
0.000802661
0.000671708
0.000819153
0.000645007
0.000827505
0.000602392
0.000772815
0.000550095
0.000626194
0.000886859
0.000531918
0.000790192
0.000909137
0.00096445
SCALARS mass double 1
LOOKUP_TABLE default
0.00228657
0.0048913
0.00453983
0.00738005
0.00634449
0.00720004
0.00576955
0.0037184
0.0024319
0.00759432
0.00846957
0.00546484
0.00382714
0.00569173
0.00352892
0.00580838
0.00307803
0.005066
0.00256678
0.00332607
0.00667148
0.00239995
0.00529637
0.00701087
0.00788992
