# vtk DataFile Version 3.0
DEM2D particles
ASCII
DATASET POLYDATA
POINTS 25 double
0.000210492 -0.000533797 0
0.00247694 -0.000933086 0
0.00456711 -0.000285759 0
0.00674628 -0.000404473 0
0.00933215 0.000512653 0
0.000976388 0.00266683 0
0.00272805 0.00235128 0
0.00430175 0.00188246 0
0.00620408 0.00130515 0
0.00807857 0.00175111 0
0.00194188 0.00360379 0
0.00315848 0.00332286 0
0.00447748 0.00382707 0
0.00666273 0.00489962 0
0.00823043 0.00435214 0
0.0014505 0.00552246 0
0.0023961 0.00663583 0
0.00577483 0.00566091 0
0.00705357 0.00622252 0
0.00819693 0.00592824 0
6.49651e-05 0.00756943 0
0.00285477 0.00892943 0
0.0050706 0.00786222 0
0.00716435 0.00845723 0
0.00986735 0.00800614 0
VERTICES 25 50
1 0
1 1
1 2
1 3
1 4
1 5
1 6
1 7
1 8
1 9
1 10
1 11
1 12
1 13
1 14
1 15
1 16
1 17
1 18
1 19
1 20
1 21
1 22
1 23
1 24
POINT_DATA 25
VECTORS velocity double
-2.88531e-47 -0.00970858 0
-1.91157e-47 -0.00970858 0
-1.58203e-47 -0.00970858 0
-9.27244e-48 -0.00970858 0
1.21386e-47 -0.00970858 0
-8.62928e-49 -0.00970858 0
-9.93875e-48 -0.00970858 0
-2.5518e-47 -0.00970858 0
-2.90872e-47 -0.00970858 0
-3.36744e-47 -0.00970858 0
3.44217e-47 -0.00970858 0
5.79179e-48 -0.00970858 0
-1.90958e-47 -0.00970858 0
-1.23256e-47 -0.00970858 0
-2.81244e-47 -0.00970858 0
1.64638e-47 -0.00970858 0
-2.20699e-47 -0.00970858 0
2.83168e-47 -0.00970858 0
1.95779e-48 -0.00970858 0
-2.93488e-47 -0.00970858 0
-3.41714e-47 -0.00970858 0
-5.30735e-48 -0.00970858 0
2.58023e-48 -0.00970858 0
6.0064e-48 -0.00970858 0
3.16978e-47 -0.00970858 0
SCALARS radius double 1
LOOKUP_TABLE default
0.0005192
0.000759374
0.000731582
0.000932767
0.000864852
0.00092132
0.000824734
0.000662097
0.000535446
0.00094621
0.000999249
0.000802661
0.000671708
0.000819153
0.000645007
0.000827505
0.000602392
0.000772815
0.000550095
0.000626194
0.000886859
0.000531918
0.000790192
0.000909137
0.00096445
SCALARS mass double 1
LOOKUP_TABLE default
0.00228657
0.0048913
0.00453983
0.00738005
0.00634449
0.00720004
0.00576955
0.0037184
0.0024319
0.00759432
0.00846957
0.00546484
0.00382714
0.00569173
0.00352892
0.00580838
0.00307803
0.005066
0.00256678
0.00332607
0.00667148
0.00239995
0.00529637
0.00701087
0.00788992
