# vtk DataFile Version 3.0
DEM2D particles
ASCII
DATASET POLYDATA
POINTS 25 double
0.000210492 -0.000877481 0
0.00247694 -0.00127677 0
0.00456711 -0.000629443 0
0.00674628 -0.000748157 0
0.00933215 0.000168969 0
0.000976388 0.00232314 0
0.00272805 0.00200759 0
0.00430175 0.00153878 0
0.00620408 0.000961465 0
0.00807857 0.00140743 0
0.00194188 0.00326011 0
0.00315848 0.00297918 0
0.00447748 0.00348338 0
0.00666273 0.00455594 0
0.00823043 0.00400846 0
0.0014505 0.00517878 0
0.0023961 0.00629215 0
0.00577483 0.00531723 0
0.00705357 0.00587884 0
0.00819693 0.00558455 0
6.49651e-05 0.00722574 0
0.00285477 0.00858575 0
0.0050706 0.00751854 0
0.00716435 0.00811355 0
0.00986735 0.00766246 0
VERTICES 25 50
1 0
1 1
1 2
1 3
1 4
1 5
1 6
1 7
1 8
1 9
1 10
1 11
1 12
1 13
1 14
1 15
1 16
1 17
1 18
1 19
1 20
1 21
1 22
1 23
1 24
POINT_DATA 25
VECTORS velocity double
-1.02042e-62 -0.00970858 0
-6.7605e-63 -0.00970858 0
-5.59506e-63 -0.00970858 0
-3.27931e-63 -0.00970858 0
4.29295e-63 -0.00970858 0
-3.05185e-64 -0.00970858 0
-3.51496e-63 -0.00970858 0
-9.02477e-63 -0.00970858 0
-1.02871e-62 -0.00970858 0
-1.19094e-62 -0.00970858 0
1.21737e-62 -0.00970858 0
2.04834e-63 -0.00970858 0
-6.75346e-63 -0.00970858 0
-4.35911e-63 -0.00970858 0
-9.94655e-63 -0.00970858 0
5.82263e-63 -0.00970858 0
-7.80528e-63 -0.00970858 0
1.00146e-62 -0.00970858 0
6.92396e-64 -0.00970858 0
-1.03796e-62 -0.00970858 0
-1.20851e-62 -0.00970858 0
-1.87701e-63 -0.00970858 0
9.12532e-64 -0.00970858 0
2.12424e-63 -0.00970858 0
1.12103e-62 -0.00970858 0
SCALARS radius double 1
LOOKUP_TABLE default
0.0005192
0.000759374
0.000731582
0.000932767
0.000864852
0.00092132
0.000824734
0.000662097
0.000535446
0.00094621
0.000999249
0.000802661
0.000671708
0.000819153
0.000645007
0.000827505
0.000602392
0.000772815
0.000550095
0.000626194
0.000886859
0.000531918
0.000790192
0.000909137
0.00096445
SCALARS mass double 1
LOOKUP_TABLE default
0.00228657
0.0048913
0.00453983
0.00738005
0.00634449
0.00720004
0.00576955
0.0037184
0.0024319
0.00759432
0.00846957
0.00546484
0.00382714
0.00569173
0.00352892
0.00580838
0.00307803
0.005066
0.00256678
0.00332607
0.00667148
0.00239995
0.00529637
0.00701087
0.00788992
