# vtk DataFile Version 3.0
DEM2D particles
ASCII
DATASET POLYDATA
POINTS 25 double
0.000210492 0.000116678 0
0.00247694 -0.000282611 0
0.00456711 0.000364716 0
0.00674628 0.000246002 0
0.00933215 0.00116313 0
0.000976388 0.0033173 0
0.00272805 0.00300175 0
0.00430175 0.00253294 0
0.00620408 0.00195562 0
0.00807857 0.00240158 0
0.00194188 0.00425426 0
0.00315848 0.00397334 0
0.00447748 0.00447754 0
0.00666273 0.00555009 0
0.00823043 0.00500261 0
0.0014505 0.00617294 0
0.0023961 0.00728631 0
0.00577483 0.00631139 0
0.00705357 0.006873 0
0.00819693 0.00657871 0
6.49651e-05 0.0082199 0
0.00285477 0.00957991 0
0.0050706 0.0085127 0
0.00716435 0.00910771 0
0.00986735 0.00865662 0
VERTICES 25 50
1 0
1 1
1 2
1 3
1 4
1 5
1 6
1 7
1 8
1 9
1 10
1 11
1 12
1 13
1 14
1 15
1 16
1 17
1 18
1 19
1 20
1 21
1 22
1 23
1 24
POINT_DATA 25
VECTORS velocity double
-5.06277e-18 -0.00970858 0
-3.35418e-18 -0.00970858 0
-2.77595e-18 -0.00970858 0
-1.62701e-18 -0.00970858 0
2.12992e-18 -0.00970858 0
-1.51416e-19 -0.00970858 0
-1.74393e-18 -0.00970858 0
-4.47758e-18 -0.00970858 0
-5.10386e-18 -0.00970858 0
-5.90875e-18 -0.00970858 0
6.03988e-18 -0.00970858 0
1.01627e-18 -0.00970858 0
-3.35068e-18 -0.00970858 0
-2.16275e-18 -0.00970858 0
-4.93492e-18 -0.00970858 0
2.88886e-18 -0.00970858 0
-3.87254e-18 -0.00970858 0
4.96867e-18 -0.00970858 0
3.43528e-19 -0.00970858 0
-5.14975e-18 -0.00970858 0
-5.99597e-18 -0.00970858 0
-9.31267e-19 -0.00970858 0
4.52747e-19 -0.00970858 0
1.05393e-18 -0.00970858 0
5.56192e-18 -0.00970858 0
SCALARS radius double 1
LOOKUP_TABLE default
0.0005192
0.000759374
0.000731582
0.000932767
0.000864852
0.00092132
0.000824734
0.000662097
0.000535446
0.00094621
0.000999249
0.000802661
0.000671708
0.000819153
0.000645007
0.000827505
0.000602392
0.000772815
0.000550095
0.000626194
0.000886859
0.000531918
0.000790192
0.000909137
0.00096445
SCALARS mass double 1
LOOKUP_TABLE default
0.00228657
0.0048913
0.00453983
0.00738005
0.00634449
0.00720004
0.00576955
0.0037184
0.0024319
0.00759432
0.00846957
0.00546484
0.00382714
0.00569173
0.00352892
0.00580838
0.00307803
0.005066
0.00256678
0.00332607
0.00667148
0.00239995
0.00529637
0.00701087
0.00788992
