# vtk DataFile Version 3.0
DEM2D particles
ASCII
DATASET POLYDATA
POINTS 25 double
0.000210492 -0.000603699 0
0.00247694 -0.00100299 0
0.00456711 -0.000355661 0
0.00674628 -0.000474375 0
0.00933215 0.000442751 0
0.000976388 0.00259693 0
0.00272805 0.00228137 0
0.00430175 0.00181256 0
0.00620408 0.00123525 0
0.00807857 0.00168121 0
0.00194188 0.00353389 0
0.00315848 0.00325296 0
0.00447748 0.00375717 0
0.00666273 0.00482972 0
0.00823043 0.00428224 0
0.0014505 0.00545256 0
0.0023961 0.00656593 0
0.00577483 0.00559101 0
0.00705357 0.00615262 0
0.00819693 0.00585834 0
6.49651e-05 0.00749953 0
0.00285477 0.00885953 0
0.0050706 0.00779232 0
0.00716435 0.00838733 0
0.00986735 0.00793624 0
VERTICES 25 50
1 0
1 1
1 2
1 3
1 4
1 5
1 6
1 7
1 8
1 9
1 10
1 11
1 12
1 13
1 14
1 15
1 16
1 17
1 18
1 19
1 20
1 21
1 22
1 23
1 24
POINT_DATA 25
VECTORS velocity double
-2.07746e-50 -0.00970858 0
-1.37635e-50 -0.00970858 0
-1.13908e-50 -0.00970858 0
-6.67627e-51 -0.00970858 0
8.73992e-51 -0.00970858 0
-6.21319e-52 -0.00970858 0
-7.15603e-51 -0.00970858 0
-1.83733e-50 -0.00970858 0
-2.09432e-50 -0.00970858 0
-2.4246e-50 -0.00970858 0
2.4784e-50 -0.00970858 0
4.17016e-51 -0.00970858 0
-1.37492e-50 -0.00970858 0
-8.87461e-51 -0.00970858 0
-2.02499e-50 -0.00970858 0
1.18542e-50 -0.00970858 0
-1.58906e-50 -0.00970858 0
2.03884e-50 -0.00970858 0
1.40963e-51 -0.00970858 0
-2.11315e-50 -0.00970858 0
-2.46039e-50 -0.00970858 0
-3.82136e-51 -0.00970858 0
1.8578e-51 -0.00970858 0
4.32468e-51 -0.00970858 0
2.28228e-50 -0.00970858 0
SCALARS radius double 1
LOOKUP_TABLE default
0.0005192
0.000759374
0.000731582
0.000932767
0.000864852
0.00092132
0.000824734
0.000662097
0.000535446
0.00094621
0.000999249
0.000802661
0.000671708
0.000819153
0.000645007
0.000827505
0.000602392
0.000772815
0.000550095
0.000626194
0.000886859
0.000531918
0.000790192
0.000909137
0.00096445
SCALARS mass double 1
LOOKUP_TABLE default
0.00228657
0.0048913
0.00453983
0.00738005
0.00634449
0.00720004
0.00576955
0.0037184
0.0024319
0.00759432
0.00846957
0.00546484
0.00382714
0.00569173
0.00352892
0.00580838
0.00307803
0.005066
0.00256678
0.00332607
0.00667148
0.00239995
0.00529637
0.00701087
0.00788992
