# vtk DataFile Version 3.0
DEM2D particles
ASCII
DATASET POLYDATA
POINTS 25 double
0.000210492 -0.000745444 0
0.00247694 -0.00114473 0
0.00456711 -0.000497406 0
0.00674628 -0.000616121 0
0.00933215 0.000301006 0
0.000976388 0.00245518 0
0.00272805 0.00213963 0
0.00430175 0.00167082 0
0.00620408 0.0010935 0
0.00807857 0.00153946 0
0.00194188 0.00339214 0
0.00315848 0.00311122 0
0.00447748 0.00361542 0
0.00666273 0.00468797 0
0.00823043 0.00414049 0
0.0014505 0.00531082 0
0.0023961 0.00642418 0
0.00577483 0.00544926 0
0.00705357 0.00601088 0
0.00819693 0.00571659 0
6.49651e-05 0.00735778 0
0.00285477 0.00871779 0
0.0050706 0.00765057 0
0.00716435 0.00824559 0
0.00986735 0.0077945 0
VERTICES 25 50
1 0
1 1
1 2
1 3
1 4
1 5
1 6
1 7
1 8
1 9
1 10
1 11
1 12
1 13
1 14
1 15
1 16
1 17
1 18
1 19
1 20
1 21
1 22
1 23
1 24
POINT_DATA 25
VECTORS velocity double
-8.80879e-57 -0.00970858 0
-5.83598e-57 -0.00970858 0
-4.82992e-57 -0.00970858 0
-2.83086e-57 -0.00970858 0
3.70588e-57 -0.00970858 0
-2.63451e-58 -0.00970858 0
-3.03428e-57 -0.00970858 0
-7.79061e-57 -0.00970858 0
-8.88028e-57 -0.00970858 0
-1.02807e-56 -0.00970858 0
1.05089e-56 -0.00970858 0
1.76822e-57 -0.00970858 0
-5.82991e-57 -0.00970858 0
-3.76299e-57 -0.00970858 0
-8.58634e-57 -0.00970858 0
5.02637e-57 -0.00970858 0
-6.73789e-57 -0.00970858 0
8.64506e-57 -0.00970858 0
5.97709e-58 -0.00970858 0
-8.96013e-57 -0.00970858 0
-1.04325e-56 -0.00970858 0
-1.62032e-57 -0.00970858 0
7.87741e-58 -0.00970858 0
1.83374e-57 -0.00970858 0
9.67727e-57 -0.00970858 0
SCALARS radius double 1
LOOKUP_TABLE default
0.0005192
0.000759374
0.000731582
0.000932767
0.000864852
0.00092132
0.000824734
0.000662097
0.000535446
0.00094621
0.000999249
0.000802661
0.000671708
0.000819153
0.000645007
0.000827505
0.000602392
0.000772815
0.000550095
0.000626194
0.000886859
0.000531918
0.000790192
0.000909137
0.00096445
SCALARS mass double 1
LOOKUP_TABLE default
0.00228657
0.0048913
0.00453983
0.00738005
0.00634449
0.00720004
0.00576955
0.0037184
0.0024319
0.00759432
0.00846957
0.00546484
0.00382714
0.00569173
0.00352892
0.00580838
0.00307803
0.005066
0.00256678
0.00332607
0.00667148
0.00239995
0.00529637
0.00701087
0.00788992
