# vtk DataFile Version 3.0
DEM2D particles
ASCII
DATASET POLYDATA
POINTS 25 double
0.000210631 0.00041579 0
0.00247703 1.65717e-05 0
0.00456718 0.000663785 0
0.00674632 0.000545092 0
0.00933209 0.00146206 0
0.000976392 0.0036162 0
0.00272809 0.00330071 0
0.00430187 0.00283198 0
0.00620422 0.00225476 0
0.00807873 0.00270065 0
0.00194172 0.00455335 0
0.00315845 0.00427248 0
0.00447757 0.00477659 0
0.00666279 0.00584895 0
0.00823057 0.00530157 0
0.00145042 0.00647204 0
0.00239621 0.00758521 0
0.0057747 0.00661046 0
0.00705356 0.00717198 0
0.00819707 0.00687774 0
6.51299e-05 0.008519 0
0.0028548 0.00987876 0
0.00507059 0.00881174 0
0.00716432 0.00940665 0
0.00986719 0.00895564 0
VERTICES 25 50
1 0
1 1
1 2
1 3
1 4
1 5
1 6
1 7
1 8
1 9
1 10
1 11
1 12
1 13
1 14
1 15
1 16
1 17
1 18
1 19
1 20
1 21
1 22
1 23
1 24
POINT_DATA 25
VECTORS velocity double
-0.000140601 -0.00979777 0
-9.31508e-05 -0.00986888 0
-7.70925e-05 -0.0097536 0
-4.51846e-05 -0.00977474 0
5.91513e-05 -0.00961141 0
-4.20505e-06 -0.00958395 0
-4.84316e-05 -0.00964015 0
-0.00012435 -0.00972364 0
-0.000141742 -0.00982645 0
-0.000164095 -0.00974703 0
0.000167737 -0.00977327 0
2.82234e-05 -0.0098233 0
-9.30538e-05 -0.0097335 0
-6.00629e-05 -0.0095425 0
-0.00013705 -0.00964 0
8.02283e-05 -0.00978775 0
-0.000107547 -0.00958947 0
0.000137988 -0.0097631 0
9.54031e-06 -0.00966308 0
-0.000143017 -0.00971549 0
-0.000166518 -0.00977939 0
-2.58627e-05 -0.00953719 0
1.25735e-05 -0.00972724 0
2.92692e-05 -0.00962128 0
0.000154463 -0.00970161 0
SCALARS radius double 1
LOOKUP_TABLE default
0.0005192
0.000759374
0.000731582
0.000932767
0.000864852
0.00092132
0.000824734
0.000662097
0.000535446
0.00094621
0.000999249
0.000802661
0.000671708
0.000819153
0.000645007
0.000827505
0.000602392
0.000772815
0.000550095
0.000626194
0.000886859
0.000531918
0.000790192
0.000909137
0.00096445
SCALARS mass double 1
LOOKUP_TABLE default
0.00228657
0.0048913
0.00453983
0.00738005
0.00634449
0.00720004
0.00576955
0.0037184
0.0024319
0.00759432
0.00846957
0.00546484
0.00382714
0.00569173
0.00352892
0.00580838
0.00307803
0.005066
0.00256678
0.00332607
0.00667148
0.00239995
0.00529637
0.00701087
0.00788992
