# vtk DataFile Version 3.0
DEM2D particles
ASCII
DATASET POLYDATA
POINTS 25 double
0.000210492 -0.000401761 0
0.00247694 -0.00080105 0
0.00456711 -0.000153723 0
0.00674628 -0.000272437 0
0.00933215 0.00064469 0
0.000976388 0.00279886 0
0.00272805 0.00248331 0
0.00430175 0.0020145 0
0.00620408 0.00143719 0
0.00807857 0.00188315 0
0.00194188 0.00373583 0
0.00315848 0.0034549 0
0.00447748 0.0039591 0
0.00666273 0.00503166 0
0.00823043 0.00448418 0
0.0014505 0.0056545 0
0.0023961 0.00676787 0
0.00577483 0.00579295 0
0.00705357 0.00635456 0
0.00819693 0.00606027 0
6.49651e-05 0.00770146 0
0.00285477 0.00906147 0
0.0050706 0.00799426 0
0.00716435 0.00858927 0
0.00986735 0.00813818 0
VERTICES 25 50
1 0
1 1
1 2
1 3
1 4
1 5
1 6
1 7
1 8
1 9
1 10
1 11
1 12
1 13
1 14
1 15
1 16
1 17
1 18
1 19
1 20
1 21
1 22
1 23
1 24
POINT_DATA 25
VECTORS velocity double
-2.49073e-41 -0.00970858 0
-1.65016e-41 -0.00970858 0
-1.36569e-41 -0.00970858 0
-8.00441e-42 -0.00970858 0
1.04786e-41 -0.00970858 0
-7.44921e-43 -0.00970858 0
-8.5796e-42 -0.00970858 0
-2.20284e-41 -0.00970858 0
-2.51095e-41 -0.00970858 0
-2.90693e-41 -0.00970858 0
2.97144e-41 -0.00970858 0
4.99975e-42 -0.00970858 0
-1.64844e-41 -0.00970858 0
-1.06401e-41 -0.00970858 0
-2.42783e-41 -0.00970858 0
1.42124e-41 -0.00970858 0
-1.90518e-41 -0.00970858 0
2.44444e-41 -0.00970858 0
1.69005e-42 -0.00970858 0
-2.53353e-41 -0.00970858 0
-2.94984e-41 -0.00970858 0
-4.58156e-42 -0.00970858 0
2.22738e-42 -0.00970858 0
5.18501e-42 -0.00970858 0
2.7363e-41 -0.00970858 0
SCALARS radius double 1
LOOKUP_TABLE default
0.0005192
0.000759374
0.000731582
0.000932767
0.000864852
0.00092132
0.000824734
0.000662097
0.000535446
0.00094621
0.000999249
0.000802661
0.000671708
0.000819153
0.000645007
0.000827505
0.000602392
0.000772815
0.000550095
0.000626194
0.000886859
0.000531918
0.000790192
0.000909137
0.00096445
SCALARS mass double 1
LOOKUP_TABLE default
0.00228657
0.0048913
0.00453983
0.00738005
0.00634449
0.00720004
0.00576955
0.0037184
0.0024319
0.00759432
0.00846957
0.00546484
0.00382714
0.00569173
0.00352892
0.00580838
0.00307803
0.005066
0.00256678
0.00332607
0.00667148
0.00239995
0.00529637
0.00701087
0.00788992
