# vtk DataFile Version 3.0
DEM2D particles
ASCII
DATASET POLYDATA
POINTS 25 double
0.000210492 4.28926e-05 0
0.00247694 -0.000356397 0
0.00456711 0.000290931 0
0.00674628 0.000172216 0
0.00933215 0.00108934 0
0.000976388 0.00324352 0
0.00272805 0.00292796 0
0.00430175 0.00245915 0
0.00620408 0.00188184 0
0.00807857 0.0023278 0
0.00194188 0.00418048 0
0.00315848 0.00389955 0
0.00447748 0.00440376 0
0.00666273 0.00547631 0
0.00823043 0.00492883 0
0.0014505 0.00609915 0
0.0023961 0.00721252 0
0.00577483 0.0062376 0
0.00705357 0.00679921 0
0.00819693 0.00650493 0
6.49651e-05 0.00814612 0
0.00285477 0.00950612 0
0.0050706 0.00843891 0
0.00716435 0.00903392 0
0.00986735 0.00858283 0
VERTICES 25 50
1 0
1 1
1 2
1 3
1 4
1 5
1 6
1 7
1 8
1 9
1 10
1 11
1 12
1 13
1 14
1 15
1 16
1 17
1 18
1 19
1 20
1 21
1 22
1 23
1 24
POINT_DATA 25
VECTORS velocity double
-2.43858e-21 -0.00970858 0
-1.6156e-21 -0.00970858 0
-1.33709e-21 -0.00970858 0
-7.83679e-22 -0.00970858 0
1.02592e-21 -0.00970858 0
-7.29321e-23 -0.00970858 0
-8.39994e-22 -0.00970858 0
-2.15671e-21 -0.00970858 0
-2.45837e-21 -0.00970858 0
-2.84606e-21 -0.00970858 0
2.90922e-21 -0.00970858 0
4.89505e-22 -0.00970858 0
-1.61392e-21 -0.00970858 0
-1.04173e-21 -0.00970858 0
-2.37699e-21 -0.00970858 0
1.39147e-21 -0.00970858 0
-1.86528e-21 -0.00970858 0
2.39325e-21 -0.00970858 0
1.65466e-22 -0.00970858 0
-2.48047e-21 -0.00970858 0
-2.88807e-21 -0.00970858 0
-4.48561e-22 -0.00970858 0
2.18074e-22 -0.00970858 0
5.07643e-22 -0.00970858 0
2.679e-21 -0.00970858 0
SCALARS radius double 1
LOOKUP_TABLE default
0.0005192
0.000759374
0.000731582
0.000932767
0.000864852
0.00092132
0.000824734
0.000662097
0.000535446
0.00094621
0.000999249
0.000802661
0.000671708
0.000819153
0.000645007
0.000827505
0.000602392
0.000772815
0.000550095
0.000626194
0.000886859
0.000531918
0.000790192
0.000909137
0.00096445
SCALARS mass double 1
LOOKUP_TABLE default
0.00228657
0.0048913
0.00453983
0.00738005
0.00634449
0.00720004
0.00576955
0.0037184
0.0024319
0.00759432
0.00846957
0.00546484
0.00382714
0.00569173
0.00352892
0.00580838
0.00307803
0.005066
0.00256678
0.00332607
0.00667148
0.00239995
0.00529637
0.00701087
0.00788992
