# vtk DataFile Version 3.0
DEM2D particles
ASCII
DATASET POLYDATA
POINTS 25 double
0.000210492 -0.000460012 0
0.00247694 -0.000859301 0
0.00456711 -0.000211974 0
0.00674628 -0.000330688 0
0.00933215 0.000586438 0
0.000976388 0.00274061 0
0.00272805 0.00242506 0
0.00430175 0.00195625 0
0.00620408 0.00137893 0
0.00807857 0.0018249 0
0.00194188 0.00367757 0
0.00315848 0.00339665 0
0.00447748 0.00390085 0
0.00666273 0.0049734 0
0.00823043 0.00442592 0
0.0014505 0.00559625 0
0.0023961 0.00670962 0
0.00577483 0.0057347 0
0.00705357 0.00629631 0
0.00819693 0.00600202 0
6.49651e-05 0.00764321 0
0.00285477 0.00900322 0
0.0050706 0.00793601 0
0.00716435 0.00853102 0
0.00986735 0.00807993 0
VERTICES 25 50
1 0
1 1
1 2
1 3
1 4
1 5
1 6
1 7
1 8
1 9
1 10
1 11
1 12
1 13
1 14
1 15
1 16
1 17
1 18
1 19
1 20
1 21
1 22
1 23
1 24
POINT_DATA 25
VECTORS velocity double
-5.99024e-44 -0.00970858 0
-3.96864e-44 -0.00970858 0
-3.28449e-44 -0.00970858 0
-1.92507e-44 -0.00970858 0
2.52011e-44 -0.00970858 0
-1.79154e-45 -0.00970858 0
-2.0634e-44 -0.00970858 0
-5.29785e-44 -0.00970858 0
-6.03886e-44 -0.00970858 0
-6.99119e-44 -0.00970858 0
7.14635e-44 -0.00970858 0
1.20244e-44 -0.00970858 0
-3.96451e-44 -0.00970858 0
-2.55895e-44 -0.00970858 0
-5.83896e-44 -0.00970858 0
3.41808e-44 -0.00970858 0
-4.58197e-44 -0.00970858 0
5.8789e-44 -0.00970858 0
4.0646e-45 -0.00970858 0
-6.09315e-44 -0.00970858 0
-7.09439e-44 -0.00970858 0
-1.10187e-44 -0.00970858 0
5.35687e-45 -0.00970858 0
1.247e-44 -0.00970858 0
6.58083e-44 -0.00970858 0
SCALARS radius double 1
LOOKUP_TABLE default
0.0005192
0.000759374
0.000731582
0.000932767
0.000864852
0.00092132
0.000824734
0.000662097
0.000535446
0.00094621
0.000999249
0.000802661
0.000671708
0.000819153
0.000645007
0.000827505
0.000602392
0.000772815
0.000550095
0.000626194
0.000886859
0.000531918
0.000790192
0.000909137
0.00096445
SCALARS mass double 1
LOOKUP_TABLE default
0.00228657
0.0048913
0.00453983
0.00738005
0.00634449
0.00720004
0.00576955
0.0037184
0.0024319
0.00759432
0.00846957
0.00546484
0.00382714
0.00569173
0.00352892
0.00580838
0.00307803
0.005066
0.00256678
0.00332607
0.00667148
0.00239995
0.00529637
0.00701087
0.00788992
