# vtk DataFile Version 3.0
DEM2D particles
ASCII
DATASET POLYDATA
POINTS 25 double
0.000210492 -0.000716319 0
0.00247694 -0.00111561 0
0.00456711 -0.000468281 0
0.00674628 -0.000586995 0
0.00933215 0.000330132 0
0.000976388 0.00248431 0
0.00272805 0.00216875 0
0.00430175 0.00169994 0
0.00620408 0.00112263 0
0.00807857 0.00156859 0
0.00194188 0.00342127 0
0.00315848 0.00314034 0
0.00447748 0.00364455 0
0.00666273 0.0047171 0
0.00823043 0.00416962 0
0.0014505 0.00533994 0
0.0023961 0.00645331 0
0.00577483 0.00547839 0
0.00705357 0.00604 0
0.00819693 0.00574572 0
6.49651e-05 0.00738691 0
0.00285477 0.00874691 0
0.0050706 0.0076797 0
0.00716435 0.00827471 0
0.00986735 0.00782362 0
VERTICES 25 50
1 0
1 1
1 2
1 3
1 4
1 5
1 6
1 7
1 8
1 9
1 10
1 11
1 12
1 13
1 14
1 15
1 16
1 17
1 18
1 19
1 20
1 21
1 22
1 23
1 24
POINT_DATA 25
VECTORS velocity double
-1.79621e-55 -0.00970858 0
-1.19002e-55 -0.00970858 0
-9.84876e-56 -0.00970858 0
-5.77244e-56 -0.00970858 0
7.55672e-56 -0.00970858 0
-5.37206e-57 -0.00970858 0
-6.18725e-56 -0.00970858 0
-1.58859e-55 -0.00970858 0
-1.81079e-55 -0.00970858 0
-2.09636e-55 -0.00970858 0
2.14288e-55 -0.00970858 0
3.60561e-56 -0.00970858 0
-1.18878e-55 -0.00970858 0
-7.67317e-56 -0.00970858 0
-1.75085e-55 -0.00970858 0
1.02494e-55 -0.00970858 0
-1.37393e-55 -0.00970858 0
1.76283e-55 -0.00970858 0
1.2188e-56 -0.00970858 0
-1.82707e-55 -0.00970858 0
-2.1273e-55 -0.00970858 0
-3.30403e-56 -0.00970858 0
1.60629e-56 -0.00970858 0
3.73921e-56 -0.00970858 0
1.97331e-55 -0.00970858 0
SCALARS radius double 1
LOOKUP_TABLE default
0.0005192
0.000759374
0.000731582
0.000932767
0.000864852
0.00092132
0.000824734
0.000662097
0.000535446
0.00094621
0.000999249
0.000802661
0.000671708
0.000819153
0.000645007
0.000827505
0.000602392
0.000772815
0.000550095
0.000626194
0.000886859
0.000531918
0.000790192
0.000909137
0.00096445
SCALARS mass double 1
LOOKUP_TABLE default
0.00228657
0.0048913
0.00453983
0.00738005
0.00634449
0.00720004
0.00576955
0.0037184
0.0024319
0.00759432
0.00846957
0.00546484
0.00382714
0.00569173
0.00352892
0.00580838
0.00307803
0.005066
0.00256678
0.00332607
0.00667148
0.00239995
0.00529637
0.00701087
0.00788992
