# vtk DataFile Version 3.0
DEM2D particles
ASCII
DATASET POLYDATA
POINTS 25 double
0.000210492 -0.00095515 0
0.00247694 -0.00135444 0
0.00456711 -0.000707112 0
0.00674628 -0.000825826 0
0.00933215 9.13004e-05 0
0.000976388 0.00224548 0
0.00272805 0.00192992 0
0.00430175 0.00146111 0
0.00620408 0.000883796 0
0.00807857 0.00132976 0
0.00194188 0.00318244 0
0.00315848 0.00290151 0
0.00447748 0.00340571 0
0.00666273 0.00447827 0
0.00823043 0.00393079 0
0.0014505 0.00510111 0
0.0023961 0.00621448 0
0.00577483 0.00523956 0
0.00705357 0.00580117 0
0.00819693 0.00550688 0
6.49651e-05 0.00714808 0
0.00285477 0.00850808 0
0.0050706 0.00744087 0
0.00716435 0.00803588 0
0.00986735 0.00758479 0
VERTICES 25 50
1 0
1 1
1 2
1 3
1 4
1 5
1 6
1 7
1 8
1 9
1 10
1 11
1 12
1 13
1 14
1 15
1 16
1 17
1 18
1 19
1 20
1 21
1 22
1 23
1 24
POINT_DATA 25
VECTORS velocity double
-3.28804e-66 -0.00970858 0
-2.17838e-66 -0.00970858 0
-1.80285e-66 -0.00970858 0
-1.05667e-66 -0.00970858 0
1.38329e-66 -0.00970858 0
-9.83375e-68 -0.00970858 0
-1.1326e-66 -0.00970858 0
-2.90798e-66 -0.00970858 0
-3.31472e-66 -0.00970858 0
-3.83746e-66 -0.00970858 0
3.92262e-66 -0.00970858 0
6.6002e-67 -0.00970858 0
-2.17612e-66 -0.00970858 0
-1.4046e-66 -0.00970858 0
-3.205e-66 -0.00970858 0
1.87618e-66 -0.00970858 0
-2.51504e-66 -0.00970858 0
3.22692e-66 -0.00970858 0
2.23105e-67 -0.00970858 0
-3.34453e-66 -0.00970858 0
-3.89411e-66 -0.00970858 0
-6.04815e-67 -0.00970858 0
2.94038e-67 -0.00970858 0
6.84477e-67 -0.00970858 0
3.61221e-66 -0.00970858 0
SCALARS radius double 1
LOOKUP_TABLE default
0.0005192
0.000759374
0.000731582
0.000932767
0.000864852
0.00092132
0.000824734
0.000662097
0.000535446
0.00094621
0.000999249
0.000802661
0.000671708
0.000819153
0.000645007
0.000827505
0.000602392
0.000772815
0.000550095
0.000626194
0.000886859
0.000531918
0.000790192
0.000909137
0.00096445
SCALARS mass double 1
LOOKUP_TABLE default
0.00228657
0.0048913
0.00453983
0.00738005
0.00634449
0.00720004
0.00576955
0.0037184
0.0024319
0.00759432
0.00846957
0.00546484
0.00382714
0.00569173
0.00352892
0.00580838
0.00307803
0.005066
0.00256678
0.00332607
0.00667148
0.00239995
0.00529637
0.00701087
0.00788992
