# vtk DataFile Version 3.0
DEM2D particles
ASCII
DATASET POLYDATA
POINTS 25 double
0.000210492 -0.000617291 0
0.00247694 -0.00101658 0
0.00456711 -0.000369253 0
0.00674628 -0.000487967 0
0.00933215 0.000429159 0
0.000976388 0.00258333 0
0.00272805 0.00226778 0
0.00430175 0.00179897 0
0.00620408 0.00122165 0
0.00807857 0.00166762 0
0.00194188 0.0035203 0
0.00315848 0.00323937 0
0.00447748 0.00374357 0
0.00666273 0.00481613 0
0.00823043 0.00426865 0
0.0014505 0.00543897 0
0.0023961 0.00655234 0
0.00577483 0.00557742 0
0.00705357 0.00613903 0
0.00819693 0.00584474 0
6.49651e-05 0.00748593 0
0.00285477 0.00884594 0
0.0050706 0.00777873 0
0.00716435 0.00837374 0
0.00986735 0.00792265 0
VERTICES 25 50
1 0
1 1
1 2
1 3
1 4
1 5
1 6
1 7
1 8
1 9
1 10
1 11
1 12
1 13
1 14
1 15
1 16
1 17
1 18
1 19
1 20
1 21
1 22
1 23
1 24
POINT_DATA 25
VECTORS velocity double
-5.08697e-51 -0.00970858 0
-3.37021e-51 -0.00970858 0
-2.78922e-51 -0.00970858 0
-1.63479e-51 -0.00970858 0
2.1401e-51 -0.00970858 0
-1.5214e-52 -0.00970858 0
-1.75226e-51 -0.00970858 0
-4.49899e-51 -0.00970858 0
-5.12826e-51 -0.00970858 0
-5.93699e-51 -0.00970858 0
6.06875e-51 -0.00970858 0
1.02113e-51 -0.00970858 0
-3.3667e-51 -0.00970858 0
-2.17308e-51 -0.00970858 0
-4.95851e-51 -0.00970858 0
2.90267e-51 -0.00970858 0
-3.89105e-51 -0.00970858 0
4.99242e-51 -0.00970858 0
3.4517e-52 -0.00970858 0
-5.17437e-51 -0.00970858 0
-6.02463e-51 -0.00970858 0
-9.35718e-52 -0.00970858 0
4.54911e-52 -0.00970858 0
1.05896e-51 -0.00970858 0
5.58851e-51 -0.00970858 0
SCALARS radius double 1
LOOKUP_TABLE default
0.0005192
0.000759374
0.000731582
0.000932767
0.000864852
0.00092132
0.000824734
0.000662097
0.000535446
0.00094621
0.000999249
0.000802661
0.000671708
0.000819153
0.000645007
0.000827505
0.000602392
0.000772815
0.000550095
0.000626194
0.000886859
0.000531918
0.000790192
0.000909137
0.00096445
SCALARS mass double 1
LOOKUP_TABLE default
0.00228657
0.0048913
0.00453983
0.00738005
0.00634449
0.00720004
0.00576955
0.0037184
0.0024319
0.00759432
0.00846957
0.00546484
0.00382714
0.00569173
0.00352892
0.00580838
0.00307803
0.005066
0.00256678
0.00332607
0.00667148
0.00239995
0.00529637
0.00701087
0.00788992
