# vtk DataFile Version 3.0
DEM2D particles
ASCII
DATASET POLYDATA
POINTS 25 double
0.000210492 -0.000879423 0
0.00247694 -0.00127871 0
0.00456711 -0.000631385 0
0.00674628 -0.000750099 0
0.00933215 0.000167027 0
0.000976388 0.0023212 0
0.00272805 0.00200565 0
0.00430175 0.00153684 0
0.00620408 0.000959523 0
0.00807857 0.00140548 0
0.00194188 0.00325816 0
0.00315848 0.00297724 0
0.00447748 0.00348144 0
0.00666273 0.00455399 0
0.00823043 0.00400651 0
0.0014505 0.00517684 0
0.0023961 0.00629021 0
0.00577483 0.00531529 0
0.00705357 0.0058769 0
0.00819693 0.00558261 0
6.49651e-05 0.0072238 0
0.00285477 0.00858381 0
0.0050706 0.0075166 0
0.00716435 0.00811161 0
0.00986735 0.00766052 0
VERTICES 25 50
1 0
1 1
1 2
1 3
1 4
1 5
1 6
1 7
1 8
1 9
1 10
1 11
1 12
1 13
1 14
1 15
1 16
1 17
1 18
1 19
1 20
1 21
1 22
1 23
1 24
POINT_DATA 25
VECTORS velocity double
-8.34612e-63 -0.00970858 0
-5.52946e-63 -0.00970858 0
-4.57624e-63 -0.00970858 0
-2.68217e-63 -0.00970858 0
3.51124e-63 -0.00970858 0
-2.49613e-64 -0.00970858 0
-2.87491e-63 -0.00970858 0
-7.38142e-63 -0.00970858 0
-8.41386e-63 -0.00970858 0
-9.74074e-63 -0.00970858 0
9.95691e-63 -0.00970858 0
1.67535e-63 -0.00970858 0
-5.5237e-63 -0.00970858 0
-3.56535e-63 -0.00970858 0
-8.13535e-63 -0.00970858 0
4.76237e-63 -0.00970858 0
-6.38399e-63 -0.00970858 0
8.19099e-63 -0.00970858 0
5.66315e-64 -0.00970858 0
-8.48951e-63 -0.00970858 0
-9.88453e-63 -0.00970858 0
-1.53522e-63 -0.00970858 0
7.46366e-64 -0.00970858 0
1.73743e-63 -0.00970858 0
9.16899e-63 -0.00970858 0
SCALARS radius double 1
LOOKUP_TABLE default
0.0005192
0.000759374
0.000731582
0.000932767
0.000864852
0.00092132
0.000824734
0.000662097
0.000535446
0.00094621
0.000999249
0.000802661
0.000671708
0.000819153
0.000645007
0.000827505
0.000602392
0.000772815
0.000550095
0.000626194
0.000886859
0.000531918
0.000790192
0.000909137
0.00096445
SCALARS mass double 1
LOOKUP_TABLE default
0.00228657
0.0048913
0.00453983
0.00738005
0.00634449
0.00720004
0.00576955
0.0037184
0.0024319
0.00759432
0.00846957
0.00546484
0.00382714
0.00569173
0.00352892
0.00580838
0.00307803
0.005066
0.00256678
0.00332607
0.00667148
0.00239995
0.00529637
0.00701087
0.00788992
