# vtk DataFile Version 3.0
DEM2D particles
ASCII
DATASET POLYDATA
POINTS 25 double
0.000210494 0.000374927 0
0.00247694 -2.43607e-05 0
0.00456711 0.000622965 0
0.00674628 0.000504251 0
0.00933215 0.00142137 0
0.000976388 0.00357555 0
0.00272805 0.00326 0
0.00430175 0.00279119 0
0.00620409 0.00221387 0
0.00807857 0.00265983 0
0.00194188 0.00451251 0
0.00315848 0.00423159 0
0.00447748 0.00473579 0
0.00666273 0.00580834 0
0.00823043 0.00526086 0
0.0014505 0.00643119 0
0.0023961 0.00754455 0
0.00577483 0.00656964 0
0.00705357 0.00713125 0
0.00819693 0.00683696 0
6.49675e-05 0.00847815 0
0.00285477 0.00983815 0
0.0050706 0.00877094 0
0.00716435 0.00936596 0
0.00986735 0.00891487 0
VERTICES 25 50
1 0
1 1
1 2
1 3
1 4
1 5
1 6
1 7
1 8
1 9
1 10
1 11
1 12
1 13
1 14
1 15
1 16
1 17
1 18
1 19
1 20
1 21
1 22
1 23
1 24
POINT_DATA 25
VECTORS velocity double
-2.06429e-06 -0.00970989 0
-1.36763e-06 -0.00971094 0
-1.13186e-06 -0.00970924 0
-6.63395e-07 -0.00970955 0
8.68452e-07 -0.00970716 0
-6.17381e-08 -0.00970675 0
-7.11067e-07 -0.00970758 0
-1.82568e-06 -0.0097088 0
-2.08104e-06 -0.00971031 0
-2.40923e-06 -0.00970915 0
2.46269e-06 -0.00970953 0
4.14373e-07 -0.00971027 0
-1.36621e-06 -0.00970895 0
-8.81836e-07 -0.00970615 0
-2.01216e-06 -0.00970758 0
1.1779e-06 -0.00970975 0
-1.57899e-06 -0.00970683 0
2.02592e-06 -0.00970938 0
1.4007e-07 -0.00970792 0
-2.09975e-06 -0.00970868 0
-2.44479e-06 -0.00970962 0
-3.79714e-07 -0.00970607 0
1.84603e-07 -0.00970886 0
4.29727e-07 -0.0097073 0
2.26781e-06 -0.00970848 0
SCALARS radius double 1
LOOKUP_TABLE default
0.0005192
0.000759374
0.000731582
0.000932767
0.000864852
0.00092132
0.000824734
0.000662097
0.000535446
0.00094621
0.000999249
0.000802661
0.000671708
0.000819153
0.000645007
0.000827505
0.000602392
0.000772815
0.000550095
0.000626194
0.000886859
0.000531918
0.000790192
0.000909137
0.00096445
SCALARS mass double 1
LOOKUP_TABLE default
0.00228657
0.0048913
0.00453983
0.00738005
0.00634449
0.00720004
0.00576955
0.0037184
0.0024319
0.00759432
0.00846957
0.00546484
0.00382714
0.00569173
0.00352892
0.00580838
0.00307803
0.005066
0.00256678
0.00332607
0.00667148
0.00239995
0.00529637
0.00701087
0.00788992
