# vtk DataFile Version 3.0
DEM2D particles
ASCII
DATASET POLYDATA
POINTS 25 double
0.000210492 -0.000889131 0
0.00247694 -0.00128842 0
0.00456711 -0.000641093 0
0.00674628 -0.000759808 0
0.00933215 0.000157319 0
0.000976388 0.00231149 0
0.00272805 0.00199594 0
0.00430175 0.00152713 0
0.00620408 0.000949814 0
0.00807857 0.00139578 0
0.00194188 0.00324846 0
0.00315848 0.00296753 0
0.00447748 0.00347173 0
0.00666273 0.00454428 0
0.00823043 0.0039968 0
0.0014505 0.00516713 0
0.0023961 0.0062805 0
0.00577483 0.00530558 0
0.00705357 0.00586719 0
0.00819693 0.0055729 0
6.49651e-05 0.00721409 0
0.00285477 0.0085741 0
0.0050706 0.00750689 0
0.00716435 0.0081019 0
0.00986735 0.00765081 0
VERTICES 25 50
1 0
1 1
1 2
1 3
1 4
1 5
1 6
1 7
1 8
1 9
1 10
1 11
1 12
1 13
1 14
1 15
1 16
1 17
1 18
1 19
1 20
1 21
1 22
1 23
1 24
POINT_DATA 25
VECTORS velocity double
-3.05495e-63 -0.00970858 0
-2.02396e-63 -0.00970858 0
-1.67505e-63 -0.00970858 0
-9.81762e-64 -0.00970858 0
1.28523e-63 -0.00970858 0
-9.13665e-65 -0.00970858 0
-1.05231e-63 -0.00970858 0
-2.70184e-63 -0.00970858 0
-3.07975e-63 -0.00970858 0
-3.56543e-63 -0.00970858 0
3.64455e-63 -0.00970858 0
6.13232e-64 -0.00970858 0
-2.02185e-63 -0.00970858 0
-1.30503e-63 -0.00970858 0
-2.9778e-63 -0.00970858 0
1.74318e-63 -0.00970858 0
-2.33675e-63 -0.00970858 0
2.99817e-63 -0.00970858 0
2.0729e-64 -0.00970858 0
-3.10744e-63 -0.00970858 0
-3.61806e-63 -0.00970858 0
-5.6194e-64 -0.00970858 0
2.73194e-64 -0.00970858 0
6.35955e-64 -0.00970858 0
3.35615e-63 -0.00970858 0
SCALARS radius double 1
LOOKUP_TABLE default
0.0005192
0.000759374
0.000731582
0.000932767
0.000864852
0.00092132
0.000824734
0.000662097
0.000535446
0.00094621
0.000999249
0.000802661
0.000671708
0.000819153
0.000645007
0.000827505
0.000602392
0.000772815
0.000550095
0.000626194
0.000886859
0.000531918
0.000790192
0.000909137
0.00096445
SCALARS mass double 1
LOOKUP_TABLE default
0.00228657
0.0048913
0.00453983
0.00738005
0.00634449
0.00720004
0.00576955
0.0037184
0.0024319
0.00759432
0.00846957
0.00546484
0.00382714
0.00569173
0.00352892
0.00580838
0.00307803
0.005066
0.00256678
0.00332607
0.00667148
0.00239995
0.00529637
0.00701087
0.00788992
