# vtk DataFile Version 3.0
DEM2D particles
ASCII
DATASET POLYDATA
POINTS 25 double
0.000210492 -0.000518264 0
0.00247694 -0.000917553 0
0.00456711 -0.000270226 0
0.00674628 -0.00038894 0
0.00933215 0.000528187 0
0.000976388 0.00268236 0
0.00272805 0.00236681 0
0.00430175 0.001898 0
0.00620408 0.00132068 0
0.00807857 0.00176664 0
0.00194188 0.00361932 0
0.00315848 0.0033384 0
0.00447748 0.0038426 0
0.00666273 0.00491515 0
0.00823043 0.00436767 0
0.0014505 0.005538 0
0.0023961 0.00665137 0
0.00577483 0.00567644 0
0.00705357 0.00623806 0
0.00819693 0.00594377 0
6.49651e-05 0.00758496 0
0.00285477 0.00894497 0
0.0050706 0.00787775 0
0.00716435 0.00847277 0
0.00986735 0.00802168 0
VERTICES 25 50
1 0
1 1
1 2
1 3
1 4
1 5
1 6
1 7
1 8
1 9
1 10
1 11
1 12
1 13
1 14
1 15
1 16
1 17
1 18
1 19
1 20
1 21
1 22
1 23
1 24
POINT_DATA 25
VECTORS velocity double
-1.44066e-46 -0.00970858 0
-9.54462e-47 -0.00970858 0
-7.89922e-47 -0.00970858 0
-4.62981e-47 -0.00970858 0
6.06089e-47 -0.00970858 0
-4.30867e-48 -0.00970858 0
-4.9625e-47 -0.00970858 0
-1.27414e-46 -0.00970858 0
-1.45235e-46 -0.00970858 0
-1.68139e-46 -0.00970858 0
1.7187e-46 -0.00970858 0
2.89189e-47 -0.00970858 0
-9.53468e-47 -0.00970858 0
-6.15429e-47 -0.00970858 0
-1.40428e-46 -0.00970858 0
8.22052e-47 -0.00970858 0
-1.10197e-46 -0.00970858 0
1.41388e-46 -0.00970858 0
9.7754e-48 -0.00970858 0
-1.46541e-46 -0.00970858 0
-1.70621e-46 -0.00970858 0
-2.65001e-47 -0.00970858 0
1.28833e-47 -0.00970858 0
2.99904e-47 -0.00970858 0
1.5827e-46 -0.00970858 0
SCALARS radius double 1
LOOKUP_TABLE default
0.0005192
0.000759374
0.000731582
0.000932767
0.000864852
0.00092132
0.000824734
0.000662097
0.000535446
0.00094621
0.000999249
0.000802661
0.000671708
0.000819153
0.000645007
0.000827505
0.000602392
0.000772815
0.000550095
0.000626194
0.000886859
0.000531918
0.000790192
0.000909137
0.00096445
SCALARS mass double 1
LOOKUP_TABLE default
0.00228657
0.0048913
0.00453983
0.00738005
0.00634449
0.00720004
0.00576955
0.0037184
0.0024319
0.00759432
0.00846957
0.00546484
0.00382714
0.00569173
0.00352892
0.00580838
0.00307803
0.005066
0.00256678
0.00332607
0.00667148
0.00239995
0.00529637
0.00701087
0.00788992
