# vtk DataFile Version 3.0
DEM2D particles
ASCII
DATASET POLYDATA
POINTS 25 double
0.000210492 -0.00088719 0
0.00247694 -0.00128648 0
0.00456711 -0.000639152 0
0.00674628 -0.000757866 0
0.00933215 0.000159261 0
0.000976388 0.00231344 0
0.00272805 0.00199788 0
0.00430175 0.00152907 0
0.00620408 0.000951756 0
0.00807857 0.00139772 0
0.00194188 0.0032504 0
0.00315848 0.00296947 0
0.00447748 0.00347367 0
0.00666273 0.00454623 0
0.00823043 0.00399875 0
0.0014505 0.00516907 0
0.0023961 0.00628244 0
0.00577483 0.00530752 0
0.00705357 0.00586913 0
0.00819693 0.00557484 0
6.49651e-05 0.00721604 0
0.00285477 0.00857604 0
0.0050706 0.00750883 0
0.00716435 0.00810384 0
0.00986735 0.00765275 0
VERTICES 25 50
1 0
1 1
1 2
1 3
1 4
1 5
1 6
1 7
1 8
1 9
1 10
1 11
1 12
1 13
1 14
1 15
1 16
1 17
1 18
1 19
1 20
1 21
1 22
1 23
1 24
POINT_DATA 25
VECTORS velocity double
-3.73508e-63 -0.00970858 0
-2.47456e-63 -0.00970858 0
-2.04797e-63 -0.00970858 0
-1.20033e-63 -0.00970858 0
1.57136e-63 -0.00970858 0
-1.11708e-64 -0.00970858 0
-1.28659e-63 -0.00970858 0
-3.30336e-63 -0.00970858 0
-3.7654e-63 -0.00970858 0
-4.35921e-63 -0.00970858 0
4.45595e-63 -0.00970858 0
7.49758e-64 -0.00970858 0
-2.47198e-63 -0.00970858 0
-1.59558e-63 -0.00970858 0
-3.64076e-63 -0.00970858 0
2.13127e-63 -0.00970858 0
-2.85699e-63 -0.00970858 0
3.66566e-63 -0.00970858 0
2.53439e-64 -0.00970858 0
-3.79925e-63 -0.00970858 0
-4.42356e-63 -0.00970858 0
-6.87047e-64 -0.00970858 0
3.34016e-64 -0.00970858 0
7.77539e-64 -0.00970858 0
4.10333e-63 -0.00970858 0
SCALARS radius double 1
LOOKUP_TABLE default
0.0005192
0.000759374
0.000731582
0.000932767
0.000864852
0.00092132
0.000824734
0.000662097
0.000535446
0.00094621
0.000999249
0.000802661
0.000671708
0.000819153
0.000645007
0.000827505
0.000602392
0.000772815
0.000550095
0.000626194
0.000886859
0.000531918
0.000790192
0.000909137
0.00096445
SCALARS mass double 1
LOOKUP_TABLE default
0.00228657
0.0048913
0.00453983
0.00738005
0.00634449
0.00720004
0.00576955
0.0037184
0.0024319
0.00759432
0.00846957
0.00546484
0.00382714
0.00569173
0.00352892
0.00580838
0.00307803
0.005066
0.00256678
0.00332607
0.00667148
0.00239995
0.00529637
0.00701087
0.00788992
