# vtk DataFile Version 3.0
DEM2D particles
ASCII
DATASET POLYDATA
POINTS 25 double
0.000210554 0.000407975 0
0.00247698 8.71717e-06 0
0.00456714 0.000655993 0
0.0067463 0.000537288 0
0.00933212 0.00145434 0
0.000976389 0.00360851 0
0.00272807 0.00329298 0
0.0043018 0.0028242 0
0.00620415 0.00224693 0
0.00807864 0.00269286 0
0.00194181 0.00454555 0
0.00315847 0.00426465 0
0.00447752 0.00476881 0
0.00666276 0.00584128 0
0.00823049 0.00529384 0
0.00145046 0.00646423 0
0.00239615 0.00757751 0
0.00577477 0.00660267 0
0.00705357 0.00716424 0
0.00819699 0.00686997 0
6.50388e-05 0.00851119 0
0.00285479 0.00987109 0
0.0050706 0.00880396 0
0.00716434 0.00939893 0
0.00986728 0.00894787 0
VERTICES 25 50
1 0
1 1
1 2
1 3
1 4
1 5
1 6
1 7
1 8
1 9
1 10
1 11
1 12
1 13
1 14
1 15
1 16
1 17
1 18
1 19
1 20
1 21
1 22
1 23
1 24
POINT_DATA 25
VECTORS velocity double
-6.29223e-05 -0.0097485 0
-4.16872e-05 -0.00978032 0
-3.45007e-05 -0.00972873 0
-2.02212e-05 -0.00973819 0
2.64716e-05 -0.0096651 0
-1.88186e-06 -0.00965281 0
-2.16743e-05 -0.00967796 0
-5.56493e-05 -0.00971532 0
-6.3433e-05 -0.00976133 0
-7.34365e-05 -0.00972579 0
7.50662e-05 -0.00973753 0
1.26306e-05 -0.00975992 0
-4.16437e-05 -0.00971974 0
-2.68795e-05 -0.00963426 0
-6.13333e-05 -0.00967789 0
3.5904e-05 -0.00974401 0
-4.81296e-05 -0.00965528 0
6.17527e-05 -0.00973298 0
4.26951e-06 -0.00968822 0
-6.40033e-05 -0.00971167 0
-7.45205e-05 -0.00974027 0
-1.15742e-05 -0.00963188 0
5.62693e-06 -0.00971693 0
1.30986e-05 -0.00966951 0
6.91259e-05 -0.00970546 0
SCALARS radius double 1
LOOKUP_TABLE default
0.0005192
0.000759374
0.000731582
0.000932767
0.000864852
0.00092132
0.000824734
0.000662097
0.000535446
0.00094621
0.000999249
0.000802661
0.000671708
0.000819153
0.000645007
0.000827505
0.000602392
0.000772815
0.000550095
0.000626194
0.000886859
0.000531918
0.000790192
0.000909137
0.00096445
SCALARS mass double 1
LOOKUP_TABLE default
0.00228657
0.0048913
0.00453983
0.00738005
0.00634449
0.00720004
0.00576955
0.0037184
0.0024319
0.00759432
0.00846957
0.00546484
0.00382714
0.00569173
0.00352892
0.00580838
0.00307803
0.005066
0.00256678
0.00332607
0.00667148
0.00239995
0.00529637
0.00701087
0.00788992
