# vtk DataFile Version 3.0
DEM2D particles
ASCII
DATASET POLYDATA
POINTS 25 double
0.000210492 -0.000848355 0
0.00247694 -0.00124764 0
0.00456711 -0.000600317 0
0.00674628 -0.000719032 0
0.00933215 0.000198095 0
0.000976388 0.00235227 0
0.00272805 0.00203672 0
0.00430175 0.00156791 0
0.00620408 0.00099059 0
0.00807857 0.00143655 0
0.00194188 0.00328923 0
0.00315848 0.00300831 0
0.00447748 0.00351251 0
0.00666273 0.00458506 0
0.00823043 0.00403758 0
0.0014505 0.0052079 0
0.0023961 0.00632127 0
0.00577483 0.00534635 0
0.00705357 0.00590797 0
0.00819693 0.00561368 0
6.49651e-05 0.00725487 0
0.00285477 0.00861487 0
0.0050706 0.00754766 0
0.00716435 0.00814268 0
0.00986735 0.00769159 0
VERTICES 25 50
1 0
1 1
1 2
1 3
1 4
1 5
1 6
1 7
1 8
1 9
1 10
1 11
1 12
1 13
1 14
1 15
1 16
1 17
1 18
1 19
1 20
1 21
1 22
1 23
1 24
POINT_DATA 25
VECTORS velocity double
-2.08076e-61 -0.00970858 0
-1.37854e-61 -0.00970858 0
-1.1409e-61 -0.00970858 0
-6.68689e-62 -0.00970858 0
8.75382e-62 -0.00970858 0
-6.22308e-63 -0.00970858 0
-7.16741e-62 -0.00970858 0
-1.84025e-61 -0.00970858 0
-2.09765e-61 -0.00970858 0
-2.42845e-61 -0.00970858 0
2.48235e-61 -0.00970858 0
4.1768e-62 -0.00970858 0
-1.37711e-61 -0.00970858 0
-8.88873e-62 -0.00970858 0
-2.02822e-61 -0.00970858 0
1.1873e-61 -0.00970858 0
-1.59159e-61 -0.00970858 0
2.04209e-61 -0.00970858 0
1.41187e-62 -0.00970858 0
-2.11651e-61 -0.00970858 0
-2.4643e-61 -0.00970858 0
-3.82744e-62 -0.00970858 0
1.86076e-62 -0.00970858 0
4.33156e-62 -0.00970858 0
2.28591e-61 -0.00970858 0
SCALARS radius double 1
LOOKUP_TABLE default
0.0005192
0.000759374
0.000731582
0.000932767
0.000864852
0.00092132
0.000824734
0.000662097
0.000535446
0.00094621
0.000999249
0.000802661
0.000671708
0.000819153
0.000645007
0.000827505
0.000602392
0.000772815
0.000550095
0.000626194
0.000886859
0.000531918
0.000790192
0.000909137
0.00096445
SCALARS mass double 1
LOOKUP_TABLE default
0.00228657
0.0048913
0.00453983
0.00738005
0.00634449
0.00720004
0.00576955
0.0037184
0.0024319
0.00759432
0.00846957
0.00546484
0.00382714
0.00569173
0.00352892
0.00580838
0.00307803
0.005066
0.00256678
0.00332607
0.00667148
0.00239995
0.00529637
0.00701087
0.00788992
