# vtk DataFile Version 3.0
DEM2D particles
ASCII
DATASET POLYDATA
POINTS 25 double
0.000210492 8.56104e-05 0
0.00247694 -0.000313679 0
0.00456711 0.000333648 0
0.00674628 0.000214934 0
0.00933215 0.00113206 0
0.000976388 0.00328624 0
0.00272805 0.00297068 0
0.00430175 0.00250187 0
0.00620408 0.00192456 0
0.00807857 0.00237052 0
0.00194188 0.0042232 0
0.00315848 0.00394227 0
0.00447748 0.00444647 0
0.00666273 0.00551903 0
0.00823043 0.00497155 0
0.0014505 0.00614187 0
0.0023961 0.00725524 0
0.00577483 0.00628032 0
0.00705357 0.00684193 0
0.00819693 0.00654764 0
6.49651e-05 0.00818884 0
0.00285477 0.00954884 0
0.0050706 0.00848163 0
0.00716435 0.00907664 0
0.00986735 0.00862555 0
VERTICES 25 50
1 0
1 1
1 2
1 3
1 4
1 5
1 6
1 7
1 8
1 9
1 10
1 11
1 12
1 13
1 14
1 15
1 16
1 17
1 18
1 19
1 20
1 21
1 22
1 23
1 24
POINT_DATA 25
VECTORS velocity double
-2.03072e-19 -0.00970858 0
-1.34539e-19 -0.00970858 0
-1.11346e-19 -0.00970858 0
-6.52608e-20 -0.00970858 0
8.5433e-20 -0.00970858 0
-6.07342e-21 -0.00970858 0
-6.99504e-20 -0.00970858 0
-1.796e-19 -0.00970858 0
-2.0472e-19 -0.00970858 0
-2.37005e-19 -0.00970858 0
2.42265e-19 -0.00970858 0
4.07635e-20 -0.00970858 0
-1.34399e-19 -0.00970858 0
-8.67496e-20 -0.00970858 0
-1.97944e-19 -0.00970858 0
1.15875e-19 -0.00970858 0
-1.55331e-19 -0.00970858 0
1.99298e-19 -0.00970858 0
1.37792e-20 -0.00970858 0
-2.06561e-19 -0.00970858 0
-2.40504e-19 -0.00970858 0
-3.73539e-20 -0.00970858 0
1.81601e-20 -0.00970858 0
4.22739e-20 -0.00970858 0
2.23094e-19 -0.00970858 0
SCALARS radius double 1
LOOKUP_TABLE default
0.0005192
0.000759374
0.000731582
0.000932767
0.000864852
0.00092132
0.000824734
0.000662097
0.000535446
0.00094621
0.000999249
0.000802661
0.000671708
0.000819153
0.000645007
0.000827505
0.000602392
0.000772815
0.000550095
0.000626194
0.000886859
0.000531918
0.000790192
0.000909137
0.00096445
SCALARS mass double 1
LOOKUP_TABLE default
0.00228657
0.0048913
0.00453983
0.00738005
0.00634449
0.00720004
0.00576955
0.0037184
0.0024319
0.00759432
0.00846957
0.00546484
0.00382714
0.00569173
0.00352892
0.00580838
0.00307803
0.005066
0.00256678
0.00332607
0.00667148
0.00239995
0.00529637
0.00701087
0.00788992
