# vtk DataFile Version 3.0
DEM2D particles
ASCII
DATASET POLYDATA
POINTS 25 double
0.000210492 -0.000263899 0
0.00247694 -0.000663188 0
0.00456711 -1.58607e-05 0
0.00674628 -0.000134575 0
0.00933215 0.000782552 0
0.000976388 0.00293673 0
0.00272805 0.00262117 0
0.00430175 0.00215236 0
0.00620408 0.00157505 0
0.00807857 0.00202101 0
0.00194188 0.00387369 0
0.00315848 0.00359276 0
0.00447748 0.00409697 0
0.00666273 0.00516952 0
0.00823043 0.00462204 0
0.0014505 0.00579236 0
0.0023961 0.00690573 0
0.00577483 0.00593081 0
0.00705357 0.00649242 0
0.00819693 0.00619814 0
6.49651e-05 0.00783933 0
0.00285477 0.00919933 0
0.0050706 0.00813212 0
0.00716435 0.00872713 0
0.00986735 0.00827604 0
VERTICES 25 50
1 0
1 1
1 2
1 3
1 4
1 5
1 6
1 7
1 8
1 9
1 10
1 11
1 12
1 13
1 14
1 15
1 16
1 17
1 18
1 19
1 20
1 21
1 22
1 23
1 24
POINT_DATA 25
VECTORS velocity double
-3.92962e-35 -0.00970858 0
-2.60345e-35 -0.00970858 0
-2.15464e-35 -0.00970858 0
-1.26285e-35 -0.00970858 0
1.6532e-35 -0.00970858 0
-1.17526e-36 -0.00970858 0
-1.3536e-35 -0.00970858 0
-3.47541e-35 -0.00970858 0
-3.96152e-35 -0.00970858 0
-4.58626e-35 -0.00970858 0
4.68804e-35 -0.00970858 0
7.88809e-36 -0.00970858 0
-2.60074e-35 -0.00970858 0
-1.67868e-35 -0.00970858 0
-3.83039e-35 -0.00970858 0
2.24228e-35 -0.00970858 0
-3.00579e-35 -0.00970858 0
3.85658e-35 -0.00970858 0
2.6664e-36 -0.00970858 0
-3.99714e-35 -0.00970858 0
-4.65395e-35 -0.00970858 0
-7.22831e-36 -0.00970858 0
3.51413e-36 -0.00970858 0
8.18037e-36 -0.00970858 0
4.31706e-35 -0.00970858 0
SCALARS radius double 1
LOOKUP_TABLE default
0.0005192
0.000759374
0.000731582
0.000932767
0.000864852
0.00092132
0.000824734
0.000662097
0.000535446
0.00094621
0.000999249
0.000802661
0.000671708
0.000819153
0.000645007
0.000827505
0.000602392
0.000772815
0.000550095
0.000626194
0.000886859
0.000531918
0.000790192
0.000909137
0.00096445
SCALARS mass double 1
LOOKUP_TABLE default
0.00228657
0.0048913
0.00453983
0.00738005
0.00634449
0.00720004
0.00576955
0.0037184
0.0024319
0.00759432
0.00846957
0.00546484
0.00382714
0.00569173
0.00352892
0.00580838
0.00307803
0.005066
0.00256678
0.00332607
0.00667148
0.00239995
0.00529637
0.00701087
0.00788992
