# vtk DataFile Version 3.0
DEM2D particles
ASCII
DATASET POLYDATA
POINTS 25 double
0.000210526 0.000402132 0
0.00247696 2.85986e-06 0
0.00456713 0.000650159 0
0.00674629 0.00053145 0
0.00933213 0.00144854 0
0.000976389 0.00360271 0
0.00272806 0.00328717 0
0.00430178 0.00281837 0
0.00620412 0.00224108 0
0.00807861 0.00268703 0
0.00194184 0.00453971 0
0.00315847 0.0042588 0
0.0044775 0.00476298 0
0.00666275 0.00583549 0
0.00823046 0.00528803 0
0.00145048 0.00645839 0
0.00239613 0.00757171 0
0.0057748 0.00659683 0
0.00705357 0.00715842 0
0.00819696 0.00686415 0
6.50054e-05 0.00850535 0
0.00285478 0.0098653 0
0.0050706 0.00879813 0
0.00716435 0.00939312 0
0.00986731 0.00894205 0
VERTICES 25 50
1 0
1 1
1 2
1 3
1 4
1 5
1 6
1 7
1 8
1 9
1 10
1 11
1 12
1 13
1 14
1 15
1 16
1 17
1 18
1 19
1 20
1 21
1 22
1 23
1 24
POINT_DATA 25
VECTORS velocity double
-3.44283e-05 -0.00973042 0
-2.28094e-05 -0.00974783 0
-1.88773e-05 -0.00971961 0
-1.10641e-05 -0.00972478 0
1.44841e-05 -0.00968479 0
-1.02967e-06 -0.00967807 0
-1.18592e-05 -0.00969183 0
-3.04489e-05 -0.00971227 0
-3.47078e-05 -0.00973745 0
-4.01812e-05 -0.009718 0
4.1073e-05 -0.00972442 0
6.91094e-06 -0.00973667 0
-2.27857e-05 -0.00971469 0
-1.47073e-05 -0.00966791 0
-3.35589e-05 -0.00969179 0
1.96451e-05 -0.00972797 0
-2.63344e-05 -0.00967942 0
3.37884e-05 -0.00972193 0
2.33609e-06 -0.00969744 0
-3.50198e-05 -0.00971027 0
-4.07744e-05 -0.00972592 0
-6.33289e-06 -0.00966661 0
3.07881e-06 -0.00971315 0
7.16701e-06 -0.00968721 0
3.78227e-05 -0.00970688 0
SCALARS radius double 1
LOOKUP_TABLE default
0.0005192
0.000759374
0.000731582
0.000932767
0.000864852
0.00092132
0.000824734
0.000662097
0.000535446
0.00094621
0.000999249
0.000802661
0.000671708
0.000819153
0.000645007
0.000827505
0.000602392
0.000772815
0.000550095
0.000626194
0.000886859
0.000531918
0.000790192
0.000909137
0.00096445
SCALARS mass double 1
LOOKUP_TABLE default
0.00228657
0.0048913
0.00453983
0.00738005
0.00634449
0.00720004
0.00576955
0.0037184
0.0024319
0.00759432
0.00846957
0.00546484
0.00382714
0.00569173
0.00352892
0.00580838
0.00307803
0.005066
0.00256678
0.00332607
0.00667148
0.00239995
0.00529637
0.00701087
0.00788992
