# vtk DataFile Version 3.0
DEM2D particles
ASCII
DATASET POLYDATA
POINTS 25 double
0.000210492 -6.19601e-05 0
0.00247694 -0.000461249 0
0.00456711 0.000186078 0
0.00674628 6.73637e-05 0
0.00933215 0.00098449 0
0.000976388 0.00313866 0
0.00272805 0.00282311 0
0.00430175 0.0023543 0
0.00620408 0.00177699 0
0.00807857 0.00222295 0
0.00194188 0.00407563 0
0.00315848 0.0037947 0
0.00447748 0.0042989 0
0.00666273 0.00537146 0
0.00823043 0.00482398 0
0.0014505 0.0059943 0
0.0023961 0.00710767 0
0.00577483 0.00613275 0
0.00705357 0.00669436 0
0.00819693 0.00640007 0
6.49651e-05 0.00804126 0
0.00285477 0.00940127 0
0.0050706 0.00833406 0
0.00716435 0.00892907 0
0.00986735 0.00847798 0
VERTICES 25 50
1 0
1 1
1 2
1 3
1 4
1 5
1 6
1 7
1 8
1 9
1 10
1 11
1 12
1 13
1 14
1 15
1 16
1 17
1 18
1 19
1 20
1 21
1 22
1 23
1 24
POINT_DATA 25
VECTORS velocity double
-4.71136e-26 -0.00970858 0
-3.12136e-26 -0.00970858 0
-2.58327e-26 -0.00970858 0
-1.51408e-26 -0.00970858 0
1.98208e-26 -0.00970858 0
-1.40906e-27 -0.00970858 0
-1.62288e-26 -0.00970858 0
-4.16679e-26 -0.00970858 0
-4.7496e-26 -0.00970858 0
-5.49862e-26 -0.00970858 0
5.62065e-26 -0.00970858 0
9.4573e-27 -0.00970858 0
-3.11811e-26 -0.00970858 0
-2.01263e-26 -0.00970858 0
-4.59238e-26 -0.00970858 0
2.68834e-26 -0.00970858 0
-3.60374e-26 -0.00970858 0
4.62379e-26 -0.00970858 0
3.19683e-27 -0.00970858 0
-4.7923e-26 -0.00970858 0
-5.57978e-26 -0.00970858 0
-8.66627e-27 -0.00970858 0
4.21321e-27 -0.00970858 0
9.80772e-27 -0.00970858 0
5.17586e-26 -0.00970858 0
SCALARS radius double 1
LOOKUP_TABLE default
0.0005192
0.000759374
0.000731582
0.000932767
0.000864852
0.00092132
0.000824734
0.000662097
0.000535446
0.00094621
0.000999249
0.000802661
0.000671708
0.000819153
0.000645007
0.000827505
0.000602392
0.000772815
0.000550095
0.000626194
0.000886859
0.000531918
0.000790192
0.000909137
0.00096445
SCALARS mass double 1
LOOKUP_TABLE default
0.00228657
0.0048913
0.00453983
0.00738005
0.00634449
0.00720004
0.00576955
0.0037184
0.0024319
0.00759432
0.00846957
0.00546484
0.00382714
0.00569173
0.00352892
0.00580838
0.00307803
0.005066
0.00256678
0.00332607
0.00667148
0.00239995
0.00529637
0.00701087
0.00788992
