# vtk DataFile Version 3.0
DEM2D particles
ASCII
DATASET POLYDATA
POINTS 25 double
0.000281254 0.000520782 0
0.00252382 0.00015728 0
0.00460591 0.000746588 0
0.00676902 0.000638514 0
0.00930238 0.00147344 0
0.000978504 0.0036138 0
0.00275242 0.00332653 0
0.00436433 0.00289973 0
0.00627542 0.00237416 0
0.00816115 0.00278015 0
0.00185746 0.00464604 0
0.00314428 0.00439029 0
0.00452431 0.0048493 0
0.00669296 0.00582572 0
0.00829941 0.00532731 0
0.00141012 0.006572 0
0.00245023 0.00758558 0
0.00570539 0.00669804 0
0.00704877 0.00720931 0
0.00826891 0.0069414 0
0.000148771 0.00861475 0
0.00286779 0.00985286 0
0.00506428 0.00888131 0
0.00714962 0.00942299 0
0.00978961 0.00901233 0
VERTICES 25 50
1 0
1 1
1 2
1 3
1 4
1 5
1 6
1 7
1 8
1 9
1 10
1 11
1 12
1 13
1 14
1 15
1 16
1 17
1 18
1 19
1 20
1 21
1 22
1 23
1 24
POINT_DATA 25
VECTORS velocity double
-0.0714773 -0.0550484 0
-0.047355 -0.0911976 0
-0.0391915 -0.0325925 0
-0.0229705 -0.0433402 0
0.0300707 0.0396909 0
-0.00213772 0.053649 0
-0.0246211 0.0250807 0
-0.0632155 -0.0173626 0
-0.0720574 -0.0696292 0
-0.083421 -0.0292546 0
0.0852723 -0.0425921 0
0.0143479 -0.0680254 0
-0.0473057 -0.0223779 0
-0.0305341 0.0747245 0
-0.0696723 0.025159 0
0.0407856 -0.0499549 0
-0.0546734 0.0508428 0
0.0701487 -0.0374206 0
0.00485 0.0134244 0
-0.0727053 -0.0132185 0
-0.0846524 -0.045703 0
-0.0131478 0.0774237 0
0.00639198 -0.0191953 0
0.0148796 0.0346737 0
0.0785244 -0.00616536 0
SCALARS radius double 1
LOOKUP_TABLE default
0.0005192
0.000759374
0.000731582
0.000932767
0.000864852
0.00092132
0.000824734
0.000662097
0.000535446
0.00094621
0.000999249
0.000802661
0.000671708
0.000819153
0.000645007
0.000827505
0.000602392
0.000772815
0.000550095
0.000626194
0.000886859
0.000531918
0.000790192
0.000909137
0.00096445
SCALARS mass double 1
LOOKUP_TABLE default
0.00228657
0.0048913
0.00453983
0.00738005
0.00634449
0.00720004
0.00576955
0.0037184
0.0024319
0.00759432
0.00846957
0.00546484
0.00382714
0.00569173
0.00352892
0.00580838
0.00307803
0.005066
0.00256678
0.00332607
0.00667148
0.00239995
0.00529637
0.00701087
0.00788992
