# vtk DataFile Version 3.0
DEM2D particles
ASCII
DATASET POLYDATA
POINTS 25 double
0.000210492 -0.00115126 0
0.00247694 -0.00155055 0
0.00456711 -0.000903225 0
0.00674628 -0.00102194 0
0.00933215 -0.000104813 0
0.000976388 0.00204936 0
0.00272805 0.00173381 0
0.00430175 0.001265 0
0.00620408 0.000687682 0
0.00807857 0.00113364 0
0.00194188 0.00298632 0
0.00315848 0.0027054 0
0.00447748 0.0032096 0
0.00666273 0.00428215 0
0.00823043 0.00373467 0
0.0014505 0.004905 0
0.0023961 0.00601837 0
0.00577483 0.00504345 0
0.00705357 0.00560506 0
0.00819693 0.00531077 0
6.49651e-05 0.00695196 0
0.00285477 0.00831197 0
0.0050706 0.00724475 0
0.00716435 0.00783977 0
0.00986735 0.00738868 0
VERTICES 25 50
1 0
1 1
1 2
1 3
1 4
1 5
1 6
1 7
1 8
1 9
1 10
1 11
1 12
1 13
1 14
1 15
1 16
1 17
1 18
1 19
1 20
1 21
1 22
1 23
1 24
POINT_DATA 25
VECTORS velocity double
-5.01222e-75 -0.00970858 0
-3.32068e-75 -0.00970858 0
-2.74823e-75 -0.00970858 0
-1.61076e-75 -0.00970858 0
2.10865e-75 -0.00970858 0
-1.49904e-76 -0.00970858 0
-1.72651e-75 -0.00970858 0
-4.43287e-75 -0.00970858 0
-5.05289e-75 -0.00970858 0
-5.84974e-75 -0.00970858 0
5.97957e-75 -0.00970858 0
1.00612e-75 -0.00970858 0
-3.31723e-75 -0.00970858 0
-2.14115e-75 -0.00970858 0
-4.88564e-75 -0.00970858 0
2.86001e-75 -0.00970858 0
-3.83387e-75 -0.00970858 0
4.91905e-75 -0.00970858 0
3.40097e-76 -0.00970858 0
-5.09833e-75 -0.00970858 0
-5.93609e-75 -0.00970858 0
-9.21967e-76 -0.00970858 0
4.48226e-76 -0.00970858 0
1.0434e-75 -0.00970858 0
5.50638e-75 -0.00970858 0
SCALARS radius double 1
LOOKUP_TABLE default
0.0005192
0.000759374
0.000731582
0.000932767
0.000864852
0.00092132
0.000824734
0.000662097
0.000535446
0.00094621
0.000999249
0.000802661
0.000671708
0.000819153
0.000645007
0.000827505
0.000602392
0.000772815
0.000550095
0.000626194
0.000886859
0.000531918
0.000790192
0.000909137
0.00096445
SCALARS mass double 1
LOOKUP_TABLE default
0.00228657
0.0048913
0.00453983
0.00738005
0.00634449
0.00720004
0.00576955
0.0037184
0.0024319
0.00759432
0.00846957
0.00546484
0.00382714
0.00569173
0.00352892
0.00580838
0.00307803
0.005066
0.00256678
0.00332607
0.00667148
0.00239995
0.00529637
0.00701087
0.00788992
