# vtk DataFile Version 3.0
DEM2D particles
ASCII
DATASET POLYDATA
POINTS 25 double
0.000210504 0.00039241 0
0.00247694 -6.87336e-06 0
0.00456711 0.000640444 0
0.00674628 0.000521731 0
0.00933214 0.00143884 0
0.000976388 0.00359302 0
0.00272805 0.00327747 0
0.00430176 0.00280866 0
0.0062041 0.00223136 0
0.00807858 0.00267731 0
0.00194187 0.00452999 0
0.00315848 0.00424907 0
0.00447749 0.00475327 0
0.00666274 0.0058258 0
0.00823044 0.00527833 0
0.00145049 0.00644867 0
0.00239611 0.00756202 0
0.00577482 0.00658711 0
0.00705357 0.00714872 0
0.00819694 0.00685444 0
6.49798e-05 0.00849563 0
0.00285478 0.00985562 0
0.0050706 0.00878842 0
0.00716435 0.00938343 0
0.00986733 0.00893234 0
VERTICES 25 50
1 0
1 1
1 2
1 3
1 4
1 5
1 6
1 7
1 8
1 9
1 10
1 11
1 12
1 13
1 14
1 15
1 16
1 17
1 18
1 19
1 20
1 21
1 22
1 23
1 24
POINT_DATA 25
VECTORS velocity double
-1.26019e-05 -0.00971658 0
-8.34898e-06 -0.00972295 0
-6.9097e-06 -0.00971262 0
-4.04984e-06 -0.00971451 0
5.30165e-06 -0.00969987 0
-3.76893e-07 -0.00969741 0
-4.34086e-06 -0.00970245 0
-1.11453e-05 -0.00970993 0
-1.27042e-05 -0.00971915 0
-1.47076e-05 -0.00971203 0
1.5034e-05 -0.00971438 0
2.52963e-06 -0.00971887 0
-8.34029e-06 -0.00971082 0
-5.38335e-06 -0.0096937 0
-1.22836e-05 -0.00970244 0
7.19075e-06 -0.00971568 0
-9.63925e-06 -0.00969791 0
1.23677e-05 -0.00971347 0
8.55084e-07 -0.00970451 0
-1.28184e-05 -0.0097092 0
-1.49247e-05 -0.00971493 0
-2.31804e-06 -0.00969322 0
1.12695e-06 -0.00971026 0
2.62336e-06 -0.00970076 0
1.38443e-05 -0.00970796 0
SCALARS radius double 1
LOOKUP_TABLE default
0.0005192
0.000759374
0.000731582
0.000932767
0.000864852
0.00092132
0.000824734
0.000662097
0.000535446
0.00094621
0.000999249
0.000802661
0.000671708
0.000819153
0.000645007
0.000827505
0.000602392
0.000772815
0.000550095
0.000626194
0.000886859
0.000531918
0.000790192
0.000909137
0.00096445
SCALARS mass double 1
LOOKUP_TABLE default
0.00228657
0.0048913
0.00453983
0.00738005
0.00634449
0.00720004
0.00576955
0.0037184
0.0024319
0.00759432
0.00846957
0.00546484
0.00382714
0.00569173
0.00352892
0.00580838
0.00307803
0.005066
0.00256678
0.00332607
0.00667148
0.00239995
0.00529637
0.00701087
0.00788992
