# vtk DataFile Version 3.0
DEM2D particles
ASCII
DATASET POLYDATA
POINTS 25 double
0.000210492 -0.00133184 0
0.00247694 -0.00173113 0
0.00456711 -0.0010838 0
0.00674628 -0.00120252 0
0.00933215 -0.000285393 0
0.000976388 0.00186878 0
0.00272805 0.00155323 0
0.00430175 0.00108442 0
0.00620408 0.000507103 0
0.00807857 0.000953064 0
0.00194188 0.00280574 0
0.00315848 0.00252482 0
0.00447748 0.00302902 0
0.00666273 0.00410157 0
0.00823043 0.00355409 0
0.0014505 0.00472442 0
0.0023961 0.00583779 0
0.00577483 0.00486287 0
0.00705357 0.00542448 0
0.00819693 0.00513019 0
6.49651e-05 0.00677138 0
0.00285477 0.00813139 0
0.0050706 0.00706418 0
0.00716435 0.00765919 0
0.00986735 0.0072081 0
VERTICES 25 50
1 0
1 1
1 2
1 3
1 4
1 5
1 6
1 7
1 8
1 9
1 10
1 11
1 12
1 13
1 14
1 15
1 16
1 17
1 18
1 19
1 20
1 21
1 22
1 23
1 24
POINT_DATA 25
VECTORS velocity double
-3.81497e-83 -0.00970858 0
-2.52749e-83 -0.00970858 0
-2.09178e-83 -0.00970858 0
-1.22601e-83 -0.00970858 0
1.60497e-83 -0.00970858 0
-1.14097e-84 -0.00970858 0
-1.31411e-83 -0.00970858 0
-3.37401e-83 -0.00970858 0
-3.84594e-83 -0.00970858 0
-4.45245e-83 -0.00970858 0
4.55126e-83 -0.00970858 0
7.65795e-84 -0.00970858 0
-2.52486e-83 -0.00970858 0
-1.6297e-83 -0.00970858 0
-3.71863e-83 -0.00970858 0
2.17686e-83 -0.00970858 0
-2.91809e-83 -0.00970858 0
3.74406e-83 -0.00970858 0
2.5886e-84 -0.00970858 0
-3.88052e-83 -0.00970858 0
-4.51817e-83 -0.00970858 0
-7.01742e-84 -0.00970858 0
3.41161e-84 -0.00970858 0
7.9417e-84 -0.00970858 0
4.1911e-83 -0.00970858 0
SCALARS radius double 1
LOOKUP_TABLE default
0.0005192
0.000759374
0.000731582
0.000932767
0.000864852
0.00092132
0.000824734
0.000662097
0.000535446
0.00094621
0.000999249
0.000802661
0.000671708
0.000819153
0.000645007
0.000827505
0.000602392
0.000772815
0.000550095
0.000626194
0.000886859
0.000531918
0.000790192
0.000909137
0.00096445
SCALARS mass double 1
LOOKUP_TABLE default
0.00228657
0.0048913
0.00453983
0.00738005
0.00634449
0.00720004
0.00576955
0.0037184
0.0024319
0.00759432
0.00846957
0.00546484
0.00382714
0.00569173
0.00352892
0.00580838
0.00307803
0.005066
0.00256678
0.00332607
0.00667148
0.00239995
0.00529637
0.00701087
0.00788992
