# vtk DataFile Version 3.0
DEM2D particles
ASCII
DATASET POLYDATA
POINTS 25 double
0.000210492 -0.000947383 0
0.00247694 -0.00134667 0
0.00456711 -0.000699345 0
0.00674628 -0.000818059 0
0.00933215 9.90673e-05 0
0.000976388 0.00225324 0
0.00272805 0.00193769 0
0.00430175 0.00146888 0
0.00620408 0.000891563 0
0.00807857 0.00133752 0
0.00194188 0.0031902 0
0.00315848 0.00290928 0
0.00447748 0.00341348 0
0.00666273 0.00448603 0
0.00823043 0.00393855 0
0.0014505 0.00510888 0
0.0023961 0.00622225 0
0.00577483 0.00524733 0
0.00705357 0.00580894 0
0.00819693 0.00551465 0
6.49651e-05 0.00715584 0
0.00285477 0.00851585 0
0.0050706 0.00744864 0
0.00716435 0.00804365 0
0.00986735 0.00759256 0
VERTICES 25 50
1 0
1 1
1 2
1 3
1 4
1 5
1 6
1 7
1 8
1 9
1 10
1 11
1 12
1 13
1 14
1 15
1 16
1 17
1 18
1 19
1 20
1 21
1 22
1 23
1 24
POINT_DATA 25
VECTORS velocity double
-7.34719e-66 -0.00970858 0
-4.86764e-66 -0.00970858 0
-4.02851e-66 -0.00970858 0
-2.36115e-66 -0.00970858 0
3.09098e-66 -0.00970858 0
-2.19737e-67 -0.00970858 0
-2.53082e-66 -0.00970858 0
-6.49795e-66 -0.00970858 0
-7.40682e-66 -0.00970858 0
-8.57488e-66 -0.00970858 0
8.76518e-66 -0.00970858 0
1.47483e-66 -0.00970858 0
-4.86258e-66 -0.00970858 0
-3.13862e-66 -0.00970858 0
-7.16164e-66 -0.00970858 0
4.19237e-66 -0.00970858 0
-5.6199e-66 -0.00970858 0
7.21062e-66 -0.00970858 0
4.98534e-67 -0.00970858 0
-7.47341e-66 -0.00970858 0
-8.70146e-66 -0.00970858 0
-1.35147e-66 -0.00970858 0
6.57035e-67 -0.00970858 0
1.52948e-66 -0.00970858 0
8.07156e-66 -0.00970858 0
SCALARS radius double 1
LOOKUP_TABLE default
0.0005192
0.000759374
0.000731582
0.000932767
0.000864852
0.00092132
0.000824734
0.000662097
0.000535446
0.00094621
0.000999249
0.000802661
0.000671708
0.000819153
0.000645007
0.000827505
0.000602392
0.000772815
0.000550095
0.000626194
0.000886859
0.000531918
0.000790192
0.000909137
0.00096445
SCALARS mass double 1
LOOKUP_TABLE default
0.00228657
0.0048913
0.00453983
0.00738005
0.00634449
0.00720004
0.00576955
0.0037184
0.0024319
0.00759432
0.00846957
0.00546484
0.00382714
0.00569173
0.00352892
0.00580838
0.00307803
0.005066
0.00256678
0.00332607
0.00667148
0.00239995
0.00529637
0.00701087
0.00788992
