# vtk DataFile Version 3.0
DEM2D particles
ASCII
DATASET POLYDATA
POINTS 25 double
0.000210492 -0.000281374 0
0.00247694 -0.000680663 0
0.00456711 -3.33362e-05 0
0.00674628 -0.00015205 0
0.00933215 0.000765076 0
0.000976388 0.00291925 0
0.00272805 0.0026037 0
0.00430175 0.00213489 0
0.00620408 0.00155757 0
0.00807857 0.00200353 0
0.00194188 0.00385621 0
0.00315848 0.00357529 0
0.00447748 0.00407949 0
0.00666273 0.00515204 0
0.00823043 0.00460456 0
0.0014505 0.00577489 0
0.0023961 0.00688825 0
0.00577483 0.00591333 0
0.00705357 0.00647495 0
0.00819693 0.00618066 0
6.49651e-05 0.00782185 0
0.00285477 0.00918186 0
0.0050706 0.00811464 0
0.00716435 0.00870966 0
0.00986735 0.00825857 0
VERTICES 25 50
1 0
1 1
1 2
1 3
1 4
1 5
1 6
1 7
1 8
1 9
1 10
1 11
1 12
1 13
1 14
1 15
1 16
1 17
1 18
1 19
1 20
1 21
1 22
1 23
1 24
POINT_DATA 25
VECTORS velocity double
-6.43704e-36 -0.00970858 0
-4.26465e-36 -0.00970858 0
-3.52947e-36 -0.00970858 0
-2.06865e-36 -0.00970858 0
2.70808e-36 -0.00970858 0
-1.92517e-37 -0.00970858 0
-2.21731e-36 -0.00970858 0
-5.693e-36 -0.00970858 0
-6.48928e-36 -0.00970858 0
-7.51265e-36 -0.00970858 0
7.67938e-36 -0.00970858 0
1.29213e-36 -0.00970858 0
-4.26021e-36 -0.00970858 0
-2.74981e-36 -0.00970858 0
-6.27448e-36 -0.00970858 0
3.67303e-36 -0.00970858 0
-4.92372e-36 -0.00970858 0
6.31739e-36 -0.00970858 0
4.36777e-37 -0.00970858 0
-6.54763e-36 -0.00970858 0
-7.62355e-36 -0.00970858 0
-1.18406e-36 -0.00970858 0
5.75643e-37 -0.00970858 0
1.34001e-36 -0.00970858 0
7.07168e-36 -0.00970858 0
SCALARS radius double 1
LOOKUP_TABLE default
0.0005192
0.000759374
0.000731582
0.000932767
0.000864852
0.00092132
0.000824734
0.000662097
0.000535446
0.00094621
0.000999249
0.000802661
0.000671708
0.000819153
0.000645007
0.000827505
0.000602392
0.000772815
0.000550095
0.000626194
0.000886859
0.000531918
0.000790192
0.000909137
0.00096445
SCALARS mass double 1
LOOKUP_TABLE default
0.00228657
0.0048913
0.00453983
0.00738005
0.00634449
0.00720004
0.00576955
0.0037184
0.0024319
0.00759432
0.00846957
0.00546484
0.00382714
0.00569173
0.00352892
0.00580838
0.00307803
0.005066
0.00256678
0.00332607
0.00667148
0.00239995
0.00529637
0.00701087
0.00788992
