# vtk DataFile Version 3.0
DEM2D particles
ASCII
DATASET POLYDATA
POINTS 25 double
0.000210492 0.000178813 0
0.00247694 -0.000220476 0
0.00456711 0.000426851 0
0.00674628 0.000308137 0
0.00933215 0.00122526 0
0.000976388 0.00337944 0
0.00272805 0.00306389 0
0.00430175 0.00259507 0
0.00620408 0.00201776 0
0.00807857 0.00246372 0
0.00194188 0.0043164 0
0.00315848 0.00403547 0
0.00447748 0.00453968 0
0.00666273 0.00561223 0
0.00823043 0.00506475 0
0.0014505 0.00623507 0
0.0023961 0.00734844 0
0.00577483 0.00637352 0
0.00705357 0.00693513 0
0.00819693 0.00664085 0
6.49651e-05 0.00828204 0
0.00285477 0.00964204 0
0.0050706 0.00857483 0
0.00716435 0.00916984 0
0.00986735 0.00871875 0
VERTICES 25 50
1 0
1 1
1 2
1 3
1 4
1 5
1 6
1 7
1 8
1 9
1 10
1 11
1 12
1 13
1 14
1 15
1 16
1 17
1 18
1 19
1 20
1 21
1 22
1 23
1 24
POINT_DATA 25
VECTORS velocity double
-3.14676e-15 -0.00970858 0
-2.08479e-15 -0.00970858 0
-1.72539e-15 -0.00970858 0
-1.01127e-15 -0.00970858 0
1.32385e-15 -0.00970858 0
-9.41123e-17 -0.00970858 0
-1.08394e-15 -0.00970858 0
-2.78304e-15 -0.00970858 0
-3.1723e-15 -0.00970858 0
-3.67258e-15 -0.00970858 0
3.75408e-15 -0.00970858 0
6.31661e-16 -0.00970858 0
-2.08262e-15 -0.00970858 0
-1.34425e-15 -0.00970858 0
-3.06729e-15 -0.00970858 0
1.79557e-15 -0.00970858 0
-2.40697e-15 -0.00970858 0
3.08827e-15 -0.00970858 0
2.13519e-16 -0.00970858 0
-3.20082e-15 -0.00970858 0
-3.72679e-15 -0.00970858 0
-5.78828e-16 -0.00970858 0
2.81404e-16 -0.00970858 0
6.55067e-16 -0.00970858 0
3.45701e-15 -0.00970858 0
SCALARS radius double 1
LOOKUP_TABLE default
0.0005192
0.000759374
0.000731582
0.000932767
0.000864852
0.00092132
0.000824734
0.000662097
0.000535446
0.00094621
0.000999249
0.000802661
0.000671708
0.000819153
0.000645007
0.000827505
0.000602392
0.000772815
0.000550095
0.000626194
0.000886859
0.000531918
0.000790192
0.000909137
0.00096445
SCALARS mass double 1
LOOKUP_TABLE default
0.00228657
0.0048913
0.00453983
0.00738005
0.00634449
0.00720004
0.00576955
0.0037184
0.0024319
0.00759432
0.00846957
0.00546484
0.00382714
0.00569173
0.00352892
0.00580838
0.00307803
0.005066
0.00256678
0.00332607
0.00667148
0.00239995
0.00529637
0.00701087
0.00788992
