# vtk DataFile Version 3.0
DEM2D particles
ASCII
DATASET POLYDATA
POINTS 25 double
0.000210492 7.94169e-06 0
0.00247694 -0.000391347 0
0.00456711 0.00025598 0
0.00674628 0.000137266 0
0.00933215 0.00105439 0
0.000976388 0.00320857 0
0.00272805 0.00289301 0
0.00430175 0.0024242 0
0.00620408 0.00184689 0
0.00807857 0.00229285 0
0.00194188 0.00414553 0
0.00315848 0.0038646 0
0.00447748 0.00436881 0
0.00666273 0.00544136 0
0.00823043 0.00489388 0
0.0014505 0.0060642 0
0.0023961 0.00717757 0
0.00577483 0.00620265 0
0.00705357 0.00676426 0
0.00819693 0.00646998 0
6.49651e-05 0.00811117 0
0.00285477 0.00947117 0
0.0050706 0.00840396 0
0.00716435 0.00899897 0
0.00986735 0.00854788 0
VERTICES 25 50
1 0
1 1
1 2
1 3
1 4
1 5
1 6
1 7
1 8
1 9
1 10
1 11
1 12
1 13
1 14
1 15
1 16
1 17
1 18
1 19
1 20
1 21
1 22
1 23
1 24
POINT_DATA 25
VECTORS velocity double
-6.54344e-23 -0.00970858 0
-4.33515e-23 -0.00970858 0
-3.58781e-23 -0.00970858 0
-2.10285e-23 -0.00970858 0
2.75284e-23 -0.00970858 0
-1.95699e-24 -0.00970858 0
-2.25396e-23 -0.00970858 0
-5.78711e-23 -0.00970858 0
-6.59655e-23 -0.00970858 0
-7.63684e-23 -0.00970858 0
7.80632e-23 -0.00970858 0
1.31349e-23 -0.00970858 0
-4.33063e-23 -0.00970858 0
-2.79527e-23 -0.00970858 0
-6.3782e-23 -0.00970858 0
3.73375e-23 -0.00970858 0
-5.00511e-23 -0.00970858 0
6.42182e-23 -0.00970858 0
4.43997e-24 -0.00970858 0
-6.65586e-23 -0.00970858 0
-7.74956e-23 -0.00970858 0
-1.20363e-23 -0.00970858 0
5.85158e-24 -0.00970858 0
1.36216e-23 -0.00970858 0
7.18857e-23 -0.00970858 0
SCALARS radius double 1
LOOKUP_TABLE default
0.0005192
0.000759374
0.000731582
0.000932767
0.000864852
0.00092132
0.000824734
0.000662097
0.000535446
0.00094621
0.000999249
0.000802661
0.000671708
0.000819153
0.000645007
0.000827505
0.000602392
0.000772815
0.000550095
0.000626194
0.000886859
0.000531918
0.000790192
0.000909137
0.00096445
SCALARS mass double 1
LOOKUP_TABLE default
0.00228657
0.0048913
0.00453983
0.00738005
0.00634449
0.00720004
0.00576955
0.0037184
0.0024319
0.00759432
0.00846957
0.00546484
0.00382714
0.00569173
0.00352892
0.00580838
0.00307803
0.005066
0.00256678
0.00332607
0.00667148
0.00239995
0.00529637
0.00701087
0.00788992
