# vtk DataFile Version 3.0
DEM2D particles
ASCII
DATASET POLYDATA
POINTS 25 double
0.000210492 -0.00130078 0
0.00247694 -0.00170006 0
0.00456711 -0.00105274 0
0.00674628 -0.00117145 0
0.00933215 -0.000254325 0
0.000976388 0.00189985 0
0.00272805 0.0015843 0
0.00430175 0.00111549 0
0.00620408 0.00053817 0
0.00807857 0.000984132 0
0.00194188 0.00283681 0
0.00315848 0.00255589 0
0.00447748 0.00306009 0
0.00666273 0.00413264 0
0.00823043 0.00358516 0
0.0014505 0.00475548 0
0.0023961 0.00586885 0
0.00577483 0.00489393 0
0.00705357 0.00545555 0
0.00819693 0.00516126 0
6.49651e-05 0.00680245 0
0.00285477 0.00816245 0
0.0050706 0.00709524 0
0.00716435 0.00769026 0
0.00986735 0.00723917 0
VERTICES 25 50
1 0
1 1
1 2
1 3
1 4
1 5
1 6
1 7
1 8
1 9
1 10
1 11
1 12
1 13
1 14
1 15
1 16
1 17
1 18
1 19
1 20
1 21
1 22
1 23
1 24
POINT_DATA 25
VECTORS velocity double
-9.51107e-82 -0.00970858 0
-6.30126e-82 -0.00970858 0
-5.21498e-82 -0.00970858 0
-3.05655e-82 -0.00970858 0
4.00133e-82 -0.00970858 0
-2.84454e-83 -0.00970858 0
-3.27619e-82 -0.00970858 0
-8.41172e-82 -0.00970858 0
-9.58826e-82 -0.00970858 0
-1.11003e-81 -0.00970858 0
1.13467e-81 -0.00970858 0
1.90919e-82 -0.00970858 0
-6.29469e-82 -0.00970858 0
-4.063e-82 -0.00970858 0
-9.27088e-82 -0.00970858 0
5.4271e-82 -0.00970858 0
-7.27507e-82 -0.00970858 0
9.33428e-82 -0.00970858 0
6.45361e-83 -0.00970858 0
-9.67447e-82 -0.00970858 0
-1.12642e-81 -0.00970858 0
-1.7495e-82 -0.00970858 0
8.50543e-83 -0.00970858 0
1.97994e-82 -0.00970858 0
1.04488e-81 -0.00970858 0
SCALARS radius double 1
LOOKUP_TABLE default
0.0005192
0.000759374
0.000731582
0.000932767
0.000864852
0.00092132
0.000824734
0.000662097
0.000535446
0.00094621
0.000999249
0.000802661
0.000671708
0.000819153
0.000645007
0.000827505
0.000602392
0.000772815
0.000550095
0.000626194
0.000886859
0.000531918
0.000790192
0.000909137
0.00096445
SCALARS mass double 1
LOOKUP_TABLE default
0.00228657
0.0048913
0.00453983
0.00738005
0.00634449
0.00720004
0.00576955
0.0037184
0.0024319
0.00759432
0.00846957
0.00546484
0.00382714
0.00569173
0.00352892
0.00580838
0.00307803
0.005066
0.00256678
0.00332607
0.00667148
0.00239995
0.00529637
0.00701087
0.00788992
