# vtk DataFile Version 3.0
DEM2D particles
ASCII
DATASET POLYDATA
POINTS 25 double
0.000210492 0.000363276 0
0.00247694 -3.60126e-05 0
0.00456711 0.000611314 0
0.00674628 0.0004926 0
0.00933215 0.00140973 0
0.000976388 0.0035639 0
0.00272805 0.00324835 0
0.00430175 0.00277954 0
0.00620408 0.00220222 0
0.00807857 0.00264818 0
0.00194188 0.00450086 0
0.00315848 0.00421994 0
0.00447748 0.00472414 0
0.00666273 0.00579669 0
0.00823043 0.00524921 0
0.0014505 0.00641954 0
0.0023961 0.0075329 0
0.00577483 0.00655798 0
0.00705357 0.0071196 0
0.00819693 0.00682531 0
6.49658e-05 0.0084665 0
0.00285477 0.00982651 0
0.0050706 0.00875929 0
0.00716435 0.00935431 0
0.00986735 0.00890322 0
VERTICES 25 50
1 0
1 1
1 2
1 3
1 4
1 5
1 6
1 7
1 8
1 9
1 10
1 11
1 12
1 13
1 14
1 15
1 16
1 17
1 18
1 19
1 20
1 21
1 22
1 23
1 24
POINT_DATA 25
VECTORS velocity double
-6.18008e-07 -0.00970898 0
-4.09441e-07 -0.00970929 0
-3.38858e-07 -0.00970878 0
-1.98608e-07 -0.00970887 0
2.59998e-07 -0.00970816 0
-1.84832e-08 -0.00970804 0
-2.12879e-07 -0.00970828 0
-5.46574e-07 -0.00970865 0
-6.23024e-07 -0.0097091 0
-7.21276e-07 -0.00970875 0
7.37283e-07 -0.00970887 0
1.24055e-07 -0.00970909 0
-4.09015e-07 -0.00970869 0
-2.64004e-07 -0.00970785 0
-6.02401e-07 -0.00970828 0
3.52641e-07 -0.00970893 0
-4.72717e-07 -0.00970806 0
6.06521e-07 -0.00970882 0
4.19341e-08 -0.00970838 0
-6.28625e-07 -0.00970861 0
-7.31922e-07 -0.00970889 0
-1.13679e-07 -0.00970783 0
5.52664e-08 -0.00970867 0
1.28652e-07 -0.0097082 0
6.78939e-07 -0.00970855 0
SCALARS radius double 1
LOOKUP_TABLE default
0.0005192
0.000759374
0.000731582
0.000932767
0.000864852
0.00092132
0.000824734
0.000662097
0.000535446
0.00094621
0.000999249
0.000802661
0.000671708
0.000819153
0.000645007
0.000827505
0.000602392
0.000772815
0.000550095
0.000626194
0.000886859
0.000531918
0.000790192
0.000909137
0.00096445
SCALARS mass double 1
LOOKUP_TABLE default
0.00228657
0.0048913
0.00453983
0.00738005
0.00634449
0.00720004
0.00576955
0.0037184
0.0024319
0.00759432
0.00846957
0.00546484
0.00382714
0.00569173
0.00352892
0.00580838
0.00307803
0.005066
0.00256678
0.00332607
0.00667148
0.00239995
0.00529637
0.00701087
0.00788992
