# vtk DataFile Version 3.0
DEM2D particles
ASCII
DATASET POLYDATA
POINTS 25 double
0.000210492 0.000221531 0
0.00247694 -0.000177759 0
0.00456711 0.000469568 0
0.00674628 0.000350854 0
0.00933215 0.00126798 0
0.000976388 0.00342216 0
0.00272805 0.0031066 0
0.00430175 0.00263779 0
0.00620408 0.00206048 0
0.00807857 0.00250644 0
0.00194188 0.00435912 0
0.00315848 0.00407819 0
0.00447748 0.00458239 0
0.00666273 0.00565495 0
0.00823043 0.00510747 0
0.0014505 0.00627779 0
0.0023961 0.00739116 0
0.00577483 0.00641624 0
0.00705357 0.00697785 0
0.00819693 0.00668357 0
6.49651e-05 0.00832476 0
0.00285477 0.00968476 0
0.0050706 0.00861755 0
0.00716435 0.00921256 0
0.00986735 0.00876147 0
VERTICES 25 50
1 0
1 1
1 2
1 3
1 4
1 5
1 6
1 7
1 8
1 9
1 10
1 11
1 12
1 13
1 14
1 15
1 16
1 17
1 18
1 19
1 20
1 21
1 22
1 23
1 24
POINT_DATA 25
VECTORS velocity double
-2.62046e-13 -0.00970858 0
-1.7361e-13 -0.00970858 0
-1.43682e-13 -0.00970858 0
-8.42131e-14 -0.00970858 0
1.10244e-13 -0.00970858 0
-7.8372e-15 -0.00970858 0
-9.02647e-14 -0.00970858 0
-2.31757e-13 -0.00970858 0
-2.64173e-13 -0.00970858 0
-3.05834e-13 -0.00970858 0
3.12621e-13 -0.00970858 0
5.26016e-14 -0.00970858 0
-1.7343e-13 -0.00970858 0
-1.11943e-13 -0.00970858 0
-2.55429e-13 -0.00970858 0
1.49526e-13 -0.00970858 0
-2.00441e-13 -0.00970858 0
2.57176e-13 -0.00970858 0
1.77808e-14 -0.00970858 0
-2.66548e-13 -0.00970858 0
-3.10348e-13 -0.00970858 0
-4.82019e-14 -0.00970858 0
2.34339e-14 -0.00970858 0
5.45507e-14 -0.00970858 0
2.87882e-13 -0.00970858 0
SCALARS radius double 1
LOOKUP_TABLE default
0.0005192
0.000759374
0.000731582
0.000932767
0.000864852
0.00092132
0.000824734
0.000662097
0.000535446
0.00094621
0.000999249
0.000802661
0.000671708
0.000819153
0.000645007
0.000827505
0.000602392
0.000772815
0.000550095
0.000626194
0.000886859
0.000531918
0.000790192
0.000909137
0.00096445
SCALARS mass double 1
LOOKUP_TABLE default
0.00228657
0.0048913
0.00453983
0.00738005
0.00634449
0.00720004
0.00576955
0.0037184
0.0024319
0.00759432
0.00846957
0.00546484
0.00382714
0.00569173
0.00352892
0.00580838
0.00307803
0.005066
0.00256678
0.00332607
0.00667148
0.00239995
0.00529637
0.00701087
0.00788992
