# vtk DataFile Version 3.0
DEM2D particles
ASCII
DATASET POLYDATA
POINTS 25 double
0.000224664 0.000469351 0
0.00248633 7.72297e-05 0
0.00457488 0.000712937 0
0.00675083 0.000596354 0
0.00932619 0.00149702 0
0.000976811 0.00364842 0
0.00273293 0.00333854 0
0.00431428 0.00287814 0
0.00621837 0.00231119 0
0.00809511 0.00274914 0
0.00192498 0.00460447 0
0.00315564 0.00432859 0
0.00448686 0.00482374 0
0.00666879 0.00587704 0
0.00824424 0.00533938 0
0.00144241 0.0065246 0
0.00240694 0.00761798 0
0.00576092 0.00666056 0
0.00705261 0.0072121 0
0.00821134 0.00692309 0
8.17495e-05 0.00857072 0
0.00285738 0.00990632 0
0.00506934 0.00885826 0
0.0071614 0.00944259 0
0.00985178 0.0089996 0
VERTICES 25 50
1 0
1 1
1 2
1 3
1 4
1 5
1 6
1 7
1 8
1 9
1 10
1 11
1 12
1 13
1 14
1 15
1 16
1 17
1 18
1 19
1 20
1 21
1 22
1 23
1 24
POINT_DATA 25
VECTORS velocity double
-0.0143153 -0.0187891 0
-0.00948412 -0.026029 0
-0.00784915 -0.0142917 0
-0.00460046 -0.0164442 0
0.00602247 0.000185004 0
-0.000428136 0.00298048 0
-0.00493105 -0.00274108 0
-0.0126606 -0.0112415 0
-0.0144314 -0.0217093 0
-0.0167073 -0.0136232 0
0.0170781 -0.0162944 0
0.00287356 -0.0213881 0
-0.00947425 -0.012246 0
-0.00611528 0.00720142 0
-0.0139538 -0.00272542 0
0.00816842 -0.017769 0
-0.0109498 0.00241847 0
0.0140492 -0.0152587 0
0.000971343 -0.00507558 0
-0.0145612 -0.0104115 0
-0.0169539 -0.0169174 0
-0.00263321 0.007742 0
0.00128017 -0.0116085 0
0.00298003 -0.000819838 0
0.0157266 -0.00899896 0
SCALARS radius double 1
LOOKUP_TABLE default
0.0005192
0.000759374
0.000731582
0.000932767
0.000864852
0.00092132
0.000824734
0.000662097
0.000535446
0.00094621
0.000999249
0.000802661
0.000671708
0.000819153
0.000645007
0.000827505
0.000602392
0.000772815
0.000550095
0.000626194
0.000886859
0.000531918
0.000790192
0.000909137
0.00096445
SCALARS mass double 1
LOOKUP_TABLE default
0.00228657
0.0048913
0.00453983
0.00738005
0.00634449
0.00720004
0.00576955
0.0037184
0.0024319
0.00759432
0.00846957
0.00546484
0.00382714
0.00569173
0.00352892
0.00580838
0.00307803
0.005066
0.00256678
0.00332607
0.00667148
0.00239995
0.00529637
0.00701087
0.00788992
