# vtk DataFile Version 3.0
DEM2D particles
ASCII
DATASET POLYDATA
POINTS 25 double
0.000210492 -1.53589e-05 0
0.00247694 -0.000414648 0
0.00456711 0.000232679 0
0.00674628 0.000113965 0
0.00933215 0.00103109 0
0.000976388 0.00318527 0
0.00272805 0.00286971 0
0.00430175 0.0024009 0
0.00620408 0.00182359 0
0.00807857 0.00226955 0
0.00194188 0.00412223 0
0.00315848 0.0038413 0
0.00447748 0.00434551 0
0.00666273 0.00541806 0
0.00823043 0.00487058 0
0.0014505 0.0060409 0
0.0023961 0.00715427 0
0.00577483 0.00617935 0
0.00705357 0.00674096 0
0.00819693 0.00644668 0
6.49651e-05 0.00808787 0
0.00285477 0.00944787 0
0.0050706 0.00838066 0
0.00716435 0.00897567 0
0.00986735 0.00852458 0
VERTICES 25 50
1 0
1 1
1 2
1 3
1 4
1 5
1 6
1 7
1 8
1 9
1 10
1 11
1 12
1 13
1 14
1 15
1 16
1 17
1 18
1 19
1 20
1 21
1 22
1 23
1 24
POINT_DATA 25
VECTORS velocity double
-5.8648e-24 -0.00970858 0
-3.88553e-24 -0.00970858 0
-3.21571e-24 -0.00970858 0
-1.88475e-24 -0.00970858 0
2.46734e-24 -0.00970858 0
-1.75402e-25 -0.00970858 0
-2.02019e-24 -0.00970858 0
-5.1869e-24 -0.00970858 0
-5.91239e-24 -0.00970858 0
-6.84479e-24 -0.00970858 0
6.99669e-24 -0.00970858 0
1.17726e-24 -0.00970858 0
-3.88149e-24 -0.00970858 0
-2.50536e-24 -0.00970858 0
-5.71669e-24 -0.00970858 0
3.3465e-24 -0.00970858 0
-4.48601e-24 -0.00970858 0
5.75578e-24 -0.00970858 0
3.97948e-25 -0.00970858 0
-5.96556e-24 -0.00970858 0
-6.94583e-24 -0.00970858 0
-1.07879e-24 -0.00970858 0
5.24469e-25 -0.00970858 0
1.22089e-24 -0.00970858 0
6.44302e-24 -0.00970858 0
SCALARS radius double 1
LOOKUP_TABLE default
0.0005192
0.000759374
0.000731582
0.000932767
0.000864852
0.00092132
0.000824734
0.000662097
0.000535446
0.00094621
0.000999249
0.000802661
0.000671708
0.000819153
0.000645007
0.000827505
0.000602392
0.000772815
0.000550095
0.000626194
0.000886859
0.000531918
0.000790192
0.000909137
0.00096445
SCALARS mass double 1
LOOKUP_TABLE default
0.00228657
0.0048913
0.00453983
0.00738005
0.00634449
0.00720004
0.00576955
0.0037184
0.0024319
0.00759432
0.00846957
0.00546484
0.00382714
0.00569173
0.00352892
0.00580838
0.00307803
0.005066
0.00256678
0.00332607
0.00667148
0.00239995
0.00529637
0.00701087
0.00788992
