# vtk DataFile Version 3.0
DEM2D particles
ASCII
DATASET POLYDATA
POINTS 25 double
0.000211762 0.000437867 0
0.00247778 3.922e-05 0
0.0045678 0.000685506 0
0.00674669 0.000566983 0
0.00933161 0.00148263 0
0.000976426 0.00363656 0
0.00272848 0.00332152 0
0.00430287 0.00285346 0
0.00620536 0.00227707 0
0.00808005 0.00272232 0
0.00194037 0.00457523 0
0.00315823 0.00429476 0
0.00447832 0.00479815 0
0.00666328 0.00586898 0
0.00823167 0.00532238 0
0.00144978 0.00649404 0
0.00239707 0.00760561 0
0.00577359 0.00663226 0
0.00705348 0.00719297 0
0.00819822 0.00689916 0
6.64694e-05 0.00854093 0
0.00285501 0.00989874 0
0.00507049 0.00883325 0
0.00716409 0.0094273 0
0.00986595 0.00897694 0
VERTICES 25 50
1 0
1 1
1 2
1 3
1 4
1 5
1 6
1 7
1 8
1 9
1 10
1 11
1 12
1 13
1 14
1 15
1 16
1 17
1 18
1 19
1 20
1 21
1 22
1 23
1 24
POINT_DATA 25
VECTORS velocity double
-0.00128306 -0.0105225 0
-0.000850049 -0.0111714 0
-0.000703509 -0.0101194 0
-0.000412333 -0.0103123 0
0.000539786 -0.00882183 0
-3.83733e-05 -0.00857128 0
-0.000441963 -0.0090841 0
-0.00113475 -0.00984598 0
-0.00129347 -0.0107842 0
-0.00149745 -0.0100594 0
0.00153069 -0.0102989 0
0.000257553 -0.0107554 0
-0.000849164 -0.009936 0
-0.000548104 -0.00819296 0
-0.00125066 -0.00908269 0
0.000732124 -0.010431 0
-0.000981417 -0.00862165 0
0.00125921 -0.010206 0
8.70602e-05 -0.00929333 0
-0.0013051 -0.00977159 0
-0.00151956 -0.0103547 0
-0.000236011 -0.00814451 0
0.00011474 -0.00987887 0
0.000267096 -0.0089119 0
0.00140956 -0.00964498 0
SCALARS radius double 1
LOOKUP_TABLE default
0.0005192
0.000759374
0.000731582
0.000932767
0.000864852
0.00092132
0.000824734
0.000662097
0.000535446
0.00094621
0.000999249
0.000802661
0.000671708
0.000819153
0.000645007
0.000827505
0.000602392
0.000772815
0.000550095
0.000626194
0.000886859
0.000531918
0.000790192
0.000909137
0.00096445
SCALARS mass double 1
LOOKUP_TABLE default
0.00228657
0.0048913
0.00453983
0.00738005
0.00634449
0.00720004
0.00576955
0.0037184
0.0024319
0.00759432
0.00846957
0.00546484
0.00382714
0.00569173
0.00352892
0.00580838
0.00307803
0.005066
0.00256678
0.00332607
0.00667148
0.00239995
0.00529637
0.00701087
0.00788992
