# vtk DataFile Version 3.0
DEM2D particles
ASCII
DATASET POLYDATA
POINTS 25 double
0.000210492 -0.0011066 0
0.00247694 -0.00150589 0
0.00456711 -0.000858566 0
0.00674628 -0.00097728 0
0.00933215 -6.01535e-05 0
0.000976388 0.00209402 0
0.00272805 0.00177847 0
0.00430175 0.00130966 0
0.00620408 0.000732342 0
0.00807857 0.0011783 0
0.00194188 0.00303098 0
0.00315848 0.00275006 0
0.00447748 0.00325426 0
0.00666273 0.00432681 0
0.00823043 0.00377933 0
0.0014505 0.00494966 0
0.0023961 0.00606303 0
0.00577483 0.0050881 0
0.00705357 0.00564972 0
0.00819693 0.00535543 0
6.49651e-05 0.00699662 0
0.00285477 0.00835663 0
0.0050706 0.00728941 0
0.00716435 0.00788443 0
0.00986735 0.00743334 0
VERTICES 25 50
1 0
1 1
1 2
1 3
1 4
1 5
1 6
1 7
1 8
1 9
1 10
1 11
1 12
1 13
1 14
1 15
1 16
1 17
1 18
1 19
1 20
1 21
1 22
1 23
1 24
POINT_DATA 25
VECTORS velocity double
-5.10317e-73 -0.00970858 0
-3.38094e-73 -0.00970858 0
-2.7981e-73 -0.00970858 0
-1.63999e-73 -0.00970858 0
2.14692e-73 -0.00970858 0
-1.52624e-74 -0.00970858 0
-1.75784e-73 -0.00970858 0
-4.51331e-73 -0.00970858 0
-5.14459e-73 -0.00970858 0
-5.9559e-73 -0.00970858 0
6.08808e-73 -0.00970858 0
1.02438e-73 -0.00970858 0
-3.37742e-73 -0.00970858 0
-2.18e-73 -0.00970858 0
-4.9743e-73 -0.00970858 0
2.91192e-73 -0.00970858 0
-3.90344e-73 -0.00970858 0
5.00832e-73 -0.00970858 0
3.46269e-74 -0.00970858 0
-5.19085e-73 -0.00970858 0
-6.04382e-73 -0.00970858 0
-9.38698e-74 -0.00970858 0
4.5636e-74 -0.00970858 0
1.06234e-73 -0.00970858 0
5.60631e-73 -0.00970858 0
SCALARS radius double 1
LOOKUP_TABLE default
0.0005192
0.000759374
0.000731582
0.000932767
0.000864852
0.00092132
0.000824734
0.000662097
0.000535446
0.00094621
0.000999249
0.000802661
0.000671708
0.000819153
0.000645007
0.000827505
0.000602392
0.000772815
0.000550095
0.000626194
0.000886859
0.000531918
0.000790192
0.000909137
0.00096445
SCALARS mass double 1
LOOKUP_TABLE default
0.00228657
0.0048913
0.00453983
0.00738005
0.00634449
0.00720004
0.00576955
0.0037184
0.0024319
0.00759432
0.00846957
0.00546484
0.00382714
0.00569173
0.00352892
0.00580838
0.00307803
0.005066
0.00256678
0.00332607
0.00667148
0.00239995
0.00529637
0.00701087
0.00788992
