# vtk DataFile Version 3.0
DEM2D particles
ASCII
DATASET POLYDATA
POINTS 25 double
0.000210492 -0.00111437 0
0.00247694 -0.00151366 0
0.00456711 -0.000866333 0
0.00674628 -0.000985047 0
0.00933215 -6.79203e-05 0
0.000976388 0.00208625 0
0.00272805 0.0017707 0
0.00430175 0.00130189 0
0.00620408 0.000724575 0
0.00807857 0.00117054 0
0.00194188 0.00302322 0
0.00315848 0.00274229 0
0.00447748 0.00324649 0
0.00666273 0.00431905 0
0.00823043 0.00377157 0
0.0014505 0.00494189 0
0.0023961 0.00605526 0
0.00577483 0.00508034 0
0.00705357 0.00564195 0
0.00819693 0.00534766 0
6.49651e-05 0.00698885 0
0.00285477 0.00834886 0
0.0050706 0.00728165 0
0.00716435 0.00787666 0
0.00986735 0.00742557 0
VERTICES 25 50
1 0
1 1
1 2
1 3
1 4
1 5
1 6
1 7
1 8
1 9
1 10
1 11
1 12
1 13
1 14
1 15
1 16
1 17
1 18
1 19
1 20
1 21
1 22
1 23
1 24
POINT_DATA 25
VECTORS velocity double
-2.28379e-73 -0.00970858 0
-1.51305e-73 -0.00970858 0
-1.25222e-73 -0.00970858 0
-7.33935e-74 -0.00970858 0
9.60796e-74 -0.00970858 0
-6.83028e-75 -0.00970858 0
-7.86675e-74 -0.00970858 0
-2.01981e-73 -0.00970858 0
-2.30232e-73 -0.00970858 0
-2.6654e-73 -0.00970858 0
2.72456e-73 -0.00970858 0
4.58434e-74 -0.00970858 0
-1.51148e-73 -0.00970858 0
-9.75602e-74 -0.00970858 0
-2.22611e-73 -0.00970858 0
1.30315e-73 -0.00970858 0
-1.74688e-73 -0.00970858 0
2.24134e-73 -0.00970858 0
1.54963e-74 -0.00970858 0
-2.32302e-73 -0.00970858 0
-2.70475e-73 -0.00970858 0
-4.20089e-74 -0.00970858 0
2.04232e-74 -0.00970858 0
4.7542e-74 -0.00970858 0
2.50895e-73 -0.00970858 0
SCALARS radius double 1
LOOKUP_TABLE default
0.0005192
0.000759374
0.000731582
0.000932767
0.000864852
0.00092132
0.000824734
0.000662097
0.000535446
0.00094621
0.000999249
0.000802661
0.000671708
0.000819153
0.000645007
0.000827505
0.000602392
0.000772815
0.000550095
0.000626194
0.000886859
0.000531918
0.000790192
0.000909137
0.00096445
SCALARS mass double 1
LOOKUP_TABLE default
0.00228657
0.0048913
0.00453983
0.00738005
0.00634449
0.00720004
0.00576955
0.0037184
0.0024319
0.00759432
0.00846957
0.00546484
0.00382714
0.00569173
0.00352892
0.00580838
0.00307803
0.005066
0.00256678
0.00332607
0.00667148
0.00239995
0.00529637
0.00701087
0.00788992
