# vtk DataFile Version 3.0
DEM2D particles
ASCII
DATASET POLYDATA
POINTS 25 double
0.000210492 -3.70861e-06 0
0.00247694 -0.000402998 0
0.00456711 0.000244329 0
0.00674628 0.000125615 0
0.00933215 0.00104274 0
0.000976388 0.00319692 0
0.00272805 0.00288136 0
0.00430175 0.00241255 0
0.00620408 0.00183524 0
0.00807857 0.0022812 0
0.00194188 0.00413388 0
0.00315848 0.00385295 0
0.00447748 0.00435716 0
0.00666273 0.00542971 0
0.00823043 0.00488223 0
0.0014505 0.00605255 0
0.0023961 0.00716592 0
0.00577483 0.006191 0
0.00705357 0.00675261 0
0.00819693 0.00645833 0
6.49651e-05 0.00809952 0
0.00285477 0.00945952 0
0.0050706 0.00839231 0
0.00716435 0.00898732 0
0.00986735 0.00853623 0
VERTICES 25 50
1 0
1 1
1 2
1 3
1 4
1 5
1 6
1 7
1 8
1 9
1 10
1 11
1 12
1 13
1 14
1 15
1 16
1 17
1 18
1 19
1 20
1 21
1 22
1 23
1 24
POINT_DATA 25
VECTORS velocity double
-1.95898e-23 -0.00970858 0
-1.29786e-23 -0.00970858 0
-1.07412e-23 -0.00970858 0
-6.29552e-24 -0.00970858 0
8.24147e-24 -0.00970858 0
-5.85885e-25 -0.00970858 0
-6.74791e-24 -0.00970858 0
-1.73255e-23 -0.00970858 0
-1.97488e-23 -0.00970858 0
-2.28632e-23 -0.00970858 0
2.33706e-23 -0.00970858 0
3.93233e-24 -0.00970858 0
-1.29651e-23 -0.00970858 0
-8.36848e-24 -0.00970858 0
-1.90951e-23 -0.00970858 0
1.11781e-23 -0.00970858 0
-1.49843e-23 -0.00970858 0
1.92257e-23 -0.00970858 0
1.32924e-24 -0.00970858 0
-1.99263e-23 -0.00970858 0
-2.32007e-23 -0.00970858 0
-3.60342e-24 -0.00970858 0
1.75185e-24 -0.00970858 0
4.07804e-24 -0.00970858 0
2.15212e-23 -0.00970858 0
SCALARS radius double 1
LOOKUP_TABLE default
0.0005192
0.000759374
0.000731582
0.000932767
0.000864852
0.00092132
0.000824734
0.000662097
0.000535446
0.00094621
0.000999249
0.000802661
0.000671708
0.000819153
0.000645007
0.000827505
0.000602392
0.000772815
0.000550095
0.000626194
0.000886859
0.000531918
0.000790192
0.000909137
0.00096445
SCALARS mass double 1
LOOKUP_TABLE default
0.00228657
0.0048913
0.00453983
0.00738005
0.00634449
0.00720004
0.00576955
0.0037184
0.0024319
0.00759432
0.00846957
0.00546484
0.00382714
0.00569173
0.00352892
0.00580838
0.00307803
0.005066
0.00256678
0.00332607
0.00667148
0.00239995
0.00529637
0.00701087
0.00788992
