# vtk DataFile Version 3.0
DEM2D particles
ASCII
DATASET POLYDATA
POINTS 25 double
0.000210492 -0.000172638 0
0.00247694 -0.000571927 0
0.00456711 7.54e-05 0
0.00674628 -4.33142e-05 0
0.00933215 0.000873812 0
0.000976388 0.00302799 0
0.00272805 0.00271243 0
0.00430175 0.00224362 0
0.00620408 0.00166631 0
0.00807857 0.00211227 0
0.00194188 0.00396495 0
0.00315848 0.00368402 0
0.00447748 0.00418823 0
0.00666273 0.00526078 0
0.00823043 0.0047133 0
0.0014505 0.00588362 0
0.0023961 0.00699699 0
0.00577483 0.00602207 0
0.00705357 0.00658368 0
0.00819693 0.0062894 0
6.49651e-05 0.00793059 0
0.00285477 0.00929059 0
0.0050706 0.00822338 0
0.00716435 0.00881839 0
0.00986735 0.0083673 0
VERTICES 25 50
1 0
1 1
1 2
1 3
1 4
1 5
1 6
1 7
1 8
1 9
1 10
1 11
1 12
1 13
1 14
1 15
1 16
1 17
1 18
1 19
1 20
1 21
1 22
1 23
1 24
POINT_DATA 25
VECTORS velocity double
-4.98045e-31 -0.00970858 0
-3.29964e-31 -0.00970858 0
-2.73081e-31 -0.00970858 0
-1.60055e-31 -0.00970858 0
2.09529e-31 -0.00970858 0
-1.48954e-32 -0.00970858 0
-1.71557e-31 -0.00970858 0
-4.40477e-31 -0.00970858 0
-5.02087e-31 -0.00970858 0
-5.81267e-31 -0.00970858 0
5.94166e-31 -0.00970858 0
9.99744e-32 -0.00970858 0
-3.2962e-31 -0.00970858 0
-2.12758e-31 -0.00970858 0
-4.85467e-31 -0.00970858 0
2.84189e-31 -0.00970858 0
-3.80957e-31 -0.00970858 0
4.88787e-31 -0.00970858 0
3.37942e-32 -0.00970858 0
-5.06601e-31 -0.00970858 0
-5.89847e-31 -0.00970858 0
-9.16123e-32 -0.00970858 0
4.45385e-32 -0.00970858 0
1.03679e-31 -0.00970858 0
5.47148e-31 -0.00970858 0
SCALARS radius double 1
LOOKUP_TABLE default
0.0005192
0.000759374
0.000731582
0.000932767
0.000864852
0.00092132
0.000824734
0.000662097
0.000535446
0.00094621
0.000999249
0.000802661
0.000671708
0.000819153
0.000645007
0.000827505
0.000602392
0.000772815
0.000550095
0.000626194
0.000886859
0.000531918
0.000790192
0.000909137
0.00096445
SCALARS mass double 1
LOOKUP_TABLE default
0.00228657
0.0048913
0.00453983
0.00738005
0.00634449
0.00720004
0.00576955
0.0037184
0.0024319
0.00759432
0.00846957
0.00546484
0.00382714
0.00569173
0.00352892
0.00580838
0.00307803
0.005066
0.00256678
0.00332607
0.00667148
0.00239995
0.00529637
0.00701087
0.00788992
