# vtk DataFile Version 3.0
DEM2D particles
ASCII
DATASET POLYDATA
POINTS 25 double
0.000210492 -0.00114155 0
0.00247694 -0.00154084 0
0.00456711 -0.000893517 0
0.00674628 -0.00101223 0
0.00933215 -9.51044e-05 0
0.000976388 0.00205907 0
0.00272805 0.00174352 0
0.00430175 0.00127471 0
0.00620408 0.000697391 0
0.00807857 0.00114335 0
0.00194188 0.00299603 0
0.00315848 0.00271511 0
0.00447748 0.00321931 0
0.00666273 0.00429186 0
0.00823043 0.00374438 0
0.0014505 0.00491471 0
0.0023961 0.00602807 0
0.00577483 0.00505315 0
0.00705357 0.00561477 0
0.00819693 0.00532048 0
6.49651e-05 0.00696167 0
0.00285477 0.00832168 0
0.0050706 0.00725446 0
0.00716435 0.00784948 0
0.00986735 0.00739839 0
VERTICES 25 50
1 0
1 1
1 2
1 3
1 4
1 5
1 6
1 7
1 8
1 9
1 10
1 11
1 12
1 13
1 14
1 15
1 16
1 17
1 18
1 19
1 20
1 21
1 22
1 23
1 24
POINT_DATA 25
VECTORS velocity double
-1.36934e-74 -0.00970858 0
-9.0721e-75 -0.00970858 0
-7.50816e-75 -0.00970858 0
-4.4006e-75 -0.00970858 0
5.76084e-75 -0.00970858 0
-4.09537e-76 -0.00970858 0
-4.71683e-75 -0.00970858 0
-1.21106e-74 -0.00970858 0
-1.38045e-74 -0.00970858 0
-1.59815e-74 -0.00970858 0
1.63362e-74 -0.00970858 0
2.74872e-75 -0.00970858 0
-9.06266e-75 -0.00970858 0
-5.84962e-75 -0.00970858 0
-1.33476e-74 -0.00970858 0
7.81356e-75 -0.00970858 0
-1.04741e-74 -0.00970858 0
1.34388e-74 -0.00970858 0
9.29145e-76 -0.00970858 0
-1.39286e-74 -0.00970858 0
-1.62174e-74 -0.00970858 0
-2.51881e-75 -0.00970858 0
1.22455e-75 -0.00970858 0
2.85057e-75 -0.00970858 0
1.50434e-74 -0.00970858 0
SCALARS radius double 1
LOOKUP_TABLE default
0.0005192
0.000759374
0.000731582
0.000932767
0.000864852
0.00092132
0.000824734
0.000662097
0.000535446
0.00094621
0.000999249
0.000802661
0.000671708
0.000819153
0.000645007
0.000827505
0.000602392
0.000772815
0.000550095
0.000626194
0.000886859
0.000531918
0.000790192
0.000909137
0.00096445
SCALARS mass double 1
LOOKUP_TABLE default
0.00228657
0.0048913
0.00453983
0.00738005
0.00634449
0.00720004
0.00576955
0.0037184
0.0024319
0.00759432
0.00846957
0.00546484
0.00382714
0.00569173
0.00352892
0.00580838
0.00307803
0.005066
0.00256678
0.00332607
0.00667148
0.00239995
0.00529637
0.00701087
0.00788992
