# vtk DataFile Version 3.0
DEM2D particles
ASCII
DATASET POLYDATA
POINTS 25 double
0.000210492 0.000223472 0
0.00247694 -0.000175817 0
0.00456711 0.00047151 0
0.00674628 0.000352796 0
0.00933215 0.00126992 0
0.000976388 0.0034241 0
0.00272805 0.00310854 0
0.00430175 0.00263973 0
0.00620408 0.00206242 0
0.00807857 0.00250838 0
0.00194188 0.00436106 0
0.00315848 0.00408013 0
0.00447748 0.00458434 0
0.00666273 0.00565689 0
0.00823043 0.00510941 0
0.0014505 0.00627973 0
0.0023961 0.0073931 0
0.00577483 0.00641818 0
0.00705357 0.00697979 0
0.00819693 0.00668551 0
6.49651e-05 0.0083267 0
0.00285477 0.0096867 0
0.0050706 0.00861949 0
0.00716435 0.0092145 0
0.00986735 0.00876341 0
VERTICES 25 50
1 0
1 1
1 2
1 3
1 4
1 5
1 6
1 7
1 8
1 9
1 10
1 11
1 12
1 13
1 14
1 15
1 16
1 17
1 18
1 19
1 20
1 21
1 22
1 23
1 24
POINT_DATA 25
VECTORS velocity double
-3.20387e-13 -0.00970858 0
-2.12262e-13 -0.00970858 0
-1.7567e-13 -0.00970858 0
-1.02962e-13 -0.00970858 0
1.34787e-13 -0.00970858 0
-9.58202e-15 -0.00970858 0
-1.10361e-13 -0.00970858 0
-2.83354e-13 -0.00970858 0
-3.22987e-13 -0.00970858 0
-3.73922e-13 -0.00970858 0
3.82221e-13 -0.00970858 0
6.43124e-14 -0.00970858 0
-2.12041e-13 -0.00970858 0
-1.36865e-13 -0.00970858 0
-3.12296e-13 -0.00970858 0
1.82815e-13 -0.00970858 0
-2.45065e-13 -0.00970858 0
3.14431e-13 -0.00970858 0
2.17394e-14 -0.00970858 0
-3.25891e-13 -0.00970858 0
-3.79442e-13 -0.00970858 0
-5.89332e-14 -0.00970858 0
2.86511e-14 -0.00970858 0
6.66954e-14 -0.00970858 0
3.51974e-13 -0.00970858 0
SCALARS radius double 1
LOOKUP_TABLE default
0.0005192
0.000759374
0.000731582
0.000932767
0.000864852
0.00092132
0.000824734
0.000662097
0.000535446
0.00094621
0.000999249
0.000802661
0.000671708
0.000819153
0.000645007
0.000827505
0.000602392
0.000772815
0.000550095
0.000626194
0.000886859
0.000531918
0.000790192
0.000909137
0.00096445
SCALARS mass double 1
LOOKUP_TABLE default
0.00228657
0.0048913
0.00453983
0.00738005
0.00634449
0.00720004
0.00576955
0.0037184
0.0024319
0.00759432
0.00846957
0.00546484
0.00382714
0.00569173
0.00352892
0.00580838
0.00307803
0.005066
0.00256678
0.00332607
0.00667148
0.00239995
0.00529637
0.00701087
0.00788992
