# vtk DataFile Version 3.0
DEM2D particles
ASCII
DATASET POLYDATA
POINTS 25 double
0.000210492 0.000217647 0
0.00247694 -0.000181642 0
0.00456711 0.000465685 0
0.00674628 0.000346971 0
0.00933215 0.0012641 0
0.000976388 0.00341827 0
0.00272805 0.00310272 0
0.00430175 0.00263391 0
0.00620408 0.00205659 0
0.00807857 0.00250255 0
0.00194188 0.00435523 0
0.00315848 0.00407431 0
0.00447748 0.00457851 0
0.00666273 0.00565106 0
0.00823043 0.00510358 0
0.0014505 0.00627391 0
0.0023961 0.00738728 0
0.00577483 0.00641236 0
0.00705357 0.00697397 0
0.00819693 0.00667968 0
6.49651e-05 0.00832087 0
0.00285477 0.00968088 0
0.0050706 0.00861367 0
0.00716435 0.00920868 0
0.00986735 0.00875759 0
VERTICES 25 50
1 0
1 1
1 2
1 3
1 4
1 5
1 6
1 7
1 8
1 9
1 10
1 11
1 12
1 13
1 14
1 15
1 16
1 17
1 18
1 19
1 20
1 21
1 22
1 23
1 24
POINT_DATA 25
VECTORS velocity double
-1.75302e-13 -0.00970858 0
-1.1614e-13 -0.00970858 0
-9.6119e-14 -0.00970858 0
-5.63362e-14 -0.00970858 0
7.37499e-14 -0.00970858 0
-5.24286e-15 -0.00970858 0
-6.03845e-14 -0.00970858 0
-1.55039e-13 -0.00970858 0
-1.76724e-13 -0.00970858 0
-2.04594e-13 -0.00970858 0
2.09135e-13 -0.00970858 0
3.5189e-14 -0.00970858 0
-1.1602e-13 -0.00970858 0
-7.48864e-14 -0.00970858 0
-1.70875e-13 -0.00970858 0
1.00029e-13 -0.00970858 0
-1.34089e-13 -0.00970858 0
1.72043e-13 -0.00970858 0
1.18949e-14 -0.00970858 0
-1.78313e-13 -0.00970858 0
-2.07614e-13 -0.00970858 0
-3.22457e-14 -0.00970858 0
1.56766e-14 -0.00970858 0
3.64929e-14 -0.00970858 0
1.92585e-13 -0.00970858 0
SCALARS radius double 1
LOOKUP_TABLE default
0.0005192
0.000759374
0.000731582
0.000932767
0.000864852
0.00092132
0.000824734
0.000662097
0.000535446
0.00094621
0.000999249
0.000802661
0.000671708
0.000819153
0.000645007
0.000827505
0.000602392
0.000772815
0.000550095
0.000626194
0.000886859
0.000531918
0.000790192
0.000909137
0.00096445
SCALARS mass double 1
LOOKUP_TABLE default
0.00228657
0.0048913
0.00453983
0.00738005
0.00634449
0.00720004
0.00576955
0.0037184
0.0024319
0.00759432
0.00846957
0.00546484
0.00382714
0.00569173
0.00352892
0.00580838
0.00307803
0.005066
0.00256678
0.00332607
0.00667148
0.00239995
0.00529637
0.00701087
0.00788992
