# vtk DataFile Version 3.0
DEM2D particles
ASCII
DATASET POLYDATA
POINTS 25 double
0.000210492 -7.94356e-05 0
0.00247694 -0.000478725 0
0.00456711 0.000168602 0
0.00674628 4.98883e-05 0
0.00933215 0.000967015 0
0.000976388 0.00312119 0
0.00272805 0.00280564 0
0.00430175 0.00233683 0
0.00620408 0.00175951 0
0.00807857 0.00220547 0
0.00194188 0.00405815 0
0.00315848 0.00377723 0
0.00447748 0.00428143 0
0.00666273 0.00535398 0
0.00823043 0.0048065 0
0.0014505 0.00597682 0
0.0023961 0.00709019 0
0.00577483 0.00611527 0
0.00705357 0.00667689 0
0.00819693 0.0063826 0
6.49651e-05 0.00802379 0
0.00285477 0.00938379 0
0.0050706 0.00831658 0
0.00716435 0.0089116 0
0.00986735 0.00846051 0
VERTICES 25 50
1 0
1 1
1 2
1 3
1 4
1 5
1 6
1 7
1 8
1 9
1 10
1 11
1 12
1 13
1 14
1 15
1 16
1 17
1 18
1 19
1 20
1 21
1 22
1 23
1 24
POINT_DATA 25
VECTORS velocity double
-7.71758e-27 -0.00970858 0
-5.11304e-27 -0.00970858 0
-4.2316e-27 -0.00970858 0
-2.48018e-27 -0.00970858 0
3.24681e-27 -0.00970858 0
-2.30815e-28 -0.00970858 0
-2.65841e-27 -0.00970858 0
-6.82553e-27 -0.00970858 0
-7.78022e-27 -0.00970858 0
-9.00717e-27 -0.00970858 0
9.20707e-27 -0.00970858 0
1.54918e-27 -0.00970858 0
-5.10771e-27 -0.00970858 0
-3.29684e-27 -0.00970858 0
-7.52269e-27 -0.00970858 0
4.40372e-27 -0.00970858 0
-5.90322e-27 -0.00970858 0
7.57413e-27 -0.00970858 0
5.23666e-28 -0.00970858 0
-7.85017e-27 -0.00970858 0
-9.14013e-27 -0.00970858 0
-1.4196e-27 -0.00970858 0
6.90158e-28 -0.00970858 0
1.60658e-27 -0.00970858 0
8.47848e-27 -0.00970858 0
SCALARS radius double 1
LOOKUP_TABLE default
0.0005192
0.000759374
0.000731582
0.000932767
0.000864852
0.00092132
0.000824734
0.000662097
0.000535446
0.00094621
0.000999249
0.000802661
0.000671708
0.000819153
0.000645007
0.000827505
0.000602392
0.000772815
0.000550095
0.000626194
0.000886859
0.000531918
0.000790192
0.000909137
0.00096445
SCALARS mass double 1
LOOKUP_TABLE default
0.00228657
0.0048913
0.00453983
0.00738005
0.00634449
0.00720004
0.00576955
0.0037184
0.0024319
0.00759432
0.00846957
0.00546484
0.00382714
0.00569173
0.00352892
0.00580838
0.00307803
0.005066
0.00256678
0.00332607
0.00667148
0.00239995
0.00529637
0.00701087
0.00788992
