# vtk DataFile Version 3.0
DEM2D particles
ASCII
DATASET POLYDATA
POINTS 25 double
0.000210492 -3.86595e-05 0
0.00247694 -0.000437949 0
0.00456711 0.000209378 0
0.00674628 9.06643e-05 0
0.00933215 0.00100779 0
0.000976388 0.00316197 0
0.00272805 0.00284641 0
0.00430175 0.0023776 0
0.00620408 0.00180029 0
0.00807857 0.00224625 0
0.00194188 0.00409893 0
0.00315848 0.003818 0
0.00447748 0.0043222 0
0.00666273 0.00539476 0
0.00823043 0.00484728 0
0.0014505 0.0060176 0
0.0023961 0.00713097 0
0.00577483 0.00615605 0
0.00705357 0.00671766 0
0.00819693 0.00642338 0
6.49651e-05 0.00806457 0
0.00285477 0.00942457 0
0.0050706 0.00835736 0
0.00716435 0.00895237 0
0.00986735 0.00850128 0
VERTICES 25 50
1 0
1 1
1 2
1 3
1 4
1 5
1 6
1 7
1 8
1 9
1 10
1 11
1 12
1 13
1 14
1 15
1 16
1 17
1 18
1 19
1 20
1 21
1 22
1 23
1 24
POINT_DATA 25
VECTORS velocity double
-5.25654e-25 -0.00970858 0
-3.48255e-25 -0.00970858 0
-2.88219e-25 -0.00970858 0
-1.68928e-25 -0.00970858 0
2.21144e-25 -0.00970858 0
-1.57211e-26 -0.00970858 0
-1.81067e-25 -0.00970858 0
-4.64895e-25 -0.00970858 0
-5.2992e-25 -0.00970858 0
-6.13489e-25 -0.00970858 0
6.27104e-25 -0.00970858 0
1.05516e-25 -0.00970858 0
-3.47892e-25 -0.00970858 0
-2.24552e-25 -0.00970858 0
-5.12379e-25 -0.00970858 0
2.99943e-25 -0.00970858 0
-4.02075e-25 -0.00970858 0
5.15883e-25 -0.00970858 0
3.56675e-26 -0.00970858 0
-5.34685e-25 -0.00970858 0
-6.22545e-25 -0.00970858 0
-9.66909e-26 -0.00970858 0
4.70075e-26 -0.00970858 0
1.09426e-25 -0.00970858 0
5.77479e-25 -0.00970858 0
SCALARS radius double 1
LOOKUP_TABLE default
0.0005192
0.000759374
0.000731582
0.000932767
0.000864852
0.00092132
0.000824734
0.000662097
0.000535446
0.00094621
0.000999249
0.000802661
0.000671708
0.000819153
0.000645007
0.000827505
0.000602392
0.000772815
0.000550095
0.000626194
0.000886859
0.000531918
0.000790192
0.000909137
0.00096445
SCALARS mass double 1
LOOKUP_TABLE default
0.00228657
0.0048913
0.00453983
0.00738005
0.00634449
0.00720004
0.00576955
0.0037184
0.0024319
0.00759432
0.00846957
0.00546484
0.00382714
0.00569173
0.00352892
0.00580838
0.00307803
0.005066
0.00256678
0.00332607
0.00667148
0.00239995
0.00529637
0.00701087
0.00788992
