# vtk DataFile Version 3.0
DEM2D particles
ASCII
DATASET POLYDATA
POINTS 25 double
0.000210507 0.000394353 0
0.00247695 -4.92848e-06 0
0.00456712 0.000642386 0
0.00674628 0.000523674 0
0.00933214 0.00144078 0
0.000976388 0.00359495 0
0.00272805 0.00327941 0
0.00430176 0.00281061 0
0.0062041 0.0022333 0
0.00807858 0.00267925 0
0.00194186 0.00453194 0
0.00315848 0.00425102 0
0.00447749 0.00475521 0
0.00666274 0.00582774 0
0.00823044 0.00528027 0
0.00145049 0.00645061 0
0.00239611 0.00756396 0
0.00577482 0.00658906 0
0.00705357 0.00715066 0
0.00819694 0.00685638 0
6.49831e-05 0.00849758 0
0.00285478 0.00985755 0
0.0050706 0.00879036 0
0.00716435 0.00938537 0
0.00986733 0.00893428 0
VERTICES 25 50
1 0
1 1
1 2
1 3
1 4
1 5
1 6
1 7
1 8
1 9
1 10
1 11
1 12
1 13
1 14
1 15
1 16
1 17
1 18
1 19
1 20
1 21
1 22
1 23
1 24
POINT_DATA 25
VECTORS velocity double
-1.54075e-05 -0.00971836 0
-1.02077e-05 -0.00972615 0
-8.44803e-06 -0.00971352 0
-4.95146e-06 -0.00971583 0
6.48197e-06 -0.00969794 0
-4.60802e-07 -0.00969493 0
-5.30727e-06 -0.00970108 0
-1.36266e-05 -0.00971023 0
-1.55325e-05 -0.0097215 0
-1.7982e-05 -0.0097128 0
1.83811e-05 -0.00971567 0
3.0928e-06 -0.00972115 0
-1.01971e-05 -0.00971131 0
-6.58186e-06 -0.00969038 0
-1.50184e-05 -0.00970107 0
8.79165e-06 -0.00971726 0
-1.17853e-05 -0.00969553 0
1.51211e-05 -0.00971456 0
1.04545e-06 -0.0097036 0
-1.56722e-05 -0.00970934 0
-1.82475e-05 -0.00971634 0
-2.83412e-06 -0.0096898 0
1.37784e-06 -0.00971063 0
3.2074e-06 -0.00969902 0
1.69265e-05 -0.00970782 0
SCALARS radius double 1
LOOKUP_TABLE default
0.0005192
0.000759374
0.000731582
0.000932767
0.000864852
0.00092132
0.000824734
0.000662097
0.000535446
0.00094621
0.000999249
0.000802661
0.000671708
0.000819153
0.000645007
0.000827505
0.000602392
0.000772815
0.000550095
0.000626194
0.000886859
0.000531918
0.000790192
0.000909137
0.00096445
SCALARS mass double 1
LOOKUP_TABLE default
0.00228657
0.0048913
0.00453983
0.00738005
0.00634449
0.00720004
0.00576955
0.0037184
0.0024319
0.00759432
0.00846957
0.00546484
0.00382714
0.00569173
0.00352892
0.00580838
0.00307803
0.005066
0.00256678
0.00332607
0.00667148
0.00239995
0.00529637
0.00701087
0.00788992
