# vtk DataFile Version 3.0
DEM2D particles
ASCII
DATASET POLYDATA
POINTS 25 double
0.000210492 -0.000863889 0
0.00247694 -0.00126318 0
0.00456711 -0.000615851 0
0.00674628 -0.000734565 0
0.00933215 0.000182561 0
0.000976388 0.00233674 0
0.00272805 0.00202118 0
0.00430175 0.00155237 0
0.00620408 0.000975057 0
0.00807857 0.00142102 0
0.00194188 0.0032737 0
0.00315848 0.00299277 0
0.00447748 0.00349698 0
0.00666273 0.00456953 0
0.00823043 0.00402205 0
0.0014505 0.00519237 0
0.0023961 0.00630574 0
0.00577483 0.00533082 0
0.00705357 0.00589243 0
0.00819693 0.00559815 0
6.49651e-05 0.00723934 0
0.00285477 0.00859934 0
0.0050706 0.00753213 0
0.00716435 0.00812714 0
0.00986735 0.00767605 0
VERTICES 25 50
1 0
1 1
1 2
1 3
1 4
1 5
1 6
1 7
1 8
1 9
1 10
1 11
1 12
1 13
1 14
1 15
1 16
1 17
1 18
1 19
1 20
1 21
1 22
1 23
1 24
POINT_DATA 25
VECTORS velocity double
-4.16729e-62 -0.00970858 0
-2.76091e-62 -0.00970858 0
-2.28495e-62 -0.00970858 0
-1.33923e-62 -0.00970858 0
1.75319e-62 -0.00970858 0
-1.24634e-63 -0.00970858 0
-1.43547e-62 -0.00970858 0
-3.68561e-62 -0.00970858 0
-4.20111e-62 -0.00970858 0
-4.86363e-62 -0.00970858 0
4.97157e-62 -0.00970858 0
8.36516e-63 -0.00970858 0
-2.75803e-62 -0.00970858 0
-1.78021e-62 -0.00970858 0
-4.06205e-62 -0.00970858 0
2.37789e-62 -0.00970858 0
-3.18758e-62 -0.00970858 0
4.08983e-62 -0.00970858 0
2.82766e-63 -0.00970858 0
-4.23889e-62 -0.00970858 0
-4.93543e-62 -0.00970858 0
-7.66548e-63 -0.00970858 0
3.72667e-63 -0.00970858 0
8.67512e-63 -0.00970858 0
4.57815e-62 -0.00970858 0
SCALARS radius double 1
LOOKUP_TABLE default
0.0005192
0.000759374
0.000731582
0.000932767
0.000864852
0.00092132
0.000824734
0.000662097
0.000535446
0.00094621
0.000999249
0.000802661
0.000671708
0.000819153
0.000645007
0.000827505
0.000602392
0.000772815
0.000550095
0.000626194
0.000886859
0.000531918
0.000790192
0.000909137
0.00096445
SCALARS mass double 1
LOOKUP_TABLE default
0.00228657
0.0048913
0.00453983
0.00738005
0.00634449
0.00720004
0.00576955
0.0037184
0.0024319
0.00759432
0.00846957
0.00546484
0.00382714
0.00569173
0.00352892
0.00580838
0.00307803
0.005066
0.00256678
0.00332607
0.00667148
0.00239995
0.00529637
0.00701087
0.00788992
