# vtk DataFile Version 3.0
DEM2D particles
ASCII
DATASET POLYDATA
POINTS 25 double
0.000210492 0.00033415 0
0.00247694 -6.51391e-05 0
0.00456711 0.000582188 0
0.00674628 0.000463474 0
0.00933215 0.0013806 0
0.000976388 0.00353478 0
0.00272805 0.00321922 0
0.00430175 0.00275041 0
0.00620408 0.0021731 0
0.00807857 0.00261906 0
0.00194188 0.00447174 0
0.00315848 0.00419081 0
0.00447748 0.00469501 0
0.00666273 0.00576757 0
0.00823043 0.00522009 0
0.0014505 0.00639041 0
0.0023961 0.00750378 0
0.00577483 0.00652886 0
0.00705357 0.00709047 0
0.00819693 0.00679618 0
6.49651e-05 0.00843738 0
0.00285477 0.00979738 0
0.0050706 0.00873017 0
0.00716435 0.00932518 0
0.00986735 0.00887409 0
VERTICES 25 50
1 0
1 1
1 2
1 3
1 4
1 5
1 6
1 7
1 8
1 9
1 10
1 11
1 12
1 13
1 14
1 15
1 16
1 17
1 18
1 19
1 20
1 21
1 22
1 23
1 24
POINT_DATA 25
VECTORS velocity double
-3.03077e-08 -0.0097086 0
-2.00794e-08 -0.00970862 0
-1.66179e-08 -0.00970859 0
-9.73989e-09 -0.0097086 0
1.27505e-08 -0.00970856 0
-9.06432e-10 -0.00970856 0
-1.04398e-08 -0.00970857 0
-2.68045e-08 -0.00970859 0
-3.05536e-08 -0.00970861 0
-3.5372e-08 -0.00970859 0
3.6157e-08 -0.0097086 0
6.08377e-09 -0.00970861 0
-2.00585e-08 -0.00970859 0
-1.2947e-08 -0.00970855 0
-2.95423e-08 -0.00970857 0
1.72938e-08 -0.0097086 0
-2.31825e-08 -0.00970856 0
2.97443e-08 -0.0097086 0
2.05649e-09 -0.00970857 0
-3.08284e-08 -0.00970858 0
-3.58941e-08 -0.0097086 0
-5.57491e-09 -0.00970855 0
2.71031e-09 -0.00970859 0
6.3092e-09 -0.00970856 0
3.32958e-08 -0.00970858 0
SCALARS radius double 1
LOOKUP_TABLE default
0.0005192
0.000759374
0.000731582
0.000932767
0.000864852
0.00092132
0.000824734
0.000662097
0.000535446
0.00094621
0.000999249
0.000802661
0.000671708
0.000819153
0.000645007
0.000827505
0.000602392
0.000772815
0.000550095
0.000626194
0.000886859
0.000531918
0.000790192
0.000909137
0.00096445
SCALARS mass double 1
LOOKUP_TABLE default
0.00228657
0.0048913
0.00453983
0.00738005
0.00634449
0.00720004
0.00576955
0.0037184
0.0024319
0.00759432
0.00846957
0.00546484
0.00382714
0.00569173
0.00352892
0.00580838
0.00307803
0.005066
0.00256678
0.00332607
0.00667148
0.00239995
0.00529637
0.00701087
0.00788992
