# vtk DataFile Version 3.0
DEM2D particles
ASCII
DATASET POLYDATA
POINTS 25 double
0.000210492 -0.000945441 0
0.00247694 -0.00134473 0
0.00456711 -0.000697403 0
0.00674628 -0.000816117 0
0.00933215 0.000101009 0
0.000976388 0.00225518 0
0.00272805 0.00193963 0
0.00430175 0.00147082 0
0.00620408 0.000893504 0
0.00807857 0.00133947 0
0.00194188 0.00319215 0
0.00315848 0.00291122 0
0.00447748 0.00341542 0
0.00666273 0.00448797 0
0.00823043 0.00394049 0
0.0014505 0.00511082 0
0.0023961 0.00622419 0
0.00577483 0.00524927 0
0.00705357 0.00581088 0
0.00819693 0.00551659 0
6.49651e-05 0.00715778 0
0.00285477 0.00851779 0
0.0050706 0.00745058 0
0.00716435 0.00804559 0
0.00986735 0.0075945 0
VERTICES 25 50
1 0
1 1
1 2
1 3
1 4
1 5
1 6
1 7
1 8
1 9
1 10
1 11
1 12
1 13
1 14
1 15
1 16
1 17
1 18
1 19
1 20
1 21
1 22
1 23
1 24
POINT_DATA 25
VECTORS velocity double
-8.98291e-66 -0.00970858 0
-5.95134e-66 -0.00970858 0
-4.92539e-66 -0.00970858 0
-2.88682e-66 -0.00970858 0
3.77914e-66 -0.00970858 0
-2.68658e-67 -0.00970858 0
-3.09426e-66 -0.00970858 0
-7.94461e-66 -0.00970858 0
-9.05582e-66 -0.00970858 0
-1.04839e-65 -0.00970858 0
1.07166e-65 -0.00970858 0
1.80317e-66 -0.00970858 0
-5.94515e-66 -0.00970858 0
-3.83738e-66 -0.00970858 0
-8.75606e-66 -0.00970858 0
5.12573e-66 -0.00970858 0
-6.87108e-66 -0.00970858 0
8.81594e-66 -0.00970858 0
6.09524e-67 -0.00970858 0
-9.13724e-66 -0.00970858 0
-1.06387e-65 -0.00970858 0
-1.65235e-66 -0.00970858 0
8.03312e-67 -0.00970858 0
1.86999e-66 -0.00970858 0
9.86856e-66 -0.00970858 0
SCALARS radius double 1
LOOKUP_TABLE default
0.0005192
0.000759374
0.000731582
0.000932767
0.000864852
0.00092132
0.000824734
0.000662097
0.000535446
0.00094621
0.000999249
0.000802661
0.000671708
0.000819153
0.000645007
0.000827505
0.000602392
0.000772815
0.000550095
0.000626194
0.000886859
0.000531918
0.000790192
0.000909137
0.00096445
SCALARS mass double 1
LOOKUP_TABLE default
0.00228657
0.0048913
0.00453983
0.00738005
0.00634449
0.00720004
0.00576955
0.0037184
0.0024319
0.00759432
0.00846957
0.00546484
0.00382714
0.00569173
0.00352892
0.00580838
0.00307803
0.005066
0.00256678
0.00332607
0.00667148
0.00239995
0.00529637
0.00701087
0.00788992
