# vtk DataFile Version 3.0
DEM2D particles
ASCII
DATASET POLYDATA
POINTS 25 double
0.000210492 -0.000551273 0
0.00247694 -0.000950562 0
0.00456711 -0.000303235 0
0.00674628 -0.000421949 0
0.00933215 0.000495178 0
0.000976388 0.00264935 0
0.00272805 0.0023338 0
0.00430175 0.00186499 0
0.00620408 0.00128767 0
0.00807857 0.00173363 0
0.00194188 0.00358631 0
0.00315848 0.00330539 0
0.00447748 0.00380959 0
0.00666273 0.00488214 0
0.00823043 0.00433466 0
0.0014505 0.00550499 0
0.0023961 0.00661836 0
0.00577483 0.00564344 0
0.00705357 0.00620505 0
0.00819693 0.00591076 0
6.49651e-05 0.00755195 0
0.00285477 0.00891196 0
0.0050706 0.00784475 0
0.00716435 0.00843976 0
0.00986735 0.00798867 0
VERTICES 25 50
1 0
1 1
1 2
1 3
1 4
1 5
1 6
1 7
1 8
1 9
1 10
1 11
1 12
1 13
1 14
1 15
1 16
1 17
1 18
1 19
1 20
1 21
1 22
1 23
1 24
POINT_DATA 25
VECTORS velocity double
-4.72636e-48 -0.00970858 0
-3.1313e-48 -0.00970858 0
-2.5915e-48 -0.00970858 0
-1.5189e-48 -0.00970858 0
1.98839e-48 -0.00970858 0
-1.41355e-49 -0.00970858 0
-1.62805e-48 -0.00970858 0
-4.18006e-48 -0.00970858 0
-4.76472e-48 -0.00970858 0
-5.51613e-48 -0.00970858 0
5.63854e-48 -0.00970858 0
9.48741e-49 -0.00970858 0
-3.12804e-48 -0.00970858 0
-2.01904e-48 -0.00970858 0
-4.60701e-48 -0.00970858 0
2.6969e-48 -0.00970858 0
-3.61522e-48 -0.00970858 0
4.63851e-48 -0.00970858 0
3.20701e-49 -0.00970858 0
-4.80756e-48 -0.00970858 0
-5.59755e-48 -0.00970858 0
-8.69386e-49 -0.00970858 0
4.22663e-49 -0.00970858 0
9.83896e-49 -0.00970858 0
5.19235e-48 -0.00970858 0
SCALARS radius double 1
LOOKUP_TABLE default
0.0005192
0.000759374
0.000731582
0.000932767
0.000864852
0.00092132
0.000824734
0.000662097
0.000535446
0.00094621
0.000999249
0.000802661
0.000671708
0.000819153
0.000645007
0.000827505
0.000602392
0.000772815
0.000550095
0.000626194
0.000886859
0.000531918
0.000790192
0.000909137
0.00096445
SCALARS mass double 1
LOOKUP_TABLE default
0.00228657
0.0048913
0.00453983
0.00738005
0.00634449
0.00720004
0.00576955
0.0037184
0.0024319
0.00759432
0.00846957
0.00546484
0.00382714
0.00569173
0.00352892
0.00580838
0.00307803
0.005066
0.00256678
0.00332607
0.00667148
0.00239995
0.00529637
0.00701087
0.00788992
