# vtk DataFile Version 3.0
DEM2D particles
ASCII
DATASET POLYDATA
POINTS 25 double
0.000210492 -0.00136874 0
0.00247694 -0.00176802 0
0.00456711 -0.0011207 0
0.00674628 -0.00123941 0
0.00933215 -0.000322285 0
0.000976388 0.00183189 0
0.00272805 0.00151634 0
0.00430175 0.00104753 0
0.00620408 0.00047021 0
0.00807857 0.000916172 0
0.00194188 0.00276885 0
0.00315848 0.00248793 0
0.00447748 0.00299213 0
0.00666273 0.00406468 0
0.00823043 0.0035172 0
0.0014505 0.00468752 0
0.0023961 0.00580089 0
0.00577483 0.00482597 0
0.00705357 0.00538759 0
0.00819693 0.0050933 0
6.49651e-05 0.00673449 0
0.00285477 0.00809449 0
0.0050706 0.00702728 0
0.00716435 0.0076223 0
0.00986735 0.00717121 0
VERTICES 25 50
1 0
1 1
1 2
1 3
1 4
1 5
1 6
1 7
1 8
1 9
1 10
1 11
1 12
1 13
1 14
1 15
1 16
1 17
1 18
1 19
1 20
1 21
1 22
1 23
1 24
POINT_DATA 25
VECTORS velocity double
-8.3727e-85 -0.00970858 0
-5.54707e-85 -0.00970858 0
-4.59081e-85 -0.00970858 0
-2.69071e-85 -0.00970858 0
3.52242e-85 -0.00970858 0
-2.50408e-86 -0.00970858 0
-2.88407e-85 -0.00970858 0
-7.40493e-85 -0.00970858 0
-8.44065e-85 -0.00970858 0
-9.77176e-85 -0.00970858 0
9.98862e-85 -0.00970858 0
1.68068e-85 -0.00970858 0
-5.54129e-85 -0.00970858 0
-3.5767e-85 -0.00970858 0
-8.16126e-85 -0.00970858 0
4.77754e-85 -0.00970858 0
-6.40432e-85 -0.00970858 0
8.21707e-85 -0.00970858 0
5.68119e-86 -0.00970858 0
-8.51655e-85 -0.00970858 0
-9.916e-85 -0.00970858 0
-1.54011e-85 -0.00970858 0
7.48743e-86 -0.00970858 0
1.74296e-85 -0.00970858 0
9.19819e-85 -0.00970858 0
SCALARS radius double 1
LOOKUP_TABLE default
0.0005192
0.000759374
0.000731582
0.000932767
0.000864852
0.00092132
0.000824734
0.000662097
0.000535446
0.00094621
0.000999249
0.000802661
0.000671708
0.000819153
0.000645007
0.000827505
0.000602392
0.000772815
0.000550095
0.000626194
0.000886859
0.000531918
0.000790192
0.000909137
0.00096445
SCALARS mass double 1
LOOKUP_TABLE default
0.00228657
0.0048913
0.00453983
0.00738005
0.00634449
0.00720004
0.00576955
0.0037184
0.0024319
0.00759432
0.00846957
0.00546484
0.00382714
0.00569173
0.00352892
0.00580838
0.00307803
0.005066
0.00256678
0.00332607
0.00667148
0.00239995
0.00529637
0.00701087
0.00788992
