# vtk DataFile Version 3.0
DEM2D particles
ASCII
DATASET POLYDATA
POINTS 25 double
0.000210492 3.3184e-05 0
0.00247694 -0.000366105 0
0.00456711 0.000281222 0
0.00674628 0.000162508 0
0.00933215 0.00107963 0
0.000976388 0.00323381 0
0.00272805 0.00291826 0
0.00430175 0.00244945 0
0.00620408 0.00187213 0
0.00807857 0.00231809 0
0.00194188 0.00417077 0
0.00315848 0.00388985 0
0.00447748 0.00439405 0
0.00666273 0.0054666 0
0.00823043 0.00491912 0
0.0014505 0.00608944 0
0.0023961 0.00720281 0
0.00577483 0.00622789 0
0.00705357 0.00678951 0
0.00819693 0.00649522 0
6.49651e-05 0.00813641 0
0.00285477 0.00949641 0
0.0050706 0.0084292 0
0.00716435 0.00902422 0
0.00986735 0.00857312 0
VERTICES 25 50
1 0
1 1
1 2
1 3
1 4
1 5
1 6
1 7
1 8
1 9
1 10
1 11
1 12
1 13
1 14
1 15
1 16
1 17
1 18
1 19
1 20
1 21
1 22
1 23
1 24
POINT_DATA 25
VECTORS velocity double
-8.92597e-22 -0.00970858 0
-5.91362e-22 -0.00970858 0
-4.89417e-22 -0.00970858 0
-2.86852e-22 -0.00970858 0
3.75518e-22 -0.00970858 0
-2.66955e-23 -0.00970858 0
-3.07465e-22 -0.00970858 0
-7.89425e-22 -0.00970858 0
-8.99842e-22 -0.00970858 0
-1.04175e-21 -0.00970858 0
1.06487e-21 -0.00970858 0
1.79175e-22 -0.00970858 0
-5.90746e-22 -0.00970858 0
-3.81305e-22 -0.00970858 0
-8.70056e-22 -0.00970858 0
5.09324e-22 -0.00970858 0
-6.82752e-22 -0.00970858 0
8.76006e-22 -0.00970858 0
6.0566e-23 -0.00970858 0
-9.07933e-22 -0.00970858 0
-1.05713e-21 -0.00970858 0
-1.64188e-22 -0.00970858 0
7.9822e-23 -0.00970858 0
1.85814e-22 -0.00970858 0
9.80601e-22 -0.00970858 0
SCALARS radius double 1
LOOKUP_TABLE default
0.0005192
0.000759374
0.000731582
0.000932767
0.000864852
0.00092132
0.000824734
0.000662097
0.000535446
0.00094621
0.000999249
0.000802661
0.000671708
0.000819153
0.000645007
0.000827505
0.000602392
0.000772815
0.000550095
0.000626194
0.000886859
0.000531918
0.000790192
0.000909137
0.00096445
SCALARS mass double 1
LOOKUP_TABLE default
0.00228657
0.0048913
0.00453983
0.00738005
0.00634449
0.00720004
0.00576955
0.0037184
0.0024319
0.00759432
0.00846957
0.00546484
0.00382714
0.00569173
0.00352892
0.00580838
0.00307803
0.005066
0.00256678
0.00332607
0.00667148
0.00239995
0.00529637
0.00701087
0.00788992
