# vtk DataFile Version 3.0
DEM2D particles
ASCII
DATASET POLYDATA
POINTS 25 double
0.000210492 0.000237064 0
0.00247694 -0.000162225 0
0.00456711 0.000485102 0
0.00674628 0.000366388 0
0.00933215 0.00128351 0
0.000976388 0.00343769 0
0.00272805 0.00312214 0
0.00430175 0.00265333 0
0.00620408 0.00207601 0
0.00807857 0.00252197 0
0.00194188 0.00437465 0
0.00315848 0.00409373 0
0.00447748 0.00459793 0
0.00666273 0.00567048 0
0.00823043 0.005123 0
0.0014505 0.00629332 0
0.0023961 0.00740669 0
0.00577483 0.00643177 0
0.00705357 0.00699339 0
0.00819693 0.0066991 0
6.49651e-05 0.00834029 0
0.00285477 0.00970029 0
0.0050706 0.00863308 0
0.00716435 0.0092281 0
0.00986735 0.00877701 0
VERTICES 25 50
1 0
1 1
1 2
1 3
1 4
1 5
1 6
1 7
1 8
1 9
1 10
1 11
1 12
1 13
1 14
1 15
1 16
1 17
1 18
1 19
1 20
1 21
1 22
1 23
1 24
POINT_DATA 25
VECTORS velocity double
-1.30842e-12 -0.00970858 0
-8.66852e-13 -0.00970858 0
-7.17415e-13 -0.00970858 0
-4.20483e-13 -0.00970858 0
5.50456e-13 -0.00970858 0
-3.91318e-14 -0.00970858 0
-4.50699e-13 -0.00970858 0
-1.15718e-12 -0.00970858 0
-1.31904e-12 -0.00970858 0
-1.52705e-12 -0.00970858 0
1.56094e-12 -0.00970858 0
2.62644e-13 -0.00970858 0
-8.65949e-13 -0.00970858 0
-5.58939e-13 -0.00970858 0
-1.27538e-12 -0.00970858 0
7.46596e-13 -0.00970858 0
-1.00082e-12 -0.00970858 0
1.2841e-12 -0.00970858 0
8.87811e-14 -0.00970858 0
-1.3309e-12 -0.00970858 0
-1.54959e-12 -0.00970858 0
-2.40676e-13 -0.00970858 0
1.17008e-13 -0.00970858 0
2.72376e-13 -0.00970858 0
1.43742e-12 -0.00970858 0
SCALARS radius double 1
LOOKUP_TABLE default
0.0005192
0.000759374
0.000731582
0.000932767
0.000864852
0.00092132
0.000824734
0.000662097
0.000535446
0.00094621
0.000999249
0.000802661
0.000671708
0.000819153
0.000645007
0.000827505
0.000602392
0.000772815
0.000550095
0.000626194
0.000886859
0.000531918
0.000790192
0.000909137
0.00096445
SCALARS mass double 1
LOOKUP_TABLE default
0.00228657
0.0048913
0.00453983
0.00738005
0.00634449
0.00720004
0.00576955
0.0037184
0.0024319
0.00759432
0.00846957
0.00546484
0.00382714
0.00569173
0.00352892
0.00580838
0.00307803
0.005066
0.00256678
0.00332607
0.00667148
0.00239995
0.00529637
0.00701087
0.00788992
