# vtk DataFile Version 3.0
DEM2D particles
ASCII
DATASET POLYDATA
POINTS 25 double
0.000210492 0.000258423 0
0.00247694 -0.000140866 0
0.00456711 0.000506461 0
0.00674628 0.000387747 0
0.00933215 0.00130487 0
0.000976388 0.00345905 0
0.00272805 0.0031435 0
0.00430175 0.00267468 0
0.00620408 0.00209737 0
0.00807857 0.00254333 0
0.00194188 0.00439601 0
0.00315848 0.00411508 0
0.00447748 0.00461929 0
0.00666273 0.00569184 0
0.00823043 0.00514436 0
0.0014505 0.00631468 0
0.0023961 0.00742805 0
0.00577483 0.00645313 0
0.00705357 0.00701474 0
0.00819693 0.00672046 0
6.49651e-05 0.00836165 0
0.00285477 0.00972165 0
0.0050706 0.00865444 0
0.00716435 0.00924945 0
0.00986735 0.00879836 0
VERTICES 25 50
1 0
1 1
1 2
1 3
1 4
1 5
1 6
1 7
1 8
1 9
1 10
1 11
1 12
1 13
1 14
1 15
1 16
1 17
1 18
1 19
1 20
1 21
1 22
1 23
1 24
POINT_DATA 25
VECTORS velocity double
-1.194e-11 -0.00970858 0
-7.91046e-12 -0.00970858 0
-6.54678e-12 -0.00970858 0
-3.83712e-12 -0.00970858 0
5.02319e-12 -0.00970858 0
-3.57098e-13 -0.00970858 0
-4.11286e-12 -0.00970858 0
-1.05599e-11 -0.00970858 0
-1.20369e-11 -0.00970858 0
-1.39351e-11 -0.00970858 0
1.42444e-11 -0.00970858 0
2.39676e-12 -0.00970858 0
-7.90223e-12 -0.00970858 0
-5.1006e-12 -0.00970858 0
-1.16385e-11 -0.00970858 0
6.81307e-12 -0.00970858 0
-9.13296e-12 -0.00970858 0
1.17181e-11 -0.00970858 0
8.10173e-13 -0.00970858 0
-1.21451e-11 -0.00970858 0
-1.41408e-11 -0.00970858 0
-2.19629e-12 -0.00970858 0
1.06775e-12 -0.00970858 0
2.48557e-12 -0.00970858 0
1.31172e-11 -0.00970858 0
SCALARS radius double 1
LOOKUP_TABLE default
0.0005192
0.000759374
0.000731582
0.000932767
0.000864852
0.00092132
0.000824734
0.000662097
0.000535446
0.00094621
0.000999249
0.000802661
0.000671708
0.000819153
0.000645007
0.000827505
0.000602392
0.000772815
0.000550095
0.000626194
0.000886859
0.000531918
0.000790192
0.000909137
0.00096445
SCALARS mass double 1
LOOKUP_TABLE default
0.00228657
0.0048913
0.00453983
0.00738005
0.00634449
0.00720004
0.00576955
0.0037184
0.0024319
0.00759432
0.00846957
0.00546484
0.00382714
0.00569173
0.00352892
0.00580838
0.00307803
0.005066
0.00256678
0.00332607
0.00667148
0.00239995
0.00529637
0.00701087
0.00788992
