# vtk DataFile Version 3.0
DEM2D particles
ASCII
DATASET POLYDATA
POINTS 25 double
0.000210492 3.51257e-05 0
0.00247694 -0.000364163 0
0.00456711 0.000283164 0
0.00674628 0.00016445 0
0.00933215 0.00108158 0
0.000976388 0.00323575 0
0.00272805 0.0029202 0
0.00430175 0.00245139 0
0.00620408 0.00187407 0
0.00807857 0.00232003 0
0.00194188 0.00417271 0
0.00315848 0.00389179 0
0.00447748 0.00439599 0
0.00666273 0.00546854 0
0.00823043 0.00492106 0
0.0014505 0.00609139 0
0.0023961 0.00720475 0
0.00577483 0.00622983 0
0.00705357 0.00679145 0
0.00819693 0.00649716 0
6.49651e-05 0.00813835 0
0.00285477 0.00949836 0
0.0050706 0.00843114 0
0.00716435 0.00902616 0
0.00986735 0.00857507 0
VERTICES 25 50
1 0
1 1
1 2
1 3
1 4
1 5
1 6
1 7
1 8
1 9
1 10
1 11
1 12
1 13
1 14
1 15
1 16
1 17
1 18
1 19
1 20
1 21
1 22
1 23
1 24
POINT_DATA 25
VECTORS velocity double
-1.09132e-21 -0.00970858 0
-7.23019e-22 -0.00970858 0
-5.98377e-22 -0.00970858 0
-3.50714e-22 -0.00970858 0
4.59121e-22 -0.00970858 0
-3.26388e-23 -0.00970858 0
-3.75917e-22 -0.00970858 0
-9.65177e-22 -0.00970858 0
-1.10018e-21 -0.00970858 0
-1.27368e-21 -0.00970858 0
1.30194e-21 -0.00970858 0
2.19065e-22 -0.00970858 0
-7.22266e-22 -0.00970858 0
-4.66196e-22 -0.00970858 0
-1.06376e-21 -0.00970858 0
6.22716e-22 -0.00970858 0
-8.34756e-22 -0.00970858 0
1.07103e-21 -0.00970858 0
7.405e-23 -0.00970858 0
-1.11007e-21 -0.00970858 0
-1.29248e-21 -0.00970858 0
-2.00742e-22 -0.00970858 0
9.7593e-23 -0.00970858 0
2.27182e-22 -0.00970858 0
1.19891e-21 -0.00970858 0
SCALARS radius double 1
LOOKUP_TABLE default
0.0005192
0.000759374
0.000731582
0.000932767
0.000864852
0.00092132
0.000824734
0.000662097
0.000535446
0.00094621
0.000999249
0.000802661
0.000671708
0.000819153
0.000645007
0.000827505
0.000602392
0.000772815
0.000550095
0.000626194
0.000886859
0.000531918
0.000790192
0.000909137
0.00096445
SCALARS mass double 1
LOOKUP_TABLE default
0.00228657
0.0048913
0.00453983
0.00738005
0.00634449
0.00720004
0.00576955
0.0037184
0.0024319
0.00759432
0.00846957
0.00546484
0.00382714
0.00569173
0.00352892
0.00580838
0.00307803
0.005066
0.00256678
0.00332607
0.00667148
0.00239995
0.00529637
0.00701087
0.00788992
