# vtk DataFile Version 3.0
DEM2D particles
ASCII
DATASET POLYDATA
POINTS 25 double
0.000210492 -0.00123087 0
0.00247694 -0.00163016 0
0.00456711 -0.000982836 0
0.00674628 -0.00110155 0
0.00933215 -0.000184423 0
0.000976388 0.00196975 0
0.00272805 0.0016542 0
0.00430175 0.00118539 0
0.00620408 0.000608072 0
0.00807857 0.00105403 0
0.00194188 0.00290671 0
0.00315848 0.00262579 0
0.00447748 0.00312999 0
0.00666273 0.00420254 0
0.00823043 0.00365506 0
0.0014505 0.00482539 0
0.0023961 0.00593876 0
0.00577483 0.00496383 0
0.00705357 0.00552545 0
0.00819693 0.00523116 0
6.49651e-05 0.00687235 0
0.00285477 0.00823236 0
0.0050706 0.00716514 0
0.00716435 0.00776016 0
0.00986735 0.00730907 0
VERTICES 25 50
1 0
1 1
1 2
1 3
1 4
1 5
1 6
1 7
1 8
1 9
1 10
1 11
1 12
1 13
1 14
1 15
1 16
1 17
1 18
1 19
1 20
1 21
1 22
1 23
1 24
POINT_DATA 25
VECTORS velocity double
-1.32096e-78 -0.00970858 0
-8.75159e-79 -0.00970858 0
-7.2429e-79 -0.00970858 0
-4.24513e-79 -0.00970858 0
5.55731e-79 -0.00970858 0
-3.95068e-80 -0.00970858 0
-4.55019e-79 -0.00970858 0
-1.16827e-78 -0.00970858 0
-1.33168e-78 -0.00970858 0
-1.54169e-78 -0.00970858 0
1.5759e-78 -0.00970858 0
2.65161e-79 -0.00970858 0
-8.74248e-79 -0.00970858 0
-5.64295e-79 -0.00970858 0
-1.2876e-78 -0.00970858 0
7.53751e-79 -0.00970858 0
-1.01041e-78 -0.00970858 0
1.29641e-78 -0.00970858 0
8.96319e-80 -0.00970858 0
-1.34365e-78 -0.00970858 0
-1.56445e-78 -0.00970858 0
-2.42983e-79 -0.00970858 0
1.18129e-79 -0.00970858 0
2.74986e-79 -0.00970858 0
1.4512e-78 -0.00970858 0
SCALARS radius double 1
LOOKUP_TABLE default
0.0005192
0.000759374
0.000731582
0.000932767
0.000864852
0.00092132
0.000824734
0.000662097
0.000535446
0.00094621
0.000999249
0.000802661
0.000671708
0.000819153
0.000645007
0.000827505
0.000602392
0.000772815
0.000550095
0.000626194
0.000886859
0.000531918
0.000790192
0.000909137
0.00096445
SCALARS mass double 1
LOOKUP_TABLE default
0.00228657
0.0048913
0.00453983
0.00738005
0.00634449
0.00720004
0.00576955
0.0037184
0.0024319
0.00759432
0.00846957
0.00546484
0.00382714
0.00569173
0.00352892
0.00580838
0.00307803
0.005066
0.00256678
0.00332607
0.00667148
0.00239995
0.00529637
0.00701087
0.00788992
