# vtk DataFile Version 3.0
DEM2D particles
ASCII
DATASET POLYDATA
POINTS 25 double
0.000210492 -0.000112445 0
0.00247694 -0.000511734 0
0.00456711 0.000135593 0
0.00674628 1.68791e-05 0
0.00933215 0.000934005 0
0.000976388 0.00308818 0
0.00272805 0.00277263 0
0.00430175 0.00230382 0
0.00620408 0.0017265 0
0.00807857 0.00217246 0
0.00194188 0.00402514 0
0.00315848 0.00374422 0
0.00447748 0.00424842 0
0.00666273 0.00532097 0
0.00823043 0.00477349 0
0.0014505 0.00594382 0
0.0023961 0.00705718 0
0.00577483 0.00608226 0
0.00705357 0.00664388 0
0.00819693 0.00634959 0
6.49651e-05 0.00799078 0
0.00285477 0.00935079 0
0.0050706 0.00828357 0
0.00716435 0.00887859 0
0.00986735 0.0084275 0
VERTICES 25 50
1 0
1 1
1 2
1 3
1 4
1 5
1 6
1 7
1 8
1 9
1 10
1 11
1 12
1 13
1 14
1 15
1 16
1 17
1 18
1 19
1 20
1 21
1 22
1 23
1 24
POINT_DATA 25
VECTORS velocity double
-2.53191e-28 -0.00970858 0
-1.67743e-28 -0.00970858 0
-1.38826e-28 -0.00970858 0
-8.13672e-29 -0.00970858 0
1.06518e-28 -0.00970858 0
-7.57234e-30 -0.00970858 0
-8.72142e-29 -0.00970858 0
-2.23925e-28 -0.00970858 0
-2.55245e-28 -0.00970858 0
-2.95498e-28 -0.00970858 0
3.02056e-28 -0.00970858 0
5.08239e-29 -0.00970858 0
-1.67569e-28 -0.00970858 0
-1.08159e-28 -0.00970858 0
-2.46797e-28 -0.00970858 0
1.44473e-28 -0.00970858 0
-1.93667e-28 -0.00970858 0
2.48484e-28 -0.00970858 0
1.71799e-29 -0.00970858 0
-2.5754e-28 -0.00970858 0
-2.9986e-28 -0.00970858 0
-4.65729e-29 -0.00970858 0
2.2642e-29 -0.00970858 0
5.27071e-29 -0.00970858 0
2.78153e-28 -0.00970858 0
SCALARS radius double 1
LOOKUP_TABLE default
0.0005192
0.000759374
0.000731582
0.000932767
0.000864852
0.00092132
0.000824734
0.000662097
0.000535446
0.00094621
0.000999249
0.000802661
0.000671708
0.000819153
0.000645007
0.000827505
0.000602392
0.000772815
0.000550095
0.000626194
0.000886859
0.000531918
0.000790192
0.000909137
0.00096445
SCALARS mass double 1
LOOKUP_TABLE default
0.00228657
0.0048913
0.00453983
0.00738005
0.00634449
0.00720004
0.00576955
0.0037184
0.0024319
0.00759432
0.00846957
0.00546484
0.00382714
0.00569173
0.00352892
0.00580838
0.00307803
0.005066
0.00256678
0.00332607
0.00667148
0.00239995
0.00529637
0.00701087
0.00788992
