# vtk DataFile Version 3.0
DEM2D particles
ASCII
DATASET POLYDATA
POINTS 25 double
0.000210492 -0.00059399 0
0.00247694 -0.00099328 0
0.00456711 -0.000345953 0
0.00674628 -0.000464667 0
0.00933215 0.00045246 0
0.000976388 0.00260663 0
0.00272805 0.00229108 0
0.00430175 0.00182227 0
0.00620408 0.00124496 0
0.00807857 0.00169092 0
0.00194188 0.0035436 0
0.00315848 0.00326267 0
0.00447748 0.00376687 0
0.00666273 0.00483943 0
0.00823043 0.00429195 0
0.0014505 0.00546227 0
0.0023961 0.00657564 0
0.00577483 0.00560072 0
0.00705357 0.00616233 0
0.00819693 0.00586804 0
6.49651e-05 0.00750923 0
0.00285477 0.00886924 0
0.0050706 0.00780203 0
0.00716435 0.00839704 0
0.00986735 0.00794595 0
VERTICES 25 50
1 0
1 1
1 2
1 3
1 4
1 5
1 6
1 7
1 8
1 9
1 10
1 11
1 12
1 13
1 14
1 15
1 16
1 17
1 18
1 19
1 20
1 21
1 22
1 23
1 24
POINT_DATA 25
VECTORS velocity double
-5.67561e-50 -0.00970858 0
-3.7602e-50 -0.00970858 0
-3.11198e-50 -0.00970858 0
-1.82396e-50 -0.00970858 0
2.38775e-50 -0.00970858 0
-1.69744e-51 -0.00970858 0
-1.95503e-50 -0.00970858 0
-5.01959e-50 -0.00970858 0
-5.72168e-50 -0.00970858 0
-6.62399e-50 -0.00970858 0
6.771e-50 -0.00970858 0
1.13929e-50 -0.00970858 0
-3.75628e-50 -0.00970858 0
-2.42454e-50 -0.00970858 0
-5.53228e-50 -0.00970858 0
3.23855e-50 -0.00970858 0
-4.34131e-50 -0.00970858 0
5.57012e-50 -0.00970858 0
3.85111e-51 -0.00970858 0
-5.77312e-50 -0.00970858 0
-6.72177e-50 -0.00970858 0
-1.044e-50 -0.00970858 0
5.07551e-51 -0.00970858 0
1.1815e-50 -0.00970858 0
6.23518e-50 -0.00970858 0
SCALARS radius double 1
LOOKUP_TABLE default
0.0005192
0.000759374
0.000731582
0.000932767
0.000864852
0.00092132
0.000824734
0.000662097
0.000535446
0.00094621
0.000999249
0.000802661
0.000671708
0.000819153
0.000645007
0.000827505
0.000602392
0.000772815
0.000550095
0.000626194
0.000886859
0.000531918
0.000790192
0.000909137
0.00096445
SCALARS mass double 1
LOOKUP_TABLE default
0.00228657
0.0048913
0.00453983
0.00738005
0.00634449
0.00720004
0.00576955
0.0037184
0.0024319
0.00759432
0.00846957
0.00546484
0.00382714
0.00569173
0.00352892
0.00580838
0.00307803
0.005066
0.00256678
0.00332607
0.00667148
0.00239995
0.00529637
0.00701087
0.00788992
