# vtk DataFile Version 3.0
DEM2D particles
ASCII
DATASET POLYDATA
POINTS 25 double
0.000242159 0.000488216 0
0.00249792 0.000104943 0
0.00458447 0.000726305 0
0.00675645 0.000612353 0
0.00931883 0.00149269 0
0.000977335 0.00364068 0
0.00273895 0.00333779 0
0.00432976 0.00288778 0
0.00623601 0.00233362 0
0.00811553 0.0027617 0
0.0019041 0.00462028 0
0.00315212 0.00435063 0
0.00449844 0.00483461 0
0.00667626 0.00586414 0
0.0082613 0.00533862 0
0.00143243 0.00654222 0
0.00242032 0.00761093 0
0.00574375 0.00667511 0
0.00705142 0.0072142 0
0.00822914 0.00693172 0
0.00010247 0.0085873 0
0.0028606 0.00989275 0
0.00506777 0.00886835 0
0.00715776 0.0094395 0
0.00983256 0.0090065 0
VERTICES 25 50
1 0
1 1
1 2
1 3
1 4
1 5
1 6
1 7
1 8
1 9
1 10
1 11
1 12
1 13
1 14
1 15
1 16
1 17
1 18
1 19
1 20
1 21
1 22
1 23
1 24
POINT_DATA 25
VECTORS velocity double
-0.0319878 -0.0299992 0
-0.0211925 -0.0461768 0
-0.0175391 -0.0199497 0
-0.0102798 -0.0247595 0
0.0134573 0.0123988 0
-0.00095668 0.0186454 0
-0.0110185 0.00586045 0
-0.0282904 -0.0131339 0
-0.0322474 -0.0365245 0
-0.0373328 -0.0184559 0
0.0381614 -0.0244247 0
0.00642103 -0.0358067 0
-0.0211704 -0.0153784 0
-0.0136647 0.0280772 0
-0.03118 0.00589545 0
0.0182525 -0.0277197 0
-0.0244676 0.0173896 0
0.0313932 -0.0221104 0
0.00217049 0.000643961 0
-0.0325373 -0.0112794 0
-0.0378839 -0.0258169 0
-0.00588396 0.0292851 0
0.00286056 -0.0139541 0
0.00665895 0.0101535 0
0.0351415 -0.00812291 0
SCALARS radius double 1
LOOKUP_TABLE default
0.0005192
0.000759374
0.000731582
0.000932767
0.000864852
0.00092132
0.000824734
0.000662097
0.000535446
0.00094621
0.000999249
0.000802661
0.000671708
0.000819153
0.000645007
0.000827505
0.000602392
0.000772815
0.000550095
0.000626194
0.000886859
0.000531918
0.000790192
0.000909137
0.00096445
SCALARS mass double 1
LOOKUP_TABLE default
0.00228657
0.0048913
0.00453983
0.00738005
0.00634449
0.00720004
0.00576955
0.0037184
0.0024319
0.00759432
0.00846957
0.00546484
0.00382714
0.00569173
0.00352892
0.00580838
0.00307803
0.005066
0.00256678
0.00332607
0.00667148
0.00239995
0.00529637
0.00701087
0.00788992
