# vtk DataFile Version 3.0
DEM2D particles
ASCII
DATASET POLYDATA
POINTS 25 double
0.000210492 0.000172988 0
0.00247694 -0.000226302 0
0.00456711 0.000421026 0
0.00674628 0.000302311 0
0.00933215 0.00121944 0
0.000976388 0.00337361 0
0.00272805 0.00305806 0
0.00430175 0.00258925 0
0.00620408 0.00201193 0
0.00807857 0.00245789 0
0.00194188 0.00431057 0
0.00315848 0.00402965 0
0.00447748 0.00453385 0
0.00666273 0.0056064 0
0.00823043 0.00505892 0
0.0014505 0.00622925 0
0.0023961 0.00734262 0
0.00577483 0.0063677 0
0.00705357 0.00692931 0
0.00819693 0.00663502 0
6.49651e-05 0.00827621 0
0.00285477 0.00963622 0
0.0050706 0.00856901 0
0.00716435 0.00916402 0
0.00986735 0.00871293 0
VERTICES 25 50
1 0
1 1
1 2
1 3
1 4
1 5
1 6
1 7
1 8
1 9
1 10
1 11
1 12
1 13
1 14
1 15
1 16
1 17
1 18
1 19
1 20
1 21
1 22
1 23
1 24
POINT_DATA 25
VECTORS velocity double
-1.72177e-15 -0.00970858 0
-1.1407e-15 -0.00970858 0
-9.44058e-16 -0.00970858 0
-5.53321e-16 -0.00970858 0
7.24354e-16 -0.00970858 0
-5.14942e-17 -0.00970858 0
-5.93083e-16 -0.00970858 0
-1.52276e-15 -0.00970858 0
-1.73574e-15 -0.00970858 0
-2.00948e-15 -0.00970858 0
2.05407e-15 -0.00970858 0
3.45618e-16 -0.00970858 0
-1.13952e-15 -0.00970858 0
-7.35517e-16 -0.00970858 0
-1.67829e-15 -0.00970858 0
9.82458e-16 -0.00970858 0
-1.31699e-15 -0.00970858 0
1.68977e-15 -0.00970858 0
1.16829e-16 -0.00970858 0
-1.75135e-15 -0.00970858 0
-2.03914e-15 -0.00970858 0
-3.1671e-16 -0.00970858 0
1.53972e-16 -0.00970858 0
3.58424e-16 -0.00970858 0
1.89152e-15 -0.00970858 0
SCALARS radius double 1
LOOKUP_TABLE default
0.0005192
0.000759374
0.000731582
0.000932767
0.000864852
0.00092132
0.000824734
0.000662097
0.000535446
0.00094621
0.000999249
0.000802661
0.000671708
0.000819153
0.000645007
0.000827505
0.000602392
0.000772815
0.000550095
0.000626194
0.000886859
0.000531918
0.000790192
0.000909137
0.00096445
SCALARS mass double 1
LOOKUP_TABLE default
0.00228657
0.0048913
0.00453983
0.00738005
0.00634449
0.00720004
0.00576955
0.0037184
0.0024319
0.00759432
0.00846957
0.00546484
0.00382714
0.00569173
0.00352892
0.00580838
0.00307803
0.005066
0.00256678
0.00332607
0.00667148
0.00239995
0.00529637
0.00701087
0.00788992
