# vtk DataFile Version 3.0
DEM2D particles
ASCII
DATASET POLYDATA
POINTS 25 double
0.00073865 0.000830336 0
0.00282685 0.00069816 0
0.0048567 0.000912444 0
0.00691601 0.000873146 0
0.00910995 0.00117674 0
0.000992184 0.00322778 0
0.00290998 0.00312332 0
0.00476886 0.00296813 0
0.00673653 0.00277702 0
0.00869498 0.00292465 0
0.00131179 0.00487588 0
0.00305246 0.00478289 0
0.00482703 0.00494979 0
0.00688836 0.00530484 0
0.00874525 0.00512361 0
0.00114913 0.00684896 0
0.00280009 0.00721752 0
0.00525649 0.00689479 0
0.00701773 0.0070807 0
0.00873416 0.00698328 0
0.000690477 0.00886451 0
0.00295193 0.00931471 0
0.00502337 0.00896143 0
0.00705441 0.0091584 0
0.00928712 0.00900907 0
VERTICES 25 50
1 0
1 1
1 2
1 3
1 4
1 5
1 6
1 7
1 8
1 9
1 10
1 11
1 12
1 13
1 14
1 15
1 16
1 17
1 18
1 19
1 20
1 21
1 22
1 23
1 24
POINT_DATA 25
VECTORS velocity double
-0.533494 -0.348116 0
-0.353449 -0.617928 0
-0.292518 -0.18051 0
-0.171447 -0.260729 0
0.224442 0.359 0
-0.0159556 0.463181 0
-0.183768 0.249953 0
-0.471829 -0.0668366 0
-0.537824 -0.456945 0
-0.622639 -0.155596 0
0.636457 -0.255145 0
0.10709 -0.444974 0
-0.353081 -0.10427 0
-0.227901 0.620485 0
-0.520021 0.250536 0
0.304416 -0.3101 0
-0.408072 0.442236 0
0.523577 -0.216546 0
0.0361995 0.162952 0
-0.542659 -0.0359062 0
-0.63183 -0.278364 0
-0.098133 0.640631 0
0.0477086 -0.0805154 0
0.111058 0.321553 0
0.586092 0.0167374 0
SCALARS radius double 1
LOOKUP_TABLE default
0.0005192
0.000759374
0.000731582
0.000932767
0.000864852
0.00092132
0.000824734
0.000662097
0.000535446
0.00094621
0.000999249
0.000802661
0.000671708
0.000819153
0.000645007
0.000827505
0.000602392
0.000772815
0.000550095
0.000626194
0.000886859
0.000531918
0.000790192
0.000909137
0.00096445
SCALARS mass double 1
LOOKUP_TABLE default
0.00228657
0.0048913
0.00453983
0.00738005
0.00634449
0.00720004
0.00576955
0.0037184
0.0024319
0.00759432
0.00846957
0.00546484
0.00382714
0.00569173
0.00352892
0.00580838
0.00307803
0.005066
0.00256678
0.00332607
0.00667148
0.00239995
0.00529637
0.00701087
0.00788992
