# vtk DataFile Version 3.0
DEM2D particles
ASCII
DATASET POLYDATA
POINTS 25 double
0.000210492 -0.00127359 0
0.00247694 -0.00167288 0
0.00456711 -0.00102555 0
0.00674628 -0.00114427 0
0.00933215 -0.000227141 0
0.000976388 0.00192703 0
0.00272805 0.00161148 0
0.00430175 0.00114267 0
0.00620408 0.000565354 0
0.00807857 0.00101132 0
0.00194188 0.002864 0
0.00315848 0.00258307 0
0.00447748 0.00308727 0
0.00666273 0.00415982 0
0.00823043 0.00361234 0
0.0014505 0.00478267 0
0.0023961 0.00589604 0
0.00577483 0.00492112 0
0.00705357 0.00548273 0
0.00819693 0.00518844 0
6.49651e-05 0.00682963 0
0.00285477 0.00818964 0
0.0050706 0.00712243 0
0.00716435 0.00771744 0
0.00986735 0.00726635 0
VERTICES 25 50
1 0
1 1
1 2
1 3
1 4
1 5
1 6
1 7
1 8
1 9
1 10
1 11
1 12
1 13
1 14
1 15
1 16
1 17
1 18
1 19
1 20
1 21
1 22
1 23
1 24
POINT_DATA 25
VECTORS velocity double
-1.58626e-80 -0.00970858 0
-1.05093e-80 -0.00970858 0
-8.69758e-81 -0.00970858 0
-5.09773e-81 -0.00970858 0
6.67345e-81 -0.00970858 0
-4.74414e-82 -0.00970858 0
-5.46405e-81 -0.00970858 0
-1.40291e-80 -0.00970858 0
-1.59914e-80 -0.00970858 0
-1.85132e-80 -0.00970858 0
1.89241e-80 -0.00970858 0
3.18416e-81 -0.00970858 0
-1.04983e-80 -0.00970858 0
-6.77629e-81 -0.00970858 0
-1.5462e-80 -0.00970858 0
9.05135e-81 -0.00970858 0
-1.21334e-80 -0.00970858 0
1.55678e-80 -0.00970858 0
1.07634e-81 -0.00970858 0
-1.61351e-80 -0.00970858 0
-1.87865e-80 -0.00970858 0
-2.91783e-81 -0.00970858 0
1.41854e-81 -0.00970858 0
3.30215e-81 -0.00970858 0
1.74266e-80 -0.00970858 0
SCALARS radius double 1
LOOKUP_TABLE default
0.0005192
0.000759374
0.000731582
0.000932767
0.000864852
0.00092132
0.000824734
0.000662097
0.000535446
0.00094621
0.000999249
0.000802661
0.000671708
0.000819153
0.000645007
0.000827505
0.000602392
0.000772815
0.000550095
0.000626194
0.000886859
0.000531918
0.000790192
0.000909137
0.00096445
SCALARS mass double 1
LOOKUP_TABLE default
0.00228657
0.0048913
0.00453983
0.00738005
0.00634449
0.00720004
0.00576955
0.0037184
0.0024319
0.00759432
0.00846957
0.00546484
0.00382714
0.00569173
0.00352892
0.00580838
0.00307803
0.005066
0.00256678
0.00332607
0.00667148
0.00239995
0.00529637
0.00701087
0.00788992
