# vtk DataFile Version 3.0
DEM2D particles
ASCII
DATASET POLYDATA
POINTS 25 double
0.000210492 -0.000566806 0
0.00247694 -0.000966096 0
0.00456711 -0.000318769 0
0.00674628 -0.000437483 0
0.00933215 0.000479644 0
0.000976388 0.00263382 0
0.00272805 0.00231827 0
0.00430175 0.00184945 0
0.00620408 0.00127214 0
0.00807857 0.0017181 0
0.00194188 0.00357078 0
0.00315848 0.00328986 0
0.00447748 0.00379406 0
0.00666273 0.00486661 0
0.00823043 0.00431913 0
0.0014505 0.00548945 0
0.0023961 0.00660282 0
0.00577483 0.0056279 0
0.00705357 0.00618951 0
0.00819693 0.00589523 0
6.49651e-05 0.00753642 0
0.00285477 0.00889642 0
0.0050706 0.00782921 0
0.00716435 0.00842423 0
0.00986735 0.00797313 0
VERTICES 25 50
1 0
1 1
1 2
1 3
1 4
1 5
1 6
1 7
1 8
1 9
1 10
1 11
1 12
1 13
1 14
1 15
1 16
1 17
1 18
1 19
1 20
1 21
1 22
1 23
1 24
POINT_DATA 25
VECTORS velocity double
-9.46582e-49 -0.00970858 0
-6.27128e-49 -0.00970858 0
-5.19017e-49 -0.00970858 0
-3.04201e-49 -0.00970858 0
3.9823e-49 -0.00970858 0
-2.83101e-50 -0.00970858 0
-3.2606e-49 -0.00970858 0
-8.3717e-49 -0.00970858 0
-9.54264e-49 -0.00970858 0
-1.10475e-48 -0.00970858 0
1.12927e-48 -0.00970858 0
1.90011e-49 -0.00970858 0
-6.26475e-49 -0.00970858 0
-4.04367e-49 -0.00970858 0
-9.22677e-49 -0.00970858 0
5.40128e-49 -0.00970858 0
-7.24045e-49 -0.00970858 0
9.28987e-49 -0.00970858 0
6.42291e-50 -0.00970858 0
-9.62845e-49 -0.00970858 0
-1.12106e-48 -0.00970858 0
-1.74118e-49 -0.00970858 0
8.46497e-50 -0.00970858 0
1.97052e-49 -0.00970858 0
1.03991e-48 -0.00970858 0
SCALARS radius double 1
LOOKUP_TABLE default
0.0005192
0.000759374
0.000731582
0.000932767
0.000864852
0.00092132
0.000824734
0.000662097
0.000535446
0.00094621
0.000999249
0.000802661
0.000671708
0.000819153
0.000645007
0.000827505
0.000602392
0.000772815
0.000550095
0.000626194
0.000886859
0.000531918
0.000790192
0.000909137
0.00096445
SCALARS mass double 1
LOOKUP_TABLE default
0.00228657
0.0048913
0.00453983
0.00738005
0.00634449
0.00720004
0.00576955
0.0037184
0.0024319
0.00759432
0.00846957
0.00546484
0.00382714
0.00569173
0.00352892
0.00580838
0.00307803
0.005066
0.00256678
0.00332607
0.00667148
0.00239995
0.00529637
0.00701087
0.00788992
