# vtk DataFile Version 3.0
DEM2D particles
ASCII
DATASET POLYDATA
POINTS 25 double
0.000210492 -0.000720202 0
0.00247694 -0.00111949 0
0.00456711 -0.000472164 0
0.00674628 -0.000590878 0
0.00933215 0.000326248 0
0.000976388 0.00248042 0
0.00272805 0.00216487 0
0.00430175 0.00169606 0
0.00620408 0.00111874 0
0.00807857 0.00156471 0
0.00194188 0.00341738 0
0.00315848 0.00313646 0
0.00447748 0.00364066 0
0.00666273 0.00471321 0
0.00823043 0.00416573 0
0.0014505 0.00533606 0
0.0023961 0.00644943 0
0.00577483 0.00547451 0
0.00705357 0.00603612 0
0.00819693 0.00574183 0
6.49651e-05 0.00738302 0
0.00285477 0.00874303 0
0.0050706 0.00767582 0
0.00716435 0.00827083 0
0.00986735 0.00781974 0
VERTICES 25 50
1 0
1 1
1 2
1 3
1 4
1 5
1 6
1 7
1 8
1 9
1 10
1 11
1 12
1 13
1 14
1 15
1 16
1 17
1 18
1 19
1 20
1 21
1 22
1 23
1 24
POINT_DATA 25
VECTORS velocity double
-1.20162e-55 -0.00970858 0
-7.96092e-56 -0.00970858 0
-6.58854e-56 -0.00970858 0
-3.8616e-56 -0.00970858 0
5.05523e-56 -0.00970858 0
-3.59375e-57 -0.00970858 0
-4.1391e-56 -0.00970858 0
-1.06272e-55 -0.00970858 0
-1.21137e-55 -0.00970858 0
-1.4024e-55 -0.00970858 0
1.43353e-55 -0.00970858 0
2.41205e-56 -0.00970858 0
-7.95263e-56 -0.00970858 0
-5.13314e-56 -0.00970858 0
-1.17127e-55 -0.00970858 0
6.85653e-56 -0.00970858 0
-9.19122e-56 -0.00970858 0
1.17928e-55 -0.00970858 0
8.15341e-57 -0.00970858 0
-1.22226e-55 -0.00970858 0
-1.4231e-55 -0.00970858 0
-2.2103e-56 -0.00970858 0
1.07457e-56 -0.00970858 0
2.50143e-56 -0.00970858 0
1.32009e-55 -0.00970858 0
SCALARS radius double 1
LOOKUP_TABLE default
0.0005192
0.000759374
0.000731582
0.000932767
0.000864852
0.00092132
0.000824734
0.000662097
0.000535446
0.00094621
0.000999249
0.000802661
0.000671708
0.000819153
0.000645007
0.000827505
0.000602392
0.000772815
0.000550095
0.000626194
0.000886859
0.000531918
0.000790192
0.000909137
0.00096445
SCALARS mass double 1
LOOKUP_TABLE default
0.00228657
0.0048913
0.00453983
0.00738005
0.00634449
0.00720004
0.00576955
0.0037184
0.0024319
0.00759432
0.00846957
0.00546484
0.00382714
0.00569173
0.00352892
0.00580838
0.00307803
0.005066
0.00256678
0.00332607
0.00667148
0.00239995
0.00529637
0.00701087
0.00788992
