# vtk DataFile Version 3.0
DEM2D particles
ASCII
DATASET POLYDATA
POINTS 25 double
0.000210492 -0.00102311 0
0.00247694 -0.0014224 0
0.00456711 -0.000775072 0
0.00674628 -0.000893786 0
0.00933215 2.33404e-05 0
0.000976388 0.00217752 0
0.00272805 0.00186196 0
0.00430175 0.00139315 0
0.00620408 0.000815836 0
0.00807857 0.0012618 0
0.00194188 0.00311448 0
0.00315848 0.00283355 0
0.00447748 0.00333775 0
0.00666273 0.00441031 0
0.00823043 0.00386283 0
0.0014505 0.00503315 0
0.0023961 0.00614652 0
0.00577483 0.0051716 0
0.00705357 0.00573321 0
0.00819693 0.00543892 0
6.49651e-05 0.00708012 0
0.00285477 0.00844012 0
0.0050706 0.00737291 0
0.00716435 0.00796792 0
0.00986735 0.00751683 0
VERTICES 25 50
1 0
1 1
1 2
1 3
1 4
1 5
1 6
1 7
1 8
1 9
1 10
1 11
1 12
1 13
1 14
1 15
1 16
1 17
1 18
1 19
1 20
1 21
1 22
1 23
1 24
POINT_DATA 25
VECTORS velocity double
-2.8945e-69 -0.00970858 0
-1.91766e-69 -0.00970858 0
-1.58707e-69 -0.00970858 0
-9.30196e-70 -0.00970858 0
1.21772e-69 -0.00970858 0
-8.65676e-71 -0.00970858 0
-9.9704e-70 -0.00970858 0
-2.55993e-69 -0.00970858 0
-2.91799e-69 -0.00970858 0
-3.37816e-69 -0.00970858 0
3.45313e-69 -0.00970858 0
5.81023e-70 -0.00970858 0
-1.91566e-69 -0.00970858 0
-1.23649e-69 -0.00970858 0
-2.8214e-69 -0.00970858 0
1.65162e-69 -0.00970858 0
-2.21401e-69 -0.00970858 0
2.84069e-69 -0.00970858 0
1.96402e-70 -0.00970858 0
-2.94422e-69 -0.00970858 0
-3.42802e-69 -0.00970858 0
-5.32425e-70 -0.00970858 0
2.58845e-70 -0.00970858 0
6.02552e-70 -0.00970858 0
3.17987e-69 -0.00970858 0
SCALARS radius double 1
LOOKUP_TABLE default
0.0005192
0.000759374
0.000731582
0.000932767
0.000864852
0.00092132
0.000824734
0.000662097
0.000535446
0.00094621
0.000999249
0.000802661
0.000671708
0.000819153
0.000645007
0.000827505
0.000602392
0.000772815
0.000550095
0.000626194
0.000886859
0.000531918
0.000790192
0.000909137
0.00096445
SCALARS mass double 1
LOOKUP_TABLE default
0.00228657
0.0048913
0.00453983
0.00738005
0.00634449
0.00720004
0.00576955
0.0037184
0.0024319
0.00759432
0.00846957
0.00546484
0.00382714
0.00569173
0.00352892
0.00580838
0.00307803
0.005066
0.00256678
0.00332607
0.00667148
0.00239995
0.00529637
0.00701087
0.00788992
