# vtk DataFile Version 3.0
DEM2D particles
ASCII
DATASET POLYDATA
POINTS 25 double
0.000210493 0.000371044 0
0.00247694 -2.82449e-05 0
0.00456711 0.000619081 0
0.00674628 0.000500367 0
0.00933215 0.00141749 0
0.000976388 0.00357167 0
0.00272805 0.00325611 0
0.00430175 0.0027873 0
0.00620409 0.00220999 0
0.00807857 0.00265595 0
0.00194188 0.00450863 0
0.00315848 0.00422771 0
0.00447748 0.00473191 0
0.00666273 0.00580446 0
0.00823043 0.00525698 0
0.0014505 0.0064273 0
0.0023961 0.00754067 0
0.00577483 0.00656575 0
0.00705357 0.00712736 0
0.00819693 0.00683308 0
6.49667e-05 0.00847427 0
0.00285477 0.00983427 0
0.0050706 0.00876706 0
0.00716435 0.00936207 0
0.00986735 0.00891098 0
VERTICES 25 50
1 0
1 1
1 2
1 3
1 4
1 5
1 6
1 7
1 8
1 9
1 10
1 11
1 12
1 13
1 14
1 15
1 16
1 17
1 18
1 19
1 20
1 21
1 22
1 23
1 24
POINT_DATA 25
VECTORS velocity double
-1.38095e-06 -0.00970946 0
-9.14905e-07 -0.00971016 0
-7.57185e-07 -0.00970903 0
-4.43793e-07 -0.00970923 0
5.8097e-07 -0.00970763 0
-4.13011e-08 -0.00970736 0
-4.75684e-07 -0.00970791 0
-1.22133e-06 -0.00970873 0
-1.39216e-06 -0.00970974 0
-1.61171e-06 -0.00970896 0
1.64747e-06 -0.00970922 0
2.77204e-07 -0.00970971 0
-9.13953e-07 -0.00970883 0
-5.89923e-07 -0.00970695 0
-1.34608e-06 -0.00970791 0
7.87983e-07 -0.00970936 0
-1.0563e-06 -0.00970741 0
1.35528e-06 -0.00970912 0
9.37026e-08 -0.00970814 0
-1.40468e-06 -0.00970865 0
-1.6355e-06 -0.00970928 0
-2.54018e-07 -0.0097069 0
1.23494e-07 -0.00970877 0
2.87475e-07 -0.00970773 0
1.5171e-06 -0.00970852 0
SCALARS radius double 1
LOOKUP_TABLE default
0.0005192
0.000759374
0.000731582
0.000932767
0.000864852
0.00092132
0.000824734
0.000662097
0.000535446
0.00094621
0.000999249
0.000802661
0.000671708
0.000819153
0.000645007
0.000827505
0.000602392
0.000772815
0.000550095
0.000626194
0.000886859
0.000531918
0.000790192
0.000909137
0.00096445
SCALARS mass double 1
LOOKUP_TABLE default
0.00228657
0.0048913
0.00453983
0.00738005
0.00634449
0.00720004
0.00576955
0.0037184
0.0024319
0.00759432
0.00846957
0.00546484
0.00382714
0.00569173
0.00352892
0.00580838
0.00307803
0.005066
0.00256678
0.00332607
0.00667148
0.00239995
0.00529637
0.00701087
0.00788992
