# vtk DataFile Version 3.0
DEM2D particles
ASCII
DATASET POLYDATA
POINTS 25 double
0.000210492 -0.00125029 0
0.00247694 -0.00164958 0
0.00456711 -0.00100225 0
0.00674628 -0.00112097 0
0.00933215 -0.00020384 0
0.000976388 0.00195033 0
0.00272805 0.00163478 0
0.00430175 0.00116597 0
0.00620408 0.000588655 0
0.00807857 0.00103462 0
0.00194188 0.0028873 0
0.00315848 0.00260637 0
0.00447748 0.00311057 0
0.00666273 0.00418313 0
0.00823043 0.00363565 0
0.0014505 0.00480597 0
0.0023961 0.00591934 0
0.00577483 0.00494442 0
0.00705357 0.00550603 0
0.00819693 0.00521174 0
6.49651e-05 0.00685293 0
0.00285477 0.00821294 0
0.0050706 0.00714573 0
0.00716435 0.00774074 0
0.00986735 0.00728965 0
VERTICES 25 50
1 0
1 1
1 2
1 3
1 4
1 5
1 6
1 7
1 8
1 9
1 10
1 11
1 12
1 13
1 14
1 15
1 16
1 17
1 18
1 19
1 20
1 21
1 22
1 23
1 24
POINT_DATA 25
VECTORS velocity double
-1.76982e-79 -0.00970858 0
-1.17254e-79 -0.00970858 0
-9.70402e-80 -0.00970858 0
-5.68761e-80 -0.00970858 0
7.44566e-80 -0.00970858 0
-5.29311e-81 -0.00970858 0
-6.09632e-80 -0.00970858 0
-1.56525e-79 -0.00970858 0
-1.78418e-79 -0.00970858 0
-2.06555e-79 -0.00970858 0
2.11139e-79 -0.00970858 0
3.55262e-80 -0.00970858 0
-1.17131e-79 -0.00970858 0
-7.56041e-80 -0.00970858 0
-1.72512e-79 -0.00970858 0
1.00987e-79 -0.00970858 0
-1.35374e-79 -0.00970858 0
1.73692e-79 -0.00970858 0
1.20089e-80 -0.00970858 0
-1.80022e-79 -0.00970858 0
-2.09604e-79 -0.00970858 0
-3.25547e-80 -0.00970858 0
1.58269e-80 -0.00970858 0
3.68426e-80 -0.00970858 0
1.94431e-79 -0.00970858 0
SCALARS radius double 1
LOOKUP_TABLE default
0.0005192
0.000759374
0.000731582
0.000932767
0.000864852
0.00092132
0.000824734
0.000662097
0.000535446
0.00094621
0.000999249
0.000802661
0.000671708
0.000819153
0.000645007
0.000827505
0.000602392
0.000772815
0.000550095
0.000626194
0.000886859
0.000531918
0.000790192
0.000909137
0.00096445
SCALARS mass double 1
LOOKUP_TABLE default
0.00228657
0.0048913
0.00453983
0.00738005
0.00634449
0.00720004
0.00576955
0.0037184
0.0024319
0.00759432
0.00846957
0.00546484
0.00382714
0.00569173
0.00352892
0.00580838
0.00307803
0.005066
0.00256678
0.00332607
0.00667148
0.00239995
0.00529637
0.00701087
0.00788992
