# vtk DataFile Version 3.0
DEM2D particles
ASCII
DATASET POLYDATA
POINTS 25 double
0.000210492 -0.000778454 0
0.00247694 -0.00117774 0
0.00456711 -0.000530416 0
0.00674628 -0.00064913 0
0.00933215 0.000267997 0
0.000976388 0.00242217 0
0.00272805 0.00210662 0
0.00430175 0.00163781 0
0.00620408 0.00106049 0
0.00807857 0.00150645 0
0.00194188 0.00335913 0
0.00315848 0.00307821 0
0.00447748 0.00358241 0
0.00666273 0.00465496 0
0.00823043 0.00410748 0
0.0014505 0.00527781 0
0.0023961 0.00639118 0
0.00577483 0.00541625 0
0.00705357 0.00597787 0
0.00819693 0.00568358 0
6.49651e-05 0.00732477 0
0.00285477 0.00868478 0
0.0050706 0.00761756 0
0.00716435 0.00821258 0
0.00986735 0.00776149 0
VERTICES 25 50
1 0
1 1
1 2
1 3
1 4
1 5
1 6
1 7
1 8
1 9
1 10
1 11
1 12
1 13
1 14
1 15
1 16
1 17
1 18
1 19
1 20
1 21
1 22
1 23
1 24
POINT_DATA 25
VECTORS velocity double
-2.8899e-58 -0.00970858 0
-1.91461e-58 -0.00970858 0
-1.58455e-58 -0.00970858 0
-9.28719e-59 -0.00970858 0
1.21579e-58 -0.00970858 0
-8.64301e-60 -0.00970858 0
-9.95457e-59 -0.00970858 0
-2.55586e-58 -0.00970858 0
-2.91335e-58 -0.00970858 0
-3.37279e-58 -0.00970858 0
3.44764e-58 -0.00970858 0
5.801e-59 -0.00970858 0
-1.91262e-58 -0.00970858 0
-1.23452e-58 -0.00970858 0
-2.81692e-58 -0.00970858 0
1.649e-58 -0.00970858 0
-2.2105e-58 -0.00970858 0
2.83618e-58 -0.00970858 0
1.9609e-59 -0.00970858 0
-2.93955e-58 -0.00970858 0
-3.42258e-58 -0.00970858 0
-5.3158e-59 -0.00970858 0
2.58434e-59 -0.00970858 0
6.01595e-59 -0.00970858 0
3.17482e-58 -0.00970858 0
SCALARS radius double 1
LOOKUP_TABLE default
0.0005192
0.000759374
0.000731582
0.000932767
0.000864852
0.00092132
0.000824734
0.000662097
0.000535446
0.00094621
0.000999249
0.000802661
0.000671708
0.000819153
0.000645007
0.000827505
0.000602392
0.000772815
0.000550095
0.000626194
0.000886859
0.000531918
0.000790192
0.000909137
0.00096445
SCALARS mass double 1
LOOKUP_TABLE default
0.00228657
0.0048913
0.00453983
0.00738005
0.00634449
0.00720004
0.00576955
0.0037184
0.0024319
0.00759432
0.00846957
0.00546484
0.00382714
0.00569173
0.00352892
0.00580838
0.00307803
0.005066
0.00256678
0.00332607
0.00667148
0.00239995
0.00529637
0.00701087
0.00788992
