# vtk DataFile Version 3.0
DEM2D particles
ASCII
DATASET POLYDATA
POINTS 25 double
0.000210492 -0.000793987 0
0.00247694 -0.00119328 0
0.00456711 -0.000545949 0
0.00674628 -0.000664663 0
0.00933215 0.000252463 0
0.000976388 0.00240664 0
0.00272805 0.00209109 0
0.00430175 0.00162227 0
0.00620408 0.00104496 0
0.00807857 0.00149092 0
0.00194188 0.0033436 0
0.00315848 0.00306267 0
0.00447748 0.00356688 0
0.00666273 0.00463943 0
0.00823043 0.00409195 0
0.0014505 0.00526227 0
0.0023961 0.00637564 0
0.00577483 0.00540072 0
0.00705357 0.00596233 0
0.00819693 0.00566805 0
6.49651e-05 0.00730924 0
0.00285477 0.00866924 0
0.0050706 0.00760203 0
0.00716435 0.00819704 0
0.00986735 0.00774595 0
VERTICES 25 50
1 0
1 1
1 2
1 3
1 4
1 5
1 6
1 7
1 8
1 9
1 10
1 11
1 12
1 13
1 14
1 15
1 16
1 17
1 18
1 19
1 20
1 21
1 22
1 23
1 24
POINT_DATA 25
VECTORS velocity double
-5.7878e-59 -0.00970858 0
-3.83452e-59 -0.00970858 0
-3.17349e-59 -0.00970858 0
-1.86001e-59 -0.00970858 0
2.43494e-59 -0.00970858 0
-1.731e-60 -0.00970858 0
-1.99367e-59 -0.00970858 0
-5.11881e-59 -0.00970858 0
-5.83477e-59 -0.00970858 0
-6.75493e-59 -0.00970858 0
6.90484e-59 -0.00970858 0
1.16181e-59 -0.00970858 0
-3.83053e-59 -0.00970858 0
-2.47247e-59 -0.00970858 0
-5.64164e-59 -0.00970858 0
3.30257e-59 -0.00970858 0
-4.42712e-59 -0.00970858 0
5.68022e-59 -0.00970858 0
3.92724e-60 -0.00970858 0
-5.88724e-59 -0.00970858 0
-6.85464e-59 -0.00970858 0
-1.06463e-59 -0.00970858 0
5.17584e-60 -0.00970858 0
1.20486e-59 -0.00970858 0
6.35843e-59 -0.00970858 0
SCALARS radius double 1
LOOKUP_TABLE default
0.0005192
0.000759374
0.000731582
0.000932767
0.000864852
0.00092132
0.000824734
0.000662097
0.000535446
0.00094621
0.000999249
0.000802661
0.000671708
0.000819153
0.000645007
0.000827505
0.000602392
0.000772815
0.000550095
0.000626194
0.000886859
0.000531918
0.000790192
0.000909137
0.00096445
SCALARS mass double 1
LOOKUP_TABLE default
0.00228657
0.0048913
0.00453983
0.00738005
0.00634449
0.00720004
0.00576955
0.0037184
0.0024319
0.00759432
0.00846957
0.00546484
0.00382714
0.00569173
0.00352892
0.00580838
0.00307803
0.005066
0.00256678
0.00332607
0.00667148
0.00239995
0.00529637
0.00701087
0.00788992
