# vtk DataFile Version 3.0
DEM2D particles
ASCII
DATASET POLYDATA
POINTS 25 double
0.000210492 4.05826e-06 0
0.00247694 -0.000395231 0
0.00456711 0.000252096 0
0.00674628 0.000133382 0
0.00933215 0.00105051 0
0.000976388 0.00320468 0
0.00272805 0.00288913 0
0.00430175 0.00242032 0
0.00620408 0.001843 0
0.00807857 0.00228897 0
0.00194188 0.00414164 0
0.00315848 0.00386072 0
0.00447748 0.00436492 0
0.00666273 0.00543747 0
0.00823043 0.00488999 0
0.0014505 0.00606032 0
0.0023961 0.00717369 0
0.00577483 0.00619877 0
0.00705357 0.00676038 0
0.00819693 0.00646609 0
6.49651e-05 0.00810728 0
0.00285477 0.00946729 0
0.0050706 0.00840008 0
0.00716435 0.00899509 0
0.00986735 0.008544 0
VERTICES 25 50
1 0
1 1
1 2
1 3
1 4
1 5
1 6
1 7
1 8
1 9
1 10
1 11
1 12
1 13
1 14
1 15
1 16
1 17
1 18
1 19
1 20
1 21
1 22
1 23
1 24
POINT_DATA 25
VECTORS velocity double
-4.37738e-23 -0.00970858 0
-2.90009e-23 -0.00970858 0
-2.40015e-23 -0.00970858 0
-1.40675e-23 -0.00970858 0
1.84157e-23 -0.00970858 0
-1.30917e-24 -0.00970858 0
-1.50784e-23 -0.00970858 0
-3.87141e-23 -0.00970858 0
-4.4129e-23 -0.00970858 0
-5.10883e-23 -0.00970858 0
5.22221e-23 -0.00970858 0
8.78688e-24 -0.00970858 0
-2.89707e-23 -0.00970858 0
-1.86995e-23 -0.00970858 0
-4.26683e-23 -0.00970858 0
2.49777e-23 -0.00970858 0
-3.34828e-23 -0.00970858 0
4.29601e-23 -0.00970858 0
2.97021e-24 -0.00970858 0
-4.45258e-23 -0.00970858 0
-5.18424e-23 -0.00970858 0
-8.05193e-24 -0.00970858 0
3.91454e-24 -0.00970858 0
9.11247e-24 -0.00970858 0
4.80895e-23 -0.00970858 0
SCALARS radius double 1
LOOKUP_TABLE default
0.0005192
0.000759374
0.000731582
0.000932767
0.000864852
0.00092132
0.000824734
0.000662097
0.000535446
0.00094621
0.000999249
0.000802661
0.000671708
0.000819153
0.000645007
0.000827505
0.000602392
0.000772815
0.000550095
0.000626194
0.000886859
0.000531918
0.000790192
0.000909137
0.00096445
SCALARS mass double 1
LOOKUP_TABLE default
0.00228657
0.0048913
0.00453983
0.00738005
0.00634449
0.00720004
0.00576955
0.0037184
0.0024319
0.00759432
0.00846957
0.00546484
0.00382714
0.00569173
0.00352892
0.00580838
0.00307803
0.005066
0.00256678
0.00332607
0.00667148
0.00239995
0.00529637
0.00701087
0.00788992
