# vtk DataFile Version 3.0
DEM2D particles
ASCII
DATASET POLYDATA
POINTS 25 double
0.000210492 -0.0013299 0
0.00247694 -0.00172919 0
0.00456711 -0.00108186 0
0.00674628 -0.00120058 0
0.00933215 -0.000283451 0
0.000976388 0.00187072 0
0.00272805 0.00155517 0
0.00430175 0.00108636 0
0.00620408 0.000509045 0
0.00807857 0.000955006 0
0.00194188 0.00280769 0
0.00315848 0.00252676 0
0.00447748 0.00303096 0
0.00666273 0.00410352 0
0.00823043 0.00355604 0
0.0014505 0.00472636 0
0.0023961 0.00583973 0
0.00577483 0.00486481 0
0.00705357 0.00542642 0
0.00819693 0.00513213 0
6.49651e-05 0.00677332 0
0.00285477 0.00813333 0
0.0050706 0.00706612 0
0.00716435 0.00766113 0
0.00986735 0.00721004 0
VERTICES 25 50
1 0
1 1
1 2
1 3
1 4
1 5
1 6
1 7
1 8
1 9
1 10
1 11
1 12
1 13
1 14
1 15
1 16
1 17
1 18
1 19
1 20
1 21
1 22
1 23
1 24
POINT_DATA 25
VECTORS velocity double
-4.66431e-83 -0.00970858 0
-3.09019e-83 -0.00970858 0
-2.55747e-83 -0.00970858 0
-1.49896e-83 -0.00970858 0
1.96229e-83 -0.00970858 0
-1.39499e-84 -0.00970858 0
-1.60667e-83 -0.00970858 0
-4.12518e-83 -0.00970858 0
-4.70217e-83 -0.00970858 0
-5.44371e-83 -0.00970858 0
5.56452e-83 -0.00970858 0
9.36286e-84 -0.00970858 0
-3.08697e-83 -0.00970858 0
-1.99253e-83 -0.00970858 0
-4.54652e-83 -0.00970858 0
2.6615e-83 -0.00970858 0
-3.56776e-83 -0.00970858 0
4.57762e-83 -0.00970858 0
3.16491e-84 -0.00970858 0
-4.74445e-83 -0.00970858 0
-5.52407e-83 -0.00970858 0
-8.57973e-84 -0.00970858 0
4.17114e-84 -0.00970858 0
9.70979e-84 -0.00970858 0
5.12418e-83 -0.00970858 0
SCALARS radius double 1
LOOKUP_TABLE default
0.0005192
0.000759374
0.000731582
0.000932767
0.000864852
0.00092132
0.000824734
0.000662097
0.000535446
0.00094621
0.000999249
0.000802661
0.000671708
0.000819153
0.000645007
0.000827505
0.000602392
0.000772815
0.000550095
0.000626194
0.000886859
0.000531918
0.000790192
0.000909137
0.00096445
SCALARS mass double 1
LOOKUP_TABLE default
0.00228657
0.0048913
0.00453983
0.00738005
0.00634449
0.00720004
0.00576955
0.0037184
0.0024319
0.00759432
0.00846957
0.00546484
0.00382714
0.00569173
0.00352892
0.00580838
0.00307803
0.005066
0.00256678
0.00332607
0.00667148
0.00239995
0.00529637
0.00701087
0.00788992
