# vtk DataFile Version 3.0
DEM2D particles
ASCII
DATASET POLYDATA
POINTS 25 double
0.000210492 0.000347742 0
0.00247694 -5.15469e-05 0
0.00456711 0.00059578 0
0.00674628 0.000477066 0
0.00933215 0.00139419 0
0.000976388 0.00354837 0
0.00272805 0.00323281 0
0.00430175 0.002764 0
0.00620408 0.00218669 0
0.00807857 0.00263265 0
0.00194188 0.00448533 0
0.00315848 0.0042044 0
0.00447748 0.00470861 0
0.00666273 0.00578116 0
0.00823043 0.00523368 0
0.0014505 0.006404 0
0.0023961 0.00751737 0
0.00577483 0.00654245 0
0.00705357 0.00710406 0
0.00819693 0.00680978 0
6.49652e-05 0.00845097 0
0.00285477 0.00981097 0
0.0050706 0.00874376 0
0.00716435 0.00933877 0
0.00986735 0.00888768 0
VERTICES 25 50
1 0
1 1
1 2
1 3
1 4
1 5
1 6
1 7
1 8
1 9
1 10
1 11
1 12
1 13
1 14
1 15
1 16
1 17
1 18
1 19
1 20
1 21
1 22
1 23
1 24
POINT_DATA 25
VECTORS velocity double
-1.23773e-07 -0.00970866 0
-8.20017e-08 -0.00970872 0
-6.78654e-08 -0.00970862 0
-3.97765e-08 -0.00970864 0
5.20715e-08 -0.0097085 0
-3.70176e-09 -0.00970847 0
-4.26349e-08 -0.00970852 0
-1.09466e-07 -0.0097086 0
-1.24777e-07 -0.00970869 0
-1.44455e-07 -0.00970862 0
1.47661e-07 -0.00970864 0
2.48454e-08 -0.00970868 0
-8.19163e-08 -0.00970861 0
-5.2874e-08 -0.00970844 0
-1.20647e-07 -0.00970852 0
7.06258e-08 -0.00970865 0
-9.46744e-08 -0.00970848 0
1.21472e-07 -0.00970863 0
8.39844e-09 -0.00970854 0
-1.25899e-07 -0.00970859 0
-1.46587e-07 -0.00970865 0
-2.27673e-08 -0.00970843 0
1.10686e-08 -0.0097086 0
2.5766e-08 -0.00970851 0
1.35976e-07 -0.00970858 0
SCALARS radius double 1
LOOKUP_TABLE default
0.0005192
0.000759374
0.000731582
0.000932767
0.000864852
0.00092132
0.000824734
0.000662097
0.000535446
0.00094621
0.000999249
0.000802661
0.000671708
0.000819153
0.000645007
0.000827505
0.000602392
0.000772815
0.000550095
0.000626194
0.000886859
0.000531918
0.000790192
0.000909137
0.00096445
SCALARS mass double 1
LOOKUP_TABLE default
0.00228657
0.0048913
0.00453983
0.00738005
0.00634449
0.00720004
0.00576955
0.0037184
0.0024319
0.00759432
0.00846957
0.00546484
0.00382714
0.00569173
0.00352892
0.00580838
0.00307803
0.005066
0.00256678
0.00332607
0.00667148
0.00239995
0.00529637
0.00701087
0.00788992
