# vtk DataFile Version 3.0
DEM2D particles
ASCII
DATASET POLYDATA
POINTS 25 double
0.000210492 -0.00133767 0
0.00247694 -0.00173696 0
0.00456711 -0.00108963 0
0.00674628 -0.00120834 0
0.00933215 -0.000291218 0
0.000976388 0.00186296 0
0.00272805 0.0015474 0
0.00430175 0.00107859 0
0.00620408 0.000501278 0
0.00807857 0.000947239 0
0.00194188 0.00279992 0
0.00315848 0.00251899 0
0.00447748 0.0030232 0
0.00666273 0.00409575 0
0.00823043 0.00354827 0
0.0014505 0.00471859 0
0.0023961 0.00583196 0
0.00577483 0.00485704 0
0.00705357 0.00541865 0
0.00819693 0.00512437 0
6.49651e-05 0.00676556 0
0.00285477 0.00812556 0
0.0050706 0.00705835 0
0.00716435 0.00765336 0
0.00986735 0.00720227 0
VERTICES 25 50
1 0
1 1
1 2
1 3
1 4
1 5
1 6
1 7
1 8
1 9
1 10
1 11
1 12
1 13
1 14
1 15
1 16
1 17
1 18
1 19
1 20
1 21
1 22
1 23
1 24
POINT_DATA 25
VECTORS velocity double
-2.08739e-83 -0.00970858 0
-1.38293e-83 -0.00970858 0
-1.14453e-83 -0.00970858 0
-6.70819e-84 -0.00970858 0
8.7817e-84 -0.00970858 0
-6.2429e-85 -0.00970858 0
-7.19024e-84 -0.00970858 0
-1.84611e-83 -0.00970858 0
-2.10433e-83 -0.00970858 0
-2.43619e-83 -0.00970858 0
2.49025e-83 -0.00970858 0
4.1901e-84 -0.00970858 0
-1.38149e-83 -0.00970858 0
-8.91703e-84 -0.00970858 0
-2.03467e-83 -0.00970858 0
1.19108e-83 -0.00970858 0
-1.59665e-83 -0.00970858 0
2.04859e-83 -0.00970858 0
1.41637e-84 -0.00970858 0
-2.12325e-83 -0.00970858 0
-2.47215e-83 -0.00970858 0
-3.83963e-84 -0.00970858 0
1.86668e-84 -0.00970858 0
4.34536e-84 -0.00970858 0
2.29319e-83 -0.00970858 0
SCALARS radius double 1
LOOKUP_TABLE default
0.0005192
0.000759374
0.000731582
0.000932767
0.000864852
0.00092132
0.000824734
0.000662097
0.000535446
0.00094621
0.000999249
0.000802661
0.000671708
0.000819153
0.000645007
0.000827505
0.000602392
0.000772815
0.000550095
0.000626194
0.000886859
0.000531918
0.000790192
0.000909137
0.00096445
SCALARS mass double 1
LOOKUP_TABLE default
0.00228657
0.0048913
0.00453983
0.00738005
0.00634449
0.00720004
0.00576955
0.0037184
0.0024319
0.00759432
0.00846957
0.00546484
0.00382714
0.00569173
0.00352892
0.00580838
0.00307803
0.005066
0.00256678
0.00332607
0.00667148
0.00239995
0.00529637
0.00701087
0.00788992
