# vtk DataFile Version 3.0
DEM2D particles
ASCII
DATASET POLYDATA
POINTS 25 double
0.000210492 -0.00113573 0
0.00247694 -0.00153502 0
0.00456711 -0.000887692 0
0.00674628 -0.00100641 0
0.00933215 -8.92792e-05 0
0.000976388 0.0020649 0
0.00272805 0.00174934 0
0.00430175 0.00128053 0
0.00620408 0.000703216 0
0.00807857 0.00114918 0
0.00194188 0.00300186 0
0.00315848 0.00272093 0
0.00447748 0.00322513 0
0.00666273 0.00429769 0
0.00823043 0.00375021 0
0.0014505 0.00492053 0
0.0023961 0.0060339 0
0.00577483 0.00505898 0
0.00705357 0.00562059 0
0.00819693 0.00532631 0
6.49651e-05 0.0069675 0
0.00285477 0.0083275 0
0.0050706 0.00726029 0
0.00716435 0.0078553 0
0.00986735 0.00740421 0
VERTICES 25 50
1 0
1 1
1 2
1 3
1 4
1 5
1 6
1 7
1 8
1 9
1 10
1 11
1 12
1 13
1 14
1 15
1 16
1 17
1 18
1 19
1 20
1 21
1 22
1 23
1 24
POINT_DATA 25
VECTORS velocity double
-2.50264e-74 -0.00970858 0
-1.65805e-74 -0.00970858 0
-1.37221e-74 -0.00970858 0
-8.04267e-75 -0.00970858 0
1.05287e-74 -0.00970858 0
-7.48482e-76 -0.00970858 0
-8.62062e-75 -0.00970858 0
-2.21337e-74 -0.00970858 0
-2.52295e-74 -0.00970858 0
-2.92083e-74 -0.00970858 0
2.98565e-74 -0.00970858 0
5.02365e-75 -0.00970858 0
-1.65632e-74 -0.00970858 0
-1.06909e-74 -0.00970858 0
-2.43944e-74 -0.00970858 0
1.42803e-74 -0.00970858 0
-1.91428e-74 -0.00970858 0
2.45612e-74 -0.00970858 0
1.69813e-75 -0.00970858 0
-2.54564e-74 -0.00970858 0
-2.96394e-74 -0.00970858 0
-4.60346e-75 -0.00970858 0
2.23803e-75 -0.00970858 0
5.20979e-75 -0.00970858 0
2.74938e-74 -0.00970858 0
SCALARS radius double 1
LOOKUP_TABLE default
0.0005192
0.000759374
0.000731582
0.000932767
0.000864852
0.00092132
0.000824734
0.000662097
0.000535446
0.00094621
0.000999249
0.000802661
0.000671708
0.000819153
0.000645007
0.000827505
0.000602392
0.000772815
0.000550095
0.000626194
0.000886859
0.000531918
0.000790192
0.000909137
0.00096445
SCALARS mass double 1
LOOKUP_TABLE default
0.00228657
0.0048913
0.00453983
0.00738005
0.00634449
0.00720004
0.00576955
0.0037184
0.0024319
0.00759432
0.00846957
0.00546484
0.00382714
0.00569173
0.00352892
0.00580838
0.00307803
0.005066
0.00256678
0.00332607
0.00667148
0.00239995
0.00529637
0.00701087
0.00788992
