# vtk DataFile Version 3.0
DEM2D particles
ASCII
DATASET POLYDATA
POINTS 25 double
0.000210492 -0.00141922 0
0.00247694 -0.00181851 0
0.00456711 -0.00117118 0
0.00674628 -0.0012899 0
0.00933215 -0.00037277 0
0.000976388 0.0017814 0
0.00272805 0.00146585 0
0.00430175 0.000997041 0
0.00620408 0.000419726 0
0.00807857 0.000865687 0
0.00194188 0.00271837 0
0.00315848 0.00243744 0
0.00447748 0.00294164 0
0.00666273 0.0040142 0
0.00823043 0.00346672 0
0.0014505 0.00463704 0
0.0023961 0.00575041 0
0.00577483 0.00477549 0
0.00705357 0.0053371 0
0.00819693 0.00504281 0
6.49651e-05 0.006684 0
0.00285477 0.00804401 0
0.0050706 0.0069768 0
0.00716435 0.00757181 0
0.00986735 0.00712072 0
VERTICES 25 50
1 0
1 1
1 2
1 3
1 4
1 5
1 6
1 7
1 8
1 9
1 10
1 11
1 12
1 13
1 14
1 15
1 16
1 17
1 18
1 19
1 20
1 21
1 22
1 23
1 24
POINT_DATA 25
VECTORS velocity double
-4.49953e-87 -0.00970858 0
-2.98102e-87 -0.00970858 0
-2.46712e-87 -0.00970858 0
-1.446e-87 -0.00970858 0
1.89296e-87 -0.00970858 0
-1.3457e-88 -0.00970858 0
-1.54991e-87 -0.00970858 0
-3.97944e-87 -0.00970858 0
-4.53604e-87 -0.00970858 0
-5.25139e-87 -0.00970858 0
5.36793e-87 -0.00970858 0
9.03207e-88 -0.00970858 0
-2.97791e-87 -0.00970858 0
-1.92214e-87 -0.00970858 0
-4.3859e-87 -0.00970858 0
2.56747e-87 -0.00970858 0
-3.44171e-87 -0.00970858 0
4.41589e-87 -0.00970858 0
3.05309e-88 -0.00970858 0
-4.57683e-87 -0.00970858 0
-5.3289e-87 -0.00970858 0
-8.27661e-88 -0.00970858 0
4.02378e-88 -0.00970858 0
9.36675e-88 -0.00970858 0
4.94314e-87 -0.00970858 0
SCALARS radius double 1
LOOKUP_TABLE default
0.0005192
0.000759374
0.000731582
0.000932767
0.000864852
0.00092132
0.000824734
0.000662097
0.000535446
0.00094621
0.000999249
0.000802661
0.000671708
0.000819153
0.000645007
0.000827505
0.000602392
0.000772815
0.000550095
0.000626194
0.000886859
0.000531918
0.000790192
0.000909137
0.00096445
SCALARS mass double 1
LOOKUP_TABLE default
0.00228657
0.0048913
0.00453983
0.00738005
0.00634449
0.00720004
0.00576955
0.0037184
0.0024319
0.00759432
0.00846957
0.00546484
0.00382714
0.00569173
0.00352892
0.00580838
0.00307803
0.005066
0.00256678
0.00332607
0.00667148
0.00239995
0.00529637
0.00701087
0.00788992
