# vtk DataFile Version 3.0
DEM2D particles
ASCII
DATASET POLYDATA
POINTS 25 double
0.000210492 -0.000372635 0
0.00247694 -0.000771924 0
0.00456711 -0.000124597 0
0.00674628 -0.000243311 0
0.00933215 0.000673815 0
0.000976388 0.00282799 0
0.00272805 0.00251244 0
0.00430175 0.00204363 0
0.00620408 0.00146631 0
0.00807857 0.00191227 0
0.00194188 0.00376495 0
0.00315848 0.00348403 0
0.00447748 0.00398823 0
0.00666273 0.00506078 0
0.00823043 0.0045133 0
0.0014505 0.00568363 0
0.0023961 0.00679699 0
0.00577483 0.00582207 0
0.00705357 0.00638369 0
0.00819693 0.0060894 0
6.49651e-05 0.00773059 0
0.00285477 0.0090906 0
0.0050706 0.00802338 0
0.00716435 0.0086184 0
0.00986735 0.00816731 0
VERTICES 25 50
1 0
1 1
1 2
1 3
1 4
1 5
1 6
1 7
1 8
1 9
1 10
1 11
1 12
1 13
1 14
1 15
1 16
1 17
1 18
1 19
1 20
1 21
1 22
1 23
1 24
POINT_DATA 25
VECTORS velocity double
-5.07889e-40 -0.00970858 0
-3.36486e-40 -0.00970858 0
-2.78479e-40 -0.00970858 0
-1.63219e-40 -0.00970858 0
2.1367e-40 -0.00970858 0
-1.51898e-41 -0.00970858 0
-1.74948e-40 -0.00970858 0
-4.49184e-40 -0.00970858 0
-5.12011e-40 -0.00970858 0
-5.92756e-40 -0.00970858 0
6.05911e-40 -0.00970858 0
1.01951e-40 -0.00970858 0
-3.36135e-40 -0.00970858 0
-2.16963e-40 -0.00970858 0
-4.95063e-40 -0.00970858 0
2.89806e-40 -0.00970858 0
-3.88487e-40 -0.00970858 0
4.98449e-40 -0.00970858 0
3.44622e-41 -0.00970858 0
-5.16615e-40 -0.00970858 0
-6.01506e-40 -0.00970858 0
-9.34232e-41 -0.00970858 0
4.54189e-41 -0.00970858 0
1.05728e-40 -0.00970858 0
5.57963e-40 -0.00970858 0
SCALARS radius double 1
LOOKUP_TABLE default
0.0005192
0.000759374
0.000731582
0.000932767
0.000864852
0.00092132
0.000824734
0.000662097
0.000535446
0.00094621
0.000999249
0.000802661
0.000671708
0.000819153
0.000645007
0.000827505
0.000602392
0.000772815
0.000550095
0.000626194
0.000886859
0.000531918
0.000790192
0.000909137
0.00096445
SCALARS mass double 1
LOOKUP_TABLE default
0.00228657
0.0048913
0.00453983
0.00738005
0.00634449
0.00720004
0.00576955
0.0037184
0.0024319
0.00759432
0.00846957
0.00546484
0.00382714
0.00569173
0.00352892
0.00580838
0.00307803
0.005066
0.00256678
0.00332607
0.00667148
0.00239995
0.00529637
0.00701087
0.00788992
