# vtk DataFile Version 3.0
DEM2D particles
ASCII
DATASET POLYDATA
POINTS 25 double
0.000210492 -0.000801754 0
0.00247694 -0.00120104 0
0.00456711 -0.000553716 0
0.00674628 -0.00067243 0
0.00933215 0.000244696 0
0.000976388 0.00239887 0
0.00272805 0.00208332 0
0.00430175 0.00161451 0
0.00620408 0.00103719 0
0.00807857 0.00148315 0
0.00194188 0.00333583 0
0.00315848 0.00305491 0
0.00447748 0.00355911 0
0.00666273 0.00463166 0
0.00823043 0.00408418 0
0.0014505 0.00525451 0
0.0023961 0.00636787 0
0.00577483 0.00539295 0
0.00705357 0.00595457 0
0.00819693 0.00566028 0
6.49651e-05 0.00730147 0
0.00285477 0.00866148 0
0.0050706 0.00759426 0
0.00716435 0.00818928 0
0.00986735 0.00773819 0
VERTICES 25 50
1 0
1 1
1 2
1 3
1 4
1 5
1 6
1 7
1 8
1 9
1 10
1 11
1 12
1 13
1 14
1 15
1 16
1 17
1 18
1 19
1 20
1 21
1 22
1 23
1 24
POINT_DATA 25
VECTORS velocity double
-2.59018e-59 -0.00970858 0
-1.71604e-59 -0.00970858 0
-1.42021e-59 -0.00970858 0
-8.32398e-60 -0.00970858 0
1.08969e-59 -0.00970858 0
-7.74661e-61 -0.00970858 0
-8.92214e-60 -0.00970858 0
-2.29079e-59 -0.00970858 0
-2.6112e-59 -0.00970858 0
-3.02299e-59 -0.00970858 0
3.09008e-59 -0.00970858 0
5.19936e-60 -0.00970858 0
-1.71425e-59 -0.00970858 0
-1.10649e-59 -0.00970858 0
-2.52476e-59 -0.00970858 0
1.47798e-59 -0.00970858 0
-1.98124e-59 -0.00970858 0
2.54203e-59 -0.00970858 0
1.75753e-60 -0.00970858 0
-2.63468e-59 -0.00970858 0
-3.06761e-59 -0.00970858 0
-4.76447e-60 -0.00970858 0
2.31631e-60 -0.00970858 0
5.39202e-60 -0.00970858 0
2.84555e-59 -0.00970858 0
SCALARS radius double 1
LOOKUP_TABLE default
0.0005192
0.000759374
0.000731582
0.000932767
0.000864852
0.00092132
0.000824734
0.000662097
0.000535446
0.00094621
0.000999249
0.000802661
0.000671708
0.000819153
0.000645007
0.000827505
0.000602392
0.000772815
0.000550095
0.000626194
0.000886859
0.000531918
0.000790192
0.000909137
0.00096445
SCALARS mass double 1
LOOKUP_TABLE default
0.00228657
0.0048913
0.00453983
0.00738005
0.00634449
0.00720004
0.00576955
0.0037184
0.0024319
0.00759432
0.00846957
0.00546484
0.00382714
0.00569173
0.00352892
0.00580838
0.00307803
0.005066
0.00256678
0.00332607
0.00667148
0.00239995
0.00529637
0.00701087
0.00788992
