# vtk DataFile Version 3.0
DEM2D particles
ASCII
DATASET POLYDATA
POINTS 25 double
0.000210492 -0.000380402 0
0.00247694 -0.000779691 0
0.00456711 -0.000132364 0
0.00674628 -0.000251078 0
0.00933215 0.000666049 0
0.000976388 0.00282022 0
0.00272805 0.00250467 0
0.00430175 0.00203586 0
0.00620408 0.00145854 0
0.00807857 0.00190451 0
0.00194188 0.00375718 0
0.00315848 0.00347626 0
0.00447748 0.00398046 0
0.00666273 0.00505301 0
0.00823043 0.00450553 0
0.0014505 0.00567586 0
0.0023961 0.00678923 0
0.00577483 0.00581431 0
0.00705357 0.00637592 0
0.00819693 0.00608163 0
6.49651e-05 0.00772282 0
0.00285477 0.00908283 0
0.0050706 0.00801562 0
0.00716435 0.00861063 0
0.00986735 0.00815954 0
VERTICES 25 50
1 0
1 1
1 2
1 3
1 4
1 5
1 6
1 7
1 8
1 9
1 10
1 11
1 12
1 13
1 14
1 15
1 16
1 17
1 18
1 19
1 20
1 21
1 22
1 23
1 24
POINT_DATA 25
VECTORS velocity double
-2.27292e-40 -0.00970858 0
-1.50585e-40 -0.00970858 0
-1.24626e-40 -0.00970858 0
-7.30443e-41 -0.00970858 0
9.56224e-41 -0.00970858 0
-6.79778e-42 -0.00970858 0
-7.82933e-41 -0.00970858 0
-2.0102e-40 -0.00970858 0
-2.29137e-40 -0.00970858 0
-2.65272e-40 -0.00970858 0
2.71159e-40 -0.00970858 0
4.56253e-41 -0.00970858 0
-1.50428e-40 -0.00970858 0
-9.70961e-41 -0.00970858 0
-2.21552e-40 -0.00970858 0
1.29695e-40 -0.00970858 0
-1.73857e-40 -0.00970858 0
2.23067e-40 -0.00970858 0
1.54226e-41 -0.00970858 0
-2.31197e-40 -0.00970858 0
-2.69188e-40 -0.00970858 0
-4.18091e-41 -0.00970858 0
2.0326e-41 -0.00970858 0
4.73158e-41 -0.00970858 0
2.49701e-40 -0.00970858 0
SCALARS radius double 1
LOOKUP_TABLE default
0.0005192
0.000759374
0.000731582
0.000932767
0.000864852
0.00092132
0.000824734
0.000662097
0.000535446
0.00094621
0.000999249
0.000802661
0.000671708
0.000819153
0.000645007
0.000827505
0.000602392
0.000772815
0.000550095
0.000626194
0.000886859
0.000531918
0.000790192
0.000909137
0.00096445
SCALARS mass double 1
LOOKUP_TABLE default
0.00228657
0.0048913
0.00453983
0.00738005
0.00634449
0.00720004
0.00576955
0.0037184
0.0024319
0.00759432
0.00846957
0.00546484
0.00382714
0.00569173
0.00352892
0.00580838
0.00307803
0.005066
0.00256678
0.00332607
0.00667148
0.00239995
0.00529637
0.00701087
0.00788992
