# vtk DataFile Version 3.0
DEM2D particles
ASCII
DATASET POLYDATA
POINTS 25 double
0.000210492 -0.000529914 0
0.00247694 -0.000929203 0
0.00456711 -0.000281876 0
0.00674628 -0.00040059 0
0.00933215 0.000516536 0
0.000976388 0.00267071 0
0.00272805 0.00235516 0
0.00430175 0.00188635 0
0.00620408 0.00130903 0
0.00807857 0.00175499 0
0.00194188 0.00360767 0
0.00315848 0.00332675 0
0.00447748 0.00383095 0
0.00666273 0.0049035 0
0.00823043 0.00435602 0
0.0014505 0.00552635 0
0.0023961 0.00663972 0
0.00577483 0.00566479 0
0.00705357 0.00622641 0
0.00819693 0.00593212 0
6.49651e-05 0.00757331 0
0.00285477 0.00893332 0
0.0050706 0.0078661 0
0.00716435 0.00846112 0
0.00986735 0.00801003 0
VERTICES 25 50
1 0
1 1
1 2
1 3
1 4
1 5
1 6
1 7
1 8
1 9
1 10
1 11
1 12
1 13
1 14
1 15
1 16
1 17
1 18
1 19
1 20
1 21
1 22
1 23
1 24
POINT_DATA 25
VECTORS velocity double
-4.31305e-47 -0.00970858 0
-2.85747e-47 -0.00970858 0
-2.36487e-47 -0.00970858 0
-1.38607e-47 -0.00970858 0
1.81451e-47 -0.00970858 0
-1.28993e-48 -0.00970858 0
-1.48568e-47 -0.00970858 0
-3.81452e-47 -0.00970858 0
-4.34805e-47 -0.00970858 0
-5.03375e-47 -0.00970858 0
5.14546e-47 -0.00970858 0
8.65775e-48 -0.00970858 0
-2.8545e-47 -0.00970858 0
-1.84247e-47 -0.00970858 0
-4.20413e-47 -0.00970858 0
2.46106e-47 -0.00970858 0
-3.29907e-47 -0.00970858 0
4.23288e-47 -0.00970858 0
2.92656e-48 -0.00970858 0
-4.38715e-47 -0.00970858 0
-5.10805e-47 -0.00970858 0
-7.9336e-48 -0.00970858 0
3.85702e-48 -0.00970858 0
8.97855e-48 -0.00970858 0
4.73828e-47 -0.00970858 0
SCALARS radius double 1
LOOKUP_TABLE default
0.0005192
0.000759374
0.000731582
0.000932767
0.000864852
0.00092132
0.000824734
0.000662097
0.000535446
0.00094621
0.000999249
0.000802661
0.000671708
0.000819153
0.000645007
0.000827505
0.000602392
0.000772815
0.000550095
0.000626194
0.000886859
0.000531918
0.000790192
0.000909137
0.00096445
SCALARS mass double 1
LOOKUP_TABLE default
0.00228657
0.0048913
0.00453983
0.00738005
0.00634449
0.00720004
0.00576955
0.0037184
0.0024319
0.00759432
0.00846957
0.00546484
0.00382714
0.00569173
0.00352892
0.00580838
0.00307803
0.005066
0.00256678
0.00332607
0.00667148
0.00239995
0.00529637
0.00701087
0.00788992
