# vtk DataFile Version 3.0
DEM2D particles
ASCII
DATASET POLYDATA
POINTS 25 double
0.000210492 7.00766e-05 0
0.00247694 -0.000329213 0
0.00456711 0.000318115 0
0.00674628 0.0001994 0
0.00933215 0.00111653 0
0.000976388 0.0032707 0
0.00272805 0.00295515 0
0.00430175 0.00248634 0
0.00620408 0.00190902 0
0.00807857 0.00235498 0
0.00194188 0.00420766 0
0.00315848 0.00392674 0
0.00447748 0.00443094 0
0.00666273 0.00550349 0
0.00823043 0.00495601 0
0.0014505 0.00612634 0
0.0023961 0.00723971 0
0.00577483 0.00626478 0
0.00705357 0.0068264 0
0.00819693 0.00653211 0
6.49651e-05 0.0081733 0
0.00285477 0.00953331 0
0.0050706 0.00846609 0
0.00716435 0.00906111 0
0.00986735 0.00861002 0
VERTICES 25 50
1 0
1 1
1 2
1 3
1 4
1 5
1 6
1 7
1 8
1 9
1 10
1 11
1 12
1 13
1 14
1 15
1 16
1 17
1 18
1 19
1 20
1 21
1 22
1 23
1 24
POINT_DATA 25
VECTORS velocity double
-4.06707e-20 -0.00970858 0
-2.69451e-20 -0.00970858 0
-2.23e-20 -0.00970858 0
-1.30702e-20 -0.00970858 0
1.71103e-20 -0.00970858 0
-1.21637e-21 -0.00970858 0
-1.40095e-20 -0.00970858 0
-3.59697e-20 -0.00970858 0
-4.10008e-20 -0.00970858 0
-4.74667e-20 -0.00970858 0
4.85201e-20 -0.00970858 0
8.16399e-21 -0.00970858 0
-2.6917e-20 -0.00970858 0
-1.7374e-20 -0.00970858 0
-3.96436e-20 -0.00970858 0
2.32071e-20 -0.00970858 0
-3.11092e-20 -0.00970858 0
3.99147e-20 -0.00970858 0
2.75966e-21 -0.00970858 0
-4.13694e-20 -0.00970858 0
-4.81674e-20 -0.00970858 0
-7.48113e-21 -0.00970858 0
3.63705e-21 -0.00970858 0
8.46649e-21 -0.00970858 0
4.46805e-20 -0.00970858 0
SCALARS radius double 1
LOOKUP_TABLE default
0.0005192
0.000759374
0.000731582
0.000932767
0.000864852
0.00092132
0.000824734
0.000662097
0.000535446
0.00094621
0.000999249
0.000802661
0.000671708
0.000819153
0.000645007
0.000827505
0.000602392
0.000772815
0.000550095
0.000626194
0.000886859
0.000531918
0.000790192
0.000909137
0.00096445
SCALARS mass double 1
LOOKUP_TABLE default
0.00228657
0.0048913
0.00453983
0.00738005
0.00634449
0.00720004
0.00576955
0.0037184
0.0024319
0.00759432
0.00846957
0.00546484
0.00382714
0.00569173
0.00352892
0.00580838
0.00307803
0.005066
0.00256678
0.00332607
0.00667148
0.00239995
0.00529637
0.00701087
0.00788992
