# vtk DataFile Version 3.0
DEM2D particles
ASCII
DATASET POLYDATA
POINTS 25 double
0.000210492 -0.000201764 0
0.00247694 -0.000601053 0
0.00456711 4.62742e-05 0
0.00674628 -7.24399e-05 0
0.00933215 0.000844687 0
0.000976388 0.00299886 0
0.00272805 0.00268331 0
0.00430175 0.0022145 0
0.00620408 0.00163718 0
0.00807857 0.00208314 0
0.00194188 0.00393582 0
0.00315848 0.0036549 0
0.00447748 0.0041591 0
0.00666273 0.00523165 0
0.00823043 0.00468417 0
0.0014505 0.0058545 0
0.0023961 0.00696787 0
0.00577483 0.00599294 0
0.00705357 0.00655456 0
0.00819693 0.00626027 0
6.49651e-05 0.00790146 0
0.00285477 0.00926147 0
0.0050706 0.00819425 0
0.00716435 0.00878927 0
0.00986735 0.00833818 0
VERTICES 25 50
1 0
1 1
1 2
1 3
1 4
1 5
1 6
1 7
1 8
1 9
1 10
1 11
1 12
1 13
1 14
1 15
1 16
1 17
1 18
1 19
1 20
1 21
1 22
1 23
1 24
POINT_DATA 25
VECTORS velocity double
-2.44245e-32 -0.00970858 0
-1.61817e-32 -0.00970858 0
-1.33921e-32 -0.00970858 0
-7.84925e-33 -0.00970858 0
1.02755e-32 -0.00970858 0
-7.30482e-34 -0.00970858 0
-8.4133e-33 -0.00970858 0
-2.16014e-32 -0.00970858 0
-2.46228e-32 -0.00970858 0
-2.85058e-32 -0.00970858 0
2.91385e-32 -0.00970858 0
4.90283e-33 -0.00970858 0
-1.61649e-32 -0.00970858 0
-1.04338e-32 -0.00970858 0
-2.38077e-32 -0.00970858 0
1.39369e-32 -0.00970858 0
-1.86825e-32 -0.00970858 0
2.39706e-32 -0.00970858 0
1.6573e-33 -0.00970858 0
-2.48442e-32 -0.00970858 0
-2.89266e-32 -0.00970858 0
-4.49275e-33 -0.00970858 0
2.18421e-33 -0.00970858 0
5.0845e-33 -0.00970858 0
2.68326e-32 -0.00970858 0
SCALARS radius double 1
LOOKUP_TABLE default
0.0005192
0.000759374
0.000731582
0.000932767
0.000864852
0.00092132
0.000824734
0.000662097
0.000535446
0.00094621
0.000999249
0.000802661
0.000671708
0.000819153
0.000645007
0.000827505
0.000602392
0.000772815
0.000550095
0.000626194
0.000886859
0.000531918
0.000790192
0.000909137
0.00096445
SCALARS mass double 1
LOOKUP_TABLE default
0.00228657
0.0048913
0.00453983
0.00738005
0.00634449
0.00720004
0.00576955
0.0037184
0.0024319
0.00759432
0.00846957
0.00546484
0.00382714
0.00569173
0.00352892
0.00580838
0.00307803
0.005066
0.00256678
0.00332607
0.00667148
0.00239995
0.00529637
0.00701087
0.00788992
