# vtk DataFile Version 3.0
DEM2D particles
ASCII
DATASET POLYDATA
POINTS 25 double
0.000210492 -0.000215356 0
0.00247694 -0.000614645 0
0.00456711 3.26822e-05 0
0.00674628 -8.60319e-05 0
0.00933215 0.000831095 0
0.000976388 0.00298527 0
0.00272805 0.00266972 0
0.00430175 0.00220091 0
0.00620408 0.00162359 0
0.00807857 0.00206955 0
0.00194188 0.00392223 0
0.00315848 0.00364131 0
0.00447748 0.00414551 0
0.00666273 0.00521806 0
0.00823043 0.00467058 0
0.0014505 0.0058409 0
0.0023961 0.00695427 0
0.00577483 0.00597935 0
0.00705357 0.00654097 0
0.00819693 0.00624668 0
6.49651e-05 0.00788787 0
0.00285477 0.00924787 0
0.0050706 0.00818066 0
0.00716435 0.00877568 0
0.00986735 0.00832459 0
VERTICES 25 50
1 0
1 1
1 2
1 3
1 4
1 5
1 6
1 7
1 8
1 9
1 10
1 11
1 12
1 13
1 14
1 15
1 16
1 17
1 18
1 19
1 20
1 21
1 22
1 23
1 24
POINT_DATA 25
VECTORS velocity double
-5.98072e-33 -0.00970858 0
-3.96234e-33 -0.00970858 0
-3.27927e-33 -0.00970858 0
-1.92201e-33 -0.00970858 0
2.51611e-33 -0.00970858 0
-1.7887e-34 -0.00970858 0
-2.06013e-33 -0.00970858 0
-5.28943e-33 -0.00970858 0
-6.02926e-33 -0.00970858 0
-6.98009e-33 -0.00970858 0
7.135e-33 -0.00970858 0
1.20053e-33 -0.00970858 0
-3.95821e-33 -0.00970858 0
-2.55488e-33 -0.00970858 0
-5.82969e-33 -0.00970858 0
3.41265e-33 -0.00970858 0
-4.57469e-33 -0.00970858 0
5.86956e-33 -0.00970858 0
4.05814e-34 -0.00970858 0
-6.08348e-33 -0.00970858 0
-7.08312e-33 -0.00970858 0
-1.10012e-33 -0.00970858 0
5.34836e-34 -0.00970858 0
1.24502e-33 -0.00970858 0
6.57038e-33 -0.00970858 0
SCALARS radius double 1
LOOKUP_TABLE default
0.0005192
0.000759374
0.000731582
0.000932767
0.000864852
0.00092132
0.000824734
0.000662097
0.000535446
0.00094621
0.000999249
0.000802661
0.000671708
0.000819153
0.000645007
0.000827505
0.000602392
0.000772815
0.000550095
0.000626194
0.000886859
0.000531918
0.000790192
0.000909137
0.00096445
SCALARS mass double 1
LOOKUP_TABLE default
0.00228657
0.0048913
0.00453983
0.00738005
0.00634449
0.00720004
0.00576955
0.0037184
0.0024319
0.00759432
0.00846957
0.00546484
0.00382714
0.00569173
0.00352892
0.00580838
0.00307803
0.005066
0.00256678
0.00332607
0.00667148
0.00239995
0.00529637
0.00701087
0.00788992
