# vtk DataFile Version 3.0
DEM2D particles
ASCII
DATASET POLYDATA
POINTS 25 double
0.000210492 0.000349684 0
0.00247694 -4.96052e-05 0
0.00456711 0.000597722 0
0.00674628 0.000479008 0
0.00933215 0.00139613 0
0.000976388 0.00355031 0
0.00272805 0.00323476 0
0.00430175 0.00276594 0
0.00620408 0.00218863 0
0.00807857 0.00263459 0
0.00194188 0.00448727 0
0.00315848 0.00420635 0
0.00447748 0.00471055 0
0.00666273 0.0057831 0
0.00823043 0.00523562 0
0.0014505 0.00640594 0
0.0023961 0.00751931 0
0.00577483 0.00654439 0
0.00705357 0.007106 0
0.00819693 0.00681172 0
6.49652e-05 0.00845291 0
0.00285477 0.00981291 0
0.0050706 0.0087457 0
0.00716435 0.00934072 0
0.00986735 0.00888962 0
VERTICES 25 50
1 0
1 1
1 2
1 3
1 4
1 5
1 6
1 7
1 8
1 9
1 10
1 11
1 12
1 13
1 14
1 15
1 16
1 17
1 18
1 19
1 20
1 21
1 22
1 23
1 24
POINT_DATA 25
VECTORS velocity double
-1.51329e-07 -0.00970868 0
-1.00258e-07 -0.00970876 0
-8.29745e-08 -0.00970863 0
-4.86321e-08 -0.00970865 0
6.36644e-08 -0.00970848 0
-4.52589e-09 -0.00970845 0
-5.21268e-08 -0.00970851 0
-1.33837e-07 -0.0097086 0
-1.52557e-07 -0.00970871 0
-1.76615e-07 -0.00970862 0
1.80535e-07 -0.00970865 0
3.03768e-08 -0.00970871 0
-1.00154e-07 -0.00970861 0
-6.46455e-08 -0.0097084 0
-1.47507e-07 -0.00970851 0
8.63495e-08 -0.00970867 0
-1.15752e-07 -0.00970846 0
1.48516e-07 -0.00970864 0
1.02682e-08 -0.00970853 0
-1.53929e-07 -0.00970859 0
-1.79222e-07 -0.00970866 0
-2.7836e-08 -0.0097084 0
1.35328e-08 -0.0097086 0
3.15024e-08 -0.00970849 0
1.66249e-07 -0.00970858 0
SCALARS radius double 1
LOOKUP_TABLE default
0.0005192
0.000759374
0.000731582
0.000932767
0.000864852
0.00092132
0.000824734
0.000662097
0.000535446
0.00094621
0.000999249
0.000802661
0.000671708
0.000819153
0.000645007
0.000827505
0.000602392
0.000772815
0.000550095
0.000626194
0.000886859
0.000531918
0.000790192
0.000909137
0.00096445
SCALARS mass double 1
LOOKUP_TABLE default
0.00228657
0.0048913
0.00453983
0.00738005
0.00634449
0.00720004
0.00576955
0.0037184
0.0024319
0.00759432
0.00846957
0.00546484
0.00382714
0.00569173
0.00352892
0.00580838
0.00307803
0.005066
0.00256678
0.00332607
0.00667148
0.00239995
0.00529637
0.00701087
0.00788992
