# vtk DataFile Version 3.0
DEM2D particles
ASCII
DATASET POLYDATA
POINTS 25 double
0.000210492 -0.00129883 0
0.00247694 -0.00169812 0
0.00456711 -0.0010508 0
0.00674628 -0.00116951 0
0.00933215 -0.000252383 0
0.000976388 0.00190179 0
0.00272805 0.00158624 0
0.00430175 0.00111743 0
0.00620408 0.000540112 0
0.00807857 0.000986073 0
0.00194188 0.00283875 0
0.00315848 0.00255783 0
0.00447748 0.00306203 0
0.00666273 0.00413458 0
0.00823043 0.0035871 0
0.0014505 0.00475743 0
0.0023961 0.0058708 0
0.00577483 0.00489587 0
0.00705357 0.00545749 0
0.00819693 0.0051632 0
6.49651e-05 0.00680439 0
0.00285477 0.0081644 0
0.0050706 0.00709718 0
0.00716435 0.0076922 0
0.00986735 0.00724111 0
VERTICES 25 50
1 0
1 1
1 2
1 3
1 4
1 5
1 6
1 7
1 8
1 9
1 10
1 11
1 12
1 13
1 14
1 15
1 16
1 17
1 18
1 19
1 20
1 21
1 22
1 23
1 24
POINT_DATA 25
VECTORS velocity double
-1.16285e-81 -0.00970858 0
-7.70412e-82 -0.00970858 0
-6.37601e-82 -0.00970858 0
-3.73704e-82 -0.00970858 0
4.89216e-82 -0.00970858 0
-3.47783e-83 -0.00970858 0
-4.00558e-82 -0.00970858 0
-1.02844e-81 -0.00970858 0
-1.17229e-81 -0.00970858 0
-1.35717e-81 -0.00970858 0
1.38728e-81 -0.00970858 0
2.33424e-82 -0.00970858 0
-7.6961e-82 -0.00970858 0
-4.96755e-82 -0.00970858 0
-1.13349e-81 -0.00970858 0
6.63535e-82 -0.00970858 0
-8.89474e-82 -0.00970858 0
1.14124e-81 -0.00970858 0
7.8904e-83 -0.00970858 0
-1.18283e-81 -0.00970858 0
-1.3772e-81 -0.00970858 0
-2.139e-82 -0.00970858 0
1.0399e-82 -0.00970858 0
2.42074e-82 -0.00970858 0
1.2775e-81 -0.00970858 0
SCALARS radius double 1
LOOKUP_TABLE default
0.0005192
0.000759374
0.000731582
0.000932767
0.000864852
0.00092132
0.000824734
0.000662097
0.000535446
0.00094621
0.000999249
0.000802661
0.000671708
0.000819153
0.000645007
0.000827505
0.000602392
0.000772815
0.000550095
0.000626194
0.000886859
0.000531918
0.000790192
0.000909137
0.00096445
SCALARS mass double 1
LOOKUP_TABLE default
0.00228657
0.0048913
0.00453983
0.00738005
0.00634449
0.00720004
0.00576955
0.0037184
0.0024319
0.00759432
0.00846957
0.00546484
0.00382714
0.00569173
0.00352892
0.00580838
0.00307803
0.005066
0.00256678
0.00332607
0.00667148
0.00239995
0.00529637
0.00701087
0.00788992
