# vtk DataFile Version 3.0
DEM2D particles
ASCII
DATASET POLYDATA
POINTS 25 double
0.000210492 -0.000693018 0
0.00247694 -0.00109231 0
0.00456711 -0.00044498 0
0.00674628 -0.000563694 0
0.00933215 0.000353432 0
0.000976388 0.00250761 0
0.00272805 0.00219205 0
0.00430175 0.00172324 0
0.00620408 0.00114593 0
0.00807857 0.00159189 0
0.00194188 0.00344457 0
0.00315848 0.00316364 0
0.00447748 0.00366785 0
0.00666273 0.0047404 0
0.00823043 0.00419292 0
0.0014505 0.00536324 0
0.0023961 0.00647661 0
0.00577483 0.00550169 0
0.00705357 0.0060633 0
0.00819693 0.00576902 0
6.49651e-05 0.00741021 0
0.00285477 0.00877021 0
0.0050706 0.007703 0
0.00716435 0.00829801 0
0.00986735 0.00784692 0
VERTICES 25 50
1 0
1 1
1 2
1 3
1 4
1 5
1 6
1 7
1 8
1 9
1 10
1 11
1 12
1 13
1 14
1 15
1 16
1 17
1 18
1 19
1 20
1 21
1 22
1 23
1 24
POINT_DATA 25
VECTORS velocity double
-2.00406e-54 -0.00970858 0
-1.32773e-54 -0.00970858 0
-1.09884e-54 -0.00970858 0
-6.4404e-55 -0.00970858 0
8.43114e-55 -0.00970858 0
-5.99369e-56 -0.00970858 0
-6.90321e-55 -0.00970858 0
-1.77242e-54 -0.00970858 0
-2.02033e-54 -0.00970858 0
-2.33894e-54 -0.00970858 0
2.39084e-54 -0.00970858 0
4.02283e-55 -0.00970858 0
-1.32634e-54 -0.00970858 0
-8.56108e-55 -0.00970858 0
-1.95345e-54 -0.00970858 0
1.14354e-54 -0.00970858 0
-1.53292e-54 -0.00970858 0
1.96681e-54 -0.00970858 0
1.35983e-55 -0.00970858 0
-2.03849e-54 -0.00970858 0
-2.37346e-54 -0.00970858 0
-3.68635e-55 -0.00970858 0
1.79217e-55 -0.00970858 0
4.17189e-55 -0.00970858 0
2.20165e-54 -0.00970858 0
SCALARS radius double 1
LOOKUP_TABLE default
0.0005192
0.000759374
0.000731582
0.000932767
0.000864852
0.00092132
0.000824734
0.000662097
0.000535446
0.00094621
0.000999249
0.000802661
0.000671708
0.000819153
0.000645007
0.000827505
0.000602392
0.000772815
0.000550095
0.000626194
0.000886859
0.000531918
0.000790192
0.000909137
0.00096445
SCALARS mass double 1
LOOKUP_TABLE default
0.00228657
0.0048913
0.00453983
0.00738005
0.00634449
0.00720004
0.00576955
0.0037184
0.0024319
0.00759432
0.00846957
0.00546484
0.00382714
0.00569173
0.00352892
0.00580838
0.00307803
0.005066
0.00256678
0.00332607
0.00667148
0.00239995
0.00529637
0.00701087
0.00788992
