# vtk DataFile Version 3.0
DEM2D particles
ASCII
DATASET POLYDATA
POINTS 25 double
0.000210492 0.000106969 0
0.00247694 -0.00029232 0
0.00456711 0.000355007 0
0.00674628 0.000236293 0
0.00933215 0.00115342 0
0.000976388 0.00330759 0
0.00272805 0.00299204 0
0.00430175 0.00252323 0
0.00620408 0.00194591 0
0.00807857 0.00239188 0
0.00194188 0.00424456 0
0.00315848 0.00396363 0
0.00447748 0.00446783 0
0.00666273 0.00554039 0
0.00823043 0.00499291 0
0.0014505 0.00616323 0
0.0023961 0.0072766 0
0.00577483 0.00630168 0
0.00705357 0.00686329 0
0.00819693 0.006569 0
6.49651e-05 0.00821019 0
0.00285477 0.0095702 0
0.0050706 0.00850299 0
0.00716435 0.009098 0
0.00986735 0.00864691 0
VERTICES 25 50
1 0
1 1
1 2
1 3
1 4
1 5
1 6
1 7
1 8
1 9
1 10
1 11
1 12
1 13
1 14
1 15
1 16
1 17
1 18
1 19
1 20
1 21
1 22
1 23
1 24
POINT_DATA 25
VECTORS velocity double
-1.85314e-18 -0.00970858 0
-1.22774e-18 -0.00970858 0
-1.01609e-18 -0.00970858 0
-5.95538e-19 -0.00970858 0
7.7962e-19 -0.00970858 0
-5.54231e-20 -0.00970858 0
-6.38333e-19 -0.00970858 0
-1.63894e-18 -0.00970858 0
-1.86818e-18 -0.00970858 0
-2.16279e-18 -0.00970858 0
2.21079e-18 -0.00970858 0
3.71988e-19 -0.00970858 0
-1.22646e-18 -0.00970858 0
-7.91635e-19 -0.00970858 0
-1.80634e-18 -0.00970858 0
1.05742e-18 -0.00970858 0
-1.41747e-18 -0.00970858 0
1.81869e-18 -0.00970858 0
1.25742e-19 -0.00970858 0
-1.88498e-18 -0.00970858 0
-2.19472e-18 -0.00970858 0
-3.40874e-19 -0.00970858 0
1.6572e-19 -0.00970858 0
3.85771e-19 -0.00970858 0
2.03584e-18 -0.00970858 0
SCALARS radius double 1
LOOKUP_TABLE default
0.0005192
0.000759374
0.000731582
0.000932767
0.000864852
0.00092132
0.000824734
0.000662097
0.000535446
0.00094621
0.000999249
0.000802661
0.000671708
0.000819153
0.000645007
0.000827505
0.000602392
0.000772815
0.000550095
0.000626194
0.000886859
0.000531918
0.000790192
0.000909137
0.00096445
SCALARS mass double 1
LOOKUP_TABLE default
0.00228657
0.0048913
0.00453983
0.00738005
0.00634449
0.00720004
0.00576955
0.0037184
0.0024319
0.00759432
0.00846957
0.00546484
0.00382714
0.00569173
0.00352892
0.00580838
0.00307803
0.005066
0.00256678
0.00332607
0.00667148
0.00239995
0.00529637
0.00701087
0.00788992
