# vtk DataFile Version 3.0
DEM2D particles
ASCII
DATASET POLYDATA
POINTS 25 double
0.000210492 -0.000677484 0
0.00247694 -0.00107677 0
0.00456711 -0.000429446 0
0.00674628 -0.00054816 0
0.00933215 0.000368966 0
0.000976388 0.00252314 0
0.00272805 0.00220759 0
0.00430175 0.00173878 0
0.00620408 0.00116146 0
0.00807857 0.00160742 0
0.00194188 0.0034601 0
0.00315848 0.00317918 0
0.00447748 0.00368338 0
0.00666273 0.00475593 0
0.00823043 0.00420845 0
0.0014505 0.00537878 0
0.0023961 0.00649214 0
0.00577483 0.00551722 0
0.00705357 0.00607884 0
0.00819693 0.00578455 0
6.49651e-05 0.00742574 0
0.00285477 0.00878575 0
0.0050706 0.00771853 0
0.00716435 0.00831355 0
0.00986735 0.00786246 0
VERTICES 25 50
1 0
1 1
1 2
1 3
1 4
1 5
1 6
1 7
1 8
1 9
1 10
1 11
1 12
1 13
1 14
1 15
1 16
1 17
1 18
1 19
1 20
1 21
1 22
1 23
1 24
POINT_DATA 25
VECTORS velocity double
-1.00065e-53 -0.00970858 0
-6.62946e-54 -0.00970858 0
-5.4866e-54 -0.00970858 0
-3.21575e-54 -0.00970858 0
4.20974e-54 -0.00970858 0
-2.9927e-55 -0.00970858 0
-3.44683e-54 -0.00970858 0
-8.84984e-54 -0.00970858 0
-1.00877e-53 -0.00970858 0
-1.16785e-53 -0.00970858 0
1.19377e-53 -0.00970858 0
2.00863e-54 -0.00970858 0
-6.62255e-54 -0.00970858 0
-4.27462e-54 -0.00970858 0
-9.75375e-54 -0.00970858 0
5.70977e-54 -0.00970858 0
-7.65399e-54 -0.00970858 0
9.82046e-54 -0.00970858 0
6.78975e-55 -0.00970858 0
-1.01784e-53 -0.00970858 0
-1.18509e-53 -0.00970858 0
-1.84063e-54 -0.00970858 0
8.94844e-55 -0.00970858 0
2.08306e-54 -0.00970858 0
1.0993e-53 -0.00970858 0
SCALARS radius double 1
LOOKUP_TABLE default
0.0005192
0.000759374
0.000731582
0.000932767
0.000864852
0.00092132
0.000824734
0.000662097
0.000535446
0.00094621
0.000999249
0.000802661
0.000671708
0.000819153
0.000645007
0.000827505
0.000602392
0.000772815
0.000550095
0.000626194
0.000886859
0.000531918
0.000790192
0.000909137
0.00096445
SCALARS mass double 1
LOOKUP_TABLE default
0.00228657
0.0048913
0.00453983
0.00738005
0.00634449
0.00720004
0.00576955
0.0037184
0.0024319
0.00759432
0.00846957
0.00546484
0.00382714
0.00569173
0.00352892
0.00580838
0.00307803
0.005066
0.00256678
0.00332607
0.00667148
0.00239995
0.00529637
0.00701087
0.00788992
