# vtk DataFile Version 3.0
DEM2D particles
ASCII
DATASET POLYDATA
POINTS 25 double
0.000210492 -0.0012833 0
0.00247694 -0.00168259 0
0.00456711 -0.00103526 0
0.00674628 -0.00115398 0
0.00933215 -0.00023685 0
0.000976388 0.00191733 0
0.00272805 0.00160177 0
0.00430175 0.00113296 0
0.00620408 0.000555646 0
0.00807857 0.00100161 0
0.00194188 0.00285429 0
0.00315848 0.00257336 0
0.00447748 0.00307756 0
0.00666273 0.00415012 0
0.00823043 0.00360264 0
0.0014505 0.00477296 0
0.0023961 0.00588633 0
0.00577483 0.00491141 0
0.00705357 0.00547302 0
0.00819693 0.00517873 0
6.49651e-05 0.00681993 0
0.00285477 0.00817993 0
0.0050706 0.00711272 0
0.00716435 0.00770773 0
0.00986735 0.00725664 0
VERTICES 25 50
1 0
1 1
1 2
1 3
1 4
1 5
1 6
1 7
1 8
1 9
1 10
1 11
1 12
1 13
1 14
1 15
1 16
1 17
1 18
1 19
1 20
1 21
1 22
1 23
1 24
POINT_DATA 25
VECTORS velocity double
-5.80623e-81 -0.00970858 0
-3.84673e-81 -0.00970858 0
-3.1836e-81 -0.00970858 0
-1.86593e-81 -0.00970858 0
2.4427e-81 -0.00970858 0
-1.73651e-82 -0.00970858 0
-2.00002e-81 -0.00970858 0
-5.13511e-81 -0.00970858 0
-5.85336e-81 -0.00970858 0
-6.77644e-81 -0.00970858 0
6.92683e-81 -0.00970858 0
1.16551e-81 -0.00970858 0
-3.84273e-81 -0.00970858 0
-2.48034e-81 -0.00970858 0
-5.6596e-81 -0.00970858 0
3.31309e-81 -0.00970858 0
-4.44122e-81 -0.00970858 0
5.69831e-81 -0.00970858 0
3.93974e-82 -0.00970858 0
-5.90599e-81 -0.00970858 0
-6.87647e-81 -0.00970858 0
-1.06802e-81 -0.00970858 0
5.19232e-82 -0.00970858 0
1.20869e-81 -0.00970858 0
6.37868e-81 -0.00970858 0
SCALARS radius double 1
LOOKUP_TABLE default
0.0005192
0.000759374
0.000731582
0.000932767
0.000864852
0.00092132
0.000824734
0.000662097
0.000535446
0.00094621
0.000999249
0.000802661
0.000671708
0.000819153
0.000645007
0.000827505
0.000602392
0.000772815
0.000550095
0.000626194
0.000886859
0.000531918
0.000790192
0.000909137
0.00096445
SCALARS mass double 1
LOOKUP_TABLE default
0.00228657
0.0048913
0.00453983
0.00738005
0.00634449
0.00720004
0.00576955
0.0037184
0.0024319
0.00759432
0.00846957
0.00546484
0.00382714
0.00569173
0.00352892
0.00580838
0.00307803
0.005066
0.00256678
0.00332607
0.00667148
0.00239995
0.00529637
0.00701087
0.00788992
