# vtk DataFile Version 3.0
DEM2D particles
ASCII
DATASET POLYDATA
POINTS 25 double
0.000210492 -0.0013765 0
0.00247694 -0.00177579 0
0.00456711 -0.00112846 0
0.00674628 -0.00124718 0
0.00933215 -0.000330052 0
0.000976388 0.00182412 0
0.00272805 0.00150857 0
0.00430175 0.00103976 0
0.00620408 0.000462443 0
0.00807857 0.000908405 0
0.00194188 0.00276108 0
0.00315848 0.00248016 0
0.00447748 0.00298436 0
0.00666273 0.00405691 0
0.00823043 0.00350943 0
0.0014505 0.00467976 0
0.0023961 0.00579313 0
0.00577483 0.00481821 0
0.00705357 0.00537982 0
0.00819693 0.00508553 0
6.49651e-05 0.00672672 0
0.00285477 0.00808673 0
0.0050706 0.00701952 0
0.00716435 0.00761453 0
0.00986735 0.00716344 0
VERTICES 25 50
1 0
1 1
1 2
1 3
1 4
1 5
1 6
1 7
1 8
1 9
1 10
1 11
1 12
1 13
1 14
1 15
1 16
1 17
1 18
1 19
1 20
1 21
1 22
1 23
1 24
POINT_DATA 25
VECTORS velocity double
-3.74698e-85 -0.00970858 0
-2.48244e-85 -0.00970858 0
-2.05449e-85 -0.00970858 0
-1.20416e-85 -0.00970858 0
1.57636e-85 -0.00970858 0
-1.12063e-86 -0.00970858 0
-1.29069e-85 -0.00970858 0
-3.31388e-85 -0.00970858 0
-3.77739e-85 -0.00970858 0
-4.37309e-85 -0.00970858 0
4.47014e-85 -0.00970858 0
7.52145e-86 -0.00970858 0
-2.47986e-85 -0.00970858 0
-1.60066e-85 -0.00970858 0
-3.65235e-85 -0.00970858 0
2.13806e-85 -0.00970858 0
-2.86608e-85 -0.00970858 0
3.67733e-85 -0.00970858 0
2.54246e-86 -0.00970858 0
-3.81135e-85 -0.00970858 0
-4.43764e-85 -0.00970858 0
-6.89234e-86 -0.00970858 0
3.3508e-86 -0.00970858 0
7.80015e-86 -0.00970858 0
4.1164e-85 -0.00970858 0
SCALARS radius double 1
LOOKUP_TABLE default
0.0005192
0.000759374
0.000731582
0.000932767
0.000864852
0.00092132
0.000824734
0.000662097
0.000535446
0.00094621
0.000999249
0.000802661
0.000671708
0.000819153
0.000645007
0.000827505
0.000602392
0.000772815
0.000550095
0.000626194
0.000886859
0.000531918
0.000790192
0.000909137
0.00096445
SCALARS mass double 1
LOOKUP_TABLE default
0.00228657
0.0048913
0.00453983
0.00738005
0.00634449
0.00720004
0.00576955
0.0037184
0.0024319
0.00759432
0.00846957
0.00546484
0.00382714
0.00569173
0.00352892
0.00580838
0.00307803
0.005066
0.00256678
0.00332607
0.00667148
0.00239995
0.00529637
0.00701087
0.00788992
