# vtk DataFile Version 3.0
DEM2D particles
ASCII
DATASET POLYDATA
POINTS 25 double
0.000210492 -1.73006e-05 0
0.00247694 -0.00041659 0
0.00456711 0.000230737 0
0.00674628 0.000112023 0
0.00933215 0.00102915 0
0.000976388 0.00318332 0
0.00272805 0.00286777 0
0.00430175 0.00239896 0
0.00620408 0.00182165 0
0.00807857 0.00226761 0
0.00194188 0.00412029 0
0.00315848 0.00383936 0
0.00447748 0.00434356 0
0.00666273 0.00541612 0
0.00823043 0.00486864 0
0.0014505 0.00603896 0
0.0023961 0.00715233 0
0.00577483 0.00617741 0
0.00705357 0.00673902 0
0.00819693 0.00644473 0
6.49651e-05 0.00808592 0
0.00285477 0.00944593 0
0.0050706 0.00837872 0
0.00716435 0.00897373 0
0.00986735 0.00852264 0
VERTICES 25 50
1 0
1 1
1 2
1 3
1 4
1 5
1 6
1 7
1 8
1 9
1 10
1 11
1 12
1 13
1 14
1 15
1 16
1 17
1 18
1 19
1 20
1 21
1 22
1 23
1 24
POINT_DATA 25
VECTORS velocity double
-4.79686e-24 -0.00970858 0
-3.17801e-24 -0.00970858 0
-2.63015e-24 -0.00970858 0
-1.54155e-24 -0.00970858 0
2.01805e-24 -0.00970858 0
-1.43463e-25 -0.00970858 0
-1.65233e-24 -0.00970858 0
-4.2424e-24 -0.00970858 0
-4.83579e-24 -0.00970858 0
-5.5984e-24 -0.00970858 0
5.72264e-24 -0.00970858 0
9.62892e-25 -0.00970858 0
-3.1747e-24 -0.00970858 0
-2.04915e-24 -0.00970858 0
-4.67572e-24 -0.00970858 0
2.73713e-24 -0.00970858 0
-3.66914e-24 -0.00970858 0
4.7077e-24 -0.00970858 0
3.25484e-25 -0.00970858 0
-4.87927e-24 -0.00970858 0
-5.68104e-24 -0.00970858 0
-8.82353e-25 -0.00970858 0
4.28967e-25 -0.00970858 0
9.98571e-25 -0.00970858 0
5.26979e-24 -0.00970858 0
SCALARS radius double 1
LOOKUP_TABLE default
0.0005192
0.000759374
0.000731582
0.000932767
0.000864852
0.00092132
0.000824734
0.000662097
0.000535446
0.00094621
0.000999249
0.000802661
0.000671708
0.000819153
0.000645007
0.000827505
0.000602392
0.000772815
0.000550095
0.000626194
0.000886859
0.000531918
0.000790192
0.000909137
0.00096445
SCALARS mass double 1
LOOKUP_TABLE default
0.00228657
0.0048913
0.00453983
0.00738005
0.00634449
0.00720004
0.00576955
0.0037184
0.0024319
0.00759432
0.00846957
0.00546484
0.00382714
0.00569173
0.00352892
0.00580838
0.00307803
0.005066
0.00256678
0.00332607
0.00667148
0.00239995
0.00529637
0.00701087
0.00788992
