# vtk DataFile Version 3.0
DEM2D particles
ASCII
DATASET POLYDATA
POINTS 25 double
0.000210492 8.17269e-05 0
0.00247694 -0.000317562 0
0.00456711 0.000329765 0
0.00674628 0.000211051 0
0.00933215 0.00112818 0
0.000976388 0.00328235 0
0.00272805 0.0029668 0
0.00430175 0.00249799 0
0.00620408 0.00192067 0
0.00807857 0.00236663 0
0.00194188 0.00421931 0
0.00315848 0.00393839 0
0.00447748 0.00444259 0
0.00666273 0.00551514 0
0.00823043 0.00496766 0
0.0014505 0.00613799 0
0.0023961 0.00725136 0
0.00577483 0.00627644 0
0.00705357 0.00683805 0
0.00819693 0.00654376 0
6.49651e-05 0.00818495 0
0.00285477 0.00954496 0
0.0050706 0.00847775 0
0.00716435 0.00907276 0
0.00986735 0.00862167 0
VERTICES 25 50
1 0
1 1
1 2
1 3
1 4
1 5
1 6
1 7
1 8
1 9
1 10
1 11
1 12
1 13
1 14
1 15
1 16
1 17
1 18
1 19
1 20
1 21
1 22
1 23
1 24
POINT_DATA 25
VECTORS velocity double
-1.3585e-19 -0.00970858 0
-9.00028e-20 -0.00970858 0
-7.44872e-20 -0.00970858 0
-4.36576e-20 -0.00970858 0
5.71523e-20 -0.00970858 0
-4.06295e-21 -0.00970858 0
-4.67949e-20 -0.00970858 0
-1.20147e-19 -0.00970858 0
-1.36952e-19 -0.00970858 0
-1.5855e-19 -0.00970858 0
1.62068e-19 -0.00970858 0
2.72696e-20 -0.00970858 0
-8.99091e-20 -0.00970858 0
-5.80331e-20 -0.00970858 0
-1.32419e-19 -0.00970858 0
7.7517e-20 -0.00970858 0
-1.03912e-19 -0.00970858 0
1.33324e-19 -0.00970858 0
9.21789e-21 -0.00970858 0
-1.38184e-19 -0.00970858 0
-1.6089e-19 -0.00970858 0
-2.49887e-20 -0.00970858 0
1.21486e-20 -0.00970858 0
2.82801e-20 -0.00970858 0
1.49243e-19 -0.00970858 0
SCALARS radius double 1
LOOKUP_TABLE default
0.0005192
0.000759374
0.000731582
0.000932767
0.000864852
0.00092132
0.000824734
0.000662097
0.000535446
0.00094621
0.000999249
0.000802661
0.000671708
0.000819153
0.000645007
0.000827505
0.000602392
0.000772815
0.000550095
0.000626194
0.000886859
0.000531918
0.000790192
0.000909137
0.00096445
SCALARS mass double 1
LOOKUP_TABLE default
0.00228657
0.0048913
0.00453983
0.00738005
0.00634449
0.00720004
0.00576955
0.0037184
0.0024319
0.00759432
0.00846957
0.00546484
0.00382714
0.00569173
0.00352892
0.00580838
0.00307803
0.005066
0.00256678
0.00332607
0.00667148
0.00239995
0.00529637
0.00701087
0.00788992
