# vtk DataFile Version 3.0
DEM2D particles
ASCII
DATASET POLYDATA
POINTS 25 double
0.000210492 -0.000205647 0
0.00247694 -0.000604936 0
0.00456711 4.23908e-05 0
0.00674628 -7.63233e-05 0
0.00933215 0.000840803 0
0.000976388 0.00299498 0
0.00272805 0.00267943 0
0.00430175 0.00221061 0
0.00620408 0.0016333 0
0.00807857 0.00207926 0
0.00194188 0.00393194 0
0.00315848 0.00365101 0
0.00447748 0.00415522 0
0.00666273 0.00522777 0
0.00823043 0.00468029 0
0.0014505 0.00585061 0
0.0023961 0.00696398 0
0.00577483 0.00598906 0
0.00705357 0.00655067 0
0.00819693 0.00625639 0
6.49651e-05 0.00789758 0
0.00285477 0.00925758 0
0.0050706 0.00819037 0
0.00716435 0.00878538 0
0.00986735 0.00833429 0
VERTICES 25 50
1 0
1 1
1 2
1 3
1 4
1 5
1 6
1 7
1 8
1 9
1 10
1 11
1 12
1 13
1 14
1 15
1 16
1 17
1 18
1 19
1 20
1 21
1 22
1 23
1 24
POINT_DATA 25
VECTORS velocity double
-1.63393e-32 -0.00970858 0
-1.08251e-32 -0.00970858 0
-8.95896e-33 -0.00970858 0
-5.25093e-33 -0.00970858 0
6.874e-33 -0.00970858 0
-4.88672e-34 -0.00970858 0
-5.62826e-33 -0.00970858 0
-1.44507e-32 -0.00970858 0
-1.64719e-32 -0.00970858 0
-1.90696e-32 -0.00970858 0
1.94928e-32 -0.00970858 0
3.27986e-33 -0.00970858 0
-1.08138e-32 -0.00970858 0
-6.97994e-33 -0.00970858 0
-1.59267e-32 -0.00970858 0
9.32337e-33 -0.00970858 0
-1.2498e-32 -0.00970858 0
1.60356e-32 -0.00970858 0
1.10868e-33 -0.00970858 0
-1.662e-32 -0.00970858 0
-1.93511e-32 -0.00970858 0
-3.00552e-33 -0.00970858 0
1.46117e-33 -0.00970858 0
3.40139e-33 -0.00970858 0
1.79503e-32 -0.00970858 0
SCALARS radius double 1
LOOKUP_TABLE default
0.0005192
0.000759374
0.000731582
0.000932767
0.000864852
0.00092132
0.000824734
0.000662097
0.000535446
0.00094621
0.000999249
0.000802661
0.000671708
0.000819153
0.000645007
0.000827505
0.000602392
0.000772815
0.000550095
0.000626194
0.000886859
0.000531918
0.000790192
0.000909137
0.00096445
SCALARS mass double 1
LOOKUP_TABLE default
0.00228657
0.0048913
0.00453983
0.00738005
0.00634449
0.00720004
0.00576955
0.0037184
0.0024319
0.00759432
0.00846957
0.00546484
0.00382714
0.00569173
0.00352892
0.00580838
0.00307803
0.005066
0.00256678
0.00332607
0.00667148
0.00239995
0.00529637
0.00701087
0.00788992
