# vtk DataFile Version 3.0
DEM2D particles
ASCII
DATASET POLYDATA
POINTS 25 double
0.000210492 -0.000949325 0
0.00247694 -0.00134861 0
0.00456711 -0.000701287 0
0.00674628 -0.000820001 0
0.00933215 9.71256e-05 0
0.000976388 0.0022513 0
0.00272805 0.00193575 0
0.00430175 0.00146694 0
0.00620408 0.000889621 0
0.00807857 0.00133558 0
0.00194188 0.00318826 0
0.00315848 0.00290734 0
0.00447748 0.00341154 0
0.00666273 0.00448409 0
0.00823043 0.00393661 0
0.0014505 0.00510694 0
0.0023961 0.0062203 0
0.00577483 0.00524538 0
0.00705357 0.005807 0
0.00819693 0.00551271 0
6.49651e-05 0.0071539 0
0.00285477 0.00851391 0
0.0050706 0.00744669 0
0.00716435 0.00804171 0
0.00986735 0.00759062 0
VERTICES 25 50
1 0
1 1
1 2
1 3
1 4
1 5
1 6
1 7
1 8
1 9
1 10
1 11
1 12
1 13
1 14
1 15
1 16
1 17
1 18
1 19
1 20
1 21
1 22
1 23
1 24
POINT_DATA 25
VECTORS velocity double
-6.00931e-66 -0.00970858 0
-3.98128e-66 -0.00970858 0
-3.29495e-66 -0.00970858 0
-1.9312e-66 -0.00970858 0
2.52813e-66 -0.00970858 0
-1.79725e-67 -0.00970858 0
-2.06997e-66 -0.00970858 0
-5.31472e-66 -0.00970858 0
-6.05809e-66 -0.00970858 0
-7.01346e-66 -0.00970858 0
7.1691e-66 -0.00970858 0
1.20627e-66 -0.00970858 0
-3.97713e-66 -0.00970858 0
-2.5671e-66 -0.00970858 0
-5.85756e-66 -0.00970858 0
3.42897e-66 -0.00970858 0
-4.59656e-66 -0.00970858 0
5.89762e-66 -0.00970858 0
4.07754e-67 -0.00970858 0
-6.11256e-66 -0.00970858 0
-7.11698e-66 -0.00970858 0
-1.10538e-66 -0.00970858 0
5.37393e-67 -0.00970858 0
1.25097e-66 -0.00970858 0
6.60179e-66 -0.00970858 0
SCALARS radius double 1
LOOKUP_TABLE default
0.0005192
0.000759374
0.000731582
0.000932767
0.000864852
0.00092132
0.000824734
0.000662097
0.000535446
0.00094621
0.000999249
0.000802661
0.000671708
0.000819153
0.000645007
0.000827505
0.000602392
0.000772815
0.000550095
0.000626194
0.000886859
0.000531918
0.000790192
0.000909137
0.00096445
SCALARS mass double 1
LOOKUP_TABLE default
0.00228657
0.0048913
0.00453983
0.00738005
0.00634449
0.00720004
0.00576955
0.0037184
0.0024319
0.00759432
0.00846957
0.00546484
0.00382714
0.00569173
0.00352892
0.00580838
0.00307803
0.005066
0.00256678
0.00332607
0.00667148
0.00239995
0.00529637
0.00701087
0.00788992
