# vtk DataFile Version 3.0
DEM2D particles
ASCII
DATASET POLYDATA
POINTS 25 double
0.000210494 0.000376869 0
0.00247694 -2.24185e-05 0
0.00456711 0.000624907 0
0.00674628 0.000506193 0
0.00933215 0.00142332 0
0.000976388 0.00357749 0
0.00272805 0.00326194 0
0.00430175 0.00279313 0
0.00620409 0.00221582 0
0.00807857 0.00266178 0
0.00194188 0.00451446 0
0.00315848 0.00423353 0
0.00447748 0.00473773 0
0.00666273 0.00581028 0
0.00823043 0.0052628 0
0.0014505 0.00643313 0
0.0023961 0.00754649 0
0.00577483 0.00657158 0
0.00705357 0.00713319 0
0.00819693 0.0068389 0
6.4968e-05 0.00848009 0
0.00285478 0.00984009 0
0.0050706 0.00877289 0
0.00716435 0.0093679 0
0.00986735 0.00891681 0
VERTICES 25 50
1 0
1 1
1 2
1 3
1 4
1 5
1 6
1 7
1 8
1 9
1 10
1 11
1 12
1 13
1 14
1 15
1 16
1 17
1 18
1 19
1 20
1 21
1 22
1 23
1 24
POINT_DATA 25
VECTORS velocity double
-2.52387e-06 -0.00971018 0
-1.67211e-06 -0.00971146 0
-1.38385e-06 -0.00970939 0
-8.11089e-07 -0.00970977 0
1.0618e-06 -0.00970684 0
-7.54831e-08 -0.00970635 0
-8.69374e-07 -0.00970736 0
-2.23214e-06 -0.00970885 0
-2.54435e-06 -0.0097107 0
-2.9456e-06 -0.00970927 0
3.01097e-06 -0.00970974 0
5.06626e-07 -0.00971064 0
-1.67037e-06 -0.00970903 0
-1.07816e-06 -0.0097056 0
-2.46013e-06 -0.00970735 0
1.44014e-06 -0.00971 0
-1.93052e-06 -0.00970645 0
2.47696e-06 -0.00970956 0
1.71254e-07 -0.00970777 0
-2.56723e-06 -0.00970871 0
-2.98908e-06 -0.00970985 0
-4.64251e-07 -0.00970551 0
2.25701e-07 -0.00970892 0
5.25398e-07 -0.00970702 0
2.7727e-06 -0.00970846 0
SCALARS radius double 1
LOOKUP_TABLE default
0.0005192
0.000759374
0.000731582
0.000932767
0.000864852
0.00092132
0.000824734
0.000662097
0.000535446
0.00094621
0.000999249
0.000802661
0.000671708
0.000819153
0.000645007
0.000827505
0.000602392
0.000772815
0.000550095
0.000626194
0.000886859
0.000531918
0.000790192
0.000909137
0.00096445
SCALARS mass double 1
LOOKUP_TABLE default
0.00228657
0.0048913
0.00453983
0.00738005
0.00634449
0.00720004
0.00576955
0.0037184
0.0024319
0.00759432
0.00846957
0.00546484
0.00382714
0.00569173
0.00352892
0.00580838
0.00307803
0.005066
0.00256678
0.00332607
0.00667148
0.00239995
0.00529637
0.00701087
0.00788992
