# vtk DataFile Version 3.0
DEM2D particles
ASCII
DATASET POLYDATA
POINTS 25 double
0.000210492 -0.000304675 0
0.00247694 -0.000703964 0
0.00456711 -5.66368e-05 0
0.00674628 -0.000175351 0
0.00933215 0.000741776 0
0.000976388 0.00289595 0
0.00272805 0.0025804 0
0.00430175 0.00211159 0
0.00620408 0.00153427 0
0.00807857 0.00198023 0
0.00194188 0.00383291 0
0.00315848 0.00355199 0
0.00447748 0.00405619 0
0.00666273 0.00512874 0
0.00823043 0.00458126 0
0.0014505 0.00575159 0
0.0023961 0.00686495 0
0.00577483 0.00589003 0
0.00705357 0.00645165 0
0.00819693 0.00615736 0
6.49651e-05 0.00779855 0
0.00285477 0.00915856 0
0.0050706 0.00809134 0
0.00716435 0.00868636 0
0.00986735 0.00823527 0
VERTICES 25 50
1 0
1 1
1 2
1 3
1 4
1 5
1 6
1 7
1 8
1 9
1 10
1 11
1 12
1 13
1 14
1 15
1 16
1 17
1 18
1 19
1 20
1 21
1 22
1 23
1 24
POINT_DATA 25
VECTORS velocity double
-5.76943e-37 -0.00970858 0
-3.82235e-37 -0.00970858 0
-3.16342e-37 -0.00970858 0
-1.85411e-37 -0.00970858 0
2.42721e-37 -0.00970858 0
-1.7255e-38 -0.00970858 0
-1.98734e-37 -0.00970858 0
-5.10256e-37 -0.00970858 0
-5.81625e-37 -0.00970858 0
-6.73349e-37 -0.00970858 0
6.88292e-37 -0.00970858 0
1.15812e-37 -0.00970858 0
-3.81837e-37 -0.00970858 0
-2.46462e-37 -0.00970858 0
-5.62373e-37 -0.00970858 0
3.29209e-37 -0.00970858 0
-4.41307e-37 -0.00970858 0
5.66219e-37 -0.00970858 0
3.91477e-38 -0.00970858 0
-5.86855e-37 -0.00970858 0
-6.83288e-37 -0.00970858 0
-1.06125e-37 -0.00970858 0
5.15941e-38 -0.00970858 0
1.20103e-37 -0.00970858 0
6.33825e-37 -0.00970858 0
SCALARS radius double 1
LOOKUP_TABLE default
0.0005192
0.000759374
0.000731582
0.000932767
0.000864852
0.00092132
0.000824734
0.000662097
0.000535446
0.00094621
0.000999249
0.000802661
0.000671708
0.000819153
0.000645007
0.000827505
0.000602392
0.000772815
0.000550095
0.000626194
0.000886859
0.000531918
0.000790192
0.000909137
0.00096445
SCALARS mass double 1
LOOKUP_TABLE default
0.00228657
0.0048913
0.00453983
0.00738005
0.00634449
0.00720004
0.00576955
0.0037184
0.0024319
0.00759432
0.00846957
0.00546484
0.00382714
0.00569173
0.00352892
0.00580838
0.00307803
0.005066
0.00256678
0.00332607
0.00667148
0.00239995
0.00529637
0.00701087
0.00788992
