# vtk DataFile Version 3.0
DEM2D particles
ASCII
DATASET POLYDATA
POINTS 25 double
0.000210492 -0.000557098 0
0.00247694 -0.000956387 0
0.00456711 -0.00030906 0
0.00674628 -0.000427774 0
0.00933215 0.000489352 0
0.000976388 0.00264353 0
0.00272805 0.00232797 0
0.00430175 0.00185916 0
0.00620408 0.00128185 0
0.00807857 0.00172781 0
0.00194188 0.00358049 0
0.00315848 0.00329956 0
0.00447748 0.00380377 0
0.00666273 0.00487632 0
0.00823043 0.00432884 0
0.0014505 0.00549916 0
0.0023961 0.00661253 0
0.00577483 0.00563761 0
0.00705357 0.00619922 0
0.00819693 0.00590494 0
6.49651e-05 0.00754613 0
0.00285477 0.00890613 0
0.0050706 0.00783892 0
0.00716435 0.00843393 0
0.00986735 0.00798284 0
VERTICES 25 50
1 0
1 1
1 2
1 3
1 4
1 5
1 6
1 7
1 8
1 9
1 10
1 11
1 12
1 13
1 14
1 15
1 16
1 17
1 18
1 19
1 20
1 21
1 22
1 23
1 24
POINT_DATA 25
VECTORS velocity double
-2.58606e-48 -0.00970858 0
-1.71331e-48 -0.00970858 0
-1.41795e-48 -0.00970858 0
-8.31076e-49 -0.00970858 0
1.08796e-48 -0.00970858 0
-7.73431e-50 -0.00970858 0
-8.90797e-49 -0.00970858 0
-2.28715e-48 -0.00970858 0
-2.60705e-48 -0.00970858 0
-3.01819e-48 -0.00970858 0
3.08517e-48 -0.00970858 0
5.1911e-49 -0.00970858 0
-1.71153e-48 -0.00970858 0
-1.10473e-48 -0.00970858 0
-2.52075e-48 -0.00970858 0
1.47563e-48 -0.00970858 0
-1.97809e-48 -0.00970858 0
2.53799e-48 -0.00970858 0
1.75474e-49 -0.00970858 0
-2.63049e-48 -0.00970858 0
-3.06274e-48 -0.00970858 0
-4.75691e-49 -0.00970858 0
2.31263e-49 -0.00970858 0
5.38345e-49 -0.00970858 0
2.84103e-48 -0.00970858 0
SCALARS radius double 1
LOOKUP_TABLE default
0.0005192
0.000759374
0.000731582
0.000932767
0.000864852
0.00092132
0.000824734
0.000662097
0.000535446
0.00094621
0.000999249
0.000802661
0.000671708
0.000819153
0.000645007
0.000827505
0.000602392
0.000772815
0.000550095
0.000626194
0.000886859
0.000531918
0.000790192
0.000909137
0.00096445
SCALARS mass double 1
LOOKUP_TABLE default
0.00228657
0.0048913
0.00453983
0.00738005
0.00634449
0.00720004
0.00576955
0.0037184
0.0024319
0.00759432
0.00846957
0.00546484
0.00382714
0.00569173
0.00352892
0.00580838
0.00307803
0.005066
0.00256678
0.00332607
0.00667148
0.00239995
0.00529637
0.00701087
0.00788992
