# vtk DataFile Version 3.0
DEM2D particles
ASCII
DATASET POLYDATA
POINTS 25 double
0.000222083 0.000465773 0
0.00248462 7.23458e-05 0
0.00457346 0.000710169 0
0.00675 0.000593198 0
0.00932727 0.00149686 0
0.000976734 0.00364877 0
0.00273204 0.00333785 0
0.004312 0.00287592 0
0.00621577 0.00230708 0
0.00809209 0.0027465 0
0.00192805 0.00460134 0
0.00315615 0.00432454 0
0.00448515 0.00482134 0
0.00666768 0.00587814 0
0.00824173 0.0053387 0
0.00144389 0.00652121 0
0.00240497 0.00761823 0
0.00576346 0.00665762 0
0.00705278 0.00721099 0
0.00820872 0.00692102 0
7.86931e-05 0.00856748 0
0.00285691 0.00990752 0
0.00506957 0.00885598 0
0.00716194 0.00944225 0
0.00985461 0.00899779 0
VERTICES 25 50
1 0
1 1
1 2
1 3
1 4
1 5
1 6
1 7
1 8
1 9
1 10
1 11
1 12
1 13
1 14
1 15
1 16
1 17
1 18
1 19
1 20
1 21
1 22
1 23
1 24
POINT_DATA 25
VECTORS velocity double
-0.0117086 -0.0171356 0
-0.00775713 -0.0230571 0
-0.00641988 -0.0134572 0
-0.00376275 -0.0152177 0
0.00492582 -0.00161655 0
-0.000350176 0.000669892 0
-0.00403314 -0.00400981 0
-0.0103552 -0.0109624 0
-0.0118036 -0.0195241 0
-0.013665 -0.0129104 0
0.0139683 -0.0150952 0
0.0023503 -0.0192613 0
-0.00774905 -0.0117839 0
-0.00500173 0.00412223 0
-0.0114129 -0.003997 0
0.00668101 -0.0163012 0
-0.00895593 0.000210215 0
0.0114909 -0.014248 0
0.000794469 -0.00591922 0
-0.0119097 -0.0102835 0
-0.0138667 -0.0156048 0
-0.00215372 0.00456437 0
0.00104706 -0.0112626 0
0.00243739 -0.00243842 0
0.0128629 -0.00912818 0
SCALARS radius double 1
LOOKUP_TABLE default
0.0005192
0.000759374
0.000731582
0.000932767
0.000864852
0.00092132
0.000824734
0.000662097
0.000535446
0.00094621
0.000999249
0.000802661
0.000671708
0.000819153
0.000645007
0.000827505
0.000602392
0.000772815
0.000550095
0.000626194
0.000886859
0.000531918
0.000790192
0.000909137
0.00096445
SCALARS mass double 1
LOOKUP_TABLE default
0.00228657
0.0048913
0.00453983
0.00738005
0.00634449
0.00720004
0.00576955
0.0037184
0.0024319
0.00759432
0.00846957
0.00546484
0.00382714
0.00569173
0.00352892
0.00580838
0.00307803
0.005066
0.00256678
0.00332607
0.00667148
0.00239995
0.00529637
0.00701087
0.00788992
