# vtk DataFile Version 3.0
DEM2D particles
ASCII
DATASET POLYDATA
POINTS 25 double
0.000210492 8.36686e-05 0
0.00247694 -0.000315621 0
0.00456711 0.000331707 0
0.00674628 0.000212992 0
0.00933215 0.00113012 0
0.000976388 0.00328429 0
0.00272805 0.00296874 0
0.00430175 0.00249993 0
0.00620408 0.00192261 0
0.00807857 0.00236858 0
0.00194188 0.00422126 0
0.00315848 0.00394033 0
0.00447748 0.00444453 0
0.00666273 0.00551708 0
0.00823043 0.0049696 0
0.0014505 0.00613993 0
0.0023961 0.0072533 0
0.00577483 0.00627838 0
0.00705357 0.00683999 0
0.00819693 0.0065457 0
6.49651e-05 0.00818689 0
0.00285477 0.0095469 0
0.0050706 0.00847969 0
0.00716435 0.0090747 0
0.00986735 0.00862361 0
VERTICES 25 50
1 0
1 1
1 2
1 3
1 4
1 5
1 6
1 7
1 8
1 9
1 10
1 11
1 12
1 13
1 14
1 15
1 16
1 17
1 18
1 19
1 20
1 21
1 22
1 23
1 24
POINT_DATA 25
VECTORS velocity double
-1.66094e-19 -0.00970858 0
-1.1004e-19 -0.00970858 0
-9.10705e-20 -0.00970858 0
-5.33773e-20 -0.00970858 0
6.98763e-20 -0.00970858 0
-4.96749e-21 -0.00970858 0
-5.72129e-20 -0.00970858 0
-1.46896e-19 -0.00970858 0
-1.67442e-19 -0.00970858 0
-1.93848e-19 -0.00970858 0
1.9815e-19 -0.00970858 0
3.33407e-20 -0.00970858 0
-1.09926e-19 -0.00970858 0
-7.09531e-20 -0.00970858 0
-1.619e-19 -0.00970858 0
9.47748e-20 -0.00970858 0
-1.27046e-19 -0.00970858 0
1.63007e-19 -0.00970858 0
1.12701e-20 -0.00970858 0
-1.68948e-19 -0.00970858 0
-1.9671e-19 -0.00970858 0
-3.0552e-20 -0.00970858 0
1.48533e-20 -0.00970858 0
3.45761e-20 -0.00970858 0
1.8247e-19 -0.00970858 0
SCALARS radius double 1
LOOKUP_TABLE default
0.0005192
0.000759374
0.000731582
0.000932767
0.000864852
0.00092132
0.000824734
0.000662097
0.000535446
0.00094621
0.000999249
0.000802661
0.000671708
0.000819153
0.000645007
0.000827505
0.000602392
0.000772815
0.000550095
0.000626194
0.000886859
0.000531918
0.000790192
0.000909137
0.00096445
SCALARS mass double 1
LOOKUP_TABLE default
0.00228657
0.0048913
0.00453983
0.00738005
0.00634449
0.00720004
0.00576955
0.0037184
0.0024319
0.00759432
0.00846957
0.00546484
0.00382714
0.00569173
0.00352892
0.00580838
0.00307803
0.005066
0.00256678
0.00332607
0.00667148
0.00239995
0.00529637
0.00701087
0.00788992
