# vtk DataFile Version 3.0
DEM2D particles
ASCII
DATASET POLYDATA
POINTS 25 double
0.000210492 9.92024e-05 0
0.00247694 -0.000300087 0
0.00456711 0.00034724 0
0.00674628 0.000228526 0
0.00933215 0.00114565 0
0.000976388 0.00329983 0
0.00272805 0.00298427 0
0.00430175 0.00251546 0
0.00620408 0.00193815 0
0.00807857 0.00238411 0
0.00194188 0.00423679 0
0.00315848 0.00395586 0
0.00447748 0.00446007 0
0.00666273 0.00553262 0
0.00823043 0.00498514 0
0.0014505 0.00615546 0
0.0023961 0.00726883 0
0.00577483 0.00629391 0
0.00705357 0.00685552 0
0.00819693 0.00656124 0
6.49651e-05 0.00820243 0
0.00285477 0.00956243 0
0.0050706 0.00849522 0
0.00716435 0.00909023 0
0.00986735 0.00863914 0
VERTICES 25 50
1 0
1 1
1 2
1 3
1 4
1 5
1 6
1 7
1 8
1 9
1 10
1 11
1 12
1 13
1 14
1 15
1 16
1 17
1 18
1 19
1 20
1 21
1 22
1 23
1 24
POINT_DATA 25
VECTORS velocity double
-8.29322e-19 -0.00970858 0
-5.49441e-19 -0.00970858 0
-4.54723e-19 -0.00970858 0
-2.66517e-19 -0.00970858 0
3.48898e-19 -0.00970858 0
-2.48031e-20 -0.00970858 0
-2.85669e-19 -0.00970858 0
-7.33463e-19 -0.00970858 0
-8.36053e-19 -0.00970858 0
-9.679e-19 -0.00970858 0
9.8938e-19 -0.00970858 0
1.66473e-19 -0.00970858 0
-5.48869e-19 -0.00970858 0
-3.54275e-19 -0.00970858 0
-8.08379e-19 -0.00970858 0
4.73219e-19 -0.00970858 0
-6.34353e-19 -0.00970858 0
8.13907e-19 -0.00970858 0
5.62726e-20 -0.00970858 0
-8.4357e-19 -0.00970858 0
-9.82187e-19 -0.00970858 0
-1.52549e-19 -0.00970858 0
7.41635e-20 -0.00970858 0
1.72642e-19 -0.00970858 0
9.11087e-19 -0.00970858 0
SCALARS radius double 1
LOOKUP_TABLE default
0.0005192
0.000759374
0.000731582
0.000932767
0.000864852
0.00092132
0.000824734
0.000662097
0.000535446
0.00094621
0.000999249
0.000802661
0.000671708
0.000819153
0.000645007
0.000827505
0.000602392
0.000772815
0.000550095
0.000626194
0.000886859
0.000531918
0.000790192
0.000909137
0.00096445
SCALARS mass double 1
LOOKUP_TABLE default
0.00228657
0.0048913
0.00453983
0.00738005
0.00634449
0.00720004
0.00576955
0.0037184
0.0024319
0.00759432
0.00846957
0.00546484
0.00382714
0.00569173
0.00352892
0.00580838
0.00307803
0.005066
0.00256678
0.00332607
0.00667148
0.00239995
0.00529637
0.00701087
0.00788992
