# vtk DataFile Version 3.0
DEM2D particles
ASCII
DATASET POLYDATA
POINTS 25 double
0.000215679 0.000453944 0
0.00248037 5.7278e-05 0
0.00456995 0.000700352 0
0.00674794 0.000582418 0
0.00932997 0.00149352 0
0.000976543 0.00364668 0
0.00272983 0.0033332 0
0.00430634 0.00286747 0
0.00620931 0.00229395 0
0.00808462 0.00273698 0
0.00193569 0.00459063 0
0.00315744 0.00431155 0
0.00448091 0.00481244 0
0.00666495 0.00587794 0
0.00823549 0.00533406 0
0.00144754 0.00650983 0
0.00240007 0.00761589 0
0.00576974 0.00664737 0
0.00705322 0.0072053 0
0.0082022 0.00691294 0
7.11087e-05 0.00855649 0
0.00285573 0.00990756 0
0.00507014 0.00884736 0
0.00716327 0.00943846 0
0.00986165 0.00899034 0
VERTICES 25 50
1 0
1 1
1 2
1 3
1 4
1 5
1 6
1 7
1 8
1 9
1 10
1 11
1 12
1 13
1 14
1 15
1 16
1 17
1 18
1 19
1 20
1 21
1 22
1 23
1 24
POINT_DATA 25
VECTORS velocity double
-0.00523985 -0.0130323 0
-0.0034715 -0.0156824 0
-0.00287304 -0.0113862 0
-0.00168392 -0.012174 0
0.00220442 -0.00608721 0
-0.000156712 -0.00506397 0
-0.00180492 -0.00715825 0
-0.00463419 -0.0102697 0
-0.00528238 -0.0141012 0
-0.00611542 -0.0111415 0
0.00625113 -0.0121192 0
0.00105182 -0.0139837 0
-0.00346788 -0.0106373 0
-0.00223839 -0.00351897 0
-0.00510752 -0.00715252 0
0.00298991 -0.012659 0
-0.00400799 -0.00526969 0
0.00514245 -0.0117401 0
0.000355543 -0.00801275 0
-0.00532987 -0.00996589 0
-0.00620569 -0.0123473 0
-0.000963839 -0.0033211 0
0.000468582 -0.010404 0
0.00109079 -0.00645502 0
0.00575646 -0.00944884 0
SCALARS radius double 1
LOOKUP_TABLE default
0.0005192
0.000759374
0.000731582
0.000932767
0.000864852
0.00092132
0.000824734
0.000662097
0.000535446
0.00094621
0.000999249
0.000802661
0.000671708
0.000819153
0.000645007
0.000827505
0.000602392
0.000772815
0.000550095
0.000626194
0.000886859
0.000531918
0.000790192
0.000909137
0.00096445
SCALARS mass double 1
LOOKUP_TABLE default
0.00228657
0.0048913
0.00453983
0.00738005
0.00634449
0.00720004
0.00576955
0.0037184
0.0024319
0.00759432
0.00846957
0.00546484
0.00382714
0.00569173
0.00352892
0.00580838
0.00307803
0.005066
0.00256678
0.00332607
0.00667148
0.00239995
0.00529637
0.00701087
0.00788992
