# vtk DataFile Version 3.0
DEM2D particles
ASCII
DATASET POLYDATA
POINTS 25 double
0.000210492 7.20183e-05 0
0.00247694 -0.000327271 0
0.00456711 0.000320056 0
0.00674628 0.000201342 0
0.00933215 0.00111847 0
0.000976388 0.00327264 0
0.00272805 0.00295709 0
0.00430175 0.00248828 0
0.00620408 0.00191096 0
0.00807857 0.00235693 0
0.00194188 0.0042096 0
0.00315848 0.00392868 0
0.00447748 0.00443288 0
0.00666273 0.00550543 0
0.00823043 0.00495795 0
0.0014505 0.00612828 0
0.0023961 0.00724165 0
0.00577483 0.00626673 0
0.00705357 0.00682834 0
0.00819693 0.00653405 0
6.49651e-05 0.00817524 0
0.00285477 0.00953525 0
0.0050706 0.00846804 0
0.00716435 0.00906305 0
0.00986735 0.00861196 0
VERTICES 25 50
1 0
1 1
1 2
1 3
1 4
1 5
1 6
1 7
1 8
1 9
1 10
1 11
1 12
1 13
1 14
1 15
1 16
1 17
1 18
1 19
1 20
1 21
1 22
1 23
1 24
POINT_DATA 25
VECTORS velocity double
-4.97253e-20 -0.00970858 0
-3.29439e-20 -0.00970858 0
-2.72647e-20 -0.00970858 0
-1.59801e-20 -0.00970858 0
2.09196e-20 -0.00970858 0
-1.48717e-21 -0.00970858 0
-1.71284e-20 -0.00970858 0
-4.39777e-20 -0.00970858 0
-5.01289e-20 -0.00970858 0
-5.80343e-20 -0.00970858 0
5.93223e-20 -0.00970858 0
9.98156e-21 -0.00970858 0
-3.29096e-20 -0.00970858 0
-2.1242e-20 -0.00970858 0
-4.84696e-20 -0.00970858 0
2.83737e-20 -0.00970858 0
-3.80352e-20 -0.00970858 0
4.88011e-20 -0.00970858 0
3.37405e-21 -0.00970858 0
-5.05796e-20 -0.00970858 0
-5.8891e-20 -0.00970858 0
-9.14668e-21 -0.00970858 0
4.44677e-21 -0.00970858 0
1.03514e-20 -0.00970858 0
5.46279e-20 -0.00970858 0
SCALARS radius double 1
LOOKUP_TABLE default
0.0005192
0.000759374
0.000731582
0.000932767
0.000864852
0.00092132
0.000824734
0.000662097
0.000535446
0.00094621
0.000999249
0.000802661
0.000671708
0.000819153
0.000645007
0.000827505
0.000602392
0.000772815
0.000550095
0.000626194
0.000886859
0.000531918
0.000790192
0.000909137
0.00096445
SCALARS mass double 1
LOOKUP_TABLE default
0.00228657
0.0048913
0.00453983
0.00738005
0.00634449
0.00720004
0.00576955
0.0037184
0.0024319
0.00759432
0.00846957
0.00546484
0.00382714
0.00569173
0.00352892
0.00580838
0.00307803
0.005066
0.00256678
0.00332607
0.00667148
0.00239995
0.00529637
0.00701087
0.00788992
