# vtk DataFile Version 3.0
DEM2D particles
ASCII
DATASET POLYDATA
POINTS 25 double
0.000210492 -0.00111631 0
0.00247694 -0.0015156 0
0.00456711 -0.000868274 0
0.00674628 -0.000986988 0
0.00933215 -6.9862e-05 0
0.000976388 0.00208431 0
0.00272805 0.00176876 0
0.00430175 0.00129995 0
0.00620408 0.000722633 0
0.00807857 0.00116859 0
0.00194188 0.00302127 0
0.00315848 0.00274035 0
0.00447748 0.00324455 0
0.00666273 0.0043171 0
0.00823043 0.00376962 0
0.0014505 0.00493995 0
0.0023961 0.00605332 0
0.00577483 0.0050784 0
0.00705357 0.00564001 0
0.00819693 0.00534572 0
6.49651e-05 0.00698691 0
0.00285477 0.00834692 0
0.0050706 0.00727971 0
0.00716435 0.00787472 0
0.00986735 0.00742363 0
VERTICES 25 50
1 0
1 1
1 2
1 3
1 4
1 5
1 6
1 7
1 8
1 9
1 10
1 11
1 12
1 13
1 14
1 15
1 16
1 17
1 18
1 19
1 20
1 21
1 22
1 23
1 24
POINT_DATA 25
VECTORS velocity double
-1.86793e-73 -0.00970858 0
-1.23753e-73 -0.00970858 0
-1.0242e-73 -0.00970858 0
-6.0029e-74 -0.00970858 0
7.85841e-74 -0.00970858 0
-5.58653e-75 -0.00970858 0
-6.43427e-74 -0.00970858 0
-1.65202e-73 -0.00970858 0
-1.88309e-73 -0.00970858 0
-2.18005e-73 -0.00970858 0
2.22843e-73 -0.00970858 0
3.74956e-74 -0.00970858 0
-1.23625e-73 -0.00970858 0
-7.97952e-74 -0.00970858 0
-1.82075e-73 -0.00970858 0
1.06586e-73 -0.00970858 0
-1.42879e-73 -0.00970858 0
1.83321e-73 -0.00970858 0
1.26746e-74 -0.00970858 0
-1.90002e-73 -0.00970858 0
-2.21223e-73 -0.00970858 0
-3.43594e-74 -0.00970858 0
1.67042e-74 -0.00970858 0
3.8885e-74 -0.00970858 0
2.05209e-73 -0.00970858 0
SCALARS radius double 1
LOOKUP_TABLE default
0.0005192
0.000759374
0.000731582
0.000932767
0.000864852
0.00092132
0.000824734
0.000662097
0.000535446
0.00094621
0.000999249
0.000802661
0.000671708
0.000819153
0.000645007
0.000827505
0.000602392
0.000772815
0.000550095
0.000626194
0.000886859
0.000531918
0.000790192
0.000909137
0.00096445
SCALARS mass double 1
LOOKUP_TABLE default
0.00228657
0.0048913
0.00453983
0.00738005
0.00634449
0.00720004
0.00576955
0.0037184
0.0024319
0.00759432
0.00846957
0.00546484
0.00382714
0.00569173
0.00352892
0.00580838
0.00307803
0.005066
0.00256678
0.00332607
0.00667148
0.00239995
0.00529637
0.00701087
0.00788992
