# vtk DataFile Version 3.0
DEM2D particles
ASCII
DATASET POLYDATA
POINTS 25 double
0.000210492 3.90092e-05 0
0.00247694 -0.00036028 0
0.00456711 0.000287047 0
0.00674628 0.000168333 0
0.00933215 0.00108546 0
0.000976388 0.00323963 0
0.00272805 0.00292408 0
0.00430175 0.00245527 0
0.00620408 0.00187795 0
0.00807857 0.00232392 0
0.00194188 0.0041766 0
0.00315848 0.00389567 0
0.00447748 0.00439987 0
0.00666273 0.00547243 0
0.00823043 0.00492495 0
0.0014505 0.00609527 0
0.0023961 0.00720864 0
0.00577483 0.00623372 0
0.00705357 0.00679533 0
0.00819693 0.00650104 0
6.49651e-05 0.00814223 0
0.00285477 0.00950224 0
0.0050706 0.00843503 0
0.00716435 0.00903004 0
0.00986735 0.00857895 0
VERTICES 25 50
1 0
1 1
1 2
1 3
1 4
1 5
1 6
1 7
1 8
1 9
1 10
1 11
1 12
1 13
1 14
1 15
1 16
1 17
1 18
1 19
1 20
1 21
1 22
1 23
1 24
POINT_DATA 25
VECTORS velocity double
-1.63134e-21 -0.00970858 0
-1.08079e-21 -0.00970858 0
-8.94473e-22 -0.00970858 0
-5.24259e-22 -0.00970858 0
6.86308e-22 -0.00970858 0
-4.87895e-23 -0.00970858 0
-5.61932e-22 -0.00970858 0
-1.44278e-21 -0.00970858 0
-1.64458e-21 -0.00970858 0
-1.90393e-21 -0.00970858 0
1.94618e-21 -0.00970858 0
3.27465e-22 -0.00970858 0
-1.07967e-21 -0.00970858 0
-6.96885e-22 -0.00970858 0
-1.59014e-21 -0.00970858 0
9.30856e-22 -0.00970858 0
-1.24782e-21 -0.00970858 0
1.60102e-21 -0.00970858 0
1.10692e-22 -0.00970858 0
-1.65937e-21 -0.00970858 0
-1.93204e-21 -0.00970858 0
-3.00075e-22 -0.00970858 0
1.45885e-22 -0.00970858 0
3.39599e-22 -0.00970858 0
1.79218e-21 -0.00970858 0
SCALARS radius double 1
LOOKUP_TABLE default
0.0005192
0.000759374
0.000731582
0.000932767
0.000864852
0.00092132
0.000824734
0.000662097
0.000535446
0.00094621
0.000999249
0.000802661
0.000671708
0.000819153
0.000645007
0.000827505
0.000602392
0.000772815
0.000550095
0.000626194
0.000886859
0.000531918
0.000790192
0.000909137
0.00096445
SCALARS mass double 1
LOOKUP_TABLE default
0.00228657
0.0048913
0.00453983
0.00738005
0.00634449
0.00720004
0.00576955
0.0037184
0.0024319
0.00759432
0.00846957
0.00546484
0.00382714
0.00569173
0.00352892
0.00580838
0.00307803
0.005066
0.00256678
0.00332607
0.00667148
0.00239995
0.00529637
0.00701087
0.00788992
