# vtk DataFile Version 3.0
DEM2D particles
ASCII
DATASET POLYDATA
POINTS 25 double
0.000210492 2.15337e-05 0
0.00247694 -0.000377755 0
0.00456711 0.000269572 0
0.00674628 0.000150858 0
0.00933215 0.00106798 0
0.000976388 0.00322216 0
0.00272805 0.00290661 0
0.00430175 0.00243779 0
0.00620408 0.00186048 0
0.00807857 0.00230644 0
0.00194188 0.00415912 0
0.00315848 0.0038782 0
0.00447748 0.0043824 0
0.00666273 0.00545495 0
0.00823043 0.00490747 0
0.0014505 0.00607779 0
0.0023961 0.00719116 0
0.00577483 0.00621624 0
0.00705357 0.00677785 0
0.00819693 0.00648357 0
6.49651e-05 0.00812476 0
0.00285477 0.00948476 0
0.0050706 0.00841755 0
0.00716435 0.00901257 0
0.00986735 0.00856147 0
VERTICES 25 50
1 0
1 1
1 2
1 3
1 4
1 5
1 6
1 7
1 8
1 9
1 10
1 11
1 12
1 13
1 14
1 15
1 16
1 17
1 18
1 19
1 20
1 21
1 22
1 23
1 24
POINT_DATA 25
VECTORS velocity double
-2.67226e-22 -0.00970858 0
-1.77042e-22 -0.00970858 0
-1.46522e-22 -0.00970858 0
-8.58778e-23 -0.00970858 0
1.12423e-22 -0.00970858 0
-7.99211e-24 -0.00970858 0
-9.20489e-23 -0.00970858 0
-2.36338e-22 -0.00970858 0
-2.69395e-22 -0.00970858 0
-3.11879e-22 -0.00970858 0
3.188e-22 -0.00970858 0
5.36413e-23 -0.00970858 0
-1.76858e-22 -0.00970858 0
-1.14155e-22 -0.00970858 0
-2.60478e-22 -0.00970858 0
1.52482e-22 -0.00970858 0
-2.04403e-22 -0.00970858 0
2.62259e-22 -0.00970858 0
1.81323e-23 -0.00970858 0
-2.71817e-22 -0.00970858 0
-3.16483e-22 -0.00970858 0
-4.91547e-23 -0.00970858 0
2.38971e-23 -0.00970858 0
5.5629e-23 -0.00970858 0
2.93573e-22 -0.00970858 0
SCALARS radius double 1
LOOKUP_TABLE default
0.0005192
0.000759374
0.000731582
0.000932767
0.000864852
0.00092132
0.000824734
0.000662097
0.000535446
0.00094621
0.000999249
0.000802661
0.000671708
0.000819153
0.000645007
0.000827505
0.000602392
0.000772815
0.000550095
0.000626194
0.000886859
0.000531918
0.000790192
0.000909137
0.00096445
SCALARS mass double 1
LOOKUP_TABLE default
0.00228657
0.0048913
0.00453983
0.00738005
0.00634449
0.00720004
0.00576955
0.0037184
0.0024319
0.00759432
0.00846957
0.00546484
0.00382714
0.00569173
0.00352892
0.00580838
0.00307803
0.005066
0.00256678
0.00332607
0.00667148
0.00239995
0.00529637
0.00701087
0.00788992
