# vtk DataFile Version 3.0
DEM2D particles
ASCII
DATASET POLYDATA
POINTS 25 double
0.000210492 -0.000838647 0
0.00247694 -0.00123794 0
0.00456711 -0.000590609 0
0.00674628 -0.000709323 0
0.00933215 0.000207803 0
0.000976388 0.00236198 0
0.00272805 0.00204643 0
0.00430175 0.00157761 0
0.00620408 0.0010003 0
0.00807857 0.00144626 0
0.00194188 0.00329894 0
0.00315848 0.00301801 0
0.00447748 0.00352222 0
0.00666273 0.00459477 0
0.00823043 0.00404729 0
0.0014505 0.00521761 0
0.0023961 0.00633098 0
0.00577483 0.00535606 0
0.00705357 0.00591767 0
0.00819693 0.00562339 0
6.49651e-05 0.00726458 0
0.00285477 0.00862458 0
0.0050706 0.00755737 0
0.00716435 0.00815238 0
0.00986735 0.00770129 0
VERTICES 25 50
1 0
1 1
1 2
1 3
1 4
1 5
1 6
1 7
1 8
1 9
1 10
1 11
1 12
1 13
1 14
1 15
1 16
1 17
1 18
1 19
1 20
1 21
1 22
1 23
1 24
POINT_DATA 25
VECTORS velocity double
-5.68464e-61 -0.00970858 0
-3.76618e-61 -0.00970858 0
-3.11693e-61 -0.00970858 0
-1.82686e-61 -0.00970858 0
2.39154e-61 -0.00970858 0
-1.70014e-62 -0.00970858 0
-1.95814e-61 -0.00970858 0
-5.02757e-61 -0.00970858 0
-5.73078e-61 -0.00970858 0
-6.63453e-61 -0.00970858 0
6.78177e-61 -0.00970858 0
1.1411e-61 -0.00970858 0
-3.76226e-61 -0.00970858 0
-2.4284e-61 -0.00970858 0
-5.54108e-61 -0.00970858 0
3.24371e-61 -0.00970858 0
-4.34821e-61 -0.00970858 0
5.57898e-61 -0.00970858 0
3.85724e-62 -0.00970858 0
-5.78231e-61 -0.00970858 0
-6.73247e-61 -0.00970858 0
-1.04566e-61 -0.00970858 0
5.08359e-62 -0.00970858 0
1.18338e-61 -0.00970858 0
6.2451e-61 -0.00970858 0
SCALARS radius double 1
LOOKUP_TABLE default
0.0005192
0.000759374
0.000731582
0.000932767
0.000864852
0.00092132
0.000824734
0.000662097
0.000535446
0.00094621
0.000999249
0.000802661
0.000671708
0.000819153
0.000645007
0.000827505
0.000602392
0.000772815
0.000550095
0.000626194
0.000886859
0.000531918
0.000790192
0.000909137
0.00096445
SCALARS mass double 1
LOOKUP_TABLE default
0.00228657
0.0048913
0.00453983
0.00738005
0.00634449
0.00720004
0.00576955
0.0037184
0.0024319
0.00759432
0.00846957
0.00546484
0.00382714
0.00569173
0.00352892
0.00580838
0.00307803
0.005066
0.00256678
0.00332607
0.00667148
0.00239995
0.00529637
0.00701087
0.00788992
