# vtk DataFile Version 3.0
DEM2D particles
ASCII
DATASET POLYDATA
POINTS 25 double
0.000210492 0.000295316 0
0.00247694 -0.000103973 0
0.00456711 0.000543354 0
0.00674628 0.00042464 0
0.00933215 0.00134177 0
0.000976388 0.00349594 0
0.00272805 0.00318039 0
0.00430175 0.00271158 0
0.00620408 0.00213426 0
0.00807857 0.00258022 0
0.00194188 0.0044329 0
0.00315848 0.00415198 0
0.00447748 0.00465618 0
0.00666273 0.00572873 0
0.00823043 0.00518125 0
0.0014505 0.00635158 0
0.0023961 0.00746494 0
0.00577483 0.00649002 0
0.00705357 0.00705164 0
0.00819693 0.00675735 0
6.49651e-05 0.00839854 0
0.00285477 0.00975855 0
0.0050706 0.00869133 0
0.00716435 0.00928635 0
0.00986735 0.00883526 0
VERTICES 25 50
1 0
1 1
1 2
1 3
1 4
1 5
1 6
1 7
1 8
1 9
1 10
1 11
1 12
1 13
1 14
1 15
1 16
1 17
1 18
1 19
1 20
1 21
1 22
1 23
1 24
POINT_DATA 25
VECTORS velocity double
-5.44039e-10 -0.00970858 0
-3.60436e-10 -0.00970858 0
-2.983e-10 -0.00970858 0
-1.74836e-10 -0.00970858 0
2.28879e-10 -0.00970858 0
-1.6271e-11 -0.00970858 0
-1.874e-10 -0.00970858 0
-4.81155e-10 -0.00970858 0
-5.48455e-10 -0.00970858 0
-6.34947e-10 -0.00970858 0
6.49038e-10 -0.00970858 0
1.09207e-10 -0.00970858 0
-3.60061e-10 -0.00970858 0
-2.32406e-10 -0.00970858 0
-5.303e-10 -0.00970858 0
3.10434e-10 -0.00970858 0
-4.16138e-10 -0.00970858 0
5.33927e-10 -0.00970858 0
3.69151e-11 -0.00970858 0
-5.53386e-10 -0.00970858 0
-6.4432e-10 -0.00970858 0
-1.00073e-10 -0.00970858 0
4.86516e-11 -0.00970858 0
1.13254e-10 -0.00970858 0
5.97677e-10 -0.00970858 0
SCALARS radius double 1
LOOKUP_TABLE default
0.0005192
0.000759374
0.000731582
0.000932767
0.000864852
0.00092132
0.000824734
0.000662097
0.000535446
0.00094621
0.000999249
0.000802661
0.000671708
0.000819153
0.000645007
0.000827505
0.000602392
0.000772815
0.000550095
0.000626194
0.000886859
0.000531918
0.000790192
0.000909137
0.00096445
SCALARS mass double 1
LOOKUP_TABLE default
0.00228657
0.0048913
0.00453983
0.00738005
0.00634449
0.00720004
0.00576955
0.0037184
0.0024319
0.00759432
0.00846957
0.00546484
0.00382714
0.00569173
0.00352892
0.00580838
0.00307803
0.005066
0.00256678
0.00332607
0.00667148
0.00239995
0.00529637
0.00701087
0.00788992
