# vtk DataFile Version 3.0
DEM2D particles
ASCII
DATASET POLYDATA
POINTS 25 double
0.000210492 -0.000524089 0
0.00247694 -0.000923378 0
0.00456711 -0.000276051 0
0.00674628 -0.000394765 0
0.00933215 0.000522362 0
0.000976388 0.00267654 0
0.00272805 0.00236098 0
0.00430175 0.00189217 0
0.00620408 0.00131486 0
0.00807857 0.00176082 0
0.00194188 0.0036135 0
0.00315848 0.00333257 0
0.00447748 0.00383678 0
0.00666273 0.00490933 0
0.00823043 0.00436185 0
0.0014505 0.00553217 0
0.0023961 0.00664554 0
0.00577483 0.00567062 0
0.00705357 0.00623223 0
0.00819693 0.00593795 0
6.49651e-05 0.00757914 0
0.00285477 0.00893914 0
0.0050706 0.00787193 0
0.00716435 0.00846694 0
0.00986735 0.00801585 0
VERTICES 25 50
1 0
1 1
1 2
1 3
1 4
1 5
1 6
1 7
1 8
1 9
1 10
1 11
1 12
1 13
1 14
1 15
1 16
1 17
1 18
1 19
1 20
1 21
1 22
1 23
1 24
POINT_DATA 25
VECTORS velocity double
-7.88266e-47 -0.00970858 0
-5.2224e-47 -0.00970858 0
-4.32211e-47 -0.00970858 0
-2.53323e-47 -0.00970858 0
3.31625e-47 -0.00970858 0
-2.35752e-48 -0.00970858 0
-2.71527e-47 -0.00970858 0
-6.97153e-47 -0.00970858 0
-7.94663e-47 -0.00970858 0
-9.19983e-47 -0.00970858 0
9.404e-47 -0.00970858 0
1.58232e-47 -0.00970858 0
-5.21696e-47 -0.00970858 0
-3.36736e-47 -0.00970858 0
-7.68359e-47 -0.00970858 0
4.49791e-47 -0.00970858 0
-6.02948e-47 -0.00970858 0
7.73614e-47 -0.00970858 0
5.34867e-48 -0.00970858 0
-8.01808e-47 -0.00970858 0
-9.33563e-47 -0.00970858 0
-1.44997e-47 -0.00970858 0
7.0492e-48 -0.00970858 0
1.64095e-47 -0.00970858 0
8.65983e-47 -0.00970858 0
SCALARS radius double 1
LOOKUP_TABLE default
0.0005192
0.000759374
0.000731582
0.000932767
0.000864852
0.00092132
0.000824734
0.000662097
0.000535446
0.00094621
0.000999249
0.000802661
0.000671708
0.000819153
0.000645007
0.000827505
0.000602392
0.000772815
0.000550095
0.000626194
0.000886859
0.000531918
0.000790192
0.000909137
0.00096445
SCALARS mass double 1
LOOKUP_TABLE default
0.00228657
0.0048913
0.00453983
0.00738005
0.00634449
0.00720004
0.00576955
0.0037184
0.0024319
0.00759432
0.00846957
0.00546484
0.00382714
0.00569173
0.00352892
0.00580838
0.00307803
0.005066
0.00256678
0.00332607
0.00667148
0.00239995
0.00529637
0.00701087
0.00788992
