# vtk DataFile Version 3.0
DEM2D particles
ASCII
DATASET POLYDATA
POINTS 25 double
0.000210492 0.000211822 0
0.00247694 -0.000187467 0
0.00456711 0.00045986 0
0.00674628 0.000341146 0
0.00933215 0.00125827 0
0.000976388 0.00341245 0
0.00272805 0.00309689 0
0.00430175 0.00262808 0
0.00620408 0.00205077 0
0.00807857 0.00249673 0
0.00194188 0.00434941 0
0.00315848 0.00406848 0
0.00447748 0.00457269 0
0.00666273 0.00564524 0
0.00823043 0.00509776 0
0.0014505 0.00626808 0
0.0023961 0.00738145 0
0.00577483 0.00640653 0
0.00705357 0.00696814 0
0.00819693 0.00667386 0
6.49651e-05 0.00831505 0
0.00285477 0.00967505 0
0.0050706 0.00860784 0
0.00716435 0.00920285 0
0.00986735 0.00875176 0
VERTICES 25 50
1 0
1 1
1 2
1 3
1 4
1 5
1 6
1 7
1 8
1 9
1 10
1 11
1 12
1 13
1 14
1 15
1 16
1 17
1 18
1 19
1 20
1 21
1 22
1 23
1 24
POINT_DATA 25
VECTORS velocity double
-9.59174e-14 -0.00970858 0
-6.3547e-14 -0.00970858 0
-5.25922e-14 -0.00970858 0
-3.08247e-14 -0.00970858 0
4.03527e-14 -0.00970858 0
-2.86867e-15 -0.00970858 0
-3.30398e-14 -0.00970858 0
-8.48306e-14 -0.00970858 0
-9.66959e-14 -0.00970858 0
-1.11945e-13 -0.00970858 0
1.14429e-13 -0.00970858 0
1.92539e-14 -0.00970858 0
-6.34809e-14 -0.00970858 0
-4.09746e-14 -0.00970858 0
-9.34952e-14 -0.00970858 0
5.47313e-14 -0.00970858 0
-7.33677e-14 -0.00970858 0
9.41346e-14 -0.00970858 0
6.50835e-15 -0.00970858 0
-9.75653e-14 -0.00970858 0
-1.13597e-13 -0.00970858 0
-1.76434e-14 -0.00970858 0
8.57758e-15 -0.00970858 0
1.99673e-14 -0.00970858 0
1.05374e-13 -0.00970858 0
SCALARS radius double 1
LOOKUP_TABLE default
0.0005192
0.000759374
0.000731582
0.000932767
0.000864852
0.00092132
0.000824734
0.000662097
0.000535446
0.00094621
0.000999249
0.000802661
0.000671708
0.000819153
0.000645007
0.000827505
0.000602392
0.000772815
0.000550095
0.000626194
0.000886859
0.000531918
0.000790192
0.000909137
0.00096445
SCALARS mass double 1
LOOKUP_TABLE default
0.00228657
0.0048913
0.00453983
0.00738005
0.00634449
0.00720004
0.00576955
0.0037184
0.0024319
0.00759432
0.00846957
0.00546484
0.00382714
0.00569173
0.00352892
0.00580838
0.00307803
0.005066
0.00256678
0.00332607
0.00667148
0.00239995
0.00529637
0.00701087
0.00788992
