# vtk DataFile Version 3.0
DEM2D particles
ASCII
DATASET POLYDATA
POINTS 25 double
0.000210492 -0.00135126 0
0.00247694 -0.00175055 0
0.00456711 -0.00110322 0
0.00674628 -0.00122194 0
0.00933215 -0.00030481 0
0.000976388 0.00184937 0
0.00272805 0.00153381 0
0.00430175 0.001065 0
0.00620408 0.000487686 0
0.00807857 0.000933647 0
0.00194188 0.00278633 0
0.00315848 0.0025054 0
0.00447748 0.0030096 0
0.00666273 0.00408216 0
0.00823043 0.00353468 0
0.0014505 0.004705 0
0.0023961 0.00581837 0
0.00577483 0.00484345 0
0.00705357 0.00540506 0
0.00819693 0.00511077 0
6.49651e-05 0.00675197 0
0.00285477 0.00811197 0
0.0050706 0.00704476 0
0.00716435 0.00763977 0
0.00986735 0.00718868 0
VERTICES 25 50
1 0
1 1
1 2
1 3
1 4
1 5
1 6
1 7
1 8
1 9
1 10
1 11
1 12
1 13
1 14
1 15
1 16
1 17
1 18
1 19
1 20
1 21
1 22
1 23
1 24
POINT_DATA 25
VECTORS velocity double
-5.11129e-84 -0.00970858 0
-3.38632e-84 -0.00970858 0
-2.80255e-84 -0.00970858 0
-1.6426e-84 -0.00970858 0
2.15033e-84 -0.00970858 0
-1.52867e-85 -0.00970858 0
-1.76064e-84 -0.00970858 0
-4.52049e-84 -0.00970858 0
-5.15277e-84 -0.00970858 0
-5.96538e-84 -0.00970858 0
6.09776e-84 -0.00970858 0
1.02601e-84 -0.00970858 0
-3.3828e-84 -0.00970858 0
-2.18347e-84 -0.00970858 0
-4.98221e-84 -0.00970858 0
2.91655e-84 -0.00970858 0
-3.90965e-84 -0.00970858 0
5.01628e-84 -0.00970858 0
3.4682e-85 -0.00970858 0
-5.1991e-84 -0.00970858 0
-6.05343e-84 -0.00970858 0
-9.40192e-85 -0.00970858 0
4.57086e-85 -0.00970858 0
1.06403e-84 -0.00970858 0
5.61522e-84 -0.00970858 0
SCALARS radius double 1
LOOKUP_TABLE default
0.0005192
0.000759374
0.000731582
0.000932767
0.000864852
0.00092132
0.000824734
0.000662097
0.000535446
0.00094621
0.000999249
0.000802661
0.000671708
0.000819153
0.000645007
0.000827505
0.000602392
0.000772815
0.000550095
0.000626194
0.000886859
0.000531918
0.000790192
0.000909137
0.00096445
SCALARS mass double 1
LOOKUP_TABLE default
0.00228657
0.0048913
0.00453983
0.00738005
0.00634449
0.00720004
0.00576955
0.0037184
0.0024319
0.00759432
0.00846957
0.00546484
0.00382714
0.00569173
0.00352892
0.00580838
0.00307803
0.005066
0.00256678
0.00332607
0.00667148
0.00239995
0.00529637
0.00701087
0.00788992
