# vtk DataFile Version 3.0
DEM2D particles
ASCII
DATASET POLYDATA
POINTS 25 double
0.000210492 0.000353567 0
0.00247694 -4.57217e-05 0
0.00456711 0.000601605 0
0.00674628 0.000482891 0
0.00933215 0.00140002 0
0.000976388 0.00355419 0
0.00272805 0.00323864 0
0.00430175 0.00276983 0
0.00620408 0.00219251 0
0.00807857 0.00263847 0
0.00194188 0.00449115 0
0.00315848 0.00421023 0
0.00447748 0.00471443 0
0.00666273 0.00578698 0
0.00823043 0.0052395 0
0.0014505 0.00640983 0
0.0023961 0.0075232 0
0.00577483 0.00654828 0
0.00705357 0.00710989 0
0.00819693 0.0068156 0
6.49653e-05 0.00845679 0
0.00285477 0.0098168 0
0.0050706 0.00874959 0
0.00716435 0.0093446 0
0.00986735 0.00889351 0
VERTICES 25 50
1 0
1 1
1 2
1 3
1 4
1 5
1 6
1 7
1 8
1 9
1 10
1 11
1 12
1 13
1 14
1 15
1 16
1 17
1 18
1 19
1 20
1 21
1 22
1 23
1 24
POINT_DATA 25
VECTORS velocity double
-2.26211e-07 -0.00970873 0
-1.49869e-07 -0.00970884 0
-1.24033e-07 -0.00970866 0
-7.26968e-08 -0.00970869 0
9.51675e-08 -0.00970843 0
-6.76544e-09 -0.00970838 0
-7.79208e-08 -0.00970847 0
-2.00064e-07 -0.00970861 0
-2.28047e-07 -0.00970877 0
-2.6401e-07 -0.00970865 0
2.69869e-07 -0.00970869 0
4.54082e-08 -0.00970877 0
-1.49713e-07 -0.00970862 0
-9.66341e-08 -0.00970832 0
-2.20498e-07 -0.00970847 0
1.29078e-07 -0.00970871 0
-1.7303e-07 -0.00970839 0
2.22006e-07 -0.00970867 0
1.53492e-08 -0.00970851 0
-2.30097e-07 -0.00970859 0
-2.67907e-07 -0.0097087 0
-4.16101e-08 -0.00970831 0
2.02293e-08 -0.00970861 0
4.70907e-08 -0.00970844 0
2.48513e-07 -0.00970857 0
SCALARS radius double 1
LOOKUP_TABLE default
0.0005192
0.000759374
0.000731582
0.000932767
0.000864852
0.00092132
0.000824734
0.000662097
0.000535446
0.00094621
0.000999249
0.000802661
0.000671708
0.000819153
0.000645007
0.000827505
0.000602392
0.000772815
0.000550095
0.000626194
0.000886859
0.000531918
0.000790192
0.000909137
0.00096445
SCALARS mass double 1
LOOKUP_TABLE default
0.00228657
0.0048913
0.00453983
0.00738005
0.00634449
0.00720004
0.00576955
0.0037184
0.0024319
0.00759432
0.00846957
0.00546484
0.00382714
0.00569173
0.00352892
0.00580838
0.00307803
0.005066
0.00256678
0.00332607
0.00667148
0.00239995
0.00529637
0.00701087
0.00788992
