# vtk DataFile Version 3.0
DEM2D particles
ASCII
DATASET POLYDATA
POINTS 25 double
0.000210492 -0.000597874 0
0.00247694 -0.000997163 0
0.00456711 -0.000349836 0
0.00674628 -0.00046855 0
0.00933215 0.000448576 0
0.000976388 0.00260275 0
0.00272805 0.0022872 0
0.00430175 0.00181839 0
0.00620408 0.00124107 0
0.00807857 0.00168703 0
0.00194188 0.00353971 0
0.00315848 0.00325879 0
0.00447748 0.00376299 0
0.00666273 0.00483554 0
0.00823043 0.00428806 0
0.0014505 0.00545839 0
0.0023961 0.00657176 0
0.00577483 0.00559683 0
0.00705357 0.00615845 0
0.00819693 0.00586416 0
6.49651e-05 0.00750535 0
0.00285477 0.00886536 0
0.0050706 0.00779814 0
0.00716435 0.00839316 0
0.00986735 0.00794207 0
VERTICES 25 50
1 0
1 1
1 2
1 3
1 4
1 5
1 6
1 7
1 8
1 9
1 10
1 11
1 12
1 13
1 14
1 15
1 16
1 17
1 18
1 19
1 20
1 21
1 22
1 23
1 24
POINT_DATA 25
VECTORS velocity double
-3.79682e-50 -0.00970858 0
-2.51546e-50 -0.00970858 0
-2.08182e-50 -0.00970858 0
-1.22018e-50 -0.00970858 0
1.59733e-50 -0.00970858 0
-1.13554e-51 -0.00970858 0
-1.30786e-50 -0.00970858 0
-3.35796e-50 -0.00970858 0
-3.82764e-50 -0.00970858 0
-4.43126e-50 -0.00970858 0
4.52961e-50 -0.00970858 0
7.62151e-51 -0.00970858 0
-2.51285e-50 -0.00970858 0
-1.62195e-50 -0.00970858 0
-3.70094e-50 -0.00970858 0
2.1665e-50 -0.00970858 0
-2.90421e-50 -0.00970858 0
3.72625e-50 -0.00970858 0
2.57629e-51 -0.00970858 0
-3.86206e-50 -0.00970858 0
-4.49668e-50 -0.00970858 0
-6.98403e-51 -0.00970858 0
3.39537e-51 -0.00970858 0
7.90392e-51 -0.00970858 0
4.17116e-50 -0.00970858 0
SCALARS radius double 1
LOOKUP_TABLE default
0.0005192
0.000759374
0.000731582
0.000932767
0.000864852
0.00092132
0.000824734
0.000662097
0.000535446
0.00094621
0.000999249
0.000802661
0.000671708
0.000819153
0.000645007
0.000827505
0.000602392
0.000772815
0.000550095
0.000626194
0.000886859
0.000531918
0.000790192
0.000909137
0.00096445
SCALARS mass double 1
LOOKUP_TABLE default
0.00228657
0.0048913
0.00453983
0.00738005
0.00634449
0.00720004
0.00576955
0.0037184
0.0024319
0.00759432
0.00846957
0.00546484
0.00382714
0.00569173
0.00352892
0.00580838
0.00307803
0.005066
0.00256678
0.00332607
0.00667148
0.00239995
0.00529637
0.00701087
0.00788992
