# vtk DataFile Version 3.0
DEM2D particles
ASCII
DATASET POLYDATA
POINTS 25 double
0.000210492 0.000229297 0
0.00247694 -0.000169992 0
0.00456711 0.000477335 0
0.00674628 0.000358621 0
0.00933215 0.00127575 0
0.000976388 0.00342992 0
0.00272805 0.00311437 0
0.00430175 0.00264556 0
0.00620408 0.00206824 0
0.00807857 0.0025142 0
0.00194188 0.00436688 0
0.00315848 0.00408596 0
0.00447748 0.00459016 0
0.00666273 0.00566271 0
0.00823043 0.00511523 0
0.0014505 0.00628556 0
0.0023961 0.00739893 0
0.00577483 0.00642401 0
0.00705357 0.00698562 0
0.00819693 0.00669133 0
6.49651e-05 0.00833252 0
0.00285477 0.00969253 0
0.0050706 0.00862532 0
0.00716435 0.00922033 0
0.00986735 0.00876924 0
VERTICES 25 50
1 0
1 1
1 2
1 3
1 4
1 5
1 6
1 7
1 8
1 9
1 10
1 11
1 12
1 13
1 14
1 15
1 16
1 17
1 18
1 19
1 20
1 21
1 22
1 23
1 24
POINT_DATA 25
VECTORS velocity double
-5.85548e-13 -0.00970858 0
-3.87936e-13 -0.00970858 0
-3.2106e-13 -0.00970858 0
-1.88176e-13 -0.00970858 0
2.46342e-13 -0.00970858 0
-1.75124e-14 -0.00970858 0
-2.01698e-13 -0.00970858 0
-5.17866e-13 -0.00970858 0
-5.903e-13 -0.00970858 0
-6.83392e-13 -0.00970858 0
6.98558e-13 -0.00970858 0
1.17539e-13 -0.00970858 0
-3.87532e-13 -0.00970858 0
-2.50138e-13 -0.00970858 0
-5.70761e-13 -0.00970858 0
3.34119e-13 -0.00970858 0
-4.47889e-13 -0.00970858 0
5.74664e-13 -0.00970858 0
3.97316e-14 -0.00970858 0
-5.95608e-13 -0.00970858 0
-6.93479e-13 -0.00970858 0
-1.07708e-13 -0.00970858 0
5.23636e-14 -0.00970858 0
1.21895e-13 -0.00970858 0
6.43279e-13 -0.00970858 0
SCALARS radius double 1
LOOKUP_TABLE default
0.0005192
0.000759374
0.000731582
0.000932767
0.000864852
0.00092132
0.000824734
0.000662097
0.000535446
0.00094621
0.000999249
0.000802661
0.000671708
0.000819153
0.000645007
0.000827505
0.000602392
0.000772815
0.000550095
0.000626194
0.000886859
0.000531918
0.000790192
0.000909137
0.00096445
SCALARS mass double 1
LOOKUP_TABLE default
0.00228657
0.0048913
0.00453983
0.00738005
0.00634449
0.00720004
0.00576955
0.0037184
0.0024319
0.00759432
0.00846957
0.00546484
0.00382714
0.00569173
0.00352892
0.00580838
0.00307803
0.005066
0.00256678
0.00332607
0.00667148
0.00239995
0.00529637
0.00701087
0.00788992
