# vtk DataFile Version 3.0
DEM2D particles
ASCII
DATASET POLYDATA
POINTS 25 double
0.000210585 0.000411878 0
0.002477 1.26357e-05 0
0.00456716 0.000659887 0
0.00674631 0.000541186 0
0.00933211 0.0014582 0
0.00097639 0.00361236 0
0.00272808 0.00329685 0
0.00430183 0.00282809 0
0.00620418 0.00225084 0
0.00807868 0.00269675 0
0.00194177 0.00454945 0
0.00315846 0.00426856 0
0.00447754 0.0047727 0
0.00666277 0.00584512 0
0.00823052 0.00529771 0
0.00145045 0.00646813 0
0.00239617 0.00758137 0
0.00577474 0.00660656 0
0.00705356 0.00716811 0
0.00819702 0.00687386 0
6.50754e-05 0.00851509 0
0.00285479 0.00987494 0
0.00507059 0.00880785 0
0.00716433 0.00940279 0
0.00986725 0.00895176 0
VERTICES 25 50
1 0
1 1
1 2
1 3
1 4
1 5
1 6
1 7
1 8
1 9
1 10
1 11
1 12
1 13
1 14
1 15
1 16
1 17
1 18
1 19
1 20
1 21
1 22
1 23
1 24
POINT_DATA 25
VECTORS velocity double
-9.40582e-05 -0.00976825 0
-6.23153e-05 -0.00981582 0
-5.15727e-05 -0.0097387 0
-3.02272e-05 -0.00975284 0
3.95705e-05 -0.00964358 0
-2.81306e-06 -0.00962521 0
-3.23994e-05 -0.0096628 0
-8.31863e-05 -0.00971866 0
-9.48216e-05 -0.00978743 0
-0.000109775 -0.0097343 0
0.000112211 -0.00975186 0
1.88807e-05 -0.00978532 0
-6.22504e-05 -0.00972526 0
-4.01804e-05 -0.00959748 0
-9.16829e-05 -0.0096627 0
5.36704e-05 -0.00976154 0
-7.19456e-05 -0.0096289 0
9.23099e-05 -0.00974505 0
6.3822e-06 -0.00967814 0
-9.56742e-05 -0.0097132 0
-0.000111396 -0.00975595 0
-1.73014e-05 -0.00959392 0
8.41131e-06 -0.00972107 0
1.95803e-05 -0.00965018 0
0.000103332 -0.00970392 0
SCALARS radius double 1
LOOKUP_TABLE default
0.0005192
0.000759374
0.000731582
0.000932767
0.000864852
0.00092132
0.000824734
0.000662097
0.000535446
0.00094621
0.000999249
0.000802661
0.000671708
0.000819153
0.000645007
0.000827505
0.000602392
0.000772815
0.000550095
0.000626194
0.000886859
0.000531918
0.000790192
0.000909137
0.00096445
SCALARS mass double 1
LOOKUP_TABLE default
0.00228657
0.0048913
0.00453983
0.00738005
0.00634449
0.00720004
0.00576955
0.0037184
0.0024319
0.00759432
0.00846957
0.00546484
0.00382714
0.00569173
0.00352892
0.00580838
0.00307803
0.005066
0.00256678
0.00332607
0.00667148
0.00239995
0.00529637
0.00701087
0.00788992
