# vtk DataFile Version 3.0
DEM2D particles
ASCII
DATASET POLYDATA
POINTS 25 double
0.000210492 -0.000221181 0
0.00247694 -0.00062047 0
0.00456711 2.6857e-05 0
0.00674628 -9.18571e-05 0
0.00933215 0.000825269 0
0.000976388 0.00297944 0
0.00272805 0.00266389 0
0.00430175 0.00219508 0
0.00620408 0.00161776 0
0.00807857 0.00206373 0
0.00194188 0.00391641 0
0.00315848 0.00363548 0
0.00447748 0.00413968 0
0.00666273 0.00521224 0
0.00823043 0.00466476 0
0.0014505 0.00583508 0
0.0023961 0.00694845 0
0.00577483 0.00597353 0
0.00705357 0.00653514 0
0.00819693 0.00624085 0
6.49651e-05 0.00788204 0
0.00285477 0.00924205 0
0.0050706 0.00817484 0
0.00716435 0.00876985 0
0.00986735 0.00831876 0
VERTICES 25 50
1 0
1 1
1 2
1 3
1 4
1 5
1 6
1 7
1 8
1 9
1 10
1 11
1 12
1 13
1 14
1 15
1 16
1 17
1 18
1 19
1 20
1 21
1 22
1 23
1 24
POINT_DATA 25
VECTORS velocity double
-3.27239e-33 -0.00970858 0
-2.16802e-33 -0.00970858 0
-1.79427e-33 -0.00970858 0
-1.05164e-33 -0.00970858 0
1.3767e-33 -0.00970858 0
-9.78697e-35 -0.00970858 0
-1.12721e-33 -0.00970858 0
-2.89415e-33 -0.00970858 0
-3.29895e-33 -0.00970858 0
-3.8192e-33 -0.00970858 0
3.90396e-33 -0.00970858 0
6.5688e-34 -0.00970858 0
-2.16576e-33 -0.00970858 0
-1.39792e-33 -0.00970858 0
-3.18975e-33 -0.00970858 0
1.86726e-33 -0.00970858 0
-2.50307e-33 -0.00970858 0
3.21157e-33 -0.00970858 0
2.22044e-34 -0.00970858 0
-3.32861e-33 -0.00970858 0
-3.87558e-33 -0.00970858 0
-6.01937e-34 -0.00970858 0
2.92639e-34 -0.00970858 0
6.8122e-34 -0.00970858 0
3.59503e-33 -0.00970858 0
SCALARS radius double 1
LOOKUP_TABLE default
0.0005192
0.000759374
0.000731582
0.000932767
0.000864852
0.00092132
0.000824734
0.000662097
0.000535446
0.00094621
0.000999249
0.000802661
0.000671708
0.000819153
0.000645007
0.000827505
0.000602392
0.000772815
0.000550095
0.000626194
0.000886859
0.000531918
0.000790192
0.000909137
0.00096445
SCALARS mass double 1
LOOKUP_TABLE default
0.00228657
0.0048913
0.00453983
0.00738005
0.00634449
0.00720004
0.00576955
0.0037184
0.0024319
0.00759432
0.00846957
0.00546484
0.00382714
0.00569173
0.00352892
0.00580838
0.00307803
0.005066
0.00256678
0.00332607
0.00667148
0.00239995
0.00529637
0.00701087
0.00788992
