# vtk DataFile Version 3.0
DEM2D particles
ASCII
DATASET POLYDATA
POINTS 25 double
0.000210492 -0.00144058 0
0.00247694 -0.00183987 0
0.00456711 -0.00119254 0
0.00674628 -0.00131126 0
0.00933215 -0.000394129 0
0.000976388 0.00176005 0
0.00272805 0.00144449 0
0.00430175 0.000975682 0
0.00620408 0.000398367 0
0.00807857 0.000844328 0
0.00194188 0.00269701 0
0.00315848 0.00241608 0
0.00447748 0.00292029 0
0.00666273 0.00399284 0
0.00823043 0.00344536 0
0.0014505 0.00461568 0
0.0023961 0.00572905 0
0.00577483 0.00475413 0
0.00705357 0.00531574 0
0.00819693 0.00502146 0
6.49651e-05 0.00666265 0
0.00285477 0.00802265 0
0.0050706 0.00695544 0
0.00716435 0.00755045 0
0.00986735 0.00709936 0
VERTICES 25 50
1 0
1 1
1 2
1 3
1 4
1 5
1 6
1 7
1 8
1 9
1 10
1 11
1 12
1 13
1 14
1 15
1 16
1 17
1 18
1 19
1 20
1 21
1 22
1 23
1 24
POINT_DATA 25
VECTORS velocity double
-4.93071e-88 -0.00970858 0
-3.26669e-88 -0.00970858 0
-2.70354e-88 -0.00970858 0
-1.58457e-88 -0.00970858 0
2.07436e-88 -0.00970858 0
-1.47466e-89 -0.00970858 0
-1.69844e-88 -0.00970858 0
-4.36079e-88 -0.00970858 0
-4.97073e-88 -0.00970858 0
-5.75462e-88 -0.00970858 0
5.88233e-88 -0.00970858 0
9.89761e-89 -0.00970858 0
-3.26328e-88 -0.00970858 0
-2.10633e-88 -0.00970858 0
-4.80619e-88 -0.00970858 0
2.81351e-88 -0.00970858 0
-3.77153e-88 -0.00970858 0
4.83906e-88 -0.00970858 0
3.34567e-89 -0.00970858 0
-5.01542e-88 -0.00970858 0
-5.83957e-88 -0.00970858 0
-9.06975e-89 -0.00970858 0
4.40937e-89 -0.00970858 0
1.02644e-88 -0.00970858 0
5.41684e-88 -0.00970858 0
SCALARS radius double 1
LOOKUP_TABLE default
0.0005192
0.000759374
0.000731582
0.000932767
0.000864852
0.00092132
0.000824734
0.000662097
0.000535446
0.00094621
0.000999249
0.000802661
0.000671708
0.000819153
0.000645007
0.000827505
0.000602392
0.000772815
0.000550095
0.000626194
0.000886859
0.000531918
0.000790192
0.000909137
0.00096445
SCALARS mass double 1
LOOKUP_TABLE default
0.00228657
0.0048913
0.00453983
0.00738005
0.00634449
0.00720004
0.00576955
0.0037184
0.0024319
0.00759432
0.00846957
0.00546484
0.00382714
0.00569173
0.00352892
0.00580838
0.00307803
0.005066
0.00256678
0.00332607
0.00667148
0.00239995
0.00529637
0.00701087
0.00788992
