# vtk DataFile Version 3.0
DEM2D particles
ASCII
DATASET POLYDATA
POINTS 25 double
0.00024921 0.00049463 0
0.00250259 0.000114922 0
0.00458834 0.000730504 0
0.00675872 0.000617612 0
0.00931586 0.00148976 0
0.000977546 0.00363638 0
0.00274138 0.0033363 0
0.00433599 0.00289048 0
0.00624312 0.00234147 0
0.00812375 0.00276557 0
0.00189569 0.00462547 0
0.00315071 0.00435832 0
0.00450311 0.0048378 0
0.00667927 0.00585775 0
0.00826817 0.00533712 0
0.00142841 0.00654813 0
0.00242572 0.0076069 0
0.00573683 0.00667979 0
0.00705094 0.00721386 0
0.00823631 0.00693401 0
0.00011082 0.00859279 0
0.0028619 0.0098861 0
0.00506714 0.00887123 0
0.00715629 0.00943706 0
0.00982481 0.00900809 0
VERTICES 25 50
1 0
1 1
1 2
1 3
1 4
1 5
1 6
1 7
1 8
1 9
1 10
1 11
1 12
1 13
1 14
1 15
1 16
1 17
1 18
1 19
1 20
1 21
1 22
1 23
1 24
POINT_DATA 25
VECTORS velocity double
-0.0391093 -0.0345165 0
-0.0259106 -0.0542958 0
-0.0214439 -0.0222297 0
-0.0125685 -0.0281103 0
0.0164534 0.0173207 0
-0.00116967 0.0249579 0
-0.0134716 0.00932663 0
-0.0345888 -0.0138965 0
-0.0394267 -0.0424946 0
-0.0456444 -0.0204033 0
0.0466573 -0.027701 0
0.00785056 -0.041617 0
-0.0258836 -0.0166407 0
-0.0167069 0.0364895 0
-0.0381216 0.00936943 0
0.0223161 -0.0317296 0
-0.0299149 0.0234225 0
0.0383823 -0.0248714 0
0.00265371 0.00294878 0
-0.0397812 -0.0116291 0
-0.0463181 -0.0294032 0
-0.00719392 0.0379664 0
0.00349741 -0.0148993 0
0.00814145 0.0145755 0
0.0429652 -0.00776989 0
SCALARS radius double 1
LOOKUP_TABLE default
0.0005192
0.000759374
0.000731582
0.000932767
0.000864852
0.00092132
0.000824734
0.000662097
0.000535446
0.00094621
0.000999249
0.000802661
0.000671708
0.000819153
0.000645007
0.000827505
0.000602392
0.000772815
0.000550095
0.000626194
0.000886859
0.000531918
0.000790192
0.000909137
0.00096445
SCALARS mass double 1
LOOKUP_TABLE default
0.00228657
0.0048913
0.00453983
0.00738005
0.00634449
0.00720004
0.00576955
0.0037184
0.0024319
0.00759432
0.00846957
0.00546484
0.00382714
0.00569173
0.00352892
0.00580838
0.00307803
0.005066
0.00256678
0.00332607
0.00667148
0.00239995
0.00529637
0.00701087
0.00788992
