# vtk DataFile Version 3.0
DEM2D particles
ASCII
DATASET POLYDATA
POINTS 25 double
0.000210492 -0.000729911 0
0.00247694 -0.0011292 0
0.00456711 -0.000481873 0
0.00674628 -0.000600587 0
0.00933215 0.00031654 0
0.000976388 0.00247071 0
0.00272805 0.00215516 0
0.00430175 0.00168635 0
0.00620408 0.00110903 0
0.00807857 0.001555 0
0.00194188 0.00340768 0
0.00315848 0.00312675 0
0.00447748 0.00363095 0
0.00666273 0.00470351 0
0.00823043 0.00415603 0
0.0014505 0.00532635 0
0.0023961 0.00643972 0
0.00577483 0.0054648 0
0.00705357 0.00602641 0
0.00819693 0.00573212 0
6.49651e-05 0.00737331 0
0.00285477 0.00873332 0
0.0050706 0.00766611 0
0.00716435 0.00826112 0
0.00986735 0.00781003 0
VERTICES 25 50
1 0
1 1
1 2
1 3
1 4
1 5
1 6
1 7
1 8
1 9
1 10
1 11
1 12
1 13
1 14
1 15
1 16
1 17
1 18
1 19
1 20
1 21
1 22
1 23
1 24
POINT_DATA 25
VECTORS velocity double
-4.3983e-56 -0.00970858 0
-2.91396e-56 -0.00970858 0
-2.41162e-56 -0.00970858 0
-1.41347e-56 -0.00970858 0
1.85038e-56 -0.00970858 0
-1.31543e-57 -0.00970858 0
-1.51504e-56 -0.00970858 0
-3.88992e-56 -0.00970858 0
-4.434e-56 -0.00970858 0
-5.13325e-56 -0.00970858 0
5.24717e-56 -0.00970858 0
8.82888e-57 -0.00970858 0
-2.91092e-56 -0.00970858 0
-1.87889e-56 -0.00970858 0
-4.28723e-56 -0.00970858 0
2.50971e-56 -0.00970858 0
-3.36428e-56 -0.00970858 0
4.31655e-56 -0.00970858 0
2.98441e-57 -0.00970858 0
-4.47387e-56 -0.00970858 0
-5.20902e-56 -0.00970858 0
-8.09042e-57 -0.00970858 0
3.93326e-57 -0.00970858 0
9.15603e-57 -0.00970858 0
4.83194e-56 -0.00970858 0
SCALARS radius double 1
LOOKUP_TABLE default
0.0005192
0.000759374
0.000731582
0.000932767
0.000864852
0.00092132
0.000824734
0.000662097
0.000535446
0.00094621
0.000999249
0.000802661
0.000671708
0.000819153
0.000645007
0.000827505
0.000602392
0.000772815
0.000550095
0.000626194
0.000886859
0.000531918
0.000790192
0.000909137
0.00096445
SCALARS mass double 1
LOOKUP_TABLE default
0.00228657
0.0048913
0.00453983
0.00738005
0.00634449
0.00720004
0.00576955
0.0037184
0.0024319
0.00759432
0.00846957
0.00546484
0.00382714
0.00569173
0.00352892
0.00580838
0.00307803
0.005066
0.00256678
0.00332607
0.00667148
0.00239995
0.00529637
0.00701087
0.00788992
