# vtk DataFile Version 3.0
DEM2D particles
ASCII
DATASET POLYDATA
POINTS 25 double
0.000210492 -0.00102505 0
0.00247694 -0.00142434 0
0.00456711 -0.000777014 0
0.00674628 -0.000895728 0
0.00933215 2.13986e-05 0
0.000976388 0.00217557 0
0.00272805 0.00186002 0
0.00430175 0.00139121 0
0.00620408 0.000813894 0
0.00807857 0.00125986 0
0.00194188 0.00311254 0
0.00315848 0.00283161 0
0.00447748 0.00333581 0
0.00666273 0.00440836 0
0.00823043 0.00386088 0
0.0014505 0.00503121 0
0.0023961 0.00614458 0
0.00577483 0.00516966 0
0.00705357 0.00573127 0
0.00819693 0.00543698 0
6.49651e-05 0.00707817 0
0.00285477 0.00843818 0
0.0050706 0.00737097 0
0.00716435 0.00796598 0
0.00986735 0.00751489 0
VERTICES 25 50
1 0
1 1
1 2
1 3
1 4
1 5
1 6
1 7
1 8
1 9
1 10
1 11
1 12
1 13
1 14
1 15
1 16
1 17
1 18
1 19
1 20
1 21
1 22
1 23
1 24
POINT_DATA 25
VECTORS velocity double
-2.36743e-69 -0.00970858 0
-1.56846e-69 -0.00970858 0
-1.29808e-69 -0.00970858 0
-7.60814e-70 -0.00970858 0
9.95983e-70 -0.00970858 0
-7.08043e-71 -0.00970858 0
-8.15486e-70 -0.00970858 0
-2.09378e-69 -0.00970858 0
-2.38664e-69 -0.00970858 0
-2.76302e-69 -0.00970858 0
2.82434e-69 -0.00970858 0
4.75223e-70 -0.00970858 0
-1.56683e-69 -0.00970858 0
-1.01133e-69 -0.00970858 0
-2.30764e-69 -0.00970858 0
1.35088e-69 -0.00970858 0
-1.81086e-69 -0.00970858 0
2.32342e-69 -0.00970858 0
1.60639e-70 -0.00970858 0
-2.4081e-69 -0.00970858 0
-2.80381e-69 -0.00970858 0
-4.35474e-70 -0.00970858 0
2.11711e-70 -0.00970858 0
4.92832e-70 -0.00970858 0
2.60084e-69 -0.00970858 0
SCALARS radius double 1
LOOKUP_TABLE default
0.0005192
0.000759374
0.000731582
0.000932767
0.000864852
0.00092132
0.000824734
0.000662097
0.000535446
0.00094621
0.000999249
0.000802661
0.000671708
0.000819153
0.000645007
0.000827505
0.000602392
0.000772815
0.000550095
0.000626194
0.000886859
0.000531918
0.000790192
0.000909137
0.00096445
SCALARS mass double 1
LOOKUP_TABLE default
0.00228657
0.0048913
0.00453983
0.00738005
0.00634449
0.00720004
0.00576955
0.0037184
0.0024319
0.00759432
0.00846957
0.00546484
0.00382714
0.00569173
0.00352892
0.00580838
0.00307803
0.005066
0.00256678
0.00332607
0.00667148
0.00239995
0.00529637
0.00701087
0.00788992
