# vtk DataFile Version 3.0
DEM2D particles
ASCII
DATASET POLYDATA
POINTS 25 double
0.000210492 -0.0006503 0
0.00247694 -0.00104959 0
0.00456711 -0.000402262 0
0.00674628 -0.000520976 0
0.00933215 0.00039615 0
0.000976388 0.00255032 0
0.00272805 0.00223477 0
0.00430175 0.00176596 0
0.00620408 0.00118865 0
0.00807857 0.00163461 0
0.00194188 0.00348729 0
0.00315848 0.00320636 0
0.00447748 0.00371056 0
0.00666273 0.00478312 0
0.00823043 0.00423564 0
0.0014505 0.00540596 0
0.0023961 0.00651933 0
0.00577483 0.00554441 0
0.00705357 0.00610602 0
0.00819693 0.00581173 0
6.49651e-05 0.00745292 0
0.00285477 0.00881293 0
0.0050706 0.00774572 0
0.00716435 0.00834073 0
0.00986735 0.00788964 0
VERTICES 25 50
1 0
1 1
1 2
1 3
1 4
1 5
1 6
1 7
1 8
1 9
1 10
1 11
1 12
1 13
1 14
1 15
1 16
1 17
1 18
1 19
1 20
1 21
1 22
1 23
1 24
POINT_DATA 25
VECTORS velocity double
-1.66888e-52 -0.00970858 0
-1.10566e-52 -0.00970858 0
-9.15059e-53 -0.00970858 0
-5.36324e-53 -0.00970858 0
7.02103e-53 -0.00970858 0
-4.99124e-54 -0.00970858 0
-5.74864e-53 -0.00970858 0
-1.47598e-52 -0.00970858 0
-1.68243e-52 -0.00970858 0
-1.94775e-52 -0.00970858 0
1.99097e-52 -0.00970858 0
3.35001e-53 -0.00970858 0
-1.10451e-52 -0.00970858 0
-7.12923e-53 -0.00970858 0
-1.62674e-52 -0.00970858 0
9.52279e-53 -0.00970858 0
-1.27654e-52 -0.00970858 0
1.63786e-52 -0.00970858 0
1.1324e-53 -0.00970858 0
-1.69755e-52 -0.00970858 0
-1.9765e-52 -0.00970858 0
-3.06981e-53 -0.00970858 0
1.49243e-53 -0.00970858 0
3.47414e-53 -0.00970858 0
1.83342e-52 -0.00970858 0
SCALARS radius double 1
LOOKUP_TABLE default
0.0005192
0.000759374
0.000731582
0.000932767
0.000864852
0.00092132
0.000824734
0.000662097
0.000535446
0.00094621
0.000999249
0.000802661
0.000671708
0.000819153
0.000645007
0.000827505
0.000602392
0.000772815
0.000550095
0.000626194
0.000886859
0.000531918
0.000790192
0.000909137
0.00096445
SCALARS mass double 1
LOOKUP_TABLE default
0.00228657
0.0048913
0.00453983
0.00738005
0.00634449
0.00720004
0.00576955
0.0037184
0.0024319
0.00759432
0.00846957
0.00546484
0.00382714
0.00569173
0.00352892
0.00580838
0.00307803
0.005066
0.00256678
0.00332607
0.00667148
0.00239995
0.00529637
0.00701087
0.00788992
