# vtk DataFile Version 3.0
DEM2D particles
ASCII
DATASET POLYDATA
POINTS 25 double
0.000210492 -0.000116328 0
0.00247694 -0.000515617 0
0.00456711 0.00013171 0
0.00674628 1.29956e-05 0
0.00933215 0.000930122 0
0.000976388 0.0030843 0
0.00272805 0.00276874 0
0.00430175 0.00229993 0
0.00620408 0.00172262 0
0.00807857 0.00216858 0
0.00194188 0.00402126 0
0.00315848 0.00374033 0
0.00447748 0.00424454 0
0.00666273 0.00531709 0
0.00823043 0.00476961 0
0.0014505 0.00593993 0
0.0023961 0.0070533 0
0.00577483 0.00607838 0
0.00705357 0.00663999 0
0.00819693 0.00634571 0
6.49651e-05 0.0079869 0
0.00285477 0.0093469 0
0.0050706 0.00827969 0
0.00716435 0.0088747 0
0.00986735 0.00842361 0
VERTICES 25 50
1 0
1 1
1 2
1 3
1 4
1 5
1 6
1 7
1 8
1 9
1 10
1 11
1 12
1 13
1 14
1 15
1 16
1 17
1 18
1 19
1 20
1 21
1 22
1 23
1 24
POINT_DATA 25
VECTORS velocity double
-1.69377e-28 -0.00970858 0
-1.12216e-28 -0.00970858 0
-9.28707e-29 -0.00970858 0
-5.44324e-29 -0.00970858 0
7.12575e-29 -0.00970858 0
-5.06568e-30 -0.00970858 0
-5.83439e-29 -0.00970858 0
-1.498e-28 -0.00970858 0
-1.70752e-28 -0.00970858 0
-1.9768e-28 -0.00970858 0
2.02067e-28 -0.00970858 0
3.39998e-29 -0.00970858 0
-1.12099e-28 -0.00970858 0
-7.23556e-29 -0.00970858 0
-1.651e-28 -0.00970858 0
9.66482e-29 -0.00970858 0
-1.29558e-28 -0.00970858 0
1.66229e-28 -0.00970858 0
1.14929e-29 -0.00970858 0
-1.72287e-28 -0.00970858 0
-2.00598e-28 -0.00970858 0
-3.1156e-29 -0.00970858 0
1.51469e-29 -0.00970858 0
3.52596e-29 -0.00970858 0
1.86077e-28 -0.00970858 0
SCALARS radius double 1
LOOKUP_TABLE default
0.0005192
0.000759374
0.000731582
0.000932767
0.000864852
0.00092132
0.000824734
0.000662097
0.000535446
0.00094621
0.000999249
0.000802661
0.000671708
0.000819153
0.000645007
0.000827505
0.000602392
0.000772815
0.000550095
0.000626194
0.000886859
0.000531918
0.000790192
0.000909137
0.00096445
SCALARS mass double 1
LOOKUP_TABLE default
0.00228657
0.0048913
0.00453983
0.00738005
0.00634449
0.00720004
0.00576955
0.0037184
0.0024319
0.00759432
0.00846957
0.00546484
0.00382714
0.00569173
0.00352892
0.00580838
0.00307803
0.005066
0.00256678
0.00332607
0.00667148
0.00239995
0.00529637
0.00701087
0.00788992
