# vtk DataFile Version 3.0
DEM2D particles
ASCII
DATASET POLYDATA
POINTS 25 double
0.000210492 -0.00129495 0
0.00247694 -0.00169424 0
0.00456711 -0.00104691 0
0.00674628 -0.00116563 0
0.00933215 -0.0002485 0
0.000976388 0.00190567 0
0.00272805 0.00159012 0
0.00430175 0.00112131 0
0.00620408 0.000543995 0
0.00807857 0.000989957 0
0.00194188 0.00284264 0
0.00315848 0.00256171 0
0.00447748 0.00306591 0
0.00666273 0.00413847 0
0.00823043 0.00359099 0
0.0014505 0.00476131 0
0.0023961 0.00587468 0
0.00577483 0.00489976 0
0.00705357 0.00546137 0
0.00819693 0.00516708 0
6.49651e-05 0.00680827 0
0.00285477 0.00816828 0
0.0050706 0.00710107 0
0.00716435 0.00769608 0
0.00986735 0.00724499 0
VERTICES 25 50
1 0
1 1
1 2
1 3
1 4
1 5
1 6
1 7
1 8
1 9
1 10
1 11
1 12
1 13
1 14
1 15
1 16
1 17
1 18
1 19
1 20
1 21
1 22
1 23
1 24
POINT_DATA 25
VECTORS velocity double
-1.73827e-81 -0.00970858 0
-1.15164e-81 -0.00970858 0
-9.53106e-82 -0.00970858 0
-5.58624e-82 -0.00970858 0
7.31296e-82 -0.00970858 0
-5.19877e-83 -0.00970858 0
-5.98767e-82 -0.00970858 0
-1.53735e-81 -0.00970858 0
-1.75238e-81 -0.00970858 0
-2.02873e-81 -0.00970858 0
2.07376e-81 -0.00970858 0
3.4893e-82 -0.00970858 0
-1.15044e-81 -0.00970858 0
-7.42566e-82 -0.00970858 0
-1.69437e-81 -0.00970858 0
9.91873e-82 -0.00970858 0
-1.32961e-81 -0.00970858 0
1.70596e-81 -0.00970858 0
1.17948e-82 -0.00970858 0
-1.76814e-81 -0.00970858 0
-2.05868e-81 -0.00970858 0
-3.19745e-82 -0.00970858 0
1.55448e-82 -0.00970858 0
3.61859e-82 -0.00970858 0
1.90965e-81 -0.00970858 0
SCALARS radius double 1
LOOKUP_TABLE default
0.0005192
0.000759374
0.000731582
0.000932767
0.000864852
0.00092132
0.000824734
0.000662097
0.000535446
0.00094621
0.000999249
0.000802661
0.000671708
0.000819153
0.000645007
0.000827505
0.000602392
0.000772815
0.000550095
0.000626194
0.000886859
0.000531918
0.000790192
0.000909137
0.00096445
SCALARS mass double 1
LOOKUP_TABLE default
0.00228657
0.0048913
0.00453983
0.00738005
0.00634449
0.00720004
0.00576955
0.0037184
0.0024319
0.00759432
0.00846957
0.00546484
0.00382714
0.00569173
0.00352892
0.00580838
0.00307803
0.005066
0.00256678
0.00332607
0.00667148
0.00239995
0.00529637
0.00701087
0.00788992
