# vtk DataFile Version 3.0
DEM2D particles
ASCII
DATASET POLYDATA
POINTS 25 double
0.000210492 -3.47761e-05 0
0.00247694 -0.000434065 0
0.00456711 0.000213262 0
0.00674628 9.45477e-05 0
0.00933215 0.00101167 0
0.000976388 0.00316585 0
0.00272805 0.0028503 0
0.00430175 0.00238149 0
0.00620408 0.00180417 0
0.00807857 0.00225013 0
0.00194188 0.00410281 0
0.00315848 0.00382189 0
0.00447748 0.00432609 0
0.00666273 0.00539864 0
0.00823043 0.00485116 0
0.0014505 0.00602148 0
0.0023961 0.00713485 0
0.00577483 0.00615993 0
0.00705357 0.00672155 0
0.00819693 0.00642726 0
6.49651e-05 0.00806845 0
0.00285477 0.00942845 0
0.0050706 0.00836124 0
0.00716435 0.00895626 0
0.00986735 0.00850516 0
VERTICES 25 50
1 0
1 1
1 2
1 3
1 4
1 5
1 6
1 7
1 8
1 9
1 10
1 11
1 12
1 13
1 14
1 15
1 16
1 17
1 18
1 19
1 20
1 21
1 22
1 23
1 24
POINT_DATA 25
VECTORS velocity double
-7.85763e-25 -0.00970858 0
-5.20583e-25 -0.00970858 0
-4.30839e-25 -0.00970858 0
-2.52519e-25 -0.00970858 0
3.30573e-25 -0.00970858 0
-2.35004e-26 -0.00970858 0
-2.70665e-25 -0.00970858 0
-6.9494e-25 -0.00970858 0
-7.92141e-25 -0.00970858 0
-9.17063e-25 -0.00970858 0
9.37415e-25 -0.00970858 0
1.57729e-25 -0.00970858 0
-5.2004e-25 -0.00970858 0
-3.35667e-25 -0.00970858 0
-7.6592e-25 -0.00970858 0
4.48364e-25 -0.00970858 0
-6.01035e-25 -0.00970858 0
7.71158e-25 -0.00970858 0
5.33169e-26 -0.00970858 0
-7.99263e-25 -0.00970858 0
-9.306e-25 -0.00970858 0
-1.44537e-25 -0.00970858 0
7.02682e-26 -0.00970858 0
1.63574e-25 -0.00970858 0
8.63234e-25 -0.00970858 0
SCALARS radius double 1
LOOKUP_TABLE default
0.0005192
0.000759374
0.000731582
0.000932767
0.000864852
0.00092132
0.000824734
0.000662097
0.000535446
0.00094621
0.000999249
0.000802661
0.000671708
0.000819153
0.000645007
0.000827505
0.000602392
0.000772815
0.000550095
0.000626194
0.000886859
0.000531918
0.000790192
0.000909137
0.00096445
SCALARS mass double 1
LOOKUP_TABLE default
0.00228657
0.0048913
0.00453983
0.00738005
0.00634449
0.00720004
0.00576955
0.0037184
0.0024319
0.00759432
0.00846957
0.00546484
0.00382714
0.00569173
0.00352892
0.00580838
0.00307803
0.005066
0.00256678
0.00332607
0.00667148
0.00239995
0.00529637
0.00701087
0.00788992
