# vtk DataFile Version 3.0
DEM2D particles
ASCII
DATASET POLYDATA
POINTS 25 double
0.000210492 -0.0003338 0
0.00247694 -0.00073309 0
0.00456711 -8.57625e-05 0
0.00674628 -0.000204477 0
0.00933215 0.00071265 0
0.000976388 0.00286682 0
0.00272805 0.00255127 0
0.00430175 0.00208246 0
0.00620408 0.00150515 0
0.00807857 0.00195111 0
0.00194188 0.00380379 0
0.00315848 0.00352286 0
0.00447748 0.00402706 0
0.00666273 0.00509962 0
0.00823043 0.00455214 0
0.0014505 0.00572246 0
0.0023961 0.00683583 0
0.00577483 0.00586091 0
0.00705357 0.00642252 0
0.00819693 0.00612823 0
6.49651e-05 0.00776942 0
0.00285477 0.00912943 0
0.0050706 0.00806222 0
0.00716435 0.00865723 0
0.00986735 0.00820614 0
VERTICES 25 50
1 0
1 1
1 2
1 3
1 4
1 5
1 6
1 7
1 8
1 9
1 10
1 11
1 12
1 13
1 14
1 15
1 16
1 17
1 18
1 19
1 20
1 21
1 22
1 23
1 24
POINT_DATA 25
VECTORS velocity double
-2.82938e-38 -0.00970858 0
-1.87452e-38 -0.00970858 0
-1.55137e-38 -0.00970858 0
-9.0927e-39 -0.00970858 0
1.19033e-38 -0.00970858 0
-8.46202e-40 -0.00970858 0
-9.7461e-39 -0.00970858 0
-2.50234e-38 -0.00970858 0
-2.85234e-38 -0.00970858 0
-3.30216e-38 -0.00970858 0
3.37545e-38 -0.00970858 0
5.67952e-39 -0.00970858 0
-1.87256e-38 -0.00970858 0
-1.20867e-38 -0.00970858 0
-2.75793e-38 -0.00970858 0
1.61447e-38 -0.00970858 0
-2.16421e-38 -0.00970858 0
2.77679e-38 -0.00970858 0
1.91984e-39 -0.00970858 0
-2.87799e-38 -0.00970858 0
-3.35091e-38 -0.00970858 0
-5.20448e-39 -0.00970858 0
2.53022e-39 -0.00970858 0
5.88997e-39 -0.00970858 0
3.10833e-38 -0.00970858 0
SCALARS radius double 1
LOOKUP_TABLE default
0.0005192
0.000759374
0.000731582
0.000932767
0.000864852
0.00092132
0.000824734
0.000662097
0.000535446
0.00094621
0.000999249
0.000802661
0.000671708
0.000819153
0.000645007
0.000827505
0.000602392
0.000772815
0.000550095
0.000626194
0.000886859
0.000531918
0.000790192
0.000909137
0.00096445
SCALARS mass double 1
LOOKUP_TABLE default
0.00228657
0.0048913
0.00453983
0.00738005
0.00634449
0.00720004
0.00576955
0.0037184
0.0024319
0.00759432
0.00846957
0.00546484
0.00382714
0.00569173
0.00352892
0.00580838
0.00307803
0.005066
0.00256678
0.00332607
0.00667148
0.00239995
0.00529637
0.00701087
0.00788992
