# vtk DataFile Version 3.0
DEM2D particles
ASCII
DATASET POLYDATA
POINTS 25 double
0.000210492 -0.000642533 0
0.00247694 -0.00104182 0
0.00456711 -0.000394495 0
0.00674628 -0.00051321 0
0.00933215 0.000403917 0
0.000976388 0.00255809 0
0.00272805 0.00224254 0
0.00430175 0.00177373 0
0.00620408 0.00119641 0
0.00807857 0.00164237 0
0.00194188 0.00349505 0
0.00315848 0.00321413 0
0.00447748 0.00371833 0
0.00666273 0.00479088 0
0.00823043 0.0042434 0
0.0014505 0.00541373 0
0.0023961 0.0065271 0
0.00577483 0.00555217 0
0.00705357 0.00611379 0
0.00819693 0.0058195 0
6.49651e-05 0.00746069 0
0.00285477 0.0088207 0
0.0050706 0.00775348 0
0.00716435 0.0083485 0
0.00986735 0.00789741 0
VERTICES 25 50
1 0
1 1
1 2
1 3
1 4
1 5
1 6
1 7
1 8
1 9
1 10
1 11
1 12
1 13
1 14
1 15
1 16
1 17
1 18
1 19
1 20
1 21
1 22
1 23
1 24
POINT_DATA 25
VECTORS velocity double
-3.72915e-52 -0.00970858 0
-2.47063e-52 -0.00970858 0
-2.04472e-52 -0.00970858 0
-1.19843e-52 -0.00970858 0
1.56886e-52 -0.00970858 0
-1.1153e-53 -0.00970858 0
-1.28455e-52 -0.00970858 0
-3.29811e-52 -0.00970858 0
-3.75942e-52 -0.00970858 0
-4.35228e-52 -0.00970858 0
4.44887e-52 -0.00970858 0
7.48567e-53 -0.00970858 0
-2.46806e-52 -0.00970858 0
-1.59304e-52 -0.00970858 0
-3.63498e-52 -0.00970858 0
2.12789e-52 -0.00970858 0
-2.85245e-52 -0.00970858 0
3.65984e-52 -0.00970858 0
2.53037e-53 -0.00970858 0
-3.79322e-52 -0.00970858 0
-4.41653e-52 -0.00970858 0
-6.85955e-53 -0.00970858 0
3.33486e-53 -0.00970858 0
7.76304e-53 -0.00970858 0
4.09682e-52 -0.00970858 0
SCALARS radius double 1
LOOKUP_TABLE default
0.0005192
0.000759374
0.000731582
0.000932767
0.000864852
0.00092132
0.000824734
0.000662097
0.000535446
0.00094621
0.000999249
0.000802661
0.000671708
0.000819153
0.000645007
0.000827505
0.000602392
0.000772815
0.000550095
0.000626194
0.000886859
0.000531918
0.000790192
0.000909137
0.00096445
SCALARS mass double 1
LOOKUP_TABLE default
0.00228657
0.0048913
0.00453983
0.00738005
0.00634449
0.00720004
0.00576955
0.0037184
0.0024319
0.00759432
0.00846957
0.00546484
0.00382714
0.00569173
0.00352892
0.00580838
0.00307803
0.005066
0.00256678
0.00332607
0.00667148
0.00239995
0.00529637
0.00701087
0.00788992
