# vtk DataFile Version 3.0
DEM2D particles
ASCII
DATASET POLYDATA
POINTS 25 double
0.000210492 -0.000576515 0
0.00247694 -0.000975804 0
0.00456711 -0.000328477 0
0.00674628 -0.000447191 0
0.00933215 0.000469935 0
0.000976388 0.00262411 0
0.00272805 0.00230856 0
0.00430175 0.00183975 0
0.00620408 0.00126243 0
0.00807857 0.00170839 0
0.00194188 0.00356107 0
0.00315848 0.00328015 0
0.00447748 0.00378435 0
0.00666273 0.0048569 0
0.00823043 0.00430942 0
0.0014505 0.00547975 0
0.0023961 0.00659311 0
0.00577483 0.00561819 0
0.00705357 0.00617981 0
0.00819693 0.00588552 0
6.49651e-05 0.00752671 0
0.00285477 0.00888672 0
0.0050706 0.0078195 0
0.00716435 0.00841452 0
0.00986735 0.00796343 0
VERTICES 25 50
1 0
1 1
1 2
1 3
1 4
1 5
1 6
1 7
1 8
1 9
1 10
1 11
1 12
1 13
1 14
1 15
1 16
1 17
1 18
1 19
1 20
1 21
1 22
1 23
1 24
POINT_DATA 25
VECTORS velocity double
-3.4648e-49 -0.00970858 0
-2.29549e-49 -0.00970858 0
-1.89977e-49 -0.00970858 0
-1.11347e-49 -0.00970858 0
1.45765e-49 -0.00970858 0
-1.03624e-50 -0.00970858 0
-1.19349e-49 -0.00970858 0
-3.06431e-49 -0.00970858 0
-3.49292e-49 -0.00970858 0
-4.04376e-49 -0.00970858 0
4.1335e-49 -0.00970858 0
6.95502e-50 -0.00970858 0
-2.2931e-49 -0.00970858 0
-1.48011e-49 -0.00970858 0
-3.3773e-49 -0.00970858 0
1.97704e-49 -0.00970858 0
-2.65024e-49 -0.00970858 0
3.40039e-49 -0.00970858 0
2.35099e-50 -0.00970858 0
-3.52432e-49 -0.00970858 0
-4.10345e-49 -0.00970858 0
-6.37329e-50 -0.00970858 0
3.09845e-50 -0.00970858 0
7.21273e-50 -0.00970858 0
3.8064e-49 -0.00970858 0
SCALARS radius double 1
LOOKUP_TABLE default
0.0005192
0.000759374
0.000731582
0.000932767
0.000864852
0.00092132
0.000824734
0.000662097
0.000535446
0.00094621
0.000999249
0.000802661
0.000671708
0.000819153
0.000645007
0.000827505
0.000602392
0.000772815
0.000550095
0.000626194
0.000886859
0.000531918
0.000790192
0.000909137
0.00096445
SCALARS mass double 1
LOOKUP_TABLE default
0.00228657
0.0048913
0.00453983
0.00738005
0.00634449
0.00720004
0.00576955
0.0037184
0.0024319
0.00759432
0.00846957
0.00546484
0.00382714
0.00569173
0.00352892
0.00580838
0.00307803
0.005066
0.00256678
0.00332607
0.00667148
0.00239995
0.00529637
0.00701087
0.00788992
