# vtk DataFile Version 3.0
DEM2D particles
ASCII
DATASET POLYDATA
POINTS 25 double
0.000210492 -0.000261957 0
0.00247694 -0.000661246 0
0.00456711 -1.3919e-05 0
0.00674628 -0.000132633 0
0.00933215 0.000784493 0
0.000976388 0.00293867 0
0.00272805 0.00262312 0
0.00430175 0.0021543 0
0.00620408 0.00157699 0
0.00807857 0.00202295 0
0.00194188 0.00387563 0
0.00315848 0.0035947 0
0.00447748 0.00409891 0
0.00666273 0.00517146 0
0.00823043 0.00462398 0
0.0014505 0.0057943 0
0.0023961 0.00690767 0
0.00577483 0.00593275 0
0.00705357 0.00649436 0
0.00819693 0.00620008 0
6.49651e-05 0.00784127 0
0.00285477 0.00920127 0
0.0050706 0.00813406 0
0.00716435 0.00872907 0
0.00986735 0.00827798 0
VERTICES 25 50
1 0
1 1
1 2
1 3
1 4
1 5
1 6
1 7
1 8
1 9
1 10
1 11
1 12
1 13
1 14
1 15
1 16
1 17
1 18
1 19
1 20
1 21
1 22
1 23
1 24
POINT_DATA 25
VECTORS velocity double
-4.80449e-35 -0.00970858 0
-3.18306e-35 -0.00970858 0
-2.63433e-35 -0.00970858 0
-1.54401e-35 -0.00970858 0
2.02126e-35 -0.00970858 0
-1.43691e-36 -0.00970858 0
-1.65496e-35 -0.00970858 0
-4.24915e-35 -0.00970858 0
-4.84348e-35 -0.00970858 0
-5.60731e-35 -0.00970858 0
5.73175e-35 -0.00970858 0
9.64424e-36 -0.00970858 0
-3.17975e-35 -0.00970858 0
-2.05241e-35 -0.00970858 0
-4.68316e-35 -0.00970858 0
2.74148e-35 -0.00970858 0
-3.67498e-35 -0.00970858 0
4.71519e-35 -0.00970858 0
3.26002e-36 -0.00970858 0
-4.88703e-35 -0.00970858 0
-5.69008e-35 -0.00970858 0
-8.83757e-36 -0.00970858 0
4.2965e-36 -0.00970858 0
1.00016e-35 -0.00970858 0
5.27817e-35 -0.00970858 0
SCALARS radius double 1
LOOKUP_TABLE default
0.0005192
0.000759374
0.000731582
0.000932767
0.000864852
0.00092132
0.000824734
0.000662097
0.000535446
0.00094621
0.000999249
0.000802661
0.000671708
0.000819153
0.000645007
0.000827505
0.000602392
0.000772815
0.000550095
0.000626194
0.000886859
0.000531918
0.000790192
0.000909137
0.00096445
SCALARS mass double 1
LOOKUP_TABLE default
0.00228657
0.0048913
0.00453983
0.00738005
0.00634449
0.00720004
0.00576955
0.0037184
0.0024319
0.00759432
0.00846957
0.00546484
0.00382714
0.00569173
0.00352892
0.00580838
0.00307803
0.005066
0.00256678
0.00332607
0.00667148
0.00239995
0.00529637
0.00701087
0.00788992
