# vtk DataFile Version 3.0
DEM2D particles
ASCII
DATASET POLYDATA
POINTS 25 double
0.000210492 1.74827e-07 0
0.00247694 -0.000399114 0
0.00456711 0.000248213 0
0.00674628 0.000129499 0
0.00933215 0.00104663 0
0.000976388 0.0032008 0
0.00272805 0.00288525 0
0.00430175 0.00241644 0
0.00620408 0.00183912 0
0.00807857 0.00228508 0
0.00194188 0.00413776 0
0.00315848 0.00385684 0
0.00447748 0.00436104 0
0.00666273 0.00543359 0
0.00823043 0.00488611 0
0.0014505 0.00605644 0
0.0023961 0.0071698 0
0.00577483 0.00619488 0
0.00705357 0.0067565 0
0.00819693 0.00646221 0
6.49651e-05 0.0081034 0
0.00285477 0.0094634 0
0.0050706 0.00839619 0
0.00716435 0.00899121 0
0.00986735 0.00854012 0
VERTICES 25 50
1 0
1 1
1 2
1 3
1 4
1 5
1 6
1 7
1 8
1 9
1 10
1 11
1 12
1 13
1 14
1 15
1 16
1 17
1 18
1 19
1 20
1 21
1 22
1 23
1 24
POINT_DATA 25
VECTORS velocity double
-2.92834e-23 -0.00970858 0
-1.94008e-23 -0.00970858 0
-1.60563e-23 -0.00970858 0
-9.41074e-24 -0.00970858 0
1.23196e-23 -0.00970858 0
-8.75799e-25 -0.00970858 0
-1.0087e-23 -0.00970858 0
-2.58986e-23 -0.00970858 0
-2.95211e-23 -0.00970858 0
-3.41766e-23 -0.00970858 0
3.49351e-23 -0.00970858 0
5.87817e-24 -0.00970858 0
-1.93806e-23 -0.00970858 0
-1.25095e-23 -0.00970858 0
-2.85439e-23 -0.00970858 0
1.67094e-23 -0.00970858 0
-2.2399e-23 -0.00970858 0
2.87391e-23 -0.00970858 0
1.98699e-24 -0.00970858 0
-2.97865e-23 -0.00970858 0
-3.46811e-23 -0.00970858 0
-5.38651e-24 -0.00970858 0
2.61872e-24 -0.00970858 0
6.09598e-24 -0.00970858 0
3.21705e-23 -0.00970858 0
SCALARS radius double 1
LOOKUP_TABLE default
0.0005192
0.000759374
0.000731582
0.000932767
0.000864852
0.00092132
0.000824734
0.000662097
0.000535446
0.00094621
0.000999249
0.000802661
0.000671708
0.000819153
0.000645007
0.000827505
0.000602392
0.000772815
0.000550095
0.000626194
0.000886859
0.000531918
0.000790192
0.000909137
0.00096445
SCALARS mass double 1
LOOKUP_TABLE default
0.00228657
0.0048913
0.00453983
0.00738005
0.00634449
0.00720004
0.00576955
0.0037184
0.0024319
0.00759432
0.00846957
0.00546484
0.00382714
0.00569173
0.00352892
0.00580838
0.00307803
0.005066
0.00256678
0.00332607
0.00667148
0.00239995
0.00529637
0.00701087
0.00788992
