# vtk DataFile Version 3.0
DEM2D particles
ASCII
DATASET POLYDATA
POINTS 25 double
0.0002107 0.000419718 0
0.00247707 2.05337e-05 0
0.00456722 0.00066769 0
0.00674634 0.000549007 0
0.00933206 0.00146589 0
0.000976394 0.00362003 0
0.00272812 0.00330456 0
0.00430193 0.00283587 0
0.00620429 0.00225871 0
0.00807881 0.00270455 0
0.00194163 0.00455727 0
0.00315844 0.00427642 0
0.00447762 0.00478049 0
0.00666282 0.00585276 0
0.00823063 0.00530542 0
0.00145038 0.00647596 0
0.00239626 0.00758904 0
0.00577463 0.00661437 0
0.00705356 0.00717584 0
0.00819714 0.00688163 0
6.52115e-05 0.00852292 0
0.00285481 0.00988256 0
0.00507058 0.00881563 0
0.00716431 0.00941049 0
0.00986712 0.00895952 0
VERTICES 25 50
1 0
1 1
1 2
1 3
1 4
1 5
1 6
1 7
1 8
1 9
1 10
1 11
1 12
1 13
1 14
1 15
1 16
1 17
1 18
1 19
1 20
1 21
1 22
1 23
1 24
POINT_DATA 25
VECTORS velocity double
-0.000210175 -0.0098419 0
-0.000139245 -0.0099482 0
-0.00011524 -0.00977587 0
-6.75434e-05 -0.00980748 0
8.84212e-05 -0.00956333 0
-6.28585e-06 -0.00952228 0
-7.23971e-05 -0.00960629 0
-0.000185882 -0.00973109 0
-0.000211881 -0.00988478 0
-0.000245295 -0.00976606 0
0.000250739 -0.00980528 0
4.21892e-05 -0.00988006 0
-0.0001391 -0.00974584 0
-8.97839e-05 -0.00946031 0
-0.000204867 -0.00960606 0
0.000119928 -0.00982693 0
-0.000160764 -0.00953054 0
0.000206268 -0.00979007 0
1.42611e-05 -0.00964056 0
-0.000213786 -0.0097189 0
-0.000248916 -0.00981442 0
-3.86605e-05 -0.00945238 0
1.87953e-05 -0.00973648 0
4.37525e-05 -0.00957808 0
0.000230897 -0.00969816 0
SCALARS radius double 1
LOOKUP_TABLE default
0.0005192
0.000759374
0.000731582
0.000932767
0.000864852
0.00092132
0.000824734
0.000662097
0.000535446
0.00094621
0.000999249
0.000802661
0.000671708
0.000819153
0.000645007
0.000827505
0.000602392
0.000772815
0.000550095
0.000626194
0.000886859
0.000531918
0.000790192
0.000909137
0.00096445
SCALARS mass double 1
LOOKUP_TABLE default
0.00228657
0.0048913
0.00453983
0.00738005
0.00634449
0.00720004
0.00576955
0.0037184
0.0024319
0.00759432
0.00846957
0.00546484
0.00382714
0.00569173
0.00352892
0.00580838
0.00307803
0.005066
0.00256678
0.00332607
0.00667148
0.00239995
0.00529637
0.00701087
0.00788992
