# vtk DataFile Version 3.0
DEM2D particles
ASCII
DATASET POLYDATA
POINTS 25 double
0.000210492 -0.000669717 0
0.00247694 -0.00106901 0
0.00456711 -0.00042168 0
0.00674628 -0.000540394 0
0.00933215 0.000376733 0
0.000976388 0.00253091 0
0.00272805 0.00221535 0
0.00430175 0.00174654 0
0.00620408 0.00116923 0
0.00807857 0.00161519 0
0.00194188 0.00346787 0
0.00315848 0.00318694 0
0.00447748 0.00369115 0
0.00666273 0.0047637 0
0.00823043 0.00421622 0
0.0014505 0.00538654 0
0.0023961 0.00649991 0
0.00577483 0.00552499 0
0.00705357 0.0060866 0
0.00819693 0.00579232 0
6.49651e-05 0.00743351 0
0.00285477 0.00879351 0
0.0050706 0.0077263 0
0.00716435 0.00832131 0
0.00986735 0.00787022 0
VERTICES 25 50
1 0
1 1
1 2
1 3
1 4
1 5
1 6
1 7
1 8
1 9
1 10
1 11
1 12
1 13
1 14
1 15
1 16
1 17
1 18
1 19
1 20
1 21
1 22
1 23
1 24
POINT_DATA 25
VECTORS velocity double
-2.23596e-53 -0.00970858 0
-1.48137e-53 -0.00970858 0
-1.22599e-53 -0.00970858 0
-7.18565e-54 -0.00970858 0
9.40675e-54 -0.00970858 0
-6.68725e-55 -0.00970858 0
-7.70201e-54 -0.00970858 0
-1.97751e-53 -0.00970858 0
-2.25411e-53 -0.00970858 0
-2.60959e-53 -0.00970858 0
2.6675e-53 -0.00970858 0
4.48833e-54 -0.00970858 0
-1.47982e-53 -0.00970858 0
-9.55172e-54 -0.00970858 0
-2.1795e-53 -0.00970858 0
1.27586e-53 -0.00970858 0
-1.7103e-53 -0.00970858 0
2.1944e-53 -0.00970858 0
1.51718e-54 -0.00970858 0
-2.27438e-53 -0.00970858 0
-2.64811e-53 -0.00970858 0
-4.11292e-54 -0.00970858 0
1.99955e-54 -0.00970858 0
4.65464e-54 -0.00970858 0
2.45641e-53 -0.00970858 0
SCALARS radius double 1
LOOKUP_TABLE default
0.0005192
0.000759374
0.000731582
0.000932767
0.000864852
0.00092132
0.000824734
0.000662097
0.000535446
0.00094621
0.000999249
0.000802661
0.000671708
0.000819153
0.000645007
0.000827505
0.000602392
0.000772815
0.000550095
0.000626194
0.000886859
0.000531918
0.000790192
0.000909137
0.00096445
SCALARS mass double 1
LOOKUP_TABLE default
0.00228657
0.0048913
0.00453983
0.00738005
0.00634449
0.00720004
0.00576955
0.0037184
0.0024319
0.00759432
0.00846957
0.00546484
0.00382714
0.00569173
0.00352892
0.00580838
0.00307803
0.005066
0.00256678
0.00332607
0.00667148
0.00239995
0.00529637
0.00701087
0.00788992
