# vtk DataFile Version 3.0
DEM2D particles
ASCII
DATASET POLYDATA
POINTS 25 double
0.000210492 -0.000782337 0
0.00247694 -0.00118163 0
0.00456711 -0.000534299 0
0.00674628 -0.000653013 0
0.00933215 0.000264113 0
0.000976388 0.00241829 0
0.00272805 0.00210274 0
0.00430175 0.00163392 0
0.00620408 0.00105661 0
0.00807857 0.00150257 0
0.00194188 0.00335525 0
0.00315848 0.00307432 0
0.00447748 0.00357853 0
0.00666273 0.00465108 0
0.00823043 0.0041036 0
0.0014505 0.00527392 0
0.0023961 0.00638729 0
0.00577483 0.00541237 0
0.00705357 0.00597398 0
0.00819693 0.0056797 0
6.49651e-05 0.00732089 0
0.00285477 0.00868089 0
0.0050706 0.00761368 0
0.00716435 0.00820869 0
0.00986735 0.0077576 0
VERTICES 25 50
1 0
1 1
1 2
1 3
1 4
1 5
1 6
1 7
1 8
1 9
1 10
1 11
1 12
1 13
1 14
1 15
1 16
1 17
1 18
1 19
1 20
1 21
1 22
1 23
1 24
POINT_DATA 25
VECTORS velocity double
-1.93326e-58 -0.00970858 0
-1.28082e-58 -0.00970858 0
-1.06002e-58 -0.00970858 0
-6.21287e-59 -0.00970858 0
8.13328e-59 -0.00970858 0
-5.78193e-60 -0.00970858 0
-6.65932e-59 -0.00970858 0
-1.7098e-58 -0.00970858 0
-1.94895e-58 -0.00970858 0
-2.2563e-58 -0.00970858 0
2.30638e-58 -0.00970858 0
3.88071e-59 -0.00970858 0
-1.27949e-58 -0.00970858 0
-8.25862e-59 -0.00970858 0
-1.88444e-58 -0.00970858 0
1.10314e-58 -0.00970858 0
-1.47876e-58 -0.00970858 0
1.89733e-58 -0.00970858 0
1.31179e-59 -0.00970858 0
-1.96647e-58 -0.00970858 0
-2.28961e-58 -0.00970858 0
-3.55612e-59 -0.00970858 0
1.72885e-59 -0.00970858 0
4.0245e-59 -0.00970858 0
2.12386e-58 -0.00970858 0
SCALARS radius double 1
LOOKUP_TABLE default
0.0005192
0.000759374
0.000731582
0.000932767
0.000864852
0.00092132
0.000824734
0.000662097
0.000535446
0.00094621
0.000999249
0.000802661
0.000671708
0.000819153
0.000645007
0.000827505
0.000602392
0.000772815
0.000550095
0.000626194
0.000886859
0.000531918
0.000790192
0.000909137
0.00096445
SCALARS mass double 1
LOOKUP_TABLE default
0.00228657
0.0048913
0.00453983
0.00738005
0.00634449
0.00720004
0.00576955
0.0037184
0.0024319
0.00759432
0.00846957
0.00546484
0.00382714
0.00569173
0.00352892
0.00580838
0.00307803
0.005066
0.00256678
0.00332607
0.00667148
0.00239995
0.00529637
0.00701087
0.00788992
