# vtk DataFile Version 3.0
DEM2D particles
ASCII
DATASET POLYDATA
POINTS 25 double
0.000210492 0.000357451 0
0.00247694 -4.18381e-05 0
0.00456711 0.000605489 0
0.00674628 0.000486775 0
0.00933215 0.0014039 0
0.000976388 0.00355808 0
0.00272805 0.00324252 0
0.00430175 0.00277371 0
0.00620408 0.0021964 0
0.00807857 0.00264236 0
0.00194188 0.00449504 0
0.00315848 0.00421411 0
0.00447748 0.00471832 0
0.00666273 0.00579087 0
0.00823043 0.00524339 0
0.0014505 0.00641371 0
0.0023961 0.00752708 0
0.00577483 0.00655216 0
0.00705357 0.00711377 0
0.00819693 0.00681949 0
6.49655e-05 0.00846068 0
0.00285477 0.00982068 0
0.0050706 0.00875347 0
0.00716435 0.00934848 0
0.00986735 0.00889739 0
VERTICES 25 50
1 0
1 1
1 2
1 3
1 4
1 5
1 6
1 7
1 8
1 9
1 10
1 11
1 12
1 13
1 14
1 15
1 16
1 17
1 18
1 19
1 20
1 21
1 22
1 23
1 24
POINT_DATA 25
VECTORS velocity double
-3.38147e-07 -0.0097088 0
-2.24029e-07 -0.00970897 0
-1.85408e-07 -0.00970869 0
-1.08669e-07 -0.00970874 0
1.42259e-07 -0.00970835 0
-1.01132e-08 -0.00970828 0
-1.16478e-07 -0.00970842 0
-2.99062e-07 -0.00970862 0
-3.40892e-07 -0.00970887 0
-3.94651e-07 -0.00970868 0
4.03409e-07 -0.00970874 0
6.78776e-08 -0.00970886 0
-2.23795e-07 -0.00970864 0
-1.44452e-07 -0.00970818 0
-3.29608e-07 -0.00970842 0
1.9295e-07 -0.00970877 0
-2.5865e-07 -0.0097083 0
3.31862e-07 -0.00970871 0
2.29445e-08 -0.00970847 0
-3.43957e-07 -0.0097086 0
-4.00476e-07 -0.00970875 0
-6.22002e-08 -0.00970817 0
3.02394e-08 -0.00970863 0
7.03927e-08 -0.00970837 0
3.71486e-07 -0.00970857 0
SCALARS radius double 1
LOOKUP_TABLE default
0.0005192
0.000759374
0.000731582
0.000932767
0.000864852
0.00092132
0.000824734
0.000662097
0.000535446
0.00094621
0.000999249
0.000802661
0.000671708
0.000819153
0.000645007
0.000827505
0.000602392
0.000772815
0.000550095
0.000626194
0.000886859
0.000531918
0.000790192
0.000909137
0.00096445
SCALARS mass double 1
LOOKUP_TABLE default
0.00228657
0.0048913
0.00453983
0.00738005
0.00634449
0.00720004
0.00576955
0.0037184
0.0024319
0.00759432
0.00846957
0.00546484
0.00382714
0.00569173
0.00352892
0.00580838
0.00307803
0.005066
0.00256678
0.00332607
0.00667148
0.00239995
0.00529637
0.00701087
0.00788992
