# vtk DataFile Version 3.0
DEM2D particles
ASCII
DATASET POLYDATA
POINTS 25 double
0.000210492 -0.000858064 0
0.00247694 -0.00125735 0
0.00456711 -0.000610026 0
0.00674628 -0.00072874 0
0.00933215 0.000188386 0
0.000976388 0.00234256 0
0.00272805 0.00202701 0
0.00430175 0.0015582 0
0.00620408 0.000980882 0
0.00807857 0.00142684 0
0.00194188 0.00327952 0
0.00315848 0.0029986 0
0.00447748 0.0035028 0
0.00666273 0.00457535 0
0.00823043 0.00402787 0
0.0014505 0.0051982 0
0.0023961 0.00631157 0
0.00577483 0.00533664 0
0.00705357 0.00589826 0
0.00819693 0.00560397 0
6.49651e-05 0.00724516 0
0.00285477 0.00860517 0
0.0050706 0.00753795 0
0.00716435 0.00813297 0
0.00986735 0.00768188 0
VERTICES 25 50
1 0
1 1
1 2
1 3
1 4
1 5
1 6
1 7
1 8
1 9
1 10
1 11
1 12
1 13
1 14
1 15
1 16
1 17
1 18
1 19
1 20
1 21
1 22
1 23
1 24
POINT_DATA 25
VECTORS velocity double
-7.61626e-62 -0.00970858 0
-5.04591e-62 -0.00970858 0
-4.17605e-62 -0.00970858 0
-2.44762e-62 -0.00970858 0
3.20418e-62 -0.00970858 0
-2.27785e-63 -0.00970858 0
-2.6235e-62 -0.00970858 0
-6.73592e-62 -0.00970858 0
-7.67808e-62 -0.00970858 0
-8.88893e-62 -0.00970858 0
9.08619e-62 -0.00970858 0
1.52884e-62 -0.00970858 0
-5.04066e-62 -0.00970858 0
-3.25356e-62 -0.00970858 0
-7.42393e-62 -0.00970858 0
4.34591e-62 -0.00970858 0
-5.82572e-62 -0.00970858 0
7.4747e-62 -0.00970858 0
5.16792e-63 -0.00970858 0
-7.74712e-62 -0.00970858 0
-9.02014e-62 -0.00970858 0
-1.40097e-62 -0.00970858 0
6.81097e-63 -0.00970858 0
1.58549e-62 -0.00970858 0
8.36717e-62 -0.00970858 0
SCALARS radius double 1
LOOKUP_TABLE default
0.0005192
0.000759374
0.000731582
0.000932767
0.000864852
0.00092132
0.000824734
0.000662097
0.000535446
0.00094621
0.000999249
0.000802661
0.000671708
0.000819153
0.000645007
0.000827505
0.000602392
0.000772815
0.000550095
0.000626194
0.000886859
0.000531918
0.000790192
0.000909137
0.00096445
SCALARS mass double 1
LOOKUP_TABLE default
0.00228657
0.0048913
0.00453983
0.00738005
0.00634449
0.00720004
0.00576955
0.0037184
0.0024319
0.00759432
0.00846957
0.00546484
0.00382714
0.00569173
0.00352892
0.00580838
0.00307803
0.005066
0.00256678
0.00332607
0.00667148
0.00239995
0.00529637
0.00701087
0.00788992
