# vtk DataFile Version 3.0
DEM2D particles
ASCII
DATASET POLYDATA
POINTS 25 double
0.000210492 0.000202113 0
0.00247694 -0.000197176 0
0.00456711 0.000450151 0
0.00674628 0.000331437 0
0.00933215 0.00124856 0
0.000976388 0.00340274 0
0.00272805 0.00308719 0
0.00430175 0.00261837 0
0.00620408 0.00204106 0
0.00807857 0.00248702 0
0.00194188 0.0043397 0
0.00315848 0.00405877 0
0.00447748 0.00456298 0
0.00666273 0.00563553 0
0.00823043 0.00508805 0
0.0014505 0.00625837 0
0.0023961 0.00737174 0
0.00577483 0.00639682 0
0.00705357 0.00695843 0
0.00819693 0.00666415 0
6.49651e-05 0.00830534 0
0.00285477 0.00966534 0
0.0050706 0.00859813 0
0.00716435 0.00919315 0
0.00986735 0.00874205 0
VERTICES 25 50
1 0
1 1
1 2
1 3
1 4
1 5
1 6
1 7
1 8
1 9
1 10
1 11
1 12
1 13
1 14
1 15
1 16
1 17
1 18
1 19
1 20
1 21
1 22
1 23
1 24
POINT_DATA 25
VECTORS velocity double
-3.51089e-14 -0.00970858 0
-2.32603e-14 -0.00970858 0
-1.92504e-14 -0.00970858 0
-1.12828e-14 -0.00970858 0
1.47704e-14 -0.00970858 0
-1.05003e-15 -0.00970858 0
-1.20936e-14 -0.00970858 0
-3.10508e-14 -0.00970858 0
-3.53938e-14 -0.00970858 0
-4.09755e-14 -0.00970858 0
4.18849e-14 -0.00970858 0
7.04754e-15 -0.00970858 0
-2.32361e-14 -0.00970858 0
-1.4998e-14 -0.00970858 0
-3.42223e-14 -0.00970858 0
2.00334e-14 -0.00970858 0
-2.6855e-14 -0.00970858 0
3.44563e-14 -0.00970858 0
2.38227e-15 -0.00970858 0
-3.57121e-14 -0.00970858 0
-4.15803e-14 -0.00970858 0
-6.45807e-15 -0.00970858 0
3.13967e-15 -0.00970858 0
7.30868e-15 -0.00970858 0
3.85703e-14 -0.00970858 0
SCALARS radius double 1
LOOKUP_TABLE default
0.0005192
0.000759374
0.000731582
0.000932767
0.000864852
0.00092132
0.000824734
0.000662097
0.000535446
0.00094621
0.000999249
0.000802661
0.000671708
0.000819153
0.000645007
0.000827505
0.000602392
0.000772815
0.000550095
0.000626194
0.000886859
0.000531918
0.000790192
0.000909137
0.00096445
SCALARS mass double 1
LOOKUP_TABLE default
0.00228657
0.0048913
0.00453983
0.00738005
0.00634449
0.00720004
0.00576955
0.0037184
0.0024319
0.00759432
0.00846957
0.00546484
0.00382714
0.00569173
0.00352892
0.00580838
0.00307803
0.005066
0.00256678
0.00332607
0.00667148
0.00239995
0.00529637
0.00701087
0.00788992
