# vtk DataFile Version 3.0
DEM2D particles
ASCII
DATASET POLYDATA
POINTS 25 double
0.000210492 0.000308908 0
0.00247694 -9.03814e-05 0
0.00456711 0.000556946 0
0.00674628 0.000438232 0
0.00933215 0.00135536 0
0.000976388 0.00350953 0
0.00272805 0.00319398 0
0.00430175 0.00272517 0
0.00620408 0.00214785 0
0.00807857 0.00259381 0
0.00194188 0.00444649 0
0.00315848 0.00416557 0
0.00447748 0.00466977 0
0.00666273 0.00574232 0
0.00823043 0.00519484 0
0.0014505 0.00636517 0
0.0023961 0.00747854 0
0.00577483 0.00650362 0
0.00705357 0.00706523 0
0.00819693 0.00677094 0
6.49651e-05 0.00841213 0
0.00285477 0.00977214 0
0.0050706 0.00870493 0
0.00716435 0.00929994 0
0.00986735 0.00884885 0
VERTICES 25 50
1 0
1 1
1 2
1 3
1 4
1 5
1 6
1 7
1 8
1 9
1 10
1 11
1 12
1 13
1 14
1 15
1 16
1 17
1 18
1 19
1 20
1 21
1 22
1 23
1 24
POINT_DATA 25
VECTORS velocity double
-2.22179e-09 -0.00970858 0
-1.47198e-09 -0.00970859 0
-1.21822e-09 -0.00970858 0
-7.14011e-10 -0.00970858 0
9.34713e-10 -0.00970858 0
-6.64486e-11 -0.00970858 0
-7.6532e-10 -0.00970858 0
-1.96498e-09 -0.00970858 0
-2.23982e-09 -0.00970859 0
-2.59305e-09 -0.00970858 0
2.65059e-09 -0.00970858 0
4.45988e-10 -0.00970859 0
-1.47044e-09 -0.00970858 0
-9.49118e-10 -0.00970858 0
-2.16568e-09 -0.00970858 0
1.26777e-09 -0.00970858 0
-1.69946e-09 -0.00970858 0
2.18049e-09 -0.00970858 0
1.50757e-10 -0.00970858 0
-2.25996e-09 -0.00970858 0
-2.63132e-09 -0.00970858 0
-4.08685e-10 -0.00970858 0
1.98687e-10 -0.00970858 0
4.62514e-10 -0.00970858 0
2.44084e-09 -0.00970858 0
SCALARS radius double 1
LOOKUP_TABLE default
0.0005192
0.000759374
0.000731582
0.000932767
0.000864852
0.00092132
0.000824734
0.000662097
0.000535446
0.00094621
0.000999249
0.000802661
0.000671708
0.000819153
0.000645007
0.000827505
0.000602392
0.000772815
0.000550095
0.000626194
0.000886859
0.000531918
0.000790192
0.000909137
0.00096445
SCALARS mass double 1
LOOKUP_TABLE default
0.00228657
0.0048913
0.00453983
0.00738005
0.00634449
0.00720004
0.00576955
0.0037184
0.0024319
0.00759432
0.00846957
0.00546484
0.00382714
0.00569173
0.00352892
0.00580838
0.00307803
0.005066
0.00256678
0.00332607
0.00667148
0.00239995
0.00529637
0.00701087
0.00788992
