# vtk DataFile Version 3.0
DEM2D particles
ASCII
DATASET POLYDATA
POINTS 25 double
0.000210492 -0.000465837 0
0.00247694 -0.000865126 0
0.00456711 -0.000217799 0
0.00674628 -0.000336513 0
0.00933215 0.000580613 0
0.000976388 0.00273479 0
0.00272805 0.00241924 0
0.00430175 0.00195042 0
0.00620408 0.00137311 0
0.00807857 0.00181907 0
0.00194188 0.00367175 0
0.00315848 0.00339082 0
0.00447748 0.00389503 0
0.00666273 0.00496758 0
0.00823043 0.0044201 0
0.0014505 0.00559042 0
0.0023961 0.00670379 0
0.00577483 0.00572887 0
0.00705357 0.00629048 0
0.00819693 0.0059962 0
6.49651e-05 0.00763739 0
0.00285477 0.00899739 0
0.0050706 0.00793018 0
0.00716435 0.00852519 0
0.00986735 0.0080741 0
VERTICES 25 50
1 0
1 1
1 2
1 3
1 4
1 5
1 6
1 7
1 8
1 9
1 10
1 11
1 12
1 13
1 14
1 15
1 16
1 17
1 18
1 19
1 20
1 21
1 22
1 23
1 24
POINT_DATA 25
VECTORS velocity double
-3.2776e-44 -0.00970858 0
-2.17147e-44 -0.00970858 0
-1.79713e-44 -0.00970858 0
-1.05331e-44 -0.00970858 0
1.37889e-44 -0.00970858 0
-9.80254e-46 -0.00970858 0
-1.129e-44 -0.00970858 0
-2.89875e-44 -0.00970858 0
-3.3042e-44 -0.00970858 0
-3.82528e-44 -0.00970858 0
3.91017e-44 -0.00970858 0
6.57925e-45 -0.00970858 0
-2.16921e-44 -0.00970858 0
-1.40014e-44 -0.00970858 0
-3.19483e-44 -0.00970858 0
1.87023e-44 -0.00970858 0
-2.50705e-44 -0.00970858 0
3.21668e-44 -0.00970858 0
2.22397e-45 -0.00970858 0
-3.33391e-44 -0.00970858 0
-3.88174e-44 -0.00970858 0
-6.02895e-45 -0.00970858 0
2.93105e-45 -0.00970858 0
6.82304e-45 -0.00970858 0
3.60075e-44 -0.00970858 0
SCALARS radius double 1
LOOKUP_TABLE default
0.0005192
0.000759374
0.000731582
0.000932767
0.000864852
0.00092132
0.000824734
0.000662097
0.000535446
0.00094621
0.000999249
0.000802661
0.000671708
0.000819153
0.000645007
0.000827505
0.000602392
0.000772815
0.000550095
0.000626194
0.000886859
0.000531918
0.000790192
0.000909137
0.00096445
SCALARS mass double 1
LOOKUP_TABLE default
0.00228657
0.0048913
0.00453983
0.00738005
0.00634449
0.00720004
0.00576955
0.0037184
0.0024319
0.00759432
0.00846957
0.00546484
0.00382714
0.00569173
0.00352892
0.00580838
0.00307803
0.005066
0.00256678
0.00332607
0.00667148
0.00239995
0.00529637
0.00701087
0.00788992
