# vtk DataFile Version 3.0
DEM2D particles
ASCII
DATASET POLYDATA
POINTS 25 double
0.000210492 -0.0010833 0
0.00247694 -0.00148259 0
0.00456711 -0.000835265 0
0.00674628 -0.000953979 0
0.00933215 -3.68529e-05 0
0.000976388 0.00211732 0
0.00272805 0.00180177 0
0.00430175 0.00133296 0
0.00620408 0.000755643 0
0.00807857 0.0012016 0
0.00194188 0.00305428 0
0.00315848 0.00277336 0
0.00447748 0.00327756 0
0.00666273 0.00435011 0
0.00823043 0.00380263 0
0.0014505 0.00497296 0
0.0023961 0.00608633 0
0.00577483 0.00511141 0
0.00705357 0.00567302 0
0.00819693 0.00537873 0
6.49651e-05 0.00701992 0
0.00285477 0.00837993 0
0.0050706 0.00731272 0
0.00716435 0.00790773 0
0.00986735 0.00745664 0
VERTICES 25 50
1 0
1 1
1 2
1 3
1 4
1 5
1 6
1 7
1 8
1 9
1 10
1 11
1 12
1 13
1 14
1 15
1 16
1 17
1 18
1 19
1 20
1 21
1 22
1 23
1 24
POINT_DATA 25
VECTORS velocity double
-5.69369e-72 -0.00970858 0
-3.77217e-72 -0.00970858 0
-3.12189e-72 -0.00970858 0
-1.82976e-72 -0.00970858 0
2.39535e-72 -0.00970858 0
-1.70285e-73 -0.00970858 0
-1.96125e-72 -0.00970858 0
-5.03557e-72 -0.00970858 0
-5.7399e-72 -0.00970858 0
-6.64509e-72 -0.00970858 0
6.79256e-72 -0.00970858 0
1.14292e-72 -0.00970858 0
-3.76824e-72 -0.00970858 0
-2.43226e-72 -0.00970858 0
-5.5499e-72 -0.00970858 0
3.24887e-72 -0.00970858 0
-4.35513e-72 -0.00970858 0
5.58785e-72 -0.00970858 0
3.86338e-73 -0.00970858 0
-5.79151e-72 -0.00970858 0
-6.74318e-72 -0.00970858 0
-1.04732e-72 -0.00970858 0
5.09167e-73 -0.00970858 0
1.18526e-72 -0.00970858 0
6.25504e-72 -0.00970858 0
SCALARS radius double 1
LOOKUP_TABLE default
0.0005192
0.000759374
0.000731582
0.000932767
0.000864852
0.00092132
0.000824734
0.000662097
0.000535446
0.00094621
0.000999249
0.000802661
0.000671708
0.000819153
0.000645007
0.000827505
0.000602392
0.000772815
0.000550095
0.000626194
0.000886859
0.000531918
0.000790192
0.000909137
0.00096445
SCALARS mass double 1
LOOKUP_TABLE default
0.00228657
0.0048913
0.00453983
0.00738005
0.00634449
0.00720004
0.00576955
0.0037184
0.0024319
0.00759432
0.00846957
0.00546484
0.00382714
0.00569173
0.00352892
0.00580838
0.00307803
0.005066
0.00256678
0.00332607
0.00667148
0.00239995
0.00529637
0.00701087
0.00788992
