# vtk DataFile Version 3.0
DEM2D particles
ASCII
DATASET POLYDATA
POINTS 25 double
0.0002105 0.000388523 0
0.00247694 -1.07615e-05 0
0.00456711 0.000636559 0
0.00674628 0.000517846 0
0.00933214 0.00143496 0
0.000976388 0.00358914 0
0.00272805 0.00327359 0
0.00430176 0.00280478 0
0.00620409 0.00222747 0
0.00807858 0.00267343 0
0.00194187 0.00452611 0
0.00315848 0.00424519 0
0.00447749 0.00474938 0
0.00666274 0.00582192 0
0.00823044 0.00527445 0
0.0014505 0.00644478 0
0.00239611 0.00755814 0
0.00577483 0.00658323 0
0.00705357 0.00714484 0
0.00819694 0.00685055 0
6.4975e-05 0.00849175 0
0.00285478 0.00985174 0
0.0050706 0.00878454 0
0.00716435 0.00937954 0
0.00986734 0.00892846 0
VERTICES 25 50
1 0
1 1
1 2
1 3
1 4
1 5
1 6
1 7
1 8
1 9
1 10
1 11
1 12
1 13
1 14
1 15
1 16
1 17
1 18
1 19
1 20
1 21
1 22
1 23
1 24
POINT_DATA 25
VECTORS velocity double
-8.43031e-06 -0.00971393 0
-5.58523e-06 -0.00971819 0
-4.62239e-06 -0.00971128 0
-2.70923e-06 -0.00971255 0
3.54665e-06 -0.00970276 0
-2.52131e-07 -0.00970111 0
-2.90391e-06 -0.00970448 0
-7.45587e-06 -0.00970949 0
-8.49873e-06 -0.00971565 0
-9.83899e-06 -0.00971089 0
1.00573e-05 -0.00971246 0
1.69225e-06 -0.00971546 0
-5.57942e-06 -0.00971008 0
-3.60131e-06 -0.00969863 0
-8.21741e-06 -0.00970447 0
4.81041e-06 -0.00971333 0
-6.44839e-06 -0.00970144 0
8.27361e-06 -0.00971185 0
5.72027e-07 -0.00970586 0
-8.57514e-06 -0.009709 0
-9.98423e-06 -0.00971283 0
-1.5507e-06 -0.00969831 0
7.53894e-07 -0.0097097 0
1.75495e-06 -0.00970335 0
9.26147e-06 -0.00970817 0
SCALARS radius double 1
LOOKUP_TABLE default
0.0005192
0.000759374
0.000731582
0.000932767
0.000864852
0.00092132
0.000824734
0.000662097
0.000535446
0.00094621
0.000999249
0.000802661
0.000671708
0.000819153
0.000645007
0.000827505
0.000602392
0.000772815
0.000550095
0.000626194
0.000886859
0.000531918
0.000790192
0.000909137
0.00096445
SCALARS mass double 1
LOOKUP_TABLE default
0.00228657
0.0048913
0.00453983
0.00738005
0.00634449
0.00720004
0.00576955
0.0037184
0.0024319
0.00759432
0.00846957
0.00546484
0.00382714
0.00569173
0.00352892
0.00580838
0.00307803
0.005066
0.00256678
0.00332607
0.00667148
0.00239995
0.00529637
0.00701087
0.00788992
