# vtk DataFile Version 3.0
DEM2D particles
ASCII
DATASET POLYDATA
POINTS 25 double
0.000210492 0.000190463 0
0.00247694 -0.000208826 0
0.00456711 0.000438501 0
0.00674628 0.000319787 0
0.00933215 0.00123691 0
0.000976388 0.00339109 0
0.00272805 0.00307554 0
0.00430175 0.00260672 0
0.00620408 0.00202941 0
0.00807857 0.00247537 0
0.00194188 0.00432805 0
0.00315848 0.00404712 0
0.00447748 0.00455133 0
0.00666273 0.00562388 0
0.00823043 0.0050764 0
0.0014505 0.00624672 0
0.0023961 0.00736009 0
0.00577483 0.00638517 0
0.00705357 0.00694678 0
0.00819693 0.0066525 0
6.49651e-05 0.00829369 0
0.00285477 0.00965369 0
0.0050706 0.00858648 0
0.00716435 0.00918149 0
0.00986735 0.0087304 0
VERTICES 25 50
1 0
1 1
1 2
1 3
1 4
1 5
1 6
1 7
1 8
1 9
1 10
1 11
1 12
1 13
1 14
1 15
1 16
1 17
1 18
1 19
1 20
1 21
1 22
1 23
1 24
POINT_DATA 25
VECTORS velocity double
-1.05109e-14 -0.00970858 0
-6.96367e-15 -0.00970858 0
-5.7632e-15 -0.00970858 0
-3.37786e-15 -0.00970858 0
4.42197e-15 -0.00970858 0
-3.14357e-16 -0.00970858 0
-3.6206e-15 -0.00970858 0
-9.29599e-15 -0.00970858 0
-1.05962e-14 -0.00970858 0
-1.22673e-14 -0.00970858 0
1.25395e-14 -0.00970858 0
2.1099e-15 -0.00970858 0
-6.95642e-15 -0.00970858 0
-4.49012e-15 -0.00970858 0
-1.02455e-14 -0.00970858 0
5.99762e-15 -0.00970858 0
-8.03985e-15 -0.00970858 0
1.03155e-14 -0.00970858 0
7.13204e-16 -0.00970858 0
-1.06915e-14 -0.00970858 0
-1.24483e-14 -0.00970858 0
-1.93342e-15 -0.00970858 0
9.39956e-16 -0.00970858 0
2.18808e-15 -0.00970858 0
1.15472e-14 -0.00970858 0
SCALARS radius double 1
LOOKUP_TABLE default
0.0005192
0.000759374
0.000731582
0.000932767
0.000864852
0.00092132
0.000824734
0.000662097
0.000535446
0.00094621
0.000999249
0.000802661
0.000671708
0.000819153
0.000645007
0.000827505
0.000602392
0.000772815
0.000550095
0.000626194
0.000886859
0.000531918
0.000790192
0.000909137
0.00096445
SCALARS mass double 1
LOOKUP_TABLE default
0.00228657
0.0048913
0.00453983
0.00738005
0.00634449
0.00720004
0.00576955
0.0037184
0.0024319
0.00759432
0.00846957
0.00546484
0.00382714
0.00569173
0.00352892
0.00580838
0.00307803
0.005066
0.00256678
0.00332607
0.00667148
0.00239995
0.00529637
0.00701087
0.00788992
