# vtk DataFile Version 3.0
DEM2D particles
ASCII
DATASET POLYDATA
POINTS 25 double
0.000210492 9.14355e-05 0
0.00247694 -0.000307854 0
0.00456711 0.000339473 0
0.00674628 0.000220759 0
0.00933215 0.00113789 0
0.000976388 0.00329206 0
0.00272805 0.00297651 0
0.00430175 0.0025077 0
0.00620408 0.00193038 0
0.00807857 0.00237634 0
0.00194188 0.00422902 0
0.00315848 0.0039481 0
0.00447748 0.0044523 0
0.00666273 0.00552485 0
0.00823043 0.00497737 0
0.0014505 0.0061477 0
0.0023961 0.00726106 0
0.00577483 0.00628614 0
0.00705357 0.00684776 0
0.00819693 0.00655347 0
6.49651e-05 0.00819466 0
0.00285477 0.00955467 0
0.0050706 0.00848745 0
0.00716435 0.00908247 0
0.00986735 0.00863138 0
VERTICES 25 50
1 0
1 1
1 2
1 3
1 4
1 5
1 6
1 7
1 8
1 9
1 10
1 11
1 12
1 13
1 14
1 15
1 16
1 17
1 18
1 19
1 20
1 21
1 22
1 23
1 24
POINT_DATA 25
VECTORS velocity double
-3.71141e-19 -0.00970858 0
-2.45888e-19 -0.00970858 0
-2.03499e-19 -0.00970858 0
-1.19273e-19 -0.00970858 0
1.5614e-19 -0.00970858 0
-1.11e-20 -0.00970858 0
-1.27844e-19 -0.00970858 0
-3.28242e-19 -0.00970858 0
-3.74153e-19 -0.00970858 0
-4.33158e-19 -0.00970858 0
4.42771e-19 -0.00970858 0
7.45006e-20 -0.00970858 0
-2.45632e-19 -0.00970858 0
-1.58546e-19 -0.00970858 0
-3.61768e-19 -0.00970858 0
2.11776e-19 -0.00970858 0
-2.83888e-19 -0.00970858 0
3.64242e-19 -0.00970858 0
2.51833e-20 -0.00970858 0
-3.77517e-19 -0.00970858 0
-4.39552e-19 -0.00970858 0
-6.82692e-20 -0.00970858 0
3.31899e-20 -0.00970858 0
7.72611e-20 -0.00970858 0
4.07733e-19 -0.00970858 0
SCALARS radius double 1
LOOKUP_TABLE default
0.0005192
0.000759374
0.000731582
0.000932767
0.000864852
0.00092132
0.000824734
0.000662097
0.000535446
0.00094621
0.000999249
0.000802661
0.000671708
0.000819153
0.000645007
0.000827505
0.000602392
0.000772815
0.000550095
0.000626194
0.000886859
0.000531918
0.000790192
0.000909137
0.00096445
SCALARS mass double 1
LOOKUP_TABLE default
0.00228657
0.0048913
0.00453983
0.00738005
0.00634449
0.00720004
0.00576955
0.0037184
0.0024319
0.00759432
0.00846957
0.00546484
0.00382714
0.00569173
0.00352892
0.00580838
0.00307803
0.005066
0.00256678
0.00332607
0.00667148
0.00239995
0.00529637
0.00701087
0.00788992
