# vtk DataFile Version 3.0
DEM2D particles
ASCII
DATASET POLYDATA
POINTS 25 double
0.000210492 5.45429e-05 0
0.00247694 -0.000344746 0
0.00456711 0.000302581 0
0.00674628 0.000183867 0
0.00933215 0.00110099 0
0.000976388 0.00325517 0
0.00272805 0.00293962 0
0.00430175 0.0024708 0
0.00620408 0.00189349 0
0.00807857 0.00233945 0
0.00194188 0.00419213 0
0.00315848 0.0039112 0
0.00447748 0.00441541 0
0.00666273 0.00548796 0
0.00823043 0.00494048 0
0.0014505 0.0061108 0
0.0023961 0.00722417 0
0.00577483 0.00624925 0
0.00705357 0.00681086 0
0.00819693 0.00651658 0
6.49651e-05 0.00815777 0
0.00285477 0.00951777 0
0.0050706 0.00845056 0
0.00716435 0.00904557 0
0.00986735 0.00859448 0
VERTICES 25 50
1 0
1 1
1 2
1 3
1 4
1 5
1 6
1 7
1 8
1 9
1 10
1 11
1 12
1 13
1 14
1 15
1 16
1 17
1 18
1 19
1 20
1 21
1 22
1 23
1 24
POINT_DATA 25
VECTORS velocity double
-8.14541e-21 -0.00970858 0
-5.39648e-21 -0.00970858 0
-4.46618e-21 -0.00970858 0
-2.61767e-21 -0.00970858 0
3.42679e-21 -0.00970858 0
-2.4361e-22 -0.00970858 0
-2.80577e-21 -0.00970858 0
-7.20391e-21 -0.00970858 0
-8.21152e-21 -0.00970858 0
-9.50649e-21 -0.00970858 0
9.71746e-21 -0.00970858 0
1.63506e-21 -0.00970858 0
-5.39086e-21 -0.00970858 0
-3.4796e-21 -0.00970858 0
-7.93971e-21 -0.00970858 0
4.64784e-21 -0.00970858 0
-6.23046e-21 -0.00970858 0
7.994e-21 -0.00970858 0
5.52696e-22 -0.00970858 0
-8.28535e-21 -0.00970858 0
-9.64681e-21 -0.00970858 0
-1.4983e-21 -0.00970858 0
7.28417e-22 -0.00970858 0
1.69564e-21 -0.00970858 0
8.94848e-21 -0.00970858 0
SCALARS radius double 1
LOOKUP_TABLE default
0.0005192
0.000759374
0.000731582
0.000932767
0.000864852
0.00092132
0.000824734
0.000662097
0.000535446
0.00094621
0.000999249
0.000802661
0.000671708
0.000819153
0.000645007
0.000827505
0.000602392
0.000772815
0.000550095
0.000626194
0.000886859
0.000531918
0.000790192
0.000909137
0.00096445
SCALARS mass double 1
LOOKUP_TABLE default
0.00228657
0.0048913
0.00453983
0.00738005
0.00634449
0.00720004
0.00576955
0.0037184
0.0024319
0.00759432
0.00846957
0.00546484
0.00382714
0.00569173
0.00352892
0.00580838
0.00307803
0.005066
0.00256678
0.00332607
0.00667148
0.00239995
0.00529637
0.00701087
0.00788992
