# vtk DataFile Version 3.0
DEM2D particles
ASCII
DATASET POLYDATA
POINTS 25 double
0.000210533 0.000404078 0
0.00247696 4.81022e-06 0
0.00456713 0.000652103 0
0.00674629 0.000533395 0
0.00933213 0.00145047 0
0.000976389 0.00360464 0
0.00272806 0.0032891 0
0.00430179 0.00282032 0
0.00620413 0.00224303 0
0.00807862 0.00268897 0
0.00194183 0.00454166 0
0.00315847 0.00426075 0
0.00447751 0.00476492 0
0.00666275 0.00583742 0
0.00823047 0.00528997 0
0.00145048 0.00646034 0
0.00239613 0.00757365 0
0.00577479 0.00659878 0
0.00705357 0.00716036 0
0.00819697 0.00686609 0
6.50144e-05 0.0085073 0
0.00285478 0.00986723 0
0.0050706 0.00880008 0
0.00716434 0.00939506 0
0.0098673 0.00894399 0
VERTICES 25 50
1 0
1 1
1 2
1 3
1 4
1 5
1 6
1 7
1 8
1 9
1 10
1 11
1 12
1 13
1 14
1 15
1 16
1 17
1 18
1 19
1 20
1 21
1 22
1 23
1 24
POINT_DATA 25
VECTORS velocity double
-4.20932e-05 -0.00973528 0
-2.78875e-05 -0.00975657 0
-2.308e-05 -0.00972206 0
-1.35274e-05 -0.00972839 0
1.77087e-05 -0.00967949 0
-1.25891e-06 -0.00967127 0
-1.44995e-05 -0.0096881 0
-3.72278e-05 -0.00971309 0
-4.24349e-05 -0.00974387 0
-4.91269e-05 -0.00972009 0
5.02172e-05 -0.00972795 0
8.44954e-06 -0.00974293 0
-2.78585e-05 -0.00971604 0
-1.79816e-05 -0.00965886 0
-4.10302e-05 -0.00968805 0
2.40188e-05 -0.00973228 0
-3.21973e-05 -0.00967292 0
4.13108e-05 -0.0097249 0
2.85618e-06 -0.00969496 0
-4.28164e-05 -0.00971065 0
-4.98521e-05 -0.00972978 0
-7.7428e-06 -0.00965727 0
3.76426e-06 -0.00971417 0
8.76262e-06 -0.00968245 0
4.62433e-05 -0.0097065 0
SCALARS radius double 1
LOOKUP_TABLE default
0.0005192
0.000759374
0.000731582
0.000932767
0.000864852
0.00092132
0.000824734
0.000662097
0.000535446
0.00094621
0.000999249
0.000802661
0.000671708
0.000819153
0.000645007
0.000827505
0.000602392
0.000772815
0.000550095
0.000626194
0.000886859
0.000531918
0.000790192
0.000909137
0.00096445
SCALARS mass double 1
LOOKUP_TABLE default
0.00228657
0.0048913
0.00453983
0.00738005
0.00634449
0.00720004
0.00576955
0.0037184
0.0024319
0.00759432
0.00846957
0.00546484
0.00382714
0.00569173
0.00352892
0.00580838
0.00307803
0.005066
0.00256678
0.00332607
0.00667148
0.00239995
0.00529637
0.00701087
0.00788992
