# vtk DataFile Version 3.0
DEM2D particles
ASCII
DATASET POLYDATA
POINTS 25 double
0.000210492 0.000188521 0
0.00247694 -0.000210768 0
0.00456711 0.000436559 0
0.00674628 0.000317845 0
0.00933215 0.00123497 0
0.000976388 0.00338915 0
0.00272805 0.00307359 0
0.00430175 0.00260478 0
0.00620408 0.00202747 0
0.00807857 0.00247343 0
0.00194188 0.00432611 0
0.00315848 0.00404518 0
0.00447748 0.00454939 0
0.00666273 0.00562194 0
0.00823043 0.00507446 0
0.0014505 0.00624478 0
0.0023961 0.00735815 0
0.00577483 0.00638323 0
0.00705357 0.00694484 0
0.00819693 0.00665056 0
6.49651e-05 0.00829175 0
0.00285477 0.00965175 0
0.0050706 0.00858454 0
0.00716435 0.00917955 0
0.00986735 0.00872846 0
VERTICES 25 50
1 0
1 1
1 2
1 3
1 4
1 5
1 6
1 7
1 8
1 9
1 10
1 11
1 12
1 13
1 14
1 15
1 16
1 17
1 18
1 19
1 20
1 21
1 22
1 23
1 24
POINT_DATA 25
VECTORS velocity double
-8.59695e-15 -0.00970858 0
-5.69563e-15 -0.00970858 0
-4.71376e-15 -0.00970858 0
-2.76278e-15 -0.00970858 0
3.61676e-15 -0.00970858 0
-2.57115e-16 -0.00970858 0
-2.96131e-15 -0.00970858 0
-7.60325e-15 -0.00970858 0
-8.66672e-15 -0.00970858 0
-1.00335e-14 -0.00970858 0
1.02561e-14 -0.00970858 0
1.7257e-15 -0.00970858 0
-5.6897e-15 -0.00970858 0
-3.6725e-15 -0.00970858 0
-8.37984e-15 -0.00970858 0
4.90549e-15 -0.00970858 0
-6.57585e-15 -0.00970858 0
8.43715e-15 -0.00970858 0
5.83335e-16 -0.00970858 0
-8.74465e-15 -0.00970858 0
-1.01816e-14 -0.00970858 0
-1.58136e-15 -0.00970858 0
7.68796e-16 -0.00970858 0
1.78964e-15 -0.00970858 0
9.44454e-15 -0.00970858 0
SCALARS radius double 1
LOOKUP_TABLE default
0.0005192
0.000759374
0.000731582
0.000932767
0.000864852
0.00092132
0.000824734
0.000662097
0.000535446
0.00094621
0.000999249
0.000802661
0.000671708
0.000819153
0.000645007
0.000827505
0.000602392
0.000772815
0.000550095
0.000626194
0.000886859
0.000531918
0.000790192
0.000909137
0.00096445
SCALARS mass double 1
LOOKUP_TABLE default
0.00228657
0.0048913
0.00453983
0.00738005
0.00634449
0.00720004
0.00576955
0.0037184
0.0024319
0.00759432
0.00846957
0.00546484
0.00382714
0.00569173
0.00352892
0.00580838
0.00307803
0.005066
0.00256678
0.00332607
0.00667148
0.00239995
0.00529637
0.00701087
0.00788992
