# vtk DataFile Version 3.0
DEM2D particles
ASCII
DATASET POLYDATA
POINTS 25 double
0.000642476 0.000767389 0
0.00276313 0.000586574 0
0.00480397 0.000879711 0
0.0068851 0.000825953 0
0.00915041 0.00124127 0
0.000989307 0.00331108 0
0.00287685 0.00316819 0
0.0046838 0.00295589 0
0.00663957 0.00269446 0
0.00858273 0.00289641 0
0.00142653 0.00482969 0
0.00307177 0.00470248 0
0.00476338 0.0049308 0
0.00684727 0.0054165 0
0.00865151 0.00516858 0
0.00120401 0.00679287 0
0.00272653 0.00729705 0
0.00535088 0.00685556 0
0.00702426 0.00710988 0
0.00863633 0.00697662 0
0.000576576 0.00881413 0
0.00293424 0.00943 0
0.00503197 0.00894672 0
0.00707443 0.00921617 0
0.00939277 0.0090119 0
VERTICES 25 50
1 0
1 1
1 2
1 3
1 4
1 5
1 6
1 7
1 8
1 9
1 10
1 11
1 12
1 13
1 14
1 15
1 16
1 17
1 18
1 19
1 20
1 21
1 22
1 23
1 24
POINT_DATA 25
VECTORS velocity double
-0.436348 -0.286495 0
-0.289089 -0.507175 0
-0.239253 -0.149408 0
-0.140228 -0.21502 0
0.183573 0.291861 0
-0.0130502 0.377071 0
-0.150305 0.20267 0
-0.385912 -0.056434 0
-0.43989 -0.375507 0
-0.509261 -0.129031 0
0.520563 -0.210453 0
0.0875899 -0.365716 0
-0.288788 -0.0870509 0
-0.186402 0.505731 0
-0.425329 0.203148 0
0.248984 -0.255401 0
-0.333765 0.35994 0
0.428238 -0.178883 0
0.0296078 0.131512 0
-0.443845 -0.0311358 0
-0.516778 -0.229444 0
-0.0802637 0.522208 0
0.0390212 -0.067622 0
0.0908354 0.261232 0
0.479369 0.0119217 0
SCALARS radius double 1
LOOKUP_TABLE default
0.0005192
0.000759374
0.000731582
0.000932767
0.000864852
0.00092132
0.000824734
0.000662097
0.000535446
0.00094621
0.000999249
0.000802661
0.000671708
0.000819153
0.000645007
0.000827505
0.000602392
0.000772815
0.000550095
0.000626194
0.000886859
0.000531918
0.000790192
0.000909137
0.00096445
SCALARS mass double 1
LOOKUP_TABLE default
0.00228657
0.0048913
0.00453983
0.00738005
0.00634449
0.00720004
0.00576955
0.0037184
0.0024319
0.00759432
0.00846957
0.00546484
0.00382714
0.00569173
0.00352892
0.00580838
0.00307803
0.005066
0.00256678
0.00332607
0.00667148
0.00239995
0.00529637
0.00701087
0.00788992
