# vtk DataFile Version 3.0
DEM2D particles
ASCII
DATASET POLYDATA
POINTS 25 double
0.000210492 -0.000260015 0
0.00247694 -0.000659304 0
0.00456711 -1.19773e-05 0
0.00674628 -0.000130691 0
0.00933215 0.000786435 0
0.000976388 0.00294061 0
0.00272805 0.00262506 0
0.00430175 0.00215625 0
0.00620408 0.00157893 0
0.00807857 0.00202489 0
0.00194188 0.00387757 0
0.00315848 0.00359665 0
0.00447748 0.00410085 0
0.00666273 0.0051734 0
0.00823043 0.00462592 0
0.0014505 0.00579625 0
0.0023961 0.00690961 0
0.00577483 0.00593469 0
0.00705357 0.00649631 0
0.00819693 0.00620202 0
6.49651e-05 0.00784321 0
0.00285477 0.00920321 0
0.0050706 0.008136 0
0.00716435 0.00873102 0
0.00986735 0.00827993 0
VERTICES 25 50
1 0
1 1
1 2
1 3
1 4
1 5
1 6
1 7
1 8
1 9
1 10
1 11
1 12
1 13
1 14
1 15
1 16
1 17
1 18
1 19
1 20
1 21
1 22
1 23
1 24
POINT_DATA 25
VECTORS velocity double
-5.87413e-35 -0.00970858 0
-3.89172e-35 -0.00970858 0
-3.22082e-35 -0.00970858 0
-1.88775e-35 -0.00970858 0
2.47126e-35 -0.00970858 0
-1.75682e-36 -0.00970858 0
-2.02341e-35 -0.00970858 0
-5.19515e-35 -0.00970858 0
-5.9218e-35 -0.00970858 0
-6.85568e-35 -0.00970858 0
7.00783e-35 -0.00970858 0
1.17914e-35 -0.00970858 0
-3.88766e-35 -0.00970858 0
-2.50935e-35 -0.00970858 0
-5.72578e-35 -0.00970858 0
3.35183e-35 -0.00970858 0
-4.49315e-35 -0.00970858 0
5.76494e-35 -0.00970858 0
3.98581e-36 -0.00970858 0
-5.97505e-35 -0.00970858 0
-6.95688e-35 -0.00970858 0
-1.08051e-35 -0.00970858 0
5.25304e-36 -0.00970858 0
1.22283e-35 -0.00970858 0
6.45327e-35 -0.00970858 0
SCALARS radius double 1
LOOKUP_TABLE default
0.0005192
0.000759374
0.000731582
0.000932767
0.000864852
0.00092132
0.000824734
0.000662097
0.000535446
0.00094621
0.000999249
0.000802661
0.000671708
0.000819153
0.000645007
0.000827505
0.000602392
0.000772815
0.000550095
0.000626194
0.000886859
0.000531918
0.000790192
0.000909137
0.00096445
SCALARS mass double 1
LOOKUP_TABLE default
0.00228657
0.0048913
0.00453983
0.00738005
0.00634449
0.00720004
0.00576955
0.0037184
0.0024319
0.00759432
0.00846957
0.00546484
0.00382714
0.00569173
0.00352892
0.00580838
0.00307803
0.005066
0.00256678
0.00332607
0.00667148
0.00239995
0.00529637
0.00701087
0.00788992
