# vtk DataFile Version 3.0
DEM2D particles
ASCII
DATASET POLYDATA
POINTS 25 double
0.000210492 -0.000195939 0
0.00247694 -0.000595228 0
0.00456711 5.20994e-05 0
0.00674628 -6.66148e-05 0
0.00933215 0.000850512 0
0.000976388 0.00300469 0
0.00272805 0.00268913 0
0.00430175 0.00222032 0
0.00620408 0.00164301 0
0.00807857 0.00208897 0
0.00194188 0.00394165 0
0.00315848 0.00366072 0
0.00447748 0.00416493 0
0.00666273 0.00523748 0
0.00823043 0.00469 0
0.0014505 0.00586032 0
0.0023961 0.00697369 0
0.00577483 0.00599877 0
0.00705357 0.00656038 0
0.00819693 0.0062661 0
6.49651e-05 0.00790729 0
0.00285477 0.00926729 0
0.0050706 0.00820008 0
0.00716435 0.00879509 0
0.00986735 0.008344 0
VERTICES 25 50
1 0
1 1
1 2
1 3
1 4
1 5
1 6
1 7
1 8
1 9
1 10
1 11
1 12
1 13
1 14
1 15
1 16
1 17
1 18
1 19
1 20
1 21
1 22
1 23
1 24
POINT_DATA 25
VECTORS velocity double
-4.4639e-32 -0.00970858 0
-2.95742e-32 -0.00970858 0
-2.44759e-32 -0.00970858 0
-1.43455e-32 -0.00970858 0
1.87798e-32 -0.00970858 0
-1.33505e-33 -0.00970858 0
-1.53764e-32 -0.00970858 0
-3.94794e-32 -0.00970858 0
-4.50013e-32 -0.00970858 0
-5.20981e-32 -0.00970858 0
5.32543e-32 -0.00970858 0
8.96057e-33 -0.00970858 0
-2.95434e-32 -0.00970858 0
-1.90692e-32 -0.00970858 0
-4.35117e-32 -0.00970858 0
2.54714e-32 -0.00970858 0
-3.41446e-32 -0.00970858 0
4.38093e-32 -0.00970858 0
3.02892e-33 -0.00970858 0
-4.5406e-32 -0.00970858 0
-5.28672e-32 -0.00970858 0
-8.21109e-33 -0.00970858 0
3.99192e-33 -0.00970858 0
9.29259e-33 -0.00970858 0
4.90401e-32 -0.00970858 0
SCALARS radius double 1
LOOKUP_TABLE default
0.0005192
0.000759374
0.000731582
0.000932767
0.000864852
0.00092132
0.000824734
0.000662097
0.000535446
0.00094621
0.000999249
0.000802661
0.000671708
0.000819153
0.000645007
0.000827505
0.000602392
0.000772815
0.000550095
0.000626194
0.000886859
0.000531918
0.000790192
0.000909137
0.00096445
SCALARS mass double 1
LOOKUP_TABLE default
0.00228657
0.0048913
0.00453983
0.00738005
0.00634449
0.00720004
0.00576955
0.0037184
0.0024319
0.00759432
0.00846957
0.00546484
0.00382714
0.00569173
0.00352892
0.00580838
0.00307803
0.005066
0.00256678
0.00332607
0.00667148
0.00239995
0.00529637
0.00701087
0.00788992
