# vtk DataFile Version 3.0
DEM2D particles
ASCII
DATASET POLYDATA
POINTS 25 double
0.000210492 6.23098e-05 0
0.00247694 -0.000336979 0
0.00456711 0.000310348 0
0.00674628 0.000191634 0
0.00933215 0.00110876 0
0.000976388 0.00326293 0
0.00272805 0.00294738 0
0.00430175 0.00247857 0
0.00620408 0.00190126 0
0.00807857 0.00234722 0
0.00194188 0.0041999 0
0.00315848 0.00391897 0
0.00447748 0.00442317 0
0.00666273 0.00549573 0
0.00823043 0.00494825 0
0.0014505 0.00611857 0
0.0023961 0.00723194 0
0.00577483 0.00625702 0
0.00705357 0.00681863 0
0.00819693 0.00652434 0
6.49651e-05 0.00816553 0
0.00285477 0.00952554 0
0.0050706 0.00845833 0
0.00716435 0.00905334 0
0.00986735 0.00860225 0
VERTICES 25 50
1 0
1 1
1 2
1 3
1 4
1 5
1 6
1 7
1 8
1 9
1 10
1 11
1 12
1 13
1 14
1 15
1 16
1 17
1 18
1 19
1 20
1 21
1 22
1 23
1 24
POINT_DATA 25
VECTORS velocity double
-1.82011e-20 -0.00970858 0
-1.20585e-20 -0.00970858 0
-9.97977e-21 -0.00970858 0
-5.84923e-21 -0.00970858 0
7.65724e-21 -0.00970858 0
-5.44352e-22 -0.00970858 0
-6.26956e-21 -0.00970858 0
-1.60973e-20 -0.00970858 0
-1.83488e-20 -0.00970858 0
-2.12424e-20 -0.00970858 0
2.17139e-20 -0.00970858 0
3.65357e-21 -0.00970858 0
-1.2046e-20 -0.00970858 0
-7.77525e-21 -0.00970858 0
-1.77414e-20 -0.00970858 0
1.03857e-20 -0.00970858 0
-1.39221e-20 -0.00970858 0
1.78628e-20 -0.00970858 0
1.23501e-21 -0.00970858 0
-1.85138e-20 -0.00970858 0
-2.1556e-20 -0.00970858 0
-3.34798e-21 -0.00970858 0
1.62766e-21 -0.00970858 0
3.78895e-21 -0.00970858 0
1.99956e-20 -0.00970858 0
SCALARS radius double 1
LOOKUP_TABLE default
0.0005192
0.000759374
0.000731582
0.000932767
0.000864852
0.00092132
0.000824734
0.000662097
0.000535446
0.00094621
0.000999249
0.000802661
0.000671708
0.000819153
0.000645007
0.000827505
0.000602392
0.000772815
0.000550095
0.000626194
0.000886859
0.000531918
0.000790192
0.000909137
0.00096445
SCALARS mass double 1
LOOKUP_TABLE default
0.00228657
0.0048913
0.00453983
0.00738005
0.00634449
0.00720004
0.00576955
0.0037184
0.0024319
0.00759432
0.00846957
0.00546484
0.00382714
0.00569173
0.00352892
0.00580838
0.00307803
0.005066
0.00256678
0.00332607
0.00667148
0.00239995
0.00529637
0.00701087
0.00788992
