# vtk DataFile Version 3.0
DEM2D particles
ASCII
DATASET POLYDATA
POINTS 25 double
0.000210492 -0.000494963 0
0.00247694 -0.000894252 0
0.00456711 -0.000246925 0
0.00674628 -0.000365639 0
0.00933215 0.000551487 0
0.000976388 0.00270566 0
0.00272805 0.00239011 0
0.00430175 0.0019213 0
0.00620408 0.00134398 0
0.00807857 0.00178994 0
0.00194188 0.00364262 0
0.00315848 0.0033617 0
0.00447748 0.0038659 0
0.00666273 0.00493845 0
0.00823043 0.00439097 0
0.0014505 0.0055613 0
0.0023961 0.00667467 0
0.00577483 0.00569975 0
0.00705357 0.00626136 0
0.00819693 0.00596707 0
6.49651e-05 0.00760826 0
0.00285477 0.00896827 0
0.0050706 0.00790106 0
0.00716435 0.00849607 0
0.00986735 0.00804498 0
VERTICES 25 50
1 0
1 1
1 2
1 3
1 4
1 5
1 6
1 7
1 8
1 9
1 10
1 11
1 12
1 13
1 14
1 15
1 16
1 17
1 18
1 19
1 20
1 21
1 22
1 23
1 24
POINT_DATA 25
VECTORS velocity double
-1.60736e-45 -0.00970858 0
-1.06491e-45 -0.00970858 0
-8.81328e-46 -0.00970858 0
-5.16554e-46 -0.00970858 0
6.76222e-46 -0.00970858 0
-4.80725e-47 -0.00970858 0
-5.53674e-46 -0.00970858 0
-1.42157e-45 -0.00970858 0
-1.62041e-45 -0.00970858 0
-1.87595e-45 -0.00970858 0
1.91758e-45 -0.00970858 0
3.22652e-46 -0.00970858 0
-1.0638e-45 -0.00970858 0
-6.86644e-46 -0.00970858 0
-1.56677e-45 -0.00970858 0
9.17176e-46 -0.00970858 0
-1.22948e-45 -0.00970858 0
1.57749e-45 -0.00970858 0
1.09066e-46 -0.00970858 0
-1.63498e-45 -0.00970858 0
-1.90364e-45 -0.00970858 0
-2.95665e-46 -0.00970858 0
1.43741e-46 -0.00970858 0
3.34608e-46 -0.00970858 0
1.76584e-45 -0.00970858 0
SCALARS radius double 1
LOOKUP_TABLE default
0.0005192
0.000759374
0.000731582
0.000932767
0.000864852
0.00092132
0.000824734
0.000662097
0.000535446
0.00094621
0.000999249
0.000802661
0.000671708
0.000819153
0.000645007
0.000827505
0.000602392
0.000772815
0.000550095
0.000626194
0.000886859
0.000531918
0.000790192
0.000909137
0.00096445
SCALARS mass double 1
LOOKUP_TABLE default
0.00228657
0.0048913
0.00453983
0.00738005
0.00634449
0.00720004
0.00576955
0.0037184
0.0024319
0.00759432
0.00846957
0.00546484
0.00382714
0.00569173
0.00352892
0.00580838
0.00307803
0.005066
0.00256678
0.00332607
0.00667148
0.00239995
0.00529637
0.00701087
0.00788992
