# vtk DataFile Version 3.0
DEM2D particles
ASCII
DATASET POLYDATA
POINTS 25 double
0.000210492 0.000361334 0
0.00247694 -3.79545e-05 0
0.00456711 0.000609372 0
0.00674628 0.000490658 0
0.00933215 0.00140778 0
0.000976388 0.00356196 0
0.00272805 0.00324641 0
0.00430175 0.0027776 0
0.00620408 0.00220028 0
0.00807857 0.00264624 0
0.00194188 0.00449892 0
0.00315848 0.004218 0
0.00447748 0.0047222 0
0.00666273 0.00579475 0
0.00823043 0.00524727 0
0.0014505 0.00641759 0
0.0023961 0.00753096 0
0.00577483 0.00655604 0
0.00705357 0.00711766 0
0.00819693 0.00682337 0
6.49657e-05 0.00846456 0
0.00285477 0.00982456 0
0.0050706 0.00875735 0
0.00716435 0.00935237 0
0.00986735 0.00890128 0
VERTICES 25 50
1 0
1 1
1 2
1 3
1 4
1 5
1 6
1 7
1 8
1 9
1 10
1 11
1 12
1 13
1 14
1 15
1 16
1 17
1 18
1 19
1 20
1 21
1 22
1 23
1 24
POINT_DATA 25
VECTORS velocity double
-5.05473e-07 -0.0097089 0
-3.34885e-07 -0.00970916 0
-2.77154e-07 -0.00970875 0
-1.62443e-07 -0.00970882 0
2.12654e-07 -0.00970823 0
-1.51175e-08 -0.00970814 0
-1.74116e-07 -0.00970834 0
-4.47047e-07 -0.00970864 0
-5.09575e-07 -0.00970901 0
-5.89936e-07 -0.00970872 0
6.03028e-07 -0.00970882 0
1.01466e-07 -0.009709 0
-3.34536e-07 -0.00970867 0
-2.15931e-07 -0.00970799 0
-4.92708e-07 -0.00970834 0
2.88427e-07 -0.00970887 0
-3.86639e-07 -0.00970816 0
4.96077e-07 -0.00970878 0
3.42982e-08 -0.00970842 0
-5.14157e-07 -0.00970861 0
-5.98644e-07 -0.00970884 0
-9.29787e-08 -0.00970797 0
4.52028e-08 -0.00970865 0
1.05225e-07 -0.00970827 0
5.55309e-07 -0.00970856 0
SCALARS radius double 1
LOOKUP_TABLE default
0.0005192
0.000759374
0.000731582
0.000932767
0.000864852
0.00092132
0.000824734
0.000662097
0.000535446
0.00094621
0.000999249
0.000802661
0.000671708
0.000819153
0.000645007
0.000827505
0.000602392
0.000772815
0.000550095
0.000626194
0.000886859
0.000531918
0.000790192
0.000909137
0.00096445
SCALARS mass double 1
LOOKUP_TABLE default
0.00228657
0.0048913
0.00453983
0.00738005
0.00634449
0.00720004
0.00576955
0.0037184
0.0024319
0.00759432
0.00846957
0.00546484
0.00382714
0.00569173
0.00352892
0.00580838
0.00307803
0.005066
0.00256678
0.00332607
0.00667148
0.00239995
0.00529637
0.00701087
0.00788992
