# vtk DataFile Version 3.0
DEM2D particles
ASCII
DATASET POLYDATA
POINTS 25 double
0.000210492 -9.53376e-06 0
0.00247694 -0.000408823 0
0.00456711 0.000238504 0
0.00674628 0.00011979 0
0.00933215 0.00103692 0
0.000976388 0.00319109 0
0.00272805 0.00287554 0
0.00430175 0.00240673 0
0.00620408 0.00182941 0
0.00807857 0.00227537 0
0.00194188 0.00412805 0
0.00315848 0.00384713 0
0.00447748 0.00435133 0
0.00666273 0.00542388 0
0.00823043 0.0048764 0
0.0014505 0.00604673 0
0.0023961 0.0071601 0
0.00577483 0.00618517 0
0.00705357 0.00674679 0
0.00819693 0.0064525 0
6.49651e-05 0.00809369 0
0.00285477 0.0094537 0
0.0050706 0.00838648 0
0.00716435 0.0089815 0
0.00986735 0.00853041 0
VERTICES 25 50
1 0
1 1
1 2
1 3
1 4
1 5
1 6
1 7
1 8
1 9
1 10
1 11
1 12
1 13
1 14
1 15
1 16
1 17
1 18
1 19
1 20
1 21
1 22
1 23
1 24
POINT_DATA 25
VECTORS velocity double
-1.07187e-23 -0.00970858 0
-7.10132e-24 -0.00970858 0
-5.87712e-24 -0.00970858 0
-3.44463e-24 -0.00970858 0
4.50938e-24 -0.00970858 0
-3.20571e-25 -0.00970858 0
-3.69216e-24 -0.00970858 0
-9.47974e-24 -0.00970858 0
-1.08057e-23 -0.00970858 0
-1.25097e-23 -0.00970858 0
1.27874e-23 -0.00970858 0
2.1516e-24 -0.00970858 0
-7.09392e-24 -0.00970858 0
-4.57887e-24 -0.00970858 0
-1.0448e-23 -0.00970858 0
6.11617e-24 -0.00970858 0
-8.19877e-24 -0.00970858 0
1.05194e-23 -0.00970858 0
7.27302e-25 -0.00970858 0
-1.09028e-23 -0.00970858 0
-1.26944e-23 -0.00970858 0
-1.97164e-24 -0.00970858 0
9.58536e-25 -0.00970858 0
2.23133e-24 -0.00970858 0
1.17755e-23 -0.00970858 0
SCALARS radius double 1
LOOKUP_TABLE default
0.0005192
0.000759374
0.000731582
0.000932767
0.000864852
0.00092132
0.000824734
0.000662097
0.000535446
0.00094621
0.000999249
0.000802661
0.000671708
0.000819153
0.000645007
0.000827505
0.000602392
0.000772815
0.000550095
0.000626194
0.000886859
0.000531918
0.000790192
0.000909137
0.00096445
SCALARS mass double 1
LOOKUP_TABLE default
0.00228657
0.0048913
0.00453983
0.00738005
0.00634449
0.00720004
0.00576955
0.0037184
0.0024319
0.00759432
0.00846957
0.00546484
0.00382714
0.00569173
0.00352892
0.00580838
0.00307803
0.005066
0.00256678
0.00332607
0.00667148
0.00239995
0.00529637
0.00701087
0.00788992
