# vtk DataFile Version 3.0
DEM2D particles
ASCII
DATASET POLYDATA
POINTS 25 double
0.000210492 -0.00117456 0
0.00247694 -0.00157385 0
0.00456711 -0.000926526 0
0.00674628 -0.00104524 0
0.00933215 -0.000128114 0
0.000976388 0.00202606 0
0.00272805 0.00171051 0
0.00430175 0.0012417 0
0.00620408 0.000664382 0
0.00807857 0.00111034 0
0.00194188 0.00296302 0
0.00315848 0.0026821 0
0.00447748 0.0031863 0
0.00666273 0.00425885 0
0.00823043 0.00371137 0
0.0014505 0.0048817 0
0.0023961 0.00599507 0
0.00577483 0.00502014 0
0.00705357 0.00558176 0
0.00819693 0.00528747 0
6.49651e-05 0.00692866 0
0.00285477 0.00828867 0
0.0050706 0.00722145 0
0.00716435 0.00781647 0
0.00986735 0.00736538 0
VERTICES 25 50
1 0
1 1
1 2
1 3
1 4
1 5
1 6
1 7
1 8
1 9
1 10
1 11
1 12
1 13
1 14
1 15
1 16
1 17
1 18
1 19
1 20
1 21
1 22
1 23
1 24
POINT_DATA 25
VECTORS velocity double
-4.49238e-76 -0.00970858 0
-2.97628e-76 -0.00970858 0
-2.4632e-76 -0.00970858 0
-1.4437e-76 -0.00970858 0
1.88996e-76 -0.00970858 0
-1.34357e-77 -0.00970858 0
-1.54745e-76 -0.00970858 0
-3.97312e-76 -0.00970858 0
-4.52884e-76 -0.00970858 0
-5.24305e-76 -0.00970858 0
5.3594e-76 -0.00970858 0
9.01773e-77 -0.00970858 0
-2.97318e-76 -0.00970858 0
-1.91908e-76 -0.00970858 0
-4.37893e-76 -0.00970858 0
2.56339e-76 -0.00970858 0
-3.43624e-76 -0.00970858 0
4.40888e-76 -0.00970858 0
3.04824e-77 -0.00970858 0
-4.56956e-76 -0.00970858 0
-5.32044e-76 -0.00970858 0
-8.26347e-77 -0.00970858 0
4.01739e-77 -0.00970858 0
9.35187e-77 -0.00970858 0
4.93529e-76 -0.00970858 0
SCALARS radius double 1
LOOKUP_TABLE default
0.0005192
0.000759374
0.000731582
0.000932767
0.000864852
0.00092132
0.000824734
0.000662097
0.000535446
0.00094621
0.000999249
0.000802661
0.000671708
0.000819153
0.000645007
0.000827505
0.000602392
0.000772815
0.000550095
0.000626194
0.000886859
0.000531918
0.000790192
0.000909137
0.00096445
SCALARS mass double 1
LOOKUP_TABLE default
0.00228657
0.0048913
0.00453983
0.00738005
0.00634449
0.00720004
0.00576955
0.0037184
0.0024319
0.00759432
0.00846957
0.00546484
0.00382714
0.00569173
0.00352892
0.00580838
0.00307803
0.005066
0.00256678
0.00332607
0.00667148
0.00239995
0.00529637
0.00701087
0.00788992
