# vtk DataFile Version 3.0
DEM2D particles
ASCII
DATASET POLYDATA
POINTS 25 double
0.000210492 -0.000283316 0
0.00247694 -0.000682605 0
0.00456711 -3.52779e-05 0
0.00674628 -0.000153992 0
0.00933215 0.000763134 0
0.000976388 0.00291731 0
0.00272805 0.00260176 0
0.00430175 0.00213295 0
0.00620408 0.00155563 0
0.00807857 0.00200159 0
0.00194188 0.00385427 0
0.00315848 0.00357335 0
0.00447748 0.00407755 0
0.00666273 0.0051501 0
0.00823043 0.00460262 0
0.0014505 0.00577294 0
0.0023961 0.00688631 0
0.00577483 0.00591139 0
0.00705357 0.00647301 0
0.00819693 0.00617872 0
6.49651e-05 0.00781991 0
0.00285477 0.00917991 0
0.0050706 0.0081127 0
0.00716435 0.00870772 0
0.00986735 0.00825663 0
VERTICES 25 50
1 0
1 1
1 2
1 3
1 4
1 5
1 6
1 7
1 8
1 9
1 10
1 11
1 12
1 13
1 14
1 15
1 16
1 17
1 18
1 19
1 20
1 21
1 22
1 23
1 24
POINT_DATA 25
VECTORS velocity double
-5.2649e-36 -0.00970858 0
-3.48809e-36 -0.00970858 0
-2.88678e-36 -0.00970858 0
-1.69197e-36 -0.00970858 0
2.21496e-36 -0.00970858 0
-1.57461e-37 -0.00970858 0
-1.81355e-36 -0.00970858 0
-4.65635e-36 -0.00970858 0
-5.30763e-36 -0.00970858 0
-6.14465e-36 -0.00970858 0
6.28102e-36 -0.00970858 0
1.05684e-36 -0.00970858 0
-3.48446e-36 -0.00970858 0
-2.24909e-36 -0.00970858 0
-5.13194e-36 -0.00970858 0
3.0042e-36 -0.00970858 0
-4.02715e-36 -0.00970858 0
5.16704e-36 -0.00970858 0
3.57243e-37 -0.00970858 0
-5.35535e-36 -0.00970858 0
-6.23535e-36 -0.00970858 0
-9.68447e-37 -0.00970858 0
4.70822e-37 -0.00970858 0
1.096e-36 -0.00970858 0
5.78398e-36 -0.00970858 0
SCALARS radius double 1
LOOKUP_TABLE default
0.0005192
0.000759374
0.000731582
0.000932767
0.000864852
0.00092132
0.000824734
0.000662097
0.000535446
0.00094621
0.000999249
0.000802661
0.000671708
0.000819153
0.000645007
0.000827505
0.000602392
0.000772815
0.000550095
0.000626194
0.000886859
0.000531918
0.000790192
0.000909137
0.00096445
SCALARS mass double 1
LOOKUP_TABLE default
0.00228657
0.0048913
0.00453983
0.00738005
0.00634449
0.00720004
0.00576955
0.0037184
0.0024319
0.00759432
0.00846957
0.00546484
0.00382714
0.00569173
0.00352892
0.00580838
0.00307803
0.005066
0.00256678
0.00332607
0.00667148
0.00239995
0.00529637
0.00701087
0.00788992
