# vtk DataFile Version 3.0
DEM2D particles
ASCII
DATASET POLYDATA
POINTS 25 double
0.000210492 -0.00115903 0
0.00247694 -0.00155832 0
0.00456711 -0.000910992 0
0.00674628 -0.00102971 0
0.00933215 -0.00011258 0
0.000976388 0.0020416 0
0.00272805 0.00172604 0
0.00430175 0.00125723 0
0.00620408 0.000679916 0
0.00807857 0.00112588 0
0.00194188 0.00297856 0
0.00315848 0.00269763 0
0.00447748 0.00320183 0
0.00666273 0.00427439 0
0.00823043 0.00372691 0
0.0014505 0.00489723 0
0.0023961 0.0060106 0
0.00577483 0.00503568 0
0.00705357 0.00559729 0
0.00819693 0.005303 0
6.49651e-05 0.0069442 0
0.00285477 0.0083042 0
0.0050706 0.00723699 0
0.00716435 0.007832 0
0.00986735 0.00738091 0
VERTICES 25 50
1 0
1 1
1 2
1 3
1 4
1 5
1 6
1 7
1 8
1 9
1 10
1 11
1 12
1 13
1 14
1 15
1 16
1 17
1 18
1 19
1 20
1 21
1 22
1 23
1 24
POINT_DATA 25
VECTORS velocity double
-2.24308e-75 -0.00970858 0
-1.48608e-75 -0.00970858 0
-1.2299e-75 -0.00970858 0
-7.20854e-76 -0.00970858 0
9.43671e-76 -0.00970858 0
-6.70854e-77 -0.00970858 0
-7.72654e-76 -0.00970858 0
-1.98381e-75 -0.00970858 0
-2.26129e-75 -0.00970858 0
-2.6179e-75 -0.00970858 0
2.67599e-75 -0.00970858 0
4.50263e-76 -0.00970858 0
-1.48454e-75 -0.00970858 0
-9.58214e-76 -0.00970858 0
-2.18644e-75 -0.00970858 0
1.27992e-75 -0.00970858 0
-1.71575e-75 -0.00970858 0
2.20139e-75 -0.00970858 0
1.52201e-76 -0.00970858 0
-2.28162e-75 -0.00970858 0
-2.65654e-75 -0.00970858 0
-4.12602e-76 -0.00970858 0
2.00591e-76 -0.00970858 0
4.66947e-76 -0.00970858 0
2.46423e-75 -0.00970858 0
SCALARS radius double 1
LOOKUP_TABLE default
0.0005192
0.000759374
0.000731582
0.000932767
0.000864852
0.00092132
0.000824734
0.000662097
0.000535446
0.00094621
0.000999249
0.000802661
0.000671708
0.000819153
0.000645007
0.000827505
0.000602392
0.000772815
0.000550095
0.000626194
0.000886859
0.000531918
0.000790192
0.000909137
0.00096445
SCALARS mass double 1
LOOKUP_TABLE default
0.00228657
0.0048913
0.00453983
0.00738005
0.00634449
0.00720004
0.00576955
0.0037184
0.0024319
0.00759432
0.00846957
0.00546484
0.00382714
0.00569173
0.00352892
0.00580838
0.00307803
0.005066
0.00256678
0.00332607
0.00667148
0.00239995
0.00529637
0.00701087
0.00788992
