# vtk DataFile Version 3.0
DEM2D particles
ASCII
DATASET POLYDATA
POINTS 25 double
0.000210746 0.000421689 0
0.0024771 2.25282e-05 0
0.00456725 0.000669647 0
0.00674636 0.000550971 0
0.00933204 0.0014678 0
0.000976395 0.00362193 0
0.00272813 0.00330648 0
0.00430197 0.00283782 0
0.00620434 0.00226069 0
0.00807886 0.0027065 0
0.00194158 0.00455923 0
0.00315843 0.0042784 0
0.00447765 0.00478244 0
0.00666284 0.00585464 0
0.00823068 0.00530734 0
0.00145036 0.00647793 0
0.0023963 0.00759094 0
0.00577458 0.00661633 0
0.00705355 0.00717777 0
0.00819719 0.00688357 0
6.52664e-05 0.00852488 0
0.00285482 0.00988445 0
0.00507058 0.00881758 0
0.0071643 0.0094124 0
0.00986707 0.00896146 0
VERTICES 25 50
1 0
1 1
1 2
1 3
1 4
1 5
1 6
1 7
1 8
1 9
1 10
1 11
1 12
1 13
1 14
1 15
1 16
1 17
1 18
1 19
1 20
1 21
1 22
1 23
1 24
POINT_DATA 25
VECTORS velocity double
-0.000256967 -0.00987158 0
-0.000170245 -0.0100015 0
-0.000140897 -0.00979085 0
-8.25808e-05 -0.00982949 0
0.000108107 -0.00953099 0
-7.68528e-06 -0.00948081 0
-8.8515e-05 -0.00958351 0
-0.000227265 -0.0097361 0
-0.000259052 -0.009924 0
-0.000299906 -0.00977885 0
0.000306561 -0.0098268 0
5.1582e-05 -0.00991824 0
-0.000170068 -0.00975413 0
-0.000109773 -0.00940504 0
-0.000250478 -0.00958323 0
0.000146628 -0.00985327 0
-0.000196555 -0.0094909 0
0.000252191 -0.00980821 0
1.74362e-05 -0.00962542 0
-0.000261382 -0.0097212 0
-0.000304332 -0.00983799 0
-4.72675e-05 -0.00939534 0
2.29797e-05 -0.00974269 0
5.34933e-05 -0.00954903 0
0.000282302 -0.00969585 0
SCALARS radius double 1
LOOKUP_TABLE default
0.0005192
0.000759374
0.000731582
0.000932767
0.000864852
0.00092132
0.000824734
0.000662097
0.000535446
0.00094621
0.000999249
0.000802661
0.000671708
0.000819153
0.000645007
0.000827505
0.000602392
0.000772815
0.000550095
0.000626194
0.000886859
0.000531918
0.000790192
0.000909137
0.00096445
SCALARS mass double 1
LOOKUP_TABLE default
0.00228657
0.0048913
0.00453983
0.00738005
0.00634449
0.00720004
0.00576955
0.0037184
0.0024319
0.00759432
0.00846957
0.00546484
0.00382714
0.00569173
0.00352892
0.00580838
0.00307803
0.005066
0.00256678
0.00332607
0.00667148
0.00239995
0.00529637
0.00701087
0.00788992
