# vtk DataFile Version 3.0
DEM2D particles
ASCII
DATASET POLYDATA
POINTS 25 double
0.000210492 -0.000673601 0
0.00247694 -0.00107289 0
0.00456711 -0.000425563 0
0.00674628 -0.000544277 0
0.00933215 0.000372849 0
0.000976388 0.00252702 0
0.00272805 0.00221147 0
0.00430175 0.00174266 0
0.00620408 0.00116534 0
0.00807857 0.00161131 0
0.00194188 0.00346399 0
0.00315848 0.00318306 0
0.00447748 0.00368726 0
0.00666273 0.00475982 0
0.00823043 0.00421234 0
0.0014505 0.00538266 0
0.0023961 0.00649603 0
0.00577483 0.00552111 0
0.00705357 0.00608272 0
0.00819693 0.00578843 0
6.49651e-05 0.00742962 0
0.00285477 0.00878963 0
0.0050706 0.00772242 0
0.00716435 0.00831743 0
0.00986735 0.00786634 0
VERTICES 25 50
1 0
1 1
1 2
1 3
1 4
1 5
1 6
1 7
1 8
1 9
1 10
1 11
1 12
1 13
1 14
1 15
1 16
1 17
1 18
1 19
1 20
1 21
1 22
1 23
1 24
POINT_DATA 25
VECTORS velocity double
-1.4958e-53 -0.00970858 0
-9.90992e-54 -0.00970858 0
-8.20155e-54 -0.00970858 0
-4.807e-54 -0.00970858 0
6.29285e-54 -0.00970858 0
-4.47358e-55 -0.00970858 0
-5.15243e-54 -0.00970858 0
-1.3229e-53 -0.00970858 0
-1.50794e-53 -0.00970858 0
-1.74574e-53 -0.00970858 0
1.78448e-53 -0.00970858 0
3.00257e-54 -0.00970858 0
-9.8996e-54 -0.00970858 0
-6.38983e-54 -0.00970858 0
-1.45802e-53 -0.00970858 0
8.53514e-54 -0.00970858 0
-1.14414e-53 -0.00970858 0
1.46799e-53 -0.00970858 0
1.01495e-54 -0.00970858 0
-1.52149e-53 -0.00970858 0
-1.77151e-53 -0.00970858 0
-2.75143e-54 -0.00970858 0
1.33764e-54 -0.00970858 0
3.11383e-54 -0.00970858 0
1.64327e-53 -0.00970858 0
SCALARS radius double 1
LOOKUP_TABLE default
0.0005192
0.000759374
0.000731582
0.000932767
0.000864852
0.00092132
0.000824734
0.000662097
0.000535446
0.00094621
0.000999249
0.000802661
0.000671708
0.000819153
0.000645007
0.000827505
0.000602392
0.000772815
0.000550095
0.000626194
0.000886859
0.000531918
0.000790192
0.000909137
0.00096445
SCALARS mass double 1
LOOKUP_TABLE default
0.00228657
0.0048913
0.00453983
0.00738005
0.00634449
0.00720004
0.00576955
0.0037184
0.0024319
0.00759432
0.00846957
0.00546484
0.00382714
0.00569173
0.00352892
0.00580838
0.00307803
0.005066
0.00256678
0.00332607
0.00667148
0.00239995
0.00529637
0.00701087
0.00788992
