# vtk DataFile Version 3.0
DEM2D particles
ASCII
DATASET POLYDATA
POINTS 25 double
0.000210492 -0.0014231 0
0.00247694 -0.00182239 0
0.00456711 -0.00117507 0
0.00674628 -0.00129378 0
0.00933215 -0.000376653 0
0.000976388 0.00177752 0
0.00272805 0.00146197 0
0.00430175 0.000993158 0
0.00620408 0.000415842 0
0.00807857 0.000861804 0
0.00194188 0.00271448 0
0.00315848 0.00243356 0
0.00447748 0.00293776 0
0.00666273 0.00401031 0
0.00823043 0.00346283 0
0.0014505 0.00463316 0
0.0023961 0.00574653 0
0.00577483 0.0047716 0
0.00705357 0.00533322 0
0.00819693 0.00503893 0
6.49651e-05 0.00668012 0
0.00285477 0.00804013 0
0.0050706 0.00697291 0
0.00716435 0.00756793 0
0.00986735 0.00711684 0
VERTICES 25 50
1 0
1 1
1 2
1 3
1 4
1 5
1 6
1 7
1 8
1 9
1 10
1 11
1 12
1 13
1 14
1 15
1 16
1 17
1 18
1 19
1 20
1 21
1 22
1 23
1 24
POINT_DATA 25
VECTORS velocity double
-3.01006e-87 -0.00970858 0
-1.99422e-87 -0.00970858 0
-1.65043e-87 -0.00970858 0
-9.67334e-88 -0.00970858 0
1.26634e-87 -0.00970858 0
-9.00238e-89 -0.00970858 0
-1.03685e-87 -0.00970858 0
-2.66213e-87 -0.00970858 0
-3.03449e-87 -0.00970858 0
-3.51303e-87 -0.00970858 0
3.59099e-87 -0.00970858 0
6.0422e-88 -0.00970858 0
-1.99214e-87 -0.00970858 0
-1.28585e-87 -0.00970858 0
-2.93404e-87 -0.00970858 0
1.71756e-87 -0.00970858 0
-2.30241e-87 -0.00970858 0
2.95411e-87 -0.00970858 0
2.04243e-88 -0.00970858 0
-3.06177e-87 -0.00970858 0
-3.56489e-87 -0.00970858 0
-5.53682e-88 -0.00970858 0
2.69179e-88 -0.00970858 0
6.26609e-88 -0.00970858 0
3.30682e-87 -0.00970858 0
SCALARS radius double 1
LOOKUP_TABLE default
0.0005192
0.000759374
0.000731582
0.000932767
0.000864852
0.00092132
0.000824734
0.000662097
0.000535446
0.00094621
0.000999249
0.000802661
0.000671708
0.000819153
0.000645007
0.000827505
0.000602392
0.000772815
0.000550095
0.000626194
0.000886859
0.000531918
0.000790192
0.000909137
0.00096445
SCALARS mass double 1
LOOKUP_TABLE default
0.00228657
0.0048913
0.00453983
0.00738005
0.00634449
0.00720004
0.00576955
0.0037184
0.0024319
0.00759432
0.00846957
0.00546484
0.00382714
0.00569173
0.00352892
0.00580838
0.00307803
0.005066
0.00256678
0.00332607
0.00667148
0.00239995
0.00529637
0.00701087
0.00788992
