# vtk DataFile Version 3.0
DEM2D particles
ASCII
DATASET POLYDATA
POINTS 25 double
0.000210492 -9.30276e-05 0
0.00247694 -0.000492317 0
0.00456711 0.00015501 0
0.00674628 3.62962e-05 0
0.00933215 0.000953423 0
0.000976388 0.0031076 0
0.00272805 0.00279204 0
0.00430175 0.00232323 0
0.00620408 0.00174592 0
0.00807857 0.00219188 0
0.00194188 0.00404456 0
0.00315848 0.00376363 0
0.00447748 0.00426784 0
0.00666273 0.00534039 0
0.00823043 0.00479291 0
0.0014505 0.00596323 0
0.0023961 0.0070766 0
0.00577483 0.00610168 0
0.00705357 0.00666329 0
0.00819693 0.00636901 0
6.49651e-05 0.0080102 0
0.00285477 0.0093702 0
0.0050706 0.00830299 0
0.00716435 0.008898 0
0.00986735 0.00844691 0
VERTICES 25 50
1 0
1 1
1 2
1 3
1 4
1 5
1 6
1 7
1 8
1 9
1 10
1 11
1 12
1 13
1 14
1 15
1 16
1 17
1 18
1 19
1 20
1 21
1 22
1 23
1 24
POINT_DATA 25
VECTORS velocity double
-1.88977e-27 -0.00970858 0
-1.25201e-27 -0.00970858 0
-1.03617e-27 -0.00970858 0
-6.0731e-28 -0.00970858 0
7.95031e-28 -0.00970858 0
-5.65186e-29 -0.00970858 0
-6.50951e-28 -0.00970858 0
-1.67134e-27 -0.00970858 0
-1.90511e-27 -0.00970858 0
-2.20554e-27 -0.00970858 0
2.25449e-27 -0.00970858 0
3.79341e-28 -0.00970858 0
-1.2507e-27 -0.00970858 0
-8.07283e-28 -0.00970858 0
-1.84204e-27 -0.00970858 0
1.07832e-27 -0.00970858 0
-1.44549e-27 -0.00970858 0
1.85464e-27 -0.00970858 0
1.28228e-28 -0.00970858 0
-1.92224e-27 -0.00970858 0
-2.2381e-27 -0.00970858 0
-3.47612e-28 -0.00970858 0
1.68996e-28 -0.00970858 0
3.93397e-28 -0.00970858 0
2.07609e-27 -0.00970858 0
SCALARS radius double 1
LOOKUP_TABLE default
0.0005192
0.000759374
0.000731582
0.000932767
0.000864852
0.00092132
0.000824734
0.000662097
0.000535446
0.00094621
0.000999249
0.000802661
0.000671708
0.000819153
0.000645007
0.000827505
0.000602392
0.000772815
0.000550095
0.000626194
0.000886859
0.000531918
0.000790192
0.000909137
0.00096445
SCALARS mass double 1
LOOKUP_TABLE default
0.00228657
0.0048913
0.00453983
0.00738005
0.00634449
0.00720004
0.00576955
0.0037184
0.0024319
0.00759432
0.00846957
0.00546484
0.00382714
0.00569173
0.00352892
0.00580838
0.00307803
0.005066
0.00256678
0.00332607
0.00667148
0.00239995
0.00529637
0.00701087
0.00788992
