# vtk DataFile Version 3.0
DEM2D particles
ASCII
DATASET POLYDATA
POINTS 25 double
0.000210492 -0.000547389 0
0.00247694 -0.000946678 0
0.00456711 -0.000299351 0
0.00674628 -0.000418065 0
0.00933215 0.000499061 0
0.000976388 0.00265324 0
0.00272805 0.00233768 0
0.00430175 0.00186887 0
0.00620408 0.00129156 0
0.00807857 0.00173752 0
0.00194188 0.0035902 0
0.00315848 0.00330927 0
0.00447748 0.00381348 0
0.00666273 0.00488603 0
0.00823043 0.00433855 0
0.0014505 0.00550887 0
0.0023961 0.00662224 0
0.00577483 0.00564732 0
0.00705357 0.00620893 0
0.00819693 0.00591465 0
6.49651e-05 0.00755584 0
0.00285477 0.00891584 0
0.0050706 0.00784863 0
0.00716435 0.00844364 0
0.00986735 0.00799255 0
VERTICES 25 50
1 0
1 1
1 2
1 3
1 4
1 5
1 6
1 7
1 8
1 9
1 10
1 11
1 12
1 13
1 14
1 15
1 16
1 17
1 18
1 19
1 20
1 21
1 22
1 23
1 24
POINT_DATA 25
VECTORS velocity double
-7.06512e-48 -0.00970858 0
-4.68077e-48 -0.00970858 0
-3.87385e-48 -0.00970858 0
-2.2705e-48 -0.00970858 0
2.97231e-48 -0.00970858 0
-2.11301e-49 -0.00970858 0
-2.43366e-48 -0.00970858 0
-6.24848e-48 -0.00970858 0
-7.12246e-48 -0.00970858 0
-8.24568e-48 -0.00970858 0
8.42867e-48 -0.00970858 0
1.41821e-48 -0.00970858 0
-4.67589e-48 -0.00970858 0
-3.01812e-48 -0.00970858 0
-6.8867e-48 -0.00970858 0
4.03142e-48 -0.00970858 0
-5.40414e-48 -0.00970858 0
6.93379e-48 -0.00970858 0
4.79394e-49 -0.00970858 0
-7.1865e-48 -0.00970858 0
-8.3674e-48 -0.00970858 0
-1.29959e-48 -0.00970858 0
6.3181e-49 -0.00970858 0
1.47076e-48 -0.00970858 0
7.76168e-48 -0.00970858 0
SCALARS radius double 1
LOOKUP_TABLE default
0.0005192
0.000759374
0.000731582
0.000932767
0.000864852
0.00092132
0.000824734
0.000662097
0.000535446
0.00094621
0.000999249
0.000802661
0.000671708
0.000819153
0.000645007
0.000827505
0.000602392
0.000772815
0.000550095
0.000626194
0.000886859
0.000531918
0.000790192
0.000909137
0.00096445
SCALARS mass double 1
LOOKUP_TABLE default
0.00228657
0.0048913
0.00453983
0.00738005
0.00634449
0.00720004
0.00576955
0.0037184
0.0024319
0.00759432
0.00846957
0.00546484
0.00382714
0.00569173
0.00352892
0.00580838
0.00307803
0.005066
0.00256678
0.00332607
0.00667148
0.00239995
0.00529637
0.00701087
0.00788992
