# vtk DataFile Version 3.0
DEM2D particles
ASCII
DATASET POLYDATA
POINTS 25 double
0.000210492 -6.77853e-05 0
0.00247694 -0.000467074 0
0.00456711 0.000180253 0
0.00674628 6.15386e-05 0
0.00933215 0.000978665 0
0.000976388 0.00313284 0
0.00272805 0.00281729 0
0.00430175 0.00234848 0
0.00620408 0.00177116 0
0.00807857 0.00221712 0
0.00194188 0.0040698 0
0.00315848 0.00378888 0
0.00447748 0.00429308 0
0.00666273 0.00536563 0
0.00823043 0.00481815 0
0.0014505 0.00598847 0
0.0023961 0.00710184 0
0.00577483 0.00612692 0
0.00705357 0.00668854 0
0.00819693 0.00639425 0
6.49651e-05 0.00803544 0
0.00285477 0.00939544 0
0.0050706 0.00832823 0
0.00716435 0.00892325 0
0.00986735 0.00847216 0
VERTICES 25 50
1 0
1 1
1 2
1 3
1 4
1 5
1 6
1 7
1 8
1 9
1 10
1 11
1 12
1 13
1 14
1 15
1 16
1 17
1 18
1 19
1 20
1 21
1 22
1 23
1 24
POINT_DATA 25
VECTORS velocity double
-2.57785e-26 -0.00970858 0
-1.70787e-26 -0.00970858 0
-1.41345e-26 -0.00970858 0
-8.28438e-27 -0.00970858 0
1.08451e-26 -0.00970858 0
-7.70976e-28 -0.00970858 0
-8.87969e-27 -0.00970858 0
-2.27989e-26 -0.00970858 0
-2.59877e-26 -0.00970858 0
-3.00861e-26 -0.00970858 0
3.07537e-26 -0.00970858 0
5.17462e-27 -0.00970858 0
-1.7061e-26 -0.00970858 0
-1.10122e-26 -0.00970858 0
-2.51275e-26 -0.00970858 0
1.47095e-26 -0.00970858 0
-1.97181e-26 -0.00970858 0
2.52994e-26 -0.00970858 0
1.74917e-27 -0.00970858 0
-2.62214e-26 -0.00970858 0
-3.05302e-26 -0.00970858 0
-4.74181e-27 -0.00970858 0
2.30529e-27 -0.00970858 0
5.36636e-27 -0.00970858 0
2.83201e-26 -0.00970858 0
SCALARS radius double 1
LOOKUP_TABLE default
0.0005192
0.000759374
0.000731582
0.000932767
0.000864852
0.00092132
0.000824734
0.000662097
0.000535446
0.00094621
0.000999249
0.000802661
0.000671708
0.000819153
0.000645007
0.000827505
0.000602392
0.000772815
0.000550095
0.000626194
0.000886859
0.000531918
0.000790192
0.000909137
0.00096445
SCALARS mass double 1
LOOKUP_TABLE default
0.00228657
0.0048913
0.00453983
0.00738005
0.00634449
0.00720004
0.00576955
0.0037184
0.0024319
0.00759432
0.00846957
0.00546484
0.00382714
0.00569173
0.00352892
0.00580838
0.00307803
0.005066
0.00256678
0.00332607
0.00667148
0.00239995
0.00529637
0.00701087
0.00788992
