# vtk DataFile Version 3.0
DEM2D particles
ASCII
DATASET POLYDATA
POINTS 25 double
0.000210492 -0.000920199 0
0.00247694 -0.00131949 0
0.00456711 -0.000672161 0
0.00674628 -0.000790875 0
0.00933215 0.000126251 0
0.000976388 0.00228043 0
0.00272805 0.00196487 0
0.00430175 0.00149606 0
0.00620408 0.000918747 0
0.00807857 0.00136471 0
0.00194188 0.00321739 0
0.00315848 0.00293646 0
0.00447748 0.00344067 0
0.00666273 0.00451322 0
0.00823043 0.00396574 0
0.0014505 0.00513606 0
0.0023961 0.00624943 0
0.00577483 0.00527451 0
0.00705357 0.00583612 0
0.00819693 0.00554184 0
6.49651e-05 0.00718303 0
0.00285477 0.00854303 0
0.0050706 0.00747582 0
0.00716435 0.00807083 0
0.00986735 0.00761974 0
VERTICES 25 50
1 0
1 1
1 2
1 3
1 4
1 5
1 6
1 7
1 8
1 9
1 10
1 11
1 12
1 13
1 14
1 15
1 16
1 17
1 18
1 19
1 20
1 21
1 22
1 23
1 24
POINT_DATA 25
VECTORS velocity double
-1.22537e-64 -0.00970858 0
-8.11829e-65 -0.00970858 0
-6.71877e-65 -0.00970858 0
-3.93793e-65 -0.00970858 0
5.15516e-65 -0.00970858 0
-3.66479e-66 -0.00970858 0
-4.22091e-65 -0.00970858 0
-1.08373e-64 -0.00970858 0
-1.23531e-64 -0.00970858 0
-1.43012e-64 -0.00970858 0
1.46186e-64 -0.00970858 0
2.45973e-65 -0.00970858 0
-8.10983e-65 -0.00970858 0
-5.2346e-65 -0.00970858 0
-1.19442e-64 -0.00970858 0
6.99206e-65 -0.00970858 0
-9.3729e-65 -0.00970858 0
1.20259e-64 -0.00970858 0
8.31457e-66 -0.00970858 0
-1.24642e-64 -0.00970858 0
-1.45123e-64 -0.00970858 0
-2.25399e-65 -0.00970858 0
1.09581e-65 -0.00970858 0
2.55087e-65 -0.00970858 0
1.34618e-64 -0.00970858 0
SCALARS radius double 1
LOOKUP_TABLE default
0.0005192
0.000759374
0.000731582
0.000932767
0.000864852
0.00092132
0.000824734
0.000662097
0.000535446
0.00094621
0.000999249
0.000802661
0.000671708
0.000819153
0.000645007
0.000827505
0.000602392
0.000772815
0.000550095
0.000626194
0.000886859
0.000531918
0.000790192
0.000909137
0.00096445
SCALARS mass double 1
LOOKUP_TABLE default
0.00228657
0.0048913
0.00453983
0.00738005
0.00634449
0.00720004
0.00576955
0.0037184
0.0024319
0.00759432
0.00846957
0.00546484
0.00382714
0.00569173
0.00352892
0.00580838
0.00307803
0.005066
0.00256678
0.00332607
0.00667148
0.00239995
0.00529637
0.00701087
0.00788992
