# vtk DataFile Version 3.0
DEM2D particles
ASCII
DATASET POLYDATA
POINTS 25 double
0.000210492 0.000215705 0
0.00247694 -0.000183584 0
0.00456711 0.000463743 0
0.00674628 0.000345029 0
0.00933215 0.00126216 0
0.000976388 0.00341633 0
0.00272805 0.00310078 0
0.00430175 0.00263197 0
0.00620408 0.00205465 0
0.00807857 0.00250061 0
0.00194188 0.00435329 0
0.00315848 0.00407237 0
0.00447748 0.00457657 0
0.00666273 0.00564912 0
0.00823043 0.00510164 0
0.0014505 0.00627197 0
0.0023961 0.00738533 0
0.00577483 0.00641041 0
0.00705357 0.00697203 0
0.00819693 0.00667774 0
6.49651e-05 0.00831893 0
0.00285477 0.00967894 0
0.0050706 0.00861172 0
0.00716435 0.00920674 0
0.00986735 0.00875565 0
VERTICES 25 50
1 0
1 1
1 2
1 3
1 4
1 5
1 6
1 7
1 8
1 9
1 10
1 11
1 12
1 13
1 14
1 15
1 16
1 17
1 18
1 19
1 20
1 21
1 22
1 23
1 24
POINT_DATA 25
VECTORS velocity double
-1.4338e-13 -0.00970858 0
-9.49921e-14 -0.00970858 0
-7.86164e-14 -0.00970858 0
-4.60778e-14 -0.00970858 0
6.03205e-14 -0.00970858 0
-4.28818e-15 -0.00970858 0
-4.93889e-14 -0.00970858 0
-1.26808e-13 -0.00970858 0
-1.44544e-13 -0.00970858 0
-1.67339e-13 -0.00970858 0
1.71053e-13 -0.00970858 0
2.87813e-14 -0.00970858 0
-9.48932e-14 -0.00970858 0
-6.12501e-14 -0.00970858 0
-1.3976e-13 -0.00970858 0
8.18141e-14 -0.00970858 0
-1.09672e-13 -0.00970858 0
1.40715e-13 -0.00970858 0
9.72889e-15 -0.00970858 0
-1.45844e-13 -0.00970858 0
-1.69809e-13 -0.00970858 0
-2.6374e-14 -0.00970858 0
1.2822e-14 -0.00970858 0
2.98478e-14 -0.00970858 0
1.57517e-13 -0.00970858 0
SCALARS radius double 1
LOOKUP_TABLE default
0.0005192
0.000759374
0.000731582
0.000932767
0.000864852
0.00092132
0.000824734
0.000662097
0.000535446
0.00094621
0.000999249
0.000802661
0.000671708
0.000819153
0.000645007
0.000827505
0.000602392
0.000772815
0.000550095
0.000626194
0.000886859
0.000531918
0.000790192
0.000909137
0.00096445
SCALARS mass double 1
LOOKUP_TABLE default
0.00228657
0.0048913
0.00453983
0.00738005
0.00634449
0.00720004
0.00576955
0.0037184
0.0024319
0.00759432
0.00846957
0.00546484
0.00382714
0.00569173
0.00352892
0.00580838
0.00307803
0.005066
0.00256678
0.00332607
0.00667148
0.00239995
0.00529637
0.00701087
0.00788992
