# vtk DataFile Version 3.0
DEM2D particles
ASCII
DATASET POLYDATA
POINTS 25 double
0.000210492 -0.000190113 0
0.00247694 -0.000589403 0
0.00456711 5.79245e-05 0
0.00674628 -6.07896e-05 0
0.00933215 0.000856337 0
0.000976388 0.00301051 0
0.00272805 0.00269496 0
0.00430175 0.00222615 0
0.00620408 0.00164883 0
0.00807857 0.00209479 0
0.00194188 0.00394747 0
0.00315848 0.00366655 0
0.00447748 0.00417075 0
0.00666273 0.0052433 0
0.00823043 0.00469582 0
0.0014505 0.00586615 0
0.0023961 0.00697952 0
0.00577483 0.00600459 0
0.00705357 0.00656621 0
0.00819693 0.00627192 0
6.49651e-05 0.00791311 0
0.00285477 0.00927312 0
0.0050706 0.0082059 0
0.00716435 0.00880092 0
0.00986735 0.00834983 0
VERTICES 25 50
1 0
1 1
1 2
1 3
1 4
1 5
1 6
1 7
1 8
1 9
1 10
1 11
1 12
1 13
1 14
1 15
1 16
1 17
1 18
1 19
1 20
1 21
1 22
1 23
1 24
POINT_DATA 25
VECTORS velocity double
-8.15837e-32 -0.00970858 0
-5.40507e-32 -0.00970858 0
-4.47329e-32 -0.00970858 0
-2.62183e-32 -0.00970858 0
3.43225e-32 -0.00970858 0
-2.43998e-33 -0.00970858 0
-2.81024e-32 -0.00970858 0
-7.21537e-32 -0.00970858 0
-8.22458e-32 -0.00970858 0
-9.52161e-32 -0.00970858 0
9.73292e-32 -0.00970858 0
1.63766e-32 -0.00970858 0
-5.39944e-32 -0.00970858 0
-3.48514e-32 -0.00970858 0
-7.95234e-32 -0.00970858 0
4.65524e-32 -0.00970858 0
-6.24038e-32 -0.00970858 0
8.00672e-32 -0.00970858 0
5.53575e-33 -0.00970858 0
-8.29853e-32 -0.00970858 0
-9.66216e-32 -0.00970858 0
-1.50068e-32 -0.00970858 0
7.29576e-33 -0.00970858 0
1.69834e-32 -0.00970858 0
8.96272e-32 -0.00970858 0
SCALARS radius double 1
LOOKUP_TABLE default
0.0005192
0.000759374
0.000731582
0.000932767
0.000864852
0.00092132
0.000824734
0.000662097
0.000535446
0.00094621
0.000999249
0.000802661
0.000671708
0.000819153
0.000645007
0.000827505
0.000602392
0.000772815
0.000550095
0.000626194
0.000886859
0.000531918
0.000790192
0.000909137
0.00096445
SCALARS mass double 1
LOOKUP_TABLE default
0.00228657
0.0048913
0.00453983
0.00738005
0.00634449
0.00720004
0.00576955
0.0037184
0.0024319
0.00759432
0.00846957
0.00546484
0.00382714
0.00569173
0.00352892
0.00580838
0.00307803
0.005066
0.00256678
0.00332607
0.00667148
0.00239995
0.00529637
0.00701087
0.00788992
