# vtk DataFile Version 3.0
DEM2D particles
ASCII
DATASET POLYDATA
POINTS 25 double
0.000210492 -0.00142505 0
0.00247694 -0.00182433 0
0.00456711 -0.00117701 0
0.00674628 -0.00129572 0
0.00933215 -0.000378595 0
0.000976388 0.00177558 0
0.00272805 0.00146003 0
0.00430175 0.000991216 0
0.00620408 0.0004139 0
0.00807857 0.000859862 0
0.00194188 0.00271254 0
0.00315848 0.00243162 0
0.00447748 0.00293582 0
0.00666273 0.00400837 0
0.00823043 0.00346089 0
0.0014505 0.00463122 0
0.0023961 0.00574458 0
0.00577483 0.00476966 0
0.00705357 0.00533128 0
0.00819693 0.00503699 0
6.49651e-05 0.00667818 0
0.00285477 0.00803818 0
0.0050706 0.00697097 0
0.00716435 0.00756599 0
0.00986735 0.0071149 0
VERTICES 25 50
1 0
1 1
1 2
1 3
1 4
1 5
1 6
1 7
1 8
1 9
1 10
1 11
1 12
1 13
1 14
1 15
1 16
1 17
1 18
1 19
1 20
1 21
1 22
1 23
1 24
POINT_DATA 25
VECTORS velocity double
-2.46195e-87 -0.00970858 0
-1.63108e-87 -0.00970858 0
-1.3499e-87 -0.00970858 0
-7.91189e-88 -0.00970858 0
1.03575e-87 -0.00970858 0
-7.36311e-89 -0.00970858 0
-8.48044e-88 -0.00970858 0
-2.17738e-87 -0.00970858 0
-2.48193e-87 -0.00970858 0
-2.87333e-87 -0.00970858 0
2.9371e-87 -0.00970858 0
4.94196e-88 -0.00970858 0
-1.62939e-87 -0.00970858 0
-1.05171e-87 -0.00970858 0
-2.39977e-87 -0.00970858 0
1.40481e-87 -0.00970858 0
-1.88316e-87 -0.00970858 0
2.41618e-87 -0.00970858 0
1.67052e-88 -0.00970858 0
-2.50424e-87 -0.00970858 0
-2.91575e-87 -0.00970858 0
-4.5286e-88 -0.00970858 0
2.20164e-88 -0.00970858 0
5.12508e-88 -0.00970858 0
2.70467e-87 -0.00970858 0
SCALARS radius double 1
LOOKUP_TABLE default
0.0005192
0.000759374
0.000731582
0.000932767
0.000864852
0.00092132
0.000824734
0.000662097
0.000535446
0.00094621
0.000999249
0.000802661
0.000671708
0.000819153
0.000645007
0.000827505
0.000602392
0.000772815
0.000550095
0.000626194
0.000886859
0.000531918
0.000790192
0.000909137
0.00096445
SCALARS mass double 1
LOOKUP_TABLE default
0.00228657
0.0048913
0.00453983
0.00738005
0.00634449
0.00720004
0.00576955
0.0037184
0.0024319
0.00759432
0.00846957
0.00546484
0.00382714
0.00569173
0.00352892
0.00580838
0.00307803
0.005066
0.00256678
0.00332607
0.00667148
0.00239995
0.00529637
0.00701087
0.00788992
