# vtk DataFile Version 3.0
DEM2D particles
ASCII
DATASET POLYDATA
POINTS 25 double
0.000210492 -0.00121534 0
0.00247694 -0.00161463 0
0.00456711 -0.000967302 0
0.00674628 -0.00108602 0
0.00933215 -0.00016889 0
0.000976388 0.00198529 0
0.00272805 0.00166973 0
0.00430175 0.00120092 0
0.00620408 0.000623606 0
0.00807857 0.00106957 0
0.00194188 0.00292225 0
0.00315848 0.00264132 0
0.00447748 0.00314552 0
0.00666273 0.00421808 0
0.00823043 0.0036706 0
0.0014505 0.00484092 0
0.0023961 0.00595429 0
0.00577483 0.00497937 0
0.00705357 0.00554098 0
0.00819693 0.00524669 0
6.49651e-05 0.00688789 0
0.00285477 0.00824789 0
0.0050706 0.00718068 0
0.00716435 0.00777569 0
0.00986735 0.0073246 0
VERTICES 25 50
1 0
1 1
1 2
1 3
1 4
1 5
1 6
1 7
1 8
1 9
1 10
1 11
1 12
1 13
1 14
1 15
1 16
1 17
1 18
1 19
1 20
1 21
1 22
1 23
1 24
POINT_DATA 25
VECTORS velocity double
-6.59566e-78 -0.00970858 0
-4.36974e-78 -0.00970858 0
-3.61644e-78 -0.00970858 0
-2.11963e-78 -0.00970858 0
2.77481e-78 -0.00970858 0
-1.97261e-79 -0.00970858 0
-2.27195e-78 -0.00970858 0
-5.83329e-78 -0.00970858 0
-6.64919e-78 -0.00970858 0
-7.69778e-78 -0.00970858 0
7.86861e-78 -0.00970858 0
1.32397e-78 -0.00970858 0
-4.36519e-78 -0.00970858 0
-2.81757e-78 -0.00970858 0
-6.42909e-78 -0.00970858 0
3.76354e-78 -0.00970858 0
-5.04505e-78 -0.00970858 0
6.47306e-78 -0.00970858 0
4.4754e-79 -0.00970858 0
-6.70897e-78 -0.00970858 0
-7.81141e-78 -0.00970858 0
-1.21323e-78 -0.00970858 0
5.89828e-79 -0.00970858 0
1.37303e-78 -0.00970858 0
7.24594e-78 -0.00970858 0
SCALARS radius double 1
LOOKUP_TABLE default
0.0005192
0.000759374
0.000731582
0.000932767
0.000864852
0.00092132
0.000824734
0.000662097
0.000535446
0.00094621
0.000999249
0.000802661
0.000671708
0.000819153
0.000645007
0.000827505
0.000602392
0.000772815
0.000550095
0.000626194
0.000886859
0.000531918
0.000790192
0.000909137
0.00096445
SCALARS mass double 1
LOOKUP_TABLE default
0.00228657
0.0048913
0.00453983
0.00738005
0.00634449
0.00720004
0.00576955
0.0037184
0.0024319
0.00759432
0.00846957
0.00546484
0.00382714
0.00569173
0.00352892
0.00580838
0.00307803
0.005066
0.00256678
0.00332607
0.00667148
0.00239995
0.00529637
0.00701087
0.00788992
