# vtk DataFile Version 3.0
DEM2D particles
ASCII
DATASET POLYDATA
POINTS 25 double
0.000210492 -0.000891073 0
0.00247694 -0.00129036 0
0.00456711 -0.000643035 0
0.00674628 -0.000761749 0
0.00933215 0.000155377 0
0.000976388 0.00230955 0
0.00272805 0.001994 0
0.00430175 0.00152519 0
0.00620408 0.000947872 0
0.00807857 0.00139383 0
0.00194188 0.00324651 0
0.00315848 0.00296559 0
0.00447748 0.00346979 0
0.00666273 0.00454234 0
0.00823043 0.00399486 0
0.0014505 0.00516519 0
0.0023961 0.00627856 0
0.00577483 0.00530364 0
0.00705357 0.00586525 0
0.00819693 0.00557096 0
6.49651e-05 0.00721215 0
0.00285477 0.00857216 0
0.0050706 0.00750495 0
0.00716435 0.00809996 0
0.00986735 0.00764887 0
VERTICES 25 50
1 0
1 1
1 2
1 3
1 4
1 5
1 6
1 7
1 8
1 9
1 10
1 11
1 12
1 13
1 14
1 15
1 16
1 17
1 18
1 19
1 20
1 21
1 22
1 23
1 24
POINT_DATA 25
VECTORS velocity double
-2.49867e-63 -0.00970858 0
-1.65541e-63 -0.00970858 0
-1.37004e-63 -0.00970858 0
-8.0299e-64 -0.00970858 0
1.0512e-63 -0.00970858 0
-7.47293e-65 -0.00970858 0
-8.60693e-64 -0.00970858 0
-2.20985e-63 -0.00970858 0
-2.51895e-63 -0.00970858 0
-2.91619e-63 -0.00970858 0
2.98091e-63 -0.00970858 0
5.01567e-64 -0.00970858 0
-1.65369e-63 -0.00970858 0
-1.0674e-63 -0.00970858 0
-2.43557e-63 -0.00970858 0
1.42576e-63 -0.00970858 0
-1.91124e-63 -0.00970858 0
2.45222e-63 -0.00970858 0
1.69544e-64 -0.00970858 0
-2.54159e-63 -0.00970858 0
-2.95923e-63 -0.00970858 0
-4.59615e-64 -0.00970858 0
2.23447e-64 -0.00970858 0
5.20152e-64 -0.00970858 0
2.74502e-63 -0.00970858 0
SCALARS radius double 1
LOOKUP_TABLE default
0.0005192
0.000759374
0.000731582
0.000932767
0.000864852
0.00092132
0.000824734
0.000662097
0.000535446
0.00094621
0.000999249
0.000802661
0.000671708
0.000819153
0.000645007
0.000827505
0.000602392
0.000772815
0.000550095
0.000626194
0.000886859
0.000531918
0.000790192
0.000909137
0.00096445
SCALARS mass double 1
LOOKUP_TABLE default
0.00228657
0.0048913
0.00453983
0.00738005
0.00634449
0.00720004
0.00576955
0.0037184
0.0024319
0.00759432
0.00846957
0.00546484
0.00382714
0.00569173
0.00352892
0.00580838
0.00307803
0.005066
0.00256678
0.00332607
0.00667148
0.00239995
0.00529637
0.00701087
0.00788992
