# vtk DataFile Version 3.0
DEM2D particles
ASCII
DATASET POLYDATA
POINTS 25 double
0.000210492 -5.03098e-05 0
0.00247694 -0.000449599 0
0.00456711 0.000197728 0
0.00674628 7.9014e-05 0
0.00933215 0.00099614 0
0.000976388 0.00315032 0
0.00272805 0.00283476 0
0.00430175 0.00236595 0
0.00620408 0.00178864 0
0.00807857 0.0022346 0
0.00194188 0.00408728 0
0.00315848 0.00380635 0
0.00447748 0.00431055 0
0.00666273 0.00538311 0
0.00823043 0.00483563 0
0.0014505 0.00600595 0
0.0023961 0.00711932 0
0.00577483 0.0061444 0
0.00705357 0.00670601 0
0.00819693 0.00641172 0
6.49651e-05 0.00805292 0
0.00285477 0.00941292 0
0.0050706 0.00834571 0
0.00716435 0.00894072 0
0.00986735 0.00848963 0
VERTICES 25 50
1 0
1 1
1 2
1 3
1 4
1 5
1 6
1 7
1 8
1 9
1 10
1 11
1 12
1 13
1 14
1 15
1 16
1 17
1 18
1 19
1 20
1 21
1 22
1 23
1 24
POINT_DATA 25
VECTORS velocity double
-1.5737e-25 -0.00970858 0
-1.04261e-25 -0.00970858 0
-8.62872e-26 -0.00970858 0
-5.05737e-26 -0.00970858 0
6.62061e-26 -0.00970858 0
-4.70658e-27 -0.00970858 0
-5.42079e-26 -0.00970858 0
-1.3918e-25 -0.00970858 0
-1.58648e-25 -0.00970858 0
-1.83667e-25 -0.00970858 0
1.87743e-25 -0.00970858 0
3.15896e-26 -0.00970858 0
-1.04152e-25 -0.00970858 0
-6.72264e-26 -0.00970858 0
-1.53396e-25 -0.00970858 0
8.97969e-26 -0.00970858 0
-1.20373e-25 -0.00970858 0
1.54445e-25 -0.00970858 0
1.06782e-26 -0.00970858 0
-1.60074e-25 -0.00970858 0
-1.86378e-25 -0.00970858 0
-2.89473e-26 -0.00970858 0
1.40731e-26 -0.00970858 0
3.27601e-26 -0.00970858 0
1.72886e-25 -0.00970858 0
SCALARS radius double 1
LOOKUP_TABLE default
0.0005192
0.000759374
0.000731582
0.000932767
0.000864852
0.00092132
0.000824734
0.000662097
0.000535446
0.00094621
0.000999249
0.000802661
0.000671708
0.000819153
0.000645007
0.000827505
0.000602392
0.000772815
0.000550095
0.000626194
0.000886859
0.000531918
0.000790192
0.000909137
0.00096445
SCALARS mass double 1
LOOKUP_TABLE default
0.00228657
0.0048913
0.00453983
0.00738005
0.00634449
0.00720004
0.00576955
0.0037184
0.0024319
0.00759432
0.00846957
0.00546484
0.00382714
0.00569173
0.00352892
0.00580838
0.00307803
0.005066
0.00256678
0.00332607
0.00667148
0.00239995
0.00529637
0.00701087
0.00788992
