# vtk DataFile Version 3.0
DEM2D particles
ASCII
DATASET POLYDATA
POINTS 25 double
0.000210492 -0.00043477 0
0.00247694 -0.000834059 0
0.00456711 -0.000186732 0
0.00674628 -0.000305446 0
0.00933215 0.000611681 0
0.000976388 0.00276586 0
0.00272805 0.0024503 0
0.00430175 0.00198149 0
0.00620408 0.00140418 0
0.00807857 0.00185014 0
0.00194188 0.00370282 0
0.00315848 0.00342189 0
0.00447748 0.00392609 0
0.00666273 0.00499865 0
0.00823043 0.00445117 0
0.0014505 0.00562149 0
0.0023961 0.00673486 0
0.00577483 0.00575994 0
0.00705357 0.00632155 0
0.00819693 0.00602726 0
6.49651e-05 0.00766846 0
0.00285477 0.00902846 0
0.0050706 0.00796125 0
0.00716435 0.00855626 0
0.00986735 0.00810517 0
VERTICES 25 50
1 0
1 1
1 2
1 3
1 4
1 5
1 6
1 7
1 8
1 9
1 10
1 11
1 12
1 13
1 14
1 15
1 16
1 17
1 18
1 19
1 20
1 21
1 22
1 23
1 24
POINT_DATA 25
VECTORS velocity double
-8.17135e-43 -0.00970858 0
-5.41366e-43 -0.00970858 0
-4.4804e-43 -0.00970858 0
-2.626e-43 -0.00970858 0
3.43771e-43 -0.00970858 0
-2.44386e-44 -0.00970858 0
-2.81471e-43 -0.00970858 0
-7.22685e-43 -0.00970858 0
-8.23766e-43 -0.00970858 0
-9.53676e-43 -0.00970858 0
9.7484e-43 -0.00970858 0
1.64027e-43 -0.00970858 0
-5.40803e-43 -0.00970858 0
-3.49069e-43 -0.00970858 0
-7.96499e-43 -0.00970858 0
4.66264e-43 -0.00970858 0
-6.2503e-43 -0.00970858 0
8.01946e-43 -0.00970858 0
5.54456e-44 -0.00970858 0
-8.31173e-43 -0.00970858 0
-9.67753e-43 -0.00970858 0
-1.50307e-43 -0.00970858 0
7.30736e-44 -0.00970858 0
1.70104e-43 -0.00970858 0
8.97698e-43 -0.00970858 0
SCALARS radius double 1
LOOKUP_TABLE default
0.0005192
0.000759374
0.000731582
0.000932767
0.000864852
0.00092132
0.000824734
0.000662097
0.000535446
0.00094621
0.000999249
0.000802661
0.000671708
0.000819153
0.000645007
0.000827505
0.000602392
0.000772815
0.000550095
0.000626194
0.000886859
0.000531918
0.000790192
0.000909137
0.00096445
SCALARS mass double 1
LOOKUP_TABLE default
0.00228657
0.0048913
0.00453983
0.00738005
0.00634449
0.00720004
0.00576955
0.0037184
0.0024319
0.00759432
0.00846957
0.00546484
0.00382714
0.00569173
0.00352892
0.00580838
0.00307803
0.005066
0.00256678
0.00332607
0.00667148
0.00239995
0.00529637
0.00701087
0.00788992
