# vtk DataFile Version 3.0
DEM2D particles
ASCII
DATASET POLYDATA
POINTS 25 double
0.000210492 -0.00108913 0
0.00247694 -0.00148842 0
0.00456711 -0.00084109 0
0.00674628 -0.000959804 0
0.00933215 -4.2678e-05 0
0.000976388 0.0021115 0
0.00272805 0.00179594 0
0.00430175 0.00132713 0
0.00620408 0.000749817 0
0.00807857 0.00119578 0
0.00194188 0.00304846 0
0.00315848 0.00276753 0
0.00447748 0.00327174 0
0.00666273 0.00434429 0
0.00823043 0.00379681 0
0.0014505 0.00496713 0
0.0023961 0.0060805 0
0.00577483 0.00510558 0
0.00705357 0.00566719 0
0.00819693 0.00537291 0
6.49651e-05 0.0070141 0
0.00285477 0.0083741 0
0.0050706 0.00730689 0
0.00716435 0.0079019 0
0.00986735 0.00745081 0
VERTICES 25 50
1 0
1 1
1 2
1 3
1 4
1 5
1 6
1 7
1 8
1 9
1 10
1 11
1 12
1 13
1 14
1 15
1 16
1 17
1 18
1 19
1 20
1 21
1 22
1 23
1 24
POINT_DATA 25
VECTORS velocity double
-3.11534e-72 -0.00970858 0
-2.06397e-72 -0.00970858 0
-1.70816e-72 -0.00970858 0
-1.00117e-72 -0.00970858 0
1.31063e-72 -0.00970858 0
-9.31725e-74 -0.00970858 0
-1.07311e-72 -0.00970858 0
-2.75525e-72 -0.00970858 0
-3.14062e-72 -0.00970858 0
-3.6359e-72 -0.00970858 0
3.71659e-72 -0.00970858 0
6.25354e-73 -0.00970858 0
-2.06182e-72 -0.00970858 0
-1.33083e-72 -0.00970858 0
-3.03666e-72 -0.00970858 0
1.77764e-72 -0.00970858 0
-2.38294e-72 -0.00970858 0
3.05743e-72 -0.00970858 0
2.11387e-73 -0.00970858 0
-3.16886e-72 -0.00970858 0
-3.68957e-72 -0.00970858 0
-5.73048e-73 -0.00970858 0
2.78594e-73 -0.00970858 0
6.48526e-73 -0.00970858 0
3.42249e-72 -0.00970858 0
SCALARS radius double 1
LOOKUP_TABLE default
0.0005192
0.000759374
0.000731582
0.000932767
0.000864852
0.00092132
0.000824734
0.000662097
0.000535446
0.00094621
0.000999249
0.000802661
0.000671708
0.000819153
0.000645007
0.000827505
0.000602392
0.000772815
0.000550095
0.000626194
0.000886859
0.000531918
0.000790192
0.000909137
0.00096445
SCALARS mass double 1
LOOKUP_TABLE default
0.00228657
0.0048913
0.00453983
0.00738005
0.00634449
0.00720004
0.00576955
0.0037184
0.0024319
0.00759432
0.00846957
0.00546484
0.00382714
0.00569173
0.00352892
0.00580838
0.00307803
0.005066
0.00256678
0.00332607
0.00667148
0.00239995
0.00529637
0.00701087
0.00788992
