# vtk DataFile Version 3.0
DEM2D particles
ASCII
DATASET POLYDATA
POINTS 25 double
0.00021333 0.000446628 0
0.00247882 4.87747e-05 0
0.00456866 0.000693775 0
0.00674719 0.000575487 0
0.00933095 0.00148932 0
0.000976473 0.00364294 0
0.00272902 0.00332852 0
0.00430426 0.00286139 0
0.00620695 0.00228615 0
0.00808188 0.00273051 0
0.0019385 0.00458372 0
0.00315791 0.00430381 0
0.00447936 0.0048062 0
0.00666395 0.00587489 0
0.0082332 0.00532938 0
0.00144888 0.00650269 0
0.00239827 0.00761205 0
0.00577205 0.00664064 0
0.00705338 0.00720023 0
0.00819981 0.006907 0
6.83266e-05 0.00854948 0
0.0028553 0.0099046 0
0.00507035 0.00884122 0
0.00716376 0.0094341 0
0.00986423 0.00898463 0
VERTICES 25 50
1 0
1 1
1 2
1 3
1 4
1 5
1 6
1 7
1 8
1 9
1 10
1 11
1 12
1 13
1 14
1 15
1 16
1 17
1 18
1 19
1 20
1 21
1 22
1 23
1 24
POINT_DATA 25
VECTORS velocity double
-0.00286702 -0.0115272 0
-0.00189945 -0.0129772 0
-0.00157201 -0.0106265 0
-0.000921366 -0.0110576 0
0.00120616 -0.00772713 0
-8.57459e-05 -0.00716726 0
-0.000987576 -0.00831315 0
-0.00253563 -0.0100156 0
-0.00289029 -0.0121121 0
-0.00334609 -0.0104926 0
0.00342035 -0.0110276 0
0.000575508 -0.0120477 0
-0.00189747 -0.0102168 0
-0.00122475 -0.0063219 0
-0.00279462 -0.00831002 0
0.00163595 -0.0113229 0
-0.002193 -0.00727981 0
0.00281373 -0.0108201 0
0.000194538 -0.0087807 0
-0.00291628 -0.00984937 0
-0.00339548 -0.0111524 0
-0.000527371 -0.00621363 0
0.000256388 -0.0100891 0
0.000596833 -0.00792837 0
0.00314968 -0.00956646 0
SCALARS radius double 1
LOOKUP_TABLE default
0.0005192
0.000759374
0.000731582
0.000932767
0.000864852
0.00092132
0.000824734
0.000662097
0.000535446
0.00094621
0.000999249
0.000802661
0.000671708
0.000819153
0.000645007
0.000827505
0.000602392
0.000772815
0.000550095
0.000626194
0.000886859
0.000531918
0.000790192
0.000909137
0.00096445
SCALARS mass double 1
LOOKUP_TABLE default
0.00228657
0.0048913
0.00453983
0.00738005
0.00634449
0.00720004
0.00576955
0.0037184
0.0024319
0.00759432
0.00846957
0.00546484
0.00382714
0.00569173
0.00352892
0.00580838
0.00307803
0.005066
0.00256678
0.00332607
0.00667148
0.00239995
0.00529637
0.00701087
0.00788992
