# vtk DataFile Version 3.0
DEM2D particles
ASCII
DATASET POLYDATA
POINTS 25 double
0.000210492 -0.000425061 0
0.00247694 -0.00082435 0
0.00456711 -0.000177023 0
0.00674628 -0.000295737 0
0.00933215 0.000621389 0
0.000976388 0.00277556 0
0.00272805 0.00246001 0
0.00430175 0.0019912 0
0.00620408 0.00141388 0
0.00807857 0.00185985 0
0.00194188 0.00371253 0
0.00315848 0.0034316 0
0.00447748 0.0039358 0
0.00666273 0.00500836 0
0.00823043 0.00446088 0
0.0014505 0.0056312 0
0.0023961 0.00674457 0
0.00577483 0.00576965 0
0.00705357 0.00633126 0
0.00819693 0.00603697 0
6.49651e-05 0.00767816 0
0.00285477 0.00903817 0
0.0050706 0.00797096 0
0.00716435 0.00856597 0
0.00986735 0.00811488 0
VERTICES 25 50
1 0
1 1
1 2
1 3
1 4
1 5
1 6
1 7
1 8
1 9
1 10
1 11
1 12
1 13
1 14
1 15
1 16
1 17
1 18
1 19
1 20
1 21
1 22
1 23
1 24
POINT_DATA 25
VECTORS velocity double
-2.23241e-42 -0.00970858 0
-1.47901e-42 -0.00970858 0
-1.22405e-42 -0.00970858 0
-7.17424e-43 -0.00970858 0
9.39181e-43 -0.00970858 0
-6.67662e-44 -0.00970858 0
-7.68978e-43 -0.00970858 0
-1.97437e-42 -0.00970858 0
-2.25053e-42 -0.00970858 0
-2.60544e-42 -0.00970858 0
2.66326e-42 -0.00970858 0
4.4812e-43 -0.00970858 0
-1.47747e-42 -0.00970858 0
-9.53655e-43 -0.00970858 0
-2.17603e-42 -0.00970858 0
1.27383e-42 -0.00970858 0
-1.70758e-42 -0.00970858 0
2.19092e-42 -0.00970858 0
1.51477e-43 -0.00970858 0
-2.27076e-42 -0.00970858 0
-2.6439e-42 -0.00970858 0
-4.10639e-43 -0.00970858 0
1.99637e-43 -0.00970858 0
4.64725e-43 -0.00970858 0
2.45251e-42 -0.00970858 0
SCALARS radius double 1
LOOKUP_TABLE default
0.0005192
0.000759374
0.000731582
0.000932767
0.000864852
0.00092132
0.000824734
0.000662097
0.000535446
0.00094621
0.000999249
0.000802661
0.000671708
0.000819153
0.000645007
0.000827505
0.000602392
0.000772815
0.000550095
0.000626194
0.000886859
0.000531918
0.000790192
0.000909137
0.00096445
SCALARS mass double 1
LOOKUP_TABLE default
0.00228657
0.0048913
0.00453983
0.00738005
0.00634449
0.00720004
0.00576955
0.0037184
0.0024319
0.00759432
0.00846957
0.00546484
0.00382714
0.00569173
0.00352892
0.00580838
0.00307803
0.005066
0.00256678
0.00332607
0.00667148
0.00239995
0.00529637
0.00701087
0.00788992
