# vtk DataFile Version 3.0
DEM2D particles
ASCII
DATASET POLYDATA
POINTS 25 double
0.000210492 0.00027784 0
0.00247694 -0.000121449 0
0.00456711 0.000525878 0
0.00674628 0.000407164 0
0.00933215 0.00132429 0
0.000976388 0.00347847 0
0.00272805 0.00316291 0
0.00430175 0.0026941 0
0.00620408 0.00211679 0
0.00807857 0.00256275 0
0.00194188 0.00441543 0
0.00315848 0.0041345 0
0.00447748 0.0046387 0
0.00666273 0.00571126 0
0.00823043 0.00516378 0
0.0014505 0.0063341 0
0.0023961 0.00744747 0
0.00577483 0.00647255 0
0.00705357 0.00703416 0
0.00819693 0.00673987 0
6.49651e-05 0.00838107 0
0.00285477 0.00974107 0
0.0050706 0.00867386 0
0.00716435 0.00926887 0
0.00986735 0.00881778 0
VERTICES 25 50
1 0
1 1
1 2
1 3
1 4
1 5
1 6
1 7
1 8
1 9
1 10
1 11
1 12
1 13
1 14
1 15
1 16
1 17
1 18
1 19
1 20
1 21
1 22
1 23
1 24
POINT_DATA 25
VECTORS velocity double
-8.9118e-11 -0.00970858 0
-5.90423e-11 -0.00970858 0
-4.8864e-11 -0.00970858 0
-2.86396e-11 -0.00970858 0
3.74922e-11 -0.00970858 0
-2.66531e-12 -0.00970858 0
-3.06976e-11 -0.00970858 0
-7.88171e-11 -0.00970858 0
-8.98412e-11 -0.00970858 0
-1.04009e-10 -0.00970858 0
1.06318e-10 -0.00970858 0
1.7889e-11 -0.00970858 0
-5.89808e-11 -0.00970858 0
-3.807e-11 -0.00970858 0
-8.68674e-11 -0.00970858 0
5.08515e-11 -0.00970858 0
-6.81668e-11 -0.00970858 0
8.74615e-11 -0.00970858 0
6.04698e-12 -0.00970858 0
-9.0649e-11 -0.00970858 0
-1.05545e-10 -0.00970858 0
-1.63927e-11 -0.00970858 0
7.96952e-12 -0.00970858 0
1.85518e-11 -0.00970858 0
9.79043e-11 -0.00970858 0
SCALARS radius double 1
LOOKUP_TABLE default
0.0005192
0.000759374
0.000731582
0.000932767
0.000864852
0.00092132
0.000824734
0.000662097
0.000535446
0.00094621
0.000999249
0.000802661
0.000671708
0.000819153
0.000645007
0.000827505
0.000602392
0.000772815
0.000550095
0.000626194
0.000886859
0.000531918
0.000790192
0.000909137
0.00096445
SCALARS mass double 1
LOOKUP_TABLE default
0.00228657
0.0048913
0.00453983
0.00738005
0.00634449
0.00720004
0.00576955
0.0037184
0.0024319
0.00759432
0.00846957
0.00546484
0.00382714
0.00569173
0.00352892
0.00580838
0.00307803
0.005066
0.00256678
0.00332607
0.00667148
0.00239995
0.00529637
0.00701087
0.00788992
