# vtk DataFile Version 3.0
DEM2D particles
ASCII
DATASET POLYDATA
POINTS 25 double
0.000210957 0.000427647 0
0.00247724 2.85934e-05 0
0.00456736 0.000675539 0
0.00674643 0.000556895 0
0.00933195 0.00147348 0
0.000976402 0.00362757 0
0.00272821 0.0033122 0
0.00430216 0.00284366 0
0.00620455 0.00226669 0
0.00807911 0.00271239 0
0.00194133 0.00456515 0
0.00315839 0.00428439 0
0.00447779 0.0047883 0
0.00666293 0.00586022 0
0.00823088 0.00531306 0
0.00145024 0.00648387 0
0.00239646 0.00759659 0
0.00577438 0.00662224 0
0.00705354 0.00718352 0
0.0081974 0.00688941 0
6.55157e-05 0.00853081 0
0.00285486 0.00989002 0
0.00507056 0.00882343 0
0.00716426 0.0094181 0
0.00986684 0.00896727 0
VERTICES 25 50
1 0
1 1
1 2
1 3
1 4
1 5
1 6
1 7
1 8
1 9
1 10
1 11
1 12
1 13
1 14
1 15
1 16
1 17
1 18
1 19
1 20
1 21
1 22
1 23
1 24
POINT_DATA 25
VECTORS velocity double
-0.000469641 -0.0100065 0
-0.000311145 -0.010244 0
-0.000257507 -0.00985894 0
-0.000150927 -0.00992956 0
0.000197579 -0.009384 0
-1.40459e-05 -0.00929229 0
-0.000161773 -0.00948 0
-0.000415356 -0.00975887 0
-0.000473452 -0.0101023 0
-0.000548116 -0.00983701 0
0.00056028 -0.00992464 0
9.42728e-05 -0.0100918 0
-0.000310821 -0.00979183 0
-0.000200624 -0.00915382 0
-0.00045778 -0.00947949 0
0.000267981 -0.00997302 0
-0.00035923 -0.00931073 0
0.000460911 -0.00989067 0
3.18668e-05 -0.00955659 0
-0.000477709 -0.00973165 0
-0.000556207 -0.00994508 0
-8.63876e-05 -0.00913608 0
4.19984e-05 -0.00977092 0
9.77659e-05 -0.00941697 0
0.000515943 -0.0096853 0
SCALARS radius double 1
LOOKUP_TABLE default
0.0005192
0.000759374
0.000731582
0.000932767
0.000864852
0.00092132
0.000824734
0.000662097
0.000535446
0.00094621
0.000999249
0.000802661
0.000671708
0.000819153
0.000645007
0.000827505
0.000602392
0.000772815
0.000550095
0.000626194
0.000886859
0.000531918
0.000790192
0.000909137
0.00096445
SCALARS mass double 1
LOOKUP_TABLE default
0.00228657
0.0048913
0.00453983
0.00738005
0.00634449
0.00720004
0.00576955
0.0037184
0.0024319
0.00759432
0.00846957
0.00546484
0.00382714
0.00569173
0.00352892
0.00580838
0.00307803
0.005066
0.00256678
0.00332607
0.00667148
0.00239995
0.00529637
0.00701087
0.00788992
