# vtk DataFile Version 3.0
DEM2D particles
ASCII
DATASET POLYDATA
POINTS 25 double
0.000210492 -0.000755153 0
0.00247694 -0.00115444 0
0.00456711 -0.000507115 0
0.00674628 -0.000625829 0
0.00933215 0.000291297 0
0.000976388 0.00244547 0
0.00272805 0.00212992 0
0.00430175 0.00166111 0
0.00620408 0.00108379 0
0.00807857 0.00152975 0
0.00194188 0.00338243 0
0.00315848 0.00310151 0
0.00447748 0.00360571 0
0.00666273 0.00467826 0
0.00823043 0.00413078 0
0.0014505 0.00530111 0
0.0023961 0.00641448 0
0.00577483 0.00543956 0
0.00705357 0.00600117 0
0.00819693 0.00570688 0
6.49651e-05 0.00734807 0
0.00285477 0.00870808 0
0.0050706 0.00764087 0
0.00716435 0.00823588 0
0.00986735 0.00778479 0
VERTICES 25 50
1 0
1 1
1 2
1 3
1 4
1 5
1 6
1 7
1 8
1 9
1 10
1 11
1 12
1 13
1 14
1 15
1 16
1 17
1 18
1 19
1 20
1 21
1 22
1 23
1 24
POINT_DATA 25
VECTORS velocity double
-3.2243e-57 -0.00970858 0
-2.13616e-57 -0.00970858 0
-1.76791e-57 -0.00970858 0
-1.03619e-57 -0.00970858 0
1.35647e-57 -0.00970858 0
-9.64314e-59 -0.00970858 0
-1.11065e-57 -0.00970858 0
-2.85162e-57 -0.00970858 0
-3.25047e-57 -0.00970858 0
-3.76308e-57 -0.00970858 0
3.84659e-57 -0.00970858 0
6.47227e-58 -0.00970858 0
-2.13393e-57 -0.00970858 0
-1.37738e-57 -0.00970858 0
-3.14288e-57 -0.00970858 0
1.83982e-57 -0.00970858 0
-2.46629e-57 -0.00970858 0
3.16437e-57 -0.00970858 0
2.18781e-58 -0.00970858 0
-3.2797e-57 -0.00970858 0
-3.81862e-57 -0.00970858 0
-5.93091e-58 -0.00970858 0
2.88339e-58 -0.00970858 0
6.71209e-58 -0.00970858 0
3.54219e-57 -0.00970858 0
SCALARS radius double 1
LOOKUP_TABLE default
0.0005192
0.000759374
0.000731582
0.000932767
0.000864852
0.00092132
0.000824734
0.000662097
0.000535446
0.00094621
0.000999249
0.000802661
0.000671708
0.000819153
0.000645007
0.000827505
0.000602392
0.000772815
0.000550095
0.000626194
0.000886859
0.000531918
0.000790192
0.000909137
0.00096445
SCALARS mass double 1
LOOKUP_TABLE default
0.00228657
0.0048913
0.00453983
0.00738005
0.00634449
0.00720004
0.00576955
0.0037184
0.0024319
0.00759432
0.00846957
0.00546484
0.00382714
0.00569173
0.00352892
0.00580838
0.00307803
0.005066
0.00256678
0.00332607
0.00667148
0.00239995
0.00529637
0.00701087
0.00788992
