# vtk DataFile Version 3.0
DEM2D particles
ASCII
DATASET POLYDATA
POINTS 25 double
0.000210492 -0.000627 0
0.00247694 -0.00102629 0
0.00456711 -0.000378962 0
0.00674628 -0.000497676 0
0.00933215 0.000419451 0
0.000976388 0.00257363 0
0.00272805 0.00225807 0
0.00430175 0.00178926 0
0.00620408 0.00121195 0
0.00807857 0.00165791 0
0.00194188 0.00351059 0
0.00315848 0.00322966 0
0.00447748 0.00373386 0
0.00666273 0.00480642 0
0.00823043 0.00425894 0
0.0014505 0.00542926 0
0.0023961 0.00654263 0
0.00577483 0.00556771 0
0.00705357 0.00612932 0
0.00819693 0.00583503 0
6.49651e-05 0.00747623 0
0.00285477 0.00883623 0
0.0050706 0.00776902 0
0.00716435 0.00836403 0
0.00986735 0.00791294 0
VERTICES 25 50
1 0
1 1
1 2
1 3
1 4
1 5
1 6
1 7
1 8
1 9
1 10
1 11
1 12
1 13
1 14
1 15
1 16
1 17
1 18
1 19
1 20
1 21
1 22
1 23
1 24
POINT_DATA 25
VECTORS velocity double
-1.862e-51 -0.00970858 0
-1.23361e-51 -0.00970858 0
-1.02095e-51 -0.00970858 0
-5.98385e-52 -0.00970858 0
7.83347e-52 -0.00970858 0
-5.5688e-53 -0.00970858 0
-6.41385e-52 -0.00970858 0
-1.64677e-51 -0.00970858 0
-1.87711e-51 -0.00970858 0
-2.17313e-51 -0.00970858 0
2.22136e-51 -0.00970858 0
3.73766e-52 -0.00970858 0
-1.23232e-51 -0.00970858 0
-7.95419e-52 -0.00970858 0
-1.81497e-51 -0.00970858 0
1.06247e-51 -0.00970858 0
-1.42425e-51 -0.00970858 0
1.82739e-51 -0.00970858 0
1.26343e-52 -0.00970858 0
-1.89399e-51 -0.00970858 0
-2.20521e-51 -0.00970858 0
-3.42503e-52 -0.00970858 0
1.66512e-52 -0.00970858 0
3.87615e-52 -0.00970858 0
2.04558e-51 -0.00970858 0
SCALARS radius double 1
LOOKUP_TABLE default
0.0005192
0.000759374
0.000731582
0.000932767
0.000864852
0.00092132
0.000824734
0.000662097
0.000535446
0.00094621
0.000999249
0.000802661
0.000671708
0.000819153
0.000645007
0.000827505
0.000602392
0.000772815
0.000550095
0.000626194
0.000886859
0.000531918
0.000790192
0.000909137
0.00096445
SCALARS mass double 1
LOOKUP_TABLE default
0.00228657
0.0048913
0.00453983
0.00738005
0.00634449
0.00720004
0.00576955
0.0037184
0.0024319
0.00759432
0.00846957
0.00546484
0.00382714
0.00569173
0.00352892
0.00580838
0.00307803
0.005066
0.00256678
0.00332607
0.00667148
0.00239995
0.00529637
0.00701087
0.00788992
