# vtk DataFile Version 3.0
DEM2D particles
ASCII
DATASET POLYDATA
POINTS 25 double
0.000210492 -0.000609524 0
0.00247694 -0.00100881 0
0.00456711 -0.000361486 0
0.00674628 -0.0004802 0
0.00933215 0.000436926 0
0.000976388 0.0025911 0
0.00272805 0.00227555 0
0.00430175 0.00180674 0
0.00620408 0.00122942 0
0.00807857 0.00167538 0
0.00194188 0.00352806 0
0.00315848 0.00324714 0
0.00447748 0.00375134 0
0.00666273 0.00482389 0
0.00823043 0.00427641 0
0.0014505 0.00544674 0
0.0023961 0.0065601 0
0.00577483 0.00558518 0
0.00705357 0.0061468 0
0.00819693 0.00585251 0
6.49651e-05 0.0074937 0
0.00285477 0.00885371 0
0.0050706 0.00778649 0
0.00716435 0.00838151 0
0.00986735 0.00793042 0
VERTICES 25 50
1 0
1 1
1 2
1 3
1 4
1 5
1 6
1 7
1 8
1 9
1 10
1 11
1 12
1 13
1 14
1 15
1 16
1 17
1 18
1 19
1 20
1 21
1 22
1 23
1 24
POINT_DATA 25
VECTORS velocity double
-1.13669e-50 -0.00970858 0
-7.53081e-51 -0.00970858 0
-6.23257e-51 -0.00970858 0
-3.65297e-51 -0.00970858 0
4.78211e-51 -0.00970858 0
-3.39959e-52 -0.00970858 0
-3.91547e-51 -0.00970858 0
-1.00531e-50 -0.00970858 0
-1.14592e-50 -0.00970858 0
-1.32663e-50 -0.00970858 0
1.35608e-50 -0.00970858 0
2.28173e-51 -0.00970858 0
-7.52297e-51 -0.00970858 0
-4.8558e-51 -0.00970858 0
-1.10799e-50 -0.00970858 0
6.48608e-51 -0.00970858 0
-8.69464e-51 -0.00970858 0
1.11557e-50 -0.00970858 0
7.71289e-52 -0.00970858 0
-1.15622e-50 -0.00970858 0
-1.34622e-50 -0.00970858 0
-2.09088e-51 -0.00970858 0
1.01651e-51 -0.00970858 0
2.36628e-51 -0.00970858 0
1.24876e-50 -0.00970858 0
SCALARS radius double 1
LOOKUP_TABLE default
0.0005192
0.000759374
0.000731582
0.000932767
0.000864852
0.00092132
0.000824734
0.000662097
0.000535446
0.00094621
0.000999249
0.000802661
0.000671708
0.000819153
0.000645007
0.000827505
0.000602392
0.000772815
0.000550095
0.000626194
0.000886859
0.000531918
0.000790192
0.000909137
0.00096445
SCALARS mass double 1
LOOKUP_TABLE default
0.00228657
0.0048913
0.00453983
0.00738005
0.00634449
0.00720004
0.00576955
0.0037184
0.0024319
0.00759432
0.00846957
0.00546484
0.00382714
0.00569173
0.00352892
0.00580838
0.00307803
0.005066
0.00256678
0.00332607
0.00667148
0.00239995
0.00529637
0.00701087
0.00788992
