# vtk DataFile Version 3.0
DEM2D particles
ASCII
DATASET POLYDATA
POINTS 25 double
0.000210492 -8.13773e-05 0
0.00247694 -0.000480666 0
0.00456711 0.000166661 0
0.00674628 4.79465e-05 0
0.00933215 0.000965073 0
0.000976388 0.00311925 0
0.00272805 0.0028037 0
0.00430175 0.00233488 0
0.00620408 0.00175757 0
0.00807857 0.00220353 0
0.00194188 0.00405621 0
0.00315848 0.00377528 0
0.00447748 0.00427949 0
0.00666273 0.00535204 0
0.00823043 0.00480456 0
0.0014505 0.00597488 0
0.0023961 0.00708825 0
0.00577483 0.00611333 0
0.00705357 0.00667494 0
0.00819693 0.00638066 0
6.49651e-05 0.00802185 0
0.00285477 0.00938185 0
0.0050706 0.00831464 0
0.00716435 0.00890965 0
0.00986735 0.00845856 0
VERTICES 25 50
1 0
1 1
1 2
1 3
1 4
1 5
1 6
1 7
1 8
1 9
1 10
1 11
1 12
1 13
1 14
1 15
1 16
1 17
1 18
1 19
1 20
1 21
1 22
1 23
1 24
POINT_DATA 25
VECTORS velocity double
-6.31227e-27 -0.00970858 0
-4.18199e-27 -0.00970858 0
-3.46106e-27 -0.00970858 0
-2.02856e-27 -0.00970858 0
2.65559e-27 -0.00970858 0
-1.88785e-28 -0.00970858 0
-2.17433e-27 -0.00970858 0
-5.58265e-27 -0.00970858 0
-6.3635e-27 -0.00970858 0
-7.36703e-27 -0.00970858 0
7.53052e-27 -0.00970858 0
1.26709e-27 -0.00970858 0
-4.17764e-27 -0.00970858 0
-2.69651e-27 -0.00970858 0
-6.15286e-27 -0.00970858 0
3.60183e-27 -0.00970858 0
-4.82828e-27 -0.00970858 0
6.19494e-27 -0.00970858 0
4.2831e-28 -0.00970858 0
-6.42071e-27 -0.00970858 0
-7.47578e-27 -0.00970858 0
-1.1611e-27 -0.00970858 0
5.64485e-28 -0.00970858 0
1.31404e-27 -0.00970858 0
6.93461e-27 -0.00970858 0
SCALARS radius double 1
LOOKUP_TABLE default
0.0005192
0.000759374
0.000731582
0.000932767
0.000864852
0.00092132
0.000824734
0.000662097
0.000535446
0.00094621
0.000999249
0.000802661
0.000671708
0.000819153
0.000645007
0.000827505
0.000602392
0.000772815
0.000550095
0.000626194
0.000886859
0.000531918
0.000790192
0.000909137
0.00096445
SCALARS mass double 1
LOOKUP_TABLE default
0.00228657
0.0048913
0.00453983
0.00738005
0.00634449
0.00720004
0.00576955
0.0037184
0.0024319
0.00759432
0.00846957
0.00546484
0.00382714
0.00569173
0.00352892
0.00580838
0.00307803
0.005066
0.00256678
0.00332607
0.00667148
0.00239995
0.00529637
0.00701087
0.00788992
