# vtk DataFile Version 3.0
DEM2D particles
ASCII
DATASET POLYDATA
POINTS 25 double
0.000210492 -9.49693e-05 0
0.00247694 -0.000494258 0
0.00456711 0.000153069 0
0.00674628 3.43545e-05 0
0.00933215 0.000951481 0
0.000976388 0.00310566 0
0.00272805 0.0027901 0
0.00430175 0.00232129 0
0.00620408 0.00174398 0
0.00807857 0.00218994 0
0.00194188 0.00404262 0
0.00315848 0.00376169 0
0.00447748 0.0042659 0
0.00666273 0.00533845 0
0.00823043 0.00479097 0
0.0014505 0.00596129 0
0.0023961 0.00707466 0
0.00577483 0.00609974 0
0.00705357 0.00666135 0
0.00819693 0.00636707 0
6.49651e-05 0.00800826 0
0.00285477 0.00936826 0
0.0050706 0.00830105 0
0.00716435 0.00889606 0
0.00986735 0.00844497 0
VERTICES 25 50
1 0
1 1
1 2
1 3
1 4
1 5
1 6
1 7
1 8
1 9
1 10
1 11
1 12
1 13
1 14
1 15
1 16
1 17
1 18
1 19
1 20
1 21
1 22
1 23
1 24
POINT_DATA 25
VECTORS velocity double
-1.54565e-27 -0.00970858 0
-1.02402e-27 -0.00970858 0
-8.47493e-28 -0.00970858 0
-4.96723e-28 -0.00970858 0
6.50261e-28 -0.00970858 0
-4.62269e-29 -0.00970858 0
-5.32418e-28 -0.00970858 0
-1.367e-27 -0.00970858 0
-1.5582e-27 -0.00970858 0
-1.80393e-27 -0.00970858 0
1.84396e-27 -0.00970858 0
3.10265e-28 -0.00970858 0
-1.02296e-27 -0.00970858 0
-6.60282e-28 -0.00970858 0
-1.50662e-27 -0.00970858 0
8.81964e-28 -0.00970858 0
-1.18228e-27 -0.00970858 0
1.51692e-27 -0.00970858 0
1.04878e-28 -0.00970858 0
-1.57221e-27 -0.00970858 0
-1.83056e-27 -0.00970858 0
-2.84314e-28 -0.00970858 0
1.38223e-28 -0.00970858 0
3.21762e-28 -0.00970858 0
1.69804e-27 -0.00970858 0
SCALARS radius double 1
LOOKUP_TABLE default
0.0005192
0.000759374
0.000731582
0.000932767
0.000864852
0.00092132
0.000824734
0.000662097
0.000535446
0.00094621
0.000999249
0.000802661
0.000671708
0.000819153
0.000645007
0.000827505
0.000602392
0.000772815
0.000550095
0.000626194
0.000886859
0.000531918
0.000790192
0.000909137
0.00096445
SCALARS mass double 1
LOOKUP_TABLE default
0.00228657
0.0048913
0.00453983
0.00738005
0.00634449
0.00720004
0.00576955
0.0037184
0.0024319
0.00759432
0.00846957
0.00546484
0.00382714
0.00569173
0.00352892
0.00580838
0.00307803
0.005066
0.00256678
0.00332607
0.00667148
0.00239995
0.00529637
0.00701087
0.00788992
