# vtk DataFile Version 3.0
DEM2D particles
ASCII
DATASET POLYDATA
POINTS 25 double
0.00025783 0.00050204 0
0.0025083 0.000126691 0
0.00459306 0.000735206 0
0.00676149 0.000623609 0
0.00931223 0.00148575 0
0.000977803 0.00363068 0
0.00274435 0.00333404 0
0.00434361 0.00289334 0
0.00625181 0.00235064 0
0.00813381 0.00276986 0
0.00188541 0.00463138 0
0.00314898 0.0043673 0
0.00450881 0.00484127 0
0.00668296 0.00584951 0
0.00827657 0.00533486 0
0.00142349 0.00655493 0
0.00243231 0.00760154 0
0.00572838 0.00668507 0
0.00705036 0.00721301 0
0.00824508 0.00693637 0
0.000121029 0.00859908 0
0.00286348 0.00987754 0
0.00506637 0.00887431 0
0.0071545 0.00943365 0
0.00981534 0.00900961 0
VERTICES 25 50
1 0
1 1
1 2
1 3
1 4
1 5
1 6
1 7
1 8
1 9
1 10
1 11
1 12
1 13
1 14
1 15
1 16
1 17
1 18
1 19
1 20
1 21
1 22
1 23
1 24
POINT_DATA 25
VECTORS velocity double
-0.0478163 -0.0400396 0
-0.0316792 -0.0642224 0
-0.026218 -0.0250173 0
-0.0153666 -0.0322072 0
0.0201164 0.0233383 0
-0.00143007 0.0326758 0
-0.0164708 0.0135645 0
-0.0422894 -0.0148289 0
-0.0482044 -0.0497938 0
-0.0558063 -0.0227843 0
0.0570448 -0.0317067 0
0.00959835 -0.0487209 0
-0.0316462 -0.018184 0
-0.0204265 0.0467748 0
-0.0466088 0.0136168 0
0.0272844 -0.0366322 0
-0.0365749 0.0307986 0
0.0469275 -0.0282472 0
0.00324451 0.00576673 0
-0.0486378 -0.0120566 0
-0.0566301 -0.0337878 0
-0.00879553 0.0485804 0
0.00427605 -0.0160549 0
0.00995401 0.0199819 0
0.0525306 -0.00733827 0
SCALARS radius double 1
LOOKUP_TABLE default
0.0005192
0.000759374
0.000731582
0.000932767
0.000864852
0.00092132
0.000824734
0.000662097
0.000535446
0.00094621
0.000999249
0.000802661
0.000671708
0.000819153
0.000645007
0.000827505
0.000602392
0.000772815
0.000550095
0.000626194
0.000886859
0.000531918
0.000790192
0.000909137
0.00096445
SCALARS mass double 1
LOOKUP_TABLE default
0.00228657
0.0048913
0.00453983
0.00738005
0.00634449
0.00720004
0.00576955
0.0037184
0.0024319
0.00759432
0.00846957
0.00546484
0.00382714
0.00569173
0.00352892
0.00580838
0.00307803
0.005066
0.00256678
0.00332607
0.00667148
0.00239995
0.00529637
0.00701087
0.00788992
