# vtk DataFile Version 3.0
DEM2D particles
ASCII
DATASET POLYDATA
POINTS 25 double
0.000499477 0.000672798 0
0.00266839 0.000419661 0
0.00472556 0.000830046 0
0.00683915 0.000754785 0
0.00921057 0.00133621 0
0.000985031 0.00343396 0
0.00282759 0.00323391 0
0.00455733 0.00293669 0
0.00649541 0.00257069 0
0.00841584 0.00285342 0
0.00159712 0.00476002 0
0.00310047 0.00458193 0
0.00466874 0.00490157 0
0.00678618 0.00558154 0
0.00851212 0.00523445 0
0.0012856 0.00670847 0
0.00261715 0.0074143 0
0.00549122 0.00679624 0
0.00703396 0.00715228 0
0.00849088 0.00696571 0
0.000407218 0.00873824 0
0.00290793 0.00960044 0
0.00504476 0.00892386 0
0.00710419 0.00930108 0
0.00954987 0.0090151 0
VERTICES 25 50
1 0
1 1
1 2
1 3
1 4
1 5
1 6
1 7
1 8
1 9
1 10
1 11
1 12
1 13
1 14
1 15
1 16
1 17
1 18
1 19
1 20
1 21
1 22
1 23
1 24
POINT_DATA 25
VECTORS velocity double
-0.291905 -0.194871 0
-0.193392 -0.3425 0
-0.160053 -0.103164 0
-0.0938086 -0.147056 0
0.122805 0.192033 0
-0.00873019 0.249036 0
-0.10055 0.132367 0
-0.258164 -0.0409666 0
-0.294274 -0.254417 0
-0.340681 -0.0895321 0
0.348242 -0.144001 0
0.0585952 -0.247867 0
-0.193191 -0.0614484 0
-0.124698 0.335106 0
-0.284533 0.132686 0
0.166563 -0.17407 0
-0.223279 0.237576 0
0.286479 -0.122881 0
0.0198068 0.0847637 0
-0.29692 -0.0240428 0
-0.34571 -0.156705 0
-0.0536941 0.346129 0
0.0261041 -0.048451 0
0.0607663 0.171543 0
0.320684 0.0047615 0
SCALARS radius double 1
LOOKUP_TABLE default
0.0005192
0.000759374
0.000731582
0.000932767
0.000864852
0.00092132
0.000824734
0.000662097
0.000535446
0.00094621
0.000999249
0.000802661
0.000671708
0.000819153
0.000645007
0.000827505
0.000602392
0.000772815
0.000550095
0.000626194
0.000886859
0.000531918
0.000790192
0.000909137
0.00096445
SCALARS mass double 1
LOOKUP_TABLE default
0.00228657
0.0048913
0.00453983
0.00738005
0.00634449
0.00720004
0.00576955
0.0037184
0.0024319
0.00759432
0.00846957
0.00546484
0.00382714
0.00569173
0.00352892
0.00580838
0.00307803
0.005066
0.00256678
0.00332607
0.00667148
0.00239995
0.00529637
0.00701087
0.00788992
