# vtk DataFile Version 3.0
DEM2D particles
ASCII
DATASET POLYDATA
POINTS 25 double
0.000210492 -0.000405644 0
0.00247694 -0.000804933 0
0.00456711 -0.000157606 0
0.00674628 -0.00027632 0
0.00933215 0.000640806 0
0.000976388 0.00279498 0
0.00272805 0.00247943 0
0.00430175 0.00201062 0
0.00620408 0.0014333 0
0.00807857 0.00187926 0
0.00194188 0.00373194 0
0.00315848 0.00345102 0
0.00447748 0.00395522 0
0.00666273 0.00502777 0
0.00823043 0.00448029 0
0.0014505 0.00565062 0
0.0023961 0.00676399 0
0.00577483 0.00578906 0
0.00705357 0.00635068 0
0.00819693 0.00605639 0
6.49651e-05 0.00769758 0
0.00285477 0.00905759 0
0.0050706 0.00799037 0
0.00716435 0.00858539 0
0.00986735 0.0081343 0
VERTICES 25 50
1 0
1 1
1 2
1 3
1 4
1 5
1 6
1 7
1 8
1 9
1 10
1 11
1 12
1 13
1 14
1 15
1 16
1 17
1 18
1 19
1 20
1 21
1 22
1 23
1 24
POINT_DATA 25
VECTORS velocity double
-1.66623e-41 -0.00970858 0
-1.10391e-41 -0.00970858 0
-9.13605e-42 -0.00970858 0
-5.35472e-42 -0.00970858 0
7.00988e-42 -0.00970858 0
-4.98331e-43 -0.00970858 0
-5.73951e-42 -0.00970858 0
-1.47364e-41 -0.00970858 0
-1.67975e-41 -0.00970858 0
-1.94465e-41 -0.00970858 0
1.98781e-41 -0.00970858 0
3.34469e-42 -0.00970858 0
-1.10276e-41 -0.00970858 0
-7.11791e-42 -0.00970858 0
-1.62415e-41 -0.00970858 0
9.50766e-42 -0.00970858 0
-1.27451e-41 -0.00970858 0
1.63526e-41 -0.00970858 0
1.1306e-42 -0.00970858 0
-1.69486e-41 -0.00970858 0
-1.97336e-41 -0.00970858 0
-3.06493e-42 -0.00970858 0
1.49006e-42 -0.00970858 0
3.46862e-42 -0.00970858 0
1.83051e-41 -0.00970858 0
SCALARS radius double 1
LOOKUP_TABLE default
0.0005192
0.000759374
0.000731582
0.000932767
0.000864852
0.00092132
0.000824734
0.000662097
0.000535446
0.00094621
0.000999249
0.000802661
0.000671708
0.000819153
0.000645007
0.000827505
0.000602392
0.000772815
0.000550095
0.000626194
0.000886859
0.000531918
0.000790192
0.000909137
0.00096445
SCALARS mass double 1
LOOKUP_TABLE default
0.00228657
0.0048913
0.00453983
0.00738005
0.00634449
0.00720004
0.00576955
0.0037184
0.0024319
0.00759432
0.00846957
0.00546484
0.00382714
0.00569173
0.00352892
0.00580838
0.00307803
0.005066
0.00256678
0.00332607
0.00667148
0.00239995
0.00529637
0.00701087
0.00788992
