# vtk DataFile Version 3.0
DEM2D particles
ASCII
DATASET POLYDATA
POINTS 25 double
0.000210492 5.64846e-05 0
0.00247694 -0.000342805 0
0.00456711 0.000304523 0
0.00674628 0.000185808 0
0.00933215 0.00110293 0
0.000976388 0.00325711 0
0.00272805 0.00294156 0
0.00430175 0.00247275 0
0.00620408 0.00189543 0
0.00807857 0.00234139 0
0.00194188 0.00419407 0
0.00315848 0.00391315 0
0.00447748 0.00441735 0
0.00666273 0.0054899 0
0.00823043 0.00494242 0
0.0014505 0.00611274 0
0.0023961 0.00722611 0
0.00577483 0.00625119 0
0.00705357 0.00681281 0
0.00819693 0.00651852 0
6.49651e-05 0.00815971 0
0.00285477 0.00951971 0
0.0050706 0.0084525 0
0.00716435 0.00904752 0
0.00986735 0.00859643 0
VERTICES 25 50
1 0
1 1
1 2
1 3
1 4
1 5
1 6
1 7
1 8
1 9
1 10
1 11
1 12
1 13
1 14
1 15
1 16
1 17
1 18
1 19
1 20
1 21
1 22
1 23
1 24
POINT_DATA 25
VECTORS velocity double
-9.95884e-21 -0.00970858 0
-6.59791e-21 -0.00970858 0
-5.4605e-21 -0.00970858 0
-3.20045e-21 -0.00970858 0
4.18971e-21 -0.00970858 0
-2.97846e-22 -0.00970858 0
-3.43043e-21 -0.00970858 0
-8.80773e-21 -0.00970858 0
-1.00397e-20 -0.00970858 0
-1.16229e-20 -0.00970858 0
1.18809e-20 -0.00970858 0
1.99908e-21 -0.00970858 0
-6.59104e-21 -0.00970858 0
-4.25428e-21 -0.00970858 0
-9.70735e-21 -0.00970858 0
5.6826e-21 -0.00970858 0
-7.61757e-21 -0.00970858 0
9.77373e-21 -0.00970858 0
6.75744e-22 -0.00970858 0
-1.01299e-20 -0.00970858 0
-1.17945e-20 -0.00970858 0
-1.83187e-21 -0.00970858 0
8.90586e-22 -0.00970858 0
2.07315e-21 -0.00970858 0
1.09407e-20 -0.00970858 0
SCALARS radius double 1
LOOKUP_TABLE default
0.0005192
0.000759374
0.000731582
0.000932767
0.000864852
0.00092132
0.000824734
0.000662097
0.000535446
0.00094621
0.000999249
0.000802661
0.000671708
0.000819153
0.000645007
0.000827505
0.000602392
0.000772815
0.000550095
0.000626194
0.000886859
0.000531918
0.000790192
0.000909137
0.00096445
SCALARS mass double 1
LOOKUP_TABLE default
0.00228657
0.0048913
0.00453983
0.00738005
0.00634449
0.00720004
0.00576955
0.0037184
0.0024319
0.00759432
0.00846957
0.00546484
0.00382714
0.00569173
0.00352892
0.00580838
0.00307803
0.005066
0.00256678
0.00332607
0.00667148
0.00239995
0.00529637
0.00701087
0.00788992
