# vtk DataFile Version 3.0
DEM2D particles
ASCII
DATASET POLYDATA
POINTS 25 double
0.000210492 -0.00137262 0
0.00247694 -0.00177191 0
0.00456711 -0.00112458 0
0.00674628 -0.0012433 0
0.00933215 -0.000326169 0
0.000976388 0.00182801 0
0.00272805 0.00151245 0
0.00430175 0.00104364 0
0.00620408 0.000466327 0
0.00807857 0.000912288 0
0.00194188 0.00276497 0
0.00315848 0.00248404 0
0.00447748 0.00298825 0
0.00666273 0.0040608 0
0.00823043 0.00351332 0
0.0014505 0.00468364 0
0.0023961 0.00579701 0
0.00577483 0.00482209 0
0.00705357 0.0053837 0
0.00819693 0.00508942 0
6.49651e-05 0.00673061 0
0.00285477 0.00809061 0
0.0050706 0.0070234 0
0.00716435 0.00761841 0
0.00986735 0.00716732 0
VERTICES 25 50
1 0
1 1
1 2
1 3
1 4
1 5
1 6
1 7
1 8
1 9
1 10
1 11
1 12
1 13
1 14
1 15
1 16
1 17
1 18
1 19
1 20
1 21
1 22
1 23
1 24
POINT_DATA 25
VECTORS velocity double
-5.6011e-85 -0.00970858 0
-3.71083e-85 -0.00970858 0
-3.07112e-85 -0.00970858 0
-1.80001e-85 -0.00970858 0
2.3564e-85 -0.00970858 0
-1.67516e-86 -0.00970858 0
-1.92936e-85 -0.00970858 0
-4.95369e-85 -0.00970858 0
-5.64656e-85 -0.00970858 0
-6.53703e-85 -0.00970858 0
6.68211e-85 -0.00970858 0
1.12433e-85 -0.00970858 0
-3.70697e-85 -0.00970858 0
-2.39271e-85 -0.00970858 0
-5.45965e-85 -0.00970858 0
3.19604e-85 -0.00970858 0
-4.28431e-85 -0.00970858 0
5.49699e-85 -0.00970858 0
3.80055e-86 -0.00970858 0
-5.69733e-85 -0.00970858 0
-6.63353e-85 -0.00970858 0
-1.03029e-85 -0.00970858 0
5.00888e-86 -0.00970858 0
1.16599e-85 -0.00970858 0
6.15333e-85 -0.00970858 0
SCALARS radius double 1
LOOKUP_TABLE default
0.0005192
0.000759374
0.000731582
0.000932767
0.000864852
0.00092132
0.000824734
0.000662097
0.000535446
0.00094621
0.000999249
0.000802661
0.000671708
0.000819153
0.000645007
0.000827505
0.000602392
0.000772815
0.000550095
0.000626194
0.000886859
0.000531918
0.000790192
0.000909137
0.00096445
SCALARS mass double 1
LOOKUP_TABLE default
0.00228657
0.0048913
0.00453983
0.00738005
0.00634449
0.00720004
0.00576955
0.0037184
0.0024319
0.00759432
0.00846957
0.00546484
0.00382714
0.00569173
0.00352892
0.00580838
0.00307803
0.005066
0.00256678
0.00332607
0.00667148
0.00239995
0.00529637
0.00701087
0.00788992
