# vtk DataFile Version 3.0
DEM2D particles
ASCII
DATASET POLYDATA
POINTS 25 double
0.000210492 0.000200172 0
0.00247694 -0.000199118 0
0.00456711 0.00044821 0
0.00674628 0.000329495 0
0.00933215 0.00124662 0
0.000976388 0.0034008 0
0.00272805 0.00308524 0
0.00430175 0.00261643 0
0.00620408 0.00203912 0
0.00807857 0.00248508 0
0.00194188 0.00433776 0
0.00315848 0.00405683 0
0.00447748 0.00456104 0
0.00666273 0.00563359 0
0.00823043 0.00508611 0
0.0014505 0.00625643 0
0.0023961 0.0073698 0
0.00577483 0.00639488 0
0.00705357 0.00695649 0
0.00819693 0.00666221 0
6.49651e-05 0.0083034 0
0.00285477 0.0096634 0
0.0050706 0.00859619 0
0.00716435 0.0091912 0
0.00986735 0.00874011 0
VERTICES 25 50
1 0
1 1
1 2
1 3
1 4
1 5
1 6
1 7
1 8
1 9
1 10
1 11
1 12
1 13
1 14
1 15
1 16
1 17
1 18
1 19
1 20
1 21
1 22
1 23
1 24
POINT_DATA 25
VECTORS velocity double
-2.87158e-14 -0.00970858 0
-1.90247e-14 -0.00970858 0
-1.57451e-14 -0.00970858 0
-9.22832e-15 -0.00970858 0
1.20808e-14 -0.00970858 0
-8.58823e-16 -0.00970858 0
-9.89147e-15 -0.00970858 0
-2.53966e-14 -0.00970858 0
-2.89489e-14 -0.00970858 0
-3.35141e-14 -0.00970858 0
3.42579e-14 -0.00970858 0
5.76423e-15 -0.00970858 0
-1.90049e-14 -0.00970858 0
-1.2267e-14 -0.00970858 0
-2.79906e-14 -0.00970858 0
1.63855e-14 -0.00970858 0
-2.19649e-14 -0.00970858 0
2.8182e-14 -0.00970858 0
1.94847e-15 -0.00970858 0
-2.92091e-14 -0.00970858 0
-3.40089e-14 -0.00970858 0
-5.2821e-15 -0.00970858 0
2.56796e-15 -0.00970858 0
5.97782e-15 -0.00970858 0
3.1547e-14 -0.00970858 0
SCALARS radius double 1
LOOKUP_TABLE default
0.0005192
0.000759374
0.000731582
0.000932767
0.000864852
0.00092132
0.000824734
0.000662097
0.000535446
0.00094621
0.000999249
0.000802661
0.000671708
0.000819153
0.000645007
0.000827505
0.000602392
0.000772815
0.000550095
0.000626194
0.000886859
0.000531918
0.000790192
0.000909137
0.00096445
SCALARS mass double 1
LOOKUP_TABLE default
0.00228657
0.0048913
0.00453983
0.00738005
0.00634449
0.00720004
0.00576955
0.0037184
0.0024319
0.00759432
0.00846957
0.00546484
0.00382714
0.00569173
0.00352892
0.00580838
0.00307803
0.005066
0.00256678
0.00332607
0.00667148
0.00239995
0.00529637
0.00701087
0.00788992
