# vtk DataFile Version 3.0
DEM2D particles
ASCII
DATASET POLYDATA
POINTS 25 double
0.000210492 0.000285607 0
0.00247694 -0.000113682 0
0.00456711 0.000533645 0
0.00674628 0.000414931 0
0.00933215 0.00133206 0
0.000976388 0.00348623 0
0.00272805 0.00317068 0
0.00430175 0.00270187 0
0.00620408 0.00212455 0
0.00807857 0.00257051 0
0.00194188 0.00442319 0
0.00315848 0.00414227 0
0.00447748 0.00464647 0
0.00666273 0.00571902 0
0.00823043 0.00517154 0
0.0014505 0.00634187 0
0.0023961 0.00745524 0
0.00577483 0.00648032 0
0.00705357 0.00704193 0
0.00819693 0.00674764 0
6.49651e-05 0.00838883 0
0.00285477 0.00974884 0
0.0050706 0.00868163 0
0.00716435 0.00927664 0
0.00986735 0.00882555 0
VERTICES 25 50
1 0
1 1
1 2
1 3
1 4
1 5
1 6
1 7
1 8
1 9
1 10
1 11
1 12
1 13
1 14
1 15
1 16
1 17
1 18
1 19
1 20
1 21
1 22
1 23
1 24
POINT_DATA 25
VECTORS velocity double
-1.99136e-10 -0.00970858 0
-1.31931e-10 -0.00970858 0
-1.09188e-10 -0.00970858 0
-6.39958e-11 -0.00970858 0
8.3777e-11 -0.00970858 0
-5.95569e-12 -0.00970858 0
-6.85945e-11 -0.00970858 0
-1.76118e-10 -0.00970858 0
-2.00752e-10 -0.00970858 0
-2.32411e-10 -0.00970858 0
2.37569e-10 -0.00970858 0
3.99733e-11 -0.00970858 0
-1.31794e-10 -0.00970858 0
-8.50681e-11 -0.00970858 0
-1.94107e-10 -0.00970858 0
1.13629e-10 -0.00970858 0
-1.5232e-10 -0.00970858 0
1.95435e-10 -0.00970858 0
1.35121e-11 -0.00970858 0
-2.02557e-10 -0.00970858 0
-2.35842e-10 -0.00970858 0
-3.66299e-11 -0.00970858 0
1.78081e-11 -0.00970858 0
4.14545e-11 -0.00970858 0
2.18769e-10 -0.00970858 0
SCALARS radius double 1
LOOKUP_TABLE default
0.0005192
0.000759374
0.000731582
0.000932767
0.000864852
0.00092132
0.000824734
0.000662097
0.000535446
0.00094621
0.000999249
0.000802661
0.000671708
0.000819153
0.000645007
0.000827505
0.000602392
0.000772815
0.000550095
0.000626194
0.000886859
0.000531918
0.000790192
0.000909137
0.00096445
SCALARS mass double 1
LOOKUP_TABLE default
0.00228657
0.0048913
0.00453983
0.00738005
0.00634449
0.00720004
0.00576955
0.0037184
0.0024319
0.00759432
0.00846957
0.00546484
0.00382714
0.00569173
0.00352892
0.00580838
0.00307803
0.005066
0.00256678
0.00332607
0.00667148
0.00239995
0.00529637
0.00701087
0.00788992
