# vtk DataFile Version 3.0
DEM2D particles
ASCII
DATASET POLYDATA
POINTS 25 double
0.000210492 -0.000817288 0
0.00247694 -0.00121658 0
0.00456711 -0.00056925 0
0.00674628 -0.000687964 0
0.00933215 0.000229162 0
0.000976388 0.00238334 0
0.00272805 0.00206778 0
0.00430175 0.00159897 0
0.00620408 0.00102166 0
0.00807857 0.00146762 0
0.00194188 0.0033203 0
0.00315848 0.00303937 0
0.00447748 0.00354358 0
0.00666273 0.00461613 0
0.00823043 0.00406865 0
0.0014505 0.00523897 0
0.0023961 0.00635234 0
0.00577483 0.00537742 0
0.00705357 0.00593903 0
0.00819693 0.00564475 0
6.49651e-05 0.00728594 0
0.00285477 0.00864594 0
0.0050706 0.00757873 0
0.00716435 0.00817374 0
0.00986735 0.00772265 0
VERTICES 25 50
1 0
1 1
1 2
1 3
1 4
1 5
1 6
1 7
1 8
1 9
1 10
1 11
1 12
1 13
1 14
1 15
1 16
1 17
1 18
1 19
1 20
1 21
1 22
1 23
1 24
POINT_DATA 25
VECTORS velocity double
-5.18753e-60 -0.00970858 0
-3.43683e-60 -0.00970858 0
-2.84435e-60 -0.00970858 0
-1.6671e-60 -0.00970858 0
2.18241e-60 -0.00970858 0
-1.55147e-61 -0.00970858 0
-1.7869e-60 -0.00970858 0
-4.58792e-60 -0.00970858 0
-5.22963e-60 -0.00970858 0
-6.05435e-60 -0.00970858 0
6.18871e-60 -0.00970858 0
1.04131e-60 -0.00970858 0
-3.43325e-60 -0.00970858 0
-2.21604e-60 -0.00970858 0
-5.05652e-60 -0.00970858 0
2.96005e-60 -0.00970858 0
-3.96797e-60 -0.00970858 0
5.0911e-60 -0.00970858 0
3.51993e-61 -0.00970858 0
-5.27665e-60 -0.00970858 0
-6.14372e-60 -0.00970858 0
-9.54215e-61 -0.00970858 0
4.63903e-61 -0.00970858 0
1.0799e-60 -0.00970858 0
5.69898e-60 -0.00970858 0
SCALARS radius double 1
LOOKUP_TABLE default
0.0005192
0.000759374
0.000731582
0.000932767
0.000864852
0.00092132
0.000824734
0.000662097
0.000535446
0.00094621
0.000999249
0.000802661
0.000671708
0.000819153
0.000645007
0.000827505
0.000602392
0.000772815
0.000550095
0.000626194
0.000886859
0.000531918
0.000790192
0.000909137
0.00096445
SCALARS mass double 1
LOOKUP_TABLE default
0.00228657
0.0048913
0.00453983
0.00738005
0.00634449
0.00720004
0.00576955
0.0037184
0.0024319
0.00759432
0.00846957
0.00546484
0.00382714
0.00569173
0.00352892
0.00580838
0.00307803
0.005066
0.00256678
0.00332607
0.00667148
0.00239995
0.00529637
0.00701087
0.00788992
