# vtk DataFile Version 3.0
DEM2D particles
ASCII
DATASET POLYDATA
POINTS 25 double
0.000210492 -0.000850297 0
0.00247694 -0.00124959 0
0.00456711 -0.000602259 0
0.00674628 -0.000720973 0
0.00933215 0.000196153 0
0.000976388 0.00235033 0
0.00272805 0.00203478 0
0.00430175 0.00156596 0
0.00620408 0.000988649 0
0.00807857 0.00143461 0
0.00194188 0.00328729 0
0.00315848 0.00300636 0
0.00447748 0.00351057 0
0.00666273 0.00458312 0
0.00823043 0.00403564 0
0.0014505 0.00520596 0
0.0023961 0.00631933 0
0.00577483 0.00534441 0
0.00705357 0.00590602 0
0.00819693 0.00561174 0
6.49651e-05 0.00725293 0
0.00285477 0.00861293 0
0.0050706 0.00754572 0
0.00716435 0.00814073 0
0.00986735 0.00768964 0
VERTICES 25 50
1 0
1 1
1 2
1 3
1 4
1 5
1 6
1 7
1 8
1 9
1 10
1 11
1 12
1 13
1 14
1 15
1 16
1 17
1 18
1 19
1 20
1 21
1 22
1 23
1 24
POINT_DATA 25
VECTORS velocity double
-1.70187e-61 -0.00970858 0
-1.12752e-61 -0.00970858 0
-9.33147e-62 -0.00970858 0
-5.46926e-62 -0.00970858 0
7.15981e-62 -0.00970858 0
-5.0899e-63 -0.00970858 0
-5.86228e-62 -0.00970858 0
-1.50516e-61 -0.00970858 0
-1.71568e-61 -0.00970858 0
-1.98625e-61 -0.00970858 0
2.03033e-61 -0.00970858 0
3.41623e-62 -0.00970858 0
-1.12635e-61 -0.00970858 0
-7.27015e-62 -0.00970858 0
-1.65889e-61 -0.00970858 0
9.71102e-62 -0.00970858 0
-1.30177e-61 -0.00970858 0
1.67024e-61 -0.00970858 0
1.15478e-62 -0.00970858 0
-1.73111e-61 -0.00970858 0
-2.01557e-61 -0.00970858 0
-3.13049e-62 -0.00970858 0
1.52193e-62 -0.00970858 0
3.54281e-62 -0.00970858 0
1.86966e-61 -0.00970858 0
SCALARS radius double 1
LOOKUP_TABLE default
0.0005192
0.000759374
0.000731582
0.000932767
0.000864852
0.00092132
0.000824734
0.000662097
0.000535446
0.00094621
0.000999249
0.000802661
0.000671708
0.000819153
0.000645007
0.000827505
0.000602392
0.000772815
0.000550095
0.000626194
0.000886859
0.000531918
0.000790192
0.000909137
0.00096445
SCALARS mass double 1
LOOKUP_TABLE default
0.00228657
0.0048913
0.00453983
0.00738005
0.00634449
0.00720004
0.00576955
0.0037184
0.0024319
0.00759432
0.00846957
0.00546484
0.00382714
0.00569173
0.00352892
0.00580838
0.00307803
0.005066
0.00256678
0.00332607
0.00667148
0.00239995
0.00529637
0.00701087
0.00788992
