# vtk DataFile Version 3.0
DEM2D particles
ASCII
DATASET POLYDATA
POINTS 25 double
0.00021239 0.000442149 0
0.00247819 4.38201e-05 0
0.00456815 0.00068959 0
0.00674689 0.000571162 0
0.00933135 0.00148608 0
0.000976444 0.00363989 0
0.0027287 0.00332509 0
0.00430343 0.00285741 0
0.006206 0.00228148 0
0.00808078 0.00272637 0
0.00193962 0.0045794 0
0.0031581 0.00429916 0
0.00447874 0.00480215 0
0.00666354 0.00587212 0
0.00823228 0.00532595 0
0.00144942 0.00649827 0
0.00239755 0.00760897 0
0.00577297 0.00663639 0
0.00705344 0.00719665 0
0.00819886 0.00690307 0
6.72138e-05 0.00854513 0
0.00285512 0.00990186 0
0.00507043 0.00883721 0
0.00716396 0.0094308 0
0.00986526 0.00898079 0
VERTICES 25 50
1 0
1 1
1 2
1 3
1 4
1 5
1 6
1 7
1 8
1 9
1 10
1 11
1 12
1 13
1 14
1 15
1 16
1 17
1 18
1 19
1 20
1 21
1 22
1 23
1 24
POINT_DATA 25
VECTORS velocity double
-0.00191795 -0.0109252 0
-0.00127068 -0.0118952 0
-0.00105163 -0.0103226 0
-0.000616368 -0.010611 0
0.000806889 -0.00838304 0
-5.73616e-05 -0.00800851 0
-0.00066066 -0.00877508 0
-0.00169626 -0.00991396 0
-0.00193352 -0.0113164 0
-0.00223844 -0.0102331 0
0.00228812 -0.0105909 0
0.000384998 -0.0112734 0
-0.00126936 -0.0100485 0
-0.000819324 -0.00744299 0
-0.00186952 -0.00877298 0
0.0010944 -0.0107885 0
-0.00146705 -0.00808381 0
0.0018823 -0.0104522 0
0.00013014 -0.00908786 0
-0.00195091 -0.00980277 0
-0.00227148 -0.0106744 0
-0.000352796 -0.00737056 0
0.000171516 -0.00996314 0
0.000399264 -0.00851767 0
0.00210705 -0.00961351 0
SCALARS radius double 1
LOOKUP_TABLE default
0.0005192
0.000759374
0.000731582
0.000932767
0.000864852
0.00092132
0.000824734
0.000662097
0.000535446
0.00094621
0.000999249
0.000802661
0.000671708
0.000819153
0.000645007
0.000827505
0.000602392
0.000772815
0.000550095
0.000626194
0.000886859
0.000531918
0.000790192
0.000909137
0.00096445
SCALARS mass double 1
LOOKUP_TABLE default
0.00228657
0.0048913
0.00453983
0.00738005
0.00634449
0.00720004
0.00576955
0.0037184
0.0024319
0.00759432
0.00846957
0.00546484
0.00382714
0.00569173
0.00352892
0.00580838
0.00307803
0.005066
0.00256678
0.00332607
0.00667148
0.00239995
0.00529637
0.00701087
0.00788992
