# vtk DataFile Version 3.0
DEM2D particles
ASCII
DATASET POLYDATA
POINTS 25 double
0.000210492 2.93006e-05 0
0.00247694 -0.000369989 0
0.00456711 0.000277339 0
0.00674628 0.000158624 0
0.00933215 0.00107575 0
0.000976388 0.00322993 0
0.00272805 0.00291437 0
0.00430175 0.00244556 0
0.00620408 0.00186825 0
0.00807857 0.00231421 0
0.00194188 0.00416689 0
0.00315848 0.00388596 0
0.00447748 0.00439016 0
0.00666273 0.00546272 0
0.00823043 0.00491524 0
0.0014505 0.00608556 0
0.0023961 0.00719893 0
0.00577483 0.00622401 0
0.00705357 0.00678562 0
0.00819693 0.00649134 0
6.49651e-05 0.00813253 0
0.00285477 0.00949253 0
0.0050706 0.00842532 0
0.00716435 0.00902033 0
0.00986735 0.00856924 0
VERTICES 25 50
1 0
1 1
1 2
1 3
1 4
1 5
1 6
1 7
1 8
1 9
1 10
1 11
1 12
1 13
1 14
1 15
1 16
1 17
1 18
1 19
1 20
1 21
1 22
1 23
1 24
POINT_DATA 25
VECTORS velocity double
-5.97122e-22 -0.00970858 0
-3.95604e-22 -0.00970858 0
-3.27406e-22 -0.00970858 0
-1.91896e-22 -0.00970858 0
2.51211e-22 -0.00970858 0
-1.78585e-23 -0.00970858 0
-2.05685e-22 -0.00970858 0
-5.28103e-22 -0.00970858 0
-6.01969e-22 -0.00970858 0
-6.969e-22 -0.00970858 0
7.12366e-22 -0.00970858 0
1.19863e-22 -0.00970858 0
-3.95192e-22 -0.00970858 0
-2.55082e-22 -0.00970858 0
-5.82043e-22 -0.00970858 0
3.40723e-22 -0.00970858 0
-4.56742e-22 -0.00970858 0
5.86023e-22 -0.00970858 0
4.0517e-23 -0.00970858 0
-6.07381e-22 -0.00970858 0
-7.07187e-22 -0.00970858 0
-1.09837e-22 -0.00970858 0
5.33987e-23 -0.00970858 0
1.24304e-22 -0.00970858 0
6.55994e-22 -0.00970858 0
SCALARS radius double 1
LOOKUP_TABLE default
0.0005192
0.000759374
0.000731582
0.000932767
0.000864852
0.00092132
0.000824734
0.000662097
0.000535446
0.00094621
0.000999249
0.000802661
0.000671708
0.000819153
0.000645007
0.000827505
0.000602392
0.000772815
0.000550095
0.000626194
0.000886859
0.000531918
0.000790192
0.000909137
0.00096445
SCALARS mass double 1
LOOKUP_TABLE default
0.00228657
0.0048913
0.00453983
0.00738005
0.00634449
0.00720004
0.00576955
0.0037184
0.0024319
0.00759432
0.00846957
0.00546484
0.00382714
0.00569173
0.00352892
0.00580838
0.00307803
0.005066
0.00256678
0.00332607
0.00667148
0.00239995
0.00529637
0.00701087
0.00788992
