# vtk DataFile Version 3.0
DEM2D particles
ASCII
DATASET POLYDATA
POINTS 25 double
0.000210492 -5.80767e-05 0
0.00247694 -0.000457366 0
0.00456711 0.000189961 0
0.00674628 7.12471e-05 0
0.00933215 0.000988374 0
0.000976388 0.00314255 0
0.00272805 0.002827 0
0.00430175 0.00235818 0
0.00620408 0.00178087 0
0.00807857 0.00222683 0
0.00194188 0.00407951 0
0.00315848 0.00379858 0
0.00447748 0.00430279 0
0.00666273 0.00537534 0
0.00823043 0.00482786 0
0.0014505 0.00599818 0
0.0023961 0.00711155 0
0.00577483 0.00613663 0
0.00705357 0.00669824 0
0.00819693 0.00640396 0
6.49651e-05 0.00804515 0
0.00285477 0.00940515 0
0.0050706 0.00833794 0
0.00716435 0.00893295 0
0.00986735 0.00848186 0
VERTICES 25 50
1 0
1 1
1 2
1 3
1 4
1 5
1 6
1 7
1 8
1 9
1 10
1 11
1 12
1 13
1 14
1 15
1 16
1 17
1 18
1 19
1 20
1 21
1 22
1 23
1 24
POINT_DATA 25
VECTORS velocity double
-7.04269e-26 -0.00970858 0
-4.66591e-26 -0.00970858 0
-3.86155e-26 -0.00970858 0
-2.26329e-26 -0.00970858 0
2.96288e-26 -0.00970858 0
-2.10631e-27 -0.00970858 0
-2.42593e-26 -0.00970858 0
-6.22865e-26 -0.00970858 0
-7.09985e-26 -0.00970858 0
-8.21951e-26 -0.00970858 0
8.40192e-26 -0.00970858 0
1.41371e-26 -0.00970858 0
-4.66105e-26 -0.00970858 0
-3.00854e-26 -0.00970858 0
-6.86484e-26 -0.00970858 0
4.01862e-26 -0.00970858 0
-5.38699e-26 -0.00970858 0
6.91178e-26 -0.00970858 0
4.77872e-27 -0.00970858 0
-7.16369e-26 -0.00970858 0
-8.34084e-26 -0.00970858 0
-1.29546e-26 -0.00970858 0
6.29804e-27 -0.00970858 0
1.46609e-26 -0.00970858 0
7.73704e-26 -0.00970858 0
SCALARS radius double 1
LOOKUP_TABLE default
0.0005192
0.000759374
0.000731582
0.000932767
0.000864852
0.00092132
0.000824734
0.000662097
0.000535446
0.00094621
0.000999249
0.000802661
0.000671708
0.000819153
0.000645007
0.000827505
0.000602392
0.000772815
0.000550095
0.000626194
0.000886859
0.000531918
0.000790192
0.000909137
0.00096445
SCALARS mass double 1
LOOKUP_TABLE default
0.00228657
0.0048913
0.00453983
0.00738005
0.00634449
0.00720004
0.00576955
0.0037184
0.0024319
0.00759432
0.00846957
0.00546484
0.00382714
0.00569173
0.00352892
0.00580838
0.00307803
0.005066
0.00256678
0.00332607
0.00667148
0.00239995
0.00529637
0.00701087
0.00788992
