# vtk DataFile Version 3.0
DEM2D particles
ASCII
DATASET POLYDATA
POINTS 25 double
0.000210492 -0.00114544 0
0.00247694 -0.00154473 0
0.00456711 -0.0008974 0
0.00674628 -0.00101611 0
0.00933215 -9.89878e-05 0
0.000976388 0.00205519 0
0.00272805 0.00173963 0
0.00430175 0.00127082 0
0.00620408 0.000693508 0
0.00807857 0.00113947 0
0.00194188 0.00299215 0
0.00315848 0.00271122 0
0.00447748 0.00321543 0
0.00666273 0.00428798 0
0.00823043 0.0037405 0
0.0014505 0.00491082 0
0.0023961 0.00602419 0
0.00577483 0.00504927 0
0.00705357 0.00561088 0
0.00819693 0.0053166 0
6.49651e-05 0.00695779 0
0.00285477 0.00831779 0
0.0050706 0.00725058 0
0.00716435 0.00784559 0
0.00986735 0.0073945 0
VERTICES 25 50
1 0
1 1
1 2
1 3
1 4
1 5
1 6
1 7
1 8
1 9
1 10
1 11
1 12
1 13
1 14
1 15
1 16
1 17
1 18
1 19
1 20
1 21
1 22
1 23
1 24
POINT_DATA 25
VECTORS velocity double
-9.16048e-75 -0.00970858 0
-6.06898e-75 -0.00970858 0
-5.02275e-75 -0.00970858 0
-2.94388e-75 -0.00970858 0
3.85384e-75 -0.00970858 0
-2.73969e-76 -0.00970858 0
-3.15543e-75 -0.00970858 0
-8.10165e-75 -0.00970858 0
-9.23482e-75 -0.00970858 0
-1.06912e-74 -0.00970858 0
1.09284e-74 -0.00970858 0
1.83882e-75 -0.00970858 0
-6.06266e-75 -0.00970858 0
-3.91323e-75 -0.00970858 0
-8.92914e-75 -0.00970858 0
5.22705e-75 -0.00970858 0
-7.0069e-75 -0.00970858 0
8.99021e-75 -0.00970858 0
6.21572e-76 -0.00970858 0
-9.31786e-75 -0.00970858 0
-1.0849e-74 -0.00970858 0
-1.68502e-75 -0.00970858 0
8.19191e-76 -0.00970858 0
1.90695e-75 -0.00970858 0
1.00636e-74 -0.00970858 0
SCALARS radius double 1
LOOKUP_TABLE default
0.0005192
0.000759374
0.000731582
0.000932767
0.000864852
0.00092132
0.000824734
0.000662097
0.000535446
0.00094621
0.000999249
0.000802661
0.000671708
0.000819153
0.000645007
0.000827505
0.000602392
0.000772815
0.000550095
0.000626194
0.000886859
0.000531918
0.000790192
0.000909137
0.00096445
SCALARS mass double 1
LOOKUP_TABLE default
0.00228657
0.0048913
0.00453983
0.00738005
0.00634449
0.00720004
0.00576955
0.0037184
0.0024319
0.00759432
0.00846957
0.00546484
0.00382714
0.00569173
0.00352892
0.00580838
0.00307803
0.005066
0.00256678
0.00332607
0.00667148
0.00239995
0.00529637
0.00701087
0.00788992
