# vtk DataFile Version 3.0
DEM2D particles
ASCII
DATASET POLYDATA
POINTS 25 double
0.000210492 0.000289491 0
0.00247694 -0.000109799 0
0.00456711 0.000537529 0
0.00674628 0.000418814 0
0.00933215 0.00133594 0
0.000976388 0.00349012 0
0.00272805 0.00317456 0
0.00430175 0.00270575 0
0.00620408 0.00212844 0
0.00807857 0.0025744 0
0.00194188 0.00442708 0
0.00315848 0.00414615 0
0.00447748 0.00465035 0
0.00666273 0.00572291 0
0.00823043 0.00517543 0
0.0014505 0.00634575 0
0.0023961 0.00745912 0
0.00577483 0.0064842 0
0.00705357 0.00704581 0
0.00819693 0.00675153 0
6.49651e-05 0.00839272 0
0.00285477 0.00975272 0
0.0050706 0.00868551 0
0.00716435 0.00928052 0
0.00986735 0.00882943 0
VERTICES 25 50
1 0
1 1
1 2
1 3
1 4
1 5
1 6
1 7
1 8
1 9
1 10
1 11
1 12
1 13
1 14
1 15
1 16
1 17
1 18
1 19
1 20
1 21
1 22
1 23
1 24
POINT_DATA 25
VECTORS velocity double
-2.97675e-10 -0.00970858 0
-1.97215e-10 -0.00970858 0
-1.63217e-10 -0.00970858 0
-9.56629e-11 -0.00970858 0
1.25233e-10 -0.00970858 0
-8.90276e-12 -0.00970858 0
-1.02537e-10 -0.00970858 0
-2.63267e-10 -0.00970858 0
-3.00091e-10 -0.00970858 0
-3.47415e-10 -0.00970858 0
3.55125e-10 -0.00970858 0
5.97534e-11 -0.00970858 0
-1.9701e-10 -0.00970858 0
-1.27162e-10 -0.00970858 0
-2.90157e-10 -0.00970858 0
1.69856e-10 -0.00970858 0
-2.27693e-10 -0.00970858 0
2.92142e-10 -0.00970858 0
2.01983e-11 -0.00970858 0
-3.02789e-10 -0.00970858 0
-3.52544e-10 -0.00970858 0
-5.47555e-11 -0.00970858 0
2.66201e-11 -0.00970858 0
6.19675e-11 -0.00970858 0
3.27023e-10 -0.00970858 0
SCALARS radius double 1
LOOKUP_TABLE default
0.0005192
0.000759374
0.000731582
0.000932767
0.000864852
0.00092132
0.000824734
0.000662097
0.000535446
0.00094621
0.000999249
0.000802661
0.000671708
0.000819153
0.000645007
0.000827505
0.000602392
0.000772815
0.000550095
0.000626194
0.000886859
0.000531918
0.000790192
0.000909137
0.00096445
SCALARS mass double 1
LOOKUP_TABLE default
0.00228657
0.0048913
0.00453983
0.00738005
0.00634449
0.00720004
0.00576955
0.0037184
0.0024319
0.00759432
0.00846957
0.00546484
0.00382714
0.00569173
0.00352892
0.00580838
0.00307803
0.005066
0.00256678
0.00332607
0.00667148
0.00239995
0.00529637
0.00701087
0.00788992
