# vtk DataFile Version 3.0
DEM2D particles
ASCII
DATASET POLYDATA
POINTS 25 double
0.000210492 -0.00118233 0
0.00247694 -0.00158162 0
0.00456711 -0.000934293 0
0.00674628 -0.00105301 0
0.00933215 -0.00013588 0
0.000976388 0.00201829 0
0.00272805 0.00170274 0
0.00430175 0.00123393 0
0.00620408 0.000656615 0
0.00807857 0.00110258 0
0.00194188 0.00295526 0
0.00315848 0.00267433 0
0.00447748 0.00317853 0
0.00666273 0.00425109 0
0.00823043 0.00370361 0
0.0014505 0.00487393 0
0.0023961 0.0059873 0
0.00577483 0.00501238 0
0.00705357 0.00557399 0
0.00819693 0.0052797 0
6.49651e-05 0.00692089 0
0.00285477 0.0082809 0
0.0050706 0.00721369 0
0.00716435 0.0078087 0
0.00986735 0.00735761 0
VERTICES 25 50
1 0
1 1
1 2
1 3
1 4
1 5
1 6
1 7
1 8
1 9
1 10
1 11
1 12
1 13
1 14
1 15
1 16
1 17
1 18
1 19
1 20
1 21
1 22
1 23
1 24
POINT_DATA 25
VECTORS velocity double
-2.01044e-76 -0.00970858 0
-1.33196e-76 -0.00970858 0
-1.10234e-76 -0.00970858 0
-6.46091e-77 -0.00970858 0
8.45799e-77 -0.00970858 0
-6.01277e-78 -0.00970858 0
-6.92519e-77 -0.00970858 0
-1.77806e-76 -0.00970858 0
-2.02676e-76 -0.00970858 0
-2.34638e-76 -0.00970858 0
2.39846e-76 -0.00970858 0
4.03564e-77 -0.00970858 0
-1.33057e-76 -0.00970858 0
-8.58834e-77 -0.00970858 0
-1.95967e-76 -0.00970858 0
1.14718e-76 -0.00970858 0
-1.5378e-76 -0.00970858 0
1.97307e-76 -0.00970858 0
1.36416e-77 -0.00970858 0
-2.04498e-76 -0.00970858 0
-2.38102e-76 -0.00970858 0
-3.69809e-77 -0.00970858 0
1.79787e-77 -0.00970858 0
4.18518e-77 -0.00970858 0
2.20866e-76 -0.00970858 0
SCALARS radius double 1
LOOKUP_TABLE default
0.0005192
0.000759374
0.000731582
0.000932767
0.000864852
0.00092132
0.000824734
0.000662097
0.000535446
0.00094621
0.000999249
0.000802661
0.000671708
0.000819153
0.000645007
0.000827505
0.000602392
0.000772815
0.000550095
0.000626194
0.000886859
0.000531918
0.000790192
0.000909137
0.00096445
SCALARS mass double 1
LOOKUP_TABLE default
0.00228657
0.0048913
0.00453983
0.00738005
0.00634449
0.00720004
0.00576955
0.0037184
0.0024319
0.00759432
0.00846957
0.00546484
0.00382714
0.00569173
0.00352892
0.00580838
0.00307803
0.005066
0.00256678
0.00332607
0.00667148
0.00239995
0.00529637
0.00701087
0.00788992
