# vtk DataFile Version 3.0
DEM2D particles
ASCII
DATASET POLYDATA
POINTS 25 double
0.000210492 0.00025454 0
0.00247694 -0.000144749 0
0.00456711 0.000502578 0
0.00674628 0.000383864 0
0.00933215 0.00130099 0
0.000976388 0.00345516 0
0.00272805 0.00313961 0
0.00430175 0.0026708 0
0.00620408 0.00209349 0
0.00807857 0.00253945 0
0.00194188 0.00439213 0
0.00315848 0.0041112 0
0.00447748 0.0046154 0
0.00666273 0.00568796 0
0.00823043 0.00514048 0
0.0014505 0.0063108 0
0.0023961 0.00742417 0
0.00577483 0.00644925 0
0.00705357 0.00701086 0
0.00819693 0.00671657 0
6.49651e-05 0.00835776 0
0.00285477 0.00971777 0
0.0050706 0.00865056 0
0.00716435 0.00924557 0
0.00986735 0.00879448 0
VERTICES 25 50
1 0
1 1
1 2
1 3
1 4
1 5
1 6
1 7
1 8
1 9
1 10
1 11
1 12
1 13
1 14
1 15
1 16
1 17
1 18
1 19
1 20
1 21
1 22
1 23
1 24
POINT_DATA 25
VECTORS velocity double
-7.98752e-12 -0.00970858 0
-5.29188e-12 -0.00970858 0
-4.37961e-12 -0.00970858 0
-2.56693e-12 -0.00970858 0
3.36037e-12 -0.00970858 0
-2.38888e-13 -0.00970858 0
-2.75139e-12 -0.00970858 0
-7.06427e-12 -0.00970858 0
-8.05235e-12 -0.00970858 0
-9.32222e-12 -0.00970858 0
9.5291e-12 -0.00970858 0
1.60337e-12 -0.00970858 0
-5.28637e-12 -0.00970858 0
-3.41216e-12 -0.00970858 0
-7.78581e-12 -0.00970858 0
4.55775e-12 -0.00970858 0
-6.1097e-12 -0.00970858 0
7.83905e-12 -0.00970858 0
5.41983e-13 -0.00970858 0
-8.12475e-12 -0.00970858 0
-9.45982e-12 -0.00970858 0
-1.46926e-12 -0.00970858 0
7.14297e-13 -0.00970858 0
1.66278e-12 -0.00970858 0
8.77503e-12 -0.00970858 0
SCALARS radius double 1
LOOKUP_TABLE default
0.0005192
0.000759374
0.000731582
0.000932767
0.000864852
0.00092132
0.000824734
0.000662097
0.000535446
0.00094621
0.000999249
0.000802661
0.000671708
0.000819153
0.000645007
0.000827505
0.000602392
0.000772815
0.000550095
0.000626194
0.000886859
0.000531918
0.000790192
0.000909137
0.00096445
SCALARS mass double 1
LOOKUP_TABLE default
0.00228657
0.0048913
0.00453983
0.00738005
0.00634449
0.00720004
0.00576955
0.0037184
0.0024319
0.00759432
0.00846957
0.00546484
0.00382714
0.00569173
0.00352892
0.00580838
0.00307803
0.005066
0.00256678
0.00332607
0.00667148
0.00239995
0.00529637
0.00701087
0.00788992
