# vtk DataFile Version 3.0
DEM2D particles
ASCII
DATASET POLYDATA
POINTS 25 double
0.000210492 -0.0011435 0
0.00247694 -0.00154279 0
0.00456711 -0.000895458 0
0.00674628 -0.00101417 0
0.00933215 -9.70461e-05 0
0.000976388 0.00205713 0
0.00272805 0.00174158 0
0.00430175 0.00127276 0
0.00620408 0.000695449 0
0.00807857 0.00114141 0
0.00194188 0.00299409 0
0.00315848 0.00271317 0
0.00447748 0.00321737 0
0.00666273 0.00428992 0
0.00823043 0.00374244 0
0.0014505 0.00491276 0
0.0023961 0.00602613 0
0.00577483 0.00505121 0
0.00705357 0.00561282 0
0.00819693 0.00531854 0
6.49651e-05 0.00695973 0
0.00285477 0.00831973 0
0.0050706 0.00725252 0
0.00716435 0.00784754 0
0.00986735 0.00739644 0
VERTICES 25 50
1 0
1 1
1 2
1 3
1 4
1 5
1 6
1 7
1 8
1 9
1 10
1 11
1 12
1 13
1 14
1 15
1 16
1 17
1 18
1 19
1 20
1 21
1 22
1 23
1 24
POINT_DATA 25
VECTORS velocity double
-1.11999e-74 -0.00970858 0
-7.42014e-75 -0.00970858 0
-6.14098e-75 -0.00970858 0
-3.59928e-75 -0.00970858 0
4.71183e-75 -0.00970858 0
-3.34963e-76 -0.00970858 0
-3.85793e-75 -0.00970858 0
-9.90534e-75 -0.00970858 0
-1.12908e-74 -0.00970858 0
-1.30714e-74 -0.00970858 0
1.33615e-74 -0.00970858 0
2.2482e-75 -0.00970858 0
-7.41241e-75 -0.00970858 0
-4.78444e-75 -0.00970858 0
-1.09171e-74 -0.00970858 0
6.39076e-75 -0.00970858 0
-8.56686e-75 -0.00970858 0
1.09917e-74 -0.00970858 0
7.59954e-76 -0.00970858 0
-1.13923e-74 -0.00970858 0
-1.32643e-74 -0.00970858 0
-2.06016e-75 -0.00970858 0
1.00157e-75 -0.00970858 0
2.3315e-75 -0.00970858 0
1.23041e-74 -0.00970858 0
SCALARS radius double 1
LOOKUP_TABLE default
0.0005192
0.000759374
0.000731582
0.000932767
0.000864852
0.00092132
0.000824734
0.000662097
0.000535446
0.00094621
0.000999249
0.000802661
0.000671708
0.000819153
0.000645007
0.000827505
0.000602392
0.000772815
0.000550095
0.000626194
0.000886859
0.000531918
0.000790192
0.000909137
0.00096445
SCALARS mass double 1
LOOKUP_TABLE default
0.00228657
0.0048913
0.00453983
0.00738005
0.00634449
0.00720004
0.00576955
0.0037184
0.0024319
0.00759432
0.00846957
0.00546484
0.00382714
0.00569173
0.00352892
0.00580838
0.00307803
0.005066
0.00256678
0.00332607
0.00667148
0.00239995
0.00529637
0.00701087
0.00788992
