# vtk DataFile Version 3.0
DEM2D particles
ASCII
DATASET POLYDATA
POINTS 25 double
0.000210492 -0.00126 0
0.00247694 -0.00165929 0
0.00456711 -0.00101196 0
0.00674628 -0.00113068 0
0.00933215 -0.000213549 0
0.000976388 0.00194063 0
0.00272805 0.00162507 0
0.00430175 0.00115626 0
0.00620408 0.000578946 0
0.00807857 0.00102491 0
0.00194188 0.00287759 0
0.00315848 0.00259666 0
0.00447748 0.00310086 0
0.00666273 0.00417342 0
0.00823043 0.00362594 0
0.0014505 0.00479626 0
0.0023961 0.00590963 0
0.00577483 0.00493471 0
0.00705357 0.00549632 0
0.00819693 0.00520204 0
6.49651e-05 0.00684323 0
0.00285477 0.00820323 0
0.0050706 0.00713602 0
0.00716435 0.00773103 0
0.00986735 0.00727994 0
VERTICES 25 50
1 0
1 1
1 2
1 3
1 4
1 5
1 6
1 7
1 8
1 9
1 10
1 11
1 12
1 13
1 14
1 15
1 16
1 17
1 18
1 19
1 20
1 21
1 22
1 23
1 24
POINT_DATA 25
VECTORS velocity double
-6.4781e-80 -0.00970858 0
-4.29186e-80 -0.00970858 0
-3.55199e-80 -0.00970858 0
-2.08185e-80 -0.00970858 0
2.72535e-80 -0.00970858 0
-1.93745e-81 -0.00970858 0
-2.23145e-80 -0.00970858 0
-5.72932e-80 -0.00970858 0
-6.53068e-80 -0.00970858 0
-7.56058e-80 -0.00970858 0
7.72836e-80 -0.00970858 0
1.30037e-80 -0.00970858 0
-4.28739e-80 -0.00970858 0
-2.76735e-80 -0.00970858 0
-6.3145e-80 -0.00970858 0
3.69646e-80 -0.00970858 0
-4.95513e-80 -0.00970858 0
6.35769e-80 -0.00970858 0
4.39563e-81 -0.00970858 0
-6.5894e-80 -0.00970858 0
-7.67218e-80 -0.00970858 0
-1.19161e-80 -0.00970858 0
5.79315e-81 -0.00970858 0
1.34856e-80 -0.00970858 0
7.11679e-80 -0.00970858 0
SCALARS radius double 1
LOOKUP_TABLE default
0.0005192
0.000759374
0.000731582
0.000932767
0.000864852
0.00092132
0.000824734
0.000662097
0.000535446
0.00094621
0.000999249
0.000802661
0.000671708
0.000819153
0.000645007
0.000827505
0.000602392
0.000772815
0.000550095
0.000626194
0.000886859
0.000531918
0.000790192
0.000909137
0.00096445
SCALARS mass double 1
LOOKUP_TABLE default
0.00228657
0.0048913
0.00453983
0.00738005
0.00634449
0.00720004
0.00576955
0.0037184
0.0024319
0.00759432
0.00846957
0.00546484
0.00382714
0.00569173
0.00352892
0.00580838
0.00307803
0.005066
0.00256678
0.00332607
0.00667148
0.00239995
0.00529637
0.00701087
0.00788992
