# vtk DataFile Version 3.0
DEM2D particles
ASCII
DATASET POLYDATA
POINTS 25 double
0.000210492 -0.00083088 0
0.00247694 -0.00123017 0
0.00456711 -0.000582842 0
0.00674628 -0.000701556 0
0.00933215 0.00021557 0
0.000976388 0.00236975 0
0.00272805 0.00205419 0
0.00430175 0.00158538 0
0.00620408 0.00100807 0
0.00807857 0.00145403 0
0.00194188 0.00330671 0
0.00315848 0.00302578 0
0.00447748 0.00352998 0
0.00666273 0.00460254 0
0.00823043 0.00405506 0
0.0014505 0.00522538 0
0.0023961 0.00633875 0
0.00577483 0.00536383 0
0.00705357 0.00592544 0
0.00819693 0.00563115 0
6.49651e-05 0.00727235 0
0.00285477 0.00863235 0
0.0050706 0.00756514 0
0.00716435 0.00816015 0
0.00986735 0.00770906 0
VERTICES 25 50
1 0
1 1
1 2
1 3
1 4
1 5
1 6
1 7
1 8
1 9
1 10
1 11
1 12
1 13
1 14
1 15
1 16
1 17
1 18
1 19
1 20
1 21
1 22
1 23
1 24
POINT_DATA 25
VECTORS velocity double
-1.27025e-60 -0.00970858 0
-8.4156e-61 -0.00970858 0
-6.96484e-61 -0.00970858 0
-4.08215e-61 -0.00970858 0
5.34396e-61 -0.00970858 0
-3.79901e-62 -0.00970858 0
-4.3755e-61 -0.00970858 0
-1.12342e-60 -0.00970858 0
-1.28055e-60 -0.00970858 0
-1.4825e-60 -0.00970858 0
1.5154e-60 -0.00970858 0
2.54981e-61 -0.00970858 0
-8.40684e-61 -0.00970858 0
-5.42631e-61 -0.00970858 0
-1.23817e-60 -0.00970858 0
7.24813e-61 -0.00970858 0
-9.71617e-61 -0.00970858 0
1.24663e-60 -0.00970858 0
8.61908e-62 -0.00970858 0
-1.29207e-60 -0.00970858 0
-1.50438e-60 -0.00970858 0
-2.33654e-61 -0.00970858 0
1.13594e-61 -0.00970858 0
2.64429e-61 -0.00970858 0
1.39548e-60 -0.00970858 0
SCALARS radius double 1
LOOKUP_TABLE default
0.0005192
0.000759374
0.000731582
0.000932767
0.000864852
0.00092132
0.000824734
0.000662097
0.000535446
0.00094621
0.000999249
0.000802661
0.000671708
0.000819153
0.000645007
0.000827505
0.000602392
0.000772815
0.000550095
0.000626194
0.000886859
0.000531918
0.000790192
0.000909137
0.00096445
SCALARS mass double 1
LOOKUP_TABLE default
0.00228657
0.0048913
0.00453983
0.00738005
0.00634449
0.00720004
0.00576955
0.0037184
0.0024319
0.00759432
0.00846957
0.00546484
0.00382714
0.00569173
0.00352892
0.00580838
0.00307803
0.005066
0.00256678
0.00332607
0.00667148
0.00239995
0.00529637
0.00701087
0.00788992
