# vtk DataFile Version 3.0
DEM2D particles
ASCII
DATASET POLYDATA
POINTS 25 double
0.000210492 0.00019823 0
0.00247694 -0.000201059 0
0.00456711 0.000446268 0
0.00674628 0.000327554 0
0.00933215 0.00124468 0
0.000976388 0.00339885 0
0.00272805 0.0030833 0
0.00430175 0.00261449 0
0.00620408 0.00203718 0
0.00807857 0.00248314 0
0.00194188 0.00433582 0
0.00315848 0.00405489 0
0.00447748 0.00455909 0
0.00666273 0.00563165 0
0.00823043 0.00508417 0
0.0014505 0.00625449 0
0.0023961 0.00736786 0
0.00577483 0.00639294 0
0.00705357 0.00695455 0
0.00819693 0.00666026 0
6.49651e-05 0.00830145 0
0.00285477 0.00966146 0
0.0050706 0.00859425 0
0.00716435 0.00918926 0
0.00986735 0.00873817 0
VERTICES 25 50
1 0
1 1
1 2
1 3
1 4
1 5
1 6
1 7
1 8
1 9
1 10
1 11
1 12
1 13
1 14
1 15
1 16
1 17
1 18
1 19
1 20
1 21
1 22
1 23
1 24
POINT_DATA 25
VECTORS velocity double
-2.34869e-14 -0.00970858 0
-1.55605e-14 -0.00970858 0
-1.2878e-14 -0.00970858 0
-7.54791e-15 -0.00970858 0
9.88098e-15 -0.00970858 0
-7.02437e-16 -0.00970858 0
-8.0903e-15 -0.00970858 0
-2.07721e-14 -0.00970858 0
-2.36775e-14 -0.00970858 0
-2.74115e-14 -0.00970858 0
2.80198e-14 -0.00970858 0
4.71461e-15 -0.00970858 0
-1.55443e-14 -0.00970858 0
-1.00333e-14 -0.00970858 0
-2.28937e-14 -0.00970858 0
1.34018e-14 -0.00970858 0
-1.79652e-14 -0.00970858 0
2.30503e-14 -0.00970858 0
1.59367e-15 -0.00970858 0
-2.38904e-14 -0.00970858 0
-2.78161e-14 -0.00970858 0
-4.32027e-15 -0.00970858 0
2.10035e-15 -0.00970858 0
4.8893e-15 -0.00970858 0
2.58025e-14 -0.00970858 0
SCALARS radius double 1
LOOKUP_TABLE default
0.0005192
0.000759374
0.000731582
0.000932767
0.000864852
0.00092132
0.000824734
0.000662097
0.000535446
0.00094621
0.000999249
0.000802661
0.000671708
0.000819153
0.000645007
0.000827505
0.000602392
0.000772815
0.000550095
0.000626194
0.000886859
0.000531918
0.000790192
0.000909137
0.00096445
SCALARS mass double 1
LOOKUP_TABLE default
0.00228657
0.0048913
0.00453983
0.00738005
0.00634449
0.00720004
0.00576955
0.0037184
0.0024319
0.00759432
0.00846957
0.00546484
0.00382714
0.00569173
0.00352892
0.00580838
0.00307803
0.005066
0.00256678
0.00332607
0.00667148
0.00239995
0.00529637
0.00701087
0.00788992
