# vtk DataFile Version 3.0
DEM2D particles
ASCII
DATASET POLYDATA
POINTS 25 double
0.000210492 0.000338034 0
0.00247694 -6.12556e-05 0
0.00456711 0.000586071 0
0.00674628 0.000467357 0
0.00933215 0.00138448 0
0.000976388 0.00353866 0
0.00272805 0.00322311 0
0.00430175 0.00275429 0
0.00620408 0.00217698 0
0.00807857 0.00262294 0
0.00194188 0.00447562 0
0.00315848 0.0041947 0
0.00447748 0.0046989 0
0.00666273 0.00577145 0
0.00823043 0.00522397 0
0.0014505 0.00639429 0
0.0023961 0.00750766 0
0.00577483 0.00653274 0
0.00705357 0.00709435 0
0.00819693 0.00680007 0
6.49651e-05 0.00844126 0
0.00285477 0.00980126 0
0.0050706 0.00873405 0
0.00716435 0.00932907 0
0.00986735 0.00887797 0
VERTICES 25 50
1 0
1 1
1 2
1 3
1 4
1 5
1 6
1 7
1 8
1 9
1 10
1 11
1 12
1 13
1 14
1 15
1 16
1 17
1 18
1 19
1 20
1 21
1 22
1 23
1 24
POINT_DATA 25
VECTORS velocity double
-4.53048e-08 -0.00970861 0
-3.00153e-08 -0.00970864 0
-2.48409e-08 -0.0097086 0
-1.45595e-08 -0.0097086 0
1.90599e-08 -0.00970855 0
-1.35496e-09 -0.00970854 0
-1.56057e-08 -0.00970856 0
-4.00682e-08 -0.00970859 0
-4.56725e-08 -0.00970862 0
-5.28752e-08 -0.0097086 0
5.40486e-08 -0.0097086 0
9.09422e-09 -0.00970862 0
-2.9984e-08 -0.00970859 0
-1.93536e-08 -0.00970853 0
-4.41607e-08 -0.00970856 0
2.58513e-08 -0.00970861 0
-3.46539e-08 -0.00970855 0
4.44627e-08 -0.0097086 0
3.0741e-09 -0.00970857 0
-4.60832e-08 -0.00970859 0
-5.36557e-08 -0.00970861 0
-8.33356e-09 -0.00970853 0
4.05146e-09 -0.00970859 0
9.43119e-09 -0.00970856 0
4.97715e-08 -0.00970858 0
SCALARS radius double 1
LOOKUP_TABLE default
0.0005192
0.000759374
0.000731582
0.000932767
0.000864852
0.00092132
0.000824734
0.000662097
0.000535446
0.00094621
0.000999249
0.000802661
0.000671708
0.000819153
0.000645007
0.000827505
0.000602392
0.000772815
0.000550095
0.000626194
0.000886859
0.000531918
0.000790192
0.000909137
0.00096445
SCALARS mass double 1
LOOKUP_TABLE default
0.00228657
0.0048913
0.00453983
0.00738005
0.00634449
0.00720004
0.00576955
0.0037184
0.0024319
0.00759432
0.00846957
0.00546484
0.00382714
0.00569173
0.00352892
0.00580838
0.00307803
0.005066
0.00256678
0.00332607
0.00667148
0.00239995
0.00529637
0.00701087
0.00788992
