# vtk DataFile Version 3.0
DEM2D particles
ASCII
DATASET POLYDATA
POINTS 25 double
0.000210492 0.000161337 0
0.00247694 -0.000237952 0
0.00456711 0.000409375 0
0.00674628 0.000290661 0
0.00933215 0.00120779 0
0.000976388 0.00336196 0
0.00272805 0.00304641 0
0.00430175 0.0025776 0
0.00620408 0.00200028 0
0.00807857 0.00244624 0
0.00194188 0.00429892 0
0.00315848 0.004018 0
0.00447748 0.0045222 0
0.00666273 0.00559475 0
0.00823043 0.00504727 0
0.0014505 0.0062176 0
0.0023961 0.00733097 0
0.00577483 0.00635605 0
0.00705357 0.00691766 0
0.00819693 0.00662337 0
6.49651e-05 0.00826456 0
0.00285477 0.00962457 0
0.0050706 0.00855736 0
0.00716435 0.00915237 0
0.00986735 0.00870128 0
VERTICES 25 50
1 0
1 1
1 2
1 3
1 4
1 5
1 6
1 7
1 8
1 9
1 10
1 11
1 12
1 13
1 14
1 15
1 16
1 17
1 18
1 19
1 20
1 21
1 22
1 23
1 24
POINT_DATA 25
VECTORS velocity double
-5.15464e-16 -0.00970858 0
-3.41505e-16 -0.00970858 0
-2.82633e-16 -0.00970858 0
-1.65653e-16 -0.00970858 0
2.16857e-16 -0.00970858 0
-1.54163e-17 -0.00970858 0
-1.77557e-16 -0.00970858 0
-4.55884e-16 -0.00970858 0
-5.19648e-16 -0.00970858 0
-6.01597e-16 -0.00970858 0
6.14948e-16 -0.00970858 0
1.03471e-16 -0.00970858 0
-3.41149e-16 -0.00970858 0
-2.20199e-16 -0.00970858 0
-5.02447e-16 -0.00970858 0
2.94129e-16 -0.00970858 0
-3.94281e-16 -0.00970858 0
5.05883e-16 -0.00970858 0
3.49762e-17 -0.00970858 0
-5.2432e-16 -0.00970858 0
-6.10478e-16 -0.00970858 0
-9.48166e-17 -0.00970858 0
4.60963e-17 -0.00970858 0
1.07305e-16 -0.00970858 0
5.66285e-16 -0.00970858 0
SCALARS radius double 1
LOOKUP_TABLE default
0.0005192
0.000759374
0.000731582
0.000932767
0.000864852
0.00092132
0.000824734
0.000662097
0.000535446
0.00094621
0.000999249
0.000802661
0.000671708
0.000819153
0.000645007
0.000827505
0.000602392
0.000772815
0.000550095
0.000626194
0.000886859
0.000531918
0.000790192
0.000909137
0.00096445
SCALARS mass double 1
LOOKUP_TABLE default
0.00228657
0.0048913
0.00453983
0.00738005
0.00634449
0.00720004
0.00576955
0.0037184
0.0024319
0.00759432
0.00846957
0.00546484
0.00382714
0.00569173
0.00352892
0.00580838
0.00307803
0.005066
0.00256678
0.00332607
0.00667148
0.00239995
0.00529637
0.00701087
0.00788992
