# vtk DataFile Version 3.0
DEM2D particles
ASCII
DATASET POLYDATA
POINTS 25 double
0.000210492 -0.00113961 0
0.00247694 -0.0015389 0
0.00456711 -0.000891575 0
0.00674628 -0.00101029 0
0.00933215 -9.31626e-05 0
0.000976388 0.00206101 0
0.00272805 0.00174546 0
0.00430175 0.00127665 0
0.00620408 0.000699333 0
0.00807857 0.00114529 0
0.00194188 0.00299797 0
0.00315848 0.00271705 0
0.00447748 0.00322125 0
0.00666273 0.0042938 0
0.00823043 0.00374632 0
0.0014505 0.00491665 0
0.0023961 0.00603002 0
0.00577483 0.0050551 0
0.00705357 0.00561671 0
0.00819693 0.00532242 0
6.49651e-05 0.00696361 0
0.00285477 0.00832362 0
0.0050706 0.00725641 0
0.00716435 0.00785142 0
0.00986735 0.00740033 0
VERTICES 25 50
1 0
1 1
1 2
1 3
1 4
1 5
1 6
1 7
1 8
1 9
1 10
1 11
1 12
1 13
1 14
1 15
1 16
1 17
1 18
1 19
1 20
1 21
1 22
1 23
1 24
POINT_DATA 25
VECTORS velocity double
-1.6742e-74 -0.00970858 0
-1.10919e-74 -0.00970858 0
-9.17973e-75 -0.00970858 0
-5.38032e-75 -0.00970858 0
7.04339e-75 -0.00970858 0
-5.00713e-76 -0.00970858 0
-5.76695e-75 -0.00970858 0
-1.48068e-74 -0.00970858 0
-1.68778e-74 -0.00970858 0
-1.95395e-74 -0.00970858 0
1.99731e-74 -0.00970858 0
3.36068e-75 -0.00970858 0
-1.10803e-74 -0.00970858 0
-7.15193e-75 -0.00970858 0
-1.63192e-74 -0.00970858 0
9.55311e-75 -0.00970858 0
-1.2806e-74 -0.00970858 0
1.64308e-74 -0.00970858 0
1.136e-75 -0.00970858 0
-1.70296e-74 -0.00970858 0
-1.98279e-74 -0.00970858 0
-3.07958e-75 -0.00970858 0
1.49718e-75 -0.00970858 0
3.4852e-75 -0.00970858 0
1.83926e-74 -0.00970858 0
SCALARS radius double 1
LOOKUP_TABLE default
0.0005192
0.000759374
0.000731582
0.000932767
0.000864852
0.00092132
0.000824734
0.000662097
0.000535446
0.00094621
0.000999249
0.000802661
0.000671708
0.000819153
0.000645007
0.000827505
0.000602392
0.000772815
0.000550095
0.000626194
0.000886859
0.000531918
0.000790192
0.000909137
0.00096445
SCALARS mass double 1
LOOKUP_TABLE default
0.00228657
0.0048913
0.00453983
0.00738005
0.00634449
0.00720004
0.00576955
0.0037184
0.0024319
0.00759432
0.00846957
0.00546484
0.00382714
0.00569173
0.00352892
0.00580838
0.00307803
0.005066
0.00256678
0.00332607
0.00667148
0.00239995
0.00529637
0.00701087
0.00788992
