# vtk DataFile Version 3.0
DEM2D particles
ASCII
DATASET POLYDATA
POINTS 25 double
0.000211187 0.000431677 0
0.0024774 3.27391e-05 0
0.00456749 0.000679496 0
0.0067465 0.000560887 0
0.00933186 0.00147721 0
0.000976408 0.00363124 0
0.00272828 0.00331597 0
0.00430236 0.00284757 0
0.00620478 0.00227076 0
0.00807938 0.00271633 0
0.00194105 0.00456914 0
0.00315834 0.00428846 0
0.00447794 0.00479222 0
0.00666303 0.00586383 0
0.00823111 0.00531683 0
0.0014501 0.00648789 0
0.00239663 0.00760028 0
0.00577415 0.00662621 0
0.00705352 0.00718733 0
0.00819763 0.0068933 0
6.57882e-05 0.00853481 0
0.0028549 0.00989362 0
0.00507054 0.00882735 0
0.00716421 0.00942184 0
0.00986658 0.00897114 0
VERTICES 25 50
1 0
1 1
1 2
1 3
1 4
1 5
1 6
1 7
1 8
1 9
1 10
1 11
1 12
1 13
1 14
1 15
1 16
1 17
1 18
1 19
1 20
1 21
1 22
1 23
1 24
POINT_DATA 25
VECTORS velocity double
-0.000702033 -0.0101539 0
-0.00046511 -0.0105089 0
-0.00038493 -0.00993334 0
-0.000225611 -0.0100389 0
0.000295347 -0.00922339 0
-2.09962e-05 -0.0090863 0
-0.000241823 -0.00936689 0
-0.000620888 -0.00978376 0
-0.000707731 -0.0102971 0
-0.000819342 -0.00990056 0
0.000837525 -0.0100316 0
0.000140922 -0.0102814 0
-0.000464626 -0.00983302 0
-0.000299899 -0.0088793 0
-0.000684304 -0.00936612 0
0.000400587 -0.0101039 0
-0.000536989 -0.00911386 0
0.000688984 -0.00998076 0
4.76356e-05 -0.00948138 0
-0.000714095 -0.00974306 0
-0.000831436 -0.0100621 0
-0.000129135 -0.00885279 0
6.27805e-05 -0.00980176 0
0.000146144 -0.00927267 0
0.000771248 -0.00967378 0
SCALARS radius double 1
LOOKUP_TABLE default
0.0005192
0.000759374
0.000731582
0.000932767
0.000864852
0.00092132
0.000824734
0.000662097
0.000535446
0.00094621
0.000999249
0.000802661
0.000671708
0.000819153
0.000645007
0.000827505
0.000602392
0.000772815
0.000550095
0.000626194
0.000886859
0.000531918
0.000790192
0.000909137
0.00096445
SCALARS mass double 1
LOOKUP_TABLE default
0.00228657
0.0048913
0.00453983
0.00738005
0.00634449
0.00720004
0.00576955
0.0037184
0.0024319
0.00759432
0.00846957
0.00546484
0.00382714
0.00569173
0.00352892
0.00580838
0.00307803
0.005066
0.00256678
0.00332607
0.00667148
0.00239995
0.00529637
0.00701087
0.00788992
