# vtk DataFile Version 3.0
DEM2D particles
ASCII
DATASET POLYDATA
POINTS 25 double
0.000210492 -0.00017458 0
0.00247694 -0.000573869 0
0.00456711 7.34582e-05 0
0.00674628 -4.52559e-05 0
0.00933215 0.000871871 0
0.000976388 0.00302605 0
0.00272805 0.00271049 0
0.00430175 0.00224168 0
0.00620408 0.00166437 0
0.00807857 0.00211033 0
0.00194188 0.00396301 0
0.00315848 0.00368208 0
0.00447748 0.00418628 0
0.00666273 0.00525884 0
0.00823043 0.00471136 0
0.0014505 0.00588168 0
0.0023961 0.00699505 0
0.00577483 0.00602013 0
0.00705357 0.00658174 0
0.00819693 0.00628745 0
6.49651e-05 0.00792865 0
0.00285477 0.00928865 0
0.0050706 0.00822144 0
0.00716435 0.00881645 0
0.00986735 0.00836536 0
VERTICES 25 50
1 0
1 1
1 2
1 3
1 4
1 5
1 6
1 7
1 8
1 9
1 10
1 11
1 12
1 13
1 14
1 15
1 16
1 17
1 18
1 19
1 20
1 21
1 22
1 23
1 24
POINT_DATA 25
VECTORS velocity double
-4.07354e-31 -0.00970858 0
-2.69879e-31 -0.00970858 0
-2.23355e-31 -0.00970858 0
-1.3091e-31 -0.00970858 0
1.71375e-31 -0.00970858 0
-1.2183e-32 -0.00970858 0
-1.40318e-31 -0.00970858 0
-3.60269e-31 -0.00970858 0
-4.1066e-31 -0.00970858 0
-4.75422e-31 -0.00970858 0
4.85973e-31 -0.00970858 0
8.17698e-32 -0.00970858 0
-2.69598e-31 -0.00970858 0
-1.74016e-31 -0.00970858 0
-3.97067e-31 -0.00970858 0
2.3244e-31 -0.00970858 0
-3.11587e-31 -0.00970858 0
3.99782e-31 -0.00970858 0
2.76405e-32 -0.00970858 0
-4.14353e-31 -0.00970858 0
-4.8244e-31 -0.00970858 0
-7.49304e-32 -0.00970858 0
3.64283e-32 -0.00970858 0
8.47996e-32 -0.00970858 0
4.47516e-31 -0.00970858 0
SCALARS radius double 1
LOOKUP_TABLE default
0.0005192
0.000759374
0.000731582
0.000932767
0.000864852
0.00092132
0.000824734
0.000662097
0.000535446
0.00094621
0.000999249
0.000802661
0.000671708
0.000819153
0.000645007
0.000827505
0.000602392
0.000772815
0.000550095
0.000626194
0.000886859
0.000531918
0.000790192
0.000909137
0.00096445
SCALARS mass double 1
LOOKUP_TABLE default
0.00228657
0.0048913
0.00453983
0.00738005
0.00634449
0.00720004
0.00576955
0.0037184
0.0024319
0.00759432
0.00846957
0.00546484
0.00382714
0.00569173
0.00352892
0.00580838
0.00307803
0.005066
0.00256678
0.00332607
0.00667148
0.00239995
0.00529637
0.00701087
0.00788992
