# vtk DataFile Version 3.0
DEM2D particles
ASCII
DATASET POLYDATA
POINTS 25 double
0.000210492 -0.000679426 0
0.00247694 -0.00107872 0
0.00456711 -0.000431388 0
0.00674628 -0.000550102 0
0.00933215 0.000367024 0
0.000976388 0.0025212 0
0.00272805 0.00220565 0
0.00430175 0.00173684 0
0.00620408 0.00115952 0
0.00807857 0.00160548 0
0.00194188 0.00345816 0
0.00315848 0.00317724 0
0.00447748 0.00368144 0
0.00666273 0.00475399 0
0.00823043 0.00420651 0
0.0014505 0.00537683 0
0.0023961 0.0064902 0
0.00577483 0.00551528 0
0.00705357 0.0060769 0
0.00819693 0.00578261 0
6.49651e-05 0.0074238 0
0.00285477 0.0087838 0
0.0050706 0.00771659 0
0.00716435 0.00831161 0
0.00986735 0.00786051 0
VERTICES 25 50
1 0
1 1
1 2
1 3
1 4
1 5
1 6
1 7
1 8
1 9
1 10
1 11
1 12
1 13
1 14
1 15
1 16
1 17
1 18
1 19
1 20
1 21
1 22
1 23
1 24
POINT_DATA 25
VECTORS velocity double
-8.18435e-54 -0.00970858 0
-5.42228e-54 -0.00970858 0
-4.48753e-54 -0.00970858 0
-2.63018e-54 -0.00970858 0
3.44318e-54 -0.00970858 0
-2.44775e-55 -0.00970858 0
-2.81919e-54 -0.00970858 0
-7.23834e-54 -0.00970858 0
-8.25077e-54 -0.00970858 0
-9.55193e-54 -0.00970858 0
9.76391e-54 -0.00970858 0
1.64288e-54 -0.00970858 0
-5.41663e-54 -0.00970858 0
-3.49624e-54 -0.00970858 0
-7.97766e-54 -0.00970858 0
4.67006e-54 -0.00970858 0
-6.26025e-54 -0.00970858 0
8.03222e-54 -0.00970858 0
5.55338e-55 -0.00970858 0
-8.32496e-54 -0.00970858 0
-9.69293e-54 -0.00970858 0
-1.50546e-54 -0.00970858 0
7.31899e-55 -0.00970858 0
1.70375e-54 -0.00970858 0
8.99126e-54 -0.00970858 0
SCALARS radius double 1
LOOKUP_TABLE default
0.0005192
0.000759374
0.000731582
0.000932767
0.000864852
0.00092132
0.000824734
0.000662097
0.000535446
0.00094621
0.000999249
0.000802661
0.000671708
0.000819153
0.000645007
0.000827505
0.000602392
0.000772815
0.000550095
0.000626194
0.000886859
0.000531918
0.000790192
0.000909137
0.00096445
SCALARS mass double 1
LOOKUP_TABLE default
0.00228657
0.0048913
0.00453983
0.00738005
0.00634449
0.00720004
0.00576955
0.0037184
0.0024319
0.00759432
0.00846957
0.00546484
0.00382714
0.00569173
0.00352892
0.00580838
0.00307803
0.005066
0.00256678
0.00332607
0.00667148
0.00239995
0.00529637
0.00701087
0.00788992
