# vtk DataFile Version 3.0
DEM2D particles
ASCII
DATASET POLYDATA
POINTS 25 double
0.000210492 0.00013027 0
0.00247694 -0.000269019 0
0.00456711 0.000378308 0
0.00674628 0.000259594 0
0.00933215 0.00117672 0
0.000976388 0.00333089 0
0.00272805 0.00301534 0
0.00430175 0.00254653 0
0.00620408 0.00196922 0
0.00807857 0.00241518 0
0.00194188 0.00426786 0
0.00315848 0.00398693 0
0.00447748 0.00449113 0
0.00666273 0.00556369 0
0.00823043 0.00501621 0
0.0014505 0.00618653 0
0.0023961 0.0072999 0
0.00577483 0.00632498 0
0.00705357 0.00688659 0
0.00819693 0.0065923 0
6.49651e-05 0.00823349 0
0.00285477 0.0095935 0
0.0050706 0.00852629 0
0.00716435 0.0091213 0
0.00986735 0.00867021 0
VERTICES 25 50
1 0
1 1
1 2
1 3
1 4
1 5
1 6
1 7
1 8
1 9
1 10
1 11
1 12
1 13
1 14
1 15
1 16
1 17
1 18
1 19
1 20
1 21
1 22
1 23
1 24
POINT_DATA 25
VECTORS velocity double
-2.06757e-17 -0.00970858 0
-1.36981e-17 -0.00970858 0
-1.13366e-17 -0.00970858 0
-6.64451e-18 -0.00970858 0
8.69834e-18 -0.00970858 0
-6.18363e-19 -0.00970858 0
-7.12198e-18 -0.00970858 0
-1.82859e-17 -0.00970858 0
-2.08435e-17 -0.00970858 0
-2.41306e-17 -0.00970858 0
2.46661e-17 -0.00970858 0
4.15032e-18 -0.00970858 0
-1.36838e-17 -0.00970858 0
-8.83239e-18 -0.00970858 0
-2.01536e-17 -0.00970858 0
1.17978e-17 -0.00970858 0
-1.5815e-17 -0.00970858 0
2.02914e-17 -0.00970858 0
1.40292e-18 -0.00970858 0
-2.1031e-17 -0.00970858 0
-2.44868e-17 -0.00970858 0
-3.80318e-18 -0.00970858 0
1.84896e-18 -0.00970858 0
4.30411e-18 -0.00970858 0
2.27142e-17 -0.00970858 0
SCALARS radius double 1
LOOKUP_TABLE default
0.0005192
0.000759374
0.000731582
0.000932767
0.000864852
0.00092132
0.000824734
0.000662097
0.000535446
0.00094621
0.000999249
0.000802661
0.000671708
0.000819153
0.000645007
0.000827505
0.000602392
0.000772815
0.000550095
0.000626194
0.000886859
0.000531918
0.000790192
0.000909137
0.00096445
SCALARS mass double 1
LOOKUP_TABLE default
0.00228657
0.0048913
0.00453983
0.00738005
0.00634449
0.00720004
0.00576955
0.0037184
0.0024319
0.00759432
0.00846957
0.00546484
0.00382714
0.00569173
0.00352892
0.00580838
0.00307803
0.005066
0.00256678
0.00332607
0.00667148
0.00239995
0.00529637
0.00701087
0.00788992
