# vtk DataFile Version 3.0
DEM2D particles
ASCII
DATASET POLYDATA
POINTS 25 double
0.000210492 -0.000217297 0
0.00247694 -0.000616587 0
0.00456711 3.07405e-05 0
0.00674628 -8.79736e-05 0
0.00933215 0.000829153 0
0.000976388 0.00298333 0
0.00272805 0.00266777 0
0.00430175 0.00219896 0
0.00620408 0.00162165 0
0.00807857 0.00206761 0
0.00194188 0.00392029 0
0.00315848 0.00363936 0
0.00447748 0.00414357 0
0.00666273 0.00521612 0
0.00823043 0.00466864 0
0.0014505 0.00583896 0
0.0023961 0.00695233 0
0.00577483 0.00597741 0
0.00705357 0.00653902 0
0.00819693 0.00624474 0
6.49651e-05 0.00788593 0
0.00285477 0.00924593 0
0.0050706 0.00817872 0
0.00716435 0.00877373 0
0.00986735 0.00832264 0
VERTICES 25 50
1 0
1 1
1 2
1 3
1 4
1 5
1 6
1 7
1 8
1 9
1 10
1 11
1 12
1 13
1 14
1 15
1 16
1 17
1 18
1 19
1 20
1 21
1 22
1 23
1 24
POINT_DATA 25
VECTORS velocity double
-4.89168e-33 -0.00970858 0
-3.24082e-33 -0.00970858 0
-2.68214e-33 -0.00970858 0
-1.57203e-33 -0.00970858 0
2.05794e-33 -0.00970858 0
-1.46299e-34 -0.00970858 0
-1.68499e-33 -0.00970858 0
-4.32626e-33 -0.00970858 0
-4.93138e-33 -0.00970858 0
-5.70906e-33 -0.00970858 0
5.83576e-33 -0.00970858 0
9.81925e-34 -0.00970858 0
-3.23745e-33 -0.00970858 0
-2.08966e-33 -0.00970858 0
-4.76814e-33 -0.00970858 0
2.79123e-33 -0.00970858 0
-3.74167e-33 -0.00970858 0
4.80075e-33 -0.00970858 0
3.31918e-34 -0.00970858 0
-4.97572e-33 -0.00970858 0
-5.79334e-33 -0.00970858 0
-8.99795e-34 -0.00970858 0
4.37446e-34 -0.00970858 0
1.01831e-33 -0.00970858 0
5.37396e-33 -0.00970858 0
SCALARS radius double 1
LOOKUP_TABLE default
0.0005192
0.000759374
0.000731582
0.000932767
0.000864852
0.00092132
0.000824734
0.000662097
0.000535446
0.00094621
0.000999249
0.000802661
0.000671708
0.000819153
0.000645007
0.000827505
0.000602392
0.000772815
0.000550095
0.000626194
0.000886859
0.000531918
0.000790192
0.000909137
0.00096445
SCALARS mass double 1
LOOKUP_TABLE default
0.00228657
0.0048913
0.00453983
0.00738005
0.00634449
0.00720004
0.00576955
0.0037184
0.0024319
0.00759432
0.00846957
0.00546484
0.00382714
0.00569173
0.00352892
0.00580838
0.00307803
0.005066
0.00256678
0.00332607
0.00667148
0.00239995
0.00529637
0.00701087
0.00788992
