# vtk DataFile Version 3.0
DEM2D particles
ASCII
DATASET POLYDATA
POINTS 25 double
0.000210492 -0.000926024 0
0.00247694 -0.00132531 0
0.00456711 -0.000677986 0
0.00674628 -0.0007967 0
0.00933215 0.000120426 0
0.000976388 0.0022746 0
0.00272805 0.00195905 0
0.00430175 0.00149024 0
0.00620408 0.000912922 0
0.00807857 0.00135888 0
0.00194188 0.00321156 0
0.00315848 0.00293064 0
0.00447748 0.00343484 0
0.00666273 0.00450739 0
0.00823043 0.00395991 0
0.0014505 0.00513024 0
0.0023961 0.00624361 0
0.00577483 0.00526868 0
0.00705357 0.0058303 0
0.00819693 0.00553601 0
6.49651e-05 0.0071772 0
0.00285477 0.00853721 0
0.0050706 0.00746999 0
0.00716435 0.00806501 0
0.00986735 0.00761392 0
VERTICES 25 50
1 0
1 1
1 2
1 3
1 4
1 5
1 6
1 7
1 8
1 9
1 10
1 11
1 12
1 13
1 14
1 15
1 16
1 17
1 18
1 19
1 20
1 21
1 22
1 23
1 24
POINT_DATA 25
VECTORS velocity double
-6.70468e-65 -0.00970858 0
-4.44197e-65 -0.00970858 0
-3.67622e-65 -0.00970858 0
-2.15467e-65 -0.00970858 0
2.82068e-65 -0.00970858 0
-2.00522e-66 -0.00970858 0
-2.3095e-65 -0.00970858 0
-5.92971e-65 -0.00970858 0
-6.7591e-65 -0.00970858 0
-7.82502e-65 -0.00970858 0
7.99868e-65 -0.00970858 0
1.34586e-65 -0.00970858 0
-4.43735e-65 -0.00970858 0
-2.86415e-65 -0.00970858 0
-6.53537e-65 -0.00970858 0
3.82575e-65 -0.00970858 0
-5.12845e-65 -0.00970858 0
6.58006e-65 -0.00970858 0
4.54937e-66 -0.00970858 0
-6.81987e-65 -0.00970858 0
-7.94053e-65 -0.00970858 0
-1.23329e-65 -0.00970858 0
5.99578e-66 -0.00970858 0
1.39573e-65 -0.00970858 0
7.36571e-65 -0.00970858 0
SCALARS radius double 1
LOOKUP_TABLE default
0.0005192
0.000759374
0.000731582
0.000932767
0.000864852
0.00092132
0.000824734
0.000662097
0.000535446
0.00094621
0.000999249
0.000802661
0.000671708
0.000819153
0.000645007
0.000827505
0.000602392
0.000772815
0.000550095
0.000626194
0.000886859
0.000531918
0.000790192
0.000909137
0.00096445
SCALARS mass double 1
LOOKUP_TABLE default
0.00228657
0.0048913
0.00453983
0.00738005
0.00634449
0.00720004
0.00576955
0.0037184
0.0024319
0.00759432
0.00846957
0.00546484
0.00382714
0.00569173
0.00352892
0.00580838
0.00307803
0.005066
0.00256678
0.00332607
0.00667148
0.00239995
0.00529637
0.00701087
0.00788992
