# vtk DataFile Version 3.0
DEM2D particles
ASCII
DATASET POLYDATA
POINTS 25 double
0.000210492 -0.000168755 0
0.00247694 -0.000568044 0
0.00456711 7.92834e-05 0
0.00674628 -3.94307e-05 0
0.00933215 0.000877696 0
0.000976388 0.00303187 0
0.00272805 0.00271632 0
0.00430175 0.00224751 0
0.00620408 0.00167019 0
0.00807857 0.00211615 0
0.00194188 0.00396883 0
0.00315848 0.00368791 0
0.00447748 0.00419211 0
0.00666273 0.00526466 0
0.00823043 0.00471718 0
0.0014505 0.00588751 0
0.0023961 0.00700087 0
0.00577483 0.00602595 0
0.00705357 0.00658757 0
0.00819693 0.00629328 0
6.49651e-05 0.00793447 0
0.00285477 0.00929448 0
0.0050706 0.00822726 0
0.00716435 0.00882228 0
0.00986735 0.00837119 0
VERTICES 25 50
1 0
1 1
1 2
1 3
1 4
1 5
1 6
1 7
1 8
1 9
1 10
1 11
1 12
1 13
1 14
1 15
1 16
1 17
1 18
1 19
1 20
1 21
1 22
1 23
1 24
POINT_DATA 25
VECTORS velocity double
-7.44493e-31 -0.00970858 0
-4.9324e-31 -0.00970858 0
-4.0821e-31 -0.00970858 0
-2.39256e-31 -0.00970858 0
3.1321e-31 -0.00970858 0
-2.2266e-32 -0.00970858 0
-2.56449e-31 -0.00970858 0
-6.58439e-31 -0.00970858 0
-7.50535e-31 -0.00970858 0
-8.68896e-31 -0.00970858 0
8.88179e-31 -0.00970858 0
1.49445e-31 -0.00970858 0
-4.92726e-31 -0.00970858 0
-3.18037e-31 -0.00970858 0
-7.25691e-31 -0.00970858 0
4.24814e-31 -0.00970858 0
-5.69466e-31 -0.00970858 0
7.30654e-31 -0.00970858 0
5.05166e-32 -0.00970858 0
-7.57283e-31 -0.00970858 0
-8.81722e-31 -0.00970858 0
-1.36945e-31 -0.00970858 0
6.65775e-32 -0.00970858 0
1.54982e-31 -0.00970858 0
8.17894e-31 -0.00970858 0
SCALARS radius double 1
LOOKUP_TABLE default
0.0005192
0.000759374
0.000731582
0.000932767
0.000864852
0.00092132
0.000824734
0.000662097
0.000535446
0.00094621
0.000999249
0.000802661
0.000671708
0.000819153
0.000645007
0.000827505
0.000602392
0.000772815
0.000550095
0.000626194
0.000886859
0.000531918
0.000790192
0.000909137
0.00096445
SCALARS mass double 1
LOOKUP_TABLE default
0.00228657
0.0048913
0.00453983
0.00738005
0.00634449
0.00720004
0.00576955
0.0037184
0.0024319
0.00759432
0.00846957
0.00546484
0.00382714
0.00569173
0.00352892
0.00580838
0.00307803
0.005066
0.00256678
0.00332607
0.00667148
0.00239995
0.00529637
0.00701087
0.00788992
