# vtk DataFile Version 3.0
DEM2D particles
ASCII
DATASET POLYDATA
POINTS 25 double
0.000210605 0.000413833 0
0.00247701 1.46011e-05 0
0.00456717 0.000661835 0
0.00674631 0.000543138 0
0.0093321 0.00146013 0
0.000976391 0.00361428 0
0.00272808 0.00329878 0
0.00430185 0.00283003 0
0.0062042 0.0022528 0
0.0080787 0.0026987 0
0.00194175 0.0045514 0
0.00315846 0.00427051 0
0.00447756 0.00477464 0
0.00666278 0.00584704 0
0.00823054 0.00529964 0
0.00145044 0.00647008 0
0.00239619 0.00758329 0
0.00577472 0.00660851 0
0.00705356 0.00717004 0
0.00819704 0.0068758 0
6.50999e-05 0.00851704 0
0.0028548 0.00987685 0
0.00507059 0.00880979 0
0.00716433 0.00940472 0
0.00986722 0.0089537 0
VERTICES 25 50
1 0
1 1
1 2
1 3
1 4
1 5
1 6
1 7
1 8
1 9
1 10
1 11
1 12
1 13
1 14
1 15
1 16
1 17
1 18
1 19
1 20
1 21
1 22
1 23
1 24
POINT_DATA 25
VECTORS velocity double
-0.000114999 -0.00978153 0
-7.61887e-05 -0.00983969 0
-6.30545e-05 -0.0097454 0
-3.69568e-05 -0.00976269 0
4.83802e-05 -0.00962911 0
-3.43934e-06 -0.00960665 0
-3.96125e-05 -0.00965261 0
-0.000101706 -0.0097209 0
-0.000115932 -0.00980499 0
-0.000134215 -0.00974003 0
0.000137193 -0.00976149 0
2.30841e-05 -0.00980241 0
-7.61094e-05 -0.00972897 0
-4.91258e-05 -0.00957274 0
-0.000112095 -0.00965249 0
6.56193e-05 -0.00977334 0
-8.79631e-05 -0.00961116 0
0.000112861 -0.00975317 0
7.80308e-06 -0.00967137 0
-0.000116974 -0.00971423 0
-0.000136196 -0.00976649 0
-2.11533e-05 -0.0095684 0
1.02839e-05 -0.00972385 0
2.39395e-05 -0.00963718 0
0.000126337 -0.00970288 0
SCALARS radius double 1
LOOKUP_TABLE default
0.0005192
0.000759374
0.000731582
0.000932767
0.000864852
0.00092132
0.000824734
0.000662097
0.000535446
0.00094621
0.000999249
0.000802661
0.000671708
0.000819153
0.000645007
0.000827505
0.000602392
0.000772815
0.000550095
0.000626194
0.000886859
0.000531918
0.000790192
0.000909137
0.00096445
SCALARS mass double 1
LOOKUP_TABLE default
0.00228657
0.0048913
0.00453983
0.00738005
0.00634449
0.00720004
0.00576955
0.0037184
0.0024319
0.00759432
0.00846957
0.00546484
0.00382714
0.00569173
0.00352892
0.00580838
0.00307803
0.005066
0.00256678
0.00332607
0.00667148
0.00239995
0.00529637
0.00701087
0.00788992
