# vtk DataFile Version 3.0
DEM2D particles
ASCII
DATASET POLYDATA
POINTS 25 double
0.000210492 0.000339975 0
0.00247694 -5.93139e-05 0
0.00456711 0.000588013 0
0.00674628 0.000469299 0
0.00933215 0.00138643 0
0.000976388 0.0035406 0
0.00272805 0.00322505 0
0.00430175 0.00275624 0
0.00620408 0.00217892 0
0.00807857 0.00262488 0
0.00194188 0.00447756 0
0.00315848 0.00419664 0
0.00447748 0.00470084 0
0.00666273 0.00577339 0
0.00823043 0.00522591 0
0.0014505 0.00639624 0
0.0023961 0.0075096 0
0.00577483 0.00653468 0
0.00705357 0.0070963 0
0.00819693 0.00680201 0
6.49651e-05 0.0084432 0
0.00285477 0.00980321 0
0.0050706 0.00873599 0
0.00716435 0.00933101 0
0.00986735 0.00887992 0
VERTICES 25 50
1 0
1 1
1 2
1 3
1 4
1 5
1 6
1 7
1 8
1 9
1 10
1 11
1 12
1 13
1 14
1 15
1 16
1 17
1 18
1 19
1 20
1 21
1 22
1 23
1 24
POINT_DATA 25
VECTORS velocity double
-5.53912e-08 -0.00970862 0
-3.66977e-08 -0.00970865 0
-3.03714e-08 -0.0097086 0
-1.78009e-08 -0.00970861 0
2.33032e-08 -0.00970855 0
-1.65662e-09 -0.00970853 0
-1.90801e-08 -0.00970856 0
-4.89887e-08 -0.00970859 0
-5.58407e-08 -0.00970863 0
-6.46469e-08 -0.0097086 0
6.60816e-08 -0.00970861 0
1.11189e-08 -0.00970863 0
-3.66595e-08 -0.00970859 0
-2.36623e-08 -0.00970852 0
-5.39924e-08 -0.00970856 0
3.16067e-08 -0.00970861 0
-4.2369e-08 -0.00970854 0
5.43616e-08 -0.0097086 0
3.7585e-09 -0.00970857 0
-5.63428e-08 -0.00970859 0
-6.56012e-08 -0.00970861 0
-1.01889e-08 -0.00970852 0
4.95345e-09 -0.00970859 0
1.15309e-08 -0.00970855 0
6.08523e-08 -0.00970858 0
SCALARS radius double 1
LOOKUP_TABLE default
0.0005192
0.000759374
0.000731582
0.000932767
0.000864852
0.00092132
0.000824734
0.000662097
0.000535446
0.00094621
0.000999249
0.000802661
0.000671708
0.000819153
0.000645007
0.000827505
0.000602392
0.000772815
0.000550095
0.000626194
0.000886859
0.000531918
0.000790192
0.000909137
0.00096445
SCALARS mass double 1
LOOKUP_TABLE default
0.00228657
0.0048913
0.00453983
0.00738005
0.00634449
0.00720004
0.00576955
0.0037184
0.0024319
0.00759432
0.00846957
0.00546484
0.00382714
0.00569173
0.00352892
0.00580838
0.00307803
0.005066
0.00256678
0.00332607
0.00667148
0.00239995
0.00529637
0.00701087
0.00788992
