# vtk DataFile Version 3.0
DEM2D particles
ASCII
DATASET POLYDATA
POINTS 25 double
0.000210492 -0.000122153 0
0.00247694 -0.000521443 0
0.00456711 0.000125885 0
0.00674628 7.17048e-06 0
0.00933215 0.000924297 0
0.000976388 0.00307847 0
0.00272805 0.00276292 0
0.00430175 0.00229411 0
0.00620408 0.00171679 0
0.00807857 0.00216275 0
0.00194188 0.00401543 0
0.00315848 0.00373451 0
0.00447748 0.00423871 0
0.00666273 0.00531126 0
0.00823043 0.00476378 0
0.0014505 0.00593411 0
0.0023961 0.00704748 0
0.00577483 0.00607255 0
0.00705357 0.00663417 0
0.00819693 0.00633988 0
6.49651e-05 0.00798107 0
0.00285477 0.00934108 0
0.0050706 0.00827386 0
0.00716435 0.00886888 0
0.00986735 0.00841779 0
VERTICES 25 50
1 0
1 1
1 2
1 3
1 4
1 5
1 6
1 7
1 8
1 9
1 10
1 11
1 12
1 13
1 14
1 15
1 16
1 17
1 18
1 19
1 20
1 21
1 22
1 23
1 24
POINT_DATA 25
VECTORS velocity double
-9.26759e-29 -0.00970858 0
-6.13995e-29 -0.00970858 0
-5.08148e-29 -0.00970858 0
-2.9783e-29 -0.00970858 0
3.8989e-29 -0.00970858 0
-2.77172e-30 -0.00970858 0
-3.19232e-29 -0.00970858 0
-8.19638e-29 -0.00970858 0
-9.34281e-29 -0.00970858 0
-1.08162e-28 -0.00970858 0
1.10562e-28 -0.00970858 0
1.86032e-29 -0.00970858 0
-6.13356e-29 -0.00970858 0
-3.95899e-29 -0.00970858 0
-9.03355e-29 -0.00970858 0
5.28817e-29 -0.00970858 0
-7.08883e-29 -0.00970858 0
9.09533e-29 -0.00970858 0
6.2884e-30 -0.00970858 0
-9.42681e-29 -0.00970858 0
-1.09758e-28 -0.00970858 0
-1.70472e-29 -0.00970858 0
8.2877e-30 -0.00970858 0
1.92925e-29 -0.00970858 0
1.01813e-28 -0.00970858 0
SCALARS radius double 1
LOOKUP_TABLE default
0.0005192
0.000759374
0.000731582
0.000932767
0.000864852
0.00092132
0.000824734
0.000662097
0.000535446
0.00094621
0.000999249
0.000802661
0.000671708
0.000819153
0.000645007
0.000827505
0.000602392
0.000772815
0.000550095
0.000626194
0.000886859
0.000531918
0.000790192
0.000909137
0.00096445
SCALARS mass double 1
LOOKUP_TABLE default
0.00228657
0.0048913
0.00453983
0.00738005
0.00634449
0.00720004
0.00576955
0.0037184
0.0024319
0.00759432
0.00846957
0.00546484
0.00382714
0.00569173
0.00352892
0.00580838
0.00307803
0.005066
0.00256678
0.00332607
0.00667148
0.00239995
0.00529637
0.00701087
0.00788992
