# vtk DataFile Version 3.0
DEM2D particles
ASCII
DATASET POLYDATA
POINTS 25 double
0.000210492 -0.000512438 0
0.00247694 -0.000911728 0
0.00456711 -0.0002644 0
0.00674628 -0.000383115 0
0.00933215 0.000534012 0
0.000976388 0.00268819 0
0.00272805 0.00237263 0
0.00430175 0.00190382 0
0.00620408 0.00132651 0
0.00807857 0.00177247 0
0.00194188 0.00362515 0
0.00315848 0.00334422 0
0.00447748 0.00384843 0
0.00666273 0.00492098 0
0.00823043 0.0043735 0
0.0014505 0.00554382 0
0.0023961 0.00665719 0
0.00577483 0.00568227 0
0.00705357 0.00624388 0
0.00819693 0.0059496 0
6.49651e-05 0.00759079 0
0.00285477 0.00895079 0
0.0050706 0.00788358 0
0.00716435 0.00847859 0
0.00986735 0.0080275 0
VERTICES 25 50
1 0
1 1
1 2
1 3
1 4
1 5
1 6
1 7
1 8
1 9
1 10
1 11
1 12
1 13
1 14
1 15
1 16
1 17
1 18
1 19
1 20
1 21
1 22
1 23
1 24
POINT_DATA 25
VECTORS velocity double
-2.63299e-46 -0.00970858 0
-1.7444e-46 -0.00970858 0
-1.44369e-46 -0.00970858 0
-8.46157e-47 -0.00970858 0
1.10771e-46 -0.00970858 0
-7.87466e-48 -0.00970858 0
-9.06962e-47 -0.00970858 0
-2.32865e-46 -0.00970858 0
-2.65436e-46 -0.00970858 0
-3.07296e-46 -0.00970858 0
3.14115e-46 -0.00970858 0
5.2853e-47 -0.00970858 0
-1.74259e-46 -0.00970858 0
-1.12478e-46 -0.00970858 0
-2.5665e-46 -0.00970858 0
1.50241e-46 -0.00970858 0
-2.01399e-46 -0.00970858 0
2.58405e-46 -0.00970858 0
1.78658e-47 -0.00970858 0
-2.67823e-46 -0.00970858 0
-3.11832e-46 -0.00970858 0
-4.84323e-47 -0.00970858 0
2.3546e-47 -0.00970858 0
5.48114e-47 -0.00970858 0
2.89258e-46 -0.00970858 0
SCALARS radius double 1
LOOKUP_TABLE default
0.0005192
0.000759374
0.000731582
0.000932767
0.000864852
0.00092132
0.000824734
0.000662097
0.000535446
0.00094621
0.000999249
0.000802661
0.000671708
0.000819153
0.000645007
0.000827505
0.000602392
0.000772815
0.000550095
0.000626194
0.000886859
0.000531918
0.000790192
0.000909137
0.00096445
SCALARS mass double 1
LOOKUP_TABLE default
0.00228657
0.0048913
0.00453983
0.00738005
0.00634449
0.00720004
0.00576955
0.0037184
0.0024319
0.00759432
0.00846957
0.00546484
0.00382714
0.00569173
0.00352892
0.00580838
0.00307803
0.005066
0.00256678
0.00332607
0.00667148
0.00239995
0.00529637
0.00701087
0.00788992
