# vtk DataFile Version 3.0
DEM2D particles
ASCII
DATASET POLYDATA
POINTS 25 double
0.000210492 -0.000611466 0
0.00247694 -0.00101076 0
0.00456711 -0.000363428 0
0.00674628 -0.000482142 0
0.00933215 0.000434984 0
0.000976388 0.00258916 0
0.00272805 0.00227361 0
0.00430175 0.0018048 0
0.00620408 0.00122748 0
0.00807857 0.00167344 0
0.00194188 0.00352612 0
0.00315848 0.0032452 0
0.00447748 0.0037494 0
0.00666273 0.00482195 0
0.00823043 0.00427447 0
0.0014505 0.00544479 0
0.0023961 0.00655816 0
0.00577483 0.00558324 0
0.00705357 0.00614486 0
0.00819693 0.00585057 0
6.49651e-05 0.00749176 0
0.00285477 0.00885176 0
0.0050706 0.00778455 0
0.00716435 0.00837957 0
0.00986735 0.00792847 0
VERTICES 25 50
1 0
1 1
1 2
1 3
1 4
1 5
1 6
1 7
1 8
1 9
1 10
1 11
1 12
1 13
1 14
1 15
1 16
1 17
1 18
1 19
1 20
1 21
1 22
1 23
1 24
POINT_DATA 25
VECTORS velocity double
-9.29711e-51 -0.00970858 0
-6.1595e-51 -0.00970858 0
-5.09766e-51 -0.00970858 0
-2.98779e-51 -0.00970858 0
3.91132e-51 -0.00970858 0
-2.78055e-52 -0.00970858 0
-3.20249e-51 -0.00970858 0
-8.22248e-51 -0.00970858 0
-9.37256e-51 -0.00970858 0
-1.08506e-50 -0.00970858 0
1.10914e-50 -0.00970858 0
1.86624e-51 -0.00970858 0
-6.15309e-51 -0.00970858 0
-3.97159e-51 -0.00970858 0
-9.06232e-51 -0.00970858 0
5.30501e-51 -0.00970858 0
-7.1114e-51 -0.00970858 0
9.1243e-51 -0.00970858 0
6.30843e-52 -0.00970858 0
-9.45683e-51 -0.00970858 0
-1.10108e-50 -0.00970858 0
-1.71015e-51 -0.00970858 0
8.31409e-52 -0.00970858 0
1.9354e-51 -0.00970858 0
1.02137e-50 -0.00970858 0
SCALARS radius double 1
LOOKUP_TABLE default
0.0005192
0.000759374
0.000731582
0.000932767
0.000864852
0.00092132
0.000824734
0.000662097
0.000535446
0.00094621
0.000999249
0.000802661
0.000671708
0.000819153
0.000645007
0.000827505
0.000602392
0.000772815
0.000550095
0.000626194
0.000886859
0.000531918
0.000790192
0.000909137
0.00096445
SCALARS mass double 1
LOOKUP_TABLE default
0.00228657
0.0048913
0.00453983
0.00738005
0.00634449
0.00720004
0.00576955
0.0037184
0.0024319
0.00759432
0.00846957
0.00546484
0.00382714
0.00569173
0.00352892
0.00580838
0.00307803
0.005066
0.00256678
0.00332607
0.00667148
0.00239995
0.00529637
0.00701087
0.00788992
