# vtk DataFile Version 3.0
DEM2D particles
ASCII
DATASET POLYDATA
POINTS 25 double
0.000210492 0.000194346 0
0.00247694 -0.000204943 0
0.00456711 0.000442384 0
0.00674628 0.00032367 0
0.00933215 0.0012408 0
0.000976388 0.00339497 0
0.00272805 0.00307942 0
0.00430175 0.00261061 0
0.00620408 0.00203329 0
0.00807857 0.00247925 0
0.00194188 0.00433193 0
0.00315848 0.00405101 0
0.00447748 0.00455521 0
0.00666273 0.00562776 0
0.00823043 0.00508028 0
0.0014505 0.00625061 0
0.0023961 0.00736398 0
0.00577483 0.00638905 0
0.00705357 0.00695067 0
0.00819693 0.00665638 0
6.49651e-05 0.00829757 0
0.00285477 0.00965758 0
0.0050706 0.00859036 0
0.00716435 0.00918538 0
0.00986735 0.00873429 0
VERTICES 25 50
1 0
1 1
1 2
1 3
1 4
1 5
1 6
1 7
1 8
1 9
1 10
1 11
1 12
1 13
1 14
1 15
1 16
1 17
1 18
1 19
1 20
1 21
1 22
1 23
1 24
POINT_DATA 25
VECTORS velocity double
-1.5712e-14 -0.00970858 0
-1.04095e-14 -0.00970858 0
-8.61502e-15 -0.00970858 0
-5.04934e-15 -0.00970858 0
6.6101e-15 -0.00970858 0
-4.69911e-16 -0.00970858 0
-5.41218e-15 -0.00970858 0
-1.38959e-14 -0.00970858 0
-1.58396e-14 -0.00970858 0
-1.83375e-14 -0.00970858 0
1.87444e-14 -0.00970858 0
3.15394e-15 -0.00970858 0
-1.03987e-14 -0.00970858 0
-6.71197e-15 -0.00970858 0
-1.53153e-14 -0.00970858 0
8.96543e-15 -0.00970858 0
-1.20182e-14 -0.00970858 0
1.542e-14 -0.00970858 0
1.06612e-15 -0.00970858 0
-1.5982e-14 -0.00970858 0
-1.86082e-14 -0.00970858 0
-2.89014e-15 -0.00970858 0
1.40508e-15 -0.00970858 0
3.2708e-15 -0.00970858 0
1.72611e-14 -0.00970858 0
SCALARS radius double 1
LOOKUP_TABLE default
0.0005192
0.000759374
0.000731582
0.000932767
0.000864852
0.00092132
0.000824734
0.000662097
0.000535446
0.00094621
0.000999249
0.000802661
0.000671708
0.000819153
0.000645007
0.000827505
0.000602392
0.000772815
0.000550095
0.000626194
0.000886859
0.000531918
0.000790192
0.000909137
0.00096445
SCALARS mass double 1
LOOKUP_TABLE default
0.00228657
0.0048913
0.00453983
0.00738005
0.00634449
0.00720004
0.00576955
0.0037184
0.0024319
0.00759432
0.00846957
0.00546484
0.00382714
0.00569173
0.00352892
0.00580838
0.00307803
0.005066
0.00256678
0.00332607
0.00667148
0.00239995
0.00529637
0.00701087
0.00788992
