# vtk DataFile Version 3.0
DEM2D particles
ASCII
DATASET POLYDATA
POINTS 25 double
0.000210492 0.000328325 0
0.00247694 -7.09642e-05 0
0.00456711 0.000576363 0
0.00674628 0.000457649 0
0.00933215 0.00137478 0
0.000976388 0.00352895 0
0.00272805 0.0032134 0
0.00430175 0.00274459 0
0.00620408 0.00216727 0
0.00807857 0.00261323 0
0.00194188 0.00446591 0
0.00315848 0.00418499 0
0.00447748 0.00468919 0
0.00666273 0.00576174 0
0.00823043 0.00521426 0
0.0014505 0.00638459 0
0.0023961 0.00749795 0
0.00577483 0.00652303 0
0.00705357 0.00708465 0
0.00819693 0.00679036 0
6.49651e-05 0.00843155 0
0.00285477 0.00979156 0
0.0050706 0.00872434 0
0.00716435 0.00931936 0
0.00986735 0.00886827 0
VERTICES 25 50
1 0
1 1
1 2
1 3
1 4
1 5
1 6
1 7
1 8
1 9
1 10
1 11
1 12
1 13
1 14
1 15
1 16
1 17
1 18
1 19
1 20
1 21
1 22
1 23
1 24
POINT_DATA 25
VECTORS velocity double
-1.6583e-08 -0.00970859 0
-1.09866e-08 -0.0097086 0
-9.09259e-09 -0.00970859 0
-5.32925e-09 -0.00970859 0
6.97653e-09 -0.00970857 0
-4.9596e-10 -0.00970857 0
-5.71221e-09 -0.00970858 0
-1.46663e-08 -0.00970859 0
-1.67176e-08 -0.0097086 0
-1.9354e-08 -0.00970859 0
1.97835e-08 -0.00970859 0
3.32878e-09 -0.0097086 0
-1.09751e-08 -0.00970859 0
-7.08404e-09 -0.00970856 0
-1.61643e-08 -0.00970858 0
9.46243e-09 -0.00970859 0
-1.26845e-08 -0.00970857 0
1.62748e-08 -0.00970859 0
1.12522e-09 -0.00970858 0
-1.68679e-08 -0.00970858 0
-1.96397e-08 -0.00970859 0
-3.05035e-09 -0.00970856 0
1.48297e-09 -0.00970859 0
3.45212e-09 -0.00970857 0
1.8218e-08 -0.00970858 0
SCALARS radius double 1
LOOKUP_TABLE default
0.0005192
0.000759374
0.000731582
0.000932767
0.000864852
0.00092132
0.000824734
0.000662097
0.000535446
0.00094621
0.000999249
0.000802661
0.000671708
0.000819153
0.000645007
0.000827505
0.000602392
0.000772815
0.000550095
0.000626194
0.000886859
0.000531918
0.000790192
0.000909137
0.00096445
SCALARS mass double 1
LOOKUP_TABLE default
0.00228657
0.0048913
0.00453983
0.00738005
0.00634449
0.00720004
0.00576955
0.0037184
0.0024319
0.00759432
0.00846957
0.00546484
0.00382714
0.00569173
0.00352892
0.00580838
0.00307803
0.005066
0.00256678
0.00332607
0.00667148
0.00239995
0.00529637
0.00701087
0.00788992
