# vtk DataFile Version 3.0
DEM2D particles
ASCII
DATASET POLYDATA
POINTS 25 double
0.000210492 -0.000840589 0
0.00247694 -0.00123988 0
0.00456711 -0.000592551 0
0.00674628 -0.000711265 0
0.00933215 0.000205862 0
0.000976388 0.00236004 0
0.00272805 0.00204448 0
0.00430175 0.00157567 0
0.00620408 0.000998357 0
0.00807857 0.00144432 0
0.00194188 0.003297 0
0.00315848 0.00301607 0
0.00447748 0.00352028 0
0.00666273 0.00459283 0
0.00823043 0.00404535 0
0.0014505 0.00521567 0
0.0023961 0.00632904 0
0.00577483 0.00535412 0
0.00705357 0.00591573 0
0.00819693 0.00562145 0
6.49651e-05 0.00726264 0
0.00285477 0.00862264 0
0.0050706 0.00755543 0
0.00716435 0.00815044 0
0.00986735 0.00769935 0
VERTICES 25 50
1 0
1 1
1 2
1 3
1 4
1 5
1 6
1 7
1 8
1 9
1 10
1 11
1 12
1 13
1 14
1 15
1 16
1 17
1 18
1 19
1 20
1 21
1 22
1 23
1 24
POINT_DATA 25
VECTORS velocity double
-4.64951e-61 -0.00970858 0
-3.08038e-61 -0.00970858 0
-2.54936e-61 -0.00970858 0
-1.4942e-61 -0.00970858 0
1.95606e-61 -0.00970858 0
-1.39056e-62 -0.00970858 0
-1.60157e-61 -0.00970858 0
-4.11209e-61 -0.00970858 0
-4.68724e-61 -0.00970858 0
-5.42643e-61 -0.00970858 0
5.54686e-61 -0.00970858 0
9.33314e-62 -0.00970858 0
-3.07718e-61 -0.00970858 0
-1.98621e-61 -0.00970858 0
-4.53209e-61 -0.00970858 0
2.65305e-61 -0.00970858 0
-3.55643e-61 -0.00970858 0
4.56309e-61 -0.00970858 0
3.15486e-62 -0.00970858 0
-4.72939e-61 -0.00970858 0
-5.50653e-61 -0.00970858 0
-8.55249e-62 -0.00970858 0
4.1579e-62 -0.00970858 0
9.67897e-62 -0.00970858 0
5.10791e-61 -0.00970858 0
SCALARS radius double 1
LOOKUP_TABLE default
0.0005192
0.000759374
0.000731582
0.000932767
0.000864852
0.00092132
0.000824734
0.000662097
0.000535446
0.00094621
0.000999249
0.000802661
0.000671708
0.000819153
0.000645007
0.000827505
0.000602392
0.000772815
0.000550095
0.000626194
0.000886859
0.000531918
0.000790192
0.000909137
0.00096445
SCALARS mass double 1
LOOKUP_TABLE default
0.00228657
0.0048913
0.00453983
0.00738005
0.00634449
0.00720004
0.00576955
0.0037184
0.0024319
0.00759432
0.00846957
0.00546484
0.00382714
0.00569173
0.00352892
0.00580838
0.00307803
0.005066
0.00256678
0.00332607
0.00667148
0.00239995
0.00529637
0.00701087
0.00788992
