# vtk DataFile Version 3.0
DEM2D particles
ASCII
DATASET POLYDATA
POINTS 25 double
0.000210492 -0.00111049 0
0.00247694 -0.00150978 0
0.00456711 -0.000862449 0
0.00674628 -0.000981163 0
0.00933215 -6.40369e-05 0
0.000976388 0.00209014 0
0.00272805 0.00177459 0
0.00430175 0.00130577 0
0.00620408 0.000728459 0
0.00807857 0.00117442 0
0.00194188 0.0030271 0
0.00315848 0.00274617 0
0.00447748 0.00325038 0
0.00666273 0.00432293 0
0.00823043 0.00377545 0
0.0014505 0.00494577 0
0.0023961 0.00605914 0
0.00577483 0.00508422 0
0.00705357 0.00564583 0
0.00819693 0.00535155 0
6.49651e-05 0.00699274 0
0.00285477 0.00835274 0
0.0050706 0.00728553 0
0.00716435 0.00788054 0
0.00986735 0.00742945 0
VERTICES 25 50
1 0
1 1
1 2
1 3
1 4
1 5
1 6
1 7
1 8
1 9
1 10
1 11
1 12
1 13
1 14
1 15
1 16
1 17
1 18
1 19
1 20
1 21
1 22
1 23
1 24
POINT_DATA 25
VECTORS velocity double
-3.41388e-73 -0.00970858 0
-2.26176e-73 -0.00970858 0
-1.87185e-73 -0.00970858 0
-1.09711e-73 -0.00970858 0
1.43623e-73 -0.00970858 0
-1.02101e-74 -0.00970858 0
-1.17595e-73 -0.00970858 0
-3.01928e-73 -0.00970858 0
-3.44158e-73 -0.00970858 0
-3.98433e-73 -0.00970858 0
4.07275e-73 -0.00970858 0
6.85281e-74 -0.00970858 0
-2.2594e-73 -0.00970858 0
-1.45836e-73 -0.00970858 0
-3.32766e-73 -0.00970858 0
1.94799e-73 -0.00970858 0
-2.61129e-73 -0.00970858 0
3.35042e-73 -0.00970858 0
2.31644e-74 -0.00970858 0
-3.47253e-73 -0.00970858 0
-4.04314e-73 -0.00970858 0
-6.27963e-74 -0.00970858 0
3.05292e-74 -0.00970858 0
7.10673e-74 -0.00970858 0
3.75046e-73 -0.00970858 0
SCALARS radius double 1
LOOKUP_TABLE default
0.0005192
0.000759374
0.000731582
0.000932767
0.000864852
0.00092132
0.000824734
0.000662097
0.000535446
0.00094621
0.000999249
0.000802661
0.000671708
0.000819153
0.000645007
0.000827505
0.000602392
0.000772815
0.000550095
0.000626194
0.000886859
0.000531918
0.000790192
0.000909137
0.00096445
SCALARS mass double 1
LOOKUP_TABLE default
0.00228657
0.0048913
0.00453983
0.00738005
0.00634449
0.00720004
0.00576955
0.0037184
0.0024319
0.00759432
0.00846957
0.00546484
0.00382714
0.00569173
0.00352892
0.00580838
0.00307803
0.005066
0.00256678
0.00332607
0.00667148
0.00239995
0.00529637
0.00701087
0.00788992
