# vtk DataFile Version 3.0
DEM2D particles
ASCII
DATASET POLYDATA
POINTS 25 double
0.000210492 -0.00142893 0
0.00247694 -0.00182822 0
0.00456711 -0.00118089 0
0.00674628 -0.0012996 0
0.00933215 -0.000382478 0
0.000976388 0.0017717 0
0.00272805 0.00145614 0
0.00430175 0.000987332 0
0.00620408 0.000410017 0
0.00807857 0.000855978 0
0.00194188 0.00270866 0
0.00315848 0.00242773 0
0.00447748 0.00293194 0
0.00666273 0.00400449 0
0.00823043 0.00345701 0
0.0014505 0.00462733 0
0.0023961 0.0057407 0
0.00577483 0.00476578 0
0.00705357 0.00532739 0
0.00819693 0.00503311 0
6.49651e-05 0.0066743 0
0.00285477 0.0080343 0
0.0050706 0.00696709 0
0.00716435 0.0075621 0
0.00986735 0.00711101 0
VERTICES 25 50
1 0
1 1
1 2
1 3
1 4
1 5
1 6
1 7
1 8
1 9
1 10
1 11
1 12
1 13
1 14
1 15
1 16
1 17
1 18
1 19
1 20
1 21
1 22
1 23
1 24
POINT_DATA 25
VECTORS velocity double
-1.64697e-87 -0.00970858 0
-1.09115e-87 -0.00970858 0
-9.03046e-88 -0.00970858 0
-5.29283e-88 -0.00970858 0
6.92886e-88 -0.00970858 0
-4.92571e-89 -0.00970858 0
-5.67317e-88 -0.00970858 0
-1.4566e-87 -0.00970858 0
-1.66034e-87 -0.00970858 0
-1.92218e-87 -0.00970858 0
1.96484e-87 -0.00970858 0
3.30603e-88 -0.00970858 0
-1.09001e-87 -0.00970858 0
-7.03564e-88 -0.00970858 0
-1.60538e-87 -0.00970858 0
9.39777e-88 -0.00970858 0
-1.25978e-87 -0.00970858 0
1.61636e-87 -0.00970858 0
1.11753e-88 -0.00970858 0
-1.67527e-87 -0.00970858 0
-1.95055e-87 -0.00970858 0
-3.02951e-88 -0.00970858 0
1.47283e-88 -0.00970858 0
3.42853e-88 -0.00970858 0
1.80935e-87 -0.00970858 0
SCALARS radius double 1
LOOKUP_TABLE default
0.0005192
0.000759374
0.000731582
0.000932767
0.000864852
0.00092132
0.000824734
0.000662097
0.000535446
0.00094621
0.000999249
0.000802661
0.000671708
0.000819153
0.000645007
0.000827505
0.000602392
0.000772815
0.000550095
0.000626194
0.000886859
0.000531918
0.000790192
0.000909137
0.00096445
SCALARS mass double 1
LOOKUP_TABLE default
0.00228657
0.0048913
0.00453983
0.00738005
0.00634449
0.00720004
0.00576955
0.0037184
0.0024319
0.00759432
0.00846957
0.00546484
0.00382714
0.00569173
0.00352892
0.00580838
0.00307803
0.005066
0.00256678
0.00332607
0.00667148
0.00239995
0.00529637
0.00701087
0.00788992
