# vtk DataFile Version 3.0
DEM2D particles
ASCII
DATASET POLYDATA
POINTS 25 double
0.000210492 -0.00122116 0
0.00247694 -0.00162045 0
0.00456711 -0.000973127 0
0.00674628 -0.00109184 0
0.00933215 -0.000174715 0
0.000976388 0.00197946 0
0.00272805 0.00166391 0
0.00430175 0.0011951 0
0.00620408 0.000617781 0
0.00807857 0.00106374 0
0.00194188 0.00291642 0
0.00315848 0.0026355 0
0.00447748 0.0031397 0
0.00666273 0.00421225 0
0.00823043 0.00366477 0
0.0014505 0.0048351 0
0.0023961 0.00594846 0
0.00577483 0.00497354 0
0.00705357 0.00553516 0
0.00819693 0.00524087 0
6.49651e-05 0.00688206 0
0.00285477 0.00824207 0
0.0050706 0.00717485 0
0.00716435 0.00776987 0
0.00986735 0.00731878 0
VERTICES 25 50
1 0
1 1
1 2
1 3
1 4
1 5
1 6
1 7
1 8
1 9
1 10
1 11
1 12
1 13
1 14
1 15
1 16
1 17
1 18
1 19
1 20
1 21
1 22
1 23
1 24
POINT_DATA 25
VECTORS velocity double
-3.60886e-78 -0.00970858 0
-2.39093e-78 -0.00970858 0
-1.97876e-78 -0.00970858 0
-1.15977e-78 -0.00970858 0
1.51826e-78 -0.00970858 0
-1.07933e-79 -0.00970858 0
-1.24311e-78 -0.00970858 0
-3.19172e-78 -0.00970858 0
-3.63815e-78 -0.00970858 0
-4.21189e-78 -0.00970858 0
4.30536e-78 -0.00970858 0
7.2442e-79 -0.00970858 0
-2.38844e-78 -0.00970858 0
-1.54165e-78 -0.00970858 0
-3.51772e-78 -0.00970858 0
2.05925e-78 -0.00970858 0
-2.76043e-78 -0.00970858 0
3.54178e-78 -0.00970858 0
2.44874e-79 -0.00970858 0
-3.67086e-78 -0.00970858 0
-4.27406e-78 -0.00970858 0
-6.63828e-79 -0.00970858 0
3.22728e-79 -0.00970858 0
7.51263e-79 -0.00970858 0
3.96466e-78 -0.00970858 0
SCALARS radius double 1
LOOKUP_TABLE default
0.0005192
0.000759374
0.000731582
0.000932767
0.000864852
0.00092132
0.000824734
0.000662097
0.000535446
0.00094621
0.000999249
0.000802661
0.000671708
0.000819153
0.000645007
0.000827505
0.000602392
0.000772815
0.000550095
0.000626194
0.000886859
0.000531918
0.000790192
0.000909137
0.00096445
SCALARS mass double 1
LOOKUP_TABLE default
0.00228657
0.0048913
0.00453983
0.00738005
0.00634449
0.00720004
0.00576955
0.0037184
0.0024319
0.00759432
0.00846957
0.00546484
0.00382714
0.00569173
0.00352892
0.00580838
0.00307803
0.005066
0.00256678
0.00332607
0.00667148
0.00239995
0.00529637
0.00701087
0.00788992
