# vtk DataFile Version 3.0
DEM2D particles
ASCII
DATASET POLYDATA
POINTS 25 double
0.000210492 -0.000916315 0
0.00247694 -0.0013156 0
0.00456711 -0.000668278 0
0.00674628 -0.000786992 0
0.00933215 0.000130135 0
0.000976388 0.00228431 0
0.00272805 0.00196876 0
0.00430175 0.00149995 0
0.00620408 0.00092263 0
0.00807857 0.00136859 0
0.00194188 0.00322127 0
0.00315848 0.00294035 0
0.00447748 0.00344455 0
0.00666273 0.0045171 0
0.00823043 0.00396962 0
0.0014505 0.00513994 0
0.0023961 0.00625331 0
0.00577483 0.00527839 0
0.00705357 0.00584001 0
0.00819693 0.00554572 0
6.49651e-05 0.00718691 0
0.00285477 0.00854691 0
0.0050706 0.0074797 0
0.00716435 0.00807472 0
0.00986735 0.00762363 0
VERTICES 25 50
1 0
1 1
1 2
1 3
1 4
1 5
1 6
1 7
1 8
1 9
1 10
1 11
1 12
1 13
1 14
1 15
1 16
1 17
1 18
1 19
1 20
1 21
1 22
1 23
1 24
POINT_DATA 25
VECTORS velocity double
-1.83172e-64 -0.00970858 0
-1.21355e-64 -0.00970858 0
-1.00434e-64 -0.00970858 0
-5.88655e-65 -0.00970858 0
7.70609e-65 -0.00970858 0
-5.47825e-66 -0.00970858 0
-6.30955e-65 -0.00970858 0
-1.62e-64 -0.00970858 0
-1.84658e-64 -0.00970858 0
-2.13779e-64 -0.00970858 0
2.18524e-64 -0.00970858 0
3.67688e-65 -0.00970858 0
-1.21228e-64 -0.00970858 0
-7.82485e-65 -0.00970858 0
-1.78546e-64 -0.00970858 0
1.0452e-64 -0.00970858 0
-1.40109e-64 -0.00970858 0
1.79767e-64 -0.00970858 0
1.24289e-65 -0.00970858 0
-1.86319e-64 -0.00970858 0
-2.16935e-64 -0.00970858 0
-3.36934e-65 -0.00970858 0
1.63805e-65 -0.00970858 0
3.81312e-65 -0.00970858 0
2.01231e-64 -0.00970858 0
SCALARS radius double 1
LOOKUP_TABLE default
0.0005192
0.000759374
0.000731582
0.000932767
0.000864852
0.00092132
0.000824734
0.000662097
0.000535446
0.00094621
0.000999249
0.000802661
0.000671708
0.000819153
0.000645007
0.000827505
0.000602392
0.000772815
0.000550095
0.000626194
0.000886859
0.000531918
0.000790192
0.000909137
0.00096445
SCALARS mass double 1
LOOKUP_TABLE default
0.00228657
0.0048913
0.00453983
0.00738005
0.00634449
0.00720004
0.00576955
0.0037184
0.0024319
0.00759432
0.00846957
0.00546484
0.00382714
0.00569173
0.00352892
0.00580838
0.00307803
0.005066
0.00256678
0.00332607
0.00667148
0.00239995
0.00529637
0.00701087
0.00788992
