# vtk DataFile Version 3.0
DEM2D particles
ASCII
DATASET POLYDATA
POINTS 25 double
0.000210492 -0.000733794 0
0.00247694 -0.00113308 0
0.00456711 -0.000485756 0
0.00674628 -0.00060447 0
0.00933215 0.000312656 0
0.000976388 0.00246683 0
0.00272805 0.00215128 0
0.00430175 0.00168247 0
0.00620408 0.00110515 0
0.00807857 0.00155111 0
0.00194188 0.00340379 0
0.00315848 0.00312287 0
0.00447748 0.00362707 0
0.00666273 0.00469962 0
0.00823043 0.00415214 0
0.0014505 0.00532247 0
0.0023961 0.00643583 0
0.00577483 0.00546091 0
0.00705357 0.00602253 0
0.00819693 0.00572824 0
6.49651e-05 0.00736943 0
0.00285477 0.00872944 0
0.0050706 0.00766222 0
0.00716435 0.00825724 0
0.00986735 0.00780615 0
VERTICES 25 50
1 0
1 1
1 2
1 3
1 4
1 5
1 6
1 7
1 8
1 9
1 10
1 11
1 12
1 13
1 14
1 15
1 16
1 17
1 18
1 19
1 20
1 21
1 22
1 23
1 24
POINT_DATA 25
VECTORS velocity double
-2.94234e-56 -0.00970858 0
-1.94935e-56 -0.00970858 0
-1.6133e-56 -0.00970858 0
-9.45572e-57 -0.00970858 0
1.23785e-56 -0.00970858 0
-8.79986e-58 -0.00970858 0
-1.01352e-56 -0.00970858 0
-2.60224e-56 -0.00970858 0
-2.96622e-56 -0.00970858 0
-3.434e-56 -0.00970858 0
3.51021e-56 -0.00970858 0
5.90627e-57 -0.00970858 0
-1.94732e-56 -0.00970858 0
-1.25693e-56 -0.00970858 0
-2.86804e-56 -0.00970858 0
1.67893e-56 -0.00970858 0
-2.25061e-56 -0.00970858 0
2.88765e-56 -0.00970858 0
1.99649e-57 -0.00970858 0
-2.99289e-56 -0.00970858 0
-3.48469e-56 -0.00970858 0
-5.41226e-57 -0.00970858 0
2.63124e-57 -0.00970858 0
6.12512e-57 -0.00970858 0
3.23243e-56 -0.00970858 0
SCALARS radius double 1
LOOKUP_TABLE default
0.0005192
0.000759374
0.000731582
0.000932767
0.000864852
0.00092132
0.000824734
0.000662097
0.000535446
0.00094621
0.000999249
0.000802661
0.000671708
0.000819153
0.000645007
0.000827505
0.000602392
0.000772815
0.000550095
0.000626194
0.000886859
0.000531918
0.000790192
0.000909137
0.00096445
SCALARS mass double 1
LOOKUP_TABLE default
0.00228657
0.0048913
0.00453983
0.00738005
0.00634449
0.00720004
0.00576955
0.0037184
0.0024319
0.00759432
0.00846957
0.00546484
0.00382714
0.00569173
0.00352892
0.00580838
0.00307803
0.005066
0.00256678
0.00332607
0.00667148
0.00239995
0.00529637
0.00701087
0.00788992
