# vtk DataFile Version 3.0
DEM2D particles
ASCII
DATASET POLYDATA
POINTS 25 double
0.000210492 -0.000743503 0
0.00247694 -0.00114279 0
0.00456711 -0.000495465 0
0.00674628 -0.000614179 0
0.00933215 0.000302948 0
0.000976388 0.00245712 0
0.00272805 0.00214157 0
0.00430175 0.00167276 0
0.00620408 0.00109544 0
0.00807857 0.0015414 0
0.00194188 0.00339408 0
0.00315848 0.00311316 0
0.00447748 0.00361736 0
0.00666273 0.00468991 0
0.00823043 0.00414243 0
0.0014505 0.00531276 0
0.0023961 0.00642613 0
0.00577483 0.00545121 0
0.00705357 0.00601282 0
0.00819693 0.00571853 0
6.49651e-05 0.00735972 0
0.00285477 0.00871973 0
0.0050706 0.00765252 0
0.00716435 0.00824753 0
0.00986735 0.00779644 0
VERTICES 25 50
1 0
1 1
1 2
1 3
1 4
1 5
1 6
1 7
1 8
1 9
1 10
1 11
1 12
1 13
1 14
1 15
1 16
1 17
1 18
1 19
1 20
1 21
1 22
1 23
1 24
POINT_DATA 25
VECTORS velocity double
-1.07699e-56 -0.00970858 0
-7.13527e-57 -0.00970858 0
-5.90522e-57 -0.00970858 0
-3.4611e-57 -0.00970858 0
4.53093e-57 -0.00970858 0
-3.22103e-58 -0.00970858 0
-3.70981e-57 -0.00970858 0
-9.52506e-57 -0.00970858 0
-1.08573e-56 -0.00970858 0
-1.25695e-56 -0.00970858 0
1.28485e-56 -0.00970858 0
2.16189e-57 -0.00970858 0
-7.12784e-57 -0.00970858 0
-4.60076e-57 -0.00970858 0
-1.04979e-56 -0.00970858 0
6.14541e-57 -0.00970858 0
-8.23797e-57 -0.00970858 0
1.05697e-56 -0.00970858 0
7.30779e-58 -0.00970858 0
-1.09549e-56 -0.00970858 0
-1.27551e-56 -0.00970858 0
-1.98106e-57 -0.00970858 0
9.63118e-58 -0.00970858 0
2.24199e-57 -0.00970858 0
1.18317e-56 -0.00970858 0
SCALARS radius double 1
LOOKUP_TABLE default
0.0005192
0.000759374
0.000731582
0.000932767
0.000864852
0.00092132
0.000824734
0.000662097
0.000535446
0.00094621
0.000999249
0.000802661
0.000671708
0.000819153
0.000645007
0.000827505
0.000602392
0.000772815
0.000550095
0.000626194
0.000886859
0.000531918
0.000790192
0.000909137
0.00096445
SCALARS mass double 1
LOOKUP_TABLE default
0.00228657
0.0048913
0.00453983
0.00738005
0.00634449
0.00720004
0.00576955
0.0037184
0.0024319
0.00759432
0.00846957
0.00546484
0.00382714
0.00569173
0.00352892
0.00580838
0.00307803
0.005066
0.00256678
0.00332607
0.00667148
0.00239995
0.00529637
0.00701087
0.00788992
