# vtk DataFile Version 3.0
DEM2D particles
ASCII
DATASET POLYDATA
POINTS 25 double
0.000210492 -0.000102736 0
0.00247694 -0.000502025 0
0.00456711 0.000145302 0
0.00674628 2.65876e-05 0
0.00933215 0.000943714 0
0.000976388 0.00309789 0
0.00272805 0.00278234 0
0.00430175 0.00231352 0
0.00620408 0.00173621 0
0.00807857 0.00218217 0
0.00194188 0.00403485 0
0.00315848 0.00375393 0
0.00447748 0.00425813 0
0.00666273 0.00533068 0
0.00823043 0.0047832 0
0.0014505 0.00595352 0
0.0023961 0.00706689 0
0.00577483 0.00609197 0
0.00705357 0.00665358 0
0.00819693 0.0063593 0
6.49651e-05 0.00800049 0
0.00285477 0.00936049 0
0.0050706 0.00829328 0
0.00716435 0.0088883 0
0.00986735 0.0084372 0
VERTICES 25 50
1 0
1 1
1 2
1 3
1 4
1 5
1 6
1 7
1 8
1 9
1 10
1 11
1 12
1 13
1 14
1 15
1 16
1 17
1 18
1 19
1 20
1 21
1 22
1 23
1 24
POINT_DATA 25
VECTORS velocity double
-6.91716e-28 -0.00970858 0
-4.58275e-28 -0.00970858 0
-3.79273e-28 -0.00970858 0
-2.22295e-28 -0.00970858 0
2.91007e-28 -0.00970858 0
-2.06876e-29 -0.00970858 0
-2.38269e-28 -0.00970858 0
-6.11763e-28 -0.00970858 0
-6.9733e-28 -0.00970858 0
-8.07301e-28 -0.00970858 0
8.25217e-28 -0.00970858 0
1.38851e-28 -0.00970858 0
-4.57797e-28 -0.00970858 0
-2.95492e-28 -0.00970858 0
-6.74248e-28 -0.00970858 0
3.947e-28 -0.00970858 0
-5.29097e-28 -0.00970858 0
6.78859e-28 -0.00970858 0
4.69355e-29 -0.00970858 0
-7.036e-28 -0.00970858 0
-8.19217e-28 -0.00970858 0
-1.27237e-28 -0.00970858 0
6.18579e-29 -0.00970858 0
1.43996e-28 -0.00970858 0
7.59914e-28 -0.00970858 0
SCALARS radius double 1
LOOKUP_TABLE default
0.0005192
0.000759374
0.000731582
0.000932767
0.000864852
0.00092132
0.000824734
0.000662097
0.000535446
0.00094621
0.000999249
0.000802661
0.000671708
0.000819153
0.000645007
0.000827505
0.000602392
0.000772815
0.000550095
0.000626194
0.000886859
0.000531918
0.000790192
0.000909137
0.00096445
SCALARS mass double 1
LOOKUP_TABLE default
0.00228657
0.0048913
0.00453983
0.00738005
0.00634449
0.00720004
0.00576955
0.0037184
0.0024319
0.00759432
0.00846957
0.00546484
0.00382714
0.00569173
0.00352892
0.00580838
0.00307803
0.005066
0.00256678
0.00332607
0.00667148
0.00239995
0.00529637
0.00701087
0.00788992
