# vtk DataFile Version 3.0
DEM2D particles
ASCII
DATASET POLYDATA
POINTS 25 double
0.000210492 -9.6911e-05 0
0.00247694 -0.0004962 0
0.00456711 0.000151127 0
0.00674628 3.24128e-05 0
0.00933215 0.000949539 0
0.000976388 0.00310371 0
0.00272805 0.00278816 0
0.00430175 0.00231935 0
0.00620408 0.00174203 0
0.00807857 0.002188 0
0.00194188 0.00404068 0
0.00315848 0.00375975 0
0.00447748 0.00426395 0
0.00666273 0.00533651 0
0.00823043 0.00478903 0
0.0014505 0.00595935 0
0.0023961 0.00707272 0
0.00577483 0.0060978 0
0.00705357 0.00665941 0
0.00819693 0.00636512 0
6.49651e-05 0.00800631 0
0.00285477 0.00936632 0
0.0050706 0.00829911 0
0.00716435 0.00889412 0
0.00986735 0.00844303 0
VERTICES 25 50
1 0
1 1
1 2
1 3
1 4
1 5
1 6
1 7
1 8
1 9
1 10
1 11
1 12
1 13
1 14
1 15
1 16
1 17
1 18
1 19
1 20
1 21
1 22
1 23
1 24
POINT_DATA 25
VECTORS velocity double
-1.2642e-27 -0.00970858 0
-8.37557e-28 -0.00970858 0
-6.9317e-28 -0.00970858 0
-4.06273e-28 -0.00970858 0
5.31853e-28 -0.00970858 0
-3.78093e-29 -0.00970858 0
-4.35468e-28 -0.00970858 0
-1.11808e-27 -0.00970858 0
-1.27446e-27 -0.00970858 0
-1.47545e-27 -0.00970858 0
1.50819e-27 -0.00970858 0
2.53768e-28 -0.00970858 0
-8.36684e-28 -0.00970858 0
-5.40049e-28 -0.00970858 0
-1.23228e-27 -0.00970858 0
7.21365e-28 -0.00970858 0
-9.66994e-28 -0.00970858 0
1.2407e-27 -0.00970858 0
8.57807e-29 -0.00970858 0
-1.28592e-27 -0.00970858 0
-1.49723e-27 -0.00970858 0
-2.32542e-28 -0.00970858 0
1.13053e-28 -0.00970858 0
2.63171e-28 -0.00970858 0
1.38884e-27 -0.00970858 0
SCALARS radius double 1
LOOKUP_TABLE default
0.0005192
0.000759374
0.000731582
0.000932767
0.000864852
0.00092132
0.000824734
0.000662097
0.000535446
0.00094621
0.000999249
0.000802661
0.000671708
0.000819153
0.000645007
0.000827505
0.000602392
0.000772815
0.000550095
0.000626194
0.000886859
0.000531918
0.000790192
0.000909137
0.00096445
SCALARS mass double 1
LOOKUP_TABLE default
0.00228657
0.0048913
0.00453983
0.00738005
0.00634449
0.00720004
0.00576955
0.0037184
0.0024319
0.00759432
0.00846957
0.00546484
0.00382714
0.00569173
0.00352892
0.00580838
0.00307803
0.005066
0.00256678
0.00332607
0.00667148
0.00239995
0.00529637
0.00701087
0.00788992
