# vtk DataFile Version 3.0
DEM2D particles
ASCII
DATASET POLYDATA
POINTS 25 double
0.000210492 -0.00105806 0
0.00247694 -0.00145735 0
0.00456711 -0.000810023 0
0.00674628 -0.000928737 0
0.00933215 -1.16105e-05 0
0.000976388 0.00214256 0
0.00272805 0.00182701 0
0.00430175 0.0013582 0
0.00620408 0.000780885 0
0.00807857 0.00122685 0
0.00194188 0.00307953 0
0.00315848 0.0027986 0
0.00447748 0.0033028 0
0.00666273 0.00437536 0
0.00823043 0.00382788 0
0.0014505 0.0049982 0
0.0023961 0.00611157 0
0.00577483 0.00513665 0
0.00705357 0.00569826 0
0.00819693 0.00540397 0
6.49651e-05 0.00704516 0
0.00285477 0.00840517 0
0.0050706 0.00733796 0
0.00716435 0.00793297 0
0.00986735 0.00748188 0
VERTICES 25 50
1 0
1 1
1 2
1 3
1 4
1 5
1 6
1 7
1 8
1 9
1 10
1 11
1 12
1 13
1 14
1 15
1 16
1 17
1 18
1 19
1 20
1 21
1 22
1 23
1 24
POINT_DATA 25
VECTORS velocity double
-7.76681e-71 -0.00970858 0
-5.14565e-71 -0.00970858 0
-4.2586e-71 -0.00970858 0
-2.496e-71 -0.00970858 0
3.26752e-71 -0.00970858 0
-2.32287e-72 -0.00970858 0
-2.67536e-71 -0.00970858 0
-6.86907e-71 -0.00970858 0
-7.82985e-71 -0.00970858 0
-9.06463e-71 -0.00970858 0
9.2658e-71 -0.00970858 0
1.55906e-71 -0.00970858 0
-5.1403e-71 -0.00970858 0
-3.31787e-71 -0.00970858 0
-7.57067e-71 -0.00970858 0
4.43181e-71 -0.00970858 0
-5.94088e-71 -0.00970858 0
7.62245e-71 -0.00970858 0
5.27007e-72 -0.00970858 0
-7.90025e-71 -0.00970858 0
-9.19844e-71 -0.00970858 0
-1.42866e-71 -0.00970858 0
6.9456e-72 -0.00970858 0
1.61683e-71 -0.00970858 0
8.53256e-71 -0.00970858 0
SCALARS radius double 1
LOOKUP_TABLE default
0.0005192
0.000759374
0.000731582
0.000932767
0.000864852
0.00092132
0.000824734
0.000662097
0.000535446
0.00094621
0.000999249
0.000802661
0.000671708
0.000819153
0.000645007
0.000827505
0.000602392
0.000772815
0.000550095
0.000626194
0.000886859
0.000531918
0.000790192
0.000909137
0.00096445
SCALARS mass double 1
LOOKUP_TABLE default
0.00228657
0.0048913
0.00453983
0.00738005
0.00634449
0.00720004
0.00576955
0.0037184
0.0024319
0.00759432
0.00846957
0.00546484
0.00382714
0.00569173
0.00352892
0.00580838
0.00307803
0.005066
0.00256678
0.00332607
0.00667148
0.00239995
0.00529637
0.00701087
0.00788992
