# vtk DataFile Version 3.0
DEM2D particles
ASCII
DATASET POLYDATA
POINTS 25 double
0.000210492 -0.000605641 0
0.00247694 -0.00100493 0
0.00456711 -0.000357603 0
0.00674628 -0.000476317 0
0.00933215 0.000440809 0
0.000976388 0.00259498 0
0.00272805 0.00227943 0
0.00430175 0.00181062 0
0.00620408 0.0012333 0
0.00807857 0.00167927 0
0.00194188 0.00353195 0
0.00315848 0.00325102 0
0.00447748 0.00375522 0
0.00666273 0.00482778 0
0.00823043 0.0042803 0
0.0014505 0.00545062 0
0.0023961 0.00656399 0
0.00577483 0.00558907 0
0.00705357 0.00615068 0
0.00819693 0.00585639 0
6.49651e-05 0.00749758 0
0.00285477 0.00885759 0
0.0050706 0.00779038 0
0.00716435 0.00838539 0
0.00986735 0.0079343 0
VERTICES 25 50
1 0
1 1
1 2
1 3
1 4
1 5
1 6
1 7
1 8
1 9
1 10
1 11
1 12
1 13
1 14
1 15
1 16
1 17
1 18
1 19
1 20
1 21
1 22
1 23
1 24
POINT_DATA 25
VECTORS velocity double
-1.69917e-50 -0.00970858 0
-1.12573e-50 -0.00970858 0
-9.31665e-51 -0.00970858 0
-5.46057e-51 -0.00970858 0
7.14844e-51 -0.00970858 0
-5.08181e-52 -0.00970858 0
-5.85296e-51 -0.00970858 0
-1.50277e-50 -0.00970858 0
-1.71296e-50 -0.00970858 0
-1.98309e-50 -0.00970858 0
2.0271e-50 -0.00970858 0
3.4108e-51 -0.00970858 0
-1.12456e-50 -0.00970858 0
-7.25861e-51 -0.00970858 0
-1.65626e-50 -0.00970858 0
9.6956e-51 -0.00970858 0
-1.2997e-50 -0.00970858 0
1.66758e-50 -0.00970858 0
1.15295e-51 -0.00970858 0
-1.72836e-50 -0.00970858 0
-2.01237e-50 -0.00970858 0
-3.12552e-51 -0.00970858 0
1.51951e-51 -0.00970858 0
3.53719e-51 -0.00970858 0
1.86669e-50 -0.00970858 0
SCALARS radius double 1
LOOKUP_TABLE default
0.0005192
0.000759374
0.000731582
0.000932767
0.000864852
0.00092132
0.000824734
0.000662097
0.000535446
0.00094621
0.000999249
0.000802661
0.000671708
0.000819153
0.000645007
0.000827505
0.000602392
0.000772815
0.000550095
0.000626194
0.000886859
0.000531918
0.000790192
0.000909137
0.00096445
SCALARS mass double 1
LOOKUP_TABLE default
0.00228657
0.0048913
0.00453983
0.00738005
0.00634449
0.00720004
0.00576955
0.0037184
0.0024319
0.00759432
0.00846957
0.00546484
0.00382714
0.00569173
0.00352892
0.00580838
0.00307803
0.005066
0.00256678
0.00332607
0.00667148
0.00239995
0.00529637
0.00701087
0.00788992
