# vtk DataFile Version 3.0
DEM2D particles
ASCII
DATASET POLYDATA
POINTS 25 double
0.000210492 -0.000811463 0
0.00247694 -0.00121075 0
0.00456711 -0.000563425 0
0.00674628 -0.000682139 0
0.00933215 0.000234987 0
0.000976388 0.00238916 0
0.00272805 0.00207361 0
0.00430175 0.0016048 0
0.00620408 0.00102748 0
0.00807857 0.00147344 0
0.00194188 0.00332612 0
0.00315848 0.0030452 0
0.00447748 0.0035494 0
0.00666273 0.00462195 0
0.00823043 0.00407447 0
0.0014505 0.0052448 0
0.0023961 0.00635817 0
0.00577483 0.00538325 0
0.00705357 0.00594486 0
0.00819693 0.00565057 0
6.49651e-05 0.00729176 0
0.00285477 0.00865177 0
0.0050706 0.00758456 0
0.00716435 0.00817957 0
0.00986735 0.00772848 0
VERTICES 25 50
1 0
1 1
1 2
1 3
1 4
1 5
1 6
1 7
1 8
1 9
1 10
1 11
1 12
1 13
1 14
1 15
1 16
1 17
1 18
1 19
1 20
1 21
1 22
1 23
1 24
POINT_DATA 25
VECTORS velocity double
-9.48088e-60 -0.00970858 0
-6.28125e-60 -0.00970858 0
-5.19843e-60 -0.00970858 0
-3.04685e-60 -0.00970858 0
3.98863e-60 -0.00970858 0
-2.83551e-61 -0.00970858 0
-3.26579e-60 -0.00970858 0
-8.38501e-60 -0.00970858 0
-9.55783e-60 -0.00970858 0
-1.10651e-59 -0.00970858 0
1.13107e-59 -0.00970858 0
1.90313e-60 -0.00970858 0
-6.27471e-60 -0.00970858 0
-4.0501e-60 -0.00970858 0
-9.24145e-60 -0.00970858 0
5.40987e-60 -0.00970858 0
-7.25197e-60 -0.00970858 0
9.30465e-60 -0.00970858 0
6.43313e-61 -0.00970858 0
-9.64376e-60 -0.00970858 0
-1.12284e-59 -0.00970858 0
-1.74395e-60 -0.00970858 0
8.47844e-61 -0.00970858 0
1.97365e-60 -0.00970858 0
1.04156e-59 -0.00970858 0
SCALARS radius double 1
LOOKUP_TABLE default
0.0005192
0.000759374
0.000731582
0.000932767
0.000864852
0.00092132
0.000824734
0.000662097
0.000535446
0.00094621
0.000999249
0.000802661
0.000671708
0.000819153
0.000645007
0.000827505
0.000602392
0.000772815
0.000550095
0.000626194
0.000886859
0.000531918
0.000790192
0.000909137
0.00096445
SCALARS mass double 1
LOOKUP_TABLE default
0.00228657
0.0048913
0.00453983
0.00738005
0.00634449
0.00720004
0.00576955
0.0037184
0.0024319
0.00759432
0.00846957
0.00546484
0.00382714
0.00569173
0.00352892
0.00580838
0.00307803
0.005066
0.00256678
0.00332607
0.00667148
0.00239995
0.00529637
0.00701087
0.00788992
