# vtk DataFile Version 3.0
DEM2D particles
ASCII
DATASET POLYDATA
POINTS 25 double
0.000210492 -0.00131631 0
0.00247694 -0.0017156 0
0.00456711 -0.00106827 0
0.00674628 -0.00118699 0
0.00933215 -0.000269859 0
0.000976388 0.00188432 0
0.00272805 0.00156876 0
0.00430175 0.00109995 0
0.00620408 0.000522637 0
0.00807857 0.000968598 0
0.00194188 0.00282128 0
0.00315848 0.00254035 0
0.00447748 0.00304456 0
0.00666273 0.00411711 0
0.00823043 0.00356963 0
0.0014505 0.00473995 0
0.0023961 0.00585332 0
0.00577483 0.0048784 0
0.00705357 0.00544001 0
0.00819693 0.00514573 0
6.49651e-05 0.00678692 0
0.00285477 0.00814692 0
0.0050706 0.00707971 0
0.00716435 0.00767472 0
0.00986735 0.00722363 0
VERTICES 25 50
1 0
1 1
1 2
1 3
1 4
1 5
1 6
1 7
1 8
1 9
1 10
1 11
1 12
1 13
1 14
1 15
1 16
1 17
1 18
1 19
1 20
1 21
1 22
1 23
1 24
POINT_DATA 25
VECTORS velocity double
-1.90485e-82 -0.00970858 0
-1.262e-82 -0.00970858 0
-1.04444e-82 -0.00970858 0
-6.12156e-83 -0.00970858 0
8.01375e-83 -0.00970858 0
-5.69696e-84 -0.00970858 0
-6.56146e-83 -0.00970858 0
-1.68467e-82 -0.00970858 0
-1.92031e-82 -0.00970858 0
-2.22314e-82 -0.00970858 0
2.27248e-82 -0.00970858 0
3.82368e-83 -0.00970858 0
-1.26068e-82 -0.00970858 0
-8.13725e-83 -0.00970858 0
-1.85674e-82 -0.00970858 0
1.08692e-82 -0.00970858 0
-1.45703e-82 -0.00970858 0
1.86944e-82 -0.00970858 0
1.29251e-83 -0.00970858 0
-1.93757e-82 -0.00970858 0
-2.25596e-82 -0.00970858 0
-3.50386e-83 -0.00970858 0
1.70344e-83 -0.00970858 0
3.96536e-83 -0.00970858 0
2.09265e-82 -0.00970858 0
SCALARS radius double 1
LOOKUP_TABLE default
0.0005192
0.000759374
0.000731582
0.000932767
0.000864852
0.00092132
0.000824734
0.000662097
0.000535446
0.00094621
0.000999249
0.000802661
0.000671708
0.000819153
0.000645007
0.000827505
0.000602392
0.000772815
0.000550095
0.000626194
0.000886859
0.000531918
0.000790192
0.000909137
0.00096445
SCALARS mass double 1
LOOKUP_TABLE default
0.00228657
0.0048913
0.00453983
0.00738005
0.00634449
0.00720004
0.00576955
0.0037184
0.0024319
0.00759432
0.00846957
0.00546484
0.00382714
0.00569173
0.00352892
0.00580838
0.00307803
0.005066
0.00256678
0.00332607
0.00667148
0.00239995
0.00529637
0.00701087
0.00788992
