# vtk DataFile Version 3.0
DEM2D particles
ASCII
DATASET POLYDATA
POINTS 25 double
0.000210492 5.26012e-05 0
0.00247694 -0.000346688 0
0.00456711 0.000300639 0
0.00674628 0.000181925 0
0.00933215 0.00109905 0
0.000976388 0.00325323 0
0.00272805 0.00293767 0
0.00430175 0.00246886 0
0.00620408 0.00189155 0
0.00807857 0.00233751 0
0.00194188 0.00419019 0
0.00315848 0.00390926 0
0.00447748 0.00441347 0
0.00666273 0.00548602 0
0.00823043 0.00493854 0
0.0014505 0.00610886 0
0.0023961 0.00722223 0
0.00577483 0.00624731 0
0.00705357 0.00680892 0
0.00819693 0.00651464 0
6.49651e-05 0.00815583 0
0.00285477 0.00951583 0
0.0050706 0.00844862 0
0.00716435 0.00904363 0
0.00986735 0.00859254 0
VERTICES 25 50
1 0
1 1
1 2
1 3
1 4
1 5
1 6
1 7
1 8
1 9
1 10
1 11
1 12
1 13
1 14
1 15
1 16
1 17
1 18
1 19
1 20
1 21
1 22
1 23
1 24
POINT_DATA 25
VECTORS velocity double
-6.66219e-21 -0.00970858 0
-4.41382e-21 -0.00970858 0
-3.65292e-21 -0.00970858 0
-2.14101e-21 -0.00970858 0
2.8028e-21 -0.00970858 0
-1.99251e-22 -0.00970858 0
-2.29486e-21 -0.00970858 0
-5.89212e-21 -0.00970858 0
-6.71626e-21 -0.00970858 0
-7.77542e-21 -0.00970858 0
7.94798e-21 -0.00970858 0
1.33733e-21 -0.00970858 0
-4.40922e-21 -0.00970858 0
-2.84599e-21 -0.00970858 0
-6.49394e-21 -0.00970858 0
3.8015e-21 -0.00970858 0
-5.09594e-21 -0.00970858 0
6.53835e-21 -0.00970858 0
4.52054e-22 -0.00970858 0
-6.77664e-21 -0.00970858 0
-7.8902e-21 -0.00970858 0
-1.22547e-21 -0.00970858 0
5.95777e-22 -0.00970858 0
1.38688e-21 -0.00970858 0
7.31903e-21 -0.00970858 0
SCALARS radius double 1
LOOKUP_TABLE default
0.0005192
0.000759374
0.000731582
0.000932767
0.000864852
0.00092132
0.000824734
0.000662097
0.000535446
0.00094621
0.000999249
0.000802661
0.000671708
0.000819153
0.000645007
0.000827505
0.000602392
0.000772815
0.000550095
0.000626194
0.000886859
0.000531918
0.000790192
0.000909137
0.00096445
SCALARS mass double 1
LOOKUP_TABLE default
0.00228657
0.0048913
0.00453983
0.00738005
0.00634449
0.00720004
0.00576955
0.0037184
0.0024319
0.00759432
0.00846957
0.00546484
0.00382714
0.00569173
0.00352892
0.00580838
0.00307803
0.005066
0.00256678
0.00332607
0.00667148
0.00239995
0.00529637
0.00701087
0.00788992
