# vtk DataFile Version 3.0
DEM2D particles
ASCII
DATASET POLYDATA
POINTS 25 double
0.000231677 0.000477683 0
0.00249097 8.91082e-05 0
0.00457872 0.000719066 0
0.00675309 0.000603537 0
0.00932324 0.00149605 0
0.000977021 0.00364609 0
0.00273534 0.00333901 0
0.00432048 0.00288277 0
0.00622544 0.00232095 0
0.00810329 0.00275495 0
0.00191661 0.00461158 0
0.00315423 0.00433819 0
0.0044915 0.00482886 0
0.00667178 0.00587264 0
0.00825108 0.00533985 0
0.00143841 0.00653243 0
0.00241231 0.00761593 0
0.00575404 0.00666717 0
0.00705213 0.00721371 0
0.00821848 0.00692732 0
9.00549e-05 0.00857814 0
0.00285867 0.00990165 0
0.00506871 0.00886307 0
0.00715994 0.00944212 0
0.00984407 0.00900314 0
VERTICES 25 50
1 0
1 1
1 2
1 3
1 4
1 5
1 6
1 7
1 8
1 9
1 10
1 11
1 12
1 13
1 14
1 15
1 16
1 17
1 18
1 19
1 20
1 21
1 22
1 23
1 24
POINT_DATA 25
VECTORS velocity double
-0.0213989 -0.0232824 0
-0.0141772 -0.0341048 0
-0.0117332 -0.0165596 0
-0.00687691 -0.0197772 0
0.00900258 0.00508066 0
-0.000639992 0.00925943 0
-0.00737109 0.000706661 0
-0.0189255 -0.012 0
-0.0215726 -0.0276477 0
-0.0249746 -0.0155603 0
0.0255289 -0.0195533 0
0.00429549 -0.0271675 0
-0.0141624 -0.0135015 0
-0.00914132 0.015569 0
-0.0208585 0.000730076 0
0.0122104 -0.0217575 0
-0.0163681 0.00841931 0
0.0210012 -0.018005 0
0.00145199 -0.00278302 0
-0.0217665 -0.0107594 0
-0.0253433 -0.0204846 0
-0.0039362 0.0163771 0
0.00191363 -0.0125487 0
0.00445465 0.00357859 0
0.0235087 -0.00864781 0
SCALARS radius double 1
LOOKUP_TABLE default
0.0005192
0.000759374
0.000731582
0.000932767
0.000864852
0.00092132
0.000824734
0.000662097
0.000535446
0.00094621
0.000999249
0.000802661
0.000671708
0.000819153
0.000645007
0.000827505
0.000602392
0.000772815
0.000550095
0.000626194
0.000886859
0.000531918
0.000790192
0.000909137
0.00096445
SCALARS mass double 1
LOOKUP_TABLE default
0.00228657
0.0048913
0.00453983
0.00738005
0.00634449
0.00720004
0.00576955
0.0037184
0.0024319
0.00759432
0.00846957
0.00546484
0.00382714
0.00569173
0.00352892
0.00580838
0.00307803
0.005066
0.00256678
0.00332607
0.00667148
0.00239995
0.00529637
0.00701087
0.00788992
