# vtk DataFile Version 3.0
DEM2D particles
ASCII
DATASET POLYDATA
POINTS 25 double
0.000210492 0.000171046 0
0.00247694 -0.000228243 0
0.00456711 0.000419084 0
0.00674628 0.00030037 0
0.00933215 0.0012175 0
0.000976388 0.00337167 0
0.00272805 0.00305612 0
0.00430175 0.00258731 0
0.00620408 0.00200999 0
0.00807857 0.00245595 0
0.00194188 0.00430863 0
0.00315848 0.00402771 0
0.00447748 0.00453191 0
0.00666273 0.00560446 0
0.00823043 0.00505698 0
0.0014505 0.00622731 0
0.0023961 0.00734067 0
0.00577483 0.00636575 0
0.00705357 0.00692737 0
0.00819693 0.00663308 0
6.49651e-05 0.00827427 0
0.00285477 0.00963428 0
0.0050706 0.00856706 0
0.00716435 0.00916208 0
0.00986735 0.00871099 0
VERTICES 25 50
1 0
1 1
1 2
1 3
1 4
1 5
1 6
1 7
1 8
1 9
1 10
1 11
1 12
1 13
1 14
1 15
1 16
1 17
1 18
1 19
1 20
1 21
1 22
1 23
1 24
POINT_DATA 25
VECTORS velocity double
-1.40825e-15 -0.00970858 0
-9.3299e-16 -0.00970858 0
-7.72152e-16 -0.00970858 0
-4.52565e-16 -0.00970858 0
5.92454e-16 -0.00970858 0
-4.21174e-17 -0.00970858 0
-4.85086e-16 -0.00970858 0
-1.24547e-15 -0.00970858 0
-1.41968e-15 -0.00970858 0
-1.64356e-15 -0.00970858 0
1.68004e-15 -0.00970858 0
2.82683e-16 -0.00970858 0
-9.32019e-16 -0.00970858 0
-6.01584e-16 -0.00970858 0
-1.37269e-15 -0.00970858 0
8.03559e-16 -0.00970858 0
-1.07718e-15 -0.00970858 0
1.38207e-15 -0.00970858 0
9.55548e-17 -0.00970858 0
-1.43244e-15 -0.00970858 0
-1.66782e-15 -0.00970858 0
-2.59039e-16 -0.00970858 0
1.25935e-16 -0.00970858 0
2.93158e-16 -0.00970858 0
1.54709e-15 -0.00970858 0
SCALARS radius double 1
LOOKUP_TABLE default
0.0005192
0.000759374
0.000731582
0.000932767
0.000864852
0.00092132
0.000824734
0.000662097
0.000535446
0.00094621
0.000999249
0.000802661
0.000671708
0.000819153
0.000645007
0.000827505
0.000602392
0.000772815
0.000550095
0.000626194
0.000886859
0.000531918
0.000790192
0.000909137
0.00096445
SCALARS mass double 1
LOOKUP_TABLE default
0.00228657
0.0048913
0.00453983
0.00738005
0.00634449
0.00720004
0.00576955
0.0037184
0.0024319
0.00759432
0.00846957
0.00546484
0.00382714
0.00569173
0.00352892
0.00580838
0.00307803
0.005066
0.00256678
0.00332607
0.00667148
0.00239995
0.00529637
0.00701087
0.00788992
