# vtk DataFile Version 3.0
DEM2D particles
ASCII
DATASET POLYDATA
POINTS 25 double
0.000210492 0.000351626 0
0.00247694 -4.76634e-05 0
0.00456711 0.000599664 0
0.00674628 0.000480949 0
0.00933215 0.00139808 0
0.000976388 0.00355225 0
0.00272805 0.0032367 0
0.00430175 0.00276789 0
0.00620408 0.00219057 0
0.00807857 0.00263653 0
0.00194188 0.00448921 0
0.00315848 0.00420829 0
0.00447748 0.00471249 0
0.00666273 0.00578504 0
0.00823043 0.00523756 0
0.0014505 0.00640789 0
0.0023961 0.00752125 0
0.00577483 0.00654633 0
0.00705357 0.00710795 0
0.00819693 0.00681366 0
6.49653e-05 0.00845485 0
0.00285477 0.00981486 0
0.0050706 0.00874764 0
0.00716435 0.00934266 0
0.00986735 0.00889157 0
VERTICES 25 50
1 0
1 1
1 2
1 3
1 4
1 5
1 6
1 7
1 8
1 9
1 10
1 11
1 12
1 13
1 14
1 15
1 16
1 17
1 18
1 19
1 20
1 21
1 22
1 23
1 24
POINT_DATA 25
VECTORS velocity double
-1.85019e-07 -0.0097087 0
-1.22579e-07 -0.00970879 0
-1.01447e-07 -0.00970864 0
-5.94592e-08 -0.00970867 0
7.78382e-08 -0.00970846 0
-5.5335e-09 -0.00970842 0
-6.37319e-08 -0.00970849 0
-1.63634e-07 -0.0097086 0
-1.86521e-07 -0.00970874 0
-2.15936e-07 -0.00970863 0
2.20728e-07 -0.00970867 0
3.71397e-08 -0.00970873 0
-1.22451e-07 -0.00970862 0
-7.90377e-08 -0.00970836 0
-1.80347e-07 -0.00970849 0
1.05574e-07 -0.00970869 0
-1.41522e-07 -0.00970843 0
1.8158e-07 -0.00970866 0
1.25542e-08 -0.00970852 0
-1.88198e-07 -0.00970859 0
-2.19123e-07 -0.00970868 0
-3.40332e-08 -0.00970836 0
1.65457e-08 -0.00970861 0
3.85158e-08 -0.00970847 0
2.03261e-07 -0.00970857 0
SCALARS radius double 1
LOOKUP_TABLE default
0.0005192
0.000759374
0.000731582
0.000932767
0.000864852
0.00092132
0.000824734
0.000662097
0.000535446
0.00094621
0.000999249
0.000802661
0.000671708
0.000819153
0.000645007
0.000827505
0.000602392
0.000772815
0.000550095
0.000626194
0.000886859
0.000531918
0.000790192
0.000909137
0.00096445
SCALARS mass double 1
LOOKUP_TABLE default
0.00228657
0.0048913
0.00453983
0.00738005
0.00634449
0.00720004
0.00576955
0.0037184
0.0024319
0.00759432
0.00846957
0.00546484
0.00382714
0.00569173
0.00352892
0.00580838
0.00307803
0.005066
0.00256678
0.00332607
0.00667148
0.00239995
0.00529637
0.00701087
0.00788992
