# vtk DataFile Version 3.0
DEM2D particles
ASCII
DATASET POLYDATA
POINTS 25 double
0.000210492 -0.0010969 0
0.00247694 -0.00149618 0
0.00456711 -0.000848857 0
0.00674628 -0.000967571 0
0.00933215 -5.04449e-05 0
0.000976388 0.00210373 0
0.00272805 0.00178818 0
0.00430175 0.00131937 0
0.00620408 0.000742051 0
0.00807857 0.00118801 0
0.00194188 0.00304069 0
0.00315848 0.00275977 0
0.00447748 0.00326397 0
0.00666273 0.00433652 0
0.00823043 0.00378904 0
0.0014505 0.00495937 0
0.0023961 0.00607273 0
0.00577483 0.00509781 0
0.00705357 0.00565943 0
0.00819693 0.00536514 0
6.49651e-05 0.00700633 0
0.00285477 0.00836633 0
0.0050706 0.00729912 0
0.00716435 0.00789414 0
0.00986735 0.00744305 0
VERTICES 25 50
1 0
1 1
1 2
1 3
1 4
1 5
1 6
1 7
1 8
1 9
1 10
1 11
1 12
1 13
1 14
1 15
1 16
1 17
1 18
1 19
1 20
1 21
1 22
1 23
1 24
POINT_DATA 25
VECTORS velocity double
-1.39419e-72 -0.00970858 0
-9.23674e-73 -0.00970858 0
-7.64441e-73 -0.00970858 0
-4.48046e-73 -0.00970858 0
5.86538e-73 -0.00970858 0
-4.16969e-74 -0.00970858 0
-4.80242e-73 -0.00970858 0
-1.23304e-72 -0.00970858 0
-1.4055e-72 -0.00970858 0
-1.62715e-72 -0.00970858 0
1.66326e-72 -0.00970858 0
2.7986e-73 -0.00970858 0
-9.22712e-73 -0.00970858 0
-5.95577e-73 -0.00970858 0
-1.35898e-72 -0.00970858 0
7.95535e-73 -0.00970858 0
-1.06642e-72 -0.00970858 0
1.36827e-72 -0.00970858 0
9.46007e-74 -0.00970858 0
-1.41814e-72 -0.00970858 0
-1.65117e-72 -0.00970858 0
-2.56452e-73 -0.00970858 0
1.24677e-73 -0.00970858 0
2.9023e-73 -0.00970858 0
1.53164e-72 -0.00970858 0
SCALARS radius double 1
LOOKUP_TABLE default
0.0005192
0.000759374
0.000731582
0.000932767
0.000864852
0.00092132
0.000824734
0.000662097
0.000535446
0.00094621
0.000999249
0.000802661
0.000671708
0.000819153
0.000645007
0.000827505
0.000602392
0.000772815
0.000550095
0.000626194
0.000886859
0.000531918
0.000790192
0.000909137
0.00096445
SCALARS mass double 1
LOOKUP_TABLE default
0.00228657
0.0048913
0.00453983
0.00738005
0.00634449
0.00720004
0.00576955
0.0037184
0.0024319
0.00759432
0.00846957
0.00546484
0.00382714
0.00569173
0.00352892
0.00580838
0.00307803
0.005066
0.00256678
0.00332607
0.00667148
0.00239995
0.00529637
0.00701087
0.00788992
