# vtk DataFile Version 3.0
DEM2D particles
ASCII
DATASET POLYDATA
POINTS 25 double
0.000210492 -0.00103282 0
0.00247694 -0.00143211 0
0.00456711 -0.000784781 0
0.00674628 -0.000903495 0
0.00933215 1.36318e-05 0
0.000976388 0.00216781 0
0.00272805 0.00185225 0
0.00430175 0.00138344 0
0.00620408 0.000806127 0
0.00807857 0.00125209 0
0.00194188 0.00310477 0
0.00315848 0.00282384 0
0.00447748 0.00332805 0
0.00666273 0.0044006 0
0.00823043 0.00385312 0
0.0014505 0.00502344 0
0.0023961 0.00613681 0
0.00577483 0.00516189 0
0.00705357 0.0057235 0
0.00819693 0.00542922 0
6.49651e-05 0.00707041 0
0.00285477 0.00843041 0
0.0050706 0.0073632 0
0.00716435 0.00795821 0
0.00986735 0.00750712 0
VERTICES 25 50
1 0
1 1
1 2
1 3
1 4
1 5
1 6
1 7
1 8
1 9
1 10
1 11
1 12
1 13
1 14
1 15
1 16
1 17
1 18
1 19
1 20
1 21
1 22
1 23
1 24
POINT_DATA 25
VECTORS velocity double
-1.05948e-69 -0.00970858 0
-7.01924e-70 -0.00970858 0
-5.80919e-70 -0.00970858 0
-3.40482e-70 -0.00970858 0
4.45726e-70 -0.00970858 0
-3.16866e-71 -0.00970858 0
-3.64949e-70 -0.00970858 0
-9.37017e-70 -0.00970858 0
-1.06808e-69 -0.00970858 0
-1.23652e-69 -0.00970858 0
1.26396e-69 -0.00970858 0
2.12673e-70 -0.00970858 0
-7.01193e-70 -0.00970858 0
-4.52595e-70 -0.00970858 0
-1.03272e-69 -0.00970858 0
6.04548e-70 -0.00970858 0
-8.10401e-70 -0.00970858 0
1.03979e-69 -0.00970858 0
7.18895e-71 -0.00970858 0
-1.07768e-69 -0.00970858 0
-1.25477e-69 -0.00970858 0
-1.94885e-70 -0.00970858 0
9.47457e-71 -0.00970858 0
2.20554e-70 -0.00970858 0
1.16394e-69 -0.00970858 0
SCALARS radius double 1
LOOKUP_TABLE default
0.0005192
0.000759374
0.000731582
0.000932767
0.000864852
0.00092132
0.000824734
0.000662097
0.000535446
0.00094621
0.000999249
0.000802661
0.000671708
0.000819153
0.000645007
0.000827505
0.000602392
0.000772815
0.000550095
0.000626194
0.000886859
0.000531918
0.000790192
0.000909137
0.00096445
SCALARS mass double 1
LOOKUP_TABLE default
0.00228657
0.0048913
0.00453983
0.00738005
0.00634449
0.00720004
0.00576955
0.0037184
0.0024319
0.00759432
0.00846957
0.00546484
0.00382714
0.00569173
0.00352892
0.00580838
0.00307803
0.005066
0.00256678
0.00332607
0.00667148
0.00239995
0.00529637
0.00701087
0.00788992
