# vtk DataFile Version 3.0
DEM2D particles
ASCII
DATASET POLYDATA
POINTS 25 double
0.000210492 -0.00136097 0
0.00247694 -0.00176026 0
0.00456711 -0.00111293 0
0.00674628 -0.00123164 0
0.00933215 -0.000314518 0
0.000976388 0.00183966 0
0.00272805 0.0015241 0
0.00430175 0.00105529 0
0.00620408 0.000477977 0
0.00807857 0.000923939 0
0.00194188 0.00277662 0
0.00315848 0.00249569 0
0.00447748 0.0029999 0
0.00666273 0.00407245 0
0.00823043 0.00352497 0
0.0014505 0.00469529 0
0.0023961 0.00580866 0
0.00577483 0.00483374 0
0.00705357 0.00539535 0
0.00819693 0.00510107 0
6.49651e-05 0.00674226 0
0.00285477 0.00810226 0
0.0050706 0.00703505 0
0.00716435 0.00763006 0
0.00986735 0.00717897 0
VERTICES 25 50
1 0
1 1
1 2
1 3
1 4
1 5
1 6
1 7
1 8
1 9
1 10
1 11
1 12
1 13
1 14
1 15
1 16
1 17
1 18
1 19
1 20
1 21
1 22
1 23
1 24
POINT_DATA 25
VECTORS velocity double
-1.8709e-84 -0.00970858 0
-1.2395e-84 -0.00970858 0
-1.02583e-84 -0.00970858 0
-6.01245e-85 -0.00970858 0
7.87092e-85 -0.00970858 0
-5.59542e-86 -0.00970858 0
-6.44451e-85 -0.00970858 0
-1.65465e-84 -0.00970858 0
-1.88608e-84 -0.00970858 0
-2.18352e-84 -0.00970858 0
2.23198e-84 -0.00970858 0
3.75553e-85 -0.00970858 0
-1.23821e-84 -0.00970858 0
-7.99222e-85 -0.00970858 0
-1.82365e-84 -0.00970858 0
1.06755e-84 -0.00970858 0
-1.43106e-84 -0.00970858 0
1.83612e-84 -0.00970858 0
1.26947e-85 -0.00970858 0
-1.90304e-84 -0.00970858 0
-2.21575e-84 -0.00970858 0
-3.44141e-85 -0.00970858 0
1.67308e-85 -0.00970858 0
3.89468e-85 -0.00970858 0
2.05535e-84 -0.00970858 0
SCALARS radius double 1
LOOKUP_TABLE default
0.0005192
0.000759374
0.000731582
0.000932767
0.000864852
0.00092132
0.000824734
0.000662097
0.000535446
0.00094621
0.000999249
0.000802661
0.000671708
0.000819153
0.000645007
0.000827505
0.000602392
0.000772815
0.000550095
0.000626194
0.000886859
0.000531918
0.000790192
0.000909137
0.00096445
SCALARS mass double 1
LOOKUP_TABLE default
0.00228657
0.0048913
0.00453983
0.00738005
0.00634449
0.00720004
0.00576955
0.0037184
0.0024319
0.00759432
0.00846957
0.00546484
0.00382714
0.00569173
0.00352892
0.00580838
0.00307803
0.005066
0.00256678
0.00332607
0.00667148
0.00239995
0.00529637
0.00701087
0.00788992
