# vtk DataFile Version 3.0
DEM2D particles
ASCII
DATASET POLYDATA
POINTS 25 double
0.000210492 -0.000560981 0
0.00247694 -0.00096027 0
0.00456711 -0.000312943 0
0.00674628 -0.000431657 0
0.00933215 0.000485469 0
0.000976388 0.00263964 0
0.00272805 0.00232409 0
0.00430175 0.00185528 0
0.00620408 0.00127796 0
0.00807857 0.00172393 0
0.00194188 0.00357661 0
0.00315848 0.00329568 0
0.00447748 0.00379988 0
0.00666273 0.00487243 0
0.00823043 0.00432495 0
0.0014505 0.00549528 0
0.0023961 0.00660865 0
0.00577483 0.00563373 0
0.00705357 0.00619534 0
0.00819693 0.00590105 0
6.49651e-05 0.00754224 0
0.00285477 0.00890225 0
0.0050706 0.00783504 0
0.00716435 0.00843005 0
0.00986735 0.00797896 0
VERTICES 25 50
1 0
1 1
1 2
1 3
1 4
1 5
1 6
1 7
1 8
1 9
1 10
1 11
1 12
1 13
1 14
1 15
1 16
1 17
1 18
1 19
1 20
1 21
1 22
1 23
1 24
POINT_DATA 25
VECTORS velocity double
-1.73e-48 -0.00970858 0
-1.14616e-48 -0.00970858 0
-9.48571e-49 -0.00970858 0
-5.55966e-49 -0.00970858 0
7.27816e-49 -0.00970858 0
-5.17403e-50 -0.00970858 0
-5.95918e-49 -0.00970858 0
-1.53004e-48 -0.00970858 0
-1.74404e-48 -0.00970858 0
-2.01908e-48 -0.00970858 0
2.06389e-48 -0.00970858 0
3.4727e-49 -0.00970858 0
-1.14496e-48 -0.00970858 0
-7.39033e-49 -0.00970858 0
-1.68631e-48 -0.00970858 0
9.87154e-49 -0.00970858 0
-1.32329e-48 -0.00970858 0
1.69785e-48 -0.00970858 0
1.17387e-49 -0.00970858 0
-1.75972e-48 -0.00970858 0
-2.04889e-48 -0.00970858 0
-3.18224e-49 -0.00970858 0
1.54708e-49 -0.00970858 0
3.60138e-49 -0.00970858 0
1.90057e-48 -0.00970858 0
SCALARS radius double 1
LOOKUP_TABLE default
0.0005192
0.000759374
0.000731582
0.000932767
0.000864852
0.00092132
0.000824734
0.000662097
0.000535446
0.00094621
0.000999249
0.000802661
0.000671708
0.000819153
0.000645007
0.000827505
0.000602392
0.000772815
0.000550095
0.000626194
0.000886859
0.000531918
0.000790192
0.000909137
0.00096445
SCALARS mass double 1
LOOKUP_TABLE default
0.00228657
0.0048913
0.00453983
0.00738005
0.00634449
0.00720004
0.00576955
0.0037184
0.0024319
0.00759432
0.00846957
0.00546484
0.00382714
0.00569173
0.00352892
0.00580838
0.00307803
0.005066
0.00256678
0.00332607
0.00667148
0.00239995
0.00529637
0.00701087
0.00788992
