# vtk DataFile Version 3.0
DEM2D particles
ASCII
DATASET POLYDATA
POINTS 25 double
0.000210492 -0.00143281 0
0.00247694 -0.0018321 0
0.00456711 -0.00118477 0
0.00674628 -0.00130349 0
0.00933215 -0.000386362 0
0.000976388 0.00176781 0
0.00272805 0.00145226 0
0.00430175 0.000983449 0
0.00620408 0.000406134 0
0.00807857 0.000852095 0
0.00194188 0.00270477 0
0.00315848 0.00242385 0
0.00447748 0.00292805 0
0.00666273 0.0040006 0
0.00823043 0.00345312 0
0.0014505 0.00462345 0
0.0023961 0.00573682 0
0.00577483 0.0047619 0
0.00705357 0.00532351 0
0.00819693 0.00502922 0
6.49651e-05 0.00667041 0
0.00285477 0.00803042 0
0.0050706 0.00696321 0
0.00716435 0.00755822 0
0.00986735 0.00710713 0
VERTICES 25 50
1 0
1 1
1 2
1 3
1 4
1 5
1 6
1 7
1 8
1 9
1 10
1 11
1 12
1 13
1 14
1 15
1 16
1 17
1 18
1 19
1 20
1 21
1 22
1 23
1 24
POINT_DATA 25
VECTORS velocity double
-1.10178e-87 -0.00970858 0
-7.29948e-88 -0.00970858 0
-6.04112e-88 -0.00970858 0
-3.54075e-88 -0.00970858 0
4.63521e-88 -0.00970858 0
-3.29516e-89 -0.00970858 0
-3.79519e-88 -0.00970858 0
-9.74427e-88 -0.00970858 0
-1.11072e-87 -0.00970858 0
-1.28588e-87 -0.00970858 0
1.31442e-87 -0.00970858 0
2.21164e-88 -0.00970858 0
-7.29188e-88 -0.00970858 0
-4.70664e-88 -0.00970858 0
-1.07395e-87 -0.00970858 0
6.28684e-88 -0.00970858 0
-8.42756e-88 -0.00970858 0
1.0813e-87 -0.00970858 0
7.47597e-89 -0.00970858 0
-1.12071e-87 -0.00970858 0
-1.30486e-87 -0.00970858 0
-2.02666e-88 -0.00970858 0
9.85283e-89 -0.00970858 0
2.29359e-88 -0.00970858 0
1.2104e-87 -0.00970858 0
SCALARS radius double 1
LOOKUP_TABLE default
0.0005192
0.000759374
0.000731582
0.000932767
0.000864852
0.00092132
0.000824734
0.000662097
0.000535446
0.00094621
0.000999249
0.000802661
0.000671708
0.000819153
0.000645007
0.000827505
0.000602392
0.000772815
0.000550095
0.000626194
0.000886859
0.000531918
0.000790192
0.000909137
0.00096445
SCALARS mass double 1
LOOKUP_TABLE default
0.00228657
0.0048913
0.00453983
0.00738005
0.00634449
0.00720004
0.00576955
0.0037184
0.0024319
0.00759432
0.00846957
0.00546484
0.00382714
0.00569173
0.00352892
0.00580838
0.00307803
0.005066
0.00256678
0.00332607
0.00667148
0.00239995
0.00529637
0.00701087
0.00788992
