# vtk DataFile Version 3.0
DEM2D particles
ASCII
DATASET POLYDATA
POINTS 25 double
0.000210492 0.000343859 0
0.00247694 -5.54304e-05 0
0.00456711 0.000591897 0
0.00674628 0.000473183 0
0.00933215 0.00139031 0
0.000976388 0.00354448 0
0.00272805 0.00322893 0
0.00430175 0.00276012 0
0.00620408 0.0021828 0
0.00807857 0.00262877 0
0.00194188 0.00448145 0
0.00315848 0.00420052 0
0.00447748 0.00470472 0
0.00666273 0.00577727 0
0.00823043 0.00522979 0
0.0014505 0.00640012 0
0.0023961 0.00751349 0
0.00577483 0.00653857 0
0.00705357 0.00710018 0
0.00819693 0.00680589 0
6.49652e-05 0.00844708 0
0.00285477 0.00980709 0
0.0050706 0.00873988 0
0.00716435 0.00933489 0
0.00986735 0.0088838 0
VERTICES 25 50
1 0
1 1
1 2
1 3
1 4
1 5
1 6
1 7
1 8
1 9
1 10
1 11
1 12
1 13
1 14
1 15
1 16
1 17
1 18
1 19
1 20
1 21
1 22
1 23
1 24
POINT_DATA 25
VECTORS velocity double
-8.28005e-08 -0.00970864 0
-5.48568e-08 -0.00970868 0
-4.54001e-08 -0.00970861 0
-2.66094e-08 -0.00970862 0
3.48344e-08 -0.00970853 0
-2.47637e-09 -0.00970851 0
-2.85215e-08 -0.00970854 0
-7.32298e-08 -0.00970859 0
-8.34725e-08 -0.00970865 0
-9.66363e-08 -0.00970861 0
9.87809e-08 -0.00970862 0
1.66209e-08 -0.00970865 0
-5.47997e-08 -0.0097086 0
-3.53712e-08 -0.00970849 0
-8.07095e-08 -0.00970854 0
4.72467e-08 -0.00970863 0
-6.33345e-08 -0.00970851 0
8.12614e-08 -0.00970862 0
5.61832e-09 -0.00970856 0
-8.4223e-08 -0.00970859 0
-9.80627e-08 -0.00970863 0
-1.52307e-08 -0.00970848 0
7.40457e-09 -0.00970859 0
1.72367e-08 -0.00970853 0
9.0964e-08 -0.00970858 0
SCALARS radius double 1
LOOKUP_TABLE default
0.0005192
0.000759374
0.000731582
0.000932767
0.000864852
0.00092132
0.000824734
0.000662097
0.000535446
0.00094621
0.000999249
0.000802661
0.000671708
0.000819153
0.000645007
0.000827505
0.000602392
0.000772815
0.000550095
0.000626194
0.000886859
0.000531918
0.000790192
0.000909137
0.00096445
SCALARS mass double 1
LOOKUP_TABLE default
0.00228657
0.0048913
0.00453983
0.00738005
0.00634449
0.00720004
0.00576955
0.0037184
0.0024319
0.00759432
0.00846957
0.00546484
0.00382714
0.00569173
0.00352892
0.00580838
0.00307803
0.005066
0.00256678
0.00332607
0.00667148
0.00239995
0.00529637
0.00701087
0.00788992
