# vtk DataFile Version 3.0
DEM2D particles
ASCII
DATASET POLYDATA
POINTS 25 double
0.000210492 -0.00130272 0
0.00247694 -0.00170201 0
0.00456711 -0.00105468 0
0.00674628 -0.00117339 0
0.00933215 -0.000256267 0
0.000976388 0.00189791 0
0.00272805 0.00158236 0
0.00430175 0.00111354 0
0.00620408 0.000536229 0
0.00807857 0.00098219 0
0.00194188 0.00283487 0
0.00315848 0.00255394 0
0.00447748 0.00305815 0
0.00666273 0.0041307 0
0.00823043 0.00358322 0
0.0014505 0.00475354 0
0.0023961 0.00586691 0
0.00577483 0.00489199 0
0.00705357 0.0054536 0
0.00819693 0.00515932 0
6.49651e-05 0.00680051 0
0.00285477 0.00816051 0
0.0050706 0.0070933 0
0.00716435 0.00768831 0
0.00986735 0.00723722 0
VERTICES 25 50
1 0
1 1
1 2
1 3
1 4
1 5
1 6
1 7
1 8
1 9
1 10
1 11
1 12
1 13
1 14
1 15
1 16
1 17
1 18
1 19
1 20
1 21
1 22
1 23
1 24
POINT_DATA 25
VECTORS velocity double
-7.77917e-82 -0.00970858 0
-5.15384e-82 -0.00970858 0
-4.26537e-82 -0.00970858 0
-2.49997e-82 -0.00970858 0
3.27272e-82 -0.00970858 0
-2.32657e-83 -0.00970858 0
-2.67962e-82 -0.00970858 0
-6.88e-82 -0.00970858 0
-7.84231e-82 -0.00970858 0
-9.07905e-82 -0.00970858 0
9.28054e-82 -0.00970858 0
1.56154e-82 -0.00970858 0
-5.14847e-82 -0.00970858 0
-3.32315e-82 -0.00970858 0
-7.58272e-82 -0.00970858 0
4.43886e-82 -0.00970858 0
-5.95033e-82 -0.00970858 0
7.63458e-82 -0.00970858 0
5.27845e-83 -0.00970858 0
-7.91282e-82 -0.00970858 0
-9.21307e-82 -0.00970858 0
-1.43093e-82 -0.00970858 0
6.95665e-83 -0.00970858 0
1.6194e-82 -0.00970858 0
8.54614e-82 -0.00970858 0
SCALARS radius double 1
LOOKUP_TABLE default
0.0005192
0.000759374
0.000731582
0.000932767
0.000864852
0.00092132
0.000824734
0.000662097
0.000535446
0.00094621
0.000999249
0.000802661
0.000671708
0.000819153
0.000645007
0.000827505
0.000602392
0.000772815
0.000550095
0.000626194
0.000886859
0.000531918
0.000790192
0.000909137
0.00096445
SCALARS mass double 1
LOOKUP_TABLE default
0.00228657
0.0048913
0.00453983
0.00738005
0.00634449
0.00720004
0.00576955
0.0037184
0.0024319
0.00759432
0.00846957
0.00546484
0.00382714
0.00569173
0.00352892
0.00580838
0.00307803
0.005066
0.00256678
0.00332607
0.00667148
0.00239995
0.00529637
0.00701087
0.00788992
