# vtk DataFile Version 3.0
DEM2D particles
ASCII
DATASET POLYDATA
POINTS 25 double
0.000210492 -0.00140563 0
0.00247694 -0.00180492 0
0.00456711 -0.00115759 0
0.00674628 -0.0012763 0
0.00933215 -0.000359178 0
0.000976388 0.001795 0
0.00272805 0.00147944 0
0.00430175 0.00101063 0
0.00620408 0.000433318 0
0.00807857 0.000879279 0
0.00194188 0.00273196 0
0.00315848 0.00245103 0
0.00447748 0.00295524 0
0.00666273 0.00402779 0
0.00823043 0.00348031 0
0.0014505 0.00465063 0
0.0023961 0.005764 0
0.00577483 0.00478908 0
0.00705357 0.00535069 0
0.00819693 0.00505641 0
6.49651e-05 0.0066976 0
0.00285477 0.0080576 0
0.0050706 0.00699039 0
0.00716435 0.0075854 0
0.00986735 0.00713431 0
VERTICES 25 50
1 0
1 1
1 2
1 3
1 4
1 5
1 6
1 7
1 8
1 9
1 10
1 11
1 12
1 13
1 14
1 15
1 16
1 17
1 18
1 19
1 20
1 21
1 22
1 23
1 24
POINT_DATA 25
VECTORS velocity double
-1.83755e-86 -0.00970858 0
-1.21741e-86 -0.00970858 0
-1.00754e-86 -0.00970858 0
-5.90529e-87 -0.00970858 0
7.73063e-87 -0.00970858 0
-5.49569e-88 -0.00970858 0
-6.32965e-87 -0.00970858 0
-1.62515e-86 -0.00970858 0
-1.85247e-86 -0.00970858 0
-2.1446e-86 -0.00970858 0
2.1922e-86 -0.00970858 0
3.68859e-87 -0.00970858 0
-1.21614e-86 -0.00970858 0
-7.84977e-87 -0.00970858 0
-1.79115e-86 -0.00970858 0
1.04852e-86 -0.00970858 0
-1.40555e-86 -0.00970858 0
1.8034e-86 -0.00970858 0
1.24685e-87 -0.00970858 0
-1.86912e-86 -0.00970858 0
-2.17626e-86 -0.00970858 0
-3.38007e-87 -0.00970858 0
1.64326e-87 -0.00970858 0
3.82526e-87 -0.00970858 0
2.01872e-86 -0.00970858 0
SCALARS radius double 1
LOOKUP_TABLE default
0.0005192
0.000759374
0.000731582
0.000932767
0.000864852
0.00092132
0.000824734
0.000662097
0.000535446
0.00094621
0.000999249
0.000802661
0.000671708
0.000819153
0.000645007
0.000827505
0.000602392
0.000772815
0.000550095
0.000626194
0.000886859
0.000531918
0.000790192
0.000909137
0.00096445
SCALARS mass double 1
LOOKUP_TABLE default
0.00228657
0.0048913
0.00453983
0.00738005
0.00634449
0.00720004
0.00576955
0.0037184
0.0024319
0.00759432
0.00846957
0.00546484
0.00382714
0.00569173
0.00352892
0.00580838
0.00307803
0.005066
0.00256678
0.00332607
0.00667148
0.00239995
0.00529637
0.00701087
0.00788992
