# vtk DataFile Version 3.0
DEM2D particles
ASCII
DATASET POLYDATA
POINTS 25 double
0.000210492 -0.00106583 0
0.00247694 -0.00146512 0
0.00456711 -0.00081779 0
0.00674628 -0.000936504 0
0.00933215 -1.93774e-05 0
0.000976388 0.0021348 0
0.00272805 0.00181924 0
0.00430175 0.00135043 0
0.00620408 0.000773118 0
0.00807857 0.00121908 0
0.00194188 0.00307176 0
0.00315848 0.00279083 0
0.00447748 0.00329504 0
0.00666273 0.00436759 0
0.00823043 0.00382011 0
0.0014505 0.00499043 0
0.0023961 0.0061038 0
0.00577483 0.00512888 0
0.00705357 0.00569049 0
0.00819693 0.00539621 0
6.49651e-05 0.0070374 0
0.00285477 0.0083974 0
0.0050706 0.00733019 0
0.00716435 0.0079252 0
0.00986735 0.00747411 0
VERTICES 25 50
1 0
1 1
1 2
1 3
1 4
1 5
1 6
1 7
1 8
1 9
1 10
1 11
1 12
1 13
1 14
1 15
1 16
1 17
1 18
1 19
1 20
1 21
1 22
1 23
1 24
POINT_DATA 25
VECTORS velocity double
-3.47583e-71 -0.00970858 0
-2.3028e-71 -0.00970858 0
-1.90582e-71 -0.00970858 0
-1.11702e-71 -0.00970858 0
1.46229e-71 -0.00970858 0
-1.03954e-72 -0.00970858 0
-1.19729e-71 -0.00970858 0
-3.07407e-71 -0.00970858 0
-3.50404e-71 -0.00970858 0
-4.05663e-71 -0.00970858 0
4.14666e-71 -0.00970858 0
6.97717e-72 -0.00970858 0
-2.3004e-71 -0.00970858 0
-1.48483e-71 -0.00970858 0
-3.38805e-71 -0.00970858 0
1.98334e-71 -0.00970858 0
-2.65868e-71 -0.00970858 0
3.41122e-71 -0.00970858 0
2.35848e-72 -0.00970858 0
-3.53555e-71 -0.00970858 0
-4.11651e-71 -0.00970858 0
-6.39358e-72 -0.00970858 0
3.10832e-72 -0.00970858 0
7.2357e-72 -0.00970858 0
3.81852e-71 -0.00970858 0
SCALARS radius double 1
LOOKUP_TABLE default
0.0005192
0.000759374
0.000731582
0.000932767
0.000864852
0.00092132
0.000824734
0.000662097
0.000535446
0.00094621
0.000999249
0.000802661
0.000671708
0.000819153
0.000645007
0.000827505
0.000602392
0.000772815
0.000550095
0.000626194
0.000886859
0.000531918
0.000790192
0.000909137
0.00096445
SCALARS mass double 1
LOOKUP_TABLE default
0.00228657
0.0048913
0.00453983
0.00738005
0.00634449
0.00720004
0.00576955
0.0037184
0.0024319
0.00759432
0.00846957
0.00546484
0.00382714
0.00569173
0.00352892
0.00580838
0.00307803
0.005066
0.00256678
0.00332607
0.00667148
0.00239995
0.00529637
0.00701087
0.00788992
