# vtk DataFile Version 3.0
DEM2D particles
ASCII
DATASET POLYDATA
POINTS 25 double
0.000210492 -0.00127942 0
0.00247694 -0.00167871 0
0.00456711 -0.00103138 0
0.00674628 -0.00115009 0
0.00933215 -0.000232966 0
0.000976388 0.00192121 0
0.00272805 0.00160566 0
0.00430175 0.00113684 0
0.00620408 0.000559529 0
0.00807857 0.00100549 0
0.00194188 0.00285817 0
0.00315848 0.00257724 0
0.00447748 0.00308145 0
0.00666273 0.004154 0
0.00823043 0.00360652 0
0.0014505 0.00477684 0
0.0023961 0.00589021 0
0.00577483 0.00491529 0
0.00705357 0.0054769 0
0.00819693 0.00518262 0
6.49651e-05 0.00682381 0
0.00285477 0.00818381 0
0.0050706 0.0071166 0
0.00716435 0.00771162 0
0.00986735 0.00726052 0
VERTICES 25 50
1 0
1 1
1 2
1 3
1 4
1 5
1 6
1 7
1 8
1 9
1 10
1 11
1 12
1 13
1 14
1 15
1 16
1 17
1 18
1 19
1 20
1 21
1 22
1 23
1 24
POINT_DATA 25
VECTORS velocity double
-8.67934e-81 -0.00970858 0
-5.75022e-81 -0.00970858 0
-4.75894e-81 -0.00970858 0
-2.78926e-81 -0.00970858 0
3.65142e-81 -0.00970858 0
-2.59579e-82 -0.00970858 0
-2.98969e-81 -0.00970858 0
-7.67612e-81 -0.00970858 0
-8.74978e-81 -0.00970858 0
-1.01296e-80 -0.00970858 0
1.03544e-80 -0.00970858 0
1.74224e-81 -0.00970858 0
-5.74423e-81 -0.00970858 0
-3.70769e-81 -0.00970858 0
-8.46015e-81 -0.00970858 0
4.95251e-81 -0.00970858 0
-6.63887e-81 -0.00970858 0
8.51801e-81 -0.00970858 0
5.88925e-82 -0.00970858 0
-8.82845e-81 -0.00970858 0
-1.02792e-80 -0.00970858 0
-1.59651e-81 -0.00970858 0
7.76164e-82 -0.00970858 0
1.80679e-81 -0.00970858 0
9.53505e-81 -0.00970858 0
SCALARS radius double 1
LOOKUP_TABLE default
0.0005192
0.000759374
0.000731582
0.000932767
0.000864852
0.00092132
0.000824734
0.000662097
0.000535446
0.00094621
0.000999249
0.000802661
0.000671708
0.000819153
0.000645007
0.000827505
0.000602392
0.000772815
0.000550095
0.000626194
0.000886859
0.000531918
0.000790192
0.000909137
0.00096445
SCALARS mass double 1
LOOKUP_TABLE default
0.00228657
0.0048913
0.00453983
0.00738005
0.00634449
0.00720004
0.00576955
0.0037184
0.0024319
0.00759432
0.00846957
0.00546484
0.00382714
0.00569173
0.00352892
0.00580838
0.00307803
0.005066
0.00256678
0.00332607
0.00667148
0.00239995
0.00529637
0.00701087
0.00788992
