# vtk DataFile Version 3.0
DEM2D particles
ASCII
DATASET POLYDATA
POINTS 25 double
0.000210492 -0.00120563 0
0.00247694 -0.00160492 0
0.00456711 -0.000957593 0
0.00674628 -0.00107631 0
0.00933215 -0.000159181 0
0.000976388 0.00199499 0
0.00272805 0.00167944 0
0.00430175 0.00121063 0
0.00620408 0.000633314 0
0.00807857 0.00107928 0
0.00194188 0.00293196 0
0.00315848 0.00265103 0
0.00447748 0.00315523 0
0.00666273 0.00422778 0
0.00823043 0.0036803 0
0.0014505 0.00485063 0
0.0023961 0.005964 0
0.00577483 0.00498908 0
0.00705357 0.00555069 0
0.00819693 0.0052564 0
6.49651e-05 0.00689759 0
0.00285477 0.0082576 0
0.0050706 0.00719039 0
0.00716435 0.0077854 0
0.00986735 0.00733431 0
VERTICES 25 50
1 0
1 1
1 2
1 3
1 4
1 5
1 6
1 7
1 8
1 9
1 10
1 11
1 12
1 13
1 14
1 15
1 16
1 17
1 18
1 19
1 20
1 21
1 22
1 23
1 24
POINT_DATA 25
VECTORS velocity double
-1.80193e-77 -0.00970858 0
-1.19381e-77 -0.00970858 0
-9.88012e-78 -0.00970858 0
-5.79083e-78 -0.00970858 0
7.58078e-78 -0.00970858 0
-5.38916e-79 -0.00970858 0
-6.20695e-78 -0.00970858 0
-1.59365e-77 -0.00970858 0
-1.81656e-77 -0.00970858 0
-2.10303e-77 -0.00970858 0
2.1497e-77 -0.00970858 0
3.61709e-78 -0.00970858 0
-1.19257e-77 -0.00970858 0
-7.69761e-78 -0.00970858 0
-1.75643e-77 -0.00970858 0
1.0282e-77 -0.00970858 0
-1.37831e-77 -0.00970858 0
1.76844e-77 -0.00970858 0
1.22268e-78 -0.00970858 0
-1.83289e-77 -0.00970858 0
-2.13408e-77 -0.00970858 0
-3.31455e-78 -0.00970858 0
1.61141e-78 -0.00970858 0
3.75112e-78 -0.00970858 0
1.97959e-77 -0.00970858 0
SCALARS radius double 1
LOOKUP_TABLE default
0.0005192
0.000759374
0.000731582
0.000932767
0.000864852
0.00092132
0.000824734
0.000662097
0.000535446
0.00094621
0.000999249
0.000802661
0.000671708
0.000819153
0.000645007
0.000827505
0.000602392
0.000772815
0.000550095
0.000626194
0.000886859
0.000531918
0.000790192
0.000909137
0.00096445
SCALARS mass double 1
LOOKUP_TABLE default
0.00228657
0.0048913
0.00453983
0.00738005
0.00634449
0.00720004
0.00576955
0.0037184
0.0024319
0.00759432
0.00846957
0.00546484
0.00382714
0.00569173
0.00352892
0.00580838
0.00307803
0.005066
0.00256678
0.00332607
0.00667148
0.00239995
0.00529637
0.00701087
0.00788992
