# vtk DataFile Version 3.0
DEM2D particles
ASCII
DATASET POLYDATA
POINTS 25 double
0.000210492 0.000184638 0
0.00247694 -0.000214651 0
0.00456711 0.000432676 0
0.00674628 0.000313962 0
0.00933215 0.00123109 0
0.000976388 0.00338526 0
0.00272805 0.00306971 0
0.00430175 0.0026009 0
0.00620408 0.00202358 0
0.00807857 0.00246955 0
0.00194188 0.00432222 0
0.00315848 0.0040413 0
0.00447748 0.0045455 0
0.00666273 0.00561805 0
0.00823043 0.00507057 0
0.0014505 0.0062409 0
0.0023961 0.00735427 0
0.00577483 0.00637935 0
0.00705357 0.00694096 0
0.00819693 0.00664667 0
6.49651e-05 0.00828786 0
0.00285477 0.00964787 0
0.0050706 0.00858066 0
0.00716435 0.00917567 0
0.00986735 0.00872458 0
VERTICES 25 50
1 0
1 1
1 2
1 3
1 4
1 5
1 6
1 7
1 8
1 9
1 10
1 11
1 12
1 13
1 14
1 15
1 16
1 17
1 18
1 19
1 20
1 21
1 22
1 23
1 24
POINT_DATA 25
VECTORS velocity double
-5.75111e-15 -0.00970858 0
-3.81022e-15 -0.00970858 0
-3.15337e-15 -0.00970858 0
-1.84822e-15 -0.00970858 0
2.41951e-15 -0.00970858 0
-1.72003e-16 -0.00970858 0
-1.98103e-15 -0.00970858 0
-5.08636e-15 -0.00970858 0
-5.79779e-15 -0.00970858 0
-6.71211e-15 -0.00970858 0
6.86107e-15 -0.00970858 0
1.15444e-15 -0.00970858 0
-3.80625e-15 -0.00970858 0
-2.4568e-15 -0.00970858 0
-5.60588e-15 -0.00970858 0
3.28164e-15 -0.00970858 0
-4.39906e-15 -0.00970858 0
5.64422e-15 -0.00970858 0
3.90234e-16 -0.00970858 0
-5.84992e-15 -0.00970858 0
-6.81119e-15 -0.00970858 0
-1.05788e-15 -0.00970858 0
5.14303e-16 -0.00970858 0
1.19722e-15 -0.00970858 0
6.31813e-15 -0.00970858 0
SCALARS radius double 1
LOOKUP_TABLE default
0.0005192
0.000759374
0.000731582
0.000932767
0.000864852
0.00092132
0.000824734
0.000662097
0.000535446
0.00094621
0.000999249
0.000802661
0.000671708
0.000819153
0.000645007
0.000827505
0.000602392
0.000772815
0.000550095
0.000626194
0.000886859
0.000531918
0.000790192
0.000909137
0.00096445
SCALARS mass double 1
LOOKUP_TABLE default
0.00228657
0.0048913
0.00453983
0.00738005
0.00634449
0.00720004
0.00576955
0.0037184
0.0024319
0.00759432
0.00846957
0.00546484
0.00382714
0.00569173
0.00352892
0.00580838
0.00307803
0.005066
0.00256678
0.00332607
0.00667148
0.00239995
0.00529637
0.00701087
0.00788992
