# vtk DataFile Version 3.0
DEM2D particles
ASCII
DATASET POLYDATA
POINTS 25 double
0.000210519 0.000400186 0
0.00247695 9.11063e-07 0
0.00456712 0.000648215 0
0.00674629 0.000529505 0
0.00933214 0.0014466 0
0.000976388 0.00360077 0
0.00272805 0.00328523 0
0.00430177 0.00281643 0
0.00620411 0.00223914 0
0.0080786 0.00268508 0
0.00194185 0.00453777 0
0.00315848 0.00425685 0
0.0044775 0.00476104 0
0.00666274 0.00583355 0
0.00823046 0.00528609 0
0.00145048 0.00645644 0
0.00239612 0.00756977 0
0.00577481 0.00659489 0
0.00705357 0.00715648 0
0.00819696 0.0068622 0
6.49981e-05 0.00850341 0
0.00285478 0.00986336 0
0.0050706 0.00879619 0
0.00716435 0.00939118 0
0.00986732 0.00894011 0
VERTICES 25 50
1 0
1 1
1 2
1 3
1 4
1 5
1 6
1 7
1 8
1 9
1 10
1 11
1 12
1 13
1 14
1 15
1 16
1 17
1 18
1 19
1 20
1 21
1 22
1 23
1 24
POINT_DATA 25
VECTORS velocity double
-2.81592e-05 -0.00972645 0
-1.8656e-05 -0.00974069 0
-1.54399e-05 -0.0097176 0
-9.04944e-06 -0.00972183 0
1.18466e-05 -0.00968912 0
-8.42176e-07 -0.00968362 0
-9.69974e-06 -0.00969488 0
-2.49044e-05 -0.0097116 0
-2.83877e-05 -0.00973219 0
-3.28645e-05 -0.00971628 0
3.35939e-05 -0.00972154 0
5.6525e-06 -0.00973156 0
-1.86365e-05 -0.00971357 0
-1.20292e-05 -0.00967532 0
-2.74481e-05 -0.00969485 0
1.60679e-05 -0.00972444 0
-2.15391e-05 -0.00968473 0
2.76358e-05 -0.0097195 0
1.9107e-06 -0.00969947 0
-2.8643e-05 -0.00970997 0
-3.33496e-05 -0.00972276 0
-5.17971e-06 -0.00967426 0
2.51818e-06 -0.00971232 0
5.86195e-06 -0.0096911 0
3.09355e-05 -0.00970719 0
SCALARS radius double 1
LOOKUP_TABLE default
0.0005192
0.000759374
0.000731582
0.000932767
0.000864852
0.00092132
0.000824734
0.000662097
0.000535446
0.00094621
0.000999249
0.000802661
0.000671708
0.000819153
0.000645007
0.000827505
0.000602392
0.000772815
0.000550095
0.000626194
0.000886859
0.000531918
0.000790192
0.000909137
0.00096445
SCALARS mass double 1
LOOKUP_TABLE default
0.00228657
0.0048913
0.00453983
0.00738005
0.00634449
0.00720004
0.00576955
0.0037184
0.0024319
0.00759432
0.00846957
0.00546484
0.00382714
0.00569173
0.00352892
0.00580838
0.00307803
0.005066
0.00256678
0.00332607
0.00667148
0.00239995
0.00529637
0.00701087
0.00788992
