# vtk DataFile Version 3.0
DEM2D particles
ASCII
DATASET POLYDATA
POINTS 25 double
0.000210492 -0.000646417 0
0.00247694 -0.00104571 0
0.00456711 -0.000398379 0
0.00674628 -0.000517093 0
0.00933215 0.000400033 0
0.000976388 0.00255421 0
0.00272805 0.00223866 0
0.00430175 0.00176984 0
0.00620408 0.00119253 0
0.00807857 0.00163849 0
0.00194188 0.00349117 0
0.00315848 0.00321024 0
0.00447748 0.00371445 0
0.00666273 0.004787 0
0.00823043 0.00423952 0
0.0014505 0.00540984 0
0.0023961 0.00652321 0
0.00577483 0.00554829 0
0.00705357 0.0061099 0
0.00819693 0.00581562 0
6.49651e-05 0.00745681 0
0.00285477 0.00881681 0
0.0050706 0.0077496 0
0.00716435 0.00834461 0
0.00986735 0.00789352 0
VERTICES 25 50
1 0
1 1
1 2
1 3
1 4
1 5
1 6
1 7
1 8
1 9
1 10
1 11
1 12
1 13
1 14
1 15
1 16
1 17
1 18
1 19
1 20
1 21
1 22
1 23
1 24
POINT_DATA 25
VECTORS velocity double
-2.4947e-52 -0.00970858 0
-1.65278e-52 -0.00970858 0
-1.36786e-52 -0.00970858 0
-8.01714e-53 -0.00970858 0
1.04953e-52 -0.00970858 0
-7.46106e-54 -0.00970858 0
-8.59325e-53 -0.00970858 0
-2.20634e-52 -0.00970858 0
-2.51494e-52 -0.00970858 0
-2.91156e-52 -0.00970858 0
2.97617e-52 -0.00970858 0
5.0077e-53 -0.00970858 0
-1.65106e-52 -0.00970858 0
-1.0657e-52 -0.00970858 0
-2.4317e-52 -0.00970858 0
1.4235e-52 -0.00970858 0
-1.90821e-52 -0.00970858 0
2.44833e-52 -0.00970858 0
1.69274e-53 -0.00970858 0
-2.53756e-52 -0.00970858 0
-2.95453e-52 -0.00970858 0
-4.58885e-53 -0.00970858 0
2.23092e-53 -0.00970858 0
5.19326e-53 -0.00970858 0
2.74065e-52 -0.00970858 0
SCALARS radius double 1
LOOKUP_TABLE default
0.0005192
0.000759374
0.000731582
0.000932767
0.000864852
0.00092132
0.000824734
0.000662097
0.000535446
0.00094621
0.000999249
0.000802661
0.000671708
0.000819153
0.000645007
0.000827505
0.000602392
0.000772815
0.000550095
0.000626194
0.000886859
0.000531918
0.000790192
0.000909137
0.00096445
SCALARS mass double 1
LOOKUP_TABLE default
0.00228657
0.0048913
0.00453983
0.00738005
0.00634449
0.00720004
0.00576955
0.0037184
0.0024319
0.00759432
0.00846957
0.00546484
0.00382714
0.00569173
0.00352892
0.00580838
0.00307803
0.005066
0.00256678
0.00332607
0.00667148
0.00239995
0.00529637
0.00701087
0.00788992
