# vtk DataFile Version 3.0
DEM2D particles
ASCII
DATASET POLYDATA
POINTS 25 double
0.000210492 -0.00104447 0
0.00247694 -0.00144376 0
0.00456711 -0.000796431 0
0.00674628 -0.000915145 0
0.00933215 1.98147e-06 0
0.000976388 0.00215616 0
0.00272805 0.0018406 0
0.00430175 0.00137179 0
0.00620408 0.000794477 0
0.00807857 0.00124044 0
0.00194188 0.00309312 0
0.00315848 0.00281219 0
0.00447748 0.0033164 0
0.00666273 0.00438895 0
0.00823043 0.00384147 0
0.0014505 0.00501179 0
0.0023961 0.00612516 0
0.00577483 0.00515024 0
0.00705357 0.00571185 0
0.00819693 0.00541757 0
6.49651e-05 0.00705876 0
0.00285477 0.00841876 0
0.0050706 0.00735155 0
0.00716435 0.00794656 0
0.00986735 0.00749547 0
VERTICES 25 50
1 0
1 1
1 2
1 3
1 4
1 5
1 6
1 7
1 8
1 9
1 10
1 11
1 12
1 13
1 14
1 15
1 16
1 17
1 18
1 19
1 20
1 21
1 22
1 23
1 24
POINT_DATA 25
VECTORS velocity double
-3.17187e-70 -0.00970858 0
-2.10142e-70 -0.00970858 0
-1.73916e-70 -0.00970858 0
-1.01934e-70 -0.00970858 0
1.33441e-70 -0.00970858 0
-9.48633e-72 -0.00970858 0
-1.09259e-70 -0.00970858 0
-2.80525e-70 -0.00970858 0
-3.19761e-70 -0.00970858 0
-3.70188e-70 -0.00970858 0
3.78404e-70 -0.00970858 0
6.36702e-71 -0.00970858 0
-2.09923e-70 -0.00970858 0
-1.35498e-70 -0.00970858 0
-3.09177e-70 -0.00970858 0
1.8099e-70 -0.00970858 0
-2.42618e-70 -0.00970858 0
3.11291e-70 -0.00970858 0
2.15223e-71 -0.00970858 0
-3.22637e-70 -0.00970858 0
-3.75653e-70 -0.00970858 0
-5.83447e-71 -0.00970858 0
2.8365e-71 -0.00970858 0
6.60294e-71 -0.00970858 0
3.48459e-70 -0.00970858 0
SCALARS radius double 1
LOOKUP_TABLE default
0.0005192
0.000759374
0.000731582
0.000932767
0.000864852
0.00092132
0.000824734
0.000662097
0.000535446
0.00094621
0.000999249
0.000802661
0.000671708
0.000819153
0.000645007
0.000827505
0.000602392
0.000772815
0.000550095
0.000626194
0.000886859
0.000531918
0.000790192
0.000909137
0.00096445
SCALARS mass double 1
LOOKUP_TABLE default
0.00228657
0.0048913
0.00453983
0.00738005
0.00634449
0.00720004
0.00576955
0.0037184
0.0024319
0.00759432
0.00846957
0.00546484
0.00382714
0.00569173
0.00352892
0.00580838
0.00307803
0.005066
0.00256678
0.00332607
0.00667148
0.00239995
0.00529637
0.00701087
0.00788992
