# vtk DataFile Version 3.0
DEM2D particles
ASCII
DATASET POLYDATA
POINTS 25 double
0.000210492 -0.00141339 0
0.00247694 -0.00181268 0
0.00456711 -0.00116536 0
0.00674628 -0.00128407 0
0.00933215 -0.000366945 0
0.000976388 0.00178723 0
0.00272805 0.00147168 0
0.00430175 0.00100287 0
0.00620408 0.000425551 0
0.00807857 0.000871512 0
0.00194188 0.00272419 0
0.00315848 0.00244327 0
0.00447748 0.00294747 0
0.00666273 0.00402002 0
0.00823043 0.00347254 0
0.0014505 0.00464287 0
0.0023961 0.00575623 0
0.00577483 0.00478131 0
0.00705357 0.00534293 0
0.00819693 0.00504864 0
6.49651e-05 0.00668983 0
0.00285477 0.00804984 0
0.0050706 0.00698262 0
0.00716435 0.00757764 0
0.00986735 0.00712655 0
VERTICES 25 50
1 0
1 1
1 2
1 3
1 4
1 5
1 6
1 7
1 8
1 9
1 10
1 11
1 12
1 13
1 14
1 15
1 16
1 17
1 18
1 19
1 20
1 21
1 22
1 23
1 24
POINT_DATA 25
VECTORS velocity double
-8.22347e-87 -0.00970858 0
-5.4482e-87 -0.00970858 0
-4.50898e-87 -0.00970858 0
-2.64276e-87 -0.00970858 0
3.45964e-87 -0.00970858 0
-2.45945e-88 -0.00970858 0
-2.83266e-87 -0.00970858 0
-7.27294e-87 -0.00970858 0
-8.29021e-87 -0.00970858 0
-9.59759e-87 -0.00970858 0
9.81059e-87 -0.00970858 0
1.65073e-87 -0.00970858 0
-5.44252e-87 -0.00970858 0
-3.51295e-87 -0.00970858 0
-8.0158e-87 -0.00970858 0
4.69239e-87 -0.00970858 0
-6.29018e-87 -0.00970858 0
8.07062e-87 -0.00970858 0
5.57993e-88 -0.00970858 0
-8.36475e-87 -0.00970858 0
-9.73927e-87 -0.00970858 0
-1.51266e-87 -0.00970858 0
7.35398e-88 -0.00970858 0
1.71189e-87 -0.00970858 0
9.03424e-87 -0.00970858 0
SCALARS radius double 1
LOOKUP_TABLE default
0.0005192
0.000759374
0.000731582
0.000932767
0.000864852
0.00092132
0.000824734
0.000662097
0.000535446
0.00094621
0.000999249
0.000802661
0.000671708
0.000819153
0.000645007
0.000827505
0.000602392
0.000772815
0.000550095
0.000626194
0.000886859
0.000531918
0.000790192
0.000909137
0.00096445
SCALARS mass double 1
LOOKUP_TABLE default
0.00228657
0.0048913
0.00453983
0.00738005
0.00634449
0.00720004
0.00576955
0.0037184
0.0024319
0.00759432
0.00846957
0.00546484
0.00382714
0.00569173
0.00352892
0.00580838
0.00307803
0.005066
0.00256678
0.00332607
0.00667148
0.00239995
0.00529637
0.00701087
0.00788992
