# vtk DataFile Version 3.0
DEM2D particles
ASCII
DATASET POLYDATA
POINTS 25 double
0.000210492 -0.00124835 0
0.00247694 -0.00164764 0
0.00456711 -0.00100031 0
0.00674628 -0.00111903 0
0.00933215 -0.000201899 0
0.000976388 0.00195228 0
0.00272805 0.00163672 0
0.00430175 0.00116791 0
0.00620408 0.000590597 0
0.00807857 0.00103656 0
0.00194188 0.00288924 0
0.00315848 0.00260831 0
0.00447748 0.00311252 0
0.00666273 0.00418507 0
0.00823043 0.00363759 0
0.0014505 0.00480791 0
0.0023961 0.00592128 0
0.00577483 0.00494636 0
0.00705357 0.00550797 0
0.00819693 0.00521369 0
6.49651e-05 0.00685488 0
0.00285477 0.00821488 0
0.0050706 0.00714767 0
0.00716435 0.00774268 0
0.00986735 0.00729159 0
VERTICES 25 50
1 0
1 1
1 2
1 3
1 4
1 5
1 6
1 7
1 8
1 9
1 10
1 11
1 12
1 13
1 14
1 15
1 16
1 17
1 18
1 19
1 20
1 21
1 22
1 23
1 24
POINT_DATA 25
VECTORS velocity double
-2.16384e-79 -0.00970858 0
-1.43358e-79 -0.00970858 0
-1.18645e-79 -0.00970858 0
-6.95386e-80 -0.00970858 0
9.10331e-80 -0.00970858 0
-6.47153e-81 -0.00970858 0
-7.45357e-80 -0.00970858 0
-1.91372e-79 -0.00970858 0
-2.1814e-79 -0.00970858 0
-2.52541e-79 -0.00970858 0
2.58145e-79 -0.00970858 0
4.34355e-80 -0.00970858 0
-1.43209e-79 -0.00970858 0
-9.24361e-80 -0.00970858 0
-2.10919e-79 -0.00970858 0
1.2347e-79 -0.00970858 0
-1.65513e-79 -0.00970858 0
2.12362e-79 -0.00970858 0
1.46824e-80 -0.00970858 0
-2.20101e-79 -0.00970858 0
-2.56269e-79 -0.00970858 0
-3.98025e-80 -0.00970858 0
1.93505e-80 -0.00970858 0
4.5045e-80 -0.00970858 0
2.37717e-79 -0.00970858 0
SCALARS radius double 1
LOOKUP_TABLE default
0.0005192
0.000759374
0.000731582
0.000932767
0.000864852
0.00092132
0.000824734
0.000662097
0.000535446
0.00094621
0.000999249
0.000802661
0.000671708
0.000819153
0.000645007
0.000827505
0.000602392
0.000772815
0.000550095
0.000626194
0.000886859
0.000531918
0.000790192
0.000909137
0.00096445
SCALARS mass double 1
LOOKUP_TABLE default
0.00228657
0.0048913
0.00453983
0.00738005
0.00634449
0.00720004
0.00576955
0.0037184
0.0024319
0.00759432
0.00846957
0.00546484
0.00382714
0.00569173
0.00352892
0.00580838
0.00307803
0.005066
0.00256678
0.00332607
0.00667148
0.00239995
0.00529637
0.00701087
0.00788992
