# vtk DataFile Version 3.0
DEM2D particles
ASCII
DATASET POLYDATA
POINTS 25 double
0.000210492 0.0003458 0
0.00247694 -5.34887e-05 0
0.00456711 0.000593838 0
0.00674628 0.000475124 0
0.00933215 0.00139225 0
0.000976388 0.00354643 0
0.00272805 0.00323087 0
0.00430175 0.00276206 0
0.00620408 0.00218475 0
0.00807857 0.00263071 0
0.00194188 0.00448339 0
0.00315848 0.00420246 0
0.00447748 0.00470666 0
0.00666273 0.00577922 0
0.00823043 0.00523174 0
0.0014505 0.00640206 0
0.0023961 0.00751543 0
0.00577483 0.00654051 0
0.00705357 0.00710212 0
0.00819693 0.00680784 0
6.49652e-05 0.00844903 0
0.00285477 0.00980903 0
0.0050706 0.00874182 0
0.00716435 0.00933683 0
0.00986735 0.00888574 0
VERTICES 25 50
1 0
1 1
1 2
1 3
1 4
1 5
1 6
1 7
1 8
1 9
1 10
1 11
1 12
1 13
1 14
1 15
1 16
1 17
1 18
1 19
1 20
1 21
1 22
1 23
1 24
POINT_DATA 25
VECTORS velocity double
-1.01235e-07 -0.00970865 0
-6.70698e-08 -0.0097087 0
-5.55076e-08 -0.00970862 0
-3.25335e-08 -0.00970863 0
4.25897e-08 -0.00970851 0
-3.02769e-09 -0.00970849 0
-3.48714e-08 -0.00970853 0
-8.95332e-08 -0.00970859 0
-1.02056e-07 -0.00970867 0
-1.18151e-07 -0.00970861 0
1.20773e-07 -0.00970863 0
2.03212e-08 -0.00970867 0
-6.69999e-08 -0.0097086 0
-4.3246e-08 -0.00970846 0
-9.86781e-08 -0.00970853 0
5.77654e-08 -0.00970864 0
-7.74349e-08 -0.0097085 0
9.93529e-08 -0.00970862 0
6.86914e-09 -0.00970855 0
-1.02974e-07 -0.00970859 0
-1.19895e-07 -0.00970863 0
-1.86215e-08 -0.00970846 0
9.05308e-09 -0.0097086 0
2.10742e-08 -0.00970852 0
1.11216e-07 -0.00970858 0
SCALARS radius double 1
LOOKUP_TABLE default
0.0005192
0.000759374
0.000731582
0.000932767
0.000864852
0.00092132
0.000824734
0.000662097
0.000535446
0.00094621
0.000999249
0.000802661
0.000671708
0.000819153
0.000645007
0.000827505
0.000602392
0.000772815
0.000550095
0.000626194
0.000886859
0.000531918
0.000790192
0.000909137
0.00096445
SCALARS mass double 1
LOOKUP_TABLE default
0.00228657
0.0048913
0.00453983
0.00738005
0.00634449
0.00720004
0.00576955
0.0037184
0.0024319
0.00759432
0.00846957
0.00546484
0.00382714
0.00569173
0.00352892
0.00580838
0.00307803
0.005066
0.00256678
0.00332607
0.00667148
0.00239995
0.00529637
0.00701087
0.00788992
