# vtk DataFile Version 3.0
DEM2D particles
ASCII
DATASET POLYDATA
POINTS 25 double
0.000210492 -0.000279432 0
0.00247694 -0.000678722 0
0.00456711 -3.13945e-05 0
0.00674628 -0.000150109 0
0.00933215 0.000767018 0
0.000976388 0.00292119 0
0.00272805 0.00260564 0
0.00430175 0.00213683 0
0.00620408 0.00155951 0
0.00807857 0.00200547 0
0.00194188 0.00385815 0
0.00315848 0.00357723 0
0.00447748 0.00408143 0
0.00666273 0.00515398 0
0.00823043 0.0046065 0
0.0014505 0.00577683 0
0.0023961 0.0068902 0
0.00577483 0.00591528 0
0.00705357 0.00647689 0
0.00819693 0.0061826 0
6.49651e-05 0.00782379 0
0.00285477 0.0091838 0
0.0050706 0.00811659 0
0.00716435 0.0087116 0
0.00986735 0.00826051 0
VERTICES 25 50
1 0
1 1
1 2
1 3
1 4
1 5
1 6
1 7
1 8
1 9
1 10
1 11
1 12
1 13
1 14
1 15
1 16
1 17
1 18
1 19
1 20
1 21
1 22
1 23
1 24
POINT_DATA 25
VECTORS velocity double
-7.87014e-36 -0.00970858 0
-5.21411e-36 -0.00970858 0
-4.31525e-36 -0.00970858 0
-2.5292e-36 -0.00970858 0
3.31099e-36 -0.00970858 0
-2.35378e-37 -0.00970858 0
-2.71095e-36 -0.00970858 0
-6.96045e-36 -0.00970858 0
-7.93401e-36 -0.00970858 0
-9.18522e-36 -0.00970858 0
9.38906e-36 -0.00970858 0
1.5798e-36 -0.00970858 0
-5.20868e-36 -0.00970858 0
-3.36201e-36 -0.00970858 0
-7.67139e-36 -0.00970858 0
4.49077e-36 -0.00970858 0
-6.01991e-36 -0.00970858 0
7.72385e-36 -0.00970858 0
5.34018e-37 -0.00970858 0
-8.00535e-36 -0.00970858 0
-9.3208e-36 -0.00970858 0
-1.44766e-36 -0.00970858 0
7.038e-37 -0.00970858 0
1.63834e-36 -0.00970858 0
8.64607e-36 -0.00970858 0
SCALARS radius double 1
LOOKUP_TABLE default
0.0005192
0.000759374
0.000731582
0.000932767
0.000864852
0.00092132
0.000824734
0.000662097
0.000535446
0.00094621
0.000999249
0.000802661
0.000671708
0.000819153
0.000645007
0.000827505
0.000602392
0.000772815
0.000550095
0.000626194
0.000886859
0.000531918
0.000790192
0.000909137
0.00096445
SCALARS mass double 1
LOOKUP_TABLE default
0.00228657
0.0048913
0.00453983
0.00738005
0.00634449
0.00720004
0.00576955
0.0037184
0.0024319
0.00759432
0.00846957
0.00546484
0.00382714
0.00569173
0.00352892
0.00580838
0.00307803
0.005066
0.00256678
0.00332607
0.00667148
0.00239995
0.00529637
0.00701087
0.00788992
