# vtk DataFile Version 3.0
DEM2D particles
ASCII
DATASET POLYDATA
POINTS 25 double
0.000210492 0.00015357 0
0.00247694 -0.000245719 0
0.00456711 0.000401608 0
0.00674628 0.000282894 0
0.00933215 0.00120002 0
0.000976388 0.0033542 0
0.00272805 0.00303864 0
0.00430175 0.00256983 0
0.00620408 0.00199252 0
0.00807857 0.00243848 0
0.00194188 0.00429116 0
0.00315848 0.00401023 0
0.00447748 0.00451443 0
0.00666273 0.00558699 0
0.00823043 0.00503951 0
0.0014505 0.00620983 0
0.0023961 0.0073232 0
0.00577483 0.00634828 0
0.00705357 0.00690989 0
0.00819693 0.00661561 0
6.49651e-05 0.0082568 0
0.00285477 0.0096168 0
0.0050706 0.00854959 0
0.00716435 0.0091446 0
0.00986735 0.00869351 0
VERTICES 25 50
1 0
1 1
1 2
1 3
1 4
1 5
1 6
1 7
1 8
1 9
1 10
1 11
1 12
1 13
1 14
1 15
1 16
1 17
1 18
1 19
1 20
1 21
1 22
1 23
1 24
POINT_DATA 25
VECTORS velocity double
-2.30682e-16 -0.00970858 0
-1.52831e-16 -0.00970858 0
-1.26485e-16 -0.00970858 0
-7.41338e-17 -0.00970858 0
9.70487e-17 -0.00970858 0
-6.89917e-18 -0.00970858 0
-7.9461e-17 -0.00970858 0
-2.04018e-16 -0.00970858 0
-2.32555e-16 -0.00970858 0
-2.69229e-16 -0.00970858 0
2.75204e-16 -0.00970858 0
4.63058e-17 -0.00970858 0
-1.52672e-16 -0.00970858 0
-9.85443e-17 -0.00970858 0
-2.24857e-16 -0.00970858 0
1.31629e-16 -0.00970858 0
-1.7645e-16 -0.00970858 0
2.26395e-16 -0.00970858 0
1.56526e-17 -0.00970858 0
-2.34646e-16 -0.00970858 0
-2.73203e-16 -0.00970858 0
-4.24326e-17 -0.00970858 0
2.06292e-17 -0.00970858 0
4.80216e-17 -0.00970858 0
2.53426e-16 -0.00970858 0
SCALARS radius double 1
LOOKUP_TABLE default
0.0005192
0.000759374
0.000731582
0.000932767
0.000864852
0.00092132
0.000824734
0.000662097
0.000535446
0.00094621
0.000999249
0.000802661
0.000671708
0.000819153
0.000645007
0.000827505
0.000602392
0.000772815
0.000550095
0.000626194
0.000886859
0.000531918
0.000790192
0.000909137
0.00096445
SCALARS mass double 1
LOOKUP_TABLE default
0.00228657
0.0048913
0.00453983
0.00738005
0.00634449
0.00720004
0.00576955
0.0037184
0.0024319
0.00759432
0.00846957
0.00546484
0.00382714
0.00569173
0.00352892
0.00580838
0.00307803
0.005066
0.00256678
0.00332607
0.00667148
0.00239995
0.00529637
0.00701087
0.00788992
