# vtk DataFile Version 3.0
DEM2D particles
ASCII
DATASET POLYDATA
POINTS 25 double
0.000210492 -0.000586224 0
0.00247694 -0.000985513 0
0.00456711 -0.000338186 0
0.00674628 -0.0004569 0
0.00933215 0.000460227 0
0.000976388 0.0026144 0
0.00272805 0.00229885 0
0.00430175 0.00183004 0
0.00620408 0.00125272 0
0.00807857 0.00169868 0
0.00194188 0.00355136 0
0.00315848 0.00327044 0
0.00447748 0.00377464 0
0.00666273 0.00484719 0
0.00823043 0.00429971 0
0.0014505 0.00547004 0
0.0023961 0.00658341 0
0.00577483 0.00560848 0
0.00705357 0.0061701 0
0.00819693 0.00587581 0
6.49651e-05 0.007517 0
0.00285477 0.00887701 0
0.0050706 0.00780979 0
0.00716435 0.00840481 0
0.00986735 0.00795372 0
VERTICES 25 50
1 0
1 1
1 2
1 3
1 4
1 5
1 6
1 7
1 8
1 9
1 10
1 11
1 12
1 13
1 14
1 15
1 16
1 17
1 18
1 19
1 20
1 21
1 22
1 23
1 24
POINT_DATA 25
VECTORS velocity double
-1.26823e-49 -0.00970858 0
-8.40224e-50 -0.00970858 0
-6.95378e-50 -0.00970858 0
-4.07567e-50 -0.00970858 0
5.33547e-50 -0.00970858 0
-3.79297e-51 -0.00970858 0
-4.36855e-50 -0.00970858 0
-1.12164e-49 -0.00970858 0
-1.27852e-49 -0.00970858 0
-1.48015e-49 -0.00970858 0
1.51299e-49 -0.00970858 0
2.54576e-50 -0.00970858 0
-8.39349e-50 -0.00970858 0
-5.41769e-50 -0.00970858 0
-1.2362e-49 -0.00970858 0
7.23662e-50 -0.00970858 0
-9.70074e-50 -0.00970858 0
1.24465e-49 -0.00970858 0
8.60539e-51 -0.00970858 0
-1.29002e-49 -0.00970858 0
-1.50199e-49 -0.00970858 0
-2.33283e-50 -0.00970858 0
1.13413e-50 -0.00970858 0
2.64009e-50 -0.00970858 0
1.39326e-49 -0.00970858 0
SCALARS radius double 1
LOOKUP_TABLE default
0.0005192
0.000759374
0.000731582
0.000932767
0.000864852
0.00092132
0.000824734
0.000662097
0.000535446
0.00094621
0.000999249
0.000802661
0.000671708
0.000819153
0.000645007
0.000827505
0.000602392
0.000772815
0.000550095
0.000626194
0.000886859
0.000531918
0.000790192
0.000909137
0.00096445
SCALARS mass double 1
LOOKUP_TABLE default
0.00228657
0.0048913
0.00453983
0.00738005
0.00634449
0.00720004
0.00576955
0.0037184
0.0024319
0.00759432
0.00846957
0.00546484
0.00382714
0.00569173
0.00352892
0.00580838
0.00307803
0.005066
0.00256678
0.00332607
0.00667148
0.00239995
0.00529637
0.00701087
0.00788992
