# vtk DataFile Version 3.0
DEM2D particles
ASCII
DATASET POLYDATA
POINTS 25 double
0.000210492 -0.00119981 0
0.00247694 -0.0015991 0
0.00456711 -0.000951768 0
0.00674628 -0.00107048 0
0.00933215 -0.000153356 0
0.000976388 0.00200082 0
0.00272805 0.00168527 0
0.00430175 0.00121646 0
0.00620408 0.00063914 0
0.00807857 0.0010851 0
0.00194188 0.00293778 0
0.00315848 0.00265686 0
0.00447748 0.00316106 0
0.00666273 0.00423361 0
0.00823043 0.00368613 0
0.0014505 0.00485645 0
0.0023961 0.00596982 0
0.00577483 0.0049949 0
0.00705357 0.00555652 0
0.00819693 0.00526223 0
6.49651e-05 0.00690342 0
0.00285477 0.00826342 0
0.0050706 0.00719621 0
0.00716435 0.00779123 0
0.00986735 0.00734013 0
VERTICES 25 50
1 0
1 1
1 2
1 3
1 4
1 5
1 6
1 7
1 8
1 9
1 10
1 11
1 12
1 13
1 14
1 15
1 16
1 17
1 18
1 19
1 20
1 21
1 22
1 23
1 24
POINT_DATA 25
VECTORS velocity double
-3.29327e-77 -0.00970858 0
-2.18185e-77 -0.00970858 0
-1.80572e-77 -0.00970858 0
-1.05835e-77 -0.00970858 0
1.38549e-77 -0.00970858 0
-9.8494e-79 -0.00970858 0
-1.1344e-77 -0.00970858 0
-2.91261e-77 -0.00970858 0
-3.32e-77 -0.00970858 0
-3.84356e-77 -0.00970858 0
3.92886e-77 -0.00970858 0
6.6107e-78 -0.00970858 0
-2.17958e-77 -0.00970858 0
-1.40684e-77 -0.00970858 0
-3.2101e-77 -0.00970858 0
1.87917e-77 -0.00970858 0
-2.51904e-77 -0.00970858 0
3.23205e-77 -0.00970858 0
2.2346e-78 -0.00970858 0
-3.34985e-77 -0.00970858 0
-3.9003e-77 -0.00970858 0
-6.05777e-78 -0.00970858 0
2.94506e-78 -0.00970858 0
6.85566e-78 -0.00970858 0
3.61796e-77 -0.00970858 0
SCALARS radius double 1
LOOKUP_TABLE default
0.0005192
0.000759374
0.000731582
0.000932767
0.000864852
0.00092132
0.000824734
0.000662097
0.000535446
0.00094621
0.000999249
0.000802661
0.000671708
0.000819153
0.000645007
0.000827505
0.000602392
0.000772815
0.000550095
0.000626194
0.000886859
0.000531918
0.000790192
0.000909137
0.00096445
SCALARS mass double 1
LOOKUP_TABLE default
0.00228657
0.0048913
0.00453983
0.00738005
0.00634449
0.00720004
0.00576955
0.0037184
0.0024319
0.00759432
0.00846957
0.00546484
0.00382714
0.00569173
0.00352892
0.00580838
0.00307803
0.005066
0.00256678
0.00332607
0.00667148
0.00239995
0.00529637
0.00701087
0.00788992
