# vtk DataFile Version 3.0
DEM2D particles
ASCII
DATASET POLYDATA
POINTS 25 double
0.000210492 -0.000293024 0
0.00247694 -0.000692314 0
0.00456711 -4.49865e-05 0
0.00674628 -0.000163701 0
0.00933215 0.000753426 0
0.000976388 0.0029076 0
0.00272805 0.00259205 0
0.00430175 0.00212324 0
0.00620408 0.00154592 0
0.00807857 0.00199188 0
0.00194188 0.00384456 0
0.00315848 0.00356364 0
0.00447748 0.00406784 0
0.00666273 0.00514039 0
0.00823043 0.00459291 0
0.0014505 0.00576324 0
0.0023961 0.0068766 0
0.00577483 0.00590168 0
0.00705357 0.0064633 0
0.00819693 0.00616901 0
6.49651e-05 0.0078102 0
0.00285477 0.00917021 0
0.0050706 0.00810299 0
0.00716435 0.00869801 0
0.00986735 0.00824692 0
VERTICES 25 50
1 0
1 1
1 2
1 3
1 4
1 5
1 6
1 7
1 8
1 9
1 10
1 11
1 12
1 13
1 14
1 15
1 16
1 17
1 18
1 19
1 20
1 21
1 22
1 23
1 24
POINT_DATA 25
VECTORS velocity double
-1.92712e-36 -0.00970858 0
-1.27675e-36 -0.00970858 0
-1.05665e-36 -0.00970858 0
-6.19315e-37 -0.00970858 0
8.10746e-37 -0.00970858 0
-5.76358e-38 -0.00970858 0
-6.63818e-37 -0.00970858 0
-1.70437e-36 -0.00970858 0
-1.94276e-36 -0.00970858 0
-2.24914e-36 -0.00970858 0
2.29906e-36 -0.00970858 0
3.86839e-37 -0.00970858 0
-1.27542e-36 -0.00970858 0
-8.2324e-37 -0.00970858 0
-1.87846e-36 -0.00970858 0
1.09963e-36 -0.00970858 0
-1.47407e-36 -0.00970858 0
1.8913e-36 -0.00970858 0
1.30762e-37 -0.00970858 0
-1.96023e-36 -0.00970858 0
-2.28234e-36 -0.00970858 0
-3.54483e-37 -0.00970858 0
1.72336e-37 -0.00970858 0
4.01173e-37 -0.00970858 0
2.11712e-36 -0.00970858 0
SCALARS radius double 1
LOOKUP_TABLE default
0.0005192
0.000759374
0.000731582
0.000932767
0.000864852
0.00092132
0.000824734
0.000662097
0.000535446
0.00094621
0.000999249
0.000802661
0.000671708
0.000819153
0.000645007
0.000827505
0.000602392
0.000772815
0.000550095
0.000626194
0.000886859
0.000531918
0.000790192
0.000909137
0.00096445
SCALARS mass double 1
LOOKUP_TABLE default
0.00228657
0.0048913
0.00453983
0.00738005
0.00634449
0.00720004
0.00576955
0.0037184
0.0024319
0.00759432
0.00846957
0.00546484
0.00382714
0.00569173
0.00352892
0.00580838
0.00307803
0.005066
0.00256678
0.00332607
0.00667148
0.00239995
0.00529637
0.00701087
0.00788992
