# vtk DataFile Version 3.0
DEM2D particles
ASCII
DATASET POLYDATA
POINTS 25 double
0.000210492 -0.000232831 0
0.00247694 -0.00063212 0
0.00456711 1.52067e-05 0
0.00674628 -0.000103507 0
0.00933215 0.000813619 0
0.000976388 0.00296779 0
0.00272805 0.00265224 0
0.00430175 0.00218343 0
0.00620408 0.00160611 0
0.00807857 0.00205208 0
0.00194188 0.00390476 0
0.00315848 0.00362383 0
0.00447748 0.00412803 0
0.00666273 0.00520059 0
0.00823043 0.00465311 0
0.0014505 0.00582343 0
0.0023961 0.0069368 0
0.00577483 0.00596188 0
0.00705357 0.00652349 0
0.00819693 0.0062292 0
6.49651e-05 0.00787039 0
0.00285477 0.0092304 0
0.0050706 0.00816319 0
0.00716435 0.0087582 0
0.00986735 0.00830711 0
VERTICES 25 50
1 0
1 1
1 2
1 3
1 4
1 5
1 6
1 7
1 8
1 9
1 10
1 11
1 12
1 13
1 14
1 15
1 16
1 17
1 18
1 19
1 20
1 21
1 22
1 23
1 24
POINT_DATA 25
VECTORS velocity double
-9.7969e-34 -0.00970858 0
-6.49063e-34 -0.00970858 0
-5.37171e-34 -0.00970858 0
-3.14841e-34 -0.00970858 0
4.12158e-34 -0.00970858 0
-2.93003e-35 -0.00970858 0
-3.37465e-34 -0.00970858 0
-8.66451e-34 -0.00970858 0
-9.87642e-34 -0.00970858 0
-1.14339e-33 -0.00970858 0
1.16877e-33 -0.00970858 0
1.96657e-34 -0.00970858 0
-6.48387e-34 -0.00970858 0
-4.1851e-34 -0.00970858 0
-9.5495e-34 -0.00970858 0
5.5902e-34 -0.00970858 0
-7.4937e-34 -0.00970858 0
9.6148e-34 -0.00970858 0
6.64756e-35 -0.00970858 0
-9.96522e-34 -0.00970858 0
-1.16027e-33 -0.00970858 0
-1.80208e-34 -0.00970858 0
8.76105e-35 -0.00970858 0
2.03944e-34 -0.00970858 0
1.07628e-33 -0.00970858 0
SCALARS radius double 1
LOOKUP_TABLE default
0.0005192
0.000759374
0.000731582
0.000932767
0.000864852
0.00092132
0.000824734
0.000662097
0.000535446
0.00094621
0.000999249
0.000802661
0.000671708
0.000819153
0.000645007
0.000827505
0.000602392
0.000772815
0.000550095
0.000626194
0.000886859
0.000531918
0.000790192
0.000909137
0.00096445
SCALARS mass double 1
LOOKUP_TABLE default
0.00228657
0.0048913
0.00453983
0.00738005
0.00634449
0.00720004
0.00576955
0.0037184
0.0024319
0.00759432
0.00846957
0.00546484
0.00382714
0.00569173
0.00352892
0.00580838
0.00307803
0.005066
0.00256678
0.00332607
0.00667148
0.00239995
0.00529637
0.00701087
0.00788992
