# vtk DataFile Version 3.0
DEM2D particles
ASCII
DATASET POLYDATA
POINTS 25 double
0.000210492 -0.000355159 0
0.00247694 -0.000754449 0
0.00456711 -0.000107121 0
0.00674628 -0.000225836 0
0.00933215 0.000691291 0
0.000976388 0.00284547 0
0.00272805 0.00252991 0
0.00430175 0.0020611 0
0.00620408 0.00148379 0
0.00807857 0.00192975 0
0.00194188 0.00378243 0
0.00315848 0.0035015 0
0.00447748 0.0040057 0
0.00666273 0.00507826 0
0.00823043 0.00453078 0
0.0014505 0.0057011 0
0.0023961 0.00681447 0
0.00577483 0.00583955 0
0.00705357 0.00640116 0
0.00819693 0.00610688 0
6.49651e-05 0.00774807 0
0.00285477 0.00910807 0
0.0050706 0.00804086 0
0.00716435 0.00863587 0
0.00986735 0.00818478 0
VERTICES 25 50
1 0
1 1
1 2
1 3
1 4
1 5
1 6
1 7
1 8
1 9
1 10
1 11
1 12
1 13
1 14
1 15
1 16
1 17
1 18
1 19
1 20
1 21
1 22
1 23
1 24
POINT_DATA 25
VECTORS velocity double
-3.10052e-39 -0.00970858 0
-2.05415e-39 -0.00970858 0
-1.70003e-39 -0.00970858 0
-9.96405e-40 -0.00970858 0
1.3044e-39 -0.00970858 0
-9.27292e-41 -0.00970858 0
-1.06801e-39 -0.00970858 0
-2.74214e-39 -0.00970858 0
-3.12568e-39 -0.00970858 0
-3.61861e-39 -0.00970858 0
3.69891e-39 -0.00970858 0
6.22379e-40 -0.00970858 0
-2.05201e-39 -0.00970858 0
-1.3245e-39 -0.00970858 0
-3.02222e-39 -0.00970858 0
1.76918e-39 -0.00970858 0
-2.3716e-39 -0.00970858 0
3.04289e-39 -0.00970858 0
2.10381e-40 -0.00970858 0
-3.15378e-39 -0.00970858 0
-3.67202e-39 -0.00970858 0
-5.70322e-40 -0.00970858 0
2.77269e-40 -0.00970858 0
6.4544e-40 -0.00970858 0
3.4062e-39 -0.00970858 0
SCALARS radius double 1
LOOKUP_TABLE default
0.0005192
0.000759374
0.000731582
0.000932767
0.000864852
0.00092132
0.000824734
0.000662097
0.000535446
0.00094621
0.000999249
0.000802661
0.000671708
0.000819153
0.000645007
0.000827505
0.000602392
0.000772815
0.000550095
0.000626194
0.000886859
0.000531918
0.000790192
0.000909137
0.00096445
SCALARS mass double 1
LOOKUP_TABLE default
0.00228657
0.0048913
0.00453983
0.00738005
0.00634449
0.00720004
0.00576955
0.0037184
0.0024319
0.00759432
0.00846957
0.00546484
0.00382714
0.00569173
0.00352892
0.00580838
0.00307803
0.005066
0.00256678
0.00332607
0.00667148
0.00239995
0.00529637
0.00701087
0.00788992
