# vtk DataFile Version 3.0
DEM2D particles
ASCII
DATASET POLYDATA
POINTS 25 double
0.000210492 -0.00114738 0
0.00247694 -0.00154667 0
0.00456711 -0.000899342 0
0.00674628 -0.00101806 0
0.00933215 -0.00010093 0
0.000976388 0.00205325 0
0.00272805 0.00173769 0
0.00430175 0.00126888 0
0.00620408 0.000691566 0
0.00807857 0.00113753 0
0.00194188 0.00299021 0
0.00315848 0.00270928 0
0.00447748 0.00321348 0
0.00666273 0.00428604 0
0.00823043 0.00373856 0
0.0014505 0.00490888 0
0.0023961 0.00602225 0
0.00577483 0.00504733 0
0.00705357 0.00560894 0
0.00819693 0.00531465 0
6.49651e-05 0.00695585 0
0.00285477 0.00831585 0
0.0050706 0.00724864 0
0.00716435 0.00784365 0
0.00986735 0.00739256 0
VERTICES 25 50
1 0
1 1
1 2
1 3
1 4
1 5
1 6
1 7
1 8
1 9
1 10
1 11
1 12
1 13
1 14
1 15
1 16
1 17
1 18
1 19
1 20
1 21
1 22
1 23
1 24
POINT_DATA 25
VECTORS velocity double
-7.49242e-75 -0.00970858 0
-4.96386e-75 -0.00970858 0
-4.10814e-75 -0.00970858 0
-2.40782e-75 -0.00970858 0
3.15208e-75 -0.00970858 0
-2.24081e-76 -0.00970858 0
-2.58084e-75 -0.00970858 0
-6.62639e-75 -0.00970858 0
-7.55323e-75 -0.00970858 0
-8.74438e-75 -0.00970858 0
8.93844e-75 -0.00970858 0
1.50398e-75 -0.00970858 0
-4.95869e-75 -0.00970858 0
-3.20066e-75 -0.00970858 0
-7.30321e-75 -0.00970858 0
4.27524e-75 -0.00970858 0
-5.73099e-75 -0.00970858 0
7.35315e-75 -0.00970858 0
5.08388e-76 -0.00970858 0
-7.62114e-75 -0.00970858 0
-8.87346e-75 -0.00970858 0
-1.37819e-75 -0.00970858 0
6.70022e-76 -0.00970858 0
1.55971e-75 -0.00970858 0
8.23111e-75 -0.00970858 0
SCALARS radius double 1
LOOKUP_TABLE default
0.0005192
0.000759374
0.000731582
0.000932767
0.000864852
0.00092132
0.000824734
0.000662097
0.000535446
0.00094621
0.000999249
0.000802661
0.000671708
0.000819153
0.000645007
0.000827505
0.000602392
0.000772815
0.000550095
0.000626194
0.000886859
0.000531918
0.000790192
0.000909137
0.00096445
SCALARS mass double 1
LOOKUP_TABLE default
0.00228657
0.0048913
0.00453983
0.00738005
0.00634449
0.00720004
0.00576955
0.0037184
0.0024319
0.00759432
0.00846957
0.00546484
0.00382714
0.00569173
0.00352892
0.00580838
0.00307803
0.005066
0.00256678
0.00332607
0.00667148
0.00239995
0.00529637
0.00701087
0.00788992
