# vtk DataFile Version 3.0
DEM2D particles
ASCII
DATASET POLYDATA
POINTS 25 double
0.000210492 -0.0010367 0
0.00247694 -0.00143599 0
0.00456711 -0.000788664 0
0.00674628 -0.000907378 0
0.00933215 9.74834e-06 0
0.000976388 0.00216392 0
0.00272805 0.00184837 0
0.00430175 0.00137956 0
0.00620408 0.000802244 0
0.00807857 0.00124821 0
0.00194188 0.00310088 0
0.00315848 0.00281996 0
0.00447748 0.00332416 0
0.00666273 0.00439671 0
0.00823043 0.00384923 0
0.0014505 0.00501956 0
0.0023961 0.00613293 0
0.00577483 0.00515801 0
0.00705357 0.00571962 0
0.00819693 0.00542533 0
6.49651e-05 0.00706652 0
0.00285477 0.00842653 0
0.0050706 0.00735932 0
0.00716435 0.00795433 0
0.00986735 0.00750324 0
VERTICES 25 50
1 0
1 1
1 2
1 3
1 4
1 5
1 6
1 7
1 8
1 9
1 10
1 11
1 12
1 13
1 14
1 15
1 16
1 17
1 18
1 19
1 20
1 21
1 22
1 23
1 24
POINT_DATA 25
VECTORS velocity double
-7.08761e-70 -0.00970858 0
-4.69567e-70 -0.00970858 0
-3.88619e-70 -0.00970858 0
-2.27773e-70 -0.00970858 0
2.98178e-70 -0.00970858 0
-2.11974e-71 -0.00970858 0
-2.44141e-70 -0.00970858 0
-6.26838e-70 -0.00970858 0
-7.14514e-70 -0.00970858 0
-8.27194e-70 -0.00970858 0
8.45551e-70 -0.00970858 0
1.42272e-70 -0.00970858 0
-4.69078e-70 -0.00970858 0
-3.02773e-70 -0.00970858 0
-6.90863e-70 -0.00970858 0
4.04426e-70 -0.00970858 0
-5.42135e-70 -0.00970858 0
6.95587e-70 -0.00970858 0
4.80921e-71 -0.00970858 0
-7.20938e-70 -0.00970858 0
-8.39404e-70 -0.00970858 0
-1.30372e-70 -0.00970858 0
6.33822e-71 -0.00970858 0
1.47544e-70 -0.00970858 0
7.7864e-70 -0.00970858 0
SCALARS radius double 1
LOOKUP_TABLE default
0.0005192
0.000759374
0.000731582
0.000932767
0.000864852
0.00092132
0.000824734
0.000662097
0.000535446
0.00094621
0.000999249
0.000802661
0.000671708
0.000819153
0.000645007
0.000827505
0.000602392
0.000772815
0.000550095
0.000626194
0.000886859
0.000531918
0.000790192
0.000909137
0.00096445
SCALARS mass double 1
LOOKUP_TABLE default
0.00228657
0.0048913
0.00453983
0.00738005
0.00634449
0.00720004
0.00576955
0.0037184
0.0024319
0.00759432
0.00846957
0.00546484
0.00382714
0.00569173
0.00352892
0.00580838
0.00307803
0.005066
0.00256678
0.00332607
0.00667148
0.00239995
0.00529637
0.00701087
0.00788992
