# vtk DataFile Version 3.0
DEM2D particles
ASCII
DATASET POLYDATA
POINTS 25 double
0.000210492 -0.000166813 0
0.00247694 -0.000566102 0
0.00456711 8.12251e-05 0
0.00674628 -3.7489e-05 0
0.00933215 0.000879637 0
0.000976388 0.00303381 0
0.00272805 0.00271826 0
0.00430175 0.00224945 0
0.00620408 0.00167213 0
0.00807857 0.00211809 0
0.00194188 0.00397077 0
0.00315848 0.00368985 0
0.00447748 0.00419405 0
0.00666273 0.0052666 0
0.00823043 0.00471912 0
0.0014505 0.00588945 0
0.0023961 0.00700282 0
0.00577483 0.0060279 0
0.00705357 0.00658951 0
0.00819693 0.00629522 0
6.49651e-05 0.00793641 0
0.00285477 0.00929642 0
0.0050706 0.00822921 0
0.00716435 0.00882422 0
0.00986735 0.00837313 0
VERTICES 25 50
1 0
1 1
1 2
1 3
1 4
1 5
1 6
1 7
1 8
1 9
1 10
1 11
1 12
1 13
1 14
1 15
1 16
1 17
1 18
1 19
1 20
1 21
1 22
1 23
1 24
POINT_DATA 25
VECTORS velocity double
-9.10241e-31 -0.00970858 0
-6.03051e-31 -0.00970858 0
-4.99091e-31 -0.00970858 0
-2.92522e-31 -0.00970858 0
3.82941e-31 -0.00970858 0
-2.72232e-32 -0.00970858 0
-3.13542e-31 -0.00970858 0
-8.05029e-31 -0.00970858 0
-9.17629e-31 -0.00970858 0
-1.06234e-30 -0.00970858 0
1.08592e-30 -0.00970858 0
1.82716e-31 -0.00970858 0
-6.02423e-31 -0.00970858 0
-3.88842e-31 -0.00970858 0
-8.87254e-31 -0.00970858 0
5.19392e-31 -0.00970858 0
-6.96248e-31 -0.00970858 0
8.93322e-31 -0.00970858 0
6.17632e-32 -0.00970858 0
-9.2588e-31 -0.00970858 0
-1.07802e-30 -0.00970858 0
-1.67433e-31 -0.00970858 0
8.13999e-32 -0.00970858 0
1.89487e-31 -0.00970858 0
9.99984e-31 -0.00970858 0
SCALARS radius double 1
LOOKUP_TABLE default
0.0005192
0.000759374
0.000731582
0.000932767
0.000864852
0.00092132
0.000824734
0.000662097
0.000535446
0.00094621
0.000999249
0.000802661
0.000671708
0.000819153
0.000645007
0.000827505
0.000602392
0.000772815
0.000550095
0.000626194
0.000886859
0.000531918
0.000790192
0.000909137
0.00096445
SCALARS mass double 1
LOOKUP_TABLE default
0.00228657
0.0048913
0.00453983
0.00738005
0.00634449
0.00720004
0.00576955
0.0037184
0.0024319
0.00759432
0.00846957
0.00546484
0.00382714
0.00569173
0.00352892
0.00580838
0.00307803
0.005066
0.00256678
0.00332607
0.00667148
0.00239995
0.00529637
0.00701087
0.00788992
