# vtk DataFile Version 3.0
DEM2D particles
ASCII
DATASET POLYDATA
POINTS 25 double
0.000210492 5.84263e-05 0
0.00247694 -0.000340863 0
0.00456711 0.000306464 0
0.00674628 0.00018775 0
0.00933215 0.00110488 0
0.000976388 0.00325905 0
0.00272805 0.0029435 0
0.00430175 0.00247469 0
0.00620408 0.00189737 0
0.00807857 0.00234333 0
0.00194188 0.00419601 0
0.00315848 0.00391509 0
0.00447748 0.00441929 0
0.00666273 0.00549184 0
0.00823043 0.00494436 0
0.0014505 0.00611469 0
0.0023961 0.00722806 0
0.00577483 0.00625313 0
0.00705357 0.00681475 0
0.00819693 0.00652046 0
6.49651e-05 0.00816165 0
0.00285477 0.00952166 0
0.0050706 0.00845444 0
0.00716435 0.00904946 0
0.00986735 0.00859837 0
VERTICES 25 50
1 0
1 1
1 2
1 3
1 4
1 5
1 6
1 7
1 8
1 9
1 10
1 11
1 12
1 13
1 14
1 15
1 16
1 17
1 18
1 19
1 20
1 21
1 22
1 23
1 24
POINT_DATA 25
VECTORS velocity double
-1.2176e-20 -0.00970858 0
-8.06683e-21 -0.00970858 0
-6.67619e-21 -0.00970858 0
-3.91297e-21 -0.00970858 0
5.12248e-21 -0.00970858 0
-3.64156e-22 -0.00970858 0
-4.19416e-21 -0.00970858 0
-1.07686e-20 -0.00970858 0
-1.22748e-20 -0.00970858 0
-1.42106e-20 -0.00970858 0
1.4526e-20 -0.00970858 0
2.44414e-21 -0.00970858 0
-8.05843e-21 -0.00970858 0
-5.20142e-21 -0.00970858 0
-1.18685e-20 -0.00970858 0
6.94774e-21 -0.00970858 0
-9.31349e-21 -0.00970858 0
1.19497e-20 -0.00970858 0
8.26187e-22 -0.00970858 0
-1.23852e-20 -0.00970858 0
-1.44204e-20 -0.00970858 0
-2.2397e-21 -0.00970858 0
1.08886e-21 -0.00970858 0
2.5347e-21 -0.00970858 0
1.33765e-20 -0.00970858 0
SCALARS radius double 1
LOOKUP_TABLE default
0.0005192
0.000759374
0.000731582
0.000932767
0.000864852
0.00092132
0.000824734
0.000662097
0.000535446
0.00094621
0.000999249
0.000802661
0.000671708
0.000819153
0.000645007
0.000827505
0.000602392
0.000772815
0.000550095
0.000626194
0.000886859
0.000531918
0.000790192
0.000909137
0.00096445
SCALARS mass double 1
LOOKUP_TABLE default
0.00228657
0.0048913
0.00453983
0.00738005
0.00634449
0.00720004
0.00576955
0.0037184
0.0024319
0.00759432
0.00846957
0.00546484
0.00382714
0.00569173
0.00352892
0.00580838
0.00307803
0.005066
0.00256678
0.00332607
0.00667148
0.00239995
0.00529637
0.00701087
0.00788992
