# vtk DataFile Version 3.0
DEM2D particles
ASCII
DATASET POLYDATA
POINTS 25 double
0.000210492 -0.000894957 0
0.00247694 -0.00129425 0
0.00456711 -0.000646919 0
0.00674628 -0.000765633 0
0.00933215 0.000151494 0
0.000976388 0.00230567 0
0.00272805 0.00199012 0
0.00430175 0.0015213 0
0.00620408 0.000943989 0
0.00807857 0.00138995 0
0.00194188 0.00324263 0
0.00315848 0.0029617 0
0.00447748 0.00346591 0
0.00666273 0.00453846 0
0.00823043 0.00399098 0
0.0014505 0.0051613 0
0.0023961 0.00627467 0
0.00577483 0.00529975 0
0.00705357 0.00586136 0
0.00819693 0.00556708 0
6.49651e-05 0.00720827 0
0.00285477 0.00856827 0
0.0050706 0.00750106 0
0.00716435 0.00809608 0
0.00986735 0.00764498 0
VERTICES 25 50
1 0
1 1
1 2
1 3
1 4
1 5
1 6
1 7
1 8
1 9
1 10
1 11
1 12
1 13
1 14
1 15
1 16
1 17
1 18
1 19
1 20
1 21
1 22
1 23
1 24
POINT_DATA 25
VECTORS velocity double
-1.67154e-63 -0.00970858 0
-1.10742e-63 -0.00970858 0
-9.16515e-64 -0.00970858 0
-5.37177e-64 -0.00970858 0
7.0322e-64 -0.00970858 0
-4.99918e-65 -0.00970858 0
-5.75779e-64 -0.00970858 0
-1.47833e-63 -0.00970858 0
-1.6851e-63 -0.00970858 0
-1.95085e-63 -0.00970858 0
1.99414e-63 -0.00970858 0
3.35534e-64 -0.00970858 0
-1.10627e-63 -0.00970858 0
-7.14057e-64 -0.00970858 0
-1.62932e-63 -0.00970858 0
9.53794e-64 -0.00970858 0
-1.27857e-63 -0.00970858 0
1.64047e-63 -0.00970858 0
1.1342e-64 -0.00970858 0
-1.70025e-63 -0.00970858 0
-1.97964e-63 -0.00970858 0
-3.07469e-64 -0.00970858 0
1.4948e-64 -0.00970858 0
3.47967e-64 -0.00970858 0
1.83634e-63 -0.00970858 0
SCALARS radius double 1
LOOKUP_TABLE default
0.0005192
0.000759374
0.000731582
0.000932767
0.000864852
0.00092132
0.000824734
0.000662097
0.000535446
0.00094621
0.000999249
0.000802661
0.000671708
0.000819153
0.000645007
0.000827505
0.000602392
0.000772815
0.000550095
0.000626194
0.000886859
0.000531918
0.000790192
0.000909137
0.00096445
SCALARS mass double 1
LOOKUP_TABLE default
0.00228657
0.0048913
0.00453983
0.00738005
0.00634449
0.00720004
0.00576955
0.0037184
0.0024319
0.00759432
0.00846957
0.00546484
0.00382714
0.00569173
0.00352892
0.00580838
0.00307803
0.005066
0.00256678
0.00332607
0.00667148
0.00239995
0.00529637
0.00701087
0.00788992
