# vtk DataFile Version 3.0
DEM2D particles
ASCII
DATASET POLYDATA
POINTS 25 double
0.000210492 -0.000656125 0
0.00247694 -0.00105541 0
0.00456711 -0.000408087 0
0.00674628 -0.000526802 0
0.00933215 0.000390325 0
0.000976388 0.0025445 0
0.00272805 0.00222895 0
0.00430175 0.00176014 0
0.00620408 0.00118282 0
0.00807857 0.00162878 0
0.00194188 0.00348146 0
0.00315848 0.00320054 0
0.00447748 0.00370474 0
0.00666273 0.00477729 0
0.00823043 0.00422981 0
0.0014505 0.00540013 0
0.0023961 0.0065135 0
0.00577483 0.00553858 0
0.00705357 0.0061002 0
0.00819693 0.00580591 0
6.49651e-05 0.0074471 0
0.00285477 0.0088071 0
0.0050706 0.00773989 0
0.00716435 0.00833491 0
0.00986735 0.00788382 0
VERTICES 25 50
1 0
1 1
1 2
1 3
1 4
1 5
1 6
1 7
1 8
1 9
1 10
1 11
1 12
1 13
1 14
1 15
1 16
1 17
1 18
1 19
1 20
1 21
1 22
1 23
1 24
POINT_DATA 25
VECTORS velocity double
-9.1314e-53 -0.00970858 0
-6.04972e-53 -0.00970858 0
-5.00681e-53 -0.00970858 0
-2.93453e-53 -0.00970858 0
3.8416e-53 -0.00970858 0
-2.73099e-54 -0.00970858 0
-3.14541e-53 -0.00970858 0
-8.07593e-53 -0.00970858 0
-9.20551e-53 -0.00970858 0
-1.06572e-52 -0.00970858 0
1.08937e-52 -0.00970858 0
1.83298e-53 -0.00970858 0
-6.04342e-53 -0.00970858 0
-3.90081e-53 -0.00970858 0
-8.9008e-53 -0.00970858 0
5.21046e-53 -0.00970858 0
-6.98465e-53 -0.00970858 0
8.96167e-53 -0.00970858 0
6.19599e-54 -0.00970858 0
-9.28828e-53 -0.00970858 0
-1.08145e-52 -0.00970858 0
-1.67967e-53 -0.00970858 0
8.16591e-54 -0.00970858 0
1.9009e-53 -0.00970858 0
1.00317e-52 -0.00970858 0
SCALARS radius double 1
LOOKUP_TABLE default
0.0005192
0.000759374
0.000731582
0.000932767
0.000864852
0.00092132
0.000824734
0.000662097
0.000535446
0.00094621
0.000999249
0.000802661
0.000671708
0.000819153
0.000645007
0.000827505
0.000602392
0.000772815
0.000550095
0.000626194
0.000886859
0.000531918
0.000790192
0.000909137
0.00096445
SCALARS mass double 1
LOOKUP_TABLE default
0.00228657
0.0048913
0.00453983
0.00738005
0.00634449
0.00720004
0.00576955
0.0037184
0.0024319
0.00759432
0.00846957
0.00546484
0.00382714
0.00569173
0.00352892
0.00580838
0.00307803
0.005066
0.00256678
0.00332607
0.00667148
0.00239995
0.00529637
0.00701087
0.00788992
