# vtk DataFile Version 3.0
DEM2D particles
ASCII
DATASET POLYDATA
POINTS 25 double
0.000210492 -0.000228948 0
0.00247694 -0.000628237 0
0.00456711 1.90902e-05 0
0.00674628 -9.96239e-05 0
0.00933215 0.000817502 0
0.000976388 0.00297168 0
0.00272805 0.00265612 0
0.00430175 0.00218731 0
0.00620408 0.00161 0
0.00807857 0.00205596 0
0.00194188 0.00390864 0
0.00315848 0.00362771 0
0.00447748 0.00413192 0
0.00666273 0.00520447 0
0.00823043 0.00465699 0
0.0014505 0.00582731 0
0.0023961 0.00694068 0
0.00577483 0.00596576 0
0.00705357 0.00652737 0
0.00819693 0.00623309 0
6.49651e-05 0.00787428 0
0.00285477 0.00923428 0
0.0050706 0.00816707 0
0.00716435 0.00876208 0
0.00986735 0.00831099 0
VERTICES 25 50
1 0
1 1
1 2
1 3
1 4
1 5
1 6
1 7
1 8
1 9
1 10
1 11
1 12
1 13
1 14
1 15
1 16
1 17
1 18
1 19
1 20
1 21
1 22
1 23
1 24
POINT_DATA 25
VECTORS velocity double
-1.46447e-33 -0.00970858 0
-9.70239e-34 -0.00970858 0
-8.0298e-34 -0.00970858 0
-4.70633e-34 -0.00970858 0
6.16107e-34 -0.00970858 0
-4.3799e-35 -0.00970858 0
-5.04453e-34 -0.00970858 0
-1.2952e-33 -0.00970858 0
-1.47636e-33 -0.00970858 0
-1.70918e-33 -0.00970858 0
1.74711e-33 -0.00970858 0
2.93969e-34 -0.00970858 0
-9.69229e-34 -0.00970858 0
-6.25602e-34 -0.00970858 0
-1.42749e-33 -0.00970858 0
8.35641e-34 -0.00970858 0
-1.12018e-33 -0.00970858 0
1.43725e-33 -0.00970858 0
9.93698e-35 -0.00970858 0
-1.48963e-33 -0.00970858 0
-1.73441e-33 -0.00970858 0
-2.69381e-34 -0.00970858 0
1.30963e-34 -0.00970858 0
3.04862e-34 -0.00970858 0
1.60886e-33 -0.00970858 0
SCALARS radius double 1
LOOKUP_TABLE default
0.0005192
0.000759374
0.000731582
0.000932767
0.000864852
0.00092132
0.000824734
0.000662097
0.000535446
0.00094621
0.000999249
0.000802661
0.000671708
0.000819153
0.000645007
0.000827505
0.000602392
0.000772815
0.000550095
0.000626194
0.000886859
0.000531918
0.000790192
0.000909137
0.00096445
SCALARS mass double 1
LOOKUP_TABLE default
0.00228657
0.0048913
0.00453983
0.00738005
0.00634449
0.00720004
0.00576955
0.0037184
0.0024319
0.00759432
0.00846957
0.00546484
0.00382714
0.00569173
0.00352892
0.00580838
0.00307803
0.005066
0.00256678
0.00332607
0.00667148
0.00239995
0.00529637
0.00701087
0.00788992
