# vtk DataFile Version 3.0
DEM2D particles
ASCII
DATASET POLYDATA
POINTS 25 double
0.000219972 0.000462492 0
0.00248322 6.79978e-05 0
0.00457231 0.000707551 0
0.00674932 0.000590263 0
0.00932816 0.00149638 0
0.000976671 0.0036487 0
0.00273131 0.00333694 0
0.00431013 0.00287375 0
0.00621364 0.00230337 0
0.00808963 0.00274398 0
0.00193057 0.00459843 0
0.00315658 0.00432087 0
0.00448376 0.00481902 0
0.00666678 0.0058787 0
0.00823967 0.00533779 0
0.00144509 0.00651808 0
0.00240335 0.00761808 0
0.00576553 0.00665486 0
0.00705293 0.00720973 0
0.00820657 0.00691898 0
7.61934e-05 0.00856448 0
0.00285652 0.00990815 0
0.00506976 0.00885375 0
0.00716238 0.00944162 0
0.00985693 0.00899595 0
VERTICES 25 50
1 0
1 1
1 2
1 3
1 4
1 5
1 6
1 7
1 8
1 9
1 10
1 11
1 12
1 13
1 14
1 15
1 16
1 17
1 18
1 19
1 20
1 21
1 22
1 23
1 24
POINT_DATA 25
VECTORS velocity double
-0.00957651 -0.0157832 0
-0.00634461 -0.0206265 0
-0.00525086 -0.0127746 0
-0.00307758 -0.0142145 0
0.00402886 -0.00309005 0
-0.000286411 -0.00121996 0
-0.00329873 -0.00504752 0
-0.00846959 -0.0107341 0
-0.00965423 -0.0177367 0
-0.0111767 -0.0123273 0
0.0114248 -0.0141143 0
0.00192233 -0.0175218 0
-0.006338 -0.011406 0
-0.00409095 0.00160373 0
-0.00933467 -0.00503704 0
0.00546444 -0.0151008 0
-0.00732512 -0.00159593 0
0.0093985 -0.0134214 0
0.000649801 -0.00660923 0
-0.00974104 -0.0101788 0
-0.0113417 -0.0145311 0
-0.00176154 0.00196537 0
0.000856395 -0.0109796 0
0.00199356 -0.00376226 0
0.0105207 -0.00923386 0
SCALARS radius double 1
LOOKUP_TABLE default
0.0005192
0.000759374
0.000731582
0.000932767
0.000864852
0.00092132
0.000824734
0.000662097
0.000535446
0.00094621
0.000999249
0.000802661
0.000671708
0.000819153
0.000645007
0.000827505
0.000602392
0.000772815
0.000550095
0.000626194
0.000886859
0.000531918
0.000790192
0.000909137
0.00096445
SCALARS mass double 1
LOOKUP_TABLE default
0.00228657
0.0048913
0.00453983
0.00738005
0.00634449
0.00720004
0.00576955
0.0037184
0.0024319
0.00759432
0.00846957
0.00546484
0.00382714
0.00569173
0.00352892
0.00580838
0.00307803
0.005066
0.00256678
0.00332607
0.00667148
0.00239995
0.00529637
0.00701087
0.00788992
