# vtk DataFile Version 3.0
DEM2D particles
ASCII
DATASET POLYDATA
POINTS 25 double
0.000210492 -0.00112214 0
0.00247694 -0.00152143 0
0.00456711 -0.0008741 0
0.00674628 -0.000992814 0
0.00933215 -7.56872e-05 0
0.000976388 0.00207849 0
0.00272805 0.00176293 0
0.00430175 0.00129412 0
0.00620408 0.000716808 0
0.00807857 0.00116277 0
0.00194188 0.00301545 0
0.00315848 0.00273452 0
0.00447748 0.00323873 0
0.00666273 0.00431128 0
0.00823043 0.0037638 0
0.0014505 0.00493412 0
0.0023961 0.00604749 0
0.00577483 0.00507257 0
0.00705357 0.00563418 0
0.00819693 0.0053399 0
6.49651e-05 0.00698109 0
0.00285477 0.00834109 0
0.0050706 0.00727388 0
0.00716435 0.00786889 0
0.00986735 0.0074178 0
VERTICES 25 50
1 0
1 1
1 2
1 3
1 4
1 5
1 6
1 7
1 8
1 9
1 10
1 11
1 12
1 13
1 14
1 15
1 16
1 17
1 18
1 19
1 20
1 21
1 22
1 23
1 24
POINT_DATA 25
VECTORS velocity double
-1.02205e-73 -0.00970858 0
-6.77125e-74 -0.00970858 0
-5.60396e-74 -0.00970858 0
-3.28453e-74 -0.00970858 0
4.29978e-74 -0.00970858 0
-3.05671e-75 -0.00970858 0
-3.52056e-74 -0.00970858 0
-9.03913e-74 -0.00970858 0
-1.03034e-73 -0.00970858 0
-1.19283e-73 -0.00970858 0
1.2193e-73 -0.00970858 0
2.0516e-74 -0.00970858 0
-6.7642e-74 -0.00970858 0
-4.36605e-74 -0.00970858 0
-9.96238e-74 -0.00970858 0
5.8319e-74 -0.00970858 0
-7.8177e-74 -0.00970858 0
1.00305e-73 -0.00970858 0
6.93497e-75 -0.00970858 0
-1.03961e-73 -0.00970858 0
-1.21044e-73 -0.00970858 0
-1.88e-74 -0.00970858 0
9.13984e-75 -0.00970858 0
2.12762e-74 -0.00970858 0
1.12281e-73 -0.00970858 0
SCALARS radius double 1
LOOKUP_TABLE default
0.0005192
0.000759374
0.000731582
0.000932767
0.000864852
0.00092132
0.000824734
0.000662097
0.000535446
0.00094621
0.000999249
0.000802661
0.000671708
0.000819153
0.000645007
0.000827505
0.000602392
0.000772815
0.000550095
0.000626194
0.000886859
0.000531918
0.000790192
0.000909137
0.00096445
SCALARS mass double 1
LOOKUP_TABLE default
0.00228657
0.0048913
0.00453983
0.00738005
0.00634449
0.00720004
0.00576955
0.0037184
0.0024319
0.00759432
0.00846957
0.00546484
0.00382714
0.00569173
0.00352892
0.00580838
0.00307803
0.005066
0.00256678
0.00332607
0.00667148
0.00239995
0.00529637
0.00701087
0.00788992
