# vtk DataFile Version 3.0
DEM2D particles
ASCII
DATASET POLYDATA
POINTS 25 double
0.000210492 -0.00070661 0
0.00247694 -0.0011059 0
0.00456711 -0.000458572 0
0.00674628 -0.000577286 0
0.00933215 0.00033984 0
0.000976388 0.00249401 0
0.00272805 0.00217846 0
0.00430175 0.00170965 0
0.00620408 0.00113234 0
0.00807857 0.0015783 0
0.00194188 0.00343098 0
0.00315848 0.00315005 0
0.00447748 0.00365425 0
0.00666273 0.00472681 0
0.00823043 0.00417933 0
0.0014505 0.00534965 0
0.0023961 0.00646302 0
0.00577483 0.0054881 0
0.00705357 0.00604971 0
0.00819693 0.00575542 0
6.49651e-05 0.00739662 0
0.00285477 0.00875662 0
0.0050706 0.00768941 0
0.00716435 0.00828442 0
0.00986735 0.00783333 0
VERTICES 25 50
1 0
1 1
1 2
1 3
1 4
1 5
1 6
1 7
1 8
1 9
1 10
1 11
1 12
1 13
1 14
1 15
1 16
1 17
1 18
1 19
1 20
1 21
1 22
1 23
1 24
POINT_DATA 25
VECTORS velocity double
-4.90725e-55 -0.00970858 0
-3.25114e-55 -0.00970858 0
-2.69068e-55 -0.00970858 0
-1.57703e-55 -0.00970858 0
2.06449e-55 -0.00970858 0
-1.46765e-56 -0.00970858 0
-1.69036e-55 -0.00970858 0
-4.34004e-55 -0.00970858 0
-4.94708e-55 -0.00970858 0
-5.72724e-55 -0.00970858 0
5.85435e-55 -0.00970858 0
9.85052e-56 -0.00970858 0
-3.24776e-55 -0.00970858 0
-2.09631e-55 -0.00970858 0
-4.78333e-55 -0.00970858 0
2.80012e-55 -0.00970858 0
-3.75358e-55 -0.00970858 0
4.81604e-55 -0.00970858 0
3.32975e-56 -0.00970858 0
-4.99156e-55 -0.00970858 0
-5.81179e-55 -0.00970858 0
-9.0266e-56 -0.00970858 0
4.38839e-56 -0.00970858 0
1.02155e-55 -0.00970858 0
5.39107e-55 -0.00970858 0
SCALARS radius double 1
LOOKUP_TABLE default
0.0005192
0.000759374
0.000731582
0.000932767
0.000864852
0.00092132
0.000824734
0.000662097
0.000535446
0.00094621
0.000999249
0.000802661
0.000671708
0.000819153
0.000645007
0.000827505
0.000602392
0.000772815
0.000550095
0.000626194
0.000886859
0.000531918
0.000790192
0.000909137
0.00096445
SCALARS mass double 1
LOOKUP_TABLE default
0.00228657
0.0048913
0.00453983
0.00738005
0.00634449
0.00720004
0.00576955
0.0037184
0.0024319
0.00759432
0.00846957
0.00546484
0.00382714
0.00569173
0.00352892
0.00580838
0.00307803
0.005066
0.00256678
0.00332607
0.00667148
0.00239995
0.00529637
0.00701087
0.00788992
