# vtk DataFile Version 3.0
DEM2D particles
ASCII
DATASET POLYDATA
POINTS 25 double
0.000210492 -0.00058234 0
0.00247694 -0.000981629 0
0.00456711 -0.000334302 0
0.00674628 -0.000453016 0
0.00933215 0.00046411 0
0.000976388 0.00261828 0
0.00272805 0.00230273 0
0.00430175 0.00183392 0
0.00620408 0.00125661 0
0.00807857 0.00170257 0
0.00194188 0.00355525 0
0.00315848 0.00327432 0
0.00447748 0.00377852 0
0.00666273 0.00485108 0
0.00823043 0.0043036 0
0.0014505 0.00547392 0
0.0023961 0.00658729 0
0.00577483 0.00561237 0
0.00705357 0.00617398 0
0.00819693 0.00587969 0
6.49651e-05 0.00752088 0
0.00285477 0.00888089 0
0.0050706 0.00781368 0
0.00716435 0.00840869 0
0.00986735 0.0079576 0
VERTICES 25 50
1 0
1 1
1 2
1 3
1 4
1 5
1 6
1 7
1 8
1 9
1 10
1 11
1 12
1 13
1 14
1 15
1 16
1 17
1 18
1 19
1 20
1 21
1 22
1 23
1 24
POINT_DATA 25
VECTORS velocity double
-1.89579e-49 -0.00970858 0
-1.25599e-49 -0.00970858 0
-1.03947e-49 -0.00970858 0
-6.09244e-50 -0.00970858 0
7.97562e-50 -0.00970858 0
-5.66986e-51 -0.00970858 0
-6.53024e-50 -0.00970858 0
-1.67666e-49 -0.00970858 0
-1.91117e-49 -0.00970858 0
-2.21257e-49 -0.00970858 0
2.26167e-49 -0.00970858 0
3.80549e-50 -0.00970858 0
-1.25468e-49 -0.00970858 0
-8.09854e-50 -0.00970858 0
-1.84791e-49 -0.00970858 0
1.08175e-49 -0.00970858 0
-1.4501e-49 -0.00970858 0
1.86055e-49 -0.00970858 0
1.28636e-50 -0.00970858 0
-1.92836e-49 -0.00970858 0
-2.24523e-49 -0.00970858 0
-3.48719e-50 -0.00970858 0
1.69534e-50 -0.00970858 0
3.94649e-50 -0.00970858 0
2.0827e-49 -0.00970858 0
SCALARS radius double 1
LOOKUP_TABLE default
0.0005192
0.000759374
0.000731582
0.000932767
0.000864852
0.00092132
0.000824734
0.000662097
0.000535446
0.00094621
0.000999249
0.000802661
0.000671708
0.000819153
0.000645007
0.000827505
0.000602392
0.000772815
0.000550095
0.000626194
0.000886859
0.000531918
0.000790192
0.000909137
0.00096445
SCALARS mass double 1
LOOKUP_TABLE default
0.00228657
0.0048913
0.00453983
0.00738005
0.00634449
0.00720004
0.00576955
0.0037184
0.0024319
0.00759432
0.00846957
0.00546484
0.00382714
0.00569173
0.00352892
0.00580838
0.00307803
0.005066
0.00256678
0.00332607
0.00667148
0.00239995
0.00529637
0.00701087
0.00788992
