# vtk DataFile Version 3.0
DEM2D particles
ASCII
DATASET POLYDATA
POINTS 25 double
0.000210492 -0.000349334 0
0.00247694 -0.000748623 0
0.00456711 -0.000101296 0
0.00674628 -0.00022001 0
0.00933215 0.000697116 0
0.000976388 0.00285129 0
0.00272805 0.00253574 0
0.00430175 0.00206693 0
0.00620408 0.00148961 0
0.00807857 0.00193557 0
0.00194188 0.00378825 0
0.00315848 0.00350733 0
0.00447748 0.00401153 0
0.00666273 0.00508408 0
0.00823043 0.0045366 0
0.0014505 0.00570693 0
0.0023961 0.00682029 0
0.00577483 0.00584537 0
0.00705357 0.00640699 0
0.00819693 0.0061127 0
6.49651e-05 0.00775389 0
0.00285477 0.0091139 0
0.0050706 0.00804668 0
0.00716435 0.0086417 0
0.00986735 0.00819061 0
VERTICES 25 50
1 0
1 1
1 2
1 3
1 4
1 5
1 6
1 7
1 8
1 9
1 10
1 11
1 12
1 13
1 14
1 15
1 16
1 17
1 18
1 19
1 20
1 21
1 22
1 23
1 24
POINT_DATA 25
VECTORS velocity double
-5.6666e-39 -0.00970858 0
-3.75422e-39 -0.00970858 0
-3.10703e-39 -0.00970858 0
-1.82106e-39 -0.00970858 0
2.38395e-39 -0.00970858 0
-1.69475e-40 -0.00970858 0
-1.95192e-39 -0.00970858 0
-5.01161e-39 -0.00970858 0
-5.71259e-39 -0.00970858 0
-6.61347e-39 -0.00970858 0
6.76024e-39 -0.00970858 0
1.13748e-39 -0.00970858 0
-3.75031e-39 -0.00970858 0
-2.42069e-39 -0.00970858 0
-5.52349e-39 -0.00970858 0
3.23341e-39 -0.00970858 0
-4.33441e-39 -0.00970858 0
5.56127e-39 -0.00970858 0
3.84499e-40 -0.00970858 0
-5.76395e-39 -0.00970858 0
-6.7111e-39 -0.00970858 0
-1.04234e-39 -0.00970858 0
5.06745e-40 -0.00970858 0
1.17963e-39 -0.00970858 0
6.22528e-39 -0.00970858 0
SCALARS radius double 1
LOOKUP_TABLE default
0.0005192
0.000759374
0.000731582
0.000932767
0.000864852
0.00092132
0.000824734
0.000662097
0.000535446
0.00094621
0.000999249
0.000802661
0.000671708
0.000819153
0.000645007
0.000827505
0.000602392
0.000772815
0.000550095
0.000626194
0.000886859
0.000531918
0.000790192
0.000909137
0.00096445
SCALARS mass double 1
LOOKUP_TABLE default
0.00228657
0.0048913
0.00453983
0.00738005
0.00634449
0.00720004
0.00576955
0.0037184
0.0024319
0.00759432
0.00846957
0.00546484
0.00382714
0.00569173
0.00352892
0.00580838
0.00307803
0.005066
0.00256678
0.00332607
0.00667148
0.00239995
0.00529637
0.00701087
0.00788992
