# vtk DataFile Version 3.0
DEM2D particles
ASCII
DATASET POLYDATA
POINTS 25 double
0.000210492 -0.000275549 0
0.00247694 -0.000674838 0
0.00456711 -2.7511e-05 0
0.00674628 -0.000146225 0
0.00933215 0.000770901 0
0.000976388 0.00292508 0
0.00272805 0.00260952 0
0.00430175 0.00214071 0
0.00620408 0.0015634 0
0.00807857 0.00200936 0
0.00194188 0.00386204 0
0.00315848 0.00358111 0
0.00447748 0.00408532 0
0.00666273 0.00515787 0
0.00823043 0.00461039 0
0.0014505 0.00578071 0
0.0023961 0.00689408 0
0.00577483 0.00591916 0
0.00705357 0.00648077 0
0.00819693 0.00618649 0
6.49651e-05 0.00782768 0
0.00285477 0.00918768 0
0.0050706 0.00812047 0
0.00716435 0.00871548 0
0.00986735 0.00826439 0
VERTICES 25 50
1 0
1 1
1 2
1 3
1 4
1 5
1 6
1 7
1 8
1 9
1 10
1 11
1 12
1 13
1 14
1 15
1 16
1 17
1 18
1 19
1 20
1 21
1 22
1 23
1 24
POINT_DATA 25
VECTORS velocity double
-1.17645e-35 -0.00970858 0
-7.79421e-36 -0.00970858 0
-6.45057e-36 -0.00970858 0
-3.78073e-36 -0.00970858 0
4.94937e-36 -0.00970858 0
-3.5185e-37 -0.00970858 0
-4.05242e-36 -0.00970858 0
-1.04047e-35 -0.00970858 0
-1.186e-35 -0.00970858 0
-1.37304e-35 -0.00970858 0
1.40351e-35 -0.00970858 0
2.36154e-36 -0.00970858 0
-7.7861e-36 -0.00970858 0
-5.02564e-36 -0.00970858 0
-1.14674e-35 -0.00970858 0
6.71294e-36 -0.00970858 0
-8.99875e-36 -0.00970858 0
1.15459e-35 -0.00970858 0
7.98266e-37 -0.00970858 0
-1.19666e-35 -0.00970858 0
-1.3933e-35 -0.00970858 0
-2.16401e-36 -0.00970858 0
1.05206e-36 -0.00970858 0
2.44904e-36 -0.00970858 0
1.29244e-35 -0.00970858 0
SCALARS radius double 1
LOOKUP_TABLE default
0.0005192
0.000759374
0.000731582
0.000932767
0.000864852
0.00092132
0.000824734
0.000662097
0.000535446
0.00094621
0.000999249
0.000802661
0.000671708
0.000819153
0.000645007
0.000827505
0.000602392
0.000772815
0.000550095
0.000626194
0.000886859
0.000531918
0.000790192
0.000909137
0.00096445
SCALARS mass double 1
LOOKUP_TABLE default
0.00228657
0.0048913
0.00453983
0.00738005
0.00634449
0.00720004
0.00576955
0.0037184
0.0024319
0.00759432
0.00846957
0.00546484
0.00382714
0.00569173
0.00352892
0.00580838
0.00307803
0.005066
0.00256678
0.00332607
0.00667148
0.00239995
0.00529637
0.00701087
0.00788992
