# vtk DataFile Version 3.0
DEM2D particles
ASCII
DATASET POLYDATA
POINTS 25 double
0.000210496 0.000382696 0
0.00247694 -1.6591e-05 0
0.00456711 0.000630732 0
0.00674628 0.000512019 0
0.00933215 0.00142914 0
0.000976388 0.00358331 0
0.00272805 0.00326776 0
0.00430175 0.00279895 0
0.00620409 0.00222164 0
0.00807857 0.0026676 0
0.00194188 0.00452028 0
0.00315848 0.00423936 0
0.00447748 0.00474356 0
0.00666273 0.0058161 0
0.00823043 0.00526863 0
0.0014505 0.00643896 0
0.0023961 0.00755232 0
0.00577483 0.0065774 0
0.00705357 0.00713901 0
0.00819693 0.00684473 0
6.49705e-05 0.00848592 0
0.00285478 0.00984592 0
0.0050706 0.00877871 0
0.00716435 0.00937372 0
0.00986734 0.00892263 0
VERTICES 25 50
1 0
1 1
1 2
1 3
1 4
1 5
1 6
1 7
1 8
1 9
1 10
1 11
1 12
1 13
1 14
1 15
1 16
1 17
1 18
1 19
1 20
1 21
1 22
1 23
1 24
POINT_DATA 25
VECTORS velocity double
-4.6127e-06 -0.00971151 0
-3.056e-06 -0.00971384 0
-2.52917e-06 -0.00971006 0
-1.48237e-06 -0.00971075 0
1.94057e-06 -0.0097054 0
-1.37955e-07 -0.00970449 0
-1.58889e-06 -0.00970634 0
-4.07953e-06 -0.00970908 0
-4.65014e-06 -0.00971245 0
-5.38347e-06 -0.00970984 0
5.50294e-06 -0.00971071 0
9.25925e-07 -0.00971235 0
-3.05281e-06 -0.0097094 0
-1.97048e-06 -0.00970313 0
-4.49621e-06 -0.00970633 0
2.63205e-06 -0.00971118 0
-3.52828e-06 -0.00970468 0
4.52696e-06 -0.00971037 0
3.12989e-07 -0.00970709 0
-4.69195e-06 -0.00970881 0
-5.46294e-06 -0.00971091 0
-8.48479e-07 -0.00970296 0
4.12498e-07 -0.0097092 0
9.60234e-07 -0.00970572 0
5.06747e-06 -0.00970835 0
SCALARS radius double 1
LOOKUP_TABLE default
0.0005192
0.000759374
0.000731582
0.000932767
0.000864852
0.00092132
0.000824734
0.000662097
0.000535446
0.00094621
0.000999249
0.000802661
0.000671708
0.000819153
0.000645007
0.000827505
0.000602392
0.000772815
0.000550095
0.000626194
0.000886859
0.000531918
0.000790192
0.000909137
0.00096445
SCALARS mass double 1
LOOKUP_TABLE default
0.00228657
0.0048913
0.00453983
0.00738005
0.00634449
0.00720004
0.00576955
0.0037184
0.0024319
0.00759432
0.00846957
0.00546484
0.00382714
0.00569173
0.00352892
0.00580838
0.00307803
0.005066
0.00256678
0.00332607
0.00667148
0.00239995
0.00529637
0.00701087
0.00788992
