# vtk DataFile Version 3.0
DEM2D particles
ASCII
DATASET POLYDATA
POINTS 25 double
0.000210492 -0.00141728 0
0.00247694 -0.00181657 0
0.00456711 -0.00116924 0
0.00674628 -0.00128795 0
0.00933215 -0.000370828 0
0.000976388 0.00178335 0
0.00272805 0.00146779 0
0.00430175 0.000998983 0
0.00620408 0.000421667 0
0.00807857 0.000867629 0
0.00194188 0.00272031 0
0.00315848 0.00243938 0
0.00447748 0.00294359 0
0.00666273 0.00401614 0
0.00823043 0.00346866 0
0.0014505 0.00463898 0
0.0023961 0.00575235 0
0.00577483 0.00477743 0
0.00705357 0.00533904 0
0.00819693 0.00504476 0
6.49651e-05 0.00668595 0
0.00285477 0.00804595 0
0.0050706 0.00697874 0
0.00716435 0.00757375 0
0.00986735 0.00712266 0
VERTICES 25 50
1 0
1 1
1 2
1 3
1 4
1 5
1 6
1 7
1 8
1 9
1 10
1 11
1 12
1 13
1 14
1 15
1 16
1 17
1 18
1 19
1 20
1 21
1 22
1 23
1 24
POINT_DATA 25
VECTORS velocity double
-5.50127e-87 -0.00970858 0
-3.64469e-87 -0.00970858 0
-3.01638e-87 -0.00970858 0
-1.76793e-87 -0.00970858 0
2.3144e-87 -0.00970858 0
-1.6453e-88 -0.00970858 0
-1.89497e-87 -0.00970858 0
-4.86539e-87 -0.00970858 0
-5.54592e-87 -0.00970858 0
-6.42052e-87 -0.00970858 0
6.56301e-87 -0.00970858 0
1.10429e-87 -0.00970858 0
-3.6409e-87 -0.00970858 0
-2.35007e-87 -0.00970858 0
-5.36234e-87 -0.00970858 0
3.13907e-87 -0.00970858 0
-4.20795e-87 -0.00970858 0
5.39901e-87 -0.00970858 0
3.73281e-88 -0.00970858 0
-5.59578e-87 -0.00970858 0
-6.51529e-87 -0.00970858 0
-1.01193e-87 -0.00970858 0
4.9196e-88 -0.00970858 0
1.14521e-87 -0.00970858 0
6.04365e-87 -0.00970858 0
SCALARS radius double 1
LOOKUP_TABLE default
0.0005192
0.000759374
0.000731582
0.000932767
0.000864852
0.00092132
0.000824734
0.000662097
0.000535446
0.00094621
0.000999249
0.000802661
0.000671708
0.000819153
0.000645007
0.000827505
0.000602392
0.000772815
0.000550095
0.000626194
0.000886859
0.000531918
0.000790192
0.000909137
0.00096445
SCALARS mass double 1
LOOKUP_TABLE default
0.00228657
0.0048913
0.00453983
0.00738005
0.00634449
0.00720004
0.00576955
0.0037184
0.0024319
0.00759432
0.00846957
0.00546484
0.00382714
0.00569173
0.00352892
0.00580838
0.00307803
0.005066
0.00256678
0.00332607
0.00667148
0.00239995
0.00529637
0.00701087
0.00788992
