# vtk DataFile Version 3.0
DEM2D particles
ASCII
DATASET POLYDATA
POINTS 25 double
0.000210492 -7.16687e-05 0
0.00247694 -0.000470958 0
0.00456711 0.000176369 0
0.00674628 5.76551e-05 0
0.00933215 0.000974782 0
0.000976388 0.00312896 0
0.00272805 0.0028134 0
0.00430175 0.00234459 0
0.00620408 0.00176728 0
0.00807857 0.00221324 0
0.00194188 0.00406592 0
0.00315848 0.00378499 0
0.00447748 0.0042892 0
0.00666273 0.00536175 0
0.00823043 0.00481427 0
0.0014505 0.00598459 0
0.0023961 0.00709796 0
0.00577483 0.00612304 0
0.00705357 0.00668465 0
0.00819693 0.00639037 0
6.49651e-05 0.00803156 0
0.00285477 0.00939156 0
0.0050706 0.00832435 0
0.00716435 0.00891936 0
0.00986735 0.00846827 0
VERTICES 25 50
1 0
1 1
1 2
1 3
1 4
1 5
1 6
1 7
1 8
1 9
1 10
1 11
1 12
1 13
1 14
1 15
1 16
1 17
1 18
1 19
1 20
1 21
1 22
1 23
1 24
POINT_DATA 25
VECTORS velocity double
-1.72451e-26 -0.00970858 0
-1.14252e-26 -0.00970858 0
-9.4556e-27 -0.00970858 0
-5.54201e-27 -0.00970858 0
7.25506e-27 -0.00970858 0
-5.15761e-28 -0.00970858 0
-5.94026e-27 -0.00970858 0
-1.52518e-26 -0.00970858 0
-1.73851e-26 -0.00970858 0
-2.01267e-26 -0.00970858 0
2.05734e-26 -0.00970858 0
3.46168e-27 -0.00970858 0
-1.14133e-26 -0.00970858 0
-7.36687e-27 -0.00970858 0
-1.68096e-26 -0.00970858 0
9.84021e-27 -0.00970858 0
-1.31909e-26 -0.00970858 0
1.69246e-26 -0.00970858 0
1.17014e-27 -0.00970858 0
-1.75414e-26 -0.00970858 0
-2.04238e-26 -0.00970858 0
-3.17213e-27 -0.00970858 0
1.54217e-27 -0.00970858 0
3.58994e-27 -0.00970858 0
1.89453e-26 -0.00970858 0
SCALARS radius double 1
LOOKUP_TABLE default
0.0005192
0.000759374
0.000731582
0.000932767
0.000864852
0.00092132
0.000824734
0.000662097
0.000535446
0.00094621
0.000999249
0.000802661
0.000671708
0.000819153
0.000645007
0.000827505
0.000602392
0.000772815
0.000550095
0.000626194
0.000886859
0.000531918
0.000790192
0.000909137
0.00096445
SCALARS mass double 1
LOOKUP_TABLE default
0.00228657
0.0048913
0.00453983
0.00738005
0.00634449
0.00720004
0.00576955
0.0037184
0.0024319
0.00759432
0.00846957
0.00546484
0.00382714
0.00569173
0.00352892
0.00580838
0.00307803
0.005066
0.00256678
0.00332607
0.00667148
0.00239995
0.00529637
0.00701087
0.00788992
