# vtk DataFile Version 3.0
DEM2D particles
ASCII
DATASET POLYDATA
POINTS 25 double
0.000210492 7.39601e-05 0
0.00247694 -0.000325329 0
0.00456711 0.000321998 0
0.00674628 0.000203284 0
0.00933215 0.00112041 0
0.000976388 0.00327459 0
0.00272805 0.00295903 0
0.00430175 0.00249022 0
0.00620408 0.00191291 0
0.00807857 0.00235887 0
0.00194188 0.00421155 0
0.00315848 0.00393062 0
0.00447748 0.00443482 0
0.00666273 0.00550738 0
0.00823043 0.0049599 0
0.0014505 0.00613022 0
0.0023961 0.00724359 0
0.00577483 0.00626867 0
0.00705357 0.00683028 0
0.00819693 0.00653599 0
6.49651e-05 0.00817719 0
0.00285477 0.00953719 0
0.0050706 0.00846998 0
0.00716435 0.00906499 0
0.00986735 0.0086139 0
VERTICES 25 50
1 0
1 1
1 2
1 3
1 4
1 5
1 6
1 7
1 8
1 9
1 10
1 11
1 12
1 13
1 14
1 15
1 16
1 17
1 18
1 19
1 20
1 21
1 22
1 23
1 24
POINT_DATA 25
VECTORS velocity double
-6.07958e-20 -0.00970858 0
-4.02783e-20 -0.00970858 0
-3.33348e-20 -0.00970858 0
-1.95378e-20 -0.00970858 0
2.5577e-20 -0.00970858 0
-1.81826e-21 -0.00970858 0
-2.09418e-20 -0.00970858 0
-5.37686e-20 -0.00970858 0
-6.12893e-20 -0.00970858 0
-7.09547e-20 -0.00970858 0
7.25294e-20 -0.00970858 0
1.22038e-20 -0.00970858 0
-4.02364e-20 -0.00970858 0
-2.59711e-20 -0.00970858 0
-5.92605e-20 -0.00970858 0
3.46906e-20 -0.00970858 0
-4.65031e-20 -0.00970858 0
5.96658e-20 -0.00970858 0
4.12522e-21 -0.00970858 0
-6.18403e-20 -0.00970858 0
-7.20021e-20 -0.00970858 0
-1.1183e-20 -0.00970858 0
5.43677e-21 -0.00970858 0
1.2656e-20 -0.00970858 0
6.67898e-20 -0.00970858 0
SCALARS radius double 1
LOOKUP_TABLE default
0.0005192
0.000759374
0.000731582
0.000932767
0.000864852
0.00092132
0.000824734
0.000662097
0.000535446
0.00094621
0.000999249
0.000802661
0.000671708
0.000819153
0.000645007
0.000827505
0.000602392
0.000772815
0.000550095
0.000626194
0.000886859
0.000531918
0.000790192
0.000909137
0.00096445
SCALARS mass double 1
LOOKUP_TABLE default
0.00228657
0.0048913
0.00453983
0.00738005
0.00634449
0.00720004
0.00576955
0.0037184
0.0024319
0.00759432
0.00846957
0.00546484
0.00382714
0.00569173
0.00352892
0.00580838
0.00307803
0.005066
0.00256678
0.00332607
0.00667148
0.00239995
0.00529637
0.00701087
0.00788992
