# vtk DataFile Version 3.0
DEM2D particles
ASCII
DATASET POLYDATA
POINTS 25 double
0.000210492 -0.00135514 0
0.00247694 -0.00175443 0
0.00456711 -0.00110711 0
0.00674628 -0.00122582 0
0.00933215 -0.000308693 0
0.000976388 0.00184548 0
0.00272805 0.00152993 0
0.00430175 0.00106112 0
0.00620408 0.000483802 0
0.00807857 0.000929764 0
0.00194188 0.00278244 0
0.00315848 0.00250152 0
0.00447748 0.00300572 0
0.00666273 0.00407827 0
0.00823043 0.00353079 0
0.0014505 0.00470112 0
0.0023961 0.00581449 0
0.00577483 0.00483956 0
0.00705357 0.00540118 0
0.00819693 0.00510689 0
6.49651e-05 0.00674808 0
0.00285477 0.00810809 0
0.0050706 0.00704087 0
0.00716435 0.00763589 0
0.00986735 0.0071848 0
VERTICES 25 50
1 0
1 1
1 2
1 3
1 4
1 5
1 6
1 7
1 8
1 9
1 10
1 11
1 12
1 13
1 14
1 15
1 16
1 17
1 18
1 19
1 20
1 21
1 22
1 23
1 24
POINT_DATA 25
VECTORS velocity double
-3.41931e-84 -0.00970858 0
-2.26535e-84 -0.00970858 0
-1.87483e-84 -0.00970858 0
-1.09885e-84 -0.00970858 0
1.43851e-84 -0.00970858 0
-1.02264e-85 -0.00970858 0
-1.17782e-84 -0.00970858 0
-3.02408e-84 -0.00970858 0
-3.44706e-84 -0.00970858 0
-3.99067e-84 -0.00970858 0
4.07923e-84 -0.00970858 0
6.86371e-85 -0.00970858 0
-2.263e-84 -0.00970858 0
-1.46068e-84 -0.00970858 0
-3.33296e-84 -0.00970858 0
1.95109e-84 -0.00970858 0
-2.61545e-84 -0.00970858 0
3.35575e-84 -0.00970858 0
2.32013e-85 -0.00970858 0
-3.47805e-84 -0.00970858 0
-4.04958e-84 -0.00970858 0
-6.28962e-85 -0.00970858 0
3.05777e-85 -0.00970858 0
7.11804e-85 -0.00970858 0
3.75643e-84 -0.00970858 0
SCALARS radius double 1
LOOKUP_TABLE default
0.0005192
0.000759374
0.000731582
0.000932767
0.000864852
0.00092132
0.000824734
0.000662097
0.000535446
0.00094621
0.000999249
0.000802661
0.000671708
0.000819153
0.000645007
0.000827505
0.000602392
0.000772815
0.000550095
0.000626194
0.000886859
0.000531918
0.000790192
0.000909137
0.00096445
SCALARS mass double 1
LOOKUP_TABLE default
0.00228657
0.0048913
0.00453983
0.00738005
0.00634449
0.00720004
0.00576955
0.0037184
0.0024319
0.00759432
0.00846957
0.00546484
0.00382714
0.00569173
0.00352892
0.00580838
0.00307803
0.005066
0.00256678
0.00332607
0.00667148
0.00239995
0.00529637
0.00701087
0.00788992
