# vtk DataFile Version 3.0
DEM2D particles
ASCII
DATASET POLYDATA
POINTS 25 double
0.000210502 0.000390466 0
0.00247694 -8.81767e-06 0
0.00456711 0.000638501 0
0.00674628 0.000519788 0
0.00933214 0.0014369 0
0.000976388 0.00359108 0
0.00272805 0.00327553 0
0.00430176 0.00280672 0
0.00620409 0.00222941 0
0.00807858 0.00267537 0
0.00194187 0.00452805 0
0.00315848 0.00424713 0
0.00447749 0.00475133 0
0.00666274 0.00582386 0
0.00823044 0.00527639 0
0.00145049 0.00644673 0
0.00239611 0.00756008 0
0.00577482 0.00658517 0
0.00705357 0.00714678 0
0.00819694 0.0068525 0
6.49772e-05 0.00849369 0
0.00285478 0.00985368 0
0.0050706 0.00878648 0
0.00716435 0.00938149 0
0.00986734 0.0089304 0
VERTICES 25 50
1 0
1 1
1 2
1 3
1 4
1 5
1 6
1 7
1 8
1 9
1 10
1 11
1 12
1 13
1 14
1 15
1 16
1 17
1 18
1 19
1 20
1 21
1 22
1 23
1 24
POINT_DATA 25
VECTORS velocity double
-1.03072e-05 -0.00971512 0
-6.82869e-06 -0.00972033 0
-5.65149e-06 -0.00971188 0
-3.31239e-06 -0.00971343 0
4.33625e-06 -0.00970146 0
-3.08264e-07 -0.00969945 0
-3.55042e-06 -0.00970357 0
-9.1158e-06 -0.00970969 0
-1.03908e-05 -0.00971722 0
-1.20295e-05 -0.0097114 0
1.22964e-05 -0.00971333 0
2.069e-06 -0.00971699 0
-6.82158e-06 -0.00971041 0
-4.40308e-06 -0.00969641 0
-1.00469e-05 -0.00970356 0
5.88136e-06 -0.00971439 0
-7.88401e-06 -0.00969985 0
1.01156e-05 -0.00971258 0
6.9938e-07 -0.00970525 0
-1.04843e-05 -0.00970909 0
-1.2207e-05 -0.00971377 0
-1.89594e-06 -0.00969602 0
9.21736e-07 -0.00970995 0
2.14566e-06 -0.00970218 0
1.13234e-05 -0.00970807 0
SCALARS radius double 1
LOOKUP_TABLE default
0.0005192
0.000759374
0.000731582
0.000932767
0.000864852
0.00092132
0.000824734
0.000662097
0.000535446
0.00094621
0.000999249
0.000802661
0.000671708
0.000819153
0.000645007
0.000827505
0.000602392
0.000772815
0.000550095
0.000626194
0.000886859
0.000531918
0.000790192
0.000909137
0.00096445
SCALARS mass double 1
LOOKUP_TABLE default
0.00228657
0.0048913
0.00453983
0.00738005
0.00634449
0.00720004
0.00576955
0.0037184
0.0024319
0.00759432
0.00846957
0.00546484
0.00382714
0.00569173
0.00352892
0.00580838
0.00307803
0.005066
0.00256678
0.00332607
0.00667148
0.00239995
0.00529637
0.00701087
0.00788992
