# vtk DataFile Version 3.0
DEM2D particles
ASCII
DATASET POLYDATA
POINTS 25 double
0.000212813 0.000444359 0
0.00247847 4.62437e-05 0
0.00456838 0.000691667 0
0.00674702 0.000573302 0
0.00933117 0.00148773 0
0.000976457 0.00364145 0
0.00272884 0.00332683 0
0.0043038 0.0028594 0
0.00620642 0.00228378 0
0.00808128 0.00272843 0
0.00193911 0.00458154 0
0.00315802 0.00430144 0
0.00447902 0.00480416 0
0.00666372 0.00587356 0
0.00823269 0.00532769 0
0.00144918 0.00650045 0
0.00239788 0.00761055 0
0.00577256 0.00663849 0
0.00705341 0.00719846 0
0.00819929 0.00690503 0
6.77145e-05 0.00854728 0
0.0028552 0.00990329 0
0.0050704 0.00883921 0
0.00716387 0.00943248 0
0.0098648 0.00898271 0
VERTICES 25 50
1 0
1 1
1 2
1 3
1 4
1 5
1 6
1 7
1 8
1 9
1 10
1 11
1 12
1 13
1 14
1 15
1 16
1 17
1 18
1 19
1 20
1 21
1 22
1 23
1 24
POINT_DATA 25
VECTORS velocity double
-0.00234495 -0.011196 0
-0.00155357 -0.012382 0
-0.00128575 -0.0104593 0
-0.000753592 -0.0108119 0
0.000986529 -0.00808793 0
-7.01322e-05 -0.00763001 0
-0.000807745 -0.00856725 0
-0.00207391 -0.00995969 0
-0.00236399 -0.0116744 0
-0.00273679 -0.0103498 0
0.00279753 -0.0107874 0
0.000470712 -0.0116218 0
-0.00155196 -0.0101242 0
-0.00100173 -0.00693859 0
-0.00228574 -0.00856468 0
0.00133805 -0.0110289 0
-0.00179367 -0.00772208 0
0.00230137 -0.0106177 0
0.000159114 -0.00894966 0
-0.00238524 -0.00982373 0
-0.00277719 -0.0108895 0
-0.00043134 -0.00685004 0
0.000209702 -0.0100198 0
0.000488153 -0.00825254 0
0.00257615 -0.00959234 0
SCALARS radius double 1
LOOKUP_TABLE default
0.0005192
0.000759374
0.000731582
0.000932767
0.000864852
0.00092132
0.000824734
0.000662097
0.000535446
0.00094621
0.000999249
0.000802661
0.000671708
0.000819153
0.000645007
0.000827505
0.000602392
0.000772815
0.000550095
0.000626194
0.000886859
0.000531918
0.000790192
0.000909137
0.00096445
SCALARS mass double 1
LOOKUP_TABLE default
0.00228657
0.0048913
0.00453983
0.00738005
0.00634449
0.00720004
0.00576955
0.0037184
0.0024319
0.00759432
0.00846957
0.00546484
0.00382714
0.00569173
0.00352892
0.00580838
0.00307803
0.005066
0.00256678
0.00332607
0.00667148
0.00239995
0.00529637
0.00701087
0.00788992
