# vtk DataFile Version 3.0
DEM2D particles
ASCII
DATASET POLYDATA
POINTS 25 double
0.000210498 0.000386581 0
0.00247694 -1.2705e-05 0
0.00456711 0.000634617 0
0.00674628 0.000515903 0
0.00933215 0.00143302 0
0.000976388 0.0035872 0
0.00272805 0.00327165 0
0.00430175 0.00280284 0
0.00620409 0.00222553 0
0.00807857 0.00267149 0
0.00194187 0.00452417 0
0.00315848 0.00424324 0
0.00447749 0.00474744 0
0.00666274 0.00581998 0
0.00823044 0.00527251 0
0.0014505 0.00644284 0
0.00239611 0.0075562 0
0.00577483 0.00658129 0
0.00705357 0.0071429 0
0.00819693 0.00684861 0
6.49732e-05 0.0084898 0
0.00285478 0.0098498 0
0.0050706 0.0087826 0
0.00716435 0.0093776 0
0.00986734 0.00892652 0
VERTICES 25 50
1 0
1 1
1 2
1 3
1 4
1 5
1 6
1 7
1 8
1 9
1 10
1 11
1 12
1 13
1 14
1 15
1 16
1 17
1 18
1 19
1 20
1 21
1 22
1 23
1 24
POINT_DATA 25
VECTORS velocity double
-6.89521e-06 -0.00971296 0
-4.5682e-06 -0.00971644 0
-3.78069e-06 -0.00971079 0
-2.21589e-06 -0.00971183 0
2.90083e-06 -0.00970382 0
-2.0622e-07 -0.00970247 0
-2.37513e-06 -0.00970523 0
-6.09821e-06 -0.00970932 0
-6.95117e-06 -0.00971436 0
-8.04738e-06 -0.00971047 0
8.22597e-06 -0.00971176 0
1.3841e-06 -0.00971421 0
-4.56344e-06 -0.00970981 0
-2.94554e-06 -0.00970044 0
-6.72108e-06 -0.00970522 0
3.93447e-06 -0.00971247 0
-5.27418e-06 -0.00970274 0
6.76704e-06 -0.00971126 0
4.67865e-07 -0.00970635 0
-7.01367e-06 -0.00970892 0
-8.16617e-06 -0.00971206 0
-1.26833e-06 -0.00970018 0
6.16615e-07 -0.0097095 0
1.43539e-06 -0.0097043 0
7.57502e-06 -0.00970824 0
SCALARS radius double 1
LOOKUP_TABLE default
0.0005192
0.000759374
0.000731582
0.000932767
0.000864852
0.00092132
0.000824734
0.000662097
0.000535446
0.00094621
0.000999249
0.000802661
0.000671708
0.000819153
0.000645007
0.000827505
0.000602392
0.000772815
0.000550095
0.000626194
0.000886859
0.000531918
0.000790192
0.000909137
0.00096445
SCALARS mass double 1
LOOKUP_TABLE default
0.00228657
0.0048913
0.00453983
0.00738005
0.00634449
0.00720004
0.00576955
0.0037184
0.0024319
0.00759432
0.00846957
0.00546484
0.00382714
0.00569173
0.00352892
0.00580838
0.00307803
0.005066
0.00256678
0.00332607
0.00667148
0.00239995
0.00529637
0.00701087
0.00788992
