# vtk DataFile Version 3.0
DEM2D particles
ASCII
DATASET POLYDATA
POINTS 25 double
0.000210492 -0.00103864 0
0.00247694 -0.00143793 0
0.00456711 -0.000790606 0
0.00674628 -0.00090932 0
0.00933215 7.80662e-06 0
0.000976388 0.00216198 0
0.00272805 0.00184643 0
0.00430175 0.00137762 0
0.00620408 0.000800302 0
0.00807857 0.00124626 0
0.00194188 0.00309894 0
0.00315848 0.00281802 0
0.00447748 0.00332222 0
0.00666273 0.00439477 0
0.00823043 0.00384729 0
0.0014505 0.00501762 0
0.0023961 0.00613099 0
0.00577483 0.00515606 0
0.00705357 0.00571768 0
0.00819693 0.00542339 0
6.49651e-05 0.00706458 0
0.00285477 0.00842459 0
0.0050706 0.00735737 0
0.00716435 0.00795239 0
0.00986735 0.0075013 0
VERTICES 25 50
1 0
1 1
1 2
1 3
1 4
1 5
1 6
1 7
1 8
1 9
1 10
1 11
1 12
1 13
1 14
1 15
1 16
1 17
1 18
1 19
1 20
1 21
1 22
1 23
1 24
POINT_DATA 25
VECTORS velocity double
-5.79701e-70 -0.00970858 0
-3.84062e-70 -0.00970858 0
-3.17854e-70 -0.00970858 0
-1.86297e-70 -0.00970858 0
2.43882e-70 -0.00970858 0
-1.73375e-71 -0.00970858 0
-1.99684e-70 -0.00970858 0
-5.12695e-70 -0.00970858 0
-5.84406e-70 -0.00970858 0
-6.76568e-70 -0.00970858 0
6.91582e-70 -0.00970858 0
1.16366e-70 -0.00970858 0
-3.83662e-70 -0.00970858 0
-2.4764e-70 -0.00970858 0
-5.65061e-70 -0.00970858 0
3.30782e-70 -0.00970858 0
-4.43416e-70 -0.00970858 0
5.68926e-70 -0.00970858 0
3.93348e-71 -0.00970858 0
-5.8966e-70 -0.00970858 0
-6.86555e-70 -0.00970858 0
-1.06633e-70 -0.00970858 0
5.18407e-71 -0.00970858 0
1.20677e-70 -0.00970858 0
6.36855e-70 -0.00970858 0
SCALARS radius double 1
LOOKUP_TABLE default
0.0005192
0.000759374
0.000731582
0.000932767
0.000864852
0.00092132
0.000824734
0.000662097
0.000535446
0.00094621
0.000999249
0.000802661
0.000671708
0.000819153
0.000645007
0.000827505
0.000602392
0.000772815
0.000550095
0.000626194
0.000886859
0.000531918
0.000790192
0.000909137
0.00096445
SCALARS mass double 1
LOOKUP_TABLE default
0.00228657
0.0048913
0.00453983
0.00738005
0.00634449
0.00720004
0.00576955
0.0037184
0.0024319
0.00759432
0.00846957
0.00546484
0.00382714
0.00569173
0.00352892
0.00580838
0.00307803
0.005066
0.00256678
0.00332607
0.00667148
0.00239995
0.00529637
0.00701087
0.00788992
