# vtk DataFile Version 3.0
DEM2D particles
ASCII
DATASET POLYDATA
POINTS 25 double
0.000210492 -0.0011299 0
0.00247694 -0.00152919 0
0.00456711 -0.000881866 0
0.00674628 -0.00100058 0
0.00933215 -8.34541e-05 0
0.000976388 0.00207072 0
0.00272805 0.00175517 0
0.00430175 0.00128636 0
0.00620408 0.000709041 0
0.00807857 0.001155 0
0.00194188 0.00300768 0
0.00315848 0.00272676 0
0.00447748 0.00323096 0
0.00666273 0.00430351 0
0.00823043 0.00375603 0
0.0014505 0.00492636 0
0.0023961 0.00603972 0
0.00577483 0.0050648 0
0.00705357 0.00562642 0
0.00819693 0.00533213 0
6.49651e-05 0.00697332 0
0.00285477 0.00833333 0
0.0050706 0.00726611 0
0.00716435 0.00786113 0
0.00986735 0.00741004 0
VERTICES 25 50
1 0
1 1
1 2
1 3
1 4
1 5
1 6
1 7
1 8
1 9
1 10
1 11
1 12
1 13
1 14
1 15
1 16
1 17
1 18
1 19
1 20
1 21
1 22
1 23
1 24
POINT_DATA 25
VECTORS velocity double
-4.5739e-74 -0.00970858 0
-3.03029e-74 -0.00970858 0
-2.5079e-74 -0.00970858 0
-1.4699e-74 -0.00970858 0
1.92425e-74 -0.00970858 0
-1.36795e-75 -0.00970858 0
-1.57553e-74 -0.00970858 0
-4.04522e-74 -0.00970858 0
-4.61102e-74 -0.00970858 0
-5.33819e-74 -0.00970858 0
5.45666e-74 -0.00970858 0
9.18137e-75 -0.00970858 0
-3.02714e-74 -0.00970858 0
-1.95391e-74 -0.00970858 0
-4.45839e-74 -0.00970858 0
2.60991e-74 -0.00970858 0
-3.4986e-74 -0.00970858 0
4.48889e-74 -0.00970858 0
3.10356e-75 -0.00970858 0
-4.65248e-74 -0.00970858 0
-5.41699e-74 -0.00970858 0
-8.41342e-75 -0.00970858 0
4.09029e-75 -0.00970858 0
9.52158e-75 -0.00970858 0
5.02485e-74 -0.00970858 0
SCALARS radius double 1
LOOKUP_TABLE default
0.0005192
0.000759374
0.000731582
0.000932767
0.000864852
0.00092132
0.000824734
0.000662097
0.000535446
0.00094621
0.000999249
0.000802661
0.000671708
0.000819153
0.000645007
0.000827505
0.000602392
0.000772815
0.000550095
0.000626194
0.000886859
0.000531918
0.000790192
0.000909137
0.00096445
SCALARS mass double 1
LOOKUP_TABLE default
0.00228657
0.0048913
0.00453983
0.00738005
0.00634449
0.00720004
0.00576955
0.0037184
0.0024319
0.00759432
0.00846957
0.00546484
0.00382714
0.00569173
0.00352892
0.00580838
0.00307803
0.005066
0.00256678
0.00332607
0.00667148
0.00239995
0.00529637
0.00701087
0.00788992
