# vtk DataFile Version 3.0
DEM2D particles
ASCII
DATASET POLYDATA
POINTS 25 double
0.000210492 9.33772e-05 0
0.00247694 -0.000305912 0
0.00456711 0.000341415 0
0.00674628 0.000222701 0
0.00933215 0.00113983 0
0.000976388 0.003294 0
0.00272805 0.00297845 0
0.00430175 0.00250964 0
0.00620408 0.00193232 0
0.00807857 0.00237828 0
0.00194188 0.00423096 0
0.00315848 0.00395004 0
0.00447748 0.00445424 0
0.00666273 0.00552679 0
0.00823043 0.00497931 0
0.0014505 0.00614964 0
0.0023961 0.00726301 0
0.00577483 0.00628809 0
0.00705357 0.0068497 0
0.00819693 0.00655541 0
6.49651e-05 0.0081966 0
0.00285477 0.00955661 0
0.0050706 0.0084894 0
0.00716435 0.00908441 0
0.00986735 0.00863332 0
VERTICES 25 50
1 0
1 1
1 2
1 3
1 4
1 5
1 6
1 7
1 8
1 9
1 10
1 11
1 12
1 13
1 14
1 15
1 16
1 17
1 18
1 19
1 20
1 21
1 22
1 23
1 24
POINT_DATA 25
VECTORS velocity double
-4.53769e-19 -0.00970858 0
-3.0063e-19 -0.00970858 0
-2.48805e-19 -0.00970858 0
-1.45827e-19 -0.00970858 0
1.90902e-19 -0.00970858 0
-1.35712e-20 -0.00970858 0
-1.56306e-19 -0.00970858 0
-4.01319e-19 -0.00970858 0
-4.57452e-19 -0.00970858 0
-5.29593e-19 -0.00970858 0
5.41346e-19 -0.00970858 0
9.10868e-20 -0.00970858 0
-3.00317e-19 -0.00970858 0
-1.93844e-19 -0.00970858 0
-4.4231e-19 -0.00970858 0
2.58925e-19 -0.00970858 0
-3.4709e-19 -0.00970858 0
4.45335e-19 -0.00970858 0
3.07899e-20 -0.00970858 0
-4.61565e-19 -0.00970858 0
-5.3741e-19 -0.00970858 0
-8.34681e-20 -0.00970858 0
4.05791e-20 -0.00970858 0
9.4462e-20 -0.00970858 0
4.98507e-19 -0.00970858 0
SCALARS radius double 1
LOOKUP_TABLE default
0.0005192
0.000759374
0.000731582
0.000932767
0.000864852
0.00092132
0.000824734
0.000662097
0.000535446
0.00094621
0.000999249
0.000802661
0.000671708
0.000819153
0.000645007
0.000827505
0.000602392
0.000772815
0.000550095
0.000626194
0.000886859
0.000531918
0.000790192
0.000909137
0.00096445
SCALARS mass double 1
LOOKUP_TABLE default
0.00228657
0.0048913
0.00453983
0.00738005
0.00634449
0.00720004
0.00576955
0.0037184
0.0024319
0.00759432
0.00846957
0.00546484
0.00382714
0.00569173
0.00352892
0.00580838
0.00307803
0.005066
0.00256678
0.00332607
0.00667148
0.00239995
0.00529637
0.00701087
0.00788992
