# vtk DataFile Version 3.0
DEM2D particles
ASCII
DATASET POLYDATA
POINTS 25 double
0.000210492 0.000326383 0
0.00247694 -7.29059e-05 0
0.00456711 0.000574421 0
0.00674628 0.000455707 0
0.00933215 0.00137283 0
0.000976388 0.00352701 0
0.00272805 0.00321146 0
0.00430175 0.00274264 0
0.00620408 0.00216533 0
0.00807857 0.00261129 0
0.00194188 0.00446397 0
0.00315848 0.00418304 0
0.00447748 0.00468725 0
0.00666273 0.0057598 0
0.00823043 0.00521232 0
0.0014505 0.00638264 0
0.0023961 0.00749601 0
0.00577483 0.00652109 0
0.00705357 0.0070827 0
0.00819693 0.00678842 0
6.49651e-05 0.00842961 0
0.00285477 0.00978961 0
0.0050706 0.0087224 0
0.00716435 0.00931741 0
0.00986735 0.00886632 0
VERTICES 25 50
1 0
1 1
1 2
1 3
1 4
1 5
1 6
1 7
1 8
1 9
1 10
1 11
1 12
1 13
1 14
1 15
1 16
1 17
1 18
1 19
1 20
1 21
1 22
1 23
1 24
POINT_DATA 25
VECTORS velocity double
-1.35634e-08 -0.00970859 0
-8.98599e-09 -0.0097086 0
-7.43689e-09 -0.00970859 0
-4.35883e-09 -0.00970859 0
5.70615e-09 -0.00970857 0
-4.05649e-10 -0.00970857 0
-4.67205e-09 -0.00970858 0
-1.19956e-08 -0.00970858 0
-1.36735e-08 -0.00970859 0
-1.58298e-08 -0.00970859 0
1.61811e-08 -0.00970859 0
2.72263e-09 -0.00970859 0
-8.97663e-09 -0.00970859 0
-5.79409e-09 -0.00970857 0
-1.32209e-08 -0.00970858 0
7.73939e-09 -0.00970859 0
-1.03747e-08 -0.00970857 0
1.33113e-08 -0.00970859 0
9.20325e-10 -0.00970858 0
-1.37964e-08 -0.00970858 0
-1.60635e-08 -0.00970859 0
-2.4949e-09 -0.00970857 0
1.21293e-09 -0.00970859 0
2.82351e-09 -0.00970858 0
1.49006e-08 -0.00970858 0
SCALARS radius double 1
LOOKUP_TABLE default
0.0005192
0.000759374
0.000731582
0.000932767
0.000864852
0.00092132
0.000824734
0.000662097
0.000535446
0.00094621
0.000999249
0.000802661
0.000671708
0.000819153
0.000645007
0.000827505
0.000602392
0.000772815
0.000550095
0.000626194
0.000886859
0.000531918
0.000790192
0.000909137
0.00096445
SCALARS mass double 1
LOOKUP_TABLE default
0.00228657
0.0048913
0.00453983
0.00738005
0.00634449
0.00720004
0.00576955
0.0037184
0.0024319
0.00759432
0.00846957
0.00546484
0.00382714
0.00569173
0.00352892
0.00580838
0.00307803
0.005066
0.00256678
0.00332607
0.00667148
0.00239995
0.00529637
0.00701087
0.00788992
