# vtk DataFile Version 3.0
DEM2D particles
ASCII
DATASET POLYDATA
POINTS 25 double
0.000210492 -6.39018e-05 0
0.00247694 -0.000463191 0
0.00456711 0.000184136 0
0.00674628 6.5422e-05 0
0.00933215 0.000982548 0
0.000976388 0.00313672 0
0.00272805 0.00282117 0
0.00430175 0.00235236 0
0.00620408 0.00177504 0
0.00807857 0.00222101 0
0.00194188 0.00407368 0
0.00315848 0.00379276 0
0.00447748 0.00429696 0
0.00666273 0.00536951 0
0.00823043 0.00482203 0
0.0014505 0.00599236 0
0.0023961 0.00710573 0
0.00577483 0.00613081 0
0.00705357 0.00669242 0
0.00819693 0.00639813 0
6.49651e-05 0.00803932 0
0.00285477 0.00939933 0
0.0050706 0.00833212 0
0.00716435 0.00892713 0
0.00986735 0.00847604 0
VERTICES 25 50
1 0
1 1
1 2
1 3
1 4
1 5
1 6
1 7
1 8
1 9
1 10
1 11
1 12
1 13
1 14
1 15
1 16
1 17
1 18
1 19
1 20
1 21
1 22
1 23
1 24
POINT_DATA 25
VECTORS velocity double
-3.85345e-26 -0.00970858 0
-2.55298e-26 -0.00970858 0
-2.11287e-26 -0.00970858 0
-1.23837e-26 -0.00970858 0
1.62116e-26 -0.00970858 0
-1.15248e-27 -0.00970858 0
-1.32736e-26 -0.00970858 0
-3.40805e-26 -0.00970858 0
-3.88473e-26 -0.00970858 0
-4.49736e-26 -0.00970858 0
4.59717e-26 -0.00970858 0
7.73519e-27 -0.00970858 0
-2.55032e-26 -0.00970858 0
-1.64614e-26 -0.00970858 0
-3.75614e-26 -0.00970858 0
2.19882e-26 -0.00970858 0
-2.94753e-26 -0.00970858 0
3.78183e-26 -0.00970858 0
2.61471e-27 -0.00970858 0
-3.91966e-26 -0.00970858 0
-4.56374e-26 -0.00970858 0
-7.0882e-27 -0.00970858 0
3.44602e-27 -0.00970858 0
8.02181e-27 -0.00970858 0
4.23338e-26 -0.00970858 0
SCALARS radius double 1
LOOKUP_TABLE default
0.0005192
0.000759374
0.000731582
0.000932767
0.000864852
0.00092132
0.000824734
0.000662097
0.000535446
0.00094621
0.000999249
0.000802661
0.000671708
0.000819153
0.000645007
0.000827505
0.000602392
0.000772815
0.000550095
0.000626194
0.000886859
0.000531918
0.000790192
0.000909137
0.00096445
SCALARS mass double 1
LOOKUP_TABLE default
0.00228657
0.0048913
0.00453983
0.00738005
0.00634449
0.00720004
0.00576955
0.0037184
0.0024319
0.00759432
0.00846957
0.00546484
0.00382714
0.00569173
0.00352892
0.00580838
0.00307803
0.005066
0.00256678
0.00332607
0.00667148
0.00239995
0.00529637
0.00701087
0.00788992
