# vtk DataFile Version 3.0
DEM2D particles
ASCII
DATASET POLYDATA
POINTS 25 double
0.000210492 -0.000126037 0
0.00247694 -0.000525326 0
0.00456711 0.000122001 0
0.00674628 3.28705e-06 0
0.00933215 0.000920413 0
0.000976388 0.00307459 0
0.00272805 0.00275904 0
0.00430175 0.00229022 0
0.00620408 0.00171291 0
0.00807857 0.00215887 0
0.00194188 0.00401155 0
0.00315848 0.00373062 0
0.00447748 0.00423483 0
0.00666273 0.00530738 0
0.00823043 0.0047599 0
0.0014505 0.00593022 0
0.0023961 0.00704359 0
0.00577483 0.00606867 0
0.00705357 0.00663028 0
0.00819693 0.006336 0
6.49651e-05 0.00797719 0
0.00285477 0.00933719 0
0.0050706 0.00826998 0
0.00716435 0.00886499 0
0.00986735 0.0084139 0
VERTICES 25 50
1 0
1 1
1 2
1 3
1 4
1 5
1 6
1 7
1 8
1 9
1 10
1 11
1 12
1 13
1 14
1 15
1 16
1 17
1 18
1 19
1 20
1 21
1 22
1 23
1 24
POINT_DATA 25
VECTORS velocity double
-6.19976e-29 -0.00970858 0
-4.10745e-29 -0.00970858 0
-3.39937e-29 -0.00970858 0
-1.9924e-29 -0.00970858 0
2.60825e-29 -0.00970858 0
-1.8542e-30 -0.00970858 0
-2.13557e-29 -0.00970858 0
-5.48315e-29 -0.00970858 0
-6.25008e-29 -0.00970858 0
-7.23572e-29 -0.00970858 0
7.3963e-29 -0.00970858 0
1.2445e-29 -0.00970858 0
-4.10318e-29 -0.00970858 0
-2.64845e-29 -0.00970858 0
-6.04319e-29 -0.00970858 0
3.53764e-29 -0.00970858 0
-4.74223e-29 -0.00970858 0
6.08452e-29 -0.00970858 0
4.20676e-30 -0.00970858 0
-6.30627e-29 -0.00970858 0
-7.34253e-29 -0.00970858 0
-1.14041e-29 -0.00970858 0
5.54424e-30 -0.00970858 0
1.29062e-29 -0.00970858 0
6.81101e-29 -0.00970858 0
SCALARS radius double 1
LOOKUP_TABLE default
0.0005192
0.000759374
0.000731582
0.000932767
0.000864852
0.00092132
0.000824734
0.000662097
0.000535446
0.00094621
0.000999249
0.000802661
0.000671708
0.000819153
0.000645007
0.000827505
0.000602392
0.000772815
0.000550095
0.000626194
0.000886859
0.000531918
0.000790192
0.000909137
0.00096445
SCALARS mass double 1
LOOKUP_TABLE default
0.00228657
0.0048913
0.00453983
0.00738005
0.00634449
0.00720004
0.00576955
0.0037184
0.0024319
0.00759432
0.00846957
0.00546484
0.00382714
0.00569173
0.00352892
0.00580838
0.00307803
0.005066
0.00256678
0.00332607
0.00667148
0.00239995
0.00529637
0.00701087
0.00788992
