# vtk DataFile Version 3.0
DEM2D particles
ASCII
DATASET POLYDATA
POINTS 25 double
0.000210492 0.000163279 0
0.00247694 -0.00023601 0
0.00456711 0.000411317 0
0.00674628 0.000292603 0
0.00933215 0.00120973 0
0.000976388 0.0033639 0
0.00272805 0.00304835 0
0.00430175 0.00257954 0
0.00620408 0.00200222 0
0.00807857 0.00244819 0
0.00194188 0.00430087 0
0.00315848 0.00401994 0
0.00447748 0.00452414 0
0.00666273 0.0055967 0
0.00823043 0.00504922 0
0.0014505 0.00621954 0
0.0023961 0.00733291 0
0.00577483 0.00635799 0
0.00705357 0.0069196 0
0.00819693 0.00662531 0
6.49651e-05 0.0082665 0
0.00285477 0.00962651 0
0.0050706 0.0085593 0
0.00716435 0.00915431 0
0.00986735 0.00870322 0
VERTICES 25 50
1 0
1 1
1 2
1 3
1 4
1 5
1 6
1 7
1 8
1 9
1 10
1 11
1 12
1 13
1 14
1 15
1 16
1 17
1 18
1 19
1 20
1 21
1 22
1 23
1 24
POINT_DATA 25
VECTORS velocity double
-6.30224e-16 -0.00970858 0
-4.17535e-16 -0.00970858 0
-3.45556e-16 -0.00970858 0
-2.02533e-16 -0.00970858 0
2.65137e-16 -0.00970858 0
-1.88485e-17 -0.00970858 0
-2.17087e-16 -0.00970858 0
-5.57378e-16 -0.00970858 0
-6.35339e-16 -0.00970858 0
-7.35533e-16 -0.00970858 0
7.51856e-16 -0.00970858 0
1.26507e-16 -0.00970858 0
-4.171e-16 -0.00970858 0
-2.69223e-16 -0.00970858 0
-6.14308e-16 -0.00970858 0
3.59611e-16 -0.00970858 0
-4.82062e-16 -0.00970858 0
6.1851e-16 -0.00970858 0
4.2763e-17 -0.00970858 0
-6.41051e-16 -0.00970858 0
-7.4639e-16 -0.00970858 0
-1.15926e-16 -0.00970858 0
5.63588e-17 -0.00970858 0
1.31195e-16 -0.00970858 0
6.92359e-16 -0.00970858 0
SCALARS radius double 1
LOOKUP_TABLE default
0.0005192
0.000759374
0.000731582
0.000932767
0.000864852
0.00092132
0.000824734
0.000662097
0.000535446
0.00094621
0.000999249
0.000802661
0.000671708
0.000819153
0.000645007
0.000827505
0.000602392
0.000772815
0.000550095
0.000626194
0.000886859
0.000531918
0.000790192
0.000909137
0.00096445
SCALARS mass double 1
LOOKUP_TABLE default
0.00228657
0.0048913
0.00453983
0.00738005
0.00634449
0.00720004
0.00576955
0.0037184
0.0024319
0.00759432
0.00846957
0.00546484
0.00382714
0.00569173
0.00352892
0.00580838
0.00307803
0.005066
0.00256678
0.00332607
0.00667148
0.00239995
0.00529637
0.00701087
0.00788992
