# vtk DataFile Version 3.0
DEM2D particles
ASCII
DATASET POLYDATA
POINTS 25 double
0.000210492 -0.000157104 0
0.00247694 -0.000556393 0
0.00456711 9.09337e-05 0
0.00674628 -2.77804e-05 0
0.00933215 0.000889346 0
0.000976388 0.00304352 0
0.00272805 0.00272797 0
0.00430175 0.00225916 0
0.00620408 0.00168184 0
0.00807857 0.0021278 0
0.00194188 0.00398048 0
0.00315848 0.00369956 0
0.00447748 0.00420376 0
0.00666273 0.00527631 0
0.00823043 0.00472883 0
0.0014505 0.00589916 0
0.0023961 0.00701252 0
0.00577483 0.0060376 0
0.00705357 0.00659922 0
0.00819693 0.00630493 0
6.49651e-05 0.00794612 0
0.00285477 0.00930613 0
0.0050706 0.00823891 0
0.00716435 0.00883393 0
0.00986735 0.00838284 0
VERTICES 25 50
1 0
1 1
1 2
1 3
1 4
1 5
1 6
1 7
1 8
1 9
1 10
1 11
1 12
1 13
1 14
1 15
1 16
1 17
1 18
1 19
1 20
1 21
1 22
1 23
1 24
POINT_DATA 25
VECTORS velocity double
-2.48678e-30 -0.00970858 0
-1.64754e-30 -0.00970858 0
-1.36352e-30 -0.00970858 0
-7.99169e-31 -0.00970858 0
1.04619e-30 -0.00970858 0
-7.43738e-32 -0.00970858 0
-8.56598e-31 -0.00970858 0
-2.19934e-30 -0.00970858 0
-2.50696e-30 -0.00970858 0
-2.90231e-30 -0.00970858 0
2.96672e-30 -0.00970858 0
4.99181e-31 -0.00970858 0
-1.64582e-30 -0.00970858 0
-1.06232e-30 -0.00970858 0
-2.42398e-30 -0.00970858 0
1.41898e-30 -0.00970858 0
-1.90215e-30 -0.00970858 0
2.44056e-30 -0.00970858 0
1.68737e-31 -0.00970858 0
-2.5295e-30 -0.00970858 0
-2.94515e-30 -0.00970858 0
-4.57428e-31 -0.00970858 0
2.22384e-31 -0.00970858 0
5.17677e-31 -0.00970858 0
2.73196e-30 -0.00970858 0
SCALARS radius double 1
LOOKUP_TABLE default
0.0005192
0.000759374
0.000731582
0.000932767
0.000864852
0.00092132
0.000824734
0.000662097
0.000535446
0.00094621
0.000999249
0.000802661
0.000671708
0.000819153
0.000645007
0.000827505
0.000602392
0.000772815
0.000550095
0.000626194
0.000886859
0.000531918
0.000790192
0.000909137
0.00096445
SCALARS mass double 1
LOOKUP_TABLE default
0.00228657
0.0048913
0.00453983
0.00738005
0.00634449
0.00720004
0.00576955
0.0037184
0.0024319
0.00759432
0.00846957
0.00546484
0.00382714
0.00569173
0.00352892
0.00580838
0.00307803
0.005066
0.00256678
0.00332607
0.00667148
0.00239995
0.00529637
0.00701087
0.00788992
