# vtk DataFile Version 3.0
DEM2D particles
ASCII
DATASET POLYDATA
POINTS 25 double
0.000210492 -0.000312442 0
0.00247694 -0.000711731 0
0.00456711 -6.44036e-05 0
0.00674628 -0.000183118 0
0.00933215 0.000734009 0
0.000976388 0.00288818 0
0.00272805 0.00257263 0
0.00430175 0.00210382 0
0.00620408 0.0015265 0
0.00807857 0.00197247 0
0.00194188 0.00382515 0
0.00315848 0.00354422 0
0.00447748 0.00404842 0
0.00666273 0.00512097 0
0.00823043 0.00457349 0
0.0014505 0.00574382 0
0.0023961 0.00685719 0
0.00577483 0.00588227 0
0.00705357 0.00644388 0
0.00819693 0.00614959 0
6.49651e-05 0.00779078 0
0.00285477 0.00915079 0
0.0050706 0.00808358 0
0.00716435 0.00867859 0
0.00986735 0.0082275 0
VERTICES 25 50
1 0
1 1
1 2
1 3
1 4
1 5
1 6
1 7
1 8
1 9
1 10
1 11
1 12
1 13
1 14
1 15
1 16
1 17
1 18
1 19
1 20
1 21
1 22
1 23
1 24
POINT_DATA 25
VECTORS velocity double
-2.58195e-37 -0.00970858 0
-1.71059e-37 -0.00970858 0
-1.4157e-37 -0.00970858 0
-8.29756e-38 -0.00970858 0
1.08623e-37 -0.00970858 0
-7.72202e-39 -0.00970858 0
-8.89382e-38 -0.00970858 0
-2.28351e-37 -0.00970858 0
-2.60291e-37 -0.00970858 0
-3.01339e-37 -0.00970858 0
3.08027e-37 -0.00970858 0
5.18285e-38 -0.00970858 0
-1.70881e-37 -0.00970858 0
-1.10297e-37 -0.00970858 0
-2.51675e-37 -0.00970858 0
1.47329e-37 -0.00970858 0
-1.97495e-37 -0.00970858 0
2.53396e-37 -0.00970858 0
1.75195e-38 -0.00970858 0
-2.62631e-37 -0.00970858 0
-3.05787e-37 -0.00970858 0
-4.74935e-38 -0.00970858 0
2.30896e-38 -0.00970858 0
5.3749e-38 -0.00970858 0
2.83651e-37 -0.00970858 0
SCALARS radius double 1
LOOKUP_TABLE default
0.0005192
0.000759374
0.000731582
0.000932767
0.000864852
0.00092132
0.000824734
0.000662097
0.000535446
0.00094621
0.000999249
0.000802661
0.000671708
0.000819153
0.000645007
0.000827505
0.000602392
0.000772815
0.000550095
0.000626194
0.000886859
0.000531918
0.000790192
0.000909137
0.00096445
SCALARS mass double 1
LOOKUP_TABLE default
0.00228657
0.0048913
0.00453983
0.00738005
0.00634449
0.00720004
0.00576955
0.0037184
0.0024319
0.00759432
0.00846957
0.00546484
0.00382714
0.00569173
0.00352892
0.00580838
0.00307803
0.005066
0.00256678
0.00332607
0.00667148
0.00239995
0.00529637
0.00701087
0.00788992
