# vtk DataFile Version 3.0
DEM2D particles
ASCII
DATASET POLYDATA
POINTS 25 double
0.000210492 -0.000225064 0
0.00247694 -0.000624353 0
0.00456711 2.29736e-05 0
0.00674628 -9.57405e-05 0
0.00933215 0.000821386 0
0.000976388 0.00297556 0
0.00272805 0.00266001 0
0.00430175 0.0021912 0
0.00620408 0.00161388 0
0.00807857 0.00205984 0
0.00194188 0.00391252 0
0.00315848 0.0036316 0
0.00447748 0.0041358 0
0.00666273 0.00520835 0
0.00823043 0.00466087 0
0.0014505 0.0058312 0
0.0023961 0.00694456 0
0.00577483 0.00596964 0
0.00705357 0.00653126 0
0.00819693 0.00623697 0
6.49651e-05 0.00787816 0
0.00285477 0.00923817 0
0.0050706 0.00817095 0
0.00716435 0.00876597 0
0.00986735 0.00831488 0
VERTICES 25 50
1 0
1 1
1 2
1 3
1 4
1 5
1 6
1 7
1 8
1 9
1 10
1 11
1 12
1 13
1 14
1 15
1 16
1 17
1 18
1 19
1 20
1 21
1 22
1 23
1 24
POINT_DATA 25
VECTORS velocity double
-2.18914e-33 -0.00970858 0
-1.45034e-33 -0.00970858 0
-1.20032e-33 -0.00970858 0
-7.03518e-34 -0.00970858 0
9.20976e-34 -0.00970858 0
-6.54721e-35 -0.00970858 0
-7.54072e-34 -0.00970858 0
-1.9361e-33 -0.00970858 0
-2.20691e-33 -0.00970858 0
-2.55494e-33 -0.00970858 0
2.61164e-33 -0.00970858 0
4.39434e-34 -0.00970858 0
-1.44883e-33 -0.00970858 0
-9.3517e-34 -0.00970858 0
-2.13385e-33 -0.00970858 0
1.24914e-33 -0.00970858 0
-1.67448e-33 -0.00970858 0
2.14845e-33 -0.00970858 0
1.48541e-34 -0.00970858 0
-2.22675e-33 -0.00970858 0
-2.59265e-33 -0.00970858 0
-4.02679e-34 -0.00970858 0
1.95767e-34 -0.00970858 0
4.55717e-34 -0.00970858 0
2.40497e-33 -0.00970858 0
SCALARS radius double 1
LOOKUP_TABLE default
0.0005192
0.000759374
0.000731582
0.000932767
0.000864852
0.00092132
0.000824734
0.000662097
0.000535446
0.00094621
0.000999249
0.000802661
0.000671708
0.000819153
0.000645007
0.000827505
0.000602392
0.000772815
0.000550095
0.000626194
0.000886859
0.000531918
0.000790192
0.000909137
0.00096445
SCALARS mass double 1
LOOKUP_TABLE default
0.00228657
0.0048913
0.00453983
0.00738005
0.00634449
0.00720004
0.00576955
0.0037184
0.0024319
0.00759432
0.00846957
0.00546484
0.00382714
0.00569173
0.00352892
0.00580838
0.00307803
0.005066
0.00256678
0.00332607
0.00667148
0.00239995
0.00529637
0.00701087
0.00788992
