# vtk DataFile Version 3.0
DEM2D particles
ASCII
DATASET POLYDATA
POINTS 25 double
0.000210492 -0.00132213 0
0.00247694 -0.00172142 0
0.00456711 -0.0010741 0
0.00674628 -0.00119281 0
0.00933215 -0.000275684 0
0.000976388 0.00187849 0
0.00272805 0.00156294 0
0.00430175 0.00109413 0
0.00620408 0.000516811 0
0.00807857 0.000962773 0
0.00194188 0.00281545 0
0.00315848 0.00253453 0
0.00447748 0.00303873 0
0.00666273 0.00411128 0
0.00823043 0.0035638 0
0.0014505 0.00473413 0
0.0023961 0.00584749 0
0.00577483 0.00487257 0
0.00705357 0.00543419 0
0.00819693 0.0051399 0
6.49651e-05 0.00678109 0
0.00285477 0.0081411 0
0.0050706 0.00707388 0
0.00716435 0.0076689 0
0.00986735 0.00721781 0
VERTICES 25 50
1 0
1 1
1 2
1 3
1 4
1 5
1 6
1 7
1 8
1 9
1 10
1 11
1 12
1 13
1 14
1 15
1 16
1 17
1 18
1 19
1 20
1 21
1 22
1 23
1 24
POINT_DATA 25
VECTORS velocity double
-1.04225e-82 -0.00970858 0
-6.9051e-83 -0.00970858 0
-5.71473e-83 -0.00970858 0
-3.34945e-83 -0.00970858 0
4.38478e-83 -0.00970858 0
-3.11713e-84 -0.00970858 0
-3.59015e-83 -0.00970858 0
-9.2178e-83 -0.00970858 0
-1.05071e-82 -0.00970858 0
-1.21641e-82 -0.00970858 0
1.2434e-82 -0.00970858 0
2.09215e-83 -0.00970858 0
-6.89791e-83 -0.00970858 0
-4.45235e-83 -0.00970858 0
-1.01593e-82 -0.00970858 0
5.94718e-83 -0.00970858 0
-7.97223e-83 -0.00970858 0
1.02288e-82 -0.00970858 0
7.07205e-84 -0.00970858 0
-1.06016e-82 -0.00970858 0
-1.23436e-82 -0.00970858 0
-1.91716e-83 -0.00970858 0
9.3205e-84 -0.00970858 0
2.16967e-83 -0.00970858 0
1.14501e-82 -0.00970858 0
SCALARS radius double 1
LOOKUP_TABLE default
0.0005192
0.000759374
0.000731582
0.000932767
0.000864852
0.00092132
0.000824734
0.000662097
0.000535446
0.00094621
0.000999249
0.000802661
0.000671708
0.000819153
0.000645007
0.000827505
0.000602392
0.000772815
0.000550095
0.000626194
0.000886859
0.000531918
0.000790192
0.000909137
0.00096445
SCALARS mass double 1
LOOKUP_TABLE default
0.00228657
0.0048913
0.00453983
0.00738005
0.00634449
0.00720004
0.00576955
0.0037184
0.0024319
0.00759432
0.00846957
0.00546484
0.00382714
0.00569173
0.00352892
0.00580838
0.00307803
0.005066
0.00256678
0.00332607
0.00667148
0.00239995
0.00529637
0.00701087
0.00788992
