# vtk DataFile Version 3.0
DEM2D particles
ASCII
DATASET POLYDATA
POINTS 25 double
0.000210492 -0.00129689 0
0.00247694 -0.00169618 0
0.00456711 -0.00104885 0
0.00674628 -0.00116757 0
0.00933215 -0.000250442 0
0.000976388 0.00190373 0
0.00272805 0.00158818 0
0.00430175 0.00111937 0
0.00620408 0.000542054 0
0.00807857 0.000988015 0
0.00194188 0.00284069 0
0.00315848 0.00255977 0
0.00447748 0.00306397 0
0.00666273 0.00413652 0
0.00823043 0.00358904 0
0.0014505 0.00475937 0
0.0023961 0.00587274 0
0.00577483 0.00489782 0
0.00705357 0.00545943 0
0.00819693 0.00516514 0
6.49651e-05 0.00680633 0
0.00285477 0.00816634 0
0.0050706 0.00709913 0
0.00716435 0.00769414 0
0.00986735 0.00724305 0
VERTICES 25 50
1 0
1 1
1 2
1 3
1 4
1 5
1 6
1 7
1 8
1 9
1 10
1 11
1 12
1 13
1 14
1 15
1 16
1 17
1 18
1 19
1 20
1 21
1 22
1 23
1 24
POINT_DATA 25
VECTORS velocity double
-1.42174e-81 -0.00970858 0
-9.41932e-82 -0.00970858 0
-7.79552e-82 -0.00970858 0
-4.56902e-82 -0.00970858 0
5.98132e-82 -0.00970858 0
-4.25211e-83 -0.00970858 0
-4.89735e-82 -0.00970858 0
-1.25741e-81 -0.00970858 0
-1.43328e-81 -0.00970858 0
-1.65931e-81 -0.00970858 0
1.69614e-81 -0.00970858 0
2.85392e-82 -0.00970858 0
-9.40951e-82 -0.00970858 0
-6.0735e-82 -0.00970858 0
-1.38584e-81 -0.00970858 0
8.1126e-82 -0.00970858 0
-1.0875e-81 -0.00970858 0
1.39532e-81 -0.00970858 0
9.64706e-83 -0.00970858 0
-1.44617e-81 -0.00970858 0
-1.68381e-81 -0.00970858 0
-2.61521e-82 -0.00970858 0
1.27142e-82 -0.00970858 0
2.95967e-82 -0.00970858 0
1.56192e-81 -0.00970858 0
SCALARS radius double 1
LOOKUP_TABLE default
0.0005192
0.000759374
0.000731582
0.000932767
0.000864852
0.00092132
0.000824734
0.000662097
0.000535446
0.00094621
0.000999249
0.000802661
0.000671708
0.000819153
0.000645007
0.000827505
0.000602392
0.000772815
0.000550095
0.000626194
0.000886859
0.000531918
0.000790192
0.000909137
0.00096445
SCALARS mass double 1
LOOKUP_TABLE default
0.00228657
0.0048913
0.00453983
0.00738005
0.00634449
0.00720004
0.00576955
0.0037184
0.0024319
0.00759432
0.00846957
0.00546484
0.00382714
0.00569173
0.00352892
0.00580838
0.00307803
0.005066
0.00256678
0.00332607
0.00667148
0.00239995
0.00529637
0.00701087
0.00788992
