# vtk DataFile Version 3.0
DEM2D particles
ASCII
DATASET POLYDATA
POINTS 25 double
0.000210872 0.000425652 0
0.00247719 2.65551e-05 0
0.00456732 0.00067357 0
0.0067464 0.000554914 0
0.00933199 0.0014716 0
0.000976399 0.0036257 0
0.00272818 0.0033103 0
0.00430208 0.00284171 0
0.00620447 0.00226468 0
0.00807901 0.00271042 0
0.00194143 0.00456317 0
0.0031584 0.00428238 0
0.00447773 0.00478634 0
0.0066629 0.00585838 0
0.0082308 0.00531116 0
0.00145028 0.00648189 0
0.00239639 0.00759472 0
0.00577446 0.00662027 0
0.00705355 0.00718161 0
0.00819731 0.00688746 0
6.54154e-05 0.00852883 0
0.00285484 0.00988818 0
0.00507057 0.00882148 0
0.00716427 0.00941621 0
0.00986693 0.00896533 0
VERTICES 25 50
1 0
1 1
1 2
1 3
1 4
1 5
1 6
1 7
1 8
1 9
1 10
1 11
1 12
1 13
1 14
1 15
1 16
1 17
1 18
1 19
1 20
1 21
1 22
1 23
1 24
POINT_DATA 25
VECTORS velocity double
-0.000384122 -0.00995224 0
-0.000254488 -0.0101465 0
-0.000210617 -0.00983156 0
-0.000123444 -0.00988932 0
0.000161601 -0.00944311 0
-1.14882e-05 -0.0093681 0
-0.000132315 -0.00952162 0
-0.000339723 -0.00974972 0
-0.00038724 -0.0100306 0
-0.000448308 -0.00981362 0
0.000458257 -0.0098853 0
7.71063e-05 -0.010022 0
-0.000254223 -0.00977667 0
-0.000164092 -0.00925484 0
-0.000374422 -0.0095212 0
0.000219184 -0.00992487 0
-0.000293817 -0.00938318 0
0.000376982 -0.00985751 0
2.60641e-05 -0.00958427 0
-0.000390722 -0.00972745 0
-0.000454926 -0.00990202 0
-7.0657e-05 -0.00924033 0
3.43508e-05 -0.00975957 0
7.99634e-05 -0.00947007 0
0.000421994 -0.00968954 0
SCALARS radius double 1
LOOKUP_TABLE default
0.0005192
0.000759374
0.000731582
0.000932767
0.000864852
0.00092132
0.000824734
0.000662097
0.000535446
0.00094621
0.000999249
0.000802661
0.000671708
0.000819153
0.000645007
0.000827505
0.000602392
0.000772815
0.000550095
0.000626194
0.000886859
0.000531918
0.000790192
0.000909137
0.00096445
SCALARS mass double 1
LOOKUP_TABLE default
0.00228657
0.0048913
0.00453983
0.00738005
0.00634449
0.00720004
0.00576955
0.0037184
0.0024319
0.00759432
0.00846957
0.00546484
0.00382714
0.00569173
0.00352892
0.00580838
0.00307803
0.005066
0.00256678
0.00332607
0.00667148
0.00239995
0.00529637
0.00701087
0.00788992
