# vtk DataFile Version 3.0
DEM2D particles
ASCII
DATASET POLYDATA
POINTS 25 double
0.000210492 0.000192405 0
0.00247694 -0.000206884 0
0.00456711 0.000440443 0
0.00674628 0.000321729 0
0.00933215 0.00123886 0
0.000976388 0.00339303 0
0.00272805 0.00307748 0
0.00430175 0.00260867 0
0.00620408 0.00203135 0
0.00807857 0.00247731 0
0.00194188 0.00432999 0
0.00315848 0.00404907 0
0.00447748 0.00455327 0
0.00666273 0.00562582 0
0.00823043 0.00507834 0
0.0014505 0.00624867 0
0.0023961 0.00736203 0
0.00577483 0.00638711 0
0.00705357 0.00694873 0
0.00819693 0.00665444 0
6.49651e-05 0.00829563 0
0.00285477 0.00965563 0
0.0050706 0.00858842 0
0.00716435 0.00918344 0
0.00986735 0.00873235 0
VERTICES 25 50
1 0
1 1
1 2
1 3
1 4
1 5
1 6
1 7
1 8
1 9
1 10
1 11
1 12
1 13
1 14
1 15
1 16
1 17
1 18
1 19
1 20
1 21
1 22
1 23
1 24
POINT_DATA 25
VECTORS velocity double
-1.2851e-14 -0.00970858 0
-8.51401e-15 -0.00970858 0
-7.04628e-15 -0.00970858 0
-4.12989e-15 -0.00970858 0
5.40644e-15 -0.00970858 0
-3.84343e-16 -0.00970858 0
-4.42666e-15 -0.00970858 0
-1.13656e-14 -0.00970858 0
-1.29553e-14 -0.00970858 0
-1.49984e-14 -0.00970858 0
1.53312e-14 -0.00970858 0
2.57963e-15 -0.00970858 0
-8.50515e-15 -0.00970858 0
-5.48976e-15 -0.00970858 0
-1.25265e-14 -0.00970858 0
7.33289e-15 -0.00970858 0
-9.82979e-15 -0.00970858 0
1.26121e-14 -0.00970858 0
8.71987e-16 -0.00970858 0
-1.30718e-14 -0.00970858 0
-1.52198e-14 -0.00970858 0
-2.36386e-15 -0.00970858 0
1.14922e-15 -0.00970858 0
2.67521e-15 -0.00970858 0
1.4118e-14 -0.00970858 0
SCALARS radius double 1
LOOKUP_TABLE default
0.0005192
0.000759374
0.000731582
0.000932767
0.000864852
0.00092132
0.000824734
0.000662097
0.000535446
0.00094621
0.000999249
0.000802661
0.000671708
0.000819153
0.000645007
0.000827505
0.000602392
0.000772815
0.000550095
0.000626194
0.000886859
0.000531918
0.000790192
0.000909137
0.00096445
SCALARS mass double 1
LOOKUP_TABLE default
0.00228657
0.0048913
0.00453983
0.00738005
0.00634449
0.00720004
0.00576955
0.0037184
0.0024319
0.00759432
0.00846957
0.00546484
0.00382714
0.00569173
0.00352892
0.00580838
0.00307803
0.005066
0.00256678
0.00332607
0.00667148
0.00239995
0.00529637
0.00701087
0.00788992
