# vtk DataFile Version 3.0
DEM2D particles
ASCII
DATASET POLYDATA
POINTS 25 double
0.000210492 0.000279782 0
0.00247694 -0.000119507 0
0.00456711 0.00052782 0
0.00674628 0.000409106 0
0.00933215 0.00132623 0
0.000976388 0.00348041 0
0.00272805 0.00316485 0
0.00430175 0.00269604 0
0.00620408 0.00211873 0
0.00807857 0.00256469 0
0.00194188 0.00441737 0
0.00315848 0.00413644 0
0.00447748 0.00464065 0
0.00666273 0.0057132 0
0.00823043 0.00516572 0
0.0014505 0.00633604 0
0.0023961 0.00744941 0
0.00577483 0.00647449 0
0.00705357 0.0070361 0
0.00819693 0.00674182 0
6.49651e-05 0.00838301 0
0.00285477 0.00974301 0
0.0050706 0.0086758 0
0.00716435 0.00927081 0
0.00986735 0.00881972 0
VERTICES 25 50
1 0
1 1
1 2
1 3
1 4
1 5
1 6
1 7
1 8
1 9
1 10
1 11
1 12
1 13
1 14
1 15
1 16
1 17
1 18
1 19
1 20
1 21
1 22
1 23
1 24
POINT_DATA 25
VECTORS velocity double
-1.08959e-10 -0.00970858 0
-7.2187e-11 -0.00970858 0
-5.97427e-11 -0.00970858 0
-3.50157e-11 -0.00970858 0
4.58392e-11 -0.00970858 0
-3.2587e-12 -0.00970858 0
-3.7532e-11 -0.00970858 0
-9.63644e-11 -0.00970858 0
-1.09843e-10 -0.00970858 0
-1.27165e-10 -0.00970858 0
1.29987e-10 -0.00970858 0
2.18717e-11 -0.00970858 0
-7.21118e-11 -0.00970858 0
-4.65456e-11 -0.00970858 0
-1.06207e-10 -0.00970858 0
6.21727e-11 -0.00970858 0
-8.3343e-11 -0.00970858 0
1.06933e-10 -0.00970858 0
7.39324e-12 -0.00970858 0
-1.10831e-10 -0.00970858 0
-1.29042e-10 -0.00970858 0
-2.00423e-11 -0.00970858 0
9.7438e-12 -0.00970858 0
2.26821e-11 -0.00970858 0
1.19701e-10 -0.00970858 0
SCALARS radius double 1
LOOKUP_TABLE default
0.0005192
0.000759374
0.000731582
0.000932767
0.000864852
0.00092132
0.000824734
0.000662097
0.000535446
0.00094621
0.000999249
0.000802661
0.000671708
0.000819153
0.000645007
0.000827505
0.000602392
0.000772815
0.000550095
0.000626194
0.000886859
0.000531918
0.000790192
0.000909137
0.00096445
SCALARS mass double 1
LOOKUP_TABLE default
0.00228657
0.0048913
0.00453983
0.00738005
0.00634449
0.00720004
0.00576955
0.0037184
0.0024319
0.00759432
0.00846957
0.00546484
0.00382714
0.00569173
0.00352892
0.00580838
0.00307803
0.005066
0.00256678
0.00332607
0.00667148
0.00239995
0.00529637
0.00701087
0.00788992
