# vtk DataFile Version 3.0
DEM2D particles
ASCII
DATASET POLYDATA
POINTS 25 double
0.000210492 -0.000143512 0
0.00247694 -0.000542801 0
0.00456711 0.000104526 0
0.00674628 -1.41884e-05 0
0.00933215 0.000902938 0
0.000976388 0.00305711 0
0.00272805 0.00274156 0
0.00430175 0.00227275 0
0.00620408 0.00169543 0
0.00807857 0.00214139 0
0.00194188 0.00399407 0
0.00315848 0.00371315 0
0.00447748 0.00421735 0
0.00666273 0.0052899 0
0.00823043 0.00474242 0
0.0014505 0.00591275 0
0.0023961 0.00702612 0
0.00577483 0.0060512 0
0.00705357 0.00661281 0
0.00819693 0.00631852 0
6.49651e-05 0.00795971 0
0.00285477 0.00931972 0
0.0050706 0.00825251 0
0.00716435 0.00884752 0
0.00986735 0.00839643 0
VERTICES 25 50
1 0
1 1
1 2
1 3
1 4
1 5
1 6
1 7
1 8
1 9
1 10
1 11
1 12
1 13
1 14
1 15
1 16
1 17
1 18
1 19
1 20
1 21
1 22
1 23
1 24
POINT_DATA 25
VECTORS velocity double
-1.01557e-29 -0.00970858 0
-6.72833e-30 -0.00970858 0
-5.56844e-30 -0.00970858 0
-3.26371e-30 -0.00970858 0
4.27253e-30 -0.00970858 0
-3.03733e-31 -0.00970858 0
-3.49824e-30 -0.00970858 0
-8.98183e-30 -0.00970858 0
-1.02381e-29 -0.00970858 0
-1.18527e-29 -0.00970858 0
1.21157e-29 -0.00970858 0
2.03859e-30 -0.00970858 0
-6.72133e-30 -0.00970858 0
-4.33837e-30 -0.00970858 0
-9.89923e-30 -0.00970858 0
5.79493e-30 -0.00970858 0
-7.76815e-30 -0.00970858 0
9.96693e-30 -0.00970858 0
6.89102e-31 -0.00970858 0
-1.03302e-29 -0.00970858 0
-1.20277e-29 -0.00970858 0
-1.86808e-30 -0.00970858 0
9.0819e-31 -0.00970858 0
2.11413e-30 -0.00970858 0
1.1157e-29 -0.00970858 0
SCALARS radius double 1
LOOKUP_TABLE default
0.0005192
0.000759374
0.000731582
0.000932767
0.000864852
0.00092132
0.000824734
0.000662097
0.000535446
0.00094621
0.000999249
0.000802661
0.000671708
0.000819153
0.000645007
0.000827505
0.000602392
0.000772815
0.000550095
0.000626194
0.000886859
0.000531918
0.000790192
0.000909137
0.00096445
SCALARS mass double 1
LOOKUP_TABLE default
0.00228657
0.0048913
0.00453983
0.00738005
0.00634449
0.00720004
0.00576955
0.0037184
0.0024319
0.00759432
0.00846957
0.00546484
0.00382714
0.00569173
0.00352892
0.00580838
0.00307803
0.005066
0.00256678
0.00332607
0.00667148
0.00239995
0.00529637
0.00701087
0.00788992
