# vtk DataFile Version 3.0
DEM2D particles
ASCII
DATASET POLYDATA
POINTS 25 double
0.000210492 0.000297257 0
0.00247694 -0.000102032 0
0.00456711 0.000545295 0
0.00674628 0.000426581 0
0.00933215 0.00134371 0
0.000976388 0.00349788 0
0.00272805 0.00318233 0
0.00430175 0.00271352 0
0.00620408 0.0021362 0
0.00807857 0.00258216 0
0.00194188 0.00443484 0
0.00315848 0.00415392 0
0.00447748 0.00465812 0
0.00666273 0.00573067 0
0.00823043 0.00518319 0
0.0014505 0.00635352 0
0.0023961 0.00746689 0
0.00577483 0.00649197 0
0.00705357 0.00705358 0
0.00819693 0.00675929 0
6.49651e-05 0.00840048 0
0.00285477 0.00976049 0
0.0050706 0.00869328 0
0.00716435 0.00928829 0
0.00986735 0.0088372 0
VERTICES 25 50
1 0
1 1
1 2
1 3
1 4
1 5
1 6
1 7
1 8
1 9
1 10
1 11
1 12
1 13
1 14
1 15
1 16
1 17
1 18
1 19
1 20
1 21
1 22
1 23
1 24
POINT_DATA 25
VECTORS velocity double
-6.6516e-10 -0.00970858 0
-4.40681e-10 -0.00970858 0
-3.64712e-10 -0.00970858 0
-2.13761e-10 -0.00970858 0
2.79835e-10 -0.00970858 0
-1.98934e-11 -0.00970858 0
-2.29122e-10 -0.00970858 0
-5.88276e-10 -0.00970858 0
-6.70559e-10 -0.00970858 0
-7.76307e-10 -0.00970858 0
7.93535e-10 -0.00970858 0
1.3352e-10 -0.00970858 0
-4.40222e-10 -0.00970858 0
-2.84147e-10 -0.00970858 0
-6.48363e-10 -0.00970858 0
3.79546e-10 -0.00970858 0
-5.08785e-10 -0.00970858 0
6.52797e-10 -0.00970858 0
4.51336e-11 -0.00970858 0
-6.76588e-10 -0.00970858 0
-7.87766e-10 -0.00970858 0
-1.22352e-10 -0.00970858 0
5.94831e-11 -0.00970858 0
1.38468e-10 -0.00970858 0
7.3074e-10 -0.00970858 0
SCALARS radius double 1
LOOKUP_TABLE default
0.0005192
0.000759374
0.000731582
0.000932767
0.000864852
0.00092132
0.000824734
0.000662097
0.000535446
0.00094621
0.000999249
0.000802661
0.000671708
0.000819153
0.000645007
0.000827505
0.000602392
0.000772815
0.000550095
0.000626194
0.000886859
0.000531918
0.000790192
0.000909137
0.00096445
SCALARS mass double 1
LOOKUP_TABLE default
0.00228657
0.0048913
0.00453983
0.00738005
0.00634449
0.00720004
0.00576955
0.0037184
0.0024319
0.00759432
0.00846957
0.00546484
0.00382714
0.00569173
0.00352892
0.00580838
0.00307803
0.005066
0.00256678
0.00332607
0.00667148
0.00239995
0.00529637
0.00701087
0.00788992
