# vtk DataFile Version 3.0
DEM2D particles
ASCII
DATASET POLYDATA
POINTS 25 double
0.000210492 -0.000555156 0
0.00247694 -0.000954445 0
0.00456711 -0.000307118 0
0.00674628 -0.000425832 0
0.00933215 0.000491294 0
0.000976388 0.00264547 0
0.00272805 0.00232992 0
0.00430175 0.0018611 0
0.00620408 0.00128379 0
0.00807857 0.00172975 0
0.00194188 0.00358243 0
0.00315848 0.00330151 0
0.00447748 0.00380571 0
0.00666273 0.00487826 0
0.00823043 0.00433078 0
0.0014505 0.0055011 0
0.0023961 0.00661447 0
0.00577483 0.00563955 0
0.00705357 0.00620116 0
0.00819693 0.00590688 0
6.49651e-05 0.00754807 0
0.00285477 0.00890807 0
0.0050706 0.00784086 0
0.00716435 0.00843588 0
0.00986735 0.00798478 0
VERTICES 25 50
1 0
1 1
1 2
1 3
1 4
1 5
1 6
1 7
1 8
1 9
1 10
1 11
1 12
1 13
1 14
1 15
1 16
1 17
1 18
1 19
1 20
1 21
1 22
1 23
1 24
POINT_DATA 25
VECTORS velocity double
-3.1618e-48 -0.00970858 0
-2.09475e-48 -0.00970858 0
-1.73364e-48 -0.00970858 0
-1.0161e-48 -0.00970858 0
1.33018e-48 -0.00970858 0
-9.45622e-50 -0.00970858 0
-1.08912e-48 -0.00970858 0
-2.79634e-48 -0.00970858 0
-3.18746e-48 -0.00970858 0
-3.69013e-48 -0.00970858 0
3.77203e-48 -0.00970858 0
6.34681e-49 -0.00970858 0
-2.09257e-48 -0.00970858 0
-1.35068e-48 -0.00970858 0
-3.08196e-48 -0.00970858 0
1.80415e-48 -0.00970858 0
-2.41848e-48 -0.00970858 0
3.10303e-48 -0.00970858 0
2.1454e-49 -0.00970858 0
-3.21612e-48 -0.00970858 0
-3.7446e-48 -0.00970858 0
-5.81595e-49 -0.00970858 0
2.8275e-49 -0.00970858 0
6.58198e-49 -0.00970858 0
3.47353e-48 -0.00970858 0
SCALARS radius double 1
LOOKUP_TABLE default
0.0005192
0.000759374
0.000731582
0.000932767
0.000864852
0.00092132
0.000824734
0.000662097
0.000535446
0.00094621
0.000999249
0.000802661
0.000671708
0.000819153
0.000645007
0.000827505
0.000602392
0.000772815
0.000550095
0.000626194
0.000886859
0.000531918
0.000790192
0.000909137
0.00096445
SCALARS mass double 1
LOOKUP_TABLE default
0.00228657
0.0048913
0.00453983
0.00738005
0.00634449
0.00720004
0.00576955
0.0037184
0.0024319
0.00759432
0.00846957
0.00546484
0.00382714
0.00569173
0.00352892
0.00580838
0.00307803
0.005066
0.00256678
0.00332607
0.00667148
0.00239995
0.00529637
0.00701087
0.00788992
