# vtk DataFile Version 3.0
DEM2D particles
ASCII
DATASET POLYDATA
POINTS 25 double
0.000210492 -0.000795929 0
0.00247694 -0.00119522 0
0.00456711 -0.000547891 0
0.00674628 -0.000666605 0
0.00933215 0.000250521 0
0.000976388 0.0024047 0
0.00272805 0.00208914 0
0.00430175 0.00162033 0
0.00620408 0.00104302 0
0.00807857 0.00148898 0
0.00194188 0.00334166 0
0.00315848 0.00306073 0
0.00447748 0.00356494 0
0.00666273 0.00463749 0
0.00823043 0.00409001 0
0.0014505 0.00526033 0
0.0023961 0.0063737 0
0.00577483 0.00539878 0
0.00705357 0.00596039 0
0.00819693 0.00566611 0
6.49651e-05 0.0073073 0
0.00285477 0.0086673 0
0.0050706 0.00760009 0
0.00716435 0.0081951 0
0.00986735 0.00774401 0
VERTICES 25 50
1 0
1 1
1 2
1 3
1 4
1 5
1 6
1 7
1 8
1 9
1 10
1 11
1 12
1 13
1 14
1 15
1 16
1 17
1 18
1 19
1 20
1 21
1 22
1 23
1 24
POINT_DATA 25
VECTORS velocity double
-4.73388e-59 -0.00970858 0
-3.13628e-59 -0.00970858 0
-2.59562e-59 -0.00970858 0
-1.52132e-59 -0.00970858 0
1.99156e-59 -0.00970858 0
-1.41579e-60 -0.00970858 0
-1.63064e-59 -0.00970858 0
-4.18671e-59 -0.00970858 0
-4.7723e-59 -0.00970858 0
-5.5249e-59 -0.00970858 0
5.64752e-59 -0.00970858 0
9.50251e-60 -0.00970858 0
-3.13302e-59 -0.00970858 0
-2.02225e-59 -0.00970858 0
-4.61433e-59 -0.00970858 0
2.7012e-59 -0.00970858 0
-3.62097e-59 -0.00970858 0
4.64589e-59 -0.00970858 0
3.21211e-60 -0.00970858 0
-4.81521e-59 -0.00970858 0
-5.60646e-59 -0.00970858 0
-8.7077e-60 -0.00970858 0
4.23335e-60 -0.00970858 0
9.85461e-60 -0.00970858 0
5.20061e-59 -0.00970858 0
SCALARS radius double 1
LOOKUP_TABLE default
0.0005192
0.000759374
0.000731582
0.000932767
0.000864852
0.00092132
0.000824734
0.000662097
0.000535446
0.00094621
0.000999249
0.000802661
0.000671708
0.000819153
0.000645007
0.000827505
0.000602392
0.000772815
0.000550095
0.000626194
0.000886859
0.000531918
0.000790192
0.000909137
0.00096445
SCALARS mass double 1
LOOKUP_TABLE default
0.00228657
0.0048913
0.00453983
0.00738005
0.00634449
0.00720004
0.00576955
0.0037184
0.0024319
0.00759432
0.00846957
0.00546484
0.00382714
0.00569173
0.00352892
0.00580838
0.00307803
0.005066
0.00256678
0.00332607
0.00667148
0.00239995
0.00529637
0.00701087
0.00788992
