# vtk DataFile Version 3.0
DEM2D particles
ASCII
DATASET POLYDATA
POINTS 25 double
0.000210492 -0.00140951 0
0.00247694 -0.0018088 0
0.00456711 -0.00116147 0
0.00674628 -0.00128019 0
0.00933215 -0.000363061 0
0.000976388 0.00179111 0
0.00272805 0.00147556 0
0.00430175 0.00100675 0
0.00620408 0.000429434 0
0.00807857 0.000875396 0
0.00194188 0.00272808 0
0.00315848 0.00244715 0
0.00447748 0.00295135 0
0.00666273 0.0040239 0
0.00823043 0.00347642 0
0.0014505 0.00464675 0
0.0023961 0.00576012 0
0.00577483 0.0047852 0
0.00705357 0.00534681 0
0.00819693 0.00505252 0
6.49651e-05 0.00669371 0
0.00285477 0.00805372 0
0.0050706 0.00698651 0
0.00716435 0.00758152 0
0.00986735 0.00713043 0
VERTICES 25 50
1 0
1 1
1 2
1 3
1 4
1 5
1 6
1 7
1 8
1 9
1 10
1 11
1 12
1 13
1 14
1 15
1 16
1 17
1 18
1 19
1 20
1 21
1 22
1 23
1 24
POINT_DATA 25
VECTORS velocity double
-1.22927e-86 -0.00970858 0
-8.14414e-87 -0.00970858 0
-6.74017e-87 -0.00970858 0
-3.95047e-87 -0.00970858 0
5.17157e-87 -0.00970858 0
-3.67646e-88 -0.00970858 0
-4.23435e-87 -0.00970858 0
-1.08718e-86 -0.00970858 0
-1.23925e-86 -0.00970858 0
-1.43468e-86 -0.00970858 0
1.46652e-86 -0.00970858 0
2.46756e-87 -0.00970858 0
-8.13566e-87 -0.00970858 0
-5.25127e-87 -0.00970858 0
-1.19823e-86 -0.00970858 0
7.01433e-87 -0.00970858 0
-9.40275e-87 -0.00970858 0
1.20642e-86 -0.00970858 0
8.34105e-88 -0.00970858 0
-1.25039e-86 -0.00970858 0
-1.45586e-86 -0.00970858 0
-2.26117e-87 -0.00970858 0
1.0993e-87 -0.00970858 0
2.55899e-87 -0.00970858 0
1.35047e-86 -0.00970858 0
SCALARS radius double 1
LOOKUP_TABLE default
0.0005192
0.000759374
0.000731582
0.000932767
0.000864852
0.00092132
0.000824734
0.000662097
0.000535446
0.00094621
0.000999249
0.000802661
0.000671708
0.000819153
0.000645007
0.000827505
0.000602392
0.000772815
0.000550095
0.000626194
0.000886859
0.000531918
0.000790192
0.000909137
0.00096445
SCALARS mass double 1
LOOKUP_TABLE default
0.00228657
0.0048913
0.00453983
0.00738005
0.00634449
0.00720004
0.00576955
0.0037184
0.0024319
0.00759432
0.00846957
0.00546484
0.00382714
0.00569173
0.00352892
0.00580838
0.00307803
0.005066
0.00256678
0.00332607
0.00667148
0.00239995
0.00529637
0.00701087
0.00788992
