# vtk DataFile Version 3.0
DEM2D particles
ASCII
DATASET POLYDATA
POINTS 25 double
0.000210493 0.000369102 0
0.00247694 -3.01869e-05 0
0.00456711 0.000617139 0
0.00674628 0.000498425 0
0.00933215 0.00141555 0
0.000976388 0.00356973 0
0.00272805 0.00325417 0
0.00430175 0.00278536 0
0.00620409 0.00220805 0
0.00807857 0.00265401 0
0.00194188 0.00450669 0
0.00315848 0.00422576 0
0.00447748 0.00472997 0
0.00666273 0.00580252 0
0.00823043 0.00525504 0
0.0014505 0.00642536 0
0.0023961 0.00753873 0
0.00577483 0.00656381 0
0.00705357 0.00712542 0
0.00819693 0.00683114 0
6.49664e-05 0.00847233 0
0.00285477 0.00983233 0
0.0050706 0.00876512 0
0.00716435 0.00936013 0
0.00986735 0.00890904 0
VERTICES 25 50
1 0
1 1
1 2
1 3
1 4
1 5
1 6
1 7
1 8
1 9
1 10
1 11
1 12
1 13
1 14
1 15
1 16
1 17
1 18
1 19
1 20
1 21
1 22
1 23
1 24
POINT_DATA 25
VECTORS velocity double
-1.12949e-06 -0.0097093 0
-7.48307e-07 -0.00970987 0
-6.19307e-07 -0.00970895 0
-3.62981e-07 -0.00970911 0
4.75179e-07 -0.0097078 0
-3.37804e-08 -0.00970758 0
-3.89065e-07 -0.00970803 0
-9.98936e-07 -0.0097087 0
-1.13866e-06 -0.00970953 0
-1.31822e-06 -0.00970889 0
1.34748e-06 -0.0097091 0
2.26727e-07 -0.00970951 0
-7.47528e-07 -0.00970878 0
-4.82502e-07 -0.00970725 0
-1.10097e-06 -0.00970803 0
6.44497e-07 -0.00970922 0
-8.63953e-07 -0.00970763 0
1.1085e-06 -0.00970902 0
7.664e-08 -0.00970822 0
-1.14889e-06 -0.00970864 0
-1.33768e-06 -0.00970915 0
-2.07763e-07 -0.00970721 0
1.01007e-07 -0.00970873 0
2.35128e-07 -0.00970788 0
1.24085e-06 -0.00970853 0
SCALARS radius double 1
LOOKUP_TABLE default
0.0005192
0.000759374
0.000731582
0.000932767
0.000864852
0.00092132
0.000824734
0.000662097
0.000535446
0.00094621
0.000999249
0.000802661
0.000671708
0.000819153
0.000645007
0.000827505
0.000602392
0.000772815
0.000550095
0.000626194
0.000886859
0.000531918
0.000790192
0.000909137
0.00096445
SCALARS mass double 1
LOOKUP_TABLE default
0.00228657
0.0048913
0.00453983
0.00738005
0.00634449
0.00720004
0.00576955
0.0037184
0.0024319
0.00759432
0.00846957
0.00546484
0.00382714
0.00569173
0.00352892
0.00580838
0.00307803
0.005066
0.00256678
0.00332607
0.00667148
0.00239995
0.00529637
0.00701087
0.00788992
