# vtk DataFile Version 3.0
DEM2D particles
ASCII
DATASET POLYDATA
POINTS 25 double
0.000210492 0.000227356 0
0.00247694 -0.000171934 0
0.00456711 0.000475394 0
0.00674628 0.000356679 0
0.00933215 0.00127381 0
0.000976388 0.00342798 0
0.00272805 0.00311243 0
0.00430175 0.00264362 0
0.00620408 0.0020663 0
0.00807857 0.00251226 0
0.00194188 0.00436494 0
0.00315848 0.00408402 0
0.00447748 0.00458822 0
0.00666273 0.00566077 0
0.00823043 0.00511329 0
0.0014505 0.00628362 0
0.0023961 0.00739698 0
0.00577483 0.00642206 0
0.00705357 0.00698368 0
0.00819693 0.00668939 0
6.49651e-05 0.00833058 0
0.00285477 0.00969059 0
0.0050706 0.00862337 0
0.00716435 0.00921839 0
0.00986735 0.0087673 0
VERTICES 25 50
1 0
1 1
1 2
1 3
1 4
1 5
1 6
1 7
1 8
1 9
1 10
1 11
1 12
1 13
1 14
1 15
1 16
1 17
1 18
1 19
1 20
1 21
1 22
1 23
1 24
POINT_DATA 25
VECTORS velocity double
-4.78924e-13 -0.00970858 0
-3.17296e-13 -0.00970858 0
-2.62597e-13 -0.00970858 0
-1.5391e-13 -0.00970858 0
2.01485e-13 -0.00970858 0
-1.43235e-14 -0.00970858 0
-1.6497e-13 -0.00970858 0
-4.23567e-13 -0.00970858 0
-4.82811e-13 -0.00970858 0
-5.58951e-13 -0.00970858 0
5.71355e-13 -0.00970858 0
9.61362e-14 -0.00970858 0
-3.16965e-13 -0.00970858 0
-2.0459e-13 -0.00970858 0
-4.66829e-13 -0.00970858 0
2.73278e-13 -0.00970858 0
-3.66331e-13 -0.00970858 0
4.70022e-13 -0.00970858 0
3.24967e-14 -0.00970858 0
-4.87152e-13 -0.00970858 0
-5.67202e-13 -0.00970858 0
-8.80952e-14 -0.00970858 0
4.28286e-14 -0.00970858 0
9.96984e-14 -0.00970858 0
5.26142e-13 -0.00970858 0
SCALARS radius double 1
LOOKUP_TABLE default
0.0005192
0.000759374
0.000731582
0.000932767
0.000864852
0.00092132
0.000824734
0.000662097
0.000535446
0.00094621
0.000999249
0.000802661
0.000671708
0.000819153
0.000645007
0.000827505
0.000602392
0.000772815
0.000550095
0.000626194
0.000886859
0.000531918
0.000790192
0.000909137
0.00096445
SCALARS mass double 1
LOOKUP_TABLE default
0.00228657
0.0048913
0.00453983
0.00738005
0.00634449
0.00720004
0.00576955
0.0037184
0.0024319
0.00759432
0.00846957
0.00546484
0.00382714
0.00569173
0.00352892
0.00580838
0.00307803
0.005066
0.00256678
0.00332607
0.00667148
0.00239995
0.00529637
0.00701087
0.00788992
