# vtk DataFile Version 3.0
DEM2D particles
ASCII
DATASET POLYDATA
POINTS 25 double
0.000210492 -0.00107165 0
0.00247694 -0.00147094 0
0.00456711 -0.000823615 0
0.00674628 -0.000942329 0
0.00933215 -2.52026e-05 0
0.000976388 0.00212897 0
0.00272805 0.00181342 0
0.00430175 0.00134461 0
0.00620408 0.000767293 0
0.00807857 0.00121325 0
0.00194188 0.00306593 0
0.00315848 0.00278501 0
0.00447748 0.00328921 0
0.00666273 0.00436176 0
0.00823043 0.00381428 0
0.0014505 0.00498461 0
0.0023961 0.00609798 0
0.00577483 0.00512306 0
0.00705357 0.00568467 0
0.00819693 0.00539038 0
6.49651e-05 0.00703157 0
0.00285477 0.00839158 0
0.0050706 0.00732437 0
0.00716435 0.00791938 0
0.00986735 0.00746829 0
VERTICES 25 50
1 0
1 1
1 2
1 3
1 4
1 5
1 6
1 7
1 8
1 9
1 10
1 11
1 12
1 13
1 14
1 15
1 16
1 17
1 18
1 19
1 20
1 21
1 22
1 23
1 24
POINT_DATA 25
VECTORS velocity double
-1.90182e-71 -0.00970858 0
-1.25999e-71 -0.00970858 0
-1.04278e-71 -0.00970858 0
-6.11184e-72 -0.00970858 0
8.00102e-72 -0.00970858 0
-5.68791e-73 -0.00970858 0
-6.55104e-72 -0.00970858 0
-1.682e-71 -0.00970858 0
-1.91726e-71 -0.00970858 0
-2.21961e-71 -0.00970858 0
2.26887e-71 -0.00970858 0
3.8176e-72 -0.00970858 0
-1.25868e-71 -0.00970858 0
-8.12432e-72 -0.00970858 0
-1.8538e-71 -0.00970858 0
1.0852e-71 -0.00970858 0
-1.45471e-71 -0.00970858 0
1.86647e-71 -0.00970858 0
1.29046e-72 -0.00970858 0
-1.9345e-71 -0.00970858 0
-2.25238e-71 -0.00970858 0
-3.49829e-72 -0.00970858 0
1.70074e-72 -0.00970858 0
3.95906e-72 -0.00970858 0
2.08933e-71 -0.00970858 0
SCALARS radius double 1
LOOKUP_TABLE default
0.0005192
0.000759374
0.000731582
0.000932767
0.000864852
0.00092132
0.000824734
0.000662097
0.000535446
0.00094621
0.000999249
0.000802661
0.000671708
0.000819153
0.000645007
0.000827505
0.000602392
0.000772815
0.000550095
0.000626194
0.000886859
0.000531918
0.000790192
0.000909137
0.00096445
SCALARS mass double 1
LOOKUP_TABLE default
0.00228657
0.0048913
0.00453983
0.00738005
0.00634449
0.00720004
0.00576955
0.0037184
0.0024319
0.00759432
0.00846957
0.00546484
0.00382714
0.00569173
0.00352892
0.00580838
0.00307803
0.005066
0.00256678
0.00332607
0.00667148
0.00239995
0.00529637
0.00701087
0.00788992
