# vtk DataFile Version 3.0
DEM2D particles
ASCII
DATASET POLYDATA
POINTS 25 double
0.000218246 0.000459455 0
0.00248207 6.40879e-05 0
0.00457136 0.000705057 0
0.00674877 0.000587509 0
0.00932889 0.00149563 0
0.00097662 0.00364829 0
0.00273072 0.00333583 0
0.00430861 0.00287163 0
0.0062119 0.00229998 0
0.00808762 0.00274156 0
0.00193263 0.00459569 0
0.00315692 0.00431752 0
0.00448261 0.00481678 0
0.00666605 0.00587879 0
0.00823799 0.00533669 0
0.00144608 0.00651516 0
0.00240203 0.0076176 0
0.00576722 0.00665225 0
0.00705304 0.00720835 0
0.00820482 0.00691695 0
7.41488e-05 0.00856167 0
0.0028562 0.00990831 0
0.00506991 0.00885158 0
0.00716274 0.00944075 0
0.00985883 0.00899409 0
VERTICES 25 50
1 0
1 1
1 2
1 3
1 4
1 5
1 6
1 7
1 8
1 9
1 10
1 11
1 12
1 13
1 14
1 15
1 16
1 17
1 18
1 19
1 20
1 21
1 22
1 23
1 24
POINT_DATA 25
VECTORS velocity double
-0.00783269 -0.014677 0
-0.0051893 -0.0186384 0
-0.00429472 -0.0122163 0
-0.00251717 -0.013394 0
0.00329523 -0.00429524 0
-0.000234258 -0.00276568 0
-0.00269806 -0.00589627 0
-0.00692734 -0.0105473 0
-0.00789626 -0.0162749 0
-0.00914152 -0.0118505 0
0.00934439 -0.0133121 0
0.00157229 -0.0160991 0
-0.0051839 -0.0110969 0
-0.00334602 -0.000456162 0
-0.00763489 -0.0058877 0
0.0044694 -0.0141189 0
-0.00599127 -0.00307319 0
0.0076871 -0.0127454 0
0.000531477 -0.0071736 0
-0.00796726 -0.0100932 0
-0.00927646 -0.013653 0
-0.00144078 -0.000160379 0
0.000700452 -0.0107482 0
0.00163055 -0.00484505 0
0.00860494 -0.00932031 0
SCALARS radius double 1
LOOKUP_TABLE default
0.0005192
0.000759374
0.000731582
0.000932767
0.000864852
0.00092132
0.000824734
0.000662097
0.000535446
0.00094621
0.000999249
0.000802661
0.000671708
0.000819153
0.000645007
0.000827505
0.000602392
0.000772815
0.000550095
0.000626194
0.000886859
0.000531918
0.000790192
0.000909137
0.00096445
SCALARS mass double 1
LOOKUP_TABLE default
0.00228657
0.0048913
0.00453983
0.00738005
0.00634449
0.00720004
0.00576955
0.0037184
0.0024319
0.00759432
0.00846957
0.00546484
0.00382714
0.00569173
0.00352892
0.00580838
0.00307803
0.005066
0.00256678
0.00332607
0.00667148
0.00239995
0.00529637
0.00701087
0.00788992
