# vtk DataFile Version 3.0
DEM2D particles
ASCII
DATASET POLYDATA
POINTS 25 double
0.000210492 9.88341e-06 0
0.00247694 -0.000389406 0
0.00456711 0.000257921 0
0.00674628 0.000139207 0
0.00933215 0.00105633 0
0.000976388 0.00321051 0
0.00272805 0.00289496 0
0.00430175 0.00242614 0
0.00620408 0.00184883 0
0.00807857 0.00229479 0
0.00194188 0.00414747 0
0.00315848 0.00386654 0
0.00447748 0.00437075 0
0.00666273 0.0054433 0
0.00823043 0.00489582 0
0.0014505 0.00606614 0
0.0023961 0.00717951 0
0.00577483 0.00620459 0
0.00705357 0.0067662 0
0.00819693 0.00647192 0
6.49651e-05 0.00811311 0
0.00285477 0.00947311 0
0.0050706 0.0084059 0
0.00716435 0.00900092 0
0.00986735 0.00854982 0
VERTICES 25 50
1 0
1 1
1 2
1 3
1 4
1 5
1 6
1 7
1 8
1 9
1 10
1 11
1 12
1 13
1 14
1 15
1 16
1 17
1 18
1 19
1 20
1 21
1 22
1 23
1 24
POINT_DATA 25
VECTORS velocity double
-8.00023e-23 -0.00970858 0
-5.3003e-23 -0.00970858 0
-4.38658e-23 -0.00970858 0
-2.57101e-23 -0.00970858 0
3.36572e-23 -0.00970858 0
-2.39268e-24 -0.00970858 0
-2.75576e-23 -0.00970858 0
-7.07551e-23 -0.00970858 0
-8.06516e-23 -0.00970858 0
-9.33705e-23 -0.00970858 0
9.54426e-23 -0.00970858 0
1.60592e-23 -0.00970858 0
-5.29478e-23 -0.00970858 0
-3.41759e-23 -0.00970858 0
-7.79819e-23 -0.00970858 0
4.565e-23 -0.00970858 0
-6.11942e-23 -0.00970858 0
7.85152e-23 -0.00970858 0
5.42845e-24 -0.00970858 0
-8.13767e-23 -0.00970858 0
-9.47487e-23 -0.00970858 0
-1.47159e-23 -0.00970858 0
7.15434e-24 -0.00970858 0
1.66542e-23 -0.00970858 0
8.78899e-23 -0.00970858 0
SCALARS radius double 1
LOOKUP_TABLE default
0.0005192
0.000759374
0.000731582
0.000932767
0.000864852
0.00092132
0.000824734
0.000662097
0.000535446
0.00094621
0.000999249
0.000802661
0.000671708
0.000819153
0.000645007
0.000827505
0.000602392
0.000772815
0.000550095
0.000626194
0.000886859
0.000531918
0.000790192
0.000909137
0.00096445
SCALARS mass double 1
LOOKUP_TABLE default
0.00228657
0.0048913
0.00453983
0.00738005
0.00634449
0.00720004
0.00576955
0.0037184
0.0024319
0.00759432
0.00846957
0.00546484
0.00382714
0.00569173
0.00352892
0.00580838
0.00307803
0.005066
0.00256678
0.00332607
0.00667148
0.00239995
0.00529637
0.00701087
0.00788992
