# vtk DataFile Version 3.0
DEM2D particles
ASCII
DATASET POLYDATA
POINTS 25 double
0.000856236 0.000906865 0
0.00290475 0.000834158 0
0.00492117 0.000952031 0
0.0069538 0.000930414 0
0.00906048 0.00109742 0
0.0009957 0.00312549 0
0.00295048 0.00306803 0
0.00487285 0.00298266 0
0.00685507 0.00287754 0
0.00883221 0.00295874 0
0.00117151 0.00493192 0
0.00302886 0.00488076 0
0.00490485 0.00497258 0
0.00693859 0.00516788 0
0.00885987 0.00506819 0
0.00108203 0.00691711 0
0.00289003 0.00711985 0
0.00514109 0.00694232 0
0.00700975 0.00704459 0
0.00885377 0.006991 0
0.000829737 0.00892566 0
0.00297356 0.00917331 0
0.00501286 0.00897898 0
0.00702993 0.00908733 0
0.00915794 0.00900518 0
VERTICES 25 50
1 0
1 1
1 2
1 3
1 4
1 5
1 6
1 7
1 8
1 9
1 10
1 11
1 12
1 13
1 14
1 15
1 16
1 17
1 18
1 19
1 20
1 21
1 22
1 23
1 24
POINT_DATA 25
VECTORS velocity double
-0.652267 -0.423457 0
-0.432139 -0.753337 0
-0.357642 -0.218536 0
-0.209617 -0.316614 0
0.27441 0.441087 0
-0.0195078 0.568462 0
-0.22468 0.307762 0
-0.576874 -0.0795552 0
-0.657561 -0.556515 0
-0.761259 -0.188076 0
0.778154 -0.309787 0
0.130932 -0.541879 0
-0.431689 -0.125322 0
-0.278639 0.760786 0
-0.635795 0.308476 0
0.372189 -0.376977 0
-0.498922 0.542854 0
0.640143 -0.262595 0
0.0442587 0.201392 0
-0.663473 -0.0417386 0
-0.772497 -0.338176 0
-0.119981 0.785418 0
0.0583301 -0.0962794 0
0.135784 0.395302 0
0.716576 0.0226251 0
SCALARS radius double 1
LOOKUP_TABLE default
0.0005192
0.000759374
0.000731582
0.000932767
0.000864852
0.00092132
0.000824734
0.000662097
0.000535446
0.00094621
0.000999249
0.000802661
0.000671708
0.000819153
0.000645007
0.000827505
0.000602392
0.000772815
0.000550095
0.000626194
0.000886859
0.000531918
0.000790192
0.000909137
0.00096445
SCALARS mass double 1
LOOKUP_TABLE default
0.00228657
0.0048913
0.00453983
0.00738005
0.00634449
0.00720004
0.00576955
0.0037184
0.0024319
0.00759432
0.00846957
0.00546484
0.00382714
0.00569173
0.00352892
0.00580838
0.00307803
0.005066
0.00256678
0.00332607
0.00667148
0.00239995
0.00529637
0.00701087
0.00788992
