# vtk DataFile Version 3.0
DEM2D particles
ASCII
DATASET POLYDATA
POINTS 25 double
0.000210493 0.000372985 0
0.00247694 -2.63028e-05 0
0.00456711 0.000621023 0
0.00674628 0.000502309 0
0.00933215 0.00141943 0
0.000976388 0.00357361 0
0.00272805 0.00325806 0
0.00430175 0.00278925 0
0.00620409 0.00221193 0
0.00807857 0.00265789 0
0.00194188 0.00451057 0
0.00315848 0.00422965 0
0.00447748 0.00473385 0
0.00666273 0.0058064 0
0.00823043 0.00525892 0
0.0014505 0.00642925 0
0.0023961 0.00754261 0
0.00577483 0.00656769 0
0.00705357 0.00712931 0
0.00819693 0.00683502 0
6.49671e-05 0.00847621 0
0.00285477 0.00983621 0
0.0050706 0.008769 0
0.00716435 0.00936402 0
0.00986735 0.00891293 0
VERTICES 25 50
1 0
1 1
1 2
1 3
1 4
1 5
1 6
1 7
1 8
1 9
1 10
1 11
1 12
1 13
1 14
1 15
1 16
1 17
1 18
1 19
1 20
1 21
1 22
1 23
1 24
POINT_DATA 25
VECTORS velocity double
-1.6884e-06 -0.00970965 0
-1.11859e-06 -0.00971051 0
-9.25759e-07 -0.00970912 0
-5.42596e-07 -0.00970938 0
7.10313e-07 -0.00970742 0
-5.0496e-08 -0.00970709 0
-5.81587e-07 -0.00970776 0
-1.49324e-06 -0.00970876 0
-1.7021e-06 -0.00971 0
-1.97052e-06 -0.00970905 0
2.01426e-06 -0.00970936 0
3.38918e-07 -0.00970996 0
-1.11743e-06 -0.00970888 0
-7.2126e-07 -0.00970659 0
-1.64576e-06 -0.00970776 0
9.63414e-07 -0.00970953 0
-1.29146e-06 -0.00970715 0
1.65701e-06 -0.00970924 0
1.14564e-07 -0.00970804 0
-1.7174e-06 -0.00970867 0
-1.99961e-06 -0.00970943 0
-3.10571e-07 -0.00970653 0
1.50988e-07 -0.00970881 0
3.51477e-07 -0.00970754 0
1.85486e-06 -0.0097085 0
SCALARS radius double 1
LOOKUP_TABLE default
0.0005192
0.000759374
0.000731582
0.000932767
0.000864852
0.00092132
0.000824734
0.000662097
0.000535446
0.00094621
0.000999249
0.000802661
0.000671708
0.000819153
0.000645007
0.000827505
0.000602392
0.000772815
0.000550095
0.000626194
0.000886859
0.000531918
0.000790192
0.000909137
0.00096445
SCALARS mass double 1
LOOKUP_TABLE default
0.00228657
0.0048913
0.00453983
0.00738005
0.00634449
0.00720004
0.00576955
0.0037184
0.0024319
0.00759432
0.00846957
0.00546484
0.00382714
0.00569173
0.00352892
0.00580838
0.00307803
0.005066
0.00256678
0.00332607
0.00667148
0.00239995
0.00529637
0.00701087
0.00788992
