# vtk DataFile Version 3.0
DEM2D particles
ASCII
DATASET POLYDATA
POINTS 25 double
0.000216834 0.000456618 0
0.00248114 6.05363e-05 0
0.00457058 0.000702663 0
0.00674832 0.000584903 0
0.00932948 0.00149466 0
0.000976577 0.0036476 0
0.00273023 0.00333458 0
0.00430736 0.00286954 0
0.00621048 0.00229686 0
0.00808597 0.00273924 0
0.00193432 0.0045931 0
0.00315721 0.00431443 0
0.00448168 0.00481458 0
0.00666544 0.00587852 0
0.00823661 0.00533544 0
0.00144688 0.00651243 0
0.00240095 0.00761685 0
0.00576861 0.00664976 0
0.00705314 0.00720686 0
0.00820338 0.00691494 0
7.24765e-05 0.00855901 0
0.00285594 0.00990809 0
0.00507004 0.00884945 0
0.00716303 0.00943969 0
0.00986038 0.00899222 0
VERTICES 25 50
1 0
1 1
1 2
1 3
1 4
1 5
1 6
1 7
1 8
1 9
1 10
1 11
1 12
1 13
1 14
1 15
1 16
1 17
1 18
1 19
1 20
1 21
1 22
1 23
1 24
POINT_DATA 25
VECTORS velocity double
-0.00640641 -0.0137723 0
-0.00424437 -0.0170123 0
-0.00351268 -0.0117596 0
-0.00205881 -0.0127229 0
0.0026952 -0.00528097 0
-0.000191601 -0.00402993 0
-0.00220676 -0.00659046 0
-0.00566592 -0.0103946 0
-0.00645841 -0.0150792 0
-0.00747691 -0.0114605 0
0.00764284 -0.0126559 0
0.00128598 -0.0149354 0
-0.00423995 -0.0108441 0
-0.00273673 -0.00214096 0
-0.00624463 -0.00658345 0
0.00365556 -0.0133158 0
-0.0049003 -0.00428145 0
0.00628733 -0.0121924 0
0.000434699 -0.00763521 0
-0.00651648 -0.0100232 0
-0.00758728 -0.0129347 0
-0.00117842 -0.00189904 0
0.000572904 -0.0105589 0
0.00133363 -0.00573066 0
0.00703804 -0.00939101 0
SCALARS radius double 1
LOOKUP_TABLE default
0.0005192
0.000759374
0.000731582
0.000932767
0.000864852
0.00092132
0.000824734
0.000662097
0.000535446
0.00094621
0.000999249
0.000802661
0.000671708
0.000819153
0.000645007
0.000827505
0.000602392
0.000772815
0.000550095
0.000626194
0.000886859
0.000531918
0.000790192
0.000909137
0.00096445
SCALARS mass double 1
LOOKUP_TABLE default
0.00228657
0.0048913
0.00453983
0.00738005
0.00634449
0.00720004
0.00576955
0.0037184
0.0024319
0.00759432
0.00846957
0.00546484
0.00382714
0.00569173
0.00352892
0.00580838
0.00307803
0.005066
0.00256678
0.00332607
0.00667148
0.00239995
0.00529637
0.00701087
0.00788992
