# vtk DataFile Version 3.0
DEM2D particles
ASCII
DATASET POLYDATA
POINTS 25 double
0.000210492 -0.000685251 0
0.00247694 -0.00108454 0
0.00456711 -0.000437213 0
0.00674628 -0.000555927 0
0.00933215 0.000361199 0
0.000976388 0.00251537 0
0.00272805 0.00219982 0
0.00430175 0.00173101 0
0.00620408 0.00115369 0
0.00807857 0.00159966 0
0.00194188 0.00345234 0
0.00315848 0.00317141 0
0.00447748 0.00367561 0
0.00666273 0.00474817 0
0.00823043 0.00420069 0
0.0014505 0.00537101 0
0.0023961 0.00648438 0
0.00577483 0.00550946 0
0.00705357 0.00607107 0
0.00819693 0.00577678 0
6.49651e-05 0.00741797 0
0.00285477 0.00877798 0
0.0050706 0.00771077 0
0.00716435 0.00830578 0
0.00986735 0.00785469 0
VERTICES 25 50
1 0
1 1
1 2
1 3
1 4
1 5
1 6
1 7
1 8
1 9
1 10
1 11
1 12
1 13
1 14
1 15
1 16
1 17
1 18
1 19
1 20
1 21
1 22
1 23
1 24
POINT_DATA 25
VECTORS velocity double
-4.47812e-54 -0.00970858 0
-2.96684e-54 -0.00970858 0
-2.45538e-54 -0.00970858 0
-1.43912e-54 -0.00970858 0
1.88396e-54 -0.00970858 0
-1.3393e-55 -0.00970858 0
-1.54254e-54 -0.00970858 0
-3.96051e-54 -0.00970858 0
-4.51446e-54 -0.00970858 0
-5.2264e-54 -0.00970858 0
5.34239e-54 -0.00970858 0
8.9891e-55 -0.00970858 0
-2.96375e-54 -0.00970858 0
-1.91299e-54 -0.00970858 0
-4.36503e-54 -0.00970858 0
2.55525e-54 -0.00970858 0
-3.42534e-54 -0.00970858 0
4.39488e-54 -0.00970858 0
3.03857e-55 -0.00970858 0
-4.55506e-54 -0.00970858 0
-5.30355e-54 -0.00970858 0
-8.23723e-55 -0.00970858 0
4.00463e-55 -0.00970858 0
9.32218e-55 -0.00970858 0
4.91963e-54 -0.00970858 0
SCALARS radius double 1
LOOKUP_TABLE default
0.0005192
0.000759374
0.000731582
0.000932767
0.000864852
0.00092132
0.000824734
0.000662097
0.000535446
0.00094621
0.000999249
0.000802661
0.000671708
0.000819153
0.000645007
0.000827505
0.000602392
0.000772815
0.000550095
0.000626194
0.000886859
0.000531918
0.000790192
0.000909137
0.00096445
SCALARS mass double 1
LOOKUP_TABLE default
0.00228657
0.0048913
0.00453983
0.00738005
0.00634449
0.00720004
0.00576955
0.0037184
0.0024319
0.00759432
0.00846957
0.00546484
0.00382714
0.00569173
0.00352892
0.00580838
0.00307803
0.005066
0.00256678
0.00332607
0.00667148
0.00239995
0.00529637
0.00701087
0.00788992
