# vtk DataFile Version 3.0
DEM2D particles
ASCII
DATASET POLYDATA
POINTS 25 double
0.000210492 6.42515e-05 0
0.00247694 -0.000335038 0
0.00456711 0.000312289 0
0.00674628 0.000193575 0
0.00933215 0.0011107 0
0.000976388 0.00326488 0
0.00272805 0.00294932 0
0.00430175 0.00248051 0
0.00620408 0.0019032 0
0.00807857 0.00234916 0
0.00194188 0.00420184 0
0.00315848 0.00392091 0
0.00447748 0.00442512 0
0.00666273 0.00549767 0
0.00823043 0.00495019 0
0.0014505 0.00612051 0
0.0023961 0.00723388 0
0.00577483 0.00625896 0
0.00705357 0.00682057 0
0.00819693 0.00652629 0
6.49651e-05 0.00816748 0
0.00285477 0.00952748 0
0.0050706 0.00846027 0
0.00716435 0.00905528 0
0.00986735 0.00860419 0
VERTICES 25 50
1 0
1 1
1 2
1 3
1 4
1 5
1 6
1 7
1 8
1 9
1 10
1 11
1 12
1 13
1 14
1 15
1 16
1 17
1 18
1 19
1 20
1 21
1 22
1 23
1 24
POINT_DATA 25
VECTORS velocity double
-2.22532e-20 -0.00970858 0
-1.47432e-20 -0.00970858 0
-1.22016e-20 -0.00970858 0
-7.15147e-21 -0.00970858 0
9.362e-21 -0.00970858 0
-6.65543e-22 -0.00970858 0
-7.66537e-21 -0.00970858 0
-1.96811e-20 -0.00970858 0
-2.24339e-20 -0.00970858 0
-2.59717e-20 -0.00970858 0
2.65481e-20 -0.00970858 0
4.46698e-21 -0.00970858 0
-1.47278e-20 -0.00970858 0
-9.50628e-21 -0.00970858 0
-2.16913e-20 -0.00970858 0
1.26979e-20 -0.00970858 0
-1.70216e-20 -0.00970858 0
2.18396e-20 -0.00970858 0
1.50996e-21 -0.00970858 0
-2.26356e-20 -0.00970858 0
-2.63551e-20 -0.00970858 0
-4.09335e-21 -0.00970858 0
1.99003e-21 -0.00970858 0
4.6325e-21 -0.00970858 0
2.44472e-20 -0.00970858 0
SCALARS radius double 1
LOOKUP_TABLE default
0.0005192
0.000759374
0.000731582
0.000932767
0.000864852
0.00092132
0.000824734
0.000662097
0.000535446
0.00094621
0.000999249
0.000802661
0.000671708
0.000819153
0.000645007
0.000827505
0.000602392
0.000772815
0.000550095
0.000626194
0.000886859
0.000531918
0.000790192
0.000909137
0.00096445
SCALARS mass double 1
LOOKUP_TABLE default
0.00228657
0.0048913
0.00453983
0.00738005
0.00634449
0.00720004
0.00576955
0.0037184
0.0024319
0.00759432
0.00846957
0.00546484
0.00382714
0.00569173
0.00352892
0.00580838
0.00307803
0.005066
0.00256678
0.00332607
0.00667148
0.00239995
0.00529637
0.00701087
0.00788992
