# vtk DataFile Version 3.0
DEM2D particles
ASCII
DATASET POLYDATA
POINTS 25 double
0.000210492 -0.00118621 0
0.00247694 -0.0015855 0
0.00456711 -0.000938176 0
0.00674628 -0.00105689 0
0.00933215 -0.000139764 0
0.000976388 0.00201441 0
0.00272805 0.00169886 0
0.00430175 0.00123005 0
0.00620408 0.000652732 0
0.00807857 0.00109869 0
0.00194188 0.00295137 0
0.00315848 0.00267045 0
0.00447748 0.00317465 0
0.00666273 0.0042472 0
0.00823043 0.00369972 0
0.0014505 0.00487005 0
0.0023961 0.00598341 0
0.00577483 0.00500849 0
0.00705357 0.00557011 0
0.00819693 0.00527582 0
6.49651e-05 0.00691701 0
0.00285477 0.00827702 0
0.0050706 0.0072098 0
0.00716435 0.00780482 0
0.00986735 0.00735373 0
VERTICES 25 50
1 0
1 1
1 2
1 3
1 4
1 5
1 6
1 7
1 8
1 9
1 10
1 11
1 12
1 13
1 14
1 15
1 16
1 17
1 18
1 19
1 20
1 21
1 22
1 23
1 24
POINT_DATA 25
VECTORS velocity double
-1.34493e-76 -0.00970858 0
-8.91041e-77 -0.00970858 0
-7.37434e-77 -0.00970858 0
-4.32217e-77 -0.00970858 0
5.65816e-77 -0.00970858 0
-4.02237e-78 -0.00970858 0
-4.63276e-77 -0.00970858 0
-1.18947e-76 -0.00970858 0
-1.35585e-76 -0.00970858 0
-1.56967e-76 -0.00970858 0
1.6045e-76 -0.00970858 0
2.69973e-77 -0.00970858 0
-8.90113e-77 -0.00970858 0
-5.74536e-77 -0.00970858 0
-1.31097e-76 -0.00970858 0
7.67429e-77 -0.00970858 0
-1.02874e-76 -0.00970858 0
1.31993e-76 -0.00970858 0
9.12585e-78 -0.00970858 0
-1.36804e-76 -0.00970858 0
-1.59284e-76 -0.00970858 0
-2.47392e-77 -0.00970858 0
1.20273e-77 -0.00970858 0
2.79977e-77 -0.00970858 0
1.47753e-76 -0.00970858 0
SCALARS radius double 1
LOOKUP_TABLE default
0.0005192
0.000759374
0.000731582
0.000932767
0.000864852
0.00092132
0.000824734
0.000662097
0.000535446
0.00094621
0.000999249
0.000802661
0.000671708
0.000819153
0.000645007
0.000827505
0.000602392
0.000772815
0.000550095
0.000626194
0.000886859
0.000531918
0.000790192
0.000909137
0.00096445
SCALARS mass double 1
LOOKUP_TABLE default
0.00228657
0.0048913
0.00453983
0.00738005
0.00634449
0.00720004
0.00576955
0.0037184
0.0024319
0.00759432
0.00846957
0.00546484
0.00382714
0.00569173
0.00352892
0.00580838
0.00307803
0.005066
0.00256678
0.00332607
0.00667148
0.00239995
0.00529637
0.00701087
0.00788992
