# vtk DataFile Version 3.0
DEM2D particles
ASCII
DATASET POLYDATA
POINTS 25 double
0.000210492 -0.000999809 0
0.00247694 -0.0013991 0
0.00456711 -0.000751771 0
0.00674628 -0.000870485 0
0.00933215 4.6641e-05 0
0.000976388 0.00220082 0
0.00272805 0.00188526 0
0.00430175 0.00141645 0
0.00620408 0.000839136 0
0.00807857 0.0012851 0
0.00194188 0.00313778 0
0.00315848 0.00285685 0
0.00447748 0.00336106 0
0.00666273 0.00443361 0
0.00823043 0.00388613 0
0.0014505 0.00505645 0
0.0023961 0.00616982 0
0.00577483 0.0051949 0
0.00705357 0.00575651 0
0.00819693 0.00546223 0
6.49651e-05 0.00710342 0
0.00285477 0.00846342 0
0.0050706 0.00739621 0
0.00716435 0.00799122 0
0.00986735 0.00754013 0
VERTICES 25 50
1 0
1 1
1 2
1 3
1 4
1 5
1 6
1 7
1 8
1 9
1 10
1 11
1 12
1 13
1 14
1 15
1 16
1 17
1 18
1 19
1 20
1 21
1 22
1 23
1 24
POINT_DATA 25
VECTORS velocity double
-3.22943e-68 -0.00970858 0
-2.13956e-68 -0.00970858 0
-1.77072e-68 -0.00970858 0
-1.03783e-68 -0.00970858 0
1.35863e-68 -0.00970858 0
-9.65848e-70 -0.00970858 0
-1.11241e-68 -0.00970858 0
-2.85615e-68 -0.00970858 0
-3.25564e-68 -0.00970858 0
-3.76906e-68 -0.00970858 0
3.85271e-68 -0.00970858 0
6.48256e-69 -0.00970858 0
-2.13733e-68 -0.00970858 0
-1.37957e-68 -0.00970858 0
-3.14788e-68 -0.00970858 0
1.84274e-68 -0.00970858 0
-2.47021e-68 -0.00970858 0
3.1694e-68 -0.00970858 0
2.19129e-69 -0.00970858 0
-3.28491e-68 -0.00970858 0
-3.8247e-68 -0.00970858 0
-5.94035e-69 -0.00970858 0
2.88797e-69 -0.00970858 0
6.72277e-69 -0.00970858 0
3.54783e-68 -0.00970858 0
SCALARS radius double 1
LOOKUP_TABLE default
0.0005192
0.000759374
0.000731582
0.000932767
0.000864852
0.00092132
0.000824734
0.000662097
0.000535446
0.00094621
0.000999249
0.000802661
0.000671708
0.000819153
0.000645007
0.000827505
0.000602392
0.000772815
0.000550095
0.000626194
0.000886859
0.000531918
0.000790192
0.000909137
0.00096445
SCALARS mass double 1
LOOKUP_TABLE default
0.00228657
0.0048913
0.00453983
0.00738005
0.00634449
0.00720004
0.00576955
0.0037184
0.0024319
0.00759432
0.00846957
0.00546484
0.00382714
0.00569173
0.00352892
0.00580838
0.00307803
0.005066
0.00256678
0.00332607
0.00667148
0.00239995
0.00529637
0.00701087
0.00788992
