# vtk DataFile Version 3.0
DEM2D particles
ASCII
DATASET POLYDATA
POINTS 25 double
0.000213962 0.000448971 0
0.00247924 5.14368e-05 0
0.00456901 0.000695919 0
0.00674739 0.000577726 0
0.00933069 0.00149082 0
0.000976491 0.00364432 0
0.00272924 0.00333015 0
0.00430482 0.0028634 0
0.00620758 0.00228862 0
0.00808262 0.00273263 0
0.00193774 0.00458595 0
0.00315778 0.00430626 0
0.00447978 0.00480825 0
0.00666422 0.00587609 0
0.00823381 0.00533101 0
0.00144852 0.00650498 0
0.00239876 0.00761346 0
0.00577143 0.00664282 0
0.00705334 0.00720197 0
0.00820046 0.00690897 0
6.9075e-05 0.00855174 0
0.00285541 0.00990577 0
0.00507029 0.00884325 0
0.00716363 0.00943565 0
0.00986354 0.00898654 0
VERTICES 25 50
1 0
1 1
1 2
1 3
1 4
1 5
1 6
1 7
1 8
1 9
1 10
1 11
1 12
1 13
1 14
1 15
1 16
1 17
1 18
1 19
1 20
1 21
1 22
1 23
1 24
POINT_DATA 25
VECTORS velocity double
-0.00350531 -0.0119321 0
-0.00232233 -0.0137049 0
-0.00192199 -0.0108308 0
-0.00112649 -0.0113579 0
0.00147469 -0.00728599 0
-0.000104836 -0.00660147 0
-0.00120744 -0.00800248 0
-0.00310014 -0.0100839 0
-0.00353376 -0.0126471 0
-0.00409104 -0.0106671 0
0.00418183 -0.0113212 0
0.000703635 -0.0125685 0
-0.00231991 -0.0103299 0
-0.00149742 -0.00556791 0
-0.00341679 -0.00799865 0
0.00200016 -0.0116823 0
-0.00268123 -0.00673909 0
0.00344016 -0.0110676 0
0.000237848 -0.00857412 0
-0.00356553 -0.00988071 0
-0.00415143 -0.0114738 0
-0.000644781 -0.00543554 0
0.000313468 -0.0101738 0
0.000729707 -0.00753204 0
0.00385091 -0.00953482 0
SCALARS radius double 1
LOOKUP_TABLE default
0.0005192
0.000759374
0.000731582
0.000932767
0.000864852
0.00092132
0.000824734
0.000662097
0.000535446
0.00094621
0.000999249
0.000802661
0.000671708
0.000819153
0.000645007
0.000827505
0.000602392
0.000772815
0.000550095
0.000626194
0.000886859
0.000531918
0.000790192
0.000909137
0.00096445
SCALARS mass double 1
LOOKUP_TABLE default
0.00228657
0.0048913
0.00453983
0.00738005
0.00634449
0.00720004
0.00576955
0.0037184
0.0024319
0.00759432
0.00846957
0.00546484
0.00382714
0.00569173
0.00352892
0.00580838
0.00307803
0.005066
0.00256678
0.00332607
0.00667148
0.00239995
0.00529637
0.00701087
0.00788992
