# vtk DataFile Version 3.0
DEM2D particles
ASCII
DATASET POLYDATA
POINTS 25 double
0.000210492 -0.00084253 0
0.00247694 -0.00124182 0
0.00456711 -0.000594492 0
0.00674628 -0.000713206 0
0.00933215 0.00020392 0
0.000976388 0.00235809 0
0.00272805 0.00204254 0
0.00430175 0.00157373 0
0.00620408 0.000996415 0
0.00807857 0.00144238 0
0.00194188 0.00329506 0
0.00315848 0.00301413 0
0.00447748 0.00351833 0
0.00666273 0.00459089 0
0.00823043 0.00404341 0
0.0014505 0.00521373 0
0.0023961 0.0063271 0
0.00577483 0.00535218 0
0.00705357 0.00591379 0
0.00819693 0.0056195 0
6.49651e-05 0.00726069 0
0.00285477 0.0086207 0
0.0050706 0.00755349 0
0.00716435 0.0081485 0
0.00986735 0.00769741 0
VERTICES 25 50
1 0
1 1
1 2
1 3
1 4
1 5
1 6
1 7
1 8
1 9
1 10
1 11
1 12
1 13
1 14
1 15
1 16
1 17
1 18
1 19
1 20
1 21
1 22
1 23
1 24
POINT_DATA 25
VECTORS velocity double
-3.80286e-61 -0.00970858 0
-2.51947e-61 -0.00970858 0
-2.08514e-61 -0.00970858 0
-1.22212e-61 -0.00970858 0
1.59988e-61 -0.00970858 0
-1.13735e-62 -0.00970858 0
-1.30994e-61 -0.00970858 0
-3.3633e-61 -0.00970858 0
-3.83373e-61 -0.00970858 0
-4.43831e-61 -0.00970858 0
4.53681e-61 -0.00970858 0
7.63364e-62 -0.00970858 0
-2.51684e-61 -0.00970858 0
-1.62453e-61 -0.00970858 0
-3.70683e-61 -0.00970858 0
2.16995e-61 -0.00970858 0
-2.90883e-61 -0.00970858 0
3.73218e-61 -0.00970858 0
2.58038e-62 -0.00970858 0
-3.8682e-61 -0.00970858 0
-4.50383e-61 -0.00970858 0
-6.99514e-62 -0.00970858 0
3.40078e-62 -0.00970858 0
7.91649e-62 -0.00970858 0
4.1778e-61 -0.00970858 0
SCALARS radius double 1
LOOKUP_TABLE default
0.0005192
0.000759374
0.000731582
0.000932767
0.000864852
0.00092132
0.000824734
0.000662097
0.000535446
0.00094621
0.000999249
0.000802661
0.000671708
0.000819153
0.000645007
0.000827505
0.000602392
0.000772815
0.000550095
0.000626194
0.000886859
0.000531918
0.000790192
0.000909137
0.00096445
SCALARS mass double 1
LOOKUP_TABLE default
0.00228657
0.0048913
0.00453983
0.00738005
0.00634449
0.00720004
0.00576955
0.0037184
0.0024319
0.00759432
0.00846957
0.00546484
0.00382714
0.00569173
0.00352892
0.00580838
0.00307803
0.005066
0.00256678
0.00332607
0.00667148
0.00239995
0.00529637
0.00701087
0.00788992
