# vtk DataFile Version 3.0
DEM2D particles
ASCII
DATASET POLYDATA
POINTS 25 double
0.000210492 -0.000427003 0
0.00247694 -0.000826292 0
0.00456711 -0.000178965 0
0.00674628 -0.000297679 0
0.00933215 0.000619447 0
0.000976388 0.00277362 0
0.00272805 0.00245807 0
0.00430175 0.00198926 0
0.00620408 0.00141194 0
0.00807857 0.0018579 0
0.00194188 0.00371058 0
0.00315848 0.00342966 0
0.00447748 0.00393386 0
0.00666273 0.00500641 0
0.00823043 0.00445893 0
0.0014505 0.00562926 0
0.0023961 0.00674263 0
0.00577483 0.00576771 0
0.00705357 0.00632932 0
0.00819693 0.00603503 0
6.49651e-05 0.00767622 0
0.00285477 0.00903623 0
0.0050706 0.00796902 0
0.00716435 0.00856403 0
0.00986735 0.00811294 0
VERTICES 25 50
1 0
1 1
1 2
1 3
1 4
1 5
1 6
1 7
1 8
1 9
1 10
1 11
1 12
1 13
1 14
1 15
1 16
1 17
1 18
1 19
1 20
1 21
1 22
1 23
1 24
POINT_DATA 25
VECTORS velocity double
-1.8259e-42 -0.00970858 0
-1.20969e-42 -0.00970858 0
-1.00116e-42 -0.00970858 0
-5.86786e-43 -0.00970858 0
7.68163e-43 -0.00970858 0
-5.46086e-44 -0.00970858 0
-6.28953e-43 -0.00970858 0
-1.61485e-42 -0.00970858 0
-1.84072e-42 -0.00970858 0
-2.13101e-42 -0.00970858 0
2.1783e-42 -0.00970858 0
3.66521e-43 -0.00970858 0
-1.20844e-42 -0.00970858 0
-7.80001e-43 -0.00970858 0
-1.77979e-42 -0.00970858 0
1.04188e-42 -0.00970858 0
-1.39664e-42 -0.00970858 0
1.79197e-42 -0.00970858 0
1.23894e-43 -0.00970858 0
-1.85727e-42 -0.00970858 0
-2.16247e-42 -0.00970858 0
-3.35864e-43 -0.00970858 0
1.63285e-43 -0.00970858 0
3.80102e-43 -0.00970858 0
2.00592e-42 -0.00970858 0
SCALARS radius double 1
LOOKUP_TABLE default
0.0005192
0.000759374
0.000731582
0.000932767
0.000864852
0.00092132
0.000824734
0.000662097
0.000535446
0.00094621
0.000999249
0.000802661
0.000671708
0.000819153
0.000645007
0.000827505
0.000602392
0.000772815
0.000550095
0.000626194
0.000886859
0.000531918
0.000790192
0.000909137
0.00096445
SCALARS mass double 1
LOOKUP_TABLE default
0.00228657
0.0048913
0.00453983
0.00738005
0.00634449
0.00720004
0.00576955
0.0037184
0.0024319
0.00759432
0.00846957
0.00546484
0.00382714
0.00569173
0.00352892
0.00580838
0.00307803
0.005066
0.00256678
0.00332607
0.00667148
0.00239995
0.00529637
0.00701087
0.00788992
