# vtk DataFile Version 3.0
DEM2D particles
ASCII
DATASET POLYDATA
POINTS 25 double
0.000210492 -0.000623116 0
0.00247694 -0.00102241 0
0.00456711 -0.000375078 0
0.00674628 -0.000493792 0
0.00933215 0.000423334 0
0.000976388 0.00257751 0
0.00272805 0.00226196 0
0.00430175 0.00179314 0
0.00620408 0.00121583 0
0.00807857 0.00166179 0
0.00194188 0.00351447 0
0.00315848 0.00323355 0
0.00447748 0.00373775 0
0.00666273 0.0048103 0
0.00823043 0.00426282 0
0.0014505 0.00543314 0
0.0023961 0.00654651 0
0.00577483 0.00557159 0
0.00705357 0.0061332 0
0.00819693 0.00583892 0
6.49651e-05 0.00748011 0
0.00285477 0.00884011 0
0.0050706 0.0077729 0
0.00716435 0.00836792 0
0.00986735 0.00791682 0
VERTICES 25 50
1 0
1 1
1 2
1 3
1 4
1 5
1 6
1 7
1 8
1 9
1 10
1 11
1 12
1 13
1 14
1 15
1 16
1 17
1 18
1 19
1 20
1 21
1 22
1 23
1 24
POINT_DATA 25
VECTORS velocity double
-2.78337e-51 -0.00970858 0
-1.84403e-51 -0.00970858 0
-1.52614e-51 -0.00970858 0
-8.94485e-52 -0.00970858 0
1.17097e-51 -0.00970858 0
-8.32442e-53 -0.00970858 0
-9.58762e-52 -0.00970858 0
-2.46165e-51 -0.00970858 0
-2.80596e-51 -0.00970858 0
-3.24847e-51 -0.00970858 0
3.32056e-51 -0.00970858 0
5.58717e-52 -0.00970858 0
-1.84211e-51 -0.00970858 0
-1.18902e-51 -0.00970858 0
-2.71308e-51 -0.00970858 0
1.58822e-51 -0.00970858 0
-2.12901e-51 -0.00970858 0
2.73164e-51 -0.00970858 0
1.88862e-52 -0.00970858 0
-2.83119e-51 -0.00970858 0
-3.29642e-51 -0.00970858 0
-5.11985e-52 -0.00970858 0
2.48908e-52 -0.00970858 0
5.79419e-52 -0.00970858 0
3.05779e-51 -0.00970858 0
SCALARS radius double 1
LOOKUP_TABLE default
0.0005192
0.000759374
0.000731582
0.000932767
0.000864852
0.00092132
0.000824734
0.000662097
0.000535446
0.00094621
0.000999249
0.000802661
0.000671708
0.000819153
0.000645007
0.000827505
0.000602392
0.000772815
0.000550095
0.000626194
0.000886859
0.000531918
0.000790192
0.000909137
0.00096445
SCALARS mass double 1
LOOKUP_TABLE default
0.00228657
0.0048913
0.00453983
0.00738005
0.00634449
0.00720004
0.00576955
0.0037184
0.0024319
0.00759432
0.00846957
0.00546484
0.00382714
0.00569173
0.00352892
0.00580838
0.00307803
0.005066
0.00256678
0.00332607
0.00667148
0.00239995
0.00529637
0.00701087
0.00788992
