# vtk DataFile Version 3.0
DEM2D particles
ASCII
DATASET POLYDATA
POINTS 25 double
0.000210492 -0.000300791 0
0.00247694 -0.00070008 0
0.00456711 -5.27533e-05 0
0.00674628 -0.000171467 0
0.00933215 0.000745659 0
0.000976388 0.00289983 0
0.00272805 0.00258428 0
0.00430175 0.00211547 0
0.00620408 0.00153815 0
0.00807857 0.00198412 0
0.00194188 0.0038368 0
0.00315848 0.00355587 0
0.00447748 0.00406007 0
0.00666273 0.00513262 0
0.00823043 0.00458514 0
0.0014505 0.00575547 0
0.0023961 0.00686884 0
0.00577483 0.00589392 0
0.00705357 0.00645553 0
0.00819693 0.00616124 0
6.49651e-05 0.00780243 0
0.00285477 0.00916244 0
0.0050706 0.00809523 0
0.00716435 0.00869024 0
0.00986735 0.00823915 0
VERTICES 25 50
1 0
1 1
1 2
1 3
1 4
1 5
1 6
1 7
1 8
1 9
1 10
1 11
1 12
1 13
1 14
1 15
1 16
1 17
1 18
1 19
1 20
1 21
1 22
1 23
1 24
POINT_DATA 25
VECTORS velocity double
-8.62432e-37 -0.00970858 0
-5.71377e-37 -0.00970858 0
-4.72877e-37 -0.00970858 0
-2.77158e-37 -0.00970858 0
3.62828e-37 -0.00970858 0
-2.57934e-38 -0.00970858 0
-2.97074e-37 -0.00970858 0
-7.62746e-37 -0.00970858 0
-8.69432e-37 -0.00970858 0
-1.00654e-36 -0.00970858 0
1.02888e-36 -0.00970858 0
1.73119e-37 -0.00970858 0
-5.70782e-37 -0.00970858 0
-3.68419e-37 -0.00970858 0
-8.40653e-37 -0.00970858 0
4.92112e-37 -0.00970858 0
-6.59679e-37 -0.00970858 0
8.46402e-37 -0.00970858 0
5.85192e-38 -0.00970858 0
-8.77249e-37 -0.00970858 0
-1.0214e-36 -0.00970858 0
-1.58639e-37 -0.00970858 0
7.71245e-38 -0.00970858 0
1.79534e-37 -0.00970858 0
9.47462e-37 -0.00970858 0
SCALARS radius double 1
LOOKUP_TABLE default
0.0005192
0.000759374
0.000731582
0.000932767
0.000864852
0.00092132
0.000824734
0.000662097
0.000535446
0.00094621
0.000999249
0.000802661
0.000671708
0.000819153
0.000645007
0.000827505
0.000602392
0.000772815
0.000550095
0.000626194
0.000886859
0.000531918
0.000790192
0.000909137
0.00096445
SCALARS mass double 1
LOOKUP_TABLE default
0.00228657
0.0048913
0.00453983
0.00738005
0.00634449
0.00720004
0.00576955
0.0037184
0.0024319
0.00759432
0.00846957
0.00546484
0.00382714
0.00569173
0.00352892
0.00580838
0.00307803
0.005066
0.00256678
0.00332607
0.00667148
0.00239995
0.00529637
0.00701087
0.00788992
