# vtk DataFile Version 3.0
DEM2D particles
ASCII
DATASET POLYDATA
POINTS 25 double
0.000210492 -0.000318267 0
0.00247694 -0.000717556 0
0.00456711 -7.02288e-05 0
0.00674628 -0.000188943 0
0.00933215 0.000728184 0
0.000976388 0.00288236 0
0.00272805 0.00256681 0
0.00430175 0.00209799 0
0.00620408 0.00152068 0
0.00807857 0.00196664 0
0.00194188 0.00381932 0
0.00315848 0.00353839 0
0.00447748 0.0040426 0
0.00666273 0.00511515 0
0.00823043 0.00456767 0
0.0014505 0.00573799 0
0.0023961 0.00685136 0
0.00577483 0.00587644 0
0.00705357 0.00643805 0
0.00819693 0.00614377 0
6.49651e-05 0.00778496 0
0.00285477 0.00914496 0
0.0050706 0.00807775 0
0.00716435 0.00867276 0
0.00986735 0.00822167 0
VERTICES 25 50
1 0
1 1
1 2
1 3
1 4
1 5
1 6
1 7
1 8
1 9
1 10
1 11
1 12
1 13
1 14
1 15
1 16
1 17
1 18
1 19
1 20
1 21
1 22
1 23
1 24
POINT_DATA 25
VECTORS velocity double
-1.41273e-37 -0.00970858 0
-9.35961e-38 -0.00970858 0
-7.74611e-38 -0.00970858 0
-4.54006e-38 -0.00970858 0
5.9434e-38 -0.00970858 0
-4.22516e-39 -0.00970858 0
-4.86631e-38 -0.00970858 0
-1.24944e-37 -0.00970858 0
-1.4242e-37 -0.00970858 0
-1.6488e-37 -0.00970858 0
1.68539e-37 -0.00970858 0
2.83583e-38 -0.00970858 0
-9.34987e-38 -0.00970858 0
-6.035e-38 -0.00970858 0
-1.37706e-37 -0.00970858 0
8.06118e-38 -0.00970858 0
-1.08061e-37 -0.00970858 0
1.38647e-37 -0.00970858 0
9.58591e-39 -0.00970858 0
-1.437e-37 -0.00970858 0
-1.67314e-37 -0.00970858 0
-2.59864e-38 -0.00970858 0
1.26336e-38 -0.00970858 0
2.94091e-38 -0.00970858 0
1.55202e-37 -0.00970858 0
SCALARS radius double 1
LOOKUP_TABLE default
0.0005192
0.000759374
0.000731582
0.000932767
0.000864852
0.00092132
0.000824734
0.000662097
0.000535446
0.00094621
0.000999249
0.000802661
0.000671708
0.000819153
0.000645007
0.000827505
0.000602392
0.000772815
0.000550095
0.000626194
0.000886859
0.000531918
0.000790192
0.000909137
0.00096445
SCALARS mass double 1
LOOKUP_TABLE default
0.00228657
0.0048913
0.00453983
0.00738005
0.00634449
0.00720004
0.00576955
0.0037184
0.0024319
0.00759432
0.00846957
0.00546484
0.00382714
0.00569173
0.00352892
0.00580838
0.00307803
0.005066
0.00256678
0.00332607
0.00667148
0.00239995
0.00529637
0.00701087
0.00788992
