# vtk DataFile Version 3.0
DEM2D particles
ASCII
DATASET POLYDATA
POINTS 25 double
0.000210492 -0.0009668 0
0.00247694 -0.00136609 0
0.00456711 -0.000718762 0
0.00674628 -0.000837476 0
0.00933215 7.96501e-05 0
0.000976388 0.00223382 0
0.00272805 0.00191827 0
0.00430175 0.00144946 0
0.00620408 0.000872146 0
0.00807857 0.00131811 0
0.00194188 0.00317079 0
0.00315848 0.00288986 0
0.00447748 0.00339406 0
0.00666273 0.00446662 0
0.00823043 0.00391914 0
0.0014505 0.00508946 0
0.0023961 0.00620283 0
0.00577483 0.00522791 0
0.00705357 0.00578952 0
0.00819693 0.00549523 0
6.49651e-05 0.00713642 0
0.00285477 0.00849643 0
0.0050706 0.00742922 0
0.00716435 0.00802423 0
0.00986735 0.00757314 0
VERTICES 25 50
1 0
1 1
1 2
1 3
1 4
1 5
1 6
1 7
1 8
1 9
1 10
1 11
1 12
1 13
1 14
1 15
1 16
1 17
1 18
1 19
1 20
1 21
1 22
1 23
1 24
POINT_DATA 25
VECTORS velocity double
-9.84374e-67 -0.00970858 0
-6.52165e-67 -0.00970858 0
-5.39739e-67 -0.00970858 0
-3.16346e-67 -0.00970858 0
4.14129e-67 -0.00970858 0
-2.94403e-68 -0.00970858 0
-3.39078e-67 -0.00970858 0
-8.70593e-67 -0.00970858 0
-9.92363e-67 -0.00970858 0
-1.14886e-66 -0.00970858 0
1.17436e-66 -0.00970858 0
1.97597e-67 -0.00970858 0
-6.51486e-67 -0.00970858 0
-4.20511e-67 -0.00970858 0
-9.59515e-67 -0.00970858 0
5.61692e-67 -0.00970858 0
-7.52953e-67 -0.00970858 0
9.66077e-67 -0.00970858 0
6.67934e-68 -0.00970858 0
-1.00129e-66 -0.00970858 0
-1.16582e-66 -0.00970858 0
-1.8107e-67 -0.00970858 0
8.80293e-68 -0.00970858 0
2.04919e-67 -0.00970858 0
1.08143e-66 -0.00970858 0
SCALARS radius double 1
LOOKUP_TABLE default
0.0005192
0.000759374
0.000731582
0.000932767
0.000864852
0.00092132
0.000824734
0.000662097
0.000535446
0.00094621
0.000999249
0.000802661
0.000671708
0.000819153
0.000645007
0.000827505
0.000602392
0.000772815
0.000550095
0.000626194
0.000886859
0.000531918
0.000790192
0.000909137
0.00096445
SCALARS mass double 1
LOOKUP_TABLE default
0.00228657
0.0048913
0.00453983
0.00738005
0.00634449
0.00720004
0.00576955
0.0037184
0.0024319
0.00759432
0.00846957
0.00546484
0.00382714
0.00569173
0.00352892
0.00580838
0.00307803
0.005066
0.00256678
0.00332607
0.00667148
0.00239995
0.00529637
0.00701087
0.00788992
