# vtk DataFile Version 3.0
DEM2D particles
ASCII
DATASET POLYDATA
POINTS 25 double
0.000210492 -0.000613408 0
0.00247694 -0.0010127 0
0.00456711 -0.00036537 0
0.00674628 -0.000484084 0
0.00933215 0.000433043 0
0.000976388 0.00258722 0
0.00272805 0.00227166 0
0.00430175 0.00180285 0
0.00620408 0.00122554 0
0.00807857 0.0016715 0
0.00194188 0.00352418 0
0.00315848 0.00324325 0
0.00447748 0.00374746 0
0.00666273 0.00482001 0
0.00823043 0.00427253 0
0.0014505 0.00544285 0
0.0023961 0.00655622 0
0.00577483 0.0055813 0
0.00705357 0.00614291 0
0.00819693 0.00584863 0
6.49651e-05 0.00748982 0
0.00285477 0.00884982 0
0.0050706 0.00778261 0
0.00716435 0.00837762 0
0.00986735 0.00792653 0
VERTICES 25 50
1 0
1 1
1 2
1 3
1 4
1 5
1 6
1 7
1 8
1 9
1 10
1 11
1 12
1 13
1 14
1 15
1 16
1 17
1 18
1 19
1 20
1 21
1 22
1 23
1 24
POINT_DATA 25
VECTORS velocity double
-7.60417e-51 -0.00970858 0
-5.0379e-51 -0.00970858 0
-4.16942e-51 -0.00970858 0
-2.44373e-51 -0.00970858 0
3.19909e-51 -0.00970858 0
-2.27423e-52 -0.00970858 0
-2.61934e-51 -0.00970858 0
-6.72523e-51 -0.00970858 0
-7.66588e-51 -0.00970858 0
-8.87481e-51 -0.00970858 0
9.07176e-51 -0.00970858 0
1.52641e-51 -0.00970858 0
-5.03265e-51 -0.00970858 0
-3.24839e-51 -0.00970858 0
-7.41213e-51 -0.00970858 0
4.33901e-51 -0.00970858 0
-5.81647e-51 -0.00970858 0
7.46282e-51 -0.00970858 0
5.15971e-52 -0.00970858 0
-7.73481e-51 -0.00970858 0
-9.00581e-51 -0.00970858 0
-1.39874e-51 -0.00970858 0
6.80015e-52 -0.00970858 0
1.58297e-51 -0.00970858 0
8.35388e-51 -0.00970858 0
SCALARS radius double 1
LOOKUP_TABLE default
0.0005192
0.000759374
0.000731582
0.000932767
0.000864852
0.00092132
0.000824734
0.000662097
0.000535446
0.00094621
0.000999249
0.000802661
0.000671708
0.000819153
0.000645007
0.000827505
0.000602392
0.000772815
0.000550095
0.000626194
0.000886859
0.000531918
0.000790192
0.000909137
0.00096445
SCALARS mass double 1
LOOKUP_TABLE default
0.00228657
0.0048913
0.00453983
0.00738005
0.00634449
0.00720004
0.00576955
0.0037184
0.0024319
0.00759432
0.00846957
0.00546484
0.00382714
0.00569173
0.00352892
0.00580838
0.00307803
0.005066
0.00256678
0.00332607
0.00667148
0.00239995
0.00529637
0.00701087
0.00788992
