# vtk DataFile Version 3.0
DEM2D particles
ASCII
DATASET POLYDATA
POINTS 25 double
0.000210492 -0.000359043 0
0.00247694 -0.000758332 0
0.00456711 -0.000111005 0
0.00674628 -0.000229719 0
0.00933215 0.000687407 0
0.000976388 0.00284158 0
0.00272805 0.00252603 0
0.00430175 0.00205722 0
0.00620408 0.0014799 0
0.00807857 0.00192586 0
0.00194188 0.00377854 0
0.00315848 0.00349762 0
0.00447748 0.00400182 0
0.00666273 0.00507437 0
0.00823043 0.00452689 0
0.0014505 0.00569722 0
0.0023961 0.00681059 0
0.00577483 0.00583567 0
0.00705357 0.00639728 0
0.00819693 0.00610299 0
6.49651e-05 0.00774418 0
0.00285477 0.00910419 0
0.0050706 0.00803698 0
0.00716435 0.00863199 0
0.00986735 0.0081809 0
VERTICES 25 50
1 0
1 1
1 2
1 3
1 4
1 5
1 6
1 7
1 8
1 9
1 10
1 11
1 12
1 13
1 14
1 15
1 16
1 17
1 18
1 19
1 20
1 21
1 22
1 23
1 24
POINT_DATA 25
VECTORS velocity double
-2.07416e-39 -0.00970858 0
-1.37417e-39 -0.00970858 0
-1.13727e-39 -0.00970858 0
-6.66567e-40 -0.00970858 0
8.72604e-40 -0.00970858 0
-6.20332e-41 -0.00970858 0
-7.14466e-40 -0.00970858 0
-1.83441e-39 -0.00970858 0
-2.09099e-39 -0.00970858 0
-2.42074e-39 -0.00970858 0
2.47447e-39 -0.00970858 0
4.16354e-40 -0.00970858 0
-1.37274e-39 -0.00970858 0
-8.86051e-40 -0.00970858 0
-2.02178e-39 -0.00970858 0
1.18353e-39 -0.00970858 0
-1.58653e-39 -0.00970858 0
2.0356e-39 -0.00970858 0
1.40739e-40 -0.00970858 0
-2.10979e-39 -0.00970858 0
-2.45648e-39 -0.00970858 0
-3.81529e-40 -0.00970858 0
1.85485e-40 -0.00970858 0
4.31781e-40 -0.00970858 0
2.27865e-39 -0.00970858 0
SCALARS radius double 1
LOOKUP_TABLE default
0.0005192
0.000759374
0.000731582
0.000932767
0.000864852
0.00092132
0.000824734
0.000662097
0.000535446
0.00094621
0.000999249
0.000802661
0.000671708
0.000819153
0.000645007
0.000827505
0.000602392
0.000772815
0.000550095
0.000626194
0.000886859
0.000531918
0.000790192
0.000909137
0.00096445
SCALARS mass double 1
LOOKUP_TABLE default
0.00228657
0.0048913
0.00453983
0.00738005
0.00634449
0.00720004
0.00576955
0.0037184
0.0024319
0.00759432
0.00846957
0.00546484
0.00382714
0.00569173
0.00352892
0.00580838
0.00307803
0.005066
0.00256678
0.00332607
0.00667148
0.00239995
0.00529637
0.00701087
0.00788992
