# vtk DataFile Version 3.0
DEM2D particles
ASCII
DATASET POLYDATA
POINTS 25 double
0.000211341 0.000433717 0
0.0024775 3.48572e-05 0
0.00456757 0.000681488 0
0.00674655 0.000562901 0
0.00933179 0.00147904 0
0.000976413 0.00363305 0
0.00272834 0.00331784 0
0.0043025 0.00284953 0
0.00620494 0.00227284 0
0.00807956 0.00271832 0
0.00194087 0.00457116 0
0.00315831 0.00429053 0
0.00447804 0.00479419 0
0.0066631 0.00586559 0
0.00823126 0.0053187 0
0.00145002 0.00648992 0
0.00239675 0.00760209 0
0.005774 0.00662822 0
0.00705351 0.00718922 0
0.00819779 0.00689525 0
6.59714e-05 0.00853683 0
0.00285493 0.00989537 0
0.00507053 0.00882931 0
0.00716418 0.00942368 0
0.00986641 0.00897308 0
VERTICES 25 50
1 0
1 1
1 2
1 3
1 4
1 5
1 6
1 7
1 8
1 9
1 10
1 11
1 12
1 13
1 14
1 15
1 16
1 17
1 18
1 19
1 20
1 21
1 22
1 23
1 24
POINT_DATA 25
VECTORS velocity double
-0.000858329 -0.010253 0
-0.000568659 -0.0106871 0
-0.000470628 -0.00998338 0
-0.000275839 -0.0101124 0
0.000361101 -0.00911537 0
-2.56706e-05 -0.00894776 0
-0.000295661 -0.00929082 0
-0.000759118 -0.0098005 0
-0.000865295 -0.0104281 0
-0.00100175 -0.0099433 0
0.00102399 -0.0101035 0
0.000172296 -0.0104089 0
-0.000568066 -0.00986072 0
-0.000366666 -0.00869468 0
-0.000836653 -0.00928988 0
0.00048977 -0.0101919 0
-0.00065654 -0.00898146 0
0.000842375 -0.0100414 0
5.82408e-05 -0.00943079 0
-0.000873076 -0.00975073 0
-0.00101654 -0.0101408 0
-0.000157885 -0.00866226 0
7.67575e-05 -0.0098225 0
0.00017868 -0.00917562 0
0.000942954 -0.00966604 0
SCALARS radius double 1
LOOKUP_TABLE default
0.0005192
0.000759374
0.000731582
0.000932767
0.000864852
0.00092132
0.000824734
0.000662097
0.000535446
0.00094621
0.000999249
0.000802661
0.000671708
0.000819153
0.000645007
0.000827505
0.000602392
0.000772815
0.000550095
0.000626194
0.000886859
0.000531918
0.000790192
0.000909137
0.00096445
SCALARS mass double 1
LOOKUP_TABLE default
0.00228657
0.0048913
0.00453983
0.00738005
0.00634449
0.00720004
0.00576955
0.0037184
0.0024319
0.00759432
0.00846957
0.00546484
0.00382714
0.00569173
0.00352892
0.00580838
0.00307803
0.005066
0.00256678
0.00332607
0.00667148
0.00239995
0.00529637
0.00701087
0.00788992
