# vtk DataFile Version 3.0
DEM2D particles
ASCII
DATASET POLYDATA
POINTS 25 double
0.000210492 -0.000376518 0
0.00247694 -0.000775807 0
0.00456711 -0.00012848 0
0.00674628 -0.000247194 0
0.00933215 0.000669932 0
0.000976388 0.00282411 0
0.00272805 0.00250855 0
0.00430175 0.00203974 0
0.00620408 0.00146243 0
0.00807857 0.00190839 0
0.00194188 0.00376107 0
0.00315848 0.00348014 0
0.00447748 0.00398435 0
0.00666273 0.0050569 0
0.00823043 0.00450942 0
0.0014505 0.00567974 0
0.0023961 0.00679311 0
0.00577483 0.00581819 0
0.00705357 0.0063798 0
0.00819693 0.00608552 0
6.49651e-05 0.00772671 0
0.00285477 0.00908671 0
0.0050706 0.0080195 0
0.00716435 0.00861451 0
0.00986735 0.00816342 0
VERTICES 25 50
1 0
1 1
1 2
1 3
1 4
1 5
1 6
1 7
1 8
1 9
1 10
1 11
1 12
1 13
1 14
1 15
1 16
1 17
1 18
1 19
1 20
1 21
1 22
1 23
1 24
POINT_DATA 25
VECTORS velocity double
-3.39764e-40 -0.00970858 0
-2.251e-40 -0.00970858 0
-1.86295e-40 -0.00970858 0
-1.09189e-40 -0.00970858 0
1.42939e-40 -0.00970858 0
-1.01615e-41 -0.00970858 0
-1.17035e-40 -0.00970858 0
-3.00491e-40 -0.00970858 0
-3.42521e-40 -0.00970858 0
-3.96537e-40 -0.00970858 0
4.05337e-40 -0.00970858 0
6.82021e-41 -0.00970858 0
-2.24865e-40 -0.00970858 0
-1.45142e-40 -0.00970858 0
-3.31183e-40 -0.00970858 0
1.93872e-40 -0.00970858 0
-2.59887e-40 -0.00970858 0
3.33448e-40 -0.00970858 0
2.30542e-41 -0.00970858 0
-3.45601e-40 -0.00970858 0
-4.02391e-40 -0.00970858 0
-6.24975e-41 -0.00970858 0
3.03839e-41 -0.00970858 0
7.07292e-41 -0.00970858 0
3.73262e-40 -0.00970858 0
SCALARS radius double 1
LOOKUP_TABLE default
0.0005192
0.000759374
0.000731582
0.000932767
0.000864852
0.00092132
0.000824734
0.000662097
0.000535446
0.00094621
0.000999249
0.000802661
0.000671708
0.000819153
0.000645007
0.000827505
0.000602392
0.000772815
0.000550095
0.000626194
0.000886859
0.000531918
0.000790192
0.000909137
0.00096445
SCALARS mass double 1
LOOKUP_TABLE default
0.00228657
0.0048913
0.00453983
0.00738005
0.00634449
0.00720004
0.00576955
0.0037184
0.0024319
0.00759432
0.00846957
0.00546484
0.00382714
0.00569173
0.00352892
0.00580838
0.00307803
0.005066
0.00256678
0.00332607
0.00667148
0.00239995
0.00529637
0.00701087
0.00788992
