# vtk DataFile Version 3.0
DEM2D particles
ASCII
DATASET POLYDATA
POINTS 25 double
0.000210492 -0.000836705 0
0.00247694 -0.00123599 0
0.00456711 -0.000588667 0
0.00674628 -0.000707381 0
0.00933215 0.000209745 0
0.000976388 0.00236392 0
0.00272805 0.00204837 0
0.00430175 0.00157956 0
0.00620408 0.00100224 0
0.00807857 0.0014482 0
0.00194188 0.00330088 0
0.00315848 0.00301996 0
0.00447748 0.00352416 0
0.00666273 0.00459671 0
0.00823043 0.00404923 0
0.0014505 0.00521956 0
0.0023961 0.00633292 0
0.00577483 0.005358 0
0.00705357 0.00591962 0
0.00819693 0.00562533 0
6.49651e-05 0.00726652 0
0.00285477 0.00862653 0
0.0050706 0.00755931 0
0.00716435 0.00815433 0
0.00986735 0.00770324 0
VERTICES 25 50
1 0
1 1
1 2
1 3
1 4
1 5
1 6
1 7
1 8
1 9
1 10
1 11
1 12
1 13
1 14
1 15
1 16
1 17
1 18
1 19
1 20
1 21
1 22
1 23
1 24
POINT_DATA 25
VECTORS velocity double
-6.95023e-61 -0.00970858 0
-4.60465e-61 -0.00970858 0
-3.81086e-61 -0.00970858 0
-2.23358e-61 -0.00970858 0
2.92398e-61 -0.00970858 0
-2.07865e-62 -0.00970858 0
-2.39408e-61 -0.00970858 0
-6.14688e-61 -0.00970858 0
-7.00664e-61 -0.00970858 0
-8.1116e-61 -0.00970858 0
8.29162e-61 -0.00970858 0
1.39515e-61 -0.00970858 0
-4.59986e-61 -0.00970858 0
-2.96904e-61 -0.00970858 0
-6.77471e-61 -0.00970858 0
3.96586e-61 -0.00970858 0
-5.31627e-61 -0.00970858 0
6.82104e-61 -0.00970858 0
4.71599e-62 -0.00970858 0
-7.06964e-61 -0.00970858 0
-8.23134e-61 -0.00970858 0
-1.27845e-61 -0.00970858 0
6.21536e-62 -0.00970858 0
1.44684e-61 -0.00970858 0
7.63547e-61 -0.00970858 0
SCALARS radius double 1
LOOKUP_TABLE default
0.0005192
0.000759374
0.000731582
0.000932767
0.000864852
0.00092132
0.000824734
0.000662097
0.000535446
0.00094621
0.000999249
0.000802661
0.000671708
0.000819153
0.000645007
0.000827505
0.000602392
0.000772815
0.000550095
0.000626194
0.000886859
0.000531918
0.000790192
0.000909137
0.00096445
SCALARS mass double 1
LOOKUP_TABLE default
0.00228657
0.0048913
0.00453983
0.00738005
0.00634449
0.00720004
0.00576955
0.0037184
0.0024319
0.00759432
0.00846957
0.00546484
0.00382714
0.00569173
0.00352892
0.00580838
0.00307803
0.005066
0.00256678
0.00332607
0.00667148
0.00239995
0.00529637
0.00701087
0.00788992
