# vtk DataFile Version 3.0
DEM2D particles
ASCII
DATASET POLYDATA
POINTS 25 double
0.000210662 0.000417752 0
0.00247705 1.85488e-05 0
0.0045672 0.000665736 0
0.00674633 0.000547048 0
0.00933208 0.00146398 0
0.000976393 0.00361812 0
0.0027281 0.00330263 0
0.0043019 0.00283392 0
0.00620426 0.00225673 0
0.00807877 0.0027026 0
0.00194168 0.00455531 0
0.00315845 0.00427444 0
0.00447759 0.00477854 0
0.00666281 0.00585086 0
0.0082306 0.0053035 0
0.0014504 0.006474 0
0.00239623 0.00758713 0
0.00577467 0.00661242 0
0.00705356 0.00717391 0
0.0081971 0.00687969 0
6.51666e-05 0.00852095 0
0.00285481 0.00988067 0
0.00507059 0.00881368 0
0.00716432 0.00940857 0
0.00986716 0.00895758 0
VERTICES 25 50
1 0
1 1
1 2
1 3
1 4
1 5
1 6
1 7
1 8
1 9
1 10
1 11
1 12
1 13
1 14
1 15
1 16
1 17
1 18
1 19
1 20
1 21
1 22
1 23
1 24
POINT_DATA 25
VECTORS velocity double
-0.000171904 -0.00981763 0
-0.000113889 -0.00990457 0
-9.42559e-05 -0.00976362 0
-5.52442e-05 -0.00978947 0
7.23203e-05 -0.00958978 0
-5.14124e-06 -0.00955621 0
-5.92141e-05 -0.00962491 0
-0.000152034 -0.00972699 0
-0.000173299 -0.00985269 0
-0.000200628 -0.00975559 0
0.000205081 -0.00978767 0
3.45069e-05 -0.00984884 0
-0.000113771 -0.00973905 0
-7.34348e-05 -0.00950552 0
-0.000167562 -0.00962473 0
9.80897e-05 -0.00980538 0
-0.00013149 -0.00956296 0
0.000168708 -0.00977523 0
1.16643e-05 -0.00965295 0
-0.000174857 -0.00971702 0
-0.00020359 -0.00979515 0
-3.16207e-05 -0.00949903 0
1.53728e-05 -0.0097314 0
3.57855e-05 -0.00960184 0
0.000188852 -0.00970006 0
SCALARS radius double 1
LOOKUP_TABLE default
0.0005192
0.000759374
0.000731582
0.000932767
0.000864852
0.00092132
0.000824734
0.000662097
0.000535446
0.00094621
0.000999249
0.000802661
0.000671708
0.000819153
0.000645007
0.000827505
0.000602392
0.000772815
0.000550095
0.000626194
0.000886859
0.000531918
0.000790192
0.000909137
0.00096445
SCALARS mass double 1
LOOKUP_TABLE default
0.00228657
0.0048913
0.00453983
0.00738005
0.00634449
0.00720004
0.00576955
0.0037184
0.0024319
0.00759432
0.00846957
0.00546484
0.00382714
0.00569173
0.00352892
0.00580838
0.00307803
0.005066
0.00256678
0.00332607
0.00667148
0.00239995
0.00529637
0.00701087
0.00788992
