# vtk DataFile Version 3.0
DEM2D particles
ASCII
DATASET POLYDATA
POINTS 25 double
0.000210492 -0.000133804 0
0.00247694 -0.000533093 0
0.00456711 0.000114234 0
0.00674628 -4.47982e-06 0
0.00933215 0.000912647 0
0.000976388 0.00306682 0
0.00272805 0.00275127 0
0.00430175 0.00228246 0
0.00620408 0.00170514 0
0.00807857 0.0021511 0
0.00194188 0.00400378 0
0.00315848 0.00372286 0
0.00447748 0.00422706 0
0.00666273 0.00529961 0
0.00823043 0.00475213 0
0.0014505 0.00592246 0
0.0023961 0.00703583 0
0.00577483 0.0060609 0
0.00705357 0.00662252 0
0.00819693 0.00632823 0
6.49651e-05 0.00796942 0
0.00285477 0.00932943 0
0.0050706 0.00826221 0
0.00716435 0.00885723 0
0.00986735 0.00840614 0
VERTICES 25 50
1 0
1 1
1 2
1 3
1 4
1 5
1 6
1 7
1 8
1 9
1 10
1 11
1 12
1 13
1 14
1 15
1 16
1 17
1 18
1 19
1 20
1 21
1 22
1 23
1 24
POINT_DATA 25
VECTORS velocity double
-2.77454e-29 -0.00970858 0
-1.83818e-29 -0.00970858 0
-1.5213e-29 -0.00970858 0
-8.91645e-30 -0.00970858 0
1.16725e-29 -0.00970858 0
-8.29799e-31 -0.00970858 0
-9.55719e-30 -0.00970858 0
-2.45384e-29 -0.00970858 0
-2.79705e-29 -0.00970858 0
-3.23815e-29 -0.00970858 0
3.31002e-29 -0.00970858 0
5.56943e-30 -0.00970858 0
-1.83627e-29 -0.00970858 0
-1.18524e-29 -0.00970858 0
-2.70447e-29 -0.00970858 0
1.58317e-29 -0.00970858 0
-2.12226e-29 -0.00970858 0
2.72296e-29 -0.00970858 0
1.88262e-30 -0.00970858 0
-2.8222e-29 -0.00970858 0
-3.28595e-29 -0.00970858 0
-5.10359e-30 -0.00970858 0
2.48118e-30 -0.00970858 0
5.7758e-30 -0.00970858 0
3.04808e-29 -0.00970858 0
SCALARS radius double 1
LOOKUP_TABLE default
0.0005192
0.000759374
0.000731582
0.000932767
0.000864852
0.00092132
0.000824734
0.000662097
0.000535446
0.00094621
0.000999249
0.000802661
0.000671708
0.000819153
0.000645007
0.000827505
0.000602392
0.000772815
0.000550095
0.000626194
0.000886859
0.000531918
0.000790192
0.000909137
0.00096445
SCALARS mass double 1
LOOKUP_TABLE default
0.00228657
0.0048913
0.00453983
0.00738005
0.00634449
0.00720004
0.00576955
0.0037184
0.0024319
0.00759432
0.00846957
0.00546484
0.00382714
0.00569173
0.00352892
0.00580838
0.00307803
0.005066
0.00256678
0.00332607
0.00667148
0.00239995
0.00529637
0.00701087
0.00788992
