# vtk DataFile Version 3.0
DEM2D particles
ASCII
DATASET POLYDATA
POINTS 25 double
0.000210492 -0.000881365 0
0.00247694 -0.00128065 0
0.00456711 -0.000633327 0
0.00674628 -0.000752041 0
0.00933215 0.000165086 0
0.000976388 0.00231926 0
0.00272805 0.00200371 0
0.00430175 0.0015349 0
0.00620408 0.000957581 0
0.00807857 0.00140354 0
0.00194188 0.00325622 0
0.00315848 0.0029753 0
0.00447748 0.0034795 0
0.00666273 0.00455205 0
0.00823043 0.00400457 0
0.0014505 0.0051749 0
0.0023961 0.00628826 0
0.00577483 0.00531334 0
0.00705357 0.00587496 0
0.00819693 0.00558067 0
6.49651e-05 0.00722186 0
0.00285477 0.00858187 0
0.0050706 0.00751465 0
0.00716435 0.00810967 0
0.00986735 0.00765858 0
VERTICES 25 50
1 0
1 1
1 2
1 3
1 4
1 5
1 6
1 7
1 8
1 9
1 10
1 11
1 12
1 13
1 14
1 15
1 16
1 17
1 18
1 19
1 20
1 21
1 22
1 23
1 24
POINT_DATA 25
VECTORS velocity double
-6.82635e-63 -0.00970858 0
-4.52258e-63 -0.00970858 0
-3.74293e-63 -0.00970858 0
-2.19377e-63 -0.00970858 0
2.87186e-63 -0.00970858 0
-2.0416e-64 -0.00970858 0
-2.35141e-63 -0.00970858 0
-6.03732e-63 -0.00970858 0
-6.88176e-63 -0.00970858 0
-7.96702e-63 -0.00970858 0
8.14383e-63 -0.00970858 0
1.37028e-63 -0.00970858 0
-4.51787e-63 -0.00970858 0
-2.91612e-63 -0.00970858 0
-6.65396e-63 -0.00970858 0
3.89518e-63 -0.00970858 0
-5.22151e-63 -0.00970858 0
6.69947e-63 -0.00970858 0
4.63193e-64 -0.00970858 0
-6.94363e-63 -0.00970858 0
-8.08462e-63 -0.00970858 0
-1.25567e-63 -0.00970858 0
6.10458e-64 -0.00970858 0
1.42105e-63 -0.00970858 0
7.49938e-63 -0.00970858 0
SCALARS radius double 1
LOOKUP_TABLE default
0.0005192
0.000759374
0.000731582
0.000932767
0.000864852
0.00092132
0.000824734
0.000662097
0.000535446
0.00094621
0.000999249
0.000802661
0.000671708
0.000819153
0.000645007
0.000827505
0.000602392
0.000772815
0.000550095
0.000626194
0.000886859
0.000531918
0.000790192
0.000909137
0.00096445
SCALARS mass double 1
LOOKUP_TABLE default
0.00228657
0.0048913
0.00453983
0.00738005
0.00634449
0.00720004
0.00576955
0.0037184
0.0024319
0.00759432
0.00846957
0.00546484
0.00382714
0.00569173
0.00352892
0.00580838
0.00307803
0.005066
0.00256678
0.00332607
0.00667148
0.00239995
0.00529637
0.00701087
0.00788992
