# vtk DataFile Version 3.0
DEM2D particles
ASCII
DATASET POLYDATA
POINTS 25 double
0.000210492 -0.000345451 0
0.00247694 -0.00074474 0
0.00456711 -9.74128e-05 0
0.00674628 -0.000216127 0
0.00933215 0.000700999 0
0.000976388 0.00285517 0
0.00272805 0.00253962 0
0.00430175 0.00207081 0
0.00620408 0.00149349 0
0.00807857 0.00193946 0
0.00194188 0.00379214 0
0.00315848 0.00351121 0
0.00447748 0.00401541 0
0.00666273 0.00508797 0
0.00823043 0.00454049 0
0.0014505 0.00571081 0
0.0023961 0.00682418 0
0.00577483 0.00584926 0
0.00705357 0.00641087 0
0.00819693 0.00611658 0
6.49651e-05 0.00775777 0
0.00285477 0.00911778 0
0.0050706 0.00805057 0
0.00716435 0.00864558 0
0.00986735 0.00819449 0
VERTICES 25 50
1 0
1 1
1 2
1 3
1 4
1 5
1 6
1 7
1 8
1 9
1 10
1 11
1 12
1 13
1 14
1 15
1 16
1 17
1 18
1 19
1 20
1 21
1 22
1 23
1 24
POINT_DATA 25
VECTORS velocity double
-8.47061e-39 -0.00970858 0
-5.61193e-39 -0.00970858 0
-4.64449e-39 -0.00970858 0
-2.72218e-39 -0.00970858 0
3.56361e-39 -0.00970858 0
-2.53336e-40 -0.00970858 0
-2.91779e-39 -0.00970858 0
-7.49152e-39 -0.00970858 0
-8.53935e-39 -0.00970858 0
-9.88603e-39 -0.00970858 0
1.01054e-38 -0.00970858 0
1.70034e-39 -0.00970858 0
-5.60609e-39 -0.00970858 0
-3.61853e-39 -0.00970858 0
-8.25669e-39 -0.00970858 0
4.8334e-39 -0.00970858 0
-6.47921e-39 -0.00970858 0
8.31316e-39 -0.00970858 0
5.74762e-40 -0.00970858 0
-8.61614e-39 -0.00970858 0
-1.0032e-38 -0.00970858 0
-1.55812e-39 -0.00970858 0
7.57498e-40 -0.00970858 0
1.76334e-39 -0.00970858 0
9.30574e-39 -0.00970858 0
SCALARS radius double 1
LOOKUP_TABLE default
0.0005192
0.000759374
0.000731582
0.000932767
0.000864852
0.00092132
0.000824734
0.000662097
0.000535446
0.00094621
0.000999249
0.000802661
0.000671708
0.000819153
0.000645007
0.000827505
0.000602392
0.000772815
0.000550095
0.000626194
0.000886859
0.000531918
0.000790192
0.000909137
0.00096445
SCALARS mass double 1
LOOKUP_TABLE default
0.00228657
0.0048913
0.00453983
0.00738005
0.00634449
0.00720004
0.00576955
0.0037184
0.0024319
0.00759432
0.00846957
0.00546484
0.00382714
0.00569173
0.00352892
0.00580838
0.00307803
0.005066
0.00256678
0.00332607
0.00667148
0.00239995
0.00529637
0.00701087
0.00788992
