# vtk DataFile Version 3.0
DEM2D particles
ASCII
DATASET POLYDATA
POINTS 25 double
0.000210492 -0.00141534 0
0.00247694 -0.00181463 0
0.00456711 -0.0011673 0
0.00674628 -0.00128601 0
0.00933215 -0.000368886 0
0.000976388 0.00178529 0
0.00272805 0.00146974 0
0.00430175 0.00100092 0
0.00620408 0.000423609 0
0.00807857 0.00086957 0
0.00194188 0.00272225 0
0.00315848 0.00244132 0
0.00447748 0.00294553 0
0.00666273 0.00401808 0
0.00823043 0.0034706 0
0.0014505 0.00464092 0
0.0023961 0.00575429 0
0.00577483 0.00477937 0
0.00705357 0.00534098 0
0.00819693 0.0050467 0
6.49651e-05 0.00668789 0
0.00285477 0.00804789 0
0.0050706 0.00698068 0
0.00716435 0.0075757 0
0.00986735 0.0071246 0
VERTICES 25 50
1 0
1 1
1 2
1 3
1 4
1 5
1 6
1 7
1 8
1 9
1 10
1 11
1 12
1 13
1 14
1 15
1 16
1 17
1 18
1 19
1 20
1 21
1 22
1 23
1 24
POINT_DATA 25
VECTORS velocity double
-6.72603e-87 -0.00970858 0
-4.45612e-87 -0.00970858 0
-3.68793e-87 -0.00970858 0
-2.16153e-87 -0.00970858 0
2.82966e-87 -0.00970858 0
-2.0116e-88 -0.00970858 0
-2.31686e-87 -0.00970858 0
-5.94859e-87 -0.00970858 0
-6.78062e-87 -0.00970858 0
-7.84994e-87 -0.00970858 0
8.02415e-87 -0.00970858 0
1.35014e-87 -0.00970858 0
-4.45148e-87 -0.00970858 0
-2.87327e-87 -0.00970858 0
-6.55618e-87 -0.00970858 0
3.83793e-87 -0.00970858 0
-5.14478e-87 -0.00970858 0
6.60101e-87 -0.00970858 0
4.56386e-88 -0.00970858 0
-6.84159e-87 -0.00970858 0
-7.96581e-87 -0.00970858 0
-1.23721e-87 -0.00970858 0
6.01487e-88 -0.00970858 0
1.40017e-87 -0.00970858 0
7.38917e-87 -0.00970858 0
SCALARS radius double 1
LOOKUP_TABLE default
0.0005192
0.000759374
0.000731582
0.000932767
0.000864852
0.00092132
0.000824734
0.000662097
0.000535446
0.00094621
0.000999249
0.000802661
0.000671708
0.000819153
0.000645007
0.000827505
0.000602392
0.000772815
0.000550095
0.000626194
0.000886859
0.000531918
0.000790192
0.000909137
0.00096445
SCALARS mass double 1
LOOKUP_TABLE default
0.00228657
0.0048913
0.00453983
0.00738005
0.00634449
0.00720004
0.00576955
0.0037184
0.0024319
0.00759432
0.00846957
0.00546484
0.00382714
0.00569173
0.00352892
0.00580838
0.00307803
0.005066
0.00256678
0.00332607
0.00667148
0.00239995
0.00529637
0.00701087
0.00788992
