# vtk DataFile Version 3.0
DEM2D particles
ASCII
DATASET POLYDATA
POINTS 25 double
0.000210492 -6.9727e-05 0
0.00247694 -0.000469016 0
0.00456711 0.000178311 0
0.00674628 5.95968e-05 0
0.00933215 0.000976723 0
0.000976388 0.0031309 0
0.00272805 0.00281535 0
0.00430175 0.00234653 0
0.00620408 0.00176922 0
0.00807857 0.00221518 0
0.00194188 0.00406786 0
0.00315848 0.00378693 0
0.00447748 0.00429114 0
0.00666273 0.00536369 0
0.00823043 0.00481621 0
0.0014505 0.00598653 0
0.0023961 0.0070999 0
0.00577483 0.00612498 0
0.00705357 0.00668659 0
0.00819693 0.00639231 0
6.49651e-05 0.0080335 0
0.00285477 0.0093935 0
0.0050706 0.00832629 0
0.00716435 0.0089213 0
0.00986735 0.00847021 0
VERTICES 25 50
1 0
1 1
1 2
1 3
1 4
1 5
1 6
1 7
1 8
1 9
1 10
1 11
1 12
1 13
1 14
1 15
1 16
1 17
1 18
1 19
1 20
1 21
1 22
1 23
1 24
POINT_DATA 25
VECTORS velocity double
-2.10844e-26 -0.00970858 0
-1.39688e-26 -0.00970858 0
-1.15607e-26 -0.00970858 0
-6.77585e-27 -0.00970858 0
8.87028e-27 -0.00970858 0
-6.30586e-28 -0.00970858 0
-7.26276e-27 -0.00970858 0
-1.86473e-26 -0.00970858 0
-2.12556e-26 -0.00970858 0
-2.46076e-26 -0.00970858 0
2.51537e-26 -0.00970858 0
4.23236e-27 -0.00970858 0
-1.39543e-26 -0.00970858 0
-9.00698e-27 -0.00970858 0
-2.0552e-26 -0.00970858 0
1.2031e-26 -0.00970858 0
-1.61276e-26 -0.00970858 0
2.06925e-26 -0.00970858 0
1.43066e-27 -0.00970858 0
-2.14467e-26 -0.00970858 0
-2.49708e-26 -0.00970858 0
-3.87836e-27 -0.00970858 0
1.88551e-27 -0.00970858 0
4.38918e-27 -0.00970858 0
2.31632e-26 -0.00970858 0
SCALARS radius double 1
LOOKUP_TABLE default
0.0005192
0.000759374
0.000731582
0.000932767
0.000864852
0.00092132
0.000824734
0.000662097
0.000535446
0.00094621
0.000999249
0.000802661
0.000671708
0.000819153
0.000645007
0.000827505
0.000602392
0.000772815
0.000550095
0.000626194
0.000886859
0.000531918
0.000790192
0.000909137
0.00096445
SCALARS mass double 1
LOOKUP_TABLE default
0.00228657
0.0048913
0.00453983
0.00738005
0.00634449
0.00720004
0.00576955
0.0037184
0.0024319
0.00759432
0.00846957
0.00546484
0.00382714
0.00569173
0.00352892
0.00580838
0.00307803
0.005066
0.00256678
0.00332607
0.00667148
0.00239995
0.00529637
0.00701087
0.00788992
