# vtk DataFile Version 3.0
DEM2D particles
ASCII
DATASET POLYDATA
POINTS 25 double
0.000210492 0.00031085 0
0.00247694 -8.84397e-05 0
0.00456711 0.000558887 0
0.00674628 0.000440173 0
0.00933215 0.0013573 0
0.000976388 0.00351147 0
0.00272805 0.00319592 0
0.00430175 0.00272711 0
0.00620408 0.0021498 0
0.00807857 0.00259576 0
0.00194188 0.00444844 0
0.00315848 0.00416751 0
0.00447748 0.00467171 0
0.00666273 0.00574427 0
0.00823043 0.00519679 0
0.0014505 0.00636711 0
0.0023961 0.00748048 0
0.00577483 0.00650556 0
0.00705357 0.00706717 0
0.00819693 0.00677288 0
6.49651e-05 0.00841407 0
0.00285477 0.00977408 0
0.0050706 0.00870687 0
0.00716435 0.00930188 0
0.00986735 0.00885079 0
VERTICES 25 50
1 0
1 1
1 2
1 3
1 4
1 5
1 6
1 7
1 8
1 9
1 10
1 11
1 12
1 13
1 14
1 15
1 16
1 17
1 18
1 19
1 20
1 21
1 22
1 23
1 24
POINT_DATA 25
VECTORS velocity double
-2.71643e-09 -0.00970859 0
-1.79969e-09 -0.00970859 0
-1.48944e-09 -0.00970858 0
-8.72973e-10 -0.00970858 0
1.14281e-09 -0.00970858 0
-8.12422e-11 -0.00970858 0
-9.35705e-10 -0.00970858 0
-2.40245e-09 -0.00970858 0
-2.73848e-09 -0.00970859 0
-3.17034e-09 -0.00970858 0
3.2407e-09 -0.00970858 0
5.4528e-10 -0.00970859 0
-1.79781e-09 -0.00970858 0
-1.16042e-09 -0.00970858 0
-2.64783e-09 -0.00970858 0
1.55002e-09 -0.00970859 0
-2.07781e-09 -0.00970858 0
2.66594e-09 -0.00970858 0
1.8432e-10 -0.00970858 0
-2.7631e-09 -0.00970858 0
-3.21714e-09 -0.00970858 0
-4.99672e-10 -0.00970858 0
2.42922e-10 -0.00970858 0
5.65485e-10 -0.00970858 0
2.98425e-09 -0.00970858 0
SCALARS radius double 1
LOOKUP_TABLE default
0.0005192
0.000759374
0.000731582
0.000932767
0.000864852
0.00092132
0.000824734
0.000662097
0.000535446
0.00094621
0.000999249
0.000802661
0.000671708
0.000819153
0.000645007
0.000827505
0.000602392
0.000772815
0.000550095
0.000626194
0.000886859
0.000531918
0.000790192
0.000909137
0.00096445
SCALARS mass double 1
LOOKUP_TABLE default
0.00228657
0.0048913
0.00453983
0.00738005
0.00634449
0.00720004
0.00576955
0.0037184
0.0024319
0.00759432
0.00846957
0.00546484
0.00382714
0.00569173
0.00352892
0.00580838
0.00307803
0.005066
0.00256678
0.00332607
0.00667148
0.00239995
0.00529637
0.00701087
0.00788992
