# vtk DataFile Version 3.0
DEM2D particles
ASCII
DATASET POLYDATA
POINTS 25 double
0.000210492 -0.000696901 0
0.00247694 -0.00109619 0
0.00456711 -0.000448864 0
0.00674628 -0.000567578 0
0.00933215 0.000349549 0
0.000976388 0.00250372 0
0.00272805 0.00218817 0
0.00430175 0.00171936 0
0.00620408 0.00114204 0
0.00807857 0.00158801 0
0.00194188 0.00344069 0
0.00315848 0.00315976 0
0.00447748 0.00366396 0
0.00666273 0.00473651 0
0.00823043 0.00418903 0
0.0014505 0.00535936 0
0.0023961 0.00647273 0
0.00577483 0.00549781 0
0.00705357 0.00605942 0
0.00819693 0.00576513 0
6.49651e-05 0.00740632 0
0.00285477 0.00876633 0
0.0050706 0.00769912 0
0.00716435 0.00829413 0
0.00986735 0.00784304 0
VERTICES 25 50
1 0
1 1
1 2
1 3
1 4
1 5
1 6
1 7
1 8
1 9
1 10
1 11
1 12
1 13
1 14
1 15
1 16
1 17
1 18
1 19
1 20
1 21
1 22
1 23
1 24
POINT_DATA 25
VECTORS velocity double
-1.34066e-54 -0.00970858 0
-8.88212e-55 -0.00970858 0
-7.35093e-55 -0.00970858 0
-4.30845e-55 -0.00970858 0
5.6402e-55 -0.00970858 0
-4.00961e-56 -0.00970858 0
-4.61805e-55 -0.00970858 0
-1.1857e-54 -0.00970858 0
-1.35154e-54 -0.00970858 0
-1.56468e-54 -0.00970858 0
1.59941e-54 -0.00970858 0
2.69116e-55 -0.00970858 0
-8.87287e-55 -0.00970858 0
-5.72712e-55 -0.00970858 0
-1.3068e-54 -0.00970858 0
7.64993e-55 -0.00970858 0
-1.02548e-54 -0.00970858 0
1.31574e-54 -0.00970858 0
9.09688e-56 -0.00970858 0
-1.36369e-54 -0.00970858 0
-1.58778e-54 -0.00970858 0
-2.46607e-55 -0.00970858 0
1.19891e-55 -0.00970858 0
2.79088e-55 -0.00970858 0
1.47284e-54 -0.00970858 0
SCALARS radius double 1
LOOKUP_TABLE default
0.0005192
0.000759374
0.000731582
0.000932767
0.000864852
0.00092132
0.000824734
0.000662097
0.000535446
0.00094621
0.000999249
0.000802661
0.000671708
0.000819153
0.000645007
0.000827505
0.000602392
0.000772815
0.000550095
0.000626194
0.000886859
0.000531918
0.000790192
0.000909137
0.00096445
SCALARS mass double 1
LOOKUP_TABLE default
0.00228657
0.0048913
0.00453983
0.00738005
0.00634449
0.00720004
0.00576955
0.0037184
0.0024319
0.00759432
0.00846957
0.00546484
0.00382714
0.00569173
0.00352892
0.00580838
0.00307803
0.005066
0.00256678
0.00332607
0.00667148
0.00239995
0.00529637
0.00701087
0.00788992
