# vtk DataFile Version 3.0
DEM2D particles
ASCII
DATASET POLYDATA
POINTS 25 double
0.000210492 0.000120561 0
0.00247694 -0.000278728 0
0.00456711 0.000368599 0
0.00674628 0.000249885 0
0.00933215 0.00116701 0
0.000976388 0.00332119 0
0.00272805 0.00300563 0
0.00430175 0.00253682 0
0.00620408 0.00195951 0
0.00807857 0.00240547 0
0.00194188 0.00425815 0
0.00315848 0.00397722 0
0.00447748 0.00448143 0
0.00666273 0.00555398 0
0.00823043 0.0050065 0
0.0014505 0.00617682 0
0.0023961 0.00729019 0
0.00577483 0.00631527 0
0.00705357 0.00687688 0
0.00819693 0.0065826 0
6.49651e-05 0.00822379 0
0.00285477 0.00958379 0
0.0050706 0.00851658 0
0.00716435 0.00911159 0
0.00986735 0.0086605 0
VERTICES 25 50
1 0
1 1
1 2
1 3
1 4
1 5
1 6
1 7
1 8
1 9
1 10
1 11
1 12
1 13
1 14
1 15
1 16
1 17
1 18
1 19
1 20
1 21
1 22
1 23
1 24
POINT_DATA 25
VECTORS velocity double
-7.56799e-18 -0.00970858 0
-5.01393e-18 -0.00970858 0
-4.14958e-18 -0.00970858 0
-2.4321e-18 -0.00970858 0
3.18387e-18 -0.00970858 0
-2.26341e-19 -0.00970858 0
-2.60688e-18 -0.00970858 0
-6.69323e-18 -0.00970858 0
-7.62941e-18 -0.00970858 0
-8.83258e-18 -0.00970858 0
9.0286e-18 -0.00970858 0
1.51915e-18 -0.00970858 0
-5.00871e-18 -0.00970858 0
-3.23294e-18 -0.00970858 0
-7.37687e-18 -0.00970858 0
4.31836e-18 -0.00970858 0
-5.78879e-18 -0.00970858 0
7.42732e-18 -0.00970858 0
5.13516e-19 -0.00970858 0
-7.69801e-18 -0.00970858 0
-8.96296e-18 -0.00970858 0
-1.39209e-18 -0.00970858 0
6.7678e-19 -0.00970858 0
1.57544e-18 -0.00970858 0
8.31413e-18 -0.00970858 0
SCALARS radius double 1
LOOKUP_TABLE default
0.0005192
0.000759374
0.000731582
0.000932767
0.000864852
0.00092132
0.000824734
0.000662097
0.000535446
0.00094621
0.000999249
0.000802661
0.000671708
0.000819153
0.000645007
0.000827505
0.000602392
0.000772815
0.000550095
0.000626194
0.000886859
0.000531918
0.000790192
0.000909137
0.00096445
SCALARS mass double 1
LOOKUP_TABLE default
0.00228657
0.0048913
0.00453983
0.00738005
0.00634449
0.00720004
0.00576955
0.0037184
0.0024319
0.00759432
0.00846957
0.00546484
0.00382714
0.00569173
0.00352892
0.00580838
0.00307803
0.005066
0.00256678
0.00332607
0.00667148
0.00239995
0.00529637
0.00701087
0.00788992
