# vtk DataFile Version 3.0
DEM2D particles
ASCII
DATASET POLYDATA
POINTS 25 double
0.000210492 -1.76689e-06 0
0.00247694 -0.000401056 0
0.00456711 0.000246271 0
0.00674628 0.000127557 0
0.00933215 0.00104468 0
0.000976388 0.00319886 0
0.00272805 0.00288331 0
0.00430175 0.00241449 0
0.00620408 0.00183718 0
0.00807857 0.00228314 0
0.00194188 0.00413582 0
0.00315848 0.00385489 0
0.00447748 0.0043591 0
0.00666273 0.00543165 0
0.00823043 0.00488417 0
0.0014505 0.00605449 0
0.0023961 0.00716786 0
0.00577483 0.00619294 0
0.00705357 0.00675455 0
0.00819693 0.00646027 0
6.49651e-05 0.00810146 0
0.00285477 0.00946146 0
0.0050706 0.00839425 0
0.00716435 0.00898926 0
0.00986735 0.00853817 0
VERTICES 25 50
1 0
1 1
1 2
1 3
1 4
1 5
1 6
1 7
1 8
1 9
1 10
1 11
1 12
1 13
1 14
1 15
1 16
1 17
1 18
1 19
1 20
1 21
1 22
1 23
1 24
POINT_DATA 25
VECTORS velocity double
-2.39511e-23 -0.00970858 0
-1.5868e-23 -0.00970858 0
-1.31326e-23 -0.00970858 0
-7.69711e-24 -0.00970858 0
1.00763e-23 -0.00970858 0
-7.16322e-25 -0.00970858 0
-8.25022e-24 -0.00970858 0
-2.11827e-23 -0.00970858 0
-2.41455e-23 -0.00970858 0
-2.79533e-23 -0.00970858 0
2.85736e-23 -0.00970858 0
4.8078e-24 -0.00970858 0
-1.58515e-23 -0.00970858 0
-1.02316e-23 -0.00970858 0
-2.33463e-23 -0.00970858 0
1.36667e-23 -0.00970858 0
-1.83203e-23 -0.00970858 0
2.35059e-23 -0.00970858 0
1.62517e-24 -0.00970858 0
-2.43626e-23 -0.00970858 0
-2.83659e-23 -0.00970858 0
-4.40566e-24 -0.00970858 0
2.14187e-24 -0.00970858 0
4.98595e-24 -0.00970858 0
2.63125e-23 -0.00970858 0
SCALARS radius double 1
LOOKUP_TABLE default
0.0005192
0.000759374
0.000731582
0.000932767
0.000864852
0.00092132
0.000824734
0.000662097
0.000535446
0.00094621
0.000999249
0.000802661
0.000671708
0.000819153
0.000645007
0.000827505
0.000602392
0.000772815
0.000550095
0.000626194
0.000886859
0.000531918
0.000790192
0.000909137
0.00096445
SCALARS mass double 1
LOOKUP_TABLE default
0.00228657
0.0048913
0.00453983
0.00738005
0.00634449
0.00720004
0.00576955
0.0037184
0.0024319
0.00759432
0.00846957
0.00546484
0.00382714
0.00569173
0.00352892
0.00580838
0.00307803
0.005066
0.00256678
0.00332607
0.00667148
0.00239995
0.00529637
0.00701087
0.00788992
