# vtk DataFile Version 3.0
DEM2D particles
ASCII
DATASET POLYDATA
POINTS 25 double
0.000210492 -0.00119786 0
0.00247694 -0.00159715 0
0.00456711 -0.000949826 0
0.00674628 -0.00106854 0
0.00933215 -0.000151414 0
0.000976388 0.00200276 0
0.00272805 0.00168721 0
0.00430175 0.0012184 0
0.00620408 0.000641081 0
0.00807857 0.00108704 0
0.00194188 0.00293972 0
0.00315848 0.0026588 0
0.00447748 0.003163 0
0.00666273 0.00423555 0
0.00823043 0.00368807 0
0.0014505 0.0048584 0
0.0023961 0.00597176 0
0.00577483 0.00499684 0
0.00705357 0.00555846 0
0.00819693 0.00526417 0
6.49651e-05 0.00690536 0
0.00285477 0.00826537 0
0.0050706 0.00719815 0
0.00716435 0.00779317 0
0.00986735 0.00734208 0
VERTICES 25 50
1 0
1 1
1 2
1 3
1 4
1 5
1 6
1 7
1 8
1 9
1 10
1 11
1 12
1 13
1 14
1 15
1 16
1 17
1 18
1 19
1 20
1 21
1 22
1 23
1 24
POINT_DATA 25
VECTORS velocity double
-4.02646e-77 -0.00970858 0
-2.6676e-77 -0.00970858 0
-2.20773e-77 -0.00970858 0
-1.29397e-77 -0.00970858 0
1.69394e-77 -0.00970858 0
-1.20422e-78 -0.00970858 0
-1.38696e-77 -0.00970858 0
-3.56105e-77 -0.00970858 0
-4.05914e-77 -0.00970858 0
-4.69927e-77 -0.00970858 0
4.80356e-77 -0.00970858 0
8.08246e-78 -0.00970858 0
-2.66482e-77 -0.00970858 0
-1.72005e-77 -0.00970858 0
-3.92477e-77 -0.00970858 0
2.29753e-77 -0.00970858 0
-3.07986e-77 -0.00970858 0
3.95162e-77 -0.00970858 0
2.7321e-78 -0.00970858 0
-4.09563e-77 -0.00970858 0
-4.76864e-77 -0.00970858 0
-7.40643e-78 -0.00970858 0
3.60073e-78 -0.00970858 0
8.38195e-78 -0.00970858 0
4.42344e-77 -0.00970858 0
SCALARS radius double 1
LOOKUP_TABLE default
0.0005192
0.000759374
0.000731582
0.000932767
0.000864852
0.00092132
0.000824734
0.000662097
0.000535446
0.00094621
0.000999249
0.000802661
0.000671708
0.000819153
0.000645007
0.000827505
0.000602392
0.000772815
0.000550095
0.000626194
0.000886859
0.000531918
0.000790192
0.000909137
0.00096445
SCALARS mass double 1
LOOKUP_TABLE default
0.00228657
0.0048913
0.00453983
0.00738005
0.00634449
0.00720004
0.00576955
0.0037184
0.0024319
0.00759432
0.00846957
0.00546484
0.00382714
0.00569173
0.00352892
0.00580838
0.00307803
0.005066
0.00256678
0.00332607
0.00667148
0.00239995
0.00529637
0.00701087
0.00788992
