# vtk DataFile Version 3.0
DEM2D particles
ASCII
DATASET POLYDATA
POINTS 25 double
0.000210492 -0.000990101 0
0.00247694 -0.00138939 0
0.00456711 -0.000742063 0
0.00674628 -0.000860777 0
0.00933215 5.63495e-05 0
0.000976388 0.00221052 0
0.00272805 0.00189497 0
0.00430175 0.00142616 0
0.00620408 0.000848845 0
0.00807857 0.00129481 0
0.00194188 0.00314749 0
0.00315848 0.00286656 0
0.00447748 0.00337076 0
0.00666273 0.00444332 0
0.00823043 0.00389584 0
0.0014505 0.00506616 0
0.0023961 0.00617953 0
0.00577483 0.00520461 0
0.00705357 0.00576622 0
0.00819693 0.00547193 0
6.49651e-05 0.00711312 0
0.00285477 0.00847313 0
0.0050706 0.00740592 0
0.00716435 0.00800093 0
0.00986735 0.00754984 0
VERTICES 25 50
1 0
1 1
1 2
1 3
1 4
1 5
1 6
1 7
1 8
1 9
1 10
1 11
1 12
1 13
1 14
1 15
1 16
1 17
1 18
1 19
1 20
1 21
1 22
1 23
1 24
POINT_DATA 25
VECTORS velocity double
-8.82281e-68 -0.00970858 0
-5.84527e-68 -0.00970858 0
-4.8376e-68 -0.00970858 0
-2.83536e-68 -0.00970858 0
3.71178e-68 -0.00970858 0
-2.6387e-69 -0.00970858 0
-3.03911e-68 -0.00970858 0
-7.803e-68 -0.00970858 0
-8.89441e-68 -0.00970858 0
-1.02971e-67 -0.00970858 0
1.05256e-67 -0.00970858 0
1.77104e-68 -0.00970858 0
-5.83918e-68 -0.00970858 0
-3.76898e-68 -0.00970858 0
-8.6e-68 -0.00970858 0
5.03437e-68 -0.00970858 0
-6.74861e-68 -0.00970858 0
8.65881e-68 -0.00970858 0
5.9866e-69 -0.00970858 0
-8.97438e-68 -0.00970858 0
-1.04491e-67 -0.00970858 0
-1.6229e-68 -0.00970858 0
7.88994e-69 -0.00970858 0
1.83666e-68 -0.00970858 0
9.69267e-68 -0.00970858 0
SCALARS radius double 1
LOOKUP_TABLE default
0.0005192
0.000759374
0.000731582
0.000932767
0.000864852
0.00092132
0.000824734
0.000662097
0.000535446
0.00094621
0.000999249
0.000802661
0.000671708
0.000819153
0.000645007
0.000827505
0.000602392
0.000772815
0.000550095
0.000626194
0.000886859
0.000531918
0.000790192
0.000909137
0.00096445
SCALARS mass double 1
LOOKUP_TABLE default
0.00228657
0.0048913
0.00453983
0.00738005
0.00634449
0.00720004
0.00576955
0.0037184
0.0024319
0.00759432
0.00846957
0.00546484
0.00382714
0.00569173
0.00352892
0.00580838
0.00307803
0.005066
0.00256678
0.00332607
0.00667148
0.00239995
0.00529637
0.00701087
0.00788992
