# vtk DataFile Version 3.0
DEM2D particles
ASCII
DATASET POLYDATA
POINTS 25 double
0.000210492 -0.000364868 0
0.00247694 -0.000764157 0
0.00456711 -0.00011683 0
0.00674628 -0.000235544 0
0.00933215 0.000681582 0
0.000976388 0.00283576 0
0.00272805 0.0025202 0
0.00430175 0.00205139 0
0.00620408 0.00147408 0
0.00807857 0.00192004 0
0.00194188 0.00377272 0
0.00315848 0.00349179 0
0.00447748 0.003996 0
0.00666273 0.00506855 0
0.00823043 0.00452107 0
0.0014505 0.00569139 0
0.0023961 0.00680476 0
0.00577483 0.00582984 0
0.00705357 0.00639145 0
0.00819693 0.00609717 0
6.49651e-05 0.00773836 0
0.00285477 0.00909836 0
0.0050706 0.00803115 0
0.00716435 0.00862616 0
0.00986735 0.00817507 0
VERTICES 25 50
1 0
1 1
1 2
1 3
1 4
1 5
1 6
1 7
1 8
1 9
1 10
1 11
1 12
1 13
1 14
1 15
1 16
1 17
1 18
1 19
1 20
1 21
1 22
1 23
1 24
POINT_DATA 25
VECTORS velocity double
-1.13489e-39 -0.00970858 0
-7.51885e-40 -0.00970858 0
-6.22267e-40 -0.00970858 0
-3.64716e-40 -0.00970858 0
4.77451e-40 -0.00970858 0
-3.39419e-41 -0.00970858 0
-3.90925e-40 -0.00970858 0
-1.00371e-39 -0.00970858 0
-1.1441e-39 -0.00970858 0
-1.32453e-39 -0.00970858 0
1.35392e-39 -0.00970858 0
2.27811e-40 -0.00970858 0
-7.51102e-40 -0.00970858 0
-4.84809e-40 -0.00970858 0
-1.10623e-39 -0.00970858 0
6.47578e-40 -0.00970858 0
-8.68083e-40 -0.00970858 0
1.11379e-39 -0.00970858 0
7.70064e-41 -0.00970858 0
-1.15439e-39 -0.00970858 0
-1.34408e-39 -0.00970858 0
-2.08756e-40 -0.00970858 0
1.01489e-40 -0.00970858 0
2.36252e-40 -0.00970858 0
1.24678e-39 -0.00970858 0
SCALARS radius double 1
LOOKUP_TABLE default
0.0005192
0.000759374
0.000731582
0.000932767
0.000864852
0.00092132
0.000824734
0.000662097
0.000535446
0.00094621
0.000999249
0.000802661
0.000671708
0.000819153
0.000645007
0.000827505
0.000602392
0.000772815
0.000550095
0.000626194
0.000886859
0.000531918
0.000790192
0.000909137
0.00096445
SCALARS mass double 1
LOOKUP_TABLE default
0.00228657
0.0048913
0.00453983
0.00738005
0.00634449
0.00720004
0.00576955
0.0037184
0.0024319
0.00759432
0.00846957
0.00546484
0.00382714
0.00569173
0.00352892
0.00580838
0.00307803
0.005066
0.00256678
0.00332607
0.00667148
0.00239995
0.00529637
0.00701087
0.00788992
