# vtk DataFile Version 3.0
DEM2D particles
ASCII
DATASET POLYDATA
POINTS 25 double
0.000210492 -0.00101923 0
0.00247694 -0.00141852 0
0.00456711 -0.000771189 0
0.00674628 -0.000889903 0
0.00933215 2.72238e-05 0
0.000976388 0.0021814 0
0.00272805 0.00186585 0
0.00430175 0.00139703 0
0.00620408 0.000819719 0
0.00807857 0.00126568 0
0.00194188 0.00311836 0
0.00315848 0.00283744 0
0.00447748 0.00334164 0
0.00666273 0.00441419 0
0.00823043 0.00386671 0
0.0014505 0.00503703 0
0.0023961 0.0061504 0
0.00577483 0.00517548 0
0.00705357 0.00573709 0
0.00819693 0.00544281 0
6.49651e-05 0.007084 0
0.00285477 0.008444 0
0.0050706 0.00737679 0
0.00716435 0.00797181 0
0.00986735 0.00752071 0
VERTICES 25 50
1 0
1 1
1 2
1 3
1 4
1 5
1 6
1 7
1 8
1 9
1 10
1 11
1 12
1 13
1 14
1 15
1 16
1 17
1 18
1 19
1 20
1 21
1 22
1 23
1 24
POINT_DATA 25
VECTORS velocity double
-4.32678e-69 -0.00970858 0
-2.86657e-69 -0.00970858 0
-2.3724e-69 -0.00970858 0
-1.39049e-69 -0.00970858 0
1.82029e-69 -0.00970858 0
-1.29404e-70 -0.00970858 0
-1.49041e-69 -0.00970858 0
-3.82666e-69 -0.00970858 0
-4.3619e-69 -0.00970858 0
-5.04978e-69 -0.00970858 0
5.16185e-69 -0.00970858 0
8.68532e-70 -0.00970858 0
-2.86359e-69 -0.00970858 0
-1.84834e-69 -0.00970858 0
-4.21752e-69 -0.00970858 0
2.4689e-69 -0.00970858 0
-3.30958e-69 -0.00970858 0
4.24636e-69 -0.00970858 0
2.93588e-70 -0.00970858 0
-4.40112e-69 -0.00970858 0
-5.12432e-69 -0.00970858 0
-7.95886e-70 -0.00970858 0
3.8693e-70 -0.00970858 0
9.00714e-70 -0.00970858 0
4.75337e-69 -0.00970858 0
SCALARS radius double 1
LOOKUP_TABLE default
0.0005192
0.000759374
0.000731582
0.000932767
0.000864852
0.00092132
0.000824734
0.000662097
0.000535446
0.00094621
0.000999249
0.000802661
0.000671708
0.000819153
0.000645007
0.000827505
0.000602392
0.000772815
0.000550095
0.000626194
0.000886859
0.000531918
0.000790192
0.000909137
0.00096445
SCALARS mass double 1
LOOKUP_TABLE default
0.00228657
0.0048913
0.00453983
0.00738005
0.00634449
0.00720004
0.00576955
0.0037184
0.0024319
0.00759432
0.00846957
0.00546484
0.00382714
0.00569173
0.00352892
0.00580838
0.00307803
0.005066
0.00256678
0.00332607
0.00667148
0.00239995
0.00529637
0.00701087
0.00788992
