# vtk DataFile Version 3.0
DEM2D particles
ASCII
DATASET POLYDATA
POINTS 25 double
0.000210492 -0.000541564 0
0.00247694 -0.000940853 0
0.00456711 -0.000293526 0
0.00674628 -0.00041224 0
0.00933215 0.000504886 0
0.000976388 0.00265906 0
0.00272805 0.00234351 0
0.00430175 0.0018747 0
0.00620408 0.00129738 0
0.00807857 0.00174334 0
0.00194188 0.00359602 0
0.00315848 0.0033151 0
0.00447748 0.0038193 0
0.00666273 0.00489185 0
0.00823043 0.00434437 0
0.0014505 0.0055147 0
0.0023961 0.00662806 0
0.00577483 0.00565314 0
0.00705357 0.00621476 0
0.00819693 0.00592047 0
6.49651e-05 0.00756166 0
0.00285477 0.00892167 0
0.0050706 0.00785445 0
0.00716435 0.00844947 0
0.00986735 0.00799838 0
VERTICES 25 50
1 0
1 1
1 2
1 3
1 4
1 5
1 6
1 7
1 8
1 9
1 10
1 11
1 12
1 13
1 14
1 15
1 16
1 17
1 18
1 19
1 20
1 21
1 22
1 23
1 24
POINT_DATA 25
VECTORS velocity double
-1.29124e-47 -0.00970858 0
-8.55471e-48 -0.00970858 0
-7.07997e-48 -0.00970858 0
-4.14963e-48 -0.00970858 0
5.43229e-48 -0.00970858 0
-3.86181e-49 -0.00970858 0
-4.44782e-48 -0.00970858 0
-1.14199e-47 -0.00970858 0
-1.30172e-47 -0.00970858 0
-1.50701e-47 -0.00970858 0
1.54045e-47 -0.00970858 0
2.59196e-48 -0.00970858 0
-8.5458e-48 -0.00970858 0
-5.51601e-48 -0.00970858 0
-1.25863e-47 -0.00970858 0
7.36794e-48 -0.00970858 0
-9.87678e-48 -0.00970858 0
1.26724e-47 -0.00970858 0
8.76155e-49 -0.00970858 0
-1.31343e-47 -0.00970858 0
-1.52925e-47 -0.00970858 0
-2.37516e-48 -0.00970858 0
1.15471e-48 -0.00970858 0
2.688e-48 -0.00970858 0
1.41855e-47 -0.00970858 0
SCALARS radius double 1
LOOKUP_TABLE default
0.0005192
0.000759374
0.000731582
0.000932767
0.000864852
0.00092132
0.000824734
0.000662097
0.000535446
0.00094621
0.000999249
0.000802661
0.000671708
0.000819153
0.000645007
0.000827505
0.000602392
0.000772815
0.000550095
0.000626194
0.000886859
0.000531918
0.000790192
0.000909137
0.00096445
SCALARS mass double 1
LOOKUP_TABLE default
0.00228657
0.0048913
0.00453983
0.00738005
0.00634449
0.00720004
0.00576955
0.0037184
0.0024319
0.00759432
0.00846957
0.00546484
0.00382714
0.00569173
0.00352892
0.00580838
0.00307803
0.005066
0.00256678
0.00332607
0.00667148
0.00239995
0.00529637
0.00701087
0.00788992
