# vtk DataFile Version 3.0
DEM2D particles
ASCII
DATASET POLYDATA
POINTS 25 double
0.000210492 -0.000207589 0
0.00247694 -0.000606878 0
0.00456711 4.04491e-05 0
0.00674628 -7.82651e-05 0
0.00933215 0.000838861 0
0.000976388 0.00299304 0
0.00272805 0.00267748 0
0.00430175 0.00220867 0
0.00620408 0.00163136 0
0.00807857 0.00207732 0
0.00194188 0.00393 0
0.00315848 0.00364907 0
0.00447748 0.00415328 0
0.00666273 0.00522583 0
0.00823043 0.00467835 0
0.0014505 0.00584867 0
0.0023961 0.00696204 0
0.00577483 0.00598712 0
0.00705357 0.00654873 0
0.00819693 0.00625445 0
6.49651e-05 0.00789564 0
0.00285477 0.00925564 0
0.0050706 0.00818843 0
0.00716435 0.00878344 0
0.00986735 0.00833235 0
VERTICES 25 50
1 0
1 1
1 2
1 3
1 4
1 5
1 6
1 7
1 8
1 9
1 10
1 11
1 12
1 13
1 14
1 15
1 16
1 17
1 18
1 19
1 20
1 21
1 22
1 23
1 24
POINT_DATA 25
VECTORS velocity double
-1.33641e-32 -0.00970858 0
-8.85393e-33 -0.00970858 0
-7.3276e-33 -0.00970858 0
-4.29477e-33 -0.00970858 0
5.62229e-33 -0.00970858 0
-3.99688e-34 -0.00970858 0
-4.60339e-33 -0.00970858 0
-1.18193e-32 -0.00970858 0
-1.34725e-32 -0.00970858 0
-1.55972e-32 -0.00970858 0
1.59433e-32 -0.00970858 0
2.68262e-33 -0.00970858 0
-8.84471e-33 -0.00970858 0
-5.70894e-33 -0.00970858 0
-1.30266e-32 -0.00970858 0
7.62565e-33 -0.00970858 0
-1.02222e-32 -0.00970858 0
1.31156e-32 -0.00970858 0
9.068e-34 -0.00970858 0
-1.35937e-32 -0.00970858 0
-1.58274e-32 -0.00970858 0
-2.45824e-33 -0.00970858 0
1.1951e-33 -0.00970858 0
2.78202e-33 -0.00970858 0
1.46816e-32 -0.00970858 0
SCALARS radius double 1
LOOKUP_TABLE default
0.0005192
0.000759374
0.000731582
0.000932767
0.000864852
0.00092132
0.000824734
0.000662097
0.000535446
0.00094621
0.000999249
0.000802661
0.000671708
0.000819153
0.000645007
0.000827505
0.000602392
0.000772815
0.000550095
0.000626194
0.000886859
0.000531918
0.000790192
0.000909137
0.00096445
SCALARS mass double 1
LOOKUP_TABLE default
0.00228657
0.0048913
0.00453983
0.00738005
0.00634449
0.00720004
0.00576955
0.0037184
0.0024319
0.00759432
0.00846957
0.00546484
0.00382714
0.00569173
0.00352892
0.00580838
0.00307803
0.005066
0.00256678
0.00332607
0.00667148
0.00239995
0.00529637
0.00701087
0.00788992
