# vtk DataFile Version 3.0
DEM2D particles
ASCII
DATASET POLYDATA
POINTS 25 double
0.000210492 -0.000164871 0
0.00247694 -0.00056416 0
0.00456711 8.31668e-05 0
0.00674628 -3.55473e-05 0
0.00933215 0.000881579 0
0.000976388 0.00303575 0
0.00272805 0.0027202 0
0.00430175 0.00225139 0
0.00620408 0.00167407 0
0.00807857 0.00212004 0
0.00194188 0.00397272 0
0.00315848 0.00369179 0
0.00447748 0.00419599 0
0.00666273 0.00526855 0
0.00823043 0.00472107 0
0.0014505 0.00589139 0
0.0023961 0.00700476 0
0.00577483 0.00602984 0
0.00705357 0.00659145 0
0.00819693 0.00629716 0
6.49651e-05 0.00793835 0
0.00285477 0.00929836 0
0.0050706 0.00823115 0
0.00716435 0.00882616 0
0.00986735 0.00837507 0
VERTICES 25 50
1 0
1 1
1 2
1 3
1 4
1 5
1 6
1 7
1 8
1 9
1 10
1 11
1 12
1 13
1 14
1 15
1 16
1 17
1 18
1 19
1 20
1 21
1 22
1 23
1 24
POINT_DATA 25
VECTORS velocity double
-1.11289e-30 -0.00970858 0
-7.3731e-31 -0.00970858 0
-6.10205e-31 -0.00970858 0
-3.57647e-31 -0.00970858 0
4.68196e-31 -0.00970858 0
-3.3284e-32 -0.00970858 0
-3.83347e-31 -0.00970858 0
-9.84255e-31 -0.00970858 0
-1.12192e-30 -0.00970858 0
-1.29885e-30 -0.00970858 0
1.32768e-30 -0.00970858 0
2.23395e-31 -0.00970858 0
-7.36543e-31 -0.00970858 0
-4.75412e-31 -0.00970858 0
-1.08479e-30 -0.00970858 0
6.35025e-31 -0.00970858 0
-8.51256e-31 -0.00970858 0
1.09221e-30 -0.00970858 0
7.55137e-32 -0.00970858 0
-1.13201e-30 -0.00970858 0
-1.31803e-30 -0.00970858 0
-2.0471e-31 -0.00970858 0
9.95221e-32 -0.00970858 0
2.31673e-31 -0.00970858 0
1.22261e-30 -0.00970858 0
SCALARS radius double 1
LOOKUP_TABLE default
0.0005192
0.000759374
0.000731582
0.000932767
0.000864852
0.00092132
0.000824734
0.000662097
0.000535446
0.00094621
0.000999249
0.000802661
0.000671708
0.000819153
0.000645007
0.000827505
0.000602392
0.000772815
0.000550095
0.000626194
0.000886859
0.000531918
0.000790192
0.000909137
0.00096445
SCALARS mass double 1
LOOKUP_TABLE default
0.00228657
0.0048913
0.00453983
0.00738005
0.00634449
0.00720004
0.00576955
0.0037184
0.0024319
0.00759432
0.00846957
0.00546484
0.00382714
0.00569173
0.00352892
0.00580838
0.00307803
0.005066
0.00256678
0.00332607
0.00667148
0.00239995
0.00529637
0.00701087
0.00788992
