# vtk DataFile Version 3.0
DEM2D particles
ASCII
DATASET POLYDATA
POINTS 25 double
0.000210492 -0.000339626 0
0.00247694 -0.000738915 0
0.00456711 -9.15877e-05 0
0.00674628 -0.000210302 0
0.00933215 0.000706825 0
0.000976388 0.002861 0
0.00272805 0.00254545 0
0.00430175 0.00207664 0
0.00620408 0.00149932 0
0.00807857 0.00194528 0
0.00194188 0.00379796 0
0.00315848 0.00351704 0
0.00447748 0.00402124 0
0.00666273 0.00509379 0
0.00823043 0.00454631 0
0.0014505 0.00571663 0
0.0023961 0.00683 0
0.00577483 0.00585508 0
0.00705357 0.0064167 0
0.00819693 0.00612241 0
6.49651e-05 0.0077636 0
0.00285477 0.0091236 0
0.0050706 0.00805639 0
0.00716435 0.00865141 0
0.00986735 0.00820032 0
VERTICES 25 50
1 0
1 1
1 2
1 3
1 4
1 5
1 6
1 7
1 8
1 9
1 10
1 11
1 12
1 13
1 14
1 15
1 16
1 17
1 18
1 19
1 20
1 21
1 22
1 23
1 24
POINT_DATA 25
VECTORS velocity double
-1.54811e-38 -0.00970858 0
-1.02565e-38 -0.00970858 0
-8.48841e-39 -0.00970858 0
-4.97513e-39 -0.00970858 0
6.51296e-39 -0.00970858 0
-4.63005e-40 -0.00970858 0
-5.33265e-39 -0.00970858 0
-1.36917e-38 -0.00970858 0
-1.56068e-38 -0.00970858 0
-1.8068e-38 -0.00970858 0
1.8469e-38 -0.00970858 0
3.10759e-39 -0.00970858 0
-1.02459e-38 -0.00970858 0
-6.61333e-39 -0.00970858 0
-1.50902e-38 -0.00970858 0
8.83368e-39 -0.00970858 0
-1.18416e-38 -0.00970858 0
1.51934e-38 -0.00970858 0
1.05045e-39 -0.00970858 0
-1.57471e-38 -0.00970858 0
-1.83347e-38 -0.00970858 0
-2.84766e-39 -0.00970858 0
1.38443e-39 -0.00970858 0
3.22274e-39 -0.00970858 0
1.70075e-38 -0.00970858 0
SCALARS radius double 1
LOOKUP_TABLE default
0.0005192
0.000759374
0.000731582
0.000932767
0.000864852
0.00092132
0.000824734
0.000662097
0.000535446
0.00094621
0.000999249
0.000802661
0.000671708
0.000819153
0.000645007
0.000827505
0.000602392
0.000772815
0.000550095
0.000626194
0.000886859
0.000531918
0.000790192
0.000909137
0.00096445
SCALARS mass double 1
LOOKUP_TABLE default
0.00228657
0.0048913
0.00453983
0.00738005
0.00634449
0.00720004
0.00576955
0.0037184
0.0024319
0.00759432
0.00846957
0.00546484
0.00382714
0.00569173
0.00352892
0.00580838
0.00307803
0.005066
0.00256678
0.00332607
0.00667148
0.00239995
0.00529637
0.00701087
0.00788992
