# vtk DataFile Version 3.0
DEM2D particles
ASCII
DATASET POLYDATA
POINTS 25 double
0.000210492 0.000272015 0
0.00247694 -0.000127274 0
0.00456711 0.000520053 0
0.00674628 0.000401339 0
0.00933215 0.00131847 0
0.000976388 0.00347264 0
0.00272805 0.00315709 0
0.00430175 0.00268828 0
0.00620408 0.00211096 0
0.00807857 0.00255692 0
0.00194188 0.0044096 0
0.00315848 0.00412868 0
0.00447748 0.00463288 0
0.00666273 0.00570543 0
0.00823043 0.00515795 0
0.0014505 0.00632828 0
0.0023961 0.00744164 0
0.00577483 0.00646672 0
0.00705357 0.00702834 0
0.00819693 0.00673405 0
6.49651e-05 0.00837524 0
0.00285477 0.00973525 0
0.0050706 0.00866803 0
0.00716435 0.00926305 0
0.00986735 0.00881196 0
VERTICES 25 50
1 0
1 1
1 2
1 3
1 4
1 5
1 6
1 7
1 8
1 9
1 10
1 11
1 12
1 13
1 14
1 15
1 16
1 17
1 18
1 19
1 20
1 21
1 22
1 23
1 24
POINT_DATA 25
VECTORS velocity double
-4.87615e-11 -0.00970858 0
-3.23054e-11 -0.00970858 0
-2.67362e-11 -0.00970858 0
-1.56704e-11 -0.00970858 0
2.05141e-11 -0.00970858 0
-1.45834e-12 -0.00970858 0
-1.67964e-11 -0.00970858 0
-4.31253e-11 -0.00970858 0
-4.91572e-11 -0.00970858 0
-5.69094e-11 -0.00970858 0
5.81724e-11 -0.00970858 0
9.78808e-12 -0.00970858 0
-3.22717e-11 -0.00970858 0
-2.08302e-11 -0.00970858 0
-4.75301e-11 -0.00970858 0
2.78237e-11 -0.00970858 0
-3.72979e-11 -0.00970858 0
4.78551e-11 -0.00970858 0
3.30865e-12 -0.00970858 0
-4.95992e-11 -0.00970858 0
-5.77495e-11 -0.00970858 0
-8.96939e-12 -0.00970858 0
4.36058e-12 -0.00970858 0
1.01508e-11 -0.00970858 0
5.3569e-11 -0.00970858 0
SCALARS radius double 1
LOOKUP_TABLE default
0.0005192
0.000759374
0.000731582
0.000932767
0.000864852
0.00092132
0.000824734
0.000662097
0.000535446
0.00094621
0.000999249
0.000802661
0.000671708
0.000819153
0.000645007
0.000827505
0.000602392
0.000772815
0.000550095
0.000626194
0.000886859
0.000531918
0.000790192
0.000909137
0.00096445
SCALARS mass double 1
LOOKUP_TABLE default
0.00228657
0.0048913
0.00453983
0.00738005
0.00634449
0.00720004
0.00576955
0.0037184
0.0024319
0.00759432
0.00846957
0.00546484
0.00382714
0.00569173
0.00352892
0.00580838
0.00307803
0.005066
0.00256678
0.00332607
0.00667148
0.00239995
0.00529637
0.00701087
0.00788992
