# vtk DataFile Version 3.0
DEM2D particles
ASCII
DATASET POLYDATA
POINTS 25 double
0.000210492 -0.000780395 0
0.00247694 -0.00117968 0
0.00456711 -0.000532357 0
0.00674628 -0.000651071 0
0.00933215 0.000266055 0
0.000976388 0.00242023 0
0.00272805 0.00210468 0
0.00430175 0.00163587 0
0.00620408 0.00105855 0
0.00807857 0.00150451 0
0.00194188 0.00335719 0
0.00315848 0.00307627 0
0.00447748 0.00358047 0
0.00666273 0.00465302 0
0.00823043 0.00410554 0
0.0014505 0.00527586 0
0.0023961 0.00638923 0
0.00577483 0.00541431 0
0.00705357 0.00597593 0
0.00819693 0.00568164 0
6.49651e-05 0.00732283 0
0.00285477 0.00868283 0
0.0050706 0.00761562 0
0.00716435 0.00821064 0
0.00986735 0.00775955 0
VERTICES 25 50
1 0
1 1
1 2
1 3
1 4
1 5
1 6
1 7
1 8
1 9
1 10
1 11
1 12
1 13
1 14
1 15
1 16
1 17
1 18
1 19
1 20
1 21
1 22
1 23
1 24
POINT_DATA 25
VECTORS velocity double
-2.36367e-58 -0.00970858 0
-1.56597e-58 -0.00970858 0
-1.29601e-58 -0.00970858 0
-7.59606e-59 -0.00970858 0
9.94401e-59 -0.00970858 0
-7.06918e-60 -0.00970858 0
-8.14191e-59 -0.00970858 0
-2.09046e-58 -0.00970858 0
-2.38285e-58 -0.00970858 0
-2.75863e-58 -0.00970858 0
2.81985e-58 -0.00970858 0
4.74468e-59 -0.00970858 0
-1.56434e-58 -0.00970858 0
-1.00973e-58 -0.00970858 0
-2.30398e-58 -0.00970858 0
1.34873e-58 -0.00970858 0
-1.80798e-58 -0.00970858 0
2.31973e-58 -0.00970858 0
1.60384e-59 -0.00970858 0
-2.40428e-58 -0.00970858 0
-2.79935e-58 -0.00970858 0
-4.34783e-59 -0.00970858 0
2.11375e-59 -0.00970858 0
4.92049e-59 -0.00970858 0
2.59671e-58 -0.00970858 0
SCALARS radius double 1
LOOKUP_TABLE default
0.0005192
0.000759374
0.000731582
0.000932767
0.000864852
0.00092132
0.000824734
0.000662097
0.000535446
0.00094621
0.000999249
0.000802661
0.000671708
0.000819153
0.000645007
0.000827505
0.000602392
0.000772815
0.000550095
0.000626194
0.000886859
0.000531918
0.000790192
0.000909137
0.00096445
SCALARS mass double 1
LOOKUP_TABLE default
0.00228657
0.0048913
0.00453983
0.00738005
0.00634449
0.00720004
0.00576955
0.0037184
0.0024319
0.00759432
0.00846957
0.00546484
0.00382714
0.00569173
0.00352892
0.00580838
0.00307803
0.005066
0.00256678
0.00332607
0.00667148
0.00239995
0.00529637
0.00701087
0.00788992
