# vtk DataFile Version 3.0
DEM2D particles
ASCII
DATASET POLYDATA
POINTS 25 double
0.000210492 -0.00102117 0
0.00247694 -0.00142046 0
0.00456711 -0.00077313 0
0.00674628 -0.000891844 0
0.00933215 2.52821e-05 0
0.000976388 0.00217946 0
0.00272805 0.0018639 0
0.00430175 0.00139509 0
0.00620408 0.000817777 0
0.00807857 0.00126374 0
0.00194188 0.00311642 0
0.00315848 0.00283549 0
0.00447748 0.0033397 0
0.00666273 0.00441225 0
0.00823043 0.00386477 0
0.0014505 0.00503509 0
0.0023961 0.00614846 0
0.00577483 0.00517354 0
0.00705357 0.00573515 0
0.00819693 0.00544087 0
6.49651e-05 0.00708206 0
0.00285477 0.00844206 0
0.0050706 0.00737485 0
0.00716435 0.00796986 0
0.00986735 0.00751877 0
VERTICES 25 50
1 0
1 1
1 2
1 3
1 4
1 5
1 6
1 7
1 8
1 9
1 10
1 11
1 12
1 13
1 14
1 15
1 16
1 17
1 18
1 19
1 20
1 21
1 22
1 23
1 24
POINT_DATA 25
VECTORS velocity double
-3.53891e-69 -0.00970858 0
-2.34459e-69 -0.00970858 0
-1.94041e-69 -0.00970858 0
-1.13729e-69 -0.00970858 0
1.48883e-69 -0.00970858 0
-1.0584e-70 -0.00970858 0
-1.21901e-69 -0.00970858 0
-3.12985e-69 -0.00970858 0
-3.56763e-69 -0.00970858 0
-4.13025e-69 -0.00970858 0
4.22191e-69 -0.00970858 0
7.10378e-70 -0.00970858 0
-2.34215e-69 -0.00970858 0
-1.51177e-69 -0.00970858 0
-3.44954e-69 -0.00970858 0
2.01933e-69 -0.00970858 0
-2.70693e-69 -0.00970858 0
3.47313e-69 -0.00970858 0
2.40128e-70 -0.00970858 0
-3.59971e-69 -0.00970858 0
-4.19122e-69 -0.00970858 0
-6.50961e-70 -0.00970858 0
3.16473e-70 -0.00970858 0
7.367e-70 -0.00970858 0
3.88781e-69 -0.00970858 0
SCALARS radius double 1
LOOKUP_TABLE default
0.0005192
0.000759374
0.000731582
0.000932767
0.000864852
0.00092132
0.000824734
0.000662097
0.000535446
0.00094621
0.000999249
0.000802661
0.000671708
0.000819153
0.000645007
0.000827505
0.000602392
0.000772815
0.000550095
0.000626194
0.000886859
0.000531918
0.000790192
0.000909137
0.00096445
SCALARS mass double 1
LOOKUP_TABLE default
0.00228657
0.0048913
0.00453983
0.00738005
0.00634449
0.00720004
0.00576955
0.0037184
0.0024319
0.00759432
0.00846957
0.00546484
0.00382714
0.00569173
0.00352892
0.00580838
0.00307803
0.005066
0.00256678
0.00332607
0.00667148
0.00239995
0.00529637
0.00701087
0.00788992
