# vtk DataFile Version 3.0
DEM2D particles
ASCII
DATASET POLYDATA
POINTS 25 double
0.000210495 0.000380754 0
0.00247694 -1.85336e-05 0
0.00456711 0.00062879 0
0.00674628 0.000510077 0
0.00933215 0.0014272 0
0.000976388 0.00358137 0
0.00272805 0.00326582 0
0.00430175 0.00279701 0
0.00620409 0.0022197 0
0.00807857 0.00266566 0
0.00194188 0.00451834 0
0.00315848 0.00423742 0
0.00447748 0.00474162 0
0.00666273 0.00581416 0
0.00823043 0.00526669 0
0.0014505 0.00643701 0
0.0023961 0.00755038 0
0.00577483 0.00657546 0
0.00705357 0.00713707 0
0.00819693 0.00684279 0
6.49695e-05 0.00848398 0
0.00285478 0.00984398 0
0.0050706 0.00877677 0
0.00716435 0.00937178 0
0.00986734 0.00892069 0
VERTICES 25 50
1 0
1 1
1 2
1 3
1 4
1 5
1 6
1 7
1 8
1 9
1 10
1 11
1 12
1 13
1 14
1 15
1 16
1 17
1 18
1 19
1 20
1 21
1 22
1 23
1 24
POINT_DATA 25
VECTORS velocity double
-3.77276e-06 -0.00971098 0
-2.49952e-06 -0.00971288 0
-2.06863e-06 -0.00970979 0
-1.21244e-06 -0.00971036 0
1.58721e-06 -0.00970598 0
-1.12834e-07 -0.00970524 0
-1.29957e-06 -0.00970675 0
-3.33668e-06 -0.00970899 0
-3.80338e-06 -0.00971175 0
-4.40318e-06 -0.00970962 0
4.5009e-06 -0.00971032 0
7.5732e-07 -0.00971166 0
-2.49692e-06 -0.00970925 0
-1.61167e-06 -0.00970413 0
-3.67748e-06 -0.00970674 0
2.15277e-06 -0.00971071 0
-2.8858e-06 -0.00970539 0
3.70263e-06 -0.00971005 0
2.55996e-07 -0.00970736 0
-3.83758e-06 -0.00970877 0
-4.46817e-06 -0.00971048 0
-6.93976e-07 -0.00970398 0
3.37385e-07 -0.00970908 0
7.85382e-07 -0.00970624 0
4.14472e-06 -0.0097084 0
SCALARS radius double 1
LOOKUP_TABLE default
0.0005192
0.000759374
0.000731582
0.000932767
0.000864852
0.00092132
0.000824734
0.000662097
0.000535446
0.00094621
0.000999249
0.000802661
0.000671708
0.000819153
0.000645007
0.000827505
0.000602392
0.000772815
0.000550095
0.000626194
0.000886859
0.000531918
0.000790192
0.000909137
0.00096445
SCALARS mass double 1
LOOKUP_TABLE default
0.00228657
0.0048913
0.00453983
0.00738005
0.00634449
0.00720004
0.00576955
0.0037184
0.0024319
0.00759432
0.00846957
0.00546484
0.00382714
0.00569173
0.00352892
0.00580838
0.00307803
0.005066
0.00256678
0.00332607
0.00667148
0.00239995
0.00529637
0.00701087
0.00788992
