# vtk DataFile Version 3.0
DEM2D particles
ASCII
DATASET POLYDATA
POINTS 25 double
0.000210492 -0.000809521 0
0.00247694 -0.00120881 0
0.00456711 -0.000561483 0
0.00674628 -0.000680197 0
0.00933215 0.000236929 0
0.000976388 0.0023911 0
0.00272805 0.00207555 0
0.00430175 0.00160674 0
0.00620408 0.00102942 0
0.00807857 0.00147539 0
0.00194188 0.00332807 0
0.00315848 0.00304714 0
0.00447748 0.00355134 0
0.00666273 0.0046239 0
0.00823043 0.00407642 0
0.0014505 0.00524674 0
0.0023961 0.00636011 0
0.00577483 0.00538519 0
0.00705357 0.0059468 0
0.00819693 0.00565251 0
6.49651e-05 0.0072937 0
0.00285477 0.00865371 0
0.0050706 0.0075865 0
0.00716435 0.00818151 0
0.00986735 0.00773042 0
VERTICES 25 50
1 0
1 1
1 2
1 3
1 4
1 5
1 6
1 7
1 8
1 9
1 10
1 11
1 12
1 13
1 14
1 15
1 16
1 17
1 18
1 19
1 20
1 21
1 22
1 23
1 24
POINT_DATA 25
VECTORS velocity double
-1.15916e-59 -0.00970858 0
-7.67967e-60 -0.00970858 0
-6.35577e-60 -0.00970858 0
-3.72517e-60 -0.00970858 0
4.87663e-60 -0.00970858 0
-3.46679e-61 -0.00970858 0
-3.99286e-60 -0.00970858 0
-1.02518e-59 -0.00970858 0
-1.16857e-59 -0.00970858 0
-1.35286e-59 -0.00970858 0
1.38288e-59 -0.00970858 0
2.32683e-60 -0.00970858 0
-7.67167e-60 -0.00970858 0
-4.95179e-60 -0.00970858 0
-1.12989e-59 -0.00970858 0
6.61429e-60 -0.00970858 0
-8.8665e-60 -0.00970858 0
1.13762e-59 -0.00970858 0
7.86535e-61 -0.00970858 0
-1.17908e-59 -0.00970858 0
-1.37283e-59 -0.00970858 0
-2.13221e-60 -0.00970858 0
1.0366e-60 -0.00970858 0
2.41305e-60 -0.00970858 0
1.27345e-59 -0.00970858 0
SCALARS radius double 1
LOOKUP_TABLE default
0.0005192
0.000759374
0.000731582
0.000932767
0.000864852
0.00092132
0.000824734
0.000662097
0.000535446
0.00094621
0.000999249
0.000802661
0.000671708
0.000819153
0.000645007
0.000827505
0.000602392
0.000772815
0.000550095
0.000626194
0.000886859
0.000531918
0.000790192
0.000909137
0.00096445
SCALARS mass double 1
LOOKUP_TABLE default
0.00228657
0.0048913
0.00453983
0.00738005
0.00634449
0.00720004
0.00576955
0.0037184
0.0024319
0.00759432
0.00846957
0.00546484
0.00382714
0.00569173
0.00352892
0.00580838
0.00307803
0.005066
0.00256678
0.00332607
0.00667148
0.00239995
0.00529637
0.00701087
0.00788992
