# vtk DataFile Version 3.0
DEM2D particles
ASCII
DATASET POLYDATA
POINTS 25 double
0.000210492 6.81349e-05 0
0.00247694 -0.000331154 0
0.00456711 0.000316173 0
0.00674628 0.000197459 0
0.00933215 0.00111459 0
0.000976388 0.00326876 0
0.00272805 0.00295321 0
0.00430175 0.0024844 0
0.00620408 0.00190708 0
0.00807857 0.00235304 0
0.00194188 0.00420572 0
0.00315848 0.0039248 0
0.00447748 0.004429 0
0.00666273 0.00550155 0
0.00823043 0.00495407 0
0.0014505 0.0061244 0
0.0023961 0.00723776 0
0.00577483 0.00626284 0
0.00705357 0.00682446 0
0.00819693 0.00653017 0
6.49651e-05 0.00817136 0
0.00285477 0.00953137 0
0.0050706 0.00846415 0
0.00716435 0.00905917 0
0.00986735 0.00860808 0
VERTICES 25 50
1 0
1 1
1 2
1 3
1 4
1 5
1 6
1 7
1 8
1 9
1 10
1 11
1 12
1 13
1 14
1 15
1 16
1 17
1 18
1 19
1 20
1 21
1 22
1 23
1 24
POINT_DATA 25
VECTORS velocity double
-3.32648e-20 -0.00970858 0
-2.20386e-20 -0.00970858 0
-1.82393e-20 -0.00970858 0
-1.06902e-20 -0.00970858 0
1.39946e-20 -0.00970858 0
-9.94875e-22 -0.00970858 0
-1.14584e-20 -0.00970858 0
-2.94199e-20 -0.00970858 0
-3.35348e-20 -0.00970858 0
-3.88233e-20 -0.00970858 0
3.96849e-20 -0.00970858 0
6.67738e-21 -0.00970858 0
-2.20156e-20 -0.00970858 0
-1.42103e-20 -0.00970858 0
-3.24248e-20 -0.00970858 0
1.89812e-20 -0.00970858 0
-2.54445e-20 -0.00970858 0
3.26465e-20 -0.00970858 0
2.25714e-21 -0.00970858 0
-3.38364e-20 -0.00970858 0
-3.93964e-20 -0.00970858 0
-6.11887e-21 -0.00970858 0
2.97477e-21 -0.00970858 0
6.9248e-21 -0.00970858 0
3.65445e-20 -0.00970858 0
SCALARS radius double 1
LOOKUP_TABLE default
0.0005192
0.000759374
0.000731582
0.000932767
0.000864852
0.00092132
0.000824734
0.000662097
0.000535446
0.00094621
0.000999249
0.000802661
0.000671708
0.000819153
0.000645007
0.000827505
0.000602392
0.000772815
0.000550095
0.000626194
0.000886859
0.000531918
0.000790192
0.000909137
0.00096445
SCALARS mass double 1
LOOKUP_TABLE default
0.00228657
0.0048913
0.00453983
0.00738005
0.00634449
0.00720004
0.00576955
0.0037184
0.0024319
0.00759432
0.00846957
0.00546484
0.00382714
0.00569173
0.00352892
0.00580838
0.00307803
0.005066
0.00256678
0.00332607
0.00667148
0.00239995
0.00529637
0.00701087
0.00788992
