# vtk DataFile Version 3.0
DEM2D particles
ASCII
DATASET POLYDATA
POINTS 25 double
0.000210543 0.000406026 0
0.00247697 6.76252e-06 0
0.00456714 0.000654048 0
0.00674629 0.000535341 0
0.00933213 0.00145241 0
0.000976389 0.00360657 0
0.00272806 0.00329104 0
0.00430179 0.00282226 0
0.00620414 0.00224498 0
0.00807863 0.00269091 0
0.00194182 0.0045436 0
0.00315847 0.0042627 0
0.00447751 0.00476687 0
0.00666275 0.00583935 0
0.00823048 0.0052919 0
0.00145047 0.00646228 0
0.00239614 0.00757558 0
0.00577478 0.00660072 0
0.00705357 0.0071623 0
0.00819698 0.00686803 0
6.50254e-05 0.00850924 0
0.00285478 0.00986916 0
0.0050706 0.00880202 0
0.00716434 0.00939699 0
0.00986729 0.00894593 0
VERTICES 25 50
1 0
1 1
1 2
1 3
1 4
1 5
1 6
1 7
1 8
1 9
1 10
1 11
1 12
1 13
1 14
1 15
1 16
1 17
1 18
1 19
1 20
1 21
1 22
1 23
1 24
POINT_DATA 25
VECTORS velocity double
-5.14646e-05 -0.00974123 0
-3.40962e-05 -0.00976726 0
-2.82184e-05 -0.00972506 0
-1.6539e-05 -0.0097328 0
2.16513e-05 -0.00967302 0
-1.53919e-06 -0.00966297 0
-1.77275e-05 -0.00968353 0
-4.55159e-05 -0.00971409 0
-5.18823e-05 -0.00975173 0
-6.00642e-05 -0.00972266 0
6.13972e-05 -0.00973226 0
1.03307e-05 -0.00975057 0
-3.40607e-05 -0.00971771 0
-2.1985e-05 -0.00964779 0
-5.01649e-05 -0.00968348 0
2.93661e-05 -0.00973756 0
-3.93655e-05 -0.00966499 0
5.0508e-05 -0.00972854 0
3.49206e-06 -0.00969193 0
-5.23488e-05 -0.00971111 0
-6.09508e-05 -0.0097345 0
-9.4666e-06 -0.00964585 0
4.60231e-06 -0.00971541 0
1.07135e-05 -0.00967663 0
5.65386e-05 -0.00970603 0
SCALARS radius double 1
LOOKUP_TABLE default
0.0005192
0.000759374
0.000731582
0.000932767
0.000864852
0.00092132
0.000824734
0.000662097
0.000535446
0.00094621
0.000999249
0.000802661
0.000671708
0.000819153
0.000645007
0.000827505
0.000602392
0.000772815
0.000550095
0.000626194
0.000886859
0.000531918
0.000790192
0.000909137
0.00096445
SCALARS mass double 1
LOOKUP_TABLE default
0.00228657
0.0048913
0.00453983
0.00738005
0.00634449
0.00720004
0.00576955
0.0037184
0.0024319
0.00759432
0.00846957
0.00546484
0.00382714
0.00569173
0.00352892
0.00580838
0.00307803
0.005066
0.00256678
0.00332607
0.00667148
0.00239995
0.00529637
0.00701087
0.00788992
