# vtk DataFile Version 3.0
DEM2D particles
ASCII
DATASET POLYDATA
POINTS 25 double
0.00021106 0.000429655 0
0.00247731 3.06531e-05 0
0.00456742 0.000677514 0
0.00674646 0.000558885 0
0.00933191 0.00147535 0
0.000976405 0.00362942 0
0.00272824 0.00331409 0
0.00430225 0.00284562 0
0.00620466 0.00226872 0
0.00807923 0.00271436 0
0.0019412 0.00456714 0
0.00315837 0.00428642 0
0.00447786 0.00479026 0
0.00666298 0.00586204 0
0.00823098 0.00531495 0
0.00145018 0.00648587 0
0.00239654 0.00759844 0
0.00577428 0.00662422 0
0.00705353 0.00718543 0
0.00819751 0.00689136 0
6.56383e-05 0.00853281 0
0.00285488 0.00989183 0
0.00507055 0.00882539 0
0.00716424 0.00941997 0
0.00986672 0.00896921 0
VERTICES 25 50
1 0
1 1
1 2
1 3
1 4
1 5
1 6
1 7
1 8
1 9
1 10
1 11
1 12
1 13
1 14
1 15
1 16
1 17
1 18
1 19
1 20
1 21
1 22
1 23
1 24
POINT_DATA 25
VECTORS velocity double
-0.000574198 -0.0100728 0
-0.000380417 -0.0103632 0
-0.000314837 -0.00989242 0
-0.000184529 -0.00997876 0
0.000241567 -0.00931174 0
-1.71729e-05 -0.00919961 0
-0.000197789 -0.00942911 0
-0.000507828 -0.00977007 0
-0.000578858 -0.0101899 0
-0.000670145 -0.0098656 0
0.000685017 -0.00997275 0
0.000115261 -0.0101771 0
-0.00038002 -0.00981036 0
-0.000245289 -0.00903031 0
-0.000559697 -0.00942848 0
0.000327642 -0.0100319 0
-0.000439207 -0.00922216 0
0.000563525 -0.0099312 0
3.89614e-05 -0.00952275 0
-0.000584063 -0.00973678 0
-0.000680037 -0.00999774 0
-0.00010562 -0.00900862 0
5.13486e-05 -0.00978479 0
0.000119532 -0.00935205 0
0.000630809 -0.00968012 0
SCALARS radius double 1
LOOKUP_TABLE default
0.0005192
0.000759374
0.000731582
0.000932767
0.000864852
0.00092132
0.000824734
0.000662097
0.000535446
0.00094621
0.000999249
0.000802661
0.000671708
0.000819153
0.000645007
0.000827505
0.000602392
0.000772815
0.000550095
0.000626194
0.000886859
0.000531918
0.000790192
0.000909137
0.00096445
SCALARS mass double 1
LOOKUP_TABLE default
0.00228657
0.0048913
0.00453983
0.00738005
0.00634449
0.00720004
0.00576955
0.0037184
0.0024319
0.00759432
0.00846957
0.00546484
0.00382714
0.00569173
0.00352892
0.00580838
0.00307803
0.005066
0.00256678
0.00332607
0.00667148
0.00239995
0.00529637
0.00701087
0.00788992
