# vtk DataFile Version 3.0
DEM2D particles
ASCII
DATASET POLYDATA
POINTS 25 double
0.000210492 -0.000986217 0
0.00247694 -0.00138551 0
0.00456711 -0.000738179 0
0.00674628 -0.000856893 0
0.00933215 6.0233e-05 0
0.000976388 0.00221441 0
0.00272805 0.00189886 0
0.00430175 0.00143004 0
0.00620408 0.000852728 0
0.00807857 0.00129869 0
0.00194188 0.00315137 0
0.00315848 0.00287044 0
0.00447748 0.00337465 0
0.00666273 0.0044472 0
0.00823043 0.00389972 0
0.0014505 0.00507004 0
0.0023961 0.00618341 0
0.00577483 0.00520849 0
0.00705357 0.0057701 0
0.00819693 0.00547582 0
6.49651e-05 0.00711701 0
0.00285477 0.00847701 0
0.0050706 0.0074098 0
0.00716435 0.00800481 0
0.00986735 0.00755372 0
VERTICES 25 50
1 0
1 1
1 2
1 3
1 4
1 5
1 6
1 7
1 8
1 9
1 10
1 11
1 12
1 13
1 14
1 15
1 16
1 17
1 18
1 19
1 20
1 21
1 22
1 23
1 24
POINT_DATA 25
VECTORS velocity double
-1.31886e-67 -0.00970858 0
-8.73769e-68 -0.00970858 0
-7.2314e-68 -0.00970858 0
-4.23839e-68 -0.00970858 0
5.54848e-68 -0.00970858 0
-3.94441e-69 -0.00970858 0
-4.54296e-68 -0.00970858 0
-1.16642e-67 -0.00970858 0
-1.32956e-67 -0.00970858 0
-1.53924e-67 -0.00970858 0
1.5734e-67 -0.00970858 0
2.6474e-68 -0.00970858 0
-8.72859e-68 -0.00970858 0
-5.63399e-68 -0.00970858 0
-1.28555e-67 -0.00970858 0
7.52554e-68 -0.00970858 0
-1.0088e-67 -0.00970858 0
1.29435e-67 -0.00970858 0
8.94895e-69 -0.00970858 0
-1.34152e-67 -0.00970858 0
-1.56196e-67 -0.00970858 0
-2.42597e-68 -0.00970858 0
1.17941e-68 -0.00970858 0
2.7455e-68 -0.00970858 0
1.44889e-67 -0.00970858 0
SCALARS radius double 1
LOOKUP_TABLE default
0.0005192
0.000759374
0.000731582
0.000932767
0.000864852
0.00092132
0.000824734
0.000662097
0.000535446
0.00094621
0.000999249
0.000802661
0.000671708
0.000819153
0.000645007
0.000827505
0.000602392
0.000772815
0.000550095
0.000626194
0.000886859
0.000531918
0.000790192
0.000909137
0.00096445
SCALARS mass double 1
LOOKUP_TABLE default
0.00228657
0.0048913
0.00453983
0.00738005
0.00634449
0.00720004
0.00576955
0.0037184
0.0024319
0.00759432
0.00846957
0.00546484
0.00382714
0.00569173
0.00352892
0.00580838
0.00307803
0.005066
0.00256678
0.00332607
0.00667148
0.00239995
0.00529637
0.00701087
0.00788992
