# vtk DataFile Version 3.0
DEM2D particles
ASCII
DATASET POLYDATA
POINTS 25 double
0.000210492 -0.000893015 0
0.00247694 -0.0012923 0
0.00456711 -0.000644977 0
0.00674628 -0.000763691 0
0.00933215 0.000153435 0
0.000976388 0.00230761 0
0.00272805 0.00199206 0
0.00430175 0.00152325 0
0.00620408 0.000945931 0
0.00807857 0.00139189 0
0.00194188 0.00324457 0
0.00315848 0.00296365 0
0.00447748 0.00346785 0
0.00666273 0.0045404 0
0.00823043 0.00399292 0
0.0014505 0.00516325 0
0.0023961 0.00627661 0
0.00577483 0.00530169 0
0.00705357 0.00586331 0
0.00819693 0.00556902 0
6.49651e-05 0.00721021 0
0.00285477 0.00857022 0
0.0050706 0.007503 0
0.00716435 0.00809802 0
0.00986735 0.00764693 0
VERTICES 25 50
1 0
1 1
1 2
1 3
1 4
1 5
1 6
1 7
1 8
1 9
1 10
1 11
1 12
1 13
1 14
1 15
1 16
1 17
1 18
1 19
1 20
1 21
1 22
1 23
1 24
POINT_DATA 25
VECTORS velocity double
-2.04368e-63 -0.00970858 0
-1.35397e-63 -0.00970858 0
-1.12056e-63 -0.00970858 0
-6.56771e-64 -0.00970858 0
8.5978e-64 -0.00970858 0
-6.11216e-65 -0.00970858 0
-7.03966e-64 -0.00970858 0
-1.80745e-63 -0.00970858 0
-2.06026e-63 -0.00970858 0
-2.38517e-63 -0.00970858 0
2.4381e-63 -0.00970858 0
4.10235e-64 -0.00970858 0
-1.35256e-63 -0.00970858 0
-8.7303e-64 -0.00970858 0
-1.99207e-63 -0.00970858 0
1.16614e-63 -0.00970858 0
-1.56322e-63 -0.00970858 0
2.00569e-63 -0.00970858 0
1.38671e-64 -0.00970858 0
-2.07879e-63 -0.00970858 0
-2.42038e-63 -0.00970858 0
-3.75922e-64 -0.00970858 0
1.82759e-64 -0.00970858 0
4.25436e-64 -0.00970858 0
2.24517e-63 -0.00970858 0
SCALARS radius double 1
LOOKUP_TABLE default
0.0005192
0.000759374
0.000731582
0.000932767
0.000864852
0.00092132
0.000824734
0.000662097
0.000535446
0.00094621
0.000999249
0.000802661
0.000671708
0.000819153
0.000645007
0.000827505
0.000602392
0.000772815
0.000550095
0.000626194
0.000886859
0.000531918
0.000790192
0.000909137
0.00096445
SCALARS mass double 1
LOOKUP_TABLE default
0.00228657
0.0048913
0.00453983
0.00738005
0.00634449
0.00720004
0.00576955
0.0037184
0.0024319
0.00759432
0.00846957
0.00546484
0.00382714
0.00569173
0.00352892
0.00580838
0.00307803
0.005066
0.00256678
0.00332607
0.00667148
0.00239995
0.00529637
0.00701087
0.00788992
