# vtk DataFile Version 3.0
DEM2D particles
ASCII
DATASET POLYDATA
POINTS 25 double
0.000210492 7.97852e-05 0
0.00247694 -0.000319504 0
0.00456711 0.000327823 0
0.00674628 0.000209109 0
0.00933215 0.00112624 0
0.000976388 0.00328041 0
0.00272805 0.00296486 0
0.00430175 0.00249605 0
0.00620408 0.00191873 0
0.00807857 0.00236469 0
0.00194188 0.00421737 0
0.00315848 0.00393645 0
0.00447748 0.00444065 0
0.00666273 0.0055132 0
0.00823043 0.00496572 0
0.0014505 0.00613605 0
0.0023961 0.00724941 0
0.00577483 0.00627449 0
0.00705357 0.00683611 0
0.00819693 0.00654182 0
6.49651e-05 0.00818301 0
0.00285477 0.00954302 0
0.0050706 0.0084758 0
0.00716435 0.00907082 0
0.00986735 0.00861973 0
VERTICES 25 50
1 0
1 1
1 2
1 3
1 4
1 5
1 6
1 7
1 8
1 9
1 10
1 11
1 12
1 13
1 14
1 15
1 16
1 17
1 18
1 19
1 20
1 21
1 22
1 23
1 24
POINT_DATA 25
VECTORS velocity double
-1.11112e-19 -0.00970858 0
-7.36139e-20 -0.00970858 0
-6.09236e-20 -0.00970858 0
-3.57079e-20 -0.00970858 0
4.67452e-20 -0.00970858 0
-3.32311e-21 -0.00970858 0
-3.82738e-20 -0.00970858 0
-9.82692e-20 -0.00970858 0
-1.12014e-19 -0.00970858 0
-1.29679e-19 -0.00970858 0
1.32557e-19 -0.00970858 0
2.2304e-20 -0.00970858 0
-7.35373e-20 -0.00970858 0
-4.74656e-20 -0.00970858 0
-1.08306e-19 -0.00970858 0
6.34017e-20 -0.00970858 0
-8.49904e-20 -0.00970858 0
1.09047e-19 -0.00970858 0
7.53938e-21 -0.00970858 0
-1.13021e-19 -0.00970858 0
-1.31593e-19 -0.00970858 0
-2.04385e-20 -0.00970858 0
9.93641e-21 -0.00970858 0
2.31305e-20 -0.00970858 0
1.22067e-19 -0.00970858 0
SCALARS radius double 1
LOOKUP_TABLE default
0.0005192
0.000759374
0.000731582
0.000932767
0.000864852
0.00092132
0.000824734
0.000662097
0.000535446
0.00094621
0.000999249
0.000802661
0.000671708
0.000819153
0.000645007
0.000827505
0.000602392
0.000772815
0.000550095
0.000626194
0.000886859
0.000531918
0.000790192
0.000909137
0.00096445
SCALARS mass double 1
LOOKUP_TABLE default
0.00228657
0.0048913
0.00453983
0.00738005
0.00634449
0.00720004
0.00576955
0.0037184
0.0024319
0.00759432
0.00846957
0.00546484
0.00382714
0.00569173
0.00352892
0.00580838
0.00307803
0.005066
0.00256678
0.00332607
0.00667148
0.00239995
0.00529637
0.00701087
0.00788992
