# vtk DataFile Version 3.0
DEM2D particles
ASCII
DATASET POLYDATA
POINTS 25 double
0.000210492 -0.00124641 0
0.00247694 -0.0016457 0
0.00456711 -0.000998369 0
0.00674628 -0.00111708 0
0.00933215 -0.000199957 0
0.000976388 0.00195422 0
0.00272805 0.00163867 0
0.00430175 0.00116985 0
0.00620408 0.000592538 0
0.00807857 0.0010385 0
0.00194188 0.00289118 0
0.00315848 0.00261025 0
0.00447748 0.00311446 0
0.00666273 0.00418701 0
0.00823043 0.00363953 0
0.0014505 0.00480985 0
0.0023961 0.00592322 0
0.00577483 0.0049483 0
0.00705357 0.00550991 0
0.00819693 0.00521563 0
6.49651e-05 0.00685682 0
0.00285477 0.00821682 0
0.0050706 0.00714961 0
0.00716435 0.00774462 0
0.00986735 0.00729353 0
VERTICES 25 50
1 0
1 1
1 2
1 3
1 4
1 5
1 6
1 7
1 8
1 9
1 10
1 11
1 12
1 13
1 14
1 15
1 16
1 17
1 18
1 19
1 20
1 21
1 22
1 23
1 24
POINT_DATA 25
VECTORS velocity double
-2.64558e-79 -0.00970858 0
-1.75274e-79 -0.00970858 0
-1.45059e-79 -0.00970858 0
-8.50202e-80 -0.00970858 0
1.113e-79 -0.00970858 0
-7.91231e-81 -0.00970858 0
-9.11298e-80 -0.00970858 0
-2.33978e-79 -0.00970858 0
-2.66705e-79 -0.00970858 0
-3.08765e-79 -0.00970858 0
3.15617e-79 -0.00970858 0
5.31057e-80 -0.00970858 0
-1.75092e-79 -0.00970858 0
-1.13015e-79 -0.00970858 0
-2.57877e-79 -0.00970858 0
1.50959e-79 -0.00970858 0
-2.02362e-79 -0.00970858 0
2.5964e-79 -0.00970858 0
1.79512e-80 -0.00970858 0
-2.69103e-79 -0.00970858 0
-3.13322e-79 -0.00970858 0
-4.86638e-80 -0.00970858 0
2.36585e-80 -0.00970858 0
5.50735e-80 -0.00970858 0
2.90641e-79 -0.00970858 0
SCALARS radius double 1
LOOKUP_TABLE default
0.0005192
0.000759374
0.000731582
0.000932767
0.000864852
0.00092132
0.000824734
0.000662097
0.000535446
0.00094621
0.000999249
0.000802661
0.000671708
0.000819153
0.000645007
0.000827505
0.000602392
0.000772815
0.000550095
0.000626194
0.000886859
0.000531918
0.000790192
0.000909137
0.00096445
SCALARS mass double 1
LOOKUP_TABLE default
0.00228657
0.0048913
0.00453983
0.00738005
0.00634449
0.00720004
0.00576955
0.0037184
0.0024319
0.00759432
0.00846957
0.00546484
0.00382714
0.00569173
0.00352892
0.00580838
0.00307803
0.005066
0.00256678
0.00332607
0.00667148
0.00239995
0.00529637
0.00701087
0.00788992
