# vtk DataFile Version 3.0
DEM2D particles
ASCII
DATASET POLYDATA
POINTS 25 double
0.000210492 -0.000393994 0
0.00247694 -0.000793283 0
0.00456711 -0.000145956 0
0.00674628 -0.00026467 0
0.00933215 0.000652457 0
0.000976388 0.00280663 0
0.00272805 0.00249108 0
0.00430175 0.00202227 0
0.00620408 0.00144495 0
0.00807857 0.00189091 0
0.00194188 0.00374359 0
0.00315848 0.00346267 0
0.00447748 0.00396687 0
0.00666273 0.00503942 0
0.00823043 0.00449194 0
0.0014505 0.00566227 0
0.0023961 0.00677564 0
0.00577483 0.00580071 0
0.00705357 0.00636233 0
0.00819693 0.00606804 0
6.49651e-05 0.00770923 0
0.00285477 0.00906924 0
0.0050706 0.00800202 0
0.00716435 0.00859704 0
0.00986735 0.00814595 0
VERTICES 25 50
1 0
1 1
1 2
1 3
1 4
1 5
1 6
1 7
1 8
1 9
1 10
1 11
1 12
1 13
1 14
1 15
1 16
1 17
1 18
1 19
1 20
1 21
1 22
1 23
1 24
POINT_DATA 25
VECTORS velocity double
-5.5656e-41 -0.00970858 0
-3.68731e-41 -0.00970858 0
-3.05165e-41 -0.00970858 0
-1.7886e-41 -0.00970858 0
2.34146e-41 -0.00970858 0
-1.66454e-42 -0.00970858 0
-1.91713e-41 -0.00970858 0
-4.92229e-41 -0.00970858 0
-5.61077e-41 -0.00970858 0
-6.4956e-41 -0.00970858 0
6.63975e-41 -0.00970858 0
1.1172e-41 -0.00970858 0
-3.68347e-41 -0.00970858 0
-2.37755e-41 -0.00970858 0
-5.42505e-41 -0.00970858 0
3.17578e-41 -0.00970858 0
-4.25715e-41 -0.00970858 0
5.46215e-41 -0.00970858 0
3.77646e-42 -0.00970858 0
-5.66122e-41 -0.00970858 0
-6.59148e-41 -0.00970858 0
-1.02376e-41 -0.00970858 0
4.97713e-42 -0.00970858 0
1.1586e-41 -0.00970858 0
6.11432e-41 -0.00970858 0
SCALARS radius double 1
LOOKUP_TABLE default
0.0005192
0.000759374
0.000731582
0.000932767
0.000864852
0.00092132
0.000824734
0.000662097
0.000535446
0.00094621
0.000999249
0.000802661
0.000671708
0.000819153
0.000645007
0.000827505
0.000602392
0.000772815
0.000550095
0.000626194
0.000886859
0.000531918
0.000790192
0.000909137
0.00096445
SCALARS mass double 1
LOOKUP_TABLE default
0.00228657
0.0048913
0.00453983
0.00738005
0.00634449
0.00720004
0.00576955
0.0037184
0.0024319
0.00759432
0.00846957
0.00546484
0.00382714
0.00569173
0.00352892
0.00580838
0.00307803
0.005066
0.00256678
0.00332607
0.00667148
0.00239995
0.00529637
0.00701087
0.00788992
