# vtk DataFile Version 3.0
DEM2D particles
ASCII
DATASET POLYDATA
POINTS 25 double
0.000210514 0.000398241 0
0.00247695 -1.03644e-06 0
0.00456712 0.000646272 0
0.00674629 0.000527561 0
0.00933214 0.00144466 0
0.000976388 0.00359883 0
0.00272805 0.00328329 0
0.00430177 0.00281449 0
0.00620411 0.00223719 0
0.00807859 0.00268314 0
0.00194186 0.00453582 0
0.00315848 0.00425491 0
0.0044775 0.0047591 0
0.00666274 0.00583162 0
0.00823045 0.00528415 0
0.00145049 0.0064545 0
0.00239612 0.00756784 0
0.00577481 0.00659294 0
0.00705357 0.00715454 0
0.00819695 0.00686026 0
6.49921e-05 0.00850146 0
0.00285478 0.00986143 0
0.0050706 0.00879425 0
0.00716435 0.00938924 0
0.00986732 0.00893817 0
VERTICES 25 50
1 0
1 1
1 2
1 3
1 4
1 5
1 6
1 7
1 8
1 9
1 10
1 11
1 12
1 13
1 14
1 15
1 16
1 17
1 18
1 19
1 20
1 21
1 22
1 23
1 24
POINT_DATA 25
VECTORS velocity double
-2.30316e-05 -0.00972319 0
-1.52588e-05 -0.00973484 0
-1.26284e-05 -0.00971596 0
-7.4016e-06 -0.00971942 0
9.68945e-06 -0.00969267 0
-6.88821e-07 -0.00968817 0
-7.93348e-06 -0.00969737 0
-2.03694e-05 -0.00971105 0
-2.32185e-05 -0.00972789 0
-2.68801e-05 -0.00971488 0
2.74767e-05 -0.00971918 0
4.62322e-06 -0.00972737 0
-1.5243e-05 -0.00971267 0
-9.83878e-06 -0.00968138 0
-2.245e-05 -0.00969735 0
1.3142e-05 -0.00972155 0
-1.7617e-05 -0.00968907 0
2.26035e-05 -0.00971751 0
1.56278e-06 -0.00970113 0
-2.34273e-05 -0.00970971 0
-2.72769e-05 -0.00972018 0
-4.23652e-06 -0.00968051 0
2.05964e-06 -0.00971164 0
4.79453e-06 -0.00969428 0
2.53023e-05 -0.00970744 0
SCALARS radius double 1
LOOKUP_TABLE default
0.0005192
0.000759374
0.000731582
0.000932767
0.000864852
0.00092132
0.000824734
0.000662097
0.000535446
0.00094621
0.000999249
0.000802661
0.000671708
0.000819153
0.000645007
0.000827505
0.000602392
0.000772815
0.000550095
0.000626194
0.000886859
0.000531918
0.000790192
0.000909137
0.00096445
SCALARS mass double 1
LOOKUP_TABLE default
0.00228657
0.0048913
0.00453983
0.00738005
0.00634449
0.00720004
0.00576955
0.0037184
0.0024319
0.00759432
0.00846957
0.00546484
0.00382714
0.00569173
0.00352892
0.00580838
0.00307803
0.005066
0.00256678
0.00332607
0.00667148
0.00239995
0.00529637
0.00701087
0.00788992
