# vtk DataFile Version 3.0
DEM2D particles
ASCII
DATASET POLYDATA
POINTS 25 double
0.000563815 0.000715551 0
0.00271102 0.000494953 0
0.00476084 0.000852586 0
0.00685982 0.000786999 0
0.0091835 0.00129369 0
0.000986955 0.00337887 0
0.00284975 0.00320453 0
0.00461423 0.00294553 0
0.00656027 0.00262657 0
0.00849093 0.00287296 0
0.00152037 0.00479156 0
0.00308756 0.00463636 0
0.00471132 0.00491492 0
0.00681367 0.00550748 0
0.00857483 0.00520501 0
0.00124889 0.00674663 0
0.00266636 0.00736174 0
0.00542808 0.00682312 0
0.0070296 0.0071334 0
0.00855632 0.00697081 0
0.000483415 0.00877258 0
0.00291977 0.00952395 0
0.00503901 0.00893434 0
0.0070908 0.00926307 0
0.00947919 0.00901386 0
VERTICES 25 50
1 0
1 1
1 2
1 3
1 4
1 5
1 6
1 7
1 8
1 9
1 10
1 11
1 12
1 13
1 14
1 15
1 16
1 17
1 18
1 19
1 20
1 21
1 22
1 23
1 24
POINT_DATA 25
VECTORS velocity double
-0.356892 -0.236094 0
-0.236448 -0.41659 0
-0.195686 -0.12397 0
-0.114694 -0.177634 0
0.150146 0.236947 0
-0.0106738 0.306641 0
-0.122935 0.163997 0
-0.31564 -0.0479256 0
-0.359789 -0.308897 0
-0.416528 -0.107303 0
0.425772 -0.173899 0
0.0716404 -0.300889 0
-0.236201 -0.0729674 0
-0.152459 0.411873 0
-0.347879 0.164388 0
0.203646 -0.210662 0
-0.272989 0.29263 0
0.350259 -0.148077 0
0.0242165 0.105796 0
-0.363024 -0.027234 0
-0.422677 -0.189432 0
-0.0656482 0.42535 0
0.0319157 -0.0570764 0
0.0742949 0.211896 0
0.392079 0.00798302 0
SCALARS radius double 1
LOOKUP_TABLE default
0.0005192
0.000759374
0.000731582
0.000932767
0.000864852
0.00092132
0.000824734
0.000662097
0.000535446
0.00094621
0.000999249
0.000802661
0.000671708
0.000819153
0.000645007
0.000827505
0.000602392
0.000772815
0.000550095
0.000626194
0.000886859
0.000531918
0.000790192
0.000909137
0.00096445
SCALARS mass double 1
LOOKUP_TABLE default
0.00228657
0.0048913
0.00453983
0.00738005
0.00634449
0.00720004
0.00576955
0.0037184
0.0024319
0.00759432
0.00846957
0.00546484
0.00382714
0.00569173
0.00352892
0.00580838
0.00307803
0.005066
0.00256678
0.00332607
0.00667148
0.00239995
0.00529637
0.00701087
0.00788992
