# vtk DataFile Version 3.0
DEM2D particles
ASCII
DATASET POLYDATA
POINTS 25 double
0.000210492 -0.00135903 0
0.00247694 -0.00175832 0
0.00456711 -0.00111099 0
0.00674628 -0.0012297 0
0.00933215 -0.000312577 0
0.000976388 0.0018416 0
0.00272805 0.00152605 0
0.00430175 0.00105723 0
0.00620408 0.000479919 0
0.00807857 0.00092588 0
0.00194188 0.00277856 0
0.00315848 0.00249763 0
0.00447748 0.00300184 0
0.00666273 0.00407439 0
0.00823043 0.00352691 0
0.0014505 0.00469723 0
0.0023961 0.0058106 0
0.00577483 0.00483568 0
0.00705357 0.00539729 0
0.00819693 0.00510301 0
6.49651e-05 0.0067442 0
0.00285477 0.0081042 0
0.0050706 0.00703699 0
0.00716435 0.007632 0
0.00986735 0.00718091 0
VERTICES 25 50
1 0
1 1
1 2
1 3
1 4
1 5
1 6
1 7
1 8
1 9
1 10
1 11
1 12
1 13
1 14
1 15
1 16
1 17
1 18
1 19
1 20
1 21
1 22
1 23
1 24
POINT_DATA 25
VECTORS velocity double
-2.28742e-84 -0.00970858 0
-1.51546e-84 -0.00970858 0
-1.25421e-84 -0.00970858 0
-7.35103e-85 -0.00970858 0
9.62324e-85 -0.00970858 0
-6.84115e-86 -0.00970858 0
-7.87927e-85 -0.00970858 0
-2.02303e-84 -0.00970858 0
-2.30599e-84 -0.00970858 0
-2.66964e-84 -0.00970858 0
2.72889e-84 -0.00970858 0
4.59163e-85 -0.00970858 0
-1.51388e-84 -0.00970858 0
-9.77155e-85 -0.00970858 0
-2.22966e-84 -0.00970858 0
1.30522e-84 -0.00970858 0
-1.74966e-84 -0.00970858 0
2.2449e-84 -0.00970858 0
1.5521e-85 -0.00970858 0
-2.32672e-84 -0.00970858 0
-2.70905e-84 -0.00970858 0
-4.20758e-85 -0.00970858 0
2.04556e-85 -0.00970858 0
4.76177e-85 -0.00970858 0
2.51294e-84 -0.00970858 0
SCALARS radius double 1
LOOKUP_TABLE default
0.0005192
0.000759374
0.000731582
0.000932767
0.000864852
0.00092132
0.000824734
0.000662097
0.000535446
0.00094621
0.000999249
0.000802661
0.000671708
0.000819153
0.000645007
0.000827505
0.000602392
0.000772815
0.000550095
0.000626194
0.000886859
0.000531918
0.000790192
0.000909137
0.00096445
SCALARS mass double 1
LOOKUP_TABLE default
0.00228657
0.0048913
0.00453983
0.00738005
0.00634449
0.00720004
0.00576955
0.0037184
0.0024319
0.00759432
0.00846957
0.00546484
0.00382714
0.00569173
0.00352892
0.00580838
0.00307803
0.005066
0.00256678
0.00332607
0.00667148
0.00239995
0.00529637
0.00701087
0.00788992
