# vtk DataFile Version 3.0
DEM2D particles
ASCII
DATASET POLYDATA
POINTS 25 double
0.000210492 0.000169104 0
0.00247694 -0.000230185 0
0.00456711 0.000417142 0
0.00674628 0.000298428 0
0.00933215 0.00121555 0
0.000976388 0.00336973 0
0.00272805 0.00305418 0
0.00430175 0.00258537 0
0.00620408 0.00200805 0
0.00807857 0.00245401 0
0.00194188 0.00430669 0
0.00315848 0.00402577 0
0.00447748 0.00452997 0
0.00666273 0.00560252 0
0.00823043 0.00505504 0
0.0014505 0.00622536 0
0.0023961 0.00733873 0
0.00577483 0.00636381 0
0.00705357 0.00692543 0
0.00819693 0.00663114 0
6.49651e-05 0.00827233 0
0.00285477 0.00963233 0
0.0050706 0.00856512 0
0.00716435 0.00916014 0
0.00986735 0.00870905 0
VERTICES 25 50
1 0
1 1
1 2
1 3
1 4
1 5
1 6
1 7
1 8
1 9
1 10
1 11
1 12
1 13
1 14
1 15
1 16
1 17
1 18
1 19
1 20
1 21
1 22
1 23
1 24
POINT_DATA 25
VECTORS velocity double
-1.15182e-15 -0.00970858 0
-7.63099e-16 -0.00970858 0
-6.31548e-16 -0.00970858 0
-3.70156e-16 -0.00970858 0
4.84572e-16 -0.00970858 0
-3.44482e-17 -0.00970858 0
-3.96756e-16 -0.00970858 0
-1.01868e-15 -0.00970858 0
-1.16116e-15 -0.00970858 0
-1.34428e-15 -0.00970858 0
1.37412e-15 -0.00970858 0
2.31209e-16 -0.00970858 0
-7.62304e-16 -0.00970858 0
-4.9204e-16 -0.00970858 0
-1.12273e-15 -0.00970858 0
6.57237e-16 -0.00970858 0
-8.8103e-16 -0.00970858 0
1.13041e-15 -0.00970858 0
7.8155e-17 -0.00970858 0
-1.1716e-15 -0.00970858 0
-1.36413e-15 -0.00970858 0
-2.1187e-16 -0.00970858 0
1.03003e-16 -0.00970858 0
2.39776e-16 -0.00970858 0
1.26538e-15 -0.00970858 0
SCALARS radius double 1
LOOKUP_TABLE default
0.0005192
0.000759374
0.000731582
0.000932767
0.000864852
0.00092132
0.000824734
0.000662097
0.000535446
0.00094621
0.000999249
0.000802661
0.000671708
0.000819153
0.000645007
0.000827505
0.000602392
0.000772815
0.000550095
0.000626194
0.000886859
0.000531918
0.000790192
0.000909137
0.00096445
SCALARS mass double 1
LOOKUP_TABLE default
0.00228657
0.0048913
0.00453983
0.00738005
0.00634449
0.00720004
0.00576955
0.0037184
0.0024319
0.00759432
0.00846957
0.00546484
0.00382714
0.00569173
0.00352892
0.00580838
0.00307803
0.005066
0.00256678
0.00332607
0.00667148
0.00239995
0.00529637
0.00701087
0.00788992
