# vtk DataFile Version 3.0
DEM2D particles
ASCII
DATASET POLYDATA
POINTS 25 double
0.000210492 -0.00052603 0
0.00247694 -0.00092532 0
0.00456711 -0.000277992 0
0.00674628 -0.000396707 0
0.00933215 0.00052042 0
0.000976388 0.00267459 0
0.00272805 0.00235904 0
0.00430175 0.00189023 0
0.00620408 0.00131292 0
0.00807857 0.00175888 0
0.00194188 0.00361156 0
0.00315848 0.00333063 0
0.00447748 0.00383483 0
0.00666273 0.00490739 0
0.00823043 0.00435991 0
0.0014505 0.00553023 0
0.0023961 0.0066436 0
0.00577483 0.00566868 0
0.00705357 0.00623029 0
0.00819693 0.005936 0
6.49651e-05 0.00757719 0
0.00285477 0.0089372 0
0.0050706 0.00786999 0
0.00716435 0.008465 0
0.00986735 0.00801391 0
VERTICES 25 50
1 0
1 1
1 2
1 3
1 4
1 5
1 6
1 7
1 8
1 9
1 10
1 11
1 12
1 13
1 14
1 15
1 16
1 17
1 18
1 19
1 20
1 21
1 22
1 23
1 24
POINT_DATA 25
VECTORS velocity double
-6.44728e-47 -0.00970858 0
-4.27144e-47 -0.00970858 0
-3.53509e-47 -0.00970858 0
-2.07195e-47 -0.00970858 0
2.71239e-47 -0.00970858 0
-1.92823e-48 -0.00970858 0
-2.22084e-47 -0.00970858 0
-5.70206e-47 -0.00970858 0
-6.49961e-47 -0.00970858 0
-7.52461e-47 -0.00970858 0
7.6916e-47 -0.00970858 0
1.29419e-47 -0.00970858 0
-4.26699e-47 -0.00970858 0
-2.75419e-47 -0.00970858 0
-6.28446e-47 -0.00970858 0
3.67888e-47 -0.00970858 0
-4.93156e-47 -0.00970858 0
6.32744e-47 -0.00970858 0
4.37472e-48 -0.00970858 0
-6.55805e-47 -0.00970858 0
-7.63568e-47 -0.00970858 0
-1.18594e-47 -0.00970858 0
5.76559e-48 -0.00970858 0
1.34214e-47 -0.00970858 0
7.08293e-47 -0.00970858 0
SCALARS radius double 1
LOOKUP_TABLE default
0.0005192
0.000759374
0.000731582
0.000932767
0.000864852
0.00092132
0.000824734
0.000662097
0.000535446
0.00094621
0.000999249
0.000802661
0.000671708
0.000819153
0.000645007
0.000827505
0.000602392
0.000772815
0.000550095
0.000626194
0.000886859
0.000531918
0.000790192
0.000909137
0.00096445
SCALARS mass double 1
LOOKUP_TABLE default
0.00228657
0.0048913
0.00453983
0.00738005
0.00634449
0.00720004
0.00576955
0.0037184
0.0024319
0.00759432
0.00846957
0.00546484
0.00382714
0.00569173
0.00352892
0.00580838
0.00307803
0.005066
0.00256678
0.00332607
0.00667148
0.00239995
0.00529637
0.00701087
0.00788992
