# vtk DataFile Version 3.0
DEM2D particles
ASCII
DATASET POLYDATA
POINTS 25 double
0.000210492 -0.000760978 0
0.00247694 -0.00116027 0
0.00456711 -0.00051294 0
0.00674628 -0.000631654 0
0.00933215 0.000285472 0
0.000976388 0.00243965 0
0.00272805 0.00212409 0
0.00430175 0.00165528 0
0.00620408 0.00107797 0
0.00807857 0.00152393 0
0.00194188 0.00337661 0
0.00315848 0.00309568 0
0.00447748 0.00359989 0
0.00666273 0.00467244 0
0.00823043 0.00412496 0
0.0014505 0.00529528 0
0.0023961 0.00640865 0
0.00577483 0.00543373 0
0.00705357 0.00599534 0
0.00819693 0.00570106 0
6.49651e-05 0.00734225 0
0.00285477 0.00870225 0
0.0050706 0.00763504 0
0.00716435 0.00823005 0
0.00986735 0.00777896 0
VERTICES 25 50
1 0
1 1
1 2
1 3
1 4
1 5
1 6
1 7
1 8
1 9
1 10
1 11
1 12
1 13
1 14
1 15
1 16
1 17
1 18
1 19
1 20
1 21
1 22
1 23
1 24
POINT_DATA 25
VECTORS velocity double
-1.7642e-57 -0.00970858 0
-1.16881e-57 -0.00970858 0
-9.67322e-58 -0.00970858 0
-5.66956e-58 -0.00970858 0
7.42203e-58 -0.00970858 0
-5.27631e-59 -0.00970858 0
-6.07697e-58 -0.00970858 0
-1.56028e-57 -0.00970858 0
-1.77852e-57 -0.00970858 0
-2.05899e-57 -0.00970858 0
2.10469e-57 -0.00970858 0
3.54134e-58 -0.00970858 0
-1.1676e-57 -0.00970858 0
-7.53641e-58 -0.00970858 0
-1.71965e-57 -0.00970858 0
1.00667e-57 -0.00970858 0
-1.34944e-57 -0.00970858 0
1.73141e-57 -0.00970858 0
1.19707e-58 -0.00970858 0
-1.79451e-57 -0.00970858 0
-2.08939e-57 -0.00970858 0
-3.24514e-58 -0.00970858 0
1.57766e-58 -0.00970858 0
3.67256e-58 -0.00970858 0
1.93813e-57 -0.00970858 0
SCALARS radius double 1
LOOKUP_TABLE default
0.0005192
0.000759374
0.000731582
0.000932767
0.000864852
0.00092132
0.000824734
0.000662097
0.000535446
0.00094621
0.000999249
0.000802661
0.000671708
0.000819153
0.000645007
0.000827505
0.000602392
0.000772815
0.000550095
0.000626194
0.000886859
0.000531918
0.000790192
0.000909137
0.00096445
SCALARS mass double 1
LOOKUP_TABLE default
0.00228657
0.0048913
0.00453983
0.00738005
0.00634449
0.00720004
0.00576955
0.0037184
0.0024319
0.00759432
0.00846957
0.00546484
0.00382714
0.00569173
0.00352892
0.00580838
0.00307803
0.005066
0.00256678
0.00332607
0.00667148
0.00239995
0.00529637
0.00701087
0.00788992
