# vtk DataFile Version 3.0
DEM2D particles
ASCII
DATASET POLYDATA
POINTS 25 double
0.000210492 -0.000250307 0
0.00247694 -0.000649596 0
0.00456711 -2.2687e-06 0
0.00674628 -0.000120983 0
0.00933215 0.000796144 0
0.000976388 0.00295032 0
0.00272805 0.00263477 0
0.00430175 0.00216595 0
0.00620408 0.00158864 0
0.00807857 0.0020346 0
0.00194188 0.00388728 0
0.00315848 0.00360635 0
0.00447748 0.00411056 0
0.00666273 0.00518311 0
0.00823043 0.00463563 0
0.0014505 0.00580595 0
0.0023961 0.00691932 0
0.00577483 0.0059444 0
0.00705357 0.00650601 0
0.00819693 0.00621173 0
6.49651e-05 0.00785292 0
0.00285477 0.00921292 0
0.0050706 0.00814571 0
0.00716435 0.00874073 0
0.00986735 0.00828963 0
VERTICES 25 50
1 0
1 1
1 2
1 3
1 4
1 5
1 6
1 7
1 8
1 9
1 10
1 11
1 12
1 13
1 14
1 15
1 16
1 17
1 18
1 19
1 20
1 21
1 22
1 23
1 24
POINT_DATA 25
VECTORS velocity double
-1.60481e-34 -0.00970858 0
-1.06322e-34 -0.00970858 0
-8.79928e-35 -0.00970858 0
-5.15734e-35 -0.00970858 0
6.75148e-35 -0.00970858 0
-4.79962e-36 -0.00970858 0
-5.52794e-35 -0.00970858 0
-1.41932e-34 -0.00970858 0
-1.61784e-34 -0.00970858 0
-1.87297e-34 -0.00970858 0
1.91454e-34 -0.00970858 0
3.2214e-35 -0.00970858 0
-1.06211e-34 -0.00970858 0
-6.85553e-35 -0.00970858 0
-1.56428e-34 -0.00970858 0
9.15719e-35 -0.00970858 0
-1.22753e-34 -0.00970858 0
1.57498e-34 -0.00970858 0
1.08892e-35 -0.00970858 0
-1.63238e-34 -0.00970858 0
-1.90062e-34 -0.00970858 0
-2.95195e-35 -0.00970858 0
1.43513e-35 -0.00970858 0
3.34076e-35 -0.00970858 0
1.76303e-34 -0.00970858 0
SCALARS radius double 1
LOOKUP_TABLE default
0.0005192
0.000759374
0.000731582
0.000932767
0.000864852
0.00092132
0.000824734
0.000662097
0.000535446
0.00094621
0.000999249
0.000802661
0.000671708
0.000819153
0.000645007
0.000827505
0.000602392
0.000772815
0.000550095
0.000626194
0.000886859
0.000531918
0.000790192
0.000909137
0.00096445
SCALARS mass double 1
LOOKUP_TABLE default
0.00228657
0.0048913
0.00453983
0.00738005
0.00634449
0.00720004
0.00576955
0.0037184
0.0024319
0.00759432
0.00846957
0.00546484
0.00382714
0.00569173
0.00352892
0.00580838
0.00307803
0.005066
0.00256678
0.00332607
0.00667148
0.00239995
0.00529637
0.00701087
0.00788992
