# vtk DataFile Version 3.0
DEM2D particles
ASCII
DATASET POLYDATA
POINTS 25 double
0.000210492 1.9592e-05 0
0.00247694 -0.000379697 0
0.00456711 0.00026763 0
0.00674628 0.000148916 0
0.00933215 0.00106604 0
0.000976388 0.00322022 0
0.00272805 0.00290466 0
0.00430175 0.00243585 0
0.00620408 0.00185854 0
0.00807857 0.0023045 0
0.00194188 0.00415718 0
0.00315848 0.00387625 0
0.00447748 0.00438046 0
0.00666273 0.00545301 0
0.00823043 0.00490553 0
0.0014505 0.00607585 0
0.0023961 0.00718922 0
0.00577483 0.0062143 0
0.00705357 0.00677591 0
0.00819693 0.00648163 0
6.49651e-05 0.00812282 0
0.00285477 0.00948282 0
0.0050706 0.00841561 0
0.00716435 0.00901062 0
0.00986735 0.00855953 0
VERTICES 25 50
1 0
1 1
1 2
1 3
1 4
1 5
1 6
1 7
1 8
1 9
1 10
1 11
1 12
1 13
1 14
1 15
1 16
1 17
1 18
1 19
1 20
1 21
1 22
1 23
1 24
POINT_DATA 25
VECTORS velocity double
-2.18566e-22 -0.00970858 0
-1.44804e-22 -0.00970858 0
-1.19841e-22 -0.00970858 0
-7.024e-23 -0.00970858 0
9.19514e-23 -0.00970858 0
-6.53681e-24 -0.00970858 0
-7.52875e-23 -0.00970858 0
-1.93303e-22 -0.00970858 0
-2.2034e-22 -0.00970858 0
-2.55088e-22 -0.00970858 0
2.60749e-22 -0.00970858 0
4.38736e-23 -0.00970858 0
-1.44653e-22 -0.00970858 0
-9.33684e-23 -0.00970858 0
-2.13047e-22 -0.00970858 0
1.24716e-22 -0.00970858 0
-1.67182e-22 -0.00970858 0
2.14504e-22 -0.00970858 0
1.48305e-23 -0.00970858 0
-2.22321e-22 -0.00970858 0
-2.58853e-22 -0.00970858 0
-4.02039e-23 -0.00970858 0
1.95456e-23 -0.00970858 0
4.54993e-23 -0.00970858 0
2.40115e-22 -0.00970858 0
SCALARS radius double 1
LOOKUP_TABLE default
0.0005192
0.000759374
0.000731582
0.000932767
0.000864852
0.00092132
0.000824734
0.000662097
0.000535446
0.00094621
0.000999249
0.000802661
0.000671708
0.000819153
0.000645007
0.000827505
0.000602392
0.000772815
0.000550095
0.000626194
0.000886859
0.000531918
0.000790192
0.000909137
0.00096445
SCALARS mass double 1
LOOKUP_TABLE default
0.00228657
0.0048913
0.00453983
0.00738005
0.00634449
0.00720004
0.00576955
0.0037184
0.0024319
0.00759432
0.00846957
0.00546484
0.00382714
0.00569173
0.00352892
0.00580838
0.00307803
0.005066
0.00256678
0.00332607
0.00667148
0.00239995
0.00529637
0.00701087
0.00788992
