# vtk DataFile Version 3.0
DEM2D particles
ASCII
DATASET POLYDATA
POINTS 25 double
0.000210492 -0.00051438 0
0.00247694 -0.000913669 0
0.00456711 -0.000266342 0
0.00674628 -0.000385056 0
0.00933215 0.00053207 0
0.000976388 0.00268624 0
0.00272805 0.00237069 0
0.00430175 0.00190188 0
0.00620408 0.00132457 0
0.00807857 0.00177053 0
0.00194188 0.00362321 0
0.00315848 0.00334228 0
0.00447748 0.00384648 0
0.00666273 0.00491904 0
0.00823043 0.00437156 0
0.0014505 0.00554188 0
0.0023961 0.00665525 0
0.00577483 0.00568033 0
0.00705357 0.00624194 0
0.00819693 0.00594765 0
6.49651e-05 0.00758884 0
0.00285477 0.00894885 0
0.0050706 0.00788164 0
0.00716435 0.00847665 0
0.00986735 0.00802556 0
VERTICES 25 50
1 0
1 1
1 2
1 3
1 4
1 5
1 6
1 7
1 8
1 9
1 10
1 11
1 12
1 13
1 14
1 15
1 16
1 17
1 18
1 19
1 20
1 21
1 22
1 23
1 24
POINT_DATA 25
VECTORS velocity double
-2.15354e-46 -0.00970858 0
-1.42676e-46 -0.00970858 0
-1.1808e-46 -0.00970858 0
-6.92078e-47 -0.00970858 0
9.06e-47 -0.00970858 0
-6.44074e-48 -0.00970858 0
-7.41811e-47 -0.00970858 0
-1.90462e-46 -0.00970858 0
-2.17102e-46 -0.00970858 0
-2.51339e-46 -0.00970858 0
2.56917e-46 -0.00970858 0
4.32289e-47 -0.00970858 0
-1.42527e-46 -0.00970858 0
-9.19963e-47 -0.00970858 0
-2.09916e-46 -0.00970858 0
1.22883e-46 -0.00970858 0
-1.64725e-46 -0.00970858 0
2.11351e-46 -0.00970858 0
1.46126e-47 -0.00970858 0
-2.19054e-46 -0.00970858 0
-2.55049e-46 -0.00970858 0
-3.96131e-47 -0.00970858 0
1.92584e-47 -0.00970858 0
4.48307e-47 -0.00970858 0
2.36586e-46 -0.00970858 0
SCALARS radius double 1
LOOKUP_TABLE default
0.0005192
0.000759374
0.000731582
0.000932767
0.000864852
0.00092132
0.000824734
0.000662097
0.000535446
0.00094621
0.000999249
0.000802661
0.000671708
0.000819153
0.000645007
0.000827505
0.000602392
0.000772815
0.000550095
0.000626194
0.000886859
0.000531918
0.000790192
0.000909137
0.00096445
SCALARS mass double 1
LOOKUP_TABLE default
0.00228657
0.0048913
0.00453983
0.00738005
0.00634449
0.00720004
0.00576955
0.0037184
0.0024319
0.00759432
0.00846957
0.00546484
0.00382714
0.00569173
0.00352892
0.00580838
0.00307803
0.005066
0.00256678
0.00332607
0.00667148
0.00239995
0.00529637
0.00701087
0.00788992
