# vtk DataFile Version 3.0
DEM2D particles
ASCII
DATASET POLYDATA
POINTS 25 double
0.000210492 -0.00019788 0
0.00247694 -0.000597169 0
0.00456711 5.01576e-05 0
0.00674628 -6.85565e-05 0
0.00933215 0.00084857 0
0.000976388 0.00300274 0
0.00272805 0.00268719 0
0.00430175 0.00221838 0
0.00620408 0.00164107 0
0.00807857 0.00208703 0
0.00194188 0.00393971 0
0.00315848 0.00365878 0
0.00447748 0.00416298 0
0.00666273 0.00523554 0
0.00823043 0.00468806 0
0.0014505 0.00585838 0
0.0023961 0.00697175 0
0.00577483 0.00599683 0
0.00705357 0.00655844 0
0.00819693 0.00626415 0
6.49651e-05 0.00790534 0
0.00285477 0.00926535 0
0.0050706 0.00819814 0
0.00716435 0.00879315 0
0.00986735 0.00834206 0
VERTICES 25 50
1 0
1 1
1 2
1 3
1 4
1 5
1 6
1 7
1 8
1 9
1 10
1 11
1 12
1 13
1 14
1 15
1 16
1 17
1 18
1 19
1 20
1 21
1 22
1 23
1 24
POINT_DATA 25
VECTORS velocity double
-3.65106e-32 -0.00970858 0
-2.41889e-32 -0.00970858 0
-2.0019e-32 -0.00970858 0
-1.17333e-32 -0.00970858 0
1.53601e-32 -0.00970858 0
-1.09195e-33 -0.00970858 0
-1.25765e-32 -0.00970858 0
-3.22904e-32 -0.00970858 0
-3.68069e-32 -0.00970858 0
-4.26114e-32 -0.00970858 0
4.35571e-32 -0.00970858 0
7.32891e-33 -0.00970858 0
-2.41637e-32 -0.00970858 0
-1.55968e-32 -0.00970858 0
-3.55886e-32 -0.00970858 0
2.08333e-32 -0.00970858 0
-2.79271e-32 -0.00970858 0
3.58319e-32 -0.00970858 0
2.47738e-33 -0.00970858 0
-3.71378e-32 -0.00970858 0
-4.32404e-32 -0.00970858 0
-6.71591e-33 -0.00970858 0
3.26502e-33 -0.00970858 0
7.60047e-33 -0.00970858 0
4.01102e-32 -0.00970858 0
SCALARS radius double 1
LOOKUP_TABLE default
0.0005192
0.000759374
0.000731582
0.000932767
0.000864852
0.00092132
0.000824734
0.000662097
0.000535446
0.00094621
0.000999249
0.000802661
0.000671708
0.000819153
0.000645007
0.000827505
0.000602392
0.000772815
0.000550095
0.000626194
0.000886859
0.000531918
0.000790192
0.000909137
0.00096445
SCALARS mass double 1
LOOKUP_TABLE default
0.00228657
0.0048913
0.00453983
0.00738005
0.00634449
0.00720004
0.00576955
0.0037184
0.0024319
0.00759432
0.00846957
0.00546484
0.00382714
0.00569173
0.00352892
0.00580838
0.00307803
0.005066
0.00256678
0.00332607
0.00667148
0.00239995
0.00529637
0.00701087
0.00788992
