# vtk DataFile Version 3.0
DEM2D particles
ASCII
DATASET POLYDATA
POINTS 25 double
0.000210492 -0.000735736 0
0.00247694 -0.00113502 0
0.00456711 -0.000487698 0
0.00674628 -0.000606412 0
0.00933215 0.000310714 0
0.000976388 0.00246489 0
0.00272805 0.00214934 0
0.00430175 0.00168053 0
0.00620408 0.00110321 0
0.00807857 0.00154917 0
0.00194188 0.00340185 0
0.00315848 0.00312093 0
0.00447748 0.00362513 0
0.00666273 0.00469768 0
0.00823043 0.0041502 0
0.0014505 0.00532052 0
0.0023961 0.00643389 0
0.00577483 0.00545897 0
0.00705357 0.00602059 0
0.00819693 0.0057263 0
6.49651e-05 0.00736749 0
0.00285477 0.00872749 0
0.0050706 0.00766028 0
0.00716435 0.0082553 0
0.00986735 0.00780421 0
VERTICES 25 50
1 0
1 1
1 2
1 3
1 4
1 5
1 6
1 7
1 8
1 9
1 10
1 11
1 12
1 13
1 14
1 15
1 16
1 17
1 18
1 19
1 20
1 21
1 22
1 23
1 24
POINT_DATA 25
VECTORS velocity double
-2.40656e-56 -0.00970858 0
-1.59439e-56 -0.00970858 0
-1.31953e-56 -0.00970858 0
-7.7339e-57 -0.00970858 0
1.01245e-56 -0.00970858 0
-7.19747e-58 -0.00970858 0
-8.28966e-57 -0.00970858 0
-2.12839e-56 -0.00970858 0
-2.42609e-56 -0.00970858 0
-2.80869e-56 -0.00970858 0
2.87102e-56 -0.00970858 0
4.83078e-57 -0.00970858 0
-1.59273e-56 -0.00970858 0
-1.02805e-56 -0.00970858 0
-2.34579e-56 -0.00970858 0
1.37321e-56 -0.00970858 0
-1.84079e-56 -0.00970858 0
2.36183e-56 -0.00970858 0
1.63294e-57 -0.00970858 0
-2.44791e-56 -0.00970858 0
-2.85015e-56 -0.00970858 0
-4.42673e-57 -0.00970858 0
2.15211e-57 -0.00970858 0
5.00978e-57 -0.00970858 0
2.64383e-56 -0.00970858 0
SCALARS radius double 1
LOOKUP_TABLE default
0.0005192
0.000759374
0.000731582
0.000932767
0.000864852
0.00092132
0.000824734
0.000662097
0.000535446
0.00094621
0.000999249
0.000802661
0.000671708
0.000819153
0.000645007
0.000827505
0.000602392
0.000772815
0.000550095
0.000626194
0.000886859
0.000531918
0.000790192
0.000909137
0.00096445
SCALARS mass double 1
LOOKUP_TABLE default
0.00228657
0.0048913
0.00453983
0.00738005
0.00634449
0.00720004
0.00576955
0.0037184
0.0024319
0.00759432
0.00846957
0.00546484
0.00382714
0.00569173
0.00352892
0.00580838
0.00307803
0.005066
0.00256678
0.00332607
0.00667148
0.00239995
0.00529637
0.00701087
0.00788992
