# vtk DataFile Version 3.0
DEM2D particles
ASCII
DATASET POLYDATA
POINTS 25 double
0.000210492 0.000145804 0
0.00247694 -0.000253486 0
0.00456711 0.000393842 0
0.00674628 0.000275127 0
0.00933215 0.00119225 0
0.000976388 0.00334643 0
0.00272805 0.00303088 0
0.00430175 0.00256206 0
0.00620408 0.00198475 0
0.00807857 0.00243071 0
0.00194188 0.00428339 0
0.00315848 0.00400247 0
0.00447748 0.00450667 0
0.00666273 0.00557922 0
0.00823043 0.00503174 0
0.0014505 0.00620206 0
0.0023961 0.00731543 0
0.00577483 0.00634051 0
0.00705357 0.00690212 0
0.00819693 0.00660784 0
6.49651e-05 0.00824903 0
0.00285477 0.00960903 0
0.0050706 0.00854182 0
0.00716435 0.00913684 0
0.00986735 0.00868574 0
VERTICES 25 50
1 0
1 1
1 2
1 3
1 4
1 5
1 6
1 7
1 8
1 9
1 10
1 11
1 12
1 13
1 14
1 15
1 16
1 17
1 18
1 19
1 20
1 21
1 22
1 23
1 24
POINT_DATA 25
VECTORS velocity double
-1.03236e-16 -0.00970858 0
-6.83955e-17 -0.00970858 0
-5.66048e-17 -0.00970858 0
-3.31766e-17 -0.00970858 0
4.34315e-17 -0.00970858 0
-3.08754e-18 -0.00970858 0
-3.55607e-17 -0.00970858 0
-9.1303e-17 -0.00970858 0
-1.04074e-16 -0.00970858 0
-1.20486e-16 -0.00970858 0
1.2316e-16 -0.00970858 0
2.07229e-17 -0.00970858 0
-6.83243e-17 -0.00970858 0
-4.41009e-17 -0.00970858 0
-1.00629e-16 -0.00970858 0
5.89072e-17 -0.00970858 0
-7.89655e-17 -0.00970858 0
1.01317e-16 -0.00970858 0
7.00492e-18 -0.00970858 0
-1.05009e-16 -0.00970858 0
-1.22265e-16 -0.00970858 0
-1.89896e-17 -0.00970858 0
9.23203e-18 -0.00970858 0
2.14908e-17 -0.00970858 0
1.13414e-16 -0.00970858 0
SCALARS radius double 1
LOOKUP_TABLE default
0.0005192
0.000759374
0.000731582
0.000932767
0.000864852
0.00092132
0.000824734
0.000662097
0.000535446
0.00094621
0.000999249
0.000802661
0.000671708
0.000819153
0.000645007
0.000827505
0.000602392
0.000772815
0.000550095
0.000626194
0.000886859
0.000531918
0.000790192
0.000909137
0.00096445
SCALARS mass double 1
LOOKUP_TABLE default
0.00228657
0.0048913
0.00453983
0.00738005
0.00634449
0.00720004
0.00576955
0.0037184
0.0024319
0.00759432
0.00846957
0.00546484
0.00382714
0.00569173
0.00352892
0.00580838
0.00307803
0.005066
0.00256678
0.00332607
0.00667148
0.00239995
0.00529637
0.00701087
0.00788992
