# vtk DataFile Version 3.0
DEM2D particles
ASCII
DATASET POLYDATA
POINTS 25 double
0.000210492 7.59018e-05 0
0.00247694 -0.000323387 0
0.00456711 0.00032394 0
0.00674628 0.000205226 0
0.00933215 0.00112235 0
0.000976388 0.00327653 0
0.00272805 0.00296097 0
0.00430175 0.00249216 0
0.00620408 0.00191485 0
0.00807857 0.00236081 0
0.00194188 0.00421349 0
0.00315848 0.00393256 0
0.00447748 0.00443677 0
0.00666273 0.00550932 0
0.00823043 0.00496184 0
0.0014505 0.00613216 0
0.0023961 0.00724553 0
0.00577483 0.00627061 0
0.00705357 0.00683222 0
0.00819693 0.00653794 0
6.49651e-05 0.00817913 0
0.00285477 0.00953913 0
0.0050706 0.00847192 0
0.00716435 0.00906693 0
0.00986735 0.00861584 0
VERTICES 25 50
1 0
1 1
1 2
1 3
1 4
1 5
1 6
1 7
1 8
1 9
1 10
1 11
1 12
1 13
1 14
1 15
1 16
1 17
1 18
1 19
1 20
1 21
1 22
1 23
1 24
POINT_DATA 25
VECTORS velocity double
-7.4331e-20 -0.00970858 0
-4.92456e-20 -0.00970858 0
-4.07562e-20 -0.00970858 0
-2.38876e-20 -0.00970858 0
3.12713e-20 -0.00970858 0
-2.22307e-21 -0.00970858 0
-2.56041e-20 -0.00970858 0
-6.57393e-20 -0.00970858 0
-7.49343e-20 -0.00970858 0
-8.67515e-20 -0.00970858 0
8.86768e-20 -0.00970858 0
1.49208e-20 -0.00970858 0
-4.91944e-20 -0.00970858 0
-3.17532e-20 -0.00970858 0
-7.24539e-20 -0.00970858 0
4.24139e-20 -0.00970858 0
-5.68562e-20 -0.00970858 0
7.29494e-20 -0.00970858 0
5.04363e-21 -0.00970858 0
-7.5608e-20 -0.00970858 0
-8.80321e-20 -0.00970858 0
-1.36727e-20 -0.00970858 0
6.64718e-21 -0.00970858 0
1.54736e-20 -0.00970858 0
8.16595e-20 -0.00970858 0
SCALARS radius double 1
LOOKUP_TABLE default
0.0005192
0.000759374
0.000731582
0.000932767
0.000864852
0.00092132
0.000824734
0.000662097
0.000535446
0.00094621
0.000999249
0.000802661
0.000671708
0.000819153
0.000645007
0.000827505
0.000602392
0.000772815
0.000550095
0.000626194
0.000886859
0.000531918
0.000790192
0.000909137
0.00096445
SCALARS mass double 1
LOOKUP_TABLE default
0.00228657
0.0048913
0.00453983
0.00738005
0.00634449
0.00720004
0.00576955
0.0037184
0.0024319
0.00759432
0.00846957
0.00546484
0.00382714
0.00569173
0.00352892
0.00580838
0.00307803
0.005066
0.00256678
0.00332607
0.00667148
0.00239995
0.00529637
0.00701087
0.00788992
