# vtk DataFile Version 3.0
DEM2D particles
ASCII
DATASET POLYDATA
POINTS 25 double
0.000210492 -0.000935733 0
0.00247694 -0.00133502 0
0.00456711 -0.000687695 0
0.00674628 -0.000806409 0
0.00933215 0.000110718 0
0.000976388 0.00226489 0
0.00272805 0.00194934 0
0.00430175 0.00148053 0
0.00620408 0.000903213 0
0.00807857 0.00134917 0
0.00194188 0.00320185 0
0.00315848 0.00292093 0
0.00447748 0.00342513 0
0.00666273 0.00449768 0
0.00823043 0.0039502 0
0.0014505 0.00512053 0
0.0023961 0.0062339 0
0.00577483 0.00525898 0
0.00705357 0.00582059 0
0.00819693 0.0055263 0
6.49651e-05 0.00716749 0
0.00285477 0.0085275 0
0.0050706 0.00746029 0
0.00716435 0.0080553 0
0.00986735 0.00760421 0
VERTICES 25 50
1 0
1 1
1 2
1 3
1 4
1 5
1 6
1 7
1 8
1 9
1 10
1 11
1 12
1 13
1 14
1 15
1 16
1 17
1 18
1 19
1 20
1 21
1 22
1 23
1 24
POINT_DATA 25
VECTORS velocity double
-2.45413e-65 -0.00970858 0
-1.62591e-65 -0.00970858 0
-1.34562e-65 -0.00970858 0
-7.88678e-66 -0.00970858 0
1.03246e-65 -0.00970858 0
-7.33974e-67 -0.00970858 0
-8.45352e-66 -0.00970858 0
-2.17047e-65 -0.00970858 0
-2.47405e-65 -0.00970858 0
-2.86421e-65 -0.00970858 0
2.92777e-65 -0.00970858 0
4.92627e-66 -0.00970858 0
-1.62421e-65 -0.00970858 0
-1.04837e-65 -0.00970858 0
-2.39215e-65 -0.00970858 0
1.40035e-65 -0.00970858 0
-1.87718e-65 -0.00970858 0
2.40851e-65 -0.00970858 0
1.66522e-66 -0.00970858 0
-2.49629e-65 -0.00970858 0
-2.90649e-65 -0.00970858 0
-4.51423e-66 -0.00970858 0
2.19465e-66 -0.00970858 0
5.10881e-66 -0.00970858 0
2.69609e-65 -0.00970858 0
SCALARS radius double 1
LOOKUP_TABLE default
0.0005192
0.000759374
0.000731582
0.000932767
0.000864852
0.00092132
0.000824734
0.000662097
0.000535446
0.00094621
0.000999249
0.000802661
0.000671708
0.000819153
0.000645007
0.000827505
0.000602392
0.000772815
0.000550095
0.000626194
0.000886859
0.000531918
0.000790192
0.000909137
0.00096445
SCALARS mass double 1
LOOKUP_TABLE default
0.00228657
0.0048913
0.00453983
0.00738005
0.00634449
0.00720004
0.00576955
0.0037184
0.0024319
0.00759432
0.00846957
0.00546484
0.00382714
0.00569173
0.00352892
0.00580838
0.00307803
0.005066
0.00256678
0.00332607
0.00667148
0.00239995
0.00529637
0.00701087
0.00788992
