# vtk DataFile Version 3.0
DEM2D particles
ASCII
DATASET POLYDATA
POINTS 25 double
0.000210492 -0.000933791 0
0.00247694 -0.00133308 0
0.00456711 -0.000685753 0
0.00674628 -0.000804467 0
0.00933215 0.000112659 0
0.000976388 0.00226683 0
0.00272805 0.00195128 0
0.00430175 0.00148247 0
0.00620408 0.000905155 0
0.00807857 0.00135112 0
0.00194188 0.0032038 0
0.00315848 0.00292287 0
0.00447748 0.00342707 0
0.00666273 0.00449963 0
0.00823043 0.00395215 0
0.0014505 0.00512247 0
0.0023961 0.00623584 0
0.00577483 0.00526092 0
0.00705357 0.00582253 0
0.00819693 0.00552824 0
6.49651e-05 0.00716943 0
0.00285477 0.00852944 0
0.0050706 0.00746223 0
0.00716435 0.00805724 0
0.00986735 0.00760615 0
VERTICES 25 50
1 0
1 1
1 2
1 3
1 4
1 5
1 6
1 7
1 8
1 9
1 10
1 11
1 12
1 13
1 14
1 15
1 16
1 17
1 18
1 19
1 20
1 21
1 22
1 23
1 24
POINT_DATA 25
VECTORS velocity double
-3.0005e-65 -0.00970858 0
-1.98789e-65 -0.00970858 0
-1.64519e-65 -0.00970858 0
-9.64263e-66 -0.00970858 0
1.26232e-65 -0.00970858 0
-8.9738e-67 -0.00970858 0
-1.03356e-65 -0.00970858 0
-2.65368e-65 -0.00970858 0
-3.02485e-65 -0.00970858 0
-3.50188e-65 -0.00970858 0
3.57959e-65 -0.00970858 0
6.02302e-66 -0.00970858 0
-1.98582e-65 -0.00970858 0
-1.28177e-65 -0.00970858 0
-2.92473e-65 -0.00970858 0
1.71211e-65 -0.00970858 0
-2.2951e-65 -0.00970858 0
2.94473e-65 -0.00970858 0
2.03595e-66 -0.00970858 0
-3.05205e-65 -0.00970858 0
-3.55357e-65 -0.00970858 0
-5.51924e-66 -0.00970858 0
2.68325e-66 -0.00970858 0
6.2462e-66 -0.00970858 0
3.29633e-65 -0.00970858 0
SCALARS radius double 1
LOOKUP_TABLE default
0.0005192
0.000759374
0.000731582
0.000932767
0.000864852
0.00092132
0.000824734
0.000662097
0.000535446
0.00094621
0.000999249
0.000802661
0.000671708
0.000819153
0.000645007
0.000827505
0.000602392
0.000772815
0.000550095
0.000626194
0.000886859
0.000531918
0.000790192
0.000909137
0.00096445
SCALARS mass double 1
LOOKUP_TABLE default
0.00228657
0.0048913
0.00453983
0.00738005
0.00634449
0.00720004
0.00576955
0.0037184
0.0024319
0.00759432
0.00846957
0.00546484
0.00382714
0.00569173
0.00352892
0.00580838
0.00307803
0.005066
0.00256678
0.00332607
0.00667148
0.00239995
0.00529637
0.00701087
0.00788992
