# vtk DataFile Version 3.0
DEM2D particles
ASCII
DATASET POLYDATA
POINTS 25 double
0.000210492 -0.000964858 0
0.00247694 -0.00136415 0
0.00456711 -0.00071682 0
0.00674628 -0.000835535 0
0.00933215 8.15919e-05 0
0.000976388 0.00223577 0
0.00272805 0.00192021 0
0.00430175 0.0014514 0
0.00620408 0.000874087 0
0.00807857 0.00132005 0
0.00194188 0.00317273 0
0.00315848 0.0028918 0
0.00447748 0.00339601 0
0.00666273 0.00446856 0
0.00823043 0.00392108 0
0.0014505 0.0050914 0
0.0023961 0.00620477 0
0.00577483 0.00522985 0
0.00705357 0.00579146 0
0.00819693 0.00549718 0
6.49651e-05 0.00713837 0
0.00285477 0.00849837 0
0.0050706 0.00743116 0
0.00716435 0.00802617 0
0.00986735 0.00757508 0
VERTICES 25 50
1 0
1 1
1 2
1 3
1 4
1 5
1 6
1 7
1 8
1 9
1 10
1 11
1 12
1 13
1 14
1 15
1 16
1 17
1 18
1 19
1 20
1 21
1 22
1 23
1 24
POINT_DATA 25
VECTORS velocity double
-1.20353e-66 -0.00970858 0
-7.97359e-67 -0.00970858 0
-6.59902e-67 -0.00970858 0
-3.86775e-67 -0.00970858 0
5.06327e-67 -0.00970858 0
-3.59947e-68 -0.00970858 0
-4.14568e-67 -0.00970858 0
-1.06442e-66 -0.00970858 0
-1.2133e-66 -0.00970858 0
-1.40463e-66 -0.00970858 0
1.43581e-66 -0.00970858 0
2.41589e-67 -0.00970858 0
-7.96529e-67 -0.00970858 0
-5.1413e-67 -0.00970858 0
-1.17313e-66 -0.00970858 0
6.86744e-67 -0.00970858 0
-9.20585e-67 -0.00970858 0
1.18116e-66 -0.00970858 0
8.16638e-68 -0.00970858 0
-1.2242e-66 -0.00970858 0
-1.42537e-66 -0.00970858 0
-2.21382e-67 -0.00970858 0
1.07627e-67 -0.00970858 0
2.50541e-67 -0.00970858 0
1.32219e-66 -0.00970858 0
SCALARS radius double 1
LOOKUP_TABLE default
0.0005192
0.000759374
0.000731582
0.000932767
0.000864852
0.00092132
0.000824734
0.000662097
0.000535446
0.00094621
0.000999249
0.000802661
0.000671708
0.000819153
0.000645007
0.000827505
0.000602392
0.000772815
0.000550095
0.000626194
0.000886859
0.000531918
0.000790192
0.000909137
0.00096445
SCALARS mass double 1
LOOKUP_TABLE default
0.00228657
0.0048913
0.00453983
0.00738005
0.00634449
0.00720004
0.00576955
0.0037184
0.0024319
0.00759432
0.00846957
0.00546484
0.00382714
0.00569173
0.00352892
0.00580838
0.00307803
0.005066
0.00256678
0.00332607
0.00667148
0.00239995
0.00529637
0.00701087
0.00788992
