# vtk DataFile Version 3.0
DEM2D particles
ASCII
DATASET POLYDATA
POINTS 25 double
0.000210492 0.000136095 0
0.00247694 -0.000263194 0
0.00456711 0.000384133 0
0.00674628 0.000265419 0
0.00933215 0.00118255 0
0.000976388 0.00333672 0
0.00272805 0.00302117 0
0.00430175 0.00255236 0
0.00620408 0.00197504 0
0.00807857 0.002421 0
0.00194188 0.00427368 0
0.00315848 0.00399276 0
0.00447748 0.00449696 0
0.00666273 0.00556951 0
0.00823043 0.00502203 0
0.0014505 0.00619236 0
0.0023961 0.00730572 0
0.00577483 0.0063308 0
0.00705357 0.00689242 0
0.00819693 0.00659813 0
6.49651e-05 0.00823932 0
0.00285477 0.00959933 0
0.0050706 0.00853211 0
0.00716435 0.00912713 0
0.00986735 0.00867604 0
VERTICES 25 50
1 0
1 1
1 2
1 3
1 4
1 5
1 6
1 7
1 8
1 9
1 10
1 11
1 12
1 13
1 14
1 15
1 16
1 17
1 18
1 19
1 20
1 21
1 22
1 23
1 24
POINT_DATA 25
VECTORS velocity double
-3.77876e-17 -0.00970858 0
-2.5035e-17 -0.00970858 0
-2.07192e-17 -0.00970858 0
-1.21437e-17 -0.00970858 0
1.58973e-17 -0.00970858 0
-1.13014e-18 -0.00970858 0
-1.30163e-17 -0.00970858 0
-3.34199e-17 -0.00970858 0
-3.80943e-17 -0.00970858 0
-4.41018e-17 -0.00970858 0
4.50806e-17 -0.00970858 0
7.58525e-18 -0.00970858 0
-2.50089e-17 -0.00970858 0
-1.61423e-17 -0.00970858 0
-3.68333e-17 -0.00970858 0
2.15619e-17 -0.00970858 0
-2.89039e-17 -0.00970858 0
3.70852e-17 -0.00970858 0
2.56403e-18 -0.00970858 0
-3.84368e-17 -0.00970858 0
-4.47528e-17 -0.00970858 0
-6.95081e-18 -0.00970858 0
3.37922e-18 -0.00970858 0
7.86631e-18 -0.00970858 0
4.15132e-17 -0.00970858 0
SCALARS radius double 1
LOOKUP_TABLE default
0.0005192
0.000759374
0.000731582
0.000932767
0.000864852
0.00092132
0.000824734
0.000662097
0.000535446
0.00094621
0.000999249
0.000802661
0.000671708
0.000819153
0.000645007
0.000827505
0.000602392
0.000772815
0.000550095
0.000626194
0.000886859
0.000531918
0.000790192
0.000909137
0.00096445
SCALARS mass double 1
LOOKUP_TABLE default
0.00228657
0.0048913
0.00453983
0.00738005
0.00634449
0.00720004
0.00576955
0.0037184
0.0024319
0.00759432
0.00846957
0.00546484
0.00382714
0.00569173
0.00352892
0.00580838
0.00307803
0.005066
0.00256678
0.00332607
0.00667148
0.00239995
0.00529637
0.00701087
0.00788992
