# vtk DataFile Version 3.0
DEM2D particles
ASCII
DATASET POLYDATA
POINTS 25 double
0.000210492 -0.000953208 0
0.00247694 -0.0013525 0
0.00456711 -0.00070517 0
0.00674628 -0.000823884 0
0.00933215 9.32422e-05 0
0.000976388 0.00224742 0
0.00272805 0.00193186 0
0.00430175 0.00146305 0
0.00620408 0.000885738 0
0.00807857 0.0013317 0
0.00194188 0.00318438 0
0.00315848 0.00290345 0
0.00447748 0.00340766 0
0.00666273 0.00448021 0
0.00823043 0.00393273 0
0.0014505 0.00510305 0
0.0023961 0.00621642 0
0.00577483 0.0052415 0
0.00705357 0.00580311 0
0.00819693 0.00550883 0
6.49651e-05 0.00715002 0
0.00285477 0.00851002 0
0.0050706 0.00744281 0
0.00716435 0.00803782 0
0.00986735 0.00758673 0
VERTICES 25 50
1 0
1 1
1 2
1 3
1 4
1 5
1 6
1 7
1 8
1 9
1 10
1 11
1 12
1 13
1 14
1 15
1 16
1 17
1 18
1 19
1 20
1 21
1 22
1 23
1 24
POINT_DATA 25
VECTORS velocity double
-4.02006e-66 -0.00970858 0
-2.66336e-66 -0.00970858 0
-2.20423e-66 -0.00970858 0
-1.29192e-66 -0.00970858 0
1.69125e-66 -0.00970858 0
-1.20231e-67 -0.00970858 0
-1.38475e-66 -0.00970858 0
-3.5554e-66 -0.00970858 0
-4.05269e-66 -0.00970858 0
-4.6918e-66 -0.00970858 0
4.79593e-66 -0.00970858 0
8.06963e-67 -0.00970858 0
-2.66059e-66 -0.00970858 0
-1.71731e-66 -0.00970858 0
-3.91854e-66 -0.00970858 0
2.29388e-66 -0.00970858 0
-3.07497e-66 -0.00970858 0
3.94534e-66 -0.00970858 0
2.72776e-67 -0.00970858 0
-4.08913e-66 -0.00970858 0
-4.76106e-66 -0.00970858 0
-7.39467e-67 -0.00970858 0
3.59501e-67 -0.00970858 0
8.36864e-67 -0.00970858 0
4.41641e-66 -0.00970858 0
SCALARS radius double 1
LOOKUP_TABLE default
0.0005192
0.000759374
0.000731582
0.000932767
0.000864852
0.00092132
0.000824734
0.000662097
0.000535446
0.00094621
0.000999249
0.000802661
0.000671708
0.000819153
0.000645007
0.000827505
0.000602392
0.000772815
0.000550095
0.000626194
0.000886859
0.000531918
0.000790192
0.000909137
0.00096445
SCALARS mass double 1
LOOKUP_TABLE default
0.00228657
0.0048913
0.00453983
0.00738005
0.00634449
0.00720004
0.00576955
0.0037184
0.0024319
0.00759432
0.00846957
0.00546484
0.00382714
0.00569173
0.00352892
0.00580838
0.00307803
0.005066
0.00256678
0.00332607
0.00667148
0.00239995
0.00529637
0.00701087
0.00788992
