# vtk DataFile Version 3.0
DEM2D particles
ASCII
DATASET POLYDATA
POINTS 25 double
0.000210492 4.87177e-05 0
0.00247694 -0.000350571 0
0.00456711 0.000296756 0
0.00674628 0.000178042 0
0.00933215 0.00109517 0
0.000976388 0.00324934 0
0.00272805 0.00293379 0
0.00430175 0.00246498 0
0.00620408 0.00188766 0
0.00807857 0.00233362 0
0.00194188 0.0041863 0
0.00315848 0.00390538 0
0.00447748 0.00440958 0
0.00666273 0.00548213 0
0.00823043 0.00493465 0
0.0014505 0.00610498 0
0.0023961 0.00721835 0
0.00577483 0.00624343 0
0.00705357 0.00680504 0
0.00819693 0.00651075 0
6.49651e-05 0.00815194 0
0.00285477 0.00951195 0
0.0050706 0.00844474 0
0.00716435 0.00903975 0
0.00986735 0.00858866 0
VERTICES 25 50
1 0
1 1
1 2
1 3
1 4
1 5
1 6
1 7
1 8
1 9
1 10
1 11
1 12
1 13
1 14
1 15
1 16
1 17
1 18
1 19
1 20
1 21
1 22
1 23
1 24
POINT_DATA 25
VECTORS velocity double
-4.45681e-21 -0.00970858 0
-2.95272e-21 -0.00970858 0
-2.4437e-21 -0.00970858 0
-1.43227e-21 -0.00970858 0
1.87499e-21 -0.00970858 0
-1.33293e-22 -0.00970858 0
-1.5352e-21 -0.00970858 0
-3.94166e-21 -0.00970858 0
-4.49299e-21 -0.00970858 0
-5.20154e-21 -0.00970858 0
5.31697e-21 -0.00970858 0
8.94633e-22 -0.00970858 0
-2.94965e-21 -0.00970858 0
-1.90389e-21 -0.00970858 0
-4.34426e-21 -0.00970858 0
2.5431e-21 -0.00970858 0
-3.40904e-21 -0.00970858 0
4.37397e-21 -0.00970858 0
3.02411e-22 -0.00970858 0
-4.53338e-21 -0.00970858 0
-5.27832e-21 -0.00970858 0
-8.19804e-22 -0.00970858 0
3.98558e-22 -0.00970858 0
9.27783e-22 -0.00970858 0
4.89622e-21 -0.00970858 0
SCALARS radius double 1
LOOKUP_TABLE default
0.0005192
0.000759374
0.000731582
0.000932767
0.000864852
0.00092132
0.000824734
0.000662097
0.000535446
0.00094621
0.000999249
0.000802661
0.000671708
0.000819153
0.000645007
0.000827505
0.000602392
0.000772815
0.000550095
0.000626194
0.000886859
0.000531918
0.000790192
0.000909137
0.00096445
SCALARS mass double 1
LOOKUP_TABLE default
0.00228657
0.0048913
0.00453983
0.00738005
0.00634449
0.00720004
0.00576955
0.0037184
0.0024319
0.00759432
0.00846957
0.00546484
0.00382714
0.00569173
0.00352892
0.00580838
0.00307803
0.005066
0.00256678
0.00332607
0.00667148
0.00239995
0.00529637
0.00701087
0.00788992
