# vtk DataFile Version 3.0
DEM2D particles
ASCII
DATASET POLYDATA
POINTS 25 double
0.000210492 -2.11841e-05 0
0.00247694 -0.000420473 0
0.00456711 0.000226854 0
0.00674628 0.00010814 0
0.00933215 0.00102527 0
0.000976388 0.00317944 0
0.00272805 0.00286389 0
0.00430175 0.00239508 0
0.00620408 0.00181776 0
0.00807857 0.00226372 0
0.00194188 0.0041164 0
0.00315848 0.00383548 0
0.00447748 0.00433968 0
0.00666273 0.00541223 0
0.00823043 0.00486475 0
0.0014505 0.00603508 0
0.0023961 0.00714845 0
0.00577483 0.00617352 0
0.00705357 0.00673514 0
0.00819693 0.00644085 0
6.49651e-05 0.00808204 0
0.00285477 0.00944205 0
0.0050706 0.00837483 0
0.00716435 0.00896985 0
0.00986735 0.00851876 0
VERTICES 25 50
1 0
1 1
1 2
1 3
1 4
1 5
1 6
1 7
1 8
1 9
1 10
1 11
1 12
1 13
1 14
1 15
1 16
1 17
1 18
1 19
1 20
1 21
1 22
1 23
1 24
POINT_DATA 25
VECTORS velocity double
-3.20896e-24 -0.00970858 0
-2.126e-24 -0.00970858 0
-1.7595e-24 -0.00970858 0
-1.03126e-24 -0.00970858 0
1.35002e-24 -0.00970858 0
-9.59726e-26 -0.00970858 0
-1.10536e-24 -0.00970858 0
-2.83805e-24 -0.00970858 0
-3.23501e-24 -0.00970858 0
-3.74517e-24 -0.00970858 0
3.82829e-24 -0.00970858 0
6.44147e-25 -0.00970858 0
-2.12378e-24 -0.00970858 0
-1.37082e-24 -0.00970858 0
-3.12792e-24 -0.00970858 0
1.83106e-24 -0.00970858 0
-2.45455e-24 -0.00970858 0
3.14932e-24 -0.00970858 0
2.1774e-25 -0.00970858 0
-3.26409e-24 -0.00970858 0
-3.80046e-24 -0.00970858 0
-5.9027e-25 -0.00970858 0
2.86967e-25 -0.00970858 0
6.68016e-25 -0.00970858 0
3.52534e-24 -0.00970858 0
SCALARS radius double 1
LOOKUP_TABLE default
0.0005192
0.000759374
0.000731582
0.000932767
0.000864852
0.00092132
0.000824734
0.000662097
0.000535446
0.00094621
0.000999249
0.000802661
0.000671708
0.000819153
0.000645007
0.000827505
0.000602392
0.000772815
0.000550095
0.000626194
0.000886859
0.000531918
0.000790192
0.000909137
0.00096445
SCALARS mass double 1
LOOKUP_TABLE default
0.00228657
0.0048913
0.00453983
0.00738005
0.00634449
0.00720004
0.00576955
0.0037184
0.0024319
0.00759432
0.00846957
0.00546484
0.00382714
0.00569173
0.00352892
0.00580838
0.00307803
0.005066
0.00256678
0.00332607
0.00667148
0.00239995
0.00529637
0.00701087
0.00788992
