# vtk DataFile Version 3.0
DEM2D particles
ASCII
DATASET POLYDATA
POINTS 25 double
0.000268369 0.000510667 0
0.00251528 0.000140648 0
0.00459884 0.000740521 0
0.00676488 0.00063051 0
0.0093078 0.0014804 0
0.000978119 0.00362328 0
0.00274798 0.00333086 0
0.00435294 0.00289641 0
0.00626243 0.00236142 0
0.00814611 0.00277469 0
0.00187284 0.00463817 0
0.00314686 0.00437784 0
0.00451579 0.00484508 0
0.00668746 0.005839 0
0.00828685 0.00533166 0
0.00141748 0.0065628 0
0.00244037 0.00759455 0
0.00571803 0.0066911 0
0.00704964 0.00721154 0
0.0082558 0.00693883 0
0.00013351 0.00860632 0
0.00286542 0.00986663 0
0.00506543 0.00887765 0
0.00715231 0.00942905 0
0.00980376 0.00901103 0
VERTICES 25 50
1 0
1 1
1 2
1 3
1 4
1 5
1 6
1 7
1 8
1 9
1 10
1 11
1 12
1 13
1 14
1 15
1 16
1 17
1 18
1 19
1 20
1 21
1 22
1 23
1 24
POINT_DATA 25
VECTORS velocity double
-0.0584618 -0.0467923 0
-0.038732 -0.076359 0
-0.032055 -0.0284255 0
-0.0187877 -0.0372161 0
0.024595 0.0306956 0
-0.00174846 0.042112 0
-0.0201378 0.0187459 0
-0.0517044 -0.0159688 0
-0.0589363 -0.0587181 0
-0.0682306 -0.0256954 0
0.0697448 -0.0366042 0
0.0117353 -0.0574063 0
-0.0386917 -0.0200709 0
-0.0249741 0.0593498 0
-0.0569854 0.0188098 0
0.0333588 -0.0426263 0
-0.0447177 0.0398168 0
0.0573751 -0.0323745 0
0.00396685 0.00921204 0
-0.0594662 -0.0125794 0
-0.0692378 -0.0391486 0
-0.0107537 0.0615575 0
0.00522804 -0.0174678 0
0.0121701 0.026592 0
0.0642257 -0.00681056 0
SCALARS radius double 1
LOOKUP_TABLE default
0.0005192
0.000759374
0.000731582
0.000932767
0.000864852
0.00092132
0.000824734
0.000662097
0.000535446
0.00094621
0.000999249
0.000802661
0.000671708
0.000819153
0.000645007
0.000827505
0.000602392
0.000772815
0.000550095
0.000626194
0.000886859
0.000531918
0.000790192
0.000909137
0.00096445
SCALARS mass double 1
LOOKUP_TABLE default
0.00228657
0.0048913
0.00453983
0.00738005
0.00634449
0.00720004
0.00576955
0.0037184
0.0024319
0.00759432
0.00846957
0.00546484
0.00382714
0.00569173
0.00352892
0.00580838
0.00307803
0.005066
0.00256678
0.00332607
0.00667148
0.00239995
0.00529637
0.00701087
0.00788992
