# vtk DataFile Version 3.0
DEM2D particles
ASCII
DATASET POLYDATA
POINTS 25 double
0.000236393 0.000482617 0
0.0024941 9.6427e-05 0
0.00458131 0.000722517 0
0.0067546 0.000607698 0
0.00932125 0.00149474 0
0.000977162 0.00364385 0
0.00273697 0.00333865 0
0.00432466 0.00288522 0
0.0062302 0.00232685 0
0.0081088 0.00275818 0
0.00191098 0.00461569 0
0.00315328 0.00434398 0
0.00449462 0.00483164 0
0.0066738 0.00586901 0
0.00825568 0.00533949 0
0.00143572 0.00653703 0
0.00241591 0.00761387 0
0.00574941 0.00667094 0
0.00705181 0.00721413 0
0.00822327 0.00692949 0
9.56407e-05 0.00858246 0
0.00285954 0.00989784 0
0.00506829 0.00886564 0
0.00715896 0.00944114 0
0.00983889 0.00900484 0
VERTICES 25 50
1 0
1 1
1 2
1 3
1 4
1 5
1 6
1 7
1 8
1 9
1 10
1 11
1 12
1 13
1 14
1 15
1 16
1 17
1 18
1 19
1 20
1 21
1 22
1 23
1 24
POINT_DATA 25
VECTORS velocity double
-0.026163 -0.0263044 0
-0.0173335 -0.0395362 0
-0.0143454 -0.0180848 0
-0.00840794 -0.0220188 0
0.0110068 0.00837324 0
-0.000782475 0.0134823 0
-0.00901213 0.00302544 0
-0.0231389 -0.0125102 0
-0.0263754 -0.0316415 0
-0.0305348 -0.0168631 0
0.0312124 -0.021745 0
0.0052518 -0.0310544 0
-0.0173154 -0.014346 0
-0.0111765 0.0211967 0
-0.0255023 0.00305407 0
0.0149288 -0.02444 0
-0.0200122 0.0124552 0
0.0256767 -0.0198521 0
0.00177526 -0.00124117 0
-0.0266125 -0.0109933 0
-0.0309855 -0.0228837 0
-0.00481253 0.0221846 0
0.00233967 -0.013181 0
0.0054464 0.00653676 0
0.0287425 -0.00841165 0
SCALARS radius double 1
LOOKUP_TABLE default
0.0005192
0.000759374
0.000731582
0.000932767
0.000864852
0.00092132
0.000824734
0.000662097
0.000535446
0.00094621
0.000999249
0.000802661
0.000671708
0.000819153
0.000645007
0.000827505
0.000602392
0.000772815
0.000550095
0.000626194
0.000886859
0.000531918
0.000790192
0.000909137
0.00096445
SCALARS mass double 1
LOOKUP_TABLE default
0.00228657
0.0048913
0.00453983
0.00738005
0.00634449
0.00720004
0.00576955
0.0037184
0.0024319
0.00759432
0.00846957
0.00546484
0.00382714
0.00569173
0.00352892
0.00580838
0.00307803
0.005066
0.00256678
0.00332607
0.00667148
0.00239995
0.00529637
0.00701087
0.00788992
