# vtk DataFile Version 3.0
DEM2D particles
ASCII
DATASET POLYDATA
POINTS 25 double
0.000368612 0.000583962 0
0.00258169 0.000264641 0
0.00465381 0.000782323 0
0.00679709 0.000687385 0
0.00926563 0.00142083 0
0.000981117 0.00354413 0
0.00278251 0.00329177 0
0.00444159 0.00291686 0
0.00636349 0.00245516 0
0.00826311 0.00281181 0
0.00175325 0.00469399 0
0.00312674 0.00446933 0
0.00458213 0.00487255 0
0.00673028 0.0057303 0
0.00838456 0.00529247 0
0.00136028 0.00662895 0
0.00251705 0.00751934 0
0.00561965 0.00673967 0
0.00704284 0.00718881 0
0.00835776 0.00695346 0
0.000252231 0.00866651 0
0.00288386 0.00975414 0
0.00505646 0.00890067 0
0.00713144 0.00937651 0
0.00969364 0.00901576 0
VERTICES 25 50
1 0
1 1
1 2
1 3
1 4
1 5
1 6
1 7
1 8
1 9
1 10
1 11
1 12
1 13
1 14
1 15
1 16
1 17
1 18
1 19
1 20
1 21
1 22
1 23
1 24
POINT_DATA 25
VECTORS velocity double
-0.159718 -0.111021 0
-0.105816 -0.191797 0
-0.0875742 -0.0608432 0
-0.051328 -0.084859 0
0.0671936 0.100676 0
-0.00477678 0.131865 0
-0.0550164 0.0680289 0
-0.141256 -0.0268116 0
-0.161014 -0.143603 0
-0.186406 -0.0533845 0
0.190543 -0.0831875 0
0.0320607 -0.140019 0
-0.105706 -0.0380184 0
-0.0682291 0.178959 0
-0.155684 0.0682037 0
0.0911363 -0.0996398 0
-0.122169 0.125595 0
0.156749 -0.0716318 0
0.0108374 0.0419825 0
-0.162462 -0.0175516 0
-0.189158 -0.0901388 0
-0.0293791 0.18499 0
0.014283 -0.0309068 0
0.0332487 0.0894645 0
0.175464 -0.00179118 0
SCALARS radius double 1
LOOKUP_TABLE default
0.0005192
0.000759374
0.000731582
0.000932767
0.000864852
0.00092132
0.000824734
0.000662097
0.000535446
0.00094621
0.000999249
0.000802661
0.000671708
0.000819153
0.000645007
0.000827505
0.000602392
0.000772815
0.000550095
0.000626194
0.000886859
0.000531918
0.000790192
0.000909137
0.00096445
SCALARS mass double 1
LOOKUP_TABLE default
0.00228657
0.0048913
0.00453983
0.00738005
0.00634449
0.00720004
0.00576955
0.0037184
0.0024319
0.00759432
0.00846957
0.00546484
0.00382714
0.00569173
0.00352892
0.00580838
0.00307803
0.005066
0.00256678
0.00332607
0.00667148
0.00239995
0.00529637
0.00701087
0.00788992
