# vtk DataFile Version 3.0
DEM2D particles
ASCII
DATASET POLYDATA
POINTS 25 double
0.000210492 -0.00106194 0
0.00247694 -0.00146123 0
0.00456711 -0.000813906 0
0.00674628 -0.00093262 0
0.00933215 -1.5494e-05 0
0.000976388 0.00213868 0
0.00272805 0.00182313 0
0.00430175 0.00135432 0
0.00620408 0.000777001 0
0.00807857 0.00122296 0
0.00194188 0.00307564 0
0.00315848 0.00279472 0
0.00447748 0.00329892 0
0.00666273 0.00437147 0
0.00823043 0.00382399 0
0.0014505 0.00499432 0
0.0023961 0.00610768 0
0.00577483 0.00513276 0
0.00705357 0.00569438 0
0.00819693 0.00540009 0
6.49651e-05 0.00704128 0
0.00285477 0.00840129 0
0.0050706 0.00733407 0
0.00716435 0.00792909 0
0.00986735 0.007478 0
VERTICES 25 50
1 0
1 1
1 2
1 3
1 4
1 5
1 6
1 7
1 8
1 9
1 10
1 11
1 12
1 13
1 14
1 15
1 16
1 17
1 18
1 19
1 20
1 21
1 22
1 23
1 24
POINT_DATA 25
VECTORS velocity double
-5.19578e-71 -0.00970858 0
-3.4423e-71 -0.00970858 0
-2.84888e-71 -0.00970858 0
-1.66975e-71 -0.00970858 0
2.18588e-71 -0.00970858 0
-1.55394e-72 -0.00970858 0
-1.78974e-71 -0.00970858 0
-4.59522e-71 -0.00970858 0
-5.23795e-71 -0.00970858 0
-6.06398e-71 -0.00970858 0
6.19856e-71 -0.00970858 0
1.04297e-71 -0.00970858 0
-3.43871e-71 -0.00970858 0
-2.21956e-71 -0.00970858 0
-5.06457e-71 -0.00970858 0
2.96476e-71 -0.00970858 0
-3.97428e-71 -0.00970858 0
5.0992e-71 -0.00970858 0
3.52553e-72 -0.00970858 0
-5.28504e-71 -0.00970858 0
-6.15349e-71 -0.00970858 0
-9.55733e-72 -0.00970858 0
4.64641e-72 -0.00970858 0
1.08161e-71 -0.00970858 0
5.70804e-71 -0.00970858 0
SCALARS radius double 1
LOOKUP_TABLE default
0.0005192
0.000759374
0.000731582
0.000932767
0.000864852
0.00092132
0.000824734
0.000662097
0.000535446
0.00094621
0.000999249
0.000802661
0.000671708
0.000819153
0.000645007
0.000827505
0.000602392
0.000772815
0.000550095
0.000626194
0.000886859
0.000531918
0.000790192
0.000909137
0.00096445
SCALARS mass double 1
LOOKUP_TABLE default
0.00228657
0.0048913
0.00453983
0.00738005
0.00634449
0.00720004
0.00576955
0.0037184
0.0024319
0.00759432
0.00846957
0.00546484
0.00382714
0.00569173
0.00352892
0.00580838
0.00307803
0.005066
0.00256678
0.00332607
0.00667148
0.00239995
0.00529637
0.00701087
0.00788992
