# vtk DataFile Version 3.0
DEM2D particles
ASCII
DATASET POLYDATA
POINTS 25 double
0.000210497 0.000384638 0
0.00247694 -1.46481e-05 0
0.00456711 0.000632674 0
0.00674628 0.000513961 0
0.00933215 0.00143108 0
0.000976388 0.00358525 0
0.00272805 0.0032697 0
0.00430175 0.0028009 0
0.00620409 0.00222359 0
0.00807857 0.00266954 0
0.00194188 0.00452222 0
0.00315848 0.0042413 0
0.00447748 0.0047455 0
0.00666274 0.00581804 0
0.00823044 0.00527057 0
0.0014505 0.0064409 0
0.00239611 0.00755426 0
0.00577483 0.00657935 0
0.00705357 0.00714095 0
0.00819693 0.00684667 0
6.49717e-05 0.00848786 0
0.00285478 0.00984786 0
0.0050706 0.00878065 0
0.00716435 0.00937566 0
0.00986734 0.00892458 0
VERTICES 25 50
1 0
1 1
1 2
1 3
1 4
1 5
1 6
1 7
1 8
1 9
1 10
1 11
1 12
1 13
1 14
1 15
1 16
1 17
1 18
1 19
1 20
1 21
1 22
1 23
1 24
POINT_DATA 25
VECTORS velocity double
-5.63964e-06 -0.00971216 0
-3.73636e-06 -0.00971501 0
-3.09225e-06 -0.00971039 0
-1.8124e-06 -0.00971124 0
2.37261e-06 -0.00970469 0
-1.68668e-07 -0.00970358 0
-1.94263e-06 -0.00970584 0
-4.98777e-06 -0.00970919 0
-5.68541e-06 -0.00971331 0
-6.58201e-06 -0.00971013 0
6.72808e-06 -0.00971118 0
1.13207e-06 -0.00971318 0
-3.73247e-06 -0.00970958 0
-2.40917e-06 -0.00970192 0
-5.49722e-06 -0.00970583 0
3.21803e-06 -0.00971176 0
-4.31379e-06 -0.00970381 0
5.53481e-06 -0.00971077 0
3.8267e-07 -0.00970676 0
-5.73653e-06 -0.00970886 0
-6.67917e-06 -0.00971142 0
-1.03738e-06 -0.00970171 0
5.04334e-07 -0.00970933 0
1.17401e-06 -0.00970508 0
6.19566e-06 -0.0097083 0
SCALARS radius double 1
LOOKUP_TABLE default
0.0005192
0.000759374
0.000731582
0.000932767
0.000864852
0.00092132
0.000824734
0.000662097
0.000535446
0.00094621
0.000999249
0.000802661
0.000671708
0.000819153
0.000645007
0.000827505
0.000602392
0.000772815
0.000550095
0.000626194
0.000886859
0.000531918
0.000790192
0.000909137
0.00096445
SCALARS mass double 1
LOOKUP_TABLE default
0.00228657
0.0048913
0.00453983
0.00738005
0.00634449
0.00720004
0.00576955
0.0037184
0.0024319
0.00759432
0.00846957
0.00546484
0.00382714
0.00569173
0.00352892
0.00580838
0.00307803
0.005066
0.00256678
0.00332607
0.00667148
0.00239995
0.00529637
0.00701087
0.00788992
