# vtk DataFile Version 3.0
DEM2D particles
ASCII
DATASET POLYDATA
POINTS 25 double
0.000210492 -0.000592049 0
0.00247694 -0.000991338 0
0.00456711 -0.000344011 0
0.00674628 -0.000462725 0
0.00933215 0.000454401 0
0.000976388 0.00260858 0
0.00272805 0.00229302 0
0.00430175 0.00182421 0
0.00620408 0.0012469 0
0.00807857 0.00169286 0
0.00194188 0.00354554 0
0.00315848 0.00326461 0
0.00447748 0.00376882 0
0.00666273 0.00484137 0
0.00823043 0.00429389 0
0.0014505 0.00546421 0
0.0023961 0.00657758 0
0.00577483 0.00560266 0
0.00705357 0.00616427 0
0.00819693 0.00586999 0
6.49651e-05 0.00751118 0
0.00285477 0.00887118 0
0.0050706 0.00780397 0
0.00716435 0.00839898 0
0.00986735 0.00794789 0
VERTICES 25 50
1 0
1 1
1 2
1 3
1 4
1 5
1 6
1 7
1 8
1 9
1 10
1 11
1 12
1 13
1 14
1 15
1 16
1 17
1 18
1 19
1 20
1 21
1 22
1 23
1 24
POINT_DATA 25
VECTORS velocity double
-6.93919e-50 -0.00970858 0
-4.59734e-50 -0.00970858 0
-3.8048e-50 -0.00970858 0
-2.23003e-50 -0.00970858 0
2.91934e-50 -0.00970858 0
-2.07535e-51 -0.00970858 0
-2.39028e-50 -0.00970858 0
-6.13711e-50 -0.00970858 0
-6.99551e-50 -0.00970858 0
-8.09871e-50 -0.00970858 0
8.27845e-50 -0.00970858 0
1.39293e-50 -0.00970858 0
-4.59255e-50 -0.00970858 0
-2.96433e-50 -0.00970858 0
-6.76395e-50 -0.00970858 0
3.95956e-50 -0.00970858 0
-5.30782e-50 -0.00970858 0
6.81021e-50 -0.00970858 0
4.7085e-51 -0.00970858 0
-7.05841e-50 -0.00970858 0
-8.21826e-50 -0.00970858 0
-1.27642e-50 -0.00970858 0
6.20549e-51 -0.00970858 0
1.44454e-50 -0.00970858 0
7.62334e-50 -0.00970858 0
SCALARS radius double 1
LOOKUP_TABLE default
0.0005192
0.000759374
0.000731582
0.000932767
0.000864852
0.00092132
0.000824734
0.000662097
0.000535446
0.00094621
0.000999249
0.000802661
0.000671708
0.000819153
0.000645007
0.000827505
0.000602392
0.000772815
0.000550095
0.000626194
0.000886859
0.000531918
0.000790192
0.000909137
0.00096445
SCALARS mass double 1
LOOKUP_TABLE default
0.00228657
0.0048913
0.00453983
0.00738005
0.00634449
0.00720004
0.00576955
0.0037184
0.0024319
0.00759432
0.00846957
0.00546484
0.00382714
0.00569173
0.00352892
0.00580838
0.00307803
0.005066
0.00256678
0.00332607
0.00667148
0.00239995
0.00529637
0.00701087
0.00788992
