# vtk DataFile Version 3.0
DEM2D particles
ASCII
DATASET POLYDATA
POINTS 25 double
0.000210492 -0.00024254 0
0.00247694 -0.000641829 0
0.00456711 5.49816e-06 0
0.00674628 -0.000113216 0
0.00933215 0.00080391 0
0.000976388 0.00295809 0
0.00272805 0.00264253 0
0.00430175 0.00217372 0
0.00620408 0.00159641 0
0.00807857 0.00204237 0
0.00194188 0.00389505 0
0.00315848 0.00361412 0
0.00447748 0.00411832 0
0.00666273 0.00519088 0
0.00823043 0.0046434 0
0.0014505 0.00581372 0
0.0023961 0.00692709 0
0.00577483 0.00595217 0
0.00705357 0.00651378 0
0.00819693 0.00621949 0
6.49651e-05 0.00786069 0
0.00285477 0.00922069 0
0.0050706 0.00815348 0
0.00716435 0.00874849 0
0.00986735 0.0082974 0
VERTICES 25 50
1 0
1 1
1 2
1 3
1 4
1 5
1 6
1 7
1 8
1 9
1 10
1 11
1 12
1 13
1 14
1 15
1 16
1 17
1 18
1 19
1 20
1 21
1 22
1 23
1 24
POINT_DATA 25
VECTORS velocity double
-3.58598e-34 -0.00970858 0
-2.37578e-34 -0.00970858 0
-1.96622e-34 -0.00970858 0
-1.15242e-34 -0.00970858 0
1.50863e-34 -0.00970858 0
-1.07248e-35 -0.00970858 0
-1.23523e-34 -0.00970858 0
-3.17149e-34 -0.00970858 0
-3.61509e-34 -0.00970858 0
-4.18519e-34 -0.00970858 0
4.27807e-34 -0.00970858 0
7.19828e-35 -0.00970858 0
-2.37331e-34 -0.00970858 0
-1.53188e-34 -0.00970858 0
-3.49542e-34 -0.00970858 0
2.04619e-34 -0.00970858 0
-2.74294e-34 -0.00970858 0
3.51933e-34 -0.00970858 0
2.43322e-35 -0.00970858 0
-3.64759e-34 -0.00970858 0
-4.24697e-34 -0.00970858 0
-6.5962e-35 -0.00970858 0
3.20683e-35 -0.00970858 0
7.46501e-35 -0.00970858 0
3.93953e-34 -0.00970858 0
SCALARS radius double 1
LOOKUP_TABLE default
0.0005192
0.000759374
0.000731582
0.000932767
0.000864852
0.00092132
0.000824734
0.000662097
0.000535446
0.00094621
0.000999249
0.000802661
0.000671708
0.000819153
0.000645007
0.000827505
0.000602392
0.000772815
0.000550095
0.000626194
0.000886859
0.000531918
0.000790192
0.000909137
0.00096445
SCALARS mass double 1
LOOKUP_TABLE default
0.00228657
0.0048913
0.00453983
0.00738005
0.00634449
0.00720004
0.00576955
0.0037184
0.0024319
0.00759432
0.00846957
0.00546484
0.00382714
0.00569173
0.00352892
0.00580838
0.00307803
0.005066
0.00256678
0.00332607
0.00667148
0.00239995
0.00529637
0.00701087
0.00788992
