# vtk DataFile Version 3.0
DEM2D particles
ASCII
DATASET POLYDATA
POINTS 25 double
0.000210492 0.000132212 0
0.00247694 -0.000267078 0
0.00456711 0.000380249 0
0.00674628 0.000261535 0
0.00933215 0.00117866 0
0.000976388 0.00333284 0
0.00272805 0.00301728 0
0.00430175 0.00254847 0
0.00620408 0.00197116 0
0.00807857 0.00241712 0
0.00194188 0.0042698 0
0.00315848 0.00398887 0
0.00447748 0.00449308 0
0.00666273 0.00556563 0
0.00823043 0.00501815 0
0.0014505 0.00618847 0
0.0023961 0.00730184 0
0.00577483 0.00632692 0
0.00705357 0.00688853 0
0.00819693 0.00659425 0
6.49651e-05 0.00823544 0
0.00285477 0.00959544 0
0.0050706 0.00852823 0
0.00716435 0.00912324 0
0.00986735 0.00867215 0
VERTICES 25 50
1 0
1 1
1 2
1 3
1 4
1 5
1 6
1 7
1 8
1 9
1 10
1 11
1 12
1 13
1 14
1 15
1 16
1 17
1 18
1 19
1 20
1 21
1 22
1 23
1 24
POINT_DATA 25
VECTORS velocity double
-2.52788e-17 -0.00970858 0
-1.67477e-17 -0.00970858 0
-1.38606e-17 -0.00970858 0
-8.12379e-18 -0.00970858 0
1.06349e-17 -0.00970858 0
-7.56031e-19 -0.00970858 0
-8.70757e-18 -0.00970858 0
-2.23569e-17 -0.00970858 0
-2.5484e-17 -0.00970858 0
-2.95029e-17 -0.00970858 0
3.01576e-17 -0.00970858 0
5.07432e-18 -0.00970858 0
-1.67302e-17 -0.00970858 0
-1.07988e-17 -0.00970858 0
-2.46405e-17 -0.00970858 0
1.44243e-17 -0.00970858 0
-1.93359e-17 -0.00970858 0
2.4809e-17 -0.00970858 0
1.71526e-18 -0.00970858 0
-2.57131e-17 -0.00970858 0
-2.99384e-17 -0.00970858 0
-4.64989e-18 -0.00970858 0
2.2606e-18 -0.00970858 0
5.26234e-18 -0.00970858 0
2.77711e-17 -0.00970858 0
SCALARS radius double 1
LOOKUP_TABLE default
0.0005192
0.000759374
0.000731582
0.000932767
0.000864852
0.00092132
0.000824734
0.000662097
0.000535446
0.00094621
0.000999249
0.000802661
0.000671708
0.000819153
0.000645007
0.000827505
0.000602392
0.000772815
0.000550095
0.000626194
0.000886859
0.000531918
0.000790192
0.000909137
0.00096445
SCALARS mass double 1
LOOKUP_TABLE default
0.00228657
0.0048913
0.00453983
0.00738005
0.00634449
0.00720004
0.00576955
0.0037184
0.0024319
0.00759432
0.00846957
0.00546484
0.00382714
0.00569173
0.00352892
0.00580838
0.00307803
0.005066
0.00256678
0.00332607
0.00667148
0.00239995
0.00529637
0.00701087
0.00788992
