# vtk DataFile Version 3.0
DEM2D particles
ASCII
DATASET POLYDATA
POINTS 25 double
0.000210492 -0.000632825 0
0.00247694 -0.00103211 0
0.00456711 -0.000384787 0
0.00674628 -0.000503501 0
0.00933215 0.000413625 0
0.000976388 0.0025678 0
0.00272805 0.00225225 0
0.00430175 0.00178344 0
0.00620408 0.00120612 0
0.00807857 0.00165208 0
0.00194188 0.00350476 0
0.00315848 0.00322384 0
0.00447748 0.00372804 0
0.00666273 0.00480059 0
0.00823043 0.00425311 0
0.0014505 0.00542344 0
0.0023961 0.0065368 0
0.00577483 0.00556188 0
0.00705357 0.0061235 0
0.00819693 0.00582921 0
6.49651e-05 0.0074704 0
0.00285477 0.00883041 0
0.0050706 0.00776319 0
0.00716435 0.00835821 0
0.00986735 0.00790712 0
VERTICES 25 50
1 0
1 1
1 2
1 3
1 4
1 5
1 6
1 7
1 8
1 9
1 10
1 11
1 12
1 13
1 14
1 15
1 16
1 17
1 18
1 19
1 20
1 21
1 22
1 23
1 24
POINT_DATA 25
VECTORS velocity double
-1.0188e-51 -0.00970858 0
-6.74976e-52 -0.00970858 0
-5.58617e-52 -0.00970858 0
-3.2741e-52 -0.00970858 0
4.28613e-52 -0.00970858 0
-3.04701e-53 -0.00970858 0
-3.50938e-52 -0.00970858 0
-9.01043e-52 -0.00970858 0
-1.02707e-51 -0.00970858 0
-1.18904e-51 -0.00970858 0
1.21543e-51 -0.00970858 0
2.04508e-52 -0.00970858 0
-6.74273e-52 -0.00970858 0
-4.35219e-52 -0.00970858 0
-9.93075e-52 -0.00970858 0
5.81339e-52 -0.00970858 0
-7.79288e-52 -0.00970858 0
9.99867e-52 -0.00970858 0
6.91296e-53 -0.00970858 0
-1.03631e-51 -0.00970858 0
-1.2066e-51 -0.00970858 0
-1.87403e-52 -0.00970858 0
9.11082e-53 -0.00970858 0
2.12086e-52 -0.00970858 0
1.11925e-51 -0.00970858 0
SCALARS radius double 1
LOOKUP_TABLE default
0.0005192
0.000759374
0.000731582
0.000932767
0.000864852
0.00092132
0.000824734
0.000662097
0.000535446
0.00094621
0.000999249
0.000802661
0.000671708
0.000819153
0.000645007
0.000827505
0.000602392
0.000772815
0.000550095
0.000626194
0.000886859
0.000531918
0.000790192
0.000909137
0.00096445
SCALARS mass double 1
LOOKUP_TABLE default
0.00228657
0.0048913
0.00453983
0.00738005
0.00634449
0.00720004
0.00576955
0.0037184
0.0024319
0.00759432
0.00846957
0.00546484
0.00382714
0.00569173
0.00352892
0.00580838
0.00307803
0.005066
0.00256678
0.00332607
0.00667148
0.00239995
0.00529637
0.00701087
0.00788992
