# vtk DataFile Version 3.0
DEM2D particles
ASCII
DATASET POLYDATA
POINTS 25 double
0.000210492 2.11654e-06 0
0.00247694 -0.000397173 0
0.00456711 0.000250154 0
0.00674628 0.00013144 0
0.00933215 0.00104857 0
0.000976388 0.00320274 0
0.00272805 0.00288719 0
0.00430175 0.00241838 0
0.00620408 0.00184106 0
0.00807857 0.00228702 0
0.00194188 0.0041397 0
0.00315848 0.00385878 0
0.00447748 0.00436298 0
0.00666273 0.00543553 0
0.00823043 0.00488805 0
0.0014505 0.00605838 0
0.0023961 0.00717175 0
0.00577483 0.00619682 0
0.00705357 0.00675844 0
0.00819693 0.00646415 0
6.49651e-05 0.00810534 0
0.00285477 0.00946535 0
0.0050706 0.00839813 0
0.00716435 0.00899315 0
0.00986735 0.00854206 0
VERTICES 25 50
1 0
1 1
1 2
1 3
1 4
1 5
1 6
1 7
1 8
1 9
1 10
1 11
1 12
1 13
1 14
1 15
1 16
1 17
1 18
1 19
1 20
1 21
1 22
1 23
1 24
POINT_DATA 25
VECTORS velocity double
-3.58029e-23 -0.00970858 0
-2.37201e-23 -0.00970858 0
-1.9631e-23 -0.00970858 0
-1.15059e-23 -0.00970858 0
1.50624e-23 -0.00970858 0
-1.07078e-24 -0.00970858 0
-1.23327e-23 -0.00970858 0
-3.16645e-23 -0.00970858 0
-3.60935e-23 -0.00970858 0
-4.17855e-23 -0.00970858 0
4.27128e-23 -0.00970858 0
7.18685e-24 -0.00970858 0
-2.36954e-23 -0.00970858 0
-1.52945e-23 -0.00970858 0
-3.48987e-23 -0.00970858 0
2.04294e-23 -0.00970858 0
-2.73858e-23 -0.00970858 0
3.51374e-23 -0.00970858 0
2.42936e-24 -0.00970858 0
-3.6418e-23 -0.00970858 0
-4.24023e-23 -0.00970858 0
-6.58573e-24 -0.00970858 0
3.20173e-24 -0.00970858 0
7.45315e-24 -0.00970858 0
3.93328e-23 -0.00970858 0
SCALARS radius double 1
LOOKUP_TABLE default
0.0005192
0.000759374
0.000731582
0.000932767
0.000864852
0.00092132
0.000824734
0.000662097
0.000535446
0.00094621
0.000999249
0.000802661
0.000671708
0.000819153
0.000645007
0.000827505
0.000602392
0.000772815
0.000550095
0.000626194
0.000886859
0.000531918
0.000790192
0.000909137
0.00096445
SCALARS mass double 1
LOOKUP_TABLE default
0.00228657
0.0048913
0.00453983
0.00738005
0.00634449
0.00720004
0.00576955
0.0037184
0.0024319
0.00759432
0.00846957
0.00546484
0.00382714
0.00569173
0.00352892
0.00580838
0.00307803
0.005066
0.00256678
0.00332607
0.00667148
0.00239995
0.00529637
0.00701087
0.00788992
