# vtk DataFile Version 3.0
DEM2D particles
ASCII
DATASET POLYDATA
POINTS 25 double
0.000210492 -0.000127978 0
0.00247694 -0.000527268 0
0.00456711 0.000120059 0
0.00674628 1.34533e-06 0
0.00933215 0.000918472 0
0.000976388 0.00307265 0
0.00272805 0.00275709 0
0.00430175 0.00228828 0
0.00620408 0.00171097 0
0.00807857 0.00215693 0
0.00194188 0.00400961 0
0.00315848 0.00372868 0
0.00447748 0.00423289 0
0.00666273 0.00530544 0
0.00823043 0.00475796 0
0.0014505 0.00592828 0
0.0023961 0.00704165 0
0.00577483 0.00606673 0
0.00705357 0.00662834 0
0.00819693 0.00633406 0
6.49651e-05 0.00797525 0
0.00285477 0.00933525 0
0.0050706 0.00826804 0
0.00716435 0.00886305 0
0.00986735 0.00841196 0
VERTICES 25 50
1 0
1 1
1 2
1 3
1 4
1 5
1 6
1 7
1 8
1 9
1 10
1 11
1 12
1 13
1 14
1 15
1 16
1 17
1 18
1 19
1 20
1 21
1 22
1 23
1 24
POINT_DATA 25
VECTORS velocity double
-5.07083e-29 -0.00970858 0
-3.35951e-29 -0.00970858 0
-2.78037e-29 -0.00970858 0
-1.6296e-29 -0.00970858 0
2.13331e-29 -0.00970858 0
-1.51657e-30 -0.00970858 0
-1.7467e-29 -0.00970858 0
-4.4847e-29 -0.00970858 0
-5.11198e-29 -0.00970858 0
-5.91815e-29 -0.00970858 0
6.04949e-29 -0.00970858 0
1.01789e-29 -0.00970858 0
-3.35602e-29 -0.00970858 0
-2.16619e-29 -0.00970858 0
-4.94277e-29 -0.00970858 0
2.89346e-29 -0.00970858 0
-3.8787e-29 -0.00970858 0
4.97657e-29 -0.00970858 0
3.44074e-30 -0.00970858 0
-5.15794e-29 -0.00970858 0
-6.00551e-29 -0.00970858 0
-9.32748e-30 -0.00970858 0
4.53467e-30 -0.00970858 0
1.0556e-29 -0.00970858 0
5.57077e-29 -0.00970858 0
SCALARS radius double 1
LOOKUP_TABLE default
0.0005192
0.000759374
0.000731582
0.000932767
0.000864852
0.00092132
0.000824734
0.000662097
0.000535446
0.00094621
0.000999249
0.000802661
0.000671708
0.000819153
0.000645007
0.000827505
0.000602392
0.000772815
0.000550095
0.000626194
0.000886859
0.000531918
0.000790192
0.000909137
0.00096445
SCALARS mass double 1
LOOKUP_TABLE default
0.00228657
0.0048913
0.00453983
0.00738005
0.00634449
0.00720004
0.00576955
0.0037184
0.0024319
0.00759432
0.00846957
0.00546484
0.00382714
0.00569173
0.00352892
0.00580838
0.00307803
0.005066
0.00256678
0.00332607
0.00667148
0.00239995
0.00529637
0.00701087
0.00788992
