# vtk DataFile Version 3.0
DEM2D particles
ASCII
DATASET POLYDATA
POINTS 25 double
0.000210492 0.000250656 0
0.00247694 -0.000148633 0
0.00456711 0.000498694 0
0.00674628 0.00037998 0
0.00933215 0.00129711 0
0.000976388 0.00345128 0
0.00272805 0.00313573 0
0.00430175 0.00266692 0
0.00620408 0.0020896 0
0.00807857 0.00253556 0
0.00194188 0.00438824 0
0.00315848 0.00410732 0
0.00447748 0.00461152 0
0.00666273 0.00568407 0
0.00823043 0.00513659 0
0.0014505 0.00630692 0
0.0023961 0.00742029 0
0.00577483 0.00644536 0
0.00705357 0.00700698 0
0.00819693 0.00671269 0
6.49651e-05 0.00835388 0
0.00285477 0.00971389 0
0.0050706 0.00864667 0
0.00716435 0.00924169 0
0.00986735 0.0087906 0
VERTICES 25 50
1 0
1 1
1 2
1 3
1 4
1 5
1 6
1 7
1 8
1 9
1 10
1 11
1 12
1 13
1 14
1 15
1 16
1 17
1 18
1 19
1 20
1 21
1 22
1 23
1 24
POINT_DATA 25
VECTORS velocity double
-5.34343e-12 -0.00970858 0
-3.54012e-12 -0.00970858 0
-2.92984e-12 -0.00970858 0
-1.7172e-12 -0.00970858 0
2.24799e-12 -0.00970858 0
-1.59809e-13 -0.00970858 0
-1.8406e-12 -0.00970858 0
-4.7258e-12 -0.00970858 0
-5.38679e-12 -0.00970858 0
-6.2363e-12 -0.00970858 0
6.3747e-12 -0.00970858 0
1.07261e-12 -0.00970858 0
-3.53643e-12 -0.00970858 0
-2.28264e-12 -0.00970858 0
-5.20848e-12 -0.00970858 0
3.04901e-12 -0.00970858 0
-4.08721e-12 -0.00970858 0
5.2441e-12 -0.00970858 0
3.62571e-13 -0.00970858 0
-5.43523e-12 -0.00970858 0
-6.32835e-12 -0.00970858 0
-9.82891e-13 -0.00970858 0
4.77845e-13 -0.00970858 0
1.11235e-12 -0.00970858 0
5.87025e-12 -0.00970858 0
SCALARS radius double 1
LOOKUP_TABLE default
0.0005192
0.000759374
0.000731582
0.000932767
0.000864852
0.00092132
0.000824734
0.000662097
0.000535446
0.00094621
0.000999249
0.000802661
0.000671708
0.000819153
0.000645007
0.000827505
0.000602392
0.000772815
0.000550095
0.000626194
0.000886859
0.000531918
0.000790192
0.000909137
0.00096445
SCALARS mass double 1
LOOKUP_TABLE default
0.00228657
0.0048913
0.00453983
0.00738005
0.00634449
0.00720004
0.00576955
0.0037184
0.0024319
0.00759432
0.00846957
0.00546484
0.00382714
0.00569173
0.00352892
0.00580838
0.00307803
0.005066
0.00256678
0.00332607
0.00667148
0.00239995
0.00529637
0.00701087
0.00788992
