# vtk DataFile Version 3.0
DEM2D particles
ASCII
DATASET POLYDATA
POINTS 25 double
0.000210492 -0.000362926 0
0.00247694 -0.000762215 0
0.00456711 -0.000114888 0
0.00674628 -0.000233602 0
0.00933215 0.000683524 0
0.000976388 0.0028377 0
0.00272805 0.00252215 0
0.00430175 0.00205333 0
0.00620408 0.00147602 0
0.00807857 0.00192198 0
0.00194188 0.00377466 0
0.00315848 0.00349374 0
0.00447748 0.00399794 0
0.00666273 0.00507049 0
0.00823043 0.00452301 0
0.0014505 0.00569333 0
0.0023961 0.0068067 0
0.00577483 0.00583178 0
0.00705357 0.00639339 0
0.00819693 0.00609911 0
6.49651e-05 0.0077403 0
0.00285477 0.0091003 0
0.0050706 0.00803309 0
0.00716435 0.00862811 0
0.00986735 0.00817701 0
VERTICES 25 50
1 0
1 1
1 2
1 3
1 4
1 5
1 6
1 7
1 8
1 9
1 10
1 11
1 12
1 13
1 14
1 15
1 16
1 17
1 18
1 19
1 20
1 21
1 22
1 23
1 24
POINT_DATA 25
VECTORS velocity double
-1.38755e-39 -0.00970858 0
-9.19279e-40 -0.00970858 0
-7.60805e-40 -0.00970858 0
-4.45914e-40 -0.00970858 0
5.83747e-40 -0.00970858 0
-4.14985e-41 -0.00970858 0
-4.77958e-40 -0.00970858 0
-1.22717e-39 -0.00970858 0
-1.39881e-39 -0.00970858 0
-1.61941e-39 -0.00970858 0
1.65535e-39 -0.00970858 0
2.78529e-40 -0.00970858 0
-9.18322e-40 -0.00970858 0
-5.92743e-40 -0.00970858 0
-1.35251e-39 -0.00970858 0
7.9175e-40 -0.00970858 0
-1.06135e-39 -0.00970858 0
1.36176e-39 -0.00970858 0
9.41506e-41 -0.00970858 0
-1.41139e-39 -0.00970858 0
-1.64331e-39 -0.00970858 0
-2.55232e-40 -0.00970858 0
1.24084e-40 -0.00970858 0
2.88849e-40 -0.00970858 0
1.52435e-39 -0.00970858 0
SCALARS radius double 1
LOOKUP_TABLE default
0.0005192
0.000759374
0.000731582
0.000932767
0.000864852
0.00092132
0.000824734
0.000662097
0.000535446
0.00094621
0.000999249
0.000802661
0.000671708
0.000819153
0.000645007
0.000827505
0.000602392
0.000772815
0.000550095
0.000626194
0.000886859
0.000531918
0.000790192
0.000909137
0.00096445
SCALARS mass double 1
LOOKUP_TABLE default
0.00228657
0.0048913
0.00453983
0.00738005
0.00634449
0.00720004
0.00576955
0.0037184
0.0024319
0.00759432
0.00846957
0.00546484
0.00382714
0.00569173
0.00352892
0.00580838
0.00307803
0.005066
0.00256678
0.00332607
0.00667148
0.00239995
0.00529637
0.00701087
0.00788992
