# vtk DataFile Version 3.0
DEM2D particles
ASCII
DATASET POLYDATA
POINTS 25 double
0.000210492 -0.000553214 0
0.00247694 -0.000952504 0
0.00456711 -0.000305177 0
0.00674628 -0.000423891 0
0.00933215 0.000493236 0
0.000976388 0.00264741 0
0.00272805 0.00233186 0
0.00430175 0.00186305 0
0.00620408 0.00128573 0
0.00807857 0.00173169 0
0.00194188 0.00358437 0
0.00315848 0.00330345 0
0.00447748 0.00380765 0
0.00666273 0.0048802 0
0.00823043 0.00433272 0
0.0014505 0.00550305 0
0.0023961 0.00661641 0
0.00577483 0.00564149 0
0.00705357 0.00620311 0
0.00819693 0.00590882 0
6.49651e-05 0.00755001 0
0.00285477 0.00891002 0
0.0050706 0.0078428 0
0.00716435 0.00843782 0
0.00986735 0.00798673 0
VERTICES 25 50
1 0
1 1
1 2
1 3
1 4
1 5
1 6
1 7
1 8
1 9
1 10
1 11
1 12
1 13
1 14
1 15
1 16
1 17
1 18
1 19
1 20
1 21
1 22
1 23
1 24
POINT_DATA 25
VECTORS velocity double
-3.86573e-48 -0.00970858 0
-2.56111e-48 -0.00970858 0
-2.1196e-48 -0.00970858 0
-1.24232e-48 -0.00970858 0
1.62632e-48 -0.00970858 0
-1.15615e-49 -0.00970858 0
-1.33159e-48 -0.00970858 0
-3.4189e-48 -0.00970858 0
-3.8971e-48 -0.00970858 0
-4.51168e-48 -0.00970858 0
4.61181e-48 -0.00970858 0
7.75982e-49 -0.00970858 0
-2.55845e-48 -0.00970858 0
-1.65138e-48 -0.00970858 0
-3.7681e-48 -0.00970858 0
2.20582e-48 -0.00970858 0
-2.95691e-48 -0.00970858 0
3.79387e-48 -0.00970858 0
2.62304e-49 -0.00970858 0
-3.93214e-48 -0.00970858 0
-4.57828e-48 -0.00970858 0
-7.11077e-49 -0.00970858 0
3.45699e-49 -0.00970858 0
8.04735e-49 -0.00970858 0
4.24686e-48 -0.00970858 0
SCALARS radius double 1
LOOKUP_TABLE default
0.0005192
0.000759374
0.000731582
0.000932767
0.000864852
0.00092132
0.000824734
0.000662097
0.000535446
0.00094621
0.000999249
0.000802661
0.000671708
0.000819153
0.000645007
0.000827505
0.000602392
0.000772815
0.000550095
0.000626194
0.000886859
0.000531918
0.000790192
0.000909137
0.00096445
SCALARS mass double 1
LOOKUP_TABLE default
0.00228657
0.0048913
0.00453983
0.00738005
0.00634449
0.00720004
0.00576955
0.0037184
0.0024319
0.00759432
0.00846957
0.00546484
0.00382714
0.00569173
0.00352892
0.00580838
0.00307803
0.005066
0.00256678
0.00332607
0.00667148
0.00239995
0.00529637
0.00701087
0.00788992
