# vtk DataFile Version 3.0
DEM2D particles
ASCII
DATASET POLYDATA
POINTS 25 double
0.000210492 -0.0014367 0
0.00247694 -0.00183598 0
0.00456711 -0.00118866 0
0.00674628 -0.00130737 0
0.00933215 -0.000390245 0
0.000976388 0.00176393 0
0.00272805 0.00144838 0
0.00430175 0.000979566 0
0.00620408 0.00040225 0
0.00807857 0.000848212 0
0.00194188 0.00270089 0
0.00315848 0.00241997 0
0.00447748 0.00292417 0
0.00666273 0.00399672 0
0.00823043 0.00344924 0
0.0014505 0.00461956 0
0.0023961 0.00573293 0
0.00577483 0.00475801 0
0.00705357 0.00531963 0
0.00819693 0.00502534 0
6.49651e-05 0.00666653 0
0.00285477 0.00802653 0
0.0050706 0.00695932 0
0.00716435 0.00755434 0
0.00986735 0.00710325 0
VERTICES 25 50
1 0
1 1
1 2
1 3
1 4
1 5
1 6
1 7
1 8
1 9
1 10
1 11
1 12
1 13
1 14
1 15
1 16
1 17
1 18
1 19
1 20
1 21
1 22
1 23
1 24
POINT_DATA 25
VECTORS velocity double
-7.37058e-88 -0.00970858 0
-4.88314e-88 -0.00970858 0
-4.04134e-88 -0.00970858 0
-2.36866e-88 -0.00970858 0
3.10082e-88 -0.00970858 0
-2.20437e-89 -0.00970858 0
-2.53888e-88 -0.00970858 0
-6.51864e-88 -0.00970858 0
-7.4304e-88 -0.00970858 0
-8.60219e-88 -0.00970858 0
8.7931e-88 -0.00970858 0
1.47953e-88 -0.00970858 0
-4.87806e-88 -0.00970858 0
-3.14861e-88 -0.00970858 0
-7.18445e-88 -0.00970858 0
4.20572e-88 -0.00970858 0
-5.6378e-88 -0.00970858 0
7.23358e-88 -0.00970858 0
5.00121e-89 -0.00970858 0
-7.49721e-88 -0.00970858 0
-8.72917e-88 -0.00970858 0
-1.35577e-88 -0.00970858 0
6.59127e-89 -0.00970858 0
1.53435e-88 -0.00970858 0
8.09727e-88 -0.00970858 0
SCALARS radius double 1
LOOKUP_TABLE default
0.0005192
0.000759374
0.000731582
0.000932767
0.000864852
0.00092132
0.000824734
0.000662097
0.000535446
0.00094621
0.000999249
0.000802661
0.000671708
0.000819153
0.000645007
0.000827505
0.000602392
0.000772815
0.000550095
0.000626194
0.000886859
0.000531918
0.000790192
0.000909137
0.00096445
SCALARS mass double 1
LOOKUP_TABLE default
0.00228657
0.0048913
0.00453983
0.00738005
0.00634449
0.00720004
0.00576955
0.0037184
0.0024319
0.00759432
0.00846957
0.00546484
0.00382714
0.00569173
0.00352892
0.00580838
0.00307803
0.005066
0.00256678
0.00332607
0.00667148
0.00239995
0.00529637
0.00701087
0.00788992
