# vtk DataFile Version 3.0
DEM2D particles
ASCII
DATASET POLYDATA
POINTS 25 double
0.000210492 -8.52607e-05 0
0.00247694 -0.00048455 0
0.00456711 0.000162777 0
0.00674628 4.40631e-05 0
0.00933215 0.00096119 0
0.000976388 0.00311536 0
0.00272805 0.00279981 0
0.00430175 0.002331 0
0.00620408 0.00175368 0
0.00807857 0.00219965 0
0.00194188 0.00405233 0
0.00315848 0.0037714 0
0.00447748 0.0042756 0
0.00666273 0.00534816 0
0.00823043 0.00480068 0
0.0014505 0.005971 0
0.0023961 0.00708437 0
0.00577483 0.00610945 0
0.00705357 0.00667106 0
0.00819693 0.00637677 0
6.49651e-05 0.00801796 0
0.00285477 0.00937797 0
0.0050706 0.00831076 0
0.00716435 0.00890577 0
0.00986735 0.00845468 0
VERTICES 25 50
1 0
1 1
1 2
1 3
1 4
1 5
1 6
1 7
1 8
1 9
1 10
1 11
1 12
1 13
1 14
1 15
1 16
1 17
1 18
1 19
1 20
1 21
1 22
1 23
1 24
POINT_DATA 25
VECTORS velocity double
-4.22273e-27 -0.00970858 0
-2.79763e-27 -0.00970858 0
-2.31535e-27 -0.00970858 0
-1.35705e-27 -0.00970858 0
1.77651e-27 -0.00970858 0
-1.26292e-28 -0.00970858 0
-1.45456e-27 -0.00970858 0
-3.73464e-27 -0.00970858 0
-4.257e-27 -0.00970858 0
-4.92834e-27 -0.00970858 0
5.03771e-27 -0.00970858 0
8.47644e-28 -0.00970858 0
-2.79472e-27 -0.00970858 0
-1.80389e-27 -0.00970858 0
-4.11609e-27 -0.00970858 0
2.40953e-27 -0.00970858 0
-3.22999e-27 -0.00970858 0
4.14424e-27 -0.00970858 0
2.86528e-28 -0.00970858 0
-4.29528e-27 -0.00970858 0
-5.00108e-27 -0.00970858 0
-7.76746e-28 -0.00970858 0
3.77624e-28 -0.00970858 0
8.79053e-28 -0.00970858 0
4.63906e-27 -0.00970858 0
SCALARS radius double 1
LOOKUP_TABLE default
0.0005192
0.000759374
0.000731582
0.000932767
0.000864852
0.00092132
0.000824734
0.000662097
0.000535446
0.00094621
0.000999249
0.000802661
0.000671708
0.000819153
0.000645007
0.000827505
0.000602392
0.000772815
0.000550095
0.000626194
0.000886859
0.000531918
0.000790192
0.000909137
0.00096445
SCALARS mass double 1
LOOKUP_TABLE default
0.00228657
0.0048913
0.00453983
0.00738005
0.00634449
0.00720004
0.00576955
0.0037184
0.0024319
0.00759432
0.00846957
0.00546484
0.00382714
0.00569173
0.00352892
0.00580838
0.00307803
0.005066
0.00256678
0.00332607
0.00667148
0.00239995
0.00529637
0.00701087
0.00788992
