# vtk DataFile Version 3.0
DEM2D particles
ASCII
DATASET POLYDATA
POINTS 25 double
0.000210492 -0.000368751 0
0.00247694 -0.000768041 0
0.00456711 -0.000120713 0
0.00674628 -0.000239428 0
0.00933215 0.000677699 0
0.000976388 0.00283187 0
0.00272805 0.00251632 0
0.00430175 0.00204751 0
0.00620408 0.00147019 0
0.00807857 0.00191616 0
0.00194188 0.00376884 0
0.00315848 0.00348791 0
0.00447748 0.00399211 0
0.00666273 0.00506466 0
0.00823043 0.00451718 0
0.0014505 0.00568751 0
0.0023961 0.00680088 0
0.00577483 0.00582596 0
0.00705357 0.00638757 0
0.00819693 0.00609328 0
6.49651e-05 0.00773447 0
0.00285477 0.00909448 0
0.0050706 0.00802727 0
0.00716435 0.00862228 0
0.00986735 0.00817119 0
VERTICES 25 50
1 0
1 1
1 2
1 3
1 4
1 5
1 6
1 7
1 8
1 9
1 10
1 11
1 12
1 13
1 14
1 15
1 16
1 17
1 18
1 19
1 20
1 21
1 22
1 23
1 24
POINT_DATA 25
VECTORS velocity double
-7.59209e-40 -0.00970858 0
-5.0299e-40 -0.00970858 0
-4.16279e-40 -0.00970858 0
-2.43985e-40 -0.00970858 0
3.19401e-40 -0.00970858 0
-2.27062e-41 -0.00970858 0
-2.61518e-40 -0.00970858 0
-6.71454e-40 -0.00970858 0
-7.65371e-40 -0.00970858 0
-8.86071e-40 -0.00970858 0
9.05735e-40 -0.00970858 0
1.52399e-40 -0.00970858 0
-5.02466e-40 -0.00970858 0
-3.24323e-40 -0.00970858 0
-7.40036e-40 -0.00970858 0
4.33211e-40 -0.00970858 0
-5.80723e-40 -0.00970858 0
7.45097e-40 -0.00970858 0
5.15151e-41 -0.00970858 0
-7.72252e-40 -0.00970858 0
-8.9915e-40 -0.00970858 0
-1.39652e-40 -0.00970858 0
6.78935e-41 -0.00970858 0
1.58046e-40 -0.00970858 0
8.34061e-40 -0.00970858 0
SCALARS radius double 1
LOOKUP_TABLE default
0.0005192
0.000759374
0.000731582
0.000932767
0.000864852
0.00092132
0.000824734
0.000662097
0.000535446
0.00094621
0.000999249
0.000802661
0.000671708
0.000819153
0.000645007
0.000827505
0.000602392
0.000772815
0.000550095
0.000626194
0.000886859
0.000531918
0.000790192
0.000909137
0.00096445
SCALARS mass double 1
LOOKUP_TABLE default
0.00228657
0.0048913
0.00453983
0.00738005
0.00634449
0.00720004
0.00576955
0.0037184
0.0024319
0.00759432
0.00846957
0.00546484
0.00382714
0.00569173
0.00352892
0.00580838
0.00307803
0.005066
0.00256678
0.00332607
0.00667148
0.00239995
0.00529637
0.00701087
0.00788992
