# vtk DataFile Version 3.0
DEM2D particles
ASCII
DATASET POLYDATA
POINTS 25 double
0.000210492 -0.00118427 0
0.00247694 -0.00158356 0
0.00456711 -0.000936234 0
0.00674628 -0.00105495 0
0.00933215 -0.000137822 0
0.000976388 0.00201635 0
0.00272805 0.0017008 0
0.00430175 0.00123199 0
0.00620408 0.000654673 0
0.00807857 0.00110063 0
0.00194188 0.00295331 0
0.00315848 0.00267239 0
0.00447748 0.00317659 0
0.00666273 0.00424914 0
0.00823043 0.00370166 0
0.0014505 0.00487199 0
0.0023961 0.00598536 0
0.00577483 0.00501044 0
0.00705357 0.00557205 0
0.00819693 0.00527776 0
6.49651e-05 0.00691895 0
0.00285477 0.00827896 0
0.0050706 0.00721175 0
0.00716435 0.00780676 0
0.00986735 0.00735567 0
VERTICES 25 50
1 0
1 1
1 2
1 3
1 4
1 5
1 6
1 7
1 8
1 9
1 10
1 11
1 12
1 13
1 14
1 15
1 16
1 17
1 18
1 19
1 20
1 21
1 22
1 23
1 24
POINT_DATA 25
VECTORS velocity double
-1.64436e-76 -0.00970858 0
-1.08942e-76 -0.00970858 0
-9.01611e-77 -0.00970858 0
-5.28442e-77 -0.00970858 0
6.91785e-77 -0.00970858 0
-4.91789e-78 -0.00970858 0
-5.66416e-77 -0.00970858 0
-1.45429e-76 -0.00970858 0
-1.6577e-76 -0.00970858 0
-1.91912e-76 -0.00970858 0
1.96171e-76 -0.00970858 0
3.30078e-77 -0.00970858 0
-1.08828e-76 -0.00970858 0
-7.02446e-77 -0.00970858 0
-1.60283e-76 -0.00970858 0
9.38284e-77 -0.00970858 0
-1.25778e-76 -0.00970858 0
1.61379e-76 -0.00970858 0
1.11576e-77 -0.00970858 0
-1.67261e-76 -0.00970858 0
-1.94745e-76 -0.00970858 0
-3.0247e-77 -0.00970858 0
1.47049e-77 -0.00970858 0
3.42309e-77 -0.00970858 0
1.80648e-76 -0.00970858 0
SCALARS radius double 1
LOOKUP_TABLE default
0.0005192
0.000759374
0.000731582
0.000932767
0.000864852
0.00092132
0.000824734
0.000662097
0.000535446
0.00094621
0.000999249
0.000802661
0.000671708
0.000819153
0.000645007
0.000827505
0.000602392
0.000772815
0.000550095
0.000626194
0.000886859
0.000531918
0.000790192
0.000909137
0.00096445
SCALARS mass double 1
LOOKUP_TABLE default
0.00228657
0.0048913
0.00453983
0.00738005
0.00634449
0.00720004
0.00576955
0.0037184
0.0024319
0.00759432
0.00846957
0.00546484
0.00382714
0.00569173
0.00352892
0.00580838
0.00307803
0.005066
0.00256678
0.00332607
0.00667148
0.00239995
0.00529637
0.00701087
0.00788992
