# vtk DataFile Version 3.0
DEM2D particles
ASCII
DATASET POLYDATA
POINTS 25 double
0.000210492 -0.000306616 0
0.00247694 -0.000705906 0
0.00456711 -5.85785e-05 0
0.00674628 -0.000177293 0
0.00933215 0.000739834 0
0.000976388 0.00289401 0
0.00272805 0.00257846 0
0.00430175 0.00210964 0
0.00620408 0.00153233 0
0.00807857 0.00197829 0
0.00194188 0.00383097 0
0.00315848 0.00355005 0
0.00447748 0.00405425 0
0.00666273 0.0051268 0
0.00823043 0.00457932 0
0.0014505 0.00574964 0
0.0023961 0.00686301 0
0.00577483 0.00588809 0
0.00705357 0.0064497 0
0.00819693 0.00615542 0
6.49651e-05 0.00779661 0
0.00285477 0.00915661 0
0.0050706 0.0080894 0
0.00716435 0.00868442 0
0.00986735 0.00823332 0
VERTICES 25 50
1 0
1 1
1 2
1 3
1 4
1 5
1 6
1 7
1 8
1 9
1 10
1 11
1 12
1 13
1 14
1 15
1 16
1 17
1 18
1 19
1 20
1 21
1 22
1 23
1 24
POINT_DATA 25
VECTORS velocity double
-4.71886e-37 -0.00970858 0
-3.12633e-37 -0.00970858 0
-2.58738e-37 -0.00970858 0
-1.51649e-37 -0.00970858 0
1.98524e-37 -0.00970858 0
-1.4113e-38 -0.00970858 0
-1.62546e-37 -0.00970858 0
-4.17342e-37 -0.00970858 0
-4.75715e-37 -0.00970858 0
-5.50737e-37 -0.00970858 0
5.62959e-37 -0.00970858 0
9.47234e-38 -0.00970858 0
-3.12307e-37 -0.00970858 0
-2.01583e-37 -0.00970858 0
-4.59969e-37 -0.00970858 0
2.69262e-37 -0.00970858 0
-3.60948e-37 -0.00970858 0
4.63114e-37 -0.00970858 0
3.20192e-38 -0.00970858 0
-4.79993e-37 -0.00970858 0
-5.58866e-37 -0.00970858 0
-8.68006e-38 -0.00970858 0
4.21992e-38 -0.00970858 0
9.82333e-38 -0.00970858 0
5.1841e-37 -0.00970858 0
SCALARS radius double 1
LOOKUP_TABLE default
0.0005192
0.000759374
0.000731582
0.000932767
0.000864852
0.00092132
0.000824734
0.000662097
0.000535446
0.00094621
0.000999249
0.000802661
0.000671708
0.000819153
0.000645007
0.000827505
0.000602392
0.000772815
0.000550095
0.000626194
0.000886859
0.000531918
0.000790192
0.000909137
0.00096445
SCALARS mass double 1
LOOKUP_TABLE default
0.00228657
0.0048913
0.00453983
0.00738005
0.00634449
0.00720004
0.00576955
0.0037184
0.0024319
0.00759432
0.00846957
0.00546484
0.00382714
0.00569173
0.00352892
0.00580838
0.00307803
0.005066
0.00256678
0.00332607
0.00667148
0.00239995
0.00529637
0.00701087
0.00788992
