# vtk DataFile Version 3.0
DEM2D particles
ASCII
DATASET POLYDATA
POINTS 25 double
0.000210492 -0.00134543 0
0.00247694 -0.00174472 0
0.00456711 -0.0010974 0
0.00674628 -0.00121611 0
0.00933215 -0.000298985 0
0.000976388 0.00185519 0
0.00272805 0.00153964 0
0.00430175 0.00107083 0
0.00620408 0.000493511 0
0.00807857 0.000939472 0
0.00194188 0.00279215 0
0.00315848 0.00251123 0
0.00447748 0.00301543 0
0.00666273 0.00408798 0
0.00823043 0.0035405 0
0.0014505 0.00471083 0
0.0023961 0.00582419 0
0.00577483 0.00484927 0
0.00705357 0.00541089 0
0.00819693 0.0051166 0
6.49651e-05 0.00675779 0
0.00285477 0.0081178 0
0.0050706 0.00705058 0
0.00716435 0.0076456 0
0.00986735 0.00719451 0
VERTICES 25 50
1 0
1 1
1 2
1 3
1 4
1 5
1 6
1 7
1 8
1 9
1 10
1 11
1 12
1 13
1 14
1 15
1 16
1 17
1 18
1 19
1 20
1 21
1 22
1 23
1 24
POINT_DATA 25
VECTORS velocity double
-9.34155e-84 -0.00970858 0
-6.18895e-84 -0.00970858 0
-5.12203e-84 -0.00970858 0
-3.00207e-84 -0.00970858 0
3.93001e-84 -0.00970858 0
-2.79384e-85 -0.00970858 0
-3.2178e-84 -0.00970858 0
-8.26179e-84 -0.00970858 0
-9.41737e-84 -0.00970858 0
-1.09025e-83 -0.00970858 0
1.11445e-83 -0.00970858 0
1.87517e-84 -0.00970858 0
-6.1825e-84 -0.00970858 0
-3.99058e-84 -0.00970858 0
-9.10564e-84 -0.00970858 0
5.33037e-84 -0.00970858 0
-7.1454e-84 -0.00970858 0
9.16791e-84 -0.00970858 0
6.33859e-85 -0.00970858 0
-9.50204e-84 -0.00970858 0
-1.10634e-83 -0.00970858 0
-1.71832e-84 -0.00970858 0
8.35384e-85 -0.00970858 0
1.94465e-84 -0.00970858 0
1.02626e-83 -0.00970858 0
SCALARS radius double 1
LOOKUP_TABLE default
0.0005192
0.000759374
0.000731582
0.000932767
0.000864852
0.00092132
0.000824734
0.000662097
0.000535446
0.00094621
0.000999249
0.000802661
0.000671708
0.000819153
0.000645007
0.000827505
0.000602392
0.000772815
0.000550095
0.000626194
0.000886859
0.000531918
0.000790192
0.000909137
0.00096445
SCALARS mass double 1
LOOKUP_TABLE default
0.00228657
0.0048913
0.00453983
0.00738005
0.00634449
0.00720004
0.00576955
0.0037184
0.0024319
0.00759432
0.00846957
0.00546484
0.00382714
0.00569173
0.00352892
0.00580838
0.00307803
0.005066
0.00256678
0.00332607
0.00667148
0.00239995
0.00529637
0.00701087
0.00788992
