# vtk DataFile Version 3.0
DEM2D particles
ASCII
DATASET POLYDATA
POINTS 25 double
0.000210492 -0.00107942 0
0.00247694 -0.00147871 0
0.00456711 -0.000831382 0
0.00674628 -0.000950096 0
0.00933215 -3.29694e-05 0
0.000976388 0.00212121 0
0.00272805 0.00180565 0
0.00430175 0.00133684 0
0.00620408 0.000759526 0
0.00807857 0.00120549 0
0.00194188 0.00305817 0
0.00315848 0.00277724 0
0.00447748 0.00328144 0
0.00666273 0.004354 0
0.00823043 0.00380652 0
0.0014505 0.00497684 0
0.0023961 0.00609021 0
0.00577483 0.00511529 0
0.00705357 0.0056769 0
0.00819693 0.00538261 0
6.49651e-05 0.00702381 0
0.00285477 0.00838381 0
0.0050706 0.0073166 0
0.00716435 0.00791161 0
0.00986735 0.00746052 0
VERTICES 25 50
1 0
1 1
1 2
1 3
1 4
1 5
1 6
1 7
1 8
1 9
1 10
1 11
1 12
1 13
1 14
1 15
1 16
1 17
1 18
1 19
1 20
1 21
1 22
1 23
1 24
POINT_DATA 25
VECTORS velocity double
-8.5111e-72 -0.00970858 0
-5.63876e-72 -0.00970858 0
-4.66669e-72 -0.00970858 0
-2.73519e-72 -0.00970858 0
3.58064e-72 -0.00970858 0
-2.54547e-73 -0.00970858 0
-2.93174e-72 -0.00970858 0
-7.52733e-72 -0.00970858 0
-8.58018e-72 -0.00970858 0
-9.93329e-72 -0.00970858 0
1.01537e-71 -0.00970858 0
1.70847e-72 -0.00970858 0
-5.63289e-72 -0.00970858 0
-3.63582e-72 -0.00970858 0
-8.29616e-72 -0.00970858 0
4.85651e-72 -0.00970858 0
-6.51018e-72 -0.00970858 0
8.3529e-72 -0.00970858 0
5.77509e-73 -0.00970858 0
-8.65732e-72 -0.00970858 0
-1.00799e-71 -0.00970858 0
-1.56557e-72 -0.00970858 0
7.61119e-73 -0.00970858 0
1.77177e-72 -0.00970858 0
9.35023e-72 -0.00970858 0
SCALARS radius double 1
LOOKUP_TABLE default
0.0005192
0.000759374
0.000731582
0.000932767
0.000864852
0.00092132
0.000824734
0.000662097
0.000535446
0.00094621
0.000999249
0.000802661
0.000671708
0.000819153
0.000645007
0.000827505
0.000602392
0.000772815
0.000550095
0.000626194
0.000886859
0.000531918
0.000790192
0.000909137
0.00096445
SCALARS mass double 1
LOOKUP_TABLE default
0.00228657
0.0048913
0.00453983
0.00738005
0.00634449
0.00720004
0.00576955
0.0037184
0.0024319
0.00759432
0.00846957
0.00546484
0.00382714
0.00569173
0.00352892
0.00580838
0.00307803
0.005066
0.00256678
0.00332607
0.00667148
0.00239995
0.00529637
0.00701087
0.00788992
