# vtk DataFile Version 3.0
DEM2D particles
ASCII
DATASET POLYDATA
POINTS 25 double
0.000210492 -0.000636708 0
0.00247694 -0.001036 0
0.00456711 -0.00038867 0
0.00674628 -0.000507384 0
0.00933215 0.000409742 0
0.000976388 0.00256392 0
0.00272805 0.00224836 0
0.00430175 0.00177955 0
0.00620408 0.00120224 0
0.00807857 0.0016482 0
0.00194188 0.00350088 0
0.00315848 0.00321995 0
0.00447748 0.00372416 0
0.00666273 0.00479671 0
0.00823043 0.00424923 0
0.0014505 0.00541955 0
0.0023961 0.00653292 0
0.00577483 0.005558 0
0.00705357 0.00611961 0
0.00819693 0.00582533 0
6.49651e-05 0.00746652 0
0.00285477 0.00882652 0
0.0050706 0.00775931 0
0.00716435 0.00835432 0
0.00986735 0.00790323 0
VERTICES 25 50
1 0
1 1
1 2
1 3
1 4
1 5
1 6
1 7
1 8
1 9
1 10
1 11
1 12
1 13
1 14
1 15
1 16
1 17
1 18
1 19
1 20
1 21
1 22
1 23
1 24
POINT_DATA 25
VECTORS velocity double
-6.81551e-52 -0.00970858 0
-4.5154e-52 -0.00970858 0
-3.73699e-52 -0.00970858 0
-2.19028e-52 -0.00970858 0
2.8673e-52 -0.00970858 0
-2.03836e-53 -0.00970858 0
-2.34768e-52 -0.00970858 0
-6.02773e-52 -0.00970858 0
-6.87082e-52 -0.00970858 0
-7.95437e-52 -0.00970858 0
8.13089e-52 -0.00970858 0
1.3681e-52 -0.00970858 0
-4.5107e-52 -0.00970858 0
-2.91149e-52 -0.00970858 0
-6.64339e-52 -0.00970858 0
3.88899e-52 -0.00970858 0
-5.21322e-52 -0.00970858 0
6.68883e-52 -0.00970858 0
4.62457e-53 -0.00970858 0
-6.9326e-52 -0.00970858 0
-8.07178e-52 -0.00970858 0
-1.25367e-52 -0.00970858 0
6.09488e-53 -0.00970858 0
1.4188e-52 -0.00970858 0
7.48747e-52 -0.00970858 0
SCALARS radius double 1
LOOKUP_TABLE default
0.0005192
0.000759374
0.000731582
0.000932767
0.000864852
0.00092132
0.000824734
0.000662097
0.000535446
0.00094621
0.000999249
0.000802661
0.000671708
0.000819153
0.000645007
0.000827505
0.000602392
0.000772815
0.000550095
0.000626194
0.000886859
0.000531918
0.000790192
0.000909137
0.00096445
SCALARS mass double 1
LOOKUP_TABLE default
0.00228657
0.0048913
0.00453983
0.00738005
0.00634449
0.00720004
0.00576955
0.0037184
0.0024319
0.00759432
0.00846957
0.00546484
0.00382714
0.00569173
0.00352892
0.00580838
0.00307803
0.005066
0.00256678
0.00332607
0.00667148
0.00239995
0.00529637
0.00701087
0.00788992
