# vtk DataFile Version 3.0
DEM2D particles
ASCII
DATASET POLYDATA
POINTS 25 double
0.000210492 -0.00128524 0
0.00247694 -0.00168453 0
0.00456711 -0.0010372 0
0.00674628 -0.00115592 0
0.00933215 -0.000238791 0
0.000976388 0.00191538 0
0.00272805 0.00159983 0
0.00430175 0.00113102 0
0.00620408 0.000553704 0
0.00807857 0.000999665 0
0.00194188 0.00285235 0
0.00315848 0.00257142 0
0.00447748 0.00307562 0
0.00666273 0.00414817 0
0.00823043 0.00360069 0
0.0014505 0.00477102 0
0.0023961 0.00588439 0
0.00577483 0.00490947 0
0.00705357 0.00547108 0
0.00819693 0.00517679 0
6.49651e-05 0.00681798 0
0.00285477 0.00817799 0
0.0050706 0.00711078 0
0.00716435 0.00770579 0
0.00986735 0.0072547 0
VERTICES 25 50
1 0
1 1
1 2
1 3
1 4
1 5
1 6
1 7
1 8
1 9
1 10
1 11
1 12
1 13
1 14
1 15
1 16
1 17
1 18
1 19
1 20
1 21
1 22
1 23
1 24
POINT_DATA 25
VECTORS velocity double
-4.74896e-81 -0.00970858 0
-3.14627e-81 -0.00970858 0
-2.60388e-81 -0.00970858 0
-1.52616e-81 -0.00970858 0
1.9979e-81 -0.00970858 0
-1.4203e-82 -0.00970858 0
-1.63583e-81 -0.00970858 0
-4.20004e-81 -0.00970858 0
-4.7875e-81 -0.00970858 0
-5.5425e-81 -0.00970858 0
5.6655e-81 -0.00970858 0
9.53277e-82 -0.00970858 0
-3.14299e-81 -0.00970858 0
-2.02869e-81 -0.00970858 0
-4.62903e-81 -0.00970858 0
2.7098e-81 -0.00970858 0
-3.6325e-81 -0.00970858 0
4.66069e-81 -0.00970858 0
3.22234e-82 -0.00970858 0
-4.83055e-81 -0.00970858 0
-5.62431e-81 -0.00970858 0
-8.73543e-82 -0.00970858 0
4.24683e-82 -0.00970858 0
9.88599e-82 -0.00970858 0
5.21717e-81 -0.00970858 0
SCALARS radius double 1
LOOKUP_TABLE default
0.0005192
0.000759374
0.000731582
0.000932767
0.000864852
0.00092132
0.000824734
0.000662097
0.000535446
0.00094621
0.000999249
0.000802661
0.000671708
0.000819153
0.000645007
0.000827505
0.000602392
0.000772815
0.000550095
0.000626194
0.000886859
0.000531918
0.000790192
0.000909137
0.00096445
SCALARS mass double 1
LOOKUP_TABLE default
0.00228657
0.0048913
0.00453983
0.00738005
0.00634449
0.00720004
0.00576955
0.0037184
0.0024319
0.00759432
0.00846957
0.00546484
0.00382714
0.00569173
0.00352892
0.00580838
0.00307803
0.005066
0.00256678
0.00332607
0.00667148
0.00239995
0.00529637
0.00701087
0.00788992
