# vtk DataFile Version 3.0
DEM2D particles
ASCII
DATASET POLYDATA
POINTS 25 double
0.000210492 -0.00100758 0
0.00247694 -0.00140687 0
0.00456711 -0.000759538 0
0.00674628 -0.000878252 0
0.00933215 3.88741e-05 0
0.000976388 0.00219305 0
0.00272805 0.0018775 0
0.00430175 0.00140868 0
0.00620408 0.000831369 0
0.00807857 0.00127733 0
0.00194188 0.00313001 0
0.00315848 0.00284909 0
0.00447748 0.00335329 0
0.00666273 0.00442584 0
0.00823043 0.00387836 0
0.0014505 0.00504868 0
0.0023961 0.00616205 0
0.00577483 0.00518713 0
0.00705357 0.00574874 0
0.00819693 0.00545446 0
6.49651e-05 0.00709565 0
0.00285477 0.00845565 0
0.0050706 0.00738844 0
0.00716435 0.00798346 0
0.00986735 0.00753236 0
VERTICES 25 50
1 0
1 1
1 2
1 3
1 4
1 5
1 6
1 7
1 8
1 9
1 10
1 11
1 12
1 13
1 14
1 15
1 16
1 17
1 18
1 19
1 20
1 21
1 22
1 23
1 24
POINT_DATA 25
VECTORS velocity double
-1.44525e-68 -0.00970858 0
-9.57502e-69 -0.00970858 0
-7.92438e-69 -0.00970858 0
-4.64455e-69 -0.00970858 0
6.08019e-69 -0.00970858 0
-4.32239e-70 -0.00970858 0
-4.97831e-69 -0.00970858 0
-1.27819e-68 -0.00970858 0
-1.45698e-68 -0.00970858 0
-1.68674e-68 -0.00970858 0
1.72418e-68 -0.00970858 0
2.9011e-69 -0.00970858 0
-9.56504e-69 -0.00970858 0
-6.17389e-69 -0.00970858 0
-1.40875e-68 -0.00970858 0
8.2467e-69 -0.00970858 0
-1.10548e-68 -0.00970858 0
1.41838e-68 -0.00970858 0
9.80652e-70 -0.00970858 0
-1.47008e-68 -0.00970858 0
-1.71164e-68 -0.00970858 0
-2.65844e-69 -0.00970858 0
1.29244e-69 -0.00970858 0
3.00859e-69 -0.00970858 0
1.58774e-68 -0.00970858 0
SCALARS radius double 1
LOOKUP_TABLE default
0.0005192
0.000759374
0.000731582
0.000932767
0.000864852
0.00092132
0.000824734
0.000662097
0.000535446
0.00094621
0.000999249
0.000802661
0.000671708
0.000819153
0.000645007
0.000827505
0.000602392
0.000772815
0.000550095
0.000626194
0.000886859
0.000531918
0.000790192
0.000909137
0.00096445
SCALARS mass double 1
LOOKUP_TABLE default
0.00228657
0.0048913
0.00453983
0.00738005
0.00634449
0.00720004
0.00576955
0.0037184
0.0024319
0.00759432
0.00846957
0.00546484
0.00382714
0.00569173
0.00352892
0.00580838
0.00307803
0.005066
0.00256678
0.00332607
0.00667148
0.00239995
0.00529637
0.00701087
0.00788992
