# vtk DataFile Version 3.0
DEM2D particles
ASCII
DATASET POLYDATA
POINTS 25 double
0.000210492 0.000176871 0
0.00247694 -0.000222418 0
0.00456711 0.000424909 0
0.00674628 0.000306195 0
0.00933215 0.00122332 0
0.000976388 0.0033775 0
0.00272805 0.00306194 0
0.00430175 0.00259313 0
0.00620408 0.00201582 0
0.00807857 0.00246178 0
0.00194188 0.00431446 0
0.00315848 0.00403353 0
0.00447748 0.00453774 0
0.00666273 0.00561029 0
0.00823043 0.00506281 0
0.0014505 0.00623313 0
0.0023961 0.0073465 0
0.00577483 0.00637158 0
0.00705357 0.00693319 0
0.00819693 0.00663891 0
6.49651e-05 0.0082801 0
0.00285477 0.0096401 0
0.0050706 0.00857289 0
0.00716435 0.0091679 0
0.00986735 0.00871681 0
VERTICES 25 50
1 0
1 1
1 2
1 3
1 4
1 5
1 6
1 7
1 8
1 9
1 10
1 11
1 12
1 13
1 14
1 15
1 16
1 17
1 18
1 19
1 20
1 21
1 22
1 23
1 24
POINT_DATA 25
VECTORS velocity double
-2.57376e-15 -0.00970858 0
-1.70516e-15 -0.00970858 0
-1.41121e-15 -0.00970858 0
-8.27122e-16 -0.00970858 0
1.08279e-15 -0.00970858 0
-7.69751e-17 -0.00970858 0
-8.86559e-16 -0.00970858 0
-2.27626e-15 -0.00970858 0
-2.59465e-15 -0.00970858 0
-3.00383e-15 -0.00970858 0
3.07049e-15 -0.00970858 0
5.1664e-16 -0.00970858 0
-1.70339e-15 -0.00970858 0
-1.09947e-15 -0.00970858 0
-2.50876e-15 -0.00970858 0
1.46861e-15 -0.00970858 0
-1.96868e-15 -0.00970858 0
2.52592e-15 -0.00970858 0
1.74639e-16 -0.00970858 0
-2.61798e-15 -0.00970858 0
-3.04817e-15 -0.00970858 0
-4.73427e-16 -0.00970858 0
2.30163e-16 -0.00970858 0
5.35784e-16 -0.00970858 0
2.82751e-15 -0.00970858 0
SCALARS radius double 1
LOOKUP_TABLE default
0.0005192
0.000759374
0.000731582
0.000932767
0.000864852
0.00092132
0.000824734
0.000662097
0.000535446
0.00094621
0.000999249
0.000802661
0.000671708
0.000819153
0.000645007
0.000827505
0.000602392
0.000772815
0.000550095
0.000626194
0.000886859
0.000531918
0.000790192
0.000909137
0.00096445
SCALARS mass double 1
LOOKUP_TABLE default
0.00228657
0.0048913
0.00453983
0.00738005
0.00634449
0.00720004
0.00576955
0.0037184
0.0024319
0.00759432
0.00846957
0.00546484
0.00382714
0.00569173
0.00352892
0.00580838
0.00307803
0.005066
0.00256678
0.00332607
0.00667148
0.00239995
0.00529637
0.00701087
0.00788992
