# vtk DataFile Version 3.0
DEM2D particles
ASCII
DATASET POLYDATA
POINTS 25 double
0.000210492 -0.000477487 0
0.00247694 -0.000876777 0
0.00456711 -0.00022945 0
0.00674628 -0.000348164 0
0.00933215 0.000568963 0
0.000976388 0.00272314 0
0.00272805 0.00240758 0
0.00430175 0.00193877 0
0.00620408 0.00136146 0
0.00807857 0.00180742 0
0.00194188 0.0036601 0
0.00315848 0.00337917 0
0.00447748 0.00388338 0
0.00666273 0.00495593 0
0.00823043 0.00440845 0
0.0014505 0.00557877 0
0.0023961 0.00669214 0
0.00577483 0.00571722 0
0.00705357 0.00627883 0
0.00819693 0.00598455 0
6.49651e-05 0.00762574 0
0.00285477 0.00898574 0
0.0050706 0.00791853 0
0.00716435 0.00851354 0
0.00986735 0.00806245 0
VERTICES 25 50
1 0
1 1
1 2
1 3
1 4
1 5
1 6
1 7
1 8
1 9
1 10
1 11
1 12
1 13
1 14
1 15
1 16
1 17
1 18
1 19
1 20
1 21
1 22
1 23
1 24
POINT_DATA 25
VECTORS velocity double
-9.81249e-45 -0.00970858 0
-6.50095e-45 -0.00970858 0
-5.38025e-45 -0.00970858 0
-3.15341e-45 -0.00970858 0
4.12814e-45 -0.00970858 0
-2.93469e-46 -0.00970858 0
-3.38002e-45 -0.00970858 0
-8.67829e-45 -0.00970858 0
-9.89213e-45 -0.00970858 0
-1.14521e-44 -0.00970858 0
1.17063e-44 -0.00970858 0
1.9697e-45 -0.00970858 0
-6.49418e-45 -0.00970858 0
-4.19176e-45 -0.00970858 0
-9.56469e-45 -0.00970858 0
5.59909e-45 -0.00970858 0
-7.50562e-45 -0.00970858 0
9.6301e-45 -0.00970858 0
6.65814e-46 -0.00970858 0
-9.98107e-45 -0.00970858 0
-1.16212e-44 -0.00970858 0
-1.80495e-45 -0.00970858 0
8.77498e-46 -0.00970858 0
2.04268e-45 -0.00970858 0
1.07799e-44 -0.00970858 0
SCALARS radius double 1
LOOKUP_TABLE default
0.0005192
0.000759374
0.000731582
0.000932767
0.000864852
0.00092132
0.000824734
0.000662097
0.000535446
0.00094621
0.000999249
0.000802661
0.000671708
0.000819153
0.000645007
0.000827505
0.000602392
0.000772815
0.000550095
0.000626194
0.000886859
0.000531918
0.000790192
0.000909137
0.00096445
SCALARS mass double 1
LOOKUP_TABLE default
0.00228657
0.0048913
0.00453983
0.00738005
0.00634449
0.00720004
0.00576955
0.0037184
0.0024319
0.00759432
0.00846957
0.00546484
0.00382714
0.00569173
0.00352892
0.00580838
0.00307803
0.005066
0.00256678
0.00332607
0.00667148
0.00239995
0.00529637
0.00701087
0.00788992
