# vtk DataFile Version 3.0
DEM2D particles
ASCII
DATASET POLYDATA
POINTS 25 double
0.000210492 -0.000988159 0
0.00247694 -0.00138745 0
0.00456711 -0.000740121 0
0.00674628 -0.000858835 0
0.00933215 5.82913e-05 0
0.000976388 0.00221247 0
0.00272805 0.00189691 0
0.00430175 0.0014281 0
0.00620408 0.000850787 0
0.00807857 0.00129675 0
0.00194188 0.00314943 0
0.00315848 0.0028685 0
0.00447748 0.00337271 0
0.00666273 0.00444526 0
0.00823043 0.00389778 0
0.0014505 0.0050681 0
0.0023961 0.00618147 0
0.00577483 0.00520655 0
0.00705357 0.00576816 0
0.00819693 0.00547388 0
6.49651e-05 0.00711507 0
0.00285477 0.00847507 0
0.0050706 0.00740786 0
0.00716435 0.00800287 0
0.00986735 0.00755178 0
VERTICES 25 50
1 0
1 1
1 2
1 3
1 4
1 5
1 6
1 7
1 8
1 9
1 10
1 11
1 12
1 13
1 14
1 15
1 16
1 17
1 18
1 19
1 20
1 21
1 22
1 23
1 24
POINT_DATA 25
VECTORS velocity double
-1.07871e-67 -0.00970858 0
-7.14662e-68 -0.00970858 0
-5.91461e-68 -0.00970858 0
-3.46661e-68 -0.00970858 0
4.53814e-68 -0.00970858 0
-3.22616e-69 -0.00970858 0
-3.71572e-68 -0.00970858 0
-9.54021e-68 -0.00970858 0
-1.08746e-67 -0.00970858 0
-1.25895e-67 -0.00970858 0
1.28689e-67 -0.00970858 0
2.16533e-68 -0.00970858 0
-7.13918e-68 -0.00970858 0
-4.60808e-68 -0.00970858 0
-1.05146e-67 -0.00970858 0
6.15519e-68 -0.00970858 0
-8.25107e-68 -0.00970858 0
1.05865e-67 -0.00970858 0
7.31941e-69 -0.00970858 0
-1.09724e-67 -0.00970858 0
-1.27754e-67 -0.00970858 0
-1.98421e-68 -0.00970858 0
9.6465e-69 -0.00970858 0
2.24556e-68 -0.00970858 0
1.18506e-67 -0.00970858 0
SCALARS radius double 1
LOOKUP_TABLE default
0.0005192
0.000759374
0.000731582
0.000932767
0.000864852
0.00092132
0.000824734
0.000662097
0.000535446
0.00094621
0.000999249
0.000802661
0.000671708
0.000819153
0.000645007
0.000827505
0.000602392
0.000772815
0.000550095
0.000626194
0.000886859
0.000531918
0.000790192
0.000909137
0.00096445
SCALARS mass double 1
LOOKUP_TABLE default
0.00228657
0.0048913
0.00453983
0.00738005
0.00634449
0.00720004
0.00576955
0.0037184
0.0024319
0.00759432
0.00846957
0.00546484
0.00382714
0.00569173
0.00352892
0.00580838
0.00307803
0.005066
0.00256678
0.00332607
0.00667148
0.00239995
0.00529637
0.00701087
0.00788992
