# vtk DataFile Version 3.0
DEM2D particles
ASCII
DATASET POLYDATA
POINTS 25 double
0.000210493 0.00036716 0
0.00247694 -3.21289e-05 0
0.00456711 0.000615198 0
0.00674628 0.000496484 0
0.00933215 0.00141361 0
0.000976388 0.00356778 0
0.00272805 0.00325223 0
0.00430175 0.00278342 0
0.00620408 0.00220611 0
0.00807857 0.00265207 0
0.00194188 0.00450475 0
0.00315848 0.00422382 0
0.00447748 0.00472802 0
0.00666273 0.00580057 0
0.00823043 0.0052531 0
0.0014505 0.00642342 0
0.0023961 0.00753679 0
0.00577483 0.00656187 0
0.00705357 0.00712348 0
0.00819693 0.00682919 0
6.49662e-05 0.00847038 0
0.00285477 0.00983039 0
0.0050706 0.00876318 0
0.00716435 0.00935819 0
0.00986735 0.0089071 0
VERTICES 25 50
1 0
1 1
1 2
1 3
1 4
1 5
1 6
1 7
1 8
1 9
1 10
1 11
1 12
1 13
1 14
1 15
1 16
1 17
1 18
1 19
1 20
1 21
1 22
1 23
1 24
POINT_DATA 25
VECTORS velocity double
-9.23818e-07 -0.00970917 0
-6.12046e-07 -0.00970964 0
-5.06535e-07 -0.00970888 0
-2.96885e-07 -0.00970902 0
3.88652e-07 -0.00970795 0
-2.76292e-08 -0.00970776 0
-3.18219e-07 -0.00970813 0
-8.17036e-07 -0.00970868 0
-9.31315e-07 -0.00970936 0
-1.07819e-06 -0.00970884 0
1.10211e-06 -0.00970901 0
1.85441e-07 -0.00970934 0
-6.11409e-07 -0.00970875 0
-3.94642e-07 -0.00970749 0
-9.00488e-07 -0.00970813 0
5.27139e-07 -0.0097091 0
-7.06633e-07 -0.0097078 0
9.06646e-07 -0.00970894 0
6.26844e-08 -0.00970828 0
-9.39689e-07 -0.00970863 0
-1.0941e-06 -0.00970905 0
-1.69931e-07 -0.00970746 0
8.26139e-08 -0.00970871 0
1.92313e-07 -0.00970801 0
1.0149e-06 -0.00970854 0
SCALARS radius double 1
LOOKUP_TABLE default
0.0005192
0.000759374
0.000731582
0.000932767
0.000864852
0.00092132
0.000824734
0.000662097
0.000535446
0.00094621
0.000999249
0.000802661
0.000671708
0.000819153
0.000645007
0.000827505
0.000602392
0.000772815
0.000550095
0.000626194
0.000886859
0.000531918
0.000790192
0.000909137
0.00096445
SCALARS mass double 1
LOOKUP_TABLE default
0.00228657
0.0048913
0.00453983
0.00738005
0.00634449
0.00720004
0.00576955
0.0037184
0.0024319
0.00759432
0.00846957
0.00546484
0.00382714
0.00569173
0.00352892
0.00580838
0.00307803
0.005066
0.00256678
0.00332607
0.00667148
0.00239995
0.00529637
0.00701087
0.00788992
