# vtk DataFile Version 3.0
DEM2D particles
ASCII
DATASET POLYDATA
POINTS 25 double
0.000210492 -0.000619233 0
0.00247694 -0.00101852 0
0.00456711 -0.000371195 0
0.00674628 -0.000489909 0
0.00933215 0.000427217 0
0.000976388 0.00258139 0
0.00272805 0.00226584 0
0.00430175 0.00179703 0
0.00620408 0.00121971 0
0.00807857 0.00166567 0
0.00194188 0.00351835 0
0.00315848 0.00323743 0
0.00447748 0.00374163 0
0.00666273 0.00481418 0
0.00823043 0.0042667 0
0.0014505 0.00543703 0
0.0023961 0.0065504 0
0.00577483 0.00557548 0
0.00705357 0.00613709 0
0.00819693 0.0058428 0
6.49651e-05 0.00748399 0
0.00285477 0.008844 0
0.0050706 0.00777679 0
0.00716435 0.0083718 0
0.00986735 0.00792071 0
VERTICES 25 50
1 0
1 1
1 2
1 3
1 4
1 5
1 6
1 7
1 8
1 9
1 10
1 11
1 12
1 13
1 14
1 15
1 16
1 17
1 18
1 19
1 20
1 21
1 22
1 23
1 24
POINT_DATA 25
VECTORS velocity double
-4.16067e-51 -0.00970858 0
-2.75652e-51 -0.00970858 0
-2.28132e-51 -0.00970858 0
-1.3371e-51 -0.00970858 0
1.75041e-51 -0.00970858 0
-1.24436e-52 -0.00970858 0
-1.43319e-51 -0.00970858 0
-3.67975e-51 -0.00970858 0
-4.19444e-51 -0.00970858 0
-4.85591e-51 -0.00970858 0
4.96367e-51 -0.00970858 0
8.35187e-52 -0.00970858 0
-2.75365e-51 -0.00970858 0
-1.77738e-51 -0.00970858 0
-4.0556e-51 -0.00970858 0
2.37412e-51 -0.00970858 0
-3.18252e-51 -0.00970858 0
4.08333e-51 -0.00970858 0
2.82317e-52 -0.00970858 0
-4.23215e-51 -0.00970858 0
-4.92759e-51 -0.00970858 0
-7.65331e-52 -0.00970858 0
3.72075e-52 -0.00970858 0
8.66134e-52 -0.00970858 0
4.57088e-51 -0.00970858 0
SCALARS radius double 1
LOOKUP_TABLE default
0.0005192
0.000759374
0.000731582
0.000932767
0.000864852
0.00092132
0.000824734
0.000662097
0.000535446
0.00094621
0.000999249
0.000802661
0.000671708
0.000819153
0.000645007
0.000827505
0.000602392
0.000772815
0.000550095
0.000626194
0.000886859
0.000531918
0.000790192
0.000909137
0.00096445
SCALARS mass double 1
LOOKUP_TABLE default
0.00228657
0.0048913
0.00453983
0.00738005
0.00634449
0.00720004
0.00576955
0.0037184
0.0024319
0.00759432
0.00846957
0.00546484
0.00382714
0.00569173
0.00352892
0.00580838
0.00307803
0.005066
0.00256678
0.00332607
0.00667148
0.00239995
0.00529637
0.00701087
0.00788992
