# vtk DataFile Version 3.0
DEM2D particles
ASCII
DATASET POLYDATA
POINTS 25 double
0.000210492 -8.72024e-05 0
0.00247694 -0.000486492 0
0.00456711 0.000160835 0
0.00674628 4.21214e-05 0
0.00933215 0.000959248 0
0.000976388 0.00311342 0
0.00272805 0.00279787 0
0.00430175 0.00232906 0
0.00620408 0.00175174 0
0.00807857 0.0021977 0
0.00194188 0.00405038 0
0.00315848 0.00376946 0
0.00447748 0.00427366 0
0.00666273 0.00534621 0
0.00823043 0.00479873 0
0.0014505 0.00596906 0
0.0023961 0.00708243 0
0.00577483 0.00610751 0
0.00705357 0.00666912 0
0.00819693 0.00637483 0
6.49651e-05 0.00801602 0
0.00285477 0.00937603 0
0.0050706 0.00830882 0
0.00716435 0.00890383 0
0.00986735 0.00845274 0
VERTICES 25 50
1 0
1 1
1 2
1 3
1 4
1 5
1 6
1 7
1 8
1 9
1 10
1 11
1 12
1 13
1 14
1 15
1 16
1 17
1 18
1 19
1 20
1 21
1 22
1 23
1 24
POINT_DATA 25
VECTORS velocity double
-3.4538e-27 -0.00970858 0
-2.2882e-27 -0.00970858 0
-1.89374e-27 -0.00970858 0
-1.10994e-27 -0.00970858 0
1.45302e-27 -0.00970858 0
-1.03295e-28 -0.00970858 0
-1.1897e-27 -0.00970858 0
-3.05458e-27 -0.00970858 0
-3.48183e-27 -0.00970858 0
-4.03092e-27 -0.00970858 0
4.12038e-27 -0.00970858 0
6.93294e-28 -0.00970858 0
-2.28582e-27 -0.00970858 0
-1.47541e-27 -0.00970858 0
-3.36658e-27 -0.00970858 0
1.97077e-27 -0.00970858 0
-2.64183e-27 -0.00970858 0
3.3896e-27 -0.00970858 0
2.34353e-28 -0.00970858 0
-3.51314e-27 -0.00970858 0
-4.09042e-27 -0.00970858 0
-6.35306e-28 -0.00970858 0
3.08862e-28 -0.00970858 0
7.18983e-28 -0.00970858 0
3.79432e-27 -0.00970858 0
SCALARS radius double 1
LOOKUP_TABLE default
0.0005192
0.000759374
0.000731582
0.000932767
0.000864852
0.00092132
0.000824734
0.000662097
0.000535446
0.00094621
0.000999249
0.000802661
0.000671708
0.000819153
0.000645007
0.000827505
0.000602392
0.000772815
0.000550095
0.000626194
0.000886859
0.000531918
0.000790192
0.000909137
0.00096445
SCALARS mass double 1
LOOKUP_TABLE default
0.00228657
0.0048913
0.00453983
0.00738005
0.00634449
0.00720004
0.00576955
0.0037184
0.0024319
0.00759432
0.00846957
0.00546484
0.00382714
0.00569173
0.00352892
0.00580838
0.00307803
0.005066
0.00256678
0.00332607
0.00667148
0.00239995
0.00529637
0.00701087
0.00788992
