# vtk DataFile Version 3.0
DEM2D particles
ASCII
DATASET POLYDATA
POINTS 25 double
0.000210492 0.000359393 0
0.00247694 -3.98963e-05 0
0.00456711 0.00060743 0
0.00674628 0.000488716 0
0.00933215 0.00140584 0
0.000976388 0.00356002 0
0.00272805 0.00324446 0
0.00430175 0.00277565 0
0.00620408 0.00219834 0
0.00807857 0.0026443 0
0.00194188 0.00449698 0
0.00315848 0.00421605 0
0.00447748 0.00472026 0
0.00666273 0.00579281 0
0.00823043 0.00524533 0
0.0014505 0.00641565 0
0.0023961 0.00752902 0
0.00577483 0.0065541 0
0.00705357 0.00711571 0
0.00819693 0.00682143 0
6.49656e-05 0.00846262 0
0.00285477 0.00982262 0
0.0050706 0.00875541 0
0.00716435 0.00935042 0
0.00986735 0.00889933 0
VERTICES 25 50
1 0
1 1
1 2
1 3
1 4
1 5
1 6
1 7
1 8
1 9
1 10
1 11
1 12
1 13
1 14
1 15
1 16
1 17
1 18
1 19
1 20
1 21
1 22
1 23
1 24
POINT_DATA 25
VECTORS velocity double
-4.1343e-07 -0.00970885 0
-2.73905e-07 -0.00970905 0
-2.26686e-07 -0.00970872 0
-1.32863e-07 -0.00970878 0
1.73931e-07 -0.0097083 0
-1.23647e-08 -0.00970822 0
-1.4241e-07 -0.00970838 0
-3.65643e-07 -0.00970863 0
-4.16785e-07 -0.00970893 0
-4.82513e-07 -0.0097087 0
4.93221e-07 -0.00970877 0
8.29894e-08 -0.00970892 0
-2.7362e-07 -0.00970866 0
-1.76611e-07 -0.0097081 0
-4.02989e-07 -0.00970838 0
2.35907e-07 -0.00970882 0
-3.16235e-07 -0.00970823 0
4.05745e-07 -0.00970874 0
2.80527e-08 -0.00970845 0
-4.20533e-07 -0.0097086 0
-4.89635e-07 -0.00970879 0
-7.6048e-08 -0.00970808 0
3.69717e-08 -0.00970864 0
8.60644e-08 -0.00970833 0
4.54191e-07 -0.00970856 0
SCALARS radius double 1
LOOKUP_TABLE default
0.0005192
0.000759374
0.000731582
0.000932767
0.000864852
0.00092132
0.000824734
0.000662097
0.000535446
0.00094621
0.000999249
0.000802661
0.000671708
0.000819153
0.000645007
0.000827505
0.000602392
0.000772815
0.000550095
0.000626194
0.000886859
0.000531918
0.000790192
0.000909137
0.00096445
SCALARS mass double 1
LOOKUP_TABLE default
0.00228657
0.0048913
0.00453983
0.00738005
0.00634449
0.00720004
0.00576955
0.0037184
0.0024319
0.00759432
0.00846957
0.00546484
0.00382714
0.00569173
0.00352892
0.00580838
0.00307803
0.005066
0.00256678
0.00332607
0.00667148
0.00239995
0.00529637
0.00701087
0.00788992
