# vtk DataFile Version 3.0
DEM2D particles
ASCII
DATASET POLYDATA
POINTS 25 double
0.000210492 -0.000992042 0
0.00247694 -0.00139133 0
0.00456711 -0.000744004 0
0.00674628 -0.000862719 0
0.00933215 5.44078e-05 0
0.000976388 0.00220858 0
0.00272805 0.00189303 0
0.00430175 0.00142422 0
0.00620408 0.000846903 0
0.00807857 0.00129286 0
0.00194188 0.00314554 0
0.00315848 0.00286462 0
0.00447748 0.00336882 0
0.00666273 0.00444137 0
0.00823043 0.00389389 0
0.0014505 0.00506422 0
0.0023961 0.00617759 0
0.00577483 0.00520267 0
0.00705357 0.00576428 0
0.00819693 0.00546999 0
6.49651e-05 0.00711118 0
0.00285477 0.00847119 0
0.0050706 0.00740398 0
0.00716435 0.00799899 0
0.00986735 0.0075479 0
VERTICES 25 50
1 0
1 1
1 2
1 3
1 4
1 5
1 6
1 7
1 8
1 9
1 10
1 11
1 12
1 13
1 14
1 15
1 16
1 17
1 18
1 19
1 20
1 21
1 22
1 23
1 24
POINT_DATA 25
VECTORS velocity double
-7.21623e-68 -0.00970858 0
-4.78089e-68 -0.00970858 0
-3.95671e-68 -0.00970858 0
-2.31906e-68 -0.00970858 0
3.03589e-68 -0.00970858 0
-2.15821e-69 -0.00970858 0
-2.48571e-68 -0.00970858 0
-6.38213e-68 -0.00970858 0
-7.2748e-68 -0.00970858 0
-8.42205e-68 -0.00970858 0
8.60896e-68 -0.00970858 0
1.44854e-68 -0.00970858 0
-4.77591e-68 -0.00970858 0
-3.08267e-68 -0.00970858 0
-7.034e-68 -0.00970858 0
4.11765e-68 -0.00970858 0
-5.51973e-68 -0.00970858 0
7.0821e-68 -0.00970858 0
4.89648e-69 -0.00970858 0
-7.34021e-68 -0.00970858 0
-8.54637e-68 -0.00970858 0
-1.32738e-68 -0.00970858 0
6.45324e-69 -0.00970858 0
1.50222e-68 -0.00970858 0
7.9277e-68 -0.00970858 0
SCALARS radius double 1
LOOKUP_TABLE default
0.0005192
0.000759374
0.000731582
0.000932767
0.000864852
0.00092132
0.000824734
0.000662097
0.000535446
0.00094621
0.000999249
0.000802661
0.000671708
0.000819153
0.000645007
0.000827505
0.000602392
0.000772815
0.000550095
0.000626194
0.000886859
0.000531918
0.000790192
0.000909137
0.00096445
SCALARS mass double 1
LOOKUP_TABLE default
0.00228657
0.0048913
0.00453983
0.00738005
0.00634449
0.00720004
0.00576955
0.0037184
0.0024319
0.00759432
0.00846957
0.00546484
0.00382714
0.00569173
0.00352892
0.00580838
0.00307803
0.005066
0.00256678
0.00332607
0.00667148
0.00239995
0.00529637
0.00701087
0.00788992
