# vtk DataFile Version 3.0
DEM2D particles
ASCII
DATASET POLYDATA
POINTS 25 double
0.000210492 -7.55521e-05 0
0.00247694 -0.000474841 0
0.00456711 0.000172486 0
0.00674628 5.37717e-05 0
0.00933215 0.000970898 0
0.000976388 0.00312507 0
0.00272805 0.00280952 0
0.00430175 0.00234071 0
0.00620408 0.00176339 0
0.00807857 0.00220935 0
0.00194188 0.00406203 0
0.00315848 0.00378111 0
0.00447748 0.00428531 0
0.00666273 0.00535786 0
0.00823043 0.00481038 0
0.0014505 0.00598071 0
0.0023961 0.00709408 0
0.00577483 0.00611916 0
0.00705357 0.00668077 0
0.00819693 0.00638648 0
6.49651e-05 0.00802767 0
0.00285477 0.00938768 0
0.0050706 0.00832047 0
0.00716435 0.00891548 0
0.00986735 0.00846439 0
VERTICES 25 50
1 0
1 1
1 2
1 3
1 4
1 5
1 6
1 7
1 8
1 9
1 10
1 11
1 12
1 13
1 14
1 15
1 16
1 17
1 18
1 19
1 20
1 21
1 22
1 23
1 24
POINT_DATA 25
VECTORS velocity double
-1.15365e-26 -0.00970858 0
-7.64313e-27 -0.00970858 0
-6.32553e-27 -0.00970858 0
-3.70745e-27 -0.00970858 0
4.85343e-27 -0.00970858 0
-3.4503e-28 -0.00970858 0
-3.97387e-27 -0.00970858 0
-1.0203e-26 -0.00970858 0
-1.16301e-26 -0.00970858 0
-1.34642e-26 -0.00970858 0
1.3763e-26 -0.00970858 0
2.31576e-27 -0.00970858 0
-7.63517e-27 -0.00970858 0
-4.92823e-27 -0.00970858 0
-1.12451e-26 -0.00970858 0
6.58282e-27 -0.00970858 0
-8.82432e-27 -0.00970858 0
1.13221e-26 -0.00970858 0
7.82793e-28 -0.00970858 0
-1.17347e-26 -0.00970858 0
-1.3663e-26 -0.00970858 0
-2.12207e-27 -0.00970858 0
1.03167e-27 -0.00970858 0
2.40157e-27 -0.00970858 0
1.26739e-26 -0.00970858 0
SCALARS radius double 1
LOOKUP_TABLE default
0.0005192
0.000759374
0.000731582
0.000932767
0.000864852
0.00092132
0.000824734
0.000662097
0.000535446
0.00094621
0.000999249
0.000802661
0.000671708
0.000819153
0.000645007
0.000827505
0.000602392
0.000772815
0.000550095
0.000626194
0.000886859
0.000531918
0.000790192
0.000909137
0.00096445
SCALARS mass double 1
LOOKUP_TABLE default
0.00228657
0.0048913
0.00453983
0.00738005
0.00634449
0.00720004
0.00576955
0.0037184
0.0024319
0.00759432
0.00846957
0.00546484
0.00382714
0.00569173
0.00352892
0.00580838
0.00307803
0.005066
0.00256678
0.00332607
0.00667148
0.00239995
0.00529637
0.00701087
0.00788992
