# vtk DataFile Version 3.0
DEM2D particles
ASCII
DATASET POLYDATA
POINTS 25 double
0.000210492 -0.000170696 0
0.00247694 -0.000569985 0
0.00456711 7.73417e-05 0
0.00674628 -4.13724e-05 0
0.00933215 0.000875754 0
0.000976388 0.00302993 0
0.00272805 0.00271438 0
0.00430175 0.00224556 0
0.00620408 0.00166825 0
0.00807857 0.00211421 0
0.00194188 0.00396689 0
0.00315848 0.00368597 0
0.00447748 0.00419017 0
0.00666273 0.00526272 0
0.00823043 0.00471524 0
0.0014505 0.00588556 0
0.0023961 0.00699893 0
0.00577483 0.00602401 0
0.00705357 0.00658562 0
0.00819693 0.00629134 0
6.49651e-05 0.00793253 0
0.00285477 0.00929253 0
0.0050706 0.00822532 0
0.00716435 0.00882034 0
0.00986735 0.00836924 0
VERTICES 25 50
1 0
1 1
1 2
1 3
1 4
1 5
1 6
1 7
1 8
1 9
1 10
1 11
1 12
1 13
1 14
1 15
1 16
1 17
1 18
1 19
1 20
1 21
1 22
1 23
1 24
POINT_DATA 25
VECTORS velocity double
-6.08926e-31 -0.00970858 0
-4.03424e-31 -0.00970858 0
-3.33878e-31 -0.00970858 0
-1.95689e-31 -0.00970858 0
2.56177e-31 -0.00970858 0
-1.82116e-32 -0.00970858 0
-2.09751e-31 -0.00970858 0
-5.38542e-31 -0.00970858 0
-6.13868e-31 -0.00970858 0
-7.10676e-31 -0.00970858 0
7.26447e-31 -0.00970858 0
1.22232e-31 -0.00970858 0
-4.03004e-31 -0.00970858 0
-2.60125e-31 -0.00970858 0
-5.93548e-31 -0.00970858 0
3.47458e-31 -0.00970858 0
-4.6577e-31 -0.00970858 0
5.97607e-31 -0.00970858 0
4.13178e-32 -0.00970858 0
-6.19387e-31 -0.00970858 0
-7.21166e-31 -0.00970858 0
-1.12008e-31 -0.00970858 0
5.44542e-32 -0.00970858 0
1.26761e-31 -0.00970858 0
6.68961e-31 -0.00970858 0
SCALARS radius double 1
LOOKUP_TABLE default
0.0005192
0.000759374
0.000731582
0.000932767
0.000864852
0.00092132
0.000824734
0.000662097
0.000535446
0.00094621
0.000999249
0.000802661
0.000671708
0.000819153
0.000645007
0.000827505
0.000602392
0.000772815
0.000550095
0.000626194
0.000886859
0.000531918
0.000790192
0.000909137
0.00096445
SCALARS mass double 1
LOOKUP_TABLE default
0.00228657
0.0048913
0.00453983
0.00738005
0.00634449
0.00720004
0.00576955
0.0037184
0.0024319
0.00759432
0.00846957
0.00546484
0.00382714
0.00569173
0.00352892
0.00580838
0.00307803
0.005066
0.00256678
0.00332607
0.00667148
0.00239995
0.00529637
0.00701087
0.00788992
