# vtk DataFile Version 3.0
DEM2D particles
ASCII
DATASET POLYDATA
POINTS 25 double
0.000210492 -0.00044642 0
0.00247694 -0.000845709 0
0.00456711 -0.000198382 0
0.00674628 -0.000317096 0
0.00933215 0.00060003 0
0.000976388 0.00275421 0
0.00272805 0.00243865 0
0.00430175 0.00196984 0
0.00620408 0.00139253 0
0.00807857 0.00183849 0
0.00194188 0.00369117 0
0.00315848 0.00341024 0
0.00447748 0.00391444 0
0.00666273 0.004987 0
0.00823043 0.00443952 0
0.0014505 0.00560984 0
0.0023961 0.00672321 0
0.00577483 0.00574829 0
0.00705357 0.0063099 0
0.00819693 0.00601561 0
6.49651e-05 0.00765681 0
0.00285477 0.00901681 0
0.0050706 0.0079496 0
0.00716435 0.00854461 0
0.00986735 0.00809352 0
VERTICES 25 50
1 0
1 1
1 2
1 3
1 4
1 5
1 6
1 7
1 8
1 9
1 10
1 11
1 12
1 13
1 14
1 15
1 16
1 17
1 18
1 19
1 20
1 21
1 22
1 23
1 24
POINT_DATA 25
VECTORS velocity double
-2.44634e-43 -0.00970858 0
-1.62075e-43 -0.00970858 0
-1.34134e-43 -0.00970858 0
-7.86174e-44 -0.00970858 0
1.02918e-43 -0.00970858 0
-7.31644e-45 -0.00970858 0
-8.42669e-44 -0.00970858 0
-2.16358e-43 -0.00970858 0
-2.4662e-43 -0.00970858 0
-2.85512e-43 -0.00970858 0
2.91848e-43 -0.00970858 0
4.91063e-44 -0.00970858 0
-1.61906e-43 -0.00970858 0
-1.04504e-43 -0.00970858 0
-2.38456e-43 -0.00970858 0
1.3959e-43 -0.00970858 0
-1.87122e-43 -0.00970858 0
2.40087e-43 -0.00970858 0
1.65993e-44 -0.00970858 0
-2.48837e-43 -0.00970858 0
-2.89726e-43 -0.00970858 0
-4.4999e-44 -0.00970858 0
2.18768e-44 -0.00970858 0
5.09259e-44 -0.00970858 0
2.68753e-43 -0.00970858 0
SCALARS radius double 1
LOOKUP_TABLE default
0.0005192
0.000759374
0.000731582
0.000932767
0.000864852
0.00092132
0.000824734
0.000662097
0.000535446
0.00094621
0.000999249
0.000802661
0.000671708
0.000819153
0.000645007
0.000827505
0.000602392
0.000772815
0.000550095
0.000626194
0.000886859
0.000531918
0.000790192
0.000909137
0.00096445
SCALARS mass double 1
LOOKUP_TABLE default
0.00228657
0.0048913
0.00453983
0.00738005
0.00634449
0.00720004
0.00576955
0.0037184
0.0024319
0.00759432
0.00846957
0.00546484
0.00382714
0.00569173
0.00352892
0.00580838
0.00307803
0.005066
0.00256678
0.00332607
0.00667148
0.00239995
0.00529637
0.00701087
0.00788992
