# vtk DataFile Version 3.0
DEM2D particles
ASCII
DATASET POLYDATA
POINTS 25 double
0.000210492 -0.00104253 0
0.00247694 -0.00144182 0
0.00456711 -0.000794489 0
0.00674628 -0.000913203 0
0.00933215 3.92319e-06 0
0.000976388 0.0021581 0
0.00272805 0.00184255 0
0.00430175 0.00137373 0
0.00620408 0.000796419 0
0.00807857 0.00124238 0
0.00194188 0.00309506 0
0.00315848 0.00281413 0
0.00447748 0.00331834 0
0.00666273 0.00439089 0
0.00823043 0.00384341 0
0.0014505 0.00501373 0
0.0023961 0.0061271 0
0.00577483 0.00515218 0
0.00705357 0.00571379 0
0.00819693 0.00541951 0
6.49651e-05 0.0070607 0
0.00285477 0.0084207 0
0.0050706 0.00735349 0
0.00716435 0.0079485 0
0.00986735 0.00749741 0
VERTICES 25 50
1 0
1 1
1 2
1 3
1 4
1 5
1 6
1 7
1 8
1 9
1 10
1 11
1 12
1 13
1 14
1 15
1 16
1 17
1 18
1 19
1 20
1 21
1 22
1 23
1 24
POINT_DATA 25
VECTORS velocity double
-3.87804e-70 -0.00970858 0
-2.56927e-70 -0.00970858 0
-2.12635e-70 -0.00970858 0
-1.24627e-70 -0.00970858 0
1.6315e-70 -0.00970858 0
-1.15983e-71 -0.00970858 0
-1.33583e-70 -0.00970858 0
-3.42979e-70 -0.00970858 0
-3.90951e-70 -0.00970858 0
-4.52605e-70 -0.00970858 0
4.62649e-70 -0.00970858 0
7.78453e-71 -0.00970858 0
-2.56659e-70 -0.00970858 0
-1.65664e-70 -0.00970858 0
-3.7801e-70 -0.00970858 0
2.21284e-70 -0.00970858 0
-2.96633e-70 -0.00970858 0
3.80595e-70 -0.00970858 0
2.63139e-71 -0.00970858 0
-3.94466e-70 -0.00970858 0
-4.59286e-70 -0.00970858 0
-7.13342e-71 -0.00970858 0
3.468e-71 -0.00970858 0
8.07298e-71 -0.00970858 0
4.26038e-70 -0.00970858 0
SCALARS radius double 1
LOOKUP_TABLE default
0.0005192
0.000759374
0.000731582
0.000932767
0.000864852
0.00092132
0.000824734
0.000662097
0.000535446
0.00094621
0.000999249
0.000802661
0.000671708
0.000819153
0.000645007
0.000827505
0.000602392
0.000772815
0.000550095
0.000626194
0.000886859
0.000531918
0.000790192
0.000909137
0.00096445
SCALARS mass double 1
LOOKUP_TABLE default
0.00228657
0.0048913
0.00453983
0.00738005
0.00634449
0.00720004
0.00576955
0.0037184
0.0024319
0.00759432
0.00846957
0.00546484
0.00382714
0.00569173
0.00352892
0.00580838
0.00307803
0.005066
0.00256678
0.00332607
0.00667148
0.00239995
0.00529637
0.00701087
0.00788992
