# vtk DataFile Version 3.0
DEM2D particles
ASCII
DATASET POLYDATA
POINTS 25 double
0.000210492 -0.000324092 0
0.00247694 -0.000723381 0
0.00456711 -7.60539e-05 0
0.00674628 -0.000194768 0
0.00933215 0.000722358 0
0.000976388 0.00287653 0
0.00272805 0.00256098 0
0.00430175 0.00209217 0
0.00620408 0.00151485 0
0.00807857 0.00196082 0
0.00194188 0.00381349 0
0.00315848 0.00353257 0
0.00447748 0.00403677 0
0.00666273 0.00510932 0
0.00823043 0.00456184 0
0.0014505 0.00573217 0
0.0023961 0.00684554 0
0.00577483 0.00587062 0
0.00705357 0.00643223 0
0.00819693 0.00613794 0
6.49651e-05 0.00777913 0
0.00285477 0.00913914 0
0.0050706 0.00807193 0
0.00716435 0.00866694 0
0.00986735 0.00821585 0
VERTICES 25 50
1 0
1 1
1 2
1 3
1 4
1 5
1 6
1 7
1 8
1 9
1 10
1 11
1 12
1 13
1 14
1 15
1 16
1 17
1 18
1 19
1 20
1 21
1 22
1 23
1 24
POINT_DATA 25
VECTORS velocity double
-7.72986e-38 -0.00970858 0
-5.12117e-38 -0.00970858 0
-4.23833e-38 -0.00970858 0
-2.48413e-38 -0.00970858 0
3.25197e-38 -0.00970858 0
-2.31182e-39 -0.00970858 0
-2.66263e-38 -0.00970858 0
-6.83639e-38 -0.00970858 0
-7.7926e-38 -0.00970858 0
-9.0215e-38 -0.00970858 0
9.22171e-38 -0.00970858 0
1.55165e-38 -0.00970858 0
-5.11584e-38 -0.00970858 0
-3.30209e-38 -0.00970858 0
-7.53465e-38 -0.00970858 0
4.41073e-38 -0.00970858 0
-5.91261e-38 -0.00970858 0
7.58618e-38 -0.00970858 0
5.245e-39 -0.00970858 0
-7.86266e-38 -0.00970858 0
-9.15467e-38 -0.00970858 0
-1.42186e-38 -0.00970858 0
6.91256e-39 -0.00970858 0
1.60914e-38 -0.00970858 0
8.49197e-38 -0.00970858 0
SCALARS radius double 1
LOOKUP_TABLE default
0.0005192
0.000759374
0.000731582
0.000932767
0.000864852
0.00092132
0.000824734
0.000662097
0.000535446
0.00094621
0.000999249
0.000802661
0.000671708
0.000819153
0.000645007
0.000827505
0.000602392
0.000772815
0.000550095
0.000626194
0.000886859
0.000531918
0.000790192
0.000909137
0.00096445
SCALARS mass double 1
LOOKUP_TABLE default
0.00228657
0.0048913
0.00453983
0.00738005
0.00634449
0.00720004
0.00576955
0.0037184
0.0024319
0.00759432
0.00846957
0.00546484
0.00382714
0.00569173
0.00352892
0.00580838
0.00307803
0.005066
0.00256678
0.00332607
0.00667148
0.00239995
0.00529637
0.00701087
0.00788992
