# vtk DataFile Version 3.0
DEM2D particles
ASCII
DATASET POLYDATA
POINTS 25 double
0.000210492 -0.000815346 0
0.00247694 -0.00121464 0
0.00456711 -0.000567308 0
0.00674628 -0.000686022 0
0.00933215 0.000231104 0
0.000976388 0.00238528 0
0.00272805 0.00206973 0
0.00430175 0.00160091 0
0.00620408 0.0010236 0
0.00807857 0.00146956 0
0.00194188 0.00332224 0
0.00315848 0.00304132 0
0.00447748 0.00354552 0
0.00666273 0.00461807 0
0.00823043 0.00407059 0
0.0014505 0.00524091 0
0.0023961 0.00635428 0
0.00577483 0.00537936 0
0.00705357 0.00594097 0
0.00819693 0.00564669 0
6.49651e-05 0.00728788 0
0.00285477 0.00864788 0
0.0050706 0.00758067 0
0.00716435 0.00817569 0
0.00986735 0.00772459 0
VERTICES 25 50
1 0
1 1
1 2
1 3
1 4
1 5
1 6
1 7
1 8
1 9
1 10
1 11
1 12
1 13
1 14
1 15
1 16
1 17
1 18
1 19
1 20
1 21
1 22
1 23
1 24
POINT_DATA 25
VECTORS velocity double
-6.34244e-60 -0.00970858 0
-4.20198e-60 -0.00970858 0
-3.4776e-60 -0.00970858 0
-2.03825e-60 -0.00970858 0
2.66828e-60 -0.00970858 0
-1.89688e-61 -0.00970858 0
-2.18472e-60 -0.00970858 0
-5.60934e-60 -0.00970858 0
-6.39392e-60 -0.00970858 0
-7.40225e-60 -0.00970858 0
7.56652e-60 -0.00970858 0
1.27314e-60 -0.00970858 0
-4.19761e-60 -0.00970858 0
-2.7094e-60 -0.00970858 0
-6.18227e-60 -0.00970858 0
3.61905e-60 -0.00970858 0
-4.85137e-60 -0.00970858 0
6.22455e-60 -0.00970858 0
4.30358e-61 -0.00970858 0
-6.45141e-60 -0.00970858 0
-7.51151e-60 -0.00970858 0
-1.16665e-60 -0.00970858 0
5.67183e-61 -0.00970858 0
1.32032e-60 -0.00970858 0
6.96776e-60 -0.00970858 0
SCALARS radius double 1
LOOKUP_TABLE default
0.0005192
0.000759374
0.000731582
0.000932767
0.000864852
0.00092132
0.000824734
0.000662097
0.000535446
0.00094621
0.000999249
0.000802661
0.000671708
0.000819153
0.000645007
0.000827505
0.000602392
0.000772815
0.000550095
0.000626194
0.000886859
0.000531918
0.000790192
0.000909137
0.00096445
SCALARS mass double 1
LOOKUP_TABLE default
0.00228657
0.0048913
0.00453983
0.00738005
0.00634449
0.00720004
0.00576955
0.0037184
0.0024319
0.00759432
0.00846957
0.00546484
0.00382714
0.00569173
0.00352892
0.00580838
0.00307803
0.005066
0.00256678
0.00332607
0.00667148
0.00239995
0.00529637
0.00701087
0.00788992
