# vtk DataFile Version 3.0
DEM2D particles
ASCII
DATASET POLYDATA
POINTS 25 double
0.000210492 -0.000473604 0
0.00247694 -0.000872893 0
0.00456711 -0.000225566 0
0.00674628 -0.00034428 0
0.00933215 0.000572846 0
0.000976388 0.00272702 0
0.00272805 0.00241147 0
0.00430175 0.00194266 0
0.00620408 0.00136534 0
0.00807857 0.0018113 0
0.00194188 0.00366398 0
0.00315848 0.00338306 0
0.00447748 0.00388726 0
0.00666273 0.00495981 0
0.00823043 0.00441233 0
0.0014505 0.00558266 0
0.0023961 0.00669603 0
0.00577483 0.0057211 0
0.00705357 0.00628272 0
0.00819693 0.00598843 0
6.49651e-05 0.00762962 0
0.00285477 0.00898963 0
0.0050706 0.00792241 0
0.00716435 0.00851743 0
0.00986735 0.00806634 0
VERTICES 25 50
1 0
1 1
1 2
1 3
1 4
1 5
1 6
1 7
1 8
1 9
1 10
1 11
1 12
1 13
1 14
1 15
1 16
1 17
1 18
1 19
1 20
1 21
1 22
1 23
1 24
POINT_DATA 25
VECTORS velocity double
-1.4668e-44 -0.00970858 0
-9.71783e-45 -0.00970858 0
-8.04257e-45 -0.00970858 0
-4.71382e-45 -0.00970858 0
6.17087e-45 -0.00970858 0
-4.38686e-46 -0.00970858 0
-5.05256e-45 -0.00970858 0
-1.29726e-44 -0.00970858 0
-1.47871e-44 -0.00970858 0
-1.7119e-44 -0.00970858 0
1.74989e-44 -0.00970858 0
2.94437e-45 -0.00970858 0
-9.70771e-45 -0.00970858 0
-6.26597e-45 -0.00970858 0
-1.42976e-44 -0.00970858 0
8.3697e-45 -0.00970858 0
-1.12196e-44 -0.00970858 0
1.43954e-44 -0.00970858 0
9.95279e-46 -0.00970858 0
-1.492e-44 -0.00970858 0
-1.73717e-44 -0.00970858 0
-2.69809e-45 -0.00970858 0
1.31171e-45 -0.00970858 0
3.05347e-45 -0.00970858 0
1.61142e-44 -0.00970858 0
SCALARS radius double 1
LOOKUP_TABLE default
0.0005192
0.000759374
0.000731582
0.000932767
0.000864852
0.00092132
0.000824734
0.000662097
0.000535446
0.00094621
0.000999249
0.000802661
0.000671708
0.000819153
0.000645007
0.000827505
0.000602392
0.000772815
0.000550095
0.000626194
0.000886859
0.000531918
0.000790192
0.000909137
0.00096445
SCALARS mass double 1
LOOKUP_TABLE default
0.00228657
0.0048913
0.00453983
0.00738005
0.00634449
0.00720004
0.00576955
0.0037184
0.0024319
0.00759432
0.00846957
0.00546484
0.00382714
0.00569173
0.00352892
0.00580838
0.00307803
0.005066
0.00256678
0.00332607
0.00667148
0.00239995
0.00529637
0.00701087
0.00788992
