# vtk DataFile Version 3.0
DEM2D particles
ASCII
DATASET POLYDATA
POINTS 25 double
0.000212045 0.000439988 0
0.00247797 4.14842e-05 0
0.00456796 0.000687538 0
0.00674678 0.000569057 0
0.00933149 0.00148438 0
0.000976434 0.00363825 0
0.00272858 0.00332332 0
0.00430312 0.00285543 0
0.00620565 0.00227925 0
0.00808038 0.00272433 0
0.00194003 0.0045773 0
0.00315817 0.00429693 0
0.00447851 0.00480014 0
0.0066634 0.00587058 0
0.00823194 0.00532418 0
0.00144961 0.00649614 0
0.00239729 0.00760732 0
0.00577331 0.00663431 0
0.00705347 0.00719482 0
0.00819851 0.00690111 0
6.68044e-05 0.00854301 0
0.00285506 0.00990034 0
0.00507046 0.00883523 0
0.00716403 0.00942907 0
0.00986564 0.00897887 0
VERTICES 25 50
1 0
1 1
1 2
1 3
1 4
1 5
1 6
1 7
1 8
1 9
1 10
1 11
1 12
1 13
1 14
1 15
1 16
1 17
1 18
1 19
1 20
1 21
1 22
1 23
1 24
POINT_DATA 25
VECTORS velocity double
-0.00156871 -0.0107037 0
-0.0010393 -0.011497 0
-0.000860133 -0.0102108 0
-0.000504132 -0.0104467 0
0.00065996 -0.00862442 0
-4.69164e-05 -0.00831808 0
-0.000540359 -0.00894506 0
-0.00138739 -0.00987657 0
-0.00158144 -0.0110237 0
-0.00183084 -0.0101376 0
0.00187147 -0.0104303 0
0.000314893 -0.0109885 0
-0.00103822 -0.00998664 0
-0.00067013 -0.00785554 0
-0.00152909 -0.00894335 0
0.000895119 -0.0105919 0
-0.00119991 -0.00837967 0
0.00153955 -0.0103168 0
0.000106443 -0.00920089 0
-0.00159566 -0.00978562 0
-0.00185786 -0.0104986 0
-0.000288555 -0.0077963 0
0.000140284 -0.00991679 0
0.000326561 -0.00873453 0
0.00172337 -0.00963082 0
SCALARS radius double 1
LOOKUP_TABLE default
0.0005192
0.000759374
0.000731582
0.000932767
0.000864852
0.00092132
0.000824734
0.000662097
0.000535446
0.00094621
0.000999249
0.000802661
0.000671708
0.000819153
0.000645007
0.000827505
0.000602392
0.000772815
0.000550095
0.000626194
0.000886859
0.000531918
0.000790192
0.000909137
0.00096445
SCALARS mass double 1
LOOKUP_TABLE default
0.00228657
0.0048913
0.00453983
0.00738005
0.00634449
0.00720004
0.00576955
0.0037184
0.0024319
0.00759432
0.00846957
0.00546484
0.00382714
0.00569173
0.00352892
0.00580838
0.00307803
0.005066
0.00256678
0.00332607
0.00667148
0.00239995
0.00529637
0.00701087
0.00788992
