# vtk DataFile Version 3.0
DEM2D particles
ASCII
DATASET POLYDATA
POINTS 25 double
0.000210492 -0.0011202 0
0.00247694 -0.00151948 0
0.00456711 -0.000872158 0
0.00674628 -0.000990872 0
0.00933215 -7.37455e-05 0
0.000976388 0.00208043 0
0.00272805 0.00176488 0
0.00430175 0.00129607 0
0.00620408 0.00071875 0
0.00807857 0.00116471 0
0.00194188 0.00301739 0
0.00315848 0.00273647 0
0.00447748 0.00324067 0
0.00666273 0.00431322 0
0.00823043 0.00376574 0
0.0014505 0.00493606 0
0.0023961 0.00604943 0
0.00577483 0.00507451 0
0.00705357 0.00563613 0
0.00819693 0.00534184 0
6.49651e-05 0.00698303 0
0.00285477 0.00834303 0
0.0050706 0.00727582 0
0.00716435 0.00787084 0
0.00986735 0.00741975 0
VERTICES 25 50
1 0
1 1
1 2
1 3
1 4
1 5
1 6
1 7
1 8
1 9
1 10
1 11
1 12
1 13
1 14
1 15
1 16
1 17
1 18
1 19
1 20
1 21
1 22
1 23
1 24
POINT_DATA 25
VECTORS velocity double
-1.24959e-73 -0.00970858 0
-8.27876e-74 -0.00970858 0
-6.85158e-74 -0.00970858 0
-4.01577e-74 -0.00970858 0
5.25706e-74 -0.00970858 0
-3.73723e-75 -0.00970858 0
-4.30435e-74 -0.00970858 0
-1.10515e-73 -0.00970858 0
-1.25973e-73 -0.00970858 0
-1.45839e-73 -0.00970858 0
1.49076e-73 -0.00970858 0
2.50835e-74 -0.00970858 0
-8.27014e-74 -0.00970858 0
-5.33807e-74 -0.00970858 0
-1.21803e-73 -0.00970858 0
7.13027e-74 -0.00970858 0
-9.55818e-74 -0.00970858 0
1.22636e-73 -0.00970858 0
8.47893e-75 -0.00970858 0
-1.27106e-73 -0.00970858 0
-1.47992e-73 -0.00970858 0
-2.29855e-74 -0.00970858 0
1.11747e-74 -0.00970858 0
2.60129e-74 -0.00970858 0
1.37279e-73 -0.00970858 0
SCALARS radius double 1
LOOKUP_TABLE default
0.0005192
0.000759374
0.000731582
0.000932767
0.000864852
0.00092132
0.000824734
0.000662097
0.000535446
0.00094621
0.000999249
0.000802661
0.000671708
0.000819153
0.000645007
0.000827505
0.000602392
0.000772815
0.000550095
0.000626194
0.000886859
0.000531918
0.000790192
0.000909137
0.00096445
SCALARS mass double 1
LOOKUP_TABLE default
0.00228657
0.0048913
0.00453983
0.00738005
0.00634449
0.00720004
0.00576955
0.0037184
0.0024319
0.00759432
0.00846957
0.00546484
0.00382714
0.00569173
0.00352892
0.00580838
0.00307803
0.005066
0.00256678
0.00332607
0.00667148
0.00239995
0.00529637
0.00701087
0.00788992
