# vtk DataFile Version 3.0
DEM2D particles
ASCII
DATASET POLYDATA
POINTS 25 double
0.000210492 -0.000160988 0
0.00247694 -0.000560277 0
0.00456711 8.70503e-05 0
0.00674628 -3.16639e-05 0
0.00933215 0.000885463 0
0.000976388 0.00303964 0
0.00272805 0.00272408 0
0.00430175 0.00225527 0
0.00620408 0.00167796 0
0.00807857 0.00212392 0
0.00194188 0.0039766 0
0.00315848 0.00369567 0
0.00447748 0.00419988 0
0.00666273 0.00527243 0
0.00823043 0.00472495 0
0.0014505 0.00589527 0
0.0023961 0.00700864 0
0.00577483 0.00603372 0
0.00705357 0.00659533 0
0.00819693 0.00630105 0
6.49651e-05 0.00794224 0
0.00285477 0.00930224 0
0.0050706 0.00823503 0
0.00716435 0.00883004 0
0.00986735 0.00837895 0
VERTICES 25 50
1 0
1 1
1 2
1 3
1 4
1 5
1 6
1 7
1 8
1 9
1 10
1 11
1 12
1 13
1 14
1 15
1 16
1 17
1 18
1 19
1 20
1 21
1 22
1 23
1 24
POINT_DATA 25
VECTORS velocity double
-1.66358e-30 -0.00970858 0
-1.10215e-30 -0.00970858 0
-9.12154e-31 -0.00970858 0
-5.34622e-31 -0.00970858 0
6.99874e-31 -0.00970858 0
-4.97539e-32 -0.00970858 0
-5.7304e-31 -0.00970858 0
-1.4713e-30 -0.00970858 0
-1.67709e-30 -0.00970858 0
-1.94157e-30 -0.00970858 0
1.98465e-30 -0.00970858 0
3.33938e-31 -0.00970858 0
-1.10101e-30 -0.00970858 0
-7.1066e-31 -0.00970858 0
-1.62157e-30 -0.00970858 0
9.49256e-31 -0.00970858 0
-1.27248e-30 -0.00970858 0
1.63266e-30 -0.00970858 0
1.1288e-31 -0.00970858 0
-1.69217e-30 -0.00970858 0
-1.97023e-30 -0.00970858 0
-3.06006e-31 -0.00970858 0
1.48769e-31 -0.00970858 0
3.46311e-31 -0.00970858 0
1.8276e-30 -0.00970858 0
SCALARS radius double 1
LOOKUP_TABLE default
0.0005192
0.000759374
0.000731582
0.000932767
0.000864852
0.00092132
0.000824734
0.000662097
0.000535446
0.00094621
0.000999249
0.000802661
0.000671708
0.000819153
0.000645007
0.000827505
0.000602392
0.000772815
0.000550095
0.000626194
0.000886859
0.000531918
0.000790192
0.000909137
0.00096445
SCALARS mass double 1
LOOKUP_TABLE default
0.00228657
0.0048913
0.00453983
0.00738005
0.00634449
0.00720004
0.00576955
0.0037184
0.0024319
0.00759432
0.00846957
0.00546484
0.00382714
0.00569173
0.00352892
0.00580838
0.00307803
0.005066
0.00256678
0.00332607
0.00667148
0.00239995
0.00529637
0.00701087
0.00788992
