# vtk DataFile Version 3.0
DEM2D particles
ASCII
DATASET POLYDATA
POINTS 25 double
0.000210492 -0.00081923 0
0.00247694 -0.00121852 0
0.00456711 -0.000571192 0
0.00674628 -0.000689906 0
0.00933215 0.000227221 0
0.000976388 0.0023814 0
0.00272805 0.00206584 0
0.00430175 0.00159703 0
0.00620408 0.00101972 0
0.00807857 0.00146568 0
0.00194188 0.00331836 0
0.00315848 0.00303743 0
0.00447748 0.00354163 0
0.00666273 0.00461419 0
0.00823043 0.00406671 0
0.0014505 0.00523703 0
0.0023961 0.0063504 0
0.00577483 0.00537548 0
0.00705357 0.00593709 0
0.00819693 0.0056428 0
6.49651e-05 0.007284 0
0.00285477 0.008644 0
0.0050706 0.00757679 0
0.00716435 0.0081718 0
0.00986735 0.00772071 0
VERTICES 25 50
1 0
1 1
1 2
1 3
1 4
1 5
1 6
1 7
1 8
1 9
1 10
1 11
1 12
1 13
1 14
1 15
1 16
1 17
1 18
1 19
1 20
1 21
1 22
1 23
1 24
POINT_DATA 25
VECTORS velocity double
-4.24291e-60 -0.00970858 0
-2.81101e-60 -0.00970858 0
-2.32642e-60 -0.00970858 0
-1.36353e-60 -0.00970858 0
1.78501e-60 -0.00970858 0
-1.26896e-61 -0.00970858 0
-1.46152e-60 -0.00970858 0
-3.75249e-60 -0.00970858 0
-4.27735e-60 -0.00970858 0
-4.95189e-60 -0.00970858 0
5.06179e-60 -0.00970858 0
8.51696e-61 -0.00970858 0
-2.80808e-60 -0.00970858 0
-1.81251e-60 -0.00970858 0
-4.13576e-60 -0.00970858 0
2.42104e-60 -0.00970858 0
-3.24543e-60 -0.00970858 0
4.16405e-60 -0.00970858 0
2.87897e-61 -0.00970858 0
-4.31581e-60 -0.00970858 0
-5.02499e-60 -0.00970858 0
-7.80459e-61 -0.00970858 0
3.7943e-61 -0.00970858 0
8.83255e-61 -0.00970858 0
4.66123e-60 -0.00970858 0
SCALARS radius double 1
LOOKUP_TABLE default
0.0005192
0.000759374
0.000731582
0.000932767
0.000864852
0.00092132
0.000824734
0.000662097
0.000535446
0.00094621
0.000999249
0.000802661
0.000671708
0.000819153
0.000645007
0.000827505
0.000602392
0.000772815
0.000550095
0.000626194
0.000886859
0.000531918
0.000790192
0.000909137
0.00096445
SCALARS mass double 1
LOOKUP_TABLE default
0.00228657
0.0048913
0.00453983
0.00738005
0.00634449
0.00720004
0.00576955
0.0037184
0.0024319
0.00759432
0.00846957
0.00546484
0.00382714
0.00569173
0.00352892
0.00580838
0.00307803
0.005066
0.00256678
0.00332607
0.00667148
0.00239995
0.00529637
0.00701087
0.00788992
