# vtk DataFile Version 3.0
DEM2D particles
ASCII
DATASET POLYDATA
POINTS 25 double
0.000210492 -0.000139629 0
0.00247694 -0.000538918 0
0.00456711 0.000108409 0
0.00674628 -1.0305e-05 0
0.00933215 0.000906821 0
0.000976388 0.003061 0
0.00272805 0.00274544 0
0.00430175 0.00227663 0
0.00620408 0.00169932 0
0.00807857 0.00214528 0
0.00194188 0.00399796 0
0.00315848 0.00371703 0
0.00447748 0.00422124 0
0.00666273 0.00529379 0
0.00823043 0.00474631 0
0.0014505 0.00591663 0
0.0023961 0.00703 0
0.00577483 0.00605508 0
0.00705357 0.00661669 0
0.00819693 0.00632241 0
6.49651e-05 0.0079636 0
0.00285477 0.0093236 0
0.0050706 0.00825639 0
0.00716435 0.0088514 0
0.00986735 0.00840031 0
VERTICES 25 50
1 0
1 1
1 2
1 3
1 4
1 5
1 6
1 7
1 8
1 9
1 10
1 11
1 12
1 13
1 14
1 15
1 16
1 17
1 18
1 19
1 20
1 21
1 22
1 23
1 24
POINT_DATA 25
VECTORS velocity double
-1.51811e-29 -0.00970858 0
-1.00577e-29 -0.00970858 0
-8.32387e-30 -0.00970858 0
-4.8787e-30 -0.00970858 0
6.38671e-30 -0.00970858 0
-4.5403e-31 -0.00970858 0
-5.22928e-30 -0.00970858 0
-1.34263e-29 -0.00970858 0
-1.53043e-29 -0.00970858 0
-1.77178e-29 -0.00970858 0
1.8111e-29 -0.00970858 0
3.04735e-30 -0.00970858 0
-1.00473e-29 -0.00970858 0
-6.48514e-30 -0.00970858 0
-1.47977e-29 -0.00970858 0
8.66245e-30 -0.00970858 0
-1.16121e-29 -0.00970858 0
1.48989e-29 -0.00970858 0
1.03009e-30 -0.00970858 0
-1.54419e-29 -0.00970858 0
-1.79793e-29 -0.00970858 0
-2.79247e-30 -0.00970858 0
1.35759e-30 -0.00970858 0
3.16027e-30 -0.00970858 0
1.66778e-29 -0.00970858 0
SCALARS radius double 1
LOOKUP_TABLE default
0.0005192
0.000759374
0.000731582
0.000932767
0.000864852
0.00092132
0.000824734
0.000662097
0.000535446
0.00094621
0.000999249
0.000802661
0.000671708
0.000819153
0.000645007
0.000827505
0.000602392
0.000772815
0.000550095
0.000626194
0.000886859
0.000531918
0.000790192
0.000909137
0.00096445
SCALARS mass double 1
LOOKUP_TABLE default
0.00228657
0.0048913
0.00453983
0.00738005
0.00634449
0.00720004
0.00576955
0.0037184
0.0024319
0.00759432
0.00846957
0.00546484
0.00382714
0.00569173
0.00352892
0.00580838
0.00307803
0.005066
0.00256678
0.00332607
0.00667148
0.00239995
0.00529637
0.00701087
0.00788992
