# vtk DataFile Version 3.0
DEM2D particles
ASCII
DATASET POLYDATA
POINTS 25 double
0.000210492 -0.00122505 0
0.00247694 -0.00162434 0
0.00456711 -0.00097701 0
0.00674628 -0.00109572 0
0.00933215 -0.000178598 0
0.000976388 0.00197558 0
0.00272805 0.00166002 0
0.00430175 0.00119121 0
0.00620408 0.000613897 0
0.00807857 0.00105986 0
0.00194188 0.00291254 0
0.00315848 0.00263161 0
0.00447748 0.00313582 0
0.00666273 0.00420837 0
0.00823043 0.00366089 0
0.0014505 0.00483121 0
0.0023961 0.00594458 0
0.00577483 0.00496966 0
0.00705357 0.00553127 0
0.00819693 0.00523699 0
6.49651e-05 0.00687818 0
0.00285477 0.00823818 0
0.0050706 0.00717097 0
0.00716435 0.00776598 0
0.00986735 0.00731489 0
VERTICES 25 50
1 0
1 1
1 2
1 3
1 4
1 5
1 6
1 7
1 8
1 9
1 10
1 11
1 12
1 13
1 14
1 15
1 16
1 17
1 18
1 19
1 20
1 21
1 22
1 23
1 24
POINT_DATA 25
VECTORS velocity double
-2.41422e-78 -0.00970858 0
-1.59947e-78 -0.00970858 0
-1.32374e-78 -0.00970858 0
-7.75853e-79 -0.00970858 0
1.01567e-78 -0.00970858 0
-7.22038e-80 -0.00970858 0
-8.31606e-79 -0.00970858 0
-2.13517e-78 -0.00970858 0
-2.43382e-78 -0.00970858 0
-2.81764e-78 -0.00970858 0
2.88017e-78 -0.00970858 0
4.84617e-79 -0.00970858 0
-1.5978e-78 -0.00970858 0
-1.03132e-78 -0.00970858 0
-2.35326e-78 -0.00970858 0
1.37758e-78 -0.00970858 0
-1.84665e-78 -0.00970858 0
2.36935e-78 -0.00970858 0
1.63814e-79 -0.00970858 0
-2.4557e-78 -0.00970858 0
-2.85923e-78 -0.00970858 0
-4.44082e-79 -0.00970858 0
2.15896e-79 -0.00970858 0
5.02573e-79 -0.00970858 0
2.65225e-78 -0.00970858 0
SCALARS radius double 1
LOOKUP_TABLE default
0.0005192
0.000759374
0.000731582
0.000932767
0.000864852
0.00092132
0.000824734
0.000662097
0.000535446
0.00094621
0.000999249
0.000802661
0.000671708
0.000819153
0.000645007
0.000827505
0.000602392
0.000772815
0.000550095
0.000626194
0.000886859
0.000531918
0.000790192
0.000909137
0.00096445
SCALARS mass double 1
LOOKUP_TABLE default
0.00228657
0.0048913
0.00453983
0.00738005
0.00634449
0.00720004
0.00576955
0.0037184
0.0024319
0.00759432
0.00846957
0.00546484
0.00382714
0.00569173
0.00352892
0.00580838
0.00307803
0.005066
0.00256678
0.00332607
0.00667148
0.00239995
0.00529637
0.00701087
0.00788992
