# vtk DataFile Version 3.0
DEM2D particles
ASCII
DATASET POLYDATA
POINTS 25 double
0.000210492 0.000231239 0
0.00247694 -0.00016805 0
0.00456711 0.000479277 0
0.00674628 0.000360563 0
0.00933215 0.00127769 0
0.000976388 0.00343186 0
0.00272805 0.00311631 0
0.00430175 0.0026475 0
0.00620408 0.00207018 0
0.00807857 0.00251615 0
0.00194188 0.00436883 0
0.00315848 0.0040879 0
0.00447748 0.0045921 0
0.00666273 0.00566466 0
0.00823043 0.00511718 0
0.0014505 0.0062875 0
0.0023961 0.00740087 0
0.00577483 0.00642595 0
0.00705357 0.00698756 0
0.00819693 0.00669327 0
6.49651e-05 0.00833446 0
0.00285477 0.00969447 0
0.0050706 0.00862726 0
0.00716435 0.00922227 0
0.00986735 0.00877118 0
VERTICES 25 50
1 0
1 1
1 2
1 3
1 4
1 5
1 6
1 7
1 8
1 9
1 10
1 11
1 12
1 13
1 14
1 15
1 16
1 17
1 18
1 19
1 20
1 21
1 22
1 23
1 24
POINT_DATA 25
VECTORS velocity double
-7.1591e-13 -0.00970858 0
-4.74304e-13 -0.00970858 0
-3.92538e-13 -0.00970858 0
-2.3007e-13 -0.00970858 0
3.01185e-13 -0.00970858 0
-2.14112e-14 -0.00970858 0
-2.46603e-13 -0.00970858 0
-6.33161e-13 -0.00970858 0
-7.21721e-13 -0.00970858 0
-8.35537e-13 -0.00970858 0
8.5408e-13 -0.00970858 0
1.43707e-13 -0.00970858 0
-4.7381e-13 -0.00970858 0
-3.05827e-13 -0.00970858 0
-6.97831e-13 -0.00970858 0
4.08505e-13 -0.00970858 0
-5.47604e-13 -0.00970858 0
7.02603e-13 -0.00970858 0
4.85772e-14 -0.00970858 0
-7.2821e-13 -0.00970858 0
-8.47871e-13 -0.00970858 0
-1.31687e-13 -0.00970858 0
6.40215e-14 -0.00970858 0
1.49032e-13 -0.00970858 0
7.86494e-13 -0.00970858 0
SCALARS radius double 1
LOOKUP_TABLE default
0.0005192
0.000759374
0.000731582
0.000932767
0.000864852
0.00092132
0.000824734
0.000662097
0.000535446
0.00094621
0.000999249
0.000802661
0.000671708
0.000819153
0.000645007
0.000827505
0.000602392
0.000772815
0.000550095
0.000626194
0.000886859
0.000531918
0.000790192
0.000909137
0.00096445
SCALARS mass double 1
LOOKUP_TABLE default
0.00228657
0.0048913
0.00453983
0.00738005
0.00634449
0.00720004
0.00576955
0.0037184
0.0024319
0.00759432
0.00846957
0.00546484
0.00382714
0.00569173
0.00352892
0.00580838
0.00307803
0.005066
0.00256678
0.00332607
0.00667148
0.00239995
0.00529637
0.00701087
0.00788992
