# vtk DataFile Version 3.0
DEM2D particles
ASCII
DATASET POLYDATA
POINTS 25 double
0.000210492 -5.6135e-05 0
0.00247694 -0.000455424 0
0.00456711 0.000191903 0
0.00674628 7.31889e-05 0
0.00933215 0.000990315 0
0.000976388 0.00314449 0
0.00272805 0.00282894 0
0.00430175 0.00236013 0
0.00620408 0.00178281 0
0.00807857 0.00222877 0
0.00194188 0.00408145 0
0.00315848 0.00380053 0
0.00447748 0.00430473 0
0.00666273 0.00537728 0
0.00823043 0.0048298 0
0.0014505 0.00600013 0
0.0023961 0.00711349 0
0.00577483 0.00613857 0
0.00705357 0.00670019 0
0.00819693 0.0064059 0
6.49651e-05 0.00804709 0
0.00285477 0.0094071 0
0.0050706 0.00833988 0
0.00716435 0.0089349 0
0.00986735 0.00848381 0
VERTICES 25 50
1 0
1 1
1 2
1 3
1 4
1 5
1 6
1 7
1 8
1 9
1 10
1 11
1 12
1 13
1 14
1 15
1 16
1 17
1 18
1 19
1 20
1 21
1 22
1 23
1 24
POINT_DATA 25
VECTORS velocity double
-8.61062e-26 -0.00970858 0
-5.70469e-26 -0.00970858 0
-4.72126e-26 -0.00970858 0
-2.76717e-26 -0.00970858 0
3.62251e-26 -0.00970858 0
-2.57524e-27 -0.00970858 0
-2.96602e-26 -0.00970858 0
-7.61535e-26 -0.00970858 0
-8.68051e-26 -0.00970858 0
-1.00494e-25 -0.00970858 0
1.02725e-25 -0.00970858 0
1.72844e-26 -0.00970858 0
-5.69875e-26 -0.00970858 0
-3.67834e-26 -0.00970858 0
-8.39317e-26 -0.00970858 0
4.9133e-26 -0.00970858 0
-6.58631e-26 -0.00970858 0
8.45057e-26 -0.00970858 0
5.84263e-27 -0.00970858 0
-8.75856e-26 -0.00970858 0
-1.01978e-25 -0.00970858 0
-1.58387e-26 -0.00970858 0
7.7002e-27 -0.00970858 0
1.79249e-26 -0.00970858 0
9.45957e-26 -0.00970858 0
SCALARS radius double 1
LOOKUP_TABLE default
0.0005192
0.000759374
0.000731582
0.000932767
0.000864852
0.00092132
0.000824734
0.000662097
0.000535446
0.00094621
0.000999249
0.000802661
0.000671708
0.000819153
0.000645007
0.000827505
0.000602392
0.000772815
0.000550095
0.000626194
0.000886859
0.000531918
0.000790192
0.000909137
0.00096445
SCALARS mass double 1
LOOKUP_TABLE default
0.00228657
0.0048913
0.00453983
0.00738005
0.00634449
0.00720004
0.00576955
0.0037184
0.0024319
0.00759432
0.00846957
0.00546484
0.00382714
0.00569173
0.00352892
0.00580838
0.00307803
0.005066
0.00256678
0.00332607
0.00667148
0.00239995
0.00529637
0.00701087
0.00788992
