# vtk DataFile Version 3.0
DEM2D particles
ASCII
DATASET POLYDATA
POINTS 25 double
0.000210492 -0.000759036 0
0.00247694 -0.00115833 0
0.00456711 -0.000510998 0
0.00674628 -0.000629713 0
0.00933215 0.000287414 0
0.000976388 0.00244159 0
0.00272805 0.00212604 0
0.00430175 0.00165722 0
0.00620408 0.00107991 0
0.00807857 0.00152587 0
0.00194188 0.00337855 0
0.00315848 0.00309763 0
0.00447748 0.00360183 0
0.00666273 0.00467438 0
0.00823043 0.0041269 0
0.0014505 0.00529722 0
0.0023961 0.00641059 0
0.00577483 0.00543567 0
0.00705357 0.00599728 0
0.00819693 0.005703 0
6.49651e-05 0.00734419 0
0.00285477 0.00870419 0
0.0050706 0.00763698 0
0.00716435 0.008232 0
0.00986735 0.0077809 0
VERTICES 25 50
1 0
1 1
1 2
1 3
1 4
1 5
1 6
1 7
1 8
1 9
1 10
1 11
1 12
1 13
1 14
1 15
1 16
1 17
1 18
1 19
1 20
1 21
1 22
1 23
1 24
POINT_DATA 25
VECTORS velocity double
-2.15697e-57 -0.00970858 0
-1.42903e-57 -0.00970858 0
-1.18268e-57 -0.00970858 0
-6.93179e-58 -0.00970858 0
9.07442e-58 -0.00970858 0
-6.45099e-59 -0.00970858 0
-7.42991e-58 -0.00970858 0
-1.90765e-57 -0.00970858 0
-2.17447e-57 -0.00970858 0
-2.51739e-57 -0.00970858 0
2.57326e-57 -0.00970858 0
4.32976e-58 -0.00970858 0
-1.42754e-57 -0.00970858 0
-9.21426e-58 -0.00970858 0
-2.1025e-57 -0.00970858 0
1.23078e-57 -0.00970858 0
-1.64988e-57 -0.00970858 0
2.11687e-57 -0.00970858 0
1.46358e-58 -0.00970858 0
-2.19402e-57 -0.00970858 0
-2.55455e-57 -0.00970858 0
-3.96761e-58 -0.00970858 0
1.9289e-58 -0.00970858 0
4.4902e-58 -0.00970858 0
2.36963e-57 -0.00970858 0
SCALARS radius double 1
LOOKUP_TABLE default
0.0005192
0.000759374
0.000731582
0.000932767
0.000864852
0.00092132
0.000824734
0.000662097
0.000535446
0.00094621
0.000999249
0.000802661
0.000671708
0.000819153
0.000645007
0.000827505
0.000602392
0.000772815
0.000550095
0.000626194
0.000886859
0.000531918
0.000790192
0.000909137
0.00096445
SCALARS mass double 1
LOOKUP_TABLE default
0.00228657
0.0048913
0.00453983
0.00738005
0.00634449
0.00720004
0.00576955
0.0037184
0.0024319
0.00759432
0.00846957
0.00546484
0.00382714
0.00569173
0.00352892
0.00580838
0.00307803
0.005066
0.00256678
0.00332607
0.00667148
0.00239995
0.00529637
0.00701087
0.00788992
