# vtk DataFile Version 3.0
DEM2D particles
ASCII
DATASET POLYDATA
POINTS 25 double
0.00031627 0.000546876 0
0.00254702 0.000201084 0
0.00462511 0.000761682 0
0.00678027 0.000658873 0
0.00928765 0.00145312 0
0.000979551 0.00358664 0
0.00276448 0.00331337 0
0.0043953 0.00290737 0
0.00631072 0.0024074 0
0.00820202 0.00279361 0
0.00181569 0.00466603 0
0.00313725 0.00442274 0
0.00454749 0.00485939 0
0.00670792 0.00578824 0
0.00833354 0.00531412 0
0.00139014 0.0065956 0
0.00247701 0.0075598 0
0.00567102 0.0067155 0
0.00704639 0.00720187 0
0.00830452 0.00694701 0
0.000190241 0.00863627 0
0.00287423 0.00981406 0
0.00506114 0.00888984 0
0.00714233 0.00940513 0
0.00975114 0.00901448 0
VERTICES 25 50
1 0
1 1
1 2
1 3
1 4
1 5
1 6
1 7
1 8
1 9
1 10
1 11
1 12
1 13
1 14
1 15
1 16
1 17
1 18
1 19
1 20
1 21
1 22
1 23
1 24
POINT_DATA 25
VECTORS velocity double
-0.106847 -0.0774839 0
-0.0707878 -0.131521 0
-0.0585847 -0.0439162 0
-0.034337 -0.0599821 0
0.0449506 0.0641354 0
-0.00319553 0.0850003 0
-0.0368044 0.0422956 0
-0.0944965 -0.02115 0
-0.107714 -0.0992799 0
-0.1247 -0.0389266 0
0.127468 -0.0588639 0
0.0214477 -0.0968823 0
-0.0707141 -0.028647 0
-0.0456434 0.116505 0
-0.104148 0.0424125 0
0.0609676 -0.06987 0
-0.0817275 0.0808055 0
0.104861 -0.0511334 0
0.00724993 0.0248713 0
-0.108682 -0.0149554 0
-0.126541 -0.0635141 0
-0.0196538 0.120539 0
0.00955493 -0.0238896 0
0.0222424 0.0566354 0
0.117381 -0.00441207 0
SCALARS radius double 1
LOOKUP_TABLE default
0.0005192
0.000759374
0.000731582
0.000932767
0.000864852
0.00092132
0.000824734
0.000662097
0.000535446
0.00094621
0.000999249
0.000802661
0.000671708
0.000819153
0.000645007
0.000827505
0.000602392
0.000772815
0.000550095
0.000626194
0.000886859
0.000531918
0.000790192
0.000909137
0.00096445
SCALARS mass double 1
LOOKUP_TABLE default
0.00228657
0.0048913
0.00453983
0.00738005
0.00634449
0.00720004
0.00576955
0.0037184
0.0024319
0.00759432
0.00846957
0.00546484
0.00382714
0.00569173
0.00352892
0.00580838
0.00307803
0.005066
0.00256678
0.00332607
0.00667148
0.00239995
0.00529637
0.00701087
0.00788992
