# vtk DataFile Version 3.0
DEM2D particles
ASCII
DATASET POLYDATA
POINTS 25 double
0.000210492 0.000283665 0
0.00247694 -0.000115624 0
0.00456711 0.000531703 0
0.00674628 0.000412989 0
0.00933215 0.00133012 0
0.000976388 0.00348429 0
0.00272805 0.00316874 0
0.00430175 0.00269993 0
0.00620408 0.00212261 0
0.00807857 0.00256857 0
0.00194188 0.00442125 0
0.00315848 0.00414033 0
0.00447748 0.00464453 0
0.00666273 0.00571708 0
0.00823043 0.0051696 0
0.0014505 0.00633993 0
0.0023961 0.00745329 0
0.00577483 0.00647837 0
0.00705357 0.00703999 0
0.00819693 0.0067457 0
6.49651e-05 0.00838689 0
0.00285477 0.0097469 0
0.0050706 0.00867968 0
0.00716435 0.0092747 0
0.00986735 0.00882361 0
VERTICES 25 50
1 0
1 1
1 2
1 3
1 4
1 5
1 6
1 7
1 8
1 9
1 10
1 11
1 12
1 13
1 14
1 15
1 16
1 17
1 18
1 19
1 20
1 21
1 22
1 23
1 24
POINT_DATA 25
VECTORS velocity double
-1.62875e-10 -0.00970858 0
-1.07907e-10 -0.00970858 0
-8.93053e-11 -0.00970858 0
-5.23426e-11 -0.00970858 0
6.85218e-11 -0.00970858 0
-4.8712e-12 -0.00970858 0
-5.61039e-11 -0.00970858 0
-1.44048e-10 -0.00970858 0
-1.64197e-10 -0.00970858 0
-1.90091e-10 -0.00970858 0
1.94309e-10 -0.00970858 0
3.26945e-11 -0.00970858 0
-1.07795e-10 -0.00970858 0
-6.95778e-11 -0.00970858 0
-1.58761e-10 -0.00970858 0
9.29377e-11 -0.00970858 0
-1.24584e-10 -0.00970858 0
1.59847e-10 -0.00970858 0
1.10516e-11 -0.00970858 0
-1.65673e-10 -0.00970858 0
-1.92897e-10 -0.00970858 0
-2.99598e-11 -0.00970858 0
1.45653e-11 -0.00970858 0
3.39059e-11 -0.00970858 0
1.78933e-10 -0.00970858 0
SCALARS radius double 1
LOOKUP_TABLE default
0.0005192
0.000759374
0.000731582
0.000932767
0.000864852
0.00092132
0.000824734
0.000662097
0.000535446
0.00094621
0.000999249
0.000802661
0.000671708
0.000819153
0.000645007
0.000827505
0.000602392
0.000772815
0.000550095
0.000626194
0.000886859
0.000531918
0.000790192
0.000909137
0.00096445
SCALARS mass double 1
LOOKUP_TABLE default
0.00228657
0.0048913
0.00453983
0.00738005
0.00634449
0.00720004
0.00576955
0.0037184
0.0024319
0.00759432
0.00846957
0.00546484
0.00382714
0.00569173
0.00352892
0.00580838
0.00307803
0.005066
0.00256678
0.00332607
0.00667148
0.00239995
0.00529637
0.00701087
0.00788992
