# vtk DataFile Version 3.0
DEM2D particles
ASCII
DATASET POLYDATA
POINTS 25 double
0.000210492 -0.00100369 0
0.00247694 -0.00140298 0
0.00456711 -0.000755655 0
0.00674628 -0.000874369 0
0.00933215 4.27575e-05 0
0.000976388 0.00219693 0
0.00272805 0.00188138 0
0.00430175 0.00141257 0
0.00620408 0.000835253 0
0.00807857 0.00128121 0
0.00194188 0.00313389 0
0.00315848 0.00285297 0
0.00447748 0.00335717 0
0.00666273 0.00442972 0
0.00823043 0.00388224 0
0.0014505 0.00505257 0
0.0023961 0.00616594 0
0.00577483 0.00519102 0
0.00705357 0.00575263 0
0.00819693 0.00545834 0
6.49651e-05 0.00709953 0
0.00285477 0.00845954 0
0.0050706 0.00739233 0
0.00716435 0.00798734 0
0.00986735 0.00753625 0
VERTICES 25 50
1 0
1 1
1 2
1 3
1 4
1 5
1 6
1 7
1 8
1 9
1 10
1 11
1 12
1 13
1 14
1 15
1 16
1 17
1 18
1 19
1 20
1 21
1 22
1 23
1 24
POINT_DATA 25
VECTORS velocity double
-2.1604e-68 -0.00970858 0
-1.4313e-68 -0.00970858 0
-1.18456e-68 -0.00970858 0
-6.94282e-69 -0.00970858 0
9.08886e-69 -0.00970858 0
-6.46125e-70 -0.00970858 0
-7.44173e-69 -0.00970858 0
-1.91069e-68 -0.00970858 0
-2.17793e-68 -0.00970858 0
-2.5214e-68 -0.00970858 0
2.57735e-68 -0.00970858 0
4.33665e-69 -0.00970858 0
-1.42981e-68 -0.00970858 0
-9.22892e-69 -0.00970858 0
-2.10584e-68 -0.00970858 0
1.23274e-68 -0.00970858 0
-1.6525e-68 -0.00970858 0
2.12024e-68 -0.00970858 0
1.46591e-69 -0.00970858 0
-2.19752e-68 -0.00970858 0
-2.55862e-68 -0.00970858 0
-3.97393e-69 -0.00970858 0
1.93197e-69 -0.00970858 0
4.49734e-69 -0.00970858 0
2.3734e-68 -0.00970858 0
SCALARS radius double 1
LOOKUP_TABLE default
0.0005192
0.000759374
0.000731582
0.000932767
0.000864852
0.00092132
0.000824734
0.000662097
0.000535446
0.00094621
0.000999249
0.000802661
0.000671708
0.000819153
0.000645007
0.000827505
0.000602392
0.000772815
0.000550095
0.000626194
0.000886859
0.000531918
0.000790192
0.000909137
0.00096445
SCALARS mass double 1
LOOKUP_TABLE default
0.00228657
0.0048913
0.00453983
0.00738005
0.00634449
0.00720004
0.00576955
0.0037184
0.0024319
0.00759432
0.00846957
0.00546484
0.00382714
0.00569173
0.00352892
0.00580838
0.00307803
0.005066
0.00256678
0.00332607
0.00667148
0.00239995
0.00529637
0.00701087
0.00788992
