# vtk DataFile Version 3.0
DEM2D particles
ASCII
DATASET POLYDATA
POINTS 25 double
0.000210492 -0.00125223 0
0.00247694 -0.00165152 0
0.00456711 -0.00100419 0
0.00674628 -0.00112291 0
0.00933215 -0.000205782 0
0.000976388 0.00194839 0
0.00272805 0.00163284 0
0.00430175 0.00116403 0
0.00620408 0.000586713 0
0.00807857 0.00103267 0
0.00194188 0.00288535 0
0.00315848 0.00260443 0
0.00447748 0.00310863 0
0.00666273 0.00418118 0
0.00823043 0.0036337 0
0.0014505 0.00480403 0
0.0023961 0.0059174 0
0.00577483 0.00494248 0
0.00705357 0.00550409 0
0.00819693 0.0052098 0
6.49651e-05 0.00685099 0
0.00285477 0.008211 0
0.0050706 0.00714379 0
0.00716435 0.0077388 0
0.00986735 0.00728771 0
VERTICES 25 50
1 0
1 1
1 2
1 3
1 4
1 5
1 6
1 7
1 8
1 9
1 10
1 11
1 12
1 13
1 14
1 15
1 16
1 17
1 18
1 19
1 20
1 21
1 22
1 23
1 24
POINT_DATA 25
VECTORS velocity double
-1.44755e-79 -0.00970858 0
-9.59025e-80 -0.00970858 0
-7.93699e-80 -0.00970858 0
-4.65194e-80 -0.00970858 0
6.08986e-80 -0.00970858 0
-4.32927e-81 -0.00970858 0
-4.98623e-80 -0.00970858 0
-1.28023e-79 -0.00970858 0
-1.45929e-79 -0.00970858 0
-1.68943e-79 -0.00970858 0
1.72692e-79 -0.00970858 0
2.90571e-80 -0.00970858 0
-9.58026e-80 -0.00970858 0
-6.18371e-80 -0.00970858 0
-1.41099e-79 -0.00970858 0
8.25982e-80 -0.00970858 0
-1.10723e-79 -0.00970858 0
1.42064e-79 -0.00970858 0
9.82213e-81 -0.00970858 0
-1.47241e-79 -0.00970858 0
-1.71436e-79 -0.00970858 0
-2.66267e-80 -0.00970858 0
1.29449e-80 -0.00970858 0
3.01338e-80 -0.00970858 0
1.59026e-79 -0.00970858 0
SCALARS radius double 1
LOOKUP_TABLE default
0.0005192
0.000759374
0.000731582
0.000932767
0.000864852
0.00092132
0.000824734
0.000662097
0.000535446
0.00094621
0.000999249
0.000802661
0.000671708
0.000819153
0.000645007
0.000827505
0.000602392
0.000772815
0.000550095
0.000626194
0.000886859
0.000531918
0.000790192
0.000909137
0.00096445
SCALARS mass double 1
LOOKUP_TABLE default
0.00228657
0.0048913
0.00453983
0.00738005
0.00634449
0.00720004
0.00576955
0.0037184
0.0024319
0.00759432
0.00846957
0.00546484
0.00382714
0.00569173
0.00352892
0.00580838
0.00307803
0.005066
0.00256678
0.00332607
0.00667148
0.00239995
0.00529637
0.00701087
0.00788992
