# vtk DataFile Version 3.0
DEM2D particles
ASCII
DATASET POLYDATA
POINTS 25 double
0.000210492 -6.00184e-05 0
0.00247694 -0.000459308 0
0.00456711 0.00018802 0
0.00674628 6.93054e-05 0
0.00933215 0.000986432 0
0.000976388 0.00314061 0
0.00272805 0.00282505 0
0.00430175 0.00235624 0
0.00620408 0.00177893 0
0.00807857 0.00222489 0
0.00194188 0.00407757 0
0.00315848 0.00379664 0
0.00447748 0.00430085 0
0.00666273 0.0053734 0
0.00823043 0.00482592 0
0.0014505 0.00599624 0
0.0023961 0.00710961 0
0.00577483 0.00613469 0
0.00705357 0.0066963 0
0.00819693 0.00640202 0
6.49651e-05 0.00804321 0
0.00285477 0.00940321 0
0.0050706 0.008336 0
0.00716435 0.00893101 0
0.00986735 0.00847992 0
VERTICES 25 50
1 0
1 1
1 2
1 3
1 4
1 5
1 6
1 7
1 8
1 9
1 10
1 11
1 12
1 13
1 14
1 15
1 16
1 17
1 18
1 19
1 20
1 21
1 22
1 23
1 24
POINT_DATA 25
VECTORS velocity double
-5.76026e-26 -0.00970858 0
-3.81628e-26 -0.00970858 0
-3.15839e-26 -0.00970858 0
-1.85116e-26 -0.00970858 0
2.42336e-26 -0.00970858 0
-1.72276e-27 -0.00970858 0
-1.98419e-26 -0.00970858 0
-5.09445e-26 -0.00970858 0
-5.80702e-26 -0.00970858 0
-6.72279e-26 -0.00970858 0
6.87199e-26 -0.00970858 0
1.15628e-26 -0.00970858 0
-3.81231e-26 -0.00970858 0
-2.46071e-26 -0.00970858 0
-5.6148e-26 -0.00970858 0
3.28686e-26 -0.00970858 0
-4.40606e-26 -0.00970858 0
5.6532e-26 -0.00970858 0
3.90855e-27 -0.00970858 0
-5.85923e-26 -0.00970858 0
-6.82203e-26 -0.00970858 0
-1.05957e-26 -0.00970858 0
5.15121e-27 -0.00970858 0
1.19912e-26 -0.00970858 0
6.32818e-26 -0.00970858 0
SCALARS radius double 1
LOOKUP_TABLE default
0.0005192
0.000759374
0.000731582
0.000932767
0.000864852
0.00092132
0.000824734
0.000662097
0.000535446
0.00094621
0.000999249
0.000802661
0.000671708
0.000819153
0.000645007
0.000827505
0.000602392
0.000772815
0.000550095
0.000626194
0.000886859
0.000531918
0.000790192
0.000909137
0.00096445
SCALARS mass double 1
LOOKUP_TABLE default
0.00228657
0.0048913
0.00453983
0.00738005
0.00634449
0.00720004
0.00576955
0.0037184
0.0024319
0.00759432
0.00846957
0.00546484
0.00382714
0.00569173
0.00352892
0.00580838
0.00307803
0.005066
0.00256678
0.00332607
0.00667148
0.00239995
0.00529637
0.00701087
0.00788992
