# vtk DataFile Version 3.0
DEM2D particles
ASCII
DATASET POLYDATA
POINTS 25 double
0.000436511 0.00036678 0
0.00259373 0.000154806 0
0.00503527 0.000946096 0
0.0075525 -0.000502491 0
0.00982669 -0.000344554 0
0.00134532 0.00253057 0
0.00385427 0.00201901 0
0.0049179 0.00112851 0
0.00662312 0.00276465 0
0.00923317 0.00207846 0
0.000767124 0.00426605 0
0.0037611 0.00315861 0
0.00456232 0.00434479 0
0.00622589 0.00456301 0
0.00871364 0.00381232 0
0.00180206 0.00597785 0
0.00309208 0.00528099 0
0.0055426 0.00572098 0
0.00726105 0.00686384 0
0.00950038 0.00666883 0
0.000727257 0.00785227 0
0.00319925 0.00720257 0
0.00427968 0.00827365 0
0.00693409 0.00771274 0
0.00824173 0.0081402 0
VERTICES 25 50
1 0
1 1
1 2
1 3
1 4
1 5
1 6
1 7
1 8
1 9
1 10
1 11
1 12
1 13
1 14
1 15
1 16
1 17
1 18
1 19
1 20
1 21
1 22
1 23
1 24
POINT_DATA 25
VECTORS velocity double
-8.40995e-47 -0.00970858 0
-6.06351e-47 -0.00970858 0
5.26377e-48 -0.00970858 0
8.246e-47 -0.00970858 0
1.23382e-46 -0.00970858 0
5.15384e-47 -0.00970858 0
1.27497e-46 -0.00970858 0
-1.22531e-47 -0.00970858 0
-5.62484e-47 -0.00970858 0
3.48e-47 -0.00970858 0
-3.47562e-47 -0.00970858 0
1.13593e-46 -0.00970858 0
-6.53232e-47 -0.00970858 0
-1.15534e-46 -0.00970858 0
-4.27387e-47 -0.00970858 0
1.19705e-46 -0.00970858 0
1.37423e-47 -0.00970858 0
8.09821e-47 -0.00970858 0
3.89608e-47 -0.00970858 0
7.46811e-47 -0.00970858 0
-4.07063e-47 -0.00970858 0
2.97376e-47 -0.00970858 0
-1.07506e-46 -0.00970858 0
-9.83664e-48 -0.00970858 0
-1.13169e-46 -0.00970858 0
SCALARS radius double 1
LOOKUP_TABLE default
0.000621415
0.000750874
0.000735541
0.000522882
0.000780242
0.00097475
0.000994168
0.000790412
0.000880848
0.000720838
0.000933918
0.000958934
0.000753488
0.00054522
0.000712397
0.000950783
0.000807753
0.000836475
0.000569299
0.000603945
0.000628319
0.000580291
0.000777192
0.000692678
0.00055675
SCALARS mass double 1
LOOKUP_TABLE default
0.00327549
0.00478242
0.00458909
0.0023191
0.00516383
0.00805935
0.00838365
0.00529932
0.00658136
0.00440747
0.00739829
0.00779994
0.00481578
0.00252149
0.00430484
0.0076679
0.0055344
0.00593499
0.00274913
0.00309392
0.00334869
0.00285631
0.00512354
0.00406984
0.00262926
