# vtk DataFile Version 3.0
DEM2D particles
ASCII
DATASET POLYDATA
POINTS 25 double
0.000436511 0.00023086 0
0.00259373 1.88855e-05 0
0.00503527 0.000810176 0
0.0075525 -0.000638411 0
0.00982669 -0.000480474 0
0.00134532 0.00239465 0
0.00385427 0.00188309 0
0.0049179 0.000992591 0
0.00662312 0.00262873 0
0.00923317 0.00194254 0
0.000767124 0.00413013 0
0.0037611 0.00302269 0
0.00456232 0.00420887 0
0.00622589 0.00442709 0
0.00871364 0.0036764 0
0.00180206 0.00584193 0
0.00309208 0.00514507 0
0.0055426 0.00558506 0
0.00726105 0.00672792 0
0.00950038 0.00653291 0
0.000727257 0.00771635 0
0.00319925 0.00706665 0
0.00427968 0.00813773 0
0.00693409 0.00757682 0
0.00824173 0.00800428 0
VERTICES 25 50
1 0
1 1
1 2
1 3
1 4
1 5
1 6
1 7
1 8
1 9
1 10
1 11
1 12
1 13
1 14
1 15
1 16
1 17
1 18
1 19
1 20
1 21
1 22
1 23
1 24
POINT_DATA 25
VECTORS velocity double
-6.51727e-53 -0.00970858 0
-4.6989e-53 -0.00970858 0
4.07915e-54 -0.00970858 0
6.39022e-53 -0.00970858 0
9.56149e-53 -0.00970858 0
3.99396e-53 -0.00970858 0
9.88038e-53 -0.00970858 0
-9.49549e-54 -0.00970858 0
-4.35896e-53 -0.00970858 0
2.69682e-53 -0.00970858 0
-2.69342e-53 -0.00970858 0
8.80286e-53 -0.00970858 0
-5.06221e-53 -0.00970858 0
-8.95331e-53 -0.00970858 0
-3.31203e-53 -0.00970858 0
9.27653e-53 -0.00970858 0
1.06496e-53 -0.00970858 0
6.27569e-53 -0.00970858 0
3.01926e-53 -0.00970858 0
5.78739e-53 -0.00970858 0
-3.15453e-53 -0.00970858 0
2.30451e-53 -0.00970858 0
-8.33113e-53 -0.00970858 0
-7.62288e-54 -0.00970858 0
-8.77004e-53 -0.00970858 0
SCALARS radius double 1
LOOKUP_TABLE default
0.000621415
0.000750874
0.000735541
0.000522882
0.000780242
0.00097475
0.000994168
0.000790412
0.000880848
0.000720838
0.000933918
0.000958934
0.000753488
0.00054522
0.000712397
0.000950783
0.000807753
0.000836475
0.000569299
0.000603945
0.000628319
0.000580291
0.000777192
0.000692678
0.00055675
SCALARS mass double 1
LOOKUP_TABLE default
0.00327549
0.00478242
0.00458909
0.0023191
0.00516383
0.00805935
0.00838365
0.00529932
0.00658136
0.00440747
0.00739829
0.00779994
0.00481578
0.00252149
0.00430484
0.0076679
0.0055344
0.00593499
0.00274913
0.00309392
0.00334869
0.00285631
0.00512354
0.00406984
0.00262926
