# vtk DataFile Version 3.0
DEM2D particles
ASCII
DATASET POLYDATA
POINTS 25 double
0.000436511 0.00115706 0
0.00259373 0.000945084 0
0.00503527 0.00173637 0
0.0075525 0.000287788 0
0.00982669 0.000445725 0
0.00134532 0.00332084 0
0.00385427 0.00280929 0
0.0049179 0.00191879 0
0.00662312 0.00355493 0
0.00923317 0.00286874 0
0.000767124 0.00505633 0
0.0037611 0.00394889 0
0.00456232 0.00513507 0
0.00622589 0.00535329 0
0.00871364 0.0046026 0
0.00180206 0.00676813 0
0.00309208 0.00607126 0
0.0055426 0.00651126 0
0.00726105 0.00765412 0
0.00950038 0.00745911 0
0.000727257 0.00864255 0
0.00319925 0.00799285 0
0.00427968 0.00906393 0
0.00693409 0.00850302 0
0.00824173 0.00893048 0
VERTICES 25 50
1 0
1 1
1 2
1 3
1 4
1 5
1 6
1 7
1 8
1 9
1 10
1 11
1 12
1 13
1 14
1 15
1 16
1 17
1 18
1 19
1 20
1 21
1 22
1 23
1 24
POINT_DATA 25
VECTORS velocity double
-2.84649e-11 -0.00970858 0
-2.0523e-11 -0.00970858 0
1.78161e-12 -0.00970858 0
2.791e-11 -0.00970858 0
4.17608e-11 -0.00970858 0
1.7444e-11 -0.00970858 0
4.31536e-11 -0.00970858 0
-4.14726e-12 -0.00970858 0
-1.90382e-11 -0.00970858 0
1.17787e-11 -0.00970858 0
-1.17638e-11 -0.00970858 0
3.84474e-11 -0.00970858 0
-2.21097e-11 -0.00970858 0
-3.91045e-11 -0.00970858 0
-1.44656e-11 -0.00970858 0
4.05162e-11 -0.00970858 0
4.65131e-12 -0.00970858 0
2.74098e-11 -0.00970858 0
1.31869e-11 -0.00970858 0
2.52771e-11 -0.00970858 0
-1.37777e-11 -0.00970858 0
1.00652e-11 -0.00970858 0
-3.63871e-11 -0.00970858 0
-3.32938e-12 -0.00970858 0
-3.83041e-11 -0.00970858 0
SCALARS radius double 1
LOOKUP_TABLE default
0.000621415
0.000750874
0.000735541
0.000522882
0.000780242
0.00097475
0.000994168
0.000790412
0.000880848
0.000720838
0.000933918
0.000958934
0.000753488
0.00054522
0.000712397
0.000950783
0.000807753
0.000836475
0.000569299
0.000603945
0.000628319
0.000580291
0.000777192
0.000692678
0.00055675
SCALARS mass double 1
LOOKUP_TABLE default
0.00327549
0.00478242
0.00458909
0.0023191
0.00516383
0.00805935
0.00838365
0.00529932
0.00658136
0.00440747
0.00739829
0.00779994
0.00481578
0.00252149
0.00430484
0.0076679
0.0055344
0.00593499
0.00274913
0.00309392
0.00334869
0.00285631
0.00512354
0.00406984
0.00262926
