# vtk DataFile Version 3.0
DEM2D particles
ASCII
DATASET POLYDATA
POINTS 25 double
0.000436577 0.00129876 0
0.00259378 0.00108681 0
0.00503526 0.00187801 0
0.00755244 0.00042959 0
0.0098266 0.000587509 0
0.00134528 0.00346253 0
0.00385417 0.00295103 0
0.00491791 0.00206064 0
0.00662317 0.00369658 0
0.00923314 0.00301048 0
0.000767152 0.00519804 0
0.00376101 0.00409073 0
0.00456237 0.00527677 0
0.00622598 0.00549497 0
0.00871367 0.00474436 0
0.00180196 0.00690987 0
0.00309207 0.00621309 0
0.00554254 0.00665303 0
0.00726102 0.00779576 0
0.00950032 0.00760077 0
0.000727289 0.00878431 0
0.00319923 0.00813469 0
0.00427977 0.00920564 0
0.0069341 0.0086448 0
0.00824182 0.00907221 0
VERTICES 25 50
1 0
1 1
1 2
1 3
1 4
1 5
1 6
1 7
1 8
1 9
1 10
1 11
1 12
1 13
1 14
1 15
1 16
1 17
1 18
1 19
1 20
1 21
1 22
1 23
1 24
POINT_DATA 25
VECTORS velocity double
-6.71313e-05 -0.00966258 0
-4.84012e-05 -0.00968783 0
4.20174e-06 -0.00959356 0
6.58226e-05 -0.00976614 0
9.84884e-05 -0.00974732 0
4.11399e-05 -0.00964306 0
0.000101773 -0.00970401 0
-9.78085e-06 -0.0098101 0
-4.48996e-05 -0.00961518 0
2.77787e-05 -0.00969692 0
-2.77437e-05 -0.00967458 0
9.06741e-05 -0.00980651 0
-5.21434e-05 -0.0096652 0
-9.22238e-05 -0.0096392 0
-3.41156e-05 -0.00972863 0
9.55531e-05 -0.00970891 0
1.09696e-05 -0.00979193 0
6.46429e-05 -0.00973951 0
3.10999e-05 -0.00960336 0
5.96132e-05 -0.00962659 0
-3.24933e-05 -0.00972387 0
2.37377e-05 -0.00980127 0
-8.5815e-05 -0.00967367 0
-7.85197e-06 -0.00974049 0
-9.0336e-05 -0.00968957 0
SCALARS radius double 1
LOOKUP_TABLE default
0.000621415
0.000750874
0.000735541
0.000522882
0.000780242
0.00097475
0.000994168
0.000790412
0.000880848
0.000720838
0.000933918
0.000958934
0.000753488
0.00054522
0.000712397
0.000950783
0.000807753
0.000836475
0.000569299
0.000603945
0.000628319
0.000580291
0.000777192
0.000692678
0.00055675
SCALARS mass double 1
LOOKUP_TABLE default
0.00327549
0.00478242
0.00458909
0.0023191
0.00516383
0.00805935
0.00838365
0.00529932
0.00658136
0.00440747
0.00739829
0.00779994
0.00481578
0.00252149
0.00430484
0.0076679
0.0055344
0.00593499
0.00274913
0.00309392
0.00334869
0.00285631
0.00512354
0.00406984
0.00262926
