# vtk DataFile Version 3.0
DEM2D particles
ASCII
DATASET POLYDATA
POINTS 25 double
0.000436511 0.00104638 0
0.00259373 0.000834407 0
0.00503527 0.0016257 0
0.0075525 0.00017711 0
0.00982669 0.000335047 0
0.00134532 0.00321017 0
0.00385427 0.00269862 0
0.0049179 0.00180811 0
0.00662312 0.00344425 0
0.00923317 0.00275807 0
0.000767124 0.00494566 0
0.0037611 0.00383821 0
0.00456232 0.00502439 0
0.00622589 0.00524261 0
0.00871364 0.00449192 0
0.00180206 0.00665745 0
0.00309208 0.00596059 0
0.0055426 0.00640058 0
0.00726105 0.00754344 0
0.00950038 0.00734843 0
0.000727257 0.00853187 0
0.00319925 0.00788217 0
0.00427968 0.00895325 0
0.00693409 0.00839234 0
0.00824173 0.0088198 0
VERTICES 25 50
1 0
1 1
1 2
1 3
1 4
1 5
1 6
1 7
1 8
1 9
1 10
1 11
1 12
1 13
1 14
1 15
1 16
1 17
1 18
1 19
1 20
1 21
1 22
1 23
1 24
POINT_DATA 25
VECTORS velocity double
-3.00906e-16 -0.00970858 0
-2.16951e-16 -0.00970858 0
1.88337e-17 -0.00970858 0
2.9504e-16 -0.00970858 0
4.4146e-16 -0.00970858 0
1.84403e-16 -0.00970858 0
4.56183e-16 -0.00970858 0
-4.38412e-17 -0.00970858 0
-2.01256e-16 -0.00970858 0
1.24514e-16 -0.00970858 0
-1.24357e-16 -0.00970858 0
4.06433e-16 -0.00970858 0
-2.33725e-16 -0.00970858 0
-4.1338e-16 -0.00970858 0
-1.52918e-16 -0.00970858 0
4.28303e-16 -0.00970858 0
4.91696e-17 -0.00970858 0
2.89752e-16 -0.00970858 0
1.39401e-16 -0.00970858 0
2.67207e-16 -0.00970858 0
-1.45646e-16 -0.00970858 0
1.06401e-16 -0.00970858 0
-3.84653e-16 -0.00970858 0
-3.51953e-17 -0.00970858 0
-4.04918e-16 -0.00970858 0
SCALARS radius double 1
LOOKUP_TABLE default
0.000621415
0.000750874
0.000735541
0.000522882
0.000780242
0.00097475
0.000994168
0.000790412
0.000880848
0.000720838
0.000933918
0.000958934
0.000753488
0.00054522
0.000712397
0.000950783
0.000807753
0.000836475
0.000569299
0.000603945
0.000628319
0.000580291
0.000777192
0.000692678
0.00055675
SCALARS mass double 1
LOOKUP_TABLE default
0.00327549
0.00478242
0.00458909
0.0023191
0.00516383
0.00805935
0.00838365
0.00529932
0.00658136
0.00440747
0.00739829
0.00779994
0.00481578
0.00252149
0.00430484
0.0076679
0.0055344
0.00593499
0.00274913
0.00309392
0.00334869
0.00285631
0.00512354
0.00406984
0.00262926
