# vtk DataFile Version 3.0
DEM2D particles
ASCII
DATASET POLYDATA
POINTS 25 double
0.000487016 0.00132827 0
0.00263014 0.00113529 0
0.00503211 0.00185566 0
0.00750298 0.000536908 0
0.0097526 0.00068069 0
0.00131437 0.00347737 0
0.0037777 0.00301167 0
0.00492526 0.00220098 0
0.0066569 0.00369048 0
0.00921227 0.00306579 0
0.000787997 0.00523657 0
0.00369289 0.00422839 0
0.00460155 0.00530825 0
0.00629527 0.00550691 0
0.00873931 0.0048235 0
0.00173017 0.00697419 0
0.00308382 0.00633979 0
0.00549397 0.00674035 0
0.00723765 0.00778078 0
0.00945553 0.00760324 0
0.000751702 0.00885987 0
0.00318139 0.00826841 0
0.00434424 0.00924348 0
0.00694 0.00873285 0
0.0083097 0.009122 0
VERTICES 25 50
1 0
1 1
1 2
1 3
1 4
1 5
1 6
1 7
1 8
1 9
1 10
1 11
1 12
1 13
1 14
1 15
1 16
1 17
1 18
1 19
1 20
1 21
1 22
1 23
1 24
POINT_DATA 25
VECTORS velocity double
-0.0510149 0.0252539 0
-0.0367813 0.00606306 0
0.00319301 0.0777017 0
0.0500203 -0.0534446 0
0.0748439 -0.0391459 0
0.0312633 0.0400821 0
0.0773401 -0.00623061 0
-0.00743273 -0.0868514 0
-0.0341204 0.0612747 0
0.0211097 -0.000848367 0
-0.0210832 0.0161348 0
0.0689056 -0.0841262 0
-0.0396252 0.023263 0
-0.0700833 0.0430197 0
-0.0259254 -0.0249438 0
0.0726134 -0.00995767 0
0.00833609 -0.0730474 0
0.0491239 -0.033213 0
0.0236337 0.0702549 0
0.0453017 0.0525996 0
-0.0246925 -0.0213266 0
0.0180389 -0.0801464 0
-0.0652131 0.0168224 0
-0.00596692 -0.0339589 0
-0.0686487 0.00474085 0
SCALARS radius double 1
LOOKUP_TABLE default
0.000621415
0.000750874
0.000735541
0.000522882
0.000780242
0.00097475
0.000994168
0.000790412
0.000880848
0.000720838
0.000933918
0.000958934
0.000753488
0.00054522
0.000712397
0.000950783
0.000807753
0.000836475
0.000569299
0.000603945
0.000628319
0.000580291
0.000777192
0.000692678
0.00055675
SCALARS mass double 1
LOOKUP_TABLE default
0.00327549
0.00478242
0.00458909
0.0023191
0.00516383
0.00805935
0.00838365
0.00529932
0.00658136
0.00440747
0.00739829
0.00779994
0.00481578
0.00252149
0.00430484
0.0076679
0.0055344
0.00593499
0.00274913
0.00309392
0.00334869
0.00285631
0.00512354
0.00406984
0.00262926
