# vtk DataFile Version 3.0
DEM2D particles
ASCII
DATASET POLYDATA
POINTS 25 double
0.000436511 1.53291e-05 0
0.00259373 -0.000196645 0
0.00503527 0.000594646 0
0.0075525 -0.000853942 0
0.00982669 -0.000696005 0
0.00134532 0.00217912 0
0.00385427 0.00166756 0
0.0049179 0.000777061 0
0.00662312 0.0024132 0
0.00923317 0.00172701 0
0.000767124 0.0039146 0
0.0037611 0.00280716 0
0.00456232 0.00399334 0
0.00622589 0.00421156 0
0.00871364 0.00346087 0
0.00180206 0.0056264 0
0.00309208 0.00492953 0
0.0055426 0.00536953 0
0.00726105 0.00651239 0
0.00950038 0.00631738 0
0.000727257 0.00750082 0
0.00319925 0.00685112 0
0.00427968 0.0079222 0
0.00693409 0.00736129 0
0.00824173 0.00778875 0
VERTICES 25 50
1 0
1 1
1 2
1 3
1 4
1 5
1 6
1 7
1 8
1 9
1 10
1 11
1 12
1 13
1 14
1 15
1 16
1 17
1 18
1 19
1 20
1 21
1 22
1 23
1 24
POINT_DATA 25
VECTORS velocity double
-1.33106e-62 -0.00970858 0
-9.59685e-63 -0.00970858 0
8.33108e-64 -0.00970858 0
1.30511e-62 -0.00970858 0
1.9528e-62 -0.00970858 0
8.15709e-63 -0.00970858 0
2.01793e-62 -0.00970858 0
-1.93932e-63 -0.00970858 0
-8.90256e-63 -0.00970858 0
5.50787e-63 -0.00970858 0
-5.50094e-63 -0.00970858 0
1.79786e-62 -0.00970858 0
-1.03388e-62 -0.00970858 0
-1.82859e-62 -0.00970858 0
-6.76435e-63 -0.00970858 0
1.8946e-62 -0.00970858 0
2.17502e-63 -0.00970858 0
1.28172e-62 -0.00970858 0
6.1664e-63 -0.00970858 0
1.18199e-62 -0.00970858 0
-6.44268e-63 -0.00970858 0
4.70664e-63 -0.00970858 0
-1.70152e-62 -0.00970858 0
-1.55687e-63 -0.00970858 0
-1.79116e-62 -0.00970858 0
SCALARS radius double 1
LOOKUP_TABLE default
0.000621415
0.000750874
0.000735541
0.000522882
0.000780242
0.00097475
0.000994168
0.000790412
0.000880848
0.000720838
0.000933918
0.000958934
0.000753488
0.00054522
0.000712397
0.000950783
0.000807753
0.000836475
0.000569299
0.000603945
0.000628319
0.000580291
0.000777192
0.000692678
0.00055675
SCALARS mass double 1
LOOKUP_TABLE default
0.00327549
0.00478242
0.00458909
0.0023191
0.00516383
0.00805935
0.00838365
0.00529932
0.00658136
0.00440747
0.00739829
0.00779994
0.00481578
0.00252149
0.00430484
0.0076679
0.0055344
0.00593499
0.00274913
0.00309392
0.00334869
0.00285631
0.00512354
0.00406984
0.00262926
