# vtk DataFile Version 3.0
DEM2D particles
ASCII
DATASET POLYDATA
POINTS 25 double
0.000436511 0.000520175 0
0.00259373 0.000308201 0
0.00503527 0.00109949 0
0.0075525 -0.000349095 0
0.00982669 -0.000191158 0
0.00134532 0.00268396 0
0.00385427 0.00217241 0
0.0049179 0.00128191 0
0.00662312 0.00291805 0
0.00923317 0.00223186 0
0.000767124 0.00441945 0
0.0037611 0.00331201 0
0.00456232 0.00449818 0
0.00622589 0.00471641 0
0.00871364 0.00396571 0
0.00180206 0.00613124 0
0.00309208 0.00543438 0
0.0055426 0.00587437 0
0.00726105 0.00701724 0
0.00950038 0.00682222 0
0.000727257 0.00800567 0
0.00319925 0.00735597 0
0.00427968 0.00842704 0
0.00693409 0.00786614 0
0.00824173 0.0082936 0
VERTICES 25 50
1 0
1 1
1 2
1 3
1 4
1 5
1 6
1 7
1 8
1 9
1 10
1 11
1 12
1 13
1 14
1 15
1 16
1 17
1 18
1 19
1 20
1 21
1 22
1 23
1 24
POINT_DATA 25
VECTORS velocity double
-6.625e-40 -0.00970858 0
-4.77658e-40 -0.00970858 0
4.14658e-41 -0.00970858 0
6.49584e-40 -0.00970858 0
9.71954e-40 -0.00970858 0
4.05998e-40 -0.00970858 0
1.00437e-39 -0.00970858 0
-9.65245e-41 -0.00970858 0
-4.43101e-40 -0.00970858 0
2.7414e-40 -0.00970858 0
-2.73795e-40 -0.00970858 0
8.94837e-40 -0.00970858 0
-5.14589e-40 -0.00970858 0
-9.10131e-40 -0.00970858 0
-3.36678e-40 -0.00970858 0
9.42987e-40 -0.00970858 0
1.08256e-40 -0.00970858 0
6.37943e-40 -0.00970858 0
3.06916e-40 -0.00970858 0
5.88306e-40 -0.00970858 0
-3.20667e-40 -0.00970858 0
2.3426e-40 -0.00970858 0
-8.46884e-40 -0.00970858 0
-7.74889e-41 -0.00970858 0
-8.91501e-40 -0.00970858 0
SCALARS radius double 1
LOOKUP_TABLE default
0.000621415
0.000750874
0.000735541
0.000522882
0.000780242
0.00097475
0.000994168
0.000790412
0.000880848
0.000720838
0.000933918
0.000958934
0.000753488
0.00054522
0.000712397
0.000950783
0.000807753
0.000836475
0.000569299
0.000603945
0.000628319
0.000580291
0.000777192
0.000692678
0.00055675
SCALARS mass double 1
LOOKUP_TABLE default
0.00327549
0.00478242
0.00458909
0.0023191
0.00516383
0.00805935
0.00838365
0.00529932
0.00658136
0.00440747
0.00739829
0.00779994
0.00481578
0.00252149
0.00430484
0.0076679
0.0055344
0.00593499
0.00274913
0.00309392
0.00334869
0.00285631
0.00512354
0.00406984
0.00262926
