# vtk DataFile Version 3.0
DEM2D particles
ASCII
DATASET POLYDATA
POINTS 25 double
0.000436511 0.00124444 0
0.00259373 0.00103246 0
0.00503527 0.00182375 0
0.0075525 0.000375165 0
0.00982669 0.000533102 0
0.00134532 0.00340822 0
0.00385427 0.00289667 0
0.0049179 0.00200617 0
0.00662312 0.00364231 0
0.00923317 0.00295612 0
0.000767124 0.00514371 0
0.0037611 0.00403627 0
0.00456232 0.00522244 0
0.00622589 0.00544067 0
0.00871364 0.00468997 0
0.00180206 0.0068555 0
0.00309208 0.00615864 0
0.0055426 0.00659864 0
0.00726105 0.0077415 0
0.00950038 0.00754648 0
0.000727257 0.00872993 0
0.00319925 0.00808023 0
0.00427968 0.0091513 0
0.00693409 0.0085904 0
0.00824174 0.00901786 0
VERTICES 25 50
1 0
1 1
1 2
1 3
1 4
1 5
1 6
1 7
1 8
1 9
1 10
1 11
1 12
1 13
1 14
1 15
1 16
1 17
1 18
1 19
1 20
1 21
1 22
1 23
1 24
POINT_DATA 25
VECTORS velocity double
-2.41343e-07 -0.00970842 0
-1.74006e-07 -0.00970851 0
1.51056e-08 -0.00970817 0
2.36638e-07 -0.00970879 0
3.54074e-07 -0.00970872 0
1.47901e-07 -0.00970835 0
3.65883e-07 -0.00970857 0
-3.5163e-08 -0.00970895 0
-1.61418e-07 -0.00970825 0
9.98666e-08 -0.00970854 0
-9.97409e-08 -0.00970846 0
3.25981e-07 -0.00970894 0
-1.8746e-07 -0.00970843 0
-3.31552e-07 -0.00970833 0
-1.22649e-07 -0.00970866 0
3.43522e-07 -0.00970858 0
3.94366e-08 -0.00970888 0
2.32397e-07 -0.00970869 0
1.11807e-07 -0.00970821 0
2.14314e-07 -0.00970829 0
-1.16816e-07 -0.00970864 0
8.53389e-08 -0.00970892 0
-3.08512e-07 -0.00970846 0
-2.82285e-08 -0.0097087 0
-3.24766e-07 -0.00970852 0
SCALARS radius double 1
LOOKUP_TABLE default
0.000621415
0.000750874
0.000735541
0.000522882
0.000780242
0.00097475
0.000994168
0.000790412
0.000880848
0.000720838
0.000933918
0.000958934
0.000753488
0.00054522
0.000712397
0.000950783
0.000807753
0.000836475
0.000569299
0.000603945
0.000628319
0.000580291
0.000777192
0.000692678
0.00055675
SCALARS mass double 1
LOOKUP_TABLE default
0.00327549
0.00478242
0.00458909
0.0023191
0.00516383
0.00805935
0.00838365
0.00529932
0.00658136
0.00440747
0.00739829
0.00779994
0.00481578
0.00252149
0.00430484
0.0076679
0.0055344
0.00593499
0.00274913
0.00309392
0.00334869
0.00285631
0.00512354
0.00406984
0.00262926
