# vtk DataFile Version 3.0
DEM2D particles
ASCII
DATASET POLYDATA
POINTS 25 double
0.000436511 0.000339596 0
0.00259373 0.000127622 0
0.00503527 0.000918912 0
0.0075525 -0.000529675 0
0.00982669 -0.000371738 0
0.00134532 0.00250338 0
0.00385427 0.00199183 0
0.0049179 0.00110133 0
0.00662312 0.00273747 0
0.00923317 0.00205128 0
0.000767124 0.00423887 0
0.0037611 0.00313143 0
0.00456232 0.0043176 0
0.00622589 0.00453583 0
0.00871364 0.00378513 0
0.00180206 0.00595066 0
0.00309208 0.0052538 0
0.0055426 0.0056938 0
0.00726105 0.00683666 0
0.00950038 0.00664164 0
0.000727257 0.00782509 0
0.00319925 0.00717539 0
0.00427968 0.00824646 0
0.00693409 0.00768556 0
0.00824173 0.00811302 0
VERTICES 25 50
1 0
1 1
1 2
1 3
1 4
1 5
1 6
1 7
1 8
1 9
1 10
1 11
1 12
1 13
1 14
1 15
1 16
1 17
1 18
1 19
1 20
1 21
1 22
1 23
1 24
POINT_DATA 25
VECTORS velocity double
-5.04252e-48 -0.00970858 0
-3.63562e-48 -0.00970858 0
3.15611e-49 -0.00970858 0
4.94422e-48 -0.00970858 0
7.39788e-48 -0.00970858 0
3.09019e-48 -0.00970858 0
7.64462e-48 -0.00970858 0
-7.34682e-49 -0.00970858 0
-3.3726e-48 -0.00970858 0
2.08658e-48 -0.00970858 0
-2.08395e-48 -0.00970858 0
6.81092e-48 -0.00970858 0
-3.91672e-48 -0.00970858 0
-6.92733e-48 -0.00970858 0
-2.56257e-48 -0.00970858 0
7.17741e-48 -0.00970858 0
8.23974e-49 -0.00970858 0
4.85561e-48 -0.00970858 0
2.33605e-48 -0.00970858 0
4.4778e-48 -0.00970858 0
-2.44071e-48 -0.00970858 0
1.78304e-48 -0.00970858 0
-6.44594e-48 -0.00970858 0
-5.89795e-49 -0.00970858 0
-6.78553e-48 -0.00970858 0
SCALARS radius double 1
LOOKUP_TABLE default
0.000621415
0.000750874
0.000735541
0.000522882
0.000780242
0.00097475
0.000994168
0.000790412
0.000880848
0.000720838
0.000933918
0.000958934
0.000753488
0.00054522
0.000712397
0.000950783
0.000807753
0.000836475
0.000569299
0.000603945
0.000628319
0.000580291
0.000777192
0.000692678
0.00055675
SCALARS mass double 1
LOOKUP_TABLE default
0.00327549
0.00478242
0.00458909
0.0023191
0.00516383
0.00805935
0.00838365
0.00529932
0.00658136
0.00440747
0.00739829
0.00779994
0.00481578
0.00252149
0.00430484
0.0076679
0.0055344
0.00593499
0.00274913
0.00309392
0.00334869
0.00285631
0.00512354
0.00406984
0.00262926
