# vtk DataFile Version 3.0
DEM2D particles
ASCII
DATASET POLYDATA
POINTS 25 double
0.000436511 0.000405614 0
0.00259373 0.00019364 0
0.00503527 0.000984931 0
0.0075525 -0.000463657 0
0.00982669 -0.000305719 0
0.00134532 0.0025694 0
0.00385427 0.00205785 0
0.0049179 0.00116735 0
0.00662312 0.00280348 0
0.00923317 0.0021173 0
0.000767124 0.00430489 0
0.0037611 0.00319745 0
0.00456232 0.00438362 0
0.00622589 0.00460185 0
0.00871364 0.00385115 0
0.00180206 0.00601668 0
0.00309208 0.00531982 0
0.0055426 0.00575981 0
0.00726105 0.00690268 0
0.00950038 0.00670766 0
0.000727257 0.00789111 0
0.00319925 0.00724141 0
0.00427968 0.00831248 0
0.00693409 0.00775157 0
0.00824173 0.00817904 0
VERTICES 25 50
1 0
1 1
1 2
1 3
1 4
1 5
1 6
1 7
1 8
1 9
1 10
1 11
1 12
1 13
1 14
1 15
1 16
1 17
1 18
1 19
1 20
1 21
1 22
1 23
1 24
POINT_DATA 25
VECTORS velocity double
-4.68507e-45 -0.00970858 0
-3.3779e-45 -0.00970858 0
2.93237e-46 -0.00970858 0
4.59373e-45 -0.00970858 0
6.87346e-45 -0.00970858 0
2.87113e-45 -0.00970858 0
7.1027e-45 -0.00970858 0
-6.82601e-46 -0.00970858 0
-3.13352e-45 -0.00970858 0
1.93866e-45 -0.00970858 0
-1.93622e-45 -0.00970858 0
6.3281e-45 -0.00970858 0
-3.63907e-45 -0.00970858 0
-6.43626e-45 -0.00970858 0
-2.38091e-45 -0.00970858 0
6.66861e-45 -0.00970858 0
7.65563e-46 -0.00970858 0
4.5114e-45 -0.00970858 0
2.17045e-45 -0.00970858 0
4.16038e-45 -0.00970858 0
-2.26769e-45 -0.00970858 0
1.65664e-45 -0.00970858 0
-5.98899e-45 -0.00970858 0
-5.47986e-46 -0.00970858 0
-6.30451e-45 -0.00970858 0
SCALARS radius double 1
LOOKUP_TABLE default
0.000621415
0.000750874
0.000735541
0.000522882
0.000780242
0.00097475
0.000994168
0.000790412
0.000880848
0.000720838
0.000933918
0.000958934
0.000753488
0.00054522
0.000712397
0.000950783
0.000807753
0.000836475
0.000569299
0.000603945
0.000628319
0.000580291
0.000777192
0.000692678
0.00055675
SCALARS mass double 1
LOOKUP_TABLE default
0.00327549
0.00478242
0.00458909
0.0023191
0.00516383
0.00805935
0.00838365
0.00529932
0.00658136
0.00440747
0.00739829
0.00779994
0.00481578
0.00252149
0.00430484
0.0076679
0.0055344
0.00593499
0.00274913
0.00309392
0.00334869
0.00285631
0.00512354
0.00406984
0.00262926
