# vtk DataFile Version 3.0
DEM2D particles
ASCII
DATASET POLYDATA
POINTS 25 double
0.000436511 -0.000190493 0
0.00259373 -0.000402467 0
0.00503527 0.000388824 0
0.0075525 -0.00105976 0
0.00982669 -0.000901827 0
0.00134532 0.00197329 0
0.00385427 0.00146174 0
0.0049179 0.000571239 0
0.00662312 0.00220738 0
0.00923317 0.00152119 0
0.000767124 0.00370878 0
0.0037611 0.00260134 0
0.00456232 0.00378752 0
0.00622589 0.00400574 0
0.00871364 0.00325504 0
0.00180206 0.00542057 0
0.00309208 0.00472371 0
0.0055426 0.00516371 0
0.00726105 0.00630657 0
0.00950038 0.00611156 0
0.000727257 0.007295 0
0.00319925 0.0066453 0
0.00427968 0.00771638 0
0.00693409 0.00715547 0
0.00824173 0.00758293 0
VERTICES 25 50
1 0
1 1
1 2
1 3
1 4
1 5
1 6
1 7
1 8
1 9
1 10
1 11
1 12
1 13
1 14
1 15
1 16
1 17
1 18
1 19
1 20
1 21
1 22
1 23
1 24
POINT_DATA 25
VECTORS velocity double
-7.42695e-72 -0.00970858 0
-5.35477e-72 -0.00970858 0
4.64851e-73 -0.00970858 0
7.28216e-72 -0.00970858 0
1.08961e-71 -0.00970858 0
4.55143e-72 -0.00970858 0
1.12595e-71 -0.00970858 0
-1.08209e-72 -0.00970858 0
-4.96738e-72 -0.00970858 0
3.07324e-72 -0.00970858 0
-3.06937e-72 -0.00970858 0
1.00316e-71 -0.00970858 0
-5.76879e-72 -0.00970858 0
-1.0203e-71 -0.00970858 0
-3.77432e-72 -0.00970858 0
1.05713e-71 -0.00970858 0
1.2136e-72 -0.00970858 0
7.15165e-72 -0.00970858 0
3.44068e-72 -0.00970858 0
6.59519e-72 -0.00970858 0
-3.59484e-72 -0.00970858 0
2.62617e-72 -0.00970858 0
-9.49399e-72 -0.00970858 0
-8.68688e-73 -0.00970858 0
-9.99416e-72 -0.00970858 0
SCALARS radius double 1
LOOKUP_TABLE default
0.000621415
0.000750874
0.000735541
0.000522882
0.000780242
0.00097475
0.000994168
0.000790412
0.000880848
0.000720838
0.000933918
0.000958934
0.000753488
0.00054522
0.000712397
0.000950783
0.000807753
0.000836475
0.000569299
0.000603945
0.000628319
0.000580291
0.000777192
0.000692678
0.00055675
SCALARS mass double 1
LOOKUP_TABLE default
0.00327549
0.00478242
0.00458909
0.0023191
0.00516383
0.00805935
0.00838365
0.00529932
0.00658136
0.00440747
0.00739829
0.00779994
0.00481578
0.00252149
0.00430484
0.0076679
0.0055344
0.00593499
0.00274913
0.00309392
0.00334869
0.00285631
0.00512354
0.00406984
0.00262926
