# vtk DataFile Version 3.0
DEM2D particles
ASCII
DATASET POLYDATA
POINTS 25 double
0.000436511 0.000799783 0
0.00259373 0.000587809 0
0.00503527 0.0013791 0
0.0075525 -6.9488e-05 0
0.00982669 8.8449e-05 0
0.00134532 0.00296357 0
0.00385427 0.00245202 0
0.0049179 0.00156151 0
0.00662312 0.00319765 0
0.00923317 0.00251147 0
0.000767124 0.00469906 0
0.0037611 0.00359162 0
0.00456232 0.00477779 0
0.00622589 0.00499602 0
0.00871364 0.00424532 0
0.00180206 0.00641085 0
0.00309208 0.00571399 0
0.0055426 0.00615398 0
0.00726105 0.00729684 0
0.00950038 0.00710183 0
0.000727257 0.00828527 0
0.00319925 0.00763557 0
0.00427968 0.00870665 0
0.00693409 0.00814574 0
0.00824173 0.0085732 0
VERTICES 25 50
1 0
1 1
1 2
1 3
1 4
1 5
1 6
1 7
1 8
1 9
1 10
1 11
1 12
1 13
1 14
1 15
1 16
1 17
1 18
1 19
1 20
1 21
1 22
1 23
1 24
POINT_DATA 25
VECTORS velocity double
-2.46505e-27 -0.00970858 0
-1.77728e-27 -0.00970858 0
1.54287e-28 -0.00970858 0
2.41699e-27 -0.00970858 0
3.61647e-27 -0.00970858 0
1.51065e-27 -0.00970858 0
3.73709e-27 -0.00970858 0
-3.59151e-28 -0.00970858 0
-1.6487e-27 -0.00970858 0
1.02003e-27 -0.00970858 0
-1.01874e-27 -0.00970858 0
3.32953e-27 -0.00970858 0
-1.9147e-27 -0.00970858 0
-3.38644e-27 -0.00970858 0
-1.25272e-27 -0.00970858 0
3.50869e-27 -0.00970858 0
4.02801e-28 -0.00970858 0
2.37367e-27 -0.00970858 0
1.14198e-27 -0.00970858 0
2.18898e-27 -0.00970858 0
-1.19315e-27 -0.00970858 0
8.71642e-28 -0.00970858 0
-3.15111e-27 -0.00970858 0
-2.88323e-28 -0.00970858 0
-3.31712e-27 -0.00970858 0
SCALARS radius double 1
LOOKUP_TABLE default
0.000621415
0.000750874
0.000735541
0.000522882
0.000780242
0.00097475
0.000994168
0.000790412
0.000880848
0.000720838
0.000933918
0.000958934
0.000753488
0.00054522
0.000712397
0.000950783
0.000807753
0.000836475
0.000569299
0.000603945
0.000628319
0.000580291
0.000777192
0.000692678
0.00055675
SCALARS mass double 1
LOOKUP_TABLE default
0.00327549
0.00478242
0.00458909
0.0023191
0.00516383
0.00805935
0.00838365
0.00529932
0.00658136
0.00440747
0.00739829
0.00779994
0.00481578
0.00252149
0.00430484
0.0076679
0.0055344
0.00593499
0.00274913
0.00309392
0.00334869
0.00285631
0.00512354
0.00406984
0.00262926
