# vtk DataFile Version 3.0
DEM2D particles
ASCII
DATASET POLYDATA
POINTS 25 double
0.000436511 0.00083085 0
0.00259373 0.000618876 0
0.00503527 0.00141017 0
0.0075525 -3.84206e-05 0
0.00982669 0.000119516 0
0.00134532 0.00299464 0
0.00385427 0.00248309 0
0.0049179 0.00159258 0
0.00662312 0.00322872 0
0.00923317 0.00254254 0
0.000767124 0.00473012 0
0.0037611 0.00362268 0
0.00456232 0.00480886 0
0.00622589 0.00502708 0
0.00871364 0.00427639 0
0.00180206 0.00644192 0
0.00309208 0.00574506 0
0.0055426 0.00618505 0
0.00726105 0.00732791 0
0.00950038 0.0071329 0
0.000727257 0.00831634 0
0.00319925 0.00766664 0
0.00427968 0.00873772 0
0.00693409 0.00817681 0
0.00824173 0.00860427 0
VERTICES 25 50
1 0
1 1
1 2
1 3
1 4
1 5
1 6
1 7
1 8
1 9
1 10
1 11
1 12
1 13
1 14
1 15
1 16
1 17
1 18
1 19
1 20
1 21
1 22
1 23
1 24
POINT_DATA 25
VECTORS velocity double
-6.14559e-26 -0.00970858 0
-4.43092e-26 -0.00970858 0
3.84651e-27 -0.00970858 0
6.02578e-26 -0.00970858 0
9.01619e-26 -0.00970858 0
3.76618e-26 -0.00970858 0
9.31689e-26 -0.00970858 0
-8.95395e-27 -0.00970858 0
-4.11036e-26 -0.00970858 0
2.54302e-26 -0.00970858 0
-2.53982e-26 -0.00970858 0
8.30082e-26 -0.00970858 0
-4.77351e-26 -0.00970858 0
-8.44269e-26 -0.00970858 0
-3.12314e-26 -0.00970858 0
8.74748e-26 -0.00970858 0
1.00422e-26 -0.00970858 0
5.91778e-26 -0.00970858 0
2.84706e-26 -0.00970858 0
5.45733e-26 -0.00970858 0
-2.97462e-26 -0.00970858 0
2.17308e-26 -0.00970858 0
-7.856e-26 -0.00970858 0
-7.18814e-27 -0.00970858 0
-8.26988e-26 -0.00970858 0
SCALARS radius double 1
LOOKUP_TABLE default
0.000621415
0.000750874
0.000735541
0.000522882
0.000780242
0.00097475
0.000994168
0.000790412
0.000880848
0.000720838
0.000933918
0.000958934
0.000753488
0.00054522
0.000712397
0.000950783
0.000807753
0.000836475
0.000569299
0.000603945
0.000628319
0.000580291
0.000777192
0.000692678
0.00055675
SCALARS mass double 1
LOOKUP_TABLE default
0.00327549
0.00478242
0.00458909
0.0023191
0.00516383
0.00805935
0.00838365
0.00529932
0.00658136
0.00440747
0.00739829
0.00779994
0.00481578
0.00252149
0.00430484
0.0076679
0.0055344
0.00593499
0.00274913
0.00309392
0.00334869
0.00285631
0.00512354
0.00406984
0.00262926
