# vtk DataFile Version 3.0
DEM2D particles
ASCII
DATASET POLYDATA
POINTS 25 double
0.000436511 0.00105026 0
0.00259373 0.00083829 0
0.00503527 0.00162958 0
0.0075525 0.000180993 0
0.00982669 0.00033893 0
0.00134532 0.00321405 0
0.00385427 0.0027025 0
0.0049179 0.001812 0
0.00662312 0.00344813 0
0.00923317 0.00276195 0
0.000767124 0.00494954 0
0.0037611 0.0038421 0
0.00456232 0.00502827 0
0.00622589 0.0052465 0
0.00871364 0.0044958 0
0.00180206 0.00666133 0
0.00309208 0.00596447 0
0.0055426 0.00640446 0
0.00726105 0.00754733 0
0.00950038 0.00735231 0
0.000727257 0.00853575 0
0.00319925 0.00788606 0
0.00427968 0.00895713 0
0.00693409 0.00839622 0
0.00824173 0.00882369 0
VERTICES 25 50
1 0
1 1
1 2
1 3
1 4
1 5
1 6
1 7
1 8
1 9
1 10
1 11
1 12
1 13
1 14
1 15
1 16
1 17
1 18
1 19
1 20
1 21
1 22
1 23
1 24
POINT_DATA 25
VECTORS velocity double
-4.49804e-16 -0.00970858 0
-3.24305e-16 -0.00970858 0
2.81532e-17 -0.00970858 0
4.41035e-16 -0.00970858 0
6.59908e-16 -0.00970858 0
2.75652e-16 -0.00970858 0
6.81917e-16 -0.00970858 0
-6.55353e-17 -0.00970858 0
-3.00843e-16 -0.00970858 0
1.86127e-16 -0.00970858 0
-1.85893e-16 -0.00970858 0
6.07549e-16 -0.00970858 0
-3.4938e-16 -0.00970858 0
-6.17933e-16 -0.00970858 0
-2.28587e-16 -0.00970858 0
6.40241e-16 -0.00970858 0
7.35003e-17 -0.00970858 0
4.33131e-16 -0.00970858 0
2.08381e-16 -0.00970858 0
3.9943e-16 -0.00970858 0
-2.17717e-16 -0.00970858 0
1.59051e-16 -0.00970858 0
-5.74992e-16 -0.00970858 0
-5.2611e-17 -0.00970858 0
-6.05284e-16 -0.00970858 0
SCALARS radius double 1
LOOKUP_TABLE default
0.000621415
0.000750874
0.000735541
0.000522882
0.000780242
0.00097475
0.000994168
0.000790412
0.000880848
0.000720838
0.000933918
0.000958934
0.000753488
0.00054522
0.000712397
0.000950783
0.000807753
0.000836475
0.000569299
0.000603945
0.000628319
0.000580291
0.000777192
0.000692678
0.00055675
SCALARS mass double 1
LOOKUP_TABLE default
0.00327549
0.00478242
0.00458909
0.0023191
0.00516383
0.00805935
0.00838365
0.00529932
0.00658136
0.00440747
0.00739829
0.00779994
0.00481578
0.00252149
0.00430484
0.0076679
0.0055344
0.00593499
0.00274913
0.00309392
0.00334869
0.00285631
0.00512354
0.00406984
0.00262926
