# vtk DataFile Version 3.0
DEM2D particles
ASCII
DATASET POLYDATA
POINTS 25 double
0.000436511 -0.000145833 0
0.00259373 -0.000357808 0
0.00503527 0.000433483 0
0.0075525 -0.0010151 0
0.00982669 -0.000857167 0
0.00134532 0.00201795 0
0.00385427 0.0015064 0
0.0049179 0.000615898 0
0.00662312 0.00225204 0
0.00923317 0.00156585 0
0.000767124 0.00375344 0
0.0037611 0.002646 0
0.00456232 0.00383218 0
0.00622589 0.0040504 0
0.00871364 0.0032997 0
0.00180206 0.00546523 0
0.00309208 0.00476837 0
0.0055426 0.00520837 0
0.00726105 0.00635123 0
0.00950038 0.00615622 0
0.000727257 0.00733966 0
0.00319925 0.00668996 0
0.00427968 0.00776104 0
0.00693409 0.00720013 0
0.00824173 0.00762759 0
VERTICES 25 50
1 0
1 1
1 2
1 3
1 4
1 5
1 6
1 7
1 8
1 9
1 10
1 11
1 12
1 13
1 14
1 15
1 16
1 17
1 18
1 19
1 20
1 21
1 22
1 23
1 24
POINT_DATA 25
VECTORS velocity double
-7.56173e-70 -0.00970858 0
-5.45195e-70 -0.00970858 0
4.73287e-71 -0.00970858 0
7.41431e-70 -0.00970858 0
1.10938e-69 -0.00970858 0
4.63403e-70 -0.00970858 0
1.14638e-69 -0.00970858 0
-1.10172e-70 -0.00970858 0
-5.05752e-70 -0.00970858 0
3.12901e-70 -0.00970858 0
-3.12507e-70 -0.00970858 0
1.02136e-69 -0.00970858 0
-5.87348e-70 -0.00970858 0
-1.03882e-69 -0.00970858 0
-3.84281e-70 -0.00970858 0
1.07632e-69 -0.00970858 0
1.23562e-70 -0.00970858 0
7.28143e-70 -0.00970858 0
3.50312e-70 -0.00970858 0
6.71488e-70 -0.00970858 0
-3.66007e-70 -0.00970858 0
2.67383e-70 -0.00970858 0
-9.66627e-70 -0.00970858 0
-8.84452e-71 -0.00970858 0
-1.01755e-69 -0.00970858 0
SCALARS radius double 1
LOOKUP_TABLE default
0.000621415
0.000750874
0.000735541
0.000522882
0.000780242
0.00097475
0.000994168
0.000790412
0.000880848
0.000720838
0.000933918
0.000958934
0.000753488
0.00054522
0.000712397
0.000950783
0.000807753
0.000836475
0.000569299
0.000603945
0.000628319
0.000580291
0.000777192
0.000692678
0.00055675
SCALARS mass double 1
LOOKUP_TABLE default
0.00327549
0.00478242
0.00458909
0.0023191
0.00516383
0.00805935
0.00838365
0.00529932
0.00658136
0.00440747
0.00739829
0.00779994
0.00481578
0.00252149
0.00430484
0.0076679
0.0055344
0.00593499
0.00274913
0.00309392
0.00334869
0.00285631
0.00512354
0.00406984
0.00262926
