# vtk DataFile Version 3.0
DEM2D particles
ASCII
DATASET POLYDATA
POINTS 25 double
0.000436511 0.00122502 0
0.00259373 0.00101304 0
0.00503527 0.00180433 0
0.0075525 0.000355748 0
0.00982669 0.000513685 0
0.00134532 0.0033888 0
0.00385427 0.00287725 0
0.0049179 0.00198675 0
0.00662312 0.00362289 0
0.00923317 0.0029367 0
0.000767124 0.00512429 0
0.0037611 0.00401685 0
0.00456232 0.00520303 0
0.00622589 0.00542125 0
0.00871364 0.00467056 0
0.00180206 0.00683609 0
0.00309208 0.00613922 0
0.0055426 0.00657922 0
0.00726105 0.00772208 0
0.00950038 0.00752707 0
0.000727257 0.00871051 0
0.00319925 0.00806081 0
0.00427968 0.00913189 0
0.00693409 0.00857098 0
0.00824173 0.00899844 0
VERTICES 25 50
1 0
1 1
1 2
1 3
1 4
1 5
1 6
1 7
1 8
1 9
1 10
1 11
1 12
1 13
1 14
1 15
1 16
1 17
1 18
1 19
1 20
1 21
1 22
1 23
1 24
POINT_DATA 25
VECTORS velocity double
-3.2335e-08 -0.00970856 0
-2.33133e-08 -0.00970857 0
2.02384e-09 -0.00970853 0
3.17046e-08 -0.00970861 0
4.74387e-08 -0.0097086 0
1.98158e-08 -0.00970855 0
4.90209e-08 -0.00970858 0
-4.71113e-09 -0.00970863 0
-2.16267e-08 -0.00970854 0
1.33801e-08 -0.00970858 0
-1.33633e-08 -0.00970857 0
4.36748e-08 -0.00970863 0
-2.51158e-08 -0.00970856 0
-4.44213e-08 -0.00970855 0
-1.64324e-08 -0.00970859 0
4.60249e-08 -0.00970858 0
5.28371e-09 -0.00970862 0
3.11364e-08 -0.0097086 0
1.49798e-08 -0.00970853 0
2.87138e-08 -0.00970854 0
-1.5651e-08 -0.00970859 0
1.14337e-08 -0.00970863 0
-4.13344e-08 -0.00970857 0
-3.78204e-09 -0.0097086 0
-4.3512e-08 -0.00970857 0
SCALARS radius double 1
LOOKUP_TABLE default
0.000621415
0.000750874
0.000735541
0.000522882
0.000780242
0.00097475
0.000994168
0.000790412
0.000880848
0.000720838
0.000933918
0.000958934
0.000753488
0.00054522
0.000712397
0.000950783
0.000807753
0.000836475
0.000569299
0.000603945
0.000628319
0.000580291
0.000777192
0.000692678
0.00055675
SCALARS mass double 1
LOOKUP_TABLE default
0.00327549
0.00478242
0.00458909
0.0023191
0.00516383
0.00805935
0.00838365
0.00529932
0.00658136
0.00440747
0.00739829
0.00779994
0.00481578
0.00252149
0.00430484
0.0076679
0.0055344
0.00593499
0.00274913
0.00309392
0.00334869
0.00285631
0.00512354
0.00406984
0.00262926
