# vtk DataFile Version 3.0
DEM2D particles
ASCII
DATASET POLYDATA
POINTS 25 double
0.000436511 0.000372605 0
0.00259373 0.000160631 0
0.00503527 0.000951921 0
0.0075525 -0.000496666 0
0.00982669 -0.000338729 0
0.00134532 0.00253639 0
0.00385427 0.00202484 0
0.0049179 0.00113434 0
0.00662312 0.00277048 0
0.00923317 0.00208429 0
0.000767124 0.00427188 0
0.0037611 0.00316444 0
0.00456232 0.00435061 0
0.00622589 0.00456884 0
0.00871364 0.00381814 0
0.00180206 0.00598367 0
0.00309208 0.00528681 0
0.0055426 0.0057268 0
0.00726105 0.00686967 0
0.00950038 0.00667465 0
0.000727257 0.0078581 0
0.00319925 0.0072084 0
0.00427968 0.00827947 0
0.00693409 0.00771857 0
0.00824173 0.00814603 0
VERTICES 25 50
1 0
1 1
1 2
1 3
1 4
1 5
1 6
1 7
1 8
1 9
1 10
1 11
1 12
1 13
1 14
1 15
1 16
1 17
1 18
1 19
1 20
1 21
1 22
1 23
1 24
POINT_DATA 25
VECTORS velocity double
-1.53703e-46 -0.00970858 0
-1.10819e-46 -0.00970858 0
9.62023e-48 -0.00970858 0
1.50706e-46 -0.00970858 0
2.25497e-46 -0.00970858 0
9.41931e-47 -0.00970858 0
2.33018e-46 -0.00970858 0
-2.23941e-47 -0.00970858 0
-1.02801e-46 -0.00970858 0
6.36016e-47 -0.00970858 0
-6.35215e-47 -0.00970858 0
2.07606e-46 -0.00970858 0
-1.19387e-46 -0.00970858 0
-2.11154e-46 -0.00970858 0
-7.81106e-47 -0.00970858 0
2.18777e-46 -0.00970858 0
2.51158e-47 -0.00970858 0
1.48005e-46 -0.00970858 0
7.12059e-47 -0.00970858 0
1.36489e-46 -0.00970858 0
-7.43961e-47 -0.00970858 0
5.43494e-47 -0.00970858 0
-1.96481e-46 -0.00970858 0
-1.79777e-47 -0.00970858 0
-2.06832e-46 -0.00970858 0
SCALARS radius double 1
LOOKUP_TABLE default
0.000621415
0.000750874
0.000735541
0.000522882
0.000780242
0.00097475
0.000994168
0.000790412
0.000880848
0.000720838
0.000933918
0.000958934
0.000753488
0.00054522
0.000712397
0.000950783
0.000807753
0.000836475
0.000569299
0.000603945
0.000628319
0.000580291
0.000777192
0.000692678
0.00055675
SCALARS mass double 1
LOOKUP_TABLE default
0.00327549
0.00478242
0.00458909
0.0023191
0.00516383
0.00805935
0.00838365
0.00529932
0.00658136
0.00440747
0.00739829
0.00779994
0.00481578
0.00252149
0.00430484
0.0076679
0.0055344
0.00593499
0.00274913
0.00309392
0.00334869
0.00285631
0.00512354
0.00406984
0.00262926
