# vtk DataFile Version 3.0
DEM2D particles
ASCII
DATASET POLYDATA
POINTS 25 double
0.000436511 0.0001629 0
0.00259373 -4.90746e-05 0
0.00503527 0.000742216 0
0.0075525 -0.000706371 0
0.00982669 -0.000548434 0
0.00134532 0.00232669 0
0.00385427 0.00181513 0
0.0049179 0.000924631 0
0.00662312 0.00256077 0
0.00923317 0.00187458 0
0.000767124 0.00406217 0
0.0037611 0.00295473 0
0.00456232 0.00414091 0
0.00622589 0.00435913 0
0.00871364 0.00360844 0
0.00180206 0.00577397 0
0.00309208 0.0050771 0
0.0055426 0.0055171 0
0.00726105 0.00665996 0
0.00950038 0.00646495 0
0.000727257 0.00764839 0
0.00319925 0.00699869 0
0.00427968 0.00806977 0
0.00693409 0.00750886 0
0.00824173 0.00793632 0
VERTICES 25 50
1 0
1 1
1 2
1 3
1 4
1 5
1 6
1 7
1 8
1 9
1 10
1 11
1 12
1 13
1 14
1 15
1 16
1 17
1 18
1 19
1 20
1 21
1 22
1 23
1 24
POINT_DATA 25
VECTORS velocity double
-5.73723e-56 -0.00970858 0
-4.1365e-56 -0.00970858 0
3.59092e-57 -0.00970858 0
5.62538e-56 -0.00970858 0
8.41709e-56 -0.00970858 0
3.51593e-56 -0.00970858 0
8.69781e-56 -0.00970858 0
-8.35899e-57 -0.00970858 0
-3.83724e-56 -0.00970858 0
2.37404e-56 -0.00970858 0
-2.37105e-56 -0.00970858 0
7.74925e-56 -0.00970858 0
-4.45632e-56 -0.00970858 0
-7.8817e-56 -0.00970858 0
-2.91562e-56 -0.00970858 0
8.16623e-56 -0.00970858 0
9.37492e-57 -0.00970858 0
5.52456e-56 -0.00970858 0
2.65788e-56 -0.00970858 0
5.09471e-56 -0.00970858 0
-2.77697e-56 -0.00970858 0
2.02869e-56 -0.00970858 0
-7.33399e-56 -0.00970858 0
-6.71051e-57 -0.00970858 0
-7.72036e-56 -0.00970858 0
SCALARS radius double 1
LOOKUP_TABLE default
0.000621415
0.000750874
0.000735541
0.000522882
0.000780242
0.00097475
0.000994168
0.000790412
0.000880848
0.000720838
0.000933918
0.000958934
0.000753488
0.00054522
0.000712397
0.000950783
0.000807753
0.000836475
0.000569299
0.000603945
0.000628319
0.000580291
0.000777192
0.000692678
0.00055675
SCALARS mass double 1
LOOKUP_TABLE default
0.00327549
0.00478242
0.00458909
0.0023191
0.00516383
0.00805935
0.00838365
0.00529932
0.00658136
0.00440747
0.00739829
0.00779994
0.00481578
0.00252149
0.00430484
0.0076679
0.0055344
0.00593499
0.00274913
0.00309392
0.00334869
0.00285631
0.00512354
0.00406984
0.00262926
