# vtk DataFile Version 3.0
DEM2D particles
ASCII
DATASET POLYDATA
POINTS 25 double
0.000436511 0.000790074 0
0.00259373 0.0005781 0
0.00503527 0.00136939 0
0.0075525 -7.91966e-05 0
0.00982669 7.87404e-05 0
0.00134532 0.00295386 0
0.00385427 0.00244231 0
0.0049179 0.00155181 0
0.00662312 0.00318794 0
0.00923317 0.00250176 0
0.000767124 0.00468935 0
0.0037611 0.00358191 0
0.00456232 0.00476808 0
0.00622589 0.00498631 0
0.00871364 0.00423561 0
0.00180206 0.00640114 0
0.00309208 0.00570428 0
0.0055426 0.00614427 0
0.00726105 0.00728714 0
0.00950038 0.00709212 0
0.000727257 0.00827556 0
0.00319925 0.00762587 0
0.00427968 0.00869694 0
0.00693409 0.00813603 0
0.00824173 0.0085635 0
VERTICES 25 50
1 0
1 1
1 2
1 3
1 4
1 5
1 6
1 7
1 8
1 9
1 10
1 11
1 12
1 13
1 14
1 15
1 16
1 17
1 18
1 19
1 20
1 21
1 22
1 23
1 24
POINT_DATA 25
VECTORS velocity double
-9.02288e-28 -0.00970858 0
-6.50543e-28 -0.00970858 0
5.6474e-29 -0.00970858 0
8.84697e-28 -0.00970858 0
1.32375e-27 -0.00970858 0
5.52946e-28 -0.00970858 0
1.3679e-27 -0.00970858 0
-1.31461e-28 -0.00970858 0
-6.03479e-28 -0.00970858 0
3.73363e-28 -0.00970858 0
-3.72893e-28 -0.00970858 0
1.21872e-27 -0.00970858 0
-7.00841e-28 -0.00970858 0
-1.23955e-27 -0.00970858 0
-4.58536e-28 -0.00970858 0
1.28429e-27 -0.00970858 0
1.47438e-28 -0.00970858 0
8.68842e-28 -0.00970858 0
4.18003e-28 -0.00970858 0
8.01239e-28 -0.00970858 0
-4.36731e-28 -0.00970858 0
3.19049e-28 -0.00970858 0
-1.15341e-27 -0.00970858 0
-1.05535e-28 -0.00970858 0
-1.21417e-27 -0.00970858 0
SCALARS radius double 1
LOOKUP_TABLE default
0.000621415
0.000750874
0.000735541
0.000522882
0.000780242
0.00097475
0.000994168
0.000790412
0.000880848
0.000720838
0.000933918
0.000958934
0.000753488
0.00054522
0.000712397
0.000950783
0.000807753
0.000836475
0.000569299
0.000603945
0.000628319
0.000580291
0.000777192
0.000692678
0.00055675
SCALARS mass double 1
LOOKUP_TABLE default
0.00327549
0.00478242
0.00458909
0.0023191
0.00516383
0.00805935
0.00838365
0.00529932
0.00658136
0.00440747
0.00739829
0.00779994
0.00481578
0.00252149
0.00430484
0.0076679
0.0055344
0.00593499
0.00274913
0.00309392
0.00334869
0.00285631
0.00512354
0.00406984
0.00262926
