# vtk DataFile Version 3.0
DEM2D particles
ASCII
DATASET POLYDATA
POINTS 25 double
0.000436511 -9.91324e-06 0
0.00259373 -0.000221887 0
0.00503527 0.000569403 0
0.0075525 -0.000879184 0
0.00982669 -0.000721247 0
0.00134532 0.00215387 0
0.00385427 0.00164232 0
0.0049179 0.000751819 0
0.00662312 0.00238796 0
0.00923317 0.00170177 0
0.000767124 0.00388936 0
0.0037611 0.00278192 0
0.00456232 0.0039681 0
0.00622589 0.00418632 0
0.00871364 0.00343562 0
0.00180206 0.00560115 0
0.00309208 0.00490429 0
0.0055426 0.00534429 0
0.00726105 0.00648715 0
0.00950038 0.00629214 0
0.000727257 0.00747558 0
0.00319925 0.00682588 0
0.00427968 0.00789696 0
0.00693409 0.00733605 0
0.00824173 0.00776351 0
VERTICES 25 50
1 0
1 1
1 2
1 3
1 4
1 5
1 6
1 7
1 8
1 9
1 10
1 11
1 12
1 13
1 14
1 15
1 16
1 17
1 18
1 19
1 20
1 21
1 22
1 23
1 24
POINT_DATA 25
VECTORS velocity double
-9.75772e-64 -0.00970858 0
-7.03525e-64 -0.00970858 0
6.10734e-65 -0.00970858 0
9.56749e-64 -0.00970858 0
1.43156e-63 -0.00970858 0
5.97979e-64 -0.00970858 0
1.4793e-63 -0.00970858 0
-1.42167e-64 -0.00970858 0
-6.52628e-64 -0.00970858 0
4.03771e-64 -0.00970858 0
-4.03262e-64 -0.00970858 0
1.31797e-63 -0.00970858 0
-7.57919e-64 -0.00970858 0
-1.3405e-63 -0.00970858 0
-4.9588e-64 -0.00970858 0
1.38889e-63 -0.00970858 0
1.59446e-64 -0.00970858 0
9.39602e-64 -0.00970858 0
4.52046e-64 -0.00970858 0
8.66494e-64 -0.00970858 0
-4.72299e-64 -0.00970858 0
3.45034e-64 -0.00970858 0
-1.24735e-63 -0.00970858 0
-1.14131e-64 -0.00970858 0
-1.31306e-63 -0.00970858 0
SCALARS radius double 1
LOOKUP_TABLE default
0.000621415
0.000750874
0.000735541
0.000522882
0.000780242
0.00097475
0.000994168
0.000790412
0.000880848
0.000720838
0.000933918
0.000958934
0.000753488
0.00054522
0.000712397
0.000950783
0.000807753
0.000836475
0.000569299
0.000603945
0.000628319
0.000580291
0.000777192
0.000692678
0.00055675
SCALARS mass double 1
LOOKUP_TABLE default
0.00327549
0.00478242
0.00458909
0.0023191
0.00516383
0.00805935
0.00838365
0.00529932
0.00658136
0.00440747
0.00739829
0.00779994
0.00481578
0.00252149
0.00430484
0.0076679
0.0055344
0.00593499
0.00274913
0.00309392
0.00334869
0.00285631
0.00512354
0.00406984
0.00262926
