# vtk DataFile Version 3.0
DEM2D particles
ASCII
DATASET POLYDATA
POINTS 25 double
0.000436511 0.000386197 0
0.00259373 0.000174223 0
0.00503527 0.000965513 0
0.0075525 -0.000483074 0
0.00982669 -0.000325137 0
0.00134532 0.00254998 0
0.00385427 0.00203843 0
0.0049179 0.00114793 0
0.00662312 0.00278407 0
0.00923317 0.00209788 0
0.000767124 0.00428547 0
0.0037611 0.00317803 0
0.00456232 0.00436421 0
0.00622589 0.00458243 0
0.00871364 0.00383173 0
0.00180206 0.00599726 0
0.00309208 0.0053004 0
0.0055426 0.0057404 0
0.00726105 0.00688326 0
0.00950038 0.00668825 0
0.000727257 0.00787169 0
0.00319925 0.00722199 0
0.00427968 0.00829307 0
0.00693409 0.00773216 0
0.00824173 0.00815962 0
VERTICES 25 50
1 0
1 1
1 2
1 3
1 4
1 5
1 6
1 7
1 8
1 9
1 10
1 11
1 12
1 13
1 14
1 15
1 16
1 17
1 18
1 19
1 20
1 21
1 22
1 23
1 24
POINT_DATA 25
VECTORS velocity double
-6.27704e-46 -0.00970858 0
-4.5257e-46 -0.00970858 0
3.92878e-47 -0.00970858 0
6.15466e-46 -0.00970858 0
9.20904e-46 -0.00970858 0
3.84673e-46 -0.00970858 0
9.51617e-46 -0.00970858 0
-9.14547e-47 -0.00970858 0
-4.19828e-46 -0.00970858 0
2.59741e-46 -0.00970858 0
-2.59414e-46 -0.00970858 0
8.47837e-46 -0.00970858 0
-4.87561e-46 -0.00970858 0
-8.62328e-46 -0.00970858 0
-3.18994e-46 -0.00970858 0
8.93458e-46 -0.00970858 0
1.0257e-46 -0.00970858 0
6.04436e-46 -0.00970858 0
2.90796e-46 -0.00970858 0
5.57406e-46 -0.00970858 0
-3.03825e-46 -0.00970858 0
2.21956e-46 -0.00970858 0
-8.02403e-46 -0.00970858 0
-7.34189e-47 -0.00970858 0
-8.44676e-46 -0.00970858 0
SCALARS radius double 1
LOOKUP_TABLE default
0.000621415
0.000750874
0.000735541
0.000522882
0.000780242
0.00097475
0.000994168
0.000790412
0.000880848
0.000720838
0.000933918
0.000958934
0.000753488
0.00054522
0.000712397
0.000950783
0.000807753
0.000836475
0.000569299
0.000603945
0.000628319
0.000580291
0.000777192
0.000692678
0.00055675
SCALARS mass double 1
LOOKUP_TABLE default
0.00327549
0.00478242
0.00458909
0.0023191
0.00516383
0.00805935
0.00838365
0.00529932
0.00658136
0.00440747
0.00739829
0.00779994
0.00481578
0.00252149
0.00430484
0.0076679
0.0055344
0.00593499
0.00274913
0.00309392
0.00334869
0.00285631
0.00512354
0.00406984
0.00262926
