# vtk DataFile Version 3.0
DEM2D particles
ASCII
DATASET POLYDATA
POINTS 25 double
0.000436511 0.000500758 0
0.00259373 0.000288784 0
0.00503527 0.00108007 0
0.0075525 -0.000368512 0
0.00982669 -0.000210575 0
0.00134532 0.00266454 0
0.00385427 0.00215299 0
0.0049179 0.00126249 0
0.00662312 0.00289863 0
0.00923317 0.00221244 0
0.000767124 0.00440003 0
0.0037611 0.00329259 0
0.00456232 0.00447877 0
0.00622589 0.00469699 0
0.00871364 0.0039463 0
0.00180206 0.00611183 0
0.00309208 0.00541496 0
0.0055426 0.00585496 0
0.00726105 0.00699782 0
0.00950038 0.00680281 0
0.000727257 0.00798625 0
0.00319925 0.00733655 0
0.00427968 0.00840763 0
0.00693409 0.00784672 0
0.00824173 0.00827418 0
VERTICES 25 50
1 0
1 1
1 2
1 3
1 4
1 5
1 6
1 7
1 8
1 9
1 10
1 11
1 12
1 13
1 14
1 15
1 16
1 17
1 18
1 19
1 20
1 21
1 22
1 23
1 24
POINT_DATA 25
VECTORS velocity double
-8.87616e-41 -0.00970858 0
-6.39964e-41 -0.00970858 0
5.55557e-42 -0.00970858 0
8.70311e-41 -0.00970858 0
1.30222e-40 -0.00970858 0
5.43954e-41 -0.00970858 0
1.34565e-40 -0.00970858 0
-1.29323e-41 -0.00970858 0
-5.93666e-41 -0.00970858 0
3.67292e-41 -0.00970858 0
-3.66829e-41 -0.00970858 0
1.1989e-40 -0.00970858 0
-6.89444e-41 -0.00970858 0
-1.21939e-40 -0.00970858 0
-4.5108e-41 -0.00970858 0
1.26341e-40 -0.00970858 0
1.45041e-41 -0.00970858 0
8.54714e-41 -0.00970858 0
4.11205e-41 -0.00970858 0
7.8821e-41 -0.00970858 0
-4.29629e-41 -0.00970858 0
3.13861e-41 -0.00970858 0
-1.13465e-40 -0.00970858 0
-1.03819e-41 -0.00970858 0
-1.19443e-40 -0.00970858 0
SCALARS radius double 1
LOOKUP_TABLE default
0.000621415
0.000750874
0.000735541
0.000522882
0.000780242
0.00097475
0.000994168
0.000790412
0.000880848
0.000720838
0.000933918
0.000958934
0.000753488
0.00054522
0.000712397
0.000950783
0.000807753
0.000836475
0.000569299
0.000603945
0.000628319
0.000580291
0.000777192
0.000692678
0.00055675
SCALARS mass double 1
LOOKUP_TABLE default
0.00327549
0.00478242
0.00458909
0.0023191
0.00516383
0.00805935
0.00838365
0.00529932
0.00658136
0.00440747
0.00739829
0.00779994
0.00481578
0.00252149
0.00430484
0.0076679
0.0055344
0.00593499
0.00274913
0.00309392
0.00334869
0.00285631
0.00512354
0.00406984
0.00262926
