# vtk DataFile Version 3.0
DEM2D particles
ASCII
DATASET POLYDATA
POINTS 25 double
0.000436511 0.000195909 0
0.00259373 -1.60654e-05 0
0.00503527 0.000775225 0
0.0075525 -0.000673362 0
0.00982669 -0.000515425 0
0.00134532 0.0023597 0
0.00385427 0.00184814 0
0.0049179 0.000957641 0
0.00662312 0.00259378 0
0.00923317 0.00190759 0
0.000767124 0.00409518 0
0.0037611 0.00298774 0
0.00456232 0.00417392 0
0.00622589 0.00439214 0
0.00871364 0.00364145 0
0.00180206 0.00580698 0
0.00309208 0.00511011 0
0.0055426 0.00555011 0
0.00726105 0.00669297 0
0.00950038 0.00649796 0
0.000727257 0.0076814 0
0.00319925 0.0070317 0
0.00427968 0.00810278 0
0.00693409 0.00754187 0
0.00824173 0.00796933 0
VERTICES 25 50
1 0
1 1
1 2
1 3
1 4
1 5
1 6
1 7
1 8
1 9
1 10
1 11
1 12
1 13
1 14
1 15
1 16
1 17
1 18
1 19
1 20
1 21
1 22
1 23
1 24
POINT_DATA 25
VECTORS velocity double
-1.74878e-54 -0.00970858 0
-1.26086e-54 -0.00970858 0
1.09456e-55 -0.00970858 0
1.71469e-54 -0.00970858 0
2.56564e-54 -0.00970858 0
1.0717e-54 -0.00970858 0
2.65121e-54 -0.00970858 0
-2.54793e-55 -0.00970858 0
-1.16964e-54 -0.00970858 0
7.23639e-55 -0.00970858 0
-7.22728e-55 -0.00970858 0
2.36208e-54 -0.00970858 0
-1.35835e-54 -0.00970858 0
-2.40245e-54 -0.00970858 0
-8.88719e-55 -0.00970858 0
2.48918e-54 -0.00970858 0
2.8576e-55 -0.00970858 0
1.68396e-54 -0.00970858 0
8.10158e-55 -0.00970858 0
1.55293e-54 -0.00970858 0
-8.46456e-55 -0.00970858 0
6.18371e-55 -0.00970858 0
-2.2355e-54 -0.00970858 0
-2.04545e-55 -0.00970858 0
-2.35327e-54 -0.00970858 0
SCALARS radius double 1
LOOKUP_TABLE default
0.000621415
0.000750874
0.000735541
0.000522882
0.000780242
0.00097475
0.000994168
0.000790412
0.000880848
0.000720838
0.000933918
0.000958934
0.000753488
0.00054522
0.000712397
0.000950783
0.000807753
0.000836475
0.000569299
0.000603945
0.000628319
0.000580291
0.000777192
0.000692678
0.00055675
SCALARS mass double 1
LOOKUP_TABLE default
0.00327549
0.00478242
0.00458909
0.0023191
0.00516383
0.00805935
0.00838365
0.00529932
0.00658136
0.00440747
0.00739829
0.00779994
0.00481578
0.00252149
0.00430484
0.0076679
0.0055344
0.00593499
0.00274913
0.00309392
0.00334869
0.00285631
0.00512354
0.00406984
0.00262926
