# vtk DataFile Version 3.0
DEM2D particles
ASCII
DATASET POLYDATA
POINTS 25 double
0.000436511 -0.000161367 0
0.00259373 -0.000373341 0
0.00503527 0.000417949 0
0.0075525 -0.00103064 0
0.00982669 -0.000872701 0
0.00134532 0.00200242 0
0.00385427 0.00149087 0
0.0049179 0.000600365 0
0.00662312 0.0022365 0
0.00923317 0.00155032 0
0.000767124 0.00373791 0
0.0037611 0.00263047 0
0.00456232 0.00381664 0
0.00622589 0.00403487 0
0.00871364 0.00328417 0
0.00180206 0.0054497 0
0.00309208 0.00475284 0
0.0055426 0.00519283 0
0.00726105 0.00633569 0
0.00950038 0.00614068 0
0.000727257 0.00732412 0
0.00319925 0.00667443 0
0.00427968 0.0077455 0
0.00693409 0.00718459 0
0.00824173 0.00761205 0
VERTICES 25 50
1 0
1 1
1 2
1 3
1 4
1 5
1 6
1 7
1 8
1 9
1 10
1 11
1 12
1 13
1 14
1 15
1 16
1 17
1 18
1 19
1 20
1 21
1 22
1 23
1 24
POINT_DATA 25
VECTORS velocity double
-1.51444e-70 -0.00970858 0
-1.0919e-70 -0.00970858 0
9.47885e-72 -0.00970858 0
1.48492e-70 -0.00970858 0
2.22183e-70 -0.00970858 0
9.28089e-71 -0.00970858 0
2.29594e-70 -0.00970858 0
-2.2065e-71 -0.00970858 0
-1.01291e-70 -0.00970858 0
6.26669e-71 -0.00970858 0
-6.2588e-71 -0.00970858 0
2.04555e-70 -0.00970858 0
-1.17632e-70 -0.00970858 0
-2.08051e-70 -0.00970858 0
-7.69627e-71 -0.00970858 0
2.15562e-70 -0.00970858 0
2.47467e-71 -0.00970858 0
1.4583e-70 -0.00970858 0
7.01594e-71 -0.00970858 0
1.34484e-70 -0.00970858 0
-7.33028e-71 -0.00970858 0
5.35507e-71 -0.00970858 0
-1.93593e-70 -0.00970858 0
-1.77135e-71 -0.00970858 0
-2.03792e-70 -0.00970858 0
SCALARS radius double 1
LOOKUP_TABLE default
0.000621415
0.000750874
0.000735541
0.000522882
0.000780242
0.00097475
0.000994168
0.000790412
0.000880848
0.000720838
0.000933918
0.000958934
0.000753488
0.00054522
0.000712397
0.000950783
0.000807753
0.000836475
0.000569299
0.000603945
0.000628319
0.000580291
0.000777192
0.000692678
0.00055675
SCALARS mass double 1
LOOKUP_TABLE default
0.00327549
0.00478242
0.00458909
0.0023191
0.00516383
0.00805935
0.00838365
0.00529932
0.00658136
0.00440747
0.00739829
0.00779994
0.00481578
0.00252149
0.00430484
0.0076679
0.0055344
0.00593499
0.00274913
0.00309392
0.00334869
0.00285631
0.00512354
0.00406984
0.00262926
