# vtk DataFile Version 3.0
DEM2D particles
ASCII
DATASET POLYDATA
POINTS 25 double
0.000436511 0.00063862 0
0.00259373 0.000426646 0
0.00503527 0.00121794 0
0.0075525 -0.000230651 0
0.00982669 -7.27135e-05 0
0.00134532 0.00280241 0
0.00385427 0.00229086 0
0.0049179 0.00140035 0
0.00662312 0.00303649 0
0.00923317 0.00235031 0
0.000767124 0.00453789 0
0.0037611 0.00343045 0
0.00456232 0.00461663 0
0.00622589 0.00483485 0
0.00871364 0.00408416 0
0.00180206 0.00624969 0
0.00309208 0.00555283 0
0.0055426 0.00599282 0
0.00726105 0.00713568 0
0.00950038 0.00694067 0
0.000727257 0.00812411 0
0.00319925 0.00747441 0
0.00427968 0.00854549 0
0.00693409 0.00798458 0
0.00824173 0.00841204 0
VERTICES 25 50
1 0
1 1
1 2
1 3
1 4
1 5
1 6
1 7
1 8
1 9
1 10
1 11
1 12
1 13
1 14
1 15
1 16
1 17
1 18
1 19
1 20
1 21
1 22
1 23
1 24
POINT_DATA 25
VECTORS velocity double
-1.40039e-34 -0.00970858 0
-1.00967e-34 -0.00970858 0
8.765e-36 -0.00970858 0
1.37309e-34 -0.00970858 0
2.05451e-34 -0.00970858 0
8.58195e-35 -0.00970858 0
2.12303e-34 -0.00970858 0
-2.04033e-35 -0.00970858 0
-9.36625e-35 -0.00970858 0
5.79475e-35 -0.00970858 0
-5.78745e-35 -0.00970858 0
1.8915e-34 -0.00970858 0
-1.08773e-34 -0.00970858 0
-1.92383e-34 -0.00970858 0
-7.11667e-35 -0.00970858 0
1.99328e-34 -0.00970858 0
2.28831e-35 -0.00970858 0
1.34848e-34 -0.00970858 0
6.48758e-35 -0.00970858 0
1.24356e-34 -0.00970858 0
-6.77824e-35 -0.00970858 0
4.95178e-35 -0.00970858 0
-1.79014e-34 -0.00970858 0
-1.63796e-35 -0.00970858 0
-1.88445e-34 -0.00970858 0
SCALARS radius double 1
LOOKUP_TABLE default
0.000621415
0.000750874
0.000735541
0.000522882
0.000780242
0.00097475
0.000994168
0.000790412
0.000880848
0.000720838
0.000933918
0.000958934
0.000753488
0.00054522
0.000712397
0.000950783
0.000807753
0.000836475
0.000569299
0.000603945
0.000628319
0.000580291
0.000777192
0.000692678
0.00055675
SCALARS mass double 1
LOOKUP_TABLE default
0.00327549
0.00478242
0.00458909
0.0023191
0.00516383
0.00805935
0.00838365
0.00529932
0.00658136
0.00440747
0.00739829
0.00779994
0.00481578
0.00252149
0.00430484
0.0076679
0.0055344
0.00593499
0.00274913
0.00309392
0.00334869
0.00285631
0.00512354
0.00406984
0.00262926
