# vtk DataFile Version 3.0
DEM2D particles
ASCII
DATASET POLYDATA
POINTS 25 double
0.000436511 -0.000551652 0
0.00259373 -0.000763626 0
0.00503527 2.76642e-05 0
0.0075525 -0.00142092 0
0.00982669 -0.00126299 0
0.00134532 0.00161213 0
0.00385427 0.00110058 0
0.0049179 0.00021008 0
0.00662312 0.00184622 0
0.00923317 0.00116003 0
0.000767124 0.00334762 0
0.0037611 0.00224018 0
0.00456232 0.00342636 0
0.00622589 0.00364458 0
0.00871364 0.00289388 0
0.00180206 0.00505942 0
0.00309208 0.00436255 0
0.0055426 0.00480255 0
0.00726105 0.00594541 0
0.00950038 0.0057504 0
0.000727257 0.00693384 0
0.00319925 0.00628414 0
0.00427968 0.00735522 0
0.00693409 0.00679431 0
0.00824173 0.00722177 0
VERTICES 25 50
1 0
1 1
1 2
1 3
1 4
1 5
1 6
1 7
1 8
1 9
1 10
1 11
1 12
1 13
1 14
1 15
1 16
1 17
1 18
1 19
1 20
1 21
1 22
1 23
1 24
POINT_DATA 25
VECTORS velocity double
-4.30263e-88 -0.00970858 0
-3.10217e-88 -0.00970858 0
2.69301e-89 -0.00970858 0
4.21875e-88 -0.00970858 0
6.31239e-88 -0.00970858 0
2.63677e-88 -0.00970858 0
6.52292e-88 -0.00970858 0
-6.26882e-89 -0.00970858 0
-2.87774e-88 -0.00970858 0
1.78041e-88 -0.00970858 0
-1.77817e-88 -0.00970858 0
5.81155e-88 -0.00970858 0
-3.34202e-88 -0.00970858 0
-5.91088e-88 -0.00970858 0
-2.18657e-88 -0.00970858 0
6.12427e-88 -0.00970858 0
7.03072e-89 -0.00970858 0
4.14314e-88 -0.00970858 0
1.99328e-88 -0.00970858 0
3.82078e-88 -0.00970858 0
-2.08259e-88 -0.00970858 0
1.52141e-88 -0.00970858 0
-5.50012e-88 -0.00970858 0
-5.03255e-89 -0.00970858 0
-5.78989e-88 -0.00970858 0
SCALARS radius double 1
LOOKUP_TABLE default
0.000621415
0.000750874
0.000735541
0.000522882
0.000780242
0.00097475
0.000994168
0.000790412
0.000880848
0.000720838
0.000933918
0.000958934
0.000753488
0.00054522
0.000712397
0.000950783
0.000807753
0.000836475
0.000569299
0.000603945
0.000628319
0.000580291
0.000777192
0.000692678
0.00055675
SCALARS mass double 1
LOOKUP_TABLE default
0.00327549
0.00478242
0.00458909
0.0023191
0.00516383
0.00805935
0.00838365
0.00529932
0.00658136
0.00440747
0.00739829
0.00779994
0.00481578
0.00252149
0.00430484
0.0076679
0.0055344
0.00593499
0.00274913
0.00309392
0.00334869
0.00285631
0.00512354
0.00406984
0.00262926
