# vtk DataFile Version 3.0
DEM2D particles
ASCII
DATASET POLYDATA
POINTS 25 double
0.000436511 0.000432798 0
0.00259373 0.000220824 0
0.00503527 0.00101211 0
0.0075525 -0.000436472 0
0.00982669 -0.000278535 0
0.00134532 0.00259658 0
0.00385427 0.00208503 0
0.0049179 0.00119453 0
0.00662312 0.00283067 0
0.00923317 0.00214448 0
0.000767124 0.00433207 0
0.0037611 0.00322463 0
0.00456232 0.00441081 0
0.00622589 0.00462903 0
0.00871364 0.00387834 0
0.00180206 0.00604387 0
0.00309208 0.005347 0
0.0055426 0.005787 0
0.00726105 0.00692986 0
0.00950038 0.00673485 0
0.000727257 0.00791829 0
0.00319925 0.00726859 0
0.00427968 0.00833967 0
0.00693409 0.00777876 0
0.00824173 0.00820622 0
VERTICES 25 50
1 0
1 1
1 2
1 3
1 4
1 5
1 6
1 7
1 8
1 9
1 10
1 11
1 12
1 13
1 14
1 15
1 16
1 17
1 18
1 19
1 20
1 21
1 22
1 23
1 24
POINT_DATA 25
VECTORS velocity double
-7.81378e-44 -0.00970858 0
-5.63368e-44 -0.00970858 0
4.89063e-45 -0.00970858 0
7.66145e-44 -0.00970858 0
1.14636e-43 -0.00970858 0
4.78849e-44 -0.00970858 0
1.18459e-43 -0.00970858 0
-1.13845e-44 -0.00970858 0
-5.22611e-44 -0.00970858 0
3.23331e-44 -0.00970858 0
-3.22924e-44 -0.00970858 0
1.0554e-43 -0.00970858 0
-6.06926e-44 -0.00970858 0
-1.07344e-43 -0.00970858 0
-3.9709e-44 -0.00970858 0
1.11219e-43 -0.00970858 0
1.27681e-44 -0.00970858 0
7.52414e-44 -0.00970858 0
3.61989e-44 -0.00970858 0
6.9387e-44 -0.00970858 0
-3.78207e-44 -0.00970858 0
2.76296e-44 -0.00970858 0
-9.98848e-44 -0.00970858 0
-9.13933e-45 -0.00970858 0
-1.05147e-43 -0.00970858 0
SCALARS radius double 1
LOOKUP_TABLE default
0.000621415
0.000750874
0.000735541
0.000522882
0.000780242
0.00097475
0.000994168
0.000790412
0.000880848
0.000720838
0.000933918
0.000958934
0.000753488
0.00054522
0.000712397
0.000950783
0.000807753
0.000836475
0.000569299
0.000603945
0.000628319
0.000580291
0.000777192
0.000692678
0.00055675
SCALARS mass double 1
LOOKUP_TABLE default
0.00327549
0.00478242
0.00458909
0.0023191
0.00516383
0.00805935
0.00838365
0.00529932
0.00658136
0.00440747
0.00739829
0.00779994
0.00481578
0.00252149
0.00430484
0.0076679
0.0055344
0.00593499
0.00274913
0.00309392
0.00334869
0.00285631
0.00512354
0.00406984
0.00262926
