# vtk DataFile Version 3.0
DEM2D particles
ASCII
DATASET POLYDATA
POINTS 25 double
0.000436511 -0.00032253 0
0.00259373 -0.000534504 0
0.00503527 0.000256787 0
0.0075525 -0.0011918 0
0.00982669 -0.00103386 0
0.00134532 0.00184126 0
0.00385427 0.00132971 0
0.0049179 0.000439202 0
0.00662312 0.00207534 0
0.00923317 0.00138916 0
0.000767124 0.00357674 0
0.0037611 0.0024693 0
0.00456232 0.00365548 0
0.00622589 0.0038737 0
0.00871364 0.00312301 0
0.00180206 0.00528854 0
0.00309208 0.00459168 0
0.0055426 0.00503167 0
0.00726105 0.00617453 0
0.00950038 0.00597952 0
0.000727257 0.00716296 0
0.00319925 0.00651326 0
0.00427968 0.00758434 0
0.00693409 0.00702343 0
0.00824173 0.00745089 0
VERTICES 25 50
1 0
1 1
1 2
1 3
1 4
1 5
1 6
1 7
1 8
1 9
1 10
1 11
1 12
1 13
1 14
1 15
1 16
1 17
1 18
1 19
1 20
1 21
1 22
1 23
1 24
POINT_DATA 25
VECTORS velocity double
-8.6035e-78 -0.00970858 0
-6.20306e-78 -0.00970858 0
5.38491e-79 -0.00970858 0
8.43577e-78 -0.00970858 0
1.26222e-77 -0.00970858 0
5.27245e-78 -0.00970858 0
1.30432e-77 -0.00970858 0
-1.25351e-78 -0.00970858 0
-5.75429e-78 -0.00970858 0
3.56009e-78 -0.00970858 0
-3.55561e-78 -0.00970858 0
1.16207e-77 -0.00970858 0
-6.68266e-78 -0.00970858 0
-1.18193e-77 -0.00970858 0
-4.37223e-78 -0.00970858 0
1.2246e-77 -0.00970858 0
1.40585e-78 -0.00970858 0
8.28458e-78 -0.00970858 0
3.98574e-78 -0.00970858 0
7.63998e-78 -0.00970858 0
-4.16432e-78 -0.00970858 0
3.0422e-78 -0.00970858 0
-1.0998e-77 -0.00970858 0
-1.0063e-78 -0.00970858 0
-1.15774e-77 -0.00970858 0
SCALARS radius double 1
LOOKUP_TABLE default
0.000621415
0.000750874
0.000735541
0.000522882
0.000780242
0.00097475
0.000994168
0.000790412
0.000880848
0.000720838
0.000933918
0.000958934
0.000753488
0.00054522
0.000712397
0.000950783
0.000807753
0.000836475
0.000569299
0.000603945
0.000628319
0.000580291
0.000777192
0.000692678
0.00055675
SCALARS mass double 1
LOOKUP_TABLE default
0.00327549
0.00478242
0.00458909
0.0023191
0.00516383
0.00805935
0.00838365
0.00529932
0.00658136
0.00440747
0.00739829
0.00779994
0.00481578
0.00252149
0.00430484
0.0076679
0.0055344
0.00593499
0.00274913
0.00309392
0.00334869
0.00285631
0.00512354
0.00406984
0.00262926
