# vtk DataFile Version 3.0
DEM2D particles
ASCII
DATASET POLYDATA
POINTS 25 double
0.000436511 8.52309e-05 0
0.00259373 -0.000126743 0
0.00503527 0.000664547 0
0.0075525 -0.00078404 0
0.00982669 -0.000626103 0
0.00134532 0.00224902 0
0.00385427 0.00173747 0
0.0049179 0.000846963 0
0.00662312 0.0024831 0
0.00923317 0.00179692 0
0.000767124 0.00398451 0
0.0037611 0.00287706 0
0.00456232 0.00406324 0
0.00622589 0.00428146 0
0.00871364 0.00353077 0
0.00180206 0.0056963 0
0.00309208 0.00499944 0
0.0055426 0.00543943 0
0.00726105 0.00658229 0
0.00950038 0.00638728 0
0.000727257 0.00757072 0
0.00319925 0.00692102 0
0.00427968 0.0079921 0
0.00693409 0.00743119 0
0.00824173 0.00785865 0
VERTICES 25 50
1 0
1 1
1 2
1 3
1 4
1 5
1 6
1 7
1 8
1 9
1 10
1 11
1 12
1 13
1 14
1 15
1 16
1 17
1 18
1 19
1 20
1 21
1 22
1 23
1 24
POINT_DATA 25
VECTORS velocity double
-1.84866e-59 -0.00970858 0
-1.33287e-59 -0.00970858 0
1.15707e-60 -0.00970858 0
1.81262e-59 -0.00970858 0
2.71217e-59 -0.00970858 0
1.13291e-59 -0.00970858 0
2.80263e-59 -0.00970858 0
-2.69345e-60 -0.00970858 0
-1.23644e-59 -0.00970858 0
7.64969e-60 -0.00970858 0
-7.64006e-60 -0.00970858 0
2.49698e-59 -0.00970858 0
-1.43593e-59 -0.00970858 0
-2.53966e-59 -0.00970858 0
-9.39477e-60 -0.00970858 0
2.63134e-59 -0.00970858 0
3.02081e-60 -0.00970858 0
1.78014e-59 -0.00970858 0
8.5643e-60 -0.00970858 0
1.64163e-59 -0.00970858 0
-8.94801e-60 -0.00970858 0
6.53688e-60 -0.00970858 0
-2.36318e-59 -0.00970858 0
-2.16228e-60 -0.00970858 0
-2.48767e-59 -0.00970858 0
SCALARS radius double 1
LOOKUP_TABLE default
0.000621415
0.000750874
0.000735541
0.000522882
0.000780242
0.00097475
0.000994168
0.000790412
0.000880848
0.000720838
0.000933918
0.000958934
0.000753488
0.00054522
0.000712397
0.000950783
0.000807753
0.000836475
0.000569299
0.000603945
0.000628319
0.000580291
0.000777192
0.000692678
0.00055675
SCALARS mass double 1
LOOKUP_TABLE default
0.00327549
0.00478242
0.00458909
0.0023191
0.00516383
0.00805935
0.00838365
0.00529932
0.00658136
0.00440747
0.00739829
0.00779994
0.00481578
0.00252149
0.00430484
0.0076679
0.0055344
0.00593499
0.00274913
0.00309392
0.00334869
0.00285631
0.00512354
0.00406984
0.00262926
