# vtk DataFile Version 3.0
DEM2D particles
ASCII
DATASET POLYDATA
POINTS 25 double
0.000436511 0.00035513 0
0.00259373 0.000143155 0
0.00503527 0.000934446 0
0.0075525 -0.000514141 0
0.00982669 -0.000356204 0
0.00134532 0.00251892 0
0.00385427 0.00200736 0
0.0049179 0.00111686 0
0.00662312 0.002753 0
0.00923317 0.00206681 0
0.000767124 0.0042544 0
0.0037611 0.00314696 0
0.00456232 0.00433314 0
0.00622589 0.00455136 0
0.00871364 0.00380067 0
0.00180206 0.0059662 0
0.00309208 0.00526933 0
0.0055426 0.00570933 0
0.00726105 0.00685219 0
0.00950038 0.00665718 0
0.000727257 0.00784062 0
0.00319925 0.00719092 0
0.00427968 0.008262 0
0.00693409 0.00770109 0
0.00824173 0.00812855 0
VERTICES 25 50
1 0
1 1
1 2
1 3
1 4
1 5
1 6
1 7
1 8
1 9
1 10
1 11
1 12
1 13
1 14
1 15
1 16
1 17
1 18
1 19
1 20
1 21
1 22
1 23
1 24
POINT_DATA 25
VECTORS velocity double
-2.51777e-47 -0.00970858 0
-1.8153e-47 -0.00970858 0
1.57587e-48 -0.00970858 0
2.46869e-47 -0.00970858 0
3.69383e-47 -0.00970858 0
1.54296e-47 -0.00970858 0
3.81702e-47 -0.00970858 0
-3.66833e-48 -0.00970858 0
-1.68397e-47 -0.00970858 0
1.04184e-47 -0.00970858 0
-1.04053e-47 -0.00970858 0
3.40075e-47 -0.00970858 0
-1.95565e-47 -0.00970858 0
-3.45887e-47 -0.00970858 0
-1.27951e-47 -0.00970858 0
3.58374e-47 -0.00970858 0
4.11417e-48 -0.00970858 0
2.42445e-47 -0.00970858 0
1.16641e-47 -0.00970858 0
2.23581e-47 -0.00970858 0
-1.21867e-47 -0.00970858 0
8.90286e-48 -0.00970858 0
-3.21851e-47 -0.00970858 0
-2.9449e-48 -0.00970858 0
-3.38807e-47 -0.00970858 0
SCALARS radius double 1
LOOKUP_TABLE default
0.000621415
0.000750874
0.000735541
0.000522882
0.000780242
0.00097475
0.000994168
0.000790412
0.000880848
0.000720838
0.000933918
0.000958934
0.000753488
0.00054522
0.000712397
0.000950783
0.000807753
0.000836475
0.000569299
0.000603945
0.000628319
0.000580291
0.000777192
0.000692678
0.00055675
SCALARS mass double 1
LOOKUP_TABLE default
0.00327549
0.00478242
0.00458909
0.0023191
0.00516383
0.00805935
0.00838365
0.00529932
0.00658136
0.00440747
0.00739829
0.00779994
0.00481578
0.00252149
0.00430484
0.0076679
0.0055344
0.00593499
0.00274913
0.00309392
0.00334869
0.00285631
0.00512354
0.00406984
0.00262926
