# vtk DataFile Version 3.0
DEM2D particles
ASCII
DATASET POLYDATA
POINTS 25 double
0.000436511 0.000689105 0
0.00259373 0.000477131 0
0.00503527 0.00126842 0
0.0075525 -0.000180166 0
0.00982669 -2.22288e-05 0
0.00134532 0.00285289 0
0.00385427 0.00234134 0
0.0049179 0.00145084 0
0.00662312 0.00308697 0
0.00923317 0.00240079 0
0.000767124 0.00458838 0
0.0037611 0.00348094 0
0.00456232 0.00466711 0
0.00622589 0.00488534 0
0.00871364 0.00413464 0
0.00180206 0.00630017 0
0.00309208 0.00560331 0
0.0055426 0.0060433 0
0.00726105 0.00718617 0
0.00950038 0.00699115 0
0.000727257 0.0081746 0
0.00319925 0.0075249 0
0.00427968 0.00859597 0
0.00693409 0.00803506 0
0.00824173 0.00846253 0
VERTICES 25 50
1 0
1 1
1 2
1 3
1 4
1 5
1 6
1 7
1 8
1 9
1 10
1 11
1 12
1 13
1 14
1 15
1 16
1 17
1 18
1 19
1 20
1 21
1 22
1 23
1 24
POINT_DATA 25
VECTORS velocity double
-2.60584e-32 -0.00970858 0
-1.87879e-32 -0.00970858 0
1.63099e-33 -0.00970858 0
2.55504e-32 -0.00970858 0
3.82302e-32 -0.00970858 0
1.59693e-32 -0.00970858 0
3.95053e-32 -0.00970858 0
-3.79664e-33 -0.00970858 0
-1.74287e-32 -0.00970858 0
1.07828e-32 -0.00970858 0
-1.07693e-32 -0.00970858 0
3.5197e-32 -0.00970858 0
-2.02405e-32 -0.00970858 0
-3.57985e-32 -0.00970858 0
-1.32427e-32 -0.00970858 0
3.70909e-32 -0.00970858 0
4.25807e-33 -0.00970858 0
2.50924e-32 -0.00970858 0
1.20721e-32 -0.00970858 0
2.31401e-32 -0.00970858 0
-1.26129e-32 -0.00970858 0
9.21425e-33 -0.00970858 0
-3.33108e-32 -0.00970858 0
-3.0479e-33 -0.00970858 0
-3.50657e-32 -0.00970858 0
SCALARS radius double 1
LOOKUP_TABLE default
0.000621415
0.000750874
0.000735541
0.000522882
0.000780242
0.00097475
0.000994168
0.000790412
0.000880848
0.000720838
0.000933918
0.000958934
0.000753488
0.00054522
0.000712397
0.000950783
0.000807753
0.000836475
0.000569299
0.000603945
0.000628319
0.000580291
0.000777192
0.000692678
0.00055675
SCALARS mass double 1
LOOKUP_TABLE default
0.00327549
0.00478242
0.00458909
0.0023191
0.00516383
0.00805935
0.00838365
0.00529932
0.00658136
0.00440747
0.00739829
0.00779994
0.00481578
0.00252149
0.00430484
0.0076679
0.0055344
0.00593499
0.00274913
0.00309392
0.00334869
0.00285631
0.00512354
0.00406984
0.00262926
