# vtk DataFile Version 3.0
DEM2D particles
ASCII
DATASET POLYDATA
POINTS 25 double
0.000436511 0.000193967 0
0.00259373 -1.80071e-05 0
0.00503527 0.000773283 0
0.0075525 -0.000675304 0
0.00982669 -0.000517367 0
0.00134532 0.00235775 0
0.00385427 0.0018462 0
0.0049179 0.000955699 0
0.00662312 0.00259184 0
0.00923317 0.00190565 0
0.000767124 0.00409324 0
0.0037611 0.0029858 0
0.00456232 0.00417198 0
0.00622589 0.0043902 0
0.00871364 0.0036395 0
0.00180206 0.00580503 0
0.00309208 0.00510817 0
0.0055426 0.00554817 0
0.00726105 0.00669103 0
0.00950038 0.00649602 0
0.000727257 0.00767946 0
0.00319925 0.00702976 0
0.00427968 0.00810084 0
0.00693409 0.00753993 0
0.00824173 0.00796739 0
VERTICES 25 50
1 0
1 1
1 2
1 3
1 4
1 5
1 6
1 7
1 8
1 9
1 10
1 11
1 12
1 13
1 14
1 15
1 16
1 17
1 18
1 19
1 20
1 21
1 22
1 23
1 24
POINT_DATA 25
VECTORS velocity double
-1.43034e-54 -0.00970858 0
-1.03127e-54 -0.00970858 0
8.95248e-56 -0.00970858 0
1.40246e-54 -0.00970858 0
2.09845e-54 -0.00970858 0
8.76551e-55 -0.00970858 0
2.16844e-54 -0.00970858 0
-2.08397e-55 -0.00970858 0
-9.56658e-55 -0.00970858 0
5.9187e-55 -0.00970858 0
-5.91124e-55 -0.00970858 0
1.93196e-54 -0.00970858 0
-1.111e-54 -0.00970858 0
-1.96498e-54 -0.00970858 0
-7.26889e-55 -0.00970858 0
2.03591e-54 -0.00970858 0
2.33725e-55 -0.00970858 0
1.37732e-54 -0.00970858 0
6.62634e-55 -0.00970858 0
1.27016e-54 -0.00970858 0
-6.92322e-55 -0.00970858 0
5.0577e-55 -0.00970858 0
-1.82843e-54 -0.00970858 0
-1.67299e-55 -0.00970858 0
-1.92476e-54 -0.00970858 0
SCALARS radius double 1
LOOKUP_TABLE default
0.000621415
0.000750874
0.000735541
0.000522882
0.000780242
0.00097475
0.000994168
0.000790412
0.000880848
0.000720838
0.000933918
0.000958934
0.000753488
0.00054522
0.000712397
0.000950783
0.000807753
0.000836475
0.000569299
0.000603945
0.000628319
0.000580291
0.000777192
0.000692678
0.00055675
SCALARS mass double 1
LOOKUP_TABLE default
0.00327549
0.00478242
0.00458909
0.0023191
0.00516383
0.00805935
0.00838365
0.00529932
0.00658136
0.00440747
0.00739829
0.00779994
0.00481578
0.00252149
0.00430484
0.0076679
0.0055344
0.00593499
0.00274913
0.00309392
0.00334869
0.00285631
0.00512354
0.00406984
0.00262926
