# vtk DataFile Version 3.0
DEM2D particles
ASCII
DATASET POLYDATA
POINTS 25 double
0.000436511 -4.09807e-05 0
0.00259373 -0.000252955 0
0.00503527 0.000538336 0
0.0075525 -0.000910251 0
0.00982669 -0.000752314 0
0.00134532 0.00212281 0
0.00385427 0.00161125 0
0.0049179 0.000720751 0
0.00662312 0.00235689 0
0.00923317 0.0016707 0
0.000767124 0.00385829 0
0.0037611 0.00275085 0
0.00456232 0.00393703 0
0.00622589 0.00415525 0
0.00871364 0.00340456 0
0.00180206 0.00557009 0
0.00309208 0.00487322 0
0.0055426 0.00531322 0
0.00726105 0.00645608 0
0.00950038 0.00626107 0
0.000727257 0.00744451 0
0.00319925 0.00679481 0
0.00427968 0.00786589 0
0.00693409 0.00730498 0
0.00824173 0.00773244 0
VERTICES 25 50
1 0
1 1
1 2
1 3
1 4
1 5
1 6
1 7
1 8
1 9
1 10
1 11
1 12
1 13
1 14
1 15
1 16
1 17
1 18
1 19
1 20
1 21
1 22
1 23
1 24
POINT_DATA 25
VECTORS velocity double
-3.91391e-65 -0.00970858 0
-2.8219e-65 -0.00970858 0
2.44971e-66 -0.00970858 0
3.83761e-65 -0.00970858 0
5.74209e-65 -0.00970858 0
2.39855e-65 -0.00970858 0
5.9336e-65 -0.00970858 0
-5.70246e-66 -0.00970858 0
-2.61775e-65 -0.00970858 0
1.61956e-65 -0.00970858 0
-1.61752e-65 -0.00970858 0
5.2865e-65 -0.00970858 0
-3.04008e-65 -0.00970858 0
-5.37686e-65 -0.00970858 0
-1.98902e-65 -0.00970858 0
5.57097e-65 -0.00970858 0
6.39552e-66 -0.00970858 0
3.76883e-65 -0.00970858 0
1.8132e-65 -0.00970858 0
3.47558e-65 -0.00970858 0
-1.89443e-65 -0.00970858 0
1.38396e-65 -0.00970858 0
-5.00321e-65 -0.00970858 0
-4.57788e-66 -0.00970858 0
-5.2668e-65 -0.00970858 0
SCALARS radius double 1
LOOKUP_TABLE default
0.000621415
0.000750874
0.000735541
0.000522882
0.000780242
0.00097475
0.000994168
0.000790412
0.000880848
0.000720838
0.000933918
0.000958934
0.000753488
0.00054522
0.000712397
0.000950783
0.000807753
0.000836475
0.000569299
0.000603945
0.000628319
0.000580291
0.000777192
0.000692678
0.00055675
SCALARS mass double 1
LOOKUP_TABLE default
0.00327549
0.00478242
0.00458909
0.0023191
0.00516383
0.00805935
0.00838365
0.00529932
0.00658136
0.00440747
0.00739829
0.00779994
0.00481578
0.00252149
0.00430484
0.0076679
0.0055344
0.00593499
0.00274913
0.00309392
0.00334869
0.00285631
0.00512354
0.00406984
0.00262926
