# vtk DataFile Version 3.0
DEM2D particles
ASCII
DATASET POLYDATA
POINTS 25 double
0.000436511 0.000549301 0
0.00259373 0.000337327 0
0.00503527 0.00112862 0
0.0075525 -0.000319969 0
0.00982669 -0.000162032 0
0.00134532 0.00271309 0
0.00385427 0.00220154 0
0.0049179 0.00131103 0
0.00662312 0.00294717 0
0.00923317 0.00226099 0
0.000767124 0.00444858 0
0.0037611 0.00334113 0
0.00456232 0.00452731 0
0.00622589 0.00474553 0
0.00871364 0.00399484 0
0.00180206 0.00616037 0
0.00309208 0.00546351 0
0.0055426 0.0059035 0
0.00726105 0.00704636 0
0.00950038 0.00685135 0
0.000727257 0.00803479 0
0.00319925 0.00738509 0
0.00427968 0.00845617 0
0.00693409 0.00789526 0
0.00824173 0.00832272 0
VERTICES 25 50
1 0
1 1
1 2
1 3
1 4
1 5
1 6
1 7
1 8
1 9
1 10
1 11
1 12
1 13
1 14
1 15
1 16
1 17
1 18
1 19
1 20
1 21
1 22
1 23
1 24
POINT_DATA 25
VECTORS velocity double
-1.35091e-38 -0.00970858 0
-9.73999e-39 -0.00970858 0
8.45534e-40 -0.00970858 0
1.32458e-38 -0.00970858 0
1.98193e-38 -0.00970858 0
8.27876e-39 -0.00970858 0
2.04803e-38 -0.00970858 0
-1.96824e-39 -0.00970858 0
-9.03534e-39 -0.00970858 0
5.59002e-39 -0.00970858 0
-5.58299e-39 -0.00970858 0
1.82467e-38 -0.00970858 0
-1.04931e-38 -0.00970858 0
-1.85586e-38 -0.00970858 0
-6.86524e-39 -0.00970858 0
1.92286e-38 -0.00970858 0
2.20746e-39 -0.00970858 0
1.30084e-38 -0.00970858 0
6.25837e-39 -0.00970858 0
1.19962e-38 -0.00970858 0
-6.53877e-39 -0.00970858 0
4.77684e-39 -0.00970858 0
-1.72689e-38 -0.00970858 0
-1.58009e-39 -0.00970858 0
-1.81787e-38 -0.00970858 0
SCALARS radius double 1
LOOKUP_TABLE default
0.000621415
0.000750874
0.000735541
0.000522882
0.000780242
0.00097475
0.000994168
0.000790412
0.000880848
0.000720838
0.000933918
0.000958934
0.000753488
0.00054522
0.000712397
0.000950783
0.000807753
0.000836475
0.000569299
0.000603945
0.000628319
0.000580291
0.000777192
0.000692678
0.00055675
SCALARS mass double 1
LOOKUP_TABLE default
0.00327549
0.00478242
0.00458909
0.0023191
0.00516383
0.00805935
0.00838365
0.00529932
0.00658136
0.00440747
0.00739829
0.00779994
0.00481578
0.00252149
0.00430484
0.0076679
0.0055344
0.00593499
0.00274913
0.00309392
0.00334869
0.00285631
0.00512354
0.00406984
0.00262926
