# vtk DataFile Version 3.0
DEM2D particles
ASCII
DATASET POLYDATA
POINTS 25 double
0.000436511 0.000347363 0
0.00259373 0.000135389 0
0.00503527 0.000926679 0
0.0075525 -0.000521908 0
0.00982669 -0.000363971 0
0.00134532 0.00251115 0
0.00385427 0.0019996 0
0.0049179 0.00110909 0
0.00662312 0.00274523 0
0.00923317 0.00205905 0
0.000767124 0.00424664 0
0.0037611 0.0031392 0
0.00456232 0.00432537 0
0.00622589 0.0045436 0
0.00871364 0.0037929 0
0.00180206 0.00595843 0
0.00309208 0.00526157 0
0.0055426 0.00570156 0
0.00726105 0.00684442 0
0.00950038 0.00664941 0
0.000727257 0.00783285 0
0.00319925 0.00718315 0
0.00427968 0.00825423 0
0.00693409 0.00769332 0
0.00824173 0.00812078 0
VERTICES 25 50
1 0
1 1
1 2
1 3
1 4
1 5
1 6
1 7
1 8
1 9
1 10
1 11
1 12
1 13
1 14
1 15
1 16
1 17
1 18
1 19
1 20
1 21
1 22
1 23
1 24
POINT_DATA 25
VECTORS velocity double
-1.12676e-47 -0.00970858 0
-8.12387e-48 -0.00970858 0
7.05238e-49 -0.00970858 0
1.1048e-47 -0.00970858 0
1.65307e-47 -0.00970858 0
6.9051e-48 -0.00970858 0
1.70821e-47 -0.00970858 0
-1.64166e-48 -0.00970858 0
-7.53615e-48 -0.00970858 0
4.6625e-48 -0.00970858 0
-4.65663e-48 -0.00970858 0
1.52191e-47 -0.00970858 0
-8.75199e-48 -0.00970858 0
-1.54793e-47 -0.00970858 0
-5.72612e-48 -0.00970858 0
1.60381e-47 -0.00970858 0
1.84119e-48 -0.00970858 0
1.085e-47 -0.00970858 0
5.21995e-48 -0.00970858 0
1.00057e-47 -0.00970858 0
-5.45382e-48 -0.00970858 0
3.98424e-48 -0.00970858 0
-1.44036e-47 -0.00970858 0
-1.31791e-48 -0.00970858 0
-1.51624e-47 -0.00970858 0
SCALARS radius double 1
LOOKUP_TABLE default
0.000621415
0.000750874
0.000735541
0.000522882
0.000780242
0.00097475
0.000994168
0.000790412
0.000880848
0.000720838
0.000933918
0.000958934
0.000753488
0.00054522
0.000712397
0.000950783
0.000807753
0.000836475
0.000569299
0.000603945
0.000628319
0.000580291
0.000777192
0.000692678
0.00055675
SCALARS mass double 1
LOOKUP_TABLE default
0.00327549
0.00478242
0.00458909
0.0023191
0.00516383
0.00805935
0.00838365
0.00529932
0.00658136
0.00440747
0.00739829
0.00779994
0.00481578
0.00252149
0.00430484
0.0076679
0.0055344
0.00593499
0.00274913
0.00309392
0.00334869
0.00285631
0.00512354
0.00406984
0.00262926
