# vtk DataFile Version 3.0
DEM2D particles
ASCII
DATASET POLYDATA
POINTS 25 double
0.000436511 0.000716289 0
0.00259373 0.000504315 0
0.00503527 0.00129561 0
0.0075525 -0.000152982 0
0.00982669 4.9552e-06 0
0.00134532 0.00288008 0
0.00385427 0.00236852 0
0.0049179 0.00147802 0
0.00662312 0.00311416 0
0.00923317 0.00242797 0
0.000767124 0.00461556 0
0.0037611 0.00350812 0
0.00456232 0.0046943 0
0.00622589 0.00491252 0
0.00871364 0.00416183 0
0.00180206 0.00632736 0
0.00309208 0.00563049 0
0.0055426 0.00607049 0
0.00726105 0.00721335 0
0.00950038 0.00701834 0
0.000727257 0.00820178 0
0.00319925 0.00755208 0
0.00427968 0.00862316 0
0.00693409 0.00806225 0
0.00824173 0.00848971 0
VERTICES 25 50
1 0
1 1
1 2
1 3
1 4
1 5
1 6
1 7
1 8
1 9
1 10
1 11
1 12
1 13
1 14
1 15
1 16
1 17
1 18
1 19
1 20
1 21
1 22
1 23
1 24
POINT_DATA 25
VECTORS velocity double
-4.34603e-31 -0.00970858 0
-3.13346e-31 -0.00970858 0
2.72017e-32 -0.00970858 0
4.2613e-31 -0.00970858 0
6.37606e-31 -0.00970858 0
2.66336e-31 -0.00970858 0
6.58871e-31 -0.00970858 0
-6.33205e-32 -0.00970858 0
-2.90676e-31 -0.00970858 0
1.79837e-31 -0.00970858 0
-1.79611e-31 -0.00970858 0
5.87017e-31 -0.00970858 0
-3.37573e-31 -0.00970858 0
-5.9705e-31 -0.00970858 0
-2.20862e-31 -0.00970858 0
6.18604e-31 -0.00970858 0
7.10163e-32 -0.00970858 0
4.18493e-31 -0.00970858 0
2.01338e-31 -0.00970858 0
3.85931e-31 -0.00970858 0
-2.10359e-31 -0.00970858 0
1.53676e-31 -0.00970858 0
-5.5556e-31 -0.00970858 0
-5.08331e-32 -0.00970858 0
-5.84829e-31 -0.00970858 0
SCALARS radius double 1
LOOKUP_TABLE default
0.000621415
0.000750874
0.000735541
0.000522882
0.000780242
0.00097475
0.000994168
0.000790412
0.000880848
0.000720838
0.000933918
0.000958934
0.000753488
0.00054522
0.000712397
0.000950783
0.000807753
0.000836475
0.000569299
0.000603945
0.000628319
0.000580291
0.000777192
0.000692678
0.00055675
SCALARS mass double 1
LOOKUP_TABLE default
0.00327549
0.00478242
0.00458909
0.0023191
0.00516383
0.00805935
0.00838365
0.00529932
0.00658136
0.00440747
0.00739829
0.00779994
0.00481578
0.00252149
0.00430484
0.0076679
0.0055344
0.00593499
0.00274913
0.00309392
0.00334869
0.00285631
0.00512354
0.00406984
0.00262926
