# vtk DataFile Version 3.0
DEM2D particles
ASCII
DATASET POLYDATA
POINTS 25 double
0.000436541 0.00129102 0
0.00259375 0.00107905 0
0.00503527 0.0018703 0
0.00755247 0.000421792 0
0.00982665 0.000579721 0
0.0013453 0.00345479 0
0.00385422 0.00294327 0
0.00491791 0.00205281 0
0.00662314 0.00368887 0
0.00923316 0.00300272 0
0.000767137 0.0051903 0
0.00376106 0.00408291 0
0.00456234 0.00526903 0
0.00622593 0.00548724 0
0.00871365 0.00473658 0
0.00180201 0.0069021 0
0.00309207 0.00620528 0
0.00554257 0.00664525 0
0.00726103 0.00778805 0
0.00950036 0.00759305 0
0.000727271 0.00877653 0
0.00319924 0.00812687 0
0.00427972 0.00919789 0
0.0069341 0.00863701 0
0.00824177 0.00906445 0
VERTICES 25 50
1 0
1 1
1 2
1 3
1 4
1 5
1 6
1 7
1 8
1 9
1 10
1 11
1 12
1 13
1 14
1 15
1 16
1 17
1 18
1 19
1 20
1 21
1 22
1 23
1 24
POINT_DATA 25
VECTORS velocity double
-3.00428e-05 -0.00968799 0
-2.16607e-05 -0.0096993 0
1.88037e-06 -0.00965711 0
2.94571e-05 -0.00973434 0
4.40758e-05 -0.00972592 0
1.8411e-05 -0.00967926 0
4.55458e-05 -0.00970654 0
-4.37716e-06 -0.00975401 0
-2.00936e-05 -0.00966678 0
1.24316e-05 -0.00970337 0
-1.24159e-05 -0.00969336 0
4.05788e-05 -0.00975241 0
-2.33354e-05 -0.00968917 0
-4.12723e-05 -0.00967753 0
-1.52675e-05 -0.00971756 0
4.27623e-05 -0.00970873 0
4.90915e-06 -0.00974588 0
2.89292e-05 -0.00972243 0
1.39179e-05 -0.00966149 0
2.66783e-05 -0.00967189 0
-1.45415e-05 -0.00971543 0
1.06232e-05 -0.00975006 0
-3.84042e-05 -0.00969296 0
-3.51394e-06 -0.00972286 0
-4.04275e-05 -0.00970007 0
SCALARS radius double 1
LOOKUP_TABLE default
0.000621415
0.000750874
0.000735541
0.000522882
0.000780242
0.00097475
0.000994168
0.000790412
0.000880848
0.000720838
0.000933918
0.000958934
0.000753488
0.00054522
0.000712397
0.000950783
0.000807753
0.000836475
0.000569299
0.000603945
0.000628319
0.000580291
0.000777192
0.000692678
0.00055675
SCALARS mass double 1
LOOKUP_TABLE default
0.00327549
0.00478242
0.00458909
0.0023191
0.00516383
0.00805935
0.00838365
0.00529932
0.00658136
0.00440747
0.00739829
0.00779994
0.00481578
0.00252149
0.00430484
0.0076679
0.0055344
0.00593499
0.00274913
0.00309392
0.00334869
0.00285631
0.00512354
0.00406984
0.00262926
