# vtk DataFile Version 3.0
DEM2D particles
ASCII
DATASET POLYDATA
POINTS 25 double
0.000436511 0.000277461 0
0.00259373 6.54867e-05 0
0.00503527 0.000856777 0
0.0075525 -0.00059181 0
0.00982669 -0.000433873 0
0.00134532 0.00244125 0
0.00385427 0.0019297 0
0.0049179 0.00103919 0
0.00662312 0.00267533 0
0.00923317 0.00198915 0
0.000767124 0.00417674 0
0.0037611 0.00306929 0
0.00456232 0.00425547 0
0.00622589 0.00447369 0
0.00871364 0.003723 0
0.00180206 0.00588853 0
0.00309208 0.00519167 0
0.0055426 0.00563166 0
0.00726105 0.00677452 0
0.00950038 0.00657951 0
0.000727257 0.00776295 0
0.00319925 0.00711325 0
0.00427968 0.00818433 0
0.00693409 0.00762342 0
0.00824173 0.00805088 0
VERTICES 25 50
1 0
1 1
1 2
1 3
1 4
1 5
1 6
1 7
1 8
1 9
1 10
1 11
1 12
1 13
1 14
1 15
1 16
1 17
1 18
1 19
1 20
1 21
1 22
1 23
1 24
POINT_DATA 25
VECTORS velocity double
-8.11283e-51 -0.00970858 0
-5.84929e-51 -0.00970858 0
5.07781e-52 -0.00970858 0
7.95467e-51 -0.00970858 0
1.19023e-50 -0.00970858 0
4.97176e-51 -0.00970858 0
1.22993e-50 -0.00970858 0
-1.18202e-51 -0.00970858 0
-5.42612e-51 -0.00970858 0
3.35706e-51 -0.00970858 0
-3.35283e-51 -0.00970858 0
1.0958e-50 -0.00970858 0
-6.30154e-51 -0.00970858 0
-1.11453e-50 -0.00970858 0
-4.12288e-51 -0.00970858 0
1.15476e-50 -0.00970858 0
1.32568e-51 -0.00970858 0
7.81211e-51 -0.00970858 0
3.75843e-51 -0.00970858 0
7.20426e-51 -0.00970858 0
-3.92682e-51 -0.00970858 0
2.8687e-51 -0.00970858 0
-1.03708e-50 -0.00970858 0
-9.48912e-52 -0.00970858 0
-1.09171e-50 -0.00970858 0
SCALARS radius double 1
LOOKUP_TABLE default
0.000621415
0.000750874
0.000735541
0.000522882
0.000780242
0.00097475
0.000994168
0.000790412
0.000880848
0.000720838
0.000933918
0.000958934
0.000753488
0.00054522
0.000712397
0.000950783
0.000807753
0.000836475
0.000569299
0.000603945
0.000628319
0.000580291
0.000777192
0.000692678
0.00055675
SCALARS mass double 1
LOOKUP_TABLE default
0.00327549
0.00478242
0.00458909
0.0023191
0.00516383
0.00805935
0.00838365
0.00529932
0.00658136
0.00440747
0.00739829
0.00779994
0.00481578
0.00252149
0.00430484
0.0076679
0.0055344
0.00593499
0.00274913
0.00309392
0.00334869
0.00285631
0.00512354
0.00406984
0.00262926
