# vtk DataFile Version 3.0
DEM2D particles
ASCII
DATASET POLYDATA
POINTS 25 double
0.000437007 0.00131788 0
0.00259409 0.00110609 0
0.00503524 0.00189669 0
0.00755202 0.000449376 0
0.00982597 0.000607174 0
0.00134502 0.00348152 0
0.00385351 0.00297042 0
0.00491797 0.0020807 0
0.00662345 0.0037154 0
0.00923296 0.00302982 0
0.000767329 0.00521724 0
0.00376043 0.00411078 0
0.0045627 0.00529591 0
0.00622657 0.00551394 0
0.00871389 0.00476391 0
0.00180135 0.00692929 0
0.003092 0.00623304 0
0.00554212 0.00667265 0
0.00726082 0.0078145 0
0.00949994 0.00761966 0
0.000727497 0.00880382 0
0.00319907 0.0081547 0
0.00428032 0.00922483 0
0.00693415 0.00866442 0
0.0082424 0.0090915 0
VERTICES 25 50
1 0
1 1
1 2
1 3
1 4
1 5
1 6
1 7
1 8
1 9
1 10
1 11
1 12
1 13
1 14
1 15
1 16
1 17
1 18
1 19
1 20
1 21
1 22
1 23
1 24
POINT_DATA 25
VECTORS velocity double
-0.000501056 -0.00936519 0
-0.000361258 -0.00955368 0
3.1361e-05 -0.00885006 0
0.000491288 -0.0101381 0
0.000735099 -0.00999771 0
0.00030706 -0.00921955 0
0.000759616 -0.00967442 0
-7.30025e-05 -0.0104663 0
-0.000335122 -0.0090114 0
0.000207335 -0.00962156 0
-0.000207074 -0.00945476 0
0.000676775 -0.0104395 0
-0.000389189 -0.00938474 0
-0.000688342 -0.0091907 0
-0.000254633 -0.00985822 0
0.000713191 -0.00971103 0
8.18751e-05 -0.0103307 0
0.000482483 -0.00993944 0
0.000232124 -0.0089232 0
0.000444942 -0.00909661 0
-0.000242524 -0.00982269 0
0.000177174 -0.0104004 0
-0.000640508 -0.009448 0
-5.86057e-05 -0.00994676 0
-0.000674252 -0.00956666 0
SCALARS radius double 1
LOOKUP_TABLE default
0.000621415
0.000750874
0.000735541
0.000522882
0.000780242
0.00097475
0.000994168
0.000790412
0.000880848
0.000720838
0.000933918
0.000958934
0.000753488
0.00054522
0.000712397
0.000950783
0.000807753
0.000836475
0.000569299
0.000603945
0.000628319
0.000580291
0.000777192
0.000692678
0.00055675
SCALARS mass double 1
LOOKUP_TABLE default
0.00327549
0.00478242
0.00458909
0.0023191
0.00516383
0.00805935
0.00838365
0.00529932
0.00658136
0.00440747
0.00739829
0.00779994
0.00481578
0.00252149
0.00430484
0.0076679
0.0055344
0.00593499
0.00274913
0.00309392
0.00334869
0.00285631
0.00512354
0.00406984
0.00262926
