# vtk DataFile Version 3.0
DEM2D particles
ASCII
DATASET POLYDATA
POINTS 25 double
0.000436511 0.000770657 0
0.00259373 0.000558683 0
0.00503527 0.00134997 0
0.0075525 -9.86138e-05 0
0.00982669 5.93233e-05 0
0.00134532 0.00293444 0
0.00385427 0.00242289 0
0.0049179 0.00153239 0
0.00662312 0.00316853 0
0.00923317 0.00248234 0
0.000767124 0.00466993 0
0.0037611 0.00356249 0
0.00456232 0.00474867 0
0.00622589 0.00496689 0
0.00871364 0.00421619 0
0.00180206 0.00638172 0
0.00309208 0.00568486 0
0.0055426 0.00612486 0
0.00726105 0.00726772 0
0.00950038 0.00707271 0
0.000727257 0.00825615 0
0.00319925 0.00760645 0
0.00427968 0.00867753 0
0.00693409 0.00811662 0
0.00824173 0.00854408 0
VERTICES 25 50
1 0
1 1
1 2
1 3
1 4
1 5
1 6
1 7
1 8
1 9
1 10
1 11
1 12
1 13
1 14
1 15
1 16
1 17
1 18
1 19
1 20
1 21
1 22
1 23
1 24
POINT_DATA 25
VECTORS velocity double
-1.20888e-28 -0.00970858 0
-8.71595e-29 -0.00970858 0
7.56637e-30 -0.00970858 0
1.18531e-28 -0.00970858 0
1.77355e-28 -0.00970858 0
7.40835e-29 -0.00970858 0
1.8327e-28 -0.00970858 0
-1.76131e-29 -0.00970858 0
-8.08539e-29 -0.00970858 0
5.0023e-29 -0.00970858 0
-4.996e-29 -0.00970858 0
1.63283e-28 -0.00970858 0
-9.38984e-29 -0.00970858 0
-1.66074e-28 -0.00970858 0
-6.14345e-29 -0.00970858 0
1.72069e-28 -0.00970858 0
1.97537e-29 -0.00970858 0
1.16407e-28 -0.00970858 0
5.60038e-29 -0.00970858 0
1.0735e-28 -0.00970858 0
-5.8513e-29 -0.00970858 0
4.27461e-29 -0.00970858 0
-1.54533e-28 -0.00970858 0
-1.41396e-29 -0.00970858 0
-1.62675e-28 -0.00970858 0
SCALARS radius double 1
LOOKUP_TABLE default
0.000621415
0.000750874
0.000735541
0.000522882
0.000780242
0.00097475
0.000994168
0.000790412
0.000880848
0.000720838
0.000933918
0.000958934
0.000753488
0.00054522
0.000712397
0.000950783
0.000807753
0.000836475
0.000569299
0.000603945
0.000628319
0.000580291
0.000777192
0.000692678
0.00055675
SCALARS mass double 1
LOOKUP_TABLE default
0.00327549
0.00478242
0.00458909
0.0023191
0.00516383
0.00805935
0.00838365
0.00529932
0.00658136
0.00440747
0.00739829
0.00779994
0.00481578
0.00252149
0.00430484
0.0076679
0.0055344
0.00593499
0.00274913
0.00309392
0.00334869
0.00285631
0.00512354
0.00406984
0.00262926
