# vtk DataFile Version 3.0
DEM2D particles
ASCII
DATASET POLYDATA
POINTS 25 double
0.000436511 -0.000338063 0
0.00259373 -0.000550037 0
0.00503527 0.000241253 0
0.0075525 -0.00120733 0
0.00982669 -0.0010494 0
0.00134532 0.00182572 0
0.00385427 0.00131417 0
0.0049179 0.000423668 0
0.00662312 0.00205981 0
0.00923317 0.00137362 0
0.000767124 0.00356121 0
0.0037611 0.00245377 0
0.00456232 0.00363995 0
0.00622589 0.00385817 0
0.00871364 0.00310747 0
0.00180206 0.005273 0
0.00309208 0.00457614 0
0.0055426 0.00501614 0
0.00726105 0.006159 0
0.00950038 0.00596399 0
0.000727257 0.00714743 0
0.00319925 0.00649773 0
0.00427968 0.00756881 0
0.00693409 0.0070079 0
0.00824173 0.00743536 0
VERTICES 25 50
1 0
1 1
1 2
1 3
1 4
1 5
1 6
1 7
1 8
1 9
1 10
1 11
1 12
1 13
1 14
1 15
1 16
1 17
1 18
1 19
1 20
1 21
1 22
1 23
1 24
POINT_DATA 25
VECTORS velocity double
-1.72308e-78 -0.00970858 0
-1.24233e-78 -0.00970858 0
1.07847e-79 -0.00970858 0
1.68949e-78 -0.00970858 0
2.52793e-78 -0.00970858 0
1.05595e-78 -0.00970858 0
2.61225e-78 -0.00970858 0
-2.51049e-79 -0.00970858 0
-1.15245e-78 -0.00970858 0
7.13005e-79 -0.00970858 0
-7.12107e-79 -0.00970858 0
2.32736e-78 -0.00970858 0
-1.33838e-78 -0.00970858 0
-2.36714e-78 -0.00970858 0
-8.75658e-79 -0.00970858 0
2.4526e-78 -0.00970858 0
2.8156e-79 -0.00970858 0
1.65921e-78 -0.00970858 0
7.98252e-79 -0.00970858 0
1.53011e-78 -0.00970858 0
-8.34017e-79 -0.00970858 0
6.09283e-79 -0.00970858 0
-2.20264e-78 -0.00970858 0
-2.01539e-79 -0.00970858 0
-2.31869e-78 -0.00970858 0
SCALARS radius double 1
LOOKUP_TABLE default
0.000621415
0.000750874
0.000735541
0.000522882
0.000780242
0.00097475
0.000994168
0.000790412
0.000880848
0.000720838
0.000933918
0.000958934
0.000753488
0.00054522
0.000712397
0.000950783
0.000807753
0.000836475
0.000569299
0.000603945
0.000628319
0.000580291
0.000777192
0.000692678
0.00055675
SCALARS mass double 1
LOOKUP_TABLE default
0.00327549
0.00478242
0.00458909
0.0023191
0.00516383
0.00805935
0.00838365
0.00529932
0.00658136
0.00440747
0.00739829
0.00779994
0.00481578
0.00252149
0.00430484
0.0076679
0.0055344
0.00593499
0.00274913
0.00309392
0.00334869
0.00285631
0.00512354
0.00406984
0.00262926
