# vtk DataFile Version 3.0
DEM2D particles
ASCII
DATASET POLYDATA
POINTS 25 double
0.000436511 -0.000215735 0
0.00259373 -0.000427709 0
0.00503527 0.000363581 0
0.0075525 -0.00108501 0
0.00982669 -0.000927069 0
0.00134532 0.00194805 0
0.00385427 0.0014365 0
0.0049179 0.000545997 0
0.00662312 0.00218213 0
0.00923317 0.00149595 0
0.000767124 0.00368354 0
0.0037611 0.0025761 0
0.00456232 0.00376227 0
0.00622589 0.0039805 0
0.00871364 0.0032298 0
0.00180206 0.00539533 0
0.00309208 0.00469847 0
0.0055426 0.00513846 0
0.00726105 0.00628133 0
0.00950038 0.00608631 0
0.000727257 0.00726976 0
0.00319925 0.00662006 0
0.00427968 0.00769113 0
0.00693409 0.00713022 0
0.00824173 0.00755769 0
VERTICES 25 50
1 0
1 1
1 2
1 3
1 4
1 5
1 6
1 7
1 8
1 9
1 10
1 11
1 12
1 13
1 14
1 15
1 16
1 17
1 18
1 19
1 20
1 21
1 22
1 23
1 24
POINT_DATA 25
VECTORS velocity double
-5.44454e-73 -0.00970858 0
-3.92547e-73 -0.00970858 0
3.40773e-74 -0.00970858 0
5.33839e-73 -0.00970858 0
7.98768e-73 -0.00970858 0
3.33656e-73 -0.00970858 0
8.25408e-73 -0.00970858 0
-7.93254e-74 -0.00970858 0
-3.64148e-73 -0.00970858 0
2.25293e-73 -0.00970858 0
-2.25009e-73 -0.00970858 0
7.35392e-73 -0.00970858 0
-4.22898e-73 -0.00970858 0
-7.47961e-73 -0.00970858 0
-2.76687e-73 -0.00970858 0
7.74963e-73 -0.00970858 0
8.89665e-74 -0.00970858 0
5.24272e-73 -0.00970858 0
2.52229e-73 -0.00970858 0
4.8348e-73 -0.00970858 0
-2.6353e-73 -0.00970858 0
1.92519e-73 -0.00970858 0
-6.95984e-73 -0.00970858 0
-6.36817e-74 -0.00970858 0
-7.3265e-73 -0.00970858 0
SCALARS radius double 1
LOOKUP_TABLE default
0.000621415
0.000750874
0.000735541
0.000522882
0.000780242
0.00097475
0.000994168
0.000790412
0.000880848
0.000720838
0.000933918
0.000958934
0.000753488
0.00054522
0.000712397
0.000950783
0.000807753
0.000836475
0.000569299
0.000603945
0.000628319
0.000580291
0.000777192
0.000692678
0.00055675
SCALARS mass double 1
LOOKUP_TABLE default
0.00327549
0.00478242
0.00458909
0.0023191
0.00516383
0.00805935
0.00838365
0.00529932
0.00658136
0.00440747
0.00739829
0.00779994
0.00481578
0.00252149
0.00430484
0.0076679
0.0055344
0.00593499
0.00274913
0.00309392
0.00334869
0.00285631
0.00512354
0.00406984
0.00262926
