# vtk DataFile Version 3.0
DEM2D particles
ASCII
DATASET POLYDATA
POINTS 25 double
0.000436511 0.000737648 0
0.00259373 0.000525674 0
0.00503527 0.00131696 0
0.0075525 -0.000131623 0
0.00982669 2.63141e-05 0
0.00134532 0.00290143 0
0.00385427 0.00238988 0
0.0049179 0.00149938 0
0.00662312 0.00313552 0
0.00923317 0.00244933 0
0.000767124 0.00463692 0
0.0037611 0.00352948 0
0.00456232 0.00471566 0
0.00622589 0.00493388 0
0.00871364 0.00418318 0
0.00180206 0.00634872 0
0.00309208 0.00565185 0
0.0055426 0.00609185 0
0.00726105 0.00723471 0
0.00950038 0.0070397 0
0.000727257 0.00822314 0
0.00319925 0.00757344 0
0.00427968 0.00864452 0
0.00693409 0.00808361 0
0.00824173 0.00851107 0
VERTICES 25 50
1 0
1 1
1 2
1 3
1 4
1 5
1 6
1 7
1 8
1 9
1 10
1 11
1 12
1 13
1 14
1 15
1 16
1 17
1 18
1 19
1 20
1 21
1 22
1 23
1 24
POINT_DATA 25
VECTORS velocity double
-3.96598e-30 -0.00970858 0
-2.85944e-30 -0.00970858 0
2.4823e-31 -0.00970858 0
3.88866e-30 -0.00970858 0
5.81848e-30 -0.00970858 0
2.43046e-30 -0.00970858 0
6.01254e-30 -0.00970858 0
-5.77832e-31 -0.00970858 0
-2.65257e-30 -0.00970858 0
1.6411e-30 -0.00970858 0
-1.63904e-30 -0.00970858 0
5.35683e-30 -0.00970858 0
-3.08052e-30 -0.00970858 0
-5.44839e-30 -0.00970858 0
-2.01548e-30 -0.00970858 0
5.64508e-30 -0.00970858 0
6.4806e-31 -0.00970858 0
3.81897e-30 -0.00970858 0
1.83732e-30 -0.00970858 0
3.52182e-30 -0.00970858 0
-1.91963e-30 -0.00970858 0
1.40237e-30 -0.00970858 0
-5.06977e-30 -0.00970858 0
-4.63878e-31 -0.00970858 0
-5.33686e-30 -0.00970858 0
SCALARS radius double 1
LOOKUP_TABLE default
0.000621415
0.000750874
0.000735541
0.000522882
0.000780242
0.00097475
0.000994168
0.000790412
0.000880848
0.000720838
0.000933918
0.000958934
0.000753488
0.00054522
0.000712397
0.000950783
0.000807753
0.000836475
0.000569299
0.000603945
0.000628319
0.000580291
0.000777192
0.000692678
0.00055675
SCALARS mass double 1
LOOKUP_TABLE default
0.00327549
0.00478242
0.00458909
0.0023191
0.00516383
0.00805935
0.00838365
0.00529932
0.00658136
0.00440747
0.00739829
0.00779994
0.00481578
0.00252149
0.00430484
0.0076679
0.0055344
0.00593499
0.00274913
0.00309392
0.00334869
0.00285631
0.00512354
0.00406984
0.00262926
