# vtk DataFile Version 3.0
DEM2D particles
ASCII
DATASET POLYDATA
POINTS 25 double
0.000436511 0.000353188 0
0.00259373 0.000141214 0
0.00503527 0.000932504 0
0.0075525 -0.000516083 0
0.00982669 -0.000358146 0
0.00134532 0.00251697 0
0.00385427 0.00200542 0
0.0049179 0.00111492 0
0.00662312 0.00275106 0
0.00923317 0.00206487 0
0.000767124 0.00425246 0
0.0037611 0.00314502 0
0.00456232 0.0043312 0
0.00622589 0.00454942 0
0.00871364 0.00379872 0
0.00180206 0.00596426 0
0.00309208 0.00526739 0
0.0055426 0.00570739 0
0.00726105 0.00685025 0
0.00950038 0.00665524 0
0.000727257 0.00783868 0
0.00319925 0.00718898 0
0.00427968 0.00826006 0
0.00693409 0.00769915 0
0.00824173 0.00812661 0
VERTICES 25 50
1 0
1 1
1 2
1 3
1 4
1 5
1 6
1 7
1 8
1 9
1 10
1 11
1 12
1 13
1 14
1 15
1 16
1 17
1 18
1 19
1 20
1 21
1 22
1 23
1 24
POINT_DATA 25
VECTORS velocity double
-2.05931e-47 -0.00970858 0
-1.48474e-47 -0.00970858 0
1.28891e-48 -0.00970858 0
2.01916e-47 -0.00970858 0
3.02121e-47 -0.00970858 0
1.262e-47 -0.00970858 0
3.12197e-47 -0.00970858 0
-3.00035e-48 -0.00970858 0
-1.37733e-47 -0.00970858 0
8.52132e-48 -0.00970858 0
-8.51059e-48 -0.00970858 0
2.7815e-47 -0.00970858 0
-1.59954e-47 -0.00970858 0
-2.82904e-47 -0.00970858 0
-1.04652e-47 -0.00970858 0
2.93117e-47 -0.00970858 0
3.36501e-48 -0.00970858 0
1.98297e-47 -0.00970858 0
9.54014e-48 -0.00970858 0
1.82868e-47 -0.00970858 0
-9.96757e-48 -0.00970858 0
7.28171e-48 -0.00970858 0
-2.63244e-47 -0.00970858 0
-2.40865e-48 -0.00970858 0
-2.77113e-47 -0.00970858 0
SCALARS radius double 1
LOOKUP_TABLE default
0.000621415
0.000750874
0.000735541
0.000522882
0.000780242
0.00097475
0.000994168
0.000790412
0.000880848
0.000720838
0.000933918
0.000958934
0.000753488
0.00054522
0.000712397
0.000950783
0.000807753
0.000836475
0.000569299
0.000603945
0.000628319
0.000580291
0.000777192
0.000692678
0.00055675
SCALARS mass double 1
LOOKUP_TABLE default
0.00327549
0.00478242
0.00458909
0.0023191
0.00516383
0.00805935
0.00838365
0.00529932
0.00658136
0.00440747
0.00739829
0.00779994
0.00481578
0.00252149
0.00430484
0.0076679
0.0055344
0.00593499
0.00274913
0.00309392
0.00334869
0.00285631
0.00512354
0.00406984
0.00262926
