# vtk DataFile Version 3.0
DEM2D particles
ASCII
DATASET POLYDATA
POINTS 25 double
0.000436511 0.000485225 0
0.00259373 0.00027325 0
0.00503527 0.00106454 0
0.0075525 -0.000384046 0
0.00982669 -0.000226109 0
0.00134532 0.00264901 0
0.00385427 0.00213746 0
0.0049179 0.00124696 0
0.00662312 0.00288309 0
0.00923317 0.00219691 0
0.000767124 0.0043845 0
0.0037611 0.00327706 0
0.00456232 0.00446323 0
0.00622589 0.00468146 0
0.00871364 0.00393076 0
0.00180206 0.00609629 0
0.00309208 0.00539943 0
0.0055426 0.00583942 0
0.00726105 0.00698229 0
0.00950038 0.00678727 0
0.000727257 0.00797072 0
0.00319925 0.00732102 0
0.00427968 0.00839209 0
0.00693409 0.00783118 0
0.00824173 0.00825865 0
VERTICES 25 50
1 0
1 1
1 2
1 3
1 4
1 5
1 6
1 7
1 8
1 9
1 10
1 11
1 12
1 13
1 14
1 15
1 16
1 17
1 18
1 19
1 20
1 21
1 22
1 23
1 24
POINT_DATA 25
VECTORS velocity double
-1.77769e-41 -0.00970858 0
-1.2817e-41 -0.00970858 0
1.11265e-42 -0.00970858 0
1.74303e-41 -0.00970858 0
2.60805e-41 -0.00970858 0
1.08942e-41 -0.00970858 0
2.69503e-41 -0.00970858 0
-2.59005e-42 -0.00970858 0
-1.18898e-41 -0.00970858 0
7.35601e-42 -0.00970858 0
-7.34674e-42 -0.00970858 0
2.40112e-41 -0.00970858 0
-1.3808e-41 -0.00970858 0
-2.44216e-41 -0.00970858 0
-9.03409e-42 -0.00970858 0
2.53032e-41 -0.00970858 0
2.90483e-42 -0.00970858 0
1.71179e-41 -0.00970858 0
8.2355e-42 -0.00970858 0
1.5786e-41 -0.00970858 0
-8.60448e-42 -0.00970858 0
6.28592e-42 -0.00970858 0
-2.27245e-41 -0.00970858 0
-2.07926e-42 -0.00970858 0
-2.39217e-41 -0.00970858 0
SCALARS radius double 1
LOOKUP_TABLE default
0.000621415
0.000750874
0.000735541
0.000522882
0.000780242
0.00097475
0.000994168
0.000790412
0.000880848
0.000720838
0.000933918
0.000958934
0.000753488
0.00054522
0.000712397
0.000950783
0.000807753
0.000836475
0.000569299
0.000603945
0.000628319
0.000580291
0.000777192
0.000692678
0.00055675
SCALARS mass double 1
LOOKUP_TABLE default
0.00327549
0.00478242
0.00458909
0.0023191
0.00516383
0.00805935
0.00838365
0.00529932
0.00658136
0.00440747
0.00739829
0.00779994
0.00481578
0.00252149
0.00430484
0.0076679
0.0055344
0.00593499
0.00274913
0.00309392
0.00334869
0.00285631
0.00512354
0.00406984
0.00262926
