# vtk DataFile Version 3.0
DEM2D particles
ASCII
DATASET POLYDATA
POINTS 25 double
0.000436517 0.0012755 0
0.00259373 0.00106353 0
0.00503527 0.00185481 0
0.0075525 0.000406238 0
0.00982669 0.000564173 0
0.00134532 0.00343928 0
0.00385426 0.00292774 0
0.0049179 0.00203724 0
0.00662312 0.00367337 0
0.00923317 0.00298719 0
0.000767127 0.00517477 0
0.00376109 0.00406734 0
0.00456232 0.00525351 0
0.0062259 0.00547173 0
0.00871364 0.00472104 0
0.00180205 0.00688657 0
0.00309208 0.00618972 0
0.0055426 0.00662971 0
0.00726104 0.00777256 0
0.00950038 0.00757754 0
0.00072726 0.008761 0
0.00319925 0.0081113 0
0.00427969 0.00918237 0
0.00693409 0.00862147 0
0.00824174 0.00904892 0
VERTICES 25 50
1 0
1 1
1 2
1 3
1 4
1 5
1 6
1 7
1 8
1 9
1 10
1 11
1 12
1 13
1 14
1 15
1 16
1 17
1 18
1 19
1 20
1 21
1 22
1 23
1 24
POINT_DATA 25
VECTORS velocity double
-6.01689e-06 -0.00970446 0
-4.33813e-06 -0.00970672 0
3.76596e-07 -0.00969827 0
5.89959e-06 -0.00971374 0
8.82738e-06 -0.00971206 0
3.68731e-06 -0.00970271 0
9.12178e-06 -0.00970817 0
-8.76645e-07 -0.00971768 0
-4.02429e-06 -0.00970021 0
2.48976e-06 -0.00970754 0
-2.48663e-06 -0.00970554 0
8.12699e-06 -0.00971736 0
-4.67354e-06 -0.00970469 0
-8.26589e-06 -0.00970236 0
-3.05774e-06 -0.00971038 0
8.5643e-06 -0.00970861 0
9.8319e-07 -0.00971605 0
5.79386e-06 -0.00971136 0
2.78744e-06 -0.00969915 0
5.34305e-06 -0.00970123 0
-2.91233e-06 -0.00970995 0
2.12757e-06 -0.00971689 0
-7.69148e-06 -0.00970545 0
-7.03761e-07 -0.00971144 0
-8.09669e-06 -0.00970688 0
SCALARS radius double 1
LOOKUP_TABLE default
0.000621415
0.000750874
0.000735541
0.000522882
0.000780242
0.00097475
0.000994168
0.000790412
0.000880848
0.000720838
0.000933918
0.000958934
0.000753488
0.00054522
0.000712397
0.000950783
0.000807753
0.000836475
0.000569299
0.000603945
0.000628319
0.000580291
0.000777192
0.000692678
0.00055675
SCALARS mass double 1
LOOKUP_TABLE default
0.00327549
0.00478242
0.00458909
0.0023191
0.00516383
0.00805935
0.00838365
0.00529932
0.00658136
0.00440747
0.00739829
0.00779994
0.00481578
0.00252149
0.00430484
0.0076679
0.0055344
0.00593499
0.00274913
0.00309392
0.00334869
0.00285631
0.00512354
0.00406984
0.00262926
