# vtk DataFile Version 3.0
DEM2D particles
ASCII
DATASET POLYDATA
POINTS 25 double
0.000436511 0.000642504 0
0.00259373 0.000430529 0
0.00503527 0.00122182 0
0.0075525 -0.000226767 0
0.00982669 -6.883e-05 0
0.00134532 0.00280629 0
0.00385427 0.00229474 0
0.0049179 0.00140424 0
0.00662312 0.00304037 0
0.00923317 0.00235419 0
0.000767124 0.00454178 0
0.0037611 0.00343434 0
0.00456232 0.00462051 0
0.00622589 0.00483874 0
0.00871364 0.00408804 0
0.00180206 0.00625357 0
0.00309208 0.00555671 0
0.0055426 0.0059967 0
0.00726105 0.00713957 0
0.00950038 0.00694455 0
0.000727257 0.00812799 0
0.00319925 0.0074783 0
0.00427968 0.00854937 0
0.00693409 0.00798846 0
0.00824173 0.00841592 0
VERTICES 25 50
1 0
1 1
1 2
1 3
1 4
1 5
1 6
1 7
1 8
1 9
1 10
1 11
1 12
1 13
1 14
1 15
1 16
1 17
1 18
1 19
1 20
1 21
1 22
1 23
1 24
POINT_DATA 25
VECTORS velocity double
-2.09335e-34 -0.00970858 0
-1.50929e-34 -0.00970858 0
1.31022e-35 -0.00970858 0
2.05253e-34 -0.00970858 0
3.07115e-34 -0.00970858 0
1.28286e-34 -0.00970858 0
3.17357e-34 -0.00970858 0
-3.04995e-35 -0.00970858 0
-1.4001e-34 -0.00970858 0
8.66217e-35 -0.00970858 0
-8.65127e-35 -0.00970858 0
2.82747e-34 -0.00970858 0
-1.62598e-34 -0.00970858 0
-2.8758e-34 -0.00970858 0
-1.06382e-34 -0.00970858 0
2.97962e-34 -0.00970858 0
3.42063e-35 -0.00970858 0
2.01575e-34 -0.00970858 0
9.69783e-35 -0.00970858 0
1.85891e-34 -0.00970858 0
-1.01323e-34 -0.00970858 0
7.40208e-35 -0.00970858 0
-2.67596e-34 -0.00970858 0
-2.44847e-35 -0.00970858 0
-2.81693e-34 -0.00970858 0
SCALARS radius double 1
LOOKUP_TABLE default
0.000621415
0.000750874
0.000735541
0.000522882
0.000780242
0.00097475
0.000994168
0.000790412
0.000880848
0.000720838
0.000933918
0.000958934
0.000753488
0.00054522
0.000712397
0.000950783
0.000807753
0.000836475
0.000569299
0.000603945
0.000628319
0.000580291
0.000777192
0.000692678
0.00055675
SCALARS mass double 1
LOOKUP_TABLE default
0.00327549
0.00478242
0.00458909
0.0023191
0.00516383
0.00805935
0.00838365
0.00529932
0.00658136
0.00440747
0.00739829
0.00779994
0.00481578
0.00252149
0.00430484
0.0076679
0.0055344
0.00593499
0.00274913
0.00309392
0.00334869
0.00285631
0.00512354
0.00406984
0.00262926
