# vtk DataFile Version 3.0
DEM2D particles
ASCII
DATASET POLYDATA
POINTS 25 double
0.000477819 0.00133263 0
0.00262351 0.00113619 0
0.00503268 0.00186948 0
0.007512 0.000527082 0
0.00976609 0.000673441 0
0.00132001 0.00348441 0
0.00379164 0.00301036 0
0.00492392 0.00218514 0
0.00665075 0.00370133 0
0.00921608 0.00306545 0
0.000784196 0.00523929 0
0.00370531 0.00421303 0
0.0045944 0.00531225 0
0.00628264 0.00551448 0
0.00873463 0.00481881 0
0.00174326 0.00697221 0
0.00308533 0.00632643 0
0.00550282 0.00673417 0
0.00724191 0.00779325 0
0.0094637 0.00761253 0
0.000747251 0.00885584 0
0.00318464 0.00825377 0
0.00433249 0.00924632 0
0.00693892 0.00872653 0
0.00829732 0.00912266 0
VERTICES 25 50
1 0
1 1
1 2
1 3
1 4
1 5
1 6
1 7
1 8
1 9
1 10
1 11
1 12
1 13
1 14
1 15
1 16
1 17
1 18
1 19
1 20
1 21
1 22
1 23
1 24
POINT_DATA 25
VECTORS velocity double
-0.0417254 0.0188875 0
-0.0300837 0.00319115 0
0.00261159 0.0617849 0
0.040912 -0.0454806 0
0.0612154 -0.0337856 0
0.0255704 0.0310156 0
0.063257 -0.00686392 0
-0.00607928 -0.0728042 0
-0.0279073 0.0483491 0
0.0172658 -0.00246175 0
-0.0172441 0.0114289 0
0.0563584 -0.0705753 0
-0.0324097 0.0172591 0
-0.0573216 0.0334182 0
-0.0212045 -0.0221696 0
0.059391 -0.00991231 0
0.00681814 -0.0615138 0
0.0401788 -0.028933 0
0.0193301 0.0556941 0
0.0370525 0.0412537 0
-0.0201962 -0.0192111 0
0.0147541 -0.0673202 0
-0.0533383 0.0119913 0
-0.00488039 -0.0295431 0
-0.0561483 0.00210971 0
SCALARS radius double 1
LOOKUP_TABLE default
0.000621415
0.000750874
0.000735541
0.000522882
0.000780242
0.00097475
0.000994168
0.000790412
0.000880848
0.000720838
0.000933918
0.000958934
0.000753488
0.00054522
0.000712397
0.000950783
0.000807753
0.000836475
0.000569299
0.000603945
0.000628319
0.000580291
0.000777192
0.000692678
0.00055675
SCALARS mass double 1
LOOKUP_TABLE default
0.00327549
0.00478242
0.00458909
0.0023191
0.00516383
0.00805935
0.00838365
0.00529932
0.00658136
0.00440747
0.00739829
0.00779994
0.00481578
0.00252149
0.00430484
0.0076679
0.0055344
0.00593499
0.00274913
0.00309392
0.00334869
0.00285631
0.00512354
0.00406984
0.00262926
