# vtk DataFile Version 3.0
DEM2D particles
ASCII
DATASET POLYDATA
POINTS 25 double
0.000436511 0.000745415 0
0.00259373 0.00053344 0
0.00503527 0.00132473 0
0.0075525 -0.000123856 0
0.00982669 3.40809e-05 0
0.00134532 0.0029092 0
0.00385427 0.00239765 0
0.0049179 0.00150715 0
0.00662312 0.00314328 0
0.00923317 0.0024571 0
0.000767124 0.00464469 0
0.0037611 0.00353725 0
0.00456232 0.00472342 0
0.00622589 0.00494165 0
0.00871364 0.00419095 0
0.00180206 0.00635648 0
0.00309208 0.00565962 0
0.0055426 0.00609961 0
0.00726105 0.00724248 0
0.00950038 0.00704746 0
0.000727257 0.00823091 0
0.00319925 0.00758121 0
0.00427968 0.00865228 0
0.00693409 0.00809137 0
0.00824173 0.00851884 0
VERTICES 25 50
1 0
1 1
1 2
1 3
1 4
1 5
1 6
1 7
1 8
1 9
1 10
1 11
1 12
1 13
1 14
1 15
1 16
1 17
1 18
1 19
1 20
1 21
1 22
1 23
1 24
POINT_DATA 25
VECTORS velocity double
-8.86206e-30 -0.00970858 0
-6.38948e-30 -0.00970858 0
5.54674e-31 -0.00970858 0
8.68929e-30 -0.00970858 0
1.30015e-29 -0.00970858 0
5.4309e-30 -0.00970858 0
1.34351e-29 -0.00970858 0
-1.29118e-30 -0.00970858 0
-5.92723e-30 -0.00970858 0
3.66708e-30 -0.00970858 0
-3.66246e-30 -0.00970858 0
1.197e-29 -0.00970858 0
-6.88349e-30 -0.00970858 0
-1.21745e-29 -0.00970858 0
-4.50363e-30 -0.00970858 0
1.2614e-29 -0.00970858 0
1.4481e-30 -0.00970858 0
8.53356e-30 -0.00970858 0
4.10552e-30 -0.00970858 0
7.86958e-30 -0.00970858 0
-4.28946e-30 -0.00970858 0
3.13363e-30 -0.00970858 0
-1.13285e-29 -0.00970858 0
-1.03654e-30 -0.00970858 0
-1.19253e-29 -0.00970858 0
SCALARS radius double 1
LOOKUP_TABLE default
0.000621415
0.000750874
0.000735541
0.000522882
0.000780242
0.00097475
0.000994168
0.000790412
0.000880848
0.000720838
0.000933918
0.000958934
0.000753488
0.00054522
0.000712397
0.000950783
0.000807753
0.000836475
0.000569299
0.000603945
0.000628319
0.000580291
0.000777192
0.000692678
0.00055675
SCALARS mass double 1
LOOKUP_TABLE default
0.00327549
0.00478242
0.00458909
0.0023191
0.00516383
0.00805935
0.00838365
0.00529932
0.00658136
0.00440747
0.00739829
0.00779994
0.00481578
0.00252149
0.00430484
0.0076679
0.0055344
0.00593499
0.00274913
0.00309392
0.00334869
0.00285631
0.00512354
0.00406984
0.00262926
