# vtk DataFile Version 3.0
DEM2D particles
ASCII
DATASET POLYDATA
POINTS 25 double
0.000436511 -0.000312821 0
0.00259373 -0.000524795 0
0.00503527 0.000266495 0
0.0075525 -0.00118209 0
0.00982669 -0.00102415 0
0.00134532 0.00185097 0
0.00385427 0.00133941 0
0.0049179 0.000448911 0
0.00662312 0.00208505 0
0.00923317 0.00139886 0
0.000767124 0.00358645 0
0.0037611 0.00247901 0
0.00456232 0.00366519 0
0.00622589 0.00388341 0
0.00871364 0.00313272 0
0.00180206 0.00529825 0
0.00309208 0.00460138 0
0.0055426 0.00504138 0
0.00726105 0.00618424 0
0.00950038 0.00598923 0
0.000727257 0.00717267 0
0.00319925 0.00652297 0
0.00427968 0.00759405 0
0.00693409 0.00703314 0
0.00824173 0.0074606 0
VERTICES 25 50
1 0
1 1
1 2
1 3
1 4
1 5
1 6
1 7
1 8
1 9
1 10
1 11
1 12
1 13
1 14
1 15
1 16
1 17
1 18
1 19
1 20
1 21
1 22
1 23
1 24
POINT_DATA 25
VECTORS velocity double
-2.35048e-77 -0.00970858 0
-1.69467e-77 -0.00970858 0
1.47116e-78 -0.00970858 0
2.30465e-77 -0.00970858 0
3.44838e-77 -0.00970858 0
1.44043e-77 -0.00970858 0
3.56339e-77 -0.00970858 0
-3.42458e-78 -0.00970858 0
-1.57207e-77 -0.00970858 0
9.72617e-78 -0.00970858 0
-9.71392e-78 -0.00970858 0
3.17478e-77 -0.00970858 0
-1.8257e-77 -0.00970858 0
-3.22904e-77 -0.00970858 0
-1.19449e-77 -0.00970858 0
3.34561e-77 -0.00970858 0
3.84079e-78 -0.00970858 0
2.26335e-77 -0.00970858 0
1.0889e-77 -0.00970858 0
2.08724e-77 -0.00970858 0
-1.13769e-77 -0.00970858 0
8.31129e-78 -0.00970858 0
-3.00465e-77 -0.00970858 0
-2.74922e-78 -0.00970858 0
-3.16294e-77 -0.00970858 0
SCALARS radius double 1
LOOKUP_TABLE default
0.000621415
0.000750874
0.000735541
0.000522882
0.000780242
0.00097475
0.000994168
0.000790412
0.000880848
0.000720838
0.000933918
0.000958934
0.000753488
0.00054522
0.000712397
0.000950783
0.000807753
0.000836475
0.000569299
0.000603945
0.000628319
0.000580291
0.000777192
0.000692678
0.00055675
SCALARS mass double 1
LOOKUP_TABLE default
0.00327549
0.00478242
0.00458909
0.0023191
0.00516383
0.00805935
0.00838365
0.00529932
0.00658136
0.00440747
0.00739829
0.00779994
0.00481578
0.00252149
0.00430484
0.0076679
0.0055344
0.00593499
0.00274913
0.00309392
0.00334869
0.00285631
0.00512354
0.00406984
0.00262926
