# vtk DataFile Version 3.0
DEM2D particles
ASCII
DATASET POLYDATA
POINTS 25 double
0.000436511 0.000531826 0
0.00259373 0.000319852 0
0.00503527 0.00111114 0
0.0075525 -0.000337445 0
0.00982669 -0.000179508 0
0.00134532 0.00269561 0
0.00385427 0.00218406 0
0.0049179 0.00129356 0
0.00662312 0.0029297 0
0.00923317 0.00224351 0
0.000767124 0.0044311 0
0.0037611 0.00332366 0
0.00456232 0.00450983 0
0.00622589 0.00472806 0
0.00871364 0.00397736 0
0.00180206 0.00614289 0
0.00309208 0.00544603 0
0.0055426 0.00588603 0
0.00726105 0.00702889 0
0.00950038 0.00683387 0
0.000727257 0.00801732 0
0.00319925 0.00736762 0
0.00427968 0.00843869 0
0.00693409 0.00787779 0
0.00824173 0.00830525 0
VERTICES 25 50
1 0
1 1
1 2
1 3
1 4
1 5
1 6
1 7
1 8
1 9
1 10
1 11
1 12
1 13
1 14
1 15
1 16
1 17
1 18
1 19
1 20
1 21
1 22
1 23
1 24
POINT_DATA 25
VECTORS velocity double
-2.2129e-39 -0.00970858 0
-1.59549e-39 -0.00970858 0
1.38505e-40 -0.00970858 0
2.16976e-39 -0.00970858 0
3.24655e-39 -0.00970858 0
1.35613e-39 -0.00970858 0
3.35483e-39 -0.00970858 0
-3.22414e-40 -0.00970858 0
-1.48006e-39 -0.00970858 0
9.15691e-40 -0.00970858 0
-9.14538e-40 -0.00970858 0
2.98896e-39 -0.00970858 0
-1.71885e-39 -0.00970858 0
-3.04005e-39 -0.00970858 0
-1.12458e-39 -0.00970858 0
3.1498e-39 -0.00970858 0
3.616e-40 -0.00970858 0
2.13088e-39 -0.00970858 0
1.02517e-39 -0.00970858 0
1.96508e-39 -0.00970858 0
-1.0711e-39 -0.00970858 0
7.82484e-40 -0.00970858 0
-2.82879e-39 -0.00970858 0
-2.58831e-40 -0.00970858 0
-2.97782e-39 -0.00970858 0
SCALARS radius double 1
LOOKUP_TABLE default
0.000621415
0.000750874
0.000735541
0.000522882
0.000780242
0.00097475
0.000994168
0.000790412
0.000880848
0.000720838
0.000933918
0.000958934
0.000753488
0.00054522
0.000712397
0.000950783
0.000807753
0.000836475
0.000569299
0.000603945
0.000628319
0.000580291
0.000777192
0.000692678
0.00055675
SCALARS mass double 1
LOOKUP_TABLE default
0.00327549
0.00478242
0.00458909
0.0023191
0.00516383
0.00805935
0.00838365
0.00529932
0.00658136
0.00440747
0.00739829
0.00779994
0.00481578
0.00252149
0.00430484
0.0076679
0.0055344
0.00593499
0.00274913
0.00309392
0.00334869
0.00285631
0.00512354
0.00406984
0.00262926
