# vtk DataFile Version 3.0
DEM2D particles
ASCII
DATASET POLYDATA
POINTS 25 double
0.000436511 0.000803666 0
0.00259373 0.000591692 0
0.00503527 0.00138298 0
0.0075525 -6.56046e-05 0
0.00982669 9.23324e-05 0
0.00134532 0.00296745 0
0.00385427 0.0024559 0
0.0049179 0.0015654 0
0.00662312 0.00320154 0
0.00923317 0.00251535 0
0.000767124 0.00470294 0
0.0037611 0.0035955 0
0.00456232 0.00478167 0
0.00622589 0.0049999 0
0.00871364 0.0042492 0
0.00180206 0.00641473 0
0.00309208 0.00571787 0
0.0055426 0.00615787 0
0.00726105 0.00730073 0
0.00950038 0.00710571 0
0.000727257 0.00828916 0
0.00319925 0.00763946 0
0.00427968 0.00871053 0
0.00693409 0.00814963 0
0.00824173 0.00857709 0
VERTICES 25 50
1 0
1 1
1 2
1 3
1 4
1 5
1 6
1 7
1 8
1 9
1 10
1 11
1 12
1 13
1 14
1 15
1 16
1 17
1 18
1 19
1 20
1 21
1 22
1 23
1 24
POINT_DATA 25
VECTORS velocity double
-3.68483e-27 -0.00970858 0
-2.65674e-27 -0.00970858 0
2.30633e-28 -0.00970858 0
3.613e-27 -0.00970858 0
5.40602e-27 -0.00970858 0
2.25816e-27 -0.00970858 0
5.58632e-27 -0.00970858 0
-5.3687e-28 -0.00970858 0
-2.46453e-27 -0.00970858 0
1.52477e-27 -0.00970858 0
-1.52285e-27 -0.00970858 0
4.97709e-27 -0.00970858 0
-2.86215e-27 -0.00970858 0
-5.06216e-27 -0.00970858 0
-1.8726e-27 -0.00970858 0
5.2449e-27 -0.00970858 0
6.0212e-28 -0.00970858 0
3.54824e-27 -0.00970858 0
1.70707e-27 -0.00970858 0
3.27216e-27 -0.00970858 0
-1.78355e-27 -0.00970858 0
1.30296e-27 -0.00970858 0
-4.71038e-27 -0.00970858 0
-4.30994e-28 -0.00970858 0
-4.95854e-27 -0.00970858 0
SCALARS radius double 1
LOOKUP_TABLE default
0.000621415
0.000750874
0.000735541
0.000522882
0.000780242
0.00097475
0.000994168
0.000790412
0.000880848
0.000720838
0.000933918
0.000958934
0.000753488
0.00054522
0.000712397
0.000950783
0.000807753
0.000836475
0.000569299
0.000603945
0.000628319
0.000580291
0.000777192
0.000692678
0.00055675
SCALARS mass double 1
LOOKUP_TABLE default
0.00327549
0.00478242
0.00458909
0.0023191
0.00516383
0.00805935
0.00838365
0.00529932
0.00658136
0.00440747
0.00739829
0.00779994
0.00481578
0.00252149
0.00430484
0.0076679
0.0055344
0.00593499
0.00274913
0.00309392
0.00334869
0.00285631
0.00512354
0.00406984
0.00262926
