# vtk DataFile Version 3.0
DEM2D particles
ASCII
DATASET POLYDATA
POINTS 25 double
0.000436511 0.00121919 0
0.00259373 0.00100722 0
0.00503527 0.00179851 0
0.0075525 0.000349923 0
0.00982669 0.00050786 0
0.00134532 0.00338298 0
0.00385427 0.00287143 0
0.0049179 0.00198093 0
0.00662312 0.00361706 0
0.00923317 0.00293088 0
0.000767124 0.00511847 0
0.0037611 0.00401103 0
0.00456232 0.0051972 0
0.00622589 0.00541543 0
0.00871364 0.00466473 0
0.00180206 0.00683026 0
0.00309208 0.0061334 0
0.0055426 0.00657339 0
0.00726105 0.00771625 0
0.00950038 0.00752124 0
0.000727257 0.00870468 0
0.00319925 0.00805499 0
0.00427968 0.00912606 0
0.00693409 0.00856515 0
0.00824173 0.00899261 0
VERTICES 25 50
1 0
1 1
1 2
1 3
1 4
1 5
1 6
1 7
1 8
1 9
1 10
1 11
1 12
1 13
1 14
1 15
1 16
1 17
1 18
1 19
1 20
1 21
1 22
1 23
1 24
POINT_DATA 25
VECTORS velocity double
-1.76923e-08 -0.00970857 0
-1.2756e-08 -0.00970858 0
1.10736e-09 -0.00970855 0
1.73474e-08 -0.0097086 0
2.59564e-08 -0.00970859 0
1.08423e-08 -0.00970857 0
2.68221e-08 -0.00970858 0
-2.57772e-09 -0.00970861 0
-1.18332e-08 -0.00970856 0
7.32101e-09 -0.00970858 0
-7.31179e-09 -0.00970857 0
2.3897e-08 -0.00970861 0
-1.37423e-08 -0.00970857 0
-2.43054e-08 -0.00970857 0
-8.99111e-09 -0.00970859 0
2.51828e-08 -0.00970858 0
2.89101e-09 -0.00970861 0
1.70365e-08 -0.00970859 0
8.19632e-09 -0.00970856 0
1.57109e-08 -0.00970856 0
-8.56354e-09 -0.00970859 0
6.25601e-09 -0.00970861 0
-2.26164e-08 -0.00970857 0
-2.06937e-09 -0.00970859 0
-2.38079e-08 -0.00970858 0
SCALARS radius double 1
LOOKUP_TABLE default
0.000621415
0.000750874
0.000735541
0.000522882
0.000780242
0.00097475
0.000994168
0.000790412
0.000880848
0.000720838
0.000933918
0.000958934
0.000753488
0.00054522
0.000712397
0.000950783
0.000807753
0.000836475
0.000569299
0.000603945
0.000628319
0.000580291
0.000777192
0.000692678
0.00055675
SCALARS mass double 1
LOOKUP_TABLE default
0.00327549
0.00478242
0.00458909
0.0023191
0.00516383
0.00805935
0.00838365
0.00529932
0.00658136
0.00440747
0.00739829
0.00779994
0.00481578
0.00252149
0.00430484
0.0076679
0.0055344
0.00593499
0.00274913
0.00309392
0.00334869
0.00285631
0.00512354
0.00406984
0.00262926
