# vtk DataFile Version 3.0
DEM2D particles
ASCII
DATASET POLYDATA
POINTS 25 double
0.000436511 0.000990071 0
0.00259373 0.000778097 0
0.00503527 0.00156939 0
0.0075525 0.0001208 0
0.00982669 0.000278737 0
0.00134532 0.00315386 0
0.00385427 0.00264231 0
0.0049179 0.0017518 0
0.00662312 0.00338794 0
0.00923317 0.00270176 0
0.000767124 0.00488935 0
0.0037611 0.0037819 0
0.00456232 0.00496808 0
0.00622589 0.0051863 0
0.00871364 0.00443561 0
0.00180206 0.00660114 0
0.00309208 0.00590428 0
0.0055426 0.00634427 0
0.00726105 0.00748713 0
0.00950038 0.00729212 0
0.000727257 0.00847556 0
0.00319925 0.00782586 0
0.00427968 0.00889694 0
0.00693409 0.00833603 0
0.00824173 0.00876349 0
VERTICES 25 50
1 0
1 1
1 2
1 3
1 4
1 5
1 6
1 7
1 8
1 9
1 10
1 11
1 12
1 13
1 14
1 15
1 16
1 17
1 18
1 19
1 20
1 21
1 22
1 23
1 24
POINT_DATA 25
VECTORS velocity double
-8.84798e-19 -0.00970858 0
-6.37933e-19 -0.00970858 0
5.53793e-20 -0.00970858 0
8.67549e-19 -0.00970858 0
1.29809e-18 -0.00970858 0
5.42228e-19 -0.00970858 0
1.34138e-18 -0.00970858 0
-1.28913e-19 -0.00970858 0
-5.91781e-19 -0.00970858 0
3.66126e-19 -0.00970858 0
-3.65665e-19 -0.00970858 0
1.19509e-18 -0.00970858 0
-6.87256e-19 -0.00970858 0
-1.21552e-18 -0.00970858 0
-4.49648e-19 -0.00970858 0
1.2594e-18 -0.00970858 0
1.4458e-19 -0.00970858 0
8.52e-19 -0.00970858 0
4.099e-19 -0.00970858 0
7.85708e-19 -0.00970858 0
-4.28265e-19 -0.00970858 0
3.12865e-19 -0.00970858 0
-1.13105e-18 -0.00970858 0
-1.0349e-19 -0.00970858 0
-1.19064e-18 -0.00970858 0
SCALARS radius double 1
LOOKUP_TABLE default
0.000621415
0.000750874
0.000735541
0.000522882
0.000780242
0.00097475
0.000994168
0.000790412
0.000880848
0.000720838
0.000933918
0.000958934
0.000753488
0.00054522
0.000712397
0.000950783
0.000807753
0.000836475
0.000569299
0.000603945
0.000628319
0.000580291
0.000777192
0.000692678
0.00055675
SCALARS mass double 1
LOOKUP_TABLE default
0.00327549
0.00478242
0.00458909
0.0023191
0.00516383
0.00805935
0.00838365
0.00529932
0.00658136
0.00440747
0.00739829
0.00779994
0.00481578
0.00252149
0.00430484
0.0076679
0.0055344
0.00593499
0.00274913
0.00309392
0.00334869
0.00285631
0.00512354
0.00406984
0.00262926
