# vtk DataFile Version 3.0
DEM2D particles
ASCII
DATASET POLYDATA
POINTS 25 double
0.000436511 -0.000149717 0
0.00259373 -0.000361691 0
0.00503527 0.0004296 0
0.0075525 -0.00101899 0
0.00982669 -0.00086105 0
0.00134532 0.00201407 0
0.00385427 0.00150252 0
0.0049179 0.000612015 0
0.00662312 0.00224815 0
0.00923317 0.00156197 0
0.000767124 0.00374956 0
0.0037611 0.00264212 0
0.00456232 0.00382829 0
0.00622589 0.00404652 0
0.00871364 0.00329582 0
0.00180206 0.00546135 0
0.00309208 0.00476449 0
0.0055426 0.00520448 0
0.00726105 0.00634734 0
0.00950038 0.00615233 0
0.000727257 0.00733577 0
0.00319925 0.00668608 0
0.00427968 0.00775715 0
0.00693409 0.00719624 0
0.00824173 0.0076237 0
VERTICES 25 50
1 0
1 1
1 2
1 3
1 4
1 5
1 6
1 7
1 8
1 9
1 10
1 11
1 12
1 13
1 14
1 15
1 16
1 17
1 18
1 19
1 20
1 21
1 22
1 23
1 24
POINT_DATA 25
VECTORS velocity double
-5.05858e-70 -0.00970858 0
-3.6472e-70 -0.00970858 0
3.16616e-71 -0.00970858 0
4.95996e-70 -0.00970858 0
7.42144e-70 -0.00970858 0
3.10003e-70 -0.00970858 0
7.66896e-70 -0.00970858 0
-7.37022e-71 -0.00970858 0
-3.38334e-70 -0.00970858 0
2.09322e-70 -0.00970858 0
-2.09058e-70 -0.00970858 0
6.83261e-70 -0.00970858 0
-3.92919e-70 -0.00970858 0
-6.94939e-70 -0.00970858 0
-2.57073e-70 -0.00970858 0
7.20026e-70 -0.00970858 0
8.26598e-71 -0.00970858 0
4.87107e-70 -0.00970858 0
2.34349e-70 -0.00970858 0
4.49206e-70 -0.00970858 0
-2.44848e-70 -0.00970858 0
1.78872e-70 -0.00970858 0
-6.46646e-70 -0.00970858 0
-5.91674e-71 -0.00970858 0
-6.80714e-70 -0.00970858 0
SCALARS radius double 1
LOOKUP_TABLE default
0.000621415
0.000750874
0.000735541
0.000522882
0.000780242
0.00097475
0.000994168
0.000790412
0.000880848
0.000720838
0.000933918
0.000958934
0.000753488
0.00054522
0.000712397
0.000950783
0.000807753
0.000836475
0.000569299
0.000603945
0.000628319
0.000580291
0.000777192
0.000692678
0.00055675
SCALARS mass double 1
LOOKUP_TABLE default
0.00327549
0.00478242
0.00458909
0.0023191
0.00516383
0.00805935
0.00838365
0.00529932
0.00658136
0.00440747
0.00739829
0.00779994
0.00481578
0.00252149
0.00430484
0.0076679
0.0055344
0.00593499
0.00274913
0.00309392
0.00334869
0.00285631
0.00512354
0.00406984
0.00262926
