# vtk DataFile Version 3.0
DEM2D particles
ASCII
DATASET POLYDATA
POINTS 25 double
0.000436511 0.00045804 0
0.00259373 0.000246066 0
0.00503527 0.00103736 0
0.0075525 -0.00041123 0
0.00982669 -0.000253293 0
0.00134532 0.00262183 0
0.00385427 0.00211028 0
0.0049179 0.00121977 0
0.00662312 0.00285591 0
0.00923317 0.00216973 0
0.000767124 0.00435731 0
0.0037611 0.00324987 0
0.00456232 0.00443605 0
0.00622589 0.00465427 0
0.00871364 0.00390358 0
0.00180206 0.00606911 0
0.00309208 0.00537225 0
0.0055426 0.00581224 0
0.00726105 0.0069551 0
0.00950038 0.00676009 0
0.000727257 0.00794353 0
0.00319925 0.00729383 0
0.00427968 0.00836491 0
0.00693409 0.007804 0
0.00824173 0.00823146 0
VERTICES 25 50
1 0
1 1
1 2
1 3
1 4
1 5
1 6
1 7
1 8
1 9
1 10
1 11
1 12
1 13
1 14
1 15
1 16
1 17
1 18
1 19
1 20
1 21
1 22
1 23
1 24
POINT_DATA 25
VECTORS velocity double
-1.06589e-42 -0.00970858 0
-7.68495e-43 -0.00970858 0
6.67136e-44 -0.00970858 0
1.04511e-42 -0.00970858 0
1.56376e-42 -0.00970858 0
6.53203e-43 -0.00970858 0
1.61591e-42 -0.00970858 0
-1.55297e-43 -0.00970858 0
-7.12898e-43 -0.00970858 0
4.41059e-43 -0.00970858 0
-4.40504e-43 -0.00970858 0
1.43969e-42 -0.00970858 0
-8.27913e-43 -0.00970858 0
-1.46429e-42 -0.00970858 0
-5.41675e-43 -0.00970858 0
1.51716e-42 -0.00970858 0
1.74171e-43 -0.00970858 0
1.02638e-42 -0.00970858 0
4.93792e-43 -0.00970858 0
9.46515e-43 -0.00970858 0
-5.15916e-43 -0.00970858 0
3.76898e-43 -0.00970858 0
-1.36254e-42 -0.00970858 0
-1.24671e-43 -0.00970858 0
-1.43432e-42 -0.00970858 0
SCALARS radius double 1
LOOKUP_TABLE default
0.000621415
0.000750874
0.000735541
0.000522882
0.000780242
0.00097475
0.000994168
0.000790412
0.000880848
0.000720838
0.000933918
0.000958934
0.000753488
0.00054522
0.000712397
0.000950783
0.000807753
0.000836475
0.000569299
0.000603945
0.000628319
0.000580291
0.000777192
0.000692678
0.00055675
SCALARS mass double 1
LOOKUP_TABLE default
0.00327549
0.00478242
0.00458909
0.0023191
0.00516383
0.00805935
0.00838365
0.00529932
0.00658136
0.00440747
0.00739829
0.00779994
0.00481578
0.00252149
0.00430484
0.0076679
0.0055344
0.00593499
0.00274913
0.00309392
0.00334869
0.00285631
0.00512354
0.00406984
0.00262926
