# vtk DataFile Version 3.0
DEM2D particles
ASCII
DATASET POLYDATA
POINTS 25 double
0.000436511 0.000945411 0
0.00259373 0.000733437 0
0.00503527 0.00152473 0
0.0075525 7.61407e-05 0
0.00982669 0.000234078 0
0.00134532 0.0031092 0
0.00385427 0.00259765 0
0.0049179 0.00170714 0
0.00662312 0.00334328 0
0.00923317 0.0026571 0
0.000767124 0.00484469 0
0.0037611 0.00373724 0
0.00456232 0.00492342 0
0.00622589 0.00514164 0
0.00871364 0.00439095 0
0.00180206 0.00655648 0
0.00309208 0.00585962 0
0.0055426 0.00629961 0
0.00726105 0.00744247 0
0.00950038 0.00724746 0
0.000727257 0.0084309 0
0.00319925 0.0077812 0
0.00427968 0.00885228 0
0.00693409 0.00829137 0
0.00824173 0.00871883 0
VERTICES 25 50
1 0
1 1
1 2
1 3
1 4
1 5
1 6
1 7
1 8
1 9
1 10
1 11
1 12
1 13
1 14
1 15
1 16
1 17
1 18
1 19
1 20
1 21
1 22
1 23
1 24
POINT_DATA 25
VECTORS velocity double
-8.69028e-21 -0.00970858 0
-6.26563e-21 -0.00970858 0
5.43923e-22 -0.00970858 0
8.52086e-21 -0.00970858 0
1.27495e-20 -0.00970858 0
5.32563e-21 -0.00970858 0
1.31747e-20 -0.00970858 0
-1.26615e-21 -0.00970858 0
-5.81234e-21 -0.00970858 0
3.596e-21 -0.00970858 0
-3.59147e-21 -0.00970858 0
1.17379e-20 -0.00970858 0
-6.75006e-21 -0.00970858 0
-1.19385e-20 -0.00970858 0
-4.41633e-21 -0.00970858 0
1.23695e-20 -0.00970858 0
1.42004e-21 -0.00970858 0
8.36815e-21 -0.00970858 0
4.02594e-21 -0.00970858 0
7.71704e-21 -0.00970858 0
-4.20632e-21 -0.00970858 0
3.07289e-21 -0.00970858 0
-1.11089e-20 -0.00970858 0
-1.01645e-21 -0.00970858 0
-1.16942e-20 -0.00970858 0
SCALARS radius double 1
LOOKUP_TABLE default
0.000621415
0.000750874
0.000735541
0.000522882
0.000780242
0.00097475
0.000994168
0.000790412
0.000880848
0.000720838
0.000933918
0.000958934
0.000753488
0.00054522
0.000712397
0.000950783
0.000807753
0.000836475
0.000569299
0.000603945
0.000628319
0.000580291
0.000777192
0.000692678
0.00055675
SCALARS mass double 1
LOOKUP_TABLE default
0.00327549
0.00478242
0.00458909
0.0023191
0.00516383
0.00805935
0.00838365
0.00529932
0.00658136
0.00440747
0.00739829
0.00779994
0.00481578
0.00252149
0.00430484
0.0076679
0.0055344
0.00593499
0.00274913
0.00309392
0.00334869
0.00285631
0.00512354
0.00406984
0.00262926
