# vtk DataFile Version 3.0
DEM2D particles
ASCII
DATASET POLYDATA
POINTS 25 double
0.001 0.001 0
0.003 0.001 0
0.005 0.001 0
0.007 0.001 0
0.009 0.001 0
0.001 0.003 0
0.003 0.003 0
0.005 0.003 0
0.007 0.003 0
0.009 0.003 0
0.001 0.005 0
0.003 0.005 0
0.005 0.005 0
0.007 0.005 0
0.009 0.005 0
0.001 0.007 0
0.003 0.007 0
0.005 0.007 0
0.007 0.007 0
0.009 0.007 0
0.001 0.009 0
0.003 0.009 0
0.005 0.009 0
0.007 0.009 0
0.009 0.009 0
VERTICES 25 50
1 0
1 1
1 2
1 3
1 4
1 5
1 6
1 7
1 8
1 9
1 10
1 11
1 12
1 13
1 14
1 15
1 16
1 17
1 18
1 19
1 20
1 21
1 22
1 23
1 24
POINT_DATA 25
VECTORS velocity double
-0.569181 0.380373 0
-0.410375 0.166258 0
0.0356249 0.965541 0
0.558084 -0.497678 0
0.835045 -0.338145 0
0.348809 0.545814 0
0.862895 0.0290957 0
-0.0829281 -0.870403 0
-0.380686 0.782262 0
0.235525 0.0891462 0
-0.235228 0.27863 0
0.768791 -0.839998 0
-0.442104 0.35816 0
-0.78193 0.578589 0
-0.289253 -0.17969 0
0.810158 -0.0124877 0
0.093007 -0.716389 0
0.548082 -0.27195 0
0.263684 0.882456 0
0.505437 0.685473 0
-0.275498 -0.139333 0
0.201263 -0.795594 0
-0.727593 0.286301 0
-0.0665738 -0.280273 0
-0.765924 0.151506 0
SCALARS radius double 1
LOOKUP_TABLE default
0.000621415
0.000750874
0.000735541
0.000522882
0.000780242
0.00097475
0.000994168
0.000790412
0.000880848
0.000720838
0.000933918
0.000958934
0.000753488
0.00054522
0.000712397
0.000950783
0.000807753
0.000836475
0.000569299
0.000603945
0.000628319
0.000580291
0.000777192
0.000692678
0.00055675
SCALARS mass double 1
LOOKUP_TABLE default
0.00327549
0.00478242
0.00458909
0.0023191
0.00516383
0.00805935
0.00838365
0.00529932
0.00658136
0.00440747
0.00739829
0.00779994
0.00481578
0.00252149
0.00430484
0.0076679
0.0055344
0.00593499
0.00274913
0.00309392
0.00334869
0.00285631
0.00512354
0.00406984
0.00262926
