# vtk DataFile Version 3.0
DEM2D particles
ASCII
DATASET POLYDATA
POINTS 25 double
0.000436511 0.00122114 0
0.00259373 0.00100916 0
0.00503527 0.00180045 0
0.0075525 0.000351865 0
0.00982669 0.000509802 0
0.00134532 0.00338492 0
0.00385427 0.00287337 0
0.0049179 0.00198287 0
0.00662312 0.00361901 0
0.00923317 0.00293282 0
0.000767124 0.00512041 0
0.0037611 0.00401297 0
0.00456232 0.00519914 0
0.00622589 0.00541737 0
0.00871364 0.00466667 0
0.00180206 0.0068322 0
0.00309208 0.00613534 0
0.0055426 0.00657533 0
0.00726105 0.0077182 0
0.00950038 0.00752318 0
0.000727257 0.00870663 0
0.00319925 0.00805693 0
0.00427968 0.009128 0
0.00693409 0.0085671 0
0.00824173 0.00899456 0
VERTICES 25 50
1 0
1 1
1 2
1 3
1 4
1 5
1 6
1 7
1 8
1 9
1 10
1 11
1 12
1 13
1 14
1 15
1 16
1 17
1 18
1 19
1 20
1 21
1 22
1 23
1 24
POINT_DATA 25
VECTORS velocity double
-2.16312e-08 -0.00970857 0
-1.55959e-08 -0.00970858 0
1.35389e-09 -0.00970855 0
2.12095e-08 -0.0097086 0
3.17352e-08 -0.0097086 0
1.32562e-08 -0.00970856 0
3.27936e-08 -0.00970858 0
-3.15161e-09 -0.00970862 0
-1.44677e-08 -0.00970855 0
8.95091e-09 -0.00970858 0
-8.93964e-09 -0.00970857 0
2.92172e-08 -0.00970862 0
-1.68018e-08 -0.00970857 0
-2.97166e-08 -0.00970856 0
-1.09928e-08 -0.00970859 0
3.07894e-08 -0.00970858 0
3.53465e-09 -0.00970861 0
2.08294e-08 -0.00970859 0
1.00211e-08 -0.00970855 0
1.92087e-08 -0.00970856 0
-1.04701e-08 -0.00970859 0
7.64881e-09 -0.00970861 0
-2.76515e-08 -0.00970857 0
-2.53008e-09 -0.00970859 0
-2.91083e-08 -0.00970858 0
SCALARS radius double 1
LOOKUP_TABLE default
0.000621415
0.000750874
0.000735541
0.000522882
0.000780242
0.00097475
0.000994168
0.000790412
0.000880848
0.000720838
0.000933918
0.000958934
0.000753488
0.00054522
0.000712397
0.000950783
0.000807753
0.000836475
0.000569299
0.000603945
0.000628319
0.000580291
0.000777192
0.000692678
0.00055675
SCALARS mass double 1
LOOKUP_TABLE default
0.00327549
0.00478242
0.00458909
0.0023191
0.00516383
0.00805935
0.00838365
0.00529932
0.00658136
0.00440747
0.00739829
0.00779994
0.00481578
0.00252149
0.00430484
0.0076679
0.0055344
0.00593499
0.00274913
0.00309392
0.00334869
0.00285631
0.00512354
0.00406984
0.00262926
