# vtk DataFile Version 3.0
DEM2D particles
ASCII
DATASET POLYDATA
POINTS 25 double
0.000436511 -5.06893e-05 0
0.00259373 -0.000262663 0
0.00503527 0.000528627 0
0.0075525 -0.00091996 0
0.00982669 -0.000762023 0
0.00134532 0.0021131 0
0.00385427 0.00160155 0
0.0049179 0.000711043 0
0.00662312 0.00234718 0
0.00923317 0.001661 0
0.000767124 0.00384859 0
0.0037611 0.00274114 0
0.00456232 0.00392732 0
0.00622589 0.00414554 0
0.00871364 0.00339485 0
0.00180206 0.00556038 0
0.00309208 0.00486352 0
0.0055426 0.00530351 0
0.00726105 0.00644637 0
0.00950038 0.00625136 0
0.000727257 0.0074348 0
0.00319925 0.0067851 0
0.00427968 0.00785618 0
0.00693409 0.00729527 0
0.00824173 0.00772273 0
VERTICES 25 50
1 0
1 1
1 2
1 3
1 4
1 5
1 6
1 7
1 8
1 9
1 10
1 11
1 12
1 13
1 14
1 15
1 16
1 17
1 18
1 19
1 20
1 21
1 22
1 23
1 24
POINT_DATA 25
VECTORS velocity double
-1.43262e-65 -0.00970858 0
-1.03291e-65 -0.00970858 0
8.96672e-67 -0.00970858 0
1.40469e-65 -0.00970858 0
2.10179e-65 -0.00970858 0
8.77946e-66 -0.00970858 0
2.17189e-65 -0.00970858 0
-2.08728e-66 -0.00970858 0
-9.5818e-66 -0.00970858 0
5.92811e-66 -0.00970858 0
-5.92065e-66 -0.00970858 0
1.93503e-65 -0.00970858 0
-1.11277e-65 -0.00970858 0
-1.9681e-65 -0.00970858 0
-7.28045e-66 -0.00970858 0
2.03915e-65 -0.00970858 0
2.34097e-66 -0.00970858 0
1.37951e-65 -0.00970858 0
6.63688e-66 -0.00970858 0
1.27218e-65 -0.00970858 0
-6.93424e-66 -0.00970858 0
5.06574e-66 -0.00970858 0
-1.83134e-65 -0.00970858 0
-1.67565e-66 -0.00970858 0
-1.92782e-65 -0.00970858 0
SCALARS radius double 1
LOOKUP_TABLE default
0.000621415
0.000750874
0.000735541
0.000522882
0.000780242
0.00097475
0.000994168
0.000790412
0.000880848
0.000720838
0.000933918
0.000958934
0.000753488
0.00054522
0.000712397
0.000950783
0.000807753
0.000836475
0.000569299
0.000603945
0.000628319
0.000580291
0.000777192
0.000692678
0.00055675
SCALARS mass double 1
LOOKUP_TABLE default
0.00327549
0.00478242
0.00458909
0.0023191
0.00516383
0.00805935
0.00838365
0.00529932
0.00658136
0.00440747
0.00739829
0.00779994
0.00481578
0.00252149
0.00430484
0.0076679
0.0055344
0.00593499
0.00274913
0.00309392
0.00334869
0.00285631
0.00512354
0.00406984
0.00262926
