# vtk DataFile Version 3.0
DEM2D particles
ASCII
DATASET POLYDATA
POINTS 25 double
0.000436511 -0.000258453 0
0.00259373 -0.000470427 0
0.00503527 0.000320863 0
0.0075525 -0.00112772 0
0.00982669 -0.000969787 0
0.00134532 0.00190533 0
0.00385427 0.00139378 0
0.0049179 0.000503279 0
0.00662312 0.00213942 0
0.00923317 0.00145323 0
0.000767124 0.00364082 0
0.0037611 0.00253338 0
0.00456232 0.00371956 0
0.00622589 0.00393778 0
0.00871364 0.00318708 0
0.00180206 0.00535261 0
0.00309208 0.00465575 0
0.0055426 0.00509575 0
0.00726105 0.00623861 0
0.00950038 0.0060436 0
0.000727257 0.00722704 0
0.00319925 0.00657734 0
0.00427968 0.00764842 0
0.00693409 0.00708751 0
0.00824173 0.00751497 0
VERTICES 25 50
1 0
1 1
1 2
1 3
1 4
1 5
1 6
1 7
1 8
1 9
1 10
1 11
1 12
1 13
1 14
1 15
1 16
1 17
1 18
1 19
1 20
1 21
1 22
1 23
1 24
POINT_DATA 25
VECTORS velocity double
-6.53803e-75 -0.00970858 0
-4.71387e-75 -0.00970858 0
4.09214e-76 -0.00970858 0
6.41056e-75 -0.00970858 0
9.59194e-75 -0.00970858 0
4.00668e-75 -0.00970858 0
9.91184e-75 -0.00970858 0
-9.52573e-76 -0.00970858 0
-4.37284e-75 -0.00970858 0
2.70541e-75 -0.00970858 0
-2.702e-75 -0.00970858 0
8.83089e-75 -0.00970858 0
-5.07833e-75 -0.00970858 0
-8.98182e-75 -0.00970858 0
-3.32258e-75 -0.00970858 0
9.30607e-75 -0.00970858 0
1.06835e-75 -0.00970858 0
6.29568e-75 -0.00970858 0
3.02887e-75 -0.00970858 0
5.80582e-75 -0.00970858 0
-3.16457e-75 -0.00970858 0
2.31185e-75 -0.00970858 0
-8.35766e-75 -0.00970858 0
-7.64716e-76 -0.00970858 0
-8.79797e-75 -0.00970858 0
SCALARS radius double 1
LOOKUP_TABLE default
0.000621415
0.000750874
0.000735541
0.000522882
0.000780242
0.00097475
0.000994168
0.000790412
0.000880848
0.000720838
0.000933918
0.000958934
0.000753488
0.00054522
0.000712397
0.000950783
0.000807753
0.000836475
0.000569299
0.000603945
0.000628319
0.000580291
0.000777192
0.000692678
0.00055675
SCALARS mass double 1
LOOKUP_TABLE default
0.00327549
0.00478242
0.00458909
0.0023191
0.00516383
0.00805935
0.00838365
0.00529932
0.00658136
0.00440747
0.00739829
0.00779994
0.00481578
0.00252149
0.00430484
0.0076679
0.0055344
0.00593499
0.00274913
0.00309392
0.00334869
0.00285631
0.00512354
0.00406984
0.00262926
