# vtk DataFile Version 3.0
DEM2D particles
ASCII
DATASET POLYDATA
POINTS 25 double
0.000436511 0.0012056 0
0.00259373 0.000993627 0
0.00503527 0.00178492 0
0.0075525 0.000336331 0
0.00982669 0.000494268 0
0.00134532 0.00336939 0
0.00385427 0.00285784 0
0.0049179 0.00196733 0
0.00662312 0.00360347 0
0.00923317 0.00291729 0
0.000767124 0.00510488 0
0.0037611 0.00399743 0
0.00456232 0.00518361 0
0.00622589 0.00540183 0
0.00871364 0.00465114 0
0.00180206 0.00681667 0
0.00309208 0.00611981 0
0.0055426 0.0065598 0
0.00726105 0.00770266 0
0.00950038 0.00750765 0
0.000727257 0.00869109 0
0.00319925 0.00804139 0
0.00427968 0.00911247 0
0.00693409 0.00855156 0
0.00824173 0.00897902 0
VERTICES 25 50
1 0
1 1
1 2
1 3
1 4
1 5
1 6
1 7
1 8
1 9
1 10
1 11
1 12
1 13
1 14
1 15
1 16
1 17
1 18
1 19
1 20
1 21
1 22
1 23
1 24
POINT_DATA 25
VECTORS velocity double
-4.33224e-09 -0.00970858 0
-3.12351e-09 -0.00970858 0
2.71154e-10 -0.00970858 0
4.24778e-09 -0.00970859 0
6.35582e-09 -0.00970859 0
2.65491e-09 -0.00970858 0
6.5678e-09 -0.00970858 0
-6.31195e-10 -0.00970859 0
-2.89754e-09 -0.00970858 0
1.79266e-09 -0.00970858 0
-1.7904e-09 -0.00970858 0
5.85154e-09 -0.00970859 0
-3.36501e-09 -0.00970858 0
-5.95155e-09 -0.00970858 0
-2.20161e-09 -0.00970858 0
6.1664e-09 -0.00970858 0
7.07909e-10 -0.00970859 0
4.17165e-09 -0.00970859 0
2.00699e-09 -0.00970858 0
3.84706e-09 -0.00970858 0
-2.09691e-09 -0.00970858 0
1.53188e-09 -0.00970859 0
-5.53797e-09 -0.00970858 0
-5.06717e-10 -0.00970859 0
-5.82972e-09 -0.00970858 0
SCALARS radius double 1
LOOKUP_TABLE default
0.000621415
0.000750874
0.000735541
0.000522882
0.000780242
0.00097475
0.000994168
0.000790412
0.000880848
0.000720838
0.000933918
0.000958934
0.000753488
0.00054522
0.000712397
0.000950783
0.000807753
0.000836475
0.000569299
0.000603945
0.000628319
0.000580291
0.000777192
0.000692678
0.00055675
SCALARS mass double 1
LOOKUP_TABLE default
0.00327549
0.00478242
0.00458909
0.0023191
0.00516383
0.00805935
0.00838365
0.00529932
0.00658136
0.00440747
0.00739829
0.00779994
0.00481578
0.00252149
0.00430484
0.0076679
0.0055344
0.00593499
0.00274913
0.00309392
0.00334869
0.00285631
0.00512354
0.00406984
0.00262926
