# vtk DataFile Version 3.0
DEM2D particles
ASCII
DATASET POLYDATA
POINTS 25 double
0.000436511 0.000428915 0
0.00259373 0.000216941 0
0.00503527 0.00100823 0
0.0075525 -0.000440356 0
0.00982669 -0.000282419 0
0.00134532 0.0025927 0
0.00385427 0.00208115 0
0.0049179 0.00119065 0
0.00662312 0.00282678 0
0.00923317 0.0021406 0
0.000767124 0.00432819 0
0.0037611 0.00322075 0
0.00456232 0.00440692 0
0.00622589 0.00462515 0
0.00871364 0.00387445 0
0.00180206 0.00603998 0
0.00309208 0.00534312 0
0.0055426 0.00578311 0
0.00726105 0.00692598 0
0.00950038 0.00673096 0
0.000727257 0.00791441 0
0.00319925 0.00726471 0
0.00427968 0.00833578 0
0.00693409 0.00777487 0
0.00824173 0.00820234 0
VERTICES 25 50
1 0
1 1
1 2
1 3
1 4
1 5
1 6
1 7
1 8
1 9
1 10
1 11
1 12
1 13
1 14
1 15
1 16
1 17
1 18
1 19
1 20
1 21
1 22
1 23
1 24
POINT_DATA 25
VECTORS velocity double
-5.2272e-44 -0.00970858 0
-3.76877e-44 -0.00970858 0
3.27169e-45 -0.00970858 0
5.12529e-44 -0.00970858 0
7.66882e-44 -0.00970858 0
3.20337e-44 -0.00970858 0
7.92459e-44 -0.00970858 0
-7.61589e-45 -0.00970858 0
-3.49612e-44 -0.00970858 0
2.16299e-44 -0.00970858 0
-2.16027e-44 -0.00970858 0
7.06036e-44 -0.00970858 0
-4.06016e-44 -0.00970858 0
-7.18103e-44 -0.00970858 0
-2.65642e-44 -0.00970858 0
7.44027e-44 -0.00970858 0
8.5415e-45 -0.00970858 0
5.03344e-44 -0.00970858 0
2.4216e-44 -0.00970858 0
4.6418e-44 -0.00970858 0
-2.5301e-44 -0.00970858 0
1.84834e-44 -0.00970858 0
-6.68201e-44 -0.00970858 0
-6.11396e-45 -0.00970858 0
-7.03404e-44 -0.00970858 0
SCALARS radius double 1
LOOKUP_TABLE default
0.000621415
0.000750874
0.000735541
0.000522882
0.000780242
0.00097475
0.000994168
0.000790412
0.000880848
0.000720838
0.000933918
0.000958934
0.000753488
0.00054522
0.000712397
0.000950783
0.000807753
0.000836475
0.000569299
0.000603945
0.000628319
0.000580291
0.000777192
0.000692678
0.00055675
SCALARS mass double 1
LOOKUP_TABLE default
0.00327549
0.00478242
0.00458909
0.0023191
0.00516383
0.00805935
0.00838365
0.00529932
0.00658136
0.00440747
0.00739829
0.00779994
0.00481578
0.00252149
0.00430484
0.0076679
0.0055344
0.00593499
0.00274913
0.00309392
0.00334869
0.00285631
0.00512354
0.00406984
0.00262926
