# vtk DataFile Version 3.0
DEM2D particles
ASCII
DATASET POLYDATA
POINTS 25 double
0.000436511 0.000159016 0
0.00259373 -5.2958e-05 0
0.00503527 0.000738333 0
0.0075525 -0.000710255 0
0.00982669 -0.000552317 0
0.00134532 0.0023228 0
0.00385427 0.00181125 0
0.0049179 0.000920748 0
0.00662312 0.00255689 0
0.00923317 0.0018707 0
0.000767124 0.00405829 0
0.0037611 0.00295085 0
0.00456232 0.00413703 0
0.00622589 0.00435525 0
0.00871364 0.00360455 0
0.00180206 0.00577008 0
0.00309208 0.00507322 0
0.0055426 0.00551322 0
0.00726105 0.00665608 0
0.00950038 0.00646106 0
0.000727257 0.00764451 0
0.00319925 0.00699481 0
0.00427968 0.00806589 0
0.00693409 0.00750498 0
0.00824173 0.00793244 0
VERTICES 25 50
1 0
1 1
1 2
1 3
1 4
1 5
1 6
1 7
1 8
1 9
1 10
1 11
1 12
1 13
1 14
1 15
1 16
1 17
1 18
1 19
1 20
1 21
1 22
1 23
1 24
POINT_DATA 25
VECTORS velocity double
-3.83804e-56 -0.00970858 0
-2.7672e-56 -0.00970858 0
2.40222e-57 -0.00970858 0
3.76322e-56 -0.00970858 0
5.63079e-56 -0.00970858 0
2.35205e-56 -0.00970858 0
5.81859e-56 -0.00970858 0
-5.59193e-57 -0.00970858 0
-2.56701e-56 -0.00970858 0
1.58817e-56 -0.00970858 0
-1.58617e-56 -0.00970858 0
5.18403e-56 -0.00970858 0
-2.98115e-56 -0.00970858 0
-5.27263e-56 -0.00970858 0
-1.95047e-56 -0.00970858 0
5.46298e-56 -0.00970858 0
6.27156e-57 -0.00970858 0
3.69578e-56 -0.00970858 0
1.77805e-56 -0.00970858 0
3.40822e-56 -0.00970858 0
-1.85771e-56 -0.00970858 0
1.35713e-56 -0.00970858 0
-4.90623e-56 -0.00970858 0
-4.48914e-57 -0.00970858 0
-5.16471e-56 -0.00970858 0
SCALARS radius double 1
LOOKUP_TABLE default
0.000621415
0.000750874
0.000735541
0.000522882
0.000780242
0.00097475
0.000994168
0.000790412
0.000880848
0.000720838
0.000933918
0.000958934
0.000753488
0.00054522
0.000712397
0.000950783
0.000807753
0.000836475
0.000569299
0.000603945
0.000628319
0.000580291
0.000777192
0.000692678
0.00055675
SCALARS mass double 1
LOOKUP_TABLE default
0.00327549
0.00478242
0.00458909
0.0023191
0.00516383
0.00805935
0.00838365
0.00529932
0.00658136
0.00440747
0.00739829
0.00779994
0.00481578
0.00252149
0.00430484
0.0076679
0.0055344
0.00593499
0.00274913
0.00309392
0.00334869
0.00285631
0.00512354
0.00406984
0.00262926
