# vtk DataFile Version 3.0
DEM2D particles
ASCII
DATASET POLYDATA
POINTS 25 double
0.000436511 -3.12721e-05 0
0.00259373 -0.000243246 0
0.00503527 0.000548044 0
0.0075525 -0.000900543 0
0.00982669 -0.000742606 0
0.00134532 0.00213251 0
0.00385427 0.00162096 0
0.0049179 0.00073046 0
0.00662312 0.0023666 0
0.00923317 0.00168041 0
0.000767124 0.003868 0
0.0037611 0.00276056 0
0.00456232 0.00394674 0
0.00622589 0.00416496 0
0.00871364 0.00341426 0
0.00180206 0.0055798 0
0.00309208 0.00488293 0
0.0055426 0.00532293 0
0.00726105 0.00646579 0
0.00950038 0.00627078 0
0.000727257 0.00745422 0
0.00319925 0.00680452 0
0.00427968 0.0078756 0
0.00693409 0.00731469 0
0.00824173 0.00774215 0
VERTICES 25 50
1 0
1 1
1 2
1 3
1 4
1 5
1 6
1 7
1 8
1 9
1 10
1 11
1 12
1 13
1 14
1 15
1 16
1 17
1 18
1 19
1 20
1 21
1 22
1 23
1 24
POINT_DATA 25
VECTORS velocity double
-1.06928e-64 -0.00970858 0
-7.70943e-65 -0.00970858 0
6.6926e-66 -0.00970858 0
1.04843e-64 -0.00970858 0
1.56874e-64 -0.00970858 0
6.55283e-65 -0.00970858 0
1.62106e-64 -0.00970858 0
-1.55791e-65 -0.00970858 0
-7.15168e-65 -0.00970858 0
4.42463e-65 -0.00970858 0
-4.41906e-65 -0.00970858 0
1.44427e-64 -0.00970858 0
-8.3055e-65 -0.00970858 0
-1.46896e-64 -0.00970858 0
-5.434e-65 -0.00970858 0
1.52199e-64 -0.00970858 0
1.74726e-65 -0.00970858 0
1.02964e-64 -0.00970858 0
4.95365e-65 -0.00970858 0
9.49529e-65 -0.00970858 0
-5.17559e-65 -0.00970858 0
3.78098e-65 -0.00970858 0
-1.36688e-64 -0.00970858 0
-1.25068e-65 -0.00970858 0
-1.43889e-64 -0.00970858 0
SCALARS radius double 1
LOOKUP_TABLE default
0.000621415
0.000750874
0.000735541
0.000522882
0.000780242
0.00097475
0.000994168
0.000790412
0.000880848
0.000720838
0.000933918
0.000958934
0.000753488
0.00054522
0.000712397
0.000950783
0.000807753
0.000836475
0.000569299
0.000603945
0.000628319
0.000580291
0.000777192
0.000692678
0.00055675
SCALARS mass double 1
LOOKUP_TABLE default
0.00327549
0.00478242
0.00458909
0.0023191
0.00516383
0.00805935
0.00838365
0.00529932
0.00658136
0.00440747
0.00739829
0.00779994
0.00481578
0.00252149
0.00430484
0.0076679
0.0055344
0.00593499
0.00274913
0.00309392
0.00334869
0.00285631
0.00512354
0.00406984
0.00262926
