# vtk DataFile Version 3.0
DEM2D particles
ASCII
DATASET POLYDATA
POINTS 25 double
0.000436511 -0.000466217 0
0.00259373 -0.000678191 0
0.00503527 0.0001131 0
0.0075525 -0.00133549 0
0.00982669 -0.00117755 0
0.00134532 0.00169757 0
0.00385427 0.00118602 0
0.0049179 0.000295515 0
0.00662312 0.00193165 0
0.00923317 0.00124547 0
0.000767124 0.00343306 0
0.0037611 0.00232562 0
0.00456232 0.00351179 0
0.00622589 0.00373002 0
0.00871364 0.00297932 0
0.00180206 0.00514485 0
0.00309208 0.00444799 0
0.0055426 0.00488798 0
0.00726105 0.00603084 0
0.00950038 0.00583583 0
0.000727257 0.00701927 0
0.00319925 0.00636958 0
0.00427968 0.00744065 0
0.00693409 0.00687974 0
0.00824173 0.0073072 0
VERTICES 25 50
1 0
1 1
1 2
1 3
1 4
1 5
1 6
1 7
1 8
1 9
1 10
1 11
1 12
1 13
1 14
1 15
1 16
1 17
1 18
1 19
1 20
1 21
1 22
1 23
1 24
POINT_DATA 25
VECTORS velocity double
-2.98375e-84 -0.00970858 0
-2.15126e-84 -0.00970858 0
1.86753e-85 -0.00970858 0
2.92559e-84 -0.00970858 0
4.37747e-84 -0.00970858 0
1.82852e-84 -0.00970858 0
4.52346e-84 -0.00970858 0
-4.34725e-85 -0.00970858 0
-1.99563e-84 -0.00970858 0
1.23467e-84 -0.00970858 0
-1.23311e-84 -0.00970858 0
4.03015e-84 -0.00970858 0
-2.31759e-84 -0.00970858 0
-4.09903e-84 -0.00970858 0
-1.51632e-84 -0.00970858 0
4.24701e-84 -0.00970858 0
4.8756e-85 -0.00970858 0
2.87315e-84 -0.00970858 0
1.38228e-84 -0.00970858 0
2.6496e-84 -0.00970858 0
-1.44421e-84 -0.00970858 0
1.05506e-84 -0.00970858 0
-3.81418e-84 -0.00970858 0
-3.48993e-85 -0.00970858 0
-4.01512e-84 -0.00970858 0
SCALARS radius double 1
LOOKUP_TABLE default
0.000621415
0.000750874
0.000735541
0.000522882
0.000780242
0.00097475
0.000994168
0.000790412
0.000880848
0.000720838
0.000933918
0.000958934
0.000753488
0.00054522
0.000712397
0.000950783
0.000807753
0.000836475
0.000569299
0.000603945
0.000628319
0.000580291
0.000777192
0.000692678
0.00055675
SCALARS mass double 1
LOOKUP_TABLE default
0.00327549
0.00478242
0.00458909
0.0023191
0.00516383
0.00805935
0.00838365
0.00529932
0.00658136
0.00440747
0.00739829
0.00779994
0.00481578
0.00252149
0.00430484
0.0076679
0.0055344
0.00593499
0.00274913
0.00309392
0.00334869
0.00285631
0.00512354
0.00406984
0.00262926
