# vtk DataFile Version 3.0
DEM2D particles
ASCII
DATASET POLYDATA
POINTS 25 double
0.000436511 0.000250277 0
0.00259373 3.83027e-05 0
0.00503527 0.000829593 0
0.0075525 -0.000618994 0
0.00982669 -0.000461057 0
0.00134532 0.00241406 0
0.00385427 0.00190251 0
0.0049179 0.00101201 0
0.00662312 0.00264815 0
0.00923317 0.00196196 0
0.000767124 0.00414955 0
0.0037611 0.00304211 0
0.00456232 0.00422829 0
0.00622589 0.00444651 0
0.00871364 0.00369581 0
0.00180206 0.00586134 0
0.00309208 0.00516448 0
0.0055426 0.00560448 0
0.00726105 0.00674734 0
0.00950038 0.00655233 0
0.000727257 0.00773577 0
0.00319925 0.00708607 0
0.00427968 0.00815715 0
0.00693409 0.00759624 0
0.00824173 0.0080237 0
VERTICES 25 50
1 0
1 1
1 2
1 3
1 4
1 5
1 6
1 7
1 8
1 9
1 10
1 11
1 12
1 13
1 14
1 15
1 16
1 17
1 18
1 19
1 20
1 21
1 22
1 23
1 24
POINT_DATA 25
VECTORS velocity double
-4.86437e-52 -0.00970858 0
-3.50718e-52 -0.00970858 0
3.0446e-53 -0.00970858 0
4.76954e-52 -0.00970858 0
7.13652e-52 -0.00970858 0
2.98102e-52 -0.00970858 0
7.37454e-52 -0.00970858 0
-7.08726e-53 -0.00970858 0
-3.25345e-52 -0.00970858 0
2.01286e-52 -0.00970858 0
-2.01032e-52 -0.00970858 0
6.57029e-52 -0.00970858 0
-3.77834e-52 -0.00970858 0
-6.68259e-52 -0.00970858 0
-2.47204e-52 -0.00970858 0
6.92383e-52 -0.00970858 0
7.94863e-53 -0.00970858 0
4.68406e-52 -0.00970858 0
2.25352e-52 -0.00970858 0
4.31961e-52 -0.00970858 0
-2.35448e-52 -0.00970858 0
1.72004e-52 -0.00970858 0
-6.21821e-52 -0.00970858 0
-5.68958e-53 -0.00970858 0
-6.5458e-52 -0.00970858 0
SCALARS radius double 1
LOOKUP_TABLE default
0.000621415
0.000750874
0.000735541
0.000522882
0.000780242
0.00097475
0.000994168
0.000790412
0.000880848
0.000720838
0.000933918
0.000958934
0.000753488
0.00054522
0.000712397
0.000950783
0.000807753
0.000836475
0.000569299
0.000603945
0.000628319
0.000580291
0.000777192
0.000692678
0.00055675
SCALARS mass double 1
LOOKUP_TABLE default
0.00327549
0.00478242
0.00458909
0.0023191
0.00516383
0.00805935
0.00838365
0.00529932
0.00658136
0.00440747
0.00739829
0.00779994
0.00481578
0.00252149
0.00430484
0.0076679
0.0055344
0.00593499
0.00274913
0.00309392
0.00334869
0.00285631
0.00512354
0.00406984
0.00262926
