# vtk DataFile Version 3.0
DEM2D particles
ASCII
DATASET POLYDATA
POINTS 25 double
0.000436511 0.00104056 0
0.00259373 0.000828581 0
0.00503527 0.00161987 0
0.0075525 0.000171285 0
0.00982669 0.000329222 0
0.00134532 0.00320434 0
0.00385427 0.00269279 0
0.0049179 0.00180229 0
0.00662312 0.00343843 0
0.00923317 0.00275224 0
0.000767124 0.00493983 0
0.0037611 0.00383239 0
0.00456232 0.00501856 0
0.00622589 0.00523679 0
0.00871364 0.00448609 0
0.00180206 0.00665162 0
0.00309208 0.00595476 0
0.0055426 0.00639475 0
0.00726105 0.00753762 0
0.00950038 0.0073426 0
0.000727257 0.00852605 0
0.00319925 0.00787635 0
0.00427968 0.00894742 0
0.00693409 0.00838652 0
0.00824173 0.00881398 0
VERTICES 25 50
1 0
1 1
1 2
1 3
1 4
1 5
1 6
1 7
1 8
1 9
1 10
1 11
1 12
1 13
1 14
1 15
1 16
1 17
1 18
1 19
1 20
1 21
1 22
1 23
1 24
POINT_DATA 25
VECTORS velocity double
-1.64643e-16 -0.00970858 0
-1.18706e-16 -0.00970858 0
1.0305e-17 -0.00970858 0
1.61433e-16 -0.00970858 0
2.41548e-16 -0.00970858 0
1.00898e-16 -0.00970858 0
2.49604e-16 -0.00970858 0
-2.3988e-17 -0.00970858 0
-1.10118e-16 -0.00970858 0
6.81285e-17 -0.00970858 0
-6.80427e-17 -0.00970858 0
2.22383e-16 -0.00970858 0
-1.27884e-16 -0.00970858 0
-2.26183e-16 -0.00970858 0
-8.36703e-17 -0.00970858 0
2.34349e-16 -0.00970858 0
2.69035e-17 -0.00970858 0
1.5854e-16 -0.00970858 0
7.62741e-17 -0.00970858 0
1.46204e-16 -0.00970858 0
-7.96914e-17 -0.00970858 0
5.82178e-17 -0.00970858 0
-2.10466e-16 -0.00970858 0
-1.92573e-17 -0.00970858 0
-2.21554e-16 -0.00970858 0
SCALARS radius double 1
LOOKUP_TABLE default
0.000621415
0.000750874
0.000735541
0.000522882
0.000780242
0.00097475
0.000994168
0.000790412
0.000880848
0.000720838
0.000933918
0.000958934
0.000753488
0.00054522
0.000712397
0.000950783
0.000807753
0.000836475
0.000569299
0.000603945
0.000628319
0.000580291
0.000777192
0.000692678
0.00055675
SCALARS mass double 1
LOOKUP_TABLE default
0.00327549
0.00478242
0.00458909
0.0023191
0.00516383
0.00805935
0.00838365
0.00529932
0.00658136
0.00440747
0.00739829
0.00779994
0.00481578
0.00252149
0.00430484
0.0076679
0.0055344
0.00593499
0.00274913
0.00309392
0.00334869
0.00285631
0.00512354
0.00406984
0.00262926
