# vtk DataFile Version 3.0
DEM2D particles
ASCII
DATASET POLYDATA
POINTS 25 double
0.000436511 0.00105415 0
0.00259373 0.000842173 0
0.00503527 0.00163346 0
0.0075525 0.000184877 0
0.00982669 0.000342814 0
0.00134532 0.00321793 0
0.00385427 0.00270638 0
0.0049179 0.00181588 0
0.00662312 0.00345202 0
0.00923317 0.00276583 0
0.000767124 0.00495342 0
0.0037611 0.00384598 0
0.00456232 0.00503216 0
0.00622589 0.00525038 0
0.00871364 0.00449968 0
0.00180206 0.00666522 0
0.00309208 0.00596835 0
0.0055426 0.00640835 0
0.00726105 0.00755121 0
0.00950038 0.0073562 0
0.000727257 0.00853964 0
0.00319925 0.00788994 0
0.00427968 0.00896102 0
0.00693409 0.00840011 0
0.00824173 0.00882757 0
VERTICES 25 50
1 0
1 1
1 2
1 3
1 4
1 5
1 6
1 7
1 8
1 9
1 10
1 11
1 12
1 13
1 14
1 15
1 16
1 17
1 18
1 19
1 20
1 21
1 22
1 23
1 24
POINT_DATA 25
VECTORS velocity double
-6.72381e-16 -0.00970858 0
-4.84782e-16 -0.00970858 0
4.20842e-17 -0.00970858 0
6.59273e-16 -0.00970858 0
9.86451e-16 -0.00970858 0
4.12053e-16 -0.00970858 0
1.01935e-15 -0.00970858 0
-9.79642e-17 -0.00970858 0
-4.4971e-16 -0.00970858 0
2.78229e-16 -0.00970858 0
-2.77878e-16 -0.00970858 0
9.08183e-16 -0.00970858 0
-5.22264e-16 -0.00970858 0
-9.23705e-16 -0.00970858 0
-3.41699e-16 -0.00970858 0
9.57052e-16 -0.00970858 0
1.09871e-16 -0.00970858 0
6.47458e-16 -0.00970858 0
3.11494e-16 -0.00970858 0
5.9708e-16 -0.00970858 0
-3.2545e-16 -0.00970858 0
2.37754e-16 -0.00970858 0
-8.59516e-16 -0.00970858 0
-7.86446e-17 -0.00970858 0
-9.04798e-16 -0.00970858 0
SCALARS radius double 1
LOOKUP_TABLE default
0.000621415
0.000750874
0.000735541
0.000522882
0.000780242
0.00097475
0.000994168
0.000790412
0.000880848
0.000720838
0.000933918
0.000958934
0.000753488
0.00054522
0.000712397
0.000950783
0.000807753
0.000836475
0.000569299
0.000603945
0.000628319
0.000580291
0.000777192
0.000692678
0.00055675
SCALARS mass double 1
LOOKUP_TABLE default
0.00327549
0.00478242
0.00458909
0.0023191
0.00516383
0.00805935
0.00838365
0.00529932
0.00658136
0.00440747
0.00739829
0.00779994
0.00481578
0.00252149
0.00430484
0.0076679
0.0055344
0.00593499
0.00274913
0.00309392
0.00334869
0.00285631
0.00512354
0.00406984
0.00262926
