# vtk DataFile Version 3.0
DEM2D particles
ASCII
DATASET POLYDATA
POINTS 25 double
0.000436511 -9.92322e-05 0
0.00259373 -0.000311206 0
0.00503527 0.000480084 0
0.0075525 -0.000968503 0
0.00982669 -0.000810566 0
0.00134532 0.00206455 0
0.00385427 0.001553 0
0.0049179 0.0006625 0
0.00662312 0.00229864 0
0.00923317 0.00161245 0
0.000767124 0.00380004 0
0.0037611 0.0026926 0
0.00456232 0.00387878 0
0.00622589 0.004097 0
0.00871364 0.0033463 0
0.00180206 0.00551184 0
0.00309208 0.00481497 0
0.0055426 0.00525497 0
0.00726105 0.00639783 0
0.00950038 0.00620282 0
0.000727257 0.00738626 0
0.00319925 0.00673656 0
0.00427968 0.00780764 0
0.00693409 0.00724673 0
0.00824173 0.00767419 0
VERTICES 25 50
1 0
1 1
1 2
1 3
1 4
1 5
1 6
1 7
1 8
1 9
1 10
1 11
1 12
1 13
1 14
1 15
1 16
1 17
1 18
1 19
1 20
1 21
1 22
1 23
1 24
POINT_DATA 25
VECTORS velocity double
-9.41299e-68 -0.00970858 0
-6.78669e-68 -0.00970858 0
5.89157e-69 -0.00970858 0
9.22948e-68 -0.00970858 0
1.38098e-67 -0.00970858 0
5.76853e-68 -0.00970858 0
1.42704e-67 -0.00970858 0
-1.37145e-68 -0.00970858 0
-6.29571e-68 -0.00970858 0
3.89506e-68 -0.00970858 0
-3.89015e-68 -0.00970858 0
1.27141e-67 -0.00970858 0
-7.31142e-68 -0.00970858 0
-1.29314e-67 -0.00970858 0
-4.78361e-68 -0.00970858 0
1.33982e-67 -0.00970858 0
1.53813e-68 -0.00970858 0
9.06407e-68 -0.00970858 0
4.36075e-68 -0.00970858 0
8.35881e-68 -0.00970858 0
-4.55613e-68 -0.00970858 0
3.32844e-68 -0.00970858 0
-1.20328e-67 -0.00970858 0
-1.10098e-68 -0.00970858 0
-1.26667e-67 -0.00970858 0
SCALARS radius double 1
LOOKUP_TABLE default
0.000621415
0.000750874
0.000735541
0.000522882
0.000780242
0.00097475
0.000994168
0.000790412
0.000880848
0.000720838
0.000933918
0.000958934
0.000753488
0.00054522
0.000712397
0.000950783
0.000807753
0.000836475
0.000569299
0.000603945
0.000628319
0.000580291
0.000777192
0.000692678
0.00055675
SCALARS mass double 1
LOOKUP_TABLE default
0.00327549
0.00478242
0.00458909
0.0023191
0.00516383
0.00805935
0.00838365
0.00529932
0.00658136
0.00440747
0.00739829
0.00779994
0.00481578
0.00252149
0.00430484
0.0076679
0.0055344
0.00593499
0.00274913
0.00309392
0.00334869
0.00285631
0.00512354
0.00406984
0.00262926
