# vtk DataFile Version 3.0
DEM2D particles
ASCII
DATASET POLYDATA
POINTS 25 double
0.000436511 -0.00048175 0
0.00259373 -0.000693725 0
0.00503527 9.7566e-05 0
0.0075525 -0.00135102 0
0.00982669 -0.00119308 0
0.00134532 0.00168204 0
0.00385427 0.00117048 0
0.0049179 0.000279981 0
0.00662312 0.00191612 0
0.00923317 0.00122993 0
0.000767124 0.00341752 0
0.0037611 0.00231008 0
0.00456232 0.00349626 0
0.00622589 0.00371448 0
0.00871364 0.00296379 0
0.00180206 0.00512932 0
0.00309208 0.00443246 0
0.0055426 0.00487245 0
0.00726105 0.00601531 0
0.00950038 0.0058203 0
0.000727257 0.00700374 0
0.00319925 0.00635404 0
0.00427968 0.00742512 0
0.00693409 0.00686421 0
0.00824173 0.00729167 0
VERTICES 25 50
1 0
1 1
1 2
1 3
1 4
1 5
1 6
1 7
1 8
1 9
1 10
1 11
1 12
1 13
1 14
1 15
1 16
1 17
1 18
1 19
1 20
1 21
1 22
1 23
1 24
POINT_DATA 25
VECTORS velocity double
-5.97578e-85 -0.00970858 0
-4.30849e-85 -0.00970858 0
3.74023e-86 -0.00970858 0
5.85927e-85 -0.00970858 0
8.76706e-85 -0.00970858 0
3.66211e-85 -0.00970858 0
9.05945e-85 -0.00970858 0
-8.70654e-86 -0.00970858 0
-3.99679e-85 -0.00970858 0
2.47275e-85 -0.00970858 0
-2.46964e-85 -0.00970858 0
8.07146e-85 -0.00970858 0
-4.64161e-85 -0.00970858 0
-8.20941e-85 -0.00970858 0
-3.03684e-85 -0.00970858 0
8.50578e-85 -0.00970858 0
9.76472e-86 -0.00970858 0
5.75427e-85 -0.00970858 0
2.7684e-85 -0.00970858 0
5.30654e-85 -0.00970858 0
-2.89243e-85 -0.00970858 0
2.11304e-85 -0.00970858 0
-7.63893e-85 -0.00970858 0
-6.98953e-86 -0.00970858 0
-8.04137e-85 -0.00970858 0
SCALARS radius double 1
LOOKUP_TABLE default
0.000621415
0.000750874
0.000735541
0.000522882
0.000780242
0.00097475
0.000994168
0.000790412
0.000880848
0.000720838
0.000933918
0.000958934
0.000753488
0.00054522
0.000712397
0.000950783
0.000807753
0.000836475
0.000569299
0.000603945
0.000628319
0.000580291
0.000777192
0.000692678
0.00055675
SCALARS mass double 1
LOOKUP_TABLE default
0.00327549
0.00478242
0.00458909
0.0023191
0.00516383
0.00805935
0.00838365
0.00529932
0.00658136
0.00440747
0.00739829
0.00779994
0.00481578
0.00252149
0.00430484
0.0076679
0.0055344
0.00593499
0.00274913
0.00309392
0.00334869
0.00285631
0.00512354
0.00406984
0.00262926
