# vtk DataFile Version 3.0
DEM2D particles
ASCII
DATASET POLYDATA
POINTS 25 double
0.000436511 0.00088716 0
0.00259373 0.000675186 0
0.00503527 0.00146648 0
0.0075525 1.78892e-05 0
0.00982669 0.000175826 0
0.00134532 0.00305095 0
0.00385427 0.0025394 0
0.0049179 0.00164889 0
0.00662312 0.00328503 0
0.00923317 0.00259885 0
0.000767124 0.00478643 0
0.0037611 0.00367899 0
0.00456232 0.00486517 0
0.00622589 0.00508339 0
0.00871364 0.0043327 0
0.00180206 0.00649823 0
0.00309208 0.00580137 0
0.0055426 0.00624136 0
0.00726105 0.00738422 0
0.00950038 0.00718921 0
0.000727257 0.00837265 0
0.00319925 0.00772295 0
0.00427968 0.00879403 0
0.00693409 0.00823312 0
0.00824173 0.00866058 0
VERTICES 25 50
1 0
1 1
1 2
1 3
1 4
1 5
1 6
1 7
1 8
1 9
1 10
1 11
1 12
1 13
1 14
1 15
1 16
1 17
1 18
1 19
1 20
1 21
1 22
1 23
1 24
POINT_DATA 25
VECTORS velocity double
-2.09002e-23 -0.00970858 0
-1.50689e-23 -0.00970858 0
1.30814e-24 -0.00970858 0
2.04927e-23 -0.00970858 0
3.06627e-23 -0.00970858 0
1.28082e-23 -0.00970858 0
3.16853e-23 -0.00970858 0
-3.0451e-24 -0.00970858 0
-1.39787e-23 -0.00970858 0
8.64842e-24 -0.00970858 0
-8.63753e-24 -0.00970858 0
2.82298e-23 -0.00970858 0
-1.6234e-23 -0.00970858 0
-2.87123e-23 -0.00970858 0
-1.06213e-23 -0.00970858 0
2.97488e-23 -0.00970858 0
3.4152e-24 -0.00970858 0
2.01255e-23 -0.00970858 0
9.68243e-24 -0.00970858 0
1.85596e-23 -0.00970858 0
-1.01162e-23 -0.00970858 0
7.39032e-24 -0.00970858 0
-2.67171e-23 -0.00970858 0
-2.44458e-24 -0.00970858 0
-2.81246e-23 -0.00970858 0
SCALARS radius double 1
LOOKUP_TABLE default
0.000621415
0.000750874
0.000735541
0.000522882
0.000780242
0.00097475
0.000994168
0.000790412
0.000880848
0.000720838
0.000933918
0.000958934
0.000753488
0.00054522
0.000712397
0.000950783
0.000807753
0.000836475
0.000569299
0.000603945
0.000628319
0.000580291
0.000777192
0.000692678
0.00055675
SCALARS mass double 1
LOOKUP_TABLE default
0.00327549
0.00478242
0.00458909
0.0023191
0.00516383
0.00805935
0.00838365
0.00529932
0.00658136
0.00440747
0.00739829
0.00779994
0.00481578
0.00252149
0.00430484
0.0076679
0.0055344
0.00593499
0.00274913
0.00309392
0.00334869
0.00285631
0.00512354
0.00406984
0.00262926
