# vtk DataFile Version 3.0
DEM2D particles
ASCII
DATASET POLYDATA
POINTS 25 double
0.000436511 0.000411439 0
0.00259373 0.000199465 0
0.00503527 0.000990756 0
0.0075525 -0.000457831 0
0.00982669 -0.000299894 0
0.00134532 0.00257523 0
0.00385427 0.00206367 0
0.0049179 0.00117317 0
0.00662312 0.00280931 0
0.00923317 0.00212312 0
0.000767124 0.00431071 0
0.0037611 0.00320327 0
0.00456232 0.00438945 0
0.00622589 0.00460767 0
0.00871364 0.00385698 0
0.00180206 0.00602251 0
0.00309208 0.00532564 0
0.0055426 0.00576564 0
0.00726105 0.0069085 0
0.00950038 0.00671349 0
0.000727257 0.00789693 0
0.00319925 0.00724723 0
0.00427968 0.00831831 0
0.00693409 0.0077574 0
0.00824173 0.00818486 0
VERTICES 25 50
1 0
1 1
1 2
1 3
1 4
1 5
1 6
1 7
1 8
1 9
1 10
1 11
1 12
1 13
1 14
1 15
1 16
1 17
1 18
1 19
1 20
1 21
1 22
1 23
1 24
POINT_DATA 25
VECTORS velocity double
-8.56257e-45 -0.00970858 0
-6.17355e-45 -0.00970858 0
5.35929e-46 -0.00970858 0
8.39564e-45 -0.00970858 0
1.25621e-44 -0.00970858 0
5.24737e-45 -0.00970858 0
1.29811e-44 -0.00970858 0
-1.24754e-45 -0.00970858 0
-5.72692e-45 -0.00970858 0
3.54315e-45 -0.00970858 0
-3.53869e-45 -0.00970858 0
1.15654e-44 -0.00970858 0
-6.65087e-45 -0.00970858 0
-1.17631e-44 -0.00970858 0
-4.35143e-45 -0.00970858 0
1.21878e-44 -0.00970858 0
1.39917e-45 -0.00970858 0
8.24517e-45 -0.00970858 0
3.96678e-45 -0.00970858 0
7.60363e-45 -0.00970858 0
-4.1445e-45 -0.00970858 0
3.02773e-45 -0.00970858 0
-1.09457e-44 -0.00970858 0
-1.00151e-45 -0.00970858 0
-1.15223e-44 -0.00970858 0
SCALARS radius double 1
LOOKUP_TABLE default
0.000621415
0.000750874
0.000735541
0.000522882
0.000780242
0.00097475
0.000994168
0.000790412
0.000880848
0.000720838
0.000933918
0.000958934
0.000753488
0.00054522
0.000712397
0.000950783
0.000807753
0.000836475
0.000569299
0.000603945
0.000628319
0.000580291
0.000777192
0.000692678
0.00055675
SCALARS mass double 1
LOOKUP_TABLE default
0.00327549
0.00478242
0.00458909
0.0023191
0.00516383
0.00805935
0.00838365
0.00529932
0.00658136
0.00440747
0.00739829
0.00779994
0.00481578
0.00252149
0.00430484
0.0076679
0.0055344
0.00593499
0.00274913
0.00309392
0.00334869
0.00285631
0.00512354
0.00406984
0.00262926
