# vtk DataFile Version 3.0
DEM2D particles
ASCII
DATASET POLYDATA
POINTS 25 double
0.000436511 0.000545418 0
0.00259373 0.000333444 0
0.00503527 0.00112473 0
0.0075525 -0.000323853 0
0.00982669 -0.000165916 0
0.00134532 0.0027092 0
0.00385427 0.00219765 0
0.0049179 0.00130715 0
0.00662312 0.00294329 0
0.00923317 0.0022571 0
0.000767124 0.00444469 0
0.0037611 0.00333725 0
0.00456232 0.00452343 0
0.00622589 0.00474165 0
0.00871364 0.00399095 0
0.00180206 0.00615649 0
0.00309208 0.00545962 0
0.0055426 0.00589962 0
0.00726105 0.00704248 0
0.00950038 0.00684747 0
0.000727257 0.00803091 0
0.00319925 0.00738121 0
0.00427968 0.00845229 0
0.00693409 0.00789138 0
0.00824173 0.00831884 0
VERTICES 25 50
1 0
1 1
1 2
1 3
1 4
1 5
1 6
1 7
1 8
1 9
1 10
1 11
1 12
1 13
1 14
1 15
1 16
1 17
1 18
1 19
1 20
1 21
1 22
1 23
1 24
POINT_DATA 25
VECTORS velocity double
-9.03723e-39 -0.00970858 0
-6.51578e-39 -0.00970858 0
5.65638e-40 -0.00970858 0
8.86105e-39 -0.00970858 0
1.32585e-38 -0.00970858 0
5.53825e-39 -0.00970858 0
1.37007e-38 -0.00970858 0
-1.3167e-39 -0.00970858 0
-6.04439e-39 -0.00970858 0
3.73957e-39 -0.00970858 0
-3.73486e-39 -0.00970858 0
1.22066e-38 -0.00970858 0
-7.01956e-39 -0.00970858 0
-1.24152e-38 -0.00970858 0
-4.59265e-39 -0.00970858 0
1.28634e-38 -0.00970858 0
1.47673e-39 -0.00970858 0
8.70224e-39 -0.00970858 0
4.18668e-39 -0.00970858 0
8.02514e-39 -0.00970858 0
-4.37425e-39 -0.00970858 0
3.19557e-39 -0.00970858 0
-1.15524e-38 -0.00970858 0
-1.05703e-39 -0.00970858 0
-1.21611e-38 -0.00970858 0
SCALARS radius double 1
LOOKUP_TABLE default
0.000621415
0.000750874
0.000735541
0.000522882
0.000780242
0.00097475
0.000994168
0.000790412
0.000880848
0.000720838
0.000933918
0.000958934
0.000753488
0.00054522
0.000712397
0.000950783
0.000807753
0.000836475
0.000569299
0.000603945
0.000628319
0.000580291
0.000777192
0.000692678
0.00055675
SCALARS mass double 1
LOOKUP_TABLE default
0.00327549
0.00478242
0.00458909
0.0023191
0.00516383
0.00805935
0.00838365
0.00529932
0.00658136
0.00440747
0.00739829
0.00779994
0.00481578
0.00252149
0.00430484
0.0076679
0.0055344
0.00593499
0.00274913
0.00309392
0.00334869
0.00285631
0.00512354
0.00406984
0.00262926
