# vtk DataFile Version 3.0
DEM2D particles
ASCII
DATASET POLYDATA
POINTS 25 double
0.000436511 5.028e-05 0
0.00259373 -0.000161694 0
0.00503527 0.000629596 0
0.0075525 -0.000818991 0
0.00982669 -0.000661054 0
0.00134532 0.00221407 0
0.00385427 0.00170252 0
0.0049179 0.000812012 0
0.00662312 0.00244815 0
0.00923317 0.00176197 0
0.000767124 0.00394955 0
0.0037611 0.00284211 0
0.00456232 0.00402829 0
0.00622589 0.00424651 0
0.00871364 0.00349582 0
0.00180206 0.00566135 0
0.00309208 0.00496449 0
0.0055426 0.00540448 0
0.00726105 0.00654734 0
0.00950038 0.00635233 0
0.000727257 0.00753577 0
0.00319925 0.00688607 0
0.00427968 0.00795715 0
0.00693409 0.00739624 0
0.00824173 0.0078237 0
VERTICES 25 50
1 0
1 1
1 2
1 3
1 4
1 5
1 6
1 7
1 8
1 9
1 10
1 11
1 12
1 13
1 14
1 15
1 16
1 17
1 18
1 19
1 20
1 21
1 22
1 23
1 24
POINT_DATA 25
VECTORS velocity double
-4.96053e-61 -0.00970858 0
-3.5765e-61 -0.00970858 0
3.10478e-62 -0.00970858 0
4.86382e-61 -0.00970858 0
7.27759e-61 -0.00970858 0
3.03994e-61 -0.00970858 0
7.52031e-61 -0.00970858 0
-7.22735e-62 -0.00970858 0
-3.31776e-61 -0.00970858 0
2.05265e-61 -0.00970858 0
-2.05006e-61 -0.00970858 0
6.70017e-61 -0.00970858 0
-3.85303e-61 -0.00970858 0
-6.81468e-61 -0.00970858 0
-2.5209e-61 -0.00970858 0
7.0607e-61 -0.00970858 0
8.10575e-62 -0.00970858 0
4.77665e-61 -0.00970858 0
2.29806e-61 -0.00970858 0
4.40499e-61 -0.00970858 0
-2.40102e-61 -0.00970858 0
1.75404e-61 -0.00970858 0
-6.34112e-61 -0.00970858 0
-5.80205e-62 -0.00970858 0
-6.67519e-61 -0.00970858 0
SCALARS radius double 1
LOOKUP_TABLE default
0.000621415
0.000750874
0.000735541
0.000522882
0.000780242
0.00097475
0.000994168
0.000790412
0.000880848
0.000720838
0.000933918
0.000958934
0.000753488
0.00054522
0.000712397
0.000950783
0.000807753
0.000836475
0.000569299
0.000603945
0.000628319
0.000580291
0.000777192
0.000692678
0.00055675
SCALARS mass double 1
LOOKUP_TABLE default
0.00327549
0.00478242
0.00458909
0.0023191
0.00516383
0.00805935
0.00838365
0.00529932
0.00658136
0.00440747
0.00739829
0.00779994
0.00481578
0.00252149
0.00430484
0.0076679
0.0055344
0.00593499
0.00274913
0.00309392
0.00334869
0.00285631
0.00512354
0.00406984
0.00262926
