# vtk DataFile Version 3.0
DEM2D particles
ASCII
DATASET POLYDATA
POINTS 25 double
0.000436511 0.00123861 0
0.00259373 0.00102664 0
0.00503527 0.00181793 0
0.0075525 0.00036934 0
0.00982669 0.000527277 0
0.00134532 0.0034024 0
0.00385427 0.00289085 0
0.0049179 0.00200034 0
0.00662312 0.00363648 0
0.00923317 0.0029503 0
0.000767124 0.00513789 0
0.0037611 0.00403044 0
0.00456232 0.00521662 0
0.00622589 0.00543484 0
0.00871364 0.00468415 0
0.00180206 0.00684968 0
0.00309208 0.00615282 0
0.0055426 0.00659281 0
0.00726105 0.00773567 0
0.00950038 0.00754066 0
0.000727257 0.0087241 0
0.00319925 0.0080744 0
0.00427968 0.00914548 0
0.00693409 0.00858457 0
0.00824174 0.00901203 0
VERTICES 25 50
1 0
1 1
1 2
1 3
1 4
1 5
1 6
1 7
1 8
1 9
1 10
1 11
1 12
1 13
1 14
1 15
1 16
1 17
1 18
1 19
1 20
1 21
1 22
1 23
1 24
POINT_DATA 25
VECTORS velocity double
-1.32052e-07 -0.00970849 0
-9.52087e-08 -0.00970854 0
8.26513e-09 -0.00970836 0
1.29478e-07 -0.0097087 0
1.93734e-07 -0.00970866 0
8.09251e-08 -0.00970845 0
2.00195e-07 -0.00970857 0
-1.92397e-08 -0.00970878 0
-8.83208e-08 -0.0097084 0
5.46427e-08 -0.00970856 0
-5.45739e-08 -0.00970852 0
1.78363e-07 -0.00970878 0
-1.0257e-07 -0.0097085 0
-1.81411e-07 -0.00970845 0
-6.7108e-08 -0.00970862 0
1.8796e-07 -0.00970858 0
2.1578e-08 -0.00970875 0
1.27157e-07 -0.00970864 0
6.11758e-08 -0.00970838 0
1.17264e-07 -0.00970842 0
-6.39167e-08 -0.00970861 0
4.66938e-08 -0.00970877 0
-1.68805e-07 -0.00970851 0
-1.54454e-08 -0.00970865 0
-1.77698e-07 -0.00970855 0
SCALARS radius double 1
LOOKUP_TABLE default
0.000621415
0.000750874
0.000735541
0.000522882
0.000780242
0.00097475
0.000994168
0.000790412
0.000880848
0.000720838
0.000933918
0.000958934
0.000753488
0.00054522
0.000712397
0.000950783
0.000807753
0.000836475
0.000569299
0.000603945
0.000628319
0.000580291
0.000777192
0.000692678
0.00055675
SCALARS mass double 1
LOOKUP_TABLE default
0.00327549
0.00478242
0.00458909
0.0023191
0.00516383
0.00805935
0.00838365
0.00529932
0.00658136
0.00440747
0.00739829
0.00779994
0.00481578
0.00252149
0.00430484
0.0076679
0.0055344
0.00593499
0.00274913
0.00309392
0.00334869
0.00285631
0.00512354
0.00406984
0.00262926
