# vtk DataFile Version 3.0
DEM2D particles
ASCII
DATASET POLYDATA
POINTS 25 double
0.000446626 0.00134041 0
0.00260102 0.00113225 0
0.00503464 0.00190933 0
0.00754259 0.000486748 0
0.00981185 0.00064185 0
0.00133912 0.00350126 0
0.00383893 0.00299889 0
0.00491937 0.00212437 0
0.00662989 0.00373114 0
0.00922898 0.00305728 0
0.000771304 0.0052415 0
0.00374744 0.00415393 0
0.00457017 0.00531882 0
0.00623978 0.00553313 0
0.00871878 0.0047959 0
0.00178766 0.00695846 0
0.00309042 0.00627411 0
0.00553286 0.00670621 0
0.00725636 0.00782855 0
0.0094914 0.00763704 0
0.000732153 0.00883514 0
0.00319567 0.00819711 0
0.00429261 0.00924896 0
0.00693527 0.00869812 0
0.00825535 0.0091179 0
VERTICES 25 50
1 0
1 1
1 2
1 3
1 4
1 5
1 6
1 7
1 8
1 9
1 10
1 11
1 12
1 13
1 14
1 15
1 16
1 17
1 18
1 19
1 20
1 21
1 22
1 23
1 24
POINT_DATA 25
VECTORS velocity double
-0.0102171 -0.0027064 0
-0.00736646 -0.00654989 0
0.000639487 0.00779769 0
0.0100179 -0.0184679 0
0.0149895 -0.0156042 0
0.00626132 0.000263355 0
0.0154894 -0.00901202 0
-0.00148861 -0.0251585 0
-0.00683353 0.00450773 0
0.0042278 -0.00793409 0
-0.00422247 -0.00453274 0
0.0138002 -0.0246127 0
-0.00793601 -0.00310514 0
-0.0140361 0.000851679 0
-0.00519226 -0.0127598 0
0.0145428 -0.00975847 0
0.00166953 -0.0223939 0
0.00983838 -0.014416 0
0.00473328 0.00630626 0
0.00907288 0.00277031 0
-0.00494534 -0.0120354 0
0.00361277 -0.0238157 0
-0.0130607 -0.00439504 0
-0.00119504 -0.0145654 0
-0.0137488 -0.00681469 0
SCALARS radius double 1
LOOKUP_TABLE default
0.000621415
0.000750874
0.000735541
0.000522882
0.000780242
0.00097475
0.000994168
0.000790412
0.000880848
0.000720838
0.000933918
0.000958934
0.000753488
0.00054522
0.000712397
0.000950783
0.000807753
0.000836475
0.000569299
0.000603945
0.000628319
0.000580291
0.000777192
0.000692678
0.00055675
SCALARS mass double 1
LOOKUP_TABLE default
0.00327549
0.00478242
0.00458909
0.0023191
0.00516383
0.00805935
0.00838365
0.00529932
0.00658136
0.00440747
0.00739829
0.00779994
0.00481578
0.00252149
0.00430484
0.0076679
0.0055344
0.00593499
0.00274913
0.00309392
0.00334869
0.00285631
0.00512354
0.00406984
0.00262926
