# vtk DataFile Version 3.0
DEM2D particles
ASCII
DATASET POLYDATA
POINTS 25 double
0.000436917 0.001316 0
0.00259402 0.00110418 0
0.00503524 0.0018949 0
0.00755211 0.000447356 0
0.0098261 0.00060518 0
0.00134507 0.00347967 0
0.00385365 0.00296849 0
0.00491796 0.00207862 0
0.00662339 0.00371358 0
0.009233 0.00302789 0
0.000767292 0.00521535 0
0.00376055 0.0041087 0
0.00456263 0.00529403 0
0.00622645 0.00551209 0
0.00871385 0.00476194 0
0.00180148 0.00692735 0
0.00309201 0.00623099 0
0.00554221 0.00667067 0
0.00726086 0.0078127 0
0.00950002 0.00761783 0
0.000727453 0.00880186 0
0.00319911 0.00815263 0
0.0042802 0.00922294 0
0.00693414 0.00866243 0
0.00824228 0.00908959 0
VERTICES 25 50
1 0
1 1
1 2
1 3
1 4
1 5
1 6
1 7
1 8
1 9
1 10
1 11
1 12
1 13
1 14
1 15
1 16
1 17
1 18
1 19
1 20
1 21
1 22
1 23
1 24
POINT_DATA 25
VECTORS velocity double
-0.000409817 -0.00942772 0
-0.000295475 -0.00958189 0
2.56504e-05 -0.00900639 0
0.000401828 -0.0100599 0
0.000601243 -0.00994506 0
0.000251147 -0.0093086 0
0.000621295 -0.00968064 0
-5.97093e-05 -0.0103283 0
-0.000274099 -0.00913835 0
0.000169581 -0.00963741 0
-0.000169367 -0.00950098 0
0.000553539 -0.0103064 0
-0.00031832 -0.00944371 0
-0.000562999 -0.009285 0
-0.000208266 -0.00983097 0
0.000583324 -0.00971058 0
6.69662e-05 -0.0102174 0
0.000394626 -0.0098974 0
0.000189856 -0.00906621 0
0.000363921 -0.00920804 0
-0.000198362 -0.00980191 0
0.000144912 -0.0102744 0
-0.000523876 -0.00949545 0
-4.7934e-05 -0.00990339 0
-0.000551475 -0.00959251 0
SCALARS radius double 1
LOOKUP_TABLE default
0.000621415
0.000750874
0.000735541
0.000522882
0.000780242
0.00097475
0.000994168
0.000790412
0.000880848
0.000720838
0.000933918
0.000958934
0.000753488
0.00054522
0.000712397
0.000950783
0.000807753
0.000836475
0.000569299
0.000603945
0.000628319
0.000580291
0.000777192
0.000692678
0.00055675
SCALARS mass double 1
LOOKUP_TABLE default
0.00327549
0.00478242
0.00458909
0.0023191
0.00516383
0.00805935
0.00838365
0.00529932
0.00658136
0.00440747
0.00739829
0.00779994
0.00481578
0.00252149
0.00430484
0.0076679
0.0055344
0.00593499
0.00274913
0.00309392
0.00334869
0.00285631
0.00512354
0.00406984
0.00262926
