# vtk DataFile Version 3.0
DEM2D particles
ASCII
DATASET POLYDATA
POINTS 25 double
0.000436511 0.000964829 0
0.00259373 0.000752854 0
0.00503527 0.00154414 0
0.0075525 9.55579e-05 0
0.00982669 0.000253495 0
0.00134532 0.00312861 0
0.00385427 0.00261706 0
0.0049179 0.00172656 0
0.00662312 0.0033627 0
0.00923317 0.00267651 0
0.000767124 0.0048641 0
0.0037611 0.00375666 0
0.00456232 0.00494284 0
0.00622589 0.00516106 0
0.00871364 0.00441037 0
0.00180206 0.0065759 0
0.00309208 0.00587903 0
0.0055426 0.00631903 0
0.00726105 0.00746189 0
0.00950038 0.00726688 0
0.000727257 0.00845032 0
0.00319925 0.00780062 0
0.00427968 0.0088717 0
0.00693409 0.00831079 0
0.00824173 0.00873825 0
VERTICES 25 50
1 0
1 1
1 2
1 3
1 4
1 5
1 6
1 7
1 8
1 9
1 10
1 11
1 12
1 13
1 14
1 15
1 16
1 17
1 18
1 19
1 20
1 21
1 22
1 23
1 24
POINT_DATA 25
VECTORS velocity double
-6.48627e-20 -0.00970858 0
-4.67655e-20 -0.00970858 0
4.05974e-21 -0.00970858 0
6.35981e-20 -0.00970858 0
9.516e-20 -0.00970858 0
3.97496e-20 -0.00970858 0
9.83337e-20 -0.00970858 0
-9.45031e-21 -0.00970858 0
-4.33822e-20 -0.00970858 0
2.68399e-20 -0.00970858 0
-2.68061e-20 -0.00970858 0
8.76098e-20 -0.00970858 0
-5.03813e-20 -0.00970858 0
-8.91071e-20 -0.00970858 0
-3.29627e-20 -0.00970858 0
9.2324e-20 -0.00970858 0
1.05989e-20 -0.00970858 0
6.24583e-20 -0.00970858 0
3.00489e-20 -0.00970858 0
5.75986e-20 -0.00970858 0
-3.13952e-20 -0.00970858 0
2.29355e-20 -0.00970858 0
-8.2915e-20 -0.00970858 0
-7.58662e-21 -0.00970858 0
-8.72832e-20 -0.00970858 0
SCALARS radius double 1
LOOKUP_TABLE default
0.000621415
0.000750874
0.000735541
0.000522882
0.000780242
0.00097475
0.000994168
0.000790412
0.000880848
0.000720838
0.000933918
0.000958934
0.000753488
0.00054522
0.000712397
0.000950783
0.000807753
0.000836475
0.000569299
0.000603945
0.000628319
0.000580291
0.000777192
0.000692678
0.00055675
SCALARS mass double 1
LOOKUP_TABLE default
0.00327549
0.00478242
0.00458909
0.0023191
0.00516383
0.00805935
0.00838365
0.00529932
0.00658136
0.00440747
0.00739829
0.00779994
0.00481578
0.00252149
0.00430484
0.0076679
0.0055344
0.00593499
0.00274913
0.00309392
0.00334869
0.00285631
0.00512354
0.00406984
0.00262926
