# vtk DataFile Version 3.0
DEM2D particles
ASCII
DATASET POLYDATA
POINTS 25 double
0.000436511 -0.000306996 0
0.00259373 -0.00051897 0
0.00503527 0.000272321 0
0.0075525 -0.00117627 0
0.00982669 -0.00101833 0
0.00134532 0.00185679 0
0.00385427 0.00134524 0
0.0049179 0.000454736 0
0.00662312 0.00209087 0
0.00923317 0.00140469 0
0.000767124 0.00359228 0
0.0037611 0.00248484 0
0.00456232 0.00367101 0
0.00622589 0.00388924 0
0.00871364 0.00313854 0
0.00180206 0.00530407 0
0.00309208 0.00460721 0
0.0055426 0.0050472 0
0.00726105 0.00619007 0
0.00950038 0.00599505 0
0.000727257 0.00717849 0
0.00319925 0.0065288 0
0.00427968 0.00759987 0
0.00693409 0.00703896 0
0.00824173 0.00746643 0
VERTICES 25 50
1 0
1 1
1 2
1 3
1 4
1 5
1 6
1 7
1 8
1 9
1 10
1 11
1 12
1 13
1 14
1 15
1 16
1 17
1 18
1 19
1 20
1 21
1 22
1 23
1 24
POINT_DATA 25
VECTORS velocity double
-4.2958e-77 -0.00970858 0
-3.09724e-77 -0.00970858 0
2.68873e-78 -0.00970858 0
4.21205e-77 -0.00970858 0
6.30237e-77 -0.00970858 0
2.63258e-77 -0.00970858 0
6.51256e-77 -0.00970858 0
-6.25886e-78 -0.00970858 0
-2.87317e-77 -0.00970858 0
1.77758e-77 -0.00970858 0
-1.77535e-77 -0.00970858 0
5.80232e-77 -0.00970858 0
-3.33671e-77 -0.00970858 0
-5.90149e-77 -0.00970858 0
-2.18309e-77 -0.00970858 0
6.11454e-77 -0.00970858 0
7.01955e-78 -0.00970858 0
4.13656e-77 -0.00970858 0
1.99011e-77 -0.00970858 0
3.81471e-77 -0.00970858 0
-2.07928e-77 -0.00970858 0
1.519e-77 -0.00970858 0
-5.49139e-77 -0.00970858 0
-5.02455e-78 -0.00970858 0
-5.78069e-77 -0.00970858 0
SCALARS radius double 1
LOOKUP_TABLE default
0.000621415
0.000750874
0.000735541
0.000522882
0.000780242
0.00097475
0.000994168
0.000790412
0.000880848
0.000720838
0.000933918
0.000958934
0.000753488
0.00054522
0.000712397
0.000950783
0.000807753
0.000836475
0.000569299
0.000603945
0.000628319
0.000580291
0.000777192
0.000692678
0.00055675
SCALARS mass double 1
LOOKUP_TABLE default
0.00327549
0.00478242
0.00458909
0.0023191
0.00516383
0.00805935
0.00838365
0.00529932
0.00658136
0.00440747
0.00739829
0.00779994
0.00481578
0.00252149
0.00430484
0.0076679
0.0055344
0.00593499
0.00274913
0.00309392
0.00334869
0.00285631
0.00512354
0.00406984
0.00262926
