# vtk DataFile Version 3.0
DEM2D particles
ASCII
DATASET POLYDATA
POINTS 25 double
0.000436511 0.00111628 0
0.00259373 0.000904308 0
0.00503527 0.0016956 0
0.0075525 0.000247012 0
0.00982669 0.000404949 0
0.00134532 0.00328007 0
0.00385427 0.00276852 0
0.0049179 0.00187801 0
0.00662312 0.00351415 0
0.00923317 0.00282797 0
0.000767124 0.00501556 0
0.0037611 0.00390812 0
0.00456232 0.00509429 0
0.00622589 0.00531252 0
0.00871364 0.00456182 0
0.00180206 0.00672735 0
0.00309208 0.00603049 0
0.0055426 0.00647048 0
0.00726105 0.00761334 0
0.00950038 0.00741833 0
0.000727257 0.00860177 0
0.00319925 0.00795207 0
0.00427968 0.00902315 0
0.00693409 0.00846224 0
0.00824173 0.0088897 0
VERTICES 25 50
1 0
1 1
1 2
1 3
1 4
1 5
1 6
1 7
1 8
1 9
1 10
1 11
1 12
1 13
1 14
1 15
1 16
1 17
1 18
1 19
1 20
1 21
1 22
1 23
1 24
POINT_DATA 25
VECTORS velocity double
-4.17918e-13 -0.00970858 0
-3.01316e-13 -0.00970858 0
2.61574e-14 -0.00970858 0
4.09771e-13 -0.00970858 0
6.13127e-13 -0.00970858 0
2.56111e-13 -0.00970858 0
6.33576e-13 -0.00970858 0
-6.08895e-14 -0.00970858 0
-2.79517e-13 -0.00970858 0
1.72933e-13 -0.00970858 0
-1.72715e-13 -0.00970858 0
5.64481e-13 -0.00970858 0
-3.24613e-13 -0.00970858 0
-5.74128e-13 -0.00970858 0
-2.12383e-13 -0.00970858 0
5.94855e-13 -0.00970858 0
6.82899e-14 -0.00970858 0
4.02427e-13 -0.00970858 0
1.93609e-13 -0.00970858 0
3.71115e-13 -0.00970858 0
-2.02283e-13 -0.00970858 0
1.47776e-13 -0.00970858 0
-5.34231e-13 -0.00970858 0
-4.88815e-14 -0.00970858 0
-5.62376e-13 -0.00970858 0
SCALARS radius double 1
LOOKUP_TABLE default
0.000621415
0.000750874
0.000735541
0.000522882
0.000780242
0.00097475
0.000994168
0.000790412
0.000880848
0.000720838
0.000933918
0.000958934
0.000753488
0.00054522
0.000712397
0.000950783
0.000807753
0.000836475
0.000569299
0.000603945
0.000628319
0.000580291
0.000777192
0.000692678
0.00055675
SCALARS mass double 1
LOOKUP_TABLE default
0.00327549
0.00478242
0.00458909
0.0023191
0.00516383
0.00805935
0.00838365
0.00529932
0.00658136
0.00440747
0.00739829
0.00779994
0.00481578
0.00252149
0.00430484
0.0076679
0.0055344
0.00593499
0.00274913
0.00309392
0.00334869
0.00285631
0.00512354
0.00406984
0.00262926
