# vtk DataFile Version 3.0
DEM2D particles
ASCII
DATASET POLYDATA
POINTS 25 double
0.000436511 -4.08809e-06 0
0.00259373 -0.000216062 0
0.00503527 0.000575228 0
0.0075525 -0.000873359 0
0.00982669 -0.000715422 0
0.00134532 0.0021597 0
0.00385427 0.00164815 0
0.0049179 0.000757644 0
0.00662312 0.00239378 0
0.00923317 0.0017076 0
0.000767124 0.00389519 0
0.0037611 0.00278774 0
0.00456232 0.00397392 0
0.00622589 0.00419215 0
0.00871364 0.00344145 0
0.00180206 0.00560698 0
0.00309208 0.00491012 0
0.0055426 0.00535011 0
0.00726105 0.00649297 0
0.00950038 0.00629796 0
0.000727257 0.0074814 0
0.00319925 0.0068317 0
0.00427968 0.00790278 0
0.00693409 0.00734187 0
0.00824173 0.00776933 0
VERTICES 25 50
1 0
1 1
1 2
1 3
1 4
1 5
1 6
1 7
1 8
1 9
1 10
1 11
1 12
1 13
1 14
1 15
1 16
1 17
1 18
1 19
1 20
1 21
1 22
1 23
1 24
POINT_DATA 25
VECTORS velocity double
-1.78335e-63 -0.00970858 0
-1.28578e-63 -0.00970858 0
1.1162e-64 -0.00970858 0
1.74858e-63 -0.00970858 0
2.61635e-63 -0.00970858 0
1.09288e-63 -0.00970858 0
2.70361e-63 -0.00970858 0
-2.59829e-64 -0.00970858 0
-1.19276e-63 -0.00970858 0
7.37943e-64 -0.00970858 0
-7.37014e-64 -0.00970858 0
2.40877e-63 -0.00970858 0
-1.3852e-63 -0.00970858 0
-2.44993e-63 -0.00970858 0
-9.06286e-64 -0.00970858 0
2.53838e-63 -0.00970858 0
2.91409e-64 -0.00970858 0
1.71725e-63 -0.00970858 0
8.26173e-64 -0.00970858 0
1.58363e-63 -0.00970858 0
-8.63188e-64 -0.00970858 0
6.30594e-64 -0.00970858 0
-2.27969e-63 -0.00970858 0
-2.08588e-64 -0.00970858 0
-2.39979e-63 -0.00970858 0
SCALARS radius double 1
LOOKUP_TABLE default
0.000621415
0.000750874
0.000735541
0.000522882
0.000780242
0.00097475
0.000994168
0.000790412
0.000880848
0.000720838
0.000933918
0.000958934
0.000753488
0.00054522
0.000712397
0.000950783
0.000807753
0.000836475
0.000569299
0.000603945
0.000628319
0.000580291
0.000777192
0.000692678
0.00055675
SCALARS mass double 1
LOOKUP_TABLE default
0.00327549
0.00478242
0.00458909
0.0023191
0.00516383
0.00805935
0.00838365
0.00529932
0.00658136
0.00440747
0.00739829
0.00779994
0.00481578
0.00252149
0.00430484
0.0076679
0.0055344
0.00593499
0.00274913
0.00309392
0.00334869
0.00285631
0.00512354
0.00406984
0.00262926
