# vtk DataFile Version 3.0
DEM2D particles
ASCII
DATASET POLYDATA
POINTS 25 double
0.000436511 0.000885218 0
0.00259373 0.000673244 0
0.00503527 0.00146453 0
0.0075525 1.59475e-05 0
0.00982669 0.000173885 0
0.00134532 0.003049 0
0.00385427 0.00253745 0
0.0049179 0.00164695 0
0.00662312 0.00328309 0
0.00923317 0.0025969 0
0.000767124 0.00478449 0
0.0037611 0.00367705 0
0.00456232 0.00486323 0
0.00622589 0.00508145 0
0.00871364 0.00433076 0
0.00180206 0.00649629 0
0.00309208 0.00579942 0
0.0055426 0.00623942 0
0.00726105 0.00738228 0
0.00950038 0.00718727 0
0.000727257 0.00837071 0
0.00319925 0.00772101 0
0.00427968 0.00879209 0
0.00693409 0.00823118 0
0.00824173 0.00865864 0
VERTICES 25 50
1 0
1 1
1 2
1 3
1 4
1 5
1 6
1 7
1 8
1 9
1 10
1 11
1 12
1 13
1 14
1 15
1 16
1 17
1 18
1 19
1 20
1 21
1 22
1 23
1 24
POINT_DATA 25
VECTORS velocity double
-1.70944e-23 -0.00970858 0
-1.23249e-23 -0.00970858 0
1.06994e-24 -0.00970858 0
1.67612e-23 -0.00970858 0
2.50792e-23 -0.00970858 0
1.04759e-23 -0.00970858 0
2.59156e-23 -0.00970858 0
-2.49061e-24 -0.00970858 0
-1.14333e-23 -0.00970858 0
7.0736e-24 -0.00970858 0
-7.06469e-24 -0.00970858 0
2.30894e-23 -0.00970858 0
-1.32779e-23 -0.00970858 0
-2.3484e-23 -0.00970858 0
-8.68726e-24 -0.00970858 0
2.43318e-23 -0.00970858 0
2.79331e-24 -0.00970858 0
1.64608e-23 -0.00970858 0
7.91933e-24 -0.00970858 0
1.518e-23 -0.00970858 0
-8.27414e-24 -0.00970858 0
6.04459e-24 -0.00970858 0
-2.18521e-23 -0.00970858 0
-1.99944e-24 -0.00970858 0
-2.30033e-23 -0.00970858 0
SCALARS radius double 1
LOOKUP_TABLE default
0.000621415
0.000750874
0.000735541
0.000522882
0.000780242
0.00097475
0.000994168
0.000790412
0.000880848
0.000720838
0.000933918
0.000958934
0.000753488
0.00054522
0.000712397
0.000950783
0.000807753
0.000836475
0.000569299
0.000603945
0.000628319
0.000580291
0.000777192
0.000692678
0.00055675
SCALARS mass double 1
LOOKUP_TABLE default
0.00327549
0.00478242
0.00458909
0.0023191
0.00516383
0.00805935
0.00838365
0.00529932
0.00658136
0.00440747
0.00739829
0.00779994
0.00481578
0.00252149
0.00430484
0.0076679
0.0055344
0.00593499
0.00274913
0.00309392
0.00334869
0.00285631
0.00512354
0.00406984
0.00262926
