# vtk DataFile Version 3.0
DEM2D particles
ASCII
DATASET POLYDATA
POINTS 25 double
0.000436515 0.00127162 0
0.00259373 0.00105964 0
0.00503527 0.00185093 0
0.0075525 0.000402353 0
0.00982669 0.000560288 0
0.00134532 0.0034354 0
0.00385426 0.00292385 0
0.0049179 0.00203336 0
0.00662312 0.00366948 0
0.00923317 0.0029833 0
0.000767126 0.00517089 0
0.0037611 0.00406346 0
0.00456232 0.00524963 0
0.00622589 0.00546785 0
0.00871364 0.00471716 0
0.00180205 0.00688269 0
0.00309208 0.00618583 0
0.0055426 0.00662582 0
0.00726105 0.00776868 0
0.00950038 0.00757366 0
0.000727259 0.00875711 0
0.00319925 0.00810742 0
0.00427969 0.00917849 0
0.00693409 0.00861758 0
0.00824174 0.00904504 0
VERTICES 25 50
1 0
1 1
1 2
1 3
1 4
1 5
1 6
1 7
1 8
1 9
1 10
1 11
1 12
1 13
1 14
1 15
1 16
1 17
1 18
1 19
1 20
1 21
1 22
1 23
1 24
POINT_DATA 25
VECTORS velocity double
-4.02513e-06 -0.00970582 0
-2.90209e-06 -0.00970734 0
2.51932e-07 -0.00970169 0
3.94666e-06 -0.00971203 0
5.90527e-06 -0.00971091 0
2.46671e-06 -0.00970465 0
6.10222e-06 -0.00970831 0
-5.8645e-07 -0.00971467 0
-2.69213e-06 -0.00970298 0
1.66558e-06 -0.00970788 0
-1.66348e-06 -0.00970654 0
5.43673e-06 -0.00971446 0
-3.12647e-06 -0.00970598 0
-5.52965e-06 -0.00970442 0
-2.04554e-06 -0.00970979 0
5.72927e-06 -0.0097086 0
6.57726e-07 -0.00971358 0
3.87593e-06 -0.00971044 0
1.86472e-06 -0.00970227 0
3.57435e-06 -0.00970367 0
-1.94827e-06 -0.0097095 0
1.42329e-06 -0.00971414 0
-5.14539e-06 -0.00970649 0
-4.70797e-07 -0.0097105 0
-5.41646e-06 -0.00970744 0
SCALARS radius double 1
LOOKUP_TABLE default
0.000621415
0.000750874
0.000735541
0.000522882
0.000780242
0.00097475
0.000994168
0.000790412
0.000880848
0.000720838
0.000933918
0.000958934
0.000753488
0.00054522
0.000712397
0.000950783
0.000807753
0.000836475
0.000569299
0.000603945
0.000628319
0.000580291
0.000777192
0.000692678
0.00055675
SCALARS mass double 1
LOOKUP_TABLE default
0.00327549
0.00478242
0.00458909
0.0023191
0.00516383
0.00805935
0.00838365
0.00529932
0.00658136
0.00440747
0.00739829
0.00779994
0.00481578
0.00252149
0.00430484
0.0076679
0.0055344
0.00593499
0.00274913
0.00309392
0.00334869
0.00285631
0.00512354
0.00406984
0.00262926
