# vtk DataFile Version 3.0
DEM2D particles
ASCII
DATASET POLYDATA
POINTS 25 double
0.000744828 0.00116905 0
0.00281602 0.00107306 0
0.00501597 0.00143139 0
0.0072502 0.000775411 0
0.00937436 0.000846932 0
0.00115638 0.00324322 0
0.00338685 0.00301157 0
0.00496282 0.00260831 0
0.00682933 0.00334923 0
0.00910559 0.00303849 0
0.000894544 0.00512344 0
0.00334466 0.00462194 0
0.0048018 0.0051591 0
0.00664945 0.00525792 0
0.00887032 0.00491797 0
0.00136321 0.00699293 0
0.0030417 0.00667736 0
0.00524571 0.00687661 0
0.00711821 0.00739415 0
0.0092266 0.00730584 0
0.00087649 0.00893606 0
0.00309023 0.00864185 0
0.00467381 0.00912688 0
0.00697015 0.00887288 0
0.00865662 0.00906645 0
VERTICES 25 50
1 0
1 1
1 2
1 3
1 4
1 5
1 6
1 7
1 8
1 9
1 10
1 11
1 12
1 13
1 14
1 15
1 16
1 17
1 18
1 19
1 20
1 21
1 22
1 23
1 24
POINT_DATA 25
VECTORS velocity double
-0.311431 0.203727 0
-0.224539 0.0865727 0
0.0194924 0.523906 0
0.30536 -0.276704 0
0.4569 -0.189415 0
0.190853 0.294249 0
0.472139 0.0115234 0
-0.0453747 -0.480643 0
-0.208295 0.423624 0
0.128869 0.0443805 0
-0.128707 0.148058 0
0.420649 -0.464007 0
-0.2419 0.191573 0
-0.427838 0.312182 0
-0.158267 -0.102715 0
0.443283 -0.0112292 0
0.0508894 -0.396373 0
0.299887 -0.153196 0
0.144277 0.478445 0
0.276553 0.370664 0
-0.150741 -0.0806334 0
0.110122 -0.439711 0
-0.398107 0.152255 0
-0.0364263 -0.15775 0
-0.419081 0.078501 0
SCALARS radius double 1
LOOKUP_TABLE default
0.000621415
0.000750874
0.000735541
0.000522882
0.000780242
0.00097475
0.000994168
0.000790412
0.000880848
0.000720838
0.000933918
0.000958934
0.000753488
0.00054522
0.000712397
0.000950783
0.000807753
0.000836475
0.000569299
0.000603945
0.000628319
0.000580291
0.000777192
0.000692678
0.00055675
SCALARS mass double 1
LOOKUP_TABLE default
0.00327549
0.00478242
0.00458909
0.0023191
0.00516383
0.00805935
0.00838365
0.00529932
0.00658136
0.00440747
0.00739829
0.00779994
0.00481578
0.00252149
0.00430484
0.0076679
0.0055344
0.00593499
0.00274913
0.00309392
0.00334869
0.00285631
0.00512354
0.00406984
0.00262926
