# vtk DataFile Version 3.0
DEM2D particles
ASCII
DATASET POLYDATA
POINTS 25 double
0.000436511 0.000459982 0
0.00259373 0.000248008 0
0.00503527 0.0010393 0
0.0075525 -0.000409288 0
0.00982669 -0.000251351 0
0.00134532 0.00262377 0
0.00385427 0.00211222 0
0.0049179 0.00122171 0
0.00662312 0.00285785 0
0.00923317 0.00217167 0
0.000767124 0.00435926 0
0.0037611 0.00325181 0
0.00456232 0.00443799 0
0.00622589 0.00465622 0
0.00871364 0.00390552 0
0.00180206 0.00607105 0
0.00309208 0.00537419 0
0.0055426 0.00581418 0
0.00726105 0.00695704 0
0.00950038 0.00676203 0
0.000727257 0.00794547 0
0.00319925 0.00729577 0
0.00427968 0.00836685 0
0.00693409 0.00780594 0
0.00824173 0.0082334 0
VERTICES 25 50
1 0
1 1
1 2
1 3
1 4
1 5
1 6
1 7
1 8
1 9
1 10
1 11
1 12
1 13
1 14
1 15
1 16
1 17
1 18
1 19
1 20
1 21
1 22
1 23
1 24
POINT_DATA 25
VECTORS velocity double
-1.30319e-42 -0.00970858 0
-9.39588e-43 -0.00970858 0
8.15662e-44 -0.00970858 0
1.27778e-42 -0.00970858 0
1.9119e-42 -0.00970858 0
7.98627e-43 -0.00970858 0
1.97567e-42 -0.00970858 0
-1.89871e-43 -0.00970858 0
-8.71613e-43 -0.00970858 0
5.39253e-43 -0.00970858 0
-5.38574e-43 -0.00970858 0
1.76021e-42 -0.00970858 0
-1.01223e-42 -0.00970858 0
-1.79029e-42 -0.00970858 0
-6.6227e-43 -0.00970858 0
1.85492e-42 -0.00970858 0
2.12947e-43 -0.00970858 0
1.25488e-42 -0.00970858 0
6.03727e-43 -0.00970858 0
1.15724e-42 -0.00970858 0
-6.30776e-43 -0.00970858 0
4.60807e-43 -0.00970858 0
-1.66588e-42 -0.00970858 0
-1.52426e-43 -0.00970858 0
-1.75365e-42 -0.00970858 0
SCALARS radius double 1
LOOKUP_TABLE default
0.000621415
0.000750874
0.000735541
0.000522882
0.000780242
0.00097475
0.000994168
0.000790412
0.000880848
0.000720838
0.000933918
0.000958934
0.000753488
0.00054522
0.000712397
0.000950783
0.000807753
0.000836475
0.000569299
0.000603945
0.000628319
0.000580291
0.000777192
0.000692678
0.00055675
SCALARS mass double 1
LOOKUP_TABLE default
0.00327549
0.00478242
0.00458909
0.0023191
0.00516383
0.00805935
0.00838365
0.00529932
0.00658136
0.00440747
0.00739829
0.00779994
0.00481578
0.00252149
0.00430484
0.0076679
0.0055344
0.00593499
0.00274913
0.00309392
0.00334869
0.00285631
0.00512354
0.00406984
0.00262926
