# vtk DataFile Version 3.0
DEM2D particles
ASCII
DATASET POLYDATA
POINTS 25 double
0.000436511 0.00109687 0
0.00259373 0.000884891 0
0.00503527 0.00167618 0
0.0075525 0.000227595 0
0.00982669 0.000385532 0
0.00134532 0.00326065 0
0.00385427 0.0027491 0
0.0049179 0.0018586 0
0.00662312 0.00349474 0
0.00923317 0.00280855 0
0.000767124 0.00499614 0
0.0037611 0.0038887 0
0.00456232 0.00507487 0
0.00622589 0.0052931 0
0.00871364 0.0045424 0
0.00180206 0.00670793 0
0.00309208 0.00601107 0
0.0055426 0.00645106 0
0.00726105 0.00759393 0
0.00950038 0.00739891 0
0.000727257 0.00858236 0
0.00319925 0.00793266 0
0.00427968 0.00900373 0
0.00693409 0.00844283 0
0.00824173 0.00887029 0
VERTICES 25 50
1 0
1 1
1 2
1 3
1 4
1 5
1 6
1 7
1 8
1 9
1 10
1 11
1 12
1 13
1 14
1 15
1 16
1 17
1 18
1 19
1 20
1 21
1 22
1 23
1 24
POINT_DATA 25
VECTORS velocity double
-5.59925e-14 -0.00970858 0
-4.03702e-14 -0.00970858 0
3.50456e-15 -0.00970858 0
5.49009e-14 -0.00970858 0
8.21466e-14 -0.00970858 0
3.43137e-14 -0.00970858 0
8.48864e-14 -0.00970858 0
-8.15796e-15 -0.00970858 0
-3.74496e-14 -0.00970858 0
2.31695e-14 -0.00970858 0
-2.31403e-14 -0.00970858 0
7.56289e-14 -0.00970858 0
-4.34915e-14 -0.00970858 0
-7.69215e-14 -0.00970858 0
-2.8455e-14 -0.00970858 0
7.96984e-14 -0.00970858 0
9.14946e-15 -0.00970858 0
5.3917e-14 -0.00970858 0
2.59396e-14 -0.00970858 0
4.97218e-14 -0.00970858 0
-2.71018e-14 -0.00970858 0
1.9799e-14 -0.00970858 0
-7.15761e-14 -0.00970858 0
-6.54913e-15 -0.00970858 0
-7.5347e-14 -0.00970858 0
SCALARS radius double 1
LOOKUP_TABLE default
0.000621415
0.000750874
0.000735541
0.000522882
0.000780242
0.00097475
0.000994168
0.000790412
0.000880848
0.000720838
0.000933918
0.000958934
0.000753488
0.00054522
0.000712397
0.000950783
0.000807753
0.000836475
0.000569299
0.000603945
0.000628319
0.000580291
0.000777192
0.000692678
0.00055675
SCALARS mass double 1
LOOKUP_TABLE default
0.00327549
0.00478242
0.00458909
0.0023191
0.00516383
0.00805935
0.00838365
0.00529932
0.00658136
0.00440747
0.00739829
0.00779994
0.00481578
0.00252149
0.00430484
0.0076679
0.0055344
0.00593499
0.00274913
0.00309392
0.00334869
0.00285631
0.00512354
0.00406984
0.00262926
