# vtk DataFile Version 3.0
DEM2D particles
ASCII
DATASET POLYDATA
POINTS 25 double
0.000436535 0.00128908 0
0.00259375 0.00107711 0
0.00503527 0.00186837 0
0.00755248 0.000419845 0
0.00982666 0.000577776 0
0.00134531 0.00345286 0
0.00385423 0.00294133 0
0.0049179 0.00205086 0
0.00662314 0.00368693 0
0.00923316 0.00300078 0
0.000767134 0.00518836 0
0.00376107 0.00408096 0
0.00456234 0.00526709 0
0.00622592 0.0054853 0
0.00871365 0.00473464 0
0.00180202 0.00690016 0
0.00309207 0.00620333 0
0.00554258 0.00664331 0
0.00726104 0.00778612 0
0.00950036 0.00759111 0
0.000727269 0.00877459 0
0.00319924 0.00812492 0
0.00427971 0.00919595 0
0.00693409 0.00863507 0
0.00824177 0.00906251 0
VERTICES 25 50
1 0
1 1
1 2
1 3
1 4
1 5
1 6
1 7
1 8
1 9
1 10
1 11
1 12
1 13
1 14
1 15
1 16
1 17
1 18
1 19
1 20
1 21
1 22
1 23
1 24
POINT_DATA 25
VECTORS velocity double
-2.45722e-05 -0.00969174 0
-1.77164e-05 -0.00970099 0
1.53797e-06 -0.00966648 0
2.40932e-05 -0.00972965 0
3.60499e-05 -0.00972276 0
1.50585e-05 -0.0096846 0
3.72523e-05 -0.00970691 0
-3.58011e-06 -0.00974574 0
-1.64347e-05 -0.00967439 0
1.01679e-05 -0.00970432 0
-1.01551e-05 -0.00969614 0
3.31896e-05 -0.00974443 0
-1.90862e-05 -0.0096927 0
-3.37569e-05 -0.00968319 0
-1.24874e-05 -0.00971592 0
3.49755e-05 -0.0097087 0
4.01523e-06 -0.00973909 0
2.36614e-05 -0.0097199 0
1.13836e-05 -0.00967007 0
2.18204e-05 -0.00967857 0
-1.18936e-05 -0.00971418 0
8.68876e-06 -0.00974251 0
-3.14111e-05 -0.0096958 0
-2.87408e-06 -0.00972026 0
-3.30659e-05 -0.00970162 0
SCALARS radius double 1
LOOKUP_TABLE default
0.000621415
0.000750874
0.000735541
0.000522882
0.000780242
0.00097475
0.000994168
0.000790412
0.000880848
0.000720838
0.000933918
0.000958934
0.000753488
0.00054522
0.000712397
0.000950783
0.000807753
0.000836475
0.000569299
0.000603945
0.000628319
0.000580291
0.000777192
0.000692678
0.00055675
SCALARS mass double 1
LOOKUP_TABLE default
0.00327549
0.00478242
0.00458909
0.0023191
0.00516383
0.00805935
0.00838365
0.00529932
0.00658136
0.00440747
0.00739829
0.00779994
0.00481578
0.00252149
0.00430484
0.0076679
0.0055344
0.00593499
0.00274913
0.00309392
0.00334869
0.00285631
0.00512354
0.00406984
0.00262926
