# vtk DataFile Version 3.0
DEM2D particles
ASCII
DATASET POLYDATA
POINTS 25 double
0.000436511 0.00108327 0
0.00259373 0.000871299 0
0.00503527 0.00166259 0
0.0075525 0.000214003 0
0.00982669 0.00037194 0
0.00134532 0.00324706 0
0.00385427 0.00273551 0
0.0049179 0.00184501 0
0.00662312 0.00348114 0
0.00923317 0.00279496 0
0.000767124 0.00498255 0
0.0037611 0.00387511 0
0.00456232 0.00506128 0
0.00622589 0.00527951 0
0.00871364 0.00452881 0
0.00180206 0.00669434 0
0.00309208 0.00599748 0
0.0055426 0.00643747 0
0.00726105 0.00758033 0
0.00950038 0.00738532 0
0.000727257 0.00856876 0
0.00319925 0.00791907 0
0.00427968 0.00899014 0
0.00693409 0.00842923 0
0.00824173 0.00885669 0
VERTICES 25 50
1 0
1 1
1 2
1 3
1 4
1 5
1 6
1 7
1 8
1 9
1 10
1 11
1 12
1 13
1 14
1 15
1 16
1 17
1 18
1 19
1 20
1 21
1 22
1 23
1 24
POINT_DATA 25
VECTORS velocity double
-1.37106e-14 -0.00970858 0
-9.88526e-15 -0.00970858 0
8.58145e-16 -0.00970858 0
1.34433e-14 -0.00970858 0
2.01149e-14 -0.00970858 0
8.40224e-15 -0.00970858 0
2.07857e-14 -0.00970858 0
-1.9976e-15 -0.00970858 0
-9.17011e-15 -0.00970858 0
5.6734e-15 -0.00970858 0
-5.66626e-15 -0.00970858 0
1.85189e-14 -0.00970858 0
-1.06496e-14 -0.00970858 0
-1.88354e-14 -0.00970858 0
-6.96764e-15 -0.00970858 0
1.95154e-14 -0.00970858 0
2.24039e-15 -0.00970858 0
1.32024e-14 -0.00970858 0
6.35172e-15 -0.00970858 0
1.21752e-14 -0.00970858 0
-6.6363e-15 -0.00970858 0
4.84808e-15 -0.00970858 0
-1.75265e-14 -0.00970858 0
-1.60365e-15 -0.00970858 0
-1.84499e-14 -0.00970858 0
SCALARS radius double 1
LOOKUP_TABLE default
0.000621415
0.000750874
0.000735541
0.000522882
0.000780242
0.00097475
0.000994168
0.000790412
0.000880848
0.000720838
0.000933918
0.000958934
0.000753488
0.00054522
0.000712397
0.000950783
0.000807753
0.000836475
0.000569299
0.000603945
0.000628319
0.000580291
0.000777192
0.000692678
0.00055675
SCALARS mass double 1
LOOKUP_TABLE default
0.00327549
0.00478242
0.00458909
0.0023191
0.00516383
0.00805935
0.00838365
0.00529932
0.00658136
0.00440747
0.00739829
0.00779994
0.00481578
0.00252149
0.00430484
0.0076679
0.0055344
0.00593499
0.00274913
0.00309392
0.00334869
0.00285631
0.00512354
0.00406984
0.00262926
