# vtk DataFile Version 3.0
DEM2D particles
ASCII
DATASET POLYDATA
POINTS 25 double
0.000436511 0.000533767 0
0.00259373 0.000321793 0
0.00503527 0.00111308 0
0.0075525 -0.000335503 0
0.00982669 -0.000177566 0
0.00134532 0.00269755 0
0.00385427 0.002186 0
0.0049179 0.0012955 0
0.00662312 0.00293164 0
0.00923317 0.00224545 0
0.000767124 0.00443304 0
0.0037611 0.0033256 0
0.00456232 0.00451178 0
0.00622589 0.00473 0
0.00871364 0.0039793 0
0.00180206 0.00614484 0
0.00309208 0.00544797 0
0.0055426 0.00588797 0
0.00726105 0.00703083 0
0.00950038 0.00683582 0
0.000727257 0.00801926 0
0.00319925 0.00736956 0
0.00427968 0.00844064 0
0.00693409 0.00787973 0
0.00824173 0.00830719 0
VERTICES 25 50
1 0
1 1
1 2
1 3
1 4
1 5
1 6
1 7
1 8
1 9
1 10
1 11
1 12
1 13
1 14
1 15
1 16
1 17
1 18
1 19
1 20
1 21
1 22
1 23
1 24
POINT_DATA 25
VECTORS velocity double
-2.70557e-39 -0.00970858 0
-1.9507e-39 -0.00970858 0
1.69341e-40 -0.00970858 0
2.65282e-39 -0.00970858 0
3.96934e-39 -0.00970858 0
1.65804e-39 -0.00970858 0
4.10173e-39 -0.00970858 0
-3.94194e-40 -0.00970858 0
-1.80957e-39 -0.00970858 0
1.11955e-39 -0.00970858 0
-1.11814e-39 -0.00970858 0
3.6544e-39 -0.00970858 0
-2.10152e-39 -0.00970858 0
-3.71686e-39 -0.00970858 0
-1.37495e-39 -0.00970858 0
3.85104e-39 -0.00970858 0
4.42104e-40 -0.00970858 0
2.60528e-39 -0.00970858 0
1.25341e-39 -0.00970858 0
2.40257e-39 -0.00970858 0
-1.30957e-39 -0.00970858 0
9.56691e-40 -0.00970858 0
-3.45857e-39 -0.00970858 0
-3.16455e-40 -0.00970858 0
-3.64078e-39 -0.00970858 0
SCALARS radius double 1
LOOKUP_TABLE default
0.000621415
0.000750874
0.000735541
0.000522882
0.000780242
0.00097475
0.000994168
0.000790412
0.000880848
0.000720838
0.000933918
0.000958934
0.000753488
0.00054522
0.000712397
0.000950783
0.000807753
0.000836475
0.000569299
0.000603945
0.000628319
0.000580291
0.000777192
0.000692678
0.00055675
SCALARS mass double 1
LOOKUP_TABLE default
0.00327549
0.00478242
0.00458909
0.0023191
0.00516383
0.00805935
0.00838365
0.00529932
0.00658136
0.00440747
0.00739829
0.00779994
0.00481578
0.00252149
0.00430484
0.0076679
0.0055344
0.00593499
0.00274913
0.00309392
0.00334869
0.00285631
0.00512354
0.00406984
0.00262926
