# vtk DataFile Version 3.0
DEM2D particles
ASCII
DATASET POLYDATA
POINTS 25 double
0.000436733 0.0013103 0
0.00259389 0.00109841 0
0.00503525 0.00188939 0
0.00755229 0.000441374 0
0.00982637 0.000599249 0
0.00134518 0.00347402 0
0.00385393 0.00296267 0
0.00491793 0.00207252 0
0.00662327 0.00370802 0
0.00923308 0.0030221 0
0.000767216 0.00520962 0
0.0037608 0.00410261 0
0.00456249 0.00528832 0
0.00622619 0.00550646 0
0.00871375 0.00475606 0
0.00180174 0.00692152 0
0.00309204 0.00622494 0
0.00554239 0.00666476 0
0.00726094 0.00780717 0
0.00950019 0.00761223 0
0.000727364 0.008796 0
0.00319917 0.00814655 0
0.00427997 0.00921721 0
0.00693412 0.00865652 0
0.00824203 0.00908381 0
VERTICES 25 50
1 0
1 1
1 2
1 3
1 4
1 5
1 6
1 7
1 8
1 9
1 10
1 11
1 12
1 13
1 14
1 15
1 16
1 17
1 18
1 19
1 20
1 21
1 22
1 23
1 24
POINT_DATA 25
VECTORS velocity double
-0.000224234 -0.00955491 0
-0.000161671 -0.00963926 0
1.40348e-05 -0.00932437 0
0.000219863 -0.00990082 0
0.000328974 -0.00983797 0
0.000137417 -0.00948973 0
0.000339946 -0.0096933 0
-3.26703e-05 -0.0100477 0
-0.000149975 -0.00939658 0
9.27872e-05 -0.00966964 0
-9.26704e-05 -0.00959499 0
0.000302872 -0.0100357 0
-0.000174171 -0.00956366 0
-0.000308049 -0.00947682 0
-0.000113954 -0.00977555 0
0.00031917 -0.00970968 0
3.6641e-05 -0.00998699 0
0.000215922 -0.0098119 0
0.000103881 -0.00935711 0
0.000199122 -0.00943471 0
-0.000108535 -0.00975965 0
7.92893e-05 -0.0100182 0
-0.000286642 -0.00959197 0
-2.62274e-05 -0.00981518 0
-0.000301743 -0.00964507 0
SCALARS radius double 1
LOOKUP_TABLE default
0.000621415
0.000750874
0.000735541
0.000522882
0.000780242
0.00097475
0.000994168
0.000790412
0.000880848
0.000720838
0.000933918
0.000958934
0.000753488
0.00054522
0.000712397
0.000950783
0.000807753
0.000836475
0.000569299
0.000603945
0.000628319
0.000580291
0.000777192
0.000692678
0.00055675
SCALARS mass double 1
LOOKUP_TABLE default
0.00327549
0.00478242
0.00458909
0.0023191
0.00516383
0.00805935
0.00838365
0.00529932
0.00658136
0.00440747
0.00739829
0.00779994
0.00481578
0.00252149
0.00430484
0.0076679
0.0055344
0.00593499
0.00274913
0.00309392
0.00334869
0.00285631
0.00512354
0.00406984
0.00262926
