# vtk DataFile Version 3.0
DEM2D particles
ASCII
DATASET POLYDATA
POINTS 25 double
0.00057449 0.00127803 0
0.00269321 0.00111796 0
0.00502663 0.00171549 0
0.00741721 0.00062161 0
0.00962427 0.000740874 0
0.00126076 0.00340171 0
0.00364509 0.00301542 0
0.004938 0.00234297 0
0.00671541 0.00357847 0
0.00917607 0.00306031 0
0.000824147 0.00520197 0
0.00357473 0.0043657 0
0.00466949 0.00526142 0
0.00641544 0.00542621 0
0.00878376 0.00485933 0
0.00160566 0.00698433 0
0.00306953 0.00645811 0
0.00540974 0.00679036 0
0.00719713 0.00765338 0
0.00937786 0.00750611 0
0.000794042 0.0088895 0
0.00315046 0.00839889 0
0.00445606 0.0092077 0
0.00695023 0.00878414 0
0.00842741 0.00910693 0
VERTICES 25 50
1 0
1 1
1 2
1 3
1 4
1 5
1 6
1 7
1 8
1 9
1 10
1 11
1 12
1 13
1 14
1 15
1 16
1 17
1 18
1 19
1 20
1 21
1 22
1 23
1 24
POINT_DATA 25
VECTORS velocity double
-0.139373 0.0858089 0
-0.100487 0.0333795 0
0.0087233 0.229096 0
0.136655 -0.129195 0
0.204473 -0.0901314 0
0.0854112 0.12632 0
0.211293 -0.000206757 0
-0.0203062 -0.220463 0
-0.0932169 0.184218 0
0.0576718 0.0144975 0
-0.0575992 0.0608956 0
0.18825 -0.213018 0
-0.108256 0.0803697 0
-0.191468 0.134345 0
-0.0708281 -0.0513312 0
0.19838 -0.0103891 0
0.0227742 -0.18275 0
0.134206 -0.0739225 0
0.0645671 0.208751 0
0.123764 0.160517 0
-0.0674599 -0.0414491 0
0.0492822 -0.202145 0
-0.178162 0.062774 0
-0.0163016 -0.0759604 0
-0.187548 0.0297672 0
SCALARS radius double 1
LOOKUP_TABLE default
0.000621415
0.000750874
0.000735541
0.000522882
0.000780242
0.00097475
0.000994168
0.000790412
0.000880848
0.000720838
0.000933918
0.000958934
0.000753488
0.00054522
0.000712397
0.000950783
0.000807753
0.000836475
0.000569299
0.000603945
0.000628319
0.000580291
0.000777192
0.000692678
0.00055675
SCALARS mass double 1
LOOKUP_TABLE default
0.00327549
0.00478242
0.00458909
0.0023191
0.00516383
0.00805935
0.00838365
0.00529932
0.00658136
0.00440747
0.00739829
0.00779994
0.00481578
0.00252149
0.00430484
0.0076679
0.0055344
0.00593499
0.00274913
0.00309392
0.00334869
0.00285631
0.00512354
0.00406984
0.00262926
