# vtk DataFile Version 3.0
DEM2D particles
ASCII
DATASET POLYDATA
POINTS 25 double
0.000436511 0.000891043 0
0.00259373 0.000679069 0
0.00503527 0.00147036 0
0.0075525 2.17727e-05 0
0.00982669 0.00017971 0
0.00134532 0.00305483 0
0.00385427 0.00254328 0
0.0049179 0.00165278 0
0.00662312 0.00328891 0
0.00923317 0.00260273 0
0.000767124 0.00479032 0
0.0037611 0.00368288 0
0.00456232 0.00486905 0
0.00622589 0.00508728 0
0.00871364 0.00433658 0
0.00180206 0.00650211 0
0.00309208 0.00580525 0
0.0055426 0.00624524 0
0.00726105 0.0073881 0
0.00950038 0.00719309 0
0.000727257 0.00837653 0
0.00319925 0.00772684 0
0.00427968 0.00879791 0
0.00693409 0.008237 0
0.00824173 0.00866446 0
VERTICES 25 50
1 0
1 1
1 2
1 3
1 4
1 5
1 6
1 7
1 8
1 9
1 10
1 11
1 12
1 13
1 14
1 15
1 16
1 17
1 18
1 19
1 20
1 21
1 22
1 23
1 24
POINT_DATA 25
VECTORS velocity double
-3.12423e-23 -0.00970858 0
-2.25254e-23 -0.00970858 0
1.95545e-24 -0.00970858 0
3.06332e-23 -0.00970858 0
4.58355e-23 -0.00970858 0
1.91461e-23 -0.00970858 0
4.73642e-23 -0.00970858 0
-4.55191e-24 -0.00970858 0
-2.08958e-23 -0.00970858 0
1.29279e-23 -0.00970858 0
-1.29116e-23 -0.00970858 0
4.21988e-23 -0.00970858 0
-2.4267e-23 -0.00970858 0
-4.29201e-23 -0.00970858 0
-1.58771e-23 -0.00970858 0
4.44695e-23 -0.00970858 0
5.10514e-24 -0.00970858 0
3.00842e-23 -0.00970858 0
1.44736e-23 -0.00970858 0
2.77434e-23 -0.00970858 0
-1.51221e-23 -0.00970858 0
1.10473e-23 -0.00970858 0
-3.99375e-23 -0.00970858 0
-3.65423e-24 -0.00970858 0
-4.20415e-23 -0.00970858 0
SCALARS radius double 1
LOOKUP_TABLE default
0.000621415
0.000750874
0.000735541
0.000522882
0.000780242
0.00097475
0.000994168
0.000790412
0.000880848
0.000720838
0.000933918
0.000958934
0.000753488
0.00054522
0.000712397
0.000950783
0.000807753
0.000836475
0.000569299
0.000603945
0.000628319
0.000580291
0.000777192
0.000692678
0.00055675
SCALARS mass double 1
LOOKUP_TABLE default
0.00327549
0.00478242
0.00458909
0.0023191
0.00516383
0.00805935
0.00838365
0.00529932
0.00658136
0.00440747
0.00739829
0.00779994
0.00481578
0.00252149
0.00430484
0.0076679
0.0055344
0.00593499
0.00274913
0.00309392
0.00334869
0.00285631
0.00512354
0.00406984
0.00262926
