# vtk DataFile Version 3.0
DEM2D particles
ASCII
DATASET POLYDATA
POINTS 25 double
0.000512007 0.00131502 0
0.00264816 0.00113145 0
0.00503054 0.00181672 0
0.00747848 0.000562217 0
0.00971593 0.000698994 0
0.00129905 0.00345687 0
0.00373981 0.00301385 0
0.0049289 0.00224266 0
0.00667361 0.00365959 0
0.00920193 0.00306534 0
0.000798325 0.00522779 0
0.00365913 0.00426873 0
0.00462096 0.00529598 0
0.0063296 0.00548497 0
0.00875201 0.00483485 0
0.0016946 0.0069782 0
0.00307974 0.0063747 0
0.0054699 0.00675575 0
0.00722607 0.00774549 0
0.00943334 0.0075766 0
0.000763799 0.00886945 0
0.00317255 0.0083068 0
0.00437619 0.00923437 0
0.00694292 0.00874861 0
0.00834333 0.0091188 0
VERTICES 25 50
1 0
1 1
1 2
1 3
1 4
1 5
1 6
1 7
1 8
1 9
1 10
1 11
1 12
1 13
1 14
1 15
1 16
1 17
1 18
1 19
1 20
1 21
1 22
1 23
1 24
POINT_DATA 25
VECTORS velocity double
-0.0762587 0.0425545 0
-0.0549819 0.0138674 0
0.00477301 0.120955 0
0.074772 -0.0750865 0
0.111879 -0.0537125 0
0.0467333 0.0647202 0
0.11561 -0.0045096 0
-0.0111107 -0.125024 0
-0.0510042 0.0963994 0
0.0315555 0.00353595 0
-0.0315158 0.028923 0
0.103002 -0.12095 0
-0.059233 0.0395783 0
-0.104763 0.0691113 0
-0.0387541 -0.0324827 0
0.108545 -0.0100809 0
0.012461 -0.104389 0
0.0734319 -0.0448437 0
0.0353283 0.109823 0
0.0677183 0.0834316 0
-0.0369112 -0.0270756 0
0.0269651 -0.115001 0
-0.0974826 0.0299507 0
-0.00891954 -0.0459587 0
-0.102618 0.0118909 0
SCALARS radius double 1
LOOKUP_TABLE default
0.000621415
0.000750874
0.000735541
0.000522882
0.000780242
0.00097475
0.000994168
0.000790412
0.000880848
0.000720838
0.000933918
0.000958934
0.000753488
0.00054522
0.000712397
0.000950783
0.000807753
0.000836475
0.000569299
0.000603945
0.000628319
0.000580291
0.000777192
0.000692678
0.00055675
SCALARS mass double 1
LOOKUP_TABLE default
0.00327549
0.00478242
0.00458909
0.0023191
0.00516383
0.00805935
0.00838365
0.00529932
0.00658136
0.00440747
0.00739829
0.00779994
0.00481578
0.00252149
0.00430484
0.0076679
0.0055344
0.00593499
0.00274913
0.00309392
0.00334869
0.00285631
0.00512354
0.00406984
0.00262926
