# vtk DataFile Version 3.0
DEM2D particles
ASCII
DATASET POLYDATA
POINTS 25 double
0.000688685 0.00120559 0
0.00277554 0.00108848 0
0.00501949 0.00152565 0
0.00730525 0.000725337 0
0.00945673 0.000812594 0
0.00119078 0.00329608 0
0.00347196 0.00301346 0
0.00495464 0.00252147 0
0.00679178 0.0034254 0
0.00912882 0.0030463 0
0.000871342 0.00514994 0
0.00342049 0.0045381 0
0.00475819 0.00519344 0
0.00657232 0.005314 0
0.00884179 0.00489926 0
0.00144312 0.00699071 0
0.00305087 0.00660571 0
0.00529977 0.0068488 0
0.00714422 0.0074802 0
0.00927645 0.00737246 0
0.000849316 0.00892133 0
0.00311008 0.00856239 0
0.00460204 0.00915414 0
0.00696359 0.00884425 0
0.00858108 0.00908041 0
VERTICES 25 50
1 0
1 1
1 2
1 3
1 4
1 5
1 6
1 7
1 8
1 9
1 10
1 11
1 12
1 13
1 14
1 15
1 16
1 17
1 18
1 19
1 20
1 21
1 22
1 23
1 24
POINT_DATA 25
VECTORS velocity double
-0.254722 0.164862 0
-0.183652 0.0690406 0
0.015943 0.426738 0
0.249756 -0.228086 0
0.373702 -0.156692 0
0.1561 0.238901 0
0.386166 0.00765724 0
-0.0371122 -0.394889 0
-0.170366 0.344717 0
0.105403 0.0345312 0
-0.10527 0.11933 0
0.344052 -0.381282 0
-0.197852 0.154921 0
-0.349932 0.253568 0
-0.129448 -0.0857794 0
0.362565 -0.0109523 0
0.0416228 -0.325964 0
0.24528 -0.127068 0
0.118005 0.389556 0
0.226195 0.301401 0
-0.123292 -0.0677185 0
0.0900697 -0.361411 0
-0.325615 0.122763 0
-0.0297933 -0.130792 0
-0.342769 0.0624386 0
SCALARS radius double 1
LOOKUP_TABLE default
0.000621415
0.000750874
0.000735541
0.000522882
0.000780242
0.00097475
0.000994168
0.000790412
0.000880848
0.000720838
0.000933918
0.000958934
0.000753488
0.00054522
0.000712397
0.000950783
0.000807753
0.000836475
0.000569299
0.000603945
0.000628319
0.000580291
0.000777192
0.000692678
0.00055675
SCALARS mass double 1
LOOKUP_TABLE default
0.00327549
0.00478242
0.00458909
0.0023191
0.00516383
0.00805935
0.00838365
0.00529932
0.00658136
0.00440747
0.00739829
0.00779994
0.00481578
0.00252149
0.00430484
0.0076679
0.0055344
0.00593499
0.00274913
0.00309392
0.00334869
0.00285631
0.00512354
0.00406984
0.00262926
