# vtk DataFile Version 3.0
DEM2D particles
ASCII
DATASET POLYDATA
POINTS 25 double
0.000436511 -0.000553594 0
0.00259373 -0.000765568 0
0.00503527 2.57225e-05 0
0.0075525 -0.00142286 0
0.00982669 -0.00126493 0
0.00134532 0.00161019 0
0.00385427 0.00109864 0
0.0049179 0.000208138 0
0.00662312 0.00184428 0
0.00923317 0.00115809 0
0.000767124 0.00334568 0
0.0037611 0.00223824 0
0.00456232 0.00342441 0
0.00622589 0.00364264 0
0.00871364 0.00289194 0
0.00180206 0.00505747 0
0.00309208 0.00436061 0
0.0055426 0.00480061 0
0.00726105 0.00594347 0
0.00950038 0.00574845 0
0.000727257 0.0069319 0
0.00319925 0.0062822 0
0.00427968 0.00735327 0
0.00693409 0.00679237 0
0.00824173 0.00721983 0
VERTICES 25 50
1 0
1 1
1 2
1 3
1 4
1 5
1 6
1 7
1 8
1 9
1 10
1 11
1 12
1 13
1 14
1 15
1 16
1 17
1 18
1 19
1 20
1 21
1 22
1 23
1 24
POINT_DATA 25
VECTORS velocity double
-3.51915e-88 -0.00970858 0
-2.53728e-88 -0.00970858 0
2.20263e-89 -0.00970858 0
3.45055e-88 -0.00970858 0
5.16295e-88 -0.00970858 0
2.15663e-88 -0.00970858 0
5.33514e-88 -0.00970858 0
-5.12731e-89 -0.00970858 0
-2.35372e-88 -0.00970858 0
1.45621e-88 -0.00970858 0
-1.45438e-88 -0.00970858 0
4.75331e-88 -0.00970858 0
-2.73346e-88 -0.00970858 0
-4.83455e-88 -0.00970858 0
-1.78841e-88 -0.00970858 0
5.00908e-88 -0.00970858 0
5.75047e-89 -0.00970858 0
3.38871e-88 -0.00970858 0
1.63032e-88 -0.00970858 0
3.12504e-88 -0.00970858 0
-1.70336e-88 -0.00970858 0
1.24437e-88 -0.00970858 0
-4.49859e-88 -0.00970858 0
-4.11615e-89 -0.00970858 0
-4.73559e-88 -0.00970858 0
SCALARS radius double 1
LOOKUP_TABLE default
0.000621415
0.000750874
0.000735541
0.000522882
0.000780242
0.00097475
0.000994168
0.000790412
0.000880848
0.000720838
0.000933918
0.000958934
0.000753488
0.00054522
0.000712397
0.000950783
0.000807753
0.000836475
0.000569299
0.000603945
0.000628319
0.000580291
0.000777192
0.000692678
0.00055675
SCALARS mass double 1
LOOKUP_TABLE default
0.00327549
0.00478242
0.00458909
0.0023191
0.00516383
0.00805935
0.00838365
0.00529932
0.00658136
0.00440747
0.00739829
0.00779994
0.00481578
0.00252149
0.00430484
0.0076679
0.0055344
0.00593499
0.00274913
0.00309392
0.00334869
0.00285631
0.00512354
0.00406984
0.00262926
