# vtk DataFile Version 3.0
DEM2D particles
ASCII
DATASET POLYDATA
POINTS 25 double
0.000436511 0.000970654 0
0.00259373 0.00075868 0
0.00503527 0.00154997 0
0.0075525 0.000101383 0
0.00982669 0.00025932 0
0.00134532 0.00313444 0
0.00385427 0.00262289 0
0.0049179 0.00173239 0
0.00662312 0.00336852 0
0.00923317 0.00268234 0
0.000767124 0.00486993 0
0.0037611 0.00376249 0
0.00456232 0.00494866 0
0.00622589 0.00516689 0
0.00871364 0.00441619 0
0.00180206 0.00658172 0
0.00309208 0.00588486 0
0.0055426 0.00632485 0
0.00726105 0.00746772 0
0.00950038 0.0072727 0
0.000727257 0.00845614 0
0.00319925 0.00780645 0
0.00427968 0.00887752 0
0.00693409 0.00831661 0
0.00824173 0.00874407 0
VERTICES 25 50
1 0
1 1
1 2
1 3
1 4
1 5
1 6
1 7
1 8
1 9
1 10
1 11
1 12
1 13
1 14
1 15
1 16
1 17
1 18
1 19
1 20
1 21
1 22
1 23
1 24
POINT_DATA 25
VECTORS velocity double
-1.18545e-19 -0.00970858 0
-8.547e-20 -0.00970858 0
7.4197e-21 -0.00970858 0
1.16234e-19 -0.00970858 0
1.73917e-19 -0.00970858 0
7.26475e-20 -0.00970858 0
1.79718e-19 -0.00970858 0
-1.72717e-20 -0.00970858 0
-7.92867e-20 -0.00970858 0
4.90534e-20 -0.00970858 0
-4.89916e-20 -0.00970858 0
1.60118e-19 -0.00970858 0
-9.20783e-20 -0.00970858 0
-1.62855e-19 -0.00970858 0
-6.02437e-20 -0.00970858 0
1.68734e-19 -0.00970858 0
1.93708e-20 -0.00970858 0
1.14151e-19 -0.00970858 0
5.49183e-20 -0.00970858 0
1.05269e-19 -0.00970858 0
-5.73788e-20 -0.00970858 0
4.19175e-20 -0.00970858 0
-1.51538e-19 -0.00970858 0
-1.38655e-20 -0.00970858 0
-1.59521e-19 -0.00970858 0
SCALARS radius double 1
LOOKUP_TABLE default
0.000621415
0.000750874
0.000735541
0.000522882
0.000780242
0.00097475
0.000994168
0.000790412
0.000880848
0.000720838
0.000933918
0.000958934
0.000753488
0.00054522
0.000712397
0.000950783
0.000807753
0.000836475
0.000569299
0.000603945
0.000628319
0.000580291
0.000777192
0.000692678
0.00055675
SCALARS mass double 1
LOOKUP_TABLE default
0.00327549
0.00478242
0.00458909
0.0023191
0.00516383
0.00805935
0.00838365
0.00529932
0.00658136
0.00440747
0.00739829
0.00779994
0.00481578
0.00252149
0.00430484
0.0076679
0.0055344
0.00593499
0.00274913
0.00309392
0.00334869
0.00285631
0.00512354
0.00406984
0.00262926
