# vtk DataFile Version 3.0
DEM2D particles
ASCII
DATASET POLYDATA
POINTS 25 double
0.000436511 -0.000188551 0
0.00259373 -0.000400525 0
0.00503527 0.000390765 0
0.0075525 -0.00105782 0
0.00982669 -0.000899885 0
0.00134532 0.00197524 0
0.00385427 0.00146368 0
0.0049179 0.000573181 0
0.00662312 0.00220932 0
0.00923317 0.00152313 0
0.000767124 0.00371072 0
0.0037611 0.00260328 0
0.00456232 0.00378946 0
0.00622589 0.00400768 0
0.00871364 0.00325699 0
0.00180206 0.00542252 0
0.00309208 0.00472565 0
0.0055426 0.00516565 0
0.00726105 0.00630851 0
0.00950038 0.0061135 0
0.000727257 0.00729694 0
0.00319925 0.00664724 0
0.00427968 0.00771832 0
0.00693409 0.00715741 0
0.00824173 0.00758487 0
VERTICES 25 50
1 0
1 1
1 2
1 3
1 4
1 5
1 6
1 7
1 8
1 9
1 10
1 11
1 12
1 13
1 14
1 15
1 16
1 17
1 18
1 19
1 20
1 21
1 22
1 23
1 24
POINT_DATA 25
VECTORS velocity double
-9.08043e-72 -0.00970858 0
-6.54692e-72 -0.00970858 0
5.68342e-73 -0.00970858 0
8.90341e-72 -0.00970858 0
1.33219e-71 -0.00970858 0
5.56473e-72 -0.00970858 0
1.37662e-71 -0.00970858 0
-1.32299e-72 -0.00970858 0
-6.07328e-72 -0.00970858 0
3.75745e-72 -0.00970858 0
-3.75271e-72 -0.00970858 0
1.22649e-71 -0.00970858 0
-7.05311e-72 -0.00970858 0
-1.24745e-71 -0.00970858 0
-4.61461e-72 -0.00970858 0
1.29249e-71 -0.00970858 0
1.48379e-72 -0.00970858 0
8.74384e-72 -0.00970858 0
4.20669e-72 -0.00970858 0
8.0635e-72 -0.00970858 0
-4.39516e-72 -0.00970858 0
3.21085e-72 -0.00970858 0
-1.16077e-71 -0.00970858 0
-1.06209e-72 -0.00970858 0
-1.22192e-71 -0.00970858 0
SCALARS radius double 1
LOOKUP_TABLE default
0.000621415
0.000750874
0.000735541
0.000522882
0.000780242
0.00097475
0.000994168
0.000790412
0.000880848
0.000720838
0.000933918
0.000958934
0.000753488
0.00054522
0.000712397
0.000950783
0.000807753
0.000836475
0.000569299
0.000603945
0.000628319
0.000580291
0.000777192
0.000692678
0.00055675
SCALARS mass double 1
LOOKUP_TABLE default
0.00327549
0.00478242
0.00458909
0.0023191
0.00516383
0.00805935
0.00838365
0.00529932
0.00658136
0.00440747
0.00739829
0.00779994
0.00481578
0.00252149
0.00430484
0.0076679
0.0055344
0.00593499
0.00274913
0.00309392
0.00334869
0.00285631
0.00512354
0.00406984
0.00262926
