# vtk DataFile Version 3.0
DEM2D particles
ASCII
DATASET POLYDATA
POINTS 25 double
0.000436511 0.000436682 0
0.00259373 0.000224707 0
0.00503527 0.001016 0
0.0075525 -0.000432589 0
0.00982669 -0.000274652 0
0.00134532 0.00260047 0
0.00385427 0.00208892 0
0.0049179 0.00119841 0
0.00662312 0.00283455 0
0.00923317 0.00214837 0
0.000767124 0.00433596 0
0.0037611 0.00322851 0
0.00456232 0.00441469 0
0.00622589 0.00463291 0
0.00871364 0.00388222 0
0.00180206 0.00604775 0
0.00309208 0.00535089 0
0.0055426 0.00579088 0
0.00726105 0.00693374 0
0.00950038 0.00673873 0
0.000727257 0.00792217 0
0.00319925 0.00727247 0
0.00427968 0.00834355 0
0.00693409 0.00778264 0
0.00824173 0.0082101 0
VERTICES 25 50
1 0
1 1
1 2
1 3
1 4
1 5
1 6
1 7
1 8
1 9
1 10
1 11
1 12
1 13
1 14
1 15
1 16
1 17
1 18
1 19
1 20
1 21
1 22
1 23
1 24
POINT_DATA 25
VECTORS velocity double
-1.16803e-43 -0.00970858 0
-8.4214e-44 -0.00970858 0
7.31067e-45 -0.00970858 0
1.14526e-43 -0.00970858 0
1.71361e-43 -0.00970858 0
7.15799e-44 -0.00970858 0
1.77077e-43 -0.00970858 0
-1.70179e-44 -0.00970858 0
-7.81215e-44 -0.00970858 0
4.83325e-44 -0.00970858 0
-4.82717e-44 -0.00970858 0
1.57765e-43 -0.00970858 0
-9.07251e-44 -0.00970858 0
-1.60462e-43 -0.00970858 0
-5.93583e-44 -0.00970858 0
1.66254e-43 -0.00970858 0
1.90862e-44 -0.00970858 0
1.12473e-43 -0.00970858 0
5.41112e-44 -0.00970858 0
1.03722e-43 -0.00970858 0
-5.65356e-44 -0.00970858 0
4.13015e-44 -0.00970858 0
-1.49311e-43 -0.00970858 0
-1.36618e-44 -0.00970858 0
-1.57177e-43 -0.00970858 0
SCALARS radius double 1
LOOKUP_TABLE default
0.000621415
0.000750874
0.000735541
0.000522882
0.000780242
0.00097475
0.000994168
0.000790412
0.000880848
0.000720838
0.000933918
0.000958934
0.000753488
0.00054522
0.000712397
0.000950783
0.000807753
0.000836475
0.000569299
0.000603945
0.000628319
0.000580291
0.000777192
0.000692678
0.00055675
SCALARS mass double 1
LOOKUP_TABLE default
0.00327549
0.00478242
0.00458909
0.0023191
0.00516383
0.00805935
0.00838365
0.00529932
0.00658136
0.00440747
0.00739829
0.00779994
0.00481578
0.00252149
0.00430484
0.0076679
0.0055344
0.00593499
0.00274913
0.00309392
0.00334869
0.00285631
0.00512354
0.00406984
0.00262926
