# vtk DataFile Version 3.0
DEM2D particles
ASCII
DATASET POLYDATA
POINTS 25 double
0.000436511 -0.000444858 0
0.00259373 -0.000656832 0
0.00503527 0.000134459 0
0.0075525 -0.00131413 0
0.00982669 -0.00115619 0
0.00134532 0.00171893 0
0.00385427 0.00120738 0
0.0049179 0.000316874 0
0.00662312 0.00195301 0
0.00923317 0.00126683 0
0.000767124 0.00345442 0
0.0037611 0.00234698 0
0.00456232 0.00353315 0
0.00622589 0.00375138 0
0.00871364 0.00300068 0
0.00180206 0.00516621 0
0.00309208 0.00446935 0
0.0055426 0.00490934 0
0.00726105 0.0060522 0
0.00950038 0.00585719 0
0.000727257 0.00704063 0
0.00319925 0.00639093 0
0.00427968 0.00746201 0
0.00693409 0.0069011 0
0.00824173 0.00732856 0
VERTICES 25 50
1 0
1 1
1 2
1 3
1 4
1 5
1 6
1 7
1 8
1 9
1 10
1 11
1 12
1 13
1 14
1 15
1 16
1 17
1 18
1 19
1 20
1 21
1 22
1 23
1 24
POINT_DATA 25
VECTORS velocity double
-2.72283e-83 -0.00970858 0
-1.96314e-83 -0.00970858 0
1.70421e-84 -0.00970858 0
2.66975e-83 -0.00970858 0
3.99466e-83 -0.00970858 0
1.66862e-83 -0.00970858 0
4.12789e-83 -0.00970858 0
-3.96709e-84 -0.00970858 0
-1.82111e-83 -0.00970858 0
1.1267e-83 -0.00970858 0
-1.12528e-83 -0.00970858 0
3.67772e-83 -0.00970858 0
-2.11492e-83 -0.00970858 0
-3.74057e-83 -0.00970858 0
-1.38372e-83 -0.00970858 0
3.87561e-83 -0.00970858 0
4.44924e-84 -0.00970858 0
2.6219e-83 -0.00970858 0
1.2614e-83 -0.00970858 0
2.41789e-83 -0.00970858 0
-1.31792e-83 -0.00970858 0
9.62793e-84 -0.00970858 0
-3.48063e-83 -0.00970858 0
-3.18474e-84 -0.00970858 0
-3.664e-83 -0.00970858 0
SCALARS radius double 1
LOOKUP_TABLE default
0.000621415
0.000750874
0.000735541
0.000522882
0.000780242
0.00097475
0.000994168
0.000790412
0.000880848
0.000720838
0.000933918
0.000958934
0.000753488
0.00054522
0.000712397
0.000950783
0.000807753
0.000836475
0.000569299
0.000603945
0.000628319
0.000580291
0.000777192
0.000692678
0.00055675
SCALARS mass double 1
LOOKUP_TABLE default
0.00327549
0.00478242
0.00458909
0.0023191
0.00516383
0.00805935
0.00838365
0.00529932
0.00658136
0.00440747
0.00739829
0.00779994
0.00481578
0.00252149
0.00430484
0.0076679
0.0055344
0.00593499
0.00274913
0.00309392
0.00334869
0.00285631
0.00512354
0.00406984
0.00262926
