# vtk DataFile Version 3.0
DEM2D particles
ASCII
DATASET POLYDATA
POINTS 25 double
0.000436512 0.00125803 0
0.00259373 0.00104605 0
0.00503527 0.00183734 0
0.0075525 0.000388758 0
0.00982669 0.000546695 0
0.00134532 0.00342181 0
0.00385426 0.00291026 0
0.0049179 0.00201976 0
0.00662312 0.0036559 0
0.00923317 0.00296971 0
0.000767125 0.0051573 0
0.0037611 0.00404986 0
0.00456232 0.00523604 0
0.00622589 0.00545426 0
0.00871364 0.00470357 0
0.00180206 0.0068691 0
0.00309208 0.00617223 0
0.0055426 0.00661223 0
0.00726105 0.00775509 0
0.00950038 0.00756007 0
0.000727257 0.00874352 0
0.00319925 0.00809382 0
0.00427968 0.0091649 0
0.00693409 0.00860399 0
0.00824174 0.00903145 0
VERTICES 25 50
1 0
1 1
1 2
1 3
1 4
1 5
1 6
1 7
1 8
1 9
1 10
1 11
1 12
1 13
1 14
1 15
1 16
1 17
1 18
1 19
1 20
1 21
1 22
1 23
1 24
POINT_DATA 25
VECTORS velocity double
-9.85615e-07 -0.00970791 0
-7.10621e-07 -0.00970828 0
6.16894e-08 -0.00970689 0
9.66399e-07 -0.00970943 0
1.44599e-06 -0.00970915 0
6.04011e-07 -0.00970762 0
1.49422e-06 -0.00970852 0
-1.43601e-07 -0.00971007 0
-6.5921e-07 -0.00970721 0
4.07843e-07 -0.00970841 0
-4.0733e-07 -0.00970808 0
1.33127e-06 -0.00971002 0
-7.65564e-07 -0.00970795 0
-1.35402e-06 -0.00970756 0
-5.00882e-07 -0.00970888 0
1.4029e-06 -0.00970859 0
1.61054e-07 -0.00970981 0
9.4908e-07 -0.00970904 0
4.56605e-07 -0.00970704 0
8.75234e-07 -0.00970738 0
-4.77063e-07 -0.00970881 0
3.48514e-07 -0.00970994 0
-1.25993e-06 -0.00970807 0
-1.15282e-07 -0.00970905 0
-1.3263e-06 -0.0097083 0
SCALARS radius double 1
LOOKUP_TABLE default
0.000621415
0.000750874
0.000735541
0.000522882
0.000780242
0.00097475
0.000994168
0.000790412
0.000880848
0.000720838
0.000933918
0.000958934
0.000753488
0.00054522
0.000712397
0.000950783
0.000807753
0.000836475
0.000569299
0.000603945
0.000628319
0.000580291
0.000777192
0.000692678
0.00055675
SCALARS mass double 1
LOOKUP_TABLE default
0.00327549
0.00478242
0.00458909
0.0023191
0.00516383
0.00805935
0.00838365
0.00529932
0.00658136
0.00440747
0.00739829
0.00779994
0.00481578
0.00252149
0.00430484
0.0076679
0.0055344
0.00593499
0.00274913
0.00309392
0.00334869
0.00285631
0.00512354
0.00406984
0.00262926
