# vtk DataFile Version 3.0
DEM2D particles
ASCII
DATASET POLYDATA
POINTS 25 double
0.000436513 0.00126385 0
0.00259373 0.00105188 0
0.00503527 0.00184317 0
0.0075525 0.000394584 0
0.00982669 0.00055252 0
0.00134532 0.00342764 0
0.00385426 0.00291609 0
0.0049179 0.00202559 0
0.00662312 0.00366172 0
0.00923317 0.00297554 0
0.000767125 0.00516313 0
0.0037611 0.00405569 0
0.00456232 0.00524186 0
0.00622589 0.00546008 0
0.00871364 0.00470939 0
0.00180205 0.00687492 0
0.00309208 0.00617806 0
0.0055426 0.00661805 0
0.00726105 0.00776091 0
0.00950038 0.0075659 0
0.000727258 0.00874934 0
0.00319925 0.00809965 0
0.00427969 0.00917072 0
0.00693409 0.00860981 0
0.00824174 0.00903727 0
VERTICES 25 50
1 0
1 1
1 2
1 3
1 4
1 5
1 6
1 7
1 8
1 9
1 10
1 11
1 12
1 13
1 14
1 15
1 16
1 17
1 18
1 19
1 20
1 21
1 22
1 23
1 24
POINT_DATA 25
VECTORS velocity double
-1.80134e-06 -0.00970735 0
-1.29875e-06 -0.00970803 0
1.12745e-07 -0.0097055 0
1.76622e-06 -0.00971013 0
2.64274e-06 -0.00970962 0
1.10391e-06 -0.00970683 0
2.73088e-06 -0.00970846 0
-2.6245e-07 -0.00971131 0
-1.20479e-06 -0.00970608 0
7.45386e-07 -0.00970827 0
-7.44448e-07 -0.00970767 0
2.43306e-06 -0.00971121 0
-1.39917e-06 -0.00970742 0
-2.47465e-06 -0.00970672 0
-9.15427e-07 -0.00970912 0
2.56398e-06 -0.00970859 0
2.94348e-07 -0.00971082 0
1.73457e-06 -0.00970941 0
8.34506e-07 -0.00970576 0
1.5996e-06 -0.00970638 0
-8.71894e-07 -0.00970899 0
6.36954e-07 -0.00971107 0
-2.30268e-06 -0.00970765 0
-2.10692e-07 -0.00970944 0
-2.42399e-06 -0.00970807 0
SCALARS radius double 1
LOOKUP_TABLE default
0.000621415
0.000750874
0.000735541
0.000522882
0.000780242
0.00097475
0.000994168
0.000790412
0.000880848
0.000720838
0.000933918
0.000958934
0.000753488
0.00054522
0.000712397
0.000950783
0.000807753
0.000836475
0.000569299
0.000603945
0.000628319
0.000580291
0.000777192
0.000692678
0.00055675
SCALARS mass double 1
LOOKUP_TABLE default
0.00327549
0.00478242
0.00458909
0.0023191
0.00516383
0.00805935
0.00838365
0.00529932
0.00658136
0.00440747
0.00739829
0.00779994
0.00481578
0.00252149
0.00430484
0.0076679
0.0055344
0.00593499
0.00274913
0.00309392
0.00334869
0.00285631
0.00512354
0.00406984
0.00262926
