# vtk DataFile Version 3.0
DEM2D particles
ASCII
DATASET POLYDATA
POINTS 25 double
0.000436511 0.000753181 0
0.00259373 0.000541207 0
0.00503527 0.0013325 0
0.0075525 -0.000116089 0
0.00982669 4.18478e-05 0
0.00134532 0.00291697 0
0.00385427 0.00240542 0
0.0049179 0.00151491 0
0.00662312 0.00315105 0
0.00923317 0.00246487 0
0.000767124 0.00465246 0
0.0037611 0.00354501 0
0.00456232 0.00473119 0
0.00622589 0.00494941 0
0.00871364 0.00419872 0
0.00180206 0.00636425 0
0.00309208 0.00566739 0
0.0055426 0.00610738 0
0.00726105 0.00725024 0
0.00950038 0.00705523 0
0.000727257 0.00823867 0
0.00319925 0.00758897 0
0.00427968 0.00866005 0
0.00693409 0.00809914 0
0.00824173 0.0085266 0
VERTICES 25 50
1 0
1 1
1 2
1 3
1 4
1 5
1 6
1 7
1 8
1 9
1 10
1 11
1 12
1 13
1 14
1 15
1 16
1 17
1 18
1 19
1 20
1 21
1 22
1 23
1 24
POINT_DATA 25
VECTORS velocity double
-1.98025e-29 -0.00970858 0
-1.42774e-29 -0.00970858 0
1.23943e-30 -0.00970858 0
1.94164e-29 -0.00970858 0
2.90522e-29 -0.00970858 0
1.21355e-29 -0.00970858 0
3.00211e-29 -0.00970858 0
-2.88516e-30 -0.00970858 0
-1.32445e-29 -0.00970858 0
8.19417e-30 -0.00970858 0
-8.18385e-30 -0.00970858 0
2.67471e-29 -0.00970858 0
-1.53813e-29 -0.00970858 0
-2.72042e-29 -0.00970858 0
-1.00635e-29 -0.00970858 0
2.81863e-29 -0.00970858 0
3.23582e-30 -0.00970858 0
1.90684e-29 -0.00970858 0
9.17388e-30 -0.00970858 0
1.75847e-29 -0.00970858 0
-9.5849e-30 -0.00970858 0
7.00216e-30 -0.00970858 0
-2.53138e-29 -0.00970858 0
-2.31618e-30 -0.00970858 0
-2.66474e-29 -0.00970858 0
SCALARS radius double 1
LOOKUP_TABLE default
0.000621415
0.000750874
0.000735541
0.000522882
0.000780242
0.00097475
0.000994168
0.000790412
0.000880848
0.000720838
0.000933918
0.000958934
0.000753488
0.00054522
0.000712397
0.000950783
0.000807753
0.000836475
0.000569299
0.000603945
0.000628319
0.000580291
0.000777192
0.000692678
0.00055675
SCALARS mass double 1
LOOKUP_TABLE default
0.00327549
0.00478242
0.00458909
0.0023191
0.00516383
0.00805935
0.00838365
0.00529932
0.00658136
0.00440747
0.00739829
0.00779994
0.00481578
0.00252149
0.00430484
0.0076679
0.0055344
0.00593499
0.00274913
0.00309392
0.00334869
0.00285631
0.00512354
0.00406984
0.00262926
