# vtk DataFile Version 3.0
DEM2D particles
ASCII
DATASET POLYDATA
POINTS 25 double
0.000436511 0.000815316 0
0.00259373 0.000603342 0
0.00503527 0.00139463 0
0.0075525 -5.39543e-05 0
0.00982669 0.000103983 0
0.00134532 0.0029791 0
0.00385427 0.00246755 0
0.0049179 0.00157705 0
0.00662312 0.00321319 0
0.00923317 0.002527 0
0.000767124 0.00471459 0
0.0037611 0.00360715 0
0.00456232 0.00479333 0
0.00622589 0.00501155 0
0.00871364 0.00426085 0
0.00180206 0.00642638 0
0.00309208 0.00572952 0
0.0055426 0.00616952 0
0.00726105 0.00731238 0
0.00950038 0.00711736 0
0.000727257 0.00830081 0
0.00319925 0.00765111 0
0.00427968 0.00872219 0
0.00693409 0.00816128 0
0.00824173 0.00858874 0
VERTICES 25 50
1 0
1 1
1 2
1 3
1 4
1 5
1 6
1 7
1 8
1 9
1 10
1 11
1 12
1 13
1 14
1 15
1 16
1 17
1 18
1 19
1 20
1 21
1 22
1 23
1 24
POINT_DATA 25
VECTORS velocity double
-1.23082e-26 -0.00970858 0
-8.87412e-27 -0.00970858 0
7.70368e-28 -0.00970858 0
1.20682e-26 -0.00970858 0
1.80574e-26 -0.00970858 0
7.54279e-27 -0.00970858 0
1.86596e-26 -0.00970858 0
-1.79327e-27 -0.00970858 0
-8.23211e-27 -0.00970858 0
5.09308e-27 -0.00970858 0
-5.08667e-27 -0.00970858 0
1.66246e-26 -0.00970858 0
-9.56024e-27 -0.00970858 0
-1.69088e-26 -0.00970858 0
-6.25493e-27 -0.00970858 0
1.75192e-26 -0.00970858 0
2.01122e-27 -0.00970858 0
1.1852e-26 -0.00970858 0
5.70201e-27 -0.00970858 0
1.09298e-26 -0.00970858 0
-5.95749e-27 -0.00970858 0
4.35218e-27 -0.00970858 0
-1.57338e-26 -0.00970858 0
-1.43962e-27 -0.00970858 0
-1.65627e-26 -0.00970858 0
SCALARS radius double 1
LOOKUP_TABLE default
0.000621415
0.000750874
0.000735541
0.000522882
0.000780242
0.00097475
0.000994168
0.000790412
0.000880848
0.000720838
0.000933918
0.000958934
0.000753488
0.00054522
0.000712397
0.000950783
0.000807753
0.000836475
0.000569299
0.000603945
0.000628319
0.000580291
0.000777192
0.000692678
0.00055675
SCALARS mass double 1
LOOKUP_TABLE default
0.00327549
0.00478242
0.00458909
0.0023191
0.00516383
0.00805935
0.00838365
0.00529932
0.00658136
0.00440747
0.00739829
0.00779994
0.00481578
0.00252149
0.00430484
0.0076679
0.0055344
0.00593499
0.00274913
0.00309392
0.00334869
0.00285631
0.00512354
0.00406984
0.00262926
