# vtk DataFile Version 3.0
DEM2D particles
ASCII
DATASET POLYDATA
POINTS 25 double
0.000436511 0.000782307 0
0.00259373 0.000570333 0
0.00503527 0.00136162 0
0.0075525 -8.69635e-05 0
0.00982669 7.09736e-05 0
0.00134532 0.00294609 0
0.00385427 0.00243454 0
0.0049179 0.00154404 0
0.00662312 0.00318018 0
0.00923317 0.00249399 0
0.000767124 0.00468158 0
0.0037611 0.00357414 0
0.00456232 0.00476032 0
0.00622589 0.00497854 0
0.00871364 0.00422784 0
0.00180206 0.00639337 0
0.00309208 0.00569651 0
0.0055426 0.00613651 0
0.00726105 0.00727937 0
0.00950038 0.00708436 0
0.000727257 0.0082678 0
0.00319925 0.0076181 0
0.00427968 0.00868918 0
0.00693409 0.00812827 0
0.00824173 0.00855573 0
VERTICES 25 50
1 0
1 1
1 2
1 3
1 4
1 5
1 6
1 7
1 8
1 9
1 10
1 11
1 12
1 13
1 14
1 15
1 16
1 17
1 18
1 19
1 20
1 21
1 22
1 23
1 24
POINT_DATA 25
VECTORS velocity double
-4.03795e-28 -0.00970858 0
-2.91133e-28 -0.00970858 0
2.52734e-29 -0.00970858 0
3.95923e-28 -0.00970858 0
5.92407e-28 -0.00970858 0
2.47456e-28 -0.00970858 0
6.12165e-28 -0.00970858 0
-5.88318e-29 -0.00970858 0
-2.70071e-28 -0.00970858 0
1.67089e-28 -0.00970858 0
-1.66878e-28 -0.00970858 0
5.45404e-28 -0.00970858 0
-3.13642e-28 -0.00970858 0
-5.54726e-28 -0.00970858 0
-2.05205e-28 -0.00970858 0
5.74752e-28 -0.00970858 0
6.59821e-29 -0.00970858 0
3.88827e-28 -0.00970858 0
1.87066e-28 -0.00970858 0
3.58573e-28 -0.00970858 0
-1.95447e-28 -0.00970858 0
1.42782e-28 -0.00970858 0
-5.16177e-28 -0.00970858 0
-4.72296e-29 -0.00970858 0
-5.43371e-28 -0.00970858 0
SCALARS radius double 1
LOOKUP_TABLE default
0.000621415
0.000750874
0.000735541
0.000522882
0.000780242
0.00097475
0.000994168
0.000790412
0.000880848
0.000720838
0.000933918
0.000958934
0.000753488
0.00054522
0.000712397
0.000950783
0.000807753
0.000836475
0.000569299
0.000603945
0.000628319
0.000580291
0.000777192
0.000692678
0.00055675
SCALARS mass double 1
LOOKUP_TABLE default
0.00327549
0.00478242
0.00458909
0.0023191
0.00516383
0.00805935
0.00838365
0.00529932
0.00658136
0.00440747
0.00739829
0.00779994
0.00481578
0.00252149
0.00430484
0.0076679
0.0055344
0.00593499
0.00274913
0.00309392
0.00334869
0.00285631
0.00512354
0.00406984
0.00262926
