# vtk DataFile Version 3.0
DEM2D particles
ASCII
DATASET POLYDATA
POINTS 25 double
0.000436511 0.00077454 0
0.00259373 0.000562566 0
0.00503527 0.00135386 0
0.0075525 -9.47303e-05 0
0.00982669 6.32067e-05 0
0.00134532 0.00293833 0
0.00385427 0.00242678 0
0.0049179 0.00153627 0
0.00662312 0.00317241 0
0.00923317 0.00248623 0
0.000767124 0.00467381 0
0.0037611 0.00356637 0
0.00456232 0.00475255 0
0.00622589 0.00497077 0
0.00871364 0.00422008 0
0.00180206 0.00638561 0
0.00309208 0.00568875 0
0.0055426 0.00612874 0
0.00726105 0.0072716 0
0.00950038 0.00707659 0
0.000727257 0.00826003 0
0.00319925 0.00761033 0
0.00427968 0.00868141 0
0.00693409 0.0081205 0
0.00824173 0.00854796 0
VERTICES 25 50
1 0
1 1
1 2
1 3
1 4
1 5
1 6
1 7
1 8
1 9
1 10
1 11
1 12
1 13
1 14
1 15
1 16
1 17
1 18
1 19
1 20
1 21
1 22
1 23
1 24
POINT_DATA 25
VECTORS velocity double
-1.80708e-28 -0.00970858 0
-1.30289e-28 -0.00970858 0
1.13104e-29 -0.00970858 0
1.77185e-28 -0.00970858 0
2.65116e-28 -0.00970858 0
1.10742e-28 -0.00970858 0
2.73958e-28 -0.00970858 0
-2.63286e-29 -0.00970858 0
-1.20863e-28 -0.00970858 0
7.4776e-29 -0.00970858 0
-7.46818e-29 -0.00970858 0
2.44081e-28 -0.00970858 0
-1.40362e-28 -0.00970858 0
-2.48253e-28 -0.00970858 0
-9.18342e-29 -0.00970858 0
2.57215e-28 -0.00970858 0
2.95285e-29 -0.00970858 0
1.74009e-28 -0.00970858 0
8.37163e-29 -0.00970858 0
1.6047e-28 -0.00970858 0
-8.74671e-29 -0.00970858 0
6.38983e-29 -0.00970858 0
-2.31001e-28 -0.00970858 0
-2.11363e-29 -0.00970858 0
-2.43171e-28 -0.00970858 0
SCALARS radius double 1
LOOKUP_TABLE default
0.000621415
0.000750874
0.000735541
0.000522882
0.000780242
0.00097475
0.000994168
0.000790412
0.000880848
0.000720838
0.000933918
0.000958934
0.000753488
0.00054522
0.000712397
0.000950783
0.000807753
0.000836475
0.000569299
0.000603945
0.000628319
0.000580291
0.000777192
0.000692678
0.00055675
SCALARS mass double 1
LOOKUP_TABLE default
0.00327549
0.00478242
0.00458909
0.0023191
0.00516383
0.00805935
0.00838365
0.00529932
0.00658136
0.00440747
0.00739829
0.00779994
0.00481578
0.00252149
0.00430484
0.0076679
0.0055344
0.00593499
0.00274913
0.00309392
0.00334869
0.00285631
0.00512354
0.00406984
0.00262926
