# vtk DataFile Version 3.0
DEM2D particles
ASCII
DATASET POLYDATA
POINTS 25 double
0.000436511 -3.32138e-05 0
0.00259373 -0.000245188 0
0.00503527 0.000546103 0
0.0075525 -0.000902484 0
0.00982669 -0.000744547 0
0.00134532 0.00213057 0
0.00385427 0.00161902 0
0.0049179 0.000728518 0
0.00662312 0.00236466 0
0.00923317 0.00167847 0
0.000767124 0.00386606 0
0.0037611 0.00275862 0
0.00456232 0.0039448 0
0.00622589 0.00416302 0
0.00871364 0.00341232 0
0.00180206 0.00557785 0
0.00309208 0.00488099 0
0.0055426 0.00532099 0
0.00726105 0.00646385 0
0.00950038 0.00626883 0
0.000727257 0.00745228 0
0.00319925 0.00680258 0
0.00427968 0.00787366 0
0.00693409 0.00731275 0
0.00824173 0.00774021 0
VERTICES 25 50
1 0
1 1
1 2
1 3
1 4
1 5
1 6
1 7
1 8
1 9
1 10
1 11
1 12
1 13
1 14
1 15
1 16
1 17
1 18
1 19
1 20
1 21
1 22
1 23
1 24
POINT_DATA 25
VECTORS velocity double
-8.74571e-65 -0.00970858 0
-6.30559e-65 -0.00970858 0
5.47392e-66 -0.00970858 0
8.57521e-65 -0.00970858 0
1.28308e-64 -0.00970858 0
5.3596e-65 -0.00970858 0
1.32588e-64 -0.00970858 0
-1.27423e-65 -0.00970858 0
-5.84941e-65 -0.00970858 0
3.61894e-65 -0.00970858 0
-3.61438e-65 -0.00970858 0
1.18128e-64 -0.00970858 0
-6.79312e-65 -0.00970858 0
-1.20147e-64 -0.00970858 0
-4.44451e-65 -0.00970858 0
1.24484e-64 -0.00970858 0
1.42909e-65 -0.00970858 0
8.42153e-65 -0.00970858 0
4.05162e-65 -0.00970858 0
7.76627e-65 -0.00970858 0
-4.23315e-65 -0.00970858 0
3.09249e-65 -0.00970858 0
-1.11798e-64 -0.00970858 0
-1.02294e-65 -0.00970858 0
-1.17688e-64 -0.00970858 0
SCALARS radius double 1
LOOKUP_TABLE default
0.000621415
0.000750874
0.000735541
0.000522882
0.000780242
0.00097475
0.000994168
0.000790412
0.000880848
0.000720838
0.000933918
0.000958934
0.000753488
0.00054522
0.000712397
0.000950783
0.000807753
0.000836475
0.000569299
0.000603945
0.000628319
0.000580291
0.000777192
0.000692678
0.00055675
SCALARS mass double 1
LOOKUP_TABLE default
0.00327549
0.00478242
0.00458909
0.0023191
0.00516383
0.00805935
0.00838365
0.00529932
0.00658136
0.00440747
0.00739829
0.00779994
0.00481578
0.00252149
0.00430484
0.0076679
0.0055344
0.00593499
0.00274913
0.00309392
0.00334869
0.00285631
0.00512354
0.00406984
0.00262926
