# vtk DataFile Version 3.0
DEM2D particles
ASCII
DATASET POLYDATA
POINTS 25 double
0.000436511 0.000438623 0
0.00259373 0.000226649 0
0.00503527 0.00101794 0
0.0075525 -0.000430647 0
0.00982669 -0.00027271 0
0.00134532 0.00260241 0
0.00385427 0.00209086 0
0.0049179 0.00120036 0
0.00662312 0.00283649 0
0.00923317 0.00215031 0
0.000767124 0.0043379 0
0.0037611 0.00323046 0
0.00456232 0.00441663 0
0.00622589 0.00463486 0
0.00871364 0.00388416 0
0.00180206 0.00604969 0
0.00309208 0.00535283 0
0.0055426 0.00579282 0
0.00726105 0.00693568 0
0.00950038 0.00674067 0
0.000727257 0.00792411 0
0.00319925 0.00727442 0
0.00427968 0.00834549 0
0.00693409 0.00778458 0
0.00824173 0.00821204 0
VERTICES 25 50
1 0
1 1
1 2
1 3
1 4
1 5
1 6
1 7
1 8
1 9
1 10
1 11
1 12
1 13
1 14
1 15
1 16
1 17
1 18
1 19
1 20
1 21
1 22
1 23
1 24
POINT_DATA 25
VECTORS velocity double
-1.42807e-43 -0.00970858 0
-1.02963e-43 -0.00970858 0
8.93826e-45 -0.00970858 0
1.40023e-43 -0.00970858 0
2.09512e-43 -0.00970858 0
8.75159e-44 -0.00970858 0
2.165e-43 -0.00970858 0
-2.08066e-44 -0.00970858 0
-9.55139e-44 -0.00970858 0
5.90929e-44 -0.00970858 0
-5.90185e-44 -0.00970858 0
1.92889e-43 -0.00970858 0
-1.10924e-43 -0.00970858 0
-1.96186e-43 -0.00970858 0
-7.25734e-44 -0.00970858 0
2.03268e-43 -0.00970858 0
2.33354e-44 -0.00970858 0
1.37513e-43 -0.00970858 0
6.61582e-44 -0.00970858 0
1.26814e-43 -0.00970858 0
-6.91223e-44 -0.00970858 0
5.04966e-44 -0.00970858 0
-1.82552e-43 -0.00970858 0
-1.67033e-44 -0.00970858 0
-1.9217e-43 -0.00970858 0
SCALARS radius double 1
LOOKUP_TABLE default
0.000621415
0.000750874
0.000735541
0.000522882
0.000780242
0.00097475
0.000994168
0.000790412
0.000880848
0.000720838
0.000933918
0.000958934
0.000753488
0.00054522
0.000712397
0.000950783
0.000807753
0.000836475
0.000569299
0.000603945
0.000628319
0.000580291
0.000777192
0.000692678
0.00055675
SCALARS mass double 1
LOOKUP_TABLE default
0.00327549
0.00478242
0.00458909
0.0023191
0.00516383
0.00805935
0.00838365
0.00529932
0.00658136
0.00440747
0.00739829
0.00779994
0.00481578
0.00252149
0.00430484
0.0076679
0.0055344
0.00593499
0.00274913
0.00309392
0.00334869
0.00285631
0.00512354
0.00406984
0.00262926
