# vtk DataFile Version 3.0
DEM2D particles
ASCII
DATASET POLYDATA
POINTS 25 double
0.000436511 0.000712405 0
0.00259373 0.000500431 0
0.00503527 0.00129172 0
0.0075525 -0.000156865 0
0.00982669 1.07176e-06 0
0.00134532 0.00287619 0
0.00385427 0.00236464 0
0.0049179 0.00147414 0
0.00662312 0.00311028 0
0.00923317 0.00242409 0
0.000767124 0.00461168 0
0.0037611 0.00350424 0
0.00456232 0.00469041 0
0.00622589 0.00490864 0
0.00871364 0.00415794 0
0.00180206 0.00632347 0
0.00309208 0.00562661 0
0.0055426 0.0060666 0
0.00726105 0.00720947 0
0.00950038 0.00701445 0
0.000727257 0.0081979 0
0.00319925 0.0075482 0
0.00427968 0.00861927 0
0.00693409 0.00805837 0
0.00824173 0.00848583 0
VERTICES 25 50
1 0
1 1
1 2
1 3
1 4
1 5
1 6
1 7
1 8
1 9
1 10
1 11
1 12
1 13
1 14
1 15
1 16
1 17
1 18
1 19
1 20
1 21
1 22
1 23
1 24
POINT_DATA 25
VECTORS velocity double
-2.90737e-31 -0.00970858 0
-2.09619e-31 -0.00970858 0
1.81972e-32 -0.00970858 0
2.85069e-31 -0.00970858 0
4.26541e-31 -0.00970858 0
1.78171e-31 -0.00970858 0
4.40766e-31 -0.00970858 0
-4.23596e-32 -0.00970858 0
-1.94454e-31 -0.00970858 0
1.20306e-31 -0.00970858 0
-1.20154e-31 -0.00970858 0
3.92698e-31 -0.00970858 0
-2.25827e-31 -0.00970858 0
-3.9941e-31 -0.00970858 0
-1.47751e-31 -0.00970858 0
4.13828e-31 -0.00970858 0
4.75079e-32 -0.00970858 0
2.7996e-31 -0.00970858 0
1.3469e-31 -0.00970858 0
2.58177e-31 -0.00970858 0
-1.40724e-31 -0.00970858 0
1.02805e-31 -0.00970858 0
-3.71654e-31 -0.00970858 0
-3.40059e-32 -0.00970858 0
-3.91234e-31 -0.00970858 0
SCALARS radius double 1
LOOKUP_TABLE default
0.000621415
0.000750874
0.000735541
0.000522882
0.000780242
0.00097475
0.000994168
0.000790412
0.000880848
0.000720838
0.000933918
0.000958934
0.000753488
0.00054522
0.000712397
0.000950783
0.000807753
0.000836475
0.000569299
0.000603945
0.000628319
0.000580291
0.000777192
0.000692678
0.00055675
SCALARS mass double 1
LOOKUP_TABLE default
0.00327549
0.00478242
0.00458909
0.0023191
0.00516383
0.00805935
0.00838365
0.00529932
0.00658136
0.00440747
0.00739829
0.00779994
0.00481578
0.00252149
0.00430484
0.0076679
0.0055344
0.00593499
0.00274913
0.00309392
0.00334869
0.00285631
0.00512354
0.00406984
0.00262926
