# vtk DataFile Version 3.0
DEM2D particles
ASCII
DATASET POLYDATA
POINTS 25 double
0.000436511 0.000139599 0
0.00259373 -7.23752e-05 0
0.00503527 0.000718915 0
0.0075525 -0.000729672 0
0.00982669 -0.000571735 0
0.00134532 0.00230339 0
0.00385427 0.00179183 0
0.0049179 0.000901331 0
0.00662312 0.00253747 0
0.00923317 0.00185128 0
0.000767124 0.00403887 0
0.0037611 0.00293143 0
0.00456232 0.00411761 0
0.00622589 0.00433583 0
0.00871364 0.00358514 0
0.00180206 0.00575067 0
0.00309208 0.0050538 0
0.0055426 0.0054938 0
0.00726105 0.00663666 0
0.00950038 0.00644165 0
0.000727257 0.00762509 0
0.00319925 0.00697539 0
0.00427968 0.00804647 0
0.00693409 0.00748556 0
0.00824173 0.00791302 0
VERTICES 25 50
1 0
1 1
1 2
1 3
1 4
1 5
1 6
1 7
1 8
1 9
1 10
1 11
1 12
1 13
1 14
1 15
1 16
1 17
1 18
1 19
1 20
1 21
1 22
1 23
1 24
POINT_DATA 25
VECTORS velocity double
-5.1422e-57 -0.00970858 0
-3.70749e-57 -0.00970858 0
3.21849e-58 -0.00970858 0
5.04195e-57 -0.00970858 0
7.54412e-57 -0.00970858 0
3.15128e-57 -0.00970858 0
7.79573e-57 -0.00970858 0
-7.49204e-58 -0.00970858 0
-3.43927e-57 -0.00970858 0
2.12782e-57 -0.00970858 0
-2.12514e-57 -0.00970858 0
6.94555e-57 -0.00970858 0
-3.99414e-57 -0.00970858 0
-7.06426e-57 -0.00970858 0
-2.61323e-57 -0.00970858 0
7.31928e-57 -0.00970858 0
8.40261e-58 -0.00970858 0
4.95159e-57 -0.00970858 0
2.38222e-57 -0.00970858 0
4.56632e-57 -0.00970858 0
-2.48896e-57 -0.00970858 0
1.81828e-57 -0.00970858 0
-6.57335e-57 -0.00970858 0
-6.01454e-58 -0.00970858 0
-6.91966e-57 -0.00970858 0
SCALARS radius double 1
LOOKUP_TABLE default
0.000621415
0.000750874
0.000735541
0.000522882
0.000780242
0.00097475
0.000994168
0.000790412
0.000880848
0.000720838
0.000933918
0.000958934
0.000753488
0.00054522
0.000712397
0.000950783
0.000807753
0.000836475
0.000569299
0.000603945
0.000628319
0.000580291
0.000777192
0.000692678
0.00055675
SCALARS mass double 1
LOOKUP_TABLE default
0.00327549
0.00478242
0.00458909
0.0023191
0.00516383
0.00805935
0.00838365
0.00529932
0.00658136
0.00440747
0.00739829
0.00779994
0.00481578
0.00252149
0.00430484
0.0076679
0.0055344
0.00593499
0.00274913
0.00309392
0.00334869
0.00285631
0.00512354
0.00406984
0.00262926
