# vtk DataFile Version 3.0
DEM2D particles
ASCII
DATASET POLYDATA
POINTS 25 double
0.000436527 0.0012852 0
0.00259374 0.00107323 0
0.00503527 0.0018645 0
0.00755249 0.000415955 0
0.00982667 0.000573888 0
0.00134531 0.00344898 0
0.00385424 0.00293745 0
0.0049179 0.00204697 0
0.00662313 0.00368306 0
0.00923316 0.00299689 0
0.000767131 0.00518448 0
0.00376108 0.00407707 0
0.00456233 0.00526321 0
0.00622591 0.00548143 0
0.00871365 0.00473075 0
0.00180203 0.00689628 0
0.00309207 0.00619944 0
0.00554259 0.00663942 0
0.00726104 0.00778225 0
0.00950037 0.00758724 0
0.000727265 0.00877071 0
0.00319924 0.00812103 0
0.0042797 0.00919207 0
0.00693409 0.00863118 0
0.00824176 0.00905863 0
VERTICES 25 50
1 0
1 1
1 2
1 3
1 4
1 5
1 6
1 7
1 8
1 9
1 10
1 11
1 12
1 13
1 14
1 15
1 16
1 17
1 18
1 19
1 20
1 21
1 22
1 23
1 24
POINT_DATA 25
VECTORS velocity double
-1.64381e-05 -0.00969732 0
-1.18518e-05 -0.0097035 0
1.02886e-06 -0.00968042 0
1.61177e-05 -0.00972268 0
2.41164e-05 -0.00971807 0
1.00737e-05 -0.00969254 0
2.49207e-05 -0.00970746 0
-2.39499e-06 -0.00973344 0
-1.09944e-05 -0.00968571 0
6.80203e-06 -0.00970573 0
-6.79347e-06 -0.00970026 0
2.22029e-05 -0.00973256 0
-1.27681e-05 -0.00969796 0
-2.25824e-05 -0.00969159 0
-8.35374e-06 -0.00971349 0
2.33976e-05 -0.00970866 0
2.68607e-06 -0.00972899 0
1.58288e-05 -0.00971616 0
7.61529e-06 -0.00968282 0
1.45972e-05 -0.00968851 0
-7.95648e-06 -0.00971233 0
5.81253e-06 -0.00973128 0
-2.10131e-05 -0.00970003 0
-1.92268e-06 -0.0097164 0
-2.21202e-05 -0.00970393 0
SCALARS radius double 1
LOOKUP_TABLE default
0.000621415
0.000750874
0.000735541
0.000522882
0.000780242
0.00097475
0.000994168
0.000790412
0.000880848
0.000720838
0.000933918
0.000958934
0.000753488
0.00054522
0.000712397
0.000950783
0.000807753
0.000836475
0.000569299
0.000603945
0.000628319
0.000580291
0.000777192
0.000692678
0.00055675
SCALARS mass double 1
LOOKUP_TABLE default
0.00327549
0.00478242
0.00458909
0.0023191
0.00516383
0.00805935
0.00838365
0.00529932
0.00658136
0.00440747
0.00739829
0.00779994
0.00481578
0.00252149
0.00430484
0.0076679
0.0055344
0.00593499
0.00274913
0.00309392
0.00334869
0.00285631
0.00512354
0.00406984
0.00262926
