# vtk DataFile Version 3.0
DEM2D particles
ASCII
DATASET POLYDATA
POINTS 25 double
0.000436511 0.00123473 0
0.00259373 0.00102275 0
0.00503527 0.00181404 0
0.0075525 0.000365457 0
0.00982669 0.000523394 0
0.00134532 0.00339851 0
0.00385427 0.00288696 0
0.0049179 0.00199646 0
0.00662312 0.0036326 0
0.00923317 0.00294641 0
0.000767124 0.005134 0
0.0037611 0.00402656 0
0.00456232 0.00521274 0
0.00622589 0.00543096 0
0.00871364 0.00468026 0
0.00180206 0.00684579 0
0.00309208 0.00614893 0
0.0055426 0.00658893 0
0.00726105 0.00773179 0
0.00950038 0.00753678 0
0.000727257 0.00872022 0
0.00319925 0.00807052 0
0.00427968 0.0091416 0
0.00693409 0.00858069 0
0.00824173 0.00900815 0
VERTICES 25 50
1 0
1 1
1 2
1 3
1 4
1 5
1 6
1 7
1 8
1 9
1 10
1 11
1 12
1 13
1 14
1 15
1 16
1 17
1 18
1 19
1 20
1 21
1 22
1 23
1 24
POINT_DATA 25
VECTORS velocity double
-8.83393e-08 -0.00970852 0
-6.36919e-08 -0.00970856 0
5.52914e-09 -0.00970843 0
8.66171e-08 -0.00970866 0
1.29602e-07 -0.00970863 0
5.41366e-08 -0.0097085 0
1.33925e-07 -0.00970858 0
-1.28708e-08 -0.00970872 0
-5.90841e-08 -0.00970846 0
3.65544e-08 -0.00970857 0
-3.65084e-08 -0.00970854 0
1.1932e-07 -0.00970871 0
-6.86164e-08 -0.00970853 0
-1.21359e-07 -0.00970849 0
-4.48934e-08 -0.00970861 0
1.2574e-07 -0.00970858 0
1.44351e-08 -0.00970869 0
8.50647e-08 -0.00970862 0
4.09249e-08 -0.00970845 0
7.8446e-08 -0.00970848 0
-4.27585e-08 -0.0097086 0
3.12368e-08 -0.00970871 0
-1.12925e-07 -0.00970854 0
-1.03325e-08 -0.00970863 0
-1.18875e-07 -0.00970856 0
SCALARS radius double 1
LOOKUP_TABLE default
0.000621415
0.000750874
0.000735541
0.000522882
0.000780242
0.00097475
0.000994168
0.000790412
0.000880848
0.000720838
0.000933918
0.000958934
0.000753488
0.00054522
0.000712397
0.000950783
0.000807753
0.000836475
0.000569299
0.000603945
0.000628319
0.000580291
0.000777192
0.000692678
0.00055675
SCALARS mass double 1
LOOKUP_TABLE default
0.00327549
0.00478242
0.00458909
0.0023191
0.00516383
0.00805935
0.00838365
0.00529932
0.00658136
0.00440747
0.00739829
0.00779994
0.00481578
0.00252149
0.00430484
0.0076679
0.0055344
0.00593499
0.00274913
0.00309392
0.00334869
0.00285631
0.00512354
0.00406984
0.00262926
