# vtk DataFile Version 3.0
DEM2D particles
ASCII
DATASET POLYDATA
POINTS 25 double
0.000436511 0.000421148 0
0.00259373 0.000209174 0
0.00503527 0.00100046 0
0.0075525 -0.000448123 0
0.00982669 -0.000290186 0
0.00134532 0.00258493 0
0.00385427 0.00207338 0
0.0049179 0.00118288 0
0.00662312 0.00281902 0
0.00923317 0.00213283 0
0.000767124 0.00432042 0
0.0037611 0.00321298 0
0.00456232 0.00439916 0
0.00622589 0.00461738 0
0.00871364 0.00386668 0
0.00180206 0.00603222 0
0.00309208 0.00533535 0
0.0055426 0.00577535 0
0.00726105 0.00691821 0
0.00950038 0.0067232 0
0.000727257 0.00790664 0
0.00319925 0.00725694 0
0.00427968 0.00832802 0
0.00693409 0.00776711 0
0.00824173 0.00819457 0
VERTICES 25 50
1 0
1 1
1 2
1 3
1 4
1 5
1 6
1 7
1 8
1 9
1 10
1 11
1 12
1 13
1 14
1 15
1 16
1 17
1 18
1 19
1 20
1 21
1 22
1 23
1 24
POINT_DATA 25
VECTORS velocity double
-2.33929e-44 -0.00970858 0
-1.68661e-44 -0.00970858 0
1.46416e-45 -0.00970858 0
2.29369e-44 -0.00970858 0
3.43197e-44 -0.00970858 0
1.43358e-44 -0.00970858 0
3.54644e-44 -0.00970858 0
-3.40829e-45 -0.00970858 0
-1.56459e-44 -0.00970858 0
9.67989e-45 -0.00970858 0
-9.6677e-45 -0.00970858 0
3.15967e-44 -0.00970858 0
-1.81702e-44 -0.00970858 0
-3.21368e-44 -0.00970858 0
-1.18881e-44 -0.00970858 0
3.32969e-44 -0.00970858 0
3.82252e-45 -0.00970858 0
2.25258e-44 -0.00970858 0
1.08372e-44 -0.00970858 0
2.07731e-44 -0.00970858 0
-1.13228e-44 -0.00970858 0
8.27175e-45 -0.00970858 0
-2.99035e-44 -0.00970858 0
-2.73614e-45 -0.00970858 0
-3.14789e-44 -0.00970858 0
SCALARS radius double 1
LOOKUP_TABLE default
0.000621415
0.000750874
0.000735541
0.000522882
0.000780242
0.00097475
0.000994168
0.000790412
0.000880848
0.000720838
0.000933918
0.000958934
0.000753488
0.00054522
0.000712397
0.000950783
0.000807753
0.000836475
0.000569299
0.000603945
0.000628319
0.000580291
0.000777192
0.000692678
0.00055675
SCALARS mass double 1
LOOKUP_TABLE default
0.00327549
0.00478242
0.00458909
0.0023191
0.00516383
0.00805935
0.00838365
0.00529932
0.00658136
0.00440747
0.00739829
0.00779994
0.00481578
0.00252149
0.00430484
0.0076679
0.0055344
0.00593499
0.00274913
0.00309392
0.00334869
0.00285631
0.00512354
0.00406984
0.00262926
