# vtk DataFile Version 3.0
DEM2D particles
ASCII
DATASET POLYDATA
POINTS 25 double
0.000436511 0.000294936 0
0.00259373 8.29622e-05 0
0.00503527 0.000874253 0
0.0075525 -0.000574334 0
0.00982669 -0.000416397 0
0.00134532 0.00245872 0
0.00385427 0.00194717 0
0.0049179 0.00105667 0
0.00662312 0.00269281 0
0.00923317 0.00200662 0
0.000767124 0.00419421 0
0.0037611 0.00308677 0
0.00456232 0.00427295 0
0.00622589 0.00449117 0
0.00871364 0.00374047 0
0.00180206 0.005906 0
0.00309208 0.00520914 0
0.0055426 0.00564914 0
0.00726105 0.006792 0
0.00950038 0.00659698 0
0.000727257 0.00778043 0
0.00319925 0.00713073 0
0.00427968 0.00820181 0
0.00693409 0.0076409 0
0.00824173 0.00806836 0
VERTICES 25 50
1 0
1 1
1 2
1 3
1 4
1 5
1 6
1 7
1 8
1 9
1 10
1 11
1 12
1 13
1 14
1 15
1 16
1 17
1 18
1 19
1 20
1 21
1 22
1 23
1 24
POINT_DATA 25
VECTORS velocity double
-4.95265e-50 -0.00970858 0
-3.57082e-50 -0.00970858 0
3.09985e-51 -0.00970858 0
4.85609e-50 -0.00970858 0
7.26603e-50 -0.00970858 0
3.03511e-50 -0.00970858 0
7.50836e-50 -0.00970858 0
-7.21587e-51 -0.00970858 0
-3.31249e-50 -0.00970858 0
2.04939e-50 -0.00970858 0
-2.0468e-50 -0.00970858 0
6.68953e-50 -0.00970858 0
-3.84691e-50 -0.00970858 0
-6.80386e-50 -0.00970858 0
-2.5169e-50 -0.00970858 0
7.04948e-50 -0.00970858 0
8.09288e-51 -0.00970858 0
4.76906e-50 -0.00970858 0
2.29441e-50 -0.00970858 0
4.39799e-50 -0.00970858 0
-2.39721e-50 -0.00970858 0
1.75126e-50 -0.00970858 0
-6.33105e-50 -0.00970858 0
-5.79283e-51 -0.00970858 0
-6.66459e-50 -0.00970858 0
SCALARS radius double 1
LOOKUP_TABLE default
0.000621415
0.000750874
0.000735541
0.000522882
0.000780242
0.00097475
0.000994168
0.000790412
0.000880848
0.000720838
0.000933918
0.000958934
0.000753488
0.00054522
0.000712397
0.000950783
0.000807753
0.000836475
0.000569299
0.000603945
0.000628319
0.000580291
0.000777192
0.000692678
0.00055675
SCALARS mass double 1
LOOKUP_TABLE default
0.00327549
0.00478242
0.00458909
0.0023191
0.00516383
0.00805935
0.00838365
0.00529932
0.00658136
0.00440747
0.00739829
0.00779994
0.00481578
0.00252149
0.00430484
0.0076679
0.0055344
0.00593499
0.00274913
0.00309392
0.00334869
0.00285631
0.00512354
0.00406984
0.00262926
