# vtk DataFile Version 3.0
DEM2D particles
ASCII
DATASET POLYDATA
POINTS 25 double
0.000436511 -0.0001536 0
0.00259373 -0.000365574 0
0.00503527 0.000425716 0
0.0075525 -0.00102287 0
0.00982669 -0.000864934 0
0.00134532 0.00201019 0
0.00385427 0.00149863 0
0.0049179 0.000608132 0
0.00662312 0.00224427 0
0.00923317 0.00155808 0
0.000767124 0.00374567 0
0.0037611 0.00263823 0
0.00456232 0.00382441 0
0.00622589 0.00404263 0
0.00871364 0.00329194 0
0.00180206 0.00545747 0
0.00309208 0.00476061 0
0.0055426 0.0052006 0
0.00726105 0.00634346 0
0.00950038 0.00614845 0
0.000727257 0.00733189 0
0.00319925 0.00668219 0
0.00427968 0.00775327 0
0.00693409 0.00719236 0
0.00824173 0.00761982 0
VERTICES 25 50
1 0
1 1
1 2
1 3
1 4
1 5
1 6
1 7
1 8
1 9
1 10
1 11
1 12
1 13
1 14
1 15
1 16
1 17
1 18
1 19
1 20
1 21
1 22
1 23
1 24
POINT_DATA 25
VECTORS velocity double
-3.38405e-70 -0.00970858 0
-2.43987e-70 -0.00970858 0
2.11807e-71 -0.00970858 0
3.31807e-70 -0.00970858 0
4.96474e-70 -0.00970858 0
2.07383e-70 -0.00970858 0
5.13032e-70 -0.00970858 0
-4.93047e-71 -0.00970858 0
-2.26336e-70 -0.00970858 0
1.4003e-70 -0.00970858 0
-1.39854e-70 -0.00970858 0
4.57082e-70 -0.00970858 0
-2.62852e-70 -0.00970858 0
-4.64894e-70 -0.00970858 0
-1.71975e-70 -0.00970858 0
4.81677e-70 -0.00970858 0
5.5297e-71 -0.00970858 0
3.25861e-70 -0.00970858 0
1.56773e-70 -0.00970858 0
3.00506e-70 -0.00970858 0
-1.63797e-70 -0.00970858 0
1.1966e-70 -0.00970858 0
-4.32588e-70 -0.00970858 0
-3.95813e-71 -0.00970858 0
-4.55378e-70 -0.00970858 0
SCALARS radius double 1
LOOKUP_TABLE default
0.000621415
0.000750874
0.000735541
0.000522882
0.000780242
0.00097475
0.000994168
0.000790412
0.000880848
0.000720838
0.000933918
0.000958934
0.000753488
0.00054522
0.000712397
0.000950783
0.000807753
0.000836475
0.000569299
0.000603945
0.000628319
0.000580291
0.000777192
0.000692678
0.00055675
SCALARS mass double 1
LOOKUP_TABLE default
0.00327549
0.00478242
0.00458909
0.0023191
0.00516383
0.00805935
0.00838365
0.00529932
0.00658136
0.00440747
0.00739829
0.00779994
0.00481578
0.00252149
0.00430484
0.0076679
0.0055344
0.00593499
0.00274913
0.00309392
0.00334869
0.00285631
0.00512354
0.00406984
0.00262926
