# vtk DataFile Version 3.0
DEM2D particles
ASCII
DATASET POLYDATA
POINTS 25 double
0.000436511 0.000215326 0
0.00259373 3.35178e-06 0
0.00503527 0.000794642 0
0.0075525 -0.000653945 0
0.00982669 -0.000496008 0
0.00134532 0.00237911 0
0.00385427 0.00186756 0
0.0049179 0.000977058 0
0.00662312 0.0026132 0
0.00923317 0.00192701 0
0.000767124 0.0041146 0
0.0037611 0.00300716 0
0.00456232 0.00419333 0
0.00622589 0.00441156 0
0.00871364 0.00366086 0
0.00180206 0.00582639 0
0.00309208 0.00512953 0
0.0055426 0.00556953 0
0.00726105 0.00671239 0
0.00950038 0.00651737 0
0.000727257 0.00770082 0
0.00319925 0.00705112 0
0.00427968 0.00812219 0
0.00693409 0.00756129 0
0.00824173 0.00798875 0
VERTICES 25 50
1 0
1 1
1 2
1 3
1 4
1 5
1 6
1 7
1 8
1 9
1 10
1 11
1 12
1 13
1 14
1 15
1 16
1 17
1 18
1 19
1 20
1 21
1 22
1 23
1 24
POINT_DATA 25
VECTORS velocity double
-1.30526e-53 -0.00970858 0
-9.41083e-54 -0.00970858 0
8.1696e-55 -0.00970858 0
1.27981e-53 -0.00970858 0
1.91495e-53 -0.00970858 0
7.99898e-54 -0.00970858 0
1.97881e-53 -0.00970858 0
-1.90173e-54 -0.00970858 0
-8.73e-54 -0.00970858 0
5.40111e-54 -0.00970858 0
-5.39431e-54 -0.00970858 0
1.76301e-53 -0.00970858 0
-1.01384e-53 -0.00970858 0
-1.79314e-53 -0.00970858 0
-6.63323e-54 -0.00970858 0
1.85788e-53 -0.00970858 0
2.13286e-54 -0.00970858 0
1.25688e-53 -0.00970858 0
6.04687e-54 -0.00970858 0
1.15908e-53 -0.00970858 0
-6.3178e-54 -0.00970858 0
4.61541e-54 -0.00970858 0
-1.66853e-53 -0.00970858 0
-1.52669e-54 -0.00970858 0
-1.75644e-53 -0.00970858 0
SCALARS radius double 1
LOOKUP_TABLE default
0.000621415
0.000750874
0.000735541
0.000522882
0.000780242
0.00097475
0.000994168
0.000790412
0.000880848
0.000720838
0.000933918
0.000958934
0.000753488
0.00054522
0.000712397
0.000950783
0.000807753
0.000836475
0.000569299
0.000603945
0.000628319
0.000580291
0.000777192
0.000692678
0.00055675
SCALARS mass double 1
LOOKUP_TABLE default
0.00327549
0.00478242
0.00458909
0.0023191
0.00516383
0.00805935
0.00838365
0.00529932
0.00658136
0.00440747
0.00739829
0.00779994
0.00481578
0.00252149
0.00430484
0.0076679
0.0055344
0.00593499
0.00274913
0.00309392
0.00334869
0.00285631
0.00512354
0.00406984
0.00262926
