# vtk DataFile Version 3.0
DEM2D particles
ASCII
DATASET POLYDATA
POINTS 25 double
0.000436511 0.000976479 0
0.00259373 0.000764505 0
0.00503527 0.0015558 0
0.0075525 0.000107208 0
0.00982669 0.000265145 0
0.00134532 0.00314027 0
0.00385427 0.00262871 0
0.0049179 0.00173821 0
0.00662312 0.00337435 0
0.00923317 0.00268816 0
0.000767124 0.00487575 0
0.0037611 0.00376831 0
0.00456232 0.00495449 0
0.00622589 0.00517271 0
0.00871364 0.00442202 0
0.00180206 0.00658755 0
0.00309208 0.00589068 0
0.0055426 0.00633068 0
0.00726105 0.00747354 0
0.00950038 0.00727853 0
0.000727257 0.00846197 0
0.00319925 0.00781227 0
0.00427968 0.00888335 0
0.00693409 0.00832244 0
0.00824173 0.0087499 0
VERTICES 25 50
1 0
1 1
1 2
1 3
1 4
1 5
1 6
1 7
1 8
1 9
1 10
1 11
1 12
1 13
1 14
1 15
1 16
1 17
1 18
1 19
1 20
1 21
1 22
1 23
1 24
POINT_DATA 25
VECTORS velocity double
-2.16656e-19 -0.00970858 0
-1.56208e-19 -0.00970858 0
1.35605e-20 -0.00970858 0
2.12433e-19 -0.00970858 0
3.17856e-19 -0.00970858 0
1.32773e-19 -0.00970858 0
3.28457e-19 -0.00970858 0
-3.15662e-20 -0.00970858 0
-1.44907e-19 -0.00970858 0
8.96515e-20 -0.00970858 0
-8.95386e-20 -0.00970858 0
2.92637e-19 -0.00970858 0
-1.68285e-19 -0.00970858 0
-2.97638e-19 -0.00970858 0
-1.10103e-19 -0.00970858 0
3.08383e-19 -0.00970858 0
3.54027e-20 -0.00970858 0
2.08625e-19 -0.00970858 0
1.0037e-19 -0.00970858 0
1.92393e-19 -0.00970858 0
-1.04867e-19 -0.00970858 0
7.66098e-20 -0.00970858 0
-2.76955e-19 -0.00970858 0
-2.53411e-20 -0.00970858 0
-2.91546e-19 -0.00970858 0
SCALARS radius double 1
LOOKUP_TABLE default
0.000621415
0.000750874
0.000735541
0.000522882
0.000780242
0.00097475
0.000994168
0.000790412
0.000880848
0.000720838
0.000933918
0.000958934
0.000753488
0.00054522
0.000712397
0.000950783
0.000807753
0.000836475
0.000569299
0.000603945
0.000628319
0.000580291
0.000777192
0.000692678
0.00055675
SCALARS mass double 1
LOOKUP_TABLE default
0.00327549
0.00478242
0.00458909
0.0023191
0.00516383
0.00805935
0.00838365
0.00529932
0.00658136
0.00440747
0.00739829
0.00779994
0.00481578
0.00252149
0.00430484
0.0076679
0.0055344
0.00593499
0.00274913
0.00309392
0.00334869
0.00285631
0.00512354
0.00406984
0.00262926
