# vtk DataFile Version 3.0
DEM2D particles
ASCII
DATASET POLYDATA
POINTS 25 double
0.000436522 0.00128132 0
0.00259374 0.00106935 0
0.00503527 0.00186063 0
0.00755249 0.000412067 0
0.00982668 0.000570001 0
0.00134531 0.0034451 0
0.00385425 0.00293356 0
0.0049179 0.00204308 0
0.00662313 0.00367918 0
0.00923316 0.00299301 0
0.000767129 0.0051806 0
0.00376109 0.00407318 0
0.00456233 0.00525933 0
0.0062259 0.00547755 0
0.00871364 0.00472687 0
0.00180204 0.0068924 0
0.00309208 0.00619555 0
0.00554259 0.00663553 0
0.00726104 0.00777837 0
0.00950037 0.00758336 0
0.000727262 0.00876682 0
0.00319925 0.00811714 0
0.0042797 0.00918819 0
0.00693409 0.00862729 0
0.00824175 0.00905475 0
VERTICES 25 50
1 0
1 1
1 2
1 3
1 4
1 5
1 6
1 7
1 8
1 9
1 10
1 11
1 12
1 13
1 14
1 15
1 16
1 17
1 18
1 19
1 20
1 21
1 22
1 23
1 24
POINT_DATA 25
VECTORS velocity double
-1.09966e-05 -0.00970105 0
-7.9285e-06 -0.00970518 0
6.88278e-07 -0.00968974 0
1.07823e-05 -0.00971801 0
1.61332e-05 -0.00971493 0
6.73904e-06 -0.00969785 0
1.66712e-05 -0.00970783 0
-1.60218e-06 -0.00972521 0
-7.35491e-06 -0.00969328 0
4.55037e-06 -0.00970667 0
-4.54464e-06 -0.00970301 0
1.48531e-05 -0.00972462 0
-8.54151e-06 -0.00970148 0
-1.5107e-05 -0.00969722 0
-5.58841e-06 -0.00971187 0
1.56524e-05 -0.00970864 0
1.79691e-06 -0.00972224 0
1.0589e-05 -0.00971365 0
5.09441e-06 -0.00969135 0
9.76512e-06 -0.00969515 0
-5.32266e-06 -0.00971109 0
3.88842e-06 -0.00972377 0
-1.40572e-05 -0.00970286 0
-1.28622e-06 -0.00971381 0
-1.47978e-05 -0.00970547 0
SCALARS radius double 1
LOOKUP_TABLE default
0.000621415
0.000750874
0.000735541
0.000522882
0.000780242
0.00097475
0.000994168
0.000790412
0.000880848
0.000720838
0.000933918
0.000958934
0.000753488
0.00054522
0.000712397
0.000950783
0.000807753
0.000836475
0.000569299
0.000603945
0.000628319
0.000580291
0.000777192
0.000692678
0.00055675
SCALARS mass double 1
LOOKUP_TABLE default
0.00327549
0.00478242
0.00458909
0.0023191
0.00516383
0.00805935
0.00838365
0.00529932
0.00658136
0.00440747
0.00739829
0.00779994
0.00481578
0.00252149
0.00430484
0.0076679
0.0055344
0.00593499
0.00274913
0.00309392
0.00334869
0.00285631
0.00512354
0.00406984
0.00262926
