# vtk DataFile Version 3.0
DEM2D particles
ASCII
DATASET POLYDATA
POINTS 25 double
0.000436511 -0.000235152 0
0.00259373 -0.000447126 0
0.00503527 0.000344164 0
0.0075525 -0.00110442 0
0.00982669 -0.000946486 0
0.00134532 0.00192863 0
0.00385427 0.00141708 0
0.0049179 0.000526579 0
0.00662312 0.00216272 0
0.00923317 0.00147653 0
0.000767124 0.00366412 0
0.0037611 0.00255668 0
0.00456232 0.00374286 0
0.00622589 0.00396108 0
0.00871364 0.00321038 0
0.00180206 0.00537592 0
0.00309208 0.00467905 0
0.0055426 0.00511905 0
0.00726105 0.00626191 0
0.00950038 0.0060669 0
0.000727257 0.00725034 0
0.00319925 0.00660064 0
0.00427968 0.00767172 0
0.00693409 0.00711081 0
0.00824173 0.00753827 0
VERTICES 25 50
1 0
1 1
1 2
1 3
1 4
1 5
1 6
1 7
1 8
1 9
1 10
1 11
1 12
1 13
1 14
1 15
1 16
1 17
1 18
1 19
1 20
1 21
1 22
1 23
1 24
POINT_DATA 25
VECTORS velocity double
-7.29458e-74 -0.00970858 0
-5.25933e-74 -0.00970858 0
4.56566e-75 -0.00970858 0
7.15236e-74 -0.00970858 0
1.07019e-73 -0.00970858 0
4.47031e-74 -0.00970858 0
1.10588e-73 -0.00970858 0
-1.0628e-74 -0.00970858 0
-4.87884e-74 -0.00970858 0
3.01846e-74 -0.00970858 0
-3.01466e-74 -0.00970858 0
9.85276e-74 -0.00970858 0
-5.66597e-74 -0.00970858 0
-1.00212e-73 -0.00970858 0
-3.70705e-74 -0.00970858 0
1.03829e-73 -0.00970858 0
1.19197e-74 -0.00970858 0
7.02418e-74 -0.00970858 0
3.37936e-74 -0.00970858 0
6.47764e-74 -0.00970858 0
-3.53076e-74 -0.00970858 0
2.57936e-74 -0.00970858 0
-9.32477e-74 -0.00970858 0
-8.53205e-75 -0.00970858 0
-9.81603e-74 -0.00970858 0
SCALARS radius double 1
LOOKUP_TABLE default
0.000621415
0.000750874
0.000735541
0.000522882
0.000780242
0.00097475
0.000994168
0.000790412
0.000880848
0.000720838
0.000933918
0.000958934
0.000753488
0.00054522
0.000712397
0.000950783
0.000807753
0.000836475
0.000569299
0.000603945
0.000628319
0.000580291
0.000777192
0.000692678
0.00055675
SCALARS mass double 1
LOOKUP_TABLE default
0.00327549
0.00478242
0.00458909
0.0023191
0.00516383
0.00805935
0.00838365
0.00529932
0.00658136
0.00440747
0.00739829
0.00779994
0.00481578
0.00252149
0.00430484
0.0076679
0.0055344
0.00593499
0.00274913
0.00309392
0.00334869
0.00285631
0.00512354
0.00406984
0.00262926
