# vtk DataFile Version 3.0
DEM2D particles
ASCII
DATASET POLYDATA
POINTS 25 double
0.000436511 -0.000555536 0
0.00259373 -0.00076751 0
0.00503527 2.37808e-05 0
0.0075525 -0.00142481 0
0.00982669 -0.00126687 0
0.00134532 0.00160825 0
0.00385427 0.0010967 0
0.0049179 0.000206196 0
0.00662312 0.00184233 0
0.00923317 0.00115615 0
0.000767124 0.00334374 0
0.0037611 0.0022363 0
0.00456232 0.00342247 0
0.00622589 0.0036407 0
0.00871364 0.00289 0
0.00180206 0.00505553 0
0.00309208 0.00435867 0
0.0055426 0.00479866 0
0.00726105 0.00594153 0
0.00950038 0.00574651 0
0.000727257 0.00692996 0
0.00319925 0.00628026 0
0.00427968 0.00735133 0
0.00693409 0.00679042 0
0.00824173 0.00721789 0
VERTICES 25 50
1 0
1 1
1 2
1 3
1 4
1 5
1 6
1 7
1 8
1 9
1 10
1 11
1 12
1 13
1 14
1 15
1 16
1 17
1 18
1 19
1 20
1 21
1 22
1 23
1 24
POINT_DATA 25
VECTORS velocity double
-2.87834e-88 -0.00970858 0
-2.07526e-88 -0.00970858 0
1.80155e-89 -0.00970858 0
2.82223e-88 -0.00970858 0
4.22281e-88 -0.00970858 0
1.76392e-88 -0.00970858 0
4.36365e-88 -0.00970858 0
-4.19366e-89 -0.00970858 0
-1.92513e-88 -0.00970858 0
1.19105e-88 -0.00970858 0
-1.18955e-88 -0.00970858 0
3.88776e-88 -0.00970858 0
-2.23571e-88 -0.00970858 0
-3.95421e-88 -0.00970858 0
-1.46275e-88 -0.00970858 0
4.09696e-88 -0.00970858 0
4.70335e-89 -0.00970858 0
2.77165e-88 -0.00970858 0
1.33345e-88 -0.00970858 0
2.55599e-88 -0.00970858 0
-1.39319e-88 -0.00970858 0
1.01778e-88 -0.00970858 0
-3.67943e-88 -0.00970858 0
-3.36663e-89 -0.00970858 0
-3.87327e-88 -0.00970858 0
SCALARS radius double 1
LOOKUP_TABLE default
0.000621415
0.000750874
0.000735541
0.000522882
0.000780242
0.00097475
0.000994168
0.000790412
0.000880848
0.000720838
0.000933918
0.000958934
0.000753488
0.00054522
0.000712397
0.000950783
0.000807753
0.000836475
0.000569299
0.000603945
0.000628319
0.000580291
0.000777192
0.000692678
0.00055675
SCALARS mass double 1
LOOKUP_TABLE default
0.00327549
0.00478242
0.00458909
0.0023191
0.00516383
0.00805935
0.00838365
0.00529932
0.00658136
0.00440747
0.00739829
0.00779994
0.00481578
0.00252149
0.00430484
0.0076679
0.0055344
0.00593499
0.00274913
0.00309392
0.00334869
0.00285631
0.00512354
0.00406984
0.00262926
