# vtk DataFile Version 3.0
DEM2D particles
ASCII
DATASET POLYDATA
POINTS 25 double
0.000436511 0.000980362 0
0.00259373 0.000768388 0
0.00503527 0.00155968 0
0.0075525 0.000111092 0
0.00982669 0.000269029 0
0.00134532 0.00314415 0
0.00385427 0.0026326 0
0.0049179 0.00174209 0
0.00662312 0.00337823 0
0.00923317 0.00269205 0
0.000767124 0.00487964 0
0.0037611 0.0037722 0
0.00456232 0.00495837 0
0.00622589 0.0051766 0
0.00871364 0.0044259 0
0.00180206 0.00659143 0
0.00309208 0.00589457 0
0.0055426 0.00633456 0
0.00726105 0.00747742 0
0.00950038 0.00728241 0
0.000727257 0.00846585 0
0.00319925 0.00781615 0
0.00427968 0.00888723 0
0.00693409 0.00832632 0
0.00824173 0.00875378 0
VERTICES 25 50
1 0
1 1
1 2
1 3
1 4
1 5
1 6
1 7
1 8
1 9
1 10
1 11
1 12
1 13
1 14
1 15
1 16
1 17
1 18
1 19
1 20
1 21
1 22
1 23
1 24
POINT_DATA 25
VECTORS velocity double
-3.23865e-19 -0.00970858 0
-2.33504e-19 -0.00970858 0
2.02706e-20 -0.00970858 0
3.17551e-19 -0.00970858 0
4.75142e-19 -0.00970858 0
1.98473e-19 -0.00970858 0
4.90989e-19 -0.00970858 0
-4.71862e-20 -0.00970858 0
-2.16611e-19 -0.00970858 0
1.34014e-19 -0.00970858 0
-1.33845e-19 -0.00970858 0
4.37443e-19 -0.00970858 0
-2.51558e-19 -0.00970858 0
-4.44919e-19 -0.00970858 0
-1.64586e-19 -0.00970858 0
4.60981e-19 -0.00970858 0
5.29211e-20 -0.00970858 0
3.1186e-19 -0.00970858 0
1.50037e-19 -0.00970858 0
2.87595e-19 -0.00970858 0
-1.56759e-19 -0.00970858 0
1.14519e-19 -0.00970858 0
-4.14001e-19 -0.00970858 0
-3.78806e-20 -0.00970858 0
-4.35812e-19 -0.00970858 0
SCALARS radius double 1
LOOKUP_TABLE default
0.000621415
0.000750874
0.000735541
0.000522882
0.000780242
0.00097475
0.000994168
0.000790412
0.000880848
0.000720838
0.000933918
0.000958934
0.000753488
0.00054522
0.000712397
0.000950783
0.000807753
0.000836475
0.000569299
0.000603945
0.000628319
0.000580291
0.000777192
0.000692678
0.00055675
SCALARS mass double 1
LOOKUP_TABLE default
0.00327549
0.00478242
0.00458909
0.0023191
0.00516383
0.00805935
0.00838365
0.00529932
0.00658136
0.00440747
0.00739829
0.00779994
0.00481578
0.00252149
0.00430484
0.0076679
0.0055344
0.00593499
0.00274913
0.00309392
0.00334869
0.00285631
0.00512354
0.00406984
0.00262926
