# vtk DataFile Version 3.0
DEM2D particles
ASCII
DATASET POLYDATA
POINTS 25 double
0.000436511 6.3872e-05 0
0.00259373 -0.000148102 0
0.00503527 0.000643188 0
0.0075525 -0.000805399 0
0.00982669 -0.000647462 0
0.00134532 0.00222766 0
0.00385427 0.00171611 0
0.0049179 0.000825604 0
0.00662312 0.00246174 0
0.00923317 0.00177556 0
0.000767124 0.00396315 0
0.0037611 0.0028557 0
0.00456232 0.00404188 0
0.00622589 0.00426011 0
0.00871364 0.00350941 0
0.00180206 0.00567494 0
0.00309208 0.00497808 0
0.0055426 0.00541807 0
0.00726105 0.00656093 0
0.00950038 0.00636592 0
0.000727257 0.00754936 0
0.00319925 0.00689966 0
0.00427968 0.00797074 0
0.00693409 0.00740983 0
0.00824173 0.00783729 0
VERTICES 25 50
1 0
1 1
1 2
1 3
1 4
1 5
1 6
1 7
1 8
1 9
1 10
1 11
1 12
1 13
1 14
1 15
1 16
1 17
1 18
1 19
1 20
1 21
1 22
1 23
1 24
POINT_DATA 25
VECTORS velocity double
-2.02582e-60 -0.00970858 0
-1.4606e-60 -0.00970858 0
1.26796e-61 -0.00970858 0
1.98632e-60 -0.00970858 0
2.97208e-60 -0.00970858 0
1.24148e-60 -0.00970858 0
3.0712e-60 -0.00970858 0
-2.95156e-61 -0.00970858 0
-1.35493e-60 -0.00970858 0
8.38275e-61 -0.00970858 0
-8.3722e-61 -0.00970858 0
2.73627e-60 -0.00970858 0
-1.57353e-60 -0.00970858 0
-2.78303e-60 -0.00970858 0
-1.02951e-60 -0.00970858 0
2.8835e-60 -0.00970858 0
3.31029e-61 -0.00970858 0
1.95073e-60 -0.00970858 0
9.38501e-61 -0.00970858 0
1.79894e-60 -0.00970858 0
-9.80549e-61 -0.00970858 0
7.1633e-61 -0.00970858 0
-2.58964e-60 -0.00970858 0
-2.36949e-61 -0.00970858 0
-2.72607e-60 -0.00970858 0
SCALARS radius double 1
LOOKUP_TABLE default
0.000621415
0.000750874
0.000735541
0.000522882
0.000780242
0.00097475
0.000994168
0.000790412
0.000880848
0.000720838
0.000933918
0.000958934
0.000753488
0.00054522
0.000712397
0.000950783
0.000807753
0.000836475
0.000569299
0.000603945
0.000628319
0.000580291
0.000777192
0.000692678
0.00055675
SCALARS mass double 1
LOOKUP_TABLE default
0.00327549
0.00478242
0.00458909
0.0023191
0.00516383
0.00805935
0.00838365
0.00529932
0.00658136
0.00440747
0.00739829
0.00779994
0.00481578
0.00252149
0.00430484
0.0076679
0.0055344
0.00593499
0.00274913
0.00309392
0.00334869
0.00285631
0.00512354
0.00406984
0.00262926
