# vtk DataFile Version 3.0
DEM2D particles
ASCII
DATASET POLYDATA
POINTS 25 double
0.000459113 0.00133962 0
0.00261002 0.00113615 0
0.00503385 0.0018957 0
0.00753034 0.00050522 0
0.00979353 0.000656822 0
0.00133147 0.00349684 0
0.00382 0.00300581 0
0.00492119 0.00215102 0
0.00663824 0.00372153 0
0.00922382 0.00306287 0
0.000776465 0.00524294 0
0.00373057 0.00417992 0
0.00457987 0.00531851 0
0.00625694 0.00552799 0
0.00872513 0.0048074 0
0.00176989 0.00696629 0
0.00308838 0.00629738 0
0.00552084 0.00671973 0
0.00725058 0.00781675 0
0.00948031 0.00762956 0
0.000738197 0.00884575 0
0.00319126 0.00822211 0
0.00430858 0.00925023 0
0.00693674 0.00871182 0
0.00827215 0.00912213 0
VERTICES 25 50
1 0
1 1
1 2
1 3
1 4
1 5
1 6
1 7
1 8
1 9
1 10
1 11
1 12
1 13
1 14
1 15
1 16
1 17
1 18
1 19
1 20
1 21
1 22
1 23
1 24
POINT_DATA 25
VECTORS velocity double
-0.0228303 0.00593795 0
-0.0164605 -0.00265041 0
0.00142895 0.0294096 0
0.0223853 -0.0292815 0
0.0334944 -0.0228825 0
0.013991 0.0125739 0
0.0346115 -0.00815211 0
-0.00332632 -0.0442318 0
-0.0152697 0.0220581 0
0.0094471 -0.00574343 0
-0.00943521 0.00185695 0
0.0308369 -0.0430122 0
-0.0177332 0.00504695 0
-0.0313639 0.0138885 0
-0.0116022 -0.0165267 0
0.0324962 -0.00982005 0
0.00373059 -0.0380542 0
0.0219841 -0.0202273 0
0.0105766 0.0260769 0
0.0202735 0.0181758 0
-0.0110505 -0.0149079 0
0.00807282 -0.0412311 0
-0.0291844 0.00216464 0
-0.00267034 -0.0205612 0
-0.0307219 -0.00324213 0
SCALARS radius double 1
LOOKUP_TABLE default
0.000621415
0.000750874
0.000735541
0.000522882
0.000780242
0.00097475
0.000994168
0.000790412
0.000880848
0.000720838
0.000933918
0.000958934
0.000753488
0.00054522
0.000712397
0.000950783
0.000807753
0.000836475
0.000569299
0.000603945
0.000628319
0.000580291
0.000777192
0.000692678
0.00055675
SCALARS mass double 1
LOOKUP_TABLE default
0.00327549
0.00478242
0.00458909
0.0023191
0.00516383
0.00805935
0.00838365
0.00529932
0.00658136
0.00440747
0.00739829
0.00779994
0.00481578
0.00252149
0.00430484
0.0076679
0.0055344
0.00593499
0.00274913
0.00309392
0.00334869
0.00285631
0.00512354
0.00406984
0.00262926
