# vtk DataFile Version 3.0
DEM2D particles
ASCII
DATASET POLYDATA
POINTS 25 double
0.000436511 0.000263869 0
0.00259373 5.18947e-05 0
0.00503527 0.000843185 0
0.0075525 -0.000605402 0
0.00982669 -0.000447465 0
0.00134532 0.00242766 0
0.00385427 0.0019161 0
0.0049179 0.0010256 0
0.00662312 0.00266174 0
0.00923317 0.00197555 0
0.000767124 0.00416314 0
0.0037611 0.0030557 0
0.00456232 0.00424188 0
0.00622589 0.0044601 0
0.00871364 0.00370941 0
0.00180206 0.00587494 0
0.00309208 0.00517807 0
0.0055426 0.00561807 0
0.00726105 0.00676093 0
0.00950038 0.00656592 0
0.000727257 0.00774936 0
0.00319925 0.00709966 0
0.00427968 0.00817074 0
0.00693409 0.00760983 0
0.00824173 0.00803729 0
VERTICES 25 50
1 0
1 1
1 2
1 3
1 4
1 5
1 6
1 7
1 8
1 9
1 10
1 11
1 12
1 13
1 14
1 15
1 16
1 17
1 18
1 19
1 20
1 21
1 22
1 23
1 24
POINT_DATA 25
VECTORS velocity double
-1.98655e-51 -0.00970858 0
-1.43229e-51 -0.00970858 0
1.24338e-52 -0.00970858 0
1.94782e-51 -0.00970858 0
2.91447e-51 -0.00970858 0
1.21741e-51 -0.00970858 0
3.01167e-51 -0.00970858 0
-2.89435e-52 -0.00970858 0
-1.32867e-51 -0.00970858 0
8.22027e-52 -0.00970858 0
-8.20991e-52 -0.00970858 0
2.68323e-51 -0.00970858 0
-1.54303e-51 -0.00970858 0
-2.72909e-51 -0.00970858 0
-1.00955e-51 -0.00970858 0
2.82761e-51 -0.00970858 0
3.24612e-52 -0.00970858 0
1.91291e-51 -0.00970858 0
9.20309e-52 -0.00970858 0
1.76407e-51 -0.00970858 0
-9.61542e-52 -0.00970858 0
7.02445e-52 -0.00970858 0
-2.53944e-51 -0.00970858 0
-2.32356e-52 -0.00970858 0
-2.67322e-51 -0.00970858 0
SCALARS radius double 1
LOOKUP_TABLE default
0.000621415
0.000750874
0.000735541
0.000522882
0.000780242
0.00097475
0.000994168
0.000790412
0.000880848
0.000720838
0.000933918
0.000958934
0.000753488
0.00054522
0.000712397
0.000950783
0.000807753
0.000836475
0.000569299
0.000603945
0.000628319
0.000580291
0.000777192
0.000692678
0.00055675
SCALARS mass double 1
LOOKUP_TABLE default
0.00327549
0.00478242
0.00458909
0.0023191
0.00516383
0.00805935
0.00838365
0.00529932
0.00658136
0.00440747
0.00739829
0.00779994
0.00481578
0.00252149
0.00430484
0.0076679
0.0055344
0.00593499
0.00274913
0.00309392
0.00334869
0.00285631
0.00512354
0.00406984
0.00262926
