# vtk DataFile Version 3.0
DEM2D particles
ASCII
DATASET POLYDATA
POINTS 25 double
0.000436511 0.000188142 0
0.00259373 -2.38323e-05 0
0.00503527 0.000767458 0
0.0075525 -0.000681129 0
0.00982669 -0.000523192 0
0.00134532 0.00235193 0
0.00385427 0.00184038 0
0.0049179 0.000949874 0
0.00662312 0.00258601 0
0.00923317 0.00189983 0
0.000767124 0.00408742 0
0.0037611 0.00297997 0
0.00456232 0.00416615 0
0.00622589 0.00438438 0
0.00871364 0.00363368 0
0.00180206 0.00579921 0
0.00309208 0.00510235 0
0.0055426 0.00554234 0
0.00726105 0.0066852 0
0.00950038 0.00649019 0
0.000727257 0.00767363 0
0.00319925 0.00702393 0
0.00427968 0.00809501 0
0.00693409 0.0075341 0
0.00824173 0.00796156 0
VERTICES 25 50
1 0
1 1
1 2
1 3
1 4
1 5
1 6
1 7
1 8
1 9
1 10
1 11
1 12
1 13
1 14
1 15
1 16
1 17
1 18
1 19
1 20
1 21
1 22
1 23
1 24
POINT_DATA 25
VECTORS velocity double
-7.82621e-55 -0.00970858 0
-5.64264e-55 -0.00970858 0
4.89841e-56 -0.00970858 0
7.67364e-55 -0.00970858 0
1.14818e-54 -0.00970858 0
4.79611e-55 -0.00970858 0
1.18648e-54 -0.00970858 0
-1.14026e-55 -0.00970858 0
-5.23442e-55 -0.00970858 0
3.23845e-55 -0.00970858 0
-3.23438e-55 -0.00970858 0
1.05708e-54 -0.00970858 0
-6.07891e-55 -0.00970858 0
-1.07515e-54 -0.00970858 0
-3.97722e-55 -0.00970858 0
1.11396e-54 -0.00970858 0
1.27884e-55 -0.00970858 0
7.53611e-55 -0.00970858 0
3.62565e-55 -0.00970858 0
6.94974e-55 -0.00970858 0
-3.78809e-55 -0.00970858 0
2.76735e-55 -0.00970858 0
-1.00044e-54 -0.00970858 0
-9.15387e-56 -0.00970858 0
-1.05314e-54 -0.00970858 0
SCALARS radius double 1
LOOKUP_TABLE default
0.000621415
0.000750874
0.000735541
0.000522882
0.000780242
0.00097475
0.000994168
0.000790412
0.000880848
0.000720838
0.000933918
0.000958934
0.000753488
0.00054522
0.000712397
0.000950783
0.000807753
0.000836475
0.000569299
0.000603945
0.000628319
0.000580291
0.000777192
0.000692678
0.00055675
SCALARS mass double 1
LOOKUP_TABLE default
0.00327549
0.00478242
0.00458909
0.0023191
0.00516383
0.00805935
0.00838365
0.00529932
0.00658136
0.00440747
0.00739829
0.00779994
0.00481578
0.00252149
0.00430484
0.0076679
0.0055344
0.00593499
0.00274913
0.00309392
0.00334869
0.00285631
0.00512354
0.00406984
0.00262926
