# vtk DataFile Version 3.0
DEM2D particles
ASCII
DATASET POLYDATA
POINTS 25 double
0.000436511 0.00124055 0
0.00259373 0.00102858 0
0.00503527 0.00181987 0
0.0075525 0.000371282 0
0.00982669 0.000529219 0
0.00134532 0.00340434 0
0.00385427 0.00289279 0
0.0049179 0.00200228 0
0.00662312 0.00363842 0
0.00923317 0.00295224 0
0.000767124 0.00513983 0
0.0037611 0.00403239 0
0.00456232 0.00521856 0
0.00622589 0.00543679 0
0.00871364 0.00468609 0
0.00180206 0.00685162 0
0.00309208 0.00615476 0
0.0055426 0.00659475 0
0.00726105 0.00773761 0
0.00950038 0.0075426 0
0.000727257 0.00872604 0
0.00319925 0.00807634 0
0.00427968 0.00914742 0
0.00693409 0.00858651 0
0.00824174 0.00901397 0
VERTICES 25 50
1 0
1 1
1 2
1 3
1 4
1 5
1 6
1 7
1 8
1 9
1 10
1 11
1 12
1 13
1 14
1 15
1 16
1 17
1 18
1 19
1 20
1 21
1 22
1 23
1 24
POINT_DATA 25
VECTORS velocity double
-1.61452e-07 -0.00970847 0
-1.16405e-07 -0.00970853 0
1.01052e-08 -0.00970831 0
1.58304e-07 -0.00970872 0
2.36865e-07 -0.00970868 0
9.89418e-08 -0.00970843 0
2.44765e-07 -0.00970857 0
-2.3523e-08 -0.00970883 0
-1.07984e-07 -0.00970836 0
6.6808e-08 -0.00970856 0
-6.67238e-08 -0.0097085 0
2.18072e-07 -0.00970882 0
-1.25405e-07 -0.00970848 0
-2.21799e-07 -0.00970842 0
-8.20484e-08 -0.00970863 0
2.29806e-07 -0.00970858 0
2.6382e-08 -0.00970878 0
1.55467e-07 -0.00970866 0
7.47956e-08 -0.00970833 0
1.4337e-07 -0.00970839 0
-7.81467e-08 -0.00970862 0
5.70893e-08 -0.00970881 0
-2.06386e-07 -0.0097085 0
-1.88841e-08 -0.00970866 0
-2.17259e-07 -0.00970854 0
SCALARS radius double 1
LOOKUP_TABLE default
0.000621415
0.000750874
0.000735541
0.000522882
0.000780242
0.00097475
0.000994168
0.000790412
0.000880848
0.000720838
0.000933918
0.000958934
0.000753488
0.00054522
0.000712397
0.000950783
0.000807753
0.000836475
0.000569299
0.000603945
0.000628319
0.000580291
0.000777192
0.000692678
0.00055675
SCALARS mass double 1
LOOKUP_TABLE default
0.00327549
0.00478242
0.00458909
0.0023191
0.00516383
0.00805935
0.00838365
0.00529932
0.00658136
0.00440747
0.00739829
0.00779994
0.00481578
0.00252149
0.00430484
0.0076679
0.0055344
0.00593499
0.00274913
0.00309392
0.00334869
0.00285631
0.00512354
0.00406984
0.00262926
