# vtk DataFile Version 3.0
DEM2D particles
ASCII
DATASET POLYDATA
POINTS 25 double
0.000436511 -4.87476e-05 0
0.00259373 -0.000260722 0
0.00503527 0.000530569 0
0.0075525 -0.000918018 0
0.00982669 -0.000760081 0
0.00134532 0.00211504 0
0.00385427 0.00160349 0
0.0049179 0.000712984 0
0.00662312 0.00234912 0
0.00923317 0.00166294 0
0.000767124 0.00385053 0
0.0037611 0.00274309 0
0.00456232 0.00392926 0
0.00622589 0.00414749 0
0.00871364 0.00339679 0
0.00180206 0.00556232 0
0.00309208 0.00486546 0
0.0055426 0.00530545 0
0.00726105 0.00644831 0
0.00950038 0.0062533 0
0.000727257 0.00743674 0
0.00319925 0.00678704 0
0.00427968 0.00785812 0
0.00693409 0.00729721 0
0.00824173 0.00772467 0
VERTICES 25 50
1 0
1 1
1 2
1 3
1 4
1 5
1 6
1 7
1 8
1 9
1 10
1 11
1 12
1 13
1 14
1 15
1 16
1 17
1 18
1 19
1 20
1 21
1 22
1 23
1 24
POINT_DATA 25
VECTORS velocity double
-1.75157e-65 -0.00970858 0
-1.26287e-65 -0.00970858 0
1.0963e-66 -0.00970858 0
1.71742e-65 -0.00970858 0
2.56972e-65 -0.00970858 0
1.07341e-65 -0.00970858 0
2.65543e-65 -0.00970858 0
-2.55198e-66 -0.00970858 0
-1.1715e-65 -0.00970858 0
7.2479e-66 -0.00970858 0
-7.23878e-66 -0.00970858 0
2.36583e-65 -0.00970858 0
-1.36051e-65 -0.00970858 0
-2.40627e-65 -0.00970858 0
-8.90132e-66 -0.00970858 0
2.49314e-65 -0.00970858 0
2.86215e-66 -0.00970858 0
1.68664e-65 -0.00970858 0
8.11447e-66 -0.00970858 0
1.5554e-65 -0.00970858 0
-8.47803e-66 -0.00970858 0
6.19354e-66 -0.00970858 0
-2.23905e-65 -0.00970858 0
-2.04871e-66 -0.00970858 0
-2.35701e-65 -0.00970858 0
SCALARS radius double 1
LOOKUP_TABLE default
0.000621415
0.000750874
0.000735541
0.000522882
0.000780242
0.00097475
0.000994168
0.000790412
0.000880848
0.000720838
0.000933918
0.000958934
0.000753488
0.00054522
0.000712397
0.000950783
0.000807753
0.000836475
0.000569299
0.000603945
0.000628319
0.000580291
0.000777192
0.000692678
0.00055675
SCALARS mass double 1
LOOKUP_TABLE default
0.00327549
0.00478242
0.00458909
0.0023191
0.00516383
0.00805935
0.00838365
0.00529932
0.00658136
0.00440747
0.00739829
0.00779994
0.00481578
0.00252149
0.00430484
0.0076679
0.0055344
0.00593499
0.00274913
0.00309392
0.00334869
0.00285631
0.00512354
0.00406984
0.00262926
