# vtk DataFile Version 3.0
DEM2D particles
ASCII
DATASET POLYDATA
POINTS 25 double
0.000436511 0.00123667 0
0.00259373 0.00102469 0
0.00503527 0.00181599 0
0.0075525 0.000367398 0
0.00982669 0.000525335 0
0.00134532 0.00340046 0
0.00385427 0.0028889 0
0.0049179 0.0019984 0
0.00662312 0.00363454 0
0.00923317 0.00294835 0
0.000767124 0.00513594 0
0.0037611 0.0040285 0
0.00456232 0.00521468 0
0.00622589 0.0054329 0
0.00871364 0.00468221 0
0.00180206 0.00684774 0
0.00309208 0.00615087 0
0.0055426 0.00659087 0
0.00726105 0.00773373 0
0.00950038 0.00753872 0
0.000727257 0.00872216 0
0.00319925 0.00807246 0
0.00427968 0.00914354 0
0.00693409 0.00858263 0
0.00824174 0.00901009 0
VERTICES 25 50
1 0
1 1
1 2
1 3
1 4
1 5
1 6
1 7
1 8
1 9
1 10
1 11
1 12
1 13
1 14
1 15
1 16
1 17
1 18
1 19
1 20
1 21
1 22
1 23
1 24
POINT_DATA 25
VECTORS velocity double
-1.08007e-07 -0.00970851 0
-7.78719e-08 -0.00970855 0
6.7601e-09 -0.0097084 0
1.05901e-07 -0.00970868 0
1.58456e-07 -0.00970865 0
6.61892e-08 -0.00970848 0
1.63741e-07 -0.00970858 0
-1.57363e-08 -0.00970875 0
-7.22382e-08 -0.00970843 0
4.46926e-08 -0.00970856 0
-4.46364e-08 -0.00970853 0
1.45884e-07 -0.00970874 0
-8.38927e-08 -0.00970851 0
-1.48377e-07 -0.00970847 0
-5.48881e-08 -0.00970862 0
1.53734e-07 -0.00970858 0
1.76488e-08 -0.00970872 0
1.04003e-07 -0.00970863 0
5.00361e-08 -0.00970841 0
9.59107e-08 -0.00970845 0
-5.22779e-08 -0.00970861 0
3.81911e-08 -0.00970873 0
-1.38066e-07 -0.00970853 0
-1.26329e-08 -0.00970863 0
-1.4534e-07 -0.00970855 0
SCALARS radius double 1
LOOKUP_TABLE default
0.000621415
0.000750874
0.000735541
0.000522882
0.000780242
0.00097475
0.000994168
0.000790412
0.000880848
0.000720838
0.000933918
0.000958934
0.000753488
0.00054522
0.000712397
0.000950783
0.000807753
0.000836475
0.000569299
0.000603945
0.000628319
0.000580291
0.000777192
0.000692678
0.00055675
SCALARS mass double 1
LOOKUP_TABLE default
0.00327549
0.00478242
0.00458909
0.0023191
0.00516383
0.00805935
0.00838365
0.00529932
0.00658136
0.00440747
0.00739829
0.00779994
0.00481578
0.00252149
0.00430484
0.0076679
0.0055344
0.00593499
0.00274913
0.00309392
0.00334869
0.00285631
0.00512354
0.00406984
0.00262926
