# vtk DataFile Version 3.0
DEM2D particles
ASCII
DATASET POLYDATA
POINTS 25 double
0.000436511 0.000861918 0
0.00259373 0.000649943 0
0.00503527 0.00144123 0
0.0075525 -7.35309e-06 0
0.00982669 0.000150584 0
0.00134532 0.0030257 0
0.00385427 0.00251415 0
0.0049179 0.00162365 0
0.00662312 0.00325979 0
0.00923317 0.0025736 0
0.000767124 0.00476119 0
0.0037611 0.00365375 0
0.00456232 0.00483993 0
0.00622589 0.00505815 0
0.00871364 0.00430745 0
0.00180206 0.00647299 0
0.00309208 0.00577612 0
0.0055426 0.00621612 0
0.00726105 0.00735898 0
0.00950038 0.00716397 0
0.000727257 0.00834741 0
0.00319925 0.00769771 0
0.00427968 0.00876879 0
0.00693409 0.00820788 0
0.00824173 0.00863534 0
VERTICES 25 50
1 0
1 1
1 2
1 3
1 4
1 5
1 6
1 7
1 8
1 9
1 10
1 11
1 12
1 13
1 14
1 15
1 16
1 17
1 18
1 19
1 20
1 21
1 22
1 23
1 24
POINT_DATA 25
VECTORS velocity double
-1.53215e-24 -0.00970858 0
-1.10467e-24 -0.00970858 0
9.58969e-26 -0.00970858 0
1.50228e-24 -0.00970858 0
2.24782e-24 -0.00970858 0
9.38942e-25 -0.00970858 0
2.32278e-24 -0.00970858 0
-2.2323e-25 -0.00970858 0
-1.02475e-24 -0.00970858 0
6.33997e-25 -0.00970858 0
-6.33199e-25 -0.00970858 0
2.06947e-24 -0.00970858 0
-1.19008e-24 -0.00970858 0
-2.10484e-24 -0.00970858 0
-7.78627e-25 -0.00970858 0
2.18082e-24 -0.00970858 0
2.50361e-25 -0.00970858 0
1.47536e-24 -0.00970858 0
7.09798e-25 -0.00970858 0
1.36056e-24 -0.00970858 0
-7.416e-25 -0.00970858 0
5.41769e-25 -0.00970858 0
-1.95857e-24 -0.00970858 0
-1.79207e-25 -0.00970858 0
-2.06175e-24 -0.00970858 0
SCALARS radius double 1
LOOKUP_TABLE default
0.000621415
0.000750874
0.000735541
0.000522882
0.000780242
0.00097475
0.000994168
0.000790412
0.000880848
0.000720838
0.000933918
0.000958934
0.000753488
0.00054522
0.000712397
0.000950783
0.000807753
0.000836475
0.000569299
0.000603945
0.000628319
0.000580291
0.000777192
0.000692678
0.00055675
SCALARS mass double 1
LOOKUP_TABLE default
0.00327549
0.00478242
0.00458909
0.0023191
0.00516383
0.00805935
0.00838365
0.00529932
0.00658136
0.00440747
0.00739829
0.00779994
0.00481578
0.00252149
0.00430484
0.0076679
0.0055344
0.00593499
0.00274913
0.00309392
0.00334869
0.00285631
0.00512354
0.00406984
0.00262926
