# vtk DataFile Version 3.0
DEM2D particles
ASCII
DATASET POLYDATA
POINTS 25 double
0.000436511 0.000494933 0
0.00259373 0.000282959 0
0.00503527 0.00107425 0
0.0075525 -0.000374338 0
0.00982669 -0.000216401 0
0.00134532 0.00265872 0
0.00385427 0.00214717 0
0.0049179 0.00125666 0
0.00662312 0.0028928 0
0.00923317 0.00220662 0
0.000767124 0.00439421 0
0.0037611 0.00328677 0
0.00456232 0.00447294 0
0.00622589 0.00469117 0
0.00871364 0.00394047 0
0.00180206 0.006106 0
0.00309208 0.00540914 0
0.0055426 0.00584913 0
0.00726105 0.00699199 0
0.00950038 0.00679698 0
0.000727257 0.00798042 0
0.00319925 0.00733073 0
0.00427968 0.0084018 0
0.00693409 0.00784089 0
0.00824173 0.00826835 0
VERTICES 25 50
1 0
1 1
1 2
1 3
1 4
1 5
1 6
1 7
1 8
1 9
1 10
1 11
1 12
1 13
1 14
1 15
1 16
1 17
1 18
1 19
1 20
1 21
1 22
1 23
1 24
POINT_DATA 25
VECTORS velocity double
-4.85665e-41 -0.00970858 0
-3.50161e-41 -0.00970858 0
3.03977e-42 -0.00970858 0
4.76197e-41 -0.00970858 0
7.12519e-41 -0.00970858 0
2.97628e-41 -0.00970858 0
7.36282e-41 -0.00970858 0
-7.076e-42 -0.00970858 0
-3.24828e-41 -0.00970858 0
2.00966e-41 -0.00970858 0
-2.00713e-41 -0.00970858 0
6.55986e-41 -0.00970858 0
-3.77234e-41 -0.00970858 0
-6.67197e-41 -0.00970858 0
-2.46811e-41 -0.00970858 0
6.91284e-41 -0.00970858 0
7.93601e-42 -0.00970858 0
4.67662e-41 -0.00970858 0
2.24994e-41 -0.00970858 0
4.31274e-41 -0.00970858 0
-2.35074e-41 -0.00970858 0
1.71731e-41 -0.00970858 0
-6.20833e-41 -0.00970858 0
-5.68055e-42 -0.00970858 0
-6.5354e-41 -0.00970858 0
SCALARS radius double 1
LOOKUP_TABLE default
0.000621415
0.000750874
0.000735541
0.000522882
0.000780242
0.00097475
0.000994168
0.000790412
0.000880848
0.000720838
0.000933918
0.000958934
0.000753488
0.00054522
0.000712397
0.000950783
0.000807753
0.000836475
0.000569299
0.000603945
0.000628319
0.000580291
0.000777192
0.000692678
0.00055675
SCALARS mass double 1
LOOKUP_TABLE default
0.00327549
0.00478242
0.00458909
0.0023191
0.00516383
0.00805935
0.00838365
0.00529932
0.00658136
0.00440747
0.00739829
0.00779994
0.00481578
0.00252149
0.00430484
0.0076679
0.0055344
0.00593499
0.00274913
0.00309392
0.00334869
0.00285631
0.00512354
0.00406984
0.00262926
