# vtk DataFile Version 3.0
DEM2D particles
ASCII
DATASET POLYDATA
POINTS 25 double
0.000438168 0.00132874 0
0.00259492 0.00111738 0
0.00503516 0.00190635 0
0.00755088 0.000462021 0
0.00982426 0.000619494 0
0.00134431 0.00349204 0
0.00385175 0.00298199 0
0.00491814 0.00209411 0
0.00662423 0.00372544 0
0.00923248 0.00304127 0
0.000767809 0.00522831 0
0.00375886 0.00412412 0
0.0045636 0.00530681 0
0.00622817 0.00552439 0
0.00871448 0.0047759 0
0.0017997 0.00694095 0
0.00309181 0.00624613 0
0.00554101 0.00668483 0
0.00726028 0.00782434 0
0.00949891 0.0076299 0
0.000728059 0.00881574 0
0.00319866 0.00816795 0
0.0042818 0.00923588 0
0.00693429 0.00867662 0
0.00824396 0.00910282 0
VERTICES 25 50
1 0
1 1
1 2
1 3
1 4
1 5
1 6
1 7
1 8
1 9
1 10
1 11
1 12
1 13
1 14
1 15
1 16
1 17
1 18
1 19
1 20
1 21
1 22
1 23
1 24
POINT_DATA 25
VECTORS velocity double
-0.00167364 -0.00856157 0
-0.00120668 -0.00919116 0
0.000104753 -0.00684092 0
0.00164102 -0.0111434 0
0.0024554 -0.0106743 0
0.00102565 -0.0080751 0
0.00253729 -0.00959448 0
-0.000243845 -0.0122394 0
-0.00111939 -0.00737984 0
0.000692547 -0.00941791 0
-0.000691675 -0.00886074 0
0.00226059 -0.01215 0
-0.00129998 -0.00862689 0
-0.00229922 -0.00797873 0
-0.000850533 -0.0102084 0
0.00238222 -0.00971676 0
0.000273482 -0.0117865 0
0.00161161 -0.0104797 0
0.000775349 -0.00708522 0
0.00148621 -0.00766444 0
-0.000810087 -0.0100897 0
0.000591801 -0.0120194 0
-0.00213945 -0.00883818 0
-0.000195757 -0.0105042 0
-0.00225216 -0.00923454 0
SCALARS radius double 1
LOOKUP_TABLE default
0.000621415
0.000750874
0.000735541
0.000522882
0.000780242
0.00097475
0.000994168
0.000790412
0.000880848
0.000720838
0.000933918
0.000958934
0.000753488
0.00054522
0.000712397
0.000950783
0.000807753
0.000836475
0.000569299
0.000603945
0.000628319
0.000580291
0.000777192
0.000692678
0.00055675
SCALARS mass double 1
LOOKUP_TABLE default
0.00327549
0.00478242
0.00458909
0.0023191
0.00516383
0.00805935
0.00838365
0.00529932
0.00658136
0.00440747
0.00739829
0.00779994
0.00481578
0.00252149
0.00430484
0.0076679
0.0055344
0.00593499
0.00274913
0.00309392
0.00334869
0.00285631
0.00512354
0.00406984
0.00262926
