# vtk DataFile Version 3.0
DEM2D particles
ASCII
DATASET POLYDATA
POINTS 25 double
0.000436511 0.000456099 0
0.00259373 0.000244125 0
0.00503527 0.00103542 0
0.0075525 -0.000413172 0
0.00982669 -0.000255235 0
0.00134532 0.00261989 0
0.00385427 0.00210833 0
0.0049179 0.00121783 0
0.00662312 0.00285397 0
0.00923317 0.00216778 0
0.000767124 0.00435537 0
0.0037611 0.00324793 0
0.00456232 0.00443411 0
0.00622589 0.00465233 0
0.00871364 0.00390164 0
0.00180206 0.00606717 0
0.00309208 0.0053703 0
0.0055426 0.0058103 0
0.00726105 0.00695316 0
0.00950038 0.00675815 0
0.000727257 0.00794159 0
0.00319925 0.00729189 0
0.00427968 0.00836297 0
0.00693409 0.00780206 0
0.00824173 0.00822952 0
VERTICES 25 50
1 0
1 1
1 2
1 3
1 4
1 5
1 6
1 7
1 8
1 9
1 10
1 11
1 12
1 13
1 14
1 15
1 16
1 17
1 18
1 19
1 20
1 21
1 22
1 23
1 24
POINT_DATA 25
VECTORS velocity double
-8.71795e-43 -0.00970858 0
-6.28558e-43 -0.00970858 0
5.45655e-44 -0.00970858 0
8.54799e-43 -0.00970858 0
1.27901e-42 -0.00970858 0
5.34259e-43 -0.00970858 0
1.32167e-42 -0.00970858 0
-1.27018e-43 -0.00970858 0
-5.83084e-43 -0.00970858 0
3.60745e-43 -0.00970858 0
-3.60291e-43 -0.00970858 0
1.17753e-42 -0.00970858 0
-6.77156e-43 -0.00970858 0
-1.19766e-42 -0.00970858 0
-4.4304e-43 -0.00970858 0
1.24089e-42 -0.00970858 0
1.42456e-43 -0.00970858 0
8.39479e-43 -0.00970858 0
4.03876e-43 -0.00970858 0
7.74161e-43 -0.00970858 0
-4.21971e-43 -0.00970858 0
3.08267e-43 -0.00970858 0
-1.11443e-42 -0.00970858 0
-1.01969e-43 -0.00970858 0
-1.17314e-42 -0.00970858 0
SCALARS radius double 1
LOOKUP_TABLE default
0.000621415
0.000750874
0.000735541
0.000522882
0.000780242
0.00097475
0.000994168
0.000790412
0.000880848
0.000720838
0.000933918
0.000958934
0.000753488
0.00054522
0.000712397
0.000950783
0.000807753
0.000836475
0.000569299
0.000603945
0.000628319
0.000580291
0.000777192
0.000692678
0.00055675
SCALARS mass double 1
LOOKUP_TABLE default
0.00327549
0.00478242
0.00458909
0.0023191
0.00516383
0.00805935
0.00838365
0.00529932
0.00658136
0.00440747
0.00739829
0.00779994
0.00481578
0.00252149
0.00430484
0.0076679
0.0055344
0.00593499
0.00274913
0.00309392
0.00334869
0.00285631
0.00512354
0.00406984
0.00262926
