# vtk DataFile Version 3.0
DEM2D particles
ASCII
DATASET POLYDATA
POINTS 25 double
0.000436511 0.000407556 0
0.00259373 0.000195582 0
0.00503527 0.000986872 0
0.0075525 -0.000461715 0
0.00982669 -0.000303778 0
0.00134532 0.00257134 0
0.00385427 0.00205979 0
0.0049179 0.00116929 0
0.00662312 0.00280543 0
0.00923317 0.00211924 0
0.000767124 0.00430683 0
0.0037611 0.00319939 0
0.00456232 0.00438556 0
0.00622589 0.00460379 0
0.00871364 0.00385309 0
0.00180206 0.00601862 0
0.00309208 0.00532176 0
0.0055426 0.00576176 0
0.00726105 0.00690462 0
0.00950038 0.0067096 0
0.000727257 0.00789305 0
0.00319925 0.00724335 0
0.00427968 0.00831442 0
0.00693409 0.00775352 0
0.00824173 0.00818098 0
VERTICES 25 50
1 0
1 1
1 2
1 3
1 4
1 5
1 6
1 7
1 8
1 9
1 10
1 11
1 12
1 13
1 14
1 15
1 16
1 17
1 18
1 19
1 20
1 21
1 22
1 23
1 24
POINT_DATA 25
VECTORS velocity double
-5.72812e-45 -0.00970858 0
-4.12993e-45 -0.00970858 0
3.58522e-46 -0.00970858 0
5.61644e-45 -0.00970858 0
8.40372e-45 -0.00970858 0
3.51034e-45 -0.00970858 0
8.68399e-45 -0.00970858 0
-8.34571e-46 -0.00970858 0
-3.83115e-45 -0.00970858 0
2.37027e-45 -0.00970858 0
-2.36729e-45 -0.00970858 0
7.73695e-45 -0.00970858 0
-4.44924e-45 -0.00970858 0
-7.86918e-45 -0.00970858 0
-2.91099e-45 -0.00970858 0
8.15326e-45 -0.00970858 0
9.36003e-46 -0.00970858 0
5.51579e-45 -0.00970858 0
2.65366e-45 -0.00970858 0
5.08661e-45 -0.00970858 0
-2.77256e-45 -0.00970858 0
2.02546e-45 -0.00970858 0
-7.32234e-45 -0.00970858 0
-6.69985e-46 -0.00970858 0
-7.7081e-45 -0.00970858 0
SCALARS radius double 1
LOOKUP_TABLE default
0.000621415
0.000750874
0.000735541
0.000522882
0.000780242
0.00097475
0.000994168
0.000790412
0.000880848
0.000720838
0.000933918
0.000958934
0.000753488
0.00054522
0.000712397
0.000950783
0.000807753
0.000836475
0.000569299
0.000603945
0.000628319
0.000580291
0.000777192
0.000692678
0.00055675
SCALARS mass double 1
LOOKUP_TABLE default
0.00327549
0.00478242
0.00458909
0.0023191
0.00516383
0.00805935
0.00838365
0.00529932
0.00658136
0.00440747
0.00739829
0.00779994
0.00481578
0.00252149
0.00430484
0.0076679
0.0055344
0.00593499
0.00274913
0.00309392
0.00334869
0.00285631
0.00512354
0.00406984
0.00262926
