# vtk DataFile Version 3.0
DEM2D particles
ASCII
DATASET POLYDATA
POINTS 25 double
0.000436511 6.19303e-05 0
0.00259373 -0.000150044 0
0.00503527 0.000641247 0
0.0075525 -0.00080734 0
0.00982669 -0.000649403 0
0.00134532 0.00222572 0
0.00385427 0.00171417 0
0.0049179 0.000823662 0
0.00662312 0.0024598 0
0.00923317 0.00177362 0
0.000767124 0.0039612 0
0.0037611 0.00285376 0
0.00456232 0.00403994 0
0.00622589 0.00425816 0
0.00871364 0.00350747 0
0.00180206 0.005673 0
0.00309208 0.00497614 0
0.0055426 0.00541613 0
0.00726105 0.00655899 0
0.00950038 0.00636398 0
0.000727257 0.00754742 0
0.00319925 0.00689772 0
0.00427968 0.0079688 0
0.00693409 0.00740789 0
0.00824173 0.00783535 0
VERTICES 25 50
1 0
1 1
1 2
1 3
1 4
1 5
1 6
1 7
1 8
1 9
1 10
1 11
1 12
1 13
1 14
1 15
1 16
1 17
1 18
1 19
1 20
1 21
1 22
1 23
1 24
POINT_DATA 25
VECTORS velocity double
-1.65693e-60 -0.00970858 0
-1.19464e-60 -0.00970858 0
1.03707e-61 -0.00970858 0
1.62463e-60 -0.00970858 0
2.43088e-60 -0.00970858 0
1.01541e-60 -0.00970858 0
2.51196e-60 -0.00970858 0
-2.4141e-61 -0.00970858 0
-1.10821e-60 -0.00970858 0
6.85631e-61 -0.00970858 0
-6.84768e-61 -0.00970858 0
2.23801e-60 -0.00970858 0
-1.287e-60 -0.00970858 0
-2.27626e-60 -0.00970858 0
-8.4204e-61 -0.00970858 0
2.35844e-60 -0.00970858 0
2.70751e-61 -0.00970858 0
1.59551e-60 -0.00970858 0
7.67606e-61 -0.00970858 0
1.47137e-60 -0.00970858 0
-8.01998e-61 -0.00970858 0
5.85892e-61 -0.00970858 0
-2.11808e-60 -0.00970858 0
-1.93802e-61 -0.00970858 0
-2.22967e-60 -0.00970858 0
SCALARS radius double 1
LOOKUP_TABLE default
0.000621415
0.000750874
0.000735541
0.000522882
0.000780242
0.00097475
0.000994168
0.000790412
0.000880848
0.000720838
0.000933918
0.000958934
0.000753488
0.00054522
0.000712397
0.000950783
0.000807753
0.000836475
0.000569299
0.000603945
0.000628319
0.000580291
0.000777192
0.000692678
0.00055675
SCALARS mass double 1
LOOKUP_TABLE default
0.00327549
0.00478242
0.00458909
0.0023191
0.00516383
0.00805935
0.00838365
0.00529932
0.00658136
0.00440747
0.00739829
0.00779994
0.00481578
0.00252149
0.00430484
0.0076679
0.0055344
0.00593499
0.00274913
0.00309392
0.00334869
0.00285631
0.00512354
0.00406984
0.00262926
