# vtk DataFile Version 3.0
DEM2D particles
ASCII
DATASET POLYDATA
POINTS 25 double
0.000436511 0.00112211 0
0.00259373 0.000910133 0
0.00503527 0.00170142 0
0.0075525 0.000252837 0
0.00982669 0.000410774 0
0.00134532 0.00328589 0
0.00385427 0.00277434 0
0.0049179 0.00188384 0
0.00662312 0.00351998 0
0.00923317 0.00283379 0
0.000767124 0.00502138 0
0.0037611 0.00391394 0
0.00456232 0.00510012 0
0.00622589 0.00531834 0
0.00871364 0.00456764 0
0.00180206 0.00673318 0
0.00309208 0.00603631 0
0.0055426 0.00647631 0
0.00726105 0.00761917 0
0.00950038 0.00742416 0
0.000727257 0.0086076 0
0.00319925 0.0079579 0
0.00427968 0.00902898 0
0.00693409 0.00846807 0
0.00824173 0.00889553 0
VERTICES 25 50
1 0
1 1
1 2
1 3
1 4
1 5
1 6
1 7
1 8
1 9
1 10
1 11
1 12
1 13
1 14
1 15
1 16
1 17
1 18
1 19
1 20
1 21
1 22
1 23
1 24
POINT_DATA 25
VECTORS velocity double
-7.638e-13 -0.00970858 0
-5.50694e-13 -0.00970858 0
4.78061e-14 -0.00970858 0
7.48909e-13 -0.00970858 0
1.12057e-12 -0.00970858 0
4.68077e-13 -0.00970858 0
1.15794e-12 -0.00970858 0
-1.11284e-13 -0.00970858 0
-5.10854e-13 -0.00970858 0
3.16057e-13 -0.00970858 0
-3.15659e-13 -0.00970858 0
1.03166e-12 -0.00970858 0
-5.93272e-13 -0.00970858 0
-1.04929e-12 -0.00970858 0
-3.88157e-13 -0.00970858 0
1.08717e-12 -0.00970858 0
1.24809e-13 -0.00970858 0
7.35487e-13 -0.00970858 0
3.53845e-13 -0.00970858 0
6.78261e-13 -0.00970858 0
-3.69699e-13 -0.00970858 0
2.7008e-13 -0.00970858 0
-9.76377e-13 -0.00970858 0
-8.93373e-14 -0.00970858 0
-1.02782e-12 -0.00970858 0
SCALARS radius double 1
LOOKUP_TABLE default
0.000621415
0.000750874
0.000735541
0.000522882
0.000780242
0.00097475
0.000994168
0.000790412
0.000880848
0.000720838
0.000933918
0.000958934
0.000753488
0.00054522
0.000712397
0.000950783
0.000807753
0.000836475
0.000569299
0.000603945
0.000628319
0.000580291
0.000777192
0.000692678
0.00055675
SCALARS mass double 1
LOOKUP_TABLE default
0.00327549
0.00478242
0.00458909
0.0023191
0.00516383
0.00805935
0.00838365
0.00529932
0.00658136
0.00440747
0.00739829
0.00779994
0.00481578
0.00252149
0.00430484
0.0076679
0.0055344
0.00593499
0.00274913
0.00309392
0.00334869
0.00285631
0.00512354
0.00406984
0.00262926
