# vtk DataFile Version 3.0
DEM2D particles
ASCII
DATASET POLYDATA
POINTS 25 double
0.000605209 0.00125892 0
0.00271536 0.0011104 0
0.00502471 0.0016648 0
0.00738709 0.000649888 0
0.0095792 0.000760541 0
0.00124194 0.00337367 0
0.00359852 0.00301526 0
0.00494248 0.00239136 0
0.00673595 0.00353767 0
0.00916336 0.00305692 0
0.000836843 0.00518835 0
0.00353324 0.00441245 0
0.00469335 0.00524351 0
0.00645764 0.0053964 0
0.00879937 0.00487045 0
0.00156194 0.00698642 0
0.00306451 0.00649819 0
0.00538016 0.00680646 0
0.00718289 0.00760717 0
0.00935058 0.00747054 0
0.000808911 0.00889844 0
0.0031396 0.00844325 0
0.00449533 0.00919367 0
0.00695382 0.00880068 0
0.00846874 0.00910017 0
VERTICES 25 50
1 0
1 1
1 2
1 3
1 4
1 5
1 6
1 7
1 8
1 9
1 10
1 11
1 12
1 13
1 14
1 15
1 16
1 17
1 18
1 19
1 20
1 21
1 22
1 23
1 24
POINT_DATA 25
VECTORS velocity double
-0.170402 0.107074 0
-0.122858 0.0429724 0
0.0106654 0.282262 0
0.16708 -0.155797 0
0.249996 -0.108036 0
0.104427 0.156604 0
0.258334 0.00190866 0
-0.024827 -0.267383 0
-0.11397 0.227392 0
0.0705115 0.0198866 0
-0.0704227 0.0766144 0
0.230161 -0.258281 0
-0.132357 0.100424 0
-0.234095 0.166416 0
-0.0865968 -0.0605978 0
0.242545 -0.0105406 0
0.0278445 -0.221275 0
0.164085 -0.0882187 0
0.0789419 0.257388 0
0.151318 0.198415 0
-0.0824788 -0.0485156 0
0.0602541 -0.244987 0
-0.217827 0.078911 0
-0.0199309 -0.0907103 0
-0.229303 0.0385559 0
SCALARS radius double 1
LOOKUP_TABLE default
0.000621415
0.000750874
0.000735541
0.000522882
0.000780242
0.00097475
0.000994168
0.000790412
0.000880848
0.000720838
0.000933918
0.000958934
0.000753488
0.00054522
0.000712397
0.000950783
0.000807753
0.000836475
0.000569299
0.000603945
0.000628319
0.000580291
0.000777192
0.000692678
0.00055675
SCALARS mass double 1
LOOKUP_TABLE default
0.00327549
0.00478242
0.00458909
0.0023191
0.00516383
0.00805935
0.00838365
0.00529932
0.00658136
0.00440747
0.00739829
0.00779994
0.00481578
0.00252149
0.00430484
0.0076679
0.0055344
0.00593499
0.00274913
0.00309392
0.00334869
0.00285631
0.00512354
0.00406984
0.00262926
