# vtk DataFile Version 3.0
DEM2D particles
ASCII
DATASET POLYDATA
POINTS 25 double
0.000436511 0.00114929 0
0.00259373 0.000937318 0
0.00503527 0.00172861 0
0.0075525 0.000280021 0
0.00982669 0.000437958 0
0.00134532 0.00331308 0
0.00385427 0.00280153 0
0.0049179 0.00191102 0
0.00662312 0.00354716 0
0.00923317 0.00286098 0
0.000767124 0.00504857 0
0.0037611 0.00394112 0
0.00456232 0.0051273 0
0.00622589 0.00534552 0
0.00871364 0.00459483 0
0.00180206 0.00676036 0
0.00309208 0.0060635 0
0.0055426 0.00650349 0
0.00726105 0.00764635 0
0.00950038 0.00745134 0
0.000727257 0.00863478 0
0.00319925 0.00798508 0
0.00427968 0.00905616 0
0.00693409 0.00849525 0
0.00824173 0.00892271 0
VERTICES 25 50
1 0
1 1
1 2
1 3
1 4
1 5
1 6
1 7
1 8
1 9
1 10
1 11
1 12
1 13
1 14
1 15
1 16
1 17
1 18
1 19
1 20
1 21
1 22
1 23
1 24
POINT_DATA 25
VECTORS velocity double
-1.27387e-11 -0.00970858 0
-9.18451e-12 -0.00970858 0
7.97312e-13 -0.00970858 0
1.24904e-11 -0.00970858 0
1.86889e-11 -0.00970858 0
7.80661e-12 -0.00970858 0
1.93122e-11 -0.00970858 0
-1.85599e-12 -0.00970858 0
-8.52005e-12 -0.00970858 0
5.27122e-12 -0.00970858 0
-5.26458e-12 -0.00970858 0
1.72061e-11 -0.00970858 0
-9.89462e-12 -0.00970858 0
-1.75002e-11 -0.00970858 0
-6.47371e-12 -0.00970858 0
1.8132e-11 -0.00970858 0
2.08157e-12 -0.00970858 0
1.22665e-11 -0.00970858 0
5.90145e-12 -0.00970858 0
1.13121e-11 -0.00970858 0
-6.16586e-12 -0.00970858 0
4.50441e-12 -0.00970858 0
-1.62841e-11 -0.00970858 0
-1.48997e-12 -0.00970858 0
-1.7142e-11 -0.00970858 0
SCALARS radius double 1
LOOKUP_TABLE default
0.000621415
0.000750874
0.000735541
0.000522882
0.000780242
0.00097475
0.000994168
0.000790412
0.000880848
0.000720838
0.000933918
0.000958934
0.000753488
0.00054522
0.000712397
0.000950783
0.000807753
0.000836475
0.000569299
0.000603945
0.000628319
0.000580291
0.000777192
0.000692678
0.00055675
SCALARS mass double 1
LOOKUP_TABLE default
0.00327549
0.00478242
0.00458909
0.0023191
0.00516383
0.00805935
0.00838365
0.00529932
0.00658136
0.00440747
0.00739829
0.00779994
0.00481578
0.00252149
0.00430484
0.0076679
0.0055344
0.00593499
0.00274913
0.00309392
0.00334869
0.00285631
0.00512354
0.00406984
0.00262926
