# vtk DataFile Version 3.0
DEM2D particles
ASCII
DATASET POLYDATA
POINTS 25 double
0.00043652 0.00127938 0
0.00259374 0.00106741 0
0.00503527 0.00185869 0
0.00755249 0.000410124 0
0.00982668 0.000568058 0
0.00134532 0.00344316 0
0.00385425 0.00293162 0
0.0049179 0.00204113 0
0.00662313 0.00367724 0
0.00923317 0.00299107 0
0.000767128 0.00517866 0
0.00376109 0.00407123 0
0.00456232 0.00525739 0
0.0062259 0.00547561 0
0.00871364 0.00472493 0
0.00180204 0.00689045 0
0.00309208 0.0061936 0
0.00554259 0.00663359 0
0.00726104 0.00777643 0
0.00950038 0.00758142 0
0.000727261 0.00876488 0
0.00319925 0.00811519 0
0.00427969 0.00918625 0
0.00693409 0.00862535 0
0.00824175 0.00905281 0
VERTICES 25 50
1 0
1 1
1 2
1 3
1 4
1 5
1 6
1 7
1 8
1 9
1 10
1 11
1 12
1 13
1 14
1 15
1 16
1 17
1 18
1 19
1 20
1 21
1 22
1 23
1 24
POINT_DATA 25
VECTORS velocity double
-8.99424e-06 -0.00970242 0
-6.48478e-06 -0.0097058 0
5.62947e-07 -0.00969317 0
8.81889e-06 -0.00971629 0
1.31954e-05 -0.00971377 0
5.51191e-06 -0.00969981 0
1.36355e-05 -0.00970797 0
-1.31044e-06 -0.00972218 0
-6.01563e-06 -0.00969607 0
3.72178e-06 -0.00970702 0
-3.71709e-06 -0.00970403 0
1.21485e-05 -0.0097217 0
-6.98616e-06 -0.00970277 0
-1.23561e-05 -0.00969929 0
-4.5708e-06 -0.00971127 0
1.28022e-05 -0.00970863 0
1.4697e-06 -0.00971975 0
8.66084e-06 -0.00971273 0
4.16676e-06 -0.00969449 0
7.98696e-06 -0.0096976 0
-4.35344e-06 -0.00971063 0
3.18037e-06 -0.009721 0
-1.14975e-05 -0.00970391 0
-1.052e-06 -0.00971286 0
-1.21032e-05 -0.00970604 0
SCALARS radius double 1
LOOKUP_TABLE default
0.000621415
0.000750874
0.000735541
0.000522882
0.000780242
0.00097475
0.000994168
0.000790412
0.000880848
0.000720838
0.000933918
0.000958934
0.000753488
0.00054522
0.000712397
0.000950783
0.000807753
0.000836475
0.000569299
0.000603945
0.000628319
0.000580291
0.000777192
0.000692678
0.00055675
SCALARS mass double 1
LOOKUP_TABLE default
0.00327549
0.00478242
0.00458909
0.0023191
0.00516383
0.00805935
0.00838365
0.00529932
0.00658136
0.00440747
0.00739829
0.00779994
0.00481578
0.00252149
0.00430484
0.0076679
0.0055344
0.00593499
0.00274913
0.00309392
0.00334869
0.00285631
0.00512354
0.00406984
0.00262926
