# vtk DataFile Version 3.0
DEM2D particles
ASCII
DATASET POLYDATA
POINTS 25 double
0.000436511 0.00121143 0
0.00259373 0.000999452 0
0.00503527 0.00179074 0
0.0075525 0.000342156 0
0.00982669 0.000500093 0
0.00134532 0.00337521 0
0.00385427 0.00286366 0
0.0049179 0.00197316 0
0.00662312 0.0036093 0
0.00923317 0.00292311 0
0.000767124 0.0051107 0
0.0037611 0.00400326 0
0.00456232 0.00518944 0
0.00622589 0.00540766 0
0.00871364 0.00465696 0
0.00180206 0.00682249 0
0.00309208 0.00612563 0
0.0055426 0.00656563 0
0.00726105 0.00770849 0
0.00950038 0.00751347 0
0.000727257 0.00869692 0
0.00319925 0.00804722 0
0.00427968 0.0091183 0
0.00693409 0.00855739 0
0.00824173 0.00898485 0
VERTICES 25 50
1 0
1 1
1 2
1 3
1 4
1 5
1 6
1 7
1 8
1 9
1 10
1 11
1 12
1 13
1 14
1 15
1 16
1 17
1 18
1 19
1 20
1 21
1 22
1 23
1 24
POINT_DATA 25
VECTORS velocity double
-7.91773e-09 -0.00970858 0
-5.70862e-09 -0.00970858 0
4.95569e-10 -0.00970857 0
7.76337e-09 -0.00970859 0
1.16161e-08 -0.00970859 0
4.85219e-09 -0.00970858 0
1.20035e-08 -0.00970858 0
-1.15359e-09 -0.0097086 0
-5.29563e-09 -0.00970857 0
3.27632e-09 -0.00970858 0
-3.2722e-09 -0.00970858 0
1.06944e-08 -0.0097086 0
-6.14999e-09 -0.00970858 0
-1.08772e-08 -0.00970858 0
-4.02373e-09 -0.00970859 0
1.12699e-08 -0.00970858 0
1.2938e-09 -0.00970859 0
7.62423e-09 -0.00970859 0
3.66804e-09 -0.00970857 0
7.03101e-09 -0.00970857 0
-3.83238e-09 -0.00970859 0
2.79971e-09 -0.00970859 0
-1.01214e-08 -0.00970858 0
-9.26092e-10 -0.00970859 0
-1.06546e-08 -0.00970858 0
SCALARS radius double 1
LOOKUP_TABLE default
0.000621415
0.000750874
0.000735541
0.000522882
0.000780242
0.00097475
0.000994168
0.000790412
0.000880848
0.000720838
0.000933918
0.000958934
0.000753488
0.00054522
0.000712397
0.000950783
0.000807753
0.000836475
0.000569299
0.000603945
0.000628319
0.000580291
0.000777192
0.000692678
0.00055675
SCALARS mass double 1
LOOKUP_TABLE default
0.00327549
0.00478242
0.00458909
0.0023191
0.00516383
0.00805935
0.00838365
0.00529932
0.00658136
0.00440747
0.00739829
0.00779994
0.00481578
0.00252149
0.00430484
0.0076679
0.0055344
0.00593499
0.00274913
0.00309392
0.00334869
0.00285631
0.00512354
0.00406984
0.00262926
