# vtk DataFile Version 3.0
DEM2D particles
ASCII
DATASET POLYDATA
POINTS 25 double
0.000436511 -0.000138067 0
0.00259373 -0.000350041 0
0.00503527 0.00044125 0
0.0075525 -0.00100734 0
0.00982669 -0.0008494 0
0.00134532 0.00202572 0
0.00385427 0.00151417 0
0.0049179 0.000623665 0
0.00662312 0.0022598 0
0.00923317 0.00157362 0
0.000767124 0.00376121 0
0.0037611 0.00265377 0
0.00456232 0.00383994 0
0.00622589 0.00405817 0
0.00871364 0.00330747 0
0.00180206 0.005473 0
0.00309208 0.00477614 0
0.0055426 0.00521613 0
0.00726105 0.00635899 0
0.00950038 0.00616398 0
0.000727257 0.00734742 0
0.00319925 0.00669773 0
0.00427968 0.0077688 0
0.00693409 0.00720789 0
0.00824173 0.00763535 0
VERTICES 25 50
1 0
1 1
1 2
1 3
1 4
1 5
1 6
1 7
1 8
1 9
1 10
1 11
1 12
1 13
1 14
1 15
1 16
1 17
1 18
1 19
1 20
1 21
1 22
1 23
1 24
POINT_DATA 25
VECTORS velocity double
-1.68968e-69 -0.00970858 0
-1.21825e-69 -0.00970858 0
1.05757e-70 -0.00970858 0
1.65674e-69 -0.00970858 0
2.47893e-69 -0.00970858 0
1.03548e-69 -0.00970858 0
2.56161e-69 -0.00970858 0
-2.46182e-70 -0.00970858 0
-1.13011e-69 -0.00970858 0
6.99184e-70 -0.00970858 0
-6.98304e-70 -0.00970858 0
2.28225e-69 -0.00970858 0
-1.31244e-69 -0.00970858 0
-2.32126e-69 -0.00970858 0
-8.58685e-70 -0.00970858 0
2.40506e-69 -0.00970858 0
2.76103e-70 -0.00970858 0
1.62705e-69 -0.00970858 0
7.82779e-70 -0.00970858 0
1.50045e-69 -0.00970858 0
-8.1785e-70 -0.00970858 0
5.97473e-70 -0.00970858 0
-2.15995e-69 -0.00970858 0
-1.97633e-70 -0.00970858 0
-2.27374e-69 -0.00970858 0
SCALARS radius double 1
LOOKUP_TABLE default
0.000621415
0.000750874
0.000735541
0.000522882
0.000780242
0.00097475
0.000994168
0.000790412
0.000880848
0.000720838
0.000933918
0.000958934
0.000753488
0.00054522
0.000712397
0.000950783
0.000807753
0.000836475
0.000569299
0.000603945
0.000628319
0.000580291
0.000777192
0.000692678
0.00055675
SCALARS mass double 1
LOOKUP_TABLE default
0.00327549
0.00478242
0.00458909
0.0023191
0.00516383
0.00805935
0.00838365
0.00529932
0.00658136
0.00440747
0.00739829
0.00779994
0.00481578
0.00252149
0.00430484
0.0076679
0.0055344
0.00593499
0.00274913
0.00309392
0.00334869
0.00285631
0.00512354
0.00406984
0.00262926
