# vtk DataFile Version 3.0
DEM2D particles
ASCII
DATASET POLYDATA
POINTS 25 double
0.000436511 -0.000427382 0
0.00259373 -0.000639356 0
0.00503527 0.000151934 0
0.0075525 -0.00129665 0
0.00982669 -0.00113872 0
0.00134532 0.0017364 0
0.00385427 0.00122485 0
0.0049179 0.00033435 0
0.00662312 0.00197049 0
0.00923317 0.0012843 0
0.000767124 0.00347189 0
0.0037611 0.00236445 0
0.00456232 0.00355063 0
0.00622589 0.00376885 0
0.00871364 0.00301815 0
0.00180206 0.00518369 0
0.00309208 0.00448682 0
0.0055426 0.00492682 0
0.00726105 0.00606968 0
0.00950038 0.00587467 0
0.000727257 0.00705811 0
0.00319925 0.00640841 0
0.00427968 0.00747949 0
0.00693409 0.00691858 0
0.00824173 0.00734604 0
VERTICES 25 50
1 0
1 1
1 2
1 3
1 4
1 5
1 6
1 7
1 8
1 9
1 10
1 11
1 12
1 13
1 14
1 15
1 16
1 17
1 18
1 19
1 20
1 21
1 22
1 23
1 24
POINT_DATA 25
VECTORS velocity double
-1.66221e-82 -0.00970858 0
-1.19844e-82 -0.00970858 0
1.04037e-83 -0.00970858 0
1.6298e-82 -0.00970858 0
2.43862e-82 -0.00970858 0
1.01864e-82 -0.00970858 0
2.51996e-82 -0.00970858 0
-2.42179e-83 -0.00970858 0
-1.11174e-82 -0.00970858 0
6.87815e-83 -0.00970858 0
-6.86948e-83 -0.00970858 0
2.24514e-82 -0.00970858 0
-1.2911e-82 -0.00970858 0
-2.28351e-82 -0.00970858 0
-8.44721e-83 -0.00970858 0
2.36595e-82 -0.00970858 0
2.71613e-83 -0.00970858 0
1.60059e-82 -0.00970858 0
7.7005e-83 -0.00970858 0
1.47605e-82 -0.00970858 0
-8.04551e-83 -0.00970858 0
5.87757e-83 -0.00970858 0
-2.12483e-82 -0.00970858 0
-1.94419e-83 -0.00970858 0
-2.23677e-82 -0.00970858 0
SCALARS radius double 1
LOOKUP_TABLE default
0.000621415
0.000750874
0.000735541
0.000522882
0.000780242
0.00097475
0.000994168
0.000790412
0.000880848
0.000720838
0.000933918
0.000958934
0.000753488
0.00054522
0.000712397
0.000950783
0.000807753
0.000836475
0.000569299
0.000603945
0.000628319
0.000580291
0.000777192
0.000692678
0.00055675
SCALARS mass double 1
LOOKUP_TABLE default
0.00327549
0.00478242
0.00458909
0.0023191
0.00516383
0.00805935
0.00838365
0.00529932
0.00658136
0.00440747
0.00739829
0.00779994
0.00481578
0.00252149
0.00430484
0.0076679
0.0055344
0.00593499
0.00274913
0.00309392
0.00334869
0.00285631
0.00512354
0.00406984
0.00262926
