# vtk DataFile Version 3.0
DEM2D particles
ASCII
DATASET POLYDATA
POINTS 25 double
0.000444784 0.00133974 0
0.00259969 0.00113087 0
0.00503475 0.00191055 0
0.00754439 0.000483227 0
0.00981456 0.000638845 0
0.00134025 0.00350112 0
0.00384172 0.00299708 0
0.00491911 0.00211965 0
0.00662865 0.00373176 0
0.00922975 0.00305565 0
0.000770543 0.00524049 0
0.00374993 0.00414931 0
0.00456874 0.00531807 0
0.00623725 0.00553309 0
0.00871784 0.00479341 0
0.00179028 0.00695651 0
0.00309073 0.00626988 0
0.00553464 0.00670342 0
0.00725721 0.0078295 0
0.00949304 0.00763735 0
0.000731261 0.00883278 0
0.00319632 0.00819262 0
0.00429026 0.00924797 0
0.00693506 0.0086953 0
0.00825287 0.00911648 0
VERTICES 25 50
1 0
1 1
1 2
1 3
1 4
1 5
1 6
1 7
1 8
1 9
1 10
1 11
1 12
1 13
1 14
1 15
1 16
1 17
1 18
1 19
1 20
1 21
1 22
1 23
1 24
POINT_DATA 25
VECTORS velocity double
-0.00835665 -0.00398145 0
-0.00602508 -0.00712506 0
0.000523041 0.00460992 0
0.00819373 -0.0168729 0
0.01226 -0.0145307 0
0.00512117 -0.00155247 0
0.0126689 -0.00913886 0
-0.00121754 -0.0223452 0
-0.00558919 0.00191904 0
0.00345794 -0.00825721 0
-0.00345359 -0.00547523 0
0.0112873 -0.0218988 0
-0.00649092 -0.00430758 0
-0.0114802 -0.00107127 0
-0.00424678 -0.0122042 0
0.0118946 -0.00974939 0
0.00136552 -0.020084 0
0.00804688 -0.0135588 0
0.00387138 0.00339007 0
0.00742077 0.000497986 0
-0.00404483 -0.0116117 0
0.00295491 -0.0212469 0
-0.0106824 -0.0053626 0
-0.000977429 -0.013681 0
-0.0112452 -0.00734165 0
SCALARS radius double 1
LOOKUP_TABLE default
0.000621415
0.000750874
0.000735541
0.000522882
0.000780242
0.00097475
0.000994168
0.000790412
0.000880848
0.000720838
0.000933918
0.000958934
0.000753488
0.00054522
0.000712397
0.000950783
0.000807753
0.000836475
0.000569299
0.000603945
0.000628319
0.000580291
0.000777192
0.000692678
0.00055675
SCALARS mass double 1
LOOKUP_TABLE default
0.00327549
0.00478242
0.00458909
0.0023191
0.00516383
0.00805935
0.00838365
0.00529932
0.00658136
0.00440747
0.00739829
0.00779994
0.00481578
0.00252149
0.00430484
0.0076679
0.0055344
0.00593499
0.00274913
0.00309392
0.00334869
0.00285631
0.00512354
0.00406984
0.00262926
