# vtk DataFile Version 3.0
DEM2D particles
ASCII
DATASET POLYDATA
POINTS 25 double
0.000436511 -0.00054971 0
0.00259373 -0.000761685 0
0.00503527 2.9606e-05 0
0.0075525 -0.00141898 0
0.00982669 -0.00126104 0
0.00134532 0.00161408 0
0.00385427 0.00110252 0
0.0049179 0.000212021 0
0.00662312 0.00184816 0
0.00923317 0.00116197 0
0.000767124 0.00334956 0
0.0037611 0.00224212 0
0.00456232 0.0034283 0
0.00622589 0.00364652 0
0.00871364 0.00289583 0
0.00180206 0.00506136 0
0.00309208 0.00436449 0
0.0055426 0.00480449 0
0.00726105 0.00594735 0
0.00950038 0.00575234 0
0.000727257 0.00693578 0
0.00319925 0.00628608 0
0.00427968 0.00735716 0
0.00693409 0.00679625 0
0.00824173 0.00722371 0
VERTICES 25 50
1 0
1 1
1 2
1 3
1 4
1 5
1 6
1 7
1 8
1 9
1 10
1 11
1 12
1 13
1 14
1 15
1 16
1 17
1 18
1 19
1 20
1 21
1 22
1 23
1 24
POINT_DATA 25
VECTORS velocity double
-5.26054e-88 -0.00970858 0
-3.79281e-88 -0.00970858 0
3.29256e-89 -0.00970858 0
5.15799e-88 -0.00970858 0
7.71774e-88 -0.00970858 0
3.2238e-88 -0.00970858 0
7.97514e-88 -0.00970858 0
-7.66447e-89 -0.00970858 0
-3.51842e-88 -0.00970858 0
2.17679e-88 -0.00970858 0
-2.17405e-88 -0.00970858 0
7.1054e-88 -0.00970858 0
-4.08606e-88 -0.00970858 0
-7.22684e-88 -0.00970858 0
-2.67337e-88 -0.00970858 0
7.48773e-88 -0.00970858 0
8.59599e-89 -0.00970858 0
5.06554e-88 -0.00970858 0
2.43705e-88 -0.00970858 0
4.67141e-88 -0.00970858 0
-2.54624e-88 -0.00970858 0
1.86013e-88 -0.00970858 0
-6.72463e-88 -0.00970858 0
-6.15296e-89 -0.00970858 0
-7.07891e-88 -0.00970858 0
SCALARS radius double 1
LOOKUP_TABLE default
0.000621415
0.000750874
0.000735541
0.000522882
0.000780242
0.00097475
0.000994168
0.000790412
0.000880848
0.000720838
0.000933918
0.000958934
0.000753488
0.00054522
0.000712397
0.000950783
0.000807753
0.000836475
0.000569299
0.000603945
0.000628319
0.000580291
0.000777192
0.000692678
0.00055675
SCALARS mass double 1
LOOKUP_TABLE default
0.00327549
0.00478242
0.00458909
0.0023191
0.00516383
0.00805935
0.00838365
0.00529932
0.00658136
0.00440747
0.00739829
0.00779994
0.00481578
0.00252149
0.00430484
0.0076679
0.0055344
0.00593499
0.00274913
0.00309392
0.00334869
0.00285631
0.00512354
0.00406984
0.00262926
