# vtk DataFile Version 3.0
DEM2D particles
ASCII
DATASET POLYDATA
POINTS 25 double
0.000436511 0.000834734 0
0.00259373 0.000622759 0
0.00503527 0.00141405 0
0.0075525 -3.45371e-05 0
0.00982669 0.0001234 0
0.00134532 0.00299852 0
0.00385427 0.00248697 0
0.0049179 0.00159647 0
0.00662312 0.0032326 0
0.00923317 0.00254642 0
0.000767124 0.00473401 0
0.0037611 0.00362657 0
0.00456232 0.00481274 0
0.00622589 0.00503097 0
0.00871364 0.00428027 0
0.00180206 0.0064458 0
0.00309208 0.00574894 0
0.0055426 0.00618893 0
0.00726105 0.0073318 0
0.00950038 0.00713678 0
0.000727257 0.00832022 0
0.00319925 0.00767053 0
0.00427968 0.0087416 0
0.00693409 0.00818069 0
0.00824173 0.00860815 0
VERTICES 25 50
1 0
1 1
1 2
1 3
1 4
1 5
1 6
1 7
1 8
1 9
1 10
1 11
1 12
1 13
1 14
1 15
1 16
1 17
1 18
1 19
1 20
1 21
1 22
1 23
1 24
POINT_DATA 25
VECTORS velocity double
-9.18662e-26 -0.00970858 0
-6.62348e-26 -0.00970858 0
5.74988e-27 -0.00970858 0
9.00752e-26 -0.00970858 0
1.34777e-25 -0.00970858 0
5.6298e-26 -0.00970858 0
1.39272e-25 -0.00970858 0
-1.33846e-26 -0.00970858 0
-6.1443e-26 -0.00970858 0
3.80138e-26 -0.00970858 0
-3.7966e-26 -0.00970858 0
1.24083e-25 -0.00970858 0
-7.13559e-26 -0.00970858 0
-1.26204e-25 -0.00970858 0
-4.66857e-26 -0.00970858 0
1.3076e-25 -0.00970858 0
1.50114e-26 -0.00970858 0
8.84609e-26 -0.00970858 0
4.25588e-26 -0.00970858 0
8.15779e-26 -0.00970858 0
-4.44656e-26 -0.00970858 0
3.24839e-26 -0.00970858 0
-1.17434e-25 -0.00970858 0
-1.07451e-26 -0.00970858 0
-1.23621e-25 -0.00970858 0
SCALARS radius double 1
LOOKUP_TABLE default
0.000621415
0.000750874
0.000735541
0.000522882
0.000780242
0.00097475
0.000994168
0.000790412
0.000880848
0.000720838
0.000933918
0.000958934
0.000753488
0.00054522
0.000712397
0.000950783
0.000807753
0.000836475
0.000569299
0.000603945
0.000628319
0.000580291
0.000777192
0.000692678
0.00055675
SCALARS mass double 1
LOOKUP_TABLE default
0.00327549
0.00478242
0.00458909
0.0023191
0.00516383
0.00805935
0.00838365
0.00529932
0.00658136
0.00440747
0.00739829
0.00779994
0.00481578
0.00252149
0.00430484
0.0076679
0.0055344
0.00593499
0.00274913
0.00309392
0.00334869
0.00285631
0.00512354
0.00406984
0.00262926
