# vtk DataFile Version 3.0
DEM2D particles
ASCII
DATASET POLYDATA
POINTS 25 double
0.000436511 -0.000283695 0
0.00259373 -0.000495669 0
0.00503527 0.000295621 0
0.0075525 -0.00115297 0
0.00982669 -0.000995029 0
0.00134532 0.00188009 0
0.00385427 0.00136854 0
0.0049179 0.000478037 0
0.00662312 0.00211417 0
0.00923317 0.00142799 0
0.000767124 0.00361558 0
0.0037611 0.00250814 0
0.00456232 0.00369431 0
0.00622589 0.00391254 0
0.00871364 0.00316184 0
0.00180206 0.00532737 0
0.00309208 0.00463051 0
0.0055426 0.0050705 0
0.00726105 0.00621337 0
0.00950038 0.00601835 0
0.000727257 0.0072018 0
0.00319925 0.0065521 0
0.00427968 0.00762317 0
0.00693409 0.00706226 0
0.00824173 0.00748973 0
VERTICES 25 50
1 0
1 1
1 2
1 3
1 4
1 5
1 6
1 7
1 8
1 9
1 10
1 11
1 12
1 13
1 14
1 15
1 16
1 17
1 18
1 19
1 20
1 21
1 22
1 23
1 24
POINT_DATA 25
VECTORS velocity double
-4.79289e-76 -0.00970858 0
-3.45564e-76 -0.00970858 0
2.99986e-77 -0.00970858 0
4.69945e-76 -0.00970858 0
7.03164e-76 -0.00970858 0
2.93721e-76 -0.00970858 0
7.26616e-76 -0.00970858 0
-6.98311e-77 -0.00970858 0
-3.20564e-76 -0.00970858 0
1.98328e-76 -0.00970858 0
-1.98078e-76 -0.00970858 0
6.47374e-76 -0.00970858 0
-3.72282e-76 -0.00970858 0
-6.58438e-76 -0.00970858 0
-2.43571e-76 -0.00970858 0
6.82208e-76 -0.00970858 0
7.83182e-77 -0.00970858 0
4.61523e-76 -0.00970858 0
2.2204e-76 -0.00970858 0
4.25613e-76 -0.00970858 0
-2.31988e-76 -0.00970858 0
1.69477e-76 -0.00970858 0
-6.12682e-76 -0.00970858 0
-5.60597e-77 -0.00970858 0
-6.4496e-76 -0.00970858 0
SCALARS radius double 1
LOOKUP_TABLE default
0.000621415
0.000750874
0.000735541
0.000522882
0.000780242
0.00097475
0.000994168
0.000790412
0.000880848
0.000720838
0.000933918
0.000958934
0.000753488
0.00054522
0.000712397
0.000950783
0.000807753
0.000836475
0.000569299
0.000603945
0.000628319
0.000580291
0.000777192
0.000692678
0.00055675
SCALARS mass double 1
LOOKUP_TABLE default
0.00327549
0.00478242
0.00458909
0.0023191
0.00516383
0.00805935
0.00838365
0.00529932
0.00658136
0.00440747
0.00739829
0.00779994
0.00481578
0.00252149
0.00430484
0.0076679
0.0055344
0.00593499
0.00274913
0.00309392
0.00334869
0.00285631
0.00512354
0.00406984
0.00262926
