# vtk DataFile Version 3.0
DEM2D particles
ASCII
DATASET POLYDATA
POINTS 25 double
0.000436511 0.000395906 0
0.00259373 0.000183931 0
0.00503527 0.000975222 0
0.0075525 -0.000473365 0
0.00982669 -0.000315428 0
0.00134532 0.00255969 0
0.00385427 0.00204814 0
0.0049179 0.00115764 0
0.00662312 0.00279378 0
0.00923317 0.00210759 0
0.000767124 0.00429518 0
0.0037611 0.00318774 0
0.00456232 0.00437391 0
0.00622589 0.00459214 0
0.00871364 0.00384144 0
0.00180206 0.00600697 0
0.00309208 0.00531011 0
0.0055426 0.00575011 0
0.00726105 0.00689297 0
0.00950038 0.00669795 0
0.000727257 0.0078814 0
0.00319925 0.0072317 0
0.00427968 0.00830277 0
0.00693409 0.00774187 0
0.00824173 0.00816933 0
VERTICES 25 50
1 0
1 1
1 2
1 3
1 4
1 5
1 6
1 7
1 8
1 9
1 10
1 11
1 12
1 13
1 14
1 15
1 16
1 17
1 18
1 19
1 20
1 21
1 22
1 23
1 24
POINT_DATA 25
VECTORS velocity double
-1.71489e-45 -0.00970858 0
-1.23642e-45 -0.00970858 0
1.07334e-46 -0.00970858 0
1.68145e-45 -0.00970858 0
2.51591e-45 -0.00970858 0
1.05093e-45 -0.00970858 0
2.59982e-45 -0.00970858 0
-2.49854e-46 -0.00970858 0
-1.14697e-45 -0.00970858 0
7.09612e-46 -0.00970858 0
-7.08719e-46 -0.00970858 0
2.31629e-45 -0.00970858 0
-1.33202e-45 -0.00970858 0
-2.35588e-45 -0.00970858 0
-8.71492e-46 -0.00970858 0
2.44093e-45 -0.00970858 0
2.80221e-46 -0.00970858 0
1.65132e-45 -0.00970858 0
7.94454e-46 -0.00970858 0
1.52283e-45 -0.00970858 0
-8.30049e-46 -0.00970858 0
6.06384e-46 -0.00970858 0
-2.19216e-45 -0.00970858 0
-2.0058e-46 -0.00970858 0
-2.30765e-45 -0.00970858 0
SCALARS radius double 1
LOOKUP_TABLE default
0.000621415
0.000750874
0.000735541
0.000522882
0.000780242
0.00097475
0.000994168
0.000790412
0.000880848
0.000720838
0.000933918
0.000958934
0.000753488
0.00054522
0.000712397
0.000950783
0.000807753
0.000836475
0.000569299
0.000603945
0.000628319
0.000580291
0.000777192
0.000692678
0.00055675
SCALARS mass double 1
LOOKUP_TABLE default
0.00327549
0.00478242
0.00458909
0.0023191
0.00516383
0.00805935
0.00838365
0.00529932
0.00658136
0.00440747
0.00739829
0.00779994
0.00481578
0.00252149
0.00430484
0.0076679
0.0055344
0.00593499
0.00274913
0.00309392
0.00334869
0.00285631
0.00512354
0.00406984
0.00262926
