# vtk DataFile Version 3.0
DEM2D particles
ASCII
DATASET POLYDATA
POINTS 25 double
0.000436511 -0.000155542 0
0.00259373 -0.000367516 0
0.00503527 0.000423774 0
0.0075525 -0.00102481 0
0.00982669 -0.000866876 0
0.00134532 0.00200824 0
0.00385427 0.00149669 0
0.0049179 0.00060619 0
0.00662312 0.00224233 0
0.00923317 0.00155614 0
0.000767124 0.00374373 0
0.0037611 0.00263629 0
0.00456232 0.00382247 0
0.00622589 0.00404069 0
0.00871364 0.00329 0
0.00180206 0.00545553 0
0.00309208 0.00475866 0
0.0055426 0.00519866 0
0.00726105 0.00634152 0
0.00950038 0.00614651 0
0.000727257 0.00732995 0
0.00319925 0.00668025 0
0.00427968 0.00775133 0
0.00693409 0.00719042 0
0.00824173 0.00761788 0
VERTICES 25 50
1 0
1 1
1 2
1 3
1 4
1 5
1 6
1 7
1 8
1 9
1 10
1 11
1 12
1 13
1 14
1 15
1 16
1 17
1 18
1 19
1 20
1 21
1 22
1 23
1 24
POINT_DATA 25
VECTORS velocity double
-2.76784e-70 -0.00970858 0
-1.99559e-70 -0.00970858 0
1.73238e-71 -0.00970858 0
2.71388e-70 -0.00970858 0
4.06069e-70 -0.00970858 0
1.6962e-70 -0.00970858 0
4.19612e-70 -0.00970858 0
-4.03266e-71 -0.00970858 0
-1.85122e-70 -0.00970858 0
1.14532e-70 -0.00970858 0
-1.14388e-70 -0.00970858 0
3.73851e-70 -0.00970858 0
-2.14988e-70 -0.00970858 0
-3.8024e-70 -0.00970858 0
-1.40659e-70 -0.00970858 0
3.93967e-70 -0.00970858 0
4.52278e-71 -0.00970858 0
2.66524e-70 -0.00970858 0
1.28225e-70 -0.00970858 0
2.45786e-70 -0.00970858 0
-1.3397e-70 -0.00970858 0
9.78708e-71 -0.00970858 0
-3.53817e-70 -0.00970858 0
-3.23738e-71 -0.00970858 0
-3.72457e-70 -0.00970858 0
SCALARS radius double 1
LOOKUP_TABLE default
0.000621415
0.000750874
0.000735541
0.000522882
0.000780242
0.00097475
0.000994168
0.000790412
0.000880848
0.000720838
0.000933918
0.000958934
0.000753488
0.00054522
0.000712397
0.000950783
0.000807753
0.000836475
0.000569299
0.000603945
0.000628319
0.000580291
0.000777192
0.000692678
0.00055675
SCALARS mass double 1
LOOKUP_TABLE default
0.00327549
0.00478242
0.00458909
0.0023191
0.00516383
0.00805935
0.00838365
0.00529932
0.00658136
0.00440747
0.00739829
0.00779994
0.00481578
0.00252149
0.00430484
0.0076679
0.0055344
0.00593499
0.00274913
0.00309392
0.00334869
0.00285631
0.00512354
0.00406984
0.00262926
