# vtk DataFile Version 3.0
DEM2D particles
ASCII
DATASET POLYDATA
POINTS 25 double
0.000436511 0.000151249 0
0.00259373 -6.07249e-05 0
0.00503527 0.000730566 0
0.0075525 -0.000718021 0
0.00982669 -0.000560084 0
0.00134532 0.00231504 0
0.00385427 0.00180348 0
0.0049179 0.000912981 0
0.00662312 0.00254912 0
0.00923317 0.00186293 0
0.000767124 0.00405052 0
0.0037611 0.00294308 0
0.00456232 0.00412926 0
0.00622589 0.00434748 0
0.00871364 0.00359679 0
0.00180206 0.00576232 0
0.00309208 0.00506545 0
0.0055426 0.00550545 0
0.00726105 0.00664831 0
0.00950038 0.0064533 0
0.000727257 0.00763674 0
0.00319925 0.00698704 0
0.00427968 0.00805812 0
0.00693409 0.00749721 0
0.00824173 0.00792467 0
VERTICES 25 50
1 0
1 1
1 2
1 3
1 4
1 5
1 6
1 7
1 8
1 9
1 10
1 11
1 12
1 13
1 14
1 15
1 16
1 17
1 18
1 19
1 20
1 21
1 22
1 23
1 24
POINT_DATA 25
VECTORS velocity double
-1.71761e-56 -0.00970858 0
-1.23839e-56 -0.00970858 0
1.07505e-57 -0.00970858 0
1.68413e-56 -0.00970858 0
2.51991e-56 -0.00970858 0
1.0526e-56 -0.00970858 0
2.60395e-56 -0.00970858 0
-2.50252e-57 -0.00970858 0
-1.14879e-56 -0.00970858 0
7.10741e-57 -0.00970858 0
-7.09846e-57 -0.00970858 0
2.31997e-56 -0.00970858 0
-1.33413e-56 -0.00970858 0
-2.35963e-56 -0.00970858 0
-8.72878e-57 -0.00970858 0
2.44481e-56 -0.00970858 0
2.80667e-57 -0.00970858 0
1.65395e-56 -0.00970858 0
7.95718e-57 -0.00970858 0
1.52526e-56 -0.00970858 0
-8.31369e-57 -0.00970858 0
6.07349e-57 -0.00970858 0
-2.19565e-56 -0.00970858 0
-2.009e-57 -0.00970858 0
-2.31133e-56 -0.00970858 0
SCALARS radius double 1
LOOKUP_TABLE default
0.000621415
0.000750874
0.000735541
0.000522882
0.000780242
0.00097475
0.000994168
0.000790412
0.000880848
0.000720838
0.000933918
0.000958934
0.000753488
0.00054522
0.000712397
0.000950783
0.000807753
0.000836475
0.000569299
0.000603945
0.000628319
0.000580291
0.000777192
0.000692678
0.00055675
SCALARS mass double 1
LOOKUP_TABLE default
0.00327549
0.00478242
0.00458909
0.0023191
0.00516383
0.00805935
0.00838365
0.00529932
0.00658136
0.00440747
0.00739829
0.00779994
0.00481578
0.00252149
0.00430484
0.0076679
0.0055344
0.00593499
0.00274913
0.00309392
0.00334869
0.00285631
0.00512354
0.00406984
0.00262926
