# vtk DataFile Version 3.0
DEM2D particles
ASCII
DATASET POLYDATA
POINTS 25 double
0.000436511 -0.000316704 0
0.00259373 -0.000528679 0
0.00503527 0.000262612 0
0.0075525 -0.00118598 0
0.00982669 -0.00102804 0
0.00134532 0.00184708 0
0.00385427 0.00133553 0
0.0049179 0.000445027 0
0.00662312 0.00208117 0
0.00923317 0.00139498 0
0.000767124 0.00358257 0
0.0037611 0.00247513 0
0.00456232 0.0036613 0
0.00622589 0.00387953 0
0.00871364 0.00312883 0
0.00180206 0.00529436 0
0.00309208 0.0045975 0
0.0055426 0.0050375 0
0.00726105 0.00618036 0
0.00950038 0.00598534 0
0.000727257 0.00716879 0
0.00319925 0.00651909 0
0.00427968 0.00759016 0
0.00693409 0.00702926 0
0.00824173 0.00745672 0
VERTICES 25 50
1 0
1 1
1 2
1 3
1 4
1 5
1 6
1 7
1 8
1 9
1 10
1 11
1 12
1 13
1 14
1 15
1 16
1 17
1 18
1 19
1 20
1 21
1 22
1 23
1 24
POINT_DATA 25
VECTORS velocity double
-1.5724e-77 -0.00970858 0
-1.13369e-77 -0.00970858 0
9.84163e-79 -0.00970858 0
1.54175e-77 -0.00970858 0
2.30687e-77 -0.00970858 0
9.63609e-78 -0.00970858 0
2.38381e-77 -0.00970858 0
-2.29095e-78 -0.00970858 0
-1.05167e-77 -0.00970858 0
6.50653e-78 -0.00970858 0
-6.49834e-78 -0.00970858 0
2.12384e-77 -0.00970858 0
-1.22134e-77 -0.00970858 0
-2.16014e-77 -0.00970858 0
-7.99083e-78 -0.00970858 0
2.23812e-77 -0.00970858 0
2.56938e-78 -0.00970858 0
1.51412e-77 -0.00970858 0
7.28446e-78 -0.00970858 0
1.39631e-77 -0.00970858 0
-7.61083e-78 -0.00970858 0
5.56002e-78 -0.00970858 0
-2.01003e-77 -0.00970858 0
-1.83915e-78 -0.00970858 0
-2.11592e-77 -0.00970858 0
SCALARS radius double 1
LOOKUP_TABLE default
0.000621415
0.000750874
0.000735541
0.000522882
0.000780242
0.00097475
0.000994168
0.000790412
0.000880848
0.000720838
0.000933918
0.000958934
0.000753488
0.00054522
0.000712397
0.000950783
0.000807753
0.000836475
0.000569299
0.000603945
0.000628319
0.000580291
0.000777192
0.000692678
0.00055675
SCALARS mass double 1
LOOKUP_TABLE default
0.00327549
0.00478242
0.00458909
0.0023191
0.00516383
0.00805935
0.00838365
0.00529932
0.00658136
0.00440747
0.00739829
0.00779994
0.00481578
0.00252149
0.00430484
0.0076679
0.0055344
0.00593499
0.00274913
0.00309392
0.00334869
0.00285631
0.00512354
0.00406984
0.00262926
