# vtk DataFile Version 3.0
DEM2D particles
ASCII
DATASET POLYDATA
POINTS 25 double
0.000436511 -8.95236e-05 0
0.00259373 -0.000301498 0
0.00503527 0.000489793 0
0.0075525 -0.000958794 0
0.00982669 -0.000800857 0
0.00134532 0.00207426 0
0.00385427 0.00156271 0
0.0049179 0.000672208 0
0.00662312 0.00230835 0
0.00923317 0.00162216 0
0.000767124 0.00380975 0
0.0037611 0.00270231 0
0.00456232 0.00388849 0
0.00622589 0.00410671 0
0.00871364 0.00335601 0
0.00180206 0.00552154 0
0.00309208 0.00482468 0
0.0055426 0.00526468 0
0.00726105 0.00640754 0
0.00950038 0.00621252 0
0.000727257 0.00739597 0
0.00319925 0.00674627 0
0.00427968 0.00781735 0
0.00693409 0.00725644 0
0.00824173 0.0076839 0
VERTICES 25 50
1 0
1 1
1 2
1 3
1 4
1 5
1 6
1 7
1 8
1 9
1 10
1 11
1 12
1 13
1 14
1 15
1 16
1 17
1 18
1 19
1 20
1 21
1 22
1 23
1 24
POINT_DATA 25
VECTORS velocity double
-2.57163e-67 -0.00970858 0
-1.85412e-67 -0.00970858 0
1.60958e-68 -0.00970858 0
2.52149e-67 -0.00970858 0
3.77283e-67 -0.00970858 0
1.57596e-67 -0.00970858 0
3.89866e-67 -0.00970858 0
-3.74679e-68 -0.00970858 0
-1.71999e-67 -0.00970858 0
1.06413e-67 -0.00970858 0
-1.06279e-67 -0.00970858 0
3.47349e-67 -0.00970858 0
-1.99748e-67 -0.00970858 0
-3.53285e-67 -0.00970858 0
-1.30688e-67 -0.00970858 0
3.66039e-67 -0.00970858 0
4.20217e-68 -0.00970858 0
2.4763e-67 -0.00970858 0
1.19136e-67 -0.00970858 0
2.28363e-67 -0.00970858 0
-1.24473e-67 -0.00970858 0
9.09329e-68 -0.00970858 0
-3.28735e-67 -0.00970858 0
-3.00789e-68 -0.00970858 0
-3.46054e-67 -0.00970858 0
SCALARS radius double 1
LOOKUP_TABLE default
0.000621415
0.000750874
0.000735541
0.000522882
0.000780242
0.00097475
0.000994168
0.000790412
0.000880848
0.000720838
0.000933918
0.000958934
0.000753488
0.00054522
0.000712397
0.000950783
0.000807753
0.000836475
0.000569299
0.000603945
0.000628319
0.000580291
0.000777192
0.000692678
0.00055675
SCALARS mass double 1
LOOKUP_TABLE default
0.00327549
0.00478242
0.00458909
0.0023191
0.00516383
0.00805935
0.00838365
0.00529932
0.00658136
0.00440747
0.00739829
0.00779994
0.00481578
0.00252149
0.00430484
0.0076679
0.0055344
0.00593499
0.00274913
0.00309392
0.00334869
0.00285631
0.00512354
0.00406984
0.00262926
