# vtk DataFile Version 3.0
DEM2D particles
ASCII
DATASET POLYDATA
POINTS 25 double
0.000437866 0.001327 0
0.00259471 0.00111554 0
0.00503518 0.00190492 0
0.00755117 0.000459821 0
0.00982471 0.000617378 0
0.00134449 0.00349039 0
0.00385221 0.00298007 0
0.0049181 0.00209171 0
0.00662403 0.00372391 0
0.00923261 0.00303938 0
0.000767684 0.00522652 0
0.00375927 0.00412174 0
0.00456337 0.00530506 0
0.00622775 0.00552276 0
0.00871433 0.00477387 0
0.00180013 0.006939 0
0.00309186 0.00624382 0
0.0055413 0.00668275 0
0.00726042 0.00782287 0
0.00949918 0.00762832 0
0.000727913 0.00881373 0
0.00319877 0.00816559 0
0.00428142 0.00923409 0
0.00693425 0.00867453 0
0.00824356 0.00910097 0
VERTICES 25 50
1 0
1 1
1 2
1 3
1 4
1 5
1 6
1 7
1 8
1 9
1 10
1 11
1 12
1 13
1 14
1 15
1 16
1 17
1 18
1 19
1 20
1 21
1 22
1 23
1 24
POINT_DATA 25
VECTORS velocity double
-0.00136889 -0.00877043 0
-0.000986956 -0.00928538 0
8.56782e-05 -0.0073631 0
0.0013422 -0.0108822 0
0.00200829 -0.0104985 0
0.000838889 -0.00837255 0
0.00207527 -0.00961526 0
-0.000199443 -0.0117786 0
-0.000915554 -0.00780389 0
0.000566439 -0.00947084 0
-0.000565726 -0.00901513 0
0.00184895 -0.0117054 0
-0.00106326 -0.00882386 0
-0.00188055 -0.00829372 0
-0.000695657 -0.0101174 0
0.00194844 -0.00971527 0
0.000223683 -0.0114082 0
0.00131814 -0.0103393 0
0.000634163 -0.00756292 0
0.00121558 -0.00803667 0
-0.000662576 -0.0100203 0
0.000484038 -0.0115986 0
-0.00174987 -0.00899668 0
-0.000160111 -0.0103593 0
-0.00184206 -0.00932086 0
SCALARS radius double 1
LOOKUP_TABLE default
0.000621415
0.000750874
0.000735541
0.000522882
0.000780242
0.00097475
0.000994168
0.000790412
0.000880848
0.000720838
0.000933918
0.000958934
0.000753488
0.00054522
0.000712397
0.000950783
0.000807753
0.000836475
0.000569299
0.000603945
0.000628319
0.000580291
0.000777192
0.000692678
0.00055675
SCALARS mass double 1
LOOKUP_TABLE default
0.00327549
0.00478242
0.00458909
0.0023191
0.00516383
0.00805935
0.00838365
0.00529932
0.00658136
0.00440747
0.00739829
0.00779994
0.00481578
0.00252149
0.00430484
0.0076679
0.0055344
0.00593499
0.00274913
0.00309392
0.00334869
0.00285631
0.00512354
0.00406984
0.00262926
