# vtk DataFile Version 3.0
DEM2D particles
ASCII
DATASET POLYDATA
POINTS 25 double
0.000436512 0.00125997 0
0.00259373 0.00104799 0
0.00503527 0.00183928 0
0.0075525 0.0003907 0
0.00982669 0.000548637 0
0.00134532 0.00342375 0
0.00385426 0.0029122 0
0.0049179 0.0020217 0
0.00662312 0.00365784 0
0.00923317 0.00297165 0
0.000767125 0.00515924 0
0.0037611 0.0040518 0
0.00456232 0.00523798 0
0.00622589 0.0054562 0
0.00871364 0.00470551 0
0.00180205 0.00687104 0
0.00309208 0.00617418 0
0.0055426 0.00661417 0
0.00726105 0.00775703 0
0.00950038 0.00756202 0
0.000727257 0.00874546 0
0.00319925 0.00809576 0
0.00427968 0.00916684 0
0.00693409 0.00860593 0
0.00824174 0.00903339 0
VERTICES 25 50
1 0
1 1
1 2
1 3
1 4
1 5
1 6
1 7
1 8
1 9
1 10
1 11
1 12
1 13
1 14
1 15
1 16
1 17
1 18
1 19
1 20
1 21
1 22
1 23
1 24
POINT_DATA 25
VECTORS velocity double
-1.20504e-06 -0.00970776 0
-8.68828e-07 -0.00970821 0
7.54235e-08 -0.00970652 0
1.18155e-06 -0.00970962 0
1.76792e-06 -0.00970928 0
7.38483e-07 -0.00970741 0
1.82688e-06 -0.0097085 0
-1.75572e-07 -0.00971041 0
-8.05972e-07 -0.00970691 0
4.98642e-07 -0.00970837 0
-4.98015e-07 -0.00970797 0
1.62765e-06 -0.00971034 0
-9.36003e-07 -0.0097078 0
-1.65547e-06 -0.00970734 0
-6.12395e-07 -0.00970894 0
1.71523e-06 -0.00970859 0
1.9691e-07 -0.00971008 0
1.16038e-06 -0.00970914 0
5.58261e-07 -0.00970669 0
1.07009e-06 -0.00970711 0
-5.83273e-07 -0.00970886 0
4.26104e-07 -0.00971025 0
-1.54043e-06 -0.00970796 0
-1.40947e-07 -0.00970916 0
-1.62158e-06 -0.00970824 0
SCALARS radius double 1
LOOKUP_TABLE default
0.000621415
0.000750874
0.000735541
0.000522882
0.000780242
0.00097475
0.000994168
0.000790412
0.000880848
0.000720838
0.000933918
0.000958934
0.000753488
0.00054522
0.000712397
0.000950783
0.000807753
0.000836475
0.000569299
0.000603945
0.000628319
0.000580291
0.000777192
0.000692678
0.00055675
SCALARS mass double 1
LOOKUP_TABLE default
0.00327549
0.00478242
0.00458909
0.0023191
0.00516383
0.00805935
0.00838365
0.00529932
0.00658136
0.00440747
0.00739829
0.00779994
0.00481578
0.00252149
0.00430484
0.0076679
0.0055344
0.00593499
0.00274913
0.00309392
0.00334869
0.00285631
0.00512354
0.00406984
0.00262926
