# vtk DataFile Version 3.0
DEM2D particles
ASCII
DATASET POLYDATA
POINTS 25 double
0.000436511 0.00123279 0
0.00259373 0.00102081 0
0.00503527 0.0018121 0
0.0075525 0.000363515 0
0.00982669 0.000521452 0
0.00134532 0.00339657 0
0.00385427 0.00288502 0
0.0049179 0.00199452 0
0.00662312 0.00363066 0
0.00923317 0.00294447 0
0.000767124 0.00513206 0
0.0037611 0.00402462 0
0.00456232 0.00521079 0
0.00622589 0.00542902 0
0.00871364 0.00467832 0
0.00180206 0.00684385 0
0.00309208 0.00614699 0
0.0055426 0.00658698 0
0.00726105 0.00772985 0
0.00950038 0.00753483 0
0.000727257 0.00871828 0
0.00319925 0.00806858 0
0.00427968 0.00913965 0
0.00693409 0.00857875 0
0.00824173 0.00900621 0
VERTICES 25 50
1 0
1 1
1 2
1 3
1 4
1 5
1 6
1 7
1 8
1 9
1 10
1 11
1 12
1 13
1 14
1 15
1 16
1 17
1 18
1 19
1 20
1 21
1 22
1 23
1 24
POINT_DATA 25
VECTORS velocity double
-7.22533e-08 -0.00970853 0
-5.20941e-08 -0.00970856 0
4.52232e-09 -0.00970846 0
7.08447e-08 -0.00970865 0
1.06003e-07 -0.00970863 0
4.42787e-08 -0.00970851 0
1.09538e-07 -0.00970858 0
-1.05271e-08 -0.00970869 0
-4.83253e-08 -0.00970848 0
2.98981e-08 -0.00970857 0
-2.98605e-08 -0.00970855 0
9.75923e-08 -0.00970869 0
-5.61218e-08 -0.00970854 0
-9.92602e-08 -0.00970851 0
-3.67186e-08 -0.00970861 0
1.02844e-07 -0.00970858 0
1.18066e-08 -0.00970867 0
6.9575e-08 -0.00970862 0
3.34728e-08 -0.00970847 0
6.41615e-08 -0.0097085 0
-3.49725e-08 -0.0097086 0
2.55488e-08 -0.00970868 0
-9.23625e-08 -0.00970855 0
-8.45106e-09 -0.00970862 0
-9.72284e-08 -0.00970856 0
SCALARS radius double 1
LOOKUP_TABLE default
0.000621415
0.000750874
0.000735541
0.000522882
0.000780242
0.00097475
0.000994168
0.000790412
0.000880848
0.000720838
0.000933918
0.000958934
0.000753488
0.00054522
0.000712397
0.000950783
0.000807753
0.000836475
0.000569299
0.000603945
0.000628319
0.000580291
0.000777192
0.000692678
0.00055675
SCALARS mass double 1
LOOKUP_TABLE default
0.00327549
0.00478242
0.00458909
0.0023191
0.00516383
0.00805935
0.00838365
0.00529932
0.00658136
0.00440747
0.00739829
0.00779994
0.00481578
0.00252149
0.00430484
0.0076679
0.0055344
0.00593499
0.00274913
0.00309392
0.00334869
0.00285631
0.00512354
0.00406984
0.00262926
