# vtk DataFile Version 3.0
DEM2D particles
ASCII
DATASET POLYDATA
POINTS 25 double
0.000436511 0.00116483 0
0.00259373 0.000952851 0
0.00503527 0.00174414 0
0.0075525 0.000295555 0
0.00982669 0.000453492 0
0.00134532 0.00332861 0
0.00385427 0.00281706 0
0.0049179 0.00192656 0
0.00662312 0.0035627 0
0.00923317 0.00287651 0
0.000767124 0.0050641 0
0.0037611 0.00395666 0
0.00456232 0.00514283 0
0.00622589 0.00536106 0
0.00871364 0.00461036 0
0.00180206 0.00677589 0
0.00309208 0.00607903 0
0.0055426 0.00651902 0
0.00726105 0.00766189 0
0.00950038 0.00746687 0
0.000727257 0.00865032 0
0.00319925 0.00800062 0
0.00427968 0.00907169 0
0.00693409 0.00851079 0
0.00824173 0.00893825 0
VERTICES 25 50
1 0
1 1
1 2
1 3
1 4
1 5
1 6
1 7
1 8
1 9
1 10
1 11
1 12
1 13
1 14
1 15
1 16
1 17
1 18
1 19
1 20
1 21
1 22
1 23
1 24
POINT_DATA 25
VECTORS velocity double
-6.36054e-11 -0.00970858 0
-4.5859e-11 -0.00970858 0
3.98105e-12 -0.00970858 0
6.23654e-11 -0.00970858 0
9.33154e-11 -0.00970858 0
3.89791e-11 -0.00970858 0
9.64277e-11 -0.00970858 0
-9.26713e-12 -0.00970858 0
-4.25413e-11 -0.00970858 0
2.63196e-11 -0.00970858 0
-2.62865e-11 -0.00970858 0
8.59116e-11 -0.00970858 0
-4.94047e-11 -0.00970858 0
-8.73799e-11 -0.00970858 0
-3.23238e-11 -0.00970858 0
9.05344e-11 -0.00970858 0
1.03934e-11 -0.00970858 0
6.12477e-11 -0.00970858 0
2.94664e-11 -0.00970858 0
5.64821e-11 -0.00970858 0
-3.07866e-11 -0.00970858 0
2.24909e-11 -0.00970858 0
-8.13078e-11 -0.00970858 0
-7.43956e-12 -0.00970858 0
-8.55913e-11 -0.00970858 0
SCALARS radius double 1
LOOKUP_TABLE default
0.000621415
0.000750874
0.000735541
0.000522882
0.000780242
0.00097475
0.000994168
0.000790412
0.000880848
0.000720838
0.000933918
0.000958934
0.000753488
0.00054522
0.000712397
0.000950783
0.000807753
0.000836475
0.000569299
0.000603945
0.000628319
0.000580291
0.000777192
0.000692678
0.00055675
SCALARS mass double 1
LOOKUP_TABLE default
0.00327549
0.00478242
0.00458909
0.0023191
0.00516383
0.00805935
0.00838365
0.00529932
0.00658136
0.00440747
0.00739829
0.00779994
0.00481578
0.00252149
0.00430484
0.0076679
0.0055344
0.00593499
0.00274913
0.00309392
0.00334869
0.00285631
0.00512354
0.00406984
0.00262926
