# vtk DataFile Version 3.0
DEM2D particles
ASCII
DATASET POLYDATA
POINTS 25 double
0.000436511 0.000409498 0
0.00259373 0.000197523 0
0.00503527 0.000988814 0
0.0075525 -0.000459773 0
0.00982669 -0.000301836 0
0.00134532 0.00257328 0
0.00385427 0.00206173 0
0.0049179 0.00117123 0
0.00662312 0.00280737 0
0.00923317 0.00212118 0
0.000767124 0.00430877 0
0.0037611 0.00320133 0
0.00456232 0.00438751 0
0.00622589 0.00460573 0
0.00871364 0.00385503 0
0.00180206 0.00602057 0
0.00309208 0.0053237 0
0.0055426 0.0057637 0
0.00726105 0.00690656 0
0.00950038 0.00671155 0
0.000727257 0.00789499 0
0.00319925 0.00724529 0
0.00427968 0.00831637 0
0.00693409 0.00775546 0
0.00824173 0.00818292 0
VERTICES 25 50
1 0
1 1
1 2
1 3
1 4
1 5
1 6
1 7
1 8
1 9
1 10
1 11
1 12
1 13
1 14
1 15
1 16
1 17
1 18
1 19
1 20
1 21
1 22
1 23
1 24
POINT_DATA 25
VECTORS velocity double
-7.00338e-45 -0.00970858 0
-5.04939e-45 -0.00970858 0
4.3834e-46 -0.00970858 0
6.86685e-45 -0.00970858 0
1.02747e-44 -0.00970858 0
4.29186e-45 -0.00970858 0
1.06173e-44 -0.00970858 0
-1.02037e-45 -0.00970858 0
-4.68409e-45 -0.00970858 0
2.89797e-45 -0.00970858 0
-2.89432e-45 -0.00970858 0
9.45945e-45 -0.00970858 0
-5.43979e-45 -0.00970858 0
-9.62112e-45 -0.00970858 0
-3.55907e-45 -0.00970858 0
9.96845e-45 -0.00970858 0
1.14439e-45 -0.00970858 0
6.74378e-45 -0.00970858 0
3.24445e-45 -0.00970858 0
6.21906e-45 -0.00970858 0
-3.38982e-45 -0.00970858 0
2.4764e-45 -0.00970858 0
-8.95253e-45 -0.00970858 0
-8.19146e-46 -0.00970858 0
-9.42418e-45 -0.00970858 0
SCALARS radius double 1
LOOKUP_TABLE default
0.000621415
0.000750874
0.000735541
0.000522882
0.000780242
0.00097475
0.000994168
0.000790412
0.000880848
0.000720838
0.000933918
0.000958934
0.000753488
0.00054522
0.000712397
0.000950783
0.000807753
0.000836475
0.000569299
0.000603945
0.000628319
0.000580291
0.000777192
0.000692678
0.00055675
SCALARS mass double 1
LOOKUP_TABLE default
0.00327549
0.00478242
0.00458909
0.0023191
0.00516383
0.00805935
0.00838365
0.00529932
0.00658136
0.00440747
0.00739829
0.00779994
0.00481578
0.00252149
0.00430484
0.0076679
0.0055344
0.00593499
0.00274913
0.00309392
0.00334869
0.00285631
0.00512354
0.00406984
0.00262926
