# vtk DataFile Version 3.0
DEM2D particles
ASCII
DATASET POLYDATA
POINTS 25 double
0.000436511 0.000238627 0
0.00259373 2.66524e-05 0
0.00503527 0.000817943 0
0.0075525 -0.000630644 0
0.00982669 -0.000472707 0
0.00134532 0.00240241 0
0.00385427 0.00189086 0
0.0049179 0.00100036 0
0.00662312 0.0026365 0
0.00923317 0.00195031 0
0.000767124 0.0041379 0
0.0037611 0.00303046 0
0.00456232 0.00421664 0
0.00622589 0.00443486 0
0.00871364 0.00368416 0
0.00180206 0.00584969 0
0.00309208 0.00515283 0
0.0055426 0.00559283 0
0.00726105 0.00673569 0
0.00950038 0.00654067 0
0.000727257 0.00772412 0
0.00319925 0.00707442 0
0.00427968 0.0081455 0
0.00693409 0.00758459 0
0.00824173 0.00801205 0
VERTICES 25 50
1 0
1 1
1 2
1 3
1 4
1 5
1 6
1 7
1 8
1 9
1 10
1 11
1 12
1 13
1 14
1 15
1 16
1 17
1 18
1 19
1 20
1 21
1 22
1 23
1 24
POINT_DATA 25
VECTORS velocity double
-1.4563e-52 -0.00970858 0
-1.04998e-52 -0.00970858 0
9.11494e-54 -0.00970858 0
1.42791e-52 -0.00970858 0
2.13653e-52 -0.00970858 0
8.92458e-53 -0.00970858 0
2.20779e-52 -0.00970858 0
-2.12179e-53 -0.00970858 0
-9.74019e-53 -0.00970858 0
6.0261e-53 -0.00970858 0
-6.01851e-53 -0.00970858 0
1.96702e-52 -0.00970858 0
-1.13116e-52 -0.00970858 0
-2.00064e-52 -0.00970858 0
-7.4008e-53 -0.00970858 0
2.07286e-52 -0.00970858 0
2.37966e-53 -0.00970858 0
1.40232e-52 -0.00970858 0
6.74659e-53 -0.00970858 0
1.29321e-52 -0.00970858 0
-7.04886e-53 -0.00970858 0
5.14948e-53 -0.00970858 0
-1.86161e-52 -0.00970858 0
-1.70335e-53 -0.00970858 0
-1.95968e-52 -0.00970858 0
SCALARS radius double 1
LOOKUP_TABLE default
0.000621415
0.000750874
0.000735541
0.000522882
0.000780242
0.00097475
0.000994168
0.000790412
0.000880848
0.000720838
0.000933918
0.000958934
0.000753488
0.00054522
0.000712397
0.000950783
0.000807753
0.000836475
0.000569299
0.000603945
0.000628319
0.000580291
0.000777192
0.000692678
0.00055675
SCALARS mass double 1
LOOKUP_TABLE default
0.00327549
0.00478242
0.00458909
0.0023191
0.00516383
0.00805935
0.00838365
0.00529932
0.00658136
0.00440747
0.00739829
0.00779994
0.00481578
0.00252149
0.00430484
0.0076679
0.0055344
0.00593499
0.00274913
0.00309392
0.00334869
0.00285631
0.00512354
0.00406984
0.00262926
