# vtk DataFile Version 3.0
DEM2D particles
ASCII
DATASET POLYDATA
POINTS 25 double
0.000436511 -0.000114766 0
0.00259373 -0.00032674 0
0.00503527 0.000464551 0
0.0075525 -0.000984037 0
0.00982669 -0.0008261 0
0.00134532 0.00204902 0
0.00385427 0.00153747 0
0.0049179 0.000646966 0
0.00662312 0.0022831 0
0.00923317 0.00159692 0
0.000767124 0.00378451 0
0.0037611 0.00267707 0
0.00456232 0.00386324 0
0.00622589 0.00408147 0
0.00871364 0.00333077 0
0.00180206 0.0054963 0
0.00309208 0.00479944 0
0.0055426 0.00523943 0
0.00726105 0.0063823 0
0.00950038 0.00618728 0
0.000727257 0.00737072 0
0.00319925 0.00672103 0
0.00427968 0.0077921 0
0.00693409 0.00723119 0
0.00824173 0.00765866 0
VERTICES 25 50
1 0
1 1
1 2
1 3
1 4
1 5
1 6
1 7
1 8
1 9
1 10
1 11
1 12
1 13
1 14
1 15
1 16
1 17
1 18
1 19
1 20
1 21
1 22
1 23
1 24
POINT_DATA 25
VECTORS velocity double
-1.88521e-68 -0.00970858 0
-1.35922e-68 -0.00970858 0
1.17995e-69 -0.00970858 0
1.84845e-68 -0.00970858 0
2.76578e-68 -0.00970858 0
1.1553e-68 -0.00970858 0
2.85803e-68 -0.00970858 0
-2.74669e-69 -0.00970858 0
-1.26089e-68 -0.00970858 0
7.8009e-69 -0.00970858 0
-7.79108e-69 -0.00970858 0
2.54634e-68 -0.00970858 0
-1.46431e-68 -0.00970858 0
-2.58986e-68 -0.00970858 0
-9.58047e-69 -0.00970858 0
2.68336e-68 -0.00970858 0
3.08052e-69 -0.00970858 0
1.81532e-68 -0.00970858 0
8.73359e-69 -0.00970858 0
1.67408e-68 -0.00970858 0
-9.12488e-69 -0.00970858 0
6.66609e-69 -0.00970858 0
-2.40989e-68 -0.00970858 0
-2.20502e-69 -0.00970858 0
-2.53685e-68 -0.00970858 0
SCALARS radius double 1
LOOKUP_TABLE default
0.000621415
0.000750874
0.000735541
0.000522882
0.000780242
0.00097475
0.000994168
0.000790412
0.000880848
0.000720838
0.000933918
0.000958934
0.000753488
0.00054522
0.000712397
0.000950783
0.000807753
0.000836475
0.000569299
0.000603945
0.000628319
0.000580291
0.000777192
0.000692678
0.00055675
SCALARS mass double 1
LOOKUP_TABLE default
0.00327549
0.00478242
0.00458909
0.0023191
0.00516383
0.00805935
0.00838365
0.00529932
0.00658136
0.00440747
0.00739829
0.00779994
0.00481578
0.00252149
0.00430484
0.0076679
0.0055344
0.00593499
0.00274913
0.00309392
0.00334869
0.00285631
0.00512354
0.00406984
0.00262926
