# vtk DataFile Version 3.0
DEM2D particles
ASCII
DATASET POLYDATA
POINTS 25 double
0.000436511 -0.000275928 0
0.00259373 -0.000487903 0
0.00503527 0.000303388 0
0.0075525 -0.0011452 0
0.00982669 -0.000987262 0
0.00134532 0.00188786 0
0.00385427 0.00137631 0
0.0049179 0.000485803 0
0.00662312 0.00212194 0
0.00923317 0.00143576 0
0.000767124 0.00362335 0
0.0037611 0.0025159 0
0.00456232 0.00370208 0
0.00622589 0.0039203 0
0.00871364 0.00316961 0
0.00180206 0.00533514 0
0.00309208 0.00463828 0
0.0055426 0.00507827 0
0.00726105 0.00622113 0
0.00950038 0.00602612 0
0.000727257 0.00720956 0
0.00319925 0.00655986 0
0.00427968 0.00763094 0
0.00693409 0.00707003 0
0.00824173 0.00749749 0
VERTICES 25 50
1 0
1 1
1 2
1 3
1 4
1 5
1 6
1 7
1 8
1 9
1 10
1 11
1 12
1 13
1 14
1 15
1 16
1 17
1 18
1 19
1 20
1 21
1 22
1 23
1 24
POINT_DATA 25
VECTORS velocity double
-1.07098e-75 -0.00970858 0
-7.72169e-76 -0.00970858 0
6.70325e-77 -0.00970858 0
1.0501e-75 -0.00970858 0
1.57124e-75 -0.00970858 0
6.56325e-76 -0.00970858 0
1.62364e-75 -0.00970858 0
-1.56039e-76 -0.00970858 0
-7.16306e-76 -0.00970858 0
4.43167e-76 -0.00970858 0
-4.42609e-76 -0.00970858 0
1.44657e-75 -0.00970858 0
-8.31871e-76 -0.00970858 0
-1.47129e-75 -0.00970858 0
-5.44264e-76 -0.00970858 0
1.52441e-75 -0.00970858 0
1.75004e-76 -0.00970858 0
1.03128e-75 -0.00970858 0
4.96153e-76 -0.00970858 0
9.5104e-76 -0.00970858 0
-5.18382e-76 -0.00970858 0
3.78699e-76 -0.00970858 0
-1.36905e-75 -0.00970858 0
-1.25267e-76 -0.00970858 0
-1.44118e-75 -0.00970858 0
SCALARS radius double 1
LOOKUP_TABLE default
0.000621415
0.000750874
0.000735541
0.000522882
0.000780242
0.00097475
0.000994168
0.000790412
0.000880848
0.000720838
0.000933918
0.000958934
0.000753488
0.00054522
0.000712397
0.000950783
0.000807753
0.000836475
0.000569299
0.000603945
0.000628319
0.000580291
0.000777192
0.000692678
0.00055675
SCALARS mass double 1
LOOKUP_TABLE default
0.00327549
0.00478242
0.00458909
0.0023191
0.00516383
0.00805935
0.00838365
0.00529932
0.00658136
0.00440747
0.00739829
0.00779994
0.00481578
0.00252149
0.00430484
0.0076679
0.0055344
0.00593499
0.00274913
0.00309392
0.00334869
0.00285631
0.00512354
0.00406984
0.00262926
