# vtk DataFile Version 3.0
DEM2D particles
ASCII
DATASET POLYDATA
POINTS 25 double
0.000436511 -0.00034583 0
0.00259373 -0.000557804 0
0.00503527 0.000233486 0
0.0075525 -0.0012151 0
0.00982669 -0.00105716 0
0.00134532 0.00181796 0
0.00385427 0.0013064 0
0.0049179 0.000415902 0
0.00662312 0.00205204 0
0.00923317 0.00136585 0
0.000767124 0.00355344 0
0.0037611 0.002446 0
0.00456232 0.00363218 0
0.00622589 0.0038504 0
0.00871364 0.00309971 0
0.00180206 0.00526524 0
0.00309208 0.00456838 0
0.0055426 0.00500837 0
0.00726105 0.00615123 0
0.00950038 0.00595622 0
0.000727257 0.00713966 0
0.00319925 0.00648996 0
0.00427968 0.00756104 0
0.00693409 0.00700013 0
0.00824173 0.00742759 0
VERTICES 25 50
1 0
1 1
1 2
1 3
1 4
1 5
1 6
1 7
1 8
1 9
1 10
1 11
1 12
1 13
1 14
1 15
1 16
1 17
1 18
1 19
1 20
1 21
1 22
1 23
1 24
POINT_DATA 25
VECTORS velocity double
-7.7112e-79 -0.00970858 0
-5.55972e-79 -0.00970858 0
4.82642e-80 -0.00970858 0
7.56086e-79 -0.00970858 0
1.13131e-78 -0.00970858 0
4.72563e-79 -0.00970858 0
1.16904e-78 -0.00970858 0
-1.1235e-79 -0.00970858 0
-5.15749e-79 -0.00970858 0
3.19086e-79 -0.00970858 0
-3.18684e-79 -0.00970858 0
1.04155e-78 -0.00970858 0
-5.98958e-79 -0.00970858 0
-1.05935e-78 -0.00970858 0
-3.91877e-79 -0.00970858 0
1.09759e-78 -0.00970858 0
1.26005e-79 -0.00970858 0
7.42536e-79 -0.00970858 0
3.57236e-79 -0.00970858 0
6.84761e-79 -0.00970858 0
-3.73242e-79 -0.00970858 0
2.72668e-79 -0.00970858 0
-9.85734e-79 -0.00970858 0
-9.01935e-80 -0.00970858 0
-1.03767e-78 -0.00970858 0
SCALARS radius double 1
LOOKUP_TABLE default
0.000621415
0.000750874
0.000735541
0.000522882
0.000780242
0.00097475
0.000994168
0.000790412
0.000880848
0.000720838
0.000933918
0.000958934
0.000753488
0.00054522
0.000712397
0.000950783
0.000807753
0.000836475
0.000569299
0.000603945
0.000628319
0.000580291
0.000777192
0.000692678
0.00055675
SCALARS mass double 1
LOOKUP_TABLE default
0.00327549
0.00478242
0.00458909
0.0023191
0.00516383
0.00805935
0.00838365
0.00529932
0.00658136
0.00440747
0.00739829
0.00779994
0.00481578
0.00252149
0.00430484
0.0076679
0.0055344
0.00593499
0.00274913
0.00309392
0.00334869
0.00285631
0.00512354
0.00406984
0.00262926
