# vtk DataFile Version 3.0
DEM2D particles
ASCII
DATASET POLYDATA
POINTS 25 double
0.000436511 0.000972595 0
0.00259373 0.000760621 0
0.00503527 0.00155191 0
0.0075525 0.000103325 0
0.00982669 0.000261262 0
0.00134532 0.00313638 0
0.00385427 0.00262483 0
0.0049179 0.00173433 0
0.00662312 0.00337047 0
0.00923317 0.00268428 0
0.000767124 0.00487187 0
0.0037611 0.00376443 0
0.00456232 0.0049506 0
0.00622589 0.00516883 0
0.00871364 0.00441813 0
0.00180206 0.00658366 0
0.00309208 0.0058868 0
0.0055426 0.00632679 0
0.00726105 0.00746966 0
0.00950038 0.00727464 0
0.000727257 0.00845809 0
0.00319925 0.00780839 0
0.00427968 0.00887946 0
0.00693409 0.00831856 0
0.00824173 0.00874602 0
VERTICES 25 50
1 0
1 1
1 2
1 3
1 4
1 5
1 6
1 7
1 8
1 9
1 10
1 11
1 12
1 13
1 14
1 15
1 16
1 17
1 18
1 19
1 20
1 21
1 22
1 23
1 24
POINT_DATA 25
VECTORS velocity double
-1.44937e-19 -0.00970858 0
-1.04498e-19 -0.00970858 0
9.07158e-21 -0.00970858 0
1.42111e-19 -0.00970858 0
2.12637e-19 -0.00970858 0
8.88212e-20 -0.00970858 0
2.19729e-19 -0.00970858 0
-2.11169e-20 -0.00970858 0
-9.69385e-20 -0.00970858 0
5.99743e-20 -0.00970858 0
-5.98988e-20 -0.00970858 0
1.95766e-19 -0.00970858 0
-1.12578e-19 -0.00970858 0
-1.99112e-19 -0.00970858 0
-7.36559e-20 -0.00970858 0
2.063e-19 -0.00970858 0
2.36834e-20 -0.00970858 0
1.39564e-19 -0.00970858 0
6.71449e-20 -0.00970858 0
1.28705e-19 -0.00970858 0
-7.01532e-20 -0.00970858 0
5.12498e-20 -0.00970858 0
-1.85275e-19 -0.00970858 0
-1.69525e-20 -0.00970858 0
-1.95036e-19 -0.00970858 0
SCALARS radius double 1
LOOKUP_TABLE default
0.000621415
0.000750874
0.000735541
0.000522882
0.000780242
0.00097475
0.000994168
0.000790412
0.000880848
0.000720838
0.000933918
0.000958934
0.000753488
0.00054522
0.000712397
0.000950783
0.000807753
0.000836475
0.000569299
0.000603945
0.000628319
0.000580291
0.000777192
0.000692678
0.00055675
SCALARS mass double 1
LOOKUP_TABLE default
0.00327549
0.00478242
0.00458909
0.0023191
0.00516383
0.00805935
0.00838365
0.00529932
0.00658136
0.00440747
0.00739829
0.00779994
0.00481578
0.00252149
0.00430484
0.0076679
0.0055344
0.00593499
0.00274913
0.00309392
0.00334869
0.00285631
0.00512354
0.00406984
0.00262926
