# vtk DataFile Version 3.0
DEM2D particles
ASCII
DATASET POLYDATA
POINTS 25 double
0.000436511 -0.000353597 0
0.00259373 -0.000565571 0
0.00503527 0.000225719 0
0.0075525 -0.00122287 0
0.00982669 -0.00106493 0
0.00134532 0.00181019 0
0.00385427 0.00129864 0
0.0049179 0.000408135 0
0.00662312 0.00204427 0
0.00923317 0.00135809 0
0.000767124 0.00354568 0
0.0037611 0.00243824 0
0.00456232 0.00362441 0
0.00622589 0.00384264 0
0.00871364 0.00309194 0
0.00180206 0.00525747 0
0.00309208 0.00456061 0
0.0055426 0.0050006 0
0.00726105 0.00614346 0
0.00950038 0.00594845 0
0.000727257 0.00713189 0
0.00319925 0.0064822 0
0.00427968 0.00755327 0
0.00693409 0.00699236 0
0.00824173 0.00741982 0
VERTICES 25 50
1 0
1 1
1 2
1 3
1 4
1 5
1 6
1 7
1 8
1 9
1 10
1 11
1 12
1 13
1 14
1 15
1 16
1 17
1 18
1 19
1 20
1 21
1 22
1 23
1 24
POINT_DATA 25
VECTORS velocity double
-3.45094e-79 -0.00970858 0
-2.4881e-79 -0.00970858 0
2.15994e-80 -0.00970858 0
3.38366e-79 -0.00970858 0
5.06287e-79 -0.00970858 0
2.11483e-79 -0.00970858 0
5.23173e-79 -0.00970858 0
-5.02793e-80 -0.00970858 0
-2.3081e-79 -0.00970858 0
1.42798e-79 -0.00970858 0
-1.42619e-79 -0.00970858 0
4.66117e-79 -0.00970858 0
-2.68047e-79 -0.00970858 0
-4.74084e-79 -0.00970858 0
-1.75374e-79 -0.00970858 0
4.91199e-79 -0.00970858 0
5.63901e-80 -0.00970858 0
3.32302e-79 -0.00970858 0
1.59872e-79 -0.00970858 0
3.06446e-79 -0.00970858 0
-1.67034e-79 -0.00970858 0
1.22025e-79 -0.00970858 0
-4.41139e-79 -0.00970858 0
-4.03637e-80 -0.00970858 0
-4.6438e-79 -0.00970858 0
SCALARS radius double 1
LOOKUP_TABLE default
0.000621415
0.000750874
0.000735541
0.000522882
0.000780242
0.00097475
0.000994168
0.000790412
0.000880848
0.000720838
0.000933918
0.000958934
0.000753488
0.00054522
0.000712397
0.000950783
0.000807753
0.000836475
0.000569299
0.000603945
0.000628319
0.000580291
0.000777192
0.000692678
0.00055675
SCALARS mass double 1
LOOKUP_TABLE default
0.00327549
0.00478242
0.00458909
0.0023191
0.00516383
0.00805935
0.00838365
0.00529932
0.00658136
0.00440747
0.00739829
0.00779994
0.00481578
0.00252149
0.00430484
0.0076679
0.0055344
0.00593499
0.00274913
0.00309392
0.00334869
0.00285631
0.00512354
0.00406984
0.00262926
