# vtk DataFile Version 3.0
DEM2D particles
ASCII
DATASET POLYDATA
POINTS 25 double
0.000438537 0.00133042 0
0.00259519 0.00111921 0
0.00503514 0.00190766 0
0.00755052 0.000464279 0
0.00982372 0.000621648 0
0.00134408 0.00349362 0
0.00385119 0.00298391 0
0.0049182 0.00209661 0
0.00662448 0.00372686 0
0.00923233 0.00304315 0
0.000767961 0.00523006 0
0.00375837 0.0041266 0
0.00456389 0.00530851 0
0.00622867 0.00552595 0
0.00871467 0.00477795 0
0.00179917 0.00694289 0
0.00309175 0.00624853 0
0.00554065 0.00668695 0
0.00726011 0.0078257 0
0.00949858 0.00763139 0
0.000728237 0.00881777 0
0.00319853 0.0081704 0
0.00428227 0.00923763 0
0.00693433 0.00867874 0
0.00824446 0.00910466 0
VERTICES 25 50
1 0
1 1
1 2
1 3
1 4
1 5
1 6
1 7
1 8
1 9
1 10
1 11
1 12
1 13
1 14
1 15
1 16
1 17
1 18
1 19
1 20
1 21
1 22
1 23
1 24
POINT_DATA 25
VECTORS velocity double
-0.00204625 -0.00830621 0
-0.00147533 -0.00907597 0
0.000128075 -0.00620248 0
0.00200636 -0.0114629 0
0.00300206 -0.0108893 0
0.001254 -0.00771143 0
0.00310218 -0.00956908 0
-0.000298133 -0.0128029 0
-0.0013686 -0.00686138 0
0.000846731 -0.00935319 0
-0.000845664 -0.00867198 0
0.00276387 -0.0126935 0
-0.0015894 -0.00838607 0
-0.0028111 -0.00759361 0
-0.00103989 -0.0103197 0
0.00291259 -0.00971857 0
0.000334368 -0.0122492 0
0.0019704 -0.0106514 0
0.000947967 -0.00650118 0
0.00181709 -0.00720935 0
-0.000990439 -0.0101746 0
0.000723556 -0.0125339 0
-0.00261576 -0.0086444 0
-0.000239339 -0.0106813 0
-0.00275356 -0.009129 0
SCALARS radius double 1
LOOKUP_TABLE default
0.000621415
0.000750874
0.000735541
0.000522882
0.000780242
0.00097475
0.000994168
0.000790412
0.000880848
0.000720838
0.000933918
0.000958934
0.000753488
0.00054522
0.000712397
0.000950783
0.000807753
0.000836475
0.000569299
0.000603945
0.000628319
0.000580291
0.000777192
0.000692678
0.00055675
SCALARS mass double 1
LOOKUP_TABLE default
0.00327549
0.00478242
0.00458909
0.0023191
0.00516383
0.00805935
0.00838365
0.00529932
0.00658136
0.00440747
0.00739829
0.00779994
0.00481578
0.00252149
0.00430484
0.0076679
0.0055344
0.00593499
0.00274913
0.00309392
0.00334869
0.00285631
0.00512354
0.00406984
0.00262926
