# vtk DataFile Version 3.0
DEM2D particles
ASCII
DATASET POLYDATA
POINTS 25 double
0.000642766 0.00123512 0
0.00274244 0.00110073 0
0.00502236 0.00160239 0
0.00735027 0.000684028 0
0.0095241 0.000784155 0
0.00121892 0.00333895 0
0.00354158 0.00301465 0
0.00494795 0.0024501 0
0.00676107 0.00348735 0
0.00914782 0.00305234 0
0.000852364 0.00517126 0
0.00348251 0.00446918 0
0.00472252 0.00522118 0
0.00650924 0.00535952 0
0.00881846 0.00488361 0
0.00150848 0.00698855 0
0.00305837 0.00654676 0
0.00534399 0.0068257 0
0.0071655 0.00755024 0
0.00931723 0.00742661 0
0.00082709 0.00890894 0
0.00312632 0.00849705 0
0.00454334 0.00917608 0
0.00695822 0.00882048 0
0.00851928 0.00909147 0
VERTICES 25 50
1 0
1 1
1 2
1 3
1 4
1 5
1 6
1 7
1 8
1 9
1 10
1 11
1 12
1 13
1 14
1 15
1 16
1 17
1 18
1 19
1 20
1 21
1 22
1 23
1 24
POINT_DATA 25
VECTORS velocity double
-0.208339 0.133074 0
-0.150211 0.0547009 0
0.0130399 0.347264 0
0.204277 -0.188321 0
0.305653 -0.129927 0
0.127675 0.193631 0
0.315847 0.00449505 0
-0.0303544 -0.32475 0
-0.139343 0.280178 0
0.0862096 0.0264755 0
-0.0861011 0.0958328 0
0.281402 -0.313621 0
-0.161824 0.124943 0
-0.286212 0.205627 0
-0.105876 -0.0719274 0
0.296544 -0.0107258 0
0.0340436 -0.268376 0
0.200616 -0.105698 0
0.0965169 0.316852 0
0.185006 0.24475 0
-0.100841 -0.0571553 0
0.0736686 -0.297368 0
-0.266322 0.0986407 0
-0.0243682 -0.108744 0
-0.280353 0.0493011 0
SCALARS radius double 1
LOOKUP_TABLE default
0.000621415
0.000750874
0.000735541
0.000522882
0.000780242
0.00097475
0.000994168
0.000790412
0.000880848
0.000720838
0.000933918
0.000958934
0.000753488
0.00054522
0.000712397
0.000950783
0.000807753
0.000836475
0.000569299
0.000603945
0.000628319
0.000580291
0.000777192
0.000692678
0.00055675
SCALARS mass double 1
LOOKUP_TABLE default
0.00327549
0.00478242
0.00458909
0.0023191
0.00516383
0.00805935
0.00838365
0.00529932
0.00658136
0.00440747
0.00739829
0.00779994
0.00481578
0.00252149
0.00430484
0.0076679
0.0055344
0.00593499
0.00274913
0.00309392
0.00334869
0.00285631
0.00512354
0.00406984
0.00262926
