# vtk DataFile Version 3.0
DEM2D particles
ASCII
DATASET POLYDATA
POINTS 25 double
0.000436511 -0.000105057 0
0.00259373 -0.000317031 0
0.00503527 0.000474259 0
0.0075525 -0.000974328 0
0.00982669 -0.000816391 0
0.00134532 0.00205873 0
0.00385427 0.00154718 0
0.0049179 0.000656674 0
0.00662312 0.00229281 0
0.00923317 0.00160663 0
0.000767124 0.00379422 0
0.0037611 0.00268678 0
0.00456232 0.00387295 0
0.00622589 0.00409118 0
0.00871364 0.00334048 0
0.00180206 0.00550601 0
0.00309208 0.00480915 0
0.0055426 0.00524914 0
0.00726105 0.006392 0
0.00950038 0.00619699 0
0.000727257 0.00738043 0
0.00319925 0.00673073 0
0.00427968 0.00780181 0
0.00693409 0.0072409 0
0.00824173 0.00766836 0
VERTICES 25 50
1 0
1 1
1 2
1 3
1 4
1 5
1 6
1 7
1 8
1 9
1 10
1 11
1 12
1 13
1 14
1 15
1 16
1 17
1 18
1 19
1 20
1 21
1 22
1 23
1 24
POINT_DATA 25
VECTORS velocity double
-5.15038e-68 -0.00970858 0
-3.71338e-68 -0.00970858 0
3.22361e-69 -0.00970858 0
5.04997e-68 -0.00970858 0
7.55612e-68 -0.00970858 0
3.15629e-68 -0.00970858 0
7.80813e-68 -0.00970858 0
-7.50396e-69 -0.00970858 0
-3.44474e-68 -0.00970858 0
2.13121e-68 -0.00970858 0
-2.12852e-68 -0.00970858 0
6.9566e-68 -0.00970858 0
-4.00049e-68 -0.00970858 0
-7.0755e-68 -0.00970858 0
-2.61738e-68 -0.00970858 0
7.33093e-68 -0.00970858 0
8.41598e-69 -0.00970858 0
4.95947e-68 -0.00970858 0
2.38601e-68 -0.00970858 0
4.57358e-68 -0.00970858 0
-2.49292e-68 -0.00970858 0
1.82118e-68 -0.00970858 0
-6.58381e-68 -0.00970858 0
-6.02411e-69 -0.00970858 0
-6.93067e-68 -0.00970858 0
SCALARS radius double 1
LOOKUP_TABLE default
0.000621415
0.000750874
0.000735541
0.000522882
0.000780242
0.00097475
0.000994168
0.000790412
0.000880848
0.000720838
0.000933918
0.000958934
0.000753488
0.00054522
0.000712397
0.000950783
0.000807753
0.000836475
0.000569299
0.000603945
0.000628319
0.000580291
0.000777192
0.000692678
0.00055675
SCALARS mass double 1
LOOKUP_TABLE default
0.00327549
0.00478242
0.00458909
0.0023191
0.00516383
0.00805935
0.00838365
0.00529932
0.00658136
0.00440747
0.00739829
0.00779994
0.00481578
0.00252149
0.00430484
0.0076679
0.0055344
0.00593499
0.00274913
0.00309392
0.00334869
0.00285631
0.00512354
0.00406984
0.00262926
