# vtk DataFile Version 3.0
DEM2D particles
ASCII
DATASET POLYDATA
POINTS 25 double
0.000436511 0.000578427 0
0.00259373 0.000366453 0
0.00503527 0.00115774 0
0.0075525 -0.000290844 0
0.00982669 -0.000132907 0
0.00134532 0.00274221 0
0.00385427 0.00223066 0
0.0049179 0.00134016 0
0.00662312 0.0029763 0
0.00923317 0.00229011 0
0.000767124 0.0044777 0
0.0037611 0.00337026 0
0.00456232 0.00455644 0
0.00622589 0.00477466 0
0.00871364 0.00402396 0
0.00180206 0.00618949 0
0.00309208 0.00549263 0
0.0055426 0.00593263 0
0.00726105 0.00707549 0
0.00950038 0.00688048 0
0.000727257 0.00806392 0
0.00319925 0.00741422 0
0.00427968 0.0084853 0
0.00693409 0.00792439 0
0.00824173 0.00835185 0
VERTICES 25 50
1 0
1 1
1 2
1 3
1 4
1 5
1 6
1 7
1 8
1 9
1 10
1 11
1 12
1 13
1 14
1 15
1 16
1 17
1 18
1 19
1 20
1 21
1 22
1 23
1 24
POINT_DATA 25
VECTORS velocity double
-2.75467e-37 -0.00970858 0
-1.98609e-37 -0.00970858 0
1.72414e-38 -0.00970858 0
2.70096e-37 -0.00970858 0
4.04137e-37 -0.00970858 0
1.68813e-37 -0.00970858 0
4.17616e-37 -0.00970858 0
-4.01348e-38 -0.00970858 0
-1.84241e-37 -0.00970858 0
1.13987e-37 -0.00970858 0
-1.13843e-37 -0.00970858 0
3.72072e-37 -0.00970858 0
-2.13965e-37 -0.00970858 0
-3.78431e-37 -0.00970858 0
-1.3999e-37 -0.00970858 0
3.92093e-37 -0.00970858 0
4.50127e-38 -0.00970858 0
2.65256e-37 -0.00970858 0
1.27615e-37 -0.00970858 0
2.44617e-37 -0.00970858 0
-1.33333e-37 -0.00970858 0
9.74052e-38 -0.00970858 0
-3.52133e-37 -0.00970858 0
-3.22198e-38 -0.00970858 0
-3.70685e-37 -0.00970858 0
SCALARS radius double 1
LOOKUP_TABLE default
0.000621415
0.000750874
0.000735541
0.000522882
0.000780242
0.00097475
0.000994168
0.000790412
0.000880848
0.000720838
0.000933918
0.000958934
0.000753488
0.00054522
0.000712397
0.000950783
0.000807753
0.000836475
0.000569299
0.000603945
0.000628319
0.000580291
0.000777192
0.000692678
0.00055675
SCALARS mass double 1
LOOKUP_TABLE default
0.00327549
0.00478242
0.00458909
0.0023191
0.00516383
0.00805935
0.00838365
0.00529932
0.00658136
0.00440747
0.00739829
0.00779994
0.00481578
0.00252149
0.00430484
0.0076679
0.0055344
0.00593499
0.00274913
0.00309392
0.00334869
0.00285631
0.00512354
0.00406984
0.00262926
