# vtk DataFile Version 3.0
DEM2D particles
ASCII
DATASET POLYDATA
POINTS 25 double
0.000436511 0.000904635 0
0.00259373 0.000692661 0
0.00503527 0.00148395 0
0.0075525 3.53647e-05 0
0.00982669 0.000193302 0
0.00134532 0.00306842 0
0.00385427 0.00255687 0
0.0049179 0.00166637 0
0.00662312 0.00330251 0
0.00923317 0.00261632 0
0.000767124 0.00480391 0
0.0037611 0.00369647 0
0.00456232 0.00488264 0
0.00622589 0.00510087 0
0.00871364 0.00435017 0
0.00180206 0.0065157 0
0.00309208 0.00581884 0
0.0055426 0.00625883 0
0.00726105 0.0074017 0
0.00950038 0.00720668 0
0.000727257 0.00839013 0
0.00319925 0.00774043 0
0.00427968 0.0088115 0
0.00693409 0.0082506 0
0.00824173 0.00867806 0
VERTICES 25 50
1 0
1 1
1 2
1 3
1 4
1 5
1 6
1 7
1 8
1 9
1 10
1 11
1 12
1 13
1 14
1 15
1 16
1 17
1 18
1 19
1 20
1 21
1 22
1 23
1 24
POINT_DATA 25
VECTORS velocity double
-1.2759e-22 -0.00970858 0
-9.19912e-23 -0.00970858 0
7.98581e-24 -0.00970858 0
1.25102e-22 -0.00970858 0
1.87187e-22 -0.00970858 0
7.81903e-23 -0.00970858 0
1.9343e-22 -0.00970858 0
-1.85895e-23 -0.00970858 0
-8.5336e-23 -0.00970858 0
5.27961e-23 -0.00970858 0
-5.27296e-23 -0.00970858 0
1.72335e-22 -0.00970858 0
-9.91036e-23 -0.00970858 0
-1.7528e-22 -0.00970858 0
-6.48401e-23 -0.00970858 0
1.81608e-22 -0.00970858 0
2.08488e-23 -0.00970858 0
1.2286e-22 -0.00970858 0
5.91084e-23 -0.00970858 0
1.13301e-22 -0.00970858 0
-6.17567e-23 -0.00970858 0
4.51158e-23 -0.00970858 0
-1.631e-22 -0.00970858 0
-1.49234e-23 -0.00970858 0
-1.71692e-22 -0.00970858 0
SCALARS radius double 1
LOOKUP_TABLE default
0.000621415
0.000750874
0.000735541
0.000522882
0.000780242
0.00097475
0.000994168
0.000790412
0.000880848
0.000720838
0.000933918
0.000958934
0.000753488
0.00054522
0.000712397
0.000950783
0.000807753
0.000836475
0.000569299
0.000603945
0.000628319
0.000580291
0.000777192
0.000692678
0.00055675
SCALARS mass double 1
LOOKUP_TABLE default
0.00327549
0.00478242
0.00458909
0.0023191
0.00516383
0.00805935
0.00838365
0.00529932
0.00658136
0.00440747
0.00739829
0.00779994
0.00481578
0.00252149
0.00430484
0.0076679
0.0055344
0.00593499
0.00274913
0.00309392
0.00334869
0.00285631
0.00512354
0.00406984
0.00262926
