# vtk DataFile Version 3.0
DEM2D particles
ASCII
DATASET POLYDATA
POINTS 25 double
0.000436511 0.00069493 0
0.00259373 0.000482956 0
0.00503527 0.00127425 0
0.0075525 -0.000174341 0
0.00982669 -1.64037e-05 0
0.00134532 0.00285872 0
0.00385427 0.00234717 0
0.0049179 0.00145666 0
0.00662312 0.0030928 0
0.00923317 0.00240662 0
0.000767124 0.0045942 0
0.0037611 0.00348676 0
0.00456232 0.00467294 0
0.00622589 0.00489116 0
0.00871364 0.00414047 0
0.00180206 0.006306 0
0.00309208 0.00560914 0
0.0055426 0.00604913 0
0.00726105 0.00719199 0
0.00950038 0.00699698 0
0.000727257 0.00818042 0
0.00319925 0.00753072 0
0.00427968 0.0086018 0
0.00693409 0.00804089 0
0.00824173 0.00846835 0
VERTICES 25 50
1 0
1 1
1 2
1 3
1 4
1 5
1 6
1 7
1 8
1 9
1 10
1 11
1 12
1 13
1 14
1 15
1 16
1 17
1 18
1 19
1 20
1 21
1 22
1 23
1 24
POINT_DATA 25
VECTORS velocity double
-4.76251e-32 -0.00970858 0
-3.43373e-32 -0.00970858 0
2.98084e-33 -0.00970858 0
4.66966e-32 -0.00970858 0
6.98707e-32 -0.00970858 0
2.91859e-32 -0.00970858 0
7.2201e-32 -0.00970858 0
-6.93885e-33 -0.00970858 0
-3.18532e-32 -0.00970858 0
1.97071e-32 -0.00970858 0
-1.96822e-32 -0.00970858 0
6.4327e-32 -0.00970858 0
-3.69922e-32 -0.00970858 0
-6.54265e-32 -0.00970858 0
-2.42027e-32 -0.00970858 0
6.77884e-32 -0.00970858 0
7.78218e-33 -0.00970858 0
4.58597e-32 -0.00970858 0
2.20633e-32 -0.00970858 0
4.22915e-32 -0.00970858 0
-2.30518e-32 -0.00970858 0
1.68403e-32 -0.00970858 0
-6.08799e-32 -0.00970858 0
-5.57044e-33 -0.00970858 0
-6.40872e-32 -0.00970858 0
SCALARS radius double 1
LOOKUP_TABLE default
0.000621415
0.000750874
0.000735541
0.000522882
0.000780242
0.00097475
0.000994168
0.000790412
0.000880848
0.000720838
0.000933918
0.000958934
0.000753488
0.00054522
0.000712397
0.000950783
0.000807753
0.000836475
0.000569299
0.000603945
0.000628319
0.000580291
0.000777192
0.000692678
0.00055675
SCALARS mass double 1
LOOKUP_TABLE default
0.00327549
0.00478242
0.00458909
0.0023191
0.00516383
0.00805935
0.00838365
0.00529932
0.00658136
0.00440747
0.00739829
0.00779994
0.00481578
0.00252149
0.00430484
0.0076679
0.0055344
0.00593499
0.00274913
0.00309392
0.00334869
0.00285631
0.00512354
0.00406984
0.00262926
