# vtk DataFile Version 3.0
DEM2D particles
ASCII
DATASET POLYDATA
POINTS 25 double
0.000436516 0.00127356 0
0.00259373 0.00106159 0
0.00503527 0.00185287 0
0.0075525 0.000404295 0
0.00982669 0.000562231 0
0.00134532 0.00343734 0
0.00385426 0.0029258 0
0.0049179 0.0020353 0
0.00662312 0.00367142 0
0.00923317 0.00298525 0
0.000767126 0.00517283 0
0.0037611 0.0040654 0
0.00456232 0.00525157 0
0.0062259 0.00546979 0
0.00871364 0.0047191 0
0.00180205 0.00688463 0
0.00309208 0.00618777 0
0.0055426 0.00662776 0
0.00726105 0.00777062 0
0.00950038 0.0075756 0
0.000727259 0.00875905 0
0.00319925 0.00810936 0
0.00427969 0.00918043 0
0.00693409 0.00861952 0
0.00824174 0.00904698 0
VERTICES 25 50
1 0
1 1
1 2
1 3
1 4
1 5
1 6
1 7
1 8
1 9
1 10
1 11
1 12
1 13
1 14
1 15
1 16
1 17
1 18
1 19
1 20
1 21
1 22
1 23
1 24
POINT_DATA 25
VECTORS velocity double
-4.92126e-06 -0.00970521 0
-3.54819e-06 -0.00970706 0
3.0802e-07 -0.00970015 0
4.82531e-06 -0.0097128 0
7.21997e-06 -0.00971142 0
3.01588e-06 -0.00970378 0
7.46077e-06 -0.00970825 0
-7.17014e-07 -0.00971603 0
-3.29149e-06 -0.00970174 0
2.0364e-06 -0.00970773 0
-2.03383e-06 -0.00970609 0
6.64712e-06 -0.00971576 0
-3.82252e-06 -0.0097054 0
-6.76073e-06 -0.0097035 0
-2.50095e-06 -0.00971005 0
7.0048e-06 -0.00970861 0
8.04158e-07 -0.00971469 0
4.73883e-06 -0.00971085 0
2.27987e-06 -0.00970087 0
4.37012e-06 -0.00970257 0
-2.38201e-06 -0.0097097 0
1.74016e-06 -0.00971538 0
-6.29092e-06 -0.00970602 0
-5.75611e-07 -0.00971092 0
-6.62234e-06 -0.00970719 0
SCALARS radius double 1
LOOKUP_TABLE default
0.000621415
0.000750874
0.000735541
0.000522882
0.000780242
0.00097475
0.000994168
0.000790412
0.000880848
0.000720838
0.000933918
0.000958934
0.000753488
0.00054522
0.000712397
0.000950783
0.000807753
0.000836475
0.000569299
0.000603945
0.000628319
0.000580291
0.000777192
0.000692678
0.00055675
SCALARS mass double 1
LOOKUP_TABLE default
0.00327549
0.00478242
0.00458909
0.0023191
0.00516383
0.00805935
0.00838365
0.00529932
0.00658136
0.00440747
0.00739829
0.00779994
0.00481578
0.00252149
0.00430484
0.0076679
0.0055344
0.00593499
0.00274913
0.00309392
0.00334869
0.00285631
0.00512354
0.00406984
0.00262926
