# vtk DataFile Version 3.0
DEM2D particles
ASCII
DATASET POLYDATA
POINTS 25 double
0.000436511 0.000120182 0
0.00259373 -9.17923e-05 0
0.00503527 0.000699498 0
0.0075525 -0.000749089 0
0.00982669 -0.000591152 0
0.00134532 0.00228397 0
0.00385427 0.00177242 0
0.0049179 0.000881914 0
0.00662312 0.00251805 0
0.00923317 0.00183187 0
0.000767124 0.00401946 0
0.0037611 0.00291201 0
0.00456232 0.00409819 0
0.00622589 0.00431642 0
0.00871364 0.00356572 0
0.00180206 0.00573125 0
0.00309208 0.00503439 0
0.0055426 0.00547438 0
0.00726105 0.00661724 0
0.00950038 0.00642223 0
0.000727257 0.00760567 0
0.00319925 0.00695597 0
0.00427968 0.00802705 0
0.00693409 0.00746614 0
0.00824173 0.0078936 0
VERTICES 25 50
1 0
1 1
1 2
1 3
1 4
1 5
1 6
1 7
1 8
1 9
1 10
1 11
1 12
1 13
1 14
1 15
1 16
1 17
1 18
1 19
1 20
1 21
1 22
1 23
1 24
POINT_DATA 25
VECTORS velocity double
-6.8895e-58 -0.00970858 0
-4.96728e-58 -0.00970858 0
4.31212e-59 -0.00970858 0
6.75519e-58 -0.00970858 0
1.01076e-57 -0.00970858 0
4.22207e-58 -0.00970858 0
1.04447e-57 -0.00970858 0
-1.00378e-58 -0.00970858 0
-4.60792e-58 -0.00970858 0
2.85085e-58 -0.00970858 0
-2.84726e-58 -0.00970858 0
9.30563e-58 -0.00970858 0
-5.35133e-58 -0.00970858 0
-9.46467e-58 -0.00970858 0
-3.50119e-58 -0.00970858 0
9.80635e-58 -0.00970858 0
1.12578e-58 -0.00970858 0
6.63412e-58 -0.00970858 0
3.1917e-58 -0.00970858 0
6.11794e-58 -0.00970858 0
-3.3347e-58 -0.00970858 0
2.43613e-58 -0.00970858 0
-8.80696e-58 -0.00970858 0
-8.05826e-59 -0.00970858 0
-9.27093e-58 -0.00970858 0
SCALARS radius double 1
LOOKUP_TABLE default
0.000621415
0.000750874
0.000735541
0.000522882
0.000780242
0.00097475
0.000994168
0.000790412
0.000880848
0.000720838
0.000933918
0.000958934
0.000753488
0.00054522
0.000712397
0.000950783
0.000807753
0.000836475
0.000569299
0.000603945
0.000628319
0.000580291
0.000777192
0.000692678
0.00055675
SCALARS mass double 1
LOOKUP_TABLE default
0.00327549
0.00478242
0.00458909
0.0023191
0.00516383
0.00805935
0.00838365
0.00529932
0.00658136
0.00440747
0.00739829
0.00779994
0.00481578
0.00252149
0.00430484
0.0076679
0.0055344
0.00593499
0.00274913
0.00309392
0.00334869
0.00285631
0.00512354
0.00406984
0.00262926
