# vtk DataFile Version 3.0
DEM2D particles
ASCII
DATASET POLYDATA
POINTS 25 double
0.000436511 0.00100949 0
0.00259373 0.000797514 0
0.00503527 0.0015888 0
0.0075525 0.000140217 0
0.00982669 0.000298154 0
0.00134532 0.00317327 0
0.00385427 0.00266172 0
0.0049179 0.00177122 0
0.00662312 0.00340736 0
0.00923317 0.00272117 0
0.000767124 0.00490876 0
0.0037611 0.00380132 0
0.00456232 0.0049875 0
0.00622589 0.00520572 0
0.00871364 0.00445503 0
0.00180206 0.00662056 0
0.00309208 0.00592369 0
0.0055426 0.00636369 0
0.00726105 0.00750655 0
0.00950038 0.00731154 0
0.000727257 0.00849498 0
0.00319925 0.00784528 0
0.00427968 0.00891636 0
0.00693409 0.00835545 0
0.00824173 0.00878291 0
VERTICES 25 50
1 0
1 1
1 2
1 3
1 4
1 5
1 6
1 7
1 8
1 9
1 10
1 11
1 12
1 13
1 14
1 15
1 16
1 17
1 18
1 19
1 20
1 21
1 22
1 23
1 24
POINT_DATA 25
VECTORS velocity double
-6.60397e-18 -0.00970858 0
-4.76141e-18 -0.00970858 0
4.13341e-19 -0.00970858 0
6.47522e-18 -0.00970858 0
9.68868e-18 -0.00970858 0
4.04709e-18 -0.00970858 0
1.00118e-17 -0.00970858 0
-9.62181e-19 -0.00970858 0
-4.41695e-18 -0.00970858 0
2.7327e-18 -0.00970858 0
-2.72926e-18 -0.00970858 0
8.91996e-18 -0.00970858 0
-5.12955e-18 -0.00970858 0
-9.07242e-18 -0.00970858 0
-3.35609e-18 -0.00970858 0
9.39994e-18 -0.00970858 0
1.07912e-18 -0.00970858 0
6.35918e-18 -0.00970858 0
3.05942e-18 -0.00970858 0
5.86438e-18 -0.00970858 0
-3.19649e-18 -0.00970858 0
2.33517e-18 -0.00970858 0
-8.44196e-18 -0.00970858 0
-7.72429e-19 -0.00970858 0
-8.88671e-18 -0.00970858 0
SCALARS radius double 1
LOOKUP_TABLE default
0.000621415
0.000750874
0.000735541
0.000522882
0.000780242
0.00097475
0.000994168
0.000790412
0.000880848
0.000720838
0.000933918
0.000958934
0.000753488
0.00054522
0.000712397
0.000950783
0.000807753
0.000836475
0.000569299
0.000603945
0.000628319
0.000580291
0.000777192
0.000692678
0.00055675
SCALARS mass double 1
LOOKUP_TABLE default
0.00327549
0.00478242
0.00458909
0.0023191
0.00516383
0.00805935
0.00838365
0.00529932
0.00658136
0.00440747
0.00739829
0.00779994
0.00481578
0.00252149
0.00430484
0.0076679
0.0055344
0.00593499
0.00274913
0.00309392
0.00334869
0.00285631
0.00512354
0.00406984
0.00262926
