# vtk DataFile Version 3.0
DEM2D particles
ASCII
DATASET POLYDATA
POINTS 25 double
0.000436511 -0.000108941 0
0.00259373 -0.000320915 0
0.00503527 0.000470376 0
0.0075525 -0.000978211 0
0.00982669 -0.000820274 0
0.00134532 0.00205485 0
0.00385427 0.00154329 0
0.0049179 0.000652791 0
0.00662312 0.00228893 0
0.00923317 0.00160274 0
0.000767124 0.00379033 0
0.0037611 0.00268289 0
0.00456232 0.00386907 0
0.00622589 0.00408729 0
0.00871364 0.0033366 0
0.00180206 0.00550213 0
0.00309208 0.00480526 0
0.0055426 0.00524526 0
0.00726105 0.00638812 0
0.00950038 0.00619311 0
0.000727257 0.00737655 0
0.00319925 0.00672685 0
0.00427968 0.00779793 0
0.00693409 0.00723702 0
0.00824173 0.00766448 0
VERTICES 25 50
1 0
1 1
1 2
1 3
1 4
1 5
1 6
1 7
1 8
1 9
1 10
1 11
1 12
1 13
1 14
1 15
1 16
1 17
1 18
1 19
1 20
1 21
1 22
1 23
1 24
POINT_DATA 25
VECTORS velocity double
-3.44546e-68 -0.00970858 0
-2.48415e-68 -0.00970858 0
2.15651e-69 -0.00970858 0
3.37829e-68 -0.00970858 0
5.05483e-68 -0.00970858 0
2.11147e-68 -0.00970858 0
5.22342e-68 -0.00970858 0
-5.01994e-69 -0.00970858 0
-2.30443e-68 -0.00970858 0
1.42572e-68 -0.00970858 0
-1.42392e-68 -0.00970858 0
4.65377e-68 -0.00970858 0
-2.67622e-68 -0.00970858 0
-4.73331e-68 -0.00970858 0
-1.75096e-68 -0.00970858 0
4.90418e-68 -0.00970858 0
5.63005e-69 -0.00970858 0
3.31774e-68 -0.00970858 0
1.59618e-68 -0.00970858 0
3.0596e-68 -0.00970858 0
-1.66769e-68 -0.00970858 0
1.21832e-68 -0.00970858 0
-4.40438e-68 -0.00970858 0
-4.02996e-69 -0.00970858 0
-4.63642e-68 -0.00970858 0
SCALARS radius double 1
LOOKUP_TABLE default
0.000621415
0.000750874
0.000735541
0.000522882
0.000780242
0.00097475
0.000994168
0.000790412
0.000880848
0.000720838
0.000933918
0.000958934
0.000753488
0.00054522
0.000712397
0.000950783
0.000807753
0.000836475
0.000569299
0.000603945
0.000628319
0.000580291
0.000777192
0.000692678
0.00055675
SCALARS mass double 1
LOOKUP_TABLE default
0.00327549
0.00478242
0.00458909
0.0023191
0.00516383
0.00805935
0.00838365
0.00529932
0.00658136
0.00440747
0.00739829
0.00779994
0.00481578
0.00252149
0.00430484
0.0076679
0.0055344
0.00593499
0.00274913
0.00309392
0.00334869
0.00285631
0.00512354
0.00406984
0.00262926
