# vtk DataFile Version 3.0
DEM2D particles
ASCII
DATASET POLYDATA
POINTS 25 double
0.000528815 0.00130545 0
0.00266028 0.0011282 0
0.00502949 0.00178987 0
0.007462 0.000578569 0
0.00969128 0.000710635 0
0.00128875 0.0034424 0
0.00371433 0.00301465 0
0.00493135 0.00227002 0
0.00668486 0.00363814 0
0.00919497 0.00306436 0
0.000805271 0.00522122 0
0.00363643 0.00429519 0
0.00463401 0.00528706 0
0.00635269 0.00546953 0
0.00876055 0.00484181 0
0.00167067 0.00698022 0
0.00307699 0.00639751 0
0.00545372 0.00676543 0
0.00721829 0.00772108 0
0.00941842 0.00755802 0
0.000771934 0.00887522 0
0.00316661 0.00833194 0
0.00439768 0.00922757 0
0.00694489 0.00875854 0
0.00836594 0.00911598 0
VERTICES 25 50
1 0
1 1
1 2
1 3
1 4
1 5
1 6
1 7
1 8
1 9
1 10
1 11
1 12
1 13
1 14
1 15
1 16
1 17
1 18
1 19
1 20
1 21
1 22
1 23
1 24
POINT_DATA 25
VECTORS velocity double
-0.0932363 0.0541899 0
-0.0672227 0.0191162 0
0.00583564 0.150045 0
0.0914187 -0.0896418 0
0.136787 -0.0635092 0
0.0571377 0.0812904 0
0.141349 -0.00335213 0
-0.0135843 -0.150697 0
-0.0623594 0.120023 0
0.0385808 0.00648462 0
-0.0385322 0.0375236 0
0.125934 -0.145717 0
-0.0724202 0.0505512 0
-0.128086 0.0866592 0
-0.047382 -0.0375529 0
0.13271 -0.0101638 0
0.0152353 -0.125468 0
0.0897803 -0.0526659 0
0.0431936 0.136435 0
0.0827947 0.104168 0
-0.0451288 -0.0309421 0
0.0329684 -0.138443 0
-0.119185 0.0387802 0
-0.0109053 -0.0540292 0
-0.125465 0.0166996 0
SCALARS radius double 1
LOOKUP_TABLE default
0.000621415
0.000750874
0.000735541
0.000522882
0.000780242
0.00097475
0.000994168
0.000790412
0.000880848
0.000720838
0.000933918
0.000958934
0.000753488
0.00054522
0.000712397
0.000950783
0.000807753
0.000836475
0.000569299
0.000603945
0.000628319
0.000580291
0.000777192
0.000692678
0.00055675
SCALARS mass double 1
LOOKUP_TABLE default
0.00327549
0.00478242
0.00458909
0.0023191
0.00516383
0.00805935
0.00838365
0.00529932
0.00658136
0.00440747
0.00739829
0.00779994
0.00481578
0.00252149
0.00430484
0.0076679
0.0055344
0.00593499
0.00274913
0.00309392
0.00334869
0.00285631
0.00512354
0.00406984
0.00262926
