# vtk DataFile Version 3.0
DEM2D particles
ASCII
DATASET POLYDATA
POINTS 25 double
0.000436511 -8.75819e-05 0
0.00259373 -0.000299556 0
0.00503527 0.000491735 0
0.0075525 -0.000956853 0
0.00982669 -0.000798916 0
0.00134532 0.0020762 0
0.00385427 0.00156465 0
0.0049179 0.00067415 0
0.00662312 0.00231029 0
0.00923317 0.0016241 0
0.000767124 0.00381169 0
0.0037611 0.00270425 0
0.00456232 0.00389043 0
0.00622589 0.00410865 0
0.00871364 0.00335796 0
0.00180206 0.00552349 0
0.00309208 0.00482662 0
0.0055426 0.00526662 0
0.00726105 0.00640948 0
0.00950038 0.00621447 0
0.000727257 0.00739791 0
0.00319925 0.00674821 0
0.00427968 0.00781929 0
0.00693409 0.00725838 0
0.00824173 0.00768584 0
VERTICES 25 50
1 0
1 1
1 2
1 3
1 4
1 5
1 6
1 7
1 8
1 9
1 10
1 11
1 12
1 13
1 14
1 15
1 16
1 17
1 18
1 19
1 20
1 21
1 22
1 23
1 24
POINT_DATA 25
VECTORS velocity double
-3.14416e-67 -0.00970858 0
-2.26691e-67 -0.00970858 0
1.96792e-68 -0.00970858 0
3.08286e-67 -0.00970858 0
4.61279e-67 -0.00970858 0
1.92682e-67 -0.00970858 0
4.76664e-67 -0.00970858 0
-4.58095e-68 -0.00970858 0
-2.10291e-67 -0.00970858 0
1.30104e-67 -0.00970858 0
-1.2994e-67 -0.00970858 0
4.2468e-67 -0.00970858 0
-2.44218e-67 -0.00970858 0
-4.31938e-67 -0.00970858 0
-1.59784e-67 -0.00970858 0
4.47532e-67 -0.00970858 0
5.13771e-68 -0.00970858 0
3.02761e-67 -0.00970858 0
1.45659e-67 -0.00970858 0
2.79204e-67 -0.00970858 0
-1.52185e-67 -0.00970858 0
1.11178e-67 -0.00970858 0
-4.01922e-67 -0.00970858 0
-3.67754e-68 -0.00970858 0
-4.23097e-67 -0.00970858 0
SCALARS radius double 1
LOOKUP_TABLE default
0.000621415
0.000750874
0.000735541
0.000522882
0.000780242
0.00097475
0.000994168
0.000790412
0.000880848
0.000720838
0.000933918
0.000958934
0.000753488
0.00054522
0.000712397
0.000950783
0.000807753
0.000836475
0.000569299
0.000603945
0.000628319
0.000580291
0.000777192
0.000692678
0.00055675
SCALARS mass double 1
LOOKUP_TABLE default
0.00327549
0.00478242
0.00458909
0.0023191
0.00516383
0.00805935
0.00838365
0.00529932
0.00658136
0.00440747
0.00739829
0.00779994
0.00481578
0.00252149
0.00430484
0.0076679
0.0055344
0.00593499
0.00274913
0.00309392
0.00334869
0.00285631
0.00512354
0.00406984
0.00262926
