# vtk DataFile Version 3.0
DEM2D particles
ASCII
DATASET POLYDATA
POINTS 25 double
0.000436511 1.14456e-05 0
0.00259373 -0.000200528 0
0.00503527 0.000590762 0
0.0075525 -0.000857825 0
0.00982669 -0.000699888 0
0.00134532 0.00217523 0
0.00385427 0.00166368 0
0.0049179 0.000773177 0
0.00662312 0.00240932 0
0.00923317 0.00172313 0
0.000767124 0.00391072 0
0.0037611 0.00280328 0
0.00456232 0.00398945 0
0.00622589 0.00420768 0
0.00871364 0.00345698 0
0.00180206 0.00562251 0
0.00309208 0.00492565 0
0.0055426 0.00536565 0
0.00726105 0.00650851 0
0.00950038 0.00631349 0
0.000727257 0.00749694 0
0.00319925 0.00684724 0
0.00427968 0.00791831 0
0.00693409 0.00735741 0
0.00824173 0.00778487 0
VERTICES 25 50
1 0
1 1
1 2
1 3
1 4
1 5
1 6
1 7
1 8
1 9
1 10
1 11
1 12
1 13
1 14
1 15
1 16
1 17
1 18
1 19
1 20
1 21
1 22
1 23
1 24
POINT_DATA 25
VECTORS velocity double
-8.90442e-63 -0.00970858 0
-6.42002e-63 -0.00970858 0
5.57326e-64 -0.00970858 0
8.73083e-63 -0.00970858 0
1.30637e-62 -0.00970858 0
5.45687e-63 -0.00970858 0
1.34994e-62 -0.00970858 0
-1.29735e-63 -0.00970858 0
-5.95556e-63 -0.00970858 0
3.68461e-63 -0.00970858 0
-3.67997e-63 -0.00970858 0
1.20272e-62 -0.00970858 0
-6.9164e-63 -0.00970858 0
-1.22327e-62 -0.00970858 0
-4.52516e-63 -0.00970858 0
1.26743e-62 -0.00970858 0
1.45503e-63 -0.00970858 0
8.57435e-63 -0.00970858 0
4.12515e-63 -0.00970858 0
7.9072e-63 -0.00970858 0
-4.30997e-63 -0.00970858 0
3.14861e-63 -0.00970858 0
-1.13827e-62 -0.00970858 0
-1.0415e-63 -0.00970858 0
-1.19823e-62 -0.00970858 0
SCALARS radius double 1
LOOKUP_TABLE default
0.000621415
0.000750874
0.000735541
0.000522882
0.000780242
0.00097475
0.000994168
0.000790412
0.000880848
0.000720838
0.000933918
0.000958934
0.000753488
0.00054522
0.000712397
0.000950783
0.000807753
0.000836475
0.000569299
0.000603945
0.000628319
0.000580291
0.000777192
0.000692678
0.00055675
SCALARS mass double 1
LOOKUP_TABLE default
0.00327549
0.00478242
0.00458909
0.0023191
0.00516383
0.00805935
0.00838365
0.00529932
0.00658136
0.00440747
0.00739829
0.00779994
0.00481578
0.00252149
0.00430484
0.0076679
0.0055344
0.00593499
0.00274913
0.00309392
0.00334869
0.00285631
0.00512354
0.00406984
0.00262926
