# vtk DataFile Version 3.0
DEM2D particles
ASCII
DATASET POLYDATA
POINTS 25 double
0.000436511 0.000535709 0
0.00259373 0.000323735 0
0.00503527 0.00111503 0
0.0075525 -0.000333561 0
0.00982669 -0.000175624 0
0.00134532 0.0026995 0
0.00385427 0.00218794 0
0.0049179 0.00129744 0
0.00662312 0.00293358 0
0.00923317 0.00224739 0
0.000767124 0.00443498 0
0.0037611 0.00332754 0
0.00456232 0.00451372 0
0.00622589 0.00473194 0
0.00871364 0.00398125 0
0.00180206 0.00614678 0
0.00309208 0.00544991 0
0.0055426 0.00588991 0
0.00726105 0.00703277 0
0.00950038 0.00683776 0
0.000727257 0.0080212 0
0.00319925 0.0073715 0
0.00427968 0.00844258 0
0.00693409 0.00788167 0
0.00824173 0.00830913 0
VERTICES 25 50
1 0
1 1
1 2
1 3
1 4
1 5
1 6
1 7
1 8
1 9
1 10
1 11
1 12
1 13
1 14
1 15
1 16
1 17
1 18
1 19
1 20
1 21
1 22
1 23
1 24
POINT_DATA 25
VECTORS velocity double
-3.30792e-39 -0.00970858 0
-2.38498e-39 -0.00970858 0
2.07042e-40 -0.00970858 0
3.24343e-39 -0.00970858 0
4.85305e-39 -0.00970858 0
2.02718e-39 -0.00970858 0
5.0149e-39 -0.00970858 0
-4.81955e-40 -0.00970858 0
-2.21244e-39 -0.00970858 0
1.3688e-39 -0.00970858 0
-1.36708e-39 -0.00970858 0
4.468e-39 -0.00970858 0
-2.56938e-39 -0.00970858 0
-4.54436e-39 -0.00970858 0
-1.68106e-39 -0.00970858 0
4.70841e-39 -0.00970858 0
5.40531e-40 -0.00970858 0
3.1853e-39 -0.00970858 0
1.53246e-39 -0.00970858 0
2.93746e-39 -0.00970858 0
-1.60112e-39 -0.00970858 0
1.16968e-39 -0.00970858 0
-4.22856e-39 -0.00970858 0
-3.86909e-40 -0.00970858 0
-4.45134e-39 -0.00970858 0
SCALARS radius double 1
LOOKUP_TABLE default
0.000621415
0.000750874
0.000735541
0.000522882
0.000780242
0.00097475
0.000994168
0.000790412
0.000880848
0.000720838
0.000933918
0.000958934
0.000753488
0.00054522
0.000712397
0.000950783
0.000807753
0.000836475
0.000569299
0.000603945
0.000628319
0.000580291
0.000777192
0.000692678
0.00055675
SCALARS mass double 1
LOOKUP_TABLE default
0.00327549
0.00478242
0.00458909
0.0023191
0.00516383
0.00805935
0.00838365
0.00529932
0.00658136
0.00440747
0.00739829
0.00779994
0.00481578
0.00252149
0.00430484
0.0076679
0.0055344
0.00593499
0.00274913
0.00309392
0.00334869
0.00285631
0.00512354
0.00406984
0.00262926
