# vtk DataFile Version 3.0
DEM2D particles
ASCII
DATASET POLYDATA
POINTS 25 double
0.000436511 0.00062697 0
0.00259373 0.000414996 0
0.00503527 0.00120629 0
0.0075525 -0.000242301 0
0.00982669 -8.43638e-05 0
0.00134532 0.00279076 0
0.00385427 0.00227921 0
0.0049179 0.0013887 0
0.00662312 0.00302484 0
0.00923317 0.00233865 0
0.000767124 0.00452624 0
0.0037611 0.0034188 0
0.00456232 0.00460498 0
0.00622589 0.0048232 0
0.00871364 0.00407251 0
0.00180206 0.00623804 0
0.00309208 0.00554118 0
0.0055426 0.00598117 0
0.00726105 0.00712403 0
0.00950038 0.00692902 0
0.000727257 0.00811246 0
0.00319925 0.00746276 0
0.00427968 0.00853384 0
0.00693409 0.00797293 0
0.00824173 0.00840039 0
VERTICES 25 50
1 0
1 1
1 2
1 3
1 4
1 5
1 6
1 7
1 8
1 9
1 10
1 11
1 12
1 13
1 14
1 15
1 16
1 17
1 18
1 19
1 20
1 21
1 22
1 23
1 24
POINT_DATA 25
VECTORS velocity double
-4.19249e-35 -0.00970858 0
-3.02275e-35 -0.00970858 0
2.62407e-36 -0.00970858 0
4.11075e-35 -0.00970858 0
6.1508e-35 -0.00970858 0
2.56927e-35 -0.00970858 0
6.35594e-35 -0.00970858 0
-6.10834e-36 -0.00970858 0
-2.80407e-35 -0.00970858 0
1.73483e-35 -0.00970858 0
-1.73265e-35 -0.00970858 0
5.66278e-35 -0.00970858 0
-3.25646e-35 -0.00970858 0
-5.75956e-35 -0.00970858 0
-2.13059e-35 -0.00970858 0
5.96749e-35 -0.00970858 0
6.85074e-36 -0.00970858 0
4.03708e-35 -0.00970858 0
1.94225e-35 -0.00970858 0
3.72297e-35 -0.00970858 0
-2.02927e-35 -0.00970858 0
1.48247e-35 -0.00970858 0
-5.35932e-35 -0.00970858 0
-4.90372e-36 -0.00970858 0
-5.64167e-35 -0.00970858 0
SCALARS radius double 1
LOOKUP_TABLE default
0.000621415
0.000750874
0.000735541
0.000522882
0.000780242
0.00097475
0.000994168
0.000790412
0.000880848
0.000720838
0.000933918
0.000958934
0.000753488
0.00054522
0.000712397
0.000950783
0.000807753
0.000836475
0.000569299
0.000603945
0.000628319
0.000580291
0.000777192
0.000692678
0.00055675
SCALARS mass double 1
LOOKUP_TABLE default
0.00327549
0.00478242
0.00458909
0.0023191
0.00516383
0.00805935
0.00838365
0.00529932
0.00658136
0.00440747
0.00739829
0.00779994
0.00481578
0.00252149
0.00430484
0.0076679
0.0055344
0.00593499
0.00274913
0.00309392
0.00334869
0.00285631
0.00512354
0.00406984
0.00262926
