# vtk DataFile Version 3.0
DEM2D particles
ASCII
DATASET POLYDATA
POINTS 25 double
0.000436511 0.000380372 0
0.00259373 0.000168398 0
0.00503527 0.000959688 0
0.0075525 -0.000488899 0
0.00982669 -0.000330962 0
0.00134532 0.00254416 0
0.00385427 0.00203261 0
0.0049179 0.0011421 0
0.00662312 0.00277824 0
0.00923317 0.00209206 0
0.000767124 0.00427965 0
0.0037611 0.0031722 0
0.00456232 0.00435838 0
0.00622589 0.00457661 0
0.00871364 0.00382591 0
0.00180206 0.00599144 0
0.00309208 0.00529458 0
0.0055426 0.00573457 0
0.00726105 0.00687743 0
0.00950038 0.00668242 0
0.000727257 0.00786586 0
0.00319925 0.00721616 0
0.00427968 0.00828724 0
0.00693409 0.00772633 0
0.00824173 0.00815379 0
VERTICES 25 50
1 0
1 1
1 2
1 3
1 4
1 5
1 6
1 7
1 8
1 9
1 10
1 11
1 12
1 13
1 14
1 15
1 16
1 17
1 18
1 19
1 20
1 21
1 22
1 23
1 24
POINT_DATA 25
VECTORS velocity double
-3.43452e-46 -0.00970858 0
-2.47626e-46 -0.00970858 0
2.14966e-47 -0.00970858 0
3.36756e-46 -0.00970858 0
5.03878e-46 -0.00970858 0
2.10477e-46 -0.00970858 0
5.20684e-46 -0.00970858 0
-5.004e-47 -0.00970858 0
-2.29712e-46 -0.00970858 0
1.42119e-46 -0.00970858 0
-1.4194e-46 -0.00970858 0
4.639e-46 -0.00970858 0
-2.66772e-46 -0.00970858 0
-4.71828e-46 -0.00970858 0
-1.7454e-46 -0.00970858 0
4.88862e-46 -0.00970858 0
5.61218e-47 -0.00970858 0
3.30721e-46 -0.00970858 0
1.59111e-46 -0.00970858 0
3.04988e-46 -0.00970858 0
-1.6624e-46 -0.00970858 0
1.21445e-46 -0.00970858 0
-4.3904e-46 -0.00970858 0
-4.01716e-47 -0.00970858 0
-4.6217e-46 -0.00970858 0
SCALARS radius double 1
LOOKUP_TABLE default
0.000621415
0.000750874
0.000735541
0.000522882
0.000780242
0.00097475
0.000994168
0.000790412
0.000880848
0.000720838
0.000933918
0.000958934
0.000753488
0.00054522
0.000712397
0.000950783
0.000807753
0.000836475
0.000569299
0.000603945
0.000628319
0.000580291
0.000777192
0.000692678
0.00055675
SCALARS mass double 1
LOOKUP_TABLE default
0.00327549
0.00478242
0.00458909
0.0023191
0.00516383
0.00805935
0.00838365
0.00529932
0.00658136
0.00440747
0.00739829
0.00779994
0.00481578
0.00252149
0.00430484
0.0076679
0.0055344
0.00593499
0.00274913
0.00309392
0.00334869
0.00285631
0.00512354
0.00406984
0.00262926
