# vtk DataFile Version 3.0
DEM2D particles
ASCII
DATASET POLYDATA
POINTS 25 double
0.000436511 0.000190084 0
0.00259373 -2.18905e-05 0
0.00503527 0.0007694 0
0.0075525 -0.000679187 0
0.00982669 -0.00052125 0
0.00134532 0.00235387 0
0.00385427 0.00184232 0
0.0049179 0.000951815 0
0.00662312 0.00258795 0
0.00923317 0.00190177 0
0.000767124 0.00408936 0
0.0037611 0.00298192 0
0.00456232 0.00416809 0
0.00622589 0.00438632 0
0.00871364 0.00363562 0
0.00180206 0.00580115 0
0.00309208 0.00510429 0
0.0055426 0.00554428 0
0.00726105 0.00668715 0
0.00950038 0.00649213 0
0.000727257 0.00767557 0
0.00319925 0.00702588 0
0.00427968 0.00809695 0
0.00693409 0.00753604 0
0.00824173 0.0079635 0
VERTICES 25 50
1 0
1 1
1 2
1 3
1 4
1 5
1 6
1 7
1 8
1 9
1 10
1 11
1 12
1 13
1 14
1 15
1 16
1 17
1 18
1 19
1 20
1 21
1 22
1 23
1 24
POINT_DATA 25
VECTORS velocity double
-9.56858e-55 -0.00970858 0
-6.89888e-55 -0.00970858 0
5.98896e-56 -0.00970858 0
9.38204e-55 -0.00970858 0
1.40381e-54 -0.00970858 0
5.86388e-55 -0.00970858 0
1.45063e-54 -0.00970858 0
-1.39412e-55 -0.00970858 0
-6.39977e-55 -0.00970858 0
3.95944e-55 -0.00970858 0
-3.95445e-55 -0.00970858 0
1.29243e-54 -0.00970858 0
-7.43228e-55 -0.00970858 0
-1.31451e-54 -0.00970858 0
-4.86268e-55 -0.00970858 0
1.36197e-54 -0.00970858 0
1.56355e-55 -0.00970858 0
9.2139e-55 -0.00970858 0
4.43283e-55 -0.00970858 0
8.49698e-55 -0.00970858 0
-4.63144e-55 -0.00970858 0
3.38346e-55 -0.00970858 0
-1.22317e-54 -0.00970858 0
-1.11918e-55 -0.00970858 0
-1.28761e-54 -0.00970858 0
SCALARS radius double 1
LOOKUP_TABLE default
0.000621415
0.000750874
0.000735541
0.000522882
0.000780242
0.00097475
0.000994168
0.000790412
0.000880848
0.000720838
0.000933918
0.000958934
0.000753488
0.00054522
0.000712397
0.000950783
0.000807753
0.000836475
0.000569299
0.000603945
0.000628319
0.000580291
0.000777192
0.000692678
0.00055675
SCALARS mass double 1
LOOKUP_TABLE default
0.00327549
0.00478242
0.00458909
0.0023191
0.00516383
0.00805935
0.00838365
0.00529932
0.00658136
0.00440747
0.00739829
0.00779994
0.00481578
0.00252149
0.00430484
0.0076679
0.0055344
0.00593499
0.00274913
0.00309392
0.00334869
0.00285631
0.00512354
0.00406984
0.00262926
