# vtk DataFile Version 3.0
DEM2D particles
ASCII
DATASET POLYDATA
POINTS 25 double
0.000436511 7.56221e-06 0
0.00259373 -0.000204412 0
0.00503527 0.000586879 0
0.0075525 -0.000861708 0
0.00982669 -0.000703771 0
0.00134532 0.00217135 0
0.00385427 0.0016598 0
0.0049179 0.000769294 0
0.00662312 0.00240543 0
0.00923317 0.00171925 0
0.000767124 0.00390684 0
0.0037611 0.0027994 0
0.00456232 0.00398557 0
0.00622589 0.0042038 0
0.00871364 0.0034531 0
0.00180206 0.00561863 0
0.00309208 0.00492177 0
0.0055426 0.00536176 0
0.00726105 0.00650462 0
0.00950038 0.00630961 0
0.000727257 0.00749305 0
0.00319925 0.00684335 0
0.00427968 0.00791443 0
0.00693409 0.00735352 0
0.00824173 0.00778098 0
VERTICES 25 50
1 0
1 1
1 2
1 3
1 4
1 5
1 6
1 7
1 8
1 9
1 10
1 11
1 12
1 13
1 14
1 15
1 16
1 17
1 18
1 19
1 20
1 21
1 22
1 23
1 24
POINT_DATA 25
VECTORS velocity double
-5.95681e-63 -0.00970858 0
-4.29481e-63 -0.00970858 0
3.72835e-64 -0.00970858 0
5.84068e-63 -0.00970858 0
8.73923e-63 -0.00970858 0
3.65049e-63 -0.00970858 0
9.0307e-63 -0.00970858 0
-8.67891e-64 -0.00970858 0
-3.9841e-63 -0.00970858 0
2.4649e-63 -0.00970858 0
-2.4618e-63 -0.00970858 0
8.04584e-63 -0.00970858 0
-4.62687e-63 -0.00970858 0
-8.18335e-63 -0.00970858 0
-3.0272e-63 -0.00970858 0
8.47878e-63 -0.00970858 0
9.73372e-64 -0.00970858 0
5.736e-63 -0.00970858 0
2.75961e-63 -0.00970858 0
5.28969e-63 -0.00970858 0
-2.88325e-63 -0.00970858 0
2.10633e-63 -0.00970858 0
-7.61468e-63 -0.00970858 0
-6.96734e-64 -0.00970858 0
-8.01584e-63 -0.00970858 0
SCALARS radius double 1
LOOKUP_TABLE default
0.000621415
0.000750874
0.000735541
0.000522882
0.000780242
0.00097475
0.000994168
0.000790412
0.000880848
0.000720838
0.000933918
0.000958934
0.000753488
0.00054522
0.000712397
0.000950783
0.000807753
0.000836475
0.000569299
0.000603945
0.000628319
0.000580291
0.000777192
0.000692678
0.00055675
SCALARS mass double 1
LOOKUP_TABLE default
0.00327549
0.00478242
0.00458909
0.0023191
0.00516383
0.00805935
0.00838365
0.00529932
0.00658136
0.00440747
0.00739829
0.00779994
0.00481578
0.00252149
0.00430484
0.0076679
0.0055344
0.00593499
0.00274913
0.00309392
0.00334869
0.00285631
0.00512354
0.00406984
0.00262926
