# vtk DataFile Version 3.0
DEM2D particles
ASCII
DATASET POLYDATA
POINTS 25 double
0.000440213 0.0013351 0
0.0025964 0.00112452 0
0.00503504 0.00191061 0
0.00754887 0.000471542 0
0.00982126 0.000628441 0
0.00134305 0.00349781 0
0.00384865 0.00298962 0
0.00491844 0.00210497 0
0.0066256 0.00373036 0
0.00923164 0.00304868 0
0.000768654 0.00523504 0
0.0037561 0.00413487 0
0.00456519 0.00531325 0
0.00623098 0.00553004 0
0.00871552 0.00478428 0
0.00179679 0.00694872 0
0.00309147 0.00625644 0
0.00553904 0.00669354 0
0.00725933 0.0078289 0
0.0094971 0.00763516 0
0.000729049 0.00882397 0
0.00319794 0.00817854 0
0.00428442 0.00924258 0
0.00693452 0.00868536 0
0.00824672 0.00911001 0
VERTICES 25 50
1 0
1 1
1 2
1 3
1 4
1 5
1 6
1 7
1 8
1 9
1 10
1 11
1 12
1 13
1 14
1 15
1 16
1 17
1 18
1 19
1 20
1 21
1 22
1 23
1 24
POINT_DATA 25
VECTORS velocity double
-0.00373979 -0.00714556 0
-0.00269636 -0.0085524 0
0.000234073 -0.00330072 0
0.00366688 -0.0129148 0
0.00548665 -0.0118666 0
0.00229184 -0.00605853 0
0.00566964 -0.00945362 0
-0.000544878 -0.0153638 0
-0.00250129 -0.00450495 0
0.00154751 -0.00905906 0
-0.00154556 -0.00781406 0
0.00505132 -0.015164 0
-0.00290484 -0.00729151 0
-0.00513766 -0.00584319 0
-0.00190053 -0.0108254 0
0.00532313 -0.00972684 0
0.000611101 -0.0143518 0
0.00360117 -0.0114316 0
0.00173253 -0.00384663 0
0.00332097 -0.00514091 0
-0.00181016 -0.0105603 0
0.00132239 -0.0148722 0
-0.00478064 -0.00776365 0
-0.000437422 -0.0114863 0
-0.00503249 -0.00864933 0
SCALARS radius double 1
LOOKUP_TABLE default
0.000621415
0.000750874
0.000735541
0.000522882
0.000780242
0.00097475
0.000994168
0.000790412
0.000880848
0.000720838
0.000933918
0.000958934
0.000753488
0.00054522
0.000712397
0.000950783
0.000807753
0.000836475
0.000569299
0.000603945
0.000628319
0.000580291
0.000777192
0.000692678
0.00055675
SCALARS mass double 1
LOOKUP_TABLE default
0.00327549
0.00478242
0.00458909
0.0023191
0.00516383
0.00805935
0.00838365
0.00529932
0.00658136
0.00440747
0.00739829
0.00779994
0.00481578
0.00252149
0.00430484
0.0076679
0.0055344
0.00593499
0.00274913
0.00309392
0.00334869
0.00285631
0.00512354
0.00406984
0.00262926
