# vtk DataFile Version 3.0
DEM2D particles
ASCII
DATASET POLYDATA
POINTS 25 double
0.000436511 -0.000508934 0
0.00259373 -0.000720909 0
0.00503527 7.0382e-05 0
0.0075525 -0.00137821 0
0.00982669 -0.00122027 0
0.00134532 0.00165485 0
0.00385427 0.0011433 0
0.0049179 0.000252797 0
0.00662312 0.00188894 0
0.00923317 0.00120275 0
0.000767124 0.00339034 0
0.0037611 0.0022829 0
0.00456232 0.00346907 0
0.00622589 0.0036873 0
0.00871364 0.0029366 0
0.00180206 0.00510213 0
0.00309208 0.00440527 0
0.0055426 0.00484527 0
0.00726105 0.00598813 0
0.00950038 0.00579311 0
0.000727257 0.00697656 0
0.00319925 0.00632686 0
0.00427968 0.00739793 0
0.00693409 0.00683703 0
0.00824173 0.00726449 0
VERTICES 25 50
1 0
1 1
1 2
1 3
1 4
1 5
1 6
1 7
1 8
1 9
1 10
1 11
1 12
1 13
1 14
1 15
1 16
1 17
1 18
1 19
1 20
1 21
1 22
1 23
1 24
POINT_DATA 25
VECTORS velocity double
-3.58302e-86 -0.00970858 0
-2.58333e-86 -0.00970858 0
2.2426e-87 -0.00970858 0
3.51316e-86 -0.00970858 0
5.25664e-86 -0.00970858 0
2.19577e-86 -0.00970858 0
5.43196e-86 -0.00970858 0
-5.22036e-87 -0.00970858 0
-2.39644e-86 -0.00970858 0
1.48264e-86 -0.00970858 0
-1.48077e-86 -0.00970858 0
4.83957e-86 -0.00970858 0
-2.78306e-86 -0.00970858 0
-4.92228e-86 -0.00970858 0
-1.82086e-86 -0.00970858 0
5.09998e-86 -0.00970858 0
5.85483e-87 -0.00970858 0
3.4502e-86 -0.00970858 0
1.6599e-86 -0.00970858 0
3.18175e-86 -0.00970858 0
-1.73427e-86 -0.00970858 0
1.26696e-86 -0.00970858 0
-4.58023e-86 -0.00970858 0
-4.19085e-87 -0.00970858 0
-4.82153e-86 -0.00970858 0
SCALARS radius double 1
LOOKUP_TABLE default
0.000621415
0.000750874
0.000735541
0.000522882
0.000780242
0.00097475
0.000994168
0.000790412
0.000880848
0.000720838
0.000933918
0.000958934
0.000753488
0.00054522
0.000712397
0.000950783
0.000807753
0.000836475
0.000569299
0.000603945
0.000628319
0.000580291
0.000777192
0.000692678
0.00055675
SCALARS mass double 1
LOOKUP_TABLE default
0.00327549
0.00478242
0.00458909
0.0023191
0.00516383
0.00805935
0.00838365
0.00529932
0.00658136
0.00440747
0.00739829
0.00779994
0.00481578
0.00252149
0.00430484
0.0076679
0.0055344
0.00593499
0.00274913
0.00309392
0.00334869
0.00285631
0.00512354
0.00406984
0.00262926
