# vtk DataFile Version 3.0
DEM2D particles
ASCII
DATASET POLYDATA
POINTS 25 double
0.000436511 -6.03979e-05 0
0.00259373 -0.000272372 0
0.00503527 0.000518919 0
0.0075525 -0.000929669 0
0.00982669 -0.000771731 0
0.00134532 0.00210339 0
0.00385427 0.00159184 0
0.0049179 0.000701334 0
0.00662312 0.00233747 0
0.00923317 0.00165129 0
0.000767124 0.00383888 0
0.0037611 0.00273143 0
0.00456232 0.00391761 0
0.00622589 0.00413584 0
0.00871364 0.00338514 0
0.00180206 0.00555067 0
0.00309208 0.00485381 0
0.0055426 0.0052938 0
0.00726105 0.00643666 0
0.00950038 0.00624165 0
0.000727257 0.00742509 0
0.00319925 0.00677539 0
0.00427968 0.00784647 0
0.00693409 0.00728556 0
0.00824173 0.00771302 0
VERTICES 25 50
1 0
1 1
1 2
1 3
1 4
1 5
1 6
1 7
1 8
1 9
1 10
1 11
1 12
1 13
1 14
1 15
1 16
1 17
1 18
1 19
1 20
1 21
1 22
1 23
1 24
POINT_DATA 25
VECTORS velocity double
-5.24384e-66 -0.00970858 0
-3.78077e-66 -0.00970858 0
3.28211e-67 -0.00970858 0
5.14161e-66 -0.00970858 0
7.69324e-66 -0.00970858 0
3.21357e-66 -0.00970858 0
7.94982e-66 -0.00970858 0
-7.64014e-67 -0.00970858 0
-3.50725e-66 -0.00970858 0
2.16988e-66 -0.00970858 0
-2.16715e-66 -0.00970858 0
7.08284e-66 -0.00970858 0
-4.07309e-66 -0.00970858 0
-7.2039e-66 -0.00970858 0
-2.66488e-66 -0.00970858 0
7.46396e-66 -0.00970858 0
8.5687e-67 -0.00970858 0
5.04946e-66 -0.00970858 0
2.42931e-66 -0.00970858 0
4.65658e-66 -0.00970858 0
-2.53816e-66 -0.00970858 0
1.85423e-66 -0.00970858 0
-6.70329e-66 -0.00970858 0
-6.13343e-67 -0.00970858 0
-7.05644e-66 -0.00970858 0
SCALARS radius double 1
LOOKUP_TABLE default
0.000621415
0.000750874
0.000735541
0.000522882
0.000780242
0.00097475
0.000994168
0.000790412
0.000880848
0.000720838
0.000933918
0.000958934
0.000753488
0.00054522
0.000712397
0.000950783
0.000807753
0.000836475
0.000569299
0.000603945
0.000628319
0.000580291
0.000777192
0.000692678
0.00055675
SCALARS mass double 1
LOOKUP_TABLE default
0.00327549
0.00478242
0.00458909
0.0023191
0.00516383
0.00805935
0.00838365
0.00529932
0.00658136
0.00440747
0.00739829
0.00779994
0.00481578
0.00252149
0.00430484
0.0076679
0.0055344
0.00593499
0.00274913
0.00309392
0.00334869
0.00285631
0.00512354
0.00406984
0.00262926
