# vtk DataFile Version 3.0
DEM2D particles
ASCII
DATASET POLYDATA
POINTS 25 double
0.000436511 0.00124638 0
0.00259373 0.0010344 0
0.00503527 0.00182569 0
0.0075525 0.000377107 0
0.00982669 0.000535044 0
0.00134532 0.00341016 0
0.00385427 0.00289861 0
0.0049179 0.00200811 0
0.00662312 0.00364425 0
0.00923317 0.00295806 0
0.000767124 0.00514565 0
0.0037611 0.00403821 0
0.00456232 0.00522439 0
0.00622589 0.00544261 0
0.00871364 0.00469191 0
0.00180206 0.00685745 0
0.00309208 0.00616058 0
0.0055426 0.00660058 0
0.00726105 0.00774344 0
0.00950038 0.00754843 0
0.000727257 0.00873187 0
0.00319925 0.00808217 0
0.00427968 0.00915325 0
0.00693409 0.00859234 0
0.00824174 0.0090198 0
VERTICES 25 50
1 0
1 1
1 2
1 3
1 4
1 5
1 6
1 7
1 8
1 9
1 10
1 11
1 12
1 13
1 14
1 15
1 16
1 17
1 18
1 19
1 20
1 21
1 22
1 23
1 24
POINT_DATA 25
VECTORS velocity double
-2.95074e-07 -0.00970838 0
-2.12746e-07 -0.00970849 0
1.84686e-08 -0.00970808 0
2.89321e-07 -0.00970884 0
4.32902e-07 -0.00970875 0
1.80829e-07 -0.0097083 0
4.4734e-07 -0.00970856 0
-4.29914e-08 -0.00970903 0
-1.97355e-07 -0.00970817 0
1.221e-07 -0.00970853 0
-1.21946e-07 -0.00970843 0
3.98555e-07 -0.00970901 0
-2.29195e-07 -0.00970839 0
-4.05367e-07 -0.00970828 0
-1.49954e-07 -0.00970867 0
4.20001e-07 -0.00970858 0
4.82165e-08 -0.00970895 0
2.84136e-07 -0.00970872 0
1.36699e-07 -0.00970812 0
2.62028e-07 -0.00970822 0
-1.42823e-07 -0.00970865 0
1.04338e-07 -0.00970899 0
-3.77197e-07 -0.00970843 0
-3.45131e-08 -0.00970872 0
-3.97069e-07 -0.0097085 0
SCALARS radius double 1
LOOKUP_TABLE default
0.000621415
0.000750874
0.000735541
0.000522882
0.000780242
0.00097475
0.000994168
0.000790412
0.000880848
0.000720838
0.000933918
0.000958934
0.000753488
0.00054522
0.000712397
0.000950783
0.000807753
0.000836475
0.000569299
0.000603945
0.000628319
0.000580291
0.000777192
0.000692678
0.00055675
SCALARS mass double 1
LOOKUP_TABLE default
0.00327549
0.00478242
0.00458909
0.0023191
0.00516383
0.00805935
0.00838365
0.00529932
0.00658136
0.00440747
0.00739829
0.00779994
0.00481578
0.00252149
0.00430484
0.0076679
0.0055344
0.00593499
0.00274913
0.00309392
0.00334869
0.00285631
0.00512354
0.00406984
0.00262926
