# vtk DataFile Version 3.0
DEM2D particles
ASCII
DATASET POLYDATA
POINTS 25 double
0.000436511 0.000234743 0
0.00259373 2.27689e-05 0
0.00503527 0.00081406 0
0.0075525 -0.000634528 0
0.00982669 -0.000476591 0
0.00134532 0.00239853 0
0.00385427 0.00188698 0
0.0049179 0.000996475 0
0.00662312 0.00263261 0
0.00923317 0.00194643 0
0.000767124 0.00413402 0
0.0037611 0.00302658 0
0.00456232 0.00421275 0
0.00622589 0.00443098 0
0.00871364 0.00368028 0
0.00180206 0.00584581 0
0.00309208 0.00514895 0
0.0055426 0.00558894 0
0.00726105 0.0067318 0
0.00950038 0.00653679 0
0.000727257 0.00772023 0
0.00319925 0.00707054 0
0.00427968 0.00814161 0
0.00693409 0.0075807 0
0.00824173 0.00800816 0
VERTICES 25 50
1 0
1 1
1 2
1 3
1 4
1 5
1 6
1 7
1 8
1 9
1 10
1 11
1 12
1 13
1 14
1 15
1 16
1 17
1 18
1 19
1 20
1 21
1 22
1 23
1 24
POINT_DATA 25
VECTORS velocity double
-9.74223e-53 -0.00970858 0
-7.02407e-53 -0.00970858 0
6.09764e-54 -0.00970858 0
9.5523e-53 -0.00970858 0
1.42928e-52 -0.00970858 0
5.97029e-53 -0.00970858 0
1.47695e-52 -0.00970858 0
-1.41942e-53 -0.00970858 0
-6.51591e-53 -0.00970858 0
4.03129e-53 -0.00970858 0
-4.02622e-53 -0.00970858 0
1.31588e-52 -0.00970858 0
-7.56715e-53 -0.00970858 0
-1.33837e-52 -0.00970858 0
-4.95093e-53 -0.00970858 0
1.38668e-52 -0.00970858 0
1.59193e-53 -0.00970858 0
9.3811e-53 -0.00970858 0
4.51328e-53 -0.00970858 0
8.65118e-53 -0.00970858 0
-4.71549e-53 -0.00970858 0
3.44485e-53 -0.00970858 0
-1.24536e-52 -0.00970858 0
-1.13949e-53 -0.00970858 0
-1.31097e-52 -0.00970858 0
SCALARS radius double 1
LOOKUP_TABLE default
0.000621415
0.000750874
0.000735541
0.000522882
0.000780242
0.00097475
0.000994168
0.000790412
0.000880848
0.000720838
0.000933918
0.000958934
0.000753488
0.00054522
0.000712397
0.000950783
0.000807753
0.000836475
0.000569299
0.000603945
0.000628319
0.000580291
0.000777192
0.000692678
0.00055675
SCALARS mass double 1
LOOKUP_TABLE default
0.00327549
0.00478242
0.00458909
0.0023191
0.00516383
0.00805935
0.00838365
0.00529932
0.00658136
0.00440747
0.00739829
0.00779994
0.00481578
0.00252149
0.00430484
0.0076679
0.0055344
0.00593499
0.00274913
0.00309392
0.00334869
0.00285631
0.00512354
0.00406984
0.00262926
