# vtk DataFile Version 3.0
DEM2D particles
ASCII
DATASET POLYDATA
POINTS 25 double
0.000436511 0.00122696 0
0.00259373 0.00101499 0
0.00503527 0.00180628 0
0.0075525 0.00035769 0
0.00982669 0.000515627 0
0.00134532 0.00339075 0
0.00385427 0.0028792 0
0.0049179 0.00198869 0
0.00662312 0.00362483 0
0.00923317 0.00293865 0
0.000767124 0.00512623 0
0.0037611 0.00401879 0
0.00456232 0.00520497 0
0.00622589 0.00542319 0
0.00871364 0.0046725 0
0.00180206 0.00683803 0
0.00309208 0.00614117 0
0.0055426 0.00658116 0
0.00726105 0.00772402 0
0.00950038 0.00752901 0
0.000727257 0.00871245 0
0.00319925 0.00806275 0
0.00427968 0.00913383 0
0.00693409 0.00857292 0
0.00824173 0.00900038 0
VERTICES 25 50
1 0
1 1
1 2
1 3
1 4
1 5
1 6
1 7
1 8
1 9
1 10
1 11
1 12
1 13
1 14
1 15
1 16
1 17
1 18
1 19
1 20
1 21
1 22
1 23
1 24
POINT_DATA 25
VECTORS velocity double
-3.95339e-08 -0.00970856 0
-2.85036e-08 -0.00970857 0
2.47442e-09 -0.00970852 0
3.87631e-08 -0.00970862 0
5.80001e-08 -0.00970861 0
2.42274e-08 -0.00970854 0
5.99345e-08 -0.00970858 0
-5.75998e-09 -0.00970864 0
-2.64415e-08 -0.00970853 0
1.6359e-08 -0.00970858 0
-1.63384e-08 -0.00970856 0
5.33983e-08 -0.00970864 0
-3.07074e-08 -0.00970856 0
-5.43109e-08 -0.00970854 0
-2.00908e-08 -0.0097086 0
5.62716e-08 -0.00970858 0
6.46003e-09 -0.00970863 0
3.80684e-08 -0.0097086 0
1.83148e-08 -0.00970852 0
3.51064e-08 -0.00970854 0
-1.91354e-08 -0.00970859 0
1.39792e-08 -0.00970864 0
-5.05368e-08 -0.00970856 0
-4.62405e-09 -0.0097086 0
-5.31992e-08 -0.00970857 0
SCALARS radius double 1
LOOKUP_TABLE default
0.000621415
0.000750874
0.000735541
0.000522882
0.000780242
0.00097475
0.000994168
0.000790412
0.000880848
0.000720838
0.000933918
0.000958934
0.000753488
0.00054522
0.000712397
0.000950783
0.000807753
0.000836475
0.000569299
0.000603945
0.000628319
0.000580291
0.000777192
0.000692678
0.00055675
SCALARS mass double 1
LOOKUP_TABLE default
0.00327549
0.00478242
0.00458909
0.0023191
0.00516383
0.00805935
0.00838365
0.00529932
0.00658136
0.00440747
0.00739829
0.00779994
0.00481578
0.00252149
0.00430484
0.0076679
0.0055344
0.00593499
0.00274913
0.00309392
0.00334869
0.00285631
0.00512354
0.00406984
0.00262926
