# vtk DataFile Version 3.0
DEM2D particles
ASCII
DATASET POLYDATA
POINTS 25 double
0.000436531 0.00128714 0
0.00259374 0.00107517 0
0.00503527 0.00186644 0
0.00755248 0.0004179 0
0.00982667 0.000575831 0
0.00134531 0.00345092 0
0.00385424 0.00293939 0
0.0049179 0.00204892 0
0.00662313 0.003685 0
0.00923316 0.00299884 0
0.000767132 0.00518642 0
0.00376108 0.00407902 0
0.00456233 0.00526515 0
0.00622592 0.00548337 0
0.00871365 0.0047327 0
0.00180203 0.00689822 0
0.00309207 0.00620138 0
0.00554258 0.00664136 0
0.00726104 0.00778418 0
0.00950037 0.00758918 0
0.000727266 0.00877265 0
0.00319924 0.00812297 0
0.00427971 0.00919401 0
0.00693409 0.00863312 0
0.00824176 0.00906057 0
VERTICES 25 50
1 0
1 1
1 2
1 3
1 4
1 5
1 6
1 7
1 8
1 9
1 10
1 11
1 12
1 13
1 14
1 15
1 16
1 17
1 18
1 19
1 20
1 21
1 22
1 23
1 24
POINT_DATA 25
VECTORS velocity double
-2.00978e-05 -0.00969481 0
-1.44904e-05 -0.00970237 0
1.25792e-06 -0.00967415 0
1.9706e-05 -0.00972581 0
2.94855e-05 -0.00972018 0
1.23165e-05 -0.00968897 0
3.04689e-05 -0.00970721 0
-2.9282e-06 -0.00973897 0
-1.34421e-05 -0.00968062 0
8.31639e-06 -0.00970509 0
-8.30592e-06 -0.0096984 0
2.7146e-05 -0.0097379 0
-1.56107e-05 -0.00969559 0
-2.761e-05 -0.00968781 0
-1.02136e-05 -0.00971459 0
2.86067e-05 -0.00970868 0
3.28408e-06 -0.00973354 0
1.93528e-05 -0.00971784 0
9.31071e-06 -0.00967708 0
1.7847e-05 -0.00968404 0
-9.72786e-06 -0.00971316 0
7.10659e-06 -0.00973633 0
-2.56913e-05 -0.00969813 0
-2.35073e-06 -0.00971814 0
-2.70448e-05 -0.00970289 0
SCALARS radius double 1
LOOKUP_TABLE default
0.000621415
0.000750874
0.000735541
0.000522882
0.000780242
0.00097475
0.000994168
0.000790412
0.000880848
0.000720838
0.000933918
0.000958934
0.000753488
0.00054522
0.000712397
0.000950783
0.000807753
0.000836475
0.000569299
0.000603945
0.000628319
0.000580291
0.000777192
0.000692678
0.00055675
SCALARS mass double 1
LOOKUP_TABLE default
0.00327549
0.00478242
0.00458909
0.0023191
0.00516383
0.00805935
0.00838365
0.00529932
0.00658136
0.00440747
0.00739829
0.00779994
0.00481578
0.00252149
0.00430484
0.0076679
0.0055344
0.00593499
0.00274913
0.00309392
0.00334869
0.00285631
0.00512354
0.00406984
0.00262926
