# vtk DataFile Version 3.0
DEM2D particles
ASCII
DATASET POLYDATA
POINTS 25 double
0.000436511 0.00102308 0
0.00259373 0.000811106 0
0.00503527 0.0016024 0
0.0075525 0.000153809 0
0.00982669 0.000311746 0
0.00134532 0.00318687 0
0.00385427 0.00267532 0
0.0049179 0.00178481 0
0.00662312 0.00342095 0
0.00923317 0.00273477 0
0.000767124 0.00492235 0
0.0037611 0.00381491 0
0.00456232 0.00500109 0
0.00622589 0.00521931 0
0.00871364 0.00446862 0
0.00180206 0.00663415 0
0.00309208 0.00593729 0
0.0055426 0.00637728 0
0.00726105 0.00752014 0
0.00950038 0.00732513 0
0.000727257 0.00850857 0
0.00319925 0.00785887 0
0.00427968 0.00892995 0
0.00693409 0.00836904 0
0.00824173 0.0087965 0
VERTICES 25 50
1 0
1 1
1 2
1 3
1 4
1 5
1 6
1 7
1 8
1 9
1 10
1 11
1 12
1 13
1 14
1 15
1 16
1 17
1 18
1 19
1 20
1 21
1 22
1 23
1 24
POINT_DATA 25
VECTORS velocity double
-2.69698e-17 -0.00970858 0
-1.9445e-17 -0.00970858 0
1.68804e-18 -0.00970858 0
2.6444e-17 -0.00970858 0
3.95674e-17 -0.00970858 0
1.65278e-17 -0.00970858 0
4.0887e-17 -0.00970858 0
-3.92943e-18 -0.00970858 0
-1.80383e-17 -0.00970858 0
1.116e-17 -0.00970858 0
-1.11459e-17 -0.00970858 0
3.6428e-17 -0.00970858 0
-2.09485e-17 -0.00970858 0
-3.70506e-17 -0.00970858 0
-1.37059e-17 -0.00970858 0
3.83882e-17 -0.00970858 0
4.407e-18 -0.00970858 0
2.59701e-17 -0.00970858 0
1.24943e-17 -0.00970858 0
2.39494e-17 -0.00970858 0
-1.30541e-17 -0.00970858 0
9.53654e-18 -0.00970858 0
-3.44759e-17 -0.00970858 0
-3.15451e-18 -0.00970858 0
-3.62922e-17 -0.00970858 0
SCALARS radius double 1
LOOKUP_TABLE default
0.000621415
0.000750874
0.000735541
0.000522882
0.000780242
0.00097475
0.000994168
0.000790412
0.000880848
0.000720838
0.000933918
0.000958934
0.000753488
0.00054522
0.000712397
0.000950783
0.000807753
0.000836475
0.000569299
0.000603945
0.000628319
0.000580291
0.000777192
0.000692678
0.00055675
SCALARS mass double 1
LOOKUP_TABLE default
0.00327549
0.00478242
0.00458909
0.0023191
0.00516383
0.00805935
0.00838365
0.00529932
0.00658136
0.00440747
0.00739829
0.00779994
0.00481578
0.00252149
0.00430484
0.0076679
0.0055344
0.00593499
0.00274913
0.00309392
0.00334869
0.00285631
0.00512354
0.00406984
0.00262926
