# vtk DataFile Version 3.0
DEM2D particles
ASCII
DATASET POLYDATA
POINTS 25 double
0.000436782 0.00131221 0
0.00259392 0.00110034 0
0.00503525 0.00189125 0
0.00755224 0.000443358 0
0.0098263 0.000601219 0
0.00134515 0.00347592 0
0.00385385 0.00296461 0
0.00491794 0.00207454 0
0.0066233 0.00370989 0
0.00923306 0.00302403 0
0.000767236 0.00521153 0
0.00376074 0.00410462 0
0.00456253 0.00529023 0
0.00622626 0.00550835 0
0.00871378 0.00475801 0
0.00180167 0.00692346 0
0.00309203 0.00622694 0
0.00554234 0.00666672 0
0.00726092 0.00780903 0
0.00950014 0.00761411 0
0.000727388 0.00879795 0
0.00319915 0.00814856 0
0.00428003 0.00921912 0
0.00693412 0.00865848 0
0.0082421 0.00908574 0
VERTICES 25 50
1 0
1 1
1 2
1 3
1 4
1 5
1 6
1 7
1 8
1 9
1 10
1 11
1 12
1 13
1 14
1 15
1 16
1 17
1 18
1 19
1 20
1 21
1 22
1 23
1 24
POINT_DATA 25
VECTORS velocity double
-0.000274156 -0.00952069 0
-0.000197665 -0.00962383 0
1.71594e-05 -0.00923884 0
0.000268811 -0.00994362 0
0.000402214 -0.00986678 0
0.00016801 -0.00944101 0
0.000415629 -0.00968989 0
-3.99438e-05 -0.0101232 0
-0.000183364 -0.00932712 0
0.000113445 -0.00966097 0
-0.000113302 -0.0095697 0
0.000370302 -0.0101085 0
-0.000212947 -0.00953139 0
-0.000376631 -0.00942522 0
-0.000139324 -0.00979046 0
0.000390227 -0.00970992 0
4.47985e-05 -0.010049 0
0.000263994 -0.0098349 0
0.000127008 -0.00927886 0
0.000243453 -0.00937374 0
-0.000132699 -0.00977102 0
9.69418e-05 -0.0100871 0
-0.000350458 -0.009566 0
-3.20665e-05 -0.00983891 0
-0.000368921 -0.00963093 0
SCALARS radius double 1
LOOKUP_TABLE default
0.000621415
0.000750874
0.000735541
0.000522882
0.000780242
0.00097475
0.000994168
0.000790412
0.000880848
0.000720838
0.000933918
0.000958934
0.000753488
0.00054522
0.000712397
0.000950783
0.000807753
0.000836475
0.000569299
0.000603945
0.000628319
0.000580291
0.000777192
0.000692678
0.00055675
SCALARS mass double 1
LOOKUP_TABLE default
0.00327549
0.00478242
0.00458909
0.0023191
0.00516383
0.00805935
0.00838365
0.00529932
0.00658136
0.00440747
0.00739829
0.00779994
0.00481578
0.00252149
0.00430484
0.0076679
0.0055344
0.00593499
0.00274913
0.00309392
0.00334869
0.00285631
0.00512354
0.00406984
0.00262926
