# vtk DataFile Version 3.0
DEM2D particles
ASCII
DATASET POLYDATA
POINTS 25 double
0.000436511 -0.000512818 0
0.00259373 -0.000724792 0
0.00503527 6.64986e-05 0
0.0075525 -0.00138209 0
0.00982669 -0.00122415 0
0.00134532 0.00165097 0
0.00385427 0.00113942 0
0.0049179 0.000248914 0
0.00662312 0.00188505 0
0.00923317 0.00119887 0
0.000767124 0.00338646 0
0.0037611 0.00227901 0
0.00456232 0.00346519 0
0.00622589 0.00368342 0
0.00871364 0.00293272 0
0.00180206 0.00509825 0
0.00309208 0.00440139 0
0.0055426 0.00484138 0
0.00726105 0.00598424 0
0.00950038 0.00578923 0
0.000727257 0.00697267 0
0.00319925 0.00632297 0
0.00427968 0.00739405 0
0.00693409 0.00683314 0
0.00824173 0.0072606 0
VERTICES 25 50
1 0
1 1
1 2
1 3
1 4
1 5
1 6
1 7
1 8
1 9
1 10
1 11
1 12
1 13
1 14
1 15
1 16
1 17
1 18
1 19
1 20
1 21
1 22
1 23
1 24
POINT_DATA 25
VECTORS velocity double
-2.39694e-86 -0.00970858 0
-1.72817e-86 -0.00970858 0
1.50024e-87 -0.00970858 0
2.35021e-86 -0.00970858 0
3.51654e-86 -0.00970858 0
1.46891e-86 -0.00970858 0
3.63383e-86 -0.00970858 0
-3.49227e-87 -0.00970858 0
-1.60315e-86 -0.00970858 0
9.91842e-87 -0.00970858 0
-9.90593e-87 -0.00970858 0
3.23753e-86 -0.00970858 0
-1.86179e-86 -0.00970858 0
-3.29287e-86 -0.00970858 0
-1.21811e-86 -0.00970858 0
3.41174e-86 -0.00970858 0
3.91671e-87 -0.00970858 0
2.30809e-86 -0.00970858 0
1.11043e-86 -0.00970858 0
2.1285e-86 -0.00970858 0
-1.16018e-86 -0.00970858 0
8.47558e-87 -0.00970858 0
-3.06404e-86 -0.00970858 0
-2.80356e-87 -0.00970858 0
-3.22546e-86 -0.00970858 0
SCALARS radius double 1
LOOKUP_TABLE default
0.000621415
0.000750874
0.000735541
0.000522882
0.000780242
0.00097475
0.000994168
0.000790412
0.000880848
0.000720838
0.000933918
0.000958934
0.000753488
0.00054522
0.000712397
0.000950783
0.000807753
0.000836475
0.000569299
0.000603945
0.000628319
0.000580291
0.000777192
0.000692678
0.00055675
SCALARS mass double 1
LOOKUP_TABLE default
0.00327549
0.00478242
0.00458909
0.0023191
0.00516383
0.00805935
0.00838365
0.00529932
0.00658136
0.00440747
0.00739829
0.00779994
0.00481578
0.00252149
0.00430484
0.0076679
0.0055344
0.00593499
0.00274913
0.00309392
0.00334869
0.00285631
0.00512354
0.00406984
0.00262926
