# vtk DataFile Version 3.0
DEM2D particles
ASCII
DATASET POLYDATA
POINTS 25 double
0.000436511 9.49395e-05 0
0.00259373 -0.000117035 0
0.00503527 0.000674256 0
0.0075525 -0.000774331 0
0.00982669 -0.000616394 0
0.00134532 0.00225873 0
0.00385427 0.00174717 0
0.0049179 0.000856671 0
0.00662312 0.00249281 0
0.00923317 0.00180662 0
0.000767124 0.00399421 0
0.0037611 0.00288677 0
0.00456232 0.00407295 0
0.00622589 0.00429117 0
0.00871364 0.00354048 0
0.00180206 0.00570601 0
0.00309208 0.00500914 0
0.0055426 0.00544914 0
0.00726105 0.006592 0
0.00950038 0.00639699 0
0.000727257 0.00758043 0
0.00319925 0.00693073 0
0.00427968 0.00800181 0
0.00693409 0.0074409 0
0.00824173 0.00786836 0
VERTICES 25 50
1 0
1 1
1 2
1 3
1 4
1 5
1 6
1 7
1 8
1 9
1 10
1 11
1 12
1 13
1 14
1 15
1 16
1 17
1 18
1 19
1 20
1 21
1 22
1 23
1 24
POINT_DATA 25
VECTORS velocity double
-5.05055e-59 -0.00970858 0
-3.64141e-59 -0.00970858 0
3.16113e-60 -0.00970858 0
4.95208e-59 -0.00970858 0
7.40965e-59 -0.00970858 0
3.09511e-59 -0.00970858 0
7.65678e-59 -0.00970858 0
-7.35851e-60 -0.00970858 0
-3.37797e-59 -0.00970858 0
2.08989e-59 -0.00970858 0
-2.08726e-59 -0.00970858 0
6.82176e-59 -0.00970858 0
-3.92295e-59 -0.00970858 0
-6.93835e-59 -0.00970858 0
-2.56665e-59 -0.00970858 0
7.18883e-59 -0.00970858 0
8.25285e-60 -0.00970858 0
4.86333e-59 -0.00970858 0
2.33977e-59 -0.00970858 0
4.48493e-59 -0.00970858 0
-2.44459e-59 -0.00970858 0
1.78588e-59 -0.00970858 0
-6.45619e-59 -0.00970858 0
-5.90734e-60 -0.00970858 0
-6.79632e-59 -0.00970858 0
SCALARS radius double 1
LOOKUP_TABLE default
0.000621415
0.000750874
0.000735541
0.000522882
0.000780242
0.00097475
0.000994168
0.000790412
0.000880848
0.000720838
0.000933918
0.000958934
0.000753488
0.00054522
0.000712397
0.000950783
0.000807753
0.000836475
0.000569299
0.000603945
0.000628319
0.000580291
0.000777192
0.000692678
0.00055675
SCALARS mass double 1
LOOKUP_TABLE default
0.00327549
0.00478242
0.00458909
0.0023191
0.00516383
0.00805935
0.00838365
0.00529932
0.00658136
0.00440747
0.00739829
0.00779994
0.00481578
0.00252149
0.00430484
0.0076679
0.0055344
0.00593499
0.00274913
0.00309392
0.00334869
0.00285631
0.00512354
0.00406984
0.00262926
