# vtk DataFile Version 3.0
DEM2D particles
ASCII
DATASET POLYDATA
POINTS 25 double
0.000436511 0.000968712 0
0.00259373 0.000756738 0
0.00503527 0.00154803 0
0.0075525 9.94413e-05 0
0.00982669 0.000257378 0
0.00134532 0.0031325 0
0.00385427 0.00262095 0
0.0049179 0.00173044 0
0.00662312 0.00336658 0
0.00923317 0.0026804 0
0.000767124 0.00486799 0
0.0037611 0.00376054 0
0.00456232 0.00494672 0
0.00622589 0.00516495 0
0.00871364 0.00441425 0
0.00180206 0.00657978 0
0.00309208 0.00588292 0
0.0055426 0.00632291 0
0.00726105 0.00746577 0
0.00950038 0.00727076 0
0.000727257 0.0084542 0
0.00319925 0.0078045 0
0.00427968 0.00887558 0
0.00693409 0.00831467 0
0.00824173 0.00874213 0
VERTICES 25 50
1 0
1 1
1 2
1 3
1 4
1 5
1 6
1 7
1 8
1 9
1 10
1 11
1 12
1 13
1 14
1 15
1 16
1 17
1 18
1 19
1 20
1 21
1 22
1 23
1 24
POINT_DATA 25
VECTORS velocity double
-9.69587e-20 -0.00970858 0
-6.99065e-20 -0.00970858 0
6.06863e-21 -0.00970858 0
9.50685e-20 -0.00970858 0
1.42248e-19 -0.00970858 0
5.94189e-20 -0.00970858 0
1.46992e-19 -0.00970858 0
-1.41266e-20 -0.00970858 0
-6.48491e-20 -0.00970858 0
4.01211e-20 -0.00970858 0
-4.00706e-20 -0.00970858 0
1.30962e-19 -0.00970858 0
-7.53115e-20 -0.00970858 0
-1.332e-19 -0.00970858 0
-4.92737e-20 -0.00970858 0
1.38009e-19 -0.00970858 0
1.58435e-20 -0.00970858 0
9.33647e-20 -0.00970858 0
4.4918e-20 -0.00970858 0
8.61002e-20 -0.00970858 0
-4.69305e-20 -0.00970858 0
3.42847e-20 -0.00970858 0
-1.23944e-19 -0.00970858 0
-1.13407e-20 -0.00970858 0
-1.30474e-19 -0.00970858 0
SCALARS radius double 1
LOOKUP_TABLE default
0.000621415
0.000750874
0.000735541
0.000522882
0.000780242
0.00097475
0.000994168
0.000790412
0.000880848
0.000720838
0.000933918
0.000958934
0.000753488
0.00054522
0.000712397
0.000950783
0.000807753
0.000836475
0.000569299
0.000603945
0.000628319
0.000580291
0.000777192
0.000692678
0.00055675
SCALARS mass double 1
LOOKUP_TABLE default
0.00327549
0.00478242
0.00458909
0.0023191
0.00516383
0.00805935
0.00838365
0.00529932
0.00658136
0.00440747
0.00739829
0.00779994
0.00481578
0.00252149
0.00430484
0.0076679
0.0055344
0.00593499
0.00274913
0.00309392
0.00334869
0.00285631
0.00512354
0.00406984
0.00262926
