# vtk DataFile Version 3.0
DEM2D particles
ASCII
DATASET POLYDATA
POINTS 25 double
0.000436511 -0.000320588 0
0.00259373 -0.000532562 0
0.00503527 0.000258729 0
0.0075525 -0.00118986 0
0.00982669 -0.00103192 0
0.00134532 0.0018432 0
0.00385427 0.00133165 0
0.0049179 0.000441144 0
0.00662312 0.00207728 0
0.00923317 0.0013911 0
0.000767124 0.00357869 0
0.0037611 0.00247124 0
0.00456232 0.00365742 0
0.00622589 0.00387565 0
0.00871364 0.00312495 0
0.00180206 0.00529048 0
0.00309208 0.00459362 0
0.0055426 0.00503361 0
0.00726105 0.00617647 0
0.00950038 0.00598146 0
0.000727257 0.0071649 0
0.00319925 0.0065152 0
0.00427968 0.00758628 0
0.00693409 0.00702537 0
0.00824173 0.00745283 0
VERTICES 25 50
1 0
1 1
1 2
1 3
1 4
1 5
1 6
1 7
1 8
1 9
1 10
1 11
1 12
1 13
1 14
1 15
1 16
1 17
1 18
1 19
1 20
1 21
1 22
1 23
1 24
POINT_DATA 25
VECTORS velocity double
-1.05189e-77 -0.00970858 0
-7.58406e-78 -0.00970858 0
6.58377e-79 -0.00970858 0
1.03139e-77 -0.00970858 0
1.54323e-77 -0.00970858 0
6.44627e-78 -0.00970858 0
1.5947e-77 -0.00970858 0
-1.53258e-78 -0.00970858 0
-7.03539e-78 -0.00970858 0
4.35269e-78 -0.00970858 0
-4.3472e-78 -0.00970858 0
1.42079e-77 -0.00970858 0
-8.17044e-78 -0.00970858 0
-1.44507e-77 -0.00970858 0
-5.34564e-78 -0.00970858 0
1.49724e-77 -0.00970858 0
1.71884e-78 -0.00970858 0
1.0129e-77 -0.00970858 0
4.8731e-78 -0.00970858 0
9.34089e-78 -0.00970858 0
-5.09143e-78 -0.00970858 0
3.7195e-78 -0.00970858 0
-1.34465e-77 -0.00970858 0
-1.23034e-78 -0.00970858 0
-1.41549e-77 -0.00970858 0
SCALARS radius double 1
LOOKUP_TABLE default
0.000621415
0.000750874
0.000735541
0.000522882
0.000780242
0.00097475
0.000994168
0.000790412
0.000880848
0.000720838
0.000933918
0.000958934
0.000753488
0.00054522
0.000712397
0.000950783
0.000807753
0.000836475
0.000569299
0.000603945
0.000628319
0.000580291
0.000777192
0.000692678
0.00055675
SCALARS mass double 1
LOOKUP_TABLE default
0.00327549
0.00478242
0.00458909
0.0023191
0.00516383
0.00805935
0.00838365
0.00529932
0.00658136
0.00440747
0.00739829
0.00779994
0.00481578
0.00252149
0.00430484
0.0076679
0.0055344
0.00593499
0.00274913
0.00309392
0.00334869
0.00285631
0.00512354
0.00406984
0.00262926
