# vtk DataFile Version 3.0
DEM2D particles
ASCII
DATASET POLYDATA
POINTS 25 double
0.000436511 -2.15635e-05 0
0.00259373 -0.000233538 0
0.00503527 0.000557753 0
0.0075525 -0.000890834 0
0.00982669 -0.000732897 0
0.00134532 0.00214222 0
0.00385427 0.00163067 0
0.0049179 0.000740168 0
0.00662312 0.00237631 0
0.00923317 0.00169012 0
0.000767124 0.00387771 0
0.0037611 0.00277027 0
0.00456232 0.00395645 0
0.00622589 0.00417467 0
0.00871364 0.00342397 0
0.00180206 0.0055895 0
0.00309208 0.00489264 0
0.0055426 0.00533264 0
0.00726105 0.0064755 0
0.00950038 0.00628048 0
0.000727257 0.00746393 0
0.00319925 0.00681423 0
0.00427968 0.00788531 0
0.00693409 0.0073244 0
0.00824173 0.00775186 0
VERTICES 25 50
1 0
1 1
1 2
1 3
1 4
1 5
1 6
1 7
1 8
1 9
1 10
1 11
1 12
1 13
1 14
1 15
1 16
1 17
1 18
1 19
1 20
1 21
1 22
1 23
1 24
POINT_DATA 25
VECTORS velocity double
-2.92127e-64 -0.00970858 0
-2.10621e-64 -0.00970858 0
1.82842e-65 -0.00970858 0
2.86432e-64 -0.00970858 0
4.2858e-64 -0.00970858 0
1.79023e-64 -0.00970858 0
4.42873e-64 -0.00970858 0
-4.25621e-65 -0.00970858 0
-1.95384e-64 -0.00970858 0
1.20881e-64 -0.00970858 0
-1.20729e-64 -0.00970858 0
3.94575e-64 -0.00970858 0
-2.26906e-64 -0.00970858 0
-4.01319e-64 -0.00970858 0
-1.48457e-64 -0.00970858 0
4.15807e-64 -0.00970858 0
4.7735e-65 -0.00970858 0
2.81299e-64 -0.00970858 0
1.35334e-64 -0.00970858 0
2.59411e-64 -0.00970858 0
-1.41397e-64 -0.00970858 0
1.03296e-64 -0.00970858 0
-3.73431e-64 -0.00970858 0
-3.41685e-65 -0.00970858 0
-3.93104e-64 -0.00970858 0
SCALARS radius double 1
LOOKUP_TABLE default
0.000621415
0.000750874
0.000735541
0.000522882
0.000780242
0.00097475
0.000994168
0.000790412
0.000880848
0.000720838
0.000933918
0.000958934
0.000753488
0.00054522
0.000712397
0.000950783
0.000807753
0.000836475
0.000569299
0.000603945
0.000628319
0.000580291
0.000777192
0.000692678
0.00055675
SCALARS mass double 1
LOOKUP_TABLE default
0.00327549
0.00478242
0.00458909
0.0023191
0.00516383
0.00805935
0.00838365
0.00529932
0.00658136
0.00440747
0.00739829
0.00779994
0.00481578
0.00252149
0.00430484
0.0076679
0.0055344
0.00593499
0.00274913
0.00309392
0.00334869
0.00285631
0.00512354
0.00406984
0.00262926
