# vtk DataFile Version 3.0
DEM2D particles
ASCII
DATASET POLYDATA
POINTS 25 double
0.000454997 0.0013405 0
0.00260706 0.00113548 0
0.00503411 0.00190081 0
0.00753438 0.00049975 0
0.00979957 0.000652506 0
0.00133399 0.00349892 0
0.00382624 0.00300415 0
0.00492059 0.00214286 0
0.00663548 0.00372532 0
0.00922552 0.00306165 0
0.000774764 0.00524308 0
0.00373613 0.00417197 0
0.00457668 0.00531923 0
0.00625129 0.0055303 0
0.00872303 0.00480423 0
0.00177574 0.00696433 0
0.00308906 0.00629033 0
0.0055248 0.00671589 0
0.00725248 0.00782126 0
0.00948397 0.00763264 0
0.000736205 0.00884287 0
0.00319271 0.00821449 0
0.00430331 0.00925043 0
0.00693625 0.00870792 0
0.00826661 0.00912136 0
VERTICES 25 50
1 0
1 1
1 2
1 3
1 4
1 5
1 6
1 7
1 8
1 9
1 10
1 11
1 12
1 13
1 14
1 15
1 16
1 17
1 18
1 19
1 20
1 21
1 22
1 23
1 24
POINT_DATA 25
VECTORS velocity double
-0.0186731 0.00308882 0
-0.0134632 -0.00393565 0
0.00116875 0.0222864 0
0.0183091 -0.0257174 0
0.0273953 -0.0204836 0
0.0114434 0.00851643 0
0.028309 -0.00843553 0
-0.00272062 -0.0379453 0
-0.0124892 0.0162736 0
0.00772685 -0.00646546 0
-0.00771712 -0.000249056 0
0.0252217 -0.0369479 0
-0.0145041 0.00236007 0
-0.0256528 0.00959167 0
-0.00948953 -0.0152852 0
0.0265788 -0.00979976 0
0.00305128 -0.0328926 0
0.0179809 -0.0183119 0
0.00865068 0.0195606 0
0.0165819 0.0130982 0
-0.00903826 -0.0139612 0
0.00660282 -0.0354911 0
-0.0238701 2.61049e-06 0
-0.00218409 -0.018585 0
-0.0251277 -0.00441962 0
SCALARS radius double 1
LOOKUP_TABLE default
0.000621415
0.000750874
0.000735541
0.000522882
0.000780242
0.00097475
0.000994168
0.000790412
0.000880848
0.000720838
0.000933918
0.000958934
0.000753488
0.00054522
0.000712397
0.000950783
0.000807753
0.000836475
0.000569299
0.000603945
0.000628319
0.000580291
0.000777192
0.000692678
0.00055675
SCALARS mass double 1
LOOKUP_TABLE default
0.00327549
0.00478242
0.00458909
0.0023191
0.00516383
0.00805935
0.00838365
0.00529932
0.00658136
0.00440747
0.00739829
0.00779994
0.00481578
0.00252149
0.00430484
0.0076679
0.0055344
0.00593499
0.00274913
0.00309392
0.00334869
0.00285631
0.00512354
0.00406984
0.00262926
