# vtk DataFile Version 3.0
DEM2D particles
ASCII
DATASET POLYDATA
POINTS 25 double
0.000436511 0.000704639 0
0.00259373 0.000492664 0
0.00503527 0.00128395 0
0.0075525 -0.000164632 0
0.00982669 -6.6951e-06 0
0.00134532 0.00286842 0
0.00385427 0.00235687 0
0.0049179 0.00146637 0
0.00662312 0.00310251 0
0.00923317 0.00241632 0
0.000767124 0.00460391 0
0.0037611 0.00349647 0
0.00456232 0.00468265 0
0.00622589 0.00490087 0
0.00871364 0.00415018 0
0.00180206 0.00631571 0
0.00309208 0.00561884 0
0.0055426 0.00605884 0
0.00726105 0.0072017 0
0.00950038 0.00700669 0
0.000727257 0.00819013 0
0.00319925 0.00754043 0
0.00427968 0.00861151 0
0.00693409 0.0080506 0
0.00824173 0.00847806 0
VERTICES 25 50
1 0
1 1
1 2
1 3
1 4
1 5
1 6
1 7
1 8
1 9
1 10
1 11
1 12
1 13
1 14
1 15
1 16
1 17
1 18
1 19
1 20
1 21
1 22
1 23
1 24
POINT_DATA 25
VECTORS velocity double
-1.30112e-31 -0.00970858 0
-9.38095e-32 -0.00970858 0
8.14366e-33 -0.00970858 0
1.27575e-31 -0.00970858 0
1.90887e-31 -0.00970858 0
7.97359e-32 -0.00970858 0
1.97253e-31 -0.00970858 0
-1.89569e-32 -0.00970858 0
-8.70228e-32 -0.00970858 0
5.38397e-32 -0.00970858 0
-5.37719e-32 -0.00970858 0
1.75741e-31 -0.00970858 0
-1.01063e-31 -0.00970858 0
-1.78745e-31 -0.00970858 0
-6.61218e-32 -0.00970858 0
1.85198e-31 -0.00970858 0
2.12609e-32 -0.00970858 0
1.25289e-31 -0.00970858 0
6.02768e-32 -0.00970858 0
1.1554e-31 -0.00970858 0
-6.29774e-32 -0.00970858 0
4.60075e-32 -0.00970858 0
-1.66324e-31 -0.00970858 0
-1.52184e-32 -0.00970858 0
-1.75086e-31 -0.00970858 0
SCALARS radius double 1
LOOKUP_TABLE default
0.000621415
0.000750874
0.000735541
0.000522882
0.000780242
0.00097475
0.000994168
0.000790412
0.000880848
0.000720838
0.000933918
0.000958934
0.000753488
0.00054522
0.000712397
0.000950783
0.000807753
0.000836475
0.000569299
0.000603945
0.000628319
0.000580291
0.000777192
0.000692678
0.00055675
SCALARS mass double 1
LOOKUP_TABLE default
0.00327549
0.00478242
0.00458909
0.0023191
0.00516383
0.00805935
0.00838365
0.00529932
0.00658136
0.00440747
0.00739829
0.00779994
0.00481578
0.00252149
0.00430484
0.0076679
0.0055344
0.00593499
0.00274913
0.00309392
0.00334869
0.00285631
0.00512354
0.00406984
0.00262926
