# vtk DataFile Version 3.0
DEM2D particles
ASCII
DATASET POLYDATA
POINTS 25 double
0.000436511 0.000228918 0
0.00259373 1.69438e-05 0
0.00503527 0.000808234 0
0.0075525 -0.000640353 0
0.00982669 -0.000482416 0
0.00134532 0.0023927 0
0.00385427 0.00188115 0
0.0049179 0.00099065 0
0.00662312 0.00262679 0
0.00923317 0.0019406 0
0.000767124 0.00412819 0
0.0037611 0.00302075 0
0.00456232 0.00420693 0
0.00622589 0.00442515 0
0.00871364 0.00367445 0
0.00180206 0.00583999 0
0.00309208 0.00514312 0
0.0055426 0.00558312 0
0.00726105 0.00672598 0
0.00950038 0.00653097 0
0.000727257 0.00771441 0
0.00319925 0.00706471 0
0.00427968 0.00813579 0
0.00693409 0.00757488 0
0.00824173 0.00800234 0
VERTICES 25 50
1 0
1 1
1 2
1 3
1 4
1 5
1 6
1 7
1 8
1 9
1 10
1 11
1 12
1 13
1 14
1 15
1 16
1 17
1 18
1 19
1 20
1 21
1 22
1 23
1 24
POINT_DATA 25
VECTORS velocity double
-5.33052e-53 -0.00970858 0
-3.84327e-53 -0.00970858 0
3.33636e-54 -0.00970858 0
5.2266e-53 -0.00970858 0
7.82041e-53 -0.00970858 0
3.26669e-53 -0.00970858 0
8.08123e-53 -0.00970858 0
-7.76643e-54 -0.00970858 0
-3.56522e-53 -0.00970858 0
2.20575e-53 -0.00970858 0
-2.20297e-53 -0.00970858 0
7.19992e-53 -0.00970858 0
-4.14042e-53 -0.00970858 0
-7.32297e-53 -0.00970858 0
-2.70893e-53 -0.00970858 0
7.58734e-53 -0.00970858 0
8.71034e-54 -0.00970858 0
5.13293e-53 -0.00970858 0
2.46947e-53 -0.00970858 0
4.73355e-53 -0.00970858 0
-2.58011e-53 -0.00970858 0
1.88488e-53 -0.00970858 0
-6.81409e-53 -0.00970858 0
-6.23481e-54 -0.00970858 0
-7.17308e-53 -0.00970858 0
SCALARS radius double 1
LOOKUP_TABLE default
0.000621415
0.000750874
0.000735541
0.000522882
0.000780242
0.00097475
0.000994168
0.000790412
0.000880848
0.000720838
0.000933918
0.000958934
0.000753488
0.00054522
0.000712397
0.000950783
0.000807753
0.000836475
0.000569299
0.000603945
0.000628319
0.000580291
0.000777192
0.000692678
0.00055675
SCALARS mass double 1
LOOKUP_TABLE default
0.00327549
0.00478242
0.00458909
0.0023191
0.00516383
0.00805935
0.00838365
0.00529932
0.00658136
0.00440747
0.00739829
0.00779994
0.00481578
0.00252149
0.00430484
0.0076679
0.0055344
0.00593499
0.00274913
0.00309392
0.00334869
0.00285631
0.00512354
0.00406984
0.00262926
