# vtk DataFile Version 3.0
DEM2D particles
ASCII
DATASET POLYDATA
POINTS 25 double
0.000436511 -0.000262336 0
0.00259373 -0.000474311 0
0.00503527 0.00031698 0
0.0075525 -0.00113161 0
0.00982669 -0.00097367 0
0.00134532 0.00190145 0
0.00385427 0.0013899 0
0.0049179 0.000499395 0
0.00662312 0.00213553 0
0.00923317 0.00144935 0
0.000767124 0.00363694 0
0.0037611 0.0025295 0
0.00456232 0.00371567 0
0.00622589 0.0039339 0
0.00871364 0.0031832 0
0.00180206 0.00534873 0
0.00309208 0.00465187 0
0.0055426 0.00509186 0
0.00726105 0.00623473 0
0.00950038 0.00603971 0
0.000727257 0.00722315 0
0.00319925 0.00657346 0
0.00427968 0.00764453 0
0.00693409 0.00708362 0
0.00824173 0.00751108 0
VERTICES 25 50
1 0
1 1
1 2
1 3
1 4
1 5
1 6
1 7
1 8
1 9
1 10
1 11
1 12
1 13
1 14
1 15
1 16
1 17
1 18
1 19
1 20
1 21
1 22
1 23
1 24
POINT_DATA 25
VECTORS velocity double
-4.37376e-75 -0.00970858 0
-3.15344e-75 -0.00970858 0
2.73752e-76 -0.00970858 0
4.28849e-75 -0.00970858 0
6.41673e-75 -0.00970858 0
2.68035e-75 -0.00970858 0
6.63074e-75 -0.00970858 0
-6.37244e-76 -0.00970858 0
-2.92531e-75 -0.00970858 0
1.80984e-75 -0.00970858 0
-1.80756e-75 -0.00970858 0
5.90762e-75 -0.00970858 0
-3.39726e-75 -0.00970858 0
-6.00858e-75 -0.00970858 0
-2.22271e-75 -0.00970858 0
6.2255e-75 -0.00970858 0
7.14694e-76 -0.00970858 0
4.21163e-75 -0.00970858 0
2.02623e-75 -0.00970858 0
3.88393e-75 -0.00970858 0
-2.11701e-75 -0.00970858 0
1.54656e-75 -0.00970858 0
-5.59104e-75 -0.00970858 0
-5.11573e-76 -0.00970858 0
-5.88559e-75 -0.00970858 0
SCALARS radius double 1
LOOKUP_TABLE default
0.000621415
0.000750874
0.000735541
0.000522882
0.000780242
0.00097475
0.000994168
0.000790412
0.000880848
0.000720838
0.000933918
0.000958934
0.000753488
0.00054522
0.000712397
0.000950783
0.000807753
0.000836475
0.000569299
0.000603945
0.000628319
0.000580291
0.000777192
0.000692678
0.00055675
SCALARS mass double 1
LOOKUP_TABLE default
0.00327549
0.00478242
0.00458909
0.0023191
0.00516383
0.00805935
0.00838365
0.00529932
0.00658136
0.00440747
0.00739829
0.00779994
0.00481578
0.00252149
0.00430484
0.0076679
0.0055344
0.00593499
0.00274913
0.00309392
0.00334869
0.00285631
0.00512354
0.00406984
0.00262926
