# vtk DataFile Version 3.0
DEM2D particles
ASCII
DATASET POLYDATA
POINTS 25 double
0.000436511 0.00024251 0
0.00259373 3.05358e-05 0
0.00503527 0.000821826 0
0.0075525 -0.000626761 0
0.00982669 -0.000468824 0
0.00134532 0.0024063 0
0.00385427 0.00189475 0
0.0049179 0.00100424 0
0.00662312 0.00264038 0
0.00923317 0.0019542 0
0.000767124 0.00414178 0
0.0037611 0.00303434 0
0.00456232 0.00422052 0
0.00622589 0.00443874 0
0.00871364 0.00368805 0
0.00180206 0.00585358 0
0.00309208 0.00515672 0
0.0055426 0.00559671 0
0.00726105 0.00673957 0
0.00950038 0.00654456 0
0.000727257 0.007728 0
0.00319925 0.0070783 0
0.00427968 0.00814938 0
0.00693409 0.00758847 0
0.00824173 0.00801593 0
VERTICES 25 50
1 0
1 1
1 2
1 3
1 4
1 5
1 6
1 7
1 8
1 9
1 10
1 11
1 12
1 13
1 14
1 15
1 16
1 17
1 18
1 19
1 20
1 21
1 22
1 23
1 24
POINT_DATA 25
VECTORS velocity double
-2.17692e-52 -0.00970858 0
-1.56954e-52 -0.00970858 0
1.36253e-53 -0.00970858 0
2.13448e-52 -0.00970858 0
3.19376e-52 -0.00970858 0
1.33407e-52 -0.00970858 0
3.30028e-52 -0.00970858 0
-3.17171e-53 -0.00970858 0
-1.45599e-52 -0.00970858 0
9.00801e-53 -0.00970858 0
-8.99666e-53 -0.00970858 0
2.94036e-52 -0.00970858 0
-1.6909e-52 -0.00970858 0
-2.99061e-52 -0.00970858 0
-1.10629e-52 -0.00970858 0
3.09858e-52 -0.00970858 0
3.5572e-53 -0.00970858 0
2.09623e-52 -0.00970858 0
1.0085e-52 -0.00970858 0
1.93312e-52 -0.00970858 0
-1.05369e-52 -0.00970858 0
7.6976e-53 -0.00970858 0
-2.78279e-52 -0.00970858 0
-2.54622e-53 -0.00970858 0
-2.9294e-52 -0.00970858 0
SCALARS radius double 1
LOOKUP_TABLE default
0.000621415
0.000750874
0.000735541
0.000522882
0.000780242
0.00097475
0.000994168
0.000790412
0.000880848
0.000720838
0.000933918
0.000958934
0.000753488
0.00054522
0.000712397
0.000950783
0.000807753
0.000836475
0.000569299
0.000603945
0.000628319
0.000580291
0.000777192
0.000692678
0.00055675
SCALARS mass double 1
LOOKUP_TABLE default
0.00327549
0.00478242
0.00458909
0.0023191
0.00516383
0.00805935
0.00838365
0.00529932
0.00658136
0.00440747
0.00739829
0.00779994
0.00481578
0.00252149
0.00430484
0.0076679
0.0055344
0.00593499
0.00274913
0.00309392
0.00334869
0.00285631
0.00512354
0.00406984
0.00262926
