# vtk DataFile Version 3.0
DEM2D particles
ASCII
DATASET POLYDATA
POINTS 25 double
0.000436511 8.91143e-05 0
0.00259373 -0.00012286 0
0.00503527 0.000668431 0
0.0075525 -0.000780156 0
0.00982669 -0.000622219 0
0.00134532 0.0022529 0
0.00385427 0.00174135 0
0.0049179 0.000850846 0
0.00662312 0.00248698 0
0.00923317 0.0018008 0
0.000767124 0.00398839 0
0.0037611 0.00288095 0
0.00456232 0.00406712 0
0.00622589 0.00428535 0
0.00871364 0.00353465 0
0.00180206 0.00570018 0
0.00309208 0.00500332 0
0.0055426 0.00544331 0
0.00726105 0.00658618 0
0.00950038 0.00639116 0
0.000727257 0.00757461 0
0.00319925 0.00692491 0
0.00427968 0.00799598 0
0.00693409 0.00743507 0
0.00824173 0.00786254 0
VERTICES 25 50
1 0
1 1
1 2
1 3
1 4
1 5
1 6
1 7
1 8
1 9
1 10
1 11
1 12
1 13
1 14
1 15
1 16
1 17
1 18
1 19
1 20
1 21
1 22
1 23
1 24
POINT_DATA 25
VECTORS velocity double
-2.76344e-59 -0.00970858 0
-1.99242e-59 -0.00970858 0
1.72963e-60 -0.00970858 0
2.70957e-59 -0.00970858 0
4.05424e-59 -0.00970858 0
1.69351e-59 -0.00970858 0
4.18946e-59 -0.00970858 0
-4.02626e-60 -0.00970858 0
-1.84828e-59 -0.00970858 0
1.1435e-59 -0.00970858 0
-1.14206e-59 -0.00970858 0
3.73257e-59 -0.00970858 0
-2.14647e-59 -0.00970858 0
-3.79636e-59 -0.00970858 0
-1.40436e-59 -0.00970858 0
3.93341e-59 -0.00970858 0
4.5156e-60 -0.00970858 0
2.661e-59 -0.00970858 0
1.28022e-59 -0.00970858 0
2.45396e-59 -0.00970858 0
-1.33758e-59 -0.00970858 0
9.77154e-60 -0.00970858 0
-3.53255e-59 -0.00970858 0
-3.23224e-60 -0.00970858 0
-3.71865e-59 -0.00970858 0
SCALARS radius double 1
LOOKUP_TABLE default
0.000621415
0.000750874
0.000735541
0.000522882
0.000780242
0.00097475
0.000994168
0.000790412
0.000880848
0.000720838
0.000933918
0.000958934
0.000753488
0.00054522
0.000712397
0.000950783
0.000807753
0.000836475
0.000569299
0.000603945
0.000628319
0.000580291
0.000777192
0.000692678
0.00055675
SCALARS mass double 1
LOOKUP_TABLE default
0.00327549
0.00478242
0.00458909
0.0023191
0.00516383
0.00805935
0.00838365
0.00529932
0.00658136
0.00440747
0.00739829
0.00779994
0.00481578
0.00252149
0.00430484
0.0076679
0.0055344
0.00593499
0.00274913
0.00309392
0.00334869
0.00285631
0.00512354
0.00406984
0.00262926
