# vtk DataFile Version 3.0
DEM2D particles
ASCII
DATASET POLYDATA
POINTS 25 double
0.000436511 0.000526001 0
0.00259373 0.000314026 0
0.00503527 0.00110532 0
0.0075525 -0.00034327 0
0.00982669 -0.000185333 0
0.00134532 0.00268979 0
0.00385427 0.00217824 0
0.0049179 0.00128773 0
0.00662312 0.00292387 0
0.00923317 0.00223769 0
0.000767124 0.00442528 0
0.0037611 0.00331783 0
0.00456232 0.00450401 0
0.00622589 0.00472223 0
0.00871364 0.00397154 0
0.00180206 0.00613707 0
0.00309208 0.00544021 0
0.0055426 0.0058802 0
0.00726105 0.00702306 0
0.00950038 0.00682805 0
0.000727257 0.00801149 0
0.00319925 0.00736179 0
0.00427968 0.00843287 0
0.00693409 0.00787196 0
0.00824173 0.00829942 0
VERTICES 25 50
1 0
1 1
1 2
1 3
1 4
1 5
1 6
1 7
1 8
1 9
1 10
1 11
1 12
1 13
1 14
1 15
1 16
1 17
1 18
1 19
1 20
1 21
1 22
1 23
1 24
POINT_DATA 25
VECTORS velocity double
-1.21081e-39 -0.00970858 0
-8.72982e-40 -0.00970858 0
7.57841e-41 -0.00970858 0
1.1872e-39 -0.00970858 0
1.77637e-39 -0.00970858 0
7.42014e-40 -0.00970858 0
1.83562e-39 -0.00970858 0
-1.76411e-40 -0.00970858 0
-8.09825e-40 -0.00970858 0
5.01026e-40 -0.00970858 0
-5.00395e-40 -0.00970858 0
1.63543e-39 -0.00970858 0
-9.40478e-40 -0.00970858 0
-1.66338e-39 -0.00970858 0
-6.15322e-40 -0.00970858 0
1.72343e-39 -0.00970858 0
1.97852e-40 -0.00970858 0
1.16592e-39 -0.00970858 0
5.60929e-40 -0.00970858 0
1.07521e-39 -0.00970858 0
-5.86061e-40 -0.00970858 0
4.28141e-40 -0.00970858 0
-1.54779e-39 -0.00970858 0
-1.41621e-40 -0.00970858 0
-1.62933e-39 -0.00970858 0
SCALARS radius double 1
LOOKUP_TABLE default
0.000621415
0.000750874
0.000735541
0.000522882
0.000780242
0.00097475
0.000994168
0.000790412
0.000880848
0.000720838
0.000933918
0.000958934
0.000753488
0.00054522
0.000712397
0.000950783
0.000807753
0.000836475
0.000569299
0.000603945
0.000628319
0.000580291
0.000777192
0.000692678
0.00055675
SCALARS mass double 1
LOOKUP_TABLE default
0.00327549
0.00478242
0.00458909
0.0023191
0.00516383
0.00805935
0.00838365
0.00529932
0.00658136
0.00440747
0.00739829
0.00779994
0.00481578
0.00252149
0.00430484
0.0076679
0.0055344
0.00593499
0.00274913
0.00309392
0.00334869
0.00285631
0.00512354
0.00406984
0.00262926
