# vtk DataFile Version 3.0
DEM2D particles
ASCII
DATASET POLYDATA
POINTS 25 double
0.000436511 -5.2631e-05 0
0.00259373 -0.000264605 0
0.00503527 0.000526685 0
0.0075525 -0.000921902 0
0.00982669 -0.000763965 0
0.00134532 0.00211116 0
0.00385427 0.0015996 0
0.0049179 0.000709101 0
0.00662312 0.00234524 0
0.00923317 0.00165905 0
0.000767124 0.00384664 0
0.0037611 0.0027392 0
0.00456232 0.00392538 0
0.00622589 0.0041436 0
0.00871364 0.00339291 0
0.00180206 0.00555844 0
0.00309208 0.00486157 0
0.0055426 0.00530157 0
0.00726105 0.00644443 0
0.00950038 0.00624942 0
0.000727257 0.00743286 0
0.00319925 0.00678316 0
0.00427968 0.00785424 0
0.00693409 0.00729333 0
0.00824173 0.00772079 0
VERTICES 25 50
1 0
1 1
1 2
1 3
1 4
1 5
1 6
1 7
1 8
1 9
1 10
1 11
1 12
1 13
1 14
1 15
1 16
1 17
1 18
1 19
1 20
1 21
1 22
1 23
1 24
POINT_DATA 25
VECTORS velocity double
-1.17175e-65 -0.00970858 0
-8.44821e-66 -0.00970858 0
7.33395e-67 -0.00970858 0
1.1489e-65 -0.00970858 0
1.71907e-65 -0.00970858 0
7.18078e-66 -0.00970858 0
1.7764e-65 -0.00970858 0
-1.7072e-66 -0.00970858 0
-7.83702e-66 -0.00970858 0
4.84864e-66 -0.00970858 0
-4.84254e-66 -0.00970858 0
1.58268e-65 -0.00970858 0
-9.1014e-66 -0.00970858 0
-1.60973e-65 -0.00970858 0
-5.95473e-66 -0.00970858 0
1.66784e-65 -0.00970858 0
1.91469e-66 -0.00970858 0
1.12831e-65 -0.00970858 0
5.42835e-66 -0.00970858 0
1.04052e-65 -0.00970858 0
-5.67156e-66 -0.00970858 0
4.14331e-66 -0.00970858 0
-1.49786e-65 -0.00970858 0
-1.37053e-66 -0.00970858 0
-1.57678e-65 -0.00970858 0
SCALARS radius double 1
LOOKUP_TABLE default
0.000621415
0.000750874
0.000735541
0.000522882
0.000780242
0.00097475
0.000994168
0.000790412
0.000880848
0.000720838
0.000933918
0.000958934
0.000753488
0.00054522
0.000712397
0.000950783
0.000807753
0.000836475
0.000569299
0.000603945
0.000628319
0.000580291
0.000777192
0.000692678
0.00055675
SCALARS mass double 1
LOOKUP_TABLE default
0.00327549
0.00478242
0.00458909
0.0023191
0.00516383
0.00805935
0.00838365
0.00529932
0.00658136
0.00440747
0.00739829
0.00779994
0.00481578
0.00252149
0.00430484
0.0076679
0.0055344
0.00593499
0.00274913
0.00309392
0.00334869
0.00285631
0.00512354
0.00406984
0.00262926
