# vtk DataFile Version 3.0
DEM2D particles
ASCII
DATASET POLYDATA
POINTS 25 double
0.00043666 0.00130647 0
0.00259384 0.00109455 0
0.00503526 0.00188563 0
0.00755236 0.000437427 0
0.00982648 0.000595323 0
0.00134523 0.00347021 0
0.00385404 0.0029588 0
0.00491792 0.00206853 0
0.00662322 0.00370423 0
0.00923311 0.00301823 0
0.000767186 0.00520577 0
0.0037609 0.00409862 0
0.00456243 0.00528448 0
0.00622609 0.00550265 0
0.00871371 0.00475215 0
0.00180185 0.00691764 0
0.00309205 0.00622096 0
0.00554246 0.00666084 0
0.00726098 0.0078034 0
0.00950025 0.00760844 0
0.000727329 0.0087921 0
0.0031992 0.00814257 0
0.00427987 0.00921336 0
0.00693411 0.0086526 0
0.00824193 0.00907995 0
VERTICES 25 50
1 0
1 1
1 2
1 3
1 4
1 5
1 6
1 7
1 8
1 9
1 10
1 11
1 12
1 13
1 14
1 15
1 16
1 17
1 18
1 19
1 20
1 21
1 22
1 23
1 24
POINT_DATA 25
VECTORS velocity double
-0.000150006 -0.00960578 0
-0.000108153 -0.00966221 0
9.38887e-06 -0.00945156 0
0.000147082 -0.00983719 0
0.000220074 -0.00979514 0
9.19279e-05 -0.00956218 0
0.000227414 -0.00969836 0
-2.18555e-05 -0.00993542 0
-0.000100329 -0.00949986 0
6.2072e-05 -0.00968253 0
-6.19939e-05 -0.00963259 0
0.000202613 -0.0099274 0
-0.000116516 -0.00961163 0
-0.000206076 -0.00955354 0
-7.62321e-05 -0.00975338 0
0.000213516 -0.00970932 0
2.45118e-05 -0.00989483 0
0.000144446 -0.0097777 0
6.94934e-05 -0.00947346 0
0.000133207 -0.00952537 0
-7.2607e-05 -0.00974275 0
5.30423e-05 -0.0099157 0
-0.000191756 -0.00963057 0
-1.75454e-05 -0.00977989 0
-0.000201858 -0.0096661 0
SCALARS radius double 1
LOOKUP_TABLE default
0.000621415
0.000750874
0.000735541
0.000522882
0.000780242
0.00097475
0.000994168
0.000790412
0.000880848
0.000720838
0.000933918
0.000958934
0.000753488
0.00054522
0.000712397
0.000950783
0.000807753
0.000836475
0.000569299
0.000603945
0.000628319
0.000580291
0.000777192
0.000692678
0.00055675
SCALARS mass double 1
LOOKUP_TABLE default
0.00327549
0.00478242
0.00458909
0.0023191
0.00516383
0.00805935
0.00838365
0.00529932
0.00658136
0.00440747
0.00739829
0.00779994
0.00481578
0.00252149
0.00430484
0.0076679
0.0055344
0.00593499
0.00274913
0.00309392
0.00334869
0.00285631
0.00512354
0.00406984
0.00262926
