# vtk DataFile Version 3.0
DEM2D particles
ASCII
DATASET POLYDATA
POINTS 25 double
0.000436511 0.00125026 0
0.00259373 0.00103829 0
0.00503527 0.00182958 0
0.0075525 0.000380991 0
0.00982669 0.000538928 0
0.00134532 0.00341405 0
0.00385427 0.0029025 0
0.0049179 0.00201199 0
0.00662312 0.00364813 0
0.00923317 0.00296195 0
0.000767124 0.00514954 0
0.0037611 0.00404209 0
0.00456232 0.00522827 0
0.00622589 0.00544649 0
0.00871364 0.0046958 0
0.00180206 0.00686133 0
0.00309208 0.00616447 0
0.0055426 0.00660446 0
0.00726105 0.00774732 0
0.00950038 0.00755231 0
0.000727257 0.00873575 0
0.00319925 0.00808605 0
0.00427968 0.00915713 0
0.00693409 0.00859622 0
0.00824174 0.00902368 0
VERTICES 25 50
1 0
1 1
1 2
1 3
1 4
1 5
1 6
1 7
1 8
1 9
1 10
1 11
1 12
1 13
1 14
1 15
1 16
1 17
1 18
1 19
1 20
1 21
1 22
1 23
1 24
POINT_DATA 25
VECTORS velocity double
-4.41085e-07 -0.00970828 0
-3.18019e-07 -0.00970845 0
2.76074e-08 -0.00970783 0
4.32486e-07 -0.00970896 0
6.47116e-07 -0.00970884 0
2.70309e-07 -0.00970815 0
6.68699e-07 -0.00970855 0
-6.42649e-08 -0.00970925 0
-2.95012e-07 -0.00970797 0
1.82519e-07 -0.00970851 0
-1.82289e-07 -0.00970836 0
5.95772e-07 -0.00970923 0
-3.42608e-07 -0.0097083 0
-6.05955e-07 -0.00970813 0
-2.24156e-07 -0.00970872 0
6.2783e-07 -0.00970859 0
7.20756e-08 -0.00970913 0
4.24735e-07 -0.00970879 0
2.04341e-07 -0.00970789 0
3.91688e-07 -0.00970804 0
-2.13497e-07 -0.00970868 0
1.55968e-07 -0.00970919 0
-5.63846e-07 -0.00970835 0
-5.15913e-08 -0.00970879 0
-5.93551e-07 -0.00970846 0
SCALARS radius double 1
LOOKUP_TABLE default
0.000621415
0.000750874
0.000735541
0.000522882
0.000780242
0.00097475
0.000994168
0.000790412
0.000880848
0.000720838
0.000933918
0.000958934
0.000753488
0.00054522
0.000712397
0.000950783
0.000807753
0.000836475
0.000569299
0.000603945
0.000628319
0.000580291
0.000777192
0.000692678
0.00055675
SCALARS mass double 1
LOOKUP_TABLE default
0.00327549
0.00478242
0.00458909
0.0023191
0.00516383
0.00805935
0.00838365
0.00529932
0.00658136
0.00440747
0.00739829
0.00779994
0.00481578
0.00252149
0.00430484
0.0076679
0.0055344
0.00593499
0.00274913
0.00309392
0.00334869
0.00285631
0.00512354
0.00406984
0.00262926
