# vtk DataFile Version 3.0
DEM2D particles
ASCII
DATASET POLYDATA
POINTS 25 double
0.000436511 -0.000326413 0
0.00259373 -0.000538387 0
0.00503527 0.000252903 0
0.0075525 -0.00119568 0
0.00982669 -0.00103775 0
0.00134532 0.00183737 0
0.00385427 0.00132582 0
0.0049179 0.000435319 0
0.00662312 0.00207146 0
0.00923317 0.00138527 0
0.000767124 0.00357286 0
0.0037611 0.00246542 0
0.00456232 0.0036516 0
0.00622589 0.00386982 0
0.00871364 0.00311912 0
0.00180206 0.00528465 0
0.00309208 0.00458779 0
0.0055426 0.00502779 0
0.00726105 0.00617065 0
0.00950038 0.00597564 0
0.000727257 0.00715908 0
0.00319925 0.00650938 0
0.00427968 0.00758046 0
0.00693409 0.00701955 0
0.00824173 0.00744701 0
VERTICES 25 50
1 0
1 1
1 2
1 3
1 4
1 5
1 6
1 7
1 8
1 9
1 10
1 11
1 12
1 13
1 14
1 15
1 16
1 17
1 18
1 19
1 20
1 21
1 22
1 23
1 24
POINT_DATA 25
VECTORS velocity double
-5.7555e-78 -0.00970858 0
-4.14967e-78 -0.00970858 0
3.60235e-79 -0.00970858 0
5.64329e-78 -0.00970858 0
8.44389e-78 -0.00970858 0
3.52712e-78 -0.00970858 0
8.72551e-78 -0.00970858 0
-8.3856e-79 -0.00970858 0
-3.84946e-78 -0.00970858 0
2.3816e-78 -0.00970858 0
-2.3786e-78 -0.00970858 0
7.77393e-78 -0.00970858 0
-4.47051e-78 -0.00970858 0
-7.9068e-78 -0.00970858 0
-2.9249e-78 -0.00970858 0
8.19224e-78 -0.00970858 0
9.40477e-79 -0.00970858 0
5.54215e-78 -0.00970858 0
2.66635e-78 -0.00970858 0
5.11093e-78 -0.00970858 0
-2.78581e-78 -0.00970858 0
2.03515e-78 -0.00970858 0
-7.35734e-78 -0.00970858 0
-6.73188e-79 -0.00970858 0
-7.74495e-78 -0.00970858 0
SCALARS radius double 1
LOOKUP_TABLE default
0.000621415
0.000750874
0.000735541
0.000522882
0.000780242
0.00097475
0.000994168
0.000790412
0.000880848
0.000720838
0.000933918
0.000958934
0.000753488
0.00054522
0.000712397
0.000950783
0.000807753
0.000836475
0.000569299
0.000603945
0.000628319
0.000580291
0.000777192
0.000692678
0.00055675
SCALARS mass double 1
LOOKUP_TABLE default
0.00327549
0.00478242
0.00458909
0.0023191
0.00516383
0.00805935
0.00838365
0.00529932
0.00658136
0.00440747
0.00739829
0.00779994
0.00481578
0.00252149
0.00430484
0.0076679
0.0055344
0.00593499
0.00274913
0.00309392
0.00334869
0.00285631
0.00512354
0.00406984
0.00262926
