# vtk DataFile Version 3.0
DEM2D particles
ASCII
DATASET POLYDATA
POINTS 25 double
0.000436511 0.000219209 0
0.00259373 7.23521e-06 0
0.00503527 0.000798526 0
0.0075525 -0.000650061 0
0.00982669 -0.000492124 0
0.00134532 0.002383 0
0.00385427 0.00187144 0
0.0049179 0.000980941 0
0.00662312 0.00261708 0
0.00923317 0.00193089 0
0.000767124 0.00411848 0
0.0037611 0.00301104 0
0.00456232 0.00419722 0
0.00622589 0.00441544 0
0.00871364 0.00366475 0
0.00180206 0.00583028 0
0.00309208 0.00513341 0
0.0055426 0.00557341 0
0.00726105 0.00671627 0
0.00950038 0.00652126 0
0.000727257 0.0077047 0
0.00319925 0.007055 0
0.00427968 0.00812608 0
0.00693409 0.00756517 0
0.00824173 0.00799263 0
VERTICES 25 50
1 0
1 1
1 2
1 3
1 4
1 5
1 6
1 7
1 8
1 9
1 10
1 11
1 12
1 13
1 14
1 15
1 16
1 17
1 18
1 19
1 20
1 21
1 22
1 23
1 24
POINT_DATA 25
VECTORS velocity double
-1.95114e-53 -0.00970858 0
-1.40676e-53 -0.00970858 0
1.22122e-54 -0.00970858 0
1.91311e-53 -0.00970858 0
2.86252e-53 -0.00970858 0
1.19571e-53 -0.00970858 0
2.95799e-53 -0.00970858 0
-2.84276e-54 -0.00970858 0
-1.30499e-53 -0.00970858 0
8.07375e-54 -0.00970858 0
-8.06358e-54 -0.00970858 0
2.6354e-53 -0.00970858 0
-1.51553e-53 -0.00970858 0
-2.68045e-53 -0.00970858 0
-9.91557e-54 -0.00970858 0
2.77721e-53 -0.00970858 0
3.18827e-54 -0.00970858 0
1.87882e-53 -0.00970858 0
9.03906e-54 -0.00970858 0
1.73263e-53 -0.00970858 0
-9.44404e-54 -0.00970858 0
6.89925e-54 -0.00970858 0
-2.49418e-53 -0.00970858 0
-2.28214e-54 -0.00970858 0
-2.62558e-53 -0.00970858 0
SCALARS radius double 1
LOOKUP_TABLE default
0.000621415
0.000750874
0.000735541
0.000522882
0.000780242
0.00097475
0.000994168
0.000790412
0.000880848
0.000720838
0.000933918
0.000958934
0.000753488
0.00054522
0.000712397
0.000950783
0.000807753
0.000836475
0.000569299
0.000603945
0.000628319
0.000580291
0.000777192
0.000692678
0.00055675
SCALARS mass double 1
LOOKUP_TABLE default
0.00327549
0.00478242
0.00458909
0.0023191
0.00516383
0.00805935
0.00838365
0.00529932
0.00658136
0.00440747
0.00739829
0.00779994
0.00481578
0.00252149
0.00430484
0.0076679
0.0055344
0.00593499
0.00274913
0.00309392
0.00334869
0.00285631
0.00512354
0.00406984
0.00262926
