# vtk DataFile Version 3.0
DEM2D particles
ASCII
DATASET POLYDATA
POINTS 25 double
0.000436511 0.000137657 0
0.00259373 -7.43169e-05 0
0.00503527 0.000716974 0
0.0075525 -0.000731613 0
0.00982669 -0.000573676 0
0.00134532 0.00230144 0
0.00385427 0.00178989 0
0.0049179 0.000899389 0
0.00662312 0.00253553 0
0.00923317 0.00184934 0
0.000767124 0.00403693 0
0.0037611 0.00292949 0
0.00456232 0.00411567 0
0.00622589 0.00433389 0
0.00871364 0.00358319 0
0.00180206 0.00574872 0
0.00309208 0.00505186 0
0.0055426 0.00549186 0
0.00726105 0.00663472 0
0.00950038 0.00643971 0
0.000727257 0.00762315 0
0.00319925 0.00697345 0
0.00427968 0.00804453 0
0.00693409 0.00748362 0
0.00824173 0.00791108 0
VERTICES 25 50
1 0
1 1
1 2
1 3
1 4
1 5
1 6
1 7
1 8
1 9
1 10
1 11
1 12
1 13
1 14
1 15
1 16
1 17
1 18
1 19
1 20
1 21
1 22
1 23
1 24
POINT_DATA 25
VECTORS velocity double
-4.20584e-57 -0.00970858 0
-3.03238e-57 -0.00970858 0
2.63243e-58 -0.00970858 0
4.12385e-57 -0.00970858 0
6.17039e-57 -0.00970858 0
2.57745e-57 -0.00970858 0
6.37618e-57 -0.00970858 0
-6.12779e-58 -0.00970858 0
-2.813e-57 -0.00970858 0
1.74036e-57 -0.00970858 0
-1.73817e-57 -0.00970858 0
5.68081e-57 -0.00970858 0
-3.26683e-57 -0.00970858 0
-5.77791e-57 -0.00970858 0
-2.13738e-57 -0.00970858 0
5.98649e-57 -0.00970858 0
6.87255e-58 -0.00970858 0
4.04994e-57 -0.00970858 0
1.94844e-57 -0.00970858 0
3.73482e-57 -0.00970858 0
-2.03574e-57 -0.00970858 0
1.48719e-57 -0.00970858 0
-5.37639e-57 -0.00970858 0
-4.91933e-58 -0.00970858 0
-5.65963e-57 -0.00970858 0
SCALARS radius double 1
LOOKUP_TABLE default
0.000621415
0.000750874
0.000735541
0.000522882
0.000780242
0.00097475
0.000994168
0.000790412
0.000880848
0.000720838
0.000933918
0.000958934
0.000753488
0.00054522
0.000712397
0.000950783
0.000807753
0.000836475
0.000569299
0.000603945
0.000628319
0.000580291
0.000777192
0.000692678
0.00055675
SCALARS mass double 1
LOOKUP_TABLE default
0.00327549
0.00478242
0.00458909
0.0023191
0.00516383
0.00805935
0.00838365
0.00529932
0.00658136
0.00440747
0.00739829
0.00779994
0.00481578
0.00252149
0.00430484
0.0076679
0.0055344
0.00593499
0.00274913
0.00309392
0.00334869
0.00285631
0.00512354
0.00406984
0.00262926
