# vtk DataFile Version 3.0
DEM2D particles
ASCII
DATASET POLYDATA
POINTS 25 double
0.000436511 -3.9039e-05 0
0.00259373 -0.000251013 0
0.00503527 0.000540277 0
0.0075525 -0.00090831 0
0.00982669 -0.000750373 0
0.00134532 0.00212475 0
0.00385427 0.0016132 0
0.0049179 0.000722693 0
0.00662312 0.00235883 0
0.00923317 0.00167265 0
0.000767124 0.00386024 0
0.0037611 0.00275279 0
0.00456232 0.00393897 0
0.00622589 0.00415719 0
0.00871364 0.0034065 0
0.00180206 0.00557203 0
0.00309208 0.00487517 0
0.0055426 0.00531516 0
0.00726105 0.00645802 0
0.00950038 0.00626301 0
0.000727257 0.00744645 0
0.00319925 0.00679675 0
0.00427968 0.00786783 0
0.00693409 0.00730692 0
0.00824173 0.00773438 0
VERTICES 25 50
1 0
1 1
1 2
1 3
1 4
1 5
1 6
1 7
1 8
1 9
1 10
1 11
1 12
1 13
1 14
1 15
1 16
1 17
1 18
1 19
1 20
1 21
1 22
1 23
1 24
POINT_DATA 25
VECTORS velocity double
-4.78528e-65 -0.00970858 0
-3.45015e-65 -0.00970858 0
2.99509e-66 -0.00970858 0
4.69198e-65 -0.00970858 0
7.02047e-65 -0.00970858 0
2.93254e-65 -0.00970858 0
7.25462e-65 -0.00970858 0
-6.97202e-66 -0.00970858 0
-3.20054e-65 -0.00970858 0
1.98013e-65 -0.00970858 0
-1.97763e-65 -0.00970858 0
6.46345e-65 -0.00970858 0
-3.7169e-65 -0.00970858 0
-6.57392e-65 -0.00970858 0
-2.43184e-65 -0.00970858 0
6.81125e-65 -0.00970858 0
7.81938e-66 -0.00970858 0
4.60789e-65 -0.00970858 0
2.21687e-65 -0.00970858 0
4.24936e-65 -0.00970858 0
-2.3162e-65 -0.00970858 0
1.69208e-65 -0.00970858 0
-6.11709e-65 -0.00970858 0
-5.59706e-66 -0.00970858 0
-6.43936e-65 -0.00970858 0
SCALARS radius double 1
LOOKUP_TABLE default
0.000621415
0.000750874
0.000735541
0.000522882
0.000780242
0.00097475
0.000994168
0.000790412
0.000880848
0.000720838
0.000933918
0.000958934
0.000753488
0.00054522
0.000712397
0.000950783
0.000807753
0.000836475
0.000569299
0.000603945
0.000628319
0.000580291
0.000777192
0.000692678
0.00055675
SCALARS mass double 1
LOOKUP_TABLE default
0.00327549
0.00478242
0.00458909
0.0023191
0.00516383
0.00805935
0.00838365
0.00529932
0.00658136
0.00440747
0.00739829
0.00779994
0.00481578
0.00252149
0.00430484
0.0076679
0.0055344
0.00593499
0.00274913
0.00309392
0.00334869
0.00285631
0.00512354
0.00406984
0.00262926
