# vtk DataFile Version 3.0
DEM2D particles
ASCII
DATASET POLYDATA
POINTS 25 double
0.000436511 0.00101531 0
0.00259373 0.000803339 0
0.00503527 0.00159463 0
0.0075525 0.000146043 0
0.00982669 0.00030398 0
0.00134532 0.0031791 0
0.00385427 0.00266755 0
0.0049179 0.00177705 0
0.00662312 0.00341318 0
0.00923317 0.002727 0
0.000767124 0.00491459 0
0.0037611 0.00380715 0
0.00456232 0.00499332 0
0.00622589 0.00521155 0
0.00871364 0.00446085 0
0.00180206 0.00662638 0
0.00309208 0.00592952 0
0.0055426 0.00636951 0
0.00726105 0.00751237 0
0.00950038 0.00731736 0
0.000727257 0.0085008 0
0.00319925 0.00785111 0
0.00427968 0.00892218 0
0.00693409 0.00836127 0
0.00824173 0.00878873 0
VERTICES 25 50
1 0
1 1
1 2
1 3
1 4
1 5
1 6
1 7
1 8
1 9
1 10
1 11
1 12
1 13
1 14
1 15
1 16
1 17
1 18
1 19
1 20
1 21
1 22
1 23
1 24
POINT_DATA 25
VECTORS velocity double
-1.20696e-17 -0.00970858 0
-8.7021e-18 -0.00970858 0
7.55435e-19 -0.00970858 0
1.18343e-17 -0.00970858 0
1.77073e-17 -0.00970858 0
7.39658e-18 -0.00970858 0
1.82979e-17 -0.00970858 0
-1.75851e-18 -0.00970858 0
-8.07255e-18 -0.00970858 0
4.99436e-18 -0.00970858 0
-4.98807e-18 -0.00970858 0
1.63024e-17 -0.00970858 0
-9.37493e-18 -0.00970858 0
-1.6581e-17 -0.00970858 0
-6.13369e-18 -0.00970858 0
1.71796e-17 -0.00970858 0
1.97224e-18 -0.00970858 0
1.16222e-17 -0.00970858 0
5.59149e-18 -0.00970858 0
1.07179e-17 -0.00970858 0
-5.84201e-18 -0.00970858 0
4.26782e-18 -0.00970858 0
-1.54288e-17 -0.00970858 0
-1.41171e-18 -0.00970858 0
-1.62416e-17 -0.00970858 0
SCALARS radius double 1
LOOKUP_TABLE default
0.000621415
0.000750874
0.000735541
0.000522882
0.000780242
0.00097475
0.000994168
0.000790412
0.000880848
0.000720838
0.000933918
0.000958934
0.000753488
0.00054522
0.000712397
0.000950783
0.000807753
0.000836475
0.000569299
0.000603945
0.000628319
0.000580291
0.000777192
0.000692678
0.00055675
SCALARS mass double 1
LOOKUP_TABLE default
0.00327549
0.00478242
0.00458909
0.0023191
0.00516383
0.00805935
0.00838365
0.00529932
0.00658136
0.00440747
0.00739829
0.00779994
0.00481578
0.00252149
0.00430484
0.0076679
0.0055344
0.00593499
0.00274913
0.00309392
0.00334869
0.00285631
0.00512354
0.00406984
0.00262926
