# vtk DataFile Version 3.0
DEM2D particles
ASCII
DATASET POLYDATA
POINTS 25 double
0.000436511 0.000788132 0
0.00259373 0.000576158 0
0.00503527 0.00136745 0
0.0075525 -8.11383e-05 0
0.00982669 7.67987e-05 0
0.00134532 0.00295192 0
0.00385427 0.00244037 0
0.0049179 0.00154986 0
0.00662312 0.003186 0
0.00923317 0.00249982 0
0.000767124 0.00468741 0
0.0037611 0.00357997 0
0.00456232 0.00476614 0
0.00622589 0.00498437 0
0.00871364 0.00423367 0
0.00180206 0.0063992 0
0.00309208 0.00570234 0
0.0055426 0.00614233 0
0.00726105 0.00728519 0
0.00950038 0.00709018 0
0.000727257 0.00827362 0
0.00319925 0.00762392 0
0.00427968 0.008695 0
0.00693409 0.00813409 0
0.00824173 0.00856155 0
VERTICES 25 50
1 0
1 1
1 2
1 3
1 4
1 5
1 6
1 7
1 8
1 9
1 10
1 11
1 12
1 13
1 14
1 15
1 16
1 17
1 18
1 19
1 20
1 21
1 22
1 23
1 24
POINT_DATA 25
VECTORS velocity double
-7.37987e-28 -0.00970858 0
-5.32083e-28 -0.00970858 0
4.61905e-29 -0.00970858 0
7.236e-28 -0.00970858 0
1.0827e-27 -0.00970858 0
4.52258e-28 -0.00970858 0
1.11881e-27 -0.00970858 0
-1.07523e-28 -0.00970858 0
-4.9359e-28 -0.00970858 0
3.05376e-28 -0.00970858 0
-3.04992e-28 -0.00970858 0
9.96797e-28 -0.00970858 0
-5.73222e-28 -0.00970858 0
-1.01383e-27 -0.00970858 0
-3.7504e-28 -0.00970858 0
1.05043e-27 -0.00970858 0
1.20591e-28 -0.00970858 0
7.10632e-28 -0.00970858 0
3.41887e-28 -0.00970858 0
6.55339e-28 -0.00970858 0
-3.57205e-28 -0.00970858 0
2.60953e-28 -0.00970858 0
-9.43381e-28 -0.00970858 0
-8.63182e-29 -0.00970858 0
-9.93081e-28 -0.00970858 0
SCALARS radius double 1
LOOKUP_TABLE default
0.000621415
0.000750874
0.000735541
0.000522882
0.000780242
0.00097475
0.000994168
0.000790412
0.000880848
0.000720838
0.000933918
0.000958934
0.000753488
0.00054522
0.000712397
0.000950783
0.000807753
0.000836475
0.000569299
0.000603945
0.000628319
0.000580291
0.000777192
0.000692678
0.00055675
SCALARS mass double 1
LOOKUP_TABLE default
0.00327549
0.00478242
0.00458909
0.0023191
0.00516383
0.00805935
0.00838365
0.00529932
0.00658136
0.00440747
0.00739829
0.00779994
0.00481578
0.00252149
0.00430484
0.0076679
0.0055344
0.00593499
0.00274913
0.00309392
0.00334869
0.00285631
0.00512354
0.00406984
0.00262926
