# vtk DataFile Version 3.0
DEM2D particles
ASCII
DATASET POLYDATA
POINTS 25 double
0.000436511 0.000223093 0
0.00259373 1.11186e-05 0
0.00503527 0.000802409 0
0.0075525 -0.000646178 0
0.00982669 -0.000488241 0
0.00134532 0.00238688 0
0.00385427 0.00187533 0
0.0049179 0.000984825 0
0.00662312 0.00262096 0
0.00923317 0.00193478 0
0.000767124 0.00412237 0
0.0037611 0.00301493 0
0.00456232 0.0042011 0
0.00622589 0.00441933 0
0.00871364 0.00366863 0
0.00180206 0.00583416 0
0.00309208 0.0051373 0
0.0055426 0.00557729 0
0.00726105 0.00672015 0
0.00950038 0.00652514 0
0.000727257 0.00770858 0
0.00319925 0.00705889 0
0.00427968 0.00812996 0
0.00693409 0.00756905 0
0.00824173 0.00799651 0
VERTICES 25 50
1 0
1 1
1 2
1 3
1 4
1 5
1 6
1 7
1 8
1 9
1 10
1 11
1 12
1 13
1 14
1 15
1 16
1 17
1 18
1 19
1 20
1 21
1 22
1 23
1 24
POINT_DATA 25
VECTORS velocity double
-2.91663e-53 -0.00970858 0
-2.10287e-53 -0.00970858 0
1.82551e-54 -0.00970858 0
2.85977e-53 -0.00970858 0
4.27899e-53 -0.00970858 0
1.78739e-53 -0.00970858 0
4.4217e-53 -0.00970858 0
-4.24945e-54 -0.00970858 0
-1.95074e-53 -0.00970858 0
1.20689e-53 -0.00970858 0
-1.20537e-53 -0.00970858 0
3.93948e-53 -0.00970858 0
-2.26546e-53 -0.00970858 0
-4.00681e-53 -0.00970858 0
-1.48221e-53 -0.00970858 0
4.15146e-53 -0.00970858 0
4.76592e-54 -0.00970858 0
2.80852e-53 -0.00970858 0
1.35119e-53 -0.00970858 0
2.58999e-53 -0.00970858 0
-1.41172e-53 -0.00970858 0
1.03132e-53 -0.00970858 0
-3.72837e-53 -0.00970858 0
-3.41142e-54 -0.00970858 0
-3.9248e-53 -0.00970858 0
SCALARS radius double 1
LOOKUP_TABLE default
0.000621415
0.000750874
0.000735541
0.000522882
0.000780242
0.00097475
0.000994168
0.000790412
0.000880848
0.000720838
0.000933918
0.000958934
0.000753488
0.00054522
0.000712397
0.000950783
0.000807753
0.000836475
0.000569299
0.000603945
0.000628319
0.000580291
0.000777192
0.000692678
0.00055675
SCALARS mass double 1
LOOKUP_TABLE default
0.00327549
0.00478242
0.00458909
0.0023191
0.00516383
0.00805935
0.00838365
0.00529932
0.00658136
0.00440747
0.00739829
0.00779994
0.00481578
0.00252149
0.00430484
0.0076679
0.0055344
0.00593499
0.00274913
0.00309392
0.00334869
0.00285631
0.00512354
0.00406984
0.00262926
