# vtk DataFile Version 3.0
DEM2D particles
ASCII
DATASET POLYDATA
POINTS 25 double
0.000436511 0.000180375 0
0.00259373 -3.15991e-05 0
0.00503527 0.000759691 0
0.0075525 -0.000688896 0
0.00982669 -0.000530959 0
0.00134532 0.00234416 0
0.00385427 0.00183261 0
0.0049179 0.000942107 0
0.00662312 0.00257825 0
0.00923317 0.00189206 0
0.000767124 0.00407965 0
0.0037611 0.00297221 0
0.00456232 0.00415838 0
0.00622589 0.00437661 0
0.00871364 0.00362591 0
0.00180206 0.00579144 0
0.00309208 0.00509458 0
0.0055426 0.00553457 0
0.00726105 0.00667744 0
0.00950038 0.00648242 0
0.000727257 0.00766587 0
0.00319925 0.00701617 0
0.00427968 0.00808724 0
0.00693409 0.00752634 0
0.00824173 0.0079538 0
VERTICES 25 50
1 0
1 1
1 2
1 3
1 4
1 5
1 6
1 7
1 8
1 9
1 10
1 11
1 12
1 13
1 14
1 15
1 16
1 17
1 18
1 19
1 20
1 21
1 22
1 23
1 24
POINT_DATA 25
VECTORS velocity double
-3.50241e-55 -0.00970858 0
-2.52521e-55 -0.00970858 0
2.19215e-56 -0.00970858 0
3.43413e-55 -0.00970858 0
5.13839e-55 -0.00970858 0
2.14637e-55 -0.00970858 0
5.30976e-55 -0.00970858 0
-5.10292e-56 -0.00970858 0
-2.34252e-55 -0.00970858 0
1.44928e-55 -0.00970858 0
-1.44746e-55 -0.00970858 0
4.73069e-55 -0.00970858 0
-2.72045e-55 -0.00970858 0
-4.81155e-55 -0.00970858 0
-1.7799e-55 -0.00970858 0
4.98525e-55 -0.00970858 0
5.72312e-56 -0.00970858 0
3.37258e-55 -0.00970858 0
1.62256e-55 -0.00970858 0
3.11017e-55 -0.00970858 0
-1.69526e-55 -0.00970858 0
1.23845e-55 -0.00970858 0
-4.47719e-55 -0.00970858 0
-4.09657e-56 -0.00970858 0
-4.71306e-55 -0.00970858 0
SCALARS radius double 1
LOOKUP_TABLE default
0.000621415
0.000750874
0.000735541
0.000522882
0.000780242
0.00097475
0.000994168
0.000790412
0.000880848
0.000720838
0.000933918
0.000958934
0.000753488
0.00054522
0.000712397
0.000950783
0.000807753
0.000836475
0.000569299
0.000603945
0.000628319
0.000580291
0.000777192
0.000692678
0.00055675
SCALARS mass double 1
LOOKUP_TABLE default
0.00327549
0.00478242
0.00458909
0.0023191
0.00516383
0.00805935
0.00838365
0.00529932
0.00658136
0.00440747
0.00739829
0.00779994
0.00481578
0.00252149
0.00430484
0.0076679
0.0055344
0.00593499
0.00274913
0.00309392
0.00334869
0.00285631
0.00512354
0.00406984
0.00262926
