# vtk DataFile Version 3.0
DEM2D particles
ASCII
DATASET POLYDATA
POINTS 25 double
0.000436511 0.000652212 0
0.00259373 0.000440238 0
0.00503527 0.00123153 0
0.0075525 -0.000217058 0
0.00982669 -5.91215e-05 0
0.00134532 0.002816 0
0.00385427 0.00230445 0
0.0049179 0.00141394 0
0.00662312 0.00305008 0
0.00923317 0.0023639 0
0.000767124 0.00455149 0
0.0037611 0.00344404 0
0.00456232 0.00463022 0
0.00622589 0.00484845 0
0.00871364 0.00409775 0
0.00180206 0.00626328 0
0.00309208 0.00556642 0
0.0055426 0.00600641 0
0.00726105 0.00714927 0
0.00950038 0.00695426 0
0.000727257 0.0081377 0
0.00319925 0.007488 0
0.00427968 0.00855908 0
0.00693409 0.00799817 0
0.00824173 0.00842563 0
VERTICES 25 50
1 0
1 1
1 2
1 3
1 4
1 5
1 6
1 7
1 8
1 9
1 10
1 11
1 12
1 13
1 14
1 15
1 16
1 17
1 18
1 19
1 20
1 21
1 22
1 23
1 24
POINT_DATA 25
VECTORS velocity double
-5.71902e-34 -0.00970858 0
-4.12337e-34 -0.00970858 0
3.57952e-35 -0.00970858 0
5.60752e-34 -0.00970858 0
8.39037e-34 -0.00970858 0
3.50476e-34 -0.00970858 0
8.6702e-34 -0.00970858 0
-8.33245e-35 -0.00970858 0
-3.82506e-34 -0.00970858 0
2.36651e-34 -0.00970858 0
-2.36353e-34 -0.00970858 0
7.72466e-34 -0.00970858 0
-4.44217e-34 -0.00970858 0
-7.85668e-34 -0.00970858 0
-2.90636e-34 -0.00970858 0
8.14031e-34 -0.00970858 0
9.34516e-35 -0.00970858 0
5.50702e-34 -0.00970858 0
2.64945e-34 -0.00970858 0
5.07854e-34 -0.00970858 0
-2.76815e-34 -0.00970858 0
2.02225e-34 -0.00970858 0
-7.31071e-34 -0.00970858 0
-6.68921e-35 -0.00970858 0
-7.69586e-34 -0.00970858 0
SCALARS radius double 1
LOOKUP_TABLE default
0.000621415
0.000750874
0.000735541
0.000522882
0.000780242
0.00097475
0.000994168
0.000790412
0.000880848
0.000720838
0.000933918
0.000958934
0.000753488
0.00054522
0.000712397
0.000950783
0.000807753
0.000836475
0.000569299
0.000603945
0.000628319
0.000580291
0.000777192
0.000692678
0.00055675
SCALARS mass double 1
LOOKUP_TABLE default
0.00327549
0.00478242
0.00458909
0.0023191
0.00516383
0.00805935
0.00838365
0.00529932
0.00658136
0.00440747
0.00739829
0.00779994
0.00481578
0.00252149
0.00430484
0.0076679
0.0055344
0.00593499
0.00274913
0.00309392
0.00334869
0.00285631
0.00512354
0.00406984
0.00262926
