# vtk DataFile Version 3.0
DEM2D particles
ASCII
DATASET POLYDATA
POINTS 25 double
0.000436511 -2.5447e-05 0
0.00259373 -0.000237421 0
0.00503527 0.000553869 0
0.0075525 -0.000894718 0
0.00982669 -0.000736781 0
0.00134532 0.00213834 0
0.00385427 0.00162679 0
0.0049179 0.000736285 0
0.00662312 0.00237242 0
0.00923317 0.00168624 0
0.000767124 0.00387383 0
0.0037611 0.00276639 0
0.00456232 0.00395256 0
0.00622589 0.00417079 0
0.00871364 0.00342009 0
0.00180206 0.00558562 0
0.00309208 0.00488876 0
0.0055426 0.00532875 0
0.00726105 0.00647161 0
0.00950038 0.0062766 0
0.000727257 0.00746004 0
0.00319925 0.00681035 0
0.00427968 0.00788142 0
0.00693409 0.00732051 0
0.00824173 0.00774797 0
VERTICES 25 50
1 0
1 1
1 2
1 3
1 4
1 5
1 6
1 7
1 8
1 9
1 10
1 11
1 12
1 13
1 14
1 15
1 16
1 17
1 18
1 19
1 20
1 21
1 22
1 23
1 24
POINT_DATA 25
VECTORS velocity double
-1.95425e-64 -0.00970858 0
-1.409e-64 -0.00970858 0
1.22316e-65 -0.00970858 0
1.91615e-64 -0.00970858 0
2.86708e-64 -0.00970858 0
1.19761e-64 -0.00970858 0
2.9627e-64 -0.00970858 0
-2.84729e-65 -0.00970858 0
-1.30706e-64 -0.00970858 0
8.0866e-65 -0.00970858 0
-8.07641e-65 -0.00970858 0
2.6396e-64 -0.00970858 0
-1.51794e-64 -0.00970858 0
-2.68471e-64 -0.00970858 0
-9.93134e-65 -0.00970858 0
2.78163e-64 -0.00970858 0
3.19334e-65 -0.00970858 0
1.88181e-64 -0.00970858 0
9.05344e-65 -0.00970858 0
1.73539e-64 -0.00970858 0
-9.45906e-65 -0.00970858 0
6.91023e-65 -0.00970858 0
-2.49815e-64 -0.00970858 0
-2.28577e-65 -0.00970858 0
-2.62976e-64 -0.00970858 0
SCALARS radius double 1
LOOKUP_TABLE default
0.000621415
0.000750874
0.000735541
0.000522882
0.000780242
0.00097475
0.000994168
0.000790412
0.000880848
0.000720838
0.000933918
0.000958934
0.000753488
0.00054522
0.000712397
0.000950783
0.000807753
0.000836475
0.000569299
0.000603945
0.000628319
0.000580291
0.000777192
0.000692678
0.00055675
SCALARS mass double 1
LOOKUP_TABLE default
0.00327549
0.00478242
0.00458909
0.0023191
0.00516383
0.00805935
0.00838365
0.00529932
0.00658136
0.00440747
0.00739829
0.00779994
0.00481578
0.00252149
0.00430484
0.0076679
0.0055344
0.00593499
0.00274913
0.00309392
0.00334869
0.00285631
0.00512354
0.00406984
0.00262926
