# vtk DataFile Version 3.0
DEM2D particles
ASCII
DATASET POLYDATA
POINTS 25 double
0.000436511 0.00115512 0
0.00259373 0.000943143 0
0.00503527 0.00173443 0
0.0075525 0.000285846 0
0.00982669 0.000443783 0
0.00134532 0.0033189 0
0.00385427 0.00280735 0
0.0049179 0.00191685 0
0.00662312 0.00355299 0
0.00923317 0.0028668 0
0.000767124 0.00505439 0
0.0037611 0.00394695 0
0.00456232 0.00513313 0
0.00622589 0.00535135 0
0.00871364 0.00460065 0
0.00180206 0.00676618 0
0.00309208 0.00606932 0
0.0055426 0.00650932 0
0.00726105 0.00765218 0
0.00950038 0.00745717 0
0.000727257 0.00864061 0
0.00319925 0.00799091 0
0.00427968 0.00906199 0
0.00693409 0.00850108 0
0.00824173 0.00892854 0
VERTICES 25 50
1 0
1 1
1 2
1 3
1 4
1 5
1 6
1 7
1 8
1 9
1 10
1 11
1 12
1 13
1 14
1 15
1 16
1 17
1 18
1 19
1 20
1 21
1 22
1 23
1 24
POINT_DATA 25
VECTORS velocity double
-2.32816e-11 -0.00970858 0
-1.67859e-11 -0.00970858 0
1.45719e-12 -0.00970858 0
2.28277e-11 -0.00970858 0
3.41565e-11 -0.00970858 0
1.42676e-11 -0.00970858 0
3.52956e-11 -0.00970858 0
-3.39207e-12 -0.00970858 0
-1.55715e-11 -0.00970858 0
9.63384e-12 -0.00970858 0
-9.62171e-12 -0.00970858 0
3.14464e-11 -0.00970858 0
-1.80837e-11 -0.00970858 0
-3.19839e-11 -0.00970858 0
-1.18315e-11 -0.00970858 0
3.31385e-11 -0.00970858 0
3.80433e-12 -0.00970858 0
2.24186e-11 -0.00970858 0
1.07857e-11 -0.00970858 0
2.06743e-11 -0.00970858 0
-1.12689e-11 -0.00970858 0
8.23239e-12 -0.00970858 0
-2.97613e-11 -0.00970858 0
-2.72312e-12 -0.00970858 0
-3.13292e-11 -0.00970858 0
SCALARS radius double 1
LOOKUP_TABLE default
0.000621415
0.000750874
0.000735541
0.000522882
0.000780242
0.00097475
0.000994168
0.000790412
0.000880848
0.000720838
0.000933918
0.000958934
0.000753488
0.00054522
0.000712397
0.000950783
0.000807753
0.000836475
0.000569299
0.000603945
0.000628319
0.000580291
0.000777192
0.000692678
0.00055675
SCALARS mass double 1
LOOKUP_TABLE default
0.00327549
0.00478242
0.00458909
0.0023191
0.00516383
0.00805935
0.00838365
0.00529932
0.00658136
0.00440747
0.00739829
0.00779994
0.00481578
0.00252149
0.00430484
0.0076679
0.0055344
0.00593499
0.00274913
0.00309392
0.00334869
0.00285631
0.00512354
0.00406984
0.00262926
