# vtk DataFile Version 3.0
DEM2D particles
ASCII
DATASET POLYDATA
POINTS 25 double
0.000436511 0.000331829 0
0.00259373 0.000119855 0
0.00503527 0.000911145 0
0.0075525 -0.000537442 0
0.00982669 -0.000379505 0
0.00134532 0.00249562 0
0.00385427 0.00198406 0
0.0049179 0.00109356 0
0.00662312 0.0027297 0
0.00923317 0.00204351 0
0.000767124 0.0042311 0
0.0037611 0.00312366 0
0.00456232 0.00430984 0
0.00622589 0.00452806 0
0.00871364 0.00377737 0
0.00180206 0.0059429 0
0.00309208 0.00524603 0
0.0055426 0.00568603 0
0.00726105 0.00682889 0
0.00950038 0.00663388 0
0.000727257 0.00781732 0
0.00319925 0.00716762 0
0.00427968 0.0082387 0
0.00693409 0.00767779 0
0.00824173 0.00810525 0
VERTICES 25 50
1 0
1 1
1 2
1 3
1 4
1 5
1 6
1 7
1 8
1 9
1 10
1 11
1 12
1 13
1 14
1 15
1 16
1 17
1 18
1 19
1 20
1 21
1 22
1 23
1 24
POINT_DATA 25
VECTORS velocity double
-2.25665e-48 -0.00970858 0
-1.62703e-48 -0.00970858 0
1.41243e-49 -0.00970858 0
2.21265e-48 -0.00970858 0
3.31073e-48 -0.00970858 0
1.38293e-48 -0.00970858 0
3.42114e-48 -0.00970858 0
-3.28787e-49 -0.00970858 0
-1.50932e-48 -0.00970858 0
9.33791e-49 -0.00970858 0
-9.32615e-49 -0.00970858 0
3.04804e-48 -0.00970858 0
-1.75282e-48 -0.00970858 0
-3.10014e-48 -0.00970858 0
-1.14681e-48 -0.00970858 0
3.21206e-48 -0.00970858 0
3.68747e-49 -0.00970858 0
2.173e-48 -0.00970858 0
1.04544e-48 -0.00970858 0
2.00392e-48 -0.00970858 0
-1.09228e-48 -0.00970858 0
7.97951e-49 -0.00970858 0
-2.88471e-48 -0.00970858 0
-2.63947e-49 -0.00970858 0
-3.03668e-48 -0.00970858 0
SCALARS radius double 1
LOOKUP_TABLE default
0.000621415
0.000750874
0.000735541
0.000522882
0.000780242
0.00097475
0.000994168
0.000790412
0.000880848
0.000720838
0.000933918
0.000958934
0.000753488
0.00054522
0.000712397
0.000950783
0.000807753
0.000836475
0.000569299
0.000603945
0.000628319
0.000580291
0.000777192
0.000692678
0.00055675
SCALARS mass double 1
LOOKUP_TABLE default
0.00327549
0.00478242
0.00458909
0.0023191
0.00516383
0.00805935
0.00838365
0.00529932
0.00658136
0.00440747
0.00739829
0.00779994
0.00481578
0.00252149
0.00430484
0.0076679
0.0055344
0.00593499
0.00274913
0.00309392
0.00334869
0.00285631
0.00512354
0.00406984
0.00262926
