# vtk DataFile Version 3.0
DEM2D particles
ASCII
DATASET POLYDATA
POINTS 25 double
0.000436511 9.29977e-05 0
0.00259373 -0.000118976 0
0.00503527 0.000672314 0
0.0075525 -0.000776273 0
0.00982669 -0.000618336 0
0.00134532 0.00225678 0
0.00385427 0.00174523 0
0.0049179 0.00085473 0
0.00662312 0.00249087 0
0.00923317 0.00180468 0
0.000767124 0.00399227 0
0.0037611 0.00288483 0
0.00456232 0.00407101 0
0.00622589 0.00428923 0
0.00871364 0.00353853 0
0.00180206 0.00570407 0
0.00309208 0.0050072 0
0.0055426 0.0054472 0
0.00726105 0.00659006 0
0.00950038 0.00639505 0
0.000727257 0.00757849 0
0.00319925 0.00692879 0
0.00427968 0.00799987 0
0.00693409 0.00743896 0
0.00824173 0.00786642 0
VERTICES 25 50
1 0
1 1
1 2
1 3
1 4
1 5
1 6
1 7
1 8
1 9
1 10
1 11
1 12
1 13
1 14
1 15
1 16
1 17
1 18
1 19
1 20
1 21
1 22
1 23
1 24
POINT_DATA 25
VECTORS velocity double
-4.13088e-59 -0.00970858 0
-2.97833e-59 -0.00970858 0
2.58551e-60 -0.00970858 0
4.05034e-59 -0.00970858 0
6.06041e-59 -0.00970858 0
2.53151e-59 -0.00970858 0
6.26253e-59 -0.00970858 0
-6.01858e-60 -0.00970858 0
-2.76286e-59 -0.00970858 0
1.70934e-59 -0.00970858 0
-1.70719e-59 -0.00970858 0
5.57956e-59 -0.00970858 0
-3.20861e-59 -0.00970858 0
-5.67492e-59 -0.00970858 0
-2.09928e-59 -0.00970858 0
5.87979e-59 -0.00970858 0
6.75006e-60 -0.00970858 0
3.97775e-59 -0.00970858 0
1.91371e-59 -0.00970858 0
3.66825e-59 -0.00970858 0
-1.99945e-59 -0.00970858 0
1.46068e-59 -0.00970858 0
-5.28056e-59 -0.00970858 0
-4.83165e-60 -0.00970858 0
-5.55876e-59 -0.00970858 0
SCALARS radius double 1
LOOKUP_TABLE default
0.000621415
0.000750874
0.000735541
0.000522882
0.000780242
0.00097475
0.000994168
0.000790412
0.000880848
0.000720838
0.000933918
0.000958934
0.000753488
0.00054522
0.000712397
0.000950783
0.000807753
0.000836475
0.000569299
0.000603945
0.000628319
0.000580291
0.000777192
0.000692678
0.00055675
SCALARS mass double 1
LOOKUP_TABLE default
0.00327549
0.00478242
0.00458909
0.0023191
0.00516383
0.00805935
0.00838365
0.00529932
0.00658136
0.00440747
0.00739829
0.00779994
0.00481578
0.00252149
0.00430484
0.0076679
0.0055344
0.00593499
0.00274913
0.00309392
0.00334869
0.00285631
0.00512354
0.00406984
0.00262926
