# vtk DataFile Version 3.0
DEM2D particles
ASCII
DATASET POLYDATA
POINTS 25 double
0.000436511 -1.1855e-05 0
0.00259373 -0.000223829 0
0.00503527 0.000567461 0
0.0075525 -0.000881126 0
0.00982669 -0.000723189 0
0.00134532 0.00215193 0
0.00385427 0.00164038 0
0.0049179 0.000749877 0
0.00662312 0.00238602 0
0.00923317 0.00169983 0
0.000767124 0.00388742 0
0.0037611 0.00277998 0
0.00456232 0.00396615 0
0.00622589 0.00418438 0
0.00871364 0.00343368 0
0.00180206 0.00559921 0
0.00309208 0.00490235 0
0.0055426 0.00534234 0
0.00726105 0.00648521 0
0.00950038 0.00629019 0
0.000727257 0.00747364 0
0.00319925 0.00682394 0
0.00427968 0.00789501 0
0.00693409 0.00733411 0
0.00824173 0.00776157 0
VERTICES 25 50
1 0
1 1
1 2
1 3
1 4
1 5
1 6
1 7
1 8
1 9
1 10
1 11
1 12
1 13
1 14
1 15
1 16
1 17
1 18
1 19
1 20
1 21
1 22
1 23
1 24
POINT_DATA 25
VECTORS velocity double
-7.98091e-64 -0.00970858 0
-5.75418e-64 -0.00970858 0
4.99524e-65 -0.00970858 0
7.82532e-64 -0.00970858 0
1.17088e-63 -0.00970858 0
4.89091e-64 -0.00970858 0
1.20993e-63 -0.00970858 0
-1.1628e-64 -0.00970858 0
-5.33789e-64 -0.00970858 0
3.30247e-64 -0.00970858 0
-3.29831e-64 -0.00970858 0
1.07798e-63 -0.00970858 0
-6.19907e-64 -0.00970858 0
-1.0964e-63 -0.00970858 0
-4.05584e-64 -0.00970858 0
1.13598e-63 -0.00970858 0
1.30412e-64 -0.00970858 0
7.68507e-64 -0.00970858 0
3.69731e-64 -0.00970858 0
7.08712e-64 -0.00970858 0
-3.86297e-64 -0.00970858 0
2.82205e-64 -0.00970858 0
-1.02021e-63 -0.00970858 0
-9.33482e-65 -0.00970858 0
-1.07396e-63 -0.00970858 0
SCALARS radius double 1
LOOKUP_TABLE default
0.000621415
0.000750874
0.000735541
0.000522882
0.000780242
0.00097475
0.000994168
0.000790412
0.000880848
0.000720838
0.000933918
0.000958934
0.000753488
0.00054522
0.000712397
0.000950783
0.000807753
0.000836475
0.000569299
0.000603945
0.000628319
0.000580291
0.000777192
0.000692678
0.00055675
SCALARS mass double 1
LOOKUP_TABLE default
0.00327549
0.00478242
0.00458909
0.0023191
0.00516383
0.00805935
0.00838365
0.00529932
0.00658136
0.00440747
0.00739829
0.00779994
0.00481578
0.00252149
0.00430484
0.0076679
0.0055344
0.00593499
0.00274913
0.00309392
0.00334869
0.00285631
0.00512354
0.00406984
0.00262926
