# vtk DataFile Version 3.0
DEM2D particles
ASCII
DATASET POLYDATA
POINTS 25 double
0.000436511 0.000659979 0
0.00259373 0.000448005 0
0.00503527 0.0012393 0
0.0075525 -0.000209292 0
0.00982669 -5.13546e-05 0
0.00134532 0.00282377 0
0.00385427 0.00231221 0
0.0049179 0.00142171 0
0.00662312 0.00305785 0
0.00923317 0.00237166 0
0.000767124 0.00455925 0
0.0037611 0.00345181 0
0.00456232 0.00463799 0
0.00622589 0.00485621 0
0.00871364 0.00410552 0
0.00180206 0.00627105 0
0.00309208 0.00557418 0
0.0055426 0.00601418 0
0.00726105 0.00715704 0
0.00950038 0.00696203 0
0.000727257 0.00814547 0
0.00319925 0.00749577 0
0.00427968 0.00856685 0
0.00693409 0.00800594 0
0.00824173 0.0084334 0
VERTICES 25 50
1 0
1 1
1 2
1 3
1 4
1 5
1 6
1 7
1 8
1 9
1 10
1 11
1 12
1 13
1 14
1 15
1 16
1 17
1 18
1 19
1 20
1 21
1 22
1 23
1 24
POINT_DATA 25
VECTORS velocity double
-1.27793e-33 -0.00970858 0
-9.21375e-34 -0.00970858 0
7.99851e-35 -0.00970858 0
1.25301e-33 -0.00970858 0
1.87485e-33 -0.00970858 0
7.83147e-34 -0.00970858 0
1.93737e-33 -0.00970858 0
-1.8619e-34 -0.00970858 0
-8.54718e-34 -0.00970858 0
5.28801e-34 -0.00970858 0
-5.28135e-34 -0.00970858 0
1.72609e-33 -0.00970858 0
-9.92613e-34 -0.00970858 0
-1.75559e-33 -0.00970858 0
-6.49433e-34 -0.00970858 0
1.81897e-33 -0.00970858 0
2.0882e-34 -0.00970858 0
1.23056e-33 -0.00970858 0
5.92025e-34 -0.00970858 0
1.13481e-33 -0.00970858 0
-6.18549e-34 -0.00970858 0
4.51875e-34 -0.00970858 0
-1.63359e-33 -0.00970858 0
-1.49472e-34 -0.00970858 0
-1.71966e-33 -0.00970858 0
SCALARS radius double 1
LOOKUP_TABLE default
0.000621415
0.000750874
0.000735541
0.000522882
0.000780242
0.00097475
0.000994168
0.000790412
0.000880848
0.000720838
0.000933918
0.000958934
0.000753488
0.00054522
0.000712397
0.000950783
0.000807753
0.000836475
0.000569299
0.000603945
0.000628319
0.000580291
0.000777192
0.000692678
0.00055675
SCALARS mass double 1
LOOKUP_TABLE default
0.00327549
0.00478242
0.00458909
0.0023191
0.00516383
0.00805935
0.00838365
0.00529932
0.00658136
0.00440747
0.00739829
0.00779994
0.00481578
0.00252149
0.00430484
0.0076679
0.0055344
0.00593499
0.00274913
0.00309392
0.00334869
0.00285631
0.00512354
0.00406984
0.00262926
