# vtk DataFile Version 3.0
DEM2D particles
ASCII
DATASET POLYDATA
POINTS 25 double
0.000436511 0.000918227 0
0.00259373 0.000706253 0
0.00503527 0.00149754 0
0.0075525 4.89567e-05 0
0.00982669 0.000206894 0
0.00134532 0.00308201 0
0.00385427 0.00257046 0
0.0049179 0.00167996 0
0.00662312 0.0033161 0
0.00923317 0.00262991 0
0.000767124 0.0048175 0
0.0037611 0.00371006 0
0.00456232 0.00489624 0
0.00622589 0.00511446 0
0.00871364 0.00436376 0
0.00180206 0.00652929 0
0.00309208 0.00583243 0
0.0055426 0.00627243 0
0.00726105 0.00741529 0
0.00950038 0.00722028 0
0.000727257 0.00840372 0
0.00319925 0.00775402 0
0.00427968 0.0088251 0
0.00693409 0.00826419 0
0.00824173 0.00869165 0
VERTICES 25 50
1 0
1 1
1 2
1 3
1 4
1 5
1 6
1 7
1 8
1 9
1 10
1 11
1 12
1 13
1 14
1 15
1 16
1 17
1 18
1 19
1 20
1 21
1 22
1 23
1 24
POINT_DATA 25
VECTORS velocity double
-5.21061e-22 -0.00970858 0
-3.75681e-22 -0.00970858 0
3.26131e-23 -0.00970858 0
5.10902e-22 -0.00970858 0
7.64448e-22 -0.00970858 0
3.1932e-22 -0.00970858 0
7.89943e-22 -0.00970858 0
-7.59171e-23 -0.00970858 0
-3.48502e-22 -0.00970858 0
2.15613e-22 -0.00970858 0
-2.15341e-22 -0.00970858 0
7.03795e-22 -0.00970858 0
-4.04727e-22 -0.00970858 0
-7.15823e-22 -0.00970858 0
-2.64799e-22 -0.00970858 0
7.41665e-22 -0.00970858 0
8.51439e-23 -0.00970858 0
5.01746e-22 -0.00970858 0
2.41392e-22 -0.00970858 0
4.62706e-22 -0.00970858 0
-2.52207e-22 -0.00970858 0
1.84247e-22 -0.00970858 0
-6.6608e-22 -0.00970858 0
-6.09455e-23 -0.00970858 0
-7.01171e-22 -0.00970858 0
SCALARS radius double 1
LOOKUP_TABLE default
0.000621415
0.000750874
0.000735541
0.000522882
0.000780242
0.00097475
0.000994168
0.000790412
0.000880848
0.000720838
0.000933918
0.000958934
0.000753488
0.00054522
0.000712397
0.000950783
0.000807753
0.000836475
0.000569299
0.000603945
0.000628319
0.000580291
0.000777192
0.000692678
0.00055675
SCALARS mass double 1
LOOKUP_TABLE default
0.00327549
0.00478242
0.00458909
0.0023191
0.00516383
0.00805935
0.00838365
0.00529932
0.00658136
0.00440747
0.00739829
0.00779994
0.00481578
0.00252149
0.00430484
0.0076679
0.0055344
0.00593499
0.00274913
0.00309392
0.00334869
0.00285631
0.00512354
0.00406984
0.00262926
