# vtk DataFile Version 3.0
DEM2D particles
ASCII
DATASET POLYDATA
POINTS 25 double
0.000436514 0.00126968 0
0.00259373 0.0010577 0
0.00503527 0.00184899 0
0.0075525 0.00040041 0
0.00982669 0.000558346 0
0.00134532 0.00343346 0
0.00385426 0.00292191 0
0.0049179 0.00203141 0
0.00662312 0.00366754 0
0.00923317 0.00298136 0
0.000767126 0.00516895 0
0.0037611 0.00406152 0
0.00456232 0.00524768 0
0.00622589 0.00546591 0
0.00871364 0.00471522 0
0.00180205 0.00688075 0
0.00309208 0.00618389 0
0.0055426 0.00662388 0
0.00726105 0.00776673 0
0.00950038 0.00757172 0
0.000727258 0.00875517 0
0.00319925 0.00810547 0
0.00427969 0.00917655 0
0.00693409 0.00861564 0
0.00824174 0.0090431 0
VERTICES 25 50
1 0
1 1
1 2
1 3
1 4
1 5
1 6
1 7
1 8
1 9
1 10
1 11
1 12
1 13
1 14
1 15
1 16
1 17
1 18
1 19
1 20
1 21
1 22
1 23
1 24
POINT_DATA 25
VECTORS velocity double
-3.29218e-06 -0.00970633 0
-2.37364e-06 -0.00970757 0
2.06057e-07 -0.00970294 0
3.228e-06 -0.00971141 0
4.82996e-06 -0.00971048 0
2.01754e-06 -0.00970537 0
4.99105e-06 -0.00970836 0
-4.79662e-07 -0.00971356 0
-2.20192e-06 -0.009704 0
1.36229e-06 -0.00970801 0
-1.36058e-06 -0.00970692 0
4.44674e-06 -0.00971339 0
-2.55716e-06 -0.00970646 0
-4.52274e-06 -0.00970518 0
-1.67306e-06 -0.00970957 0
4.68601e-06 -0.0097086 0
5.37959e-07 -0.00971267 0
3.17015e-06 -0.0097101 0
1.52517e-06 -0.00970342 0
2.92348e-06 -0.00970456 0
-1.5935e-06 -0.00970933 0
1.16412e-06 -0.00971313 0
-4.20845e-06 -0.00970687 0
-3.85068e-07 -0.00971015 0
-4.43016e-06 -0.00970765 0
SCALARS radius double 1
LOOKUP_TABLE default
0.000621415
0.000750874
0.000735541
0.000522882
0.000780242
0.00097475
0.000994168
0.000790412
0.000880848
0.000720838
0.000933918
0.000958934
0.000753488
0.00054522
0.000712397
0.000950783
0.000807753
0.000836475
0.000569299
0.000603945
0.000628319
0.000580291
0.000777192
0.000692678
0.00055675
SCALARS mass double 1
LOOKUP_TABLE default
0.00327549
0.00478242
0.00458909
0.0023191
0.00516383
0.00805935
0.00838365
0.00529932
0.00658136
0.00440747
0.00739829
0.00779994
0.00481578
0.00252149
0.00430484
0.0076679
0.0055344
0.00593499
0.00274913
0.00309392
0.00334869
0.00285631
0.00512354
0.00406984
0.00262926
