# vtk DataFile Version 3.0
DEM2D particles
ASCII
DATASET POLYDATA
POINTS 25 double
0.000470297 0.00133584 0
0.00261809 0.00113658 0
0.00503315 0.00188042 0
0.00751938 0.000518692 0
0.00977713 0.000667159 0
0.00132462 0.00348981 0
0.00380305 0.00300893 0
0.00492282 0.00217182 0
0.00664572 0.00370986 0
0.00921919 0.00306481 0
0.000781087 0.00524116 0
0.00371547 0.00420012 0
0.00458856 0.00531517 0
0.0062723 0.00552031 0
0.00873081 0.00481462 0
0.00175397 0.00697023 0
0.00308656 0.00631515 0
0.00551007 0.00672876 0
0.0072454 0.0078031 0
0.00947038 0.00761978 0
0.00074361 0.00885218 0
0.0031873 0.00824144 0
0.00432287 0.00924829 0
0.00693804 0.00872102 0
0.0082872 0.00912285 0
VERTICES 25 50
1 0
1 1
1 2
1 3
1 4
1 5
1 6
1 7
1 8
1 9
1 10
1 11
1 12
1 13
1 14
1 15
1 16
1 17
1 18
1 19
1 20
1 21
1 22
1 23
1 24
POINT_DATA 25
VECTORS velocity double
-0.0341275 0.0136803 0
-0.0246057 0.000842201 0
0.00213603 0.0487664 0
0.0334622 -0.0389667 0
0.0500685 -0.0294013 0
0.0209142 0.0236 0
0.0517383 -0.00738192 0
-0.00497229 -0.0613149 0
-0.0228256 0.0377772 0
0.0141218 -0.00378135 0
-0.014104 0.00757993 0
0.0460959 -0.0594919 0
-0.0265081 0.0123485 0
-0.0468838 0.0255651 0
-0.0173433 -0.0199005 0
0.0485763 -0.00987521 0
0.00557661 -0.0520804 0
0.0328625 -0.0254323 0
0.0158102 0.0437847 0
0.0303055 0.0319738 0
-0.0165186 -0.0174807 0
0.0120675 -0.0568295 0
-0.0436257 0.00803989 0
-0.0039917 -0.0259314 0
-0.0459241 -4.23222e-05 0
SCALARS radius double 1
LOOKUP_TABLE default
0.000621415
0.000750874
0.000735541
0.000522882
0.000780242
0.00097475
0.000994168
0.000790412
0.000880848
0.000720838
0.000933918
0.000958934
0.000753488
0.00054522
0.000712397
0.000950783
0.000807753
0.000836475
0.000569299
0.000603945
0.000628319
0.000580291
0.000777192
0.000692678
0.00055675
SCALARS mass double 1
LOOKUP_TABLE default
0.00327549
0.00478242
0.00458909
0.0023191
0.00516383
0.00805935
0.00838365
0.00529932
0.00658136
0.00440747
0.00739829
0.00779994
0.00481578
0.00252149
0.00430484
0.0076679
0.0055344
0.00593499
0.00274913
0.00309392
0.00334869
0.00285631
0.00512354
0.00406984
0.00262926
