# vtk DataFile Version 3.0
DEM2D particles
ASCII
DATASET POLYDATA
POINTS 25 double
0.000436511 0.000669688 0
0.00259373 0.000457713 0
0.00503527 0.001249 0
0.0075525 -0.000199583 0
0.00982669 -4.1646e-05 0
0.00134532 0.00283347 0
0.00385427 0.00232192 0
0.0049179 0.00143142 0
0.00662312 0.00306756 0
0.00923317 0.00238137 0
0.000767124 0.00456896 0
0.0037611 0.00346152 0
0.00456232 0.0046477 0
0.00622589 0.00486592 0
0.00871364 0.00411522 0
0.00180206 0.00628076 0
0.00309208 0.00558389 0
0.0055426 0.00602389 0
0.00726105 0.00716675 0
0.00950038 0.00697174 0
0.000727257 0.00815518 0
0.00319925 0.00750548 0
0.00427968 0.00857656 0
0.00693409 0.00801565 0
0.00824173 0.00844311 0
VERTICES 25 50
1 0
1 1
1 2
1 3
1 4
1 5
1 6
1 7
1 8
1 9
1 10
1 11
1 12
1 13
1 14
1 15
1 16
1 17
1 18
1 19
1 20
1 21
1 22
1 23
1 24
POINT_DATA 25
VECTORS velocity double
-3.49129e-33 -0.00970858 0
-2.5172e-33 -0.00970858 0
2.18519e-34 -0.00970858 0
3.42323e-33 -0.00970858 0
5.12207e-33 -0.00970858 0
2.13956e-33 -0.00970858 0
5.29291e-33 -0.00970858 0
-5.08672e-34 -0.00970858 0
-2.33509e-33 -0.00970858 0
1.44468e-33 -0.00970858 0
-1.44286e-33 -0.00970858 0
4.71568e-33 -0.00970858 0
-2.71182e-33 -0.00970858 0
-4.79627e-33 -0.00970858 0
-1.77425e-33 -0.00970858 0
4.96942e-33 -0.00970858 0
5.70495e-34 -0.00970858 0
3.36188e-33 -0.00970858 0
1.61741e-33 -0.00970858 0
3.1003e-33 -0.00970858 0
-1.68988e-33 -0.00970858 0
1.23452e-33 -0.00970858 0
-4.46297e-33 -0.00970858 0
-4.08357e-34 -0.00970858 0
-4.6981e-33 -0.00970858 0
SCALARS radius double 1
LOOKUP_TABLE default
0.000621415
0.000750874
0.000735541
0.000522882
0.000780242
0.00097475
0.000994168
0.000790412
0.000880848
0.000720838
0.000933918
0.000958934
0.000753488
0.00054522
0.000712397
0.000950783
0.000807753
0.000836475
0.000569299
0.000603945
0.000628319
0.000580291
0.000777192
0.000692678
0.00055675
SCALARS mass double 1
LOOKUP_TABLE default
0.00327549
0.00478242
0.00458909
0.0023191
0.00516383
0.00805935
0.00838365
0.00529932
0.00658136
0.00440747
0.00739829
0.00779994
0.00481578
0.00252149
0.00430484
0.0076679
0.0055344
0.00593499
0.00274913
0.00309392
0.00334869
0.00285631
0.00512354
0.00406984
0.00262926
