# vtk DataFile Version 3.0
DEM2D particles
ASCII
DATASET POLYDATA
POINTS 25 double
0.000436511 0.000211442 0
0.00259373 -5.31654e-07 0
0.00503527 0.000790759 0
0.0075525 -0.000657828 0
0.00982669 -0.000499891 0
0.00134532 0.00237523 0
0.00385427 0.00186368 0
0.0049179 0.000973174 0
0.00662312 0.00260931 0
0.00923317 0.00192313 0
0.000767124 0.00411072 0
0.0037611 0.00300328 0
0.00456232 0.00418945 0
0.00622589 0.00440768 0
0.00871364 0.00365698 0
0.00180206 0.00582251 0
0.00309208 0.00512565 0
0.0055426 0.00556564 0
0.00726105 0.0067085 0
0.00950038 0.00651349 0
0.000727257 0.00769693 0
0.00319925 0.00704723 0
0.00427968 0.00811831 0
0.00693409 0.0075574 0
0.00824173 0.00798486 0
VERTICES 25 50
1 0
1 1
1 2
1 3
1 4
1 5
1 6
1 7
1 8
1 9
1 10
1 11
1 12
1 13
1 14
1 15
1 16
1 17
1 18
1 19
1 20
1 21
1 22
1 23
1 24
POINT_DATA 25
VECTORS velocity double
-8.73182e-54 -0.00970858 0
-6.29558e-54 -0.00970858 0
5.46523e-55 -0.00970858 0
8.56159e-54 -0.00970858 0
1.28105e-53 -0.00970858 0
5.35109e-54 -0.00970858 0
1.32377e-53 -0.00970858 0
-1.2722e-54 -0.00970858 0
-5.84012e-54 -0.00970858 0
3.61319e-54 -0.00970858 0
-3.60864e-54 -0.00970858 0
1.1794e-53 -0.00970858 0
-6.78233e-54 -0.00970858 0
-1.19956e-53 -0.00970858 0
-4.43745e-54 -0.00970858 0
1.24287e-53 -0.00970858 0
1.42682e-54 -0.00970858 0
8.40815e-54 -0.00970858 0
4.04519e-54 -0.00970858 0
7.75393e-54 -0.00970858 0
-4.22643e-54 -0.00970858 0
3.08758e-54 -0.00970858 0
-1.1162e-53 -0.00970858 0
-1.02131e-54 -0.00970858 0
-1.17501e-53 -0.00970858 0
SCALARS radius double 1
LOOKUP_TABLE default
0.000621415
0.000750874
0.000735541
0.000522882
0.000780242
0.00097475
0.000994168
0.000790412
0.000880848
0.000720838
0.000933918
0.000958934
0.000753488
0.00054522
0.000712397
0.000950783
0.000807753
0.000836475
0.000569299
0.000603945
0.000628319
0.000580291
0.000777192
0.000692678
0.00055675
SCALARS mass double 1
LOOKUP_TABLE default
0.00327549
0.00478242
0.00458909
0.0023191
0.00516383
0.00805935
0.00838365
0.00529932
0.00658136
0.00440747
0.00739829
0.00779994
0.00481578
0.00252149
0.00430484
0.0076679
0.0055344
0.00593499
0.00274913
0.00309392
0.00334869
0.00285631
0.00512354
0.00406984
0.00262926
