# vtk DataFile Version 3.0
DEM2D particles
ASCII
DATASET POLYDATA
POINTS 25 double
0.000436511 0.000947353 0
0.00259373 0.000735379 0
0.00503527 0.00152667 0
0.0075525 7.80824e-05 0
0.00982669 0.000236019 0
0.00134532 0.00311114 0
0.00385427 0.00259959 0
0.0049179 0.00170908 0
0.00662312 0.00334522 0
0.00923317 0.00265904 0
0.000767124 0.00484663 0
0.0037611 0.00373919 0
0.00456232 0.00492536 0
0.00622589 0.00514359 0
0.00871364 0.00439289 0
0.00180206 0.00655842 0
0.00309208 0.00586156 0
0.0055426 0.00630155 0
0.00726105 0.00744441 0
0.00950038 0.0072494 0
0.000727257 0.00843284 0
0.00319925 0.00778315 0
0.00427968 0.00885422 0
0.00693409 0.00829331 0
0.00824173 0.00872077 0
VERTICES 25 50
1 0
1 1
1 2
1 3
1 4
1 5
1 6
1 7
1 8
1 9
1 10
1 11
1 12
1 13
1 14
1 15
1 16
1 17
1 18
1 19
1 20
1 21
1 22
1 23
1 24
POINT_DATA 25
VECTORS velocity double
-1.0625e-20 -0.00970858 0
-7.66056e-21 -0.00970858 0
6.65018e-22 -0.00970858 0
1.04179e-20 -0.00970858 0
1.5588e-20 -0.00970858 0
6.51129e-21 -0.00970858 0
1.61078e-20 -0.00970858 0
-1.54804e-21 -0.00970858 0
-7.10635e-21 -0.00970858 0
4.39659e-21 -0.00970858 0
-4.39105e-21 -0.00970858 0
1.43512e-20 -0.00970858 0
-8.25285e-21 -0.00970858 0
-1.45965e-20 -0.00970858 0
-5.39956e-21 -0.00970858 0
1.51234e-20 -0.00970858 0
1.73618e-21 -0.00970858 0
1.02312e-20 -0.00970858 0
4.92225e-21 -0.00970858 0
9.43511e-21 -0.00970858 0
-5.14278e-21 -0.00970858 0
3.75701e-21 -0.00970858 0
-1.35821e-20 -0.00970858 0
-1.24275e-21 -0.00970858 0
-1.42977e-20 -0.00970858 0
SCALARS radius double 1
LOOKUP_TABLE default
0.000621415
0.000750874
0.000735541
0.000522882
0.000780242
0.00097475
0.000994168
0.000790412
0.000880848
0.000720838
0.000933918
0.000958934
0.000753488
0.00054522
0.000712397
0.000950783
0.000807753
0.000836475
0.000569299
0.000603945
0.000628319
0.000580291
0.000777192
0.000692678
0.00055675
SCALARS mass double 1
LOOKUP_TABLE default
0.00327549
0.00478242
0.00458909
0.0023191
0.00516383
0.00805935
0.00838365
0.00529932
0.00658136
0.00440747
0.00739829
0.00779994
0.00481578
0.00252149
0.00430484
0.0076679
0.0055344
0.00593499
0.00274913
0.00309392
0.00334869
0.00285631
0.00512354
0.00406984
0.00262926
