# vtk DataFile Version 3.0
DEM2D particles
ASCII
DATASET POLYDATA
POINTS 25 double
0.000436511 0.00105221 0
0.00259373 0.000840232 0
0.00503527 0.00163152 0
0.0075525 0.000182935 0
0.00982669 0.000340872 0
0.00134532 0.00321599 0
0.00385427 0.00270444 0
0.0049179 0.00181394 0
0.00662312 0.00345008 0
0.00923317 0.00276389 0
0.000767124 0.00495148 0
0.0037611 0.00384404 0
0.00456232 0.00503021 0
0.00622589 0.00524844 0
0.00871364 0.00449774 0
0.00180206 0.00666327 0
0.00309208 0.00596641 0
0.0055426 0.00640641 0
0.00726105 0.00754927 0
0.00950038 0.00735425 0
0.000727257 0.0085377 0
0.00319925 0.007888 0
0.00427968 0.00895907 0
0.00693409 0.00839817 0
0.00824173 0.00882563 0
VERTICES 25 50
1 0
1 1
1 2
1 3
1 4
1 5
1 6
1 7
1 8
1 9
1 10
1 11
1 12
1 13
1 14
1 15
1 16
1 17
1 18
1 19
1 20
1 21
1 22
1 23
1 24
POINT_DATA 25
VECTORS velocity double
-5.49945e-16 -0.00970858 0
-3.96507e-16 -0.00970858 0
3.4421e-17 -0.00970858 0
5.39224e-16 -0.00970858 0
8.06825e-16 -0.00970858 0
3.37021e-16 -0.00970858 0
8.33734e-16 -0.00970858 0
-8.01256e-17 -0.00970858 0
-3.67821e-16 -0.00970858 0
2.27565e-16 -0.00970858 0
-2.27279e-16 -0.00970858 0
7.42809e-16 -0.00970858 0
-4.27163e-16 -0.00970858 0
-7.55505e-16 -0.00970858 0
-2.79478e-16 -0.00970858 0
7.82779e-16 -0.00970858 0
8.98638e-17 -0.00970858 0
5.2956e-16 -0.00970858 0
2.54773e-16 -0.00970858 0
4.88356e-16 -0.00970858 0
-2.66188e-16 -0.00970858 0
1.94461e-16 -0.00970858 0
-7.03004e-16 -0.00970858 0
-6.4324e-17 -0.00970858 0
-7.4004e-16 -0.00970858 0
SCALARS radius double 1
LOOKUP_TABLE default
0.000621415
0.000750874
0.000735541
0.000522882
0.000780242
0.00097475
0.000994168
0.000790412
0.000880848
0.000720838
0.000933918
0.000958934
0.000753488
0.00054522
0.000712397
0.000950783
0.000807753
0.000836475
0.000569299
0.000603945
0.000628319
0.000580291
0.000777192
0.000692678
0.00055675
SCALARS mass double 1
LOOKUP_TABLE default
0.00327549
0.00478242
0.00458909
0.0023191
0.00516383
0.00805935
0.00838365
0.00529932
0.00658136
0.00440747
0.00739829
0.00779994
0.00481578
0.00252149
0.00430484
0.0076679
0.0055344
0.00593499
0.00274913
0.00309392
0.00334869
0.00285631
0.00512354
0.00406984
0.00262926
