# vtk DataFile Version 3.0
DEM2D particles
ASCII
DATASET POLYDATA
POINTS 25 double
0.000436511 0.00103861 0
0.00259373 0.00082664 0
0.00503527 0.00161793 0
0.0075525 0.000169343 0
0.00982669 0.00032728 0
0.00134532 0.0032024 0
0.00385427 0.00269085 0
0.0049179 0.00180035 0
0.00662312 0.00343648 0
0.00923317 0.0027503 0
0.000767124 0.00493789 0
0.0037611 0.00383045 0
0.00456232 0.00501662 0
0.00622589 0.00523485 0
0.00871364 0.00448415 0
0.00180206 0.00664968 0
0.00309208 0.00595282 0
0.0055426 0.00639281 0
0.00726105 0.00753568 0
0.00950038 0.00734066 0
0.000727257 0.0085241 0
0.00319925 0.00787441 0
0.00427968 0.00894548 0
0.00693409 0.00838457 0
0.00824173 0.00881204 0
VERTICES 25 50
1 0
1 1
1 2
1 3
1 4
1 5
1 6
1 7
1 8
1 9
1 10
1 11
1 12
1 13
1 14
1 15
1 16
1 17
1 18
1 19
1 20
1 21
1 22
1 23
1 24
POINT_DATA 25
VECTORS velocity double
-1.34663e-16 -0.00970858 0
-9.70907e-17 -0.00970858 0
8.4285e-18 -0.00970858 0
1.32037e-16 -0.00970858 0
1.97563e-16 -0.00970858 0
8.25248e-17 -0.00970858 0
2.04152e-16 -0.00970858 0
-1.962e-17 -0.00970858 0
-9.00666e-17 -0.00970858 0
5.57228e-17 -0.00970858 0
-5.56526e-17 -0.00970858 0
1.81888e-16 -0.00970858 0
-1.04597e-16 -0.00970858 0
-1.84997e-16 -0.00970858 0
-6.84345e-17 -0.00970858 0
1.91675e-16 -0.00970858 0
2.20045e-17 -0.00970858 0
1.29671e-16 -0.00970858 0
6.23851e-17 -0.00970858 0
1.19581e-16 -0.00970858 0
-6.51802e-17 -0.00970858 0
4.76167e-17 -0.00970858 0
-1.72141e-16 -0.00970858 0
-1.57507e-17 -0.00970858 0
-1.8121e-16 -0.00970858 0
SCALARS radius double 1
LOOKUP_TABLE default
0.000621415
0.000750874
0.000735541
0.000522882
0.000780242
0.00097475
0.000994168
0.000790412
0.000880848
0.000720838
0.000933918
0.000958934
0.000753488
0.00054522
0.000712397
0.000950783
0.000807753
0.000836475
0.000569299
0.000603945
0.000628319
0.000580291
0.000777192
0.000692678
0.00055675
SCALARS mass double 1
LOOKUP_TABLE default
0.00327549
0.00478242
0.00458909
0.0023191
0.00516383
0.00805935
0.00838365
0.00529932
0.00658136
0.00440747
0.00739829
0.00779994
0.00481578
0.00252149
0.00430484
0.0076679
0.0055344
0.00593499
0.00274913
0.00309392
0.00334869
0.00285631
0.00512354
0.00406984
0.00262926
