# vtk DataFile Version 3.0
DEM2D particles
ASCII
DATASET POLYDATA
POINTS 25 double
0.000436511 0.00108133 0
0.00259373 0.000869357 0
0.00503527 0.00166065 0
0.0075525 0.000212061 0
0.00982669 0.000369998 0
0.00134532 0.00324512 0
0.00385427 0.00273357 0
0.0049179 0.00184306 0
0.00662312 0.0034792 0
0.00923317 0.00279302 0
0.000767124 0.00498061 0
0.0037611 0.00387316 0
0.00456232 0.00505934 0
0.00622589 0.00527756 0
0.00871364 0.00452687 0
0.00180206 0.0066924 0
0.00309208 0.00599554 0
0.0055426 0.00643553 0
0.00726105 0.00757839 0
0.00950038 0.00738338 0
0.000727257 0.00856682 0
0.00319925 0.00791712 0
0.00427968 0.0089882 0
0.00693409 0.00842729 0
0.00824173 0.00885475 0
VERTICES 25 50
1 0
1 1
1 2
1 3
1 4
1 5
1 6
1 7
1 8
1 9
1 10
1 11
1 12
1 13
1 14
1 15
1 16
1 17
1 18
1 19
1 20
1 21
1 22
1 23
1 24
POINT_DATA 25
VECTORS velocity double
-1.1214e-14 -0.00970858 0
-8.08522e-15 -0.00970858 0
7.01883e-16 -0.00970858 0
1.09954e-14 -0.00970858 0
1.64521e-14 -0.00970858 0
6.87225e-15 -0.00970858 0
1.70008e-14 -0.00970858 0
-1.63385e-15 -0.00970858 0
-7.50029e-15 -0.00970858 0
4.64031e-15 -0.00970858 0
-4.63447e-15 -0.00970858 0
1.51467e-14 -0.00970858 0
-8.71035e-15 -0.00970858 0
-1.54056e-14 -0.00970858 0
-5.69888e-15 -0.00970858 0
1.59618e-14 -0.00970858 0
1.83243e-15 -0.00970858 0
1.07983e-14 -0.00970858 0
5.19511e-15 -0.00970858 0
9.95814e-15 -0.00970858 0
-5.42787e-15 -0.00970858 0
3.96528e-15 -0.00970858 0
-1.43351e-14 -0.00970858 0
-1.31164e-15 -0.00970858 0
-1.50903e-14 -0.00970858 0
SCALARS radius double 1
LOOKUP_TABLE default
0.000621415
0.000750874
0.000735541
0.000522882
0.000780242
0.00097475
0.000994168
0.000790412
0.000880848
0.000720838
0.000933918
0.000958934
0.000753488
0.00054522
0.000712397
0.000950783
0.000807753
0.000836475
0.000569299
0.000603945
0.000628319
0.000580291
0.000777192
0.000692678
0.00055675
SCALARS mass double 1
LOOKUP_TABLE default
0.00327549
0.00478242
0.00458909
0.0023191
0.00516383
0.00805935
0.00838365
0.00529932
0.00658136
0.00440747
0.00739829
0.00779994
0.00481578
0.00252149
0.00430484
0.0076679
0.0055344
0.00593499
0.00274913
0.00309392
0.00334869
0.00285631
0.00512354
0.00406984
0.00262926
