# vtk DataFile Version 3.0
DEM2D particles
ASCII
DATASET POLYDATA
POINTS 25 double
0.000436511 0.000265811 0
0.00259373 5.38364e-05 0
0.00503527 0.000845127 0
0.0075525 -0.00060346 0
0.00982669 -0.000445523 0
0.00134532 0.0024296 0
0.00385427 0.00191805 0
0.0049179 0.00102754 0
0.00662312 0.00266368 0
0.00923317 0.0019775 0
0.000767124 0.00416509 0
0.0037611 0.00305764 0
0.00456232 0.00424382 0
0.00622589 0.00446204 0
0.00871364 0.00371135 0
0.00180206 0.00587688 0
0.00309208 0.00518002 0
0.0055426 0.00562001 0
0.00726105 0.00676287 0
0.00950038 0.00656786 0
0.000727257 0.0077513 0
0.00319925 0.0071016 0
0.00427968 0.00817268 0
0.00693409 0.00761177 0
0.00824173 0.00803923 0
VERTICES 25 50
1 0
1 1
1 2
1 3
1 4
1 5
1 6
1 7
1 8
1 9
1 10
1 11
1 12
1 13
1 14
1 15
1 16
1 17
1 18
1 19
1 20
1 21
1 22
1 23
1 24
POINT_DATA 25
VECTORS velocity double
-2.42882e-51 -0.00970858 0
-1.75116e-51 -0.00970858 0
1.5202e-52 -0.00970858 0
2.38147e-51 -0.00970858 0
3.56333e-51 -0.00970858 0
1.48845e-51 -0.00970858 0
3.68217e-51 -0.00970858 0
-3.53873e-52 -0.00970858 0
-1.62447e-51 -0.00970858 0
1.00504e-51 -0.00970858 0
-1.00377e-51 -0.00970858 0
3.2806e-51 -0.00970858 0
-1.88656e-51 -0.00970858 0
-3.33667e-51 -0.00970858 0
-1.23431e-51 -0.00970858 0
3.45713e-51 -0.00970858 0
3.96882e-52 -0.00970858 0
2.33879e-51 -0.00970858 0
1.1252e-51 -0.00970858 0
2.15682e-51 -0.00970858 0
-1.17561e-51 -0.00970858 0
8.58833e-52 -0.00970858 0
-3.1048e-51 -0.00970858 0
-2.84086e-52 -0.00970858 0
-3.26837e-51 -0.00970858 0
SCALARS radius double 1
LOOKUP_TABLE default
0.000621415
0.000750874
0.000735541
0.000522882
0.000780242
0.00097475
0.000994168
0.000790412
0.000880848
0.000720838
0.000933918
0.000958934
0.000753488
0.00054522
0.000712397
0.000950783
0.000807753
0.000836475
0.000569299
0.000603945
0.000628319
0.000580291
0.000777192
0.000692678
0.00055675
SCALARS mass double 1
LOOKUP_TABLE default
0.00327549
0.00478242
0.00458909
0.0023191
0.00516383
0.00805935
0.00838365
0.00529932
0.00658136
0.00440747
0.00739829
0.00779994
0.00481578
0.00252149
0.00430484
0.0076679
0.0055344
0.00593499
0.00274913
0.00309392
0.00334869
0.00285631
0.00512354
0.00406984
0.00262926
