# vtk DataFile Version 3.0
DEM2D particles
ASCII
DATASET POLYDATA
POINTS 25 double
0.000451631 0.00134087 0
0.00260463 0.00113458 0
0.00503432 0.00190464 0
0.00753768 0.000494922 0
0.00980451 0.000648621 0
0.00133605 0.00350026 0
0.00383134 0.00300243 0
0.0049201 0.00213583 0
0.00663323 0.00372806 0
0.00922691 0.00306029 0
0.000773373 0.00524285 0
0.00374068 0.00416512 0
0.00457406 0.00531947 0
0.00624666 0.00553184 0
0.00872132 0.00480128 0
0.00178054 0.00696237 0
0.00308961 0.00628421 0
0.00552804 0.0067124 0
0.00725404 0.00782459 0
0.00948696 0.00763481 0
0.000734575 0.00884016 0
0.0031939 0.0082079 0
0.00429901 0.00925024 0
0.00693586 0.00870438 0
0.00826208 0.00912037 0
VERTICES 25 50
1 0
1 1
1 2
1 3
1 4
1 5
1 6
1 7
1 8
1 9
1 10
1 11
1 12
1 13
1 14
1 15
1 16
1 17
1 18
1 19
1 20
1 21
1 22
1 23
1 24
POINT_DATA 25
VECTORS velocity double
-0.0152729 0.000758504 0
-0.0110116 -0.00498686 0
0.000955925 0.0164603 0
0.0149751 -0.0228023 0
0.0224068 -0.0185215 0
0.00935961 0.00519778 0
0.0231541 -0.00866735 0
-0.00222521 -0.0328036 0
-0.010215 0.0115424 0
0.00631984 -0.00705601 0
-0.00631189 -0.00197157 0
0.020629 -0.0319878 0
-0.011863 0.000162455 0
-0.0209816 0.00607723 0
-0.00776155 -0.0142697 0
0.021739 -0.00978315 0
0.00249566 -0.028671 0
0.0147067 -0.0167453 0
0.00707545 0.0142309 0
0.0135624 0.00894525 0
-0.00739246 -0.0131868 0
0.00540049 -0.0307963 0
-0.0195235 -0.00176573 0
-0.00178638 -0.0169687 0
-0.0205521 -0.00538271 0
SCALARS radius double 1
LOOKUP_TABLE default
0.000621415
0.000750874
0.000735541
0.000522882
0.000780242
0.00097475
0.000994168
0.000790412
0.000880848
0.000720838
0.000933918
0.000958934
0.000753488
0.00054522
0.000712397
0.000950783
0.000807753
0.000836475
0.000569299
0.000603945
0.000628319
0.000580291
0.000777192
0.000692678
0.00055675
SCALARS mass double 1
LOOKUP_TABLE default
0.00327549
0.00478242
0.00458909
0.0023191
0.00516383
0.00805935
0.00838365
0.00529932
0.00658136
0.00440747
0.00739829
0.00779994
0.00481578
0.00252149
0.00430484
0.0076679
0.0055344
0.00593499
0.00274913
0.00309392
0.00334869
0.00285631
0.00512354
0.00406984
0.00262926
