# vtk DataFile Version 3.0
DEM2D particles
ASCII
DATASET POLYDATA
POINTS 25 double
0.000436511 -3.51556e-05 0
0.00259373 -0.00024713 0
0.00503527 0.000544161 0
0.0075525 -0.000904426 0
0.00982669 -0.000746489 0
0.00134532 0.00212863 0
0.00385427 0.00161708 0
0.0049179 0.000726576 0
0.00662312 0.00236271 0
0.00923317 0.00167653 0
0.000767124 0.00386412 0
0.0037611 0.00275668 0
0.00456232 0.00394285 0
0.00622589 0.00416108 0
0.00871364 0.00341038 0
0.00180206 0.00557591 0
0.00309208 0.00487905 0
0.0055426 0.00531904 0
0.00726105 0.00646191 0
0.00950038 0.00626689 0
0.000727257 0.00745034 0
0.00319925 0.00680064 0
0.00427968 0.00787171 0
0.00693409 0.0073108 0
0.00824173 0.00773827 0
VERTICES 25 50
1 0
1 1
1 2
1 3
1 4
1 5
1 6
1 7
1 8
1 9
1 10
1 11
1 12
1 13
1 14
1 15
1 16
1 17
1 18
1 19
1 20
1 21
1 22
1 23
1 24
POINT_DATA 25
VECTORS velocity double
-7.15318e-65 -0.00970858 0
-5.15739e-65 -0.00970858 0
4.47716e-66 -0.00970858 0
7.01372e-65 -0.00970858 0
1.04944e-64 -0.00970858 0
4.38366e-65 -0.00970858 0
1.08444e-64 -0.00970858 0
-1.0422e-65 -0.00970858 0
-4.78427e-65 -0.00970858 0
2.95996e-65 -0.00970858 0
-2.95623e-65 -0.00970858 0
9.66178e-65 -0.00970858 0
-5.55614e-65 -0.00970858 0
-9.82691e-65 -0.00970858 0
-3.63519e-65 -0.00970858 0
1.01817e-64 -0.00970858 0
1.16887e-65 -0.00970858 0
6.88803e-65 -0.00970858 0
3.31385e-65 -0.00970858 0
6.35208e-65 -0.00970858 0
-3.46232e-65 -0.00970858 0
2.52937e-65 -0.00970858 0
-9.14402e-65 -0.00970858 0
-8.36667e-66 -0.00970858 0
-9.62576e-65 -0.00970858 0
SCALARS radius double 1
LOOKUP_TABLE default
0.000621415
0.000750874
0.000735541
0.000522882
0.000780242
0.00097475
0.000994168
0.000790412
0.000880848
0.000720838
0.000933918
0.000958934
0.000753488
0.00054522
0.000712397
0.000950783
0.000807753
0.000836475
0.000569299
0.000603945
0.000628319
0.000580291
0.000777192
0.000692678
0.00055675
SCALARS mass double 1
LOOKUP_TABLE default
0.00327549
0.00478242
0.00458909
0.0023191
0.00516383
0.00805935
0.00838365
0.00529932
0.00658136
0.00440747
0.00739829
0.00779994
0.00481578
0.00252149
0.00430484
0.0076679
0.0055344
0.00593499
0.00274913
0.00309392
0.00334869
0.00285631
0.00512354
0.00406984
0.00262926
