# vtk DataFile Version 3.0
DEM2D particles
ASCII
DATASET POLYDATA
POINTS 25 double
0.000436511 1.72708e-05 0
0.00259373 -0.000194703 0
0.00503527 0.000596587 0
0.0075525 -0.000852 0
0.00982669 -0.000694063 0
0.00134532 0.00218106 0
0.00385427 0.00166951 0
0.0049179 0.000779003 0
0.00662312 0.00241514 0
0.00923317 0.00172896 0
0.000767124 0.00391655 0
0.0037611 0.0028091 0
0.00456232 0.00399528 0
0.00622589 0.0042135 0
0.00871364 0.00346281 0
0.00180206 0.00562834 0
0.00309208 0.00493148 0
0.0055426 0.00537147 0
0.00726105 0.00651433 0
0.00950038 0.00631932 0
0.000727257 0.00750276 0
0.00319925 0.00685306 0
0.00427968 0.00792414 0
0.00693409 0.00736323 0
0.00824173 0.00779069 0
VERTICES 25 50
1 0
1 1
1 2
1 3
1 4
1 5
1 6
1 7
1 8
1 9
1 10
1 11
1 12
1 13
1 14
1 15
1 16
1 17
1 18
1 19
1 20
1 21
1 22
1 23
1 24
POINT_DATA 25
VECTORS velocity double
-1.6274e-62 -0.00970858 0
-1.17334e-62 -0.00970858 0
1.01859e-63 -0.00970858 0
1.59567e-62 -0.00970858 0
2.38756e-62 -0.00970858 0
9.97313e-63 -0.00970858 0
2.46719e-62 -0.00970858 0
-2.37108e-63 -0.00970858 0
-1.08846e-62 -0.00970858 0
6.73411e-63 -0.00970858 0
-6.72563e-63 -0.00970858 0
2.19812e-62 -0.00970858 0
-1.26406e-62 -0.00970858 0
-2.23569e-62 -0.00970858 0
-8.27032e-63 -0.00970858 0
2.3164e-62 -0.00970858 0
2.65925e-63 -0.00970858 0
1.56707e-62 -0.00970858 0
7.53925e-63 -0.00970858 0
1.44514e-62 -0.00970858 0
-7.87703e-63 -0.00970858 0
5.75449e-63 -0.00970858 0
-2.08033e-62 -0.00970858 0
-1.90348e-63 -0.00970858 0
-2.18993e-62 -0.00970858 0
SCALARS radius double 1
LOOKUP_TABLE default
0.000621415
0.000750874
0.000735541
0.000522882
0.000780242
0.00097475
0.000994168
0.000790412
0.000880848
0.000720838
0.000933918
0.000958934
0.000753488
0.00054522
0.000712397
0.000950783
0.000807753
0.000836475
0.000569299
0.000603945
0.000628319
0.000580291
0.000777192
0.000692678
0.00055675
SCALARS mass double 1
LOOKUP_TABLE default
0.00327549
0.00478242
0.00458909
0.0023191
0.00516383
0.00805935
0.00838365
0.00529932
0.00658136
0.00440747
0.00739829
0.00779994
0.00481578
0.00252149
0.00430484
0.0076679
0.0055344
0.00593499
0.00274913
0.00309392
0.00334869
0.00285631
0.00512354
0.00406984
0.00262926
