# vtk DataFile Version 3.0
DEM2D particles
ASCII
DATASET POLYDATA
POINTS 25 double
0.000436511 0.000516292 0
0.00259373 0.000304318 0
0.00503527 0.00109561 0
0.0075525 -0.000352979 0
0.00982669 -0.000195042 0
0.00134532 0.00268008 0
0.00385427 0.00216853 0
0.0049179 0.00127802 0
0.00662312 0.00291416 0
0.00923317 0.00222798 0
0.000767124 0.00441557 0
0.0037611 0.00330812 0
0.00456232 0.0044943 0
0.00622589 0.00471253 0
0.00871364 0.00396183 0
0.00180206 0.00612736 0
0.00309208 0.0054305 0
0.0055426 0.00587049 0
0.00726105 0.00701335 0
0.00950038 0.00681834 0
0.000727257 0.00800178 0
0.00319925 0.00735208 0
0.00427968 0.00842316 0
0.00693409 0.00786225 0
0.00824173 0.00828971 0
VERTICES 25 50
1 0
1 1
1 2
1 3
1 4
1 5
1 6
1 7
1 8
1 9
1 10
1 11
1 12
1 13
1 14
1 15
1 16
1 17
1 18
1 19
1 20
1 21
1 22
1 23
1 24
POINT_DATA 25
VECTORS velocity double
-4.43194e-40 -0.00970858 0
-3.19539e-40 -0.00970858 0
2.77394e-41 -0.00970858 0
4.34554e-40 -0.00970858 0
6.5021e-40 -0.00970858 0
2.71601e-40 -0.00970858 0
6.71895e-40 -0.00970858 0
-6.45722e-41 -0.00970858 0
-2.96422e-40 -0.00970858 0
1.83392e-40 -0.00970858 0
-1.83161e-40 -0.00970858 0
5.98621e-40 -0.00970858 0
-3.44245e-40 -0.00970858 0
-6.08852e-40 -0.00970858 0
-2.25228e-40 -0.00970858 0
6.30832e-40 -0.00970858 0
7.24201e-41 -0.00970858 0
4.26766e-40 -0.00970858 0
2.05318e-40 -0.00970858 0
3.9356e-40 -0.00970858 0
-2.14517e-40 -0.00970858 0
1.56714e-40 -0.00970858 0
-5.66542e-40 -0.00970858 0
-5.18379e-41 -0.00970858 0
-5.96389e-40 -0.00970858 0
SCALARS radius double 1
LOOKUP_TABLE default
0.000621415
0.000750874
0.000735541
0.000522882
0.000780242
0.00097475
0.000994168
0.000790412
0.000880848
0.000720838
0.000933918
0.000958934
0.000753488
0.00054522
0.000712397
0.000950783
0.000807753
0.000836475
0.000569299
0.000603945
0.000628319
0.000580291
0.000777192
0.000692678
0.00055675
SCALARS mass double 1
LOOKUP_TABLE default
0.00327549
0.00478242
0.00458909
0.0023191
0.00516383
0.00805935
0.00838365
0.00529932
0.00658136
0.00440747
0.00739829
0.00779994
0.00481578
0.00252149
0.00430484
0.0076679
0.0055344
0.00593499
0.00274913
0.00309392
0.00334869
0.00285631
0.00512354
0.00406984
0.00262926
