# vtk DataFile Version 3.0
DEM2D particles
ASCII
DATASET POLYDATA
POINTS 25 double
0.000436511 0.0008425 0
0.00259373 0.000630526 0
0.00503527 0.00142182 0
0.0075525 -2.67703e-05 0
0.00982669 0.000131167 0
0.00134532 0.00300629 0
0.00385427 0.00249474 0
0.0049179 0.00160423 0
0.00662312 0.00324037 0
0.00923317 0.00255419 0
0.000767124 0.00474177 0
0.0037611 0.00363433 0
0.00456232 0.00482051 0
0.00622589 0.00503873 0
0.00871364 0.00428804 0
0.00180206 0.00645357 0
0.00309208 0.00575671 0
0.0055426 0.0061967 0
0.00726105 0.00733956 0
0.00950038 0.00714455 0
0.000727257 0.00832799 0
0.00319925 0.00767829 0
0.00427968 0.00874937 0
0.00693409 0.00818846 0
0.00824173 0.00861592 0
VERTICES 25 50
1 0
1 1
1 2
1 3
1 4
1 5
1 6
1 7
1 8
1 9
1 10
1 11
1 12
1 13
1 14
1 15
1 16
1 17
1 18
1 19
1 20
1 21
1 22
1 23
1 24
POINT_DATA 25
VECTORS velocity double
-2.05277e-25 -0.00970858 0
-1.48003e-25 -0.00970858 0
1.28482e-26 -0.00970858 0
2.01275e-25 -0.00970858 0
3.01162e-25 -0.00970858 0
1.25799e-25 -0.00970858 0
3.11206e-25 -0.00970858 0
-2.99083e-26 -0.00970858 0
-1.37296e-25 -0.00970858 0
8.49427e-26 -0.00970858 0
-8.48357e-26 -0.00970858 0
2.77267e-25 -0.00970858 0
-1.59446e-25 -0.00970858 0
-2.82006e-25 -0.00970858 0
-1.0432e-25 -0.00970858 0
2.92186e-25 -0.00970858 0
3.35433e-26 -0.00970858 0
1.97668e-25 -0.00970858 0
9.50985e-26 -0.00970858 0
1.82288e-25 -0.00970858 0
-9.93593e-26 -0.00970858 0
7.2586e-26 -0.00970858 0
-2.62409e-25 -0.00970858 0
-2.40101e-26 -0.00970858 0
-2.76233e-25 -0.00970858 0
SCALARS radius double 1
LOOKUP_TABLE default
0.000621415
0.000750874
0.000735541
0.000522882
0.000780242
0.00097475
0.000994168
0.000790412
0.000880848
0.000720838
0.000933918
0.000958934
0.000753488
0.00054522
0.000712397
0.000950783
0.000807753
0.000836475
0.000569299
0.000603945
0.000628319
0.000580291
0.000777192
0.000692678
0.00055675
SCALARS mass double 1
LOOKUP_TABLE default
0.00327549
0.00478242
0.00458909
0.0023191
0.00516383
0.00805935
0.00838365
0.00529932
0.00658136
0.00440747
0.00739829
0.00779994
0.00481578
0.00252149
0.00430484
0.0076679
0.0055344
0.00593499
0.00274913
0.00309392
0.00334869
0.00285631
0.00512354
0.00406984
0.00262926
