# vtk DataFile Version 3.0
DEM2D particles
ASCII
DATASET POLYDATA
POINTS 25 double
0.000436511 0.000327945 0
0.00259373 0.000115971 0
0.00503527 0.000907262 0
0.0075525 -0.000541325 0
0.00982669 -0.000383388 0
0.00134532 0.00249173 0
0.00385427 0.00198018 0
0.0049179 0.00108968 0
0.00662312 0.00272582 0
0.00923317 0.00203963 0
0.000767124 0.00422722 0
0.0037611 0.00311978 0
0.00456232 0.00430595 0
0.00622589 0.00452418 0
0.00871364 0.00377348 0
0.00180206 0.00593901 0
0.00309208 0.00524215 0
0.0055426 0.00568214 0
0.00726105 0.00682501 0
0.00950038 0.00662999 0
0.000727257 0.00781344 0
0.00319925 0.00716374 0
0.00427968 0.00823481 0
0.00693409 0.00767391 0
0.00824173 0.00810137 0
VERTICES 25 50
1 0
1 1
1 2
1 3
1 4
1 5
1 6
1 7
1 8
1 9
1 10
1 11
1 12
1 13
1 14
1 15
1 16
1 17
1 18
1 19
1 20
1 21
1 22
1 23
1 24
POINT_DATA 25
VECTORS velocity double
-1.50963e-48 -0.00970858 0
-1.08843e-48 -0.00970858 0
9.44876e-50 -0.00970858 0
1.4802e-48 -0.00970858 0
2.21478e-48 -0.00970858 0
9.25143e-49 -0.00970858 0
2.28865e-48 -0.00970858 0
-2.19949e-49 -0.00970858 0
-1.00969e-48 -0.00970858 0
6.2468e-49 -0.00970858 0
-6.23893e-49 -0.00970858 0
2.03906e-48 -0.00970858 0
-1.17259e-48 -0.00970858 0
-2.07391e-48 -0.00970858 0
-7.67184e-49 -0.00970858 0
2.14878e-48 -0.00970858 0
2.46682e-49 -0.00970858 0
1.45367e-48 -0.00970858 0
6.99367e-49 -0.00970858 0
1.34057e-48 -0.00970858 0
-7.30701e-49 -0.00970858 0
5.33807e-49 -0.00970858 0
-1.92979e-48 -0.00970858 0
-1.76573e-49 -0.00970858 0
-2.03145e-48 -0.00970858 0
SCALARS radius double 1
LOOKUP_TABLE default
0.000621415
0.000750874
0.000735541
0.000522882
0.000780242
0.00097475
0.000994168
0.000790412
0.000880848
0.000720838
0.000933918
0.000958934
0.000753488
0.00054522
0.000712397
0.000950783
0.000807753
0.000836475
0.000569299
0.000603945
0.000628319
0.000580291
0.000777192
0.000692678
0.00055675
SCALARS mass double 1
LOOKUP_TABLE default
0.00327549
0.00478242
0.00458909
0.0023191
0.00516383
0.00805935
0.00838365
0.00529932
0.00658136
0.00440747
0.00739829
0.00779994
0.00481578
0.00252149
0.00430484
0.0076679
0.0055344
0.00593499
0.00274913
0.00309392
0.00334869
0.00285631
0.00512354
0.00406984
0.00262926
