# vtk DataFile Version 3.0
DEM2D particles
ASCII
DATASET POLYDATA
POINTS 25 double
0.000436511 0.000609494 0
0.00259373 0.00039752 0
0.00503527 0.00118881 0
0.0075525 -0.000259776 0
0.00982669 -0.000101839 0
0.00134532 0.00277328 0
0.00385427 0.00226173 0
0.0049179 0.00137123 0
0.00662312 0.00300736 0
0.00923317 0.00232118 0
0.000767124 0.00450877 0
0.0037611 0.00340133 0
0.00456232 0.0045875 0
0.00622589 0.00480573 0
0.00871364 0.00405503 0
0.00180206 0.00622056 0
0.00309208 0.0055237 0
0.0055426 0.00596369 0
0.00726105 0.00710656 0
0.00950038 0.00691154 0
0.000727257 0.00809499 0
0.00319925 0.00744529 0
0.00427968 0.00851636 0
0.00693409 0.00795545 0
0.00824173 0.00838292 0
VERTICES 25 50
1 0
1 1
1 2
1 3
1 4
1 5
1 6
1 7
1 8
1 9
1 10
1 11
1 12
1 13
1 14
1 15
1 16
1 17
1 18
1 19
1 20
1 21
1 22
1 23
1 24
POINT_DATA 25
VECTORS velocity double
-6.86763e-36 -0.00970858 0
-4.95151e-36 -0.00970858 0
4.29844e-37 -0.00970858 0
6.73374e-36 -0.00970858 0
1.00755e-35 -0.00970858 0
4.20867e-36 -0.00970858 0
1.04115e-35 -0.00970858 0
-1.0006e-36 -0.00970858 0
-4.59329e-36 -0.00970858 0
2.8418e-36 -0.00970858 0
-2.83822e-36 -0.00970858 0
9.27609e-36 -0.00970858 0
-5.33435e-36 -0.00970858 0
-9.43463e-36 -0.00970858 0
-3.49008e-36 -0.00970858 0
9.77522e-36 -0.00970858 0
1.12221e-36 -0.00970858 0
6.61306e-36 -0.00970858 0
3.18157e-36 -0.00970858 0
6.09852e-36 -0.00970858 0
-3.32411e-36 -0.00970858 0
2.4284e-36 -0.00970858 0
-8.779e-36 -0.00970858 0
-8.03268e-37 -0.00970858 0
-9.2415e-36 -0.00970858 0
SCALARS radius double 1
LOOKUP_TABLE default
0.000621415
0.000750874
0.000735541
0.000522882
0.000780242
0.00097475
0.000994168
0.000790412
0.000880848
0.000720838
0.000933918
0.000958934
0.000753488
0.00054522
0.000712397
0.000950783
0.000807753
0.000836475
0.000569299
0.000603945
0.000628319
0.000580291
0.000777192
0.000692678
0.00055675
SCALARS mass double 1
LOOKUP_TABLE default
0.00327549
0.00478242
0.00458909
0.0023191
0.00516383
0.00805935
0.00838365
0.00529932
0.00658136
0.00440747
0.00739829
0.00779994
0.00481578
0.00252149
0.00430484
0.0076679
0.0055344
0.00593499
0.00274913
0.00309392
0.00334869
0.00285631
0.00512354
0.00406984
0.00262926
