# vtk DataFile Version 3.0
DEM2D particles
ASCII
DATASET POLYDATA
POINTS 25 double
0.000436511 0.00121725 0
0.00259373 0.00100528 0
0.00503527 0.00179657 0
0.0075525 0.000347981 0
0.00982669 0.000505918 0
0.00134532 0.00338104 0
0.00385427 0.00286949 0
0.0049179 0.00197898 0
0.00662312 0.00361512 0
0.00923317 0.00292894 0
0.000767124 0.00511653 0
0.0037611 0.00400908 0
0.00456232 0.00519526 0
0.00622589 0.00541348 0
0.00871364 0.00466279 0
0.00180206 0.00682832 0
0.00309208 0.00613146 0
0.0055426 0.00657145 0
0.00726105 0.00771431 0
0.00950038 0.0075193 0
0.000727257 0.00870274 0
0.00319925 0.00805304 0
0.00427968 0.00912412 0
0.00693409 0.00856321 0
0.00824173 0.00899067 0
VERTICES 25 50
1 0
1 1
1 2
1 3
1 4
1 5
1 6
1 7
1 8
1 9
1 10
1 11
1 12
1 13
1 14
1 15
1 16
1 17
1 18
1 19
1 20
1 21
1 22
1 23
1 24
POINT_DATA 25
VECTORS velocity double
-1.44707e-08 -0.00970857 0
-1.04332e-08 -0.00970858 0
9.05717e-10 -0.00970856 0
1.41886e-08 -0.0097086 0
2.12299e-08 -0.00970859 0
8.86801e-09 -0.00970857 0
2.1938e-08 -0.00970858 0
-2.10834e-09 -0.00970861 0
-9.67845e-09 -0.00970856 0
5.98791e-09 -0.00970858 0
-5.98036e-09 -0.00970858 0
1.95455e-08 -0.0097086 0
-1.12399e-08 -0.00970857 0
-1.98795e-08 -0.00970857 0
-7.35389e-09 -0.00970859 0
2.05972e-08 -0.00970858 0
2.36458e-09 -0.0097086 0
1.39343e-08 -0.00970859 0
6.70383e-09 -0.00970856 0
1.28501e-08 -0.00970857 0
-7.00418e-09 -0.00970859 0
5.11684e-09 -0.0097086 0
-1.84981e-08 -0.00970858 0
-1.69255e-09 -0.00970859 0
-1.94726e-08 -0.00970858 0
SCALARS radius double 1
LOOKUP_TABLE default
0.000621415
0.000750874
0.000735541
0.000522882
0.000780242
0.00097475
0.000994168
0.000790412
0.000880848
0.000720838
0.000933918
0.000958934
0.000753488
0.00054522
0.000712397
0.000950783
0.000807753
0.000836475
0.000569299
0.000603945
0.000628319
0.000580291
0.000777192
0.000692678
0.00055675
SCALARS mass double 1
LOOKUP_TABLE default
0.00327549
0.00478242
0.00458909
0.0023191
0.00516383
0.00805935
0.00838365
0.00529932
0.00658136
0.00440747
0.00739829
0.00779994
0.00481578
0.00252149
0.00430484
0.0076679
0.0055344
0.00593499
0.00274913
0.00309392
0.00334869
0.00285631
0.00512354
0.00406984
0.00262926
