# vtk DataFile Version 3.0
DEM2D particles
ASCII
DATASET POLYDATA
POINTS 25 double
0.000436511 0.000863859 0
0.00259373 0.000651885 0
0.00503527 0.00144318 0
0.0075525 -5.41137e-06 0
0.00982669 0.000152526 0
0.00134532 0.00302765 0
0.00385427 0.00251609 0
0.0049179 0.00162559 0
0.00662312 0.00326173 0
0.00923317 0.00257554 0
0.000767124 0.00476313 0
0.0037611 0.00365569 0
0.00456232 0.00484187 0
0.00622589 0.00506009 0
0.00871364 0.0043094 0
0.00180206 0.00647493 0
0.00309208 0.00577806 0
0.0055426 0.00621806 0
0.00726105 0.00736092 0
0.00950038 0.00716591 0
0.000727257 0.00834935 0
0.00319925 0.00769965 0
0.00427968 0.00877073 0
0.00693409 0.00820982 0
0.00824173 0.00863728 0
VERTICES 25 50
1 0
1 1
1 2
1 3
1 4
1 5
1 6
1 7
1 8
1 9
1 10
1 11
1 12
1 13
1 14
1 15
1 16
1 17
1 18
1 19
1 20
1 21
1 22
1 23
1 24
POINT_DATA 25
VECTORS velocity double
-1.87326e-24 -0.00970858 0
-1.3506e-24 -0.00970858 0
1.17247e-25 -0.00970858 0
1.83674e-24 -0.00970858 0
2.74825e-24 -0.00970858 0
1.14798e-24 -0.00970858 0
2.83991e-24 -0.00970858 0
-2.72928e-25 -0.00970858 0
-1.25289e-24 -0.00970858 0
7.75146e-25 -0.00970858 0
-7.74169e-25 -0.00970858 0
2.5302e-24 -0.00970858 0
-1.45503e-24 -0.00970858 0
-2.57344e-24 -0.00970858 0
-9.51975e-25 -0.00970858 0
2.66635e-24 -0.00970858 0
3.06099e-25 -0.00970858 0
1.80382e-24 -0.00970858 0
8.67823e-25 -0.00970858 0
1.66347e-24 -0.00970858 0
-9.06704e-25 -0.00970858 0
6.62384e-25 -0.00970858 0
-2.39461e-24 -0.00970858 0
-2.19104e-25 -0.00970858 0
-2.52077e-24 -0.00970858 0
SCALARS radius double 1
LOOKUP_TABLE default
0.000621415
0.000750874
0.000735541
0.000522882
0.000780242
0.00097475
0.000994168
0.000790412
0.000880848
0.000720838
0.000933918
0.000958934
0.000753488
0.00054522
0.000712397
0.000950783
0.000807753
0.000836475
0.000569299
0.000603945
0.000628319
0.000580291
0.000777192
0.000692678
0.00055675
SCALARS mass double 1
LOOKUP_TABLE default
0.00327549
0.00478242
0.00458909
0.0023191
0.00516383
0.00805935
0.00838365
0.00529932
0.00658136
0.00440747
0.00739829
0.00779994
0.00481578
0.00252149
0.00430484
0.0076679
0.0055344
0.00593499
0.00274913
0.00309392
0.00334869
0.00285631
0.00512354
0.00406984
0.00262926
