# vtk DataFile Version 3.0
DEM2D particles
ASCII
DATASET POLYDATA
POINTS 25 double
0.000436511 -5.45727e-05 0
0.00259373 -0.000266547 0
0.00503527 0.000524744 0
0.0075525 -0.000923843 0
0.00982669 -0.000765906 0
0.00134532 0.00210921 0
0.00385427 0.00159766 0
0.0049179 0.000707159 0
0.00662312 0.0023433 0
0.00923317 0.00165711 0
0.000767124 0.0038447 0
0.0037611 0.00273726 0
0.00456232 0.00392344 0
0.00622589 0.00414166 0
0.00871364 0.00339096 0
0.00180206 0.00555649 0
0.00309208 0.00485963 0
0.0055426 0.00529963 0
0.00726105 0.00644249 0
0.00950038 0.00624748 0
0.000727257 0.00743092 0
0.00319925 0.00678122 0
0.00427968 0.0078523 0
0.00693409 0.00729139 0
0.00824173 0.00771885 0
VERTICES 25 50
1 0
1 1
1 2
1 3
1 4
1 5
1 6
1 7
1 8
1 9
1 10
1 11
1 12
1 13
1 14
1 15
1 16
1 17
1 18
1 19
1 20
1 21
1 22
1 23
1 24
POINT_DATA 25
VECTORS velocity double
-9.58381e-66 -0.00970858 0
-6.90985e-66 -0.00970858 0
5.99848e-67 -0.00970858 0
9.39697e-66 -0.00970858 0
1.40604e-65 -0.00970858 0
5.87321e-66 -0.00970858 0
1.45293e-65 -0.00970858 0
-1.39633e-66 -0.00970858 0
-6.40996e-66 -0.00970858 0
3.96574e-66 -0.00970858 0
-3.96075e-66 -0.00970858 0
1.29448e-65 -0.00970858 0
-7.4441e-66 -0.00970858 0
-1.31661e-65 -0.00970858 0
-4.87042e-66 -0.00970858 0
1.36414e-65 -0.00970858 0
1.56604e-66 -0.00970858 0
9.22855e-66 -0.00970858 0
4.43989e-66 -0.00970858 0
8.5105e-66 -0.00970858 0
-4.63881e-66 -0.00970858 0
3.38884e-66 -0.00970858 0
-1.22511e-65 -0.00970858 0
-1.12096e-66 -0.00970858 0
-1.28966e-65 -0.00970858 0
SCALARS radius double 1
LOOKUP_TABLE default
0.000621415
0.000750874
0.000735541
0.000522882
0.000780242
0.00097475
0.000994168
0.000790412
0.000880848
0.000720838
0.000933918
0.000958934
0.000753488
0.00054522
0.000712397
0.000950783
0.000807753
0.000836475
0.000569299
0.000603945
0.000628319
0.000580291
0.000777192
0.000692678
0.00055675
SCALARS mass double 1
LOOKUP_TABLE default
0.00327549
0.00478242
0.00458909
0.0023191
0.00516383
0.00805935
0.00838365
0.00529932
0.00658136
0.00440747
0.00739829
0.00779994
0.00481578
0.00252149
0.00430484
0.0076679
0.0055344
0.00593499
0.00274913
0.00309392
0.00334869
0.00285631
0.00512354
0.00406984
0.00262926
