# vtk DataFile Version 3.0
DEM2D particles
ASCII
DATASET POLYDATA
POINTS 25 double
0.000436511 -0.000237094 0
0.00259373 -0.000449068 0
0.00503527 0.000342222 0
0.0075525 -0.00110636 0
0.00982669 -0.000948428 0
0.00134532 0.00192669 0
0.00385427 0.00141514 0
0.0049179 0.000524638 0
0.00662312 0.00216078 0
0.00923317 0.00147459 0
0.000767124 0.00366218 0
0.0037611 0.00255474 0
0.00456232 0.00374091 0
0.00622589 0.00395914 0
0.00871364 0.00320844 0
0.00180206 0.00537397 0
0.00309208 0.00467711 0
0.0055426 0.00511711 0
0.00726105 0.00625997 0
0.00950038 0.00606495 0
0.000727257 0.0072484 0
0.00319925 0.0065987 0
0.00427968 0.00766977 0
0.00693409 0.00710887 0
0.00824173 0.00753633 0
VERTICES 25 50
1 0
1 1
1 2
1 3
1 4
1 5
1 6
1 7
1 8
1 9
1 10
1 11
1 12
1 13
1 14
1 15
1 16
1 17
1 18
1 19
1 20
1 21
1 22
1 23
1 24
POINT_DATA 25
VECTORS velocity double
-5.96628e-74 -0.00970858 0
-4.30165e-74 -0.00970858 0
3.73428e-75 -0.00970858 0
5.84997e-74 -0.00970858 0
8.75313e-74 -0.00970858 0
3.6563e-74 -0.00970858 0
9.04506e-74 -0.00970858 0
-8.69271e-75 -0.00970858 0
-3.99044e-74 -0.00970858 0
2.46882e-74 -0.00970858 0
-2.46571e-74 -0.00970858 0
8.05864e-74 -0.00970858 0
-4.63424e-74 -0.00970858 0
-8.19637e-74 -0.00970858 0
-3.03202e-74 -0.00970858 0
8.49226e-74 -0.00970858 0
9.74921e-75 -0.00970858 0
5.74513e-74 -0.00970858 0
2.764e-74 -0.00970858 0
5.29811e-74 -0.00970858 0
-2.88784e-74 -0.00970858 0
2.10968e-74 -0.00970858 0
-7.62679e-74 -0.00970858 0
-6.97842e-75 -0.00970858 0
-8.0286e-74 -0.00970858 0
SCALARS radius double 1
LOOKUP_TABLE default
0.000621415
0.000750874
0.000735541
0.000522882
0.000780242
0.00097475
0.000994168
0.000790412
0.000880848
0.000720838
0.000933918
0.000958934
0.000753488
0.00054522
0.000712397
0.000950783
0.000807753
0.000836475
0.000569299
0.000603945
0.000628319
0.000580291
0.000777192
0.000692678
0.00055675
SCALARS mass double 1
LOOKUP_TABLE default
0.00327549
0.00478242
0.00458909
0.0023191
0.00516383
0.00805935
0.00838365
0.00529932
0.00658136
0.00440747
0.00739829
0.00779994
0.00481578
0.00252149
0.00430484
0.0076679
0.0055344
0.00593499
0.00274913
0.00309392
0.00334869
0.00285631
0.00512354
0.00406984
0.00262926
