# vtk DataFile Version 3.0
DEM2D particles
ASCII
DATASET POLYDATA
POINTS 25 double
0.000448878 0.00134081 0
0.00260265 0.00113349 0
0.00503449 0.00190742 0
0.00754038 0.00049062 0
0.00980855 0.000645091 0
0.00133774 0.003501 0
0.00383552 0.00300068 0
0.0049197 0.00212972 0
0.00663139 0.00372995 0
0.00922805 0.00305883 0
0.000772235 0.0052423 0
0.0037444 0.00415916 0
0.00457192 0.0053193 0
0.00624288 0.00553274 0
0.00871992 0.00479852 0
0.00178445 0.00696042 0
0.00309006 0.00627885 0
0.00553069 0.00670919 0
0.00725532 0.00782697 0
0.0094894 0.00763623 0
0.000733243 0.0088376 0
0.00319488 0.00820216 0
0.00429549 0.00924973 0
0.00693554 0.00870113 0
0.00825838 0.00911921 0
VERTICES 25 50
1 0
1 1
1 2
1 3
1 4
1 5
1 6
1 7
1 8
1 9
1 10
1 11
1 12
1 13
1 14
1 15
1 16
1 17
1 18
1 19
1 20
1 21
1 22
1 23
1 24
POINT_DATA 25
VECTORS velocity double
-0.0124918 -0.00114748 0
-0.00900648 -0.00584666 0
0.000781858 0.0116952 0
0.0122482 -0.020418 0
0.0183267 -0.0169168 0
0.00765529 0.00248344 0
0.0189379 -0.00885695 0
-0.00182002 -0.0285982 0
-0.0083549 0.00767275 0
0.00516904 -0.00753902 0
-0.00516254 -0.00338043 0
0.0168726 -0.0279309 0
-0.00970283 -0.00163499 0
-0.017161 0.00320274 0
-0.00634823 -0.0134392 0
0.0177805 -0.00976958 0
0.00204122 -0.0252181 0
0.0120287 -0.015464 0
0.00578706 0.00987169 0
0.0110928 0.00554852 0
-0.00604634 -0.0125534 0
0.0044171 -0.0269564 0
-0.0159684 -0.00321207 0
-0.00146109 -0.0156466 0
-0.0168097 -0.00617042 0
SCALARS radius double 1
LOOKUP_TABLE default
0.000621415
0.000750874
0.000735541
0.000522882
0.000780242
0.00097475
0.000994168
0.000790412
0.000880848
0.000720838
0.000933918
0.000958934
0.000753488
0.00054522
0.000712397
0.000950783
0.000807753
0.000836475
0.000569299
0.000603945
0.000628319
0.000580291
0.000777192
0.000692678
0.00055675
SCALARS mass double 1
LOOKUP_TABLE default
0.00327549
0.00478242
0.00458909
0.0023191
0.00516383
0.00805935
0.00838365
0.00529932
0.00658136
0.00440747
0.00739829
0.00779994
0.00481578
0.00252149
0.00430484
0.0076679
0.0055344
0.00593499
0.00274913
0.00309392
0.00334869
0.00285631
0.00512354
0.00406984
0.00262926
