# vtk DataFile Version 3.0
DEM2D particles
ASCII
DATASET POLYDATA
POINTS 25 double
0.000436511 0.000145424 0
0.00259373 -6.655e-05 0
0.00503527 0.000724741 0
0.0075525 -0.000723847 0
0.00982669 -0.00056591 0
0.00134532 0.00230921 0
0.00385427 0.00179766 0
0.0049179 0.000907156 0
0.00662312 0.00254329 0
0.00923317 0.00185711 0
0.000767124 0.0040447 0
0.0037611 0.00293726 0
0.00456232 0.00412343 0
0.00622589 0.00434166 0
0.00871364 0.00359096 0
0.00180206 0.00575649 0
0.00309208 0.00505963 0
0.0055426 0.00549962 0
0.00726105 0.00664249 0
0.00950038 0.00644747 0
0.000727257 0.00763091 0
0.00319925 0.00698122 0
0.00427968 0.00805229 0
0.00693409 0.00749138 0
0.00824173 0.00791885 0
VERTICES 25 50
1 0
1 1
1 2
1 3
1 4
1 5
1 6
1 7
1 8
1 9
1 10
1 11
1 12
1 13
1 14
1 15
1 16
1 17
1 18
1 19
1 20
1 21
1 22
1 23
1 24
POINT_DATA 25
VECTORS velocity double
-9.39804e-57 -0.00970858 0
-6.77591e-57 -0.00970858 0
5.88221e-58 -0.00970858 0
9.21482e-57 -0.00970858 0
1.37879e-56 -0.00970858 0
5.75937e-57 -0.00970858 0
1.42477e-56 -0.00970858 0
-1.36927e-57 -0.00970858 0
-6.28571e-57 -0.00970858 0
3.88887e-57 -0.00970858 0
-3.88397e-57 -0.00970858 0
1.26939e-56 -0.00970858 0
-7.29981e-57 -0.00970858 0
-1.29109e-56 -0.00970858 0
-4.77601e-57 -0.00970858 0
1.33769e-56 -0.00970858 0
1.53569e-57 -0.00970858 0
9.04967e-57 -0.00970858 0
4.35383e-57 -0.00970858 0
8.34554e-57 -0.00970858 0
-4.54889e-57 -0.00970858 0
3.32315e-57 -0.00970858 0
-1.20137e-56 -0.00970858 0
-1.09924e-57 -0.00970858 0
-1.26466e-56 -0.00970858 0
SCALARS radius double 1
LOOKUP_TABLE default
0.000621415
0.000750874
0.000735541
0.000522882
0.000780242
0.00097475
0.000994168
0.000790412
0.000880848
0.000720838
0.000933918
0.000958934
0.000753488
0.00054522
0.000712397
0.000950783
0.000807753
0.000836475
0.000569299
0.000603945
0.000628319
0.000580291
0.000777192
0.000692678
0.00055675
SCALARS mass double 1
LOOKUP_TABLE default
0.00327549
0.00478242
0.00458909
0.0023191
0.00516383
0.00805935
0.00838365
0.00529932
0.00658136
0.00440747
0.00739829
0.00779994
0.00481578
0.00252149
0.00430484
0.0076679
0.0055344
0.00593499
0.00274913
0.00309392
0.00334869
0.00285631
0.00512354
0.00406984
0.00262926
