# vtk DataFile Version 3.0
DEM2D particles
ASCII
DATASET POLYDATA
POINTS 25 double
0.000436511 -0.000491459 0
0.00259373 -0.000703433 0
0.00503527 8.78575e-05 0
0.0075525 -0.00136073 0
0.00982669 -0.00120279 0
0.00134532 0.00167233 0
0.00385427 0.00116078 0
0.0049179 0.000270273 0
0.00662312 0.00190641 0
0.00923317 0.00122023 0
0.000767124 0.00340782 0
0.0037611 0.00230037 0
0.00456232 0.00348655 0
0.00622589 0.00370477 0
0.00871364 0.00295408 0
0.00180206 0.00511961 0
0.00309208 0.00442275 0
0.0055426 0.00486274 0
0.00726105 0.0060056 0
0.00950038 0.00581059 0
0.000727257 0.00699403 0
0.00319925 0.00634433 0
0.00427968 0.00741541 0
0.00693409 0.0068545 0
0.00824173 0.00728196 0
VERTICES 25 50
1 0
1 1
1 2
1 3
1 4
1 5
1 6
1 7
1 8
1 9
1 10
1 11
1 12
1 13
1 14
1 15
1 16
1 17
1 18
1 19
1 20
1 21
1 22
1 23
1 24
POINT_DATA 25
VECTORS velocity double
-2.18733e-85 -0.00970858 0
-1.57705e-85 -0.00970858 0
1.36904e-86 -0.00970858 0
2.14468e-85 -0.00970858 0
3.20903e-85 -0.00970858 0
1.34045e-85 -0.00970858 0
3.31605e-85 -0.00970858 0
-3.18688e-86 -0.00970858 0
-1.46295e-85 -0.00970858 0
9.05107e-86 -0.00970858 0
-9.03967e-86 -0.00970858 0
2.95442e-85 -0.00970858 0
-1.69898e-85 -0.00970858 0
-3.00491e-85 -0.00970858 0
-1.11158e-85 -0.00970858 0
3.11339e-85 -0.00970858 0
3.5742e-86 -0.00970858 0
2.10625e-85 -0.00970858 0
1.01332e-85 -0.00970858 0
1.94236e-85 -0.00970858 0
-1.05872e-85 -0.00970858 0
7.7344e-86 -0.00970858 0
-2.79609e-85 -0.00970858 0
-2.55839e-86 -0.00970858 0
-2.9434e-85 -0.00970858 0
SCALARS radius double 1
LOOKUP_TABLE default
0.000621415
0.000750874
0.000735541
0.000522882
0.000780242
0.00097475
0.000994168
0.000790412
0.000880848
0.000720838
0.000933918
0.000958934
0.000753488
0.00054522
0.000712397
0.000950783
0.000807753
0.000836475
0.000569299
0.000603945
0.000628319
0.000580291
0.000777192
0.000692678
0.00055675
SCALARS mass double 1
LOOKUP_TABLE default
0.00327549
0.00478242
0.00458909
0.0023191
0.00516383
0.00805935
0.00838365
0.00529932
0.00658136
0.00440747
0.00739829
0.00779994
0.00481578
0.00252149
0.00430484
0.0076679
0.0055344
0.00593499
0.00274913
0.00309392
0.00334869
0.00285631
0.00512354
0.00406984
0.00262926
