# vtk DataFile Version 3.0
DEM2D particles
ASCII
DATASET POLYDATA
POINTS 25 double
0.000436511 -6.81647e-05 0
0.00259373 -0.000280139 0
0.00503527 0.000511152 0
0.0075525 -0.000937435 0
0.00982669 -0.000779498 0
0.00134532 0.00209562 0
0.00385427 0.00158407 0
0.0049179 0.000693567 0
0.00662312 0.00232971 0
0.00923317 0.00164352 0
0.000767124 0.00383111 0
0.0037611 0.00272367 0
0.00456232 0.00390984 0
0.00622589 0.00412807 0
0.00871364 0.00337737 0
0.00180206 0.0055429 0
0.00309208 0.00484604 0
0.0055426 0.00528603 0
0.00726105 0.0064289 0
0.00950038 0.00623388 0
0.000727257 0.00741733 0
0.00319925 0.00676763 0
0.00427968 0.0078387 0
0.00693409 0.0072778 0
0.00824173 0.00770526 0
VERTICES 25 50
1 0
1 1
1 2
1 3
1 4
1 5
1 6
1 7
1 8
1 9
1 10
1 11
1 12
1 13
1 14
1 15
1 16
1 17
1 18
1 19
1 20
1 21
1 22
1 23
1 24
POINT_DATA 25
VECTORS velocity double
-2.34674e-66 -0.00970858 0
-1.69198e-66 -0.00970858 0
1.46882e-67 -0.00970858 0
2.30099e-66 -0.00970858 0
3.4429e-66 -0.00970858 0
1.43815e-66 -0.00970858 0
3.55773e-66 -0.00970858 0
-3.41914e-67 -0.00970858 0
-1.56958e-66 -0.00970858 0
9.71072e-67 -0.00970858 0
-9.69849e-67 -0.00970858 0
3.16974e-66 -0.00970858 0
-1.8228e-66 -0.00970858 0
-3.22391e-66 -0.00970858 0
-1.1926e-66 -0.00970858 0
3.3403e-66 -0.00970858 0
3.83469e-67 -0.00970858 0
2.25975e-66 -0.00970858 0
1.08717e-66 -0.00970858 0
2.08393e-66 -0.00970858 0
-1.13588e-66 -0.00970858 0
8.29809e-67 -0.00970858 0
-2.99988e-66 -0.00970858 0
-2.74485e-67 -0.00970858 0
-3.15792e-66 -0.00970858 0
SCALARS radius double 1
LOOKUP_TABLE default
0.000621415
0.000750874
0.000735541
0.000522882
0.000780242
0.00097475
0.000994168
0.000790412
0.000880848
0.000720838
0.000933918
0.000958934
0.000753488
0.00054522
0.000712397
0.000950783
0.000807753
0.000836475
0.000569299
0.000603945
0.000628319
0.000580291
0.000777192
0.000692678
0.00055675
SCALARS mass double 1
LOOKUP_TABLE default
0.00327549
0.00478242
0.00458909
0.0023191
0.00516383
0.00805935
0.00838365
0.00529932
0.00658136
0.00440747
0.00739829
0.00779994
0.00481578
0.00252149
0.00430484
0.0076679
0.0055344
0.00593499
0.00274913
0.00309392
0.00334869
0.00285631
0.00512354
0.00406984
0.00262926
