# vtk DataFile Version 3.0
DEM2D particles
ASCII
DATASET POLYDATA
POINTS 25 double
0.000436511 -0.000433207 0
0.00259373 -0.000645182 0
0.00503527 0.000146109 0
0.0075525 -0.00130248 0
0.00982669 -0.00114454 0
0.00134532 0.00173058 0
0.00385427 0.00121903 0
0.0049179 0.000328524 0
0.00662312 0.00196466 0
0.00923317 0.00127848 0
0.000767124 0.00346607 0
0.0037611 0.00235863 0
0.00456232 0.0035448 0
0.00622589 0.00376303 0
0.00871364 0.00301233 0
0.00180206 0.00517786 0
0.00309208 0.004481 0
0.0055426 0.00492099 0
0.00726105 0.00606385 0
0.00950038 0.00586884 0
0.000727257 0.00705228 0
0.00319925 0.00640258 0
0.00427968 0.00747366 0
0.00693409 0.00691275 0
0.00824173 0.00734021 0
VERTICES 25 50
1 0
1 1
1 2
1 3
1 4
1 5
1 6
1 7
1 8
1 9
1 10
1 11
1 12
1 13
1 14
1 15
1 16
1 17
1 18
1 19
1 20
1 21
1 22
1 23
1 24
POINT_DATA 25
VECTORS velocity double
-9.09488e-83 -0.00970858 0
-6.55734e-83 -0.00970858 0
5.69247e-84 -0.00970858 0
8.91757e-83 -0.00970858 0
1.33431e-82 -0.00970858 0
5.57358e-83 -0.00970858 0
1.37881e-82 -0.00970858 0
-1.3251e-83 -0.00970858 0
-6.08295e-83 -0.00970858 0
3.76342e-83 -0.00970858 0
-3.75868e-83 -0.00970858 0
1.22844e-82 -0.00970858 0
-7.06433e-83 -0.00970858 0
-1.24944e-82 -0.00970858 0
-4.62195e-83 -0.00970858 0
1.29454e-82 -0.00970858 0
1.48615e-83 -0.00970858 0
8.75775e-83 -0.00970858 0
4.21338e-83 -0.00970858 0
8.07633e-83 -0.00970858 0
-4.40216e-83 -0.00970858 0
3.21595e-83 -0.00970858 0
-1.16261e-82 -0.00970858 0
-1.06378e-83 -0.00970858 0
-1.22386e-82 -0.00970858 0
SCALARS radius double 1
LOOKUP_TABLE default
0.000621415
0.000750874
0.000735541
0.000522882
0.000780242
0.00097475
0.000994168
0.000790412
0.000880848
0.000720838
0.000933918
0.000958934
0.000753488
0.00054522
0.000712397
0.000950783
0.000807753
0.000836475
0.000569299
0.000603945
0.000628319
0.000580291
0.000777192
0.000692678
0.00055675
SCALARS mass double 1
LOOKUP_TABLE default
0.00327549
0.00478242
0.00458909
0.0023191
0.00516383
0.00805935
0.00838365
0.00529932
0.00658136
0.00440747
0.00739829
0.00779994
0.00481578
0.00252149
0.00430484
0.0076679
0.0055344
0.00593499
0.00274913
0.00309392
0.00334869
0.00285631
0.00512354
0.00406984
0.00262926
