# vtk DataFile Version 3.0
DEM2D particles
ASCII
DATASET POLYDATA
POINTS 25 double
0.000436511 -8.56402e-05 0
0.00259373 -0.000297614 0
0.00503527 0.000493676 0
0.0075525 -0.000954911 0
0.00982669 -0.000796974 0
0.00134532 0.00207815 0
0.00385427 0.0015666 0
0.0049179 0.000676092 0
0.00662312 0.00231223 0
0.00923317 0.00162604 0
0.000767124 0.00381363 0
0.0037611 0.00270619 0
0.00456232 0.00389237 0
0.00622589 0.00411059 0
0.00871364 0.0033599 0
0.00180206 0.00552543 0
0.00309208 0.00482857 0
0.0055426 0.00526856 0
0.00726105 0.00641142 0
0.00950038 0.00621641 0
0.000727257 0.00739985 0
0.00319925 0.00675015 0
0.00427968 0.00782123 0
0.00693409 0.00726032 0
0.00824173 0.00768778 0
VERTICES 25 50
1 0
1 1
1 2
1 3
1 4
1 5
1 6
1 7
1 8
1 9
1 10
1 11
1 12
1 13
1 14
1 15
1 16
1 17
1 18
1 19
1 20
1 21
1 22
1 23
1 24
POINT_DATA 25
VECTORS velocity double
-3.84415e-67 -0.00970858 0
-2.7716e-67 -0.00970858 0
2.40605e-68 -0.00970858 0
3.76921e-67 -0.00970858 0
5.63975e-67 -0.00970858 0
2.3558e-67 -0.00970858 0
5.82785e-67 -0.00970858 0
-5.60082e-68 -0.00970858 0
-2.57109e-67 -0.00970858 0
1.59069e-67 -0.00970858 0
-1.58869e-67 -0.00970858 0
5.19228e-67 -0.00970858 0
-2.9859e-67 -0.00970858 0
-5.28102e-67 -0.00970858 0
-1.95357e-67 -0.00970858 0
5.47167e-67 -0.00970858 0
6.28153e-68 -0.00970858 0
3.70165e-67 -0.00970858 0
1.78088e-67 -0.00970858 0
3.41364e-67 -0.00970858 0
-1.86067e-67 -0.00970858 0
1.35929e-67 -0.00970858 0
-4.91404e-67 -0.00970858 0
-4.49628e-68 -0.00970858 0
-5.17292e-67 -0.00970858 0
SCALARS radius double 1
LOOKUP_TABLE default
0.000621415
0.000750874
0.000735541
0.000522882
0.000780242
0.00097475
0.000994168
0.000790412
0.000880848
0.000720838
0.000933918
0.000958934
0.000753488
0.00054522
0.000712397
0.000950783
0.000807753
0.000836475
0.000569299
0.000603945
0.000628319
0.000580291
0.000777192
0.000692678
0.00055675
SCALARS mass double 1
LOOKUP_TABLE default
0.00327549
0.00478242
0.00458909
0.0023191
0.00516383
0.00805935
0.00838365
0.00529932
0.00658136
0.00440747
0.00739829
0.00779994
0.00481578
0.00252149
0.00430484
0.0076679
0.0055344
0.00593499
0.00274913
0.00309392
0.00334869
0.00285631
0.00512354
0.00406984
0.00262926
