# vtk DataFile Version 3.0
DEM2D particles
ASCII
DATASET POLYDATA
POINTS 25 double
0.000436511 0.000537651 0
0.00259373 0.000325677 0
0.00503527 0.00111697 0
0.0075525 -0.00033162 0
0.00982669 -0.000173683 0
0.00134532 0.00270144 0
0.00385427 0.00218989 0
0.0049179 0.00129938 0
0.00662312 0.00293552 0
0.00923317 0.00224934 0
0.000767124 0.00443693 0
0.0037611 0.00332948 0
0.00456232 0.00451566 0
0.00622589 0.00473388 0
0.00871364 0.00398319 0
0.00180206 0.00614872 0
0.00309208 0.00545186 0
0.0055426 0.00589185 0
0.00726105 0.00703471 0
0.00950038 0.0068397 0
0.000727257 0.00802314 0
0.00319925 0.00737344 0
0.00427968 0.00844452 0
0.00693409 0.00788361 0
0.00824173 0.00831107 0
VERTICES 25 50
1 0
1 1
1 2
1 3
1 4
1 5
1 6
1 7
1 8
1 9
1 10
1 11
1 12
1 13
1 14
1 15
1 16
1 17
1 18
1 19
1 20
1 21
1 22
1 23
1 24
POINT_DATA 25
VECTORS velocity double
-4.04437e-39 -0.00970858 0
-2.91596e-39 -0.00970858 0
2.53136e-40 -0.00970858 0
3.96552e-39 -0.00970858 0
5.93349e-39 -0.00970858 0
2.4785e-39 -0.00970858 0
6.13139e-39 -0.00970858 0
-5.89254e-40 -0.00970858 0
-2.705e-39 -0.00970858 0
1.67354e-39 -0.00970858 0
-1.67144e-39 -0.00970858 0
5.46272e-39 -0.00970858 0
-3.14141e-39 -0.00970858 0
-5.55608e-39 -0.00970858 0
-2.05532e-39 -0.00970858 0
5.75666e-39 -0.00970858 0
6.6087e-40 -0.00970858 0
3.89445e-39 -0.00970858 0
1.87363e-39 -0.00970858 0
3.59144e-39 -0.00970858 0
-1.95758e-39 -0.00970858 0
1.43009e-39 -0.00970858 0
-5.16998e-39 -0.00970858 0
-4.73047e-40 -0.00970858 0
-5.44235e-39 -0.00970858 0
SCALARS radius double 1
LOOKUP_TABLE default
0.000621415
0.000750874
0.000735541
0.000522882
0.000780242
0.00097475
0.000994168
0.000790412
0.000880848
0.000720838
0.000933918
0.000958934
0.000753488
0.00054522
0.000712397
0.000950783
0.000807753
0.000836475
0.000569299
0.000603945
0.000628319
0.000580291
0.000777192
0.000692678
0.00055675
SCALARS mass double 1
LOOKUP_TABLE default
0.00327549
0.00478242
0.00458909
0.0023191
0.00516383
0.00805935
0.00838365
0.00529932
0.00658136
0.00440747
0.00739829
0.00779994
0.00481578
0.00252149
0.00430484
0.0076679
0.0055344
0.00593499
0.00274913
0.00309392
0.00334869
0.00285631
0.00512354
0.00406984
0.00262926
