# vtk DataFile Version 3.0
DEM2D particles
ASCII
DATASET POLYDATA
POINTS 25 double
0.000436511 -0.000532235 0
0.00259373 -0.000744209 0
0.00503527 4.70814e-05 0
0.0075525 -0.00140151 0
0.00982669 -0.00124357 0
0.00134532 0.00163155 0
0.00385427 0.00112 0
0.0049179 0.000229497 0
0.00662312 0.00186564 0
0.00923317 0.00117945 0
0.000767124 0.00336704 0
0.0037611 0.0022596 0
0.00456232 0.00344577 0
0.00622589 0.003664 0
0.00871364 0.0029133 0
0.00180206 0.00507883 0
0.00309208 0.00438197 0
0.0055426 0.00482196 0
0.00726105 0.00596483 0
0.00950038 0.00576981 0
0.000727257 0.00695326 0
0.00319925 0.00630356 0
0.00427968 0.00737463 0
0.00693409 0.00681373 0
0.00824173 0.00724119 0
VERTICES 25 50
1 0
1 1
1 2
1 3
1 4
1 5
1 6
1 7
1 8
1 9
1 10
1 11
1 12
1 13
1 14
1 15
1 16
1 17
1 18
1 19
1 20
1 21
1 22
1 23
1 24
POINT_DATA 25
VECTORS velocity double
-3.21141e-87 -0.00970858 0
-2.3154e-87 -0.00970858 0
2.01001e-88 -0.00970858 0
3.1488e-87 -0.00970858 0
4.71145e-87 -0.00970858 0
1.96804e-87 -0.00970858 0
4.86859e-87 -0.00970858 0
-4.67893e-88 -0.00970858 0
-2.14789e-87 -0.00970858 0
1.32887e-87 -0.00970858 0
-1.32719e-87 -0.00970858 0
4.33764e-87 -0.00970858 0
-2.49442e-87 -0.00970858 0
-4.41177e-87 -0.00970858 0
-1.63201e-87 -0.00970858 0
4.57104e-87 -0.00970858 0
5.2476e-88 -0.00970858 0
3.09237e-87 -0.00970858 0
1.48775e-87 -0.00970858 0
2.85176e-87 -0.00970858 0
-1.5544e-87 -0.00970858 0
1.13556e-87 -0.00970858 0
-4.10519e-87 -0.00970858 0
-3.7562e-88 -0.00970858 0
-4.32147e-87 -0.00970858 0
SCALARS radius double 1
LOOKUP_TABLE default
0.000621415
0.000750874
0.000735541
0.000522882
0.000780242
0.00097475
0.000994168
0.000790412
0.000880848
0.000720838
0.000933918
0.000958934
0.000753488
0.00054522
0.000712397
0.000950783
0.000807753
0.000836475
0.000569299
0.000603945
0.000628319
0.000580291
0.000777192
0.000692678
0.00055675
SCALARS mass double 1
LOOKUP_TABLE default
0.00327549
0.00478242
0.00458909
0.0023191
0.00516383
0.00805935
0.00838365
0.00529932
0.00658136
0.00440747
0.00739829
0.00779994
0.00481578
0.00252149
0.00430484
0.0076679
0.0055344
0.00593499
0.00274913
0.00309392
0.00334869
0.00285631
0.00512354
0.00406984
0.00262926
