# vtk DataFile Version 3.0
DEM2D particles
ASCII
DATASET POLYDATA
POINTS 25 double
0.000436547 0.00129295 0
0.00259375 0.00108099 0
0.00503527 0.00187223 0
0.00755247 0.000423739 0
0.00982664 0.000581666 0
0.0013453 0.00345673 0
0.00385421 0.00294521 0
0.00491791 0.00205477 0
0.00662314 0.0036908 0
0.00923315 0.00300466 0
0.000767139 0.00519223 0
0.00376105 0.00408486 0
0.00456235 0.00527096 0
0.00622594 0.00548917 0
0.00871366 0.00473853 0
0.001802 0.00690405 0
0.00309207 0.00620723 0
0.00554257 0.00664719 0
0.00726103 0.00778998 0
0.00950035 0.00759498 0
0.000727274 0.00877848 0
0.00319924 0.00812882 0
0.00427973 0.00919983 0
0.0069341 0.00863896 0
0.00824178 0.00906639 0
VERTICES 25 50
1 0
1 1
1 2
1 3
1 4
1 5
1 6
1 7
1 8
1 9
1 10
1 11
1 12
1 13
1 14
1 15
1 16
1 17
1 18
1 19
1 20
1 21
1 22
1 23
1 24
POINT_DATA 25
VECTORS velocity double
-3.67314e-05 -0.00968341 0
-2.6483e-05 -0.00969723 0
2.29901e-06 -0.00964565 0
3.60153e-05 -0.00974007 0
5.38886e-05 -0.00972978 0
2.251e-05 -0.00967273 0
5.56858e-05 -0.00970608 0
-5.35166e-06 -0.00976413 0
-2.45671e-05 -0.00965747 0
1.51993e-05 -0.0097022 0
-1.51801e-05 -0.00968998 0
4.96129e-05 -0.00976217 0
-2.85306e-05 -0.00968484 0
-5.04609e-05 -0.00967062 0
-1.86666e-05 -0.00971955 0
5.22825e-05 -0.00970876 0
6.00209e-06 -0.00975419 0
3.53698e-05 -0.00972551 0
1.70165e-05 -0.00965101 0
3.26178e-05 -0.00966372 0
-1.77789e-05 -0.00971695 0
1.29882e-05 -0.0097593 0
-4.69543e-05 -0.00968948 0
-4.29626e-06 -0.00972604 0
-4.9428e-05 -0.00969818 0
SCALARS radius double 1
LOOKUP_TABLE default
0.000621415
0.000750874
0.000735541
0.000522882
0.000780242
0.00097475
0.000994168
0.000790412
0.000880848
0.000720838
0.000933918
0.000958934
0.000753488
0.00054522
0.000712397
0.000950783
0.000807753
0.000836475
0.000569299
0.000603945
0.000628319
0.000580291
0.000777192
0.000692678
0.00055675
SCALARS mass double 1
LOOKUP_TABLE default
0.00327549
0.00478242
0.00458909
0.0023191
0.00516383
0.00805935
0.00838365
0.00529932
0.00658136
0.00440747
0.00739829
0.00779994
0.00481578
0.00252149
0.00430484
0.0076679
0.0055344
0.00593499
0.00274913
0.00309392
0.00334869
0.00285631
0.00512354
0.00406984
0.00262926
