# vtk DataFile Version 3.0
DEM2D particles
ASCII
DATASET POLYDATA
POINTS 25 double
0.000436565 0.00129682 0
0.00259377 0.00108487 0
0.00503527 0.00187609 0
0.00755245 0.000427638 0
0.00982661 0.00058556 0
0.00134529 0.0034606 0
0.00385418 0.00294909 0
0.00491791 0.00205868 0
0.00662316 0.00369466 0
0.00923315 0.00300854 0
0.000767147 0.00519611 0
0.00376103 0.00408877 0
0.00456236 0.00527484 0
0.00622596 0.00549304 0
0.00871367 0.00474242 0
0.00180198 0.00690793 0
0.00309207 0.00621114 0
0.00554255 0.00665109 0
0.00726102 0.00779384 0
0.00950033 0.00759884 0
0.000727283 0.00878237 0
0.00319923 0.00813273 0
0.00427975 0.0092037 0
0.0069341 0.00864285 0
0.00824181 0.00907027 0
VERTICES 25 50
1 0
1 1
1 2
1 3
1 4
1 5
1 6
1 7
1 8
1 9
1 10
1 11
1 12
1 13
1 14
1 15
1 16
1 17
1 18
1 19
1 20
1 21
1 22
1 23
1 24
POINT_DATA 25
VECTORS velocity double
-5.49072e-05 -0.00967095 0
-3.95877e-05 -0.00969161 0
3.43663e-06 -0.0096145 0
5.38368e-05 -0.00975566 0
8.05543e-05 -0.00974027 0
3.36486e-05 -0.00965499 0
8.32409e-05 -0.00970484 0
-7.99983e-06 -0.00979161 0
-3.67237e-05 -0.00963218 0
2.27204e-05 -0.00969905 0
-2.26918e-05 -0.00968077 0
7.4163e-05 -0.00978868 0
-4.26485e-05 -0.0096731 0
-7.54305e-05 -0.00965183 0
-2.79034e-05 -0.00972498 0
7.81536e-05 -0.00970885 0
8.97211e-06 -0.00977675 0
5.28719e-05 -0.00973388 0
2.54368e-05 -0.00962252 0
4.87581e-05 -0.00964152 0
-2.65765e-05 -0.00972109 0
1.94152e-05 -0.0097844 0
-7.01887e-05 -0.00968003 0
-6.42218e-06 -0.00973468 0
-7.38865e-05 -0.00969303 0
SCALARS radius double 1
LOOKUP_TABLE default
0.000621415
0.000750874
0.000735541
0.000522882
0.000780242
0.00097475
0.000994168
0.000790412
0.000880848
0.000720838
0.000933918
0.000958934
0.000753488
0.00054522
0.000712397
0.000950783
0.000807753
0.000836475
0.000569299
0.000603945
0.000628319
0.000580291
0.000777192
0.000692678
0.00055675
SCALARS mass double 1
LOOKUP_TABLE default
0.00327549
0.00478242
0.00458909
0.0023191
0.00516383
0.00805935
0.00838365
0.00529932
0.00658136
0.00440747
0.00739829
0.00779994
0.00481578
0.00252149
0.00430484
0.0076679
0.0055344
0.00593499
0.00274913
0.00309392
0.00334869
0.00285631
0.00512354
0.00406984
0.00262926
