# vtk DataFile Version 3.0
DEM2D particles
ASCII
DATASET POLYDATA
POINTS 25 double
0.000436511 -0.000483692 0
0.00259373 -0.000695666 0
0.00503527 9.56243e-05 0
0.0075525 -0.00135296 0
0.00982669 -0.00119503 0
0.00134532 0.00168009 0
0.00385427 0.00116854 0
0.0049179 0.00027804 0
0.00662312 0.00191418 0
0.00923317 0.00122799 0
0.000767124 0.00341558 0
0.0037611 0.00230814 0
0.00456232 0.00349432 0
0.00622589 0.00371254 0
0.00871364 0.00296184 0
0.00180206 0.00512738 0
0.00309208 0.00443051 0
0.0055426 0.00487051 0
0.00726105 0.00601337 0
0.00950038 0.00581836 0
0.000727257 0.0070018 0
0.00319925 0.0063521 0
0.00427968 0.00742318 0
0.00693409 0.00686227 0
0.00824173 0.00728973 0
VERTICES 25 50
1 0
1 1
1 2
1 3
1 4
1 5
1 6
1 7
1 8
1 9
1 10
1 11
1 12
1 13
1 14
1 15
1 16
1 17
1 18
1 19
1 20
1 21
1 22
1 23
1 24
POINT_DATA 25
VECTORS velocity double
-4.88763e-85 -0.00970858 0
-3.52394e-85 -0.00970858 0
3.05916e-86 -0.00970858 0
4.79234e-85 -0.00970858 0
7.17064e-85 -0.00970858 0
2.99527e-85 -0.00970858 0
7.40979e-85 -0.00970858 0
-7.12114e-86 -0.00970858 0
-3.269e-85 -0.00970858 0
2.02248e-85 -0.00970858 0
-2.01993e-85 -0.00970858 0
6.6017e-85 -0.00970858 0
-3.7964e-85 -0.00970858 0
-6.71453e-85 -0.00970858 0
-2.48386e-85 -0.00970858 0
6.95693e-85 -0.00970858 0
7.98663e-86 -0.00970858 0
4.70645e-85 -0.00970858 0
2.26429e-85 -0.00970858 0
4.34026e-85 -0.00970858 0
-2.36574e-85 -0.00970858 0
1.72827e-85 -0.00970858 0
-6.24793e-85 -0.00970858 0
-5.71678e-86 -0.00970858 0
-6.57709e-85 -0.00970858 0
SCALARS radius double 1
LOOKUP_TABLE default
0.000621415
0.000750874
0.000735541
0.000522882
0.000780242
0.00097475
0.000994168
0.000790412
0.000880848
0.000720838
0.000933918
0.000958934
0.000753488
0.00054522
0.000712397
0.000950783
0.000807753
0.000836475
0.000569299
0.000603945
0.000628319
0.000580291
0.000777192
0.000692678
0.00055675
SCALARS mass double 1
LOOKUP_TABLE default
0.00327549
0.00478242
0.00458909
0.0023191
0.00516383
0.00805935
0.00838365
0.00529932
0.00658136
0.00440747
0.00739829
0.00779994
0.00481578
0.00252149
0.00430484
0.0076679
0.0055344
0.00593499
0.00274913
0.00309392
0.00334869
0.00285631
0.00512354
0.00406984
0.00262926
