# vtk DataFile Version 3.0
DEM2D particles
ASCII
DATASET POLYDATA
POINTS 25 double
0.000436511 0.00111822 0
0.00259373 0.00090625 0
0.00503527 0.00169754 0
0.0075525 0.000248954 0
0.00982669 0.000406891 0
0.00134532 0.00328201 0
0.00385427 0.00277046 0
0.0049179 0.00187996 0
0.00662312 0.00351609 0
0.00923317 0.00282991 0
0.000767124 0.0050175 0
0.0037611 0.00391006 0
0.00456232 0.00509623 0
0.00622589 0.00531446 0
0.00871364 0.00456376 0
0.00180206 0.00672929 0
0.00309208 0.00603243 0
0.0055426 0.00647242 0
0.00726105 0.00761529 0
0.00950038 0.00742027 0
0.000727257 0.00860372 0
0.00319925 0.00795402 0
0.00427968 0.00902509 0
0.00693409 0.00846418 0
0.00824173 0.00889165 0
VERTICES 25 50
1 0
1 1
1 2
1 3
1 4
1 5
1 6
1 7
1 8
1 9
1 10
1 11
1 12
1 13
1 14
1 15
1 16
1 17
1 18
1 19
1 20
1 21
1 22
1 23
1 24
POINT_DATA 25
VECTORS velocity double
-5.1096e-13 -0.00970858 0
-3.68399e-13 -0.00970858 0
3.19809e-14 -0.00970858 0
5.00999e-13 -0.00970858 0
7.4963e-13 -0.00970858 0
3.1313e-13 -0.00970858 0
7.74631e-13 -0.00970858 0
-7.44456e-14 -0.00970858 0
-3.41747e-13 -0.00970858 0
2.11433e-13 -0.00970858 0
-2.11167e-13 -0.00970858 0
6.90153e-13 -0.00970858 0
-3.96882e-13 -0.00970858 0
-7.01948e-13 -0.00970858 0
-2.59666e-13 -0.00970858 0
7.27289e-13 -0.00970858 0
8.34935e-14 -0.00970858 0
4.9202e-13 -0.00970858 0
2.36712e-13 -0.00970858 0
4.53737e-13 -0.00970858 0
-2.47318e-13 -0.00970858 0
1.80676e-13 -0.00970858 0
-6.53169e-13 -0.00970858 0
-5.97641e-14 -0.00970858 0
-6.8758e-13 -0.00970858 0
SCALARS radius double 1
LOOKUP_TABLE default
0.000621415
0.000750874
0.000735541
0.000522882
0.000780242
0.00097475
0.000994168
0.000790412
0.000880848
0.000720838
0.000933918
0.000958934
0.000753488
0.00054522
0.000712397
0.000950783
0.000807753
0.000836475
0.000569299
0.000603945
0.000628319
0.000580291
0.000777192
0.000692678
0.00055675
SCALARS mass double 1
LOOKUP_TABLE default
0.00327549
0.00478242
0.00458909
0.0023191
0.00516383
0.00805935
0.00838365
0.00529932
0.00658136
0.00440747
0.00739829
0.00779994
0.00481578
0.00252149
0.00430484
0.0076679
0.0055344
0.00593499
0.00274913
0.00309392
0.00334869
0.00285631
0.00512354
0.00406984
0.00262926
