# vtk DataFile Version 3.0
DEM2D particles
ASCII
DATASET POLYDATA
POINTS 25 double
0.000436511 -1.96218e-05 0
0.00259373 -0.000231596 0
0.00503527 0.000559695 0
0.0075525 -0.000888892 0
0.00982669 -0.000730955 0
0.00134532 0.00214416 0
0.00385427 0.00163261 0
0.0049179 0.00074211 0
0.00662312 0.00237825 0
0.00923317 0.00169206 0
0.000767124 0.00387965 0
0.0037611 0.00277221 0
0.00456232 0.00395839 0
0.00622589 0.00417661 0
0.00871364 0.00342592 0
0.00180206 0.00559145 0
0.00309208 0.00489458 0
0.0055426 0.00533458 0
0.00726105 0.00647744 0
0.00950038 0.00628243 0
0.000727257 0.00746587 0
0.00319925 0.00681617 0
0.00427968 0.00788725 0
0.00693409 0.00732634 0
0.00824173 0.0077538 0
VERTICES 25 50
1 0
1 1
1 2
1 3
1 4
1 5
1 6
1 7
1 8
1 9
1 10
1 11
1 12
1 13
1 14
1 15
1 16
1 17
1 18
1 19
1 20
1 21
1 22
1 23
1 24
POINT_DATA 25
VECTORS velocity double
-3.57164e-64 -0.00970858 0
-2.57513e-64 -0.00970858 0
2.23548e-65 -0.00970858 0
3.50201e-64 -0.00970858 0
5.23996e-64 -0.00970858 0
2.1888e-64 -0.00970858 0
5.41472e-64 -0.00970858 0
-5.20379e-65 -0.00970858 0
-2.38883e-64 -0.00970858 0
1.47793e-64 -0.00970858 0
-1.47607e-64 -0.00970858 0
4.82421e-64 -0.00970858 0
-2.77423e-64 -0.00970858 0
-4.90666e-64 -0.00970858 0
-1.81508e-64 -0.00970858 0
5.08379e-64 -0.00970858 0
5.83624e-65 -0.00970858 0
3.43925e-64 -0.00970858 0
1.65463e-64 -0.00970858 0
3.17165e-64 -0.00970858 0
-1.72877e-64 -0.00970858 0
1.26293e-64 -0.00970858 0
-4.56569e-64 -0.00970858 0
-4.17755e-65 -0.00970858 0
-4.80622e-64 -0.00970858 0
SCALARS radius double 1
LOOKUP_TABLE default
0.000621415
0.000750874
0.000735541
0.000522882
0.000780242
0.00097475
0.000994168
0.000790412
0.000880848
0.000720838
0.000933918
0.000958934
0.000753488
0.00054522
0.000712397
0.000950783
0.000807753
0.000836475
0.000569299
0.000603945
0.000628319
0.000580291
0.000777192
0.000692678
0.00055675
SCALARS mass double 1
LOOKUP_TABLE default
0.00327549
0.00478242
0.00458909
0.0023191
0.00516383
0.00805935
0.00838365
0.00529932
0.00658136
0.00440747
0.00739829
0.00779994
0.00481578
0.00252149
0.00430484
0.0076679
0.0055344
0.00593499
0.00274913
0.00309392
0.00334869
0.00285631
0.00512354
0.00406984
0.00262926
