# vtk DataFile Version 3.0
DEM2D particles
ASCII
DATASET POLYDATA
POINTS 25 double
0.000436511 0.000417264 0
0.00259373 0.00020529 0
0.00503527 0.000996581 0
0.0075525 -0.000452006 0
0.00982669 -0.000294069 0
0.00134532 0.00258105 0
0.00385427 0.0020695 0
0.0049179 0.001179 0
0.00662312 0.00281513 0
0.00923317 0.00212895 0
0.000767124 0.00431654 0
0.0037611 0.0032091 0
0.00456232 0.00439527 0
0.00622589 0.0046135 0
0.00871364 0.0038628 0
0.00180206 0.00602833 0
0.00309208 0.00533147 0
0.0055426 0.00577146 0
0.00726105 0.00691433 0
0.00950038 0.00671931 0
0.000727257 0.00790276 0
0.00319925 0.00725306 0
0.00427968 0.00832413 0
0.00693409 0.00776322 0
0.00824173 0.00819069 0
VERTICES 25 50
1 0
1 1
1 2
1 3
1 4
1 5
1 6
1 7
1 8
1 9
1 10
1 11
1 12
1 13
1 14
1 15
1 16
1 17
1 18
1 19
1 20
1 21
1 22
1 23
1 24
POINT_DATA 25
VECTORS velocity double
-1.56492e-44 -0.00970858 0
-1.1283e-44 -0.00970858 0
9.79481e-46 -0.00970858 0
1.53441e-44 -0.00970858 0
2.29589e-44 -0.00970858 0
9.59025e-45 -0.00970858 0
2.37247e-44 -0.00970858 0
-2.28005e-45 -0.00970858 0
-1.04667e-44 -0.00970858 0
6.47558e-45 -0.00970858 0
-6.46742e-45 -0.00970858 0
2.11373e-44 -0.00970858 0
-1.21553e-44 -0.00970858 0
-2.14986e-44 -0.00970858 0
-7.95281e-45 -0.00970858 0
2.22747e-44 -0.00970858 0
2.55716e-45 -0.00970858 0
1.50691e-44 -0.00970858 0
7.2498e-45 -0.00970858 0
1.38966e-44 -0.00970858 0
-7.57462e-45 -0.00970858 0
5.53357e-45 -0.00970858 0
-2.00046e-44 -0.00970858 0
-1.8304e-45 -0.00970858 0
-2.10585e-44 -0.00970858 0
SCALARS radius double 1
LOOKUP_TABLE default
0.000621415
0.000750874
0.000735541
0.000522882
0.000780242
0.00097475
0.000994168
0.000790412
0.000880848
0.000720838
0.000933918
0.000958934
0.000753488
0.00054522
0.000712397
0.000950783
0.000807753
0.000836475
0.000569299
0.000603945
0.000628319
0.000580291
0.000777192
0.000692678
0.00055675
SCALARS mass double 1
LOOKUP_TABLE default
0.00327549
0.00478242
0.00458909
0.0023191
0.00516383
0.00805935
0.00838365
0.00529932
0.00658136
0.00440747
0.00739829
0.00779994
0.00481578
0.00252149
0.00430484
0.0076679
0.0055344
0.00593499
0.00274913
0.00309392
0.00334869
0.00285631
0.00512354
0.00406984
0.00262926
