# vtk DataFile Version 3.0
DEM2D particles
ASCII
DATASET POLYDATA
POINTS 25 double
0.000436511 -0.000487576 0
0.00259373 -0.00069955 0
0.00503527 9.17409e-05 0
0.0075525 -0.00135685 0
0.00982669 -0.00119891 0
0.00134532 0.00167621 0
0.00385427 0.00116466 0
0.0049179 0.000274156 0
0.00662312 0.00191029 0
0.00923317 0.00122411 0
0.000767124 0.0034117 0
0.0037611 0.00230426 0
0.00456232 0.00349043 0
0.00622589 0.00370866 0
0.00871364 0.00295796 0
0.00180206 0.00512349 0
0.00309208 0.00442663 0
0.0055426 0.00486662 0
0.00726105 0.00600949 0
0.00950038 0.00581447 0
0.000727257 0.00699792 0
0.00319925 0.00634822 0
0.00427968 0.00741929 0
0.00693409 0.00685838 0
0.00824173 0.00728585 0
VERTICES 25 50
1 0
1 1
1 2
1 3
1 4
1 5
1 6
1 7
1 8
1 9
1 10
1 11
1 12
1 13
1 14
1 15
1 16
1 17
1 18
1 19
1 20
1 21
1 22
1 23
1 24
POINT_DATA 25
VECTORS velocity double
-3.26969e-85 -0.00970858 0
-2.35742e-85 -0.00970858 0
2.04649e-86 -0.00970858 0
3.20594e-85 -0.00970858 0
4.79695e-85 -0.00970858 0
2.00375e-85 -0.00970858 0
4.95694e-85 -0.00970858 0
-4.76384e-86 -0.00970858 0
-2.18687e-85 -0.00970858 0
1.35298e-85 -0.00970858 0
-1.35128e-85 -0.00970858 0
4.41635e-85 -0.00970858 0
-2.53969e-85 -0.00970858 0
-4.49183e-85 -0.00970858 0
-1.66163e-85 -0.00970858 0
4.65399e-85 -0.00970858 0
5.34283e-86 -0.00970858 0
3.14848e-85 -0.00970858 0
1.51475e-85 -0.00970858 0
2.90351e-85 -0.00970858 0
-1.58261e-85 -0.00970858 0
1.15616e-85 -0.00970858 0
-4.17969e-85 -0.00970858 0
-3.82437e-86 -0.00970858 0
-4.39989e-85 -0.00970858 0
SCALARS radius double 1
LOOKUP_TABLE default
0.000621415
0.000750874
0.000735541
0.000522882
0.000780242
0.00097475
0.000994168
0.000790412
0.000880848
0.000720838
0.000933918
0.000958934
0.000753488
0.00054522
0.000712397
0.000950783
0.000807753
0.000836475
0.000569299
0.000603945
0.000628319
0.000580291
0.000777192
0.000692678
0.00055675
SCALARS mass double 1
LOOKUP_TABLE default
0.00327549
0.00478242
0.00458909
0.0023191
0.00516383
0.00805935
0.00838365
0.00529932
0.00658136
0.00440747
0.00739829
0.00779994
0.00481578
0.00252149
0.00430484
0.0076679
0.0055344
0.00593499
0.00274913
0.00309392
0.00334869
0.00285631
0.00512354
0.00406984
0.00262926
