# vtk DataFile Version 3.0
DEM2D particles
ASCII
DATASET POLYDATA
POINTS 25 double
0.000436511 -0.000231269 0
0.00259373 -0.000443243 0
0.00503527 0.000348048 0
0.0075525 -0.00110054 0
0.00982669 -0.000942603 0
0.00134532 0.00193252 0
0.00385427 0.00142097 0
0.0049179 0.000530463 0
0.00662312 0.0021666 0
0.00923317 0.00148042 0
0.000767124 0.00366801 0
0.0037611 0.00256056 0
0.00456232 0.00374674 0
0.00622589 0.00396496 0
0.00871364 0.00321427 0
0.00180206 0.0053798 0
0.00309208 0.00468294 0
0.0055426 0.00512293 0
0.00726105 0.00626579 0
0.00950038 0.00607078 0
0.000727257 0.00725422 0
0.00319925 0.00660452 0
0.00427968 0.0076756 0
0.00693409 0.00711469 0
0.00824173 0.00754215 0
VERTICES 25 50
1 0
1 1
1 2
1 3
1 4
1 5
1 6
1 7
1 8
1 9
1 10
1 11
1 12
1 13
1 14
1 15
1 16
1 17
1 18
1 19
1 20
1 21
1 22
1 23
1 24
POINT_DATA 25
VECTORS velocity double
-1.09042e-73 -0.00970858 0
-7.86182e-74 -0.00970858 0
6.82489e-75 -0.00970858 0
1.06916e-73 -0.00970858 0
1.59975e-73 -0.00970858 0
6.68236e-74 -0.00970858 0
1.6531e-73 -0.00970858 0
-1.58871e-74 -0.00970858 0
-7.29305e-74 -0.00970858 0
4.5121e-74 -0.00970858 0
-4.50641e-74 -0.00970858 0
1.47282e-73 -0.00970858 0
-8.46967e-74 -0.00970858 0
-1.49799e-73 -0.00970858 0
-5.54141e-74 -0.00970858 0
1.55207e-73 -0.00970858 0
1.78179e-74 -0.00970858 0
1.05e-73 -0.00970858 0
5.05157e-74 -0.00970858 0
9.68299e-74 -0.00970858 0
-5.27789e-74 -0.00970858 0
3.85572e-74 -0.00970858 0
-1.3939e-73 -0.00970858 0
-1.2754e-74 -0.00970858 0
-1.46733e-73 -0.00970858 0
SCALARS radius double 1
LOOKUP_TABLE default
0.000621415
0.000750874
0.000735541
0.000522882
0.000780242
0.00097475
0.000994168
0.000790412
0.000880848
0.000720838
0.000933918
0.000958934
0.000753488
0.00054522
0.000712397
0.000950783
0.000807753
0.000836475
0.000569299
0.000603945
0.000628319
0.000580291
0.000777192
0.000692678
0.00055675
SCALARS mass double 1
LOOKUP_TABLE default
0.00327549
0.00478242
0.00458909
0.0023191
0.00516383
0.00805935
0.00838365
0.00529932
0.00658136
0.00440747
0.00739829
0.00779994
0.00481578
0.00252149
0.00430484
0.0076679
0.0055344
0.00593499
0.00274913
0.00309392
0.00334869
0.00285631
0.00512354
0.00406984
0.00262926
