# vtk DataFile Version 3.0
DEM2D particles
ASCII
DATASET POLYDATA
POINTS 25 double
0.000436511 -0.000285637 0
0.00259373 -0.000497611 0
0.00503527 0.000293679 0
0.0075525 -0.00115491 0
0.00982669 -0.000996971 0
0.00134532 0.00187815 0
0.00385427 0.0013666 0
0.0049179 0.000476095 0
0.00662312 0.00211223 0
0.00923317 0.00142605 0
0.000767124 0.00361364 0
0.0037611 0.0025062 0
0.00456232 0.00369237 0
0.00622589 0.0039106 0
0.00871364 0.0031599 0
0.00180206 0.00532543 0
0.00309208 0.00462857 0
0.0055426 0.00506856 0
0.00726105 0.00621142 0
0.00950038 0.00601641 0
0.000727257 0.00719985 0
0.00319925 0.00655016 0
0.00427968 0.00762123 0
0.00693409 0.00706032 0
0.00824173 0.00748778 0
VERTICES 25 50
1 0
1 1
1 2
1 3
1 4
1 5
1 6
1 7
1 8
1 9
1 10
1 11
1 12
1 13
1 14
1 15
1 16
1 17
1 18
1 19
1 20
1 21
1 22
1 23
1 24
POINT_DATA 25
VECTORS velocity double
-3.92014e-76 -0.00970858 0
-2.82639e-76 -0.00970858 0
2.45361e-77 -0.00970858 0
3.84371e-76 -0.00970858 0
5.75123e-76 -0.00970858 0
2.40236e-76 -0.00970858 0
5.94304e-76 -0.00970858 0
-5.71153e-77 -0.00970858 0
-2.62191e-76 -0.00970858 0
1.62214e-76 -0.00970858 0
-1.62009e-76 -0.00970858 0
5.29491e-76 -0.00970858 0
-3.04492e-76 -0.00970858 0
-5.38541e-76 -0.00970858 0
-1.99218e-76 -0.00970858 0
5.57983e-76 -0.00970858 0
6.4057e-77 -0.00970858 0
3.77482e-76 -0.00970858 0
1.81608e-76 -0.00970858 0
3.48111e-76 -0.00970858 0
-1.89745e-76 -0.00970858 0
1.38616e-76 -0.00970858 0
-5.01117e-76 -0.00970858 0
-4.58516e-77 -0.00970858 0
-5.27517e-76 -0.00970858 0
SCALARS radius double 1
LOOKUP_TABLE default
0.000621415
0.000750874
0.000735541
0.000522882
0.000780242
0.00097475
0.000994168
0.000790412
0.000880848
0.000720838
0.000933918
0.000958934
0.000753488
0.00054522
0.000712397
0.000950783
0.000807753
0.000836475
0.000569299
0.000603945
0.000628319
0.000580291
0.000777192
0.000692678
0.00055675
SCALARS mass double 1
LOOKUP_TABLE default
0.00327549
0.00478242
0.00458909
0.0023191
0.00516383
0.00805935
0.00838365
0.00529932
0.00658136
0.00440747
0.00739829
0.00779994
0.00481578
0.00252149
0.00430484
0.0076679
0.0055344
0.00593499
0.00274913
0.00309392
0.00334869
0.00285631
0.00512354
0.00406984
0.00262926
