# vtk DataFile Version 3.0
DEM2D particles
ASCII
DATASET POLYDATA
POINTS 25 double
0.000436511 0.000469691 0
0.00259373 0.000257717 0
0.00503527 0.00104901 0
0.0075525 -0.00039958 0
0.00982669 -0.000241643 0
0.00134532 0.00263348 0
0.00385427 0.00212193 0
0.0049179 0.00123142 0
0.00662312 0.00286756 0
0.00923317 0.00218138 0
0.000767124 0.00436897 0
0.0037611 0.00326152 0
0.00456232 0.0044477 0
0.00622589 0.00466592 0
0.00871364 0.00391523 0
0.00180206 0.00608076 0
0.00309208 0.0053839 0
0.0055426 0.00582389 0
0.00726105 0.00696675 0
0.00950038 0.00677174 0
0.000727257 0.00795518 0
0.00319925 0.00730548 0
0.00427968 0.00837656 0
0.00693409 0.00781565 0
0.00824173 0.00824311 0
VERTICES 25 50
1 0
1 1
1 2
1 3
1 4
1 5
1 6
1 7
1 8
1 9
1 10
1 11
1 12
1 13
1 14
1 15
1 16
1 17
1 18
1 19
1 20
1 21
1 22
1 23
1 24
POINT_DATA 25
VECTORS velocity double
-3.56031e-42 -0.00970858 0
-2.56695e-42 -0.00970858 0
2.22839e-43 -0.00970858 0
3.4909e-42 -0.00970858 0
5.22332e-42 -0.00970858 0
2.18185e-42 -0.00970858 0
5.39753e-42 -0.00970858 0
-5.18727e-43 -0.00970858 0
-2.38125e-42 -0.00970858 0
1.47324e-42 -0.00970858 0
-1.47138e-42 -0.00970858 0
4.80889e-42 -0.00970858 0
-2.76542e-42 -0.00970858 0
-4.89108e-42 -0.00970858 0
-1.80932e-42 -0.00970858 0
5.06765e-42 -0.00970858 0
5.81772e-43 -0.00970858 0
3.42833e-42 -0.00970858 0
1.64938e-42 -0.00970858 0
3.16158e-42 -0.00970858 0
-1.72328e-42 -0.00970858 0
1.25893e-42 -0.00970858 0
-4.55119e-42 -0.00970858 0
-4.16429e-43 -0.00970858 0
-4.79096e-42 -0.00970858 0
SCALARS radius double 1
LOOKUP_TABLE default
0.000621415
0.000750874
0.000735541
0.000522882
0.000780242
0.00097475
0.000994168
0.000790412
0.000880848
0.000720838
0.000933918
0.000958934
0.000753488
0.00054522
0.000712397
0.000950783
0.000807753
0.000836475
0.000569299
0.000603945
0.000628319
0.000580291
0.000777192
0.000692678
0.00055675
SCALARS mass double 1
LOOKUP_TABLE default
0.00327549
0.00478242
0.00458909
0.0023191
0.00516383
0.00805935
0.00838365
0.00529932
0.00658136
0.00440747
0.00739829
0.00779994
0.00481578
0.00252149
0.00430484
0.0076679
0.0055344
0.00593499
0.00274913
0.00309392
0.00334869
0.00285631
0.00512354
0.00406984
0.00262926
