# vtk DataFile Version 3.0
DEM2D particles
ASCII
DATASET POLYDATA
POINTS 25 double
0.000437619 0.00132523 0
0.00259453 0.00111367 0
0.0050352 0.00190341 0
0.00755142 0.000457667 0
0.00982507 0.000615294 0
0.00134464 0.00348869 0
0.00385259 0.00297815 0
0.00491806 0.0020894 0
0.00662386 0.00372232 0
0.00923271 0.00303748 0
0.000767582 0.0052247 0
0.00375961 0.00411944 0
0.00456318 0.00530328 0
0.00622741 0.00552108 0
0.0087142 0.00477186 0
0.00180048 0.00693706 0
0.0030919 0.00624157 0
0.00554153 0.0066807 0
0.00726053 0.00782131 0
0.0094994 0.00762668 0
0.000727793 0.00881173 0
0.00319886 0.00816331 0
0.0042811 0.00923228 0
0.00693422 0.00867247 0
0.00824323 0.0090991 0
VERTICES 25 50
1 0
1 1
1 2
1 3
1 4
1 5
1 6
1 7
1 8
1 9
1 10
1 11
1 12
1 13
1 14
1 15
1 16
1 17
1 18
1 19
1 20
1 21
1 22
1 23
1 24
POINT_DATA 25
VECTORS velocity double
-0.00111962 -0.00894126 0
-0.000807238 -0.00936244 0
7.00768e-05 -0.00779019 0
0.00109779 -0.0106685 0
0.00164259 -0.0103546 0
0.000686133 -0.00861583 0
0.00169738 -0.00963225 0
-0.000163126 -0.0114016 0
-0.000748838 -0.00815072 0
0.000463294 -0.00951413 0
-0.000462711 -0.0091414 0
0.00151227 -0.0113418 0
-0.000869651 -0.00898496 0
-0.00153811 -0.00855136 0
-0.000568983 -0.010043 0
0.00159364 -0.00971405 0
0.000182952 -0.0110987 0
0.00107812 -0.0102244 0
0.000518686 -0.00795363 0
0.000994233 -0.00834111 0
-0.000541925 -0.00996356 0
0.000395898 -0.0112545 0
-0.00143123 -0.00912631 0
-0.000130956 -0.0102408 0
-0.00150663 -0.00939146 0
SCALARS radius double 1
LOOKUP_TABLE default
0.000621415
0.000750874
0.000735541
0.000522882
0.000780242
0.00097475
0.000994168
0.000790412
0.000880848
0.000720838
0.000933918
0.000958934
0.000753488
0.00054522
0.000712397
0.000950783
0.000807753
0.000836475
0.000569299
0.000603945
0.000628319
0.000580291
0.000777192
0.000692678
0.00055675
SCALARS mass double 1
LOOKUP_TABLE default
0.00327549
0.00478242
0.00458909
0.0023191
0.00516383
0.00805935
0.00838365
0.00529932
0.00658136
0.00440747
0.00739829
0.00779994
0.00481578
0.00252149
0.00430484
0.0076679
0.0055344
0.00593499
0.00274913
0.00309392
0.00334869
0.00285631
0.00512354
0.00406984
0.00262926
