# vtk DataFile Version 3.0
DEM2D particles
ASCII
DATASET POLYDATA
POINTS 25 double
0.000436511 0.000116298 0
0.00259373 -9.56758e-05 0
0.00503527 0.000695615 0
0.0075525 -0.000752972 0
0.00982669 -0.000595035 0
0.00134532 0.00228008 0
0.00385427 0.00176853 0
0.0049179 0.00087803 0
0.00662312 0.00251417 0
0.00923317 0.00182798 0
0.000767124 0.00401557 0
0.0037611 0.00290813 0
0.00456232 0.00409431 0
0.00622589 0.00431253 0
0.00871364 0.00356184 0
0.00180206 0.00572737 0
0.00309208 0.0050305 0
0.0055426 0.0054705 0
0.00726105 0.00661336 0
0.00950038 0.00641835 0
0.000727257 0.00760179 0
0.00319925 0.00695209 0
0.00427968 0.00802317 0
0.00693409 0.00746226 0
0.00824173 0.00788972 0
VERTICES 25 50
1 0
1 1
1 2
1 3
1 4
1 5
1 6
1 7
1 8
1 9
1 10
1 11
1 12
1 13
1 14
1 15
1 16
1 17
1 18
1 19
1 20
1 21
1 22
1 23
1 24
POINT_DATA 25
VECTORS velocity double
-4.60888e-58 -0.00970858 0
-3.32297e-58 -0.00970858 0
2.88469e-59 -0.00970858 0
4.51903e-58 -0.00970858 0
6.76169e-58 -0.00970858 0
2.82444e-58 -0.00970858 0
6.9872e-58 -0.00970858 0
-6.71502e-59 -0.00970858 0
-3.08257e-58 -0.00970858 0
1.90714e-58 -0.00970858 0
-1.90473e-58 -0.00970858 0
6.2252e-58 -0.00970858 0
-3.57989e-58 -0.00970858 0
-6.3316e-58 -0.00970858 0
-2.3422e-58 -0.00970858 0
6.56017e-58 -0.00970858 0
7.53114e-59 -0.00970858 0
4.43804e-58 -0.00970858 0
2.13516e-58 -0.00970858 0
4.09273e-58 -0.00970858 0
-2.23082e-58 -0.00970858 0
1.6297e-58 -0.00970858 0
-5.89161e-58 -0.00970858 0
-5.39075e-59 -0.00970858 0
-6.20199e-58 -0.00970858 0
SCALARS radius double 1
LOOKUP_TABLE default
0.000621415
0.000750874
0.000735541
0.000522882
0.000780242
0.00097475
0.000994168
0.000790412
0.000880848
0.000720838
0.000933918
0.000958934
0.000753488
0.00054522
0.000712397
0.000950783
0.000807753
0.000836475
0.000569299
0.000603945
0.000628319
0.000580291
0.000777192
0.000692678
0.00055675
SCALARS mass double 1
LOOKUP_TABLE default
0.00327549
0.00478242
0.00458909
0.0023191
0.00516383
0.00805935
0.00838365
0.00529932
0.00658136
0.00440747
0.00739829
0.00779994
0.00481578
0.00252149
0.00430484
0.0076679
0.0055344
0.00593499
0.00274913
0.00309392
0.00334869
0.00285631
0.00512354
0.00406984
0.00262926
