# vtk DataFile Version 3.0
DEM2D particles
ASCII
DATASET POLYDATA
POINTS 25 double
0.000436511 0.000739589 0
0.00259373 0.000527615 0
0.00503527 0.00131891 0
0.0075525 -0.000129681 0
0.00982669 2.82558e-05 0
0.00134532 0.00290338 0
0.00385427 0.00239182 0
0.0049179 0.00150132 0
0.00662312 0.00313746 0
0.00923317 0.00245127 0
0.000767124 0.00463886 0
0.0037611 0.00353142 0
0.00456232 0.0047176 0
0.00622589 0.00493582 0
0.00871364 0.00418513 0
0.00180206 0.00635066 0
0.00309208 0.00565379 0
0.0055426 0.00609379 0
0.00726105 0.00723665 0
0.00950038 0.00704164 0
0.000727257 0.00822508 0
0.00319925 0.00757538 0
0.00427968 0.00864646 0
0.00693409 0.00808555 0
0.00824173 0.00851301 0
VERTICES 25 50
1 0
1 1
1 2
1 3
1 4
1 5
1 6
1 7
1 8
1 9
1 10
1 11
1 12
1 13
1 14
1 15
1 16
1 17
1 18
1 19
1 20
1 21
1 22
1 23
1 24
POINT_DATA 25
VECTORS velocity double
-4.84893e-30 -0.00970858 0
-3.49604e-30 -0.00970858 0
3.03494e-31 -0.00970858 0
4.7544e-30 -0.00970858 0
7.11387e-30 -0.00970858 0
2.97155e-30 -0.00970858 0
7.35113e-30 -0.00970858 0
-7.06476e-31 -0.00970858 0
-3.24312e-30 -0.00970858 0
2.00647e-30 -0.00970858 0
-2.00394e-30 -0.00970858 0
6.54944e-30 -0.00970858 0
-3.76635e-30 -0.00970858 0
-6.66138e-30 -0.00970858 0
-2.46419e-30 -0.00970858 0
6.90186e-30 -0.00970858 0
7.9234e-31 -0.00970858 0
4.66919e-30 -0.00970858 0
2.24636e-30 -0.00970858 0
4.30589e-30 -0.00970858 0
-2.34701e-30 -0.00970858 0
1.71459e-30 -0.00970858 0
-6.19847e-30 -0.00970858 0
-5.67152e-31 -0.00970858 0
-6.52502e-30 -0.00970858 0
SCALARS radius double 1
LOOKUP_TABLE default
0.000621415
0.000750874
0.000735541
0.000522882
0.000780242
0.00097475
0.000994168
0.000790412
0.000880848
0.000720838
0.000933918
0.000958934
0.000753488
0.00054522
0.000712397
0.000950783
0.000807753
0.000836475
0.000569299
0.000603945
0.000628319
0.000580291
0.000777192
0.000692678
0.00055675
SCALARS mass double 1
LOOKUP_TABLE default
0.00327549
0.00478242
0.00458909
0.0023191
0.00516383
0.00805935
0.00838365
0.00529932
0.00658136
0.00440747
0.00739829
0.00779994
0.00481578
0.00252149
0.00430484
0.0076679
0.0055344
0.00593499
0.00274913
0.00309392
0.00334869
0.00285631
0.00512354
0.00406984
0.00262926
