# vtk DataFile Version 3.0
DEM2D particles
ASCII
DATASET POLYDATA
POINTS 25 double
0.000436511 0.000393964 0
0.00259373 0.00018199 0
0.00503527 0.00097328 0
0.0075525 -0.000475307 0
0.00982669 -0.00031737 0
0.00134532 0.00255775 0
0.00385427 0.0020462 0
0.0049179 0.0011557 0
0.00662312 0.00279183 0
0.00923317 0.00210565 0
0.000767124 0.00429324 0
0.0037611 0.0031858 0
0.00456232 0.00437197 0
0.00622589 0.0045902 0
0.00871364 0.0038395 0
0.00180206 0.00600503 0
0.00309208 0.00530817 0
0.0055426 0.00574816 0
0.00726105 0.00689103 0
0.00950038 0.00669601 0
0.000727257 0.00787945 0
0.00319925 0.00722976 0
0.00427968 0.00830083 0
0.00693409 0.00773992 0
0.00824173 0.00816739 0
VERTICES 25 50
1 0
1 1
1 2
1 3
1 4
1 5
1 6
1 7
1 8
1 9
1 10
1 11
1 12
1 13
1 14
1 15
1 16
1 17
1 18
1 19
1 20
1 21
1 22
1 23
1 24
POINT_DATA 25
VECTORS velocity double
-1.40262e-45 -0.00970858 0
-1.01128e-45 -0.00970858 0
8.77895e-47 -0.00970858 0
1.37527e-45 -0.00970858 0
2.05778e-45 -0.00970858 0
8.59561e-46 -0.00970858 0
2.12641e-45 -0.00970858 0
-2.04357e-46 -0.00970858 0
-9.38115e-46 -0.00970858 0
5.80397e-46 -0.00970858 0
-5.79666e-46 -0.00970858 0
1.89451e-45 -0.00970858 0
-1.08946e-45 -0.00970858 0
-1.92689e-45 -0.00970858 0
-7.12799e-46 -0.00970858 0
1.99645e-45 -0.00970858 0
2.29195e-46 -0.00970858 0
1.35062e-45 -0.00970858 0
6.4979e-46 -0.00970858 0
1.24554e-45 -0.00970858 0
-6.78903e-46 -0.00970858 0
4.95966e-46 -0.00970858 0
-1.79299e-45 -0.00970858 0
-1.64056e-46 -0.00970858 0
-1.88745e-45 -0.00970858 0
SCALARS radius double 1
LOOKUP_TABLE default
0.000621415
0.000750874
0.000735541
0.000522882
0.000780242
0.00097475
0.000994168
0.000790412
0.000880848
0.000720838
0.000933918
0.000958934
0.000753488
0.00054522
0.000712397
0.000950783
0.000807753
0.000836475
0.000569299
0.000603945
0.000628319
0.000580291
0.000777192
0.000692678
0.00055675
SCALARS mass double 1
LOOKUP_TABLE default
0.00327549
0.00478242
0.00458909
0.0023191
0.00516383
0.00805935
0.00838365
0.00529932
0.00658136
0.00440747
0.00739829
0.00779994
0.00481578
0.00252149
0.00430484
0.0076679
0.0055344
0.00593499
0.00274913
0.00309392
0.00334869
0.00285631
0.00512354
0.00406984
0.00262926
