# vtk DataFile Version 3.0
DEM2D particles
ASCII
DATASET POLYDATA
POINTS 25 double
0.000436511 0.000725997 0
0.00259373 0.000514023 0
0.00503527 0.00130531 0
0.0075525 -0.000143273 0
0.00982669 1.46638e-05 0
0.00134532 0.00288978 0
0.00385427 0.00237823 0
0.0049179 0.00148773 0
0.00662312 0.00312387 0
0.00923317 0.00243768 0
0.000767124 0.00462527 0
0.0037611 0.00351783 0
0.00456232 0.00470401 0
0.00622589 0.00492223 0
0.00871364 0.00417153 0
0.00180206 0.00633707 0
0.00309208 0.0056402 0
0.0055426 0.0060802 0
0.00726105 0.00722306 0
0.00950038 0.00702805 0
0.000727257 0.00821149 0
0.00319925 0.00756179 0
0.00427968 0.00863287 0
0.00693409 0.00807196 0
0.00824173 0.00849942 0
VERTICES 25 50
1 0
1 1
1 2
1 3
1 4
1 5
1 6
1 7
1 8
1 9
1 10
1 11
1 12
1 13
1 14
1 15
1 16
1 17
1 18
1 19
1 20
1 21
1 22
1 23
1 24
POINT_DATA 25
VECTORS velocity double
-1.18734e-30 -0.00970858 0
-8.5606e-31 -0.00970858 0
7.43151e-32 -0.00970858 0
1.16419e-30 -0.00970858 0
1.74194e-30 -0.00970858 0
7.27631e-31 -0.00970858 0
1.80004e-30 -0.00970858 0
-1.72992e-31 -0.00970858 0
-7.94128e-31 -0.00970858 0
4.91314e-31 -0.00970858 0
-4.90696e-31 -0.00970858 0
1.60373e-30 -0.00970858 0
-9.22248e-31 -0.00970858 0
-1.63114e-30 -0.00970858 0
-6.03395e-31 -0.00970858 0
1.69002e-30 -0.00970858 0
1.94017e-31 -0.00970858 0
1.14332e-30 -0.00970858 0
5.50057e-31 -0.00970858 0
1.05436e-30 -0.00970858 0
-5.74701e-31 -0.00970858 0
4.19842e-31 -0.00970858 0
-1.51779e-30 -0.00970858 0
-1.38876e-31 -0.00970858 0
-1.59775e-30 -0.00970858 0
SCALARS radius double 1
LOOKUP_TABLE default
0.000621415
0.000750874
0.000735541
0.000522882
0.000780242
0.00097475
0.000994168
0.000790412
0.000880848
0.000720838
0.000933918
0.000958934
0.000753488
0.00054522
0.000712397
0.000950783
0.000807753
0.000836475
0.000569299
0.000603945
0.000628319
0.000580291
0.000777192
0.000692678
0.00055675
SCALARS mass double 1
LOOKUP_TABLE default
0.00327549
0.00478242
0.00458909
0.0023191
0.00516383
0.00805935
0.00838365
0.00529932
0.00658136
0.00440747
0.00739829
0.00779994
0.00481578
0.00252149
0.00430484
0.0076679
0.0055344
0.00593499
0.00274913
0.00309392
0.00334869
0.00285631
0.00512354
0.00406984
0.00262926
