# vtk DataFile Version 3.0
DEM2D particles
ASCII
DATASET POLYDATA
POINTS 25 double
0.000436511 2.89211e-05 0
0.00259373 -0.000183053 0
0.00503527 0.000608238 0
0.0075525 -0.00084035 0
0.00982669 -0.000682413 0
0.00134532 0.00219271 0
0.00385427 0.00168116 0
0.0049179 0.000790653 0
0.00662312 0.00242679 0
0.00923317 0.00174061 0
0.000767124 0.0039282 0
0.0037611 0.00282075 0
0.00456232 0.00400693 0
0.00622589 0.00422515 0
0.00871364 0.00347446 0
0.00180206 0.00563999 0
0.00309208 0.00494313 0
0.0055426 0.00538312 0
0.00726105 0.00652598 0
0.00950038 0.00633097 0
0.000727257 0.00751441 0
0.00319925 0.00686471 0
0.00427968 0.00793579 0
0.00693409 0.00737488 0
0.00824173 0.00780234 0
VERTICES 25 50
1 0
1 1
1 2
1 3
1 4
1 5
1 6
1 7
1 8
1 9
1 10
1 11
1 12
1 13
1 14
1 15
1 16
1 17
1 18
1 19
1 20
1 21
1 22
1 23
1 24
POINT_DATA 25
VECTORS velocity double
-5.43589e-62 -0.00970858 0
-3.91924e-62 -0.00970858 0
3.40231e-63 -0.00970858 0
5.32992e-62 -0.00970858 0
7.97499e-62 -0.00970858 0
3.33126e-62 -0.00970858 0
8.24097e-62 -0.00970858 0
-7.91994e-63 -0.00970858 0
-3.6357e-62 -0.00970858 0
2.24935e-62 -0.00970858 0
-2.24652e-62 -0.00970858 0
7.34224e-62 -0.00970858 0
-4.22226e-62 -0.00970858 0
-7.46773e-62 -0.00970858 0
-2.76248e-62 -0.00970858 0
7.73732e-62 -0.00970858 0
8.88252e-63 -0.00970858 0
5.23439e-62 -0.00970858 0
2.51828e-62 -0.00970858 0
4.82712e-62 -0.00970858 0
-2.63111e-62 -0.00970858 0
1.92213e-62 -0.00970858 0
-6.94878e-62 -0.00970858 0
-6.35805e-63 -0.00970858 0
-7.31487e-62 -0.00970858 0
SCALARS radius double 1
LOOKUP_TABLE default
0.000621415
0.000750874
0.000735541
0.000522882
0.000780242
0.00097475
0.000994168
0.000790412
0.000880848
0.000720838
0.000933918
0.000958934
0.000753488
0.00054522
0.000712397
0.000950783
0.000807753
0.000836475
0.000569299
0.000603945
0.000628319
0.000580291
0.000777192
0.000692678
0.00055675
SCALARS mass double 1
LOOKUP_TABLE default
0.00327549
0.00478242
0.00458909
0.0023191
0.00516383
0.00805935
0.00838365
0.00529932
0.00658136
0.00440747
0.00739829
0.00779994
0.00481578
0.00252149
0.00430484
0.0076679
0.0055344
0.00593499
0.00274913
0.00309392
0.00334869
0.00285631
0.00512354
0.00406984
0.00262926
