# vtk DataFile Version 3.0
DEM2D particles
ASCII
DATASET POLYDATA
POINTS 25 double
0.000436511 -7.01065e-05 0
0.00259373 -0.000282081 0
0.00503527 0.00050921 0
0.0075525 -0.000939377 0
0.00982669 -0.00078144 0
0.00134532 0.00209368 0
0.00385427 0.00158213 0
0.0049179 0.000691625 0
0.00662312 0.00232776 0
0.00923317 0.00164158 0
0.000767124 0.00382917 0
0.0037611 0.00272173 0
0.00456232 0.0039079 0
0.00622589 0.00412613 0
0.00871364 0.00337543 0
0.00180206 0.00554096 0
0.00309208 0.0048441 0
0.0055426 0.00528409 0
0.00726105 0.00642696 0
0.00950038 0.00623194 0
0.000727257 0.00741538 0
0.00319925 0.00676569 0
0.00427968 0.00783676 0
0.00693409 0.00727585 0
0.00824173 0.00770331 0
VERTICES 25 50
1 0
1 1
1 2
1 3
1 4
1 5
1 6
1 7
1 8
1 9
1 10
1 11
1 12
1 13
1 14
1 15
1 16
1 17
1 18
1 19
1 20
1 21
1 22
1 23
1 24
POINT_DATA 25
VECTORS velocity double
-1.91942e-66 -0.00970858 0
-1.38388e-66 -0.00970858 0
1.20136e-67 -0.00970858 0
1.882e-66 -0.00970858 0
2.81597e-66 -0.00970858 0
1.17627e-66 -0.00970858 0
2.90989e-66 -0.00970858 0
-2.79654e-67 -0.00970858 0
-1.28377e-66 -0.00970858 0
7.94246e-67 -0.00970858 0
-7.93246e-67 -0.00970858 0
2.59255e-66 -0.00970858 0
-1.49088e-66 -0.00970858 0
-2.63686e-66 -0.00970858 0
-9.75433e-67 -0.00970858 0
2.73205e-66 -0.00970858 0
3.13642e-67 -0.00970858 0
1.84827e-66 -0.00970858 0
8.89207e-67 -0.00970858 0
1.70446e-66 -0.00970858 0
-9.29047e-67 -0.00970858 0
6.78706e-67 -0.00970858 0
-2.45362e-66 -0.00970858 0
-2.24503e-67 -0.00970858 0
-2.58288e-66 -0.00970858 0
SCALARS radius double 1
LOOKUP_TABLE default
0.000621415
0.000750874
0.000735541
0.000522882
0.000780242
0.00097475
0.000994168
0.000790412
0.000880848
0.000720838
0.000933918
0.000958934
0.000753488
0.00054522
0.000712397
0.000950783
0.000807753
0.000836475
0.000569299
0.000603945
0.000628319
0.000580291
0.000777192
0.000692678
0.00055675
SCALARS mass double 1
LOOKUP_TABLE default
0.00327549
0.00478242
0.00458909
0.0023191
0.00516383
0.00805935
0.00838365
0.00529932
0.00658136
0.00440747
0.00739829
0.00779994
0.00481578
0.00252149
0.00430484
0.0076679
0.0055344
0.00593499
0.00274913
0.00309392
0.00334869
0.00285631
0.00512354
0.00406984
0.00262926
