# vtk DataFile Version 3.0
DEM2D particles
ASCII
DATASET POLYDATA
POINTS 25 double
0.000436511 9.88229e-05 0
0.00259373 -0.000113151 0
0.00503527 0.000678139 0
0.0075525 -0.000770448 0
0.00982669 -0.000612511 0
0.00134532 0.00226261 0
0.00385427 0.00175106 0
0.0049179 0.000860555 0
0.00662312 0.00249669 0
0.00923317 0.00181051 0
0.000767124 0.0039981 0
0.0037611 0.00289066 0
0.00456232 0.00407683 0
0.00622589 0.00429506 0
0.00871364 0.00354436 0
0.00180206 0.00570989 0
0.00309208 0.00501303 0
0.0055426 0.00545302 0
0.00726105 0.00659588 0
0.00950038 0.00640087 0
0.000727257 0.00758431 0
0.00319925 0.00693462 0
0.00427968 0.00800569 0
0.00693409 0.00744478 0
0.00824173 0.00787224 0
VERTICES 25 50
1 0
1 1
1 2
1 3
1 4
1 5
1 6
1 7
1 8
1 9
1 10
1 11
1 12
1 13
1 14
1 15
1 16
1 17
1 18
1 19
1 20
1 21
1 22
1 23
1 24
POINT_DATA 25
VECTORS velocity double
-7.54972e-59 -0.00970858 0
-5.44329e-59 -0.00970858 0
4.72535e-60 -0.00970858 0
7.40253e-59 -0.00970858 0
1.10762e-58 -0.00970858 0
4.62667e-59 -0.00970858 0
1.14456e-58 -0.00970858 0
-1.09997e-59 -0.00970858 0
-5.04949e-59 -0.00970858 0
3.12404e-59 -0.00970858 0
-3.12011e-59 -0.00970858 0
1.01974e-58 -0.00970858 0
-5.86415e-59 -0.00970858 0
-1.03717e-58 -0.00970858 0
-3.83671e-59 -0.00970858 0
1.07461e-58 -0.00970858 0
1.23366e-59 -0.00970858 0
7.26986e-59 -0.00970858 0
3.49755e-59 -0.00970858 0
6.70421e-59 -0.00970858 0
-3.65426e-59 -0.00970858 0
2.66958e-59 -0.00970858 0
-9.65092e-59 -0.00970858 0
-8.83047e-60 -0.00970858 0
-1.01594e-58 -0.00970858 0
SCALARS radius double 1
LOOKUP_TABLE default
0.000621415
0.000750874
0.000735541
0.000522882
0.000780242
0.00097475
0.000994168
0.000790412
0.000880848
0.000720838
0.000933918
0.000958934
0.000753488
0.00054522
0.000712397
0.000950783
0.000807753
0.000836475
0.000569299
0.000603945
0.000628319
0.000580291
0.000777192
0.000692678
0.00055675
SCALARS mass double 1
LOOKUP_TABLE default
0.00327549
0.00478242
0.00458909
0.0023191
0.00516383
0.00805935
0.00838365
0.00529932
0.00658136
0.00440747
0.00739829
0.00779994
0.00481578
0.00252149
0.00430484
0.0076679
0.0055344
0.00593499
0.00274913
0.00309392
0.00334869
0.00285631
0.00512354
0.00406984
0.00262926
