# vtk DataFile Version 3.0
DEM2D particles
ASCII
DATASET POLYDATA
POINTS 25 double
0.000436511 -0.000120591 0
0.00259373 -0.000332565 0
0.00503527 0.000458725 0
0.0075525 -0.000989862 0
0.00982669 -0.000831925 0
0.00134532 0.0020432 0
0.00385427 0.00153164 0
0.0049179 0.000641141 0
0.00662312 0.00227728 0
0.00923317 0.00159109 0
0.000767124 0.00377868 0
0.0037611 0.00267124 0
0.00456232 0.00385742 0
0.00622589 0.00407564 0
0.00871364 0.00332495 0
0.00180206 0.00549048 0
0.00309208 0.00479361 0
0.0055426 0.00523361 0
0.00726105 0.00637647 0
0.00950038 0.00618146 0
0.000727257 0.0073649 0
0.00319925 0.0067152 0
0.00427968 0.00778628 0
0.00693409 0.00722537 0
0.00824173 0.00765283 0
VERTICES 25 50
1 0
1 1
1 2
1 3
1 4
1 5
1 6
1 7
1 8
1 9
1 10
1 11
1 12
1 13
1 14
1 15
1 16
1 17
1 18
1 19
1 20
1 21
1 22
1 23
1 24
POINT_DATA 25
VECTORS velocity double
-1.0315e-68 -0.00970858 0
-7.43706e-69 -0.00970858 0
6.45615e-70 -0.00970858 0
1.01139e-68 -0.00970858 0
1.51332e-68 -0.00970858 0
6.32132e-69 -0.00970858 0
1.56379e-68 -0.00970858 0
-1.50287e-69 -0.00970858 0
-6.89902e-69 -0.00970858 0
4.26831e-69 -0.00970858 0
-4.26294e-69 -0.00970858 0
1.39325e-68 -0.00970858 0
-8.01207e-69 -0.00970858 0
-1.41706e-68 -0.00970858 0
-5.24202e-69 -0.00970858 0
1.46822e-68 -0.00970858 0
1.68553e-69 -0.00970858 0
9.93267e-69 -0.00970858 0
4.77864e-69 -0.00970858 0
9.15983e-69 -0.00970858 0
-4.99274e-69 -0.00970858 0
3.6474e-69 -0.00970858 0
-1.31859e-68 -0.00970858 0
-1.20649e-69 -0.00970858 0
-1.38805e-68 -0.00970858 0
SCALARS radius double 1
LOOKUP_TABLE default
0.000621415
0.000750874
0.000735541
0.000522882
0.000780242
0.00097475
0.000994168
0.000790412
0.000880848
0.000720838
0.000933918
0.000958934
0.000753488
0.00054522
0.000712397
0.000950783
0.000807753
0.000836475
0.000569299
0.000603945
0.000628319
0.000580291
0.000777192
0.000692678
0.00055675
SCALARS mass double 1
LOOKUP_TABLE default
0.00327549
0.00478242
0.00458909
0.0023191
0.00516383
0.00805935
0.00838365
0.00529932
0.00658136
0.00440747
0.00739829
0.00779994
0.00481578
0.00252149
0.00430484
0.0076679
0.0055344
0.00593499
0.00274913
0.00309392
0.00334869
0.00285631
0.00512354
0.00406984
0.00262926
