# vtk DataFile Version 3.0
DEM2D particles
ASCII
DATASET POLYDATA
POINTS 25 double
0.000436512 0.00125414 0
0.00259373 0.00104217 0
0.00503527 0.00183346 0
0.0075525 0.000384874 0
0.00982669 0.000542811 0
0.00134532 0.00341793 0
0.00385427 0.00290638 0
0.0049179 0.00201588 0
0.00662312 0.00365201 0
0.00923317 0.00296583 0
0.000767125 0.00515342 0
0.0037611 0.00404598 0
0.00456232 0.00523215 0
0.00622589 0.00545038 0
0.00871364 0.00469968 0
0.00180206 0.00686521 0
0.00309208 0.00616835 0
0.0055426 0.00660834 0
0.00726105 0.0077512 0
0.00950038 0.00755619 0
0.000727257 0.00873964 0
0.00319925 0.00808994 0
0.00427968 0.00916101 0
0.00693409 0.0086001 0
0.00824174 0.00902757 0
VERTICES 25 50
1 0
1 1
1 2
1 3
1 4
1 5
1 6
1 7
1 8
1 9
1 10
1 11
1 12
1 13
1 14
1 15
1 16
1 17
1 18
1 19
1 20
1 21
1 22
1 23
1 24
POINT_DATA 25
VECTORS velocity double
-6.59348e-07 -0.00970813 0
-4.75385e-07 -0.00970838 0
4.12685e-08 -0.00970745 0
6.46494e-07 -0.00970915 0
9.6733e-07 -0.00970896 0
4.04066e-07 -0.00970794 0
9.99592e-07 -0.00970854 0
-9.60653e-08 -0.00970958 0
-4.40993e-07 -0.00970767 0
2.72836e-07 -0.00970847 0
-2.72492e-07 -0.00970825 0
8.90579e-07 -0.00970955 0
-5.1214e-07 -0.00970816 0
-9.058e-07 -0.0097079 0
-3.35076e-07 -0.00970878 0
9.38501e-07 -0.00970859 0
1.07741e-07 -0.0097094 0
6.34908e-07 -0.00970889 0
3.05456e-07 -0.00970755 0
5.85507e-07 -0.00970778 0
-3.19142e-07 -0.00970873 0
2.33146e-07 -0.00970949 0
-8.42855e-07 -0.00970824 0
-7.71202e-08 -0.0097089 0
-8.87259e-07 -0.0097084 0
SCALARS radius double 1
LOOKUP_TABLE default
0.000621415
0.000750874
0.000735541
0.000522882
0.000780242
0.00097475
0.000994168
0.000790412
0.000880848
0.000720838
0.000933918
0.000958934
0.000753488
0.00054522
0.000712397
0.000950783
0.000807753
0.000836475
0.000569299
0.000603945
0.000628319
0.000580291
0.000777192
0.000692678
0.00055675
SCALARS mass double 1
LOOKUP_TABLE default
0.00327549
0.00478242
0.00458909
0.0023191
0.00516383
0.00805935
0.00838365
0.00529932
0.00658136
0.00440747
0.00739829
0.00779994
0.00481578
0.00252149
0.00430484
0.0076679
0.0055344
0.00593499
0.00274913
0.00309392
0.00334869
0.00285631
0.00512354
0.00406984
0.00262926
