# vtk DataFile Version 3.0
DEM2D particles
ASCII
DATASET POLYDATA
POINTS 25 double
0.000436511 -1.37967e-05 0
0.00259373 -0.000225771 0
0.00503527 0.00056552 0
0.0075525 -0.000883067 0
0.00982669 -0.00072513 0
0.00134532 0.00214999 0
0.00385427 0.00163844 0
0.0049179 0.000747935 0
0.00662312 0.00238407 0
0.00923317 0.00169789 0
0.000767124 0.00388548 0
0.0037611 0.00277804 0
0.00456232 0.00396421 0
0.00622589 0.00418244 0
0.00871364 0.00343174 0
0.00180206 0.00559727 0
0.00309208 0.00490041 0
0.0055426 0.0053404 0
0.00726105 0.00648326 0
0.00950038 0.00628825 0
0.000727257 0.00747169 0
0.00319925 0.006822 0
0.00427968 0.00789307 0
0.00693409 0.00733216 0
0.00824173 0.00775962 0
VERTICES 25 50
1 0
1 1
1 2
1 3
1 4
1 5
1 6
1 7
1 8
1 9
1 10
1 11
1 12
1 13
1 14
1 15
1 16
1 17
1 18
1 19
1 20
1 21
1 22
1 23
1 24
POINT_DATA 25
VECTORS velocity double
-6.52764e-64 -0.00970858 0
-4.70638e-64 -0.00970858 0
4.08564e-65 -0.00970858 0
6.40038e-64 -0.00970858 0
9.5767e-64 -0.00970858 0
4.00031e-64 -0.00970858 0
9.8961e-64 -0.00970858 0
-9.5106e-65 -0.00970858 0
-4.3659e-64 -0.00970858 0
2.70111e-64 -0.00970858 0
-2.69771e-64 -0.00970858 0
8.81686e-64 -0.00970858 0
-5.07026e-64 -0.00970858 0
-8.96755e-64 -0.00970858 0
-3.3173e-64 -0.00970858 0
9.29129e-64 -0.00970858 0
1.06665e-64 -0.00970858 0
6.28568e-64 -0.00970858 0
3.02406e-64 -0.00970858 0
5.7966e-64 -0.00970858 0
-3.15955e-64 -0.00970858 0
2.30818e-64 -0.00970858 0
-8.34439e-64 -0.00970858 0
-7.63501e-65 -0.00970858 0
-8.78399e-64 -0.00970858 0
SCALARS radius double 1
LOOKUP_TABLE default
0.000621415
0.000750874
0.000735541
0.000522882
0.000780242
0.00097475
0.000994168
0.000790412
0.000880848
0.000720838
0.000933918
0.000958934
0.000753488
0.00054522
0.000712397
0.000950783
0.000807753
0.000836475
0.000569299
0.000603945
0.000628319
0.000580291
0.000777192
0.000692678
0.00055675
SCALARS mass double 1
LOOKUP_TABLE default
0.00327549
0.00478242
0.00458909
0.0023191
0.00516383
0.00805935
0.00838365
0.00529932
0.00658136
0.00440747
0.00739829
0.00779994
0.00481578
0.00252149
0.00430484
0.0076679
0.0055344
0.00593499
0.00274913
0.00309392
0.00334869
0.00285631
0.00512354
0.00406984
0.00262926
