# vtk DataFile Version 3.0
DEM2D particles
ASCII
DATASET POLYDATA
POINTS 25 double
0.000436511 -0.000431266 0
0.00259373 -0.00064324 0
0.00503527 0.000148051 0
0.0075525 -0.00130054 0
0.00982669 -0.0011426 0
0.00134532 0.00173252 0
0.00385427 0.00122097 0
0.0049179 0.000330466 0
0.00662312 0.0019666 0
0.00923317 0.00128042 0
0.000767124 0.00346801 0
0.0037611 0.00236057 0
0.00456232 0.00354674 0
0.00622589 0.00376497 0
0.00871364 0.00301427 0
0.00180206 0.0051798 0
0.00309208 0.00448294 0
0.0055426 0.00492293 0
0.00726105 0.0060658 0
0.00950038 0.00587078 0
0.000727257 0.00705423 0
0.00319925 0.00640453 0
0.00427968 0.0074756 0
0.00693409 0.00691469 0
0.00824173 0.00734216 0
VERTICES 25 50
1 0
1 1
1 2
1 3
1 4
1 5
1 6
1 7
1 8
1 9
1 10
1 11
1 12
1 13
1 14
1 15
1 16
1 17
1 18
1 19
1 20
1 21
1 22
1 23
1 24
POINT_DATA 25
VECTORS velocity double
-1.11197e-82 -0.00970858 0
-8.01722e-83 -0.00970858 0
6.9598e-84 -0.00970858 0
1.09029e-82 -0.00970858 0
1.63137e-82 -0.00970858 0
6.81445e-83 -0.00970858 0
1.68578e-82 -0.00970858 0
-1.62011e-83 -0.00970858 0
-7.43721e-83 -0.00970858 0
4.60129e-83 -0.00970858 0
-4.59549e-83 -0.00970858 0
1.50193e-82 -0.00970858 0
-8.63709e-83 -0.00970858 0
-1.5276e-82 -0.00970858 0
-5.65095e-83 -0.00970858 0
1.58275e-82 -0.00970858 0
1.81701e-83 -0.00970858 0
1.07075e-82 -0.00970858 0
5.15142e-83 -0.00970858 0
9.87439e-83 -0.00970858 0
-5.38222e-83 -0.00970858 0
3.93193e-83 -0.00970858 0
-1.42145e-82 -0.00970858 0
-1.30061e-83 -0.00970858 0
-1.49633e-82 -0.00970858 0
SCALARS radius double 1
LOOKUP_TABLE default
0.000621415
0.000750874
0.000735541
0.000522882
0.000780242
0.00097475
0.000994168
0.000790412
0.000880848
0.000720838
0.000933918
0.000958934
0.000753488
0.00054522
0.000712397
0.000950783
0.000807753
0.000836475
0.000569299
0.000603945
0.000628319
0.000580291
0.000777192
0.000692678
0.00055675
SCALARS mass double 1
LOOKUP_TABLE default
0.00327549
0.00478242
0.00458909
0.0023191
0.00516383
0.00805935
0.00838365
0.00529932
0.00658136
0.00440747
0.00739829
0.00779994
0.00481578
0.00252149
0.00430484
0.0076679
0.0055344
0.00593499
0.00274913
0.00309392
0.00334869
0.00285631
0.00512354
0.00406984
0.00262926
