# vtk DataFile Version 3.0
DEM2D particles
ASCII
DATASET POLYDATA
POINTS 25 double
0.000436511 5.61051e-05 0
0.00259373 -0.000155869 0
0.00503527 0.000635422 0
0.0075525 -0.000813166 0
0.00982669 -0.000655228 0
0.00134532 0.00221989 0
0.00385427 0.00170834 0
0.0049179 0.000817837 0
0.00662312 0.00245398 0
0.00923317 0.00176779 0
0.000767124 0.00395538 0
0.0037611 0.00284794 0
0.00456232 0.00403411 0
0.00622589 0.00425234 0
0.00871364 0.00350164 0
0.00180206 0.00566717 0
0.00309208 0.00497031 0
0.0055426 0.0054103 0
0.00726105 0.00655317 0
0.00950038 0.00635815 0
0.000727257 0.0075416 0
0.00319925 0.0068919 0
0.00427968 0.00796297 0
0.00693409 0.00740207 0
0.00824173 0.00782953 0
VERTICES 25 50
1 0
1 1
1 2
1 3
1 4
1 5
1 6
1 7
1 8
1 9
1 10
1 11
1 12
1 13
1 14
1 15
1 16
1 17
1 18
1 19
1 20
1 21
1 22
1 23
1 24
POINT_DATA 25
VECTORS velocity double
-9.06601e-61 -0.00970858 0
-6.53653e-61 -0.00970858 0
5.6744e-62 -0.00970858 0
8.88926e-61 -0.00970858 0
1.33007e-60 -0.00970858 0
5.55589e-61 -0.00970858 0
1.37443e-60 -0.00970858 0
-1.32089e-61 -0.00970858 0
-6.06364e-61 -0.00970858 0
3.75148e-61 -0.00970858 0
-3.74675e-61 -0.00970858 0
1.22454e-60 -0.00970858 0
-7.04191e-61 -0.00970858 0
-1.24547e-60 -0.00970858 0
-4.60728e-61 -0.00970858 0
1.29043e-60 -0.00970858 0
1.48143e-61 -0.00970858 0
8.72995e-61 -0.00970858 0
4.20001e-61 -0.00970858 0
8.05069e-61 -0.00970858 0
-4.38818e-61 -0.00970858 0
3.20575e-61 -0.00970858 0
-1.15892e-60 -0.00970858 0
-1.0604e-61 -0.00970858 0
-1.21998e-60 -0.00970858 0
SCALARS radius double 1
LOOKUP_TABLE default
0.000621415
0.000750874
0.000735541
0.000522882
0.000780242
0.00097475
0.000994168
0.000790412
0.000880848
0.000720838
0.000933918
0.000958934
0.000753488
0.00054522
0.000712397
0.000950783
0.000807753
0.000836475
0.000569299
0.000603945
0.000628319
0.000580291
0.000777192
0.000692678
0.00055675
SCALARS mass double 1
LOOKUP_TABLE default
0.00327549
0.00478242
0.00458909
0.0023191
0.00516383
0.00805935
0.00838365
0.00529932
0.00658136
0.00440747
0.00739829
0.00779994
0.00481578
0.00252149
0.00430484
0.0076679
0.0055344
0.00593499
0.00274913
0.00309392
0.00334869
0.00285631
0.00512354
0.00406984
0.00262926
