# vtk DataFile Version 3.0
DEM2D particles
ASCII
DATASET POLYDATA
POINTS 25 double
0.000436511 0.000696872 0
0.00259373 0.000484898 0
0.00503527 0.00127619 0
0.0075525 -0.000172399 0
0.00982669 -1.4462e-05 0
0.00134532 0.00286066 0
0.00385427 0.00234911 0
0.0049179 0.0014586 0
0.00662312 0.00309474 0
0.00923317 0.00240856 0
0.000767124 0.00459615 0
0.0037611 0.0034887 0
0.00456232 0.00467488 0
0.00622589 0.0048931 0
0.00871364 0.00414241 0
0.00180206 0.00630794 0
0.00309208 0.00561108 0
0.0055426 0.00605107 0
0.00726105 0.00719393 0
0.00950038 0.00699892 0
0.000727257 0.00818236 0
0.00319925 0.00753266 0
0.00427968 0.00860374 0
0.00693409 0.00804283 0
0.00824173 0.00847029 0
VERTICES 25 50
1 0
1 1
1 2
1 3
1 4
1 5
1 6
1 7
1 8
1 9
1 10
1 11
1 12
1 13
1 14
1 15
1 16
1 17
1 18
1 19
1 20
1 21
1 22
1 23
1 24
POINT_DATA 25
VECTORS velocity double
-5.8228e-32 -0.00970858 0
-4.19819e-32 -0.00970858 0
3.64448e-33 -0.00970858 0
5.70928e-32 -0.00970858 0
8.54263e-32 -0.00970858 0
3.56837e-32 -0.00970858 0
8.82754e-32 -0.00970858 0
-8.48366e-33 -0.00970858 0
-3.89447e-32 -0.00970858 0
2.40945e-32 -0.00970858 0
-2.40642e-32 -0.00970858 0
7.86484e-32 -0.00970858 0
-4.52279e-32 -0.00970858 0
-7.99925e-32 -0.00970858 0
-2.9591e-32 -0.00970858 0
8.28803e-32 -0.00970858 0
9.51475e-33 -0.00970858 0
5.60696e-32 -0.00970858 0
2.69753e-32 -0.00970858 0
5.1707e-32 -0.00970858 0
-2.81839e-32 -0.00970858 0
2.05894e-32 -0.00970858 0
-7.44338e-32 -0.00970858 0
-6.8106e-33 -0.00970858 0
-7.83551e-32 -0.00970858 0
SCALARS radius double 1
LOOKUP_TABLE default
0.000621415
0.000750874
0.000735541
0.000522882
0.000780242
0.00097475
0.000994168
0.000790412
0.000880848
0.000720838
0.000933918
0.000958934
0.000753488
0.00054522
0.000712397
0.000950783
0.000807753
0.000836475
0.000569299
0.000603945
0.000628319
0.000580291
0.000777192
0.000692678
0.00055675
SCALARS mass double 1
LOOKUP_TABLE default
0.00327549
0.00478242
0.00458909
0.0023191
0.00516383
0.00805935
0.00838365
0.00529932
0.00658136
0.00440747
0.00739829
0.00779994
0.00481578
0.00252149
0.00430484
0.0076679
0.0055344
0.00593499
0.00274913
0.00309392
0.00334869
0.00285631
0.00512354
0.00406984
0.00262926
