# vtk DataFile Version 3.0
DEM2D particles
ASCII
DATASET POLYDATA
POINTS 25 double
0.000436511 -0.00025457 0
0.00259373 -0.000466544 0
0.00503527 0.000324747 0
0.0075525 -0.00112384 0
0.00982669 -0.000965903 0
0.00134532 0.00190922 0
0.00385427 0.00139767 0
0.0049179 0.000507162 0
0.00662312 0.0021433 0
0.00923317 0.00145712 0
0.000767124 0.0036447 0
0.0037611 0.00253726 0
0.00456232 0.00372344 0
0.00622589 0.00394166 0
0.00871364 0.00319097 0
0.00180206 0.0053565 0
0.00309208 0.00465964 0
0.0055426 0.00509963 0
0.00726105 0.00624249 0
0.00950038 0.00604748 0
0.000727257 0.00723092 0
0.00319925 0.00658122 0
0.00427968 0.0076523 0
0.00693409 0.00709139 0
0.00824173 0.00751885 0
VERTICES 25 50
1 0
1 1
1 2
1 3
1 4
1 5
1 6
1 7
1 8
1 9
1 10
1 11
1 12
1 13
1 14
1 15
1 16
1 17
1 18
1 19
1 20
1 21
1 22
1 23
1 24
POINT_DATA 25
VECTORS velocity double
-9.77325e-75 -0.00970858 0
-7.04644e-75 -0.00970858 0
6.11706e-76 -0.00970858 0
9.58271e-75 -0.00970858 0
1.43383e-74 -0.00970858 0
5.9893e-75 -0.00970858 0
1.48165e-74 -0.00970858 0
-1.42394e-75 -0.00970858 0
-6.53666e-75 -0.00970858 0
4.04413e-75 -0.00970858 0
-4.03904e-75 -0.00970858 0
1.32007e-74 -0.00970858 0
-7.59125e-75 -0.00970858 0
-1.34263e-74 -0.00970858 0
-4.96669e-75 -0.00970858 0
1.3911e-74 -0.00970858 0
1.597e-75 -0.00970858 0
9.41097e-75 -0.00970858 0
4.52765e-75 -0.00970858 0
8.67873e-75 -0.00970858 0
-4.7305e-75 -0.00970858 0
3.45582e-75 -0.00970858 0
-1.24933e-74 -0.00970858 0
-1.14312e-75 -0.00970858 0
-1.31515e-74 -0.00970858 0
SCALARS radius double 1
LOOKUP_TABLE default
0.000621415
0.000750874
0.000735541
0.000522882
0.000780242
0.00097475
0.000994168
0.000790412
0.000880848
0.000720838
0.000933918
0.000958934
0.000753488
0.00054522
0.000712397
0.000950783
0.000807753
0.000836475
0.000569299
0.000603945
0.000628319
0.000580291
0.000777192
0.000692678
0.00055675
SCALARS mass double 1
LOOKUP_TABLE default
0.00327549
0.00478242
0.00458909
0.0023191
0.00516383
0.00805935
0.00838365
0.00529932
0.00658136
0.00440747
0.00739829
0.00779994
0.00481578
0.00252149
0.00430484
0.0076679
0.0055344
0.00593499
0.00274913
0.00309392
0.00334869
0.00285631
0.00512354
0.00406984
0.00262926
