# vtk DataFile Version 3.0
DEM2D particles
ASCII
DATASET POLYDATA
POINTS 25 double
0.000436511 0.000444448 0
0.00259373 0.000232474 0
0.00503527 0.00102376 0
0.0075525 -0.000424822 0
0.00982669 -0.000266885 0
0.00134532 0.00260823 0
0.00385427 0.00209668 0
0.0049179 0.00120618 0
0.00662312 0.00284232 0
0.00923317 0.00215613 0
0.000767124 0.00434372 0
0.0037611 0.00323628 0
0.00456232 0.00442246 0
0.00622589 0.00464068 0
0.00871364 0.00388999 0
0.00180206 0.00605552 0
0.00309208 0.00535865 0
0.0055426 0.00579865 0
0.00726105 0.00694151 0
0.00950038 0.0067465 0
0.000727257 0.00792994 0
0.00319925 0.00728024 0
0.00427968 0.00835132 0
0.00693409 0.00779041 0
0.00824173 0.00821787 0
VERTICES 25 50
1 0
1 1
1 2
1 3
1 4
1 5
1 6
1 7
1 8
1 9
1 10
1 11
1 12
1 13
1 14
1 15
1 16
1 17
1 18
1 19
1 20
1 21
1 22
1 23
1 24
POINT_DATA 25
VECTORS velocity double
-2.60998e-43 -0.00970858 0
-1.88178e-43 -0.00970858 0
1.63358e-44 -0.00970858 0
2.5591e-43 -0.00970858 0
3.82911e-43 -0.00970858 0
1.59947e-43 -0.00970858 0
3.95681e-43 -0.00970858 0
-3.80268e-44 -0.00970858 0
-1.74564e-43 -0.00970858 0
1.08e-43 -0.00970858 0
-1.07864e-43 -0.00970858 0
3.5253e-43 -0.00970858 0
-2.02727e-43 -0.00970858 0
-3.58555e-43 -0.00970858 0
-1.32637e-43 -0.00970858 0
3.71499e-43 -0.00970858 0
4.26484e-44 -0.00970858 0
2.51324e-43 -0.00970858 0
1.20913e-43 -0.00970858 0
2.31769e-43 -0.00970858 0
-1.2633e-43 -0.00970858 0
9.22891e-44 -0.00970858 0
-3.33638e-43 -0.00970858 0
-3.05275e-44 -0.00970858 0
-3.51215e-43 -0.00970858 0
SCALARS radius double 1
LOOKUP_TABLE default
0.000621415
0.000750874
0.000735541
0.000522882
0.000780242
0.00097475
0.000994168
0.000790412
0.000880848
0.000720838
0.000933918
0.000958934
0.000753488
0.00054522
0.000712397
0.000950783
0.000807753
0.000836475
0.000569299
0.000603945
0.000628319
0.000580291
0.000777192
0.000692678
0.00055675
SCALARS mass double 1
LOOKUP_TABLE default
0.00327549
0.00478242
0.00458909
0.0023191
0.00516383
0.00805935
0.00838365
0.00529932
0.00658136
0.00440747
0.00739829
0.00779994
0.00481578
0.00252149
0.00430484
0.0076679
0.0055344
0.00593499
0.00274913
0.00309392
0.00334869
0.00285631
0.00512354
0.00406984
0.00262926
