# vtk DataFile Version 3.0
DEM2D particles
ASCII
DATASET POLYDATA
POINTS 25 double
0.000436511 0.000755123 0
0.00259373 0.000543149 0
0.00503527 0.00133444 0
0.0075525 -0.000114148 0
0.00982669 4.37895e-05 0
0.00134532 0.00291891 0
0.00385427 0.00240736 0
0.0049179 0.00151685 0
0.00662312 0.00315299 0
0.00923317 0.00246681 0
0.000767124 0.0046544 0
0.0037611 0.00354696 0
0.00456232 0.00473313 0
0.00622589 0.00495136 0
0.00871364 0.00420066 0
0.00180206 0.00636619 0
0.00309208 0.00566933 0
0.0055426 0.00610932 0
0.00726105 0.00725218 0
0.00950038 0.00705717 0
0.000727257 0.00824061 0
0.00319925 0.00759092 0
0.00427968 0.00866199 0
0.00693409 0.00810108 0
0.00824173 0.00852854 0
VERTICES 25 50
1 0
1 1
1 2
1 3
1 4
1 5
1 6
1 7
1 8
1 9
1 10
1 11
1 12
1 13
1 14
1 15
1 16
1 17
1 18
1 19
1 20
1 21
1 22
1 23
1 24
POINT_DATA 25
VECTORS velocity double
-2.42111e-29 -0.00970858 0
-1.7456e-29 -0.00970858 0
1.51537e-30 -0.00970858 0
2.37391e-29 -0.00970858 0
3.55201e-29 -0.00970858 0
1.48372e-29 -0.00970858 0
3.67048e-29 -0.00970858 0
-3.5275e-30 -0.00970858 0
-1.61932e-29 -0.00970858 0
1.00185e-29 -0.00970858 0
-1.00058e-29 -0.00970858 0
3.27019e-29 -0.00970858 0
-1.88057e-29 -0.00970858 0
-3.32608e-29 -0.00970858 0
-1.23039e-29 -0.00970858 0
3.44615e-29 -0.00970858 0
3.95622e-30 -0.00970858 0
2.33137e-29 -0.00970858 0
1.12163e-29 -0.00970858 0
2.14997e-29 -0.00970858 0
-1.17188e-29 -0.00970858 0
8.56107e-30 -0.00970858 0
-3.09495e-29 -0.00970858 0
-2.83184e-30 -0.00970858 0
-3.258e-29 -0.00970858 0
SCALARS radius double 1
LOOKUP_TABLE default
0.000621415
0.000750874
0.000735541
0.000522882
0.000780242
0.00097475
0.000994168
0.000790412
0.000880848
0.000720838
0.000933918
0.000958934
0.000753488
0.00054522
0.000712397
0.000950783
0.000807753
0.000836475
0.000569299
0.000603945
0.000628319
0.000580291
0.000777192
0.000692678
0.00055675
SCALARS mass double 1
LOOKUP_TABLE default
0.00327549
0.00478242
0.00458909
0.0023191
0.00516383
0.00805935
0.00838365
0.00529932
0.00658136
0.00440747
0.00739829
0.00779994
0.00481578
0.00252149
0.00430484
0.0076679
0.0055344
0.00593499
0.00274913
0.00309392
0.00334869
0.00285631
0.00512354
0.00406984
0.00262926
