# vtk DataFile Version 3.0
DEM2D particles
ASCII
DATASET POLYDATA
POINTS 25 double
0.000436511 -0.000132241 0
0.00259373 -0.000344216 0
0.00503527 0.000447075 0
0.0075525 -0.00100151 0
0.00982669 -0.000843575 0
0.00134532 0.00203154 0
0.00385427 0.00151999 0
0.0049179 0.00062949 0
0.00662312 0.00226563 0
0.00923317 0.00157944 0
0.000767124 0.00376703 0
0.0037611 0.00265959 0
0.00456232 0.00384577 0
0.00622589 0.00406399 0
0.00871364 0.0033133 0
0.00180206 0.00547883 0
0.00309208 0.00478196 0
0.0055426 0.00522196 0
0.00726105 0.00636482 0
0.00950038 0.00616981 0
0.000727257 0.00735325 0
0.00319925 0.00670355 0
0.00427968 0.00777463 0
0.00693409 0.00721372 0
0.00824173 0.00764118 0
VERTICES 25 50
1 0
1 1
1 2
1 3
1 4
1 5
1 6
1 7
1 8
1 9
1 10
1 11
1 12
1 13
1 14
1 15
1 16
1 17
1 18
1 19
1 20
1 21
1 22
1 23
1 24
POINT_DATA 25
VECTORS velocity double
-3.08812e-69 -0.00970858 0
-2.22651e-69 -0.00970858 0
1.93285e-70 -0.00970858 0
3.02791e-69 -0.00970858 0
4.53057e-69 -0.00970858 0
1.89248e-69 -0.00970858 0
4.68168e-69 -0.00970858 0
-4.4993e-70 -0.00970858 0
-2.06543e-69 -0.00970858 0
1.27785e-69 -0.00970858 0
-1.27624e-69 -0.00970858 0
4.17111e-69 -0.00970858 0
-2.39866e-69 -0.00970858 0
-4.2424e-69 -0.00970858 0
-1.56936e-69 -0.00970858 0
4.39555e-69 -0.00970858 0
5.04614e-70 -0.00970858 0
2.97365e-69 -0.00970858 0
1.43063e-69 -0.00970858 0
2.74227e-69 -0.00970858 0
-1.49473e-69 -0.00970858 0
1.09196e-69 -0.00970858 0
-3.94759e-69 -0.00970858 0
-3.612e-70 -0.00970858 0
-4.15556e-69 -0.00970858 0
SCALARS radius double 1
LOOKUP_TABLE default
0.000621415
0.000750874
0.000735541
0.000522882
0.000780242
0.00097475
0.000994168
0.000790412
0.000880848
0.000720838
0.000933918
0.000958934
0.000753488
0.00054522
0.000712397
0.000950783
0.000807753
0.000836475
0.000569299
0.000603945
0.000628319
0.000580291
0.000777192
0.000692678
0.00055675
SCALARS mass double 1
LOOKUP_TABLE default
0.00327549
0.00478242
0.00458909
0.0023191
0.00516383
0.00805935
0.00838365
0.00529932
0.00658136
0.00440747
0.00739829
0.00779994
0.00481578
0.00252149
0.00430484
0.0076679
0.0055344
0.00593499
0.00274913
0.00309392
0.00334869
0.00285631
0.00512354
0.00406984
0.00262926
