# vtk DataFile Version 3.0
DEM2D particles
ASCII
DATASET POLYDATA
POINTS 25 double
0.000436511 0.000506583 0
0.00259373 0.000294609 0
0.00503527 0.0010859 0
0.0075525 -0.000362687 0
0.00982669 -0.00020475 0
0.00134532 0.00267037 0
0.00385427 0.00215882 0
0.0049179 0.00126832 0
0.00662312 0.00290445 0
0.00923317 0.00221827 0
0.000767124 0.00440586 0
0.0037611 0.00329842 0
0.00456232 0.00448459 0
0.00622589 0.00470282 0
0.00871364 0.00395212 0
0.00180206 0.00611765 0
0.00309208 0.00542079 0
0.0055426 0.00586078 0
0.00726105 0.00700364 0
0.00950038 0.00680863 0
0.000727257 0.00799207 0
0.00319925 0.00734238 0
0.00427968 0.00841345 0
0.00693409 0.00785254 0
0.00824173 0.00828 0
VERTICES 25 50
1 0
1 1
1 2
1 3
1 4
1 5
1 6
1 7
1 8
1 9
1 10
1 11
1 12
1 13
1 14
1 15
1 16
1 17
1 18
1 19
1 20
1 21
1 22
1 23
1 24
POINT_DATA 25
VECTORS velocity double
-1.62223e-40 -0.00970858 0
-1.16962e-40 -0.00970858 0
1.01535e-41 -0.00970858 0
1.59061e-40 -0.00970858 0
2.37998e-40 -0.00970858 0
9.94147e-41 -0.00970858 0
2.45935e-40 -0.00970858 0
-2.36355e-41 -0.00970858 0
-1.085e-40 -0.00970858 0
6.71273e-41 -0.00970858 0
-6.70428e-41 -0.00970858 0
2.19114e-40 -0.00970858 0
-1.26005e-40 -0.00970858 0
-2.22859e-40 -0.00970858 0
-8.24407e-41 -0.00970858 0
2.30905e-40 -0.00970858 0
2.65081e-41 -0.00970858 0
1.5621e-40 -0.00970858 0
7.51531e-41 -0.00970858 0
1.44056e-40 -0.00970858 0
-7.85203e-41 -0.00970858 0
5.73622e-41 -0.00970858 0
-2.07373e-40 -0.00970858 0
-1.89743e-41 -0.00970858 0
-2.18298e-40 -0.00970858 0
SCALARS radius double 1
LOOKUP_TABLE default
0.000621415
0.000750874
0.000735541
0.000522882
0.000780242
0.00097475
0.000994168
0.000790412
0.000880848
0.000720838
0.000933918
0.000958934
0.000753488
0.00054522
0.000712397
0.000950783
0.000807753
0.000836475
0.000569299
0.000603945
0.000628319
0.000580291
0.000777192
0.000692678
0.00055675
SCALARS mass double 1
LOOKUP_TABLE default
0.00327549
0.00478242
0.00458909
0.0023191
0.00516383
0.00805935
0.00838365
0.00529932
0.00658136
0.00440747
0.00739829
0.00779994
0.00481578
0.00252149
0.00430484
0.0076679
0.0055344
0.00593499
0.00274913
0.00309392
0.00334869
0.00285631
0.00512354
0.00406984
0.00262926
