# vtk DataFile Version 3.0
DEM2D particles
ASCII
DATASET POLYDATA
POINTS 25 double
0.000436511 0.00120948 0
0.00259373 0.000997511 0
0.00503527 0.0017888 0
0.0075525 0.000340214 0
0.00982669 0.000498151 0
0.00134532 0.00337327 0
0.00385427 0.00286172 0
0.0049179 0.00197122 0
0.00662312 0.00360735 0
0.00923317 0.00292117 0
0.000767124 0.00510876 0
0.0037611 0.00400132 0
0.00456232 0.00518749 0
0.00622589 0.00540572 0
0.00871364 0.00465502 0
0.00180206 0.00682055 0
0.00309208 0.00612369 0
0.0055426 0.00656368 0
0.00726105 0.00770655 0
0.00950038 0.00751153 0
0.000727257 0.00869498 0
0.00319925 0.00804528 0
0.00427968 0.00911635 0
0.00693409 0.00855544 0
0.00824173 0.00898291 0
VERTICES 25 50
1 0
1 1
1 2
1 3
1 4
1 5
1 6
1 7
1 8
1 9
1 10
1 11
1 12
1 13
1 14
1 15
1 16
1 17
1 18
1 19
1 20
1 21
1 22
1 23
1 24
POINT_DATA 25
VECTORS velocity double
-6.47596e-09 -0.00970858 0
-4.66912e-09 -0.00970858 0
4.05329e-10 -0.00970857 0
6.34971e-09 -0.00970859 0
9.50088e-09 -0.00970859 0
3.96864e-09 -0.00970858 0
9.81775e-09 -0.00970858 0
-9.4353e-10 -0.00970859 0
-4.33133e-09 -0.00970857 0
2.67973e-09 -0.00970858 0
-2.67635e-09 -0.00970858 0
8.74706e-09 -0.00970859 0
-5.03012e-09 -0.00970858 0
-8.89656e-09 -0.00970858 0
-3.29104e-09 -0.00970859 0
9.21773e-09 -0.00970858 0
1.0582e-09 -0.00970859 0
6.23591e-09 -0.00970859 0
3.00012e-09 -0.00970857 0
5.75071e-09 -0.00970858 0
-3.13453e-09 -0.00970858 0
2.2899e-09 -0.00970859 0
-8.27832e-09 -0.00970858 0
-7.57457e-10 -0.00970859 0
-8.71445e-09 -0.00970858 0
SCALARS radius double 1
LOOKUP_TABLE default
0.000621415
0.000750874
0.000735541
0.000522882
0.000780242
0.00097475
0.000994168
0.000790412
0.000880848
0.000720838
0.000933918
0.000958934
0.000753488
0.00054522
0.000712397
0.000950783
0.000807753
0.000836475
0.000569299
0.000603945
0.000628319
0.000580291
0.000777192
0.000692678
0.00055675
SCALARS mass double 1
LOOKUP_TABLE default
0.00327549
0.00478242
0.00458909
0.0023191
0.00516383
0.00805935
0.00838365
0.00529932
0.00658136
0.00440747
0.00739829
0.00779994
0.00481578
0.00252149
0.00430484
0.0076679
0.0055344
0.00593499
0.00274913
0.00309392
0.00334869
0.00285631
0.00512354
0.00406984
0.00262926
