# vtk DataFile Version 3.0
DEM2D particles
ASCII
DATASET POLYDATA
POINTS 25 double
0.000436511 0.000776482 0
0.00259373 0.000564508 0
0.00503527 0.0013558 0
0.0075525 -9.27886e-05 0
0.00982669 6.51484e-05 0
0.00134532 0.00294027 0
0.00385427 0.00242872 0
0.0049179 0.00153821 0
0.00662312 0.00317435 0
0.00923317 0.00248817 0
0.000767124 0.00467576 0
0.0037611 0.00356831 0
0.00456232 0.00475449 0
0.00622589 0.00497272 0
0.00871364 0.00422202 0
0.00180206 0.00638755 0
0.00309208 0.00569069 0
0.0055426 0.00613068 0
0.00726105 0.00727354 0
0.00950038 0.00707853 0
0.000727257 0.00826197 0
0.00319925 0.00761227 0
0.00427968 0.00868335 0
0.00693409 0.00812244 0
0.00824173 0.0085499 0
VERTICES 25 50
1 0
1 1
1 2
1 3
1 4
1 5
1 6
1 7
1 8
1 9
1 10
1 11
1 12
1 13
1 14
1 15
1 16
1 17
1 18
1 19
1 20
1 21
1 22
1 23
1 24
POINT_DATA 25
VECTORS velocity double
-2.20939e-28 -0.00970858 0
-1.59295e-28 -0.00970858 0
1.38285e-29 -0.00970858 0
2.16632e-28 -0.00970858 0
3.24139e-28 -0.00970858 0
1.35397e-28 -0.00970858 0
3.3495e-28 -0.00970858 0
-3.21902e-29 -0.00970858 0
-1.47771e-28 -0.00970858 0
9.14236e-29 -0.00970858 0
-9.13085e-29 -0.00970858 0
2.98421e-28 -0.00970858 0
-1.71612e-28 -0.00970858 0
-3.03522e-28 -0.00970858 0
-1.1228e-28 -0.00970858 0
3.14479e-28 -0.00970858 0
3.61025e-29 -0.00970858 0
2.12749e-28 -0.00970858 0
1.02354e-28 -0.00970858 0
1.96196e-28 -0.00970858 0
-1.0694e-28 -0.00970858 0
7.81241e-29 -0.00970858 0
-2.8243e-28 -0.00970858 0
-2.5842e-29 -0.00970858 0
-2.97309e-28 -0.00970858 0
SCALARS radius double 1
LOOKUP_TABLE default
0.000621415
0.000750874
0.000735541
0.000522882
0.000780242
0.00097475
0.000994168
0.000790412
0.000880848
0.000720838
0.000933918
0.000958934
0.000753488
0.00054522
0.000712397
0.000950783
0.000807753
0.000836475
0.000569299
0.000603945
0.000628319
0.000580291
0.000777192
0.000692678
0.00055675
SCALARS mass double 1
LOOKUP_TABLE default
0.00327549
0.00478242
0.00458909
0.0023191
0.00516383
0.00805935
0.00838365
0.00529932
0.00658136
0.00440747
0.00739829
0.00779994
0.00481578
0.00252149
0.00430484
0.0076679
0.0055344
0.00593499
0.00274913
0.00309392
0.00334869
0.00285631
0.00512354
0.00406984
0.00262926
