# vtk DataFile Version 3.0
DEM2D particles
ASCII
DATASET POLYDATA
POINTS 25 double
0.000436511 -0.00040214 0
0.00259373 -0.000614114 0
0.00503527 0.000177176 0
0.0075525 -0.00127141 0
0.00982669 -0.00111347 0
0.00134532 0.00176165 0
0.00385427 0.0012501 0
0.0049179 0.000359592 0
0.00662312 0.00199573 0
0.00923317 0.00130955 0
0.000767124 0.00349713 0
0.0037611 0.00238969 0
0.00456232 0.00357587 0
0.00622589 0.00379409 0
0.00871364 0.0030434 0
0.00180206 0.00520893 0
0.00309208 0.00451207 0
0.0055426 0.00495206 0
0.00726105 0.00609492 0
0.00950038 0.00589991 0
0.000727257 0.00708335 0
0.00319925 0.00643365 0
0.00427968 0.00750473 0
0.00693409 0.00694382 0
0.00824173 0.00737128 0
VERTICES 25 50
1 0
1 1
1 2
1 3
1 4
1 5
1 6
1 7
1 8
1 9
1 10
1 11
1 12
1 13
1 14
1 15
1 16
1 17
1 18
1 19
1 20
1 21
1 22
1 23
1 24
POINT_DATA 25
VECTORS velocity double
-2.26743e-81 -0.00970858 0
-1.6348e-81 -0.00970858 0
1.41918e-82 -0.00970858 0
2.22323e-81 -0.00970858 0
3.32655e-81 -0.00970858 0
1.38954e-81 -0.00970858 0
3.4375e-81 -0.00970858 0
-3.30359e-82 -0.00970858 0
-1.51653e-81 -0.00970858 0
9.38255e-82 -0.00970858 0
-9.37073e-82 -0.00970858 0
3.06262e-81 -0.00970858 0
-1.7612e-81 -0.00970858 0
-3.11496e-81 -0.00970858 0
-1.15229e-81 -0.00970858 0
3.22741e-81 -0.00970858 0
3.7051e-82 -0.00970858 0
2.18339e-81 -0.00970858 0
1.05043e-81 -0.00970858 0
2.0135e-81 -0.00970858 0
-1.0975e-81 -0.00970858 0
8.01766e-82 -0.00970858 0
-2.8985e-81 -0.00970858 0
-2.65209e-82 -0.00970858 0
-3.0512e-81 -0.00970858 0
SCALARS radius double 1
LOOKUP_TABLE default
0.000621415
0.000750874
0.000735541
0.000522882
0.000780242
0.00097475
0.000994168
0.000790412
0.000880848
0.000720838
0.000933918
0.000958934
0.000753488
0.00054522
0.000712397
0.000950783
0.000807753
0.000836475
0.000569299
0.000603945
0.000628319
0.000580291
0.000777192
0.000692678
0.00055675
SCALARS mass double 1
LOOKUP_TABLE default
0.00327549
0.00478242
0.00458909
0.0023191
0.00516383
0.00805935
0.00838365
0.00529932
0.00658136
0.00440747
0.00739829
0.00779994
0.00481578
0.00252149
0.00430484
0.0076679
0.0055344
0.00593499
0.00274913
0.00309392
0.00334869
0.00285631
0.00512354
0.00406984
0.00262926
