# vtk DataFile Version 3.0
DEM2D particles
ASCII
DATASET POLYDATA
POINTS 25 double
0.000436511 -0.000118649 0
0.00259373 -0.000330623 0
0.00503527 0.000460667 0
0.0075525 -0.00098792 0
0.00982669 -0.000829983 0
0.00134532 0.00204514 0
0.00385427 0.00153359 0
0.0049179 0.000643082 0
0.00662312 0.00227922 0
0.00923317 0.00159304 0
0.000767124 0.00378063 0
0.0037611 0.00267318 0
0.00456232 0.00385936 0
0.00622589 0.00407758 0
0.00871364 0.00332689 0
0.00180206 0.00549242 0
0.00309208 0.00479556 0
0.0055426 0.00523555 0
0.00726105 0.00637841 0
0.00950038 0.0061834 0
0.000727257 0.00736684 0
0.00319925 0.00671714 0
0.00427968 0.00778822 0
0.00693409 0.00722731 0
0.00824173 0.00765477 0
VERTICES 25 50
1 0
1 1
1 2
1 3
1 4
1 5
1 6
1 7
1 8
1 9
1 10
1 11
1 12
1 13
1 14
1 15
1 16
1 17
1 18
1 19
1 20
1 21
1 22
1 23
1 24
POINT_DATA 25
VECTORS velocity double
-1.26115e-68 -0.00970858 0
-9.09279e-69 -0.00970858 0
7.89351e-70 -0.00970858 0
1.23656e-68 -0.00970858 0
1.85023e-68 -0.00970858 0
7.72866e-69 -0.00970858 0
1.91194e-68 -0.00970858 0
-1.83746e-69 -0.00970858 0
-8.43497e-69 -0.00970858 0
5.21858e-69 -0.00970858 0
-5.21201e-69 -0.00970858 0
1.70343e-68 -0.00970858 0
-9.79582e-69 -0.00970858 0
-1.73254e-68 -0.00970858 0
-6.40907e-69 -0.00970858 0
1.79509e-68 -0.00970858 0
2.06078e-69 -0.00970858 0
1.2144e-68 -0.00970858 0
5.84252e-69 -0.00970858 0
1.11991e-68 -0.00970858 0
-6.10429e-69 -0.00970858 0
4.45943e-69 -0.00970858 0
-1.61215e-68 -0.00970858 0
-1.47509e-69 -0.00970858 0
-1.69708e-68 -0.00970858 0
SCALARS radius double 1
LOOKUP_TABLE default
0.000621415
0.000750874
0.000735541
0.000522882
0.000780242
0.00097475
0.000994168
0.000790412
0.000880848
0.000720838
0.000933918
0.000958934
0.000753488
0.00054522
0.000712397
0.000950783
0.000807753
0.000836475
0.000569299
0.000603945
0.000628319
0.000580291
0.000777192
0.000692678
0.00055675
SCALARS mass double 1
LOOKUP_TABLE default
0.00327549
0.00478242
0.00458909
0.0023191
0.00516383
0.00805935
0.00838365
0.00529932
0.00658136
0.00440747
0.00739829
0.00779994
0.00481578
0.00252149
0.00430484
0.0076679
0.0055344
0.00593499
0.00274913
0.00309392
0.00334869
0.00285631
0.00512354
0.00406984
0.00262926
