# vtk DataFile Version 3.0
DEM2D particles
ASCII
DATASET POLYDATA
POINTS 25 double
0.000436511 0.000628912 0
0.00259373 0.000416937 0
0.00503527 0.00120823 0
0.0075525 -0.000240359 0
0.00982669 -8.24221e-05 0
0.00134532 0.0027927 0
0.00385427 0.00228115 0
0.0049179 0.00139064 0
0.00662312 0.00302678 0
0.00923317 0.0023406 0
0.000767124 0.00452819 0
0.0037611 0.00342074 0
0.00456232 0.00460692 0
0.00622589 0.00482514 0
0.00871364 0.00407445 0
0.00180206 0.00623998 0
0.00309208 0.00554312 0
0.0055426 0.00598311 0
0.00726105 0.00712597 0
0.00950038 0.00693096 0
0.000727257 0.0081144 0
0.00319925 0.0074647 0
0.00427968 0.00853578 0
0.00693409 0.00797487 0
0.00824173 0.00840233 0
VERTICES 25 50
1 0
1 1
1 2
1 3
1 4
1 5
1 6
1 7
1 8
1 9
1 10
1 11
1 12
1 13
1 14
1 15
1 16
1 17
1 18
1 19
1 20
1 21
1 22
1 23
1 24
POINT_DATA 25
VECTORS velocity double
-5.12588e-35 -0.00970858 0
-3.69572e-35 -0.00970858 0
3.20828e-36 -0.00970858 0
5.02594e-35 -0.00970858 0
7.52017e-35 -0.00970858 0
3.14127e-35 -0.00970858 0
7.77098e-35 -0.00970858 0
-7.46826e-36 -0.00970858 0
-3.42835e-35 -0.00970858 0
2.12107e-35 -0.00970858 0
-2.1184e-35 -0.00970858 0
6.9235e-35 -0.00970858 0
-3.98146e-35 -0.00970858 0
-7.04183e-35 -0.00970858 0
-2.60493e-35 -0.00970858 0
7.29605e-35 -0.00970858 0
8.37594e-36 -0.00970858 0
4.93587e-35 -0.00970858 0
2.37466e-35 -0.00970858 0
4.55182e-35 -0.00970858 0
-2.48106e-35 -0.00970858 0
1.81251e-35 -0.00970858 0
-6.55249e-35 -0.00970858 0
-5.99545e-36 -0.00970858 0
-6.89769e-35 -0.00970858 0
SCALARS radius double 1
LOOKUP_TABLE default
0.000621415
0.000750874
0.000735541
0.000522882
0.000780242
0.00097475
0.000994168
0.000790412
0.000880848
0.000720838
0.000933918
0.000958934
0.000753488
0.00054522
0.000712397
0.000950783
0.000807753
0.000836475
0.000569299
0.000603945
0.000628319
0.000580291
0.000777192
0.000692678
0.00055675
SCALARS mass double 1
LOOKUP_TABLE default
0.00327549
0.00478242
0.00458909
0.0023191
0.00516383
0.00805935
0.00838365
0.00529932
0.00658136
0.00440747
0.00739829
0.00779994
0.00481578
0.00252149
0.00430484
0.0076679
0.0055344
0.00593499
0.00274913
0.00309392
0.00334869
0.00285631
0.00512354
0.00406984
0.00262926
