# vtk DataFile Version 3.0
DEM2D particles
ASCII
DATASET POLYDATA
POINTS 25 double
0.000436511 0.000467749 0
0.00259373 0.000255775 0
0.00503527 0.00104707 0
0.0075525 -0.000401522 0
0.00982669 -0.000243585 0
0.00134532 0.00263154 0
0.00385427 0.00211998 0
0.0049179 0.00122948 0
0.00662312 0.00286562 0
0.00923317 0.00217943 0
0.000767124 0.00436702 0
0.0037611 0.00325958 0
0.00456232 0.00444576 0
0.00622589 0.00466398 0
0.00871364 0.00391329 0
0.00180206 0.00607882 0
0.00309208 0.00538195 0
0.0055426 0.00582195 0
0.00726105 0.00696481 0
0.00950038 0.0067698 0
0.000727257 0.00795324 0
0.00319925 0.00730354 0
0.00427968 0.00837462 0
0.00693409 0.00781371 0
0.00824173 0.00824117 0
VERTICES 25 50
1 0
1 1
1 2
1 3
1 4
1 5
1 6
1 7
1 8
1 9
1 10
1 11
1 12
1 13
1 14
1 15
1 16
1 17
1 18
1 19
1 20
1 21
1 22
1 23
1 24
POINT_DATA 25
VECTORS velocity double
-2.912e-42 -0.00970858 0
-2.09953e-42 -0.00970858 0
1.82261e-43 -0.00970858 0
2.85523e-42 -0.00970858 0
4.27219e-42 -0.00970858 0
1.78455e-42 -0.00970858 0
4.41468e-42 -0.00970858 0
-4.2427e-43 -0.00970858 0
-1.94764e-42 -0.00970858 0
1.20497e-42 -0.00970858 0
-1.20346e-42 -0.00970858 0
3.93323e-42 -0.00970858 0
-2.26186e-42 -0.00970858 0
-4.00045e-42 -0.00970858 0
-1.47986e-42 -0.00970858 0
4.14487e-42 -0.00970858 0
4.75835e-43 -0.00970858 0
2.80406e-42 -0.00970858 0
1.34904e-42 -0.00970858 0
2.58588e-42 -0.00970858 0
-1.40948e-42 -0.00970858 0
1.02968e-42 -0.00970858 0
-3.72245e-42 -0.00970858 0
-3.406e-43 -0.00970858 0
-3.91856e-42 -0.00970858 0
SCALARS radius double 1
LOOKUP_TABLE default
0.000621415
0.000750874
0.000735541
0.000522882
0.000780242
0.00097475
0.000994168
0.000790412
0.000880848
0.000720838
0.000933918
0.000958934
0.000753488
0.00054522
0.000712397
0.000950783
0.000807753
0.000836475
0.000569299
0.000603945
0.000628319
0.000580291
0.000777192
0.000692678
0.00055675
SCALARS mass double 1
LOOKUP_TABLE default
0.00327549
0.00478242
0.00458909
0.0023191
0.00516383
0.00805935
0.00838365
0.00529932
0.00658136
0.00440747
0.00739829
0.00779994
0.00481578
0.00252149
0.00430484
0.0076679
0.0055344
0.00593499
0.00274913
0.00309392
0.00334869
0.00285631
0.00512354
0.00406984
0.00262926
