# vtk DataFile Version 3.0
DEM2D particles
ASCII
DATASET POLYDATA
POINTS 25 double
0.000436511 0.000611436 0
0.00259373 0.000399462 0
0.00503527 0.00119075 0
0.0075525 -0.000257835 0
0.00982669 -9.98975e-05 0
0.00134532 0.00277522 0
0.00385427 0.00226367 0
0.0049179 0.00137317 0
0.00662312 0.00300931 0
0.00923317 0.00232312 0
0.000767124 0.00451071 0
0.0037611 0.00340327 0
0.00456232 0.00458944 0
0.00622589 0.00480767 0
0.00871364 0.00405697 0
0.00180206 0.0062225 0
0.00309208 0.00552564 0
0.0055426 0.00596564 0
0.00726105 0.0071085 0
0.00950038 0.00691348 0
0.000727257 0.00809693 0
0.00319925 0.00744723 0
0.00427968 0.0085183 0
0.00693409 0.0079574 0
0.00824173 0.00838486 0
VERTICES 25 50
1 0
1 1
1 2
1 3
1 4
1 5
1 6
1 7
1 8
1 9
1 10
1 11
1 12
1 13
1 14
1 15
1 16
1 17
1 18
1 19
1 20
1 21
1 22
1 23
1 24
POINT_DATA 25
VECTORS velocity double
-8.39659e-36 -0.00970858 0
-6.05388e-36 -0.00970858 0
5.25541e-37 -0.00970858 0
8.2329e-36 -0.00970858 0
1.23186e-35 -0.00970858 0
5.14565e-36 -0.00970858 0
1.27295e-35 -0.00970858 0
-1.22336e-36 -0.00970858 0
-5.61591e-36 -0.00970858 0
3.47448e-36 -0.00970858 0
-3.4701e-36 -0.00970858 0
1.13412e-35 -0.00970858 0
-6.52195e-36 -0.00970858 0
-1.15351e-35 -0.00970858 0
-4.26709e-36 -0.00970858 0
1.19515e-35 -0.00970858 0
1.37205e-36 -0.00970858 0
8.08535e-36 -0.00970858 0
3.88989e-36 -0.00970858 0
7.45625e-36 -0.00970858 0
-4.06417e-36 -0.00970858 0
2.96904e-36 -0.00970858 0
-1.07335e-35 -0.00970858 0
-9.82102e-37 -0.00970858 0
-1.1299e-35 -0.00970858 0
SCALARS radius double 1
LOOKUP_TABLE default
0.000621415
0.000750874
0.000735541
0.000522882
0.000780242
0.00097475
0.000994168
0.000790412
0.000880848
0.000720838
0.000933918
0.000958934
0.000753488
0.00054522
0.000712397
0.000950783
0.000807753
0.000836475
0.000569299
0.000603945
0.000628319
0.000580291
0.000777192
0.000692678
0.00055675
SCALARS mass double 1
LOOKUP_TABLE default
0.00327549
0.00478242
0.00458909
0.0023191
0.00516383
0.00805935
0.00838365
0.00529932
0.00658136
0.00440747
0.00739829
0.00779994
0.00481578
0.00252149
0.00430484
0.0076679
0.0055344
0.00593499
0.00274913
0.00309392
0.00334869
0.00285631
0.00512354
0.00406984
0.00262926
