# vtk DataFile Version 3.0
DEM2D particles
ASCII
DATASET POLYDATA
POINTS 25 double
0.000436512 0.0012522 0
0.00259373 0.00104023 0
0.00503527 0.00183152 0
0.0075525 0.000382932 0
0.00982669 0.000540869 0
0.00134532 0.00341599 0
0.00385427 0.00290444 0
0.0049179 0.00201394 0
0.00662312 0.00365007 0
0.00923317 0.00296389 0
0.000767124 0.00515148 0
0.0037611 0.00404404 0
0.00456232 0.00523021 0
0.00622589 0.00544844 0
0.00871364 0.00469774 0
0.00180206 0.00686327 0
0.00309208 0.00616641 0
0.0055426 0.0066064 0
0.00726105 0.00774926 0
0.00950038 0.00755425 0
0.000727257 0.00873769 0
0.00319925 0.008088 0
0.00427968 0.00915907 0
0.00693409 0.00859816 0
0.00824174 0.00902562 0
VERTICES 25 50
1 0
1 1
1 2
1 3
1 4
1 5
1 6
1 7
1 8
1 9
1 10
1 11
1 12
1 13
1 14
1 15
1 16
1 17
1 18
1 19
1 20
1 21
1 22
1 23
1 24
POINT_DATA 25
VECTORS velocity double
-5.39286e-07 -0.00970821 0
-3.88821e-07 -0.00970842 0
3.37538e-08 -0.00970766 0
5.28772e-07 -0.00970905 0
7.91186e-07 -0.00970889 0
3.30488e-07 -0.00970806 0
8.17573e-07 -0.00970855 0
-7.85724e-08 -0.0097094 0
-3.60691e-07 -0.00970783 0
2.23154e-07 -0.00970849 0
-2.22873e-07 -0.00970831 0
7.28411e-07 -0.00970937 0
-4.18883e-07 -0.00970823 0
-7.4086e-07 -0.00970803 0
-2.74061e-07 -0.00970874 0
7.67606e-07 -0.00970859 0
8.8122e-08 -0.00970925 0
5.19295e-07 -0.00970883 0
2.49835e-07 -0.00970774 0
4.7889e-07 -0.00970792 0
-2.61028e-07 -0.00970871 0
1.90692e-07 -0.00970933 0
-6.89377e-07 -0.0097083 0
-6.30772e-08 -0.00970884 0
-7.25696e-07 -0.00970843 0
SCALARS radius double 1
LOOKUP_TABLE default
0.000621415
0.000750874
0.000735541
0.000522882
0.000780242
0.00097475
0.000994168
0.000790412
0.000880848
0.000720838
0.000933918
0.000958934
0.000753488
0.00054522
0.000712397
0.000950783
0.000807753
0.000836475
0.000569299
0.000603945
0.000628319
0.000580291
0.000777192
0.000692678
0.00055675
SCALARS mass double 1
LOOKUP_TABLE default
0.00327549
0.00478242
0.00458909
0.0023191
0.00516383
0.00805935
0.00838365
0.00529932
0.00658136
0.00440747
0.00739829
0.00779994
0.00481578
0.00252149
0.00430484
0.0076679
0.0055344
0.00593499
0.00274913
0.00309392
0.00334869
0.00285631
0.00512354
0.00406984
0.00262926
