# vtk DataFile Version 3.0
DEM2D particles
ASCII
DATASET POLYDATA
POINTS 25 double
0.000436511 0.00120172 0
0.00259373 0.000989744 0
0.00503527 0.00178103 0
0.0075525 0.000332447 0
0.00982669 0.000490384 0
0.00134532 0.0033655 0
0.00385427 0.00285395 0
0.0049179 0.00196345 0
0.00662312 0.00359959 0
0.00923317 0.0029134 0
0.000767124 0.00510099 0
0.0037611 0.00399355 0
0.00456232 0.00517973 0
0.00622589 0.00539795 0
0.00871364 0.00464725 0
0.00180206 0.00681279 0
0.00309208 0.00611592 0
0.0055426 0.00655592 0
0.00726105 0.00769878 0
0.00950038 0.00750377 0
0.000727257 0.00868721 0
0.00319925 0.00803751 0
0.00427968 0.00910859 0
0.00693409 0.00854768 0
0.00824173 0.00897514 0
VERTICES 25 50
1 0
1 1
1 2
1 3
1 4
1 5
1 6
1 7
1 8
1 9
1 10
1 11
1 12
1 13
1 14
1 15
1 16
1 17
1 18
1 19
1 20
1 21
1 22
1 23
1 24
POINT_DATA 25
VECTORS velocity double
-2.89814e-09 -0.00970858 0
-2.08954e-09 -0.00970858 0
1.81394e-10 -0.00970858 0
2.84164e-09 -0.00970859 0
4.25187e-09 -0.00970859 0
1.77606e-09 -0.00970858 0
4.39367e-09 -0.00970858 0
-4.22252e-10 -0.00970859 0
-1.93837e-09 -0.00970858 0
1.19924e-09 -0.00970858 0
-1.19773e-09 -0.00970858 0
3.91451e-09 -0.00970859 0
-2.2511e-09 -0.00970858 0
-3.98142e-09 -0.00970858 0
-1.47281e-09 -0.00970858 0
4.12515e-09 -0.00970858 0
4.73571e-10 -0.00970859 0
2.79072e-09 -0.00970858 0
1.34262e-09 -0.00970858 0
2.57358e-09 -0.00970858 0
-1.40278e-09 -0.00970858 0
1.02478e-09 -0.00970859 0
-3.70474e-09 -0.00970858 0
-3.38979e-10 -0.00970858 0
-3.89992e-09 -0.00970858 0
SCALARS radius double 1
LOOKUP_TABLE default
0.000621415
0.000750874
0.000735541
0.000522882
0.000780242
0.00097475
0.000994168
0.000790412
0.000880848
0.000720838
0.000933918
0.000958934
0.000753488
0.00054522
0.000712397
0.000950783
0.000807753
0.000836475
0.000569299
0.000603945
0.000628319
0.000580291
0.000777192
0.000692678
0.00055675
SCALARS mass double 1
LOOKUP_TABLE default
0.00327549
0.00478242
0.00458909
0.0023191
0.00516383
0.00805935
0.00838365
0.00529932
0.00658136
0.00440747
0.00739829
0.00779994
0.00481578
0.00252149
0.00430484
0.0076679
0.0055344
0.00593499
0.00274913
0.00309392
0.00334869
0.00285631
0.00512354
0.00406984
0.00262926
