# vtk DataFile Version 3.0
DEM2D particles
ASCII
DATASET POLYDATA
POINTS 25 double
0.000436693 0.00130839 0
0.00259386 0.00109648 0
0.00503526 0.00188752 0
0.00755233 0.000439397 0
0.00982643 0.000597284 0
0.00134521 0.00347212 0
0.00385399 0.00296074 0
0.00491793 0.00207052 0
0.00662324 0.00370613 0
0.00923309 0.00302017 0
0.000767199 0.00520769 0
0.00376086 0.00410061 0
0.00456246 0.0052864 0
0.00622614 0.00550456 0
0.00871373 0.0047541 0
0.0018018 0.00691958 0
0.00309205 0.00622294 0
0.00554243 0.0066628 0
0.00726096 0.00780529 0
0.00950022 0.00761034 0
0.000727345 0.00879404 0
0.00319919 0.00814456 0
0.00427992 0.00921529 0
0.00693411 0.00865456 0
0.00824198 0.00908188 0
VERTICES 25 50
1 0
1 1
1 2
1 3
1 4
1 5
1 6
1 7
1 8
1 9
1 10
1 11
1 12
1 13
1 14
1 15
1 16
1 17
1 18
1 19
1 20
1 21
1 22
1 23
1 24
POINT_DATA 25
VECTORS velocity double
-0.000183403 -0.00958289 0
-0.000132232 -0.00965188 0
1.14791e-05 -0.00939434 0
0.000179827 -0.00986582 0
0.00026907 -0.00981441 0
0.000112394 -0.00952958 0
0.000278044 -0.00969608 0
-2.67213e-05 -0.00998592 0
-0.000122666 -0.00945339 0
7.58913e-05 -0.00967673 0
-7.57957e-05 -0.00961567 0
0.000247721 -0.00997612 0
-0.000142456 -0.00959005 0
-0.000251955 -0.00951902 0
-9.32039e-05 -0.00976336 0
0.000261051 -0.00970948 0
2.99689e-05 -0.00993629 0
0.000176604 -0.00979308 0
8.49649e-05 -0.00942111 0
0.000162863 -0.00948458 0
-8.87717e-05 -0.00975035 0
6.48513e-05 -0.00996181 0
-0.000234447 -0.0096132 0
-2.14516e-05 -0.00979577 0
-0.000246798 -0.00965664 0
SCALARS radius double 1
LOOKUP_TABLE default
0.000621415
0.000750874
0.000735541
0.000522882
0.000780242
0.00097475
0.000994168
0.000790412
0.000880848
0.000720838
0.000933918
0.000958934
0.000753488
0.00054522
0.000712397
0.000950783
0.000807753
0.000836475
0.000569299
0.000603945
0.000628319
0.000580291
0.000777192
0.000692678
0.00055675
SCALARS mass double 1
LOOKUP_TABLE default
0.00327549
0.00478242
0.00458909
0.0023191
0.00516383
0.00805935
0.00838365
0.00529932
0.00658136
0.00440747
0.00739829
0.00779994
0.00481578
0.00252149
0.00430484
0.0076679
0.0055344
0.00593499
0.00274913
0.00309392
0.00334869
0.00285631
0.00512354
0.00406984
0.00262926
