# vtk DataFile Version 3.0
DEM2D particles
ASCII
DATASET POLYDATA
POINTS 25 double
0.000436511 -9.72905e-05 0
0.00259373 -0.000309265 0
0.00503527 0.000482026 0
0.0075525 -0.000966561 0
0.00982669 -0.000808624 0
0.00134532 0.0020665 0
0.00385427 0.00155494 0
0.0049179 0.000664441 0
0.00662312 0.00230058 0
0.00923317 0.00161439 0
0.000767124 0.00380198 0
0.0037611 0.00269454 0
0.00456232 0.00388072 0
0.00622589 0.00409894 0
0.00871364 0.00334825 0
0.00180206 0.00551378 0
0.00309208 0.00481691 0
0.0055426 0.00525691 0
0.00726105 0.00639977 0
0.00950038 0.00620476 0
0.000727257 0.0073882 0
0.00319925 0.0067385 0
0.00427968 0.00780958 0
0.00693409 0.00724867 0
0.00824173 0.00767613 0
VERTICES 25 50
1 0
1 1
1 2
1 3
1 4
1 5
1 6
1 7
1 8
1 9
1 10
1 11
1 12
1 13
1 14
1 15
1 16
1 17
1 18
1 19
1 20
1 21
1 22
1 23
1 24
POINT_DATA 25
VECTORS velocity double
-1.15086e-67 -0.00970858 0
-8.29764e-68 -0.00970858 0
7.20323e-69 -0.00970858 0
1.12843e-67 -0.00970858 0
1.68843e-67 -0.00970858 0
7.05279e-68 -0.00970858 0
1.74474e-67 -0.00970858 0
-1.67678e-68 -0.00970858 0
-7.69734e-68 -0.00970858 0
4.76222e-68 -0.00970858 0
-4.75623e-68 -0.00970858 0
1.55447e-67 -0.00970858 0
-8.93918e-68 -0.00970858 0
-1.58103e-67 -0.00970858 0
-5.8486e-68 -0.00970858 0
1.63811e-67 -0.00970858 0
1.88057e-68 -0.00970858 0
1.1082e-67 -0.00970858 0
5.3316e-68 -0.00970858 0
1.02198e-67 -0.00970858 0
-5.57047e-68 -0.00970858 0
4.06946e-68 -0.00970858 0
-1.47117e-67 -0.00970858 0
-1.3461e-68 -0.00970858 0
-1.54867e-67 -0.00970858 0
SCALARS radius double 1
LOOKUP_TABLE default
0.000621415
0.000750874
0.000735541
0.000522882
0.000780242
0.00097475
0.000994168
0.000790412
0.000880848
0.000720838
0.000933918
0.000958934
0.000753488
0.00054522
0.000712397
0.000950783
0.000807753
0.000836475
0.000569299
0.000603945
0.000628319
0.000580291
0.000777192
0.000692678
0.00055675
SCALARS mass double 1
LOOKUP_TABLE default
0.00327549
0.00478242
0.00458909
0.0023191
0.00516383
0.00805935
0.00838365
0.00529932
0.00658136
0.00440747
0.00739829
0.00779994
0.00481578
0.00252149
0.00430484
0.0076679
0.0055344
0.00593499
0.00274913
0.00309392
0.00334869
0.00285631
0.00512354
0.00406984
0.00262926
