# vtk DataFile Version 3.0
DEM2D particles
ASCII
DATASET POLYDATA
POINTS 25 double
0.000436511 -0.000297287 0
0.00259373 -0.000509261 0
0.00503527 0.000282029 0
0.0075525 -0.00116656 0
0.00982669 -0.00100862 0
0.00134532 0.0018665 0
0.00385427 0.00135495 0
0.0049179 0.000464445 0
0.00662312 0.00210058 0
0.00923317 0.0014144 0
0.000767124 0.00360199 0
0.0037611 0.00249455 0
0.00456232 0.00368072 0
0.00622589 0.00389895 0
0.00871364 0.00314825 0
0.00180206 0.00531378 0
0.00309208 0.00461692 0
0.0055426 0.00505691 0
0.00726105 0.00619977 0
0.00950038 0.00600476 0
0.000727257 0.0071882 0
0.00319925 0.00653851 0
0.00427968 0.00760958 0
0.00693409 0.00704867 0
0.00824173 0.00747613 0
VERTICES 25 50
1 0
1 1
1 2
1 3
1 4
1 5
1 6
1 7
1 8
1 9
1 10
1 11
1 12
1 13
1 14
1 15
1 16
1 17
1 18
1 19
1 20
1 21
1 22
1 23
1 24
POINT_DATA 25
VECTORS velocity double
-1.17361e-76 -0.00970858 0
-8.46165e-77 -0.00970858 0
7.34561e-78 -0.00970858 0
1.15073e-76 -0.00970858 0
1.72181e-76 -0.00970858 0
7.1922e-77 -0.00970858 0
1.77923e-76 -0.00970858 0
-1.70992e-77 -0.00970858 0
-7.84949e-77 -0.00970858 0
4.85636e-77 -0.00970858 0
-4.85024e-77 -0.00970858 0
1.58519e-76 -0.00970858 0
-9.11588e-77 -0.00970858 0
-1.61229e-76 -0.00970858 0
-5.96421e-77 -0.00970858 0
1.67049e-76 -0.00970858 0
1.91774e-77 -0.00970858 0
1.13011e-76 -0.00970858 0
5.43699e-77 -0.00970858 0
1.04218e-76 -0.00970858 0
-5.68058e-77 -0.00970858 0
4.1499e-77 -0.00970858 0
-1.50025e-76 -0.00970858 0
-1.37271e-77 -0.00970858 0
-1.57928e-76 -0.00970858 0
SCALARS radius double 1
LOOKUP_TABLE default
0.000621415
0.000750874
0.000735541
0.000522882
0.000780242
0.00097475
0.000994168
0.000790412
0.000880848
0.000720838
0.000933918
0.000958934
0.000753488
0.00054522
0.000712397
0.000950783
0.000807753
0.000836475
0.000569299
0.000603945
0.000628319
0.000580291
0.000777192
0.000692678
0.00055675
SCALARS mass double 1
LOOKUP_TABLE default
0.00327549
0.00478242
0.00458909
0.0023191
0.00516383
0.00805935
0.00838365
0.00529932
0.00658136
0.00440747
0.00739829
0.00779994
0.00481578
0.00252149
0.00430484
0.0076679
0.0055344
0.00593499
0.00274913
0.00309392
0.00334869
0.00285631
0.00512354
0.00406984
0.00262926
