# vtk DataFile Version 3.0
DEM2D particles
ASCII
DATASET POLYDATA
POINTS 25 double
0.000436511 0.000667746 0
0.00259373 0.000455772 0
0.00503527 0.00124706 0
0.0075525 -0.000201525 0
0.00982669 -4.35877e-05 0
0.00134532 0.00283153 0
0.00385427 0.00231998 0
0.0049179 0.00142948 0
0.00662312 0.00306562 0
0.00923317 0.00237943 0
0.000767124 0.00456702 0
0.0037611 0.00345958 0
0.00456232 0.00464575 0
0.00622589 0.00486398 0
0.00871364 0.00411328 0
0.00180206 0.00627881 0
0.00309208 0.00558195 0
0.0055426 0.00602195 0
0.00726105 0.00716481 0
0.00950038 0.00696979 0
0.000727257 0.00815324 0
0.00319925 0.00750354 0
0.00427968 0.00857461 0
0.00693409 0.00801371 0
0.00824173 0.00844117 0
VERTICES 25 50
1 0
1 1
1 2
1 3
1 4
1 5
1 6
1 7
1 8
1 9
1 10
1 11
1 12
1 13
1 14
1 15
1 16
1 17
1 18
1 19
1 20
1 21
1 22
1 23
1 24
POINT_DATA 25
VECTORS velocity double
-2.85555e-33 -0.00970858 0
-2.05883e-33 -0.00970858 0
1.78728e-34 -0.00970858 0
2.79988e-33 -0.00970858 0
4.18938e-33 -0.00970858 0
1.74996e-33 -0.00970858 0
4.3291e-33 -0.00970858 0
-4.16046e-34 -0.00970858 0
-1.90988e-33 -0.00970858 0
1.18162e-33 -0.00970858 0
-1.18013e-33 -0.00970858 0
3.85699e-33 -0.00970858 0
-2.21801e-33 -0.00970858 0
-3.92291e-33 -0.00970858 0
-1.45117e-33 -0.00970858 0
4.06453e-33 -0.00970858 0
4.66612e-34 -0.00970858 0
2.7497e-33 -0.00970858 0
1.32289e-33 -0.00970858 0
2.53576e-33 -0.00970858 0
-1.38216e-33 -0.00970858 0
1.00972e-33 -0.00970858 0
-3.6503e-33 -0.00970858 0
-3.33998e-34 -0.00970858 0
-3.84261e-33 -0.00970858 0
SCALARS radius double 1
LOOKUP_TABLE default
0.000621415
0.000750874
0.000735541
0.000522882
0.000780242
0.00097475
0.000994168
0.000790412
0.000880848
0.000720838
0.000933918
0.000958934
0.000753488
0.00054522
0.000712397
0.000950783
0.000807753
0.000836475
0.000569299
0.000603945
0.000628319
0.000580291
0.000777192
0.000692678
0.00055675
SCALARS mass double 1
LOOKUP_TABLE default
0.00327549
0.00478242
0.00458909
0.0023191
0.00516383
0.00805935
0.00838365
0.00529932
0.00658136
0.00440747
0.00739829
0.00779994
0.00481578
0.00252149
0.00430484
0.0076679
0.0055344
0.00593499
0.00274913
0.00309392
0.00334869
0.00285631
0.00512354
0.00406984
0.00262926
