# vtk DataFile Version 3.0
DEM2D particles
ASCII
DATASET POLYDATA
POINTS 25 double
0.000437418 0.00132342 0
0.00259438 0.00111179 0
0.00503521 0.00190181 0
0.00755161 0.000455553 0
0.00982536 0.000613236 0
0.00134477 0.00348695 0
0.00385289 0.00297622 0
0.00491803 0.00208715 0
0.00662373 0.00372065 0
0.00923279 0.00303557 0
0.000767499 0.00522286 0
0.00375988 0.0041172 0
0.00456302 0.00530147 0
0.00622713 0.00551934 0
0.0087141 0.00476985 0
0.00180077 0.00693512 0
0.00309193 0.00623938 0
0.00554173 0.00667866 0
0.00726063 0.00781969 0
0.00949958 0.00762499 0
0.000727696 0.00880974 0
0.00319893 0.00816109 0
0.00428084 0.00923044 0
0.0069342 0.00867044 0
0.00824295 0.00909721 0
VERTICES 25 50
1 0
1 1
1 2
1 3
1 4
1 5
1 6
1 7
1 8
1 9
1 10
1 11
1 12
1 13
1 14
1 15
1 16
1 17
1 18
1 19
1 20
1 21
1 22
1 23
1 24
POINT_DATA 25
VECTORS velocity double
-0.000915745 -0.00908099 0
-0.000660246 -0.00942547 0
5.73163e-05 -0.00813952 0
0.000897893 -0.0104937 0
0.00134349 -0.010237 0
0.000561193 -0.00881481 0
0.0013883 -0.00964615 0
-0.000133422 -0.0110933 0
-0.00061248 -0.00843439 0
0.000378932 -0.00954954 0
-0.000378454 -0.00924468 0
0.00123689 -0.0110444 0
-0.000711294 -0.00911673 0
-0.00125803 -0.00876208 0
-0.000465375 -0.00998206 0
0.00130345 -0.00971305 0
0.000149637 -0.0108455 0
0.000881801 -0.0101305 0
0.000424237 -0.0082732 0
0.00081319 -0.00859012 0
-0.000443244 -0.00991713 0
0.000323808 -0.010973 0
-0.00117061 -0.00923234 0
-0.00010711 -0.0101439 0
-0.00123228 -0.00944921 0
SCALARS radius double 1
LOOKUP_TABLE default
0.000621415
0.000750874
0.000735541
0.000522882
0.000780242
0.00097475
0.000994168
0.000790412
0.000880848
0.000720838
0.000933918
0.000958934
0.000753488
0.00054522
0.000712397
0.000950783
0.000807753
0.000836475
0.000569299
0.000603945
0.000628319
0.000580291
0.000777192
0.000692678
0.00055675
SCALARS mass double 1
LOOKUP_TABLE default
0.00327549
0.00478242
0.00458909
0.0023191
0.00516383
0.00805935
0.00838365
0.00529932
0.00658136
0.00440747
0.00739829
0.00779994
0.00481578
0.00252149
0.00430484
0.0076679
0.0055344
0.00593499
0.00274913
0.00309392
0.00334869
0.00285631
0.00512354
0.00406984
0.00262926
