# vtk DataFile Version 3.0
DEM2D particles
ASCII
DATASET POLYDATA
POINTS 25 double
0.000436511 0.00012989 0
0.00259373 -8.20838e-05 0
0.00503527 0.000709207 0
0.0075525 -0.00073938 0
0.00982669 -0.000581443 0
0.00134532 0.00229368 0
0.00385427 0.00178213 0
0.0049179 0.000891622 0
0.00662312 0.00252776 0
0.00923317 0.00184158 0
0.000767124 0.00402916 0
0.0037611 0.00292172 0
0.00456232 0.0041079 0
0.00622589 0.00432612 0
0.00871364 0.00357543 0
0.00180206 0.00574096 0
0.00309208 0.0050441 0
0.0055426 0.00548409 0
0.00726105 0.00662695 0
0.00950038 0.00643194 0
0.000727257 0.00761538 0
0.00319925 0.00696568 0
0.00427968 0.00803676 0
0.00693409 0.00747585 0
0.00824173 0.00790331 0
VERTICES 25 50
1 0
1 1
1 2
1 3
1 4
1 5
1 6
1 7
1 8
1 9
1 10
1 11
1 12
1 13
1 14
1 15
1 16
1 17
1 18
1 19
1 20
1 21
1 22
1 23
1 24
POINT_DATA 25
VECTORS velocity double
-1.88221e-57 -0.00970858 0
-1.35706e-57 -0.00970858 0
1.17807e-58 -0.00970858 0
1.84552e-57 -0.00970858 0
2.76139e-57 -0.00970858 0
1.15347e-57 -0.00970858 0
2.85349e-57 -0.00970858 0
-2.74233e-58 -0.00970858 0
-1.25888e-57 -0.00970858 0
7.78851e-58 -0.00970858 0
-7.7787e-58 -0.00970858 0
2.5423e-57 -0.00970858 0
-1.46198e-57 -0.00970858 0
-2.58575e-57 -0.00970858 0
-9.56525e-58 -0.00970858 0
2.67909e-57 -0.00970858 0
3.07563e-58 -0.00970858 0
1.81244e-57 -0.00970858 0
8.71971e-58 -0.00970858 0
1.67142e-57 -0.00970858 0
-9.11039e-58 -0.00970858 0
6.65551e-58 -0.00970858 0
-2.40606e-57 -0.00970858 0
-2.20152e-58 -0.00970858 0
-2.53282e-57 -0.00970858 0
SCALARS radius double 1
LOOKUP_TABLE default
0.000621415
0.000750874
0.000735541
0.000522882
0.000780242
0.00097475
0.000994168
0.000790412
0.000880848
0.000720838
0.000933918
0.000958934
0.000753488
0.00054522
0.000712397
0.000950783
0.000807753
0.000836475
0.000569299
0.000603945
0.000628319
0.000580291
0.000777192
0.000692678
0.00055675
SCALARS mass double 1
LOOKUP_TABLE default
0.00327549
0.00478242
0.00458909
0.0023191
0.00516383
0.00805935
0.00838365
0.00529932
0.00658136
0.00440747
0.00739829
0.00779994
0.00481578
0.00252149
0.00430484
0.0076679
0.0055344
0.00593499
0.00274913
0.00309392
0.00334869
0.00285631
0.00512354
0.00406984
0.00262926
