# vtk DataFile Version 3.0
DEM2D particles
ASCII
DATASET POLYDATA
POINTS 25 double
0.000464145 0.00133812 0
0.00261365 0.00113654 0
0.00503354 0.00188902 0
0.00752541 0.000511476 0
0.00978615 0.000661667 0
0.00132839 0.00349387 0
0.00381237 0.00300741 0
0.00492193 0.00216057 0
0.0066416 0.00371647 0
0.00922173 0.00306394 0
0.000778545 0.00524233 0
0.00372378 0.0041892 0
0.00458378 0.0053172 0
0.00626385 0.00552473 0
0.00872768 0.00481085 0
0.00176272 0.00696826 0
0.00308756 0.00630557 0
0.00551599 0.00672399 0
0.00724825 0.0078108 0
0.00947584 0.00762535 0
0.000740632 0.00884884 0
0.00318948 0.008231 0
0.00431501 0.00924955 0
0.00693732 0.00871615 0
0.00827892 0.00912265 0
VERTICES 25 50
1 0
1 1
1 2
1 3
1 4
1 5
1 6
1 7
1 8
1 9
1 10
1 11
1 12
1 13
1 14
1 15
1 16
1 17
1 18
1 19
1 20
1 21
1 22
1 23
1 24
POINT_DATA 25
VECTORS velocity double
-0.0279131 0.00942138 0
-0.0201252 -0.00107902 0
0.00174708 0.0381185 0
0.027369 -0.033639 0
0.0409513 -0.0258154 0
0.0171059 0.0175347 0
0.0423171 -0.00780559 0
-0.00406687 -0.0519178 0
-0.0186692 0.0291304 0
0.0115503 -0.00486066 0
-0.0115358 0.00443182 0
0.0377022 -0.0504267 0
-0.0216812 0.00833202 0
-0.0383465 0.019142 0
-0.0141852 -0.0180446 0
0.0397309 -0.00984487 0
0.00456115 -0.0443648 0
0.0268784 -0.0225692 0
0.0129313 0.0340439 0
0.0247871 0.0243837 0
-0.0135107 -0.0160655 0
0.0098701 -0.0482491 0
-0.0356818 0.00480801 0
-0.00326484 -0.0229773 0
-0.0375616 -0.00180248 0
SCALARS radius double 1
LOOKUP_TABLE default
0.000621415
0.000750874
0.000735541
0.000522882
0.000780242
0.00097475
0.000994168
0.000790412
0.000880848
0.000720838
0.000933918
0.000958934
0.000753488
0.00054522
0.000712397
0.000950783
0.000807753
0.000836475
0.000569299
0.000603945
0.000628319
0.000580291
0.000777192
0.000692678
0.00055675
SCALARS mass double 1
LOOKUP_TABLE default
0.00327549
0.00478242
0.00458909
0.0023191
0.00516383
0.00805935
0.00838365
0.00529932
0.00658136
0.00440747
0.00739829
0.00779994
0.00481578
0.00252149
0.00430484
0.0076679
0.0055344
0.00593499
0.00274913
0.00309392
0.00334869
0.00285631
0.00512354
0.00406984
0.00262926
