# vtk DataFile Version 3.0
DEM2D particles
ASCII
DATASET POLYDATA
POINTS 25 double
0.000436511 0.00025416 0
0.00259373 4.21861e-05 0
0.00503527 0.000833477 0
0.0075525 -0.00061511 0
0.00982669 -0.000457173 0
0.00134532 0.00241795 0
0.00385427 0.0019064 0
0.0049179 0.00101589 0
0.00662312 0.00265203 0
0.00923317 0.00196585 0
0.000767124 0.00415343 0
0.0037611 0.00304599 0
0.00456232 0.00423217 0
0.00622589 0.00445039 0
0.00871364 0.0036997 0
0.00180206 0.00586523 0
0.00309208 0.00516837 0
0.0055426 0.00560836 0
0.00726105 0.00675122 0
0.00950038 0.00655621 0
0.000727257 0.00773965 0
0.00319925 0.00708995 0
0.00427968 0.00816103 0
0.00693409 0.00760012 0
0.00824173 0.00802758 0
VERTICES 25 50
1 0
1 1
1 2
1 3
1 4
1 5
1 6
1 7
1 8
1 9
1 10
1 11
1 12
1 13
1 14
1 15
1 16
1 17
1 18
1 19
1 20
1 21
1 22
1 23
1 24
POINT_DATA 25
VECTORS velocity double
-7.27142e-52 -0.00970858 0
-5.24264e-52 -0.00970858 0
4.55117e-53 -0.00970858 0
7.12966e-52 -0.00970858 0
1.06679e-51 -0.00970858 0
4.45612e-52 -0.00970858 0
1.10237e-51 -0.00970858 0
-1.05943e-52 -0.00970858 0
-4.86336e-52 -0.00970858 0
3.00888e-52 -0.00970858 0
-3.00509e-52 -0.00970858 0
9.82148e-52 -0.00970858 0
-5.64798e-52 -0.00970858 0
-9.98934e-52 -0.00970858 0
-3.69528e-52 -0.00970858 0
1.035e-51 -0.00970858 0
1.18819e-52 -0.00970858 0
7.00188e-52 -0.00970858 0
3.36863e-52 -0.00970858 0
6.45708e-52 -0.00970858 0
-3.51955e-52 -0.00970858 0
2.57118e-52 -0.00970858 0
-9.29517e-52 -0.00970858 0
-8.50497e-53 -0.00970858 0
-9.78487e-52 -0.00970858 0
SCALARS radius double 1
LOOKUP_TABLE default
0.000621415
0.000750874
0.000735541
0.000522882
0.000780242
0.00097475
0.000994168
0.000790412
0.000880848
0.000720838
0.000933918
0.000958934
0.000753488
0.00054522
0.000712397
0.000950783
0.000807753
0.000836475
0.000569299
0.000603945
0.000628319
0.000580291
0.000777192
0.000692678
0.00055675
SCALARS mass double 1
LOOKUP_TABLE default
0.00327549
0.00478242
0.00458909
0.0023191
0.00516383
0.00805935
0.00838365
0.00529932
0.00658136
0.00440747
0.00739829
0.00779994
0.00481578
0.00252149
0.00430484
0.0076679
0.0055344
0.00593499
0.00274913
0.00309392
0.00334869
0.00285631
0.00512354
0.00406984
0.00262926
