# vtk DataFile Version 3.0
DEM2D particles
ASCII
DATASET POLYDATA
POINTS 25 double
0.000436511 0.000246393 0
0.00259373 3.44192e-05 0
0.00503527 0.00082571 0
0.0075525 -0.000622877 0
0.00982669 -0.00046494 0
0.00134532 0.00241018 0
0.00385427 0.00189863 0
0.0049179 0.00100813 0
0.00662312 0.00264426 0
0.00923317 0.00195808 0
0.000767124 0.00414567 0
0.0037611 0.00303823 0
0.00456232 0.0042244 0
0.00622589 0.00444263 0
0.00871364 0.00369193 0
0.00180206 0.00585746 0
0.00309208 0.0051606 0
0.0055426 0.00560059 0
0.00726105 0.00674345 0
0.00950038 0.00654844 0
0.000727257 0.00773188 0
0.00319925 0.00708219 0
0.00427968 0.00815326 0
0.00693409 0.00759235 0
0.00824173 0.00801981 0
VERTICES 25 50
1 0
1 1
1 2
1 3
1 4
1 5
1 6
1 7
1 8
1 9
1 10
1 11
1 12
1 13
1 14
1 15
1 16
1 17
1 18
1 19
1 20
1 21
1 22
1 23
1 24
POINT_DATA 25
VECTORS velocity double
-3.25413e-52 -0.00970858 0
-2.3462e-52 -0.00970858 0
2.03675e-53 -0.00970858 0
3.19069e-52 -0.00970858 0
4.77413e-52 -0.00970858 0
1.99422e-52 -0.00970858 0
4.93336e-52 -0.00970858 0
-4.74118e-53 -0.00970858 0
-2.17647e-52 -0.00970858 0
1.34655e-52 -0.00970858 0
-1.34485e-52 -0.00970858 0
4.39534e-52 -0.00970858 0
-2.5276e-52 -0.00970858 0
-4.47046e-52 -0.00970858 0
-1.65372e-52 -0.00970858 0
4.63185e-52 -0.00970858 0
5.31741e-53 -0.00970858 0
3.13351e-52 -0.00970858 0
1.50754e-52 -0.00970858 0
2.88969e-52 -0.00970858 0
-1.57508e-52 -0.00970858 0
1.15066e-52 -0.00970858 0
-4.1598e-52 -0.00970858 0
-3.80617e-53 -0.00970858 0
-4.37895e-52 -0.00970858 0
SCALARS radius double 1
LOOKUP_TABLE default
0.000621415
0.000750874
0.000735541
0.000522882
0.000780242
0.00097475
0.000994168
0.000790412
0.000880848
0.000720838
0.000933918
0.000958934
0.000753488
0.00054522
0.000712397
0.000950783
0.000807753
0.000836475
0.000569299
0.000603945
0.000628319
0.000580291
0.000777192
0.000692678
0.00055675
SCALARS mass double 1
LOOKUP_TABLE default
0.00327549
0.00478242
0.00458909
0.0023191
0.00516383
0.00805935
0.00838365
0.00529932
0.00658136
0.00440747
0.00739829
0.00779994
0.00481578
0.00252149
0.00430484
0.0076679
0.0055344
0.00593499
0.00274913
0.00309392
0.00334869
0.00285631
0.00512354
0.00406984
0.00262926
