# vtk DataFile Version 3.0
DEM2D particles
ASCII
DATASET POLYDATA
POINTS 25 double
0.000436511 -0.000103116 0
0.00259373 -0.00031509 0
0.00503527 0.000476201 0
0.0075525 -0.000972386 0
0.00982669 -0.000814449 0
0.00134532 0.00206067 0
0.00385427 0.00154912 0
0.0049179 0.000658616 0
0.00662312 0.00229475 0
0.00923317 0.00160857 0
0.000767124 0.00379616 0
0.0037611 0.00268872 0
0.00456232 0.00387489 0
0.00622589 0.00409312 0
0.00871364 0.00334242 0
0.00180206 0.00550795 0
0.00309208 0.00481109 0
0.0055426 0.00525108 0
0.00726105 0.00639395 0
0.00950038 0.00619893 0
0.000727257 0.00738238 0
0.00319925 0.00673268 0
0.00427968 0.00780375 0
0.00693409 0.00724284 0
0.00824173 0.00767031 0
VERTICES 25 50
1 0
1 1
1 2
1 3
1 4
1 5
1 6
1 7
1 8
1 9
1 10
1 11
1 12
1 13
1 14
1 15
1 16
1 17
1 18
1 19
1 20
1 21
1 22
1 23
1 24
POINT_DATA 25
VECTORS velocity double
-6.29702e-68 -0.00970858 0
-4.54011e-68 -0.00970858 0
3.94129e-69 -0.00970858 0
6.17426e-68 -0.00970858 0
9.23836e-68 -0.00970858 0
3.85898e-68 -0.00970858 0
9.54648e-68 -0.00970858 0
-9.17459e-69 -0.00970858 0
-4.21165e-68 -0.00970858 0
2.60568e-68 -0.00970858 0
-2.6024e-68 -0.00970858 0
8.50537e-68 -0.00970858 0
-4.89113e-68 -0.00970858 0
-8.65074e-68 -0.00970858 0
-3.2001e-68 -0.00970858 0
8.96303e-68 -0.00970858 0
1.02897e-68 -0.00970858 0
6.06361e-68 -0.00970858 0
2.91722e-68 -0.00970858 0
5.59181e-68 -0.00970858 0
-3.04792e-68 -0.00970858 0
2.22663e-68 -0.00970858 0
-8.04958e-68 -0.00970858 0
-7.36527e-69 -0.00970858 0
-8.47366e-68 -0.00970858 0
SCALARS radius double 1
LOOKUP_TABLE default
0.000621415
0.000750874
0.000735541
0.000522882
0.000780242
0.00097475
0.000994168
0.000790412
0.000880848
0.000720838
0.000933918
0.000958934
0.000753488
0.00054522
0.000712397
0.000950783
0.000807753
0.000836475
0.000569299
0.000603945
0.000628319
0.000580291
0.000777192
0.000692678
0.00055675
SCALARS mass double 1
LOOKUP_TABLE default
0.00327549
0.00478242
0.00458909
0.0023191
0.00516383
0.00805935
0.00838365
0.00529932
0.00658136
0.00440747
0.00739829
0.00779994
0.00481578
0.00252149
0.00430484
0.0076679
0.0055344
0.00593499
0.00274913
0.00309392
0.00334869
0.00285631
0.00512354
0.00406984
0.00262926
