# vtk DataFile Version 3.0
DEM2D particles
ASCII
DATASET POLYDATA
POINTS 25 double
0.000436511 -2.73887e-05 0
0.00259373 -0.000239363 0
0.00503527 0.000551928 0
0.0075525 -0.000896659 0
0.00982669 -0.000738722 0
0.00134532 0.0021364 0
0.00385427 0.00162485 0
0.0049179 0.000734343 0
0.00662312 0.00237048 0
0.00923317 0.0016843 0
0.000767124 0.00387189 0
0.0037611 0.00276444 0
0.00456232 0.00395062 0
0.00622589 0.00416884 0
0.00871364 0.00341815 0
0.00180206 0.00558368 0
0.00309208 0.00488682 0
0.0055426 0.00532681 0
0.00726105 0.00646967 0
0.00950038 0.00627466 0
0.000727257 0.0074581 0
0.00319925 0.0068084 0
0.00427968 0.00787948 0
0.00693409 0.00731857 0
0.00824173 0.00774603 0
VERTICES 25 50
1 0
1 1
1 2
1 3
1 4
1 5
1 6
1 7
1 8
1 9
1 10
1 11
1 12
1 13
1 14
1 15
1 16
1 17
1 18
1 19
1 20
1 21
1 22
1 23
1 24
POINT_DATA 25
VECTORS velocity double
-1.59839e-64 -0.00970858 0
-1.15243e-64 -0.00970858 0
1.00043e-65 -0.00970858 0
1.56723e-64 -0.00970858 0
2.345e-64 -0.00970858 0
9.79537e-65 -0.00970858 0
2.42321e-64 -0.00970858 0
-2.32882e-65 -0.00970858 0
-1.06906e-64 -0.00970858 0
6.61408e-65 -0.00970858 0
-6.60575e-65 -0.00970858 0
2.15894e-64 -0.00970858 0
-1.24153e-64 -0.00970858 0
-2.19584e-64 -0.00970858 0
-8.12291e-65 -0.00970858 0
2.27511e-64 -0.00970858 0
2.61185e-65 -0.00970858 0
1.53914e-64 -0.00970858 0
7.40487e-65 -0.00970858 0
1.41939e-64 -0.00970858 0
-7.73663e-65 -0.00970858 0
5.65192e-65 -0.00970858 0
-2.04325e-64 -0.00970858 0
-1.86955e-65 -0.00970858 0
-2.1509e-64 -0.00970858 0
SCALARS radius double 1
LOOKUP_TABLE default
0.000621415
0.000750874
0.000735541
0.000522882
0.000780242
0.00097475
0.000994168
0.000790412
0.000880848
0.000720838
0.000933918
0.000958934
0.000753488
0.00054522
0.000712397
0.000950783
0.000807753
0.000836475
0.000569299
0.000603945
0.000628319
0.000580291
0.000777192
0.000692678
0.00055675
SCALARS mass double 1
LOOKUP_TABLE default
0.00327549
0.00478242
0.00458909
0.0023191
0.00516383
0.00805935
0.00838365
0.00529932
0.00658136
0.00440747
0.00739829
0.00779994
0.00481578
0.00252149
0.00430484
0.0076679
0.0055344
0.00593499
0.00274913
0.00309392
0.00334869
0.00285631
0.00512354
0.00406984
0.00262926
