# vtk DataFile Version 3.0
DEM2D particles
ASCII
DATASET POLYDATA
POINTS 25 double
0.000436511 -0.000450683 0
0.00259373 -0.000662657 0
0.00503527 0.000128634 0
0.0075525 -0.00131995 0
0.00982669 -0.00116202 0
0.00134532 0.0017131 0
0.00385427 0.00120155 0
0.0049179 0.000311049 0
0.00662312 0.00194719 0
0.00923317 0.001261 0
0.000767124 0.00344859 0
0.0037611 0.00234115 0
0.00456232 0.00352733 0
0.00622589 0.00374555 0
0.00871364 0.00299485 0
0.00180206 0.00516038 0
0.00309208 0.00446352 0
0.0055426 0.00490352 0
0.00726105 0.00604638 0
0.00950038 0.00585137 0
0.000727257 0.00703481 0
0.00319925 0.00638511 0
0.00427968 0.00745619 0
0.00693409 0.00689528 0
0.00824173 0.00732274 0
VERTICES 25 50
1 0
1 1
1 2
1 3
1 4
1 5
1 6
1 7
1 8
1 9
1 10
1 11
1 12
1 13
1 14
1 15
1 16
1 17
1 18
1 19
1 20
1 21
1 22
1 23
1 24
POINT_DATA 25
VECTORS velocity double
-1.48981e-83 -0.00970858 0
-1.07414e-83 -0.00970858 0
9.32471e-85 -0.00970858 0
1.46077e-83 -0.00970858 0
2.18571e-83 -0.00970858 0
9.12997e-84 -0.00970858 0
2.2586e-83 -0.00970858 0
-2.17062e-84 -0.00970858 0
-9.96435e-84 -0.00970858 0
6.16479e-84 -0.00970858 0
-6.15702e-84 -0.00970858 0
2.01229e-83 -0.00970858 0
-1.15719e-83 -0.00970858 0
-2.04668e-83 -0.00970858 0
-7.57112e-84 -0.00970858 0
2.12057e-83 -0.00970858 0
2.43443e-84 -0.00970858 0
1.43459e-83 -0.00970858 0
6.90186e-84 -0.00970858 0
1.32297e-83 -0.00970858 0
-7.21108e-84 -0.00970858 0
5.26799e-84 -0.00970858 0
-1.90445e-83 -0.00970858 0
-1.74255e-84 -0.00970858 0
-2.00478e-83 -0.00970858 0
SCALARS radius double 1
LOOKUP_TABLE default
0.000621415
0.000750874
0.000735541
0.000522882
0.000780242
0.00097475
0.000994168
0.000790412
0.000880848
0.000720838
0.000933918
0.000958934
0.000753488
0.00054522
0.000712397
0.000950783
0.000807753
0.000836475
0.000569299
0.000603945
0.000628319
0.000580291
0.000777192
0.000692678
0.00055675
SCALARS mass double 1
LOOKUP_TABLE default
0.00327549
0.00478242
0.00458909
0.0023191
0.00516383
0.00805935
0.00838365
0.00529932
0.00658136
0.00440747
0.00739829
0.00779994
0.00481578
0.00252149
0.00430484
0.0076679
0.0055344
0.00593499
0.00274913
0.00309392
0.00334869
0.00285631
0.00512354
0.00406984
0.00262926
