# vtk DataFile Version 3.0
DEM2D particles
ASCII
DATASET POLYDATA
POINTS 25 double
0.000436511 0.000326004 0
0.00259373 0.00011403 0
0.00503527 0.00090532 0
0.0075525 -0.000543267 0
0.00982669 -0.00038533 0
0.00134532 0.00248979 0
0.00385427 0.00197824 0
0.0049179 0.00108774 0
0.00662312 0.00272387 0
0.00923317 0.00203769 0
0.000767124 0.00422528 0
0.0037611 0.00311784 0
0.00456232 0.00430401 0
0.00622589 0.00452224 0
0.00871364 0.00377154 0
0.00180206 0.00593707 0
0.00309208 0.00524021 0
0.0055426 0.0056802 0
0.00726105 0.00682307 0
0.00950038 0.00662805 0
0.000727257 0.00781149 0
0.00319925 0.0071618 0
0.00427968 0.00823287 0
0.00693409 0.00767196 0
0.00824173 0.00809943 0
VERTICES 25 50
1 0
1 1
1 2
1 3
1 4
1 5
1 6
1 7
1 8
1 9
1 10
1 11
1 12
1 13
1 14
1 15
1 16
1 17
1 18
1 19
1 20
1 21
1 22
1 23
1 24
POINT_DATA 25
VECTORS velocity double
-1.23474e-48 -0.00970858 0
-8.90238e-49 -0.00970858 0
7.72821e-50 -0.00970858 0
1.21067e-48 -0.00970858 0
1.81149e-48 -0.00970858 0
7.56681e-49 -0.00970858 0
1.8719e-48 -0.00970858 0
-1.79898e-49 -0.00970858 0
-8.25833e-49 -0.00970858 0
5.1093e-49 -0.00970858 0
-5.10287e-49 -0.00970858 0
1.66776e-48 -0.00970858 0
-9.59068e-49 -0.00970858 0
-1.69626e-48 -0.00970858 0
-6.27485e-49 -0.00970858 0
1.7575e-48 -0.00970858 0
2.01763e-49 -0.00970858 0
1.18897e-48 -0.00970858 0
5.72017e-49 -0.00970858 0
1.09646e-48 -0.00970858 0
-5.97646e-49 -0.00970858 0
4.36604e-49 -0.00970858 0
-1.57839e-48 -0.00970858 0
-1.4442e-49 -0.00970858 0
-1.66154e-48 -0.00970858 0
SCALARS radius double 1
LOOKUP_TABLE default
0.000621415
0.000750874
0.000735541
0.000522882
0.000780242
0.00097475
0.000994168
0.000790412
0.000880848
0.000720838
0.000933918
0.000958934
0.000753488
0.00054522
0.000712397
0.000950783
0.000807753
0.000836475
0.000569299
0.000603945
0.000628319
0.000580291
0.000777192
0.000692678
0.00055675
SCALARS mass double 1
LOOKUP_TABLE default
0.00327549
0.00478242
0.00458909
0.0023191
0.00516383
0.00805935
0.00838365
0.00529932
0.00658136
0.00440747
0.00739829
0.00779994
0.00481578
0.00252149
0.00430484
0.0076679
0.0055344
0.00593499
0.00274913
0.00309392
0.00334869
0.00285631
0.00512354
0.00406984
0.00262926
