# vtk DataFile Version 3.0
DEM2D particles
ASCII
DATASET POLYDATA
POINTS 25 double
0.000436511 0.00076289 0
0.00259373 0.000550916 0
0.00503527 0.00134221 0
0.0075525 -0.000106381 0
0.00982669 5.15564e-05 0
0.00134532 0.00292668 0
0.00385427 0.00241513 0
0.0049179 0.00152462 0
0.00662312 0.00316076 0
0.00923317 0.00247458 0
0.000767124 0.00466216 0
0.0037611 0.00355472 0
0.00456232 0.0047409 0
0.00622589 0.00495912 0
0.00871364 0.00420843 0
0.00180206 0.00637396 0
0.00309208 0.0056771 0
0.0055426 0.00611709 0
0.00726105 0.00725995 0
0.00950038 0.00706494 0
0.000727257 0.00824838 0
0.00319925 0.00759868 0
0.00427968 0.00866976 0
0.00693409 0.00810885 0
0.00824173 0.00853631 0
VERTICES 25 50
1 0
1 1
1 2
1 3
1 4
1 5
1 6
1 7
1 8
1 9
1 10
1 11
1 12
1 13
1 14
1 15
1 16
1 17
1 18
1 19
1 20
1 21
1 22
1 23
1 24
POINT_DATA 25
VECTORS velocity double
-5.41003e-29 -0.00970858 0
-3.90059e-29 -0.00970858 0
3.38613e-30 -0.00970858 0
5.30456e-29 -0.00970858 0
7.93705e-29 -0.00970858 0
3.31541e-29 -0.00970858 0
8.20176e-29 -0.00970858 0
-7.88226e-30 -0.00970858 0
-3.6184e-29 -0.00970858 0
2.23865e-29 -0.00970858 0
-2.23583e-29 -0.00970858 0
7.30731e-29 -0.00970858 0
-4.20217e-29 -0.00970858 0
-7.4322e-29 -0.00970858 0
-2.74934e-29 -0.00970858 0
7.7005e-29 -0.00970858 0
8.84026e-30 -0.00970858 0
5.20949e-29 -0.00970858 0
2.5063e-29 -0.00970858 0
4.80415e-29 -0.00970858 0
-2.61859e-29 -0.00970858 0
1.91299e-29 -0.00970858 0
-6.91572e-29 -0.00970858 0
-6.3278e-30 -0.00970858 0
-7.28006e-29 -0.00970858 0
SCALARS radius double 1
LOOKUP_TABLE default
0.000621415
0.000750874
0.000735541
0.000522882
0.000780242
0.00097475
0.000994168
0.000790412
0.000880848
0.000720838
0.000933918
0.000958934
0.000753488
0.00054522
0.000712397
0.000950783
0.000807753
0.000836475
0.000569299
0.000603945
0.000628319
0.000580291
0.000777192
0.000692678
0.00055675
SCALARS mass double 1
LOOKUP_TABLE default
0.00327549
0.00478242
0.00458909
0.0023191
0.00516383
0.00805935
0.00838365
0.00529932
0.00658136
0.00440747
0.00739829
0.00779994
0.00481578
0.00252149
0.00430484
0.0076679
0.0055344
0.00593499
0.00274913
0.00309392
0.00334869
0.00285631
0.00512354
0.00406984
0.00262926
