# vtk DataFile Version 3.0
DEM2D particles
ASCII
DATASET POLYDATA
POINTS 25 double
0.000436511 0.00055901 0
0.00259373 0.000347036 0
0.00503527 0.00113833 0
0.0075525 -0.000310261 0
0.00982669 -0.000152324 0
0.00134532 0.0027228 0
0.00385427 0.00221124 0
0.0049179 0.00132074 0
0.00662312 0.00295688 0
0.00923317 0.00227069 0
0.000767124 0.00445828 0
0.0037611 0.00335084 0
0.00456232 0.00453702 0
0.00622589 0.00475524 0
0.00871364 0.00400455 0
0.00180206 0.00617008 0
0.00309208 0.00547322 0
0.0055426 0.00591321 0
0.00726105 0.00705607 0
0.00950038 0.00686106 0
0.000727257 0.0080445 0
0.00319925 0.0073948 0
0.00427968 0.00846588 0
0.00693409 0.00790497 0
0.00824173 0.00833243 0
VERTICES 25 50
1 0
1 1
1 2
1 3
1 4
1 5
1 6
1 7
1 8
1 9
1 10
1 11
1 12
1 13
1 14
1 15
1 16
1 17
1 18
1 19
1 20
1 21
1 22
1 23
1 24
POINT_DATA 25
VECTORS velocity double
-3.6907e-38 -0.00970858 0
-2.66096e-38 -0.00970858 0
2.31e-39 -0.00970858 0
3.61874e-38 -0.00970858 0
5.41462e-38 -0.00970858 0
2.26176e-38 -0.00970858 0
5.5952e-38 -0.00970858 0
-5.37724e-39 -0.00970858 0
-2.46845e-38 -0.00970858 0
1.52719e-38 -0.00970858 0
-1.52527e-38 -0.00970858 0
4.98501e-38 -0.00970858 0
-2.8667e-38 -0.00970858 0
-5.07021e-38 -0.00970858 0
-1.87558e-38 -0.00970858 0
5.25325e-38 -0.00970858 0
6.03078e-39 -0.00970858 0
3.55389e-38 -0.00970858 0
1.70979e-38 -0.00970858 0
3.27737e-38 -0.00970858 0
-1.78639e-38 -0.00970858 0
1.30503e-38 -0.00970858 0
-4.71787e-38 -0.00970858 0
-4.3168e-39 -0.00970858 0
-4.96642e-38 -0.00970858 0
SCALARS radius double 1
LOOKUP_TABLE default
0.000621415
0.000750874
0.000735541
0.000522882
0.000780242
0.00097475
0.000994168
0.000790412
0.000880848
0.000720838
0.000933918
0.000958934
0.000753488
0.00054522
0.000712397
0.000950783
0.000807753
0.000836475
0.000569299
0.000603945
0.000628319
0.000580291
0.000777192
0.000692678
0.00055675
SCALARS mass double 1
LOOKUP_TABLE default
0.00327549
0.00478242
0.00458909
0.0023191
0.00516383
0.00805935
0.00838365
0.00529932
0.00658136
0.00440747
0.00739829
0.00779994
0.00481578
0.00252149
0.00430484
0.0076679
0.0055344
0.00593499
0.00274913
0.00309392
0.00334869
0.00285631
0.00512354
0.00406984
0.00262926
