# vtk DataFile Version 3.0
DEM2D particles
ASCII
DATASET POLYDATA
POINTS 25 double
0.000436511 0.000658037 0
0.00259373 0.000446063 0
0.00503527 0.00123735 0
0.0075525 -0.000211233 0
0.00982669 -5.32963e-05 0
0.00134532 0.00282182 0
0.00385427 0.00231027 0
0.0049179 0.00141977 0
0.00662312 0.00305591 0
0.00923317 0.00236972 0
0.000767124 0.00455731 0
0.0037611 0.00344987 0
0.00456232 0.00463605 0
0.00622589 0.00485427 0
0.00871364 0.00410357 0
0.00180206 0.0062691 0
0.00309208 0.00557224 0
0.0055426 0.00601224 0
0.00726105 0.0071551 0
0.00950038 0.00696009 0
0.000727257 0.00814353 0
0.00319925 0.00749383 0
0.00427968 0.00856491 0
0.00693409 0.008004 0
0.00824173 0.00843146 0
VERTICES 25 50
1 0
1 1
1 2
1 3
1 4
1 5
1 6
1 7
1 8
1 9
1 10
1 11
1 12
1 13
1 14
1 15
1 16
1 17
1 18
1 19
1 20
1 21
1 22
1 23
1 24
POINT_DATA 25
VECTORS velocity double
-1.04522e-33 -0.00970858 0
-7.53599e-34 -0.00970858 0
6.54204e-35 -0.00970858 0
1.02485e-33 -0.00970858 0
1.53345e-33 -0.00970858 0
6.40541e-34 -0.00970858 0
1.58459e-33 -0.00970858 0
-1.52286e-34 -0.00970858 0
-6.9908e-34 -0.00970858 0
4.3251e-34 -0.00970858 0
-4.31965e-34 -0.00970858 0
1.41178e-33 -0.00970858 0
-8.11865e-34 -0.00970858 0
-1.43591e-33 -0.00970858 0
-5.31175e-34 -0.00970858 0
1.48775e-33 -0.00970858 0
1.70795e-34 -0.00970858 0
1.00648e-33 -0.00970858 0
4.84221e-34 -0.00970858 0
9.28168e-34 -0.00970858 0
-5.05916e-34 -0.00970858 0
3.69592e-34 -0.00970858 0
-1.33613e-33 -0.00970858 0
-1.22254e-34 -0.00970858 0
-1.40652e-33 -0.00970858 0
SCALARS radius double 1
LOOKUP_TABLE default
0.000621415
0.000750874
0.000735541
0.000522882
0.000780242
0.00097475
0.000994168
0.000790412
0.000880848
0.000720838
0.000933918
0.000958934
0.000753488
0.00054522
0.000712397
0.000950783
0.000807753
0.000836475
0.000569299
0.000603945
0.000628319
0.000580291
0.000777192
0.000692678
0.00055675
SCALARS mass double 1
LOOKUP_TABLE default
0.00327549
0.00478242
0.00458909
0.0023191
0.00516383
0.00805935
0.00838365
0.00529932
0.00658136
0.00440747
0.00739829
0.00779994
0.00481578
0.00252149
0.00430484
0.0076679
0.0055344
0.00593499
0.00274913
0.00309392
0.00334869
0.00285631
0.00512354
0.00406984
0.00262926
