# vtk DataFile Version 3.0
DEM2D particles
ASCII
DATASET POLYDATA
POINTS 25 double
0.000436511 -0.000534177 0
0.00259373 -0.000746151 0
0.00503527 4.51397e-05 0
0.0075525 -0.00140345 0
0.00982669 -0.00124551 0
0.00134532 0.00162961 0
0.00385427 0.00111806 0
0.0049179 0.000227555 0
0.00662312 0.00186369 0
0.00923317 0.00117751 0
0.000767124 0.0033651 0
0.0037611 0.00225766 0
0.00456232 0.00344383 0
0.00622589 0.00366206 0
0.00871364 0.00291136 0
0.00180206 0.00507689 0
0.00309208 0.00438003 0
0.0055426 0.00482002 0
0.00726105 0.00596288 0
0.00950038 0.00576787 0
0.000727257 0.00695131 0
0.00319925 0.00630162 0
0.00427968 0.00737269 0
0.00693409 0.00681178 0
0.00824173 0.00723924 0
VERTICES 25 50
1 0
1 1
1 2
1 3
1 4
1 5
1 6
1 7
1 8
1 9
1 10
1 11
1 12
1 13
1 14
1 15
1 16
1 17
1 18
1 19
1 20
1 21
1 22
1 23
1 24
POINT_DATA 25
VECTORS velocity double
-2.62663e-87 -0.00970858 0
-1.89378e-87 -0.00970858 0
1.644e-88 -0.00970858 0
2.57543e-87 -0.00970858 0
3.85353e-87 -0.00970858 0
1.60967e-87 -0.00970858 0
3.98205e-87 -0.00970858 0
-3.82693e-88 -0.00970858 0
-1.75678e-87 -0.00970858 0
1.08689e-87 -0.00970858 0
-1.08552e-87 -0.00970858 0
3.54778e-87 -0.00970858 0
-2.0402e-87 -0.00970858 0
-3.60842e-87 -0.00970858 0
-1.33484e-87 -0.00970858 0
3.73869e-87 -0.00970858 0
4.29205e-88 -0.00970858 0
2.52927e-87 -0.00970858 0
1.21684e-87 -0.00970858 0
2.33247e-87 -0.00970858 0
-1.27136e-87 -0.00970858 0
9.28778e-88 -0.00970858 0
-3.35767e-87 -0.00970858 0
-3.07222e-88 -0.00970858 0
-3.53456e-87 -0.00970858 0
SCALARS radius double 1
LOOKUP_TABLE default
0.000621415
0.000750874
0.000735541
0.000522882
0.000780242
0.00097475
0.000994168
0.000790412
0.000880848
0.000720838
0.000933918
0.000958934
0.000753488
0.00054522
0.000712397
0.000950783
0.000807753
0.000836475
0.000569299
0.000603945
0.000628319
0.000580291
0.000777192
0.000692678
0.00055675
SCALARS mass double 1
LOOKUP_TABLE default
0.00327549
0.00478242
0.00458909
0.0023191
0.00516383
0.00805935
0.00838365
0.00529932
0.00658136
0.00440747
0.00739829
0.00779994
0.00481578
0.00252149
0.00430484
0.0076679
0.0055344
0.00593499
0.00274913
0.00309392
0.00334869
0.00285631
0.00512354
0.00406984
0.00262926
