# vtk DataFile Version 3.0
DEM2D particles
ASCII
DATASET POLYDATA
POINTS 25 double
0.000436511 0.000640562 0
0.00259373 0.000428588 0
0.00503527 0.00121988 0
0.0075525 -0.000228709 0
0.00982669 -7.07718e-05 0
0.00134532 0.00280435 0
0.00385427 0.0022928 0
0.0049179 0.00140229 0
0.00662312 0.00303843 0
0.00923317 0.00235225 0
0.000767124 0.00453984 0
0.0037611 0.00343239 0
0.00456232 0.00461857 0
0.00622589 0.0048368 0
0.00871364 0.0040861 0
0.00180206 0.00625163 0
0.00309208 0.00555477 0
0.0055426 0.00599476 0
0.00726105 0.00713762 0
0.00950038 0.00694261 0
0.000727257 0.00812605 0
0.00319925 0.00747635 0
0.00427968 0.00854743 0
0.00693409 0.00798652 0
0.00824173 0.00841398 0
VERTICES 25 50
1 0
1 1
1 2
1 3
1 4
1 5
1 6
1 7
1 8
1 9
1 10
1 11
1 12
1 13
1 14
1 15
1 16
1 17
1 18
1 19
1 20
1 21
1 22
1 23
1 24
POINT_DATA 25
VECTORS velocity double
-1.71216e-34 -0.00970858 0
-1.23446e-34 -0.00970858 0
1.07164e-35 -0.00970858 0
1.67878e-34 -0.00970858 0
2.51191e-34 -0.00970858 0
1.04926e-34 -0.00970858 0
2.59569e-34 -0.00970858 0
-2.49457e-35 -0.00970858 0
-1.14515e-34 -0.00970858 0
7.08485e-35 -0.00970858 0
-7.07593e-35 -0.00970858 0
2.31261e-34 -0.00970858 0
-1.3299e-34 -0.00970858 0
-2.35214e-34 -0.00970858 0
-8.70108e-35 -0.00970858 0
2.43705e-34 -0.00970858 0
2.79776e-35 -0.00970858 0
1.6487e-34 -0.00970858 0
7.93193e-35 -0.00970858 0
1.52041e-34 -0.00970858 0
-8.2873e-35 -0.00970858 0
6.05421e-35 -0.00970858 0
-2.18868e-34 -0.00970858 0
-2.00262e-35 -0.00970858 0
-2.30399e-34 -0.00970858 0
SCALARS radius double 1
LOOKUP_TABLE default
0.000621415
0.000750874
0.000735541
0.000522882
0.000780242
0.00097475
0.000994168
0.000790412
0.000880848
0.000720838
0.000933918
0.000958934
0.000753488
0.00054522
0.000712397
0.000950783
0.000807753
0.000836475
0.000569299
0.000603945
0.000628319
0.000580291
0.000777192
0.000692678
0.00055675
SCALARS mass double 1
LOOKUP_TABLE default
0.00327549
0.00478242
0.00458909
0.0023191
0.00516383
0.00805935
0.00838365
0.00529932
0.00658136
0.00440747
0.00739829
0.00779994
0.00481578
0.00252149
0.00430484
0.0076679
0.0055344
0.00593499
0.00274913
0.00309392
0.00334869
0.00285631
0.00512354
0.00406984
0.00262926
