# vtk DataFile Version 3.0
DEM2D particles
ASCII
DATASET POLYDATA
POINTS 25 double
0.000436511 0.00115318 0
0.00259373 0.000941201 0
0.00503527 0.00173249 0
0.0075525 0.000283904 0
0.00982669 0.000441841 0
0.00134532 0.00331696 0
0.00385427 0.00280541 0
0.0049179 0.00191491 0
0.00662312 0.00355105 0
0.00923317 0.00286486 0
0.000767124 0.00505245 0
0.0037611 0.00394501 0
0.00456232 0.00513118 0
0.00622589 0.00534941 0
0.00871364 0.00459871 0
0.00180206 0.00676424 0
0.00309208 0.00606738 0
0.0055426 0.00650737 0
0.00726105 0.00765024 0
0.00950038 0.00745522 0
0.000727257 0.00863867 0
0.00319925 0.00798897 0
0.00427968 0.00906004 0
0.00693409 0.00849914 0
0.00824173 0.0089266 0
VERTICES 25 50
1 0
1 1
1 2
1 3
1 4
1 5
1 6
1 7
1 8
1 9
1 10
1 11
1 12
1 13
1 14
1 15
1 16
1 17
1 18
1 19
1 20
1 21
1 22
1 23
1 24
POINT_DATA 25
VECTORS velocity double
-1.90422e-11 -0.00970858 0
-1.37293e-11 -0.00970858 0
1.19185e-12 -0.00970858 0
1.8671e-11 -0.00970858 0
2.79368e-11 -0.00970858 0
1.16696e-11 -0.00970858 0
2.88686e-11 -0.00970858 0
-2.7744e-12 -0.00970858 0
-1.2736e-11 -0.00970858 0
7.87958e-12 -0.00970858 0
-7.86966e-12 -0.00970858 0
2.57202e-11 -0.00970858 0
-1.47908e-11 -0.00970858 0
-2.61598e-11 -0.00970858 0
-9.67711e-12 -0.00970858 0
2.71042e-11 -0.00970858 0
3.11159e-12 -0.00970858 0
1.83363e-11 -0.00970858 0
8.82168e-12 -0.00970858 0
1.69096e-11 -0.00970858 0
-9.21692e-12 -0.00970858 0
6.73333e-12 -0.00970858 0
-2.43419e-11 -0.00970858 0
-2.22726e-12 -0.00970858 0
-2.56244e-11 -0.00970858 0
SCALARS radius double 1
LOOKUP_TABLE default
0.000621415
0.000750874
0.000735541
0.000522882
0.000780242
0.00097475
0.000994168
0.000790412
0.000880848
0.000720838
0.000933918
0.000958934
0.000753488
0.00054522
0.000712397
0.000950783
0.000807753
0.000836475
0.000569299
0.000603945
0.000628319
0.000580291
0.000777192
0.000692678
0.00055675
SCALARS mass double 1
LOOKUP_TABLE default
0.00327549
0.00478242
0.00458909
0.0023191
0.00516383
0.00805935
0.00838365
0.00529932
0.00658136
0.00440747
0.00739829
0.00779994
0.00481578
0.00252149
0.00430484
0.0076679
0.0055344
0.00593499
0.00274913
0.00309392
0.00334869
0.00285631
0.00512354
0.00406984
0.00262926
