# vtk DataFile Version 3.0
DEM2D particles
ASCII
DATASET POLYDATA
POINTS 25 double
0.000436511 0.00107551 0
0.00259373 0.000863532 0
0.00503527 0.00165482 0
0.0075525 0.000206236 0
0.00982669 0.000364173 0
0.00134532 0.00323929 0
0.00385427 0.00272774 0
0.0049179 0.00183724 0
0.00662312 0.00347338 0
0.00923317 0.00278719 0
0.000767124 0.00497478 0
0.0037611 0.00386734 0
0.00456232 0.00505352 0
0.00622589 0.00527174 0
0.00871364 0.00452104 0
0.00180206 0.00668657 0
0.00309208 0.00598971 0
0.0055426 0.00642971 0
0.00726105 0.00757257 0
0.00950038 0.00737755 0
0.000727257 0.008561 0
0.00319925 0.0079113 0
0.00427968 0.00898238 0
0.00693409 0.00842147 0
0.00824173 0.00884893 0
VERTICES 25 50
1 0
1 1
1 2
1 3
1 4
1 5
1 6
1 7
1 8
1 9
1 10
1 11
1 12
1 13
1 14
1 15
1 16
1 17
1 18
1 19
1 20
1 21
1 22
1 23
1 24
POINT_DATA 25
VECTORS velocity double
-6.13582e-15 -0.00970858 0
-4.42388e-15 -0.00970858 0
3.8404e-16 -0.00970858 0
6.0162e-15 -0.00970858 0
9.00187e-15 -0.00970858 0
3.7602e-15 -0.00970858 0
9.30209e-15 -0.00970858 0
-8.93973e-16 -0.00970858 0
-4.10384e-15 -0.00970858 0
2.53898e-15 -0.00970858 0
-2.53578e-15 -0.00970858 0
8.28764e-15 -0.00970858 0
-4.76592e-15 -0.00970858 0
-8.42928e-15 -0.00970858 0
-3.11818e-15 -0.00970858 0
8.73359e-15 -0.00970858 0
1.00262e-15 -0.00970858 0
5.90838e-15 -0.00970858 0
2.84254e-15 -0.00970858 0
5.44866e-15 -0.00970858 0
-2.9699e-15 -0.00970858 0
2.16963e-15 -0.00970858 0
-7.84352e-15 -0.00970858 0
-7.17673e-16 -0.00970858 0
-8.25674e-15 -0.00970858 0
SCALARS radius double 1
LOOKUP_TABLE default
0.000621415
0.000750874
0.000735541
0.000522882
0.000780242
0.00097475
0.000994168
0.000790412
0.000880848
0.000720838
0.000933918
0.000958934
0.000753488
0.00054522
0.000712397
0.000950783
0.000807753
0.000836475
0.000569299
0.000603945
0.000628319
0.000580291
0.000777192
0.000692678
0.00055675
SCALARS mass double 1
LOOKUP_TABLE default
0.00327549
0.00478242
0.00458909
0.0023191
0.00516383
0.00805935
0.00838365
0.00529932
0.00658136
0.00440747
0.00739829
0.00779994
0.00481578
0.00252149
0.00430484
0.0076679
0.0055344
0.00593499
0.00274913
0.00309392
0.00334869
0.00285631
0.00512354
0.00406984
0.00262926
