# vtk DataFile Version 3.0
DEM2D particles
ASCII
DATASET POLYDATA
POINTS 25 double
0.000436511 0.00106386 0
0.00259373 0.000851882 0
0.00503527 0.00164317 0
0.0075525 0.000194585 0
0.00982669 0.000352522 0
0.00134532 0.00322764 0
0.00385427 0.00271609 0
0.0049179 0.00182559 0
0.00662312 0.00346173 0
0.00923317 0.00277554 0
0.000767124 0.00496313 0
0.0037611 0.00385569 0
0.00456232 0.00504186 0
0.00622589 0.00526009 0
0.00871364 0.00450939 0
0.00180206 0.00667492 0
0.00309208 0.00597806 0
0.0055426 0.00641806 0
0.00726105 0.00756092 0
0.00950038 0.0073659 0
0.000727257 0.00854935 0
0.00319925 0.00789965 0
0.00427968 0.00897072 0
0.00693409 0.00840982 0
0.00824173 0.00883728 0
VERTICES 25 50
1 0
1 1
1 2
1 3
1 4
1 5
1 6
1 7
1 8
1 9
1 10
1 11
1 12
1 13
1 14
1 15
1 16
1 17
1 18
1 19
1 20
1 21
1 22
1 23
1 24
POINT_DATA 25
VECTORS velocity double
-1.83695e-15 -0.00970858 0
-1.32442e-15 -0.00970858 0
1.14974e-16 -0.00970858 0
1.80113e-15 -0.00970858 0
2.69498e-15 -0.00970858 0
1.12573e-15 -0.00970858 0
2.78486e-15 -0.00970858 0
-2.67638e-16 -0.00970858 0
-1.22861e-15 -0.00970858 0
7.6012e-16 -0.00970858 0
-7.59163e-16 -0.00970858 0
2.48116e-15 -0.00970858 0
-1.42682e-15 -0.00970858 0
-2.52356e-15 -0.00970858 0
-9.33522e-16 -0.00970858 0
2.61466e-15 -0.00970858 0
3.00166e-16 -0.00970858 0
1.76885e-15 -0.00970858 0
8.51001e-16 -0.00970858 0
1.63122e-15 -0.00970858 0
-8.89129e-16 -0.00970858 0
6.49545e-16 -0.00970858 0
-2.3482e-15 -0.00970858 0
-2.14857e-16 -0.00970858 0
-2.47191e-15 -0.00970858 0
SCALARS radius double 1
LOOKUP_TABLE default
0.000621415
0.000750874
0.000735541
0.000522882
0.000780242
0.00097475
0.000994168
0.000790412
0.000880848
0.000720838
0.000933918
0.000958934
0.000753488
0.00054522
0.000712397
0.000950783
0.000807753
0.000836475
0.000569299
0.000603945
0.000628319
0.000580291
0.000777192
0.000692678
0.00055675
SCALARS mass double 1
LOOKUP_TABLE default
0.00327549
0.00478242
0.00458909
0.0023191
0.00516383
0.00805935
0.00838365
0.00529932
0.00658136
0.00440747
0.00739829
0.00779994
0.00481578
0.00252149
0.00430484
0.0076679
0.0055344
0.00593499
0.00274913
0.00309392
0.00334869
0.00285631
0.00512354
0.00406984
0.00262926
