# vtk DataFile Version 3.0
DEM2D particles
ASCII
DATASET POLYDATA
POINTS 25 double
0.000436511 9.1056e-05 0
0.00259373 -0.000120918 0
0.00503527 0.000670372 0
0.0075525 -0.000778215 0
0.00982669 -0.000620278 0
0.00134532 0.00225484 0
0.00385427 0.00174329 0
0.0049179 0.000852788 0
0.00662312 0.00248893 0
0.00923317 0.00180274 0
0.000767124 0.00399033 0
0.0037611 0.00288289 0
0.00456232 0.00406906 0
0.00622589 0.00428729 0
0.00871364 0.00353659 0
0.00180206 0.00570212 0
0.00309208 0.00500526 0
0.0055426 0.00544526 0
0.00726105 0.00658812 0
0.00950038 0.0063931 0
0.000727257 0.00757655 0
0.00319925 0.00692685 0
0.00427968 0.00799792 0
0.00693409 0.00743702 0
0.00824173 0.00786448 0
VERTICES 25 50
1 0
1 1
1 2
1 3
1 4
1 5
1 6
1 7
1 8
1 9
1 10
1 11
1 12
1 13
1 14
1 15
1 16
1 17
1 18
1 19
1 20
1 21
1 22
1 23
1 24
POINT_DATA 25
VECTORS velocity double
-3.37867e-59 -0.00970858 0
-2.436e-59 -0.00970858 0
2.1147e-60 -0.00970858 0
3.3128e-59 -0.00970858 0
4.95685e-59 -0.00970858 0
2.07054e-59 -0.00970858 0
5.12217e-59 -0.00970858 0
-4.92263e-60 -0.00970858 0
-2.25976e-59 -0.00970858 0
1.39808e-59 -0.00970858 0
-1.39632e-59 -0.00970858 0
4.56356e-59 -0.00970858 0
-2.62434e-59 -0.00970858 0
-4.64156e-59 -0.00970858 0
-1.71702e-59 -0.00970858 0
4.80912e-59 -0.00970858 0
5.52092e-60 -0.00970858 0
3.25343e-59 -0.00970858 0
1.56524e-59 -0.00970858 0
3.00029e-59 -0.00970858 0
-1.63536e-59 -0.00970858 0
1.1947e-59 -0.00970858 0
-4.31901e-59 -0.00970858 0
-3.95184e-60 -0.00970858 0
-4.54655e-59 -0.00970858 0
SCALARS radius double 1
LOOKUP_TABLE default
0.000621415
0.000750874
0.000735541
0.000522882
0.000780242
0.00097475
0.000994168
0.000790412
0.000880848
0.000720838
0.000933918
0.000958934
0.000753488
0.00054522
0.000712397
0.000950783
0.000807753
0.000836475
0.000569299
0.000603945
0.000628319
0.000580291
0.000777192
0.000692678
0.00055675
SCALARS mass double 1
LOOKUP_TABLE default
0.00327549
0.00478242
0.00458909
0.0023191
0.00516383
0.00805935
0.00838365
0.00529932
0.00658136
0.00440747
0.00739829
0.00779994
0.00481578
0.00252149
0.00430484
0.0076679
0.0055344
0.00593499
0.00274913
0.00309392
0.00334869
0.00285631
0.00512354
0.00406984
0.00262926
