# vtk DataFile Version 3.0
DEM2D particles
ASCII
DATASET POLYDATA
POINTS 25 double
0.000436511 0.000226976 0
0.00259373 1.50021e-05 0
0.00503527 0.000806293 0
0.0075525 -0.000642294 0
0.00982669 -0.000484357 0
0.00134532 0.00239076 0
0.00385427 0.00187921 0
0.0049179 0.000988708 0
0.00662312 0.00262485 0
0.00923317 0.00193866 0
0.000767124 0.00412625 0
0.0037611 0.00301881 0
0.00456232 0.00420499 0
0.00622589 0.00442321 0
0.00871364 0.00367251 0
0.00180206 0.00583804 0
0.00309208 0.00514118 0
0.0055426 0.00558118 0
0.00726105 0.00672404 0
0.00950038 0.00652902 0
0.000727257 0.00771247 0
0.00319925 0.00706277 0
0.00427968 0.00813385 0
0.00693409 0.00757294 0
0.00824173 0.0080004 0
VERTICES 25 50
1 0
1 1
1 2
1 3
1 4
1 5
1 6
1 7
1 8
1 9
1 10
1 11
1 12
1 13
1 14
1 15
1 16
1 17
1 18
1 19
1 20
1 21
1 22
1 23
1 24
POINT_DATA 25
VECTORS velocity double
-4.35987e-53 -0.00970858 0
-3.14343e-53 -0.00970858 0
2.72883e-54 -0.00970858 0
4.27487e-53 -0.00970858 0
6.39637e-53 -0.00970858 0
2.67184e-53 -0.00970858 0
6.6097e-53 -0.00970858 0
-6.35221e-54 -0.00970858 0
-2.91602e-53 -0.00970858 0
1.8041e-53 -0.00970858 0
-1.80182e-53 -0.00970858 0
5.88886e-53 -0.00970858 0
-3.38648e-53 -0.00970858 0
-5.98951e-53 -0.00970858 0
-2.21565e-53 -0.00970858 0
6.20574e-53 -0.00970858 0
7.12425e-54 -0.00970858 0
4.19826e-53 -0.00970858 0
2.0198e-53 -0.00970858 0
3.8716e-53 -0.00970858 0
-2.11029e-53 -0.00970858 0
1.54165e-53 -0.00970858 0
-5.57329e-53 -0.00970858 0
-5.09949e-54 -0.00970858 0
-5.86691e-53 -0.00970858 0
SCALARS radius double 1
LOOKUP_TABLE default
0.000621415
0.000750874
0.000735541
0.000522882
0.000780242
0.00097475
0.000994168
0.000790412
0.000880848
0.000720838
0.000933918
0.000958934
0.000753488
0.00054522
0.000712397
0.000950783
0.000807753
0.000836475
0.000569299
0.000603945
0.000628319
0.000580291
0.000777192
0.000692678
0.00055675
SCALARS mass double 1
LOOKUP_TABLE default
0.00327549
0.00478242
0.00458909
0.0023191
0.00516383
0.00805935
0.00838365
0.00529932
0.00658136
0.00440747
0.00739829
0.00779994
0.00481578
0.00252149
0.00430484
0.0076679
0.0055344
0.00593499
0.00274913
0.00309392
0.00334869
0.00285631
0.00512354
0.00406984
0.00262926
