# vtk DataFile Version 3.0
DEM2D particles
ASCII
DATASET POLYDATA
POINTS 25 double
0.000436511 -0.000423499 0
0.00259373 -0.000635473 0
0.00503527 0.000155818 0
0.0075525 -0.00129277 0
0.00982669 -0.00113483 0
0.00134532 0.00174029 0
0.00385427 0.00122874 0
0.0049179 0.000338233 0
0.00662312 0.00197437 0
0.00923317 0.00128819 0
0.000767124 0.00347578 0
0.0037611 0.00236833 0
0.00456232 0.00355451 0
0.00622589 0.00377273 0
0.00871364 0.00302204 0
0.00180206 0.00518757 0
0.00309208 0.00449071 0
0.0055426 0.0049307 0
0.00726105 0.00607356 0
0.00950038 0.00587855 0
0.000727257 0.00706199 0
0.00319925 0.00641229 0
0.00427968 0.00748337 0
0.00693409 0.00692246 0
0.00824173 0.00734992 0
VERTICES 25 50
1 0
1 1
1 2
1 3
1 4
1 5
1 6
1 7
1 8
1 9
1 10
1 11
1 12
1 13
1 14
1 15
1 16
1 17
1 18
1 19
1 20
1 21
1 22
1 23
1 24
POINT_DATA 25
VECTORS velocity double
-2.48472e-82 -0.00970858 0
-1.79146e-82 -0.00970858 0
1.55518e-83 -0.00970858 0
2.43628e-82 -0.00970858 0
3.64533e-82 -0.00970858 0
1.5227e-82 -0.00970858 0
3.76691e-82 -0.00970858 0
-3.62017e-83 -0.00970858 0
-1.66186e-82 -0.00970858 0
1.02817e-82 -0.00970858 0
-1.02687e-82 -0.00970858 0
3.3561e-82 -0.00970858 0
-1.92998e-82 -0.00970858 0
-3.41346e-82 -0.00970858 0
-1.26272e-82 -0.00970858 0
3.53669e-82 -0.00970858 0
4.06016e-83 -0.00970858 0
2.39262e-82 -0.00970858 0
1.1511e-82 -0.00970858 0
2.20645e-82 -0.00970858 0
-1.20267e-82 -0.00970858 0
8.78598e-83 -0.00970858 0
-3.17626e-82 -0.00970858 0
-2.90624e-83 -0.00970858 0
-3.34359e-82 -0.00970858 0
SCALARS radius double 1
LOOKUP_TABLE default
0.000621415
0.000750874
0.000735541
0.000522882
0.000780242
0.00097475
0.000994168
0.000790412
0.000880848
0.000720838
0.000933918
0.000958934
0.000753488
0.00054522
0.000712397
0.000950783
0.000807753
0.000836475
0.000569299
0.000603945
0.000628319
0.000580291
0.000777192
0.000692678
0.00055675
SCALARS mass double 1
LOOKUP_TABLE default
0.00327549
0.00478242
0.00458909
0.0023191
0.00516383
0.00805935
0.00838365
0.00529932
0.00658136
0.00440747
0.00739829
0.00779994
0.00481578
0.00252149
0.00430484
0.0076679
0.0055344
0.00593499
0.00274913
0.00309392
0.00334869
0.00285631
0.00512354
0.00406984
0.00262926
