# vtk DataFile Version 3.0
DEM2D particles
ASCII
DATASET POLYDATA
POINTS 25 double
0.000436511 2.30959e-05 0
0.00259373 -0.000188878 0
0.00503527 0.000602412 0
0.0075525 -0.000846175 0
0.00982669 -0.000688238 0
0.00134532 0.00218688 0
0.00385427 0.00167533 0
0.0049179 0.000784828 0
0.00662312 0.00242097 0
0.00923317 0.00173478 0
0.000767124 0.00392237 0
0.0037611 0.00281493 0
0.00456232 0.0040011 0
0.00622589 0.00421933 0
0.00871364 0.00346863 0
0.00180206 0.00563416 0
0.00309208 0.0049373 0
0.0055426 0.0053773 0
0.00726105 0.00652016 0
0.00950038 0.00632514 0
0.000727257 0.00750859 0
0.00319925 0.00685889 0
0.00427968 0.00792996 0
0.00693409 0.00736906 0
0.00824173 0.00779652 0
VERTICES 25 50
1 0
1 1
1 2
1 3
1 4
1 5
1 6
1 7
1 8
1 9
1 10
1 11
1 12
1 13
1 14
1 15
1 16
1 17
1 18
1 19
1 20
1 21
1 22
1 23
1 24
POINT_DATA 25
VECTORS velocity double
-2.97428e-62 -0.00970858 0
-2.14444e-62 -0.00970858 0
1.8616e-63 -0.00970858 0
2.9163e-62 -0.00970858 0
4.36357e-62 -0.00970858 0
1.82272e-62 -0.00970858 0
4.5091e-62 -0.00970858 0
-4.33345e-63 -0.00970858 0
-1.9893e-62 -0.00970858 0
1.23075e-62 -0.00970858 0
-1.2292e-62 -0.00970858 0
4.01735e-62 -0.00970858 0
-2.31024e-62 -0.00970858 0
-4.08602e-62 -0.00970858 0
-1.51151e-62 -0.00970858 0
4.23352e-62 -0.00970858 0
4.86013e-63 -0.00970858 0
2.86403e-62 -0.00970858 0
1.3779e-62 -0.00970858 0
2.64119e-62 -0.00970858 0
-1.43963e-62 -0.00970858 0
1.05171e-62 -0.00970858 0
-3.80207e-62 -0.00970858 0
-3.47885e-63 -0.00970858 0
-4.00238e-62 -0.00970858 0
SCALARS radius double 1
LOOKUP_TABLE default
0.000621415
0.000750874
0.000735541
0.000522882
0.000780242
0.00097475
0.000994168
0.000790412
0.000880848
0.000720838
0.000933918
0.000958934
0.000753488
0.00054522
0.000712397
0.000950783
0.000807753
0.000836475
0.000569299
0.000603945
0.000628319
0.000580291
0.000777192
0.000692678
0.00055675
SCALARS mass double 1
LOOKUP_TABLE default
0.00327549
0.00478242
0.00458909
0.0023191
0.00516383
0.00805935
0.00838365
0.00529932
0.00658136
0.00440747
0.00739829
0.00779994
0.00481578
0.00252149
0.00430484
0.0076679
0.0055344
0.00593499
0.00274913
0.00309392
0.00334869
0.00285631
0.00512354
0.00406984
0.00262926
