# vtk DataFile Version 3.0
DEM2D particles
ASCII
DATASET POLYDATA
POINTS 25 double
0.000436511 0.000929878 0
0.00259373 0.000717904 0
0.00503527 0.00150919 0
0.0075525 6.0607e-05 0
0.00982669 0.000218544 0
0.00134532 0.00309366 0
0.00385427 0.00258211 0
0.0049179 0.00169161 0
0.00662312 0.00332775 0
0.00923317 0.00264156 0
0.000767124 0.00482915 0
0.0037611 0.00372171 0
0.00456232 0.00490789 0
0.00622589 0.00512611 0
0.00871364 0.00437541 0
0.00180206 0.00654095 0
0.00309208 0.00584408 0
0.0055426 0.00628408 0
0.00726105 0.00742694 0
0.00950038 0.00723193 0
0.000727257 0.00841537 0
0.00319925 0.00776567 0
0.00427968 0.00883675 0
0.00693409 0.00827584 0
0.00824173 0.0087033 0
VERTICES 25 50
1 0
1 1
1 2
1 3
1 4
1 5
1 6
1 7
1 8
1 9
1 10
1 11
1 12
1 13
1 14
1 15
1 16
1 17
1 18
1 19
1 20
1 21
1 22
1 23
1 24
POINT_DATA 25
VECTORS velocity double
-1.74046e-21 -0.00970858 0
-1.25486e-21 -0.00970858 0
1.08935e-22 -0.00970858 0
1.70653e-21 -0.00970858 0
2.55343e-21 -0.00970858 0
1.0666e-21 -0.00970858 0
2.63859e-21 -0.00970858 0
-2.53581e-22 -0.00970858 0
-1.16408e-21 -0.00970858 0
7.20196e-22 -0.00970858 0
-7.19289e-22 -0.00970858 0
2.35084e-21 -0.00970858 0
-1.35188e-21 -0.00970858 0
-2.39102e-21 -0.00970858 0
-8.8449e-22 -0.00970858 0
2.47733e-21 -0.00970858 0
2.844e-22 -0.00970858 0
1.67595e-21 -0.00970858 0
8.06304e-22 -0.00970858 0
1.54555e-21 -0.00970858 0
-8.42429e-22 -0.00970858 0
6.15429e-22 -0.00970858 0
-2.22486e-21 -0.00970858 0
-2.03572e-22 -0.00970858 0
-2.34207e-21 -0.00970858 0
SCALARS radius double 1
LOOKUP_TABLE default
0.000621415
0.000750874
0.000735541
0.000522882
0.000780242
0.00097475
0.000994168
0.000790412
0.000880848
0.000720838
0.000933918
0.000958934
0.000753488
0.00054522
0.000712397
0.000950783
0.000807753
0.000836475
0.000569299
0.000603945
0.000628319
0.000580291
0.000777192
0.000692678
0.00055675
SCALARS mass double 1
LOOKUP_TABLE default
0.00327549
0.00478242
0.00458909
0.0023191
0.00516383
0.00805935
0.00838365
0.00529932
0.00658136
0.00440747
0.00739829
0.00779994
0.00481578
0.00252149
0.00430484
0.0076679
0.0055344
0.00593499
0.00274913
0.00309392
0.00334869
0.00285631
0.00512354
0.00406984
0.00262926
