# vtk DataFile Version 3.0
DEM2D particles
ASCII
DATASET POLYDATA
POINTS 25 double
0.000436511 -0.000384665 0
0.00259373 -0.000596639 0
0.00503527 0.000194652 0
0.0075525 -0.00125394 0
0.00982669 -0.001096 0
0.00134532 0.00177912 0
0.00385427 0.00126757 0
0.0049179 0.000377067 0
0.00662312 0.00201321 0
0.00923317 0.00132702 0
0.000767124 0.00351461 0
0.0037611 0.00240717 0
0.00456232 0.00359334 0
0.00622589 0.00381157 0
0.00871364 0.00306087 0
0.00180206 0.0052264 0
0.00309208 0.00452954 0
0.0055426 0.00496953 0
0.00726105 0.0061124 0
0.00950038 0.00591738 0
0.000727257 0.00710083 0
0.00319925 0.00645113 0
0.00427968 0.0075222 0
0.00693409 0.0069613 0
0.00824173 0.00738876 0
VERTICES 25 50
1 0
1 1
1 2
1 3
1 4
1 5
1 6
1 7
1 8
1 9
1 10
1 11
1 12
1 13
1 14
1 15
1 16
1 17
1 18
1 19
1 20
1 21
1 22
1 23
1 24
POINT_DATA 25
VECTORS velocity double
-1.3842e-80 -0.00970858 0
-9.98e-81 -0.00970858 0
8.6637e-82 -0.00970858 0
1.35722e-80 -0.00970858 0
2.03076e-80 -0.00970858 0
8.48276e-81 -0.00970858 0
2.09849e-80 -0.00970858 0
-2.01675e-81 -0.00970858 0
-9.25799e-81 -0.00970858 0
5.72777e-81 -0.00970858 0
-5.72056e-81 -0.00970858 0
1.86964e-80 -0.00970858 0
-1.07516e-80 -0.00970858 0
-1.90159e-80 -0.00970858 0
-7.03441e-81 -0.00970858 0
1.97024e-80 -0.00970858 0
2.26186e-81 -0.00970858 0
1.33289e-80 -0.00970858 0
6.41259e-81 -0.00970858 0
1.22918e-80 -0.00970858 0
-6.6999e-81 -0.00970858 0
4.89455e-81 -0.00970858 0
-1.76945e-80 -0.00970858 0
-1.61902e-81 -0.00970858 0
-1.86267e-80 -0.00970858 0
SCALARS radius double 1
LOOKUP_TABLE default
0.000621415
0.000750874
0.000735541
0.000522882
0.000780242
0.00097475
0.000994168
0.000790412
0.000880848
0.000720838
0.000933918
0.000958934
0.000753488
0.00054522
0.000712397
0.000950783
0.000807753
0.000836475
0.000569299
0.000603945
0.000628319
0.000580291
0.000777192
0.000692678
0.00055675
SCALARS mass double 1
LOOKUP_TABLE default
0.00327549
0.00478242
0.00458909
0.0023191
0.00516383
0.00805935
0.00838365
0.00529932
0.00658136
0.00440747
0.00739829
0.00779994
0.00481578
0.00252149
0.00430484
0.0076679
0.0055344
0.00593499
0.00274913
0.00309392
0.00334869
0.00285631
0.00512354
0.00406984
0.00262926
