# vtk DataFile Version 3.0
DEM2D particles
ASCII
DATASET POLYDATA
POINTS 25 double
0.000436511 0.000838617 0
0.00259373 0.000626643 0
0.00503527 0.00141793 0
0.0075525 -3.06537e-05 0
0.00982669 0.000127283 0
0.00134532 0.0030024 0
0.00385427 0.00249085 0
0.0049179 0.00160035 0
0.00662312 0.00323649 0
0.00923317 0.0025503 0
0.000767124 0.00473789 0
0.0037611 0.00363045 0
0.00456232 0.00481663 0
0.00622589 0.00503485 0
0.00871364 0.00428415 0
0.00180206 0.00644968 0
0.00309208 0.00575282 0
0.0055426 0.00619282 0
0.00726105 0.00733568 0
0.00950038 0.00714067 0
0.000727257 0.00832411 0
0.00319925 0.00767441 0
0.00427968 0.00874549 0
0.00693409 0.00818458 0
0.00824173 0.00861204 0
VERTICES 25 50
1 0
1 1
1 2
1 3
1 4
1 5
1 6
1 7
1 8
1 9
1 10
1 11
1 12
1 13
1 14
1 15
1 16
1 17
1 18
1 19
1 20
1 21
1 22
1 23
1 24
POINT_DATA 25
VECTORS velocity double
-1.37324e-25 -0.00970858 0
-9.90099e-26 -0.00970858 0
8.59511e-27 -0.00970858 0
1.34647e-25 -0.00970858 0
2.01469e-25 -0.00970858 0
8.4156e-26 -0.00970858 0
2.08188e-25 -0.00970858 0
-2.00078e-26 -0.00970858 0
-9.18469e-26 -0.00970858 0
5.68243e-26 -0.00970858 0
-5.67527e-26 -0.00970858 0
1.85484e-25 -0.00970858 0
-1.06665e-25 -0.00970858 0
-1.88654e-25 -0.00970858 0
-6.97872e-26 -0.00970858 0
1.95464e-25 -0.00970858 0
2.24395e-26 -0.00970858 0
1.32234e-25 -0.00970858 0
6.36182e-26 -0.00970858 0
1.21945e-25 -0.00970858 0
-6.64686e-26 -0.00970858 0
4.8558e-26 -0.00970858 0
-1.75544e-25 -0.00970858 0
-1.60621e-26 -0.00970858 0
-1.84792e-25 -0.00970858 0
SCALARS radius double 1
LOOKUP_TABLE default
0.000621415
0.000750874
0.000735541
0.000522882
0.000780242
0.00097475
0.000994168
0.000790412
0.000880848
0.000720838
0.000933918
0.000958934
0.000753488
0.00054522
0.000712397
0.000950783
0.000807753
0.000836475
0.000569299
0.000603945
0.000628319
0.000580291
0.000777192
0.000692678
0.00055675
SCALARS mass double 1
LOOKUP_TABLE default
0.00327549
0.00478242
0.00458909
0.0023191
0.00516383
0.00805935
0.00838365
0.00529932
0.00658136
0.00440747
0.00739829
0.00779994
0.00481578
0.00252149
0.00430484
0.0076679
0.0055344
0.00593499
0.00274913
0.00309392
0.00334869
0.00285631
0.00512354
0.00406984
0.00262926
