# vtk DataFile Version 3.0
DEM2D particles
ASCII
DATASET POLYDATA
POINTS 25 double
0.000436511 -0.000169134 0
0.00259373 -0.000381108 0
0.00503527 0.000410182 0
0.0075525 -0.0010384 0
0.00982669 -0.000880468 0
0.00134532 0.00199465 0
0.00385427 0.0014831 0
0.0049179 0.000592598 0
0.00662312 0.00222874 0
0.00923317 0.00154255 0
0.000767124 0.00373014 0
0.0037611 0.0026227 0
0.00456232 0.00380887 0
0.00622589 0.0040271 0
0.00871364 0.0032764 0
0.00180206 0.00544193 0
0.00309208 0.00474507 0
0.0055426 0.00518507 0
0.00726105 0.00632793 0
0.00950038 0.00613291 0
0.000727257 0.00731636 0
0.00319925 0.00666666 0
0.00427968 0.00773773 0
0.00693409 0.00717683 0
0.00824173 0.00760429 0
VERTICES 25 50
1 0
1 1
1 2
1 3
1 4
1 5
1 6
1 7
1 8
1 9
1 10
1 11
1 12
1 13
1 14
1 15
1 16
1 17
1 18
1 19
1 20
1 21
1 22
1 23
1 24
POINT_DATA 25
VECTORS velocity double
-6.77747e-71 -0.00970858 0
-4.88651e-71 -0.00970858 0
4.24201e-72 -0.00970858 0
6.64534e-71 -0.00970858 0
9.94322e-71 -0.00970858 0
4.15341e-71 -0.00970858 0
1.02748e-70 -0.00970858 0
-9.87459e-72 -0.00970858 0
-4.53299e-71 -0.00970858 0
2.80449e-71 -0.00970858 0
-2.80096e-71 -0.00970858 0
9.15431e-71 -0.00970858 0
-5.26432e-71 -0.00970858 0
-9.31076e-71 -0.00970858 0
-3.44426e-71 -0.00970858 0
9.64689e-71 -0.00970858 0
1.10747e-71 -0.00970858 0
6.52624e-71 -0.00970858 0
3.1398e-71 -0.00970858 0
6.01845e-71 -0.00970858 0
-3.28047e-71 -0.00970858 0
2.39652e-71 -0.00970858 0
-8.66375e-71 -0.00970858 0
-7.92722e-72 -0.00970858 0
-9.12018e-71 -0.00970858 0
SCALARS radius double 1
LOOKUP_TABLE default
0.000621415
0.000750874
0.000735541
0.000522882
0.000780242
0.00097475
0.000994168
0.000790412
0.000880848
0.000720838
0.000933918
0.000958934
0.000753488
0.00054522
0.000712397
0.000950783
0.000807753
0.000836475
0.000569299
0.000603945
0.000628319
0.000580291
0.000777192
0.000692678
0.00055675
SCALARS mass double 1
LOOKUP_TABLE default
0.00327549
0.00478242
0.00458909
0.0023191
0.00516383
0.00805935
0.00838365
0.00529932
0.00658136
0.00440747
0.00739829
0.00779994
0.00481578
0.00252149
0.00430484
0.0076679
0.0055344
0.00593499
0.00274913
0.00309392
0.00334869
0.00285631
0.00512354
0.00406984
0.00262926
