# vtk DataFile Version 3.0
DEM2D particles
ASCII
DATASET POLYDATA
POINTS 25 double
0.000436511 0.000613378 0
0.00259373 0.000401404 0
0.00503527 0.00119269 0
0.0075525 -0.000255893 0
0.00982669 -9.79558e-05 0
0.00134532 0.00277716 0
0.00385427 0.00226561 0
0.0049179 0.00137511 0
0.00662312 0.00301125 0
0.00923317 0.00232506 0
0.000767124 0.00451265 0
0.0037611 0.00340521 0
0.00456232 0.00459139 0
0.00622589 0.00480961 0
0.00871364 0.00405891 0
0.00180206 0.00622445 0
0.00309208 0.00552758 0
0.0055426 0.00596758 0
0.00726105 0.00711044 0
0.00950038 0.00691543 0
0.000727257 0.00809887 0
0.00319925 0.00744917 0
0.00427968 0.00852025 0
0.00693409 0.00795934 0
0.00824173 0.0083868 0
VERTICES 25 50
1 0
1 1
1 2
1 3
1 4
1 5
1 6
1 7
1 8
1 9
1 10
1 11
1 12
1 13
1 14
1 15
1 16
1 17
1 18
1 19
1 20
1 21
1 22
1 23
1 24
POINT_DATA 25
VECTORS velocity double
-1.0266e-35 -0.00970858 0
-7.40167e-36 -0.00970858 0
6.42544e-37 -0.00970858 0
1.00658e-35 -0.00970858 0
1.50612e-35 -0.00970858 0
6.29125e-36 -0.00970858 0
1.55635e-35 -0.00970858 0
-1.49572e-36 -0.00970858 0
-6.8662e-36 -0.00970858 0
4.24801e-36 -0.00970858 0
-4.24266e-36 -0.00970858 0
1.38662e-35 -0.00970858 0
-7.97395e-36 -0.00970858 0
-1.41032e-35 -0.00970858 0
-5.21708e-36 -0.00970858 0
1.46123e-35 -0.00970858 0
1.67751e-36 -0.00970858 0
9.88541e-36 -0.00970858 0
4.7559e-36 -0.00970858 0
9.11625e-36 -0.00970858 0
-4.96899e-36 -0.00970858 0
3.63004e-36 -0.00970858 0
-1.31231e-35 -0.00970858 0
-1.20075e-36 -0.00970858 0
-1.38145e-35 -0.00970858 0
SCALARS radius double 1
LOOKUP_TABLE default
0.000621415
0.000750874
0.000735541
0.000522882
0.000780242
0.00097475
0.000994168
0.000790412
0.000880848
0.000720838
0.000933918
0.000958934
0.000753488
0.00054522
0.000712397
0.000950783
0.000807753
0.000836475
0.000569299
0.000603945
0.000628319
0.000580291
0.000777192
0.000692678
0.00055675
SCALARS mass double 1
LOOKUP_TABLE default
0.00327549
0.00478242
0.00458909
0.0023191
0.00516383
0.00805935
0.00838365
0.00529932
0.00658136
0.00440747
0.00739829
0.00779994
0.00481578
0.00252149
0.00430484
0.0076679
0.0055344
0.00593499
0.00274913
0.00309392
0.00334869
0.00285631
0.00512354
0.00406984
0.00262926
