# vtk DataFile Version 3.0
DEM2D particles
ASCII
DATASET POLYDATA
POINTS 25 double
0.000436511 0.000205617 0
0.00259373 -6.3568e-06 0
0.00503527 0.000784934 0
0.0075525 -0.000663653 0
0.00982669 -0.000505716 0
0.00134532 0.0023694 0
0.00385427 0.00185785 0
0.0049179 0.000967349 0
0.00662312 0.00260349 0
0.00923317 0.0019173 0
0.000767124 0.00410489 0
0.0037611 0.00299745 0
0.00456232 0.00418363 0
0.00622589 0.00440185 0
0.00871364 0.00365115 0
0.00180206 0.00581668 0
0.00309208 0.00511982 0
0.0055426 0.00555982 0
0.00726105 0.00670268 0
0.00950038 0.00650767 0
0.000727257 0.00769111 0
0.00319925 0.00704141 0
0.00427968 0.00811249 0
0.00693409 0.00755158 0
0.00824173 0.00797904 0
VERTICES 25 50
1 0
1 1
1 2
1 3
1 4
1 5
1 6
1 7
1 8
1 9
1 10
1 11
1 12
1 13
1 14
1 15
1 16
1 17
1 18
1 19
1 20
1 21
1 22
1 23
1 24
POINT_DATA 25
VECTORS velocity double
-4.77767e-54 -0.00970858 0
-3.44467e-54 -0.00970858 0
2.99034e-55 -0.00970858 0
4.68453e-54 -0.00970858 0
7.00932e-54 -0.00970858 0
2.92789e-54 -0.00970858 0
7.2431e-54 -0.00970858 0
-6.96094e-55 -0.00970858 0
-3.19546e-54 -0.00970858 0
1.97698e-54 -0.00970858 0
-1.97449e-54 -0.00970858 0
6.45319e-54 -0.00970858 0
-3.711e-54 -0.00970858 0
-6.56348e-54 -0.00970858 0
-2.42798e-54 -0.00970858 0
6.80043e-54 -0.00970858 0
7.80696e-55 -0.00970858 0
4.60058e-54 -0.00970858 0
2.21335e-54 -0.00970858 0
4.24262e-54 -0.00970858 0
-2.31252e-54 -0.00970858 0
1.68939e-54 -0.00970858 0
-6.10738e-54 -0.00970858 0
-5.58817e-55 -0.00970858 0
-6.42913e-54 -0.00970858 0
SCALARS radius double 1
LOOKUP_TABLE default
0.000621415
0.000750874
0.000735541
0.000522882
0.000780242
0.00097475
0.000994168
0.000790412
0.000880848
0.000720838
0.000933918
0.000958934
0.000753488
0.00054522
0.000712397
0.000950783
0.000807753
0.000836475
0.000569299
0.000603945
0.000628319
0.000580291
0.000777192
0.000692678
0.00055675
SCALARS mass double 1
LOOKUP_TABLE default
0.00327549
0.00478242
0.00458909
0.0023191
0.00516383
0.00805935
0.00838365
0.00529932
0.00658136
0.00440747
0.00739829
0.00779994
0.00481578
0.00252149
0.00430484
0.0076679
0.0055344
0.00593499
0.00274913
0.00309392
0.00334869
0.00285631
0.00512354
0.00406984
0.00262926
