# vtk DataFile Version 3.0
DEM2D particles
ASCII
DATASET POLYDATA
POINTS 25 double
0.000436511 0.000522117 0
0.00259373 0.000310143 0
0.00503527 0.00110143 0
0.0075525 -0.000347154 0
0.00982669 -0.000189216 0
0.00134532 0.0026859 0
0.00385427 0.00217435 0
0.0049179 0.00128385 0
0.00662312 0.00291999 0
0.00923317 0.0022338 0
0.000767124 0.00442139 0
0.0037611 0.00331395 0
0.00456232 0.00450013 0
0.00622589 0.00471835 0
0.00871364 0.00396765 0
0.00180206 0.00613318 0
0.00309208 0.00543632 0
0.0055426 0.00587632 0
0.00726105 0.00701918 0
0.00950038 0.00682417 0
0.000727257 0.00800761 0
0.00319925 0.00735791 0
0.00427968 0.00842899 0
0.00693409 0.00786808 0
0.00824173 0.00829554 0
VERTICES 25 50
1 0
1 1
1 2
1 3
1 4
1 5
1 6
1 7
1 8
1 9
1 10
1 11
1 12
1 13
1 14
1 15
1 16
1 17
1 18
1 19
1 20
1 21
1 22
1 23
1 24
POINT_DATA 25
VECTORS velocity double
-8.09995e-40 -0.00970858 0
-5.84e-40 -0.00970858 0
5.06974e-41 -0.00970858 0
7.94203e-40 -0.00970858 0
1.18834e-39 -0.00970858 0
4.96386e-40 -0.00970858 0
1.22798e-39 -0.00970858 0
-1.18014e-40 -0.00970858 0
-5.4175e-40 -0.00970858 0
3.35172e-40 -0.00970858 0
-3.3475e-40 -0.00970858 0
1.09406e-39 -0.00970858 0
-6.29153e-40 -0.00970858 0
-1.11276e-39 -0.00970858 0
-4.11633e-40 -0.00970858 0
1.15293e-39 -0.00970858 0
1.32357e-40 -0.00970858 0
7.7997e-40 -0.00970858 0
3.75246e-40 -0.00970858 0
7.19282e-40 -0.00970858 0
-3.92058e-40 -0.00970858 0
2.86414e-40 -0.00970858 0
-1.03543e-39 -0.00970858 0
-9.47405e-41 -0.00970858 0
-1.08998e-39 -0.00970858 0
SCALARS radius double 1
LOOKUP_TABLE default
0.000621415
0.000750874
0.000735541
0.000522882
0.000780242
0.00097475
0.000994168
0.000790412
0.000880848
0.000720838
0.000933918
0.000958934
0.000753488
0.00054522
0.000712397
0.000950783
0.000807753
0.000836475
0.000569299
0.000603945
0.000628319
0.000580291
0.000777192
0.000692678
0.00055675
SCALARS mass double 1
LOOKUP_TABLE default
0.00327549
0.00478242
0.00458909
0.0023191
0.00516383
0.00805935
0.00838365
0.00529932
0.00658136
0.00440747
0.00739829
0.00779994
0.00481578
0.00252149
0.00430484
0.0076679
0.0055344
0.00593499
0.00274913
0.00309392
0.00334869
0.00285631
0.00512354
0.00406984
0.00262926
