# vtk DataFile Version 3.0
DEM2D particles
ASCII
DATASET POLYDATA
POINTS 25 double
0.000436511 0.00089881 0
0.00259373 0.000686836 0
0.00503527 0.00147813 0
0.0075525 2.95395e-05 0
0.00982669 0.000187477 0
0.00134532 0.0030626 0
0.00385427 0.00255105 0
0.0049179 0.00166054 0
0.00662312 0.00329668 0
0.00923317 0.0026105 0
0.000767124 0.00479808 0
0.0037611 0.00369064 0
0.00456232 0.00487682 0
0.00622589 0.00509504 0
0.00871364 0.00434435 0
0.00180206 0.00650988 0
0.00309208 0.00581302 0
0.0055426 0.00625301 0
0.00726105 0.00739587 0
0.00950038 0.00720086 0
0.000727257 0.0083843 0
0.00319925 0.0077346 0
0.00427968 0.00880568 0
0.00693409 0.00824477 0
0.00824173 0.00867223 0
VERTICES 25 50
1 0
1 1
1 2
1 3
1 4
1 5
1 6
1 7
1 8
1 9
1 10
1 11
1 12
1 13
1 14
1 15
1 16
1 17
1 18
1 19
1 20
1 21
1 22
1 23
1 24
POINT_DATA 25
VECTORS velocity double
-6.98115e-23 -0.00970858 0
-5.03336e-23 -0.00970858 0
4.36949e-24 -0.00970858 0
6.84505e-23 -0.00970858 0
1.0242e-22 -0.00970858 0
4.27823e-23 -0.00970858 0
1.05836e-22 -0.00970858 0
-1.01713e-23 -0.00970858 0
-4.66922e-23 -0.00970858 0
2.88877e-23 -0.00970858 0
-2.88513e-23 -0.00970858 0
9.42942e-23 -0.00970858 0
-5.42252e-23 -0.00970858 0
-9.59058e-23 -0.00970858 0
-3.54777e-23 -0.00970858 0
9.9368e-23 -0.00970858 0
1.14076e-23 -0.00970858 0
6.72237e-23 -0.00970858 0
3.23416e-23 -0.00970858 0
6.19932e-23 -0.00970858 0
-3.37906e-23 -0.00970858 0
2.46854e-23 -0.00970858 0
-8.92412e-23 -0.00970858 0
-8.16546e-24 -0.00970858 0
-9.39426e-23 -0.00970858 0
SCALARS radius double 1
LOOKUP_TABLE default
0.000621415
0.000750874
0.000735541
0.000522882
0.000780242
0.00097475
0.000994168
0.000790412
0.000880848
0.000720838
0.000933918
0.000958934
0.000753488
0.00054522
0.000712397
0.000950783
0.000807753
0.000836475
0.000569299
0.000603945
0.000628319
0.000580291
0.000777192
0.000692678
0.00055675
SCALARS mass double 1
LOOKUP_TABLE default
0.00327549
0.00478242
0.00458909
0.0023191
0.00516383
0.00805935
0.00838365
0.00529932
0.00658136
0.00440747
0.00739829
0.00779994
0.00481578
0.00252149
0.00430484
0.0076679
0.0055344
0.00593499
0.00274913
0.00309392
0.00334869
0.00285631
0.00512354
0.00406984
0.00262926
