# vtk DataFile Version 3.0
DEM2D particles
ASCII
DATASET POLYDATA
POINTS 25 double
0.000436511 0.000236685 0
0.00259373 2.47107e-05 0
0.00503527 0.000816001 0
0.0075525 -0.000632586 0
0.00982669 -0.000474649 0
0.00134532 0.00240047 0
0.00385427 0.00188892 0
0.0049179 0.000998417 0
0.00662312 0.00263455 0
0.00923317 0.00194837 0
0.000767124 0.00413596 0
0.0037611 0.00302852 0
0.00456232 0.00421469 0
0.00622589 0.00443292 0
0.00871364 0.00368222 0
0.00180206 0.00584775 0
0.00309208 0.00515089 0
0.0055426 0.00559088 0
0.00726105 0.00673375 0
0.00950038 0.00653873 0
0.000727257 0.00772218 0
0.00319925 0.00707248 0
0.00427968 0.00814355 0
0.00693409 0.00758264 0
0.00824173 0.00801011 0
VERTICES 25 50
1 0
1 1
1 2
1 3
1 4
1 5
1 6
1 7
1 8
1 9
1 10
1 11
1 12
1 13
1 14
1 15
1 16
1 17
1 18
1 19
1 20
1 21
1 22
1 23
1 24
POINT_DATA 25
VECTORS velocity double
-1.19112e-52 -0.00970858 0
-8.58786e-53 -0.00970858 0
7.45517e-54 -0.00970858 0
1.1679e-52 -0.00970858 0
1.74749e-52 -0.00970858 0
7.29948e-53 -0.00970858 0
1.80577e-52 -0.00970858 0
-1.73542e-53 -0.00970858 0
-7.96657e-53 -0.00970858 0
4.92879e-53 -0.00970858 0
-4.92258e-53 -0.00970858 0
1.60884e-52 -0.00970858 0
-9.25185e-53 -0.00970858 0
-1.63633e-52 -0.00970858 0
-6.05316e-53 -0.00970858 0
1.69541e-52 -0.00970858 0
1.94634e-53 -0.00970858 0
1.14696e-52 -0.00970858 0
5.51808e-53 -0.00970858 0
1.05772e-52 -0.00970858 0
-5.76531e-53 -0.00970858 0
4.21179e-53 -0.00970858 0
-1.52262e-52 -0.00970858 0
-1.39318e-53 -0.00970858 0
-1.60284e-52 -0.00970858 0
SCALARS radius double 1
LOOKUP_TABLE default
0.000621415
0.000750874
0.000735541
0.000522882
0.000780242
0.00097475
0.000994168
0.000790412
0.000880848
0.000720838
0.000933918
0.000958934
0.000753488
0.00054522
0.000712397
0.000950783
0.000807753
0.000836475
0.000569299
0.000603945
0.000628319
0.000580291
0.000777192
0.000692678
0.00055675
SCALARS mass double 1
LOOKUP_TABLE default
0.00327549
0.00478242
0.00458909
0.0023191
0.00516383
0.00805935
0.00838365
0.00529932
0.00658136
0.00440747
0.00739829
0.00779994
0.00481578
0.00252149
0.00430484
0.0076679
0.0055344
0.00593499
0.00274913
0.00309392
0.00334869
0.00285631
0.00512354
0.00406984
0.00262926
