# vtk DataFile Version 3.0
DEM2D particles
ASCII
DATASET POLYDATA
POINTS 25 double
0.000436511 -0.000404082 0
0.00259373 -0.000616056 0
0.00503527 0.000175235 0
0.0075525 -0.00127335 0
0.00982669 -0.00111542 0
0.00134532 0.0017597 0
0.00385427 0.00124815 0
0.0049179 0.00035765 0
0.00662312 0.00199379 0
0.00923317 0.0013076 0
0.000767124 0.00349519 0
0.0037611 0.00238775 0
0.00456232 0.00357393 0
0.00622589 0.00379215 0
0.00871364 0.00304146 0
0.00180206 0.00520699 0
0.00309208 0.00451012 0
0.0055426 0.00495012 0
0.00726105 0.00609298 0
0.00950038 0.00589797 0
0.000727257 0.00708141 0
0.00319925 0.00643171 0
0.00427968 0.00750279 0
0.00693409 0.00694188 0
0.00824173 0.00736934 0
VERTICES 25 50
1 0
1 1
1 2
1 3
1 4
1 5
1 6
1 7
1 8
1 9
1 10
1 11
1 12
1 13
1 14
1 15
1 16
1 17
1 18
1 19
1 20
1 21
1 22
1 23
1 24
POINT_DATA 25
VECTORS velocity double
-1.85455e-81 -0.00970858 0
-1.33712e-81 -0.00970858 0
1.16076e-82 -0.00970858 0
1.81839e-81 -0.00970858 0
2.72081e-81 -0.00970858 0
1.13652e-81 -0.00970858 0
2.81155e-81 -0.00970858 0
-2.70203e-82 -0.00970858 0
-1.24038e-81 -0.00970858 0
7.67405e-82 -0.00970858 0
-7.66439e-82 -0.00970858 0
2.50493e-81 -0.00970858 0
-1.4405e-81 -0.00970858 0
-2.54775e-81 -0.00970858 0
-9.42468e-82 -0.00970858 0
2.63972e-81 -0.00970858 0
3.03043e-82 -0.00970858 0
1.78581e-81 -0.00970858 0
8.59157e-82 -0.00970858 0
1.64686e-81 -0.00970858 0
-8.9765e-82 -0.00970858 0
6.5577e-82 -0.00970858 0
-2.3707e-81 -0.00970858 0
-2.16916e-82 -0.00970858 0
-2.4956e-81 -0.00970858 0
SCALARS radius double 1
LOOKUP_TABLE default
0.000621415
0.000750874
0.000735541
0.000522882
0.000780242
0.00097475
0.000994168
0.000790412
0.000880848
0.000720838
0.000933918
0.000958934
0.000753488
0.00054522
0.000712397
0.000950783
0.000807753
0.000836475
0.000569299
0.000603945
0.000628319
0.000580291
0.000777192
0.000692678
0.00055675
SCALARS mass double 1
LOOKUP_TABLE default
0.00327549
0.00478242
0.00458909
0.0023191
0.00516383
0.00805935
0.00838365
0.00529932
0.00658136
0.00440747
0.00739829
0.00779994
0.00481578
0.00252149
0.00430484
0.0076679
0.0055344
0.00593499
0.00274913
0.00309392
0.00334869
0.00285631
0.00512354
0.00406984
0.00262926
