# vtk DataFile Version 3.0
DEM2D particles
ASCII
DATASET POLYDATA
POINTS 25 double
0.000436511 3.86297e-05 0
0.00259373 -0.000173344 0
0.00503527 0.000617946 0
0.0075525 -0.000830641 0
0.00982669 -0.000672704 0
0.00134532 0.00220242 0
0.00385427 0.00169086 0
0.0049179 0.000800362 0
0.00662312 0.0024365 0
0.00923317 0.00175031 0
0.000767124 0.0039379 0
0.0037611 0.00283046 0
0.00456232 0.00401664 0
0.00622589 0.00423486 0
0.00871364 0.00348417 0
0.00180206 0.0056497 0
0.00309208 0.00495284 0
0.0055426 0.00539283 0
0.00726105 0.00653569 0
0.00950038 0.00634068 0
0.000727257 0.00752412 0
0.00319925 0.00687442 0
0.00427968 0.0079455 0
0.00693409 0.00738459 0
0.00824173 0.00781205 0
VERTICES 25 50
1 0
1 1
1 2
1 3
1 4
1 5
1 6
1 7
1 8
1 9
1 10
1 11
1 12
1 13
1 14
1 15
1 16
1 17
1 18
1 19
1 20
1 21
1 22
1 23
1 24
POINT_DATA 25
VECTORS velocity double
-1.48508e-61 -0.00970858 0
-1.07073e-61 -0.00970858 0
9.29511e-63 -0.00970858 0
1.45613e-61 -0.00970858 0
2.17877e-61 -0.00970858 0
9.10099e-62 -0.00970858 0
2.25143e-61 -0.00970858 0
-2.16373e-62 -0.00970858 0
-9.93272e-62 -0.00970858 0
6.14522e-62 -0.00970858 0
-6.13748e-62 -0.00970858 0
2.0059e-61 -0.00970858 0
-1.15352e-61 -0.00970858 0
-2.04018e-61 -0.00970858 0
-7.54709e-62 -0.00970858 0
2.11383e-61 -0.00970858 0
2.4267e-62 -0.00970858 0
1.43004e-61 -0.00970858 0
6.87995e-62 -0.00970858 0
1.31877e-61 -0.00970858 0
-7.18819e-62 -0.00970858 0
5.25127e-62 -0.00970858 0
-1.89841e-61 -0.00970858 0
-1.73702e-62 -0.00970858 0
-1.99842e-61 -0.00970858 0
SCALARS radius double 1
LOOKUP_TABLE default
0.000621415
0.000750874
0.000735541
0.000522882
0.000780242
0.00097475
0.000994168
0.000790412
0.000880848
0.000720838
0.000933918
0.000958934
0.000753488
0.00054522
0.000712397
0.000950783
0.000807753
0.000836475
0.000569299
0.000603945
0.000628319
0.000580291
0.000777192
0.000692678
0.00055675
SCALARS mass double 1
LOOKUP_TABLE default
0.00327549
0.00478242
0.00458909
0.0023191
0.00516383
0.00805935
0.00838365
0.00529932
0.00658136
0.00440747
0.00739829
0.00779994
0.00481578
0.00252149
0.00430484
0.0076679
0.0055344
0.00593499
0.00274913
0.00309392
0.00334869
0.00285631
0.00512354
0.00406984
0.00262926
