# vtk DataFile Version 3.0
DEM2D particles
ASCII
DATASET POLYDATA
POINTS 25 double
0.000436511 -0.000464275 0
0.00259373 -0.000676249 0
0.00503527 0.000115041 0
0.0075525 -0.00133355 0
0.00982669 -0.00117561 0
0.00134532 0.00169951 0
0.00385427 0.00118796 0
0.0049179 0.000297457 0
0.00662312 0.0019336 0
0.00923317 0.00124741 0
0.000767124 0.003435 0
0.0037611 0.00232756 0
0.00456232 0.00351373 0
0.00622589 0.00373196 0
0.00871364 0.00298126 0
0.00180206 0.00514679 0
0.00309208 0.00444993 0
0.0055426 0.00488992 0
0.00726105 0.00603279 0
0.00950038 0.00583777 0
0.000727257 0.00702122 0
0.00319925 0.00637152 0
0.00427968 0.00744259 0
0.00693409 0.00688169 0
0.00824173 0.00730915 0
VERTICES 25 50
1 0
1 1
1 2
1 3
1 4
1 5
1 6
1 7
1 8
1 9
1 10
1 11
1 12
1 13
1 14
1 15
1 16
1 17
1 18
1 19
1 20
1 21
1 22
1 23
1 24
POINT_DATA 25
VECTORS velocity double
-3.64804e-84 -0.00970858 0
-2.63021e-84 -0.00970858 0
2.2833e-85 -0.00970858 0
3.57692e-84 -0.00970858 0
5.35203e-84 -0.00970858 0
2.23561e-84 -0.00970858 0
5.53053e-84 -0.00970858 0
-5.31509e-85 -0.00970858 0
-2.43992e-84 -0.00970858 0
1.50954e-84 -0.00970858 0
-1.50764e-84 -0.00970858 0
4.92739e-84 -0.00970858 0
-2.83357e-84 -0.00970858 0
-5.01161e-84 -0.00970858 0
-1.85391e-84 -0.00970858 0
5.19253e-84 -0.00970858 0
5.96108e-85 -0.00970858 0
3.51281e-84 -0.00970858 0
1.69002e-84 -0.00970858 0
3.23949e-84 -0.00970858 0
-1.76574e-84 -0.00970858 0
1.28995e-84 -0.00970858 0
-4.66334e-84 -0.00970858 0
-4.2669e-85 -0.00970858 0
-4.90902e-84 -0.00970858 0
SCALARS radius double 1
LOOKUP_TABLE default
0.000621415
0.000750874
0.000735541
0.000522882
0.000780242
0.00097475
0.000994168
0.000790412
0.000880848
0.000720838
0.000933918
0.000958934
0.000753488
0.00054522
0.000712397
0.000950783
0.000807753
0.000836475
0.000569299
0.000603945
0.000628319
0.000580291
0.000777192
0.000692678
0.00055675
SCALARS mass double 1
LOOKUP_TABLE default
0.00327549
0.00478242
0.00458909
0.0023191
0.00516383
0.00805935
0.00838365
0.00529932
0.00658136
0.00440747
0.00739829
0.00779994
0.00481578
0.00252149
0.00430484
0.0076679
0.0055344
0.00593499
0.00274913
0.00309392
0.00334869
0.00285631
0.00512354
0.00406984
0.00262926
