# vtk DataFile Version 3.0
DEM2D particles
ASCII
DATASET POLYDATA
POINTS 25 double
0.000436511 0.000192025 0
0.00259373 -1.99488e-05 0
0.00503527 0.000771342 0
0.0075525 -0.000677245 0
0.00982669 -0.000519308 0
0.00134532 0.00235581 0
0.00385427 0.00184426 0
0.0049179 0.000953757 0
0.00662312 0.0025899 0
0.00923317 0.00190371 0
0.000767124 0.0040913 0
0.0037611 0.00298386 0
0.00456232 0.00417003 0
0.00622589 0.00438826 0
0.00871364 0.00363756 0
0.00180206 0.00580309 0
0.00309208 0.00510623 0
0.0055426 0.00554622 0
0.00726105 0.00668909 0
0.00950038 0.00649407 0
0.000727257 0.00767752 0
0.00319925 0.00702782 0
0.00427968 0.00809889 0
0.00693409 0.00753799 0
0.00824173 0.00796545 0
VERTICES 25 50
1 0
1 1
1 2
1 3
1 4
1 5
1 6
1 7
1 8
1 9
1 10
1 11
1 12
1 13
1 14
1 15
1 16
1 17
1 18
1 19
1 20
1 21
1 22
1 23
1 24
POINT_DATA 25
VECTORS velocity double
-1.16989e-54 -0.00970858 0
-8.43479e-55 -0.00970858 0
7.3223e-56 -0.00970858 0
1.14708e-54 -0.00970858 0
1.71634e-54 -0.00970858 0
7.16937e-55 -0.00970858 0
1.77358e-54 -0.00970858 0
-1.70449e-55 -0.00970858 0
-7.82457e-55 -0.00970858 0
4.84094e-55 -0.00970858 0
-4.83485e-55 -0.00970858 0
1.58016e-54 -0.00970858 0
-9.08695e-55 -0.00970858 0
-1.60717e-54 -0.00970858 0
-5.94528e-55 -0.00970858 0
1.66519e-54 -0.00970858 0
1.91165e-55 -0.00970858 0
1.12652e-54 -0.00970858 0
5.41973e-55 -0.00970858 0
1.03887e-54 -0.00970858 0
-5.66255e-55 -0.00970858 0
4.13672e-55 -0.00970858 0
-1.49548e-54 -0.00970858 0
-1.36835e-55 -0.00970858 0
-1.57427e-54 -0.00970858 0
SCALARS radius double 1
LOOKUP_TABLE default
0.000621415
0.000750874
0.000735541
0.000522882
0.000780242
0.00097475
0.000994168
0.000790412
0.000880848
0.000720838
0.000933918
0.000958934
0.000753488
0.00054522
0.000712397
0.000950783
0.000807753
0.000836475
0.000569299
0.000603945
0.000628319
0.000580291
0.000777192
0.000692678
0.00055675
SCALARS mass double 1
LOOKUP_TABLE default
0.00327549
0.00478242
0.00458909
0.0023191
0.00516383
0.00805935
0.00838365
0.00529932
0.00658136
0.00440747
0.00739829
0.00779994
0.00481578
0.00252149
0.00430484
0.0076679
0.0055344
0.00593499
0.00274913
0.00309392
0.00334869
0.00285631
0.00512354
0.00406984
0.00262926
