# vtk DataFile Version 3.0
DEM2D particles
ASCII
DATASET POLYDATA
POINTS 25 double
0.000436524 0.00128326 0
0.00259374 0.00107129 0
0.00503527 0.00186256 0
0.00755249 0.000414011 0
0.00982667 0.000571944 0
0.00134531 0.00344704 0
0.00385425 0.0029355 0
0.0049179 0.00204502 0
0.00662313 0.00368112 0
0.00923316 0.00299495 0
0.00076713 0.00518254 0
0.00376108 0.00407512 0
0.00456233 0.00526127 0
0.00622591 0.00547949 0
0.00871365 0.00472881 0
0.00180204 0.00689434 0
0.00309207 0.00619749 0
0.00554259 0.00663748 0
0.00726104 0.00778031 0
0.00950037 0.0075853 0
0.000727263 0.00876876 0
0.00319925 0.00811908 0
0.0042797 0.00919013 0
0.00693409 0.00862924 0
0.00824175 0.00905669 0
VERTICES 25 50
1 0
1 1
1 2
1 3
1 4
1 5
1 6
1 7
1 8
1 9
1 10
1 11
1 12
1 13
1 14
1 15
1 16
1 17
1 18
1 19
1 20
1 21
1 22
1 23
1 24
POINT_DATA 25
VECTORS velocity double
-1.34449e-05 -0.00969937 0
-9.69365e-06 -0.00970443 0
8.41511e-07 -0.00968555 0
1.31828e-05 -0.00972011 0
1.9725e-05 -0.00971634 0
8.23937e-06 -0.00969546 0
2.03828e-05 -0.00970767 0
-1.95888e-06 -0.00972891 0
-8.99236e-06 -0.00968988 0
5.56343e-06 -0.00970625 0
-5.55642e-06 -0.00970177 0
1.81599e-05 -0.0097282 0
-1.04431e-05 -0.00969989 0
-1.84703e-05 -0.00969469 0
-6.83258e-06 -0.0097126 0
1.91371e-05 -0.00970865 0
2.19696e-06 -0.00972528 0
1.29465e-05 -0.00971478 0
6.2286e-06 -0.00968751 0
1.19392e-05 -0.00969216 0
-6.50766e-06 -0.00971165 0
4.75411e-06 -0.00972715 0
-1.71868e-05 -0.00970159 0
-1.57257e-06 -0.00971497 0
-1.80922e-05 -0.00970478 0
SCALARS radius double 1
LOOKUP_TABLE default
0.000621415
0.000750874
0.000735541
0.000522882
0.000780242
0.00097475
0.000994168
0.000790412
0.000880848
0.000720838
0.000933918
0.000958934
0.000753488
0.00054522
0.000712397
0.000950783
0.000807753
0.000836475
0.000569299
0.000603945
0.000628319
0.000580291
0.000777192
0.000692678
0.00055675
SCALARS mass double 1
LOOKUP_TABLE default
0.00327549
0.00478242
0.00458909
0.0023191
0.00516383
0.00805935
0.00838365
0.00529932
0.00658136
0.00440747
0.00739829
0.00779994
0.00481578
0.00252149
0.00430484
0.0076679
0.0055344
0.00593499
0.00274913
0.00309392
0.00334869
0.00285631
0.00512354
0.00406984
0.00262926
