# vtk DataFile Version 3.0
DEM2D particles
ASCII
DATASET POLYDATA
POINTS 25 double
0.000436511 5.22217e-05 0
0.00259373 -0.000159752 0
0.00503527 0.000631538 0
0.0075525 -0.000817049 0
0.00982669 -0.000659112 0
0.00134532 0.00221601 0
0.00385427 0.00170446 0
0.0049179 0.000813954 0
0.00662312 0.00245009 0
0.00923317 0.00176391 0
0.000767124 0.0039515 0
0.0037611 0.00284405 0
0.00456232 0.00403023 0
0.00622589 0.00424845 0
0.00871364 0.00349776 0
0.00180206 0.00566329 0
0.00309208 0.00496643 0
0.0055426 0.00540642 0
0.00726105 0.00654928 0
0.00950038 0.00635427 0
0.000727257 0.00753771 0
0.00319925 0.00688801 0
0.00427968 0.00795909 0
0.00693409 0.00739818 0
0.00824173 0.00782564 0
VERTICES 25 50
1 0
1 1
1 2
1 3
1 4
1 5
1 6
1 7
1 8
1 9
1 10
1 11
1 12
1 13
1 14
1 15
1 16
1 17
1 18
1 19
1 20
1 21
1 22
1 23
1 24
POINT_DATA 25
VECTORS velocity double
-6.0649e-61 -0.00970858 0
-4.37275e-61 -0.00970858 0
3.79601e-62 -0.00970858 0
5.94667e-61 -0.00970858 0
8.89782e-61 -0.00970858 0
3.71673e-61 -0.00970858 0
9.19458e-61 -0.00970858 0
-8.8364e-62 -0.00970858 0
-4.0564e-61 -0.00970858 0
2.50963e-61 -0.00970858 0
-2.50647e-61 -0.00970858 0
8.19185e-61 -0.00970858 0
-4.71084e-61 -0.00970858 0
-8.33185e-61 -0.00970858 0
-3.08214e-61 -0.00970858 0
8.63264e-61 -0.00970858 0
9.91036e-62 -0.00970858 0
5.84009e-61 -0.00970858 0
2.80969e-61 -0.00970858 0
5.38569e-61 -0.00970858 0
-2.93557e-61 -0.00970858 0
2.14455e-61 -0.00970858 0
-7.75286e-61 -0.00970858 0
-7.09378e-62 -0.00970858 0
-8.16131e-61 -0.00970858 0
SCALARS radius double 1
LOOKUP_TABLE default
0.000621415
0.000750874
0.000735541
0.000522882
0.000780242
0.00097475
0.000994168
0.000790412
0.000880848
0.000720838
0.000933918
0.000958934
0.000753488
0.00054522
0.000712397
0.000950783
0.000807753
0.000836475
0.000569299
0.000603945
0.000628319
0.000580291
0.000777192
0.000692678
0.00055675
SCALARS mass double 1
LOOKUP_TABLE default
0.00327549
0.00478242
0.00458909
0.0023191
0.00516383
0.00805935
0.00838365
0.00529932
0.00658136
0.00440747
0.00739829
0.00779994
0.00481578
0.00252149
0.00430484
0.0076679
0.0055344
0.00593499
0.00274913
0.00309392
0.00334869
0.00285631
0.00512354
0.00406984
0.00262926
