# vtk DataFile Version 3.0
DEM2D particles
ASCII
DATASET POLYDATA
POINTS 25 double
0.000436511 -7.9815e-05 0
0.00259373 -0.000291789 0
0.00503527 0.000499501 0
0.0075525 -0.000949086 0
0.00982669 -0.000791149 0
0.00134532 0.00208397 0
0.00385427 0.00157242 0
0.0049179 0.000681917 0
0.00662312 0.00231806 0
0.00923317 0.00163187 0
0.000767124 0.00381946 0
0.0037611 0.00271202 0
0.00456232 0.00389819 0
0.00622589 0.00411642 0
0.00871364 0.00336572 0
0.00180206 0.00553125 0
0.00309208 0.00483439 0
0.0055426 0.00527438 0
0.00726105 0.00641725 0
0.00950038 0.00622223 0
0.000727257 0.00740568 0
0.00319925 0.00675598 0
0.00427968 0.00782705 0
0.00693409 0.00726615 0
0.00824173 0.00769361 0
VERTICES 25 50
1 0
1 1
1 2
1 3
1 4
1 5
1 6
1 7
1 8
1 9
1 10
1 11
1 12
1 13
1 14
1 15
1 16
1 17
1 18
1 19
1 20
1 21
1 22
1 23
1 24
POINT_DATA 25
VECTORS velocity double
-7.02568e-67 -0.00970858 0
-5.06547e-67 -0.00970858 0
4.39736e-68 -0.00970858 0
6.88872e-67 -0.00970858 0
1.03074e-66 -0.00970858 0
4.30553e-67 -0.00970858 0
1.06511e-66 -0.00970858 0
-1.02362e-67 -0.00970858 0
-4.699e-67 -0.00970858 0
2.9072e-67 -0.00970858 0
-2.90354e-67 -0.00970858 0
9.48957e-67 -0.00970858 0
-5.45711e-67 -0.00970858 0
-9.65176e-67 -0.00970858 0
-3.5704e-67 -0.00970858 0
1.00002e-66 -0.00970858 0
1.14803e-67 -0.00970858 0
6.76526e-67 -0.00970858 0
3.25479e-67 -0.00970858 0
6.23887e-67 -0.00970858 0
-3.40061e-67 -0.00970858 0
2.48429e-67 -0.00970858 0
-8.98104e-67 -0.00970858 0
-8.21754e-68 -0.00970858 0
-9.45419e-67 -0.00970858 0
SCALARS radius double 1
LOOKUP_TABLE default
0.000621415
0.000750874
0.000735541
0.000522882
0.000780242
0.00097475
0.000994168
0.000790412
0.000880848
0.000720838
0.000933918
0.000958934
0.000753488
0.00054522
0.000712397
0.000950783
0.000807753
0.000836475
0.000569299
0.000603945
0.000628319
0.000580291
0.000777192
0.000692678
0.00055675
SCALARS mass double 1
LOOKUP_TABLE default
0.00327549
0.00478242
0.00458909
0.0023191
0.00516383
0.00805935
0.00838365
0.00529932
0.00658136
0.00440747
0.00739829
0.00779994
0.00481578
0.00252149
0.00430484
0.0076679
0.0055344
0.00593499
0.00274913
0.00309392
0.00334869
0.00285631
0.00512354
0.00406984
0.00262926
