# vtk DataFile Version 3.0
DEM2D particles
ASCII
DATASET POLYDATA
POINTS 25 double
0.000436511 0.000217268 0
0.00259373 5.2935e-06 0
0.00503527 0.000796584 0
0.0075525 -0.000652003 0
0.00982669 -0.000494066 0
0.00134532 0.00238105 0
0.00385427 0.0018695 0
0.0049179 0.000978999 0
0.00662312 0.00261514 0
0.00923317 0.00192895 0
0.000767124 0.00411654 0
0.0037611 0.0030091 0
0.00456232 0.00419528 0
0.00622589 0.0044135 0
0.00871364 0.0036628 0
0.00180206 0.00582834 0
0.00309208 0.00513147 0
0.0055426 0.00557147 0
0.00726105 0.00671433 0
0.00950038 0.00651932 0
0.000727257 0.00770276 0
0.00319925 0.00705306 0
0.00427968 0.00812414 0
0.00693409 0.00756323 0
0.00824173 0.00799069 0
VERTICES 25 50
1 0
1 1
1 2
1 3
1 4
1 5
1 6
1 7
1 8
1 9
1 10
1 11
1 12
1 13
1 14
1 15
1 16
1 17
1 18
1 19
1 20
1 21
1 22
1 23
1 24
POINT_DATA 25
VECTORS velocity double
-1.59585e-53 -0.00970858 0
-1.1506e-53 -0.00970858 0
9.98842e-55 -0.00970858 0
1.56474e-53 -0.00970858 0
2.34128e-53 -0.00970858 0
9.77982e-54 -0.00970858 0
2.41936e-53 -0.00970858 0
-2.32512e-54 -0.00970858 0
-1.06736e-53 -0.00970858 0
6.60358e-54 -0.00970858 0
-6.59526e-54 -0.00970858 0
2.15551e-53 -0.00970858 0
-1.23956e-53 -0.00970858 0
-2.19235e-53 -0.00970858 0
-8.11001e-54 -0.00970858 0
2.2715e-53 -0.00970858 0
2.60771e-54 -0.00970858 0
1.5367e-53 -0.00970858 0
7.39311e-54 -0.00970858 0
1.41713e-53 -0.00970858 0
-7.72435e-54 -0.00970858 0
5.64295e-54 -0.00970858 0
-2.04001e-53 -0.00970858 0
-1.86658e-54 -0.00970858 0
-2.14748e-53 -0.00970858 0
SCALARS radius double 1
LOOKUP_TABLE default
0.000621415
0.000750874
0.000735541
0.000522882
0.000780242
0.00097475
0.000994168
0.000790412
0.000880848
0.000720838
0.000933918
0.000958934
0.000753488
0.00054522
0.000712397
0.000950783
0.000807753
0.000836475
0.000569299
0.000603945
0.000628319
0.000580291
0.000777192
0.000692678
0.00055675
SCALARS mass double 1
LOOKUP_TABLE default
0.00327549
0.00478242
0.00458909
0.0023191
0.00516383
0.00805935
0.00838365
0.00529932
0.00658136
0.00440747
0.00739829
0.00779994
0.00481578
0.00252149
0.00430484
0.0076679
0.0055344
0.00593499
0.00274913
0.00309392
0.00334869
0.00285631
0.00512354
0.00406984
0.00262926
