# vtk DataFile Version 3.0
DEM2D particles
ASCII
DATASET POLYDATA
POINTS 25 double
0.000436511 0.00117065 0
0.00259373 0.000958676 0
0.00503527 0.00174997 0
0.0075525 0.00030138 0
0.00982669 0.000459317 0
0.00134532 0.00333444 0
0.00385427 0.00282289 0
0.0049179 0.00193238 0
0.00662312 0.00356852 0
0.00923317 0.00288234 0
0.000767124 0.00506992 0
0.0037611 0.00396248 0
0.00456232 0.00514866 0
0.00622589 0.00536688 0
0.00871364 0.00461619 0
0.00180206 0.00678172 0
0.00309208 0.00608486 0
0.0055426 0.00652485 0
0.00726105 0.00766771 0
0.00950038 0.0074727 0
0.000727257 0.00865614 0
0.00319925 0.00800644 0
0.00427968 0.00907752 0
0.00693409 0.00851661 0
0.00824173 0.00894407 0
VERTICES 25 50
1 0
1 1
1 2
1 3
1 4
1 5
1 6
1 7
1 8
1 9
1 10
1 11
1 12
1 13
1 14
1 15
1 16
1 17
1 18
1 19
1 20
1 21
1 22
1 23
1 24
POINT_DATA 25
VECTORS velocity double
-1.16247e-10 -0.00970858 0
-8.38133e-11 -0.00970858 0
7.27588e-12 -0.00970858 0
1.13981e-10 -0.00970858 0
1.70546e-10 -0.00970858 0
7.12393e-11 -0.00970858 0
1.76234e-10 -0.00970858 0
-1.69369e-11 -0.00970858 0
-7.77498e-11 -0.00970858 0
4.81026e-11 -0.00970858 0
-4.8042e-11 -0.00970858 0
1.57015e-10 -0.00970858 0
-9.02935e-11 -0.00970858 0
-1.59698e-10 -0.00970858 0
-5.90759e-11 -0.00970858 0
1.65463e-10 -0.00970858 0
1.89954e-11 -0.00970858 0
1.11938e-10 -0.00970858 0
5.38538e-11 -0.00970858 0
1.03228e-10 -0.00970858 0
-5.62666e-11 -0.00970858 0
4.1105e-11 -0.00970858 0
-1.48601e-10 -0.00970858 0
-1.35968e-11 -0.00970858 0
-1.56429e-10 -0.00970858 0
SCALARS radius double 1
LOOKUP_TABLE default
0.000621415
0.000750874
0.000735541
0.000522882
0.000780242
0.00097475
0.000994168
0.000790412
0.000880848
0.000720838
0.000933918
0.000958934
0.000753488
0.00054522
0.000712397
0.000950783
0.000807753
0.000836475
0.000569299
0.000603945
0.000628319
0.000580291
0.000777192
0.000692678
0.00055675
SCALARS mass double 1
LOOKUP_TABLE default
0.00327549
0.00478242
0.00458909
0.0023191
0.00516383
0.00805935
0.00838365
0.00529932
0.00658136
0.00440747
0.00739829
0.00779994
0.00481578
0.00252149
0.00430484
0.0076679
0.0055344
0.00593499
0.00274913
0.00309392
0.00334869
0.00285631
0.00512354
0.00406984
0.00262926
