# vtk DataFile Version 3.0
DEM2D particles
ASCII
DATASET POLYDATA
POINTS 25 double
0.000436511 -0.000518643 0
0.00259373 -0.000730617 0
0.00503527 6.06734e-05 0
0.0075525 -0.00138791 0
0.00982669 -0.00122998 0
0.00134532 0.00164514 0
0.00385427 0.00113359 0
0.0049179 0.000243089 0
0.00662312 0.00187923 0
0.00923317 0.00119304 0
0.000767124 0.00338063 0
0.0037611 0.00227319 0
0.00456232 0.00345937 0
0.00622589 0.00367759 0
0.00871364 0.00292689 0
0.00180206 0.00509242 0
0.00309208 0.00439556 0
0.0055426 0.00483556 0
0.00726105 0.00597842 0
0.00950038 0.00578341 0
0.000727257 0.00696685 0
0.00319925 0.00631715 0
0.00427968 0.00738823 0
0.00693409 0.00682732 0
0.00824173 0.00725478 0
VERTICES 25 50
1 0
1 1
1 2
1 3
1 4
1 5
1 6
1 7
1 8
1 9
1 10
1 11
1 12
1 13
1 14
1 15
1 16
1 17
1 18
1 19
1 20
1 21
1 22
1 23
1 24
POINT_DATA 25
VECTORS velocity double
-1.3115e-86 -0.00970858 0
-9.45581e-87 -0.00970858 0
8.20865e-88 -0.00970858 0
1.28593e-86 -0.00970858 0
1.9241e-86 -0.00970858 0
8.03722e-87 -0.00970858 0
1.98827e-86 -0.00970858 0
-1.91082e-87 -0.00970858 0
-8.77173e-87 -0.00970858 0
5.42693e-87 -0.00970858 0
-5.4201e-87 -0.00970858 0
1.77144e-86 -0.00970858 0
-1.01869e-86 -0.00970858 0
-1.80171e-86 -0.00970858 0
-6.66494e-87 -0.00970858 0
1.86676e-86 -0.00970858 0
2.14306e-87 -0.00970858 0
1.26289e-86 -0.00970858 0
6.07578e-87 -0.00970858 0
1.16462e-86 -0.00970858 0
-6.348e-87 -0.00970858 0
4.63747e-87 -0.00970858 0
-1.67651e-86 -0.00970858 0
-1.53399e-87 -0.00970858 0
-1.76483e-86 -0.00970858 0
SCALARS radius double 1
LOOKUP_TABLE default
0.000621415
0.000750874
0.000735541
0.000522882
0.000780242
0.00097475
0.000994168
0.000790412
0.000880848
0.000720838
0.000933918
0.000958934
0.000753488
0.00054522
0.000712397
0.000950783
0.000807753
0.000836475
0.000569299
0.000603945
0.000628319
0.000580291
0.000777192
0.000692678
0.00055675
SCALARS mass double 1
LOOKUP_TABLE default
0.00327549
0.00478242
0.00458909
0.0023191
0.00516383
0.00805935
0.00838365
0.00529932
0.00658136
0.00440747
0.00739829
0.00779994
0.00481578
0.00252149
0.00430484
0.0076679
0.0055344
0.00593499
0.00274913
0.00309392
0.00334869
0.00285631
0.00512354
0.00406984
0.00262926
