# vtk DataFile Version 3.0
DEM2D particles
ASCII
DATASET POLYDATA
POINTS 25 double
0.000436511 0.00116871 0
0.00259373 0.000956735 0
0.00503527 0.00174803 0
0.0075525 0.000299438 0
0.00982669 0.000457375 0
0.00134532 0.0033325 0
0.00385427 0.00282094 0
0.0049179 0.00193044 0
0.00662312 0.00356658 0
0.00923317 0.00288039 0
0.000767124 0.00506798 0
0.0037611 0.00396054 0
0.00456232 0.00514672 0
0.00622589 0.00536494 0
0.00871364 0.00461425 0
0.00180206 0.00677978 0
0.00309208 0.00608291 0
0.0055426 0.00652291 0
0.00726105 0.00766577 0
0.00950038 0.00747076 0
0.000727257 0.0086542 0
0.00319925 0.0080045 0
0.00427968 0.00907558 0
0.00693409 0.00851467 0
0.00824173 0.00894213 0
VERTICES 25 50
1 0
1 1
1 2
1 3
1 4
1 5
1 6
1 7
1 8
1 9
1 10
1 11
1 12
1 13
1 14
1 15
1 16
1 17
1 18
1 19
1 20
1 21
1 22
1 23
1 24
POINT_DATA 25
VECTORS velocity double
-9.50793e-11 -0.00970858 0
-6.85515e-11 -0.00970858 0
5.951e-12 -0.00970858 0
9.32257e-11 -0.00970858 0
1.39491e-10 -0.00970858 0
5.82671e-11 -0.00970858 0
1.44143e-10 -0.00970858 0
-1.38528e-11 -0.00970858 0
-6.35921e-11 -0.00970858 0
3.93434e-11 -0.00970858 0
-3.92939e-11 -0.00970858 0
1.28423e-10 -0.00970858 0
-7.38517e-11 -0.00970858 0
-1.30618e-10 -0.00970858 0
-4.83186e-11 -0.00970858 0
1.35334e-10 -0.00970858 0
1.55364e-11 -0.00970858 0
9.15549e-11 -0.00970858 0
4.40474e-11 -0.00970858 0
8.44312e-11 -0.00970858 0
-4.60208e-11 -0.00970858 0
3.36201e-11 -0.00970858 0
-1.21541e-10 -0.00970858 0
-1.11209e-11 -0.00970858 0
-1.27945e-10 -0.00970858 0
SCALARS radius double 1
LOOKUP_TABLE default
0.000621415
0.000750874
0.000735541
0.000522882
0.000780242
0.00097475
0.000994168
0.000790412
0.000880848
0.000720838
0.000933918
0.000958934
0.000753488
0.00054522
0.000712397
0.000950783
0.000807753
0.000836475
0.000569299
0.000603945
0.000628319
0.000580291
0.000777192
0.000692678
0.00055675
SCALARS mass double 1
LOOKUP_TABLE default
0.00327549
0.00478242
0.00458909
0.0023191
0.00516383
0.00805935
0.00838365
0.00529932
0.00658136
0.00440747
0.00739829
0.00779994
0.00481578
0.00252149
0.00430484
0.0076679
0.0055344
0.00593499
0.00274913
0.00309392
0.00334869
0.00285631
0.00512354
0.00406984
0.00262926
