# vtk DataFile Version 3.0
DEM2D particles
ASCII
DATASET POLYDATA
POINTS 25 double
0.000436511 0.000883276 0
0.00259373 0.000671302 0
0.00503527 0.00146259 0
0.0075525 1.40058e-05 0
0.00982669 0.000171943 0
0.00134532 0.00304706 0
0.00385427 0.00253551 0
0.0049179 0.00164501 0
0.00662312 0.00328115 0
0.00923317 0.00259496 0
0.000767124 0.00478255 0
0.0037611 0.00367511 0
0.00456232 0.00486129 0
0.00622589 0.00507951 0
0.00871364 0.00432881 0
0.00180206 0.00649434 0
0.00309208 0.00579748 0
0.0055426 0.00623748 0
0.00726105 0.00738034 0
0.00950038 0.00718532 0
0.000727257 0.00836877 0
0.00319925 0.00771907 0
0.00427968 0.00879015 0
0.00693409 0.00822924 0
0.00824173 0.0086567 0
VERTICES 25 50
1 0
1 1
1 2
1 3
1 4
1 5
1 6
1 7
1 8
1 9
1 10
1 11
1 12
1 13
1 14
1 15
1 16
1 17
1 18
1 19
1 20
1 21
1 22
1 23
1 24
POINT_DATA 25
VECTORS velocity double
-1.39816e-23 -0.00970858 0
-1.00807e-23 -0.00970858 0
8.75108e-25 -0.00970858 0
1.37091e-23 -0.00970858 0
2.05125e-23 -0.00970858 0
8.56832e-24 -0.00970858 0
2.11966e-23 -0.00970858 0
-2.03709e-24 -0.00970858 0
-9.35137e-24 -0.00970858 0
5.78555e-24 -0.00970858 0
-5.77826e-24 -0.00970858 0
1.8885e-23 -0.00970858 0
-1.08601e-23 -0.00970858 0
-1.92077e-23 -0.00970858 0
-7.10537e-24 -0.00970858 0
1.99011e-23 -0.00970858 0
2.28467e-24 -0.00970858 0
1.34634e-23 -0.00970858 0
6.47727e-24 -0.00970858 0
1.24158e-23 -0.00970858 0
-6.76748e-24 -0.00970858 0
4.94392e-24 -0.00970858 0
-1.7873e-23 -0.00970858 0
-1.63535e-24 -0.00970858 0
-1.88146e-23 -0.00970858 0
SCALARS radius double 1
LOOKUP_TABLE default
0.000621415
0.000750874
0.000735541
0.000522882
0.000780242
0.00097475
0.000994168
0.000790412
0.000880848
0.000720838
0.000933918
0.000958934
0.000753488
0.00054522
0.000712397
0.000950783
0.000807753
0.000836475
0.000569299
0.000603945
0.000628319
0.000580291
0.000777192
0.000692678
0.00055675
SCALARS mass double 1
LOOKUP_TABLE default
0.00327549
0.00478242
0.00458909
0.0023191
0.00516383
0.00805935
0.00838365
0.00529932
0.00658136
0.00440747
0.00739829
0.00779994
0.00481578
0.00252149
0.00430484
0.0076679
0.0055344
0.00593499
0.00274913
0.00309392
0.00334869
0.00285631
0.00512354
0.00406984
0.00262926
