# vtk DataFile Version 3.0
DEM2D particles
ASCII
DATASET POLYDATA
POINTS 25 double
0.000897393 0.00106838 0
0.00292602 0.00102978 0
0.00500642 0.00117387 0
0.00710061 0.000910091 0
0.00915054 0.00093885 0
0.00106288 0.0030982 0
0.00315556 0.00300505 0
0.00498505 0.0028429 0
0.00693137 0.00314083 0
0.00904246 0.00301588 0
0.000957595 0.00505004 0
0.00313859 0.00484838 0
0.0049203 0.00506437 0
0.00685904 0.00510411 0
0.00894786 0.00496742 0
0.00114605 0.00699756 0
0.00301677 0.00687066 0
0.0050988 0.00695078 0
0.00704753 0.00715889 0
0.00909112 0.00712338 0
0.000950335 0.00897469 0
0.00303628 0.00885639 0
0.00486884 0.00905142 0
0.006988 0.00894928 0
0.00886193 0.00902712 0
VERTICES 25 50
1 0
1 1
1 2
1 3
1 4
1 5
1 6
1 7
1 8
1 9
1 10
1 11
1 12
1 13
1 14
1 15
1 16
1 17
1 18
1 19
1 20
1 21
1 22
1 23
1 24
POINT_DATA 25
VECTORS velocity double
-0.465537 0.309342 0
-0.335649 0.134216 0
0.0291379 0.787955 0
0.456461 -0.408822 0
0.682989 -0.278339 0
0.285293 0.444657 0
0.705768 0.0220297 0
-0.0678275 -0.713676 0
-0.311366 0.63805 0
0.192637 0.0711454 0
-0.192395 0.226126 0
0.628799 -0.688808 0
-0.3616 0.291174 0
-0.639546 0.471464 0
-0.236582 -0.148738 0
0.662634 -0.0119816 0
0.0760711 -0.587707 0
0.44828 -0.224198 0
0.215669 0.719999 0
0.413401 0.558885 0
-0.225332 -0.115729 0
0.164614 -0.65249 0
-0.595103 0.2324 0
-0.0544512 -0.231005 0
-0.626455 0.12215 0
SCALARS radius double 1
LOOKUP_TABLE default
0.000621415
0.000750874
0.000735541
0.000522882
0.000780242
0.00097475
0.000994168
0.000790412
0.000880848
0.000720838
0.000933918
0.000958934
0.000753488
0.00054522
0.000712397
0.000950783
0.000807753
0.000836475
0.000569299
0.000603945
0.000628319
0.000580291
0.000777192
0.000692678
0.00055675
SCALARS mass double 1
LOOKUP_TABLE default
0.00327549
0.00478242
0.00458909
0.0023191
0.00516383
0.00805935
0.00838365
0.00529932
0.00658136
0.00440747
0.00739829
0.00779994
0.00481578
0.00252149
0.00430484
0.0076679
0.0055344
0.00593499
0.00274913
0.00309392
0.00334869
0.00285631
0.00512354
0.00406984
0.00262926
