# vtk DataFile Version 3.0
DEM2D particles
ASCII
DATASET POLYDATA
POINTS 25 double
0.000436511 0.0001862 0
0.00259373 -2.5774e-05 0
0.00503527 0.000765517 0
0.0075525 -0.000683071 0
0.00982669 -0.000525133 0
0.00134532 0.00234999 0
0.00385427 0.00183844 0
0.0049179 0.000947932 0
0.00662312 0.00258407 0
0.00923317 0.00189789 0
0.000767124 0.00408547 0
0.0037611 0.00297803 0
0.00456232 0.00416421 0
0.00622589 0.00438243 0
0.00871364 0.00363174 0
0.00180206 0.00579727 0
0.00309208 0.00510041 0
0.0055426 0.0055404 0
0.00726105 0.00668326 0
0.00950038 0.00648825 0
0.000727257 0.00767169 0
0.00319925 0.00702199 0
0.00427968 0.00809307 0
0.00693409 0.00753216 0
0.00824173 0.00795962 0
VERTICES 25 50
1 0
1 1
1 2
1 3
1 4
1 5
1 6
1 7
1 8
1 9
1 10
1 11
1 12
1 13
1 14
1 15
1 16
1 17
1 18
1 19
1 20
1 21
1 22
1 23
1 24
POINT_DATA 25
VECTORS velocity double
-6.40111e-55 -0.00970858 0
-4.61515e-55 -0.00970858 0
4.00644e-56 -0.00970858 0
6.27632e-55 -0.00970858 0
9.39107e-55 -0.00970858 0
3.92277e-55 -0.00970858 0
9.70428e-55 -0.00970858 0
-9.32625e-56 -0.00970858 0
-4.28127e-55 -0.00970858 0
2.64875e-55 -0.00970858 0
-2.64542e-55 -0.00970858 0
8.64596e-55 -0.00970858 0
-4.97198e-55 -0.00970858 0
-8.79373e-55 -0.00970858 0
-3.253e-55 -0.00970858 0
9.11119e-55 -0.00970858 0
1.04597e-55 -0.00970858 0
6.16384e-55 -0.00970858 0
2.96544e-55 -0.00970858 0
5.68424e-55 -0.00970858 0
-3.0983e-55 -0.00970858 0
2.26344e-55 -0.00970858 0
-8.18264e-55 -0.00970858 0
-7.48702e-56 -0.00970858 0
-8.61373e-55 -0.00970858 0
SCALARS radius double 1
LOOKUP_TABLE default
0.000621415
0.000750874
0.000735541
0.000522882
0.000780242
0.00097475
0.000994168
0.000790412
0.000880848
0.000720838
0.000933918
0.000958934
0.000753488
0.00054522
0.000712397
0.000950783
0.000807753
0.000836475
0.000569299
0.000603945
0.000628319
0.000580291
0.000777192
0.000692678
0.00055675
SCALARS mass double 1
LOOKUP_TABLE default
0.00327549
0.00478242
0.00458909
0.0023191
0.00516383
0.00805935
0.00838365
0.00529932
0.00658136
0.00440747
0.00739829
0.00779994
0.00481578
0.00252149
0.00430484
0.0076679
0.0055344
0.00593499
0.00274913
0.00309392
0.00334869
0.00285631
0.00512354
0.00406984
0.00262926
