# vtk DataFile Version 3.0
DEM2D particles
ASCII
DATASET POLYDATA
POINTS 25 double
0.000436511 0.000933761 0
0.00259373 0.000721787 0
0.00503527 0.00151308 0
0.0075525 6.44904e-05 0
0.00982669 0.000222427 0
0.00134532 0.00309755 0
0.00385427 0.002586 0
0.0049179 0.00169549 0
0.00662312 0.00333163 0
0.00923317 0.00264545 0
0.000767124 0.00483304 0
0.0037611 0.00372559 0
0.00456232 0.00491177 0
0.00622589 0.00512999 0
0.00871364 0.0043793 0
0.00180206 0.00654483 0
0.00309208 0.00584797 0
0.0055426 0.00628796 0
0.00726105 0.00743082 0
0.00950038 0.00723581 0
0.000727257 0.00841925 0
0.00319925 0.00776955 0
0.00427968 0.00884063 0
0.00693409 0.00827972 0
0.00824173 0.00870718 0
VERTICES 25 50
1 0
1 1
1 2
1 3
1 4
1 5
1 6
1 7
1 8
1 9
1 10
1 11
1 12
1 13
1 14
1 15
1 16
1 17
1 18
1 19
1 20
1 21
1 22
1 23
1 24
POINT_DATA 25
VECTORS velocity double
-2.6017e-21 -0.00970858 0
-1.87581e-21 -0.00970858 0
1.6284e-22 -0.00970858 0
2.55098e-21 -0.00970858 0
3.81695e-21 -0.00970858 0
1.59439e-21 -0.00970858 0
3.94425e-21 -0.00970858 0
-3.7906e-22 -0.00970858 0
-1.7401e-21 -0.00970858 0
1.07657e-21 -0.00970858 0
-1.07522e-21 -0.00970858 0
3.51411e-21 -0.00970858 0
-2.02084e-21 -0.00970858 0
-3.57417e-21 -0.00970858 0
-1.32216e-21 -0.00970858 0
3.7032e-21 -0.00970858 0
4.25131e-22 -0.00970858 0
2.50526e-21 -0.00970858 0
1.20529e-21 -0.00970858 0
2.31033e-21 -0.00970858 0
-1.25929e-21 -0.00970858 0
9.19962e-22 -0.00970858 0
-3.32579e-21 -0.00970858 0
-3.04306e-22 -0.00970858 0
-3.501e-21 -0.00970858 0
SCALARS radius double 1
LOOKUP_TABLE default
0.000621415
0.000750874
0.000735541
0.000522882
0.000780242
0.00097475
0.000994168
0.000790412
0.000880848
0.000720838
0.000933918
0.000958934
0.000753488
0.00054522
0.000712397
0.000950783
0.000807753
0.000836475
0.000569299
0.000603945
0.000628319
0.000580291
0.000777192
0.000692678
0.00055675
SCALARS mass double 1
LOOKUP_TABLE default
0.00327549
0.00478242
0.00458909
0.0023191
0.00516383
0.00805935
0.00838365
0.00529932
0.00658136
0.00440747
0.00739829
0.00779994
0.00481578
0.00252149
0.00430484
0.0076679
0.0055344
0.00593499
0.00274913
0.00309392
0.00334869
0.00285631
0.00512354
0.00406984
0.00262926
