# vtk DataFile Version 3.0
DEM2D particles
ASCII
DATASET POLYDATA
POINTS 25 double
0.000549365 0.0012933 0
0.0026751 0.00112378 0
0.00502821 0.0017566 0
0.00744185 0.000598128 0
0.00966113 0.000724434 0
0.00127616 0.00342429 0
0.00368318 0.00301519 0
0.00493434 0.00230303 0
0.0066986 0.00361149 0
0.00918647 0.00306273 0
0.000813764 0.00521275 0
0.00360867 0.00432711 0
0.00464997 0.00527572 0
0.00638093 0.00545024 0
0.00877099 0.00484989 0
0.00164142 0.00698227 0
0.00307364 0.00642497 0
0.00543393 0.00677684 0
0.00720877 0.00769082 0
0.00940017 0.00753486 0
0.000781881 0.00888184 0
0.00315934 0.00836226 0
0.00442395 0.00921883 0
0.00694729 0.00877025 0
0.0083936 0.0091121 0
VERTICES 25 50
1 0
1 1
1 2
1 3
1 4
1 5
1 6
1 7
1 8
1 9
1 10
1 11
1 12
1 13
1 14
1 15
1 16
1 17
1 18
1 19
1 20
1 21
1 22
1 23
1 24
POINT_DATA 25
VECTORS velocity double
-0.113994 0.0684159 0
-0.0821887 0.0255335 0
0.00713485 0.185612 0
0.111771 -0.107438 0
0.16724 -0.075487 0
0.0698584 0.10155 0
0.172818 -0.00193697 0
-0.0166086 -0.182086 0
-0.0762427 0.148905 0
0.0471702 0.0100898 0
-0.0471108 0.0480391 0
0.153971 -0.175996 0
-0.0885433 0.0639671 0
-0.156603 0.108114 0
-0.0579308 -0.043752 0
0.162256 -0.0102652 0
0.0186272 -0.15124 0
0.109768 -0.0622296 0
0.0528099 0.168971 0
0.101227 0.12952 0
-0.055176 -0.0356693 0
0.0403083 -0.167103 0
-0.14572 0.0495754 0
-0.0133332 -0.0638964 0
-0.153397 0.022579 0
SCALARS radius double 1
LOOKUP_TABLE default
0.000621415
0.000750874
0.000735541
0.000522882
0.000780242
0.00097475
0.000994168
0.000790412
0.000880848
0.000720838
0.000933918
0.000958934
0.000753488
0.00054522
0.000712397
0.000950783
0.000807753
0.000836475
0.000569299
0.000603945
0.000628319
0.000580291
0.000777192
0.000692678
0.00055675
SCALARS mass double 1
LOOKUP_TABLE default
0.00327549
0.00478242
0.00458909
0.0023191
0.00516383
0.00805935
0.00838365
0.00529932
0.00658136
0.00440747
0.00739829
0.00779994
0.00481578
0.00252149
0.00430484
0.0076679
0.0055344
0.00593499
0.00274913
0.00309392
0.00334869
0.00285631
0.00512354
0.00406984
0.00262926
