# vtk DataFile Version 3.0
DEM2D particles
ASCII
DATASET POLYDATA
POINTS 25 double
0.000436511 0.00112017 0
0.00259373 0.000908192 0
0.00503527 0.00169948 0
0.0075525 0.000250895 0
0.00982669 0.000408832 0
0.00134532 0.00328395 0
0.00385427 0.0027724 0
0.0049179 0.0018819 0
0.00662312 0.00351804 0
0.00923317 0.00283185 0
0.000767124 0.00501944 0
0.0037611 0.003912 0
0.00456232 0.00509817 0
0.00622589 0.0053164 0
0.00871364 0.0045657 0
0.00180206 0.00673123 0
0.00309208 0.00603437 0
0.0055426 0.00647437 0
0.00726105 0.00761723 0
0.00950038 0.00742221 0
0.000727257 0.00860566 0
0.00319925 0.00795596 0
0.00427968 0.00902703 0
0.00693409 0.00846613 0
0.00824173 0.00889359 0
VERTICES 25 50
1 0
1 1
1 2
1 3
1 4
1 5
1 6
1 7
1 8
1 9
1 10
1 11
1 12
1 13
1 14
1 15
1 16
1 17
1 18
1 19
1 20
1 21
1 22
1 23
1 24
POINT_DATA 25
VECTORS velocity double
-6.24717e-13 -0.00970858 0
-4.50416e-13 -0.00970858 0
3.91009e-14 -0.00970858 0
6.12538e-13 -0.00970858 0
9.16522e-13 -0.00970858 0
3.82843e-13 -0.00970858 0
9.4709e-13 -0.00970858 0
-9.10196e-14 -0.00970858 0
-4.17831e-13 -0.00970858 0
2.58505e-13 -0.00970858 0
-2.5818e-13 -0.00970858 0
8.43803e-13 -0.00970858 0
-4.85241e-13 -0.00970858 0
-8.58225e-13 -0.00970858 0
-3.17477e-13 -0.00970858 0
8.89207e-13 -0.00970858 0
1.02082e-13 -0.00970858 0
6.0156e-13 -0.00970858 0
2.89413e-13 -0.00970858 0
5.54754e-13 -0.00970858 0
-3.02379e-13 -0.00970858 0
2.209e-13 -0.00970858 0
-7.98586e-13 -0.00970858 0
-7.30696e-14 -0.00970858 0
-8.40658e-13 -0.00970858 0
SCALARS radius double 1
LOOKUP_TABLE default
0.000621415
0.000750874
0.000735541
0.000522882
0.000780242
0.00097475
0.000994168
0.000790412
0.000880848
0.000720838
0.000933918
0.000958934
0.000753488
0.00054522
0.000712397
0.000950783
0.000807753
0.000836475
0.000569299
0.000603945
0.000628319
0.000580291
0.000777192
0.000692678
0.00055675
SCALARS mass double 1
LOOKUP_TABLE default
0.00327549
0.00478242
0.00458909
0.0023191
0.00516383
0.00805935
0.00838365
0.00529932
0.00658136
0.00440747
0.00739829
0.00779994
0.00481578
0.00252149
0.00430484
0.0076679
0.0055344
0.00593499
0.00274913
0.00309392
0.00334869
0.00285631
0.00512354
0.00406984
0.00262926
