# vtk DataFile Version 3.0
DEM2D particles
ASCII
DATASET POLYDATA
POINTS 25 double
0.000436512 0.00125609 0
0.00259373 0.00104411 0
0.00503527 0.0018354 0
0.0075525 0.000386816 0
0.00982669 0.000544753 0
0.00134532 0.00341987 0
0.00385426 0.00290832 0
0.0049179 0.00201782 0
0.00662312 0.00365396 0
0.00923317 0.00296777 0
0.000767125 0.00515536 0
0.0037611 0.00404792 0
0.00456232 0.00523409 0
0.00622589 0.00545232 0
0.00871364 0.00470162 0
0.00180206 0.00686715 0
0.00309208 0.00617029 0
0.0055426 0.00661029 0
0.00726105 0.00775315 0
0.00950038 0.00755813 0
0.000727257 0.00874158 0
0.00319925 0.00809188 0
0.00427968 0.00916295 0
0.00693409 0.00860205 0
0.00824174 0.00902951 0
VERTICES 25 50
1 0
1 1
1 2
1 3
1 4
1 5
1 6
1 7
1 8
1 9
1 10
1 11
1 12
1 13
1 14
1 15
1 16
1 17
1 18
1 19
1 20
1 21
1 22
1 23
1 24
POINT_DATA 25
VECTORS velocity double
-8.06141e-07 -0.00970803 0
-5.81222e-07 -0.00970833 0
5.04562e-08 -0.0097072 0
7.90425e-07 -0.00970927 0
1.18269e-06 -0.00970905 0
4.94024e-07 -0.0097078 0
1.22213e-06 -0.00970853 0
-1.17453e-07 -0.0097098 0
-5.39173e-07 -0.00970746 0
3.33578e-07 -0.00970844 0
-3.33158e-07 -0.00970818 0
1.08885e-06 -0.00970976 0
-6.2616e-07 -0.00970806 0
-1.10746e-06 -0.00970775 0
-4.09675e-07 -0.00970882 0
1.14744e-06 -0.00970859 0
1.31727e-07 -0.00970958 0
7.76259e-07 -0.00970895 0
3.73461e-07 -0.00970732 0
7.1586e-07 -0.0097076 0
-3.90193e-07 -0.00970877 0
2.85052e-07 -0.0097097 0
-1.0305e-06 -0.00970816 0
-9.42897e-08 -0.00970897 0
-1.08479e-06 -0.00970836 0
SCALARS radius double 1
LOOKUP_TABLE default
0.000621415
0.000750874
0.000735541
0.000522882
0.000780242
0.00097475
0.000994168
0.000790412
0.000880848
0.000720838
0.000933918
0.000958934
0.000753488
0.00054522
0.000712397
0.000950783
0.000807753
0.000836475
0.000569299
0.000603945
0.000628319
0.000580291
0.000777192
0.000692678
0.00055675
SCALARS mass double 1
LOOKUP_TABLE default
0.00327549
0.00478242
0.00458909
0.0023191
0.00516383
0.00805935
0.00838365
0.00529932
0.00658136
0.00440747
0.00739829
0.00779994
0.00481578
0.00252149
0.00430484
0.0076679
0.0055344
0.00593499
0.00274913
0.00309392
0.00334869
0.00285631
0.00512354
0.00406984
0.00262926
