# vtk DataFile Version 3.0
DEM2D particles
ASCII
DATASET POLYDATA
POINTS 25 double
0.000436511 2.69794e-05 0
0.00259373 -0.000184995 0
0.00503527 0.000606296 0
0.0075525 -0.000842291 0
0.00982669 -0.000684354 0
0.00134532 0.00219077 0
0.00385427 0.00167921 0
0.0049179 0.000788711 0
0.00662312 0.00242485 0
0.00923317 0.00173866 0
0.000767124 0.00392625 0
0.0037611 0.00281881 0
0.00456232 0.00400499 0
0.00622589 0.00422321 0
0.00871364 0.00347252 0
0.00180206 0.00563805 0
0.00309208 0.00494118 0
0.0055426 0.00538118 0
0.00726105 0.00652404 0
0.00950038 0.00632903 0
0.000727257 0.00751247 0
0.00319925 0.00686277 0
0.00427968 0.00793385 0
0.00693409 0.00737294 0
0.00824173 0.0078004 0
VERTICES 25 50
1 0
1 1
1 2
1 3
1 4
1 5
1 6
1 7
1 8
1 9
1 10
1 11
1 12
1 13
1 14
1 15
1 16
1 17
1 18
1 19
1 20
1 21
1 22
1 23
1 24
POINT_DATA 25
VECTORS velocity double
-4.44605e-62 -0.00970858 0
-3.20557e-62 -0.00970858 0
2.78278e-63 -0.00970858 0
4.35937e-62 -0.00970858 0
6.5228e-62 -0.00970858 0
2.72466e-62 -0.00970858 0
6.74035e-62 -0.00970858 0
-6.47778e-63 -0.00970858 0
-2.97366e-62 -0.00970858 0
1.83976e-62 -0.00970858 0
-1.83744e-62 -0.00970858 0
6.00527e-62 -0.00970858 0
-3.45342e-62 -0.00970858 0
-6.1079e-62 -0.00970858 0
-2.25945e-62 -0.00970858 0
6.3284e-62 -0.00970858 0
7.26507e-63 -0.00970858 0
4.28125e-62 -0.00970858 0
2.05972e-62 -0.00970858 0
3.94813e-62 -0.00970858 0
-2.152e-62 -0.00970858 0
1.57213e-62 -0.00970858 0
-5.68346e-62 -0.00970858 0
-5.2003e-63 -0.00970858 0
-5.98288e-62 -0.00970858 0
SCALARS radius double 1
LOOKUP_TABLE default
0.000621415
0.000750874
0.000735541
0.000522882
0.000780242
0.00097475
0.000994168
0.000790412
0.000880848
0.000720838
0.000933918
0.000958934
0.000753488
0.00054522
0.000712397
0.000950783
0.000807753
0.000836475
0.000569299
0.000603945
0.000628319
0.000580291
0.000777192
0.000692678
0.00055675
SCALARS mass double 1
LOOKUP_TABLE default
0.00327549
0.00478242
0.00458909
0.0023191
0.00516383
0.00805935
0.00838365
0.00529932
0.00658136
0.00440747
0.00739829
0.00779994
0.00481578
0.00252149
0.00430484
0.0076679
0.0055344
0.00593499
0.00274913
0.00309392
0.00334869
0.00285631
0.00512354
0.00406984
0.00262926
