# vtk DataFile Version 3.0
DEM2D particles
ASCII
DATASET POLYDATA
POINTS 25 double
0.000436511 0.000487166 0
0.00259373 0.000275192 0
0.00503527 0.00106648 0
0.0075525 -0.000382104 0
0.00982669 -0.000224167 0
0.00134532 0.00265095 0
0.00385427 0.0021394 0
0.0049179 0.0012489 0
0.00662312 0.00288504 0
0.00923317 0.00219885 0
0.000767124 0.00438644 0
0.0037611 0.003279 0
0.00456232 0.00446518 0
0.00622589 0.0046834 0
0.00871364 0.0039327 0
0.00180206 0.00609823 0
0.00309208 0.00540137 0
0.0055426 0.00584137 0
0.00726105 0.00698423 0
0.00950038 0.00678921 0
0.000727257 0.00797266 0
0.00319925 0.00732296 0
0.00427968 0.00839404 0
0.00693409 0.00783313 0
0.00824173 0.00826059 0
VERTICES 25 50
1 0
1 1
1 2
1 3
1 4
1 5
1 6
1 7
1 8
1 9
1 10
1 11
1 12
1 13
1 14
1 15
1 16
1 17
1 18
1 19
1 20
1 21
1 22
1 23
1 24
POINT_DATA 25
VECTORS velocity double
-2.17346e-41 -0.00970858 0
-1.56705e-41 -0.00970858 0
1.36037e-42 -0.00970858 0
2.13109e-41 -0.00970858 0
3.18869e-41 -0.00970858 0
1.33196e-41 -0.00970858 0
3.29503e-41 -0.00970858 0
-3.16668e-42 -0.00970858 0
-1.45368e-41 -0.00970858 0
8.9937e-42 -0.00970858 0
-8.98237e-42 -0.00970858 0
2.93569e-41 -0.00970858 0
-1.68821e-41 -0.00970858 0
-2.98586e-41 -0.00970858 0
-1.10454e-41 -0.00970858 0
3.09365e-41 -0.00970858 0
3.55155e-42 -0.00970858 0
2.0929e-41 -0.00970858 0
1.0069e-41 -0.00970858 0
1.93005e-41 -0.00970858 0
-1.05201e-41 -0.00970858 0
7.68537e-42 -0.00970858 0
-2.77837e-41 -0.00970858 0
-2.54218e-42 -0.00970858 0
-2.92474e-41 -0.00970858 0
SCALARS radius double 1
LOOKUP_TABLE default
0.000621415
0.000750874
0.000735541
0.000522882
0.000780242
0.00097475
0.000994168
0.000790412
0.000880848
0.000720838
0.000933918
0.000958934
0.000753488
0.00054522
0.000712397
0.000950783
0.000807753
0.000836475
0.000569299
0.000603945
0.000628319
0.000580291
0.000777192
0.000692678
0.00055675
SCALARS mass double 1
LOOKUP_TABLE default
0.00327549
0.00478242
0.00458909
0.0023191
0.00516383
0.00805935
0.00838365
0.00529932
0.00658136
0.00440747
0.00739829
0.00779994
0.00481578
0.00252149
0.00430484
0.0076679
0.0055344
0.00593499
0.00274913
0.00309392
0.00334869
0.00285631
0.00512354
0.00406984
0.00262926
