# vtk DataFile Version 3.0
DEM2D particles
ASCII
DATASET POLYDATA
POINTS 25 double
0.00043661 0.00130262 0
0.0025938 0.00109068 0
0.00503526 0.00188183 0
0.00755241 0.000433502 0
0.00982655 0.000591411 0
0.00134526 0.00346638 0
0.00385412 0.00295492 0
0.00491792 0.00206457 0
0.00662319 0.00370042 0
0.00923313 0.00301436 0
0.000767165 0.00520191 0
0.00376097 0.00409466 0
0.00456239 0.00528063 0
0.00622603 0.00549882 0
0.00871369 0.00474825 0
0.00180192 0.00691376 0
0.00309206 0.00621702 0
0.00554251 0.00665693 0
0.007261 0.00779959 0
0.00950029 0.00760461 0
0.000727305 0.0087882 0
0.00319921 0.00813862 0
0.00427981 0.0092095 0
0.0069341 0.00864869 0
0.00824187 0.00907608 0
VERTICES 25 50
1 0
1 1
1 2
1 3
1 4
1 5
1 6
1 7
1 8
1 9
1 10
1 11
1 12
1 13
1 14
1 15
1 16
1 17
1 18
1 19
1 20
1 21
1 22
1 23
1 24
POINT_DATA 25
VECTORS velocity double
-0.00010035 -0.00963981 0
-7.23516e-05 -0.00967756 0
6.28089e-06 -0.00953664 0
9.83937e-05 -0.00979462 0
0.000147224 -0.00976649 0
6.14972e-05 -0.00961064 0
0.000152134 -0.00970174 0
-1.46207e-05 -0.00986033 0
-6.71173e-05 -0.00956895 0
4.15244e-05 -0.00969115 0
-4.14721e-05 -0.00965775 0
0.000135542 -0.00985497 0
-7.79456e-05 -0.00964373 0
-0.000137859 -0.00960486 0
-5.09971e-05 -0.00973855 0
0.000142836 -0.00970907 0
1.63977e-05 -0.00983318 0
9.66303e-05 -0.00975482 0
4.64891e-05 -0.00955129 0
8.91117e-05 -0.00958602 0
-4.8572e-05 -0.00973144 0
3.54838e-05 -0.00984714 0
-0.000128279 -0.0096564 0
-1.17374e-05 -0.00975629 0
-0.000135037 -0.00968016 0
SCALARS radius double 1
LOOKUP_TABLE default
0.000621415
0.000750874
0.000735541
0.000522882
0.000780242
0.00097475
0.000994168
0.000790412
0.000880848
0.000720838
0.000933918
0.000958934
0.000753488
0.00054522
0.000712397
0.000950783
0.000807753
0.000836475
0.000569299
0.000603945
0.000628319
0.000580291
0.000777192
0.000692678
0.00055675
SCALARS mass double 1
LOOKUP_TABLE default
0.00327549
0.00478242
0.00458909
0.0023191
0.00516383
0.00805935
0.00838365
0.00529932
0.00658136
0.00440747
0.00739829
0.00779994
0.00481578
0.00252149
0.00430484
0.0076679
0.0055344
0.00593499
0.00274913
0.00309392
0.00334869
0.00285631
0.00512354
0.00406984
0.00262926
