# vtk DataFile Version 3.0
DEM2D particles
ASCII
DATASET POLYDATA
POINTS 25 double
0.000436511 0.000939586 0
0.00259373 0.000727612 0
0.00503527 0.0015189 0
0.0075525 7.03156e-05 0
0.00982669 0.000228253 0
0.00134532 0.00310337 0
0.00385427 0.00259182 0
0.0049179 0.00170132 0
0.00662312 0.00333746 0
0.00923317 0.00265127 0
0.000767124 0.00483886 0
0.0037611 0.00373142 0
0.00456232 0.0049176 0
0.00622589 0.00513582 0
0.00871364 0.00438512 0
0.00180206 0.00655065 0
0.00309208 0.00585379 0
0.0055426 0.00629379 0
0.00726105 0.00743665 0
0.00950038 0.00724163 0
0.000727257 0.00842508 0
0.00319925 0.00777538 0
0.00427968 0.00884646 0
0.00693409 0.00828555 0
0.00824173 0.00871301 0
VERTICES 25 50
1 0
1 1
1 2
1 3
1 4
1 5
1 6
1 7
1 8
1 9
1 10
1 11
1 12
1 13
1 14
1 15
1 16
1 17
1 18
1 19
1 20
1 21
1 22
1 23
1 24
POINT_DATA 25
VECTORS velocity double
-4.75494e-21 -0.00970858 0
-3.42828e-21 -0.00970858 0
2.97611e-22 -0.00970858 0
4.66224e-21 -0.00970858 0
6.97598e-21 -0.00970858 0
2.91396e-21 -0.00970858 0
7.20864e-21 -0.00970858 0
-6.92782e-22 -0.00970858 0
-3.18026e-21 -0.00970858 0
1.96758e-21 -0.00970858 0
-1.9651e-21 -0.00970858 0
6.42249e-21 -0.00970858 0
-3.69334e-21 -0.00970858 0
-6.53225e-21 -0.00970858 0
-2.41643e-21 -0.00970858 0
6.76807e-21 -0.00970858 0
7.76982e-22 -0.00970858 0
4.57869e-21 -0.00970858 0
2.20282e-21 -0.00970858 0
4.22243e-21 -0.00970858 0
-2.30152e-21 -0.00970858 0
1.68135e-21 -0.00970858 0
-6.07832e-21 -0.00970858 0
-5.56159e-22 -0.00970858 0
-6.39854e-21 -0.00970858 0
SCALARS radius double 1
LOOKUP_TABLE default
0.000621415
0.000750874
0.000735541
0.000522882
0.000780242
0.00097475
0.000994168
0.000790412
0.000880848
0.000720838
0.000933918
0.000958934
0.000753488
0.00054522
0.000712397
0.000950783
0.000807753
0.000836475
0.000569299
0.000603945
0.000628319
0.000580291
0.000777192
0.000692678
0.00055675
SCALARS mass double 1
LOOKUP_TABLE default
0.00327549
0.00478242
0.00458909
0.0023191
0.00516383
0.00805935
0.00838365
0.00529932
0.00658136
0.00440747
0.00739829
0.00779994
0.00481578
0.00252149
0.00430484
0.0076679
0.0055344
0.00593499
0.00274913
0.00309392
0.00334869
0.00285631
0.00512354
0.00406984
0.00262926
