# vtk DataFile Version 3.0
DEM2D particles
ASCII
DATASET POLYDATA
POINTS 25 double
0.000441038 0.00133648 0
0.00259699 0.00112621 0
0.00503499 0.00191114 0
0.00754807 0.00047419 0
0.00982005 0.000630858 0
0.00134255 0.00349895 0
0.0038474 0.00299151 0
0.00491856 0.00210816 0
0.00662615 0.00373115 0
0.0092313 0.00305048 0
0.000768995 0.00523656 0
0.00375499 0.00413802 0
0.00456583 0.00531466 0
0.00623211 0.00553113 0
0.00871594 0.00478647 0
0.00179561 0.00695067 0
0.00309134 0.00625941 0
0.00553824 0.00669586 0
0.00725895 0.00782955 0
0.00949636 0.0076361 0
0.000729448 0.0088261 0
0.00319765 0.00818162 0
0.00428547 0.00924409 0
0.00693462 0.00868769 0
0.00824783 0.00911172 0
VERTICES 25 50
1 0
1 1
1 2
1 3
1 4
1 5
1 6
1 7
1 8
1 9
1 10
1 11
1 12
1 13
1 14
1 15
1 16
1 17
1 18
1 19
1 20
1 21
1 22
1 23
1 24
POINT_DATA 25
VECTORS velocity double
-0.00457239 -0.00657494 0
-0.00329666 -0.00829499 0
0.000286185 -0.00187412 0
0.00448325 -0.0136286 0
0.00670816 -0.012347 0
0.00280208 -0.00524591 0
0.00693189 -0.00939686 0
-0.000666185 -0.0166228 0
-0.00305816 -0.00334645 0
0.00189204 -0.00891445 0
-0.00188965 -0.00739227 0
0.00617592 -0.0163785 0
-0.00355155 -0.00675339 0
-0.00628147 -0.00498262 0
-0.00232366 -0.0110741 0
0.00650824 -0.00973091 0
0.000747152 -0.0153856 0
0.0044029 -0.0118152 0
0.00211825 -0.00254157 0
0.00406032 -0.00412399 0
-0.00221316 -0.0107499 0
0.0016168 -0.0160218 0
-0.00584496 -0.00733065 0
-0.000534807 -0.0118821 0
-0.00615289 -0.0084135 0
SCALARS radius double 1
LOOKUP_TABLE default
0.000621415
0.000750874
0.000735541
0.000522882
0.000780242
0.00097475
0.000994168
0.000790412
0.000880848
0.000720838
0.000933918
0.000958934
0.000753488
0.00054522
0.000712397
0.000950783
0.000807753
0.000836475
0.000569299
0.000603945
0.000628319
0.000580291
0.000777192
0.000692678
0.00055675
SCALARS mass double 1
LOOKUP_TABLE default
0.00327549
0.00478242
0.00458909
0.0023191
0.00516383
0.00805935
0.00838365
0.00529932
0.00658136
0.00440747
0.00739829
0.00779994
0.00481578
0.00252149
0.00430484
0.0076679
0.0055344
0.00593499
0.00274913
0.00309392
0.00334869
0.00285631
0.00512354
0.00406984
0.00262926
