# vtk DataFile Version 3.0
DEM2D particles
ASCII
DATASET POLYDATA
POINTS 25 double
0.000436511 0.000727939 0
0.00259373 0.000515965 0
0.00503527 0.00130726 0
0.0075525 -0.000141332 0
0.00982669 1.66055e-05 0
0.00134532 0.00289173 0
0.00385427 0.00238017 0
0.0049179 0.00148967 0
0.00662312 0.00312581 0
0.00923317 0.00243962 0
0.000767124 0.00462721 0
0.0037611 0.00351977 0
0.00456232 0.00470595 0
0.00622589 0.00492417 0
0.00871364 0.00417348 0
0.00180206 0.00633901 0
0.00309208 0.00564214 0
0.0055426 0.00608214 0
0.00726105 0.007225 0
0.00950038 0.00702999 0
0.000727257 0.00821343 0
0.00319925 0.00756373 0
0.00427968 0.00863481 0
0.00693409 0.0080739 0
0.00824173 0.00850136 0
VERTICES 25 50
1 0
1 1
1 2
1 3
1 4
1 5
1 6
1 7
1 8
1 9
1 10
1 11
1 12
1 13
1 14
1 15
1 16
1 17
1 18
1 19
1 20
1 21
1 22
1 23
1 24
POINT_DATA 25
VECTORS velocity double
-1.45168e-30 -0.00970858 0
-1.04665e-30 -0.00970858 0
9.08601e-32 -0.00970858 0
1.42337e-30 -0.00970858 0
2.12975e-30 -0.00970858 0
8.89625e-31 -0.00970858 0
2.20078e-30 -0.00970858 0
-2.11505e-31 -0.00970858 0
-9.70927e-31 -0.00970858 0
6.00697e-31 -0.00970858 0
-5.99941e-31 -0.00970858 0
1.96077e-30 -0.00970858 0
-1.12757e-30 -0.00970858 0
-1.99429e-30 -0.00970858 0
-7.37731e-31 -0.00970858 0
2.06628e-30 -0.00970858 0
2.37211e-31 -0.00970858 0
1.39786e-30 -0.00970858 0
6.72517e-31 -0.00970858 0
1.2891e-30 -0.00970858 0
-7.02648e-31 -0.00970858 0
5.13313e-31 -0.00970858 0
-1.8557e-30 -0.00970858 0
-1.69794e-31 -0.00970858 0
-1.95346e-30 -0.00970858 0
SCALARS radius double 1
LOOKUP_TABLE default
0.000621415
0.000750874
0.000735541
0.000522882
0.000780242
0.00097475
0.000994168
0.000790412
0.000880848
0.000720838
0.000933918
0.000958934
0.000753488
0.00054522
0.000712397
0.000950783
0.000807753
0.000836475
0.000569299
0.000603945
0.000628319
0.000580291
0.000777192
0.000692678
0.00055675
SCALARS mass double 1
LOOKUP_TABLE default
0.00327549
0.00478242
0.00458909
0.0023191
0.00516383
0.00805935
0.00838365
0.00529932
0.00658136
0.00440747
0.00739829
0.00779994
0.00481578
0.00252149
0.00430484
0.0076679
0.0055344
0.00593499
0.00274913
0.00309392
0.00334869
0.00285631
0.00512354
0.00406984
0.00262926
