# vtk DataFile Version 3.0
DEM2D particles
ASCII
DATASET POLYDATA
POINTS 25 double
0.000436511 0.00106191 0
0.00259373 0.00084994 0
0.00503527 0.00164123 0
0.0075525 0.000192644 0
0.00982669 0.000350581 0
0.00134532 0.0032257 0
0.00385427 0.00271415 0
0.0049179 0.00182365 0
0.00662312 0.00345978 0
0.00923317 0.0027736 0
0.000767124 0.00496119 0
0.0037611 0.00385375 0
0.00456232 0.00503992 0
0.00622589 0.00525815 0
0.00871364 0.00450745 0
0.00180206 0.00667298 0
0.00309208 0.00597612 0
0.0055426 0.00641611 0
0.00726105 0.00755898 0
0.00950038 0.00736396 0
0.000727257 0.00854741 0
0.00319925 0.00789771 0
0.00427968 0.00896878 0
0.00693409 0.00840787 0
0.00824173 0.00883534 0
VERTICES 25 50
1 0
1 1
1 2
1 3
1 4
1 5
1 6
1 7
1 8
1 9
1 10
1 11
1 12
1 13
1 14
1 15
1 16
1 17
1 18
1 19
1 20
1 21
1 22
1 23
1 24
POINT_DATA 25
VECTORS velocity double
-1.50245e-15 -0.00970858 0
-1.08326e-15 -0.00970858 0
9.40381e-17 -0.00970858 0
1.47316e-15 -0.00970858 0
2.20424e-15 -0.00970858 0
9.20741e-16 -0.00970858 0
2.27776e-15 -0.00970858 0
-2.18903e-16 -0.00970858 0
-1.00489e-15 -0.00970858 0
6.21708e-16 -0.00970858 0
-6.20925e-16 -0.00970858 0
2.02935e-15 -0.00970858 0
-1.16701e-15 -0.00970858 0
-2.06404e-15 -0.00970858 0
-7.63534e-16 -0.00970858 0
2.13855e-15 -0.00970858 0
2.45508e-16 -0.00970858 0
1.44676e-15 -0.00970858 0
6.9604e-16 -0.00970858 0
1.33419e-15 -0.00970858 0
-7.27225e-16 -0.00970858 0
5.31267e-16 -0.00970858 0
-1.92061e-15 -0.00970858 0
-1.75733e-16 -0.00970858 0
-2.02179e-15 -0.00970858 0
SCALARS radius double 1
LOOKUP_TABLE default
0.000621415
0.000750874
0.000735541
0.000522882
0.000780242
0.00097475
0.000994168
0.000790412
0.000880848
0.000720838
0.000933918
0.000958934
0.000753488
0.00054522
0.000712397
0.000950783
0.000807753
0.000836475
0.000569299
0.000603945
0.000628319
0.000580291
0.000777192
0.000692678
0.00055675
SCALARS mass double 1
LOOKUP_TABLE default
0.00327549
0.00478242
0.00458909
0.0023191
0.00516383
0.00805935
0.00838365
0.00529932
0.00658136
0.00440747
0.00739829
0.00779994
0.00481578
0.00252149
0.00430484
0.0076679
0.0055344
0.00593499
0.00274913
0.00309392
0.00334869
0.00285631
0.00512354
0.00406984
0.00262926
