# vtk DataFile Version 3.0
DEM2D particles
ASCII
DATASET POLYDATA
POINTS 25 double
0.000436511 0.000766773 0
0.00259373 0.000554799 0
0.00503527 0.00134609 0
0.0075525 -0.000102497 0
0.00982669 5.54398e-05 0
0.00134532 0.00293056 0
0.00385427 0.00241901 0
0.0049179 0.00152851 0
0.00662312 0.00316464 0
0.00923317 0.00247846 0
0.000767124 0.00466605 0
0.0037611 0.00355861 0
0.00456232 0.00474478 0
0.00622589 0.00496301 0
0.00871364 0.00421231 0
0.00180206 0.00637784 0
0.00309208 0.00568098 0
0.0055426 0.00612097 0
0.00726105 0.00726383 0
0.00950038 0.00706882 0
0.000727257 0.00825226 0
0.00319925 0.00760257 0
0.00427968 0.00867364 0
0.00693409 0.00811273 0
0.00824173 0.00854019 0
VERTICES 25 50
1 0
1 1
1 2
1 3
1 4
1 5
1 6
1 7
1 8
1 9
1 10
1 11
1 12
1 13
1 14
1 15
1 16
1 17
1 18
1 19
1 20
1 21
1 22
1 23
1 24
POINT_DATA 25
VECTORS velocity double
-8.08708e-29 -0.00970858 0
-5.83072e-29 -0.00970858 0
5.06169e-30 -0.00970858 0
7.92942e-29 -0.00970858 0
1.18646e-28 -0.00970858 0
4.95598e-29 -0.00970858 0
1.22603e-28 -0.00970858 0
-1.17827e-29 -0.00970858 0
-5.4089e-29 -0.00970858 0
3.3464e-29 -0.00970858 0
-3.34219e-29 -0.00970858 0
1.09232e-28 -0.00970858 0
-6.28154e-29 -0.00970858 0
-1.11099e-28 -0.00970858 0
-4.10979e-29 -0.00970858 0
1.1511e-28 -0.00970858 0
1.32147e-29 -0.00970858 0
7.78731e-29 -0.00970858 0
3.7465e-29 -0.00970858 0
7.1814e-29 -0.00970858 0
-3.91436e-29 -0.00970858 0
2.8596e-29 -0.00970858 0
-1.03378e-28 -0.00970858 0
-9.459e-30 -0.00970858 0
-1.08825e-28 -0.00970858 0
SCALARS radius double 1
LOOKUP_TABLE default
0.000621415
0.000750874
0.000735541
0.000522882
0.000780242
0.00097475
0.000994168
0.000790412
0.000880848
0.000720838
0.000933918
0.000958934
0.000753488
0.00054522
0.000712397
0.000950783
0.000807753
0.000836475
0.000569299
0.000603945
0.000628319
0.000580291
0.000777192
0.000692678
0.00055675
SCALARS mass double 1
LOOKUP_TABLE default
0.00327549
0.00478242
0.00458909
0.0023191
0.00516383
0.00805935
0.00838365
0.00529932
0.00658136
0.00440747
0.00739829
0.00779994
0.00481578
0.00252149
0.00430484
0.0076679
0.0055344
0.00593499
0.00274913
0.00309392
0.00334869
0.00285631
0.00512354
0.00406984
0.00262926
