# vtk DataFile Version 3.0
DEM2D particles
ASCII
DATASET POLYDATA
POINTS 25 double
0.000436511 0.00124832 0
0.00259373 0.00103634 0
0.00503527 0.00182764 0
0.0075525 0.000379049 0
0.00982669 0.000536986 0
0.00134532 0.00341211 0
0.00385427 0.00290055 0
0.0049179 0.00201005 0
0.00662312 0.00364619 0
0.00923317 0.00296 0
0.000767124 0.00514759 0
0.0037611 0.00404015 0
0.00456232 0.00522633 0
0.00622589 0.00544455 0
0.00871364 0.00469386 0
0.00180206 0.00685939 0
0.00309208 0.00616253 0
0.0055426 0.00660252 0
0.00726105 0.00774538 0
0.00950038 0.00755037 0
0.000727257 0.00873381 0
0.00319925 0.00808411 0
0.00427968 0.00915519 0
0.00693409 0.00859428 0
0.00824174 0.00902174 0
VERTICES 25 50
1 0
1 1
1 2
1 3
1 4
1 5
1 6
1 7
1 8
1 9
1 10
1 11
1 12
1 13
1 14
1 15
1 16
1 17
1 18
1 19
1 20
1 21
1 22
1 23
1 24
POINT_DATA 25
VECTORS velocity double
-3.60767e-07 -0.00970834 0
-2.6011e-07 -0.00970847 0
2.25803e-08 -0.00970797 0
3.53733e-07 -0.00970889 0
5.29281e-07 -0.00970879 0
2.21087e-07 -0.00970823 0
5.46933e-07 -0.00970856 0
-5.25627e-08 -0.00970913 0
-2.41292e-07 -0.00970808 0
1.49284e-07 -0.00970852 0
-1.49096e-07 -0.0097084 0
4.87286e-07 -0.00970911 0
-2.80221e-07 -0.00970835 0
-4.95615e-07 -0.00970821 0
-1.83339e-07 -0.00970869 0
5.13507e-07 -0.00970859 0
5.89511e-08 -0.00970903 0
3.47394e-07 -0.00970875 0
1.67132e-07 -0.00970802 0
3.20364e-07 -0.00970814 0
-1.7462e-07 -0.00970867 0
1.27567e-07 -0.00970908 0
-4.61174e-07 -0.0097084 0
-4.21968e-08 -0.00970875 0
-4.8547e-07 -0.00970848 0
SCALARS radius double 1
LOOKUP_TABLE default
0.000621415
0.000750874
0.000735541
0.000522882
0.000780242
0.00097475
0.000994168
0.000790412
0.000880848
0.000720838
0.000933918
0.000958934
0.000753488
0.00054522
0.000712397
0.000950783
0.000807753
0.000836475
0.000569299
0.000603945
0.000628319
0.000580291
0.000777192
0.000692678
0.00055675
SCALARS mass double 1
LOOKUP_TABLE default
0.00327549
0.00478242
0.00458909
0.0023191
0.00516383
0.00805935
0.00838365
0.00529932
0.00658136
0.00440747
0.00739829
0.00779994
0.00481578
0.00252149
0.00430484
0.0076679
0.0055344
0.00593499
0.00274913
0.00309392
0.00334869
0.00285631
0.00512354
0.00406984
0.00262926
