# vtk DataFile Version 3.0
DEM2D particles
ASCII
DATASET POLYDATA
POINTS 25 double
0.000436511 -0.00041379 0
0.00259373 -0.000625764 0
0.00503527 0.000165526 0
0.0075525 -0.00128306 0
0.00982669 -0.00112512 0
0.00134532 0.00175 0
0.00385427 0.00123844 0
0.0049179 0.000347942 0
0.00662312 0.00198408 0
0.00923317 0.00129789 0
0.000767124 0.00348548 0
0.0037611 0.00237804 0
0.00456232 0.00356422 0
0.00622589 0.00378244 0
0.00871364 0.00303175 0
0.00180206 0.00519728 0
0.00309208 0.00450042 0
0.0055426 0.00494041 0
0.00726105 0.00608327 0
0.00950038 0.00588826 0
0.000727257 0.0070717 0
0.00319925 0.006422 0
0.00427968 0.00749308 0
0.00693409 0.00693217 0
0.00824173 0.00735963 0
VERTICES 25 50
1 0
1 1
1 2
1 3
1 4
1 5
1 6
1 7
1 8
1 9
1 10
1 11
1 12
1 13
1 14
1 15
1 16
1 17
1 18
1 19
1 20
1 21
1 22
1 23
1 24
POINT_DATA 25
VECTORS velocity double
-6.78825e-82 -0.00970858 0
-4.89428e-82 -0.00970858 0
4.24875e-83 -0.00970858 0
6.65591e-82 -0.00970858 0
9.95904e-82 -0.00970858 0
4.16002e-82 -0.00970858 0
1.02912e-81 -0.00970858 0
-9.8903e-83 -0.00970858 0
-4.5402e-82 -0.00970858 0
2.80895e-82 -0.00970858 0
-2.80541e-82 -0.00970858 0
9.16887e-82 -0.00970858 0
-5.27269e-82 -0.00970858 0
-9.32558e-82 -0.00970858 0
-3.44974e-82 -0.00970858 0
9.66224e-82 -0.00970858 0
1.10923e-82 -0.00970858 0
6.53663e-82 -0.00970858 0
3.14479e-82 -0.00970858 0
6.02803e-82 -0.00970858 0
-3.28569e-82 -0.00970858 0
2.40033e-82 -0.00970858 0
-8.67753e-82 -0.00970858 0
-7.93984e-83 -0.00970858 0
-9.13469e-82 -0.00970858 0
SCALARS radius double 1
LOOKUP_TABLE default
0.000621415
0.000750874
0.000735541
0.000522882
0.000780242
0.00097475
0.000994168
0.000790412
0.000880848
0.000720838
0.000933918
0.000958934
0.000753488
0.00054522
0.000712397
0.000950783
0.000807753
0.000836475
0.000569299
0.000603945
0.000628319
0.000580291
0.000777192
0.000692678
0.00055675
SCALARS mass double 1
LOOKUP_TABLE default
0.00327549
0.00478242
0.00458909
0.0023191
0.00516383
0.00805935
0.00838365
0.00529932
0.00658136
0.00440747
0.00739829
0.00779994
0.00481578
0.00252149
0.00430484
0.0076679
0.0055344
0.00593499
0.00274913
0.00309392
0.00334869
0.00285631
0.00512354
0.00406984
0.00262926
