# vtk DataFile Version 3.0
DEM2D particles
ASCII
DATASET POLYDATA
POINTS 25 double
0.000436511 0.000920169 0
0.00259373 0.000708195 0
0.00503527 0.00149949 0
0.0075525 5.08984e-05 0
0.00982669 0.000208835 0
0.00134532 0.00308396 0
0.00385427 0.0025724 0
0.0049179 0.0016819 0
0.00662312 0.00331804 0
0.00923317 0.00263185 0
0.000767124 0.00481944 0
0.0037611 0.003712 0
0.00456232 0.00489818 0
0.00622589 0.0051164 0
0.00871364 0.00436571 0
0.00180206 0.00653124 0
0.00309208 0.00583437 0
0.0055426 0.00627437 0
0.00726105 0.00741723 0
0.00950038 0.00722222 0
0.000727257 0.00840566 0
0.00319925 0.00775596 0
0.00427968 0.00882704 0
0.00693409 0.00826613 0
0.00824173 0.00869359 0
VERTICES 25 50
1 0
1 1
1 2
1 3
1 4
1 5
1 6
1 7
1 8
1 9
1 10
1 11
1 12
1 13
1 14
1 15
1 16
1 17
1 18
1 19
1 20
1 21
1 22
1 23
1 24
POINT_DATA 25
VECTORS velocity double
-6.37066e-22 -0.00970858 0
-4.5932e-22 -0.00970858 0
3.98738e-23 -0.00970858 0
6.24646e-22 -0.00970858 0
9.34639e-22 -0.00970858 0
3.90411e-22 -0.00970858 0
9.65811e-22 -0.00970858 0
-9.28188e-23 -0.00970858 0
-4.2609e-22 -0.00970858 0
2.63615e-22 -0.00970858 0
-2.63283e-22 -0.00970858 0
8.60483e-22 -0.00970858 0
-4.94833e-22 -0.00970858 0
-8.75189e-22 -0.00970858 0
-3.23752e-22 -0.00970858 0
9.06784e-22 -0.00970858 0
1.041e-22 -0.00970858 0
6.13451e-22 -0.00970858 0
2.95133e-22 -0.00970858 0
5.6572e-22 -0.00970858 0
-3.08356e-22 -0.00970858 0
2.25267e-22 -0.00970858 0
-8.14371e-22 -0.00970858 0
-7.4514e-23 -0.00970858 0
-8.57275e-22 -0.00970858 0
SCALARS radius double 1
LOOKUP_TABLE default
0.000621415
0.000750874
0.000735541
0.000522882
0.000780242
0.00097475
0.000994168
0.000790412
0.000880848
0.000720838
0.000933918
0.000958934
0.000753488
0.00054522
0.000712397
0.000950783
0.000807753
0.000836475
0.000569299
0.000603945
0.000628319
0.000580291
0.000777192
0.000692678
0.00055675
SCALARS mass double 1
LOOKUP_TABLE default
0.00327549
0.00478242
0.00458909
0.0023191
0.00516383
0.00805935
0.00838365
0.00529932
0.00658136
0.00440747
0.00739829
0.00779994
0.00481578
0.00252149
0.00430484
0.0076679
0.0055344
0.00593499
0.00274913
0.00309392
0.00334869
0.00285631
0.00512354
0.00406984
0.00262926
