# vtk DataFile Version 3.0
DEM2D particles
ASCII
DATASET POLYDATA
POINTS 25 double
0.000436511 0.00101725 0
0.00259373 0.000805281 0
0.00503527 0.00159657 0
0.0075525 0.000147984 0
0.00982669 0.000305921 0
0.00134532 0.00318104 0
0.00385427 0.00266949 0
0.0049179 0.00177899 0
0.00662312 0.00341513 0
0.00923317 0.00272894 0
0.000767124 0.00491653 0
0.0037611 0.00380909 0
0.00456232 0.00499526 0
0.00622589 0.00521349 0
0.00871364 0.00446279 0
0.00180206 0.00662832 0
0.00309208 0.00593146 0
0.0055426 0.00637145 0
0.00726105 0.00751432 0
0.00950038 0.0073193 0
0.000727257 0.00850275 0
0.00319925 0.00785305 0
0.00427968 0.00892412 0
0.00693409 0.00836321 0
0.00824173 0.00879068 0
VERTICES 25 50
1 0
1 1
1 2
1 3
1 4
1 5
1 6
1 7
1 8
1 9
1 10
1 11
1 12
1 13
1 14
1 15
1 16
1 17
1 18
1 19
1 20
1 21
1 22
1 23
1 24
POINT_DATA 25
VECTORS velocity double
-1.47567e-17 -0.00970858 0
-1.06395e-17 -0.00970858 0
9.2362e-19 -0.00970858 0
1.4469e-17 -0.00970858 0
2.16496e-17 -0.00970858 0
9.04331e-18 -0.00970858 0
2.23716e-17 -0.00970858 0
-2.15001e-18 -0.00970858 0
-9.86976e-18 -0.00970858 0
6.10627e-18 -0.00970858 0
-6.09858e-18 -0.00970858 0
1.99318e-17 -0.00970858 0
-1.14621e-17 -0.00970858 0
-2.02725e-17 -0.00970858 0
-7.49925e-18 -0.00970858 0
2.10044e-17 -0.00970858 0
2.41132e-18 -0.00970858 0
1.42097e-17 -0.00970858 0
6.83634e-18 -0.00970858 0
1.31041e-17 -0.00970858 0
-7.14263e-18 -0.00970858 0
5.21798e-18 -0.00970858 0
-1.88637e-17 -0.00970858 0
-1.72601e-18 -0.00970858 0
-1.98575e-17 -0.00970858 0
SCALARS radius double 1
LOOKUP_TABLE default
0.000621415
0.000750874
0.000735541
0.000522882
0.000780242
0.00097475
0.000994168
0.000790412
0.000880848
0.000720838
0.000933918
0.000958934
0.000753488
0.00054522
0.000712397
0.000950783
0.000807753
0.000836475
0.000569299
0.000603945
0.000628319
0.000580291
0.000777192
0.000692678
0.00055675
SCALARS mass double 1
LOOKUP_TABLE default
0.00327549
0.00478242
0.00458909
0.0023191
0.00516383
0.00805935
0.00838365
0.00529932
0.00658136
0.00440747
0.00739829
0.00779994
0.00481578
0.00252149
0.00430484
0.0076679
0.0055344
0.00593499
0.00274913
0.00309392
0.00334869
0.00285631
0.00512354
0.00406984
0.00262926
