# vtk DataFile Version 3.0
DEM2D particles
ASCII
DATASET POLYDATA
POINTS 25 double
0.000436512 0.00126191 0
0.00259373 0.00104994 0
0.00503527 0.00184123 0
0.0075525 0.000392642 0
0.00982669 0.000550578 0
0.00134532 0.0034257 0
0.00385426 0.00291415 0
0.0049179 0.00202365 0
0.00662312 0.00365978 0
0.00923317 0.0029736 0
0.000767125 0.00516118 0
0.0037611 0.00405375 0
0.00456232 0.00523992 0
0.00622589 0.00545814 0
0.00871364 0.00470745 0
0.00180205 0.00687298 0
0.00309208 0.00617612 0
0.0055426 0.00661611 0
0.00726105 0.00775897 0
0.00950038 0.00756396 0
0.000727258 0.0087474 0
0.00319925 0.00809771 0
0.00427969 0.00916878 0
0.00693409 0.00860787 0
0.00824174 0.00903533 0
VERTICES 25 50
1 0
1 1
1 2
1 3
1 4
1 5
1 6
1 7
1 8
1 9
1 10
1 11
1 12
1 13
1 14
1 15
1 16
1 17
1 18
1 19
1 20
1 21
1 22
1 23
1 24
POINT_DATA 25
VECTORS velocity double
-1.47333e-06 -0.00970757 0
-1.06226e-06 -0.00970813 0
9.22153e-08 -0.00970606 0
1.4446e-06 -0.00970985 0
2.16152e-06 -0.00970943 0
9.02894e-07 -0.00970715 0
2.23361e-06 -0.00970848 0
-2.1466e-07 -0.00971081 0
-9.85408e-07 -0.00970653 0
6.09657e-07 -0.00970833 0
-6.08889e-07 -0.00970784 0
1.99002e-06 -0.00971073 0
-1.14439e-06 -0.00970763 0
-2.02403e-06 -0.00970706 0
-7.48734e-07 -0.00970902 0
2.0971e-06 -0.00970859 0
2.40749e-07 -0.00971041 0
1.41871e-06 -0.00970926 0
6.82548e-07 -0.00970627 0
1.30833e-06 -0.00970678 0
-7.13129e-07 -0.00970892 0
5.20969e-07 -0.00971062 0
-1.88338e-06 -0.00970782 0
-1.72327e-07 -0.00970928 0
-1.9826e-06 -0.00970817 0
SCALARS radius double 1
LOOKUP_TABLE default
0.000621415
0.000750874
0.000735541
0.000522882
0.000780242
0.00097475
0.000994168
0.000790412
0.000880848
0.000720838
0.000933918
0.000958934
0.000753488
0.00054522
0.000712397
0.000950783
0.000807753
0.000836475
0.000569299
0.000603945
0.000628319
0.000580291
0.000777192
0.000692678
0.00055675
SCALARS mass double 1
LOOKUP_TABLE default
0.00327549
0.00478242
0.00458909
0.0023191
0.00516383
0.00805935
0.00838365
0.00529932
0.00658136
0.00440747
0.00739829
0.00779994
0.00481578
0.00252149
0.00430484
0.0076679
0.0055344
0.00593499
0.00274913
0.00309392
0.00334869
0.00285631
0.00512354
0.00406984
0.00262926
