# vtk DataFile Version 3.0
DEM2D particles
ASCII
DATASET POLYDATA
POINTS 25 double
0.000436511 9.50393e-06 0
0.00259373 -0.00020247 0
0.00503527 0.00058882 0
0.0075525 -0.000859767 0
0.00982669 -0.00070183 0
0.00134532 0.00217329 0
0.00385427 0.00166174 0
0.0049179 0.000771236 0
0.00662312 0.00240737 0
0.00923317 0.00172119 0
0.000767124 0.00390878 0
0.0037611 0.00280134 0
0.00456232 0.00398751 0
0.00622589 0.00420574 0
0.00871364 0.00345504 0
0.00180206 0.00562057 0
0.00309208 0.00492371 0
0.0055426 0.0053637 0
0.00726105 0.00650657 0
0.00950038 0.00631155 0
0.000727257 0.00749499 0
0.00319925 0.0068453 0
0.00427968 0.00791637 0
0.00693409 0.00735546 0
0.00824173 0.00778293 0
VERTICES 25 50
1 0
1 1
1 2
1 3
1 4
1 5
1 6
1 7
1 8
1 9
1 10
1 11
1 12
1 13
1 14
1 15
1 16
1 17
1 18
1 19
1 20
1 21
1 22
1 23
1 24
POINT_DATA 25
VECTORS velocity double
-7.28299e-63 -0.00970858 0
-5.25098e-63 -0.00970858 0
4.55841e-64 -0.00970858 0
7.141e-63 -0.00970858 0
1.06849e-62 -0.00970858 0
4.46321e-63 -0.00970858 0
1.10412e-62 -0.00970858 0
-1.06111e-63 -0.00970858 0
-4.87109e-63 -0.00970858 0
3.01367e-63 -0.00970858 0
-3.00988e-63 -0.00970858 0
9.83711e-63 -0.00970858 0
-5.65697e-63 -0.00970858 0
-1.00052e-62 -0.00970858 0
-3.70116e-63 -0.00970858 0
1.03664e-62 -0.00970858 0
1.19008e-63 -0.00970858 0
7.01302e-63 -0.00970858 0
3.37399e-63 -0.00970858 0
6.46736e-63 -0.00970858 0
-3.52515e-63 -0.00970858 0
2.57527e-63 -0.00970858 0
-9.30996e-63 -0.00970858 0
-8.5185e-64 -0.00970858 0
-9.80043e-63 -0.00970858 0
SCALARS radius double 1
LOOKUP_TABLE default
0.000621415
0.000750874
0.000735541
0.000522882
0.000780242
0.00097475
0.000994168
0.000790412
0.000880848
0.000720838
0.000933918
0.000958934
0.000753488
0.00054522
0.000712397
0.000950783
0.000807753
0.000836475
0.000569299
0.000603945
0.000628319
0.000580291
0.000777192
0.000692678
0.00055675
SCALARS mass double 1
LOOKUP_TABLE default
0.00327549
0.00478242
0.00458909
0.0023191
0.00516383
0.00805935
0.00838365
0.00529932
0.00658136
0.00440747
0.00739829
0.00779994
0.00481578
0.00252149
0.00430484
0.0076679
0.0055344
0.00593499
0.00274913
0.00309392
0.00334869
0.00285631
0.00512354
0.00406984
0.00262926
