# vtk DataFile Version 3.0
DEM2D particles
ASCII
DATASET POLYDATA
POINTS 25 double
0.000436511 0.000764832 0
0.00259373 0.000552858 0
0.00503527 0.00134415 0
0.0075525 -0.000104439 0
0.00982669 5.34981e-05 0
0.00134532 0.00292862 0
0.00385427 0.00241707 0
0.0049179 0.00152656 0
0.00662312 0.0031627 0
0.00923317 0.00247652 0
0.000767124 0.00466411 0
0.0037611 0.00355666 0
0.00456232 0.00474284 0
0.00622589 0.00496106 0
0.00871364 0.00421037 0
0.00180206 0.0063759 0
0.00309208 0.00567904 0
0.0055426 0.00611903 0
0.00726105 0.00726189 0
0.00950038 0.00706688 0
0.000727257 0.00825032 0
0.00319925 0.00760062 0
0.00427968 0.0086717 0
0.00693409 0.00811079 0
0.00824173 0.00853825 0
VERTICES 25 50
1 0
1 1
1 2
1 3
1 4
1 5
1 6
1 7
1 8
1 9
1 10
1 11
1 12
1 13
1 14
1 15
1 16
1 17
1 18
1 19
1 20
1 21
1 22
1 23
1 24
POINT_DATA 25
VECTORS velocity double
-6.61448e-29 -0.00970858 0
-4.76899e-29 -0.00970858 0
4.13999e-30 -0.00970858 0
6.48553e-29 -0.00970858 0
9.7041e-29 -0.00970858 0
4.05353e-29 -0.00970858 0
1.00277e-28 -0.00970858 0
-9.63712e-30 -0.00970858 0
-4.42397e-29 -0.00970858 0
2.73704e-29 -0.00970858 0
-2.7336e-29 -0.00970858 0
8.93415e-29 -0.00970858 0
-5.13771e-29 -0.00970858 0
-9.08685e-29 -0.00970858 0
-3.36143e-29 -0.00970858 0
9.41489e-29 -0.00970858 0
1.08084e-29 -0.00970858 0
6.36929e-29 -0.00970858 0
3.06429e-29 -0.00970858 0
5.87371e-29 -0.00970858 0
-3.20158e-29 -0.00970858 0
2.33888e-29 -0.00970858 0
-8.45539e-29 -0.00970858 0
-7.73658e-30 -0.00970858 0
-8.90085e-29 -0.00970858 0
SCALARS radius double 1
LOOKUP_TABLE default
0.000621415
0.000750874
0.000735541
0.000522882
0.000780242
0.00097475
0.000994168
0.000790412
0.000880848
0.000720838
0.000933918
0.000958934
0.000753488
0.00054522
0.000712397
0.000950783
0.000807753
0.000836475
0.000569299
0.000603945
0.000628319
0.000580291
0.000777192
0.000692678
0.00055675
SCALARS mass double 1
LOOKUP_TABLE default
0.00327549
0.00478242
0.00458909
0.0023191
0.00516383
0.00805935
0.00838365
0.00529932
0.00658136
0.00440747
0.00739829
0.00779994
0.00481578
0.00252149
0.00430484
0.0076679
0.0055344
0.00593499
0.00274913
0.00309392
0.00334869
0.00285631
0.00512354
0.00406984
0.00262926
