# vtk DataFile Version 3.0
DEM2D particles
ASCII
DATASET POLYDATA
POINTS 25 double
0.000436511 0.000625028 0
0.00259373 0.000413054 0
0.00503527 0.00120434 0
0.0075525 -0.000244243 0
0.00982669 -8.63055e-05 0
0.00134532 0.00278881 0
0.00385427 0.00227726 0
0.0049179 0.00138676 0
0.00662312 0.0030229 0
0.00923317 0.00233671 0
0.000767124 0.0045243 0
0.0037611 0.00341686 0
0.00456232 0.00460304 0
0.00622589 0.00482126 0
0.00871364 0.00407057 0
0.00180206 0.0062361 0
0.00309208 0.00553923 0
0.0055426 0.00597923 0
0.00726105 0.00712209 0
0.00950038 0.00692708 0
0.000727257 0.00811052 0
0.00319925 0.00746082 0
0.00427968 0.0085319 0
0.00693409 0.00797099 0
0.00824173 0.00839845 0
VERTICES 25 50
1 0
1 1
1 2
1 3
1 4
1 5
1 6
1 7
1 8
1 9
1 10
1 11
1 12
1 13
1 14
1 15
1 16
1 17
1 18
1 19
1 20
1 21
1 22
1 23
1 24
POINT_DATA 25
VECTORS velocity double
-3.42907e-35 -0.00970858 0
-2.47233e-35 -0.00970858 0
2.14625e-36 -0.00970858 0
3.36221e-35 -0.00970858 0
5.03078e-35 -0.00970858 0
2.10142e-35 -0.00970858 0
5.19857e-35 -0.00970858 0
-4.99606e-36 -0.00970858 0
-2.29347e-35 -0.00970858 0
1.41893e-35 -0.00970858 0
-1.41715e-35 -0.00970858 0
4.63163e-35 -0.00970858 0
-2.66348e-35 -0.00970858 0
-4.71079e-35 -0.00970858 0
-1.74263e-35 -0.00970858 0
4.88085e-35 -0.00970858 0
5.60327e-36 -0.00970858 0
3.30196e-35 -0.00970858 0
1.58858e-35 -0.00970858 0
3.04504e-35 -0.00970858 0
-1.65976e-35 -0.00970858 0
1.21252e-35 -0.00970858 0
-4.38343e-35 -0.00970858 0
-4.01078e-36 -0.00970858 0
-4.61436e-35 -0.00970858 0
SCALARS radius double 1
LOOKUP_TABLE default
0.000621415
0.000750874
0.000735541
0.000522882
0.000780242
0.00097475
0.000994168
0.000790412
0.000880848
0.000720838
0.000933918
0.000958934
0.000753488
0.00054522
0.000712397
0.000950783
0.000807753
0.000836475
0.000569299
0.000603945
0.000628319
0.000580291
0.000777192
0.000692678
0.00055675
SCALARS mass double 1
LOOKUP_TABLE default
0.00327549
0.00478242
0.00458909
0.0023191
0.00516383
0.00805935
0.00838365
0.00529932
0.00658136
0.00440747
0.00739829
0.00779994
0.00481578
0.00252149
0.00430484
0.0076679
0.0055344
0.00593499
0.00274913
0.00309392
0.00334869
0.00285631
0.00512354
0.00406984
0.00262926
