# vtk DataFile Version 3.0
DEM2D particles
ASCII
DATASET POLYDATA
POINTS 25 double
0.000442045 0.00133773 0
0.00259772 0.00112784 0
0.00503492 0.00191136 0
0.00754708 0.000476996 0
0.00981857 0.000633382 0
0.00134193 0.00349991 0
0.00384588 0.00299338 0
0.00491871 0.00211162 0
0.00662682 0.00373169 0
0.00923088 0.00305225 0
0.000769411 0.00523799 0
0.00375363 0.00414143 0
0.00456662 0.00531595 0
0.00623349 0.00553203 0
0.00871645 0.00478871 0
0.00179418 0.00695262 0
0.00309117 0.0062626 0
0.00553727 0.00669827 0
0.00725848 0.00782991 0
0.00949547 0.00763681 0
0.000729936 0.00882827 0
0.00319729 0.00818496 0
0.00428676 0.00924551 0
0.00693474 0.00869011 0
0.00824918 0.00911338 0
VERTICES 25 50
1 0
1 1
1 2
1 3
1 4
1 5
1 6
1 7
1 8
1 9
1 10
1 11
1 12
1 13
1 14
1 15
1 16
1 17
1 18
1 19
1 20
1 21
1 22
1 23
1 24
POINT_DATA 25
VECTORS velocity double
-0.00559036 -0.00587729 0
-0.00403061 -0.00798028 0
0.000349899 -0.000129908 0
0.00548137 -0.0145013 0
0.00820161 -0.0129344 0
0.00342592 -0.00425237 0
0.00847515 -0.00932746 0
-0.0008145 -0.0181621 0
-0.00373901 -0.00193003 0
0.00231327 -0.00873766 0
-0.00231035 -0.00687659 0
0.00755088 -0.0178635 0
-0.00434224 -0.00609546 0
-0.00767993 -0.00393047 0
-0.00284098 -0.0113781 0
0.00795718 -0.00973588 0
0.000913493 -0.0166494 0
0.00538314 -0.0122843 0
0.00258984 -0.000945956 0
0.00496429 -0.00288068 0
-0.00270588 -0.0109817 0
0.00197675 -0.0174274 0
-0.00714624 -0.00680124 0
-0.000653873 -0.012366 0
-0.00752273 -0.00812517 0
SCALARS radius double 1
LOOKUP_TABLE default
0.000621415
0.000750874
0.000735541
0.000522882
0.000780242
0.00097475
0.000994168
0.000790412
0.000880848
0.000720838
0.000933918
0.000958934
0.000753488
0.00054522
0.000712397
0.000950783
0.000807753
0.000836475
0.000569299
0.000603945
0.000628319
0.000580291
0.000777192
0.000692678
0.00055675
SCALARS mass double 1
LOOKUP_TABLE default
0.00327549
0.00478242
0.00458909
0.0023191
0.00516383
0.00805935
0.00838365
0.00529932
0.00658136
0.00440747
0.00739829
0.00779994
0.00481578
0.00252149
0.00430484
0.0076679
0.0055344
0.00593499
0.00274913
0.00309392
0.00334869
0.00285631
0.00512354
0.00406984
0.00262926
