# vtk DataFile Version 3.0
DEM2D particles
ASCII
DATASET POLYDATA
POINTS 25 double
0.000437118 0.00131975 0
0.00259417 0.001108 0
0.00503523 0.00189844 0
0.00755191 0.000451412 0
0.0098258 0.000609179 0
0.00134495 0.00348336 0
0.00385335 0.00297236 0
0.00491799 0.00208281 0
0.00662353 0.00371719 0
0.00923292 0.00303174 0
0.000767375 0.00521913 0
0.00376028 0.00411288 0
0.00456279 0.00529778 0
0.00622672 0.00551577 0
0.00871395 0.00476588 0
0.00180119 0.00693123 0
0.00309198 0.00623512 0
0.00554202 0.00667464 0
0.00726077 0.00781627 0
0.00949984 0.00762147 0
0.00072755 0.00880579 0
0.00319904 0.00815679 0
0.00428046 0.00922672 0
0.00693416 0.00866641 0
0.00824255 0.00909341 0
VERTICES 25 50
1 0
1 1
1 2
1 3
1 4
1 5
1 6
1 7
1 8
1 9
1 10
1 11
1 12
1 13
1 14
1 15
1 16
1 17
1 18
1 19
1 20
1 21
1 22
1 23
1 24
POINT_DATA 25
VECTORS velocity double
-0.000612608 -0.00928874 0
-0.000441686 -0.00951919 0
3.8343e-05 -0.00865892 0
0.000600665 -0.0102338 0
0.000898757 -0.0100621 0
0.000375422 -0.00911068 0
0.000928732 -0.00966682 0
-8.92553e-05 -0.0106349 0
-0.000409732 -0.00885619 0
0.000253495 -0.00960219 0
-0.000253175 -0.00939825 0
0.000827447 -0.0106022 0
-0.000475835 -0.00931265 0
-0.000841589 -0.0090754 0
-0.000311323 -0.00989153 0
0.000871971 -0.00971157 0
0.000100103 -0.0104692 0
0.0005899 -0.00999083 0
0.000283803 -0.00874835 0
0.000544001 -0.00896036 0
-0.000296518 -0.0098481 0
0.000216618 -0.0105544 0
-0.000783106 -0.00938999 0
-7.16533e-05 -0.00999979 0
-0.000824362 -0.00953507 0
SCALARS radius double 1
LOOKUP_TABLE default
0.000621415
0.000750874
0.000735541
0.000522882
0.000780242
0.00097475
0.000994168
0.000790412
0.000880848
0.000720838
0.000933918
0.000958934
0.000753488
0.00054522
0.000712397
0.000950783
0.000807753
0.000836475
0.000569299
0.000603945
0.000628319
0.000580291
0.000777192
0.000692678
0.00055675
SCALARS mass double 1
LOOKUP_TABLE default
0.00327549
0.00478242
0.00458909
0.0023191
0.00516383
0.00805935
0.00838365
0.00529932
0.00658136
0.00440747
0.00739829
0.00779994
0.00481578
0.00252149
0.00430484
0.0076679
0.0055344
0.00593499
0.00274913
0.00309392
0.00334869
0.00285631
0.00512354
0.00406984
0.00262926
