# vtk DataFile Version 3.0
DEM2D particles
ASCII
DATASET POLYDATA
POINTS 25 double
0.000436511 -2.93304e-05 0
0.00259373 -0.000241305 0
0.00503527 0.000549986 0
0.0075525 -0.000898601 0
0.00982669 -0.000740664 0
0.00134532 0.00213446 0
0.00385427 0.0016229 0
0.0049179 0.000732401 0
0.00662312 0.00236854 0
0.00923317 0.00168235 0
0.000767124 0.00386994 0
0.0037611 0.0027625 0
0.00456232 0.00394868 0
0.00622589 0.0041669 0
0.00871364 0.00341621 0
0.00180206 0.00558174 0
0.00309208 0.00488488 0
0.0055426 0.00532487 0
0.00726105 0.00646773 0
0.00950038 0.00627272 0
0.000727257 0.00745616 0
0.00319925 0.00680646 0
0.00427968 0.00787754 0
0.00693409 0.00731663 0
0.00824173 0.00774409 0
VERTICES 25 50
1 0
1 1
1 2
1 3
1 4
1 5
1 6
1 7
1 8
1 9
1 10
1 11
1 12
1 13
1 14
1 15
1 16
1 17
1 18
1 19
1 20
1 21
1 22
1 23
1 24
POINT_DATA 25
VECTORS velocity double
-1.30734e-64 -0.00970858 0
-9.4258e-65 -0.00970858 0
8.18259e-66 -0.00970858 0
1.28185e-64 -0.00970858 0
1.91799e-64 -0.00970858 0
8.01171e-65 -0.00970858 0
1.98196e-64 -0.00970858 0
-1.90475e-65 -0.00970858 0
-8.74388e-65 -0.00970858 0
5.4097e-65 -0.00970858 0
-5.40289e-65 -0.00970858 0
1.76582e-64 -0.00970858 0
-1.01546e-64 -0.00970858 0
-1.79599e-64 -0.00970858 0
-6.64379e-65 -0.00970858 0
1.86083e-64 -0.00970858 0
2.13625e-65 -0.00970858 0
1.25888e-64 -0.00970858 0
6.05649e-65 -0.00970858 0
1.16093e-64 -0.00970858 0
-6.32785e-65 -0.00970858 0
4.62275e-65 -0.00970858 0
-1.67119e-64 -0.00970858 0
-1.52912e-65 -0.00970858 0
-1.75923e-64 -0.00970858 0
SCALARS radius double 1
LOOKUP_TABLE default
0.000621415
0.000750874
0.000735541
0.000522882
0.000780242
0.00097475
0.000994168
0.000790412
0.000880848
0.000720838
0.000933918
0.000958934
0.000753488
0.00054522
0.000712397
0.000950783
0.000807753
0.000836475
0.000569299
0.000603945
0.000628319
0.000580291
0.000777192
0.000692678
0.00055675
SCALARS mass double 1
LOOKUP_TABLE default
0.00327549
0.00478242
0.00458909
0.0023191
0.00516383
0.00805935
0.00838365
0.00529932
0.00658136
0.00440747
0.00739829
0.00779994
0.00481578
0.00252149
0.00430484
0.0076679
0.0055344
0.00593499
0.00274913
0.00309392
0.00334869
0.00285631
0.00512354
0.00406984
0.00262926
