# vtk DataFile Version 3.0
DEM2D particles
ASCII
DATASET POLYDATA
POINTS 25 double
0.000436511 0.00118424 0
0.00259373 0.000972268 0
0.00503527 0.00176356 0
0.0075525 0.000314972 0
0.00982669 0.000472909 0
0.00134532 0.00334803 0
0.00385427 0.00283648 0
0.0049179 0.00194597 0
0.00662312 0.00358211 0
0.00923317 0.00289593 0
0.000767124 0.00508352 0
0.0037611 0.00397608 0
0.00456232 0.00516225 0
0.00622589 0.00538048 0
0.00871364 0.00462978 0
0.00180206 0.00679531 0
0.00309208 0.00609845 0
0.0055426 0.00653844 0
0.00726105 0.0076813 0
0.00950038 0.00748629 0
0.000727257 0.00866973 0
0.00319925 0.00802003 0
0.00427968 0.00909111 0
0.00693409 0.0085302 0
0.00824173 0.00895766 0
VERTICES 25 50
1 0
1 1
1 2
1 3
1 4
1 5
1 6
1 7
1 8
1 9
1 10
1 11
1 12
1 13
1 14
1 15
1 16
1 17
1 18
1 19
1 20
1 21
1 22
1 23
1 24
POINT_DATA 25
VECTORS velocity double
-4.74739e-10 -0.00970858 0
-3.42283e-10 -0.00970858 0
2.97138e-11 -0.00970858 0
4.65484e-10 -0.00970858 0
6.96489e-10 -0.00970858 0
2.90933e-10 -0.00970858 0
7.19719e-10 -0.00970858 0
-6.91682e-11 -0.00970858 0
-3.17521e-10 -0.00970858 0
1.96445e-10 -0.00970858 0
-1.96198e-10 -0.00970858 0
6.41228e-10 -0.00970858 0
-3.68748e-10 -0.00970858 0
-6.52188e-10 -0.00970858 0
-2.41259e-10 -0.00970858 0
6.75732e-10 -0.00970858 0
7.75747e-11 -0.00970858 0
4.57141e-10 -0.00970858 0
2.19932e-10 -0.00970858 0
4.21572e-10 -0.00970858 0
-2.29786e-10 -0.00970858 0
1.67868e-10 -0.00970858 0
-6.06866e-10 -0.00970858 0
-5.55275e-11 -0.00970858 0
-6.38838e-10 -0.00970858 0
SCALARS radius double 1
LOOKUP_TABLE default
0.000621415
0.000750874
0.000735541
0.000522882
0.000780242
0.00097475
0.000994168
0.000790412
0.000880848
0.000720838
0.000933918
0.000958934
0.000753488
0.00054522
0.000712397
0.000950783
0.000807753
0.000836475
0.000569299
0.000603945
0.000628319
0.000580291
0.000777192
0.000692678
0.00055675
SCALARS mass double 1
LOOKUP_TABLE default
0.00327549
0.00478242
0.00458909
0.0023191
0.00516383
0.00805935
0.00838365
0.00529932
0.00658136
0.00440747
0.00739829
0.00779994
0.00481578
0.00252149
0.00430484
0.0076679
0.0055344
0.00593499
0.00274913
0.00309392
0.00334869
0.00285631
0.00512354
0.00406984
0.00262926
