# vtk DataFile Version 3.0
DEM2D particles
ASCII
DATASET POLYDATA
POINTS 25 double
0.000436511 0.000580369 0
0.00259373 0.000368395 0
0.00503527 0.00115969 0
0.0075525 -0.000288902 0
0.00982669 -0.000130965 0
0.00134532 0.00274415 0
0.00385427 0.0022326 0
0.0049179 0.0013421 0
0.00662312 0.00297824 0
0.00923317 0.00229205 0
0.000767124 0.00447964 0
0.0037611 0.0033722 0
0.00456232 0.00455838 0
0.00622589 0.0047766 0
0.00871364 0.00402591 0
0.00180206 0.00619144 0
0.00309208 0.00549457 0
0.0055426 0.00593457 0
0.00726105 0.00707743 0
0.00950038 0.00688242 0
0.000727257 0.00806586 0
0.00319925 0.00741616 0
0.00427968 0.00848724 0
0.00693409 0.00792633 0
0.00824173 0.00835379 0
VERTICES 25 50
1 0
1 1
1 2
1 3
1 4
1 5
1 6
1 7
1 8
1 9
1 10
1 11
1 12
1 13
1 14
1 15
1 16
1 17
1 18
1 19
1 20
1 21
1 22
1 23
1 24
POINT_DATA 25
VECTORS velocity double
-3.36795e-37 -0.00970858 0
-2.42827e-37 -0.00970858 0
2.10799e-38 -0.00970858 0
3.30229e-37 -0.00970858 0
4.94111e-37 -0.00970858 0
2.06397e-37 -0.00970858 0
5.10591e-37 -0.00970858 0
-4.90701e-38 -0.00970858 0
-2.25259e-37 -0.00970858 0
1.39364e-37 -0.00970858 0
-1.39189e-37 -0.00970858 0
4.54908e-37 -0.00970858 0
-2.61601e-37 -0.00970858 0
-4.62682e-37 -0.00970858 0
-1.71157e-37 -0.00970858 0
4.79386e-37 -0.00970858 0
5.5034e-38 -0.00970858 0
3.2431e-37 -0.00970858 0
1.56027e-37 -0.00970858 0
2.99077e-37 -0.00970858 0
-1.63017e-37 -0.00970858 0
1.19091e-37 -0.00970858 0
-4.3053e-37 -0.00970858 0
-3.9393e-38 -0.00970858 0
-4.53212e-37 -0.00970858 0
SCALARS radius double 1
LOOKUP_TABLE default
0.000621415
0.000750874
0.000735541
0.000522882
0.000780242
0.00097475
0.000994168
0.000790412
0.000880848
0.000720838
0.000933918
0.000958934
0.000753488
0.00054522
0.000712397
0.000950783
0.000807753
0.000836475
0.000569299
0.000603945
0.000628319
0.000580291
0.000777192
0.000692678
0.00055675
SCALARS mass double 1
LOOKUP_TABLE default
0.00327549
0.00478242
0.00458909
0.0023191
0.00516383
0.00805935
0.00838365
0.00529932
0.00658136
0.00440747
0.00739829
0.00779994
0.00481578
0.00252149
0.00430484
0.0076679
0.0055344
0.00593499
0.00274913
0.00309392
0.00334869
0.00285631
0.00512354
0.00406984
0.00262926
