# vtk DataFile Version 3.0
DEM2D particles
ASCII
DATASET POLYDATA
POINTS 25 double
0.000813469 0.00112395 0
0.00286551 0.00105378 0
0.00501167 0.00131572 0
0.00718289 0.0008362 0
0.00927366 0.000888482 0
0.00111431 0.00317817 0
0.00328279 0.00300883 0
0.00497282 0.00271405 0
0.00687524 0.00325566 0
0.00907719 0.00302851 0
0.000922912 0.00509061 0
0.00325195 0.00472402 0
0.00485511 0.00511667 0
0.00674375 0.00518891 0
0.00890521 0.00494041 0
0.0012655 0.00699521 0
0.00303048 0.00676452 0
0.00517962 0.00691018 0
0.00708641 0.00728849 0
0.00916564 0.00722394 0
0.000909714 0.00895364 0
0.00306596 0.00873857 0
0.00476155 0.00909312 0
0.00697818 0.00890745 0
0.00874899 0.00904895 0
VERTICES 25 50
1 0
1 1
1 2
1 3
1 4
1 5
1 6
1 7
1 8
1 9
1 10
1 11
1 12
1 13
1 14
1 15
1 16
1 17
1 18
1 19
1 20
1 21
1 22
1 23
1 24
POINT_DATA 25
VECTORS velocity double
-0.380766 0.251245 0
-0.274529 0.108008 0
0.0238321 0.642706 0
0.373343 -0.336146 0
0.558621 -0.229424 0
0.233343 0.36192 0
0.577252 0.0162504 0
-0.0554766 -0.585489 0
-0.254668 0.520098 0
0.157559 0.0564225 0
-0.157361 0.183182 0
0.514299 -0.565148 0
-0.295755 0.236385 0
-0.523089 0.383846 0
-0.193502 -0.123422 0
0.541973 -0.0115677 0
0.062219 -0.482458 0
0.366652 -0.185141 0
0.176397 0.587124 0
0.338123 0.455348 0
-0.1843 -0.0964236 0
0.134639 -0.535444 0
-0.486739 0.188314 0
-0.044536 -0.190709 0
-0.512382 0.0981394 0
SCALARS radius double 1
LOOKUP_TABLE default
0.000621415
0.000750874
0.000735541
0.000522882
0.000780242
0.00097475
0.000994168
0.000790412
0.000880848
0.000720838
0.000933918
0.000958934
0.000753488
0.00054522
0.000712397
0.000950783
0.000807753
0.000836475
0.000569299
0.000603945
0.000628319
0.000580291
0.000777192
0.000692678
0.00055675
SCALARS mass double 1
LOOKUP_TABLE default
0.00327549
0.00478242
0.00458909
0.0023191
0.00516383
0.00805935
0.00838365
0.00529932
0.00658136
0.00440747
0.00739829
0.00779994
0.00481578
0.00252149
0.00430484
0.0076679
0.0055344
0.00593499
0.00274913
0.00309392
0.00334869
0.00285631
0.00512354
0.00406984
0.00262926
