# vtk DataFile Version 3.0
DEM2D particles
ASCII
DATASET POLYDATA
POINTS 25 double
0.000436511 0.0010192 0
0.00259373 0.000807222 0
0.00503527 0.00159851 0
0.0075525 0.000149926 0
0.00982669 0.000307863 0
0.00134532 0.00318298 0
0.00385427 0.00267143 0
0.0049179 0.00178093 0
0.00662312 0.00341707 0
0.00923317 0.00273088 0
0.000767124 0.00491847 0
0.0037611 0.00381103 0
0.00456232 0.00499721 0
0.00622589 0.00521543 0
0.00871364 0.00446473 0
0.00180206 0.00663026 0
0.00309208 0.0059334 0
0.0055426 0.0063734 0
0.00726105 0.00751626 0
0.00950038 0.00732125 0
0.000727257 0.00850469 0
0.00319925 0.00785499 0
0.00427968 0.00892607 0
0.00693409 0.00836516 0
0.00824173 0.00879262 0
VERTICES 25 50
1 0
1 1
1 2
1 3
1 4
1 5
1 6
1 7
1 8
1 9
1 10
1 11
1 12
1 13
1 14
1 15
1 16
1 17
1 18
1 19
1 20
1 21
1 22
1 23
1 24
POINT_DATA 25
VECTORS velocity double
-1.8042e-17 -0.00970858 0
-1.30082e-17 -0.00970858 0
1.12925e-18 -0.00970858 0
1.76903e-17 -0.00970858 0
2.64695e-17 -0.00970858 0
1.10566e-17 -0.00970858 0
2.73523e-17 -0.00970858 0
-2.62868e-18 -0.00970858 0
-1.20671e-17 -0.00970858 0
7.46572e-18 -0.00970858 0
-7.45632e-18 -0.00970858 0
2.43693e-17 -0.00970858 0
-1.40139e-17 -0.00970858 0
-2.47858e-17 -0.00970858 0
-9.16883e-18 -0.00970858 0
2.56806e-17 -0.00970858 0
2.94816e-18 -0.00970858 0
1.73733e-17 -0.00970858 0
8.35833e-18 -0.00970858 0
1.60215e-17 -0.00970858 0
-8.73282e-18 -0.00970858 0
6.37968e-18 -0.00970858 0
-2.30634e-17 -0.00970858 0
-2.11028e-18 -0.00970858 0
-2.42785e-17 -0.00970858 0
SCALARS radius double 1
LOOKUP_TABLE default
0.000621415
0.000750874
0.000735541
0.000522882
0.000780242
0.00097475
0.000994168
0.000790412
0.000880848
0.000720838
0.000933918
0.000958934
0.000753488
0.00054522
0.000712397
0.000950783
0.000807753
0.000836475
0.000569299
0.000603945
0.000628319
0.000580291
0.000777192
0.000692678
0.00055675
SCALARS mass double 1
LOOKUP_TABLE default
0.00327549
0.00478242
0.00458909
0.0023191
0.00516383
0.00805935
0.00838365
0.00529932
0.00658136
0.00440747
0.00739829
0.00779994
0.00481578
0.00252149
0.00430484
0.0076679
0.0055344
0.00593499
0.00274913
0.00309392
0.00334869
0.00285631
0.00512354
0.00406984
0.00262926
