# vtk DataFile Version 3.0
DEM2D particles
ASCII
DATASET POLYDATA
POINTS 25 double
0.000436511 -0.000116708 0
0.00259373 -0.000328682 0
0.00503527 0.000462609 0
0.0075525 -0.000985978 0
0.00982669 -0.000828041 0
0.00134532 0.00204708 0
0.00385427 0.00153553 0
0.0049179 0.000645024 0
0.00662312 0.00228116 0
0.00923317 0.00159498 0
0.000767124 0.00378257 0
0.0037611 0.00267513 0
0.00456232 0.0038613 0
0.00622589 0.00407953 0
0.00871364 0.00332883 0
0.00180206 0.00549436 0
0.00309208 0.0047975 0
0.0055426 0.00523749 0
0.00726105 0.00638035 0
0.00950038 0.00618534 0
0.000727257 0.00736878 0
0.00319925 0.00671908 0
0.00427968 0.00779016 0
0.00693409 0.00722925 0
0.00824173 0.00765671 0
VERTICES 25 50
1 0
1 1
1 2
1 3
1 4
1 5
1 6
1 7
1 8
1 9
1 10
1 11
1 12
1 13
1 14
1 15
1 16
1 17
1 18
1 19
1 20
1 21
1 22
1 23
1 24
POINT_DATA 25
VECTORS velocity double
-1.54192e-68 -0.00970858 0
-1.11171e-68 -0.00970858 0
9.65086e-70 -0.00970858 0
1.51186e-68 -0.00970858 0
2.26215e-68 -0.00970858 0
9.44931e-69 -0.00970858 0
2.3376e-68 -0.00970858 0
-2.24654e-69 -0.00970858 0
-1.03129e-68 -0.00970858 0
6.38041e-69 -0.00970858 0
-6.37238e-69 -0.00970858 0
2.08267e-68 -0.00970858 0
-1.19767e-68 -0.00970858 0
-2.11826e-68 -0.00970858 0
-7.83594e-69 -0.00970858 0
2.19474e-68 -0.00970858 0
2.51958e-69 -0.00970858 0
1.48477e-68 -0.00970858 0
7.14326e-69 -0.00970858 0
1.36924e-68 -0.00970858 0
-7.4633e-69 -0.00970858 0
5.45225e-69 -0.00970858 0
-1.97106e-68 -0.00970858 0
-1.8035e-69 -0.00970858 0
-2.07491e-68 -0.00970858 0
SCALARS radius double 1
LOOKUP_TABLE default
0.000621415
0.000750874
0.000735541
0.000522882
0.000780242
0.00097475
0.000994168
0.000790412
0.000880848
0.000720838
0.000933918
0.000958934
0.000753488
0.00054522
0.000712397
0.000950783
0.000807753
0.000836475
0.000569299
0.000603945
0.000628319
0.000580291
0.000777192
0.000692678
0.00055675
SCALARS mass double 1
LOOKUP_TABLE default
0.00327549
0.00478242
0.00458909
0.0023191
0.00516383
0.00805935
0.00838365
0.00529932
0.00658136
0.00440747
0.00739829
0.00779994
0.00481578
0.00252149
0.00430484
0.0076679
0.0055344
0.00593499
0.00274913
0.00309392
0.00334869
0.00285631
0.00512354
0.00406984
0.00262926
