# vtk DataFile Version 3.0
DEM2D particles
ASCII
DATASET POLYDATA
POINTS 25 double
0.000438988 0.00133206 0
0.00259551 0.00112101 0
0.00503511 0.00190883 0
0.00755007 0.000466607 0
0.00982306 0.00062385 0
0.0013438 0.00349512 0
0.00385051 0.00298582 0
0.00491826 0.00209923 0
0.00662478 0.00372818 0
0.00923214 0.00304501 0
0.000768148 0.00523177 0
0.00375776 0.0041292 0
0.00456424 0.00531016 0
0.00622929 0.00552743 0
0.0087149 0.00478003 0
0.00179853 0.00694483 0
0.00309167 0.00625104 0
0.00554022 0.0066891 0
0.0072599 0.00782693 0
0.00949818 0.00763278 0
0.000728456 0.00881981 0
0.00319837 0.00817297 0
0.00428285 0.00923934 0
0.00693438 0.00868089 0
0.00824507 0.00910647 0
VERTICES 25 50
1 0
1 1
1 2
1 3
1 4
1 5
1 6
1 7
1 8
1 9
1 10
1 11
1 12
1 13
1 14
1 15
1 16
1 17
1 18
1 19
1 20
1 21
1 22
1 23
1 24
POINT_DATA 25
VECTORS velocity double
-0.00250182 -0.00799399 0
-0.00180379 -0.00893513 0
0.000156588 -0.0054219 0
0.00245304 -0.0118534 0
0.00367041 -0.0111522 0
0.00153318 -0.0072668 0
0.00379283 -0.00953802 0
-0.000364508 -0.0134917 0
-0.00167329 -0.0062275 0
0.00103524 -0.00927407 0
-0.00103394 -0.0084412 0
0.00337919 -0.0133581 0
-0.00194325 -0.00809163 0
-0.00343695 -0.00712274 0
-0.0012714 -0.0104557 0
0.00356102 -0.0097208 0
0.000408809 -0.0128148 0
0.00240908 -0.0108613 0
0.00115902 -0.0057871 0
0.00222163 -0.00665294 0
-0.00121094 -0.0102783 0
0.000884643 -0.0131629 0
-0.00319811 -0.00840748 0
-0.000292623 -0.0108978 0
-0.0033666 -0.00899997 0
SCALARS radius double 1
LOOKUP_TABLE default
0.000621415
0.000750874
0.000735541
0.000522882
0.000780242
0.00097475
0.000994168
0.000790412
0.000880848
0.000720838
0.000933918
0.000958934
0.000753488
0.00054522
0.000712397
0.000950783
0.000807753
0.000836475
0.000569299
0.000603945
0.000628319
0.000580291
0.000777192
0.000692678
0.00055675
SCALARS mass double 1
LOOKUP_TABLE default
0.00327549
0.00478242
0.00458909
0.0023191
0.00516383
0.00805935
0.00838365
0.00529932
0.00658136
0.00440747
0.00739829
0.00779994
0.00481578
0.00252149
0.00430484
0.0076679
0.0055344
0.00593499
0.00274913
0.00309392
0.00334869
0.00285631
0.00512354
0.00406984
0.00262926
