# vtk DataFile Version 3.0
DEM2D particles
ASCII
DATASET POLYDATA
POINTS 25 double
0.00049826 0.0013225 0
0.00263825 0.00113376 0
0.0050314 0.00183834 0
0.00749196 0.00054849 0
0.0097361 0.00068912 0
0.00130748 0.00346834 0
0.00376065 0.00301285 0
0.0049269 0.00221993 0
0.00666442 0.00367677 0
0.00920762 0.00306578 0
0.000792643 0.00523282 0
0.0036777 0.00424673 0
0.00461028 0.00530292 0
0.00631072 0.00549723 0
0.00874502 0.0048288 0
0.00171416 0.00697619 0
0.00308199 0.00635569 0
0.00548314 0.00674747 0
0.00723244 0.0077651 0
0.00944555 0.00759145 0
0.000757145 0.00886438 0
0.00317742 0.00828587 0
0.00435862 0.00923958 0
0.00694131 0.00874013 0
0.00832483 0.00912075 0
VERTICES 25 50
1 0
1 1
1 2
1 3
1 4
1 5
1 6
1 7
1 8
1 9
1 10
1 11
1 12
1 13
1 14
1 15
1 16
1 17
1 18
1 19
1 20
1 21
1 22
1 23
1 24
POINT_DATA 25
VECTORS velocity double
-0.0623725 0.0330377 0
-0.0449701 0.00957435 0
0.00390388 0.0971621 0
0.0611565 -0.0631817 0
0.0915066 -0.0456997 0
0.0382235 0.0511672 0
0.0945585 -0.0054563 0
-0.0090875 -0.104026 0
-0.0417167 0.0770779 0
0.0258095 0.00112421 0
-0.025777 0.0218884 0
0.0842463 -0.100694 0
-0.048447 0.0306035 0
-0.0856862 0.0547587 0
-0.0316972 -0.0283357 0
0.0887795 -0.0100131 0
0.010192 -0.0871487 0
0.0600605 -0.0384458 0
0.0288953 0.0880574 0
0.0553873 0.0664714 0
-0.0301899 -0.0239132 0
0.0220549 -0.0958282 0
-0.0797317 0.0227291 0
-0.00729536 -0.0393578 0
-0.0839322 0.00795777 0
SCALARS radius double 1
LOOKUP_TABLE default
0.000621415
0.000750874
0.000735541
0.000522882
0.000780242
0.00097475
0.000994168
0.000790412
0.000880848
0.000720838
0.000933918
0.000958934
0.000753488
0.00054522
0.000712397
0.000950783
0.000807753
0.000836475
0.000569299
0.000603945
0.000628319
0.000580291
0.000777192
0.000692678
0.00055675
SCALARS mass double 1
LOOKUP_TABLE default
0.00327549
0.00478242
0.00458909
0.0023191
0.00516383
0.00805935
0.00838365
0.00529932
0.00658136
0.00440747
0.00739829
0.00779994
0.00481578
0.00252149
0.00430484
0.0076679
0.0055344
0.00593499
0.00274913
0.00309392
0.00334869
0.00285631
0.00512354
0.00406984
0.00262926
