# vtk DataFile Version 3.0
DEM2D particles
ASCII
DATASET POLYDATA
POINTS 25 double
0.000436513 0.00126579 0
0.00259373 0.00105382 0
0.00503527 0.00184511 0
0.0075525 0.000396526 0
0.00982669 0.000554462 0
0.00134532 0.00342958 0
0.00385426 0.00291803 0
0.0049179 0.00202753 0
0.00662312 0.00366366 0
0.00923317 0.00297748 0
0.000767125 0.00516507 0
0.0037611 0.00405763 0
0.00456232 0.0052438 0
0.00622589 0.00546203 0
0.00871364 0.00471133 0
0.00180205 0.00687686 0
0.00309208 0.00618 0
0.0055426 0.00662 0
0.00726105 0.00776285 0
0.00950038 0.00756784 0
0.000727258 0.00875129 0
0.00319925 0.00810159 0
0.00427969 0.00917266 0
0.00693409 0.00861176 0
0.00824174 0.00903922 0
VERTICES 25 50
1 0
1 1
1 2
1 3
1 4
1 5
1 6
1 7
1 8
1 9
1 10
1 11
1 12
1 13
1 14
1 15
1 16
1 17
1 18
1 19
1 20
1 21
1 22
1 23
1 24
POINT_DATA 25
VECTORS velocity double
-2.20238e-06 -0.00970707 0
-1.5879e-06 -0.0097079 0
1.37846e-07 -0.00970481 0
2.15944e-06 -0.00971047 0
3.23111e-06 -0.00970985 0
1.34967e-06 -0.00970643 0
3.33887e-06 -0.00970843 0
-3.2088e-07 -0.00971191 0
-1.47302e-06 -0.00970552 0
9.11334e-07 -0.0097082 0
-9.10186e-07 -0.00970747 0
2.97474e-06 -0.0097118 0
-1.71067e-06 -0.00970716 0
-3.02558e-06 -0.00970631 0
-1.11923e-06 -0.00970924 0
3.13481e-06 -0.00970859 0
3.59879e-07 -0.00971132 0
2.12074e-06 -0.0097096 0
1.02029e-06 -0.00970513 0
1.95573e-06 -0.00970589 0
-1.06601e-06 -0.00970909 0
7.78761e-07 -0.00971162 0
-2.81533e-06 -0.00970744 0
-2.57599e-07 -0.00970963 0
-2.96365e-06 -0.00970796 0
SCALARS radius double 1
LOOKUP_TABLE default
0.000621415
0.000750874
0.000735541
0.000522882
0.000780242
0.00097475
0.000994168
0.000790412
0.000880848
0.000720838
0.000933918
0.000958934
0.000753488
0.00054522
0.000712397
0.000950783
0.000807753
0.000836475
0.000569299
0.000603945
0.000628319
0.000580291
0.000777192
0.000692678
0.00055675
SCALARS mass double 1
LOOKUP_TABLE default
0.00327549
0.00478242
0.00458909
0.0023191
0.00516383
0.00805935
0.00838365
0.00529932
0.00658136
0.00440747
0.00739829
0.00779994
0.00481578
0.00252149
0.00430484
0.0076679
0.0055344
0.00593499
0.00274913
0.00309392
0.00334869
0.00285631
0.00512354
0.00406984
0.00262926
