# vtk DataFile Version 3.0
DEM2D particles
ASCII
DATASET POLYDATA
POINTS 25 double
0.000436511 0.00107356 0
0.00259373 0.000861591 0
0.00503527 0.00165288 0
0.0075525 0.000204294 0
0.00982669 0.000362231 0
0.00134532 0.00323735 0
0.00385427 0.0027258 0
0.0049179 0.0018353 0
0.00662312 0.00347143 0
0.00923317 0.00278525 0
0.000767124 0.00497284 0
0.0037611 0.0038654 0
0.00456232 0.00505157 0
0.00622589 0.0052698 0
0.00871364 0.0045191 0
0.00180206 0.00668463 0
0.00309208 0.00598777 0
0.0055426 0.00642776 0
0.00726105 0.00757063 0
0.00950038 0.00737561 0
0.000727257 0.00855906 0
0.00319925 0.00790936 0
0.00427968 0.00898043 0
0.00693409 0.00841952 0
0.00824173 0.00884699 0
VERTICES 25 50
1 0
1 1
1 2
1 3
1 4
1 5
1 6
1 7
1 8
1 9
1 10
1 11
1 12
1 13
1 14
1 15
1 16
1 17
1 18
1 19
1 20
1 21
1 22
1 23
1 24
POINT_DATA 25
VECTORS velocity double
-5.01853e-15 -0.00970858 0
-3.61832e-15 -0.00970858 0
3.14109e-16 -0.00970858 0
4.92069e-15 -0.00970858 0
7.36269e-15 -0.00970858 0
3.07549e-15 -0.00970858 0
7.60825e-15 -0.00970858 0
-7.31187e-16 -0.00970858 0
-3.35656e-15 -0.00970858 0
2.07665e-15 -0.00970858 0
-2.07403e-15 -0.00970858 0
6.77852e-15 -0.00970858 0
-3.89808e-15 -0.00970858 0
-6.89437e-15 -0.00970858 0
-2.55038e-15 -0.00970858 0
7.14326e-15 -0.00970858 0
8.20053e-16 -0.00970858 0
4.83251e-15 -0.00970858 0
2.32493e-15 -0.00970858 0
4.4565e-15 -0.00970858 0
-2.4291e-15 -0.00970858 0
1.77456e-15 -0.00970858 0
-6.41527e-15 -0.00970858 0
-5.86989e-16 -0.00970858 0
-6.75324e-15 -0.00970858 0
SCALARS radius double 1
LOOKUP_TABLE default
0.000621415
0.000750874
0.000735541
0.000522882
0.000780242
0.00097475
0.000994168
0.000790412
0.000880848
0.000720838
0.000933918
0.000958934
0.000753488
0.00054522
0.000712397
0.000950783
0.000807753
0.000836475
0.000569299
0.000603945
0.000628319
0.000580291
0.000777192
0.000692678
0.00055675
SCALARS mass double 1
LOOKUP_TABLE default
0.00327549
0.00478242
0.00458909
0.0023191
0.00516383
0.00805935
0.00838365
0.00529932
0.00658136
0.00440747
0.00739829
0.00779994
0.00481578
0.00252149
0.00430484
0.0076679
0.0055344
0.00593499
0.00274913
0.00309392
0.00334869
0.00285631
0.00512354
0.00406984
0.00262926
