# vtk DataFile Version 3.0
DEM2D particles
ASCII
DATASET POLYDATA
POINTS 25 double
0.000436511 0.000285228 0
0.00259373 7.32536e-05 0
0.00503527 0.000864544 0
0.0075525 -0.000584043 0
0.00982669 -0.000426106 0
0.00134532 0.00244901 0
0.00385427 0.00193746 0
0.0049179 0.00104696 0
0.00662312 0.0026831 0
0.00923317 0.00199691 0
0.000767124 0.0041845 0
0.0037611 0.00307706 0
0.00456232 0.00426324 0
0.00622589 0.00448146 0
0.00871364 0.00373076 0
0.00180206 0.0058963 0
0.00309208 0.00519943 0
0.0055426 0.00563943 0
0.00726105 0.00678229 0
0.00950038 0.00658728 0
0.000727257 0.00777072 0
0.00319925 0.00712102 0
0.00427968 0.0081921 0
0.00693409 0.00763119 0
0.00824173 0.00805865 0
VERTICES 25 50
1 0
1 1
1 2
1 3
1 4
1 5
1 6
1 7
1 8
1 9
1 10
1 11
1 12
1 13
1 14
1 15
1 16
1 17
1 18
1 19
1 20
1 21
1 22
1 23
1 24
POINT_DATA 25
VECTORS velocity double
-1.81283e-50 -0.00970858 0
-1.30704e-50 -0.00970858 0
1.13465e-51 -0.00970858 0
1.77749e-50 -0.00970858 0
2.6596e-50 -0.00970858 0
1.11095e-50 -0.00970858 0
2.7483e-50 -0.00970858 0
-2.64124e-51 -0.00970858 0
-1.21248e-50 -0.00970858 0
7.50141e-51 -0.00970858 0
-7.49197e-51 -0.00970858 0
2.44858e-50 -0.00970858 0
-1.40809e-50 -0.00970858 0
-2.49043e-50 -0.00970858 0
-9.21266e-51 -0.00970858 0
2.58034e-50 -0.00970858 0
2.96225e-51 -0.00970858 0
1.74563e-50 -0.00970858 0
8.39829e-51 -0.00970858 0
1.60981e-50 -0.00970858 0
-8.77456e-51 -0.00970858 0
6.41017e-51 -0.00970858 0
-2.31737e-50 -0.00970858 0
-2.12036e-51 -0.00970858 0
-2.43945e-50 -0.00970858 0
SCALARS radius double 1
LOOKUP_TABLE default
0.000621415
0.000750874
0.000735541
0.000522882
0.000780242
0.00097475
0.000994168
0.000790412
0.000880848
0.000720838
0.000933918
0.000958934
0.000753488
0.00054522
0.000712397
0.000950783
0.000807753
0.000836475
0.000569299
0.000603945
0.000628319
0.000580291
0.000777192
0.000692678
0.00055675
SCALARS mass double 1
LOOKUP_TABLE default
0.00327549
0.00478242
0.00458909
0.0023191
0.00516383
0.00805935
0.00838365
0.00529932
0.00658136
0.00440747
0.00739829
0.00779994
0.00481578
0.00252149
0.00430484
0.0076679
0.0055344
0.00593499
0.00274913
0.00309392
0.00334869
0.00285631
0.00512354
0.00406984
0.00262926
