# vtk DataFile Version 3.0
DEM2D particles
ASCII
DATASET POLYDATA
POINTS 25 double
0.000436511 0.000809491 0
0.00259373 0.000597517 0
0.00503527 0.00138881 0
0.0075525 -5.97794e-05 0
0.00982669 9.81576e-05 0
0.00134532 0.00297328 0
0.00385427 0.00246173 0
0.0049179 0.00157122 0
0.00662312 0.00320736 0
0.00923317 0.00252118 0
0.000767124 0.00470877 0
0.0037611 0.00360132 0
0.00456232 0.0047875 0
0.00622589 0.00500572 0
0.00871364 0.00425503 0
0.00180206 0.00642056 0
0.00309208 0.0057237 0
0.0055426 0.00616369 0
0.00726105 0.00730655 0
0.00950038 0.00711154 0
0.000727257 0.00829498 0
0.00319925 0.00764528 0
0.00427968 0.00871636 0
0.00693409 0.00815545 0
0.00824173 0.00858291 0
VERTICES 25 50
1 0
1 1
1 2
1 3
1 4
1 5
1 6
1 7
1 8
1 9
1 10
1 11
1 12
1 13
1 14
1 15
1 16
1 17
1 18
1 19
1 20
1 21
1 22
1 23
1 24
POINT_DATA 25
VECTORS velocity double
-6.73451e-27 -0.00970858 0
-4.85553e-27 -0.00970858 0
4.21512e-28 -0.00970858 0
6.60322e-27 -0.00970858 0
9.8802e-27 -0.00970858 0
4.12709e-27 -0.00970858 0
1.02097e-26 -0.00970858 0
-9.812e-28 -0.00970858 0
-4.50426e-27 -0.00970858 0
2.78671e-27 -0.00970858 0
-2.7832e-27 -0.00970858 0
9.09628e-27 -0.00970858 0
-5.23095e-27 -0.00970858 0
-9.25175e-27 -0.00970858 0
-3.42243e-27 -0.00970858 0
9.58574e-27 -0.00970858 0
1.10045e-27 -0.00970858 0
6.48488e-27 -0.00970858 0
3.1199e-27 -0.00970858 0
5.9803e-27 -0.00970858 0
-3.25968e-27 -0.00970858 0
2.38133e-27 -0.00970858 0
-8.60883e-27 -0.00970858 0
-7.87698e-28 -0.00970858 0
-9.06237e-27 -0.00970858 0
SCALARS radius double 1
LOOKUP_TABLE default
0.000621415
0.000750874
0.000735541
0.000522882
0.000780242
0.00097475
0.000994168
0.000790412
0.000880848
0.000720838
0.000933918
0.000958934
0.000753488
0.00054522
0.000712397
0.000950783
0.000807753
0.000836475
0.000569299
0.000603945
0.000628319
0.000580291
0.000777192
0.000692678
0.00055675
SCALARS mass double 1
LOOKUP_TABLE default
0.00327549
0.00478242
0.00458909
0.0023191
0.00516383
0.00805935
0.00838365
0.00529932
0.00658136
0.00440747
0.00739829
0.00779994
0.00481578
0.00252149
0.00430484
0.0076679
0.0055344
0.00593499
0.00274913
0.00309392
0.00334869
0.00285631
0.00512354
0.00406984
0.00262926
