# vtk DataFile Version 3.0
DEM2D particles
ASCII
DATASET POLYDATA
POINTS 25 double
0.000436518 0.00127744 0
0.00259373 0.00106547 0
0.00503527 0.00185675 0
0.0075525 0.000408181 0
0.00982668 0.000566116 0
0.00134532 0.00344122 0
0.00385426 0.00292968 0
0.0049179 0.00203919 0
0.00662313 0.0036753 0
0.00923317 0.00298913 0
0.000767127 0.00517672 0
0.00376109 0.00406929 0
0.00456232 0.00525545 0
0.0062259 0.00547367 0
0.00871364 0.00472298 0
0.00180205 0.00688851 0
0.00309208 0.00619166 0
0.00554259 0.00663165 0
0.00726104 0.0077745 0
0.00950038 0.00757948 0
0.00072726 0.00876294 0
0.00319925 0.00811325 0
0.00427969 0.00918431 0
0.00693409 0.00862341 0
0.00824174 0.00905086 0
VERTICES 25 50
1 0
1 1
1 2
1 3
1 4
1 5
1 6
1 7
1 8
1 9
1 10
1 11
1 12
1 13
1 14
1 15
1 16
1 17
1 18
1 19
1 20
1 21
1 22
1 23
1 24
POINT_DATA 25
VECTORS velocity double
-7.35645e-06 -0.00970354 0
-5.30394e-06 -0.00970631 0
4.60439e-07 -0.00969598 0
7.21303e-06 -0.00971489 0
1.07926e-05 -0.00971283 0
4.50823e-06 -0.0097014 0
1.11526e-05 -0.00970808 0
-1.07181e-06 -0.00971971 0
-4.92023e-06 -0.00969835 0
3.04407e-06 -0.00970731 0
-3.04023e-06 -0.00970486 0
9.93633e-06 -0.00971931 0
-5.71403e-06 -0.00970383 0
-1.01062e-05 -0.00970098 0
-3.73849e-06 -0.00971078 0
1.0471e-05 -0.00970862 0
1.20208e-06 -0.00971772 0
7.08376e-06 -0.00971197 0
3.40802e-06 -0.00969705 0
6.53259e-06 -0.0096996 0
-3.56071e-06 -0.00971026 0
2.60124e-06 -0.00971874 0
-9.40386e-06 -0.00970476 0
-8.60442e-07 -0.00971208 0
-9.89929e-06 -0.0097065 0
SCALARS radius double 1
LOOKUP_TABLE default
0.000621415
0.000750874
0.000735541
0.000522882
0.000780242
0.00097475
0.000994168
0.000790412
0.000880848
0.000720838
0.000933918
0.000958934
0.000753488
0.00054522
0.000712397
0.000950783
0.000807753
0.000836475
0.000569299
0.000603945
0.000628319
0.000580291
0.000777192
0.000692678
0.00055675
SCALARS mass double 1
LOOKUP_TABLE default
0.00327549
0.00478242
0.00458909
0.0023191
0.00516383
0.00805935
0.00838365
0.00529932
0.00658136
0.00440747
0.00739829
0.00779994
0.00481578
0.00252149
0.00430484
0.0076679
0.0055344
0.00593499
0.00274913
0.00309392
0.00334869
0.00285631
0.00512354
0.00406984
0.00262926
