# vtk DataFile Version 3.0
DEM2D particles
ASCII
DATASET POLYDATA
POINTS 25 double
0.000436511 -0.000419615 0
0.00259373 -0.00063159 0
0.00503527 0.000159701 0
0.0075525 -0.00128889 0
0.00982669 -0.00113095 0
0.00134532 0.00174417 0
0.00385427 0.00123262 0
0.0049179 0.000342116 0
0.00662312 0.00197825 0
0.00923317 0.00129207 0
0.000767124 0.00347966 0
0.0037611 0.00237222 0
0.00456232 0.00355839 0
0.00622589 0.00377662 0
0.00871364 0.00302592 0
0.00180206 0.00519145 0
0.00309208 0.00449459 0
0.0055426 0.00493458 0
0.00726105 0.00607745 0
0.00950038 0.00588243 0
0.000727257 0.00706588 0
0.00319925 0.00641618 0
0.00427968 0.00748725 0
0.00693409 0.00692634 0
0.00824173 0.00735381 0
VERTICES 25 50
1 0
1 1
1 2
1 3
1 4
1 5
1 6
1 7
1 8
1 9
1 10
1 11
1 12
1 13
1 14
1 15
1 16
1 17
1 18
1 19
1 20
1 21
1 22
1 23
1 24
POINT_DATA 25
VECTORS velocity double
-3.71424e-82 -0.00970858 0
-2.67794e-82 -0.00970858 0
2.32473e-83 -0.00970858 0
3.64183e-82 -0.00970858 0
5.44916e-82 -0.00970858 0
2.27618e-82 -0.00970858 0
5.6309e-82 -0.00970858 0
-5.41154e-83 -0.00970858 0
-2.4842e-82 -0.00970858 0
1.53694e-82 -0.00970858 0
-1.535e-82 -0.00970858 0
5.01681e-82 -0.00970858 0
-2.88499e-82 -0.00970858 0
-5.10255e-82 -0.00970858 0
-1.88755e-82 -0.00970858 0
5.28676e-82 -0.00970858 0
6.06925e-83 -0.00970858 0
3.57656e-82 -0.00970858 0
1.72069e-82 -0.00970858 0
3.29827e-82 -0.00970858 0
-1.79779e-82 -0.00970858 0
1.31336e-82 -0.00970858 0
-4.74797e-82 -0.00970858 0
-4.34433e-83 -0.00970858 0
-4.99811e-82 -0.00970858 0
SCALARS radius double 1
LOOKUP_TABLE default
0.000621415
0.000750874
0.000735541
0.000522882
0.000780242
0.00097475
0.000994168
0.000790412
0.000880848
0.000720838
0.000933918
0.000958934
0.000753488
0.00054522
0.000712397
0.000950783
0.000807753
0.000836475
0.000569299
0.000603945
0.000628319
0.000580291
0.000777192
0.000692678
0.00055675
SCALARS mass double 1
LOOKUP_TABLE default
0.00327549
0.00478242
0.00458909
0.0023191
0.00516383
0.00805935
0.00838365
0.00529932
0.00658136
0.00440747
0.00739829
0.00779994
0.00481578
0.00252149
0.00430484
0.0076679
0.0055344
0.00593499
0.00274913
0.00309392
0.00334869
0.00285631
0.00512354
0.00406984
0.00262926
