# vtk DataFile Version 3.0
DEM2D particles
ASCII
DATASET POLYDATA
POINTS 25 double
0.000436511 -4.68059e-05 0
0.00259373 -0.00025878 0
0.00503527 0.000532511 0
0.0075525 -0.000916077 0
0.00982669 -0.000758139 0
0.00134532 0.00211698 0
0.00385427 0.00160543 0
0.0049179 0.000714926 0
0.00662312 0.00235106 0
0.00923317 0.00166488 0
0.000767124 0.00385247 0
0.0037611 0.00274503 0
0.00456232 0.0039312 0
0.00622589 0.00414943 0
0.00871364 0.00339873 0
0.00180206 0.00556426 0
0.00309208 0.0048674 0
0.0055426 0.00530739 0
0.00726105 0.00645026 0
0.00950038 0.00625524 0
0.000727257 0.00743869 0
0.00319925 0.00678899 0
0.00427968 0.00786006 0
0.00693409 0.00729915 0
0.00824173 0.00772662 0
VERTICES 25 50
1 0
1 1
1 2
1 3
1 4
1 5
1 6
1 7
1 8
1 9
1 10
1 11
1 12
1 13
1 14
1 15
1 16
1 17
1 18
1 19
1 20
1 21
1 22
1 23
1 24
POINT_DATA 25
VECTORS velocity double
-2.14152e-65 -0.00970858 0
-1.54402e-65 -0.00970858 0
1.34037e-66 -0.00970858 0
2.09977e-65 -0.00970858 0
3.14183e-65 -0.00970858 0
1.31238e-65 -0.00970858 0
3.24661e-65 -0.00970858 0
-3.12014e-66 -0.00970858 0
-1.43232e-65 -0.00970858 0
8.86153e-66 -0.00970858 0
-8.85037e-66 -0.00970858 0
2.89255e-65 -0.00970858 0
-1.6634e-65 -0.00970858 0
-2.94198e-65 -0.00970858 0
-1.08831e-65 -0.00970858 0
3.04819e-65 -0.00970858 0
3.49935e-66 -0.00970858 0
2.06214e-65 -0.00970858 0
9.92102e-66 -0.00970858 0
1.90169e-65 -0.00970858 0
-1.03655e-65 -0.00970858 0
7.57243e-66 -0.00970858 0
-2.73754e-65 -0.00970858 0
-2.50482e-66 -0.00970858 0
-2.88176e-65 -0.00970858 0
SCALARS radius double 1
LOOKUP_TABLE default
0.000621415
0.000750874
0.000735541
0.000522882
0.000780242
0.00097475
0.000994168
0.000790412
0.000880848
0.000720838
0.000933918
0.000958934
0.000753488
0.00054522
0.000712397
0.000950783
0.000807753
0.000836475
0.000569299
0.000603945
0.000628319
0.000580291
0.000777192
0.000692678
0.00055675
SCALARS mass double 1
LOOKUP_TABLE default
0.00327549
0.00478242
0.00458909
0.0023191
0.00516383
0.00805935
0.00838365
0.00529932
0.00658136
0.00440747
0.00739829
0.00779994
0.00481578
0.00252149
0.00430484
0.0076679
0.0055344
0.00593499
0.00274913
0.00309392
0.00334869
0.00285631
0.00512354
0.00406984
0.00262926
