# vtk DataFile Version 3.0
DEM2D particles
ASCII
DATASET POLYDATA
POINTS 25 double
0.000436511 0.000807549 0
0.00259373 0.000595575 0
0.00503527 0.00138687 0
0.0075525 -6.17212e-05 0
0.00982669 9.62159e-05 0
0.00134532 0.00297134 0
0.00385427 0.00245978 0
0.0049179 0.00156928 0
0.00662312 0.00320542 0
0.00923317 0.00251923 0
0.000767124 0.00470682 0
0.0037611 0.00359938 0
0.00456232 0.00478556 0
0.00622589 0.00500378 0
0.00871364 0.00425309 0
0.00180206 0.00641862 0
0.00309208 0.00572175 0
0.0055426 0.00616175 0
0.00726105 0.00730461 0
0.00950038 0.0071096 0
0.000727257 0.00829304 0
0.00319925 0.00764334 0
0.00427968 0.00871442 0
0.00693409 0.00815351 0
0.00824173 0.00858097 0
VERTICES 25 50
1 0
1 1
1 2
1 3
1 4
1 5
1 6
1 7
1 8
1 9
1 10
1 11
1 12
1 13
1 14
1 15
1 16
1 17
1 18
1 19
1 20
1 21
1 22
1 23
1 24
POINT_DATA 25
VECTORS velocity double
-5.5082e-27 -0.00970858 0
-3.97137e-27 -0.00970858 0
3.44757e-28 -0.00970858 0
5.40082e-27 -0.00970858 0
8.08108e-27 -0.00970858 0
3.37557e-27 -0.00970858 0
8.3506e-27 -0.00970858 0
-8.0253e-28 -0.00970858 0
-3.68406e-27 -0.00970858 0
2.27927e-27 -0.00970858 0
-2.2764e-27 -0.00970858 0
7.43991e-27 -0.00970858 0
-4.27843e-27 -0.00970858 0
-7.56707e-27 -0.00970858 0
-2.79923e-27 -0.00970858 0
7.84025e-27 -0.00970858 0
9.00068e-28 -0.00970858 0
5.30403e-27 -0.00970858 0
2.55178e-27 -0.00970858 0
4.89133e-27 -0.00970858 0
-2.66611e-27 -0.00970858 0
1.9477e-27 -0.00970858 0
-7.04122e-27 -0.00970858 0
-6.44263e-28 -0.00970858 0
-7.41218e-27 -0.00970858 0
SCALARS radius double 1
LOOKUP_TABLE default
0.000621415
0.000750874
0.000735541
0.000522882
0.000780242
0.00097475
0.000994168
0.000790412
0.000880848
0.000720838
0.000933918
0.000958934
0.000753488
0.00054522
0.000712397
0.000950783
0.000807753
0.000836475
0.000569299
0.000603945
0.000628319
0.000580291
0.000777192
0.000692678
0.00055675
SCALARS mass double 1
LOOKUP_TABLE default
0.00327549
0.00478242
0.00458909
0.0023191
0.00516383
0.00805935
0.00838365
0.00529932
0.00658136
0.00440747
0.00739829
0.00779994
0.00481578
0.00252149
0.00430484
0.0076679
0.0055344
0.00593499
0.00274913
0.00309392
0.00334869
0.00285631
0.00512354
0.00406984
0.00262926
