# vtk DataFile Version 3.0
DEM2D particles
ASCII
DATASET POLYDATA
POINTS 25 double
0.000436511 -0.000252628 0
0.00259373 -0.000464602 0
0.00503527 0.000326689 0
0.0075525 -0.0011219 0
0.00982669 -0.000963961 0
0.00134532 0.00191116 0
0.00385427 0.00139961 0
0.0049179 0.000509104 0
0.00662312 0.00214524 0
0.00923317 0.00145906 0
0.000767124 0.00364665 0
0.0037611 0.0025392 0
0.00456232 0.00372538 0
0.00622589 0.00394361 0
0.00871364 0.00319291 0
0.00180206 0.00535844 0
0.00309208 0.00466158 0
0.0055426 0.00510157 0
0.00726105 0.00624443 0
0.00950038 0.00604942 0
0.000727257 0.00723286 0
0.00319925 0.00658316 0
0.00427968 0.00765424 0
0.00693409 0.00709333 0
0.00824173 0.00752079 0
VERTICES 25 50
1 0
1 1
1 2
1 3
1 4
1 5
1 6
1 7
1 8
1 9
1 10
1 11
1 12
1 13
1 14
1 15
1 16
1 17
1 18
1 19
1 20
1 21
1 22
1 23
1 24
POINT_DATA 25
VECTORS velocity double
-1.19491e-74 -0.00970858 0
-8.61521e-75 -0.00970858 0
7.47891e-76 -0.00970858 0
1.17161e-74 -0.00970858 0
1.75305e-74 -0.00970858 0
7.32272e-75 -0.00970858 0
1.81152e-74 -0.00970858 0
-1.74095e-75 -0.00970858 0
-7.99194e-75 -0.00970858 0
4.94449e-75 -0.00970858 0
-4.93826e-75 -0.00970858 0
1.61396e-74 -0.00970858 0
-9.28131e-75 -0.00970858 0
-1.64154e-74 -0.00970858 0
-6.07244e-75 -0.00970858 0
1.70081e-74 -0.00970858 0
1.95254e-75 -0.00970858 0
1.15062e-74 -0.00970858 0
5.53565e-75 -0.00970858 0
1.06109e-74 -0.00970858 0
-5.78367e-75 -0.00970858 0
4.22521e-75 -0.00970858 0
-1.52747e-74 -0.00970858 0
-1.39762e-75 -0.00970858 0
-1.60794e-74 -0.00970858 0
SCALARS radius double 1
LOOKUP_TABLE default
0.000621415
0.000750874
0.000735541
0.000522882
0.000780242
0.00097475
0.000994168
0.000790412
0.000880848
0.000720838
0.000933918
0.000958934
0.000753488
0.00054522
0.000712397
0.000950783
0.000807753
0.000836475
0.000569299
0.000603945
0.000628319
0.000580291
0.000777192
0.000692678
0.00055675
SCALARS mass double 1
LOOKUP_TABLE default
0.00327549
0.00478242
0.00458909
0.0023191
0.00516383
0.00805935
0.00838365
0.00529932
0.00658136
0.00440747
0.00739829
0.00779994
0.00481578
0.00252149
0.00430484
0.0076679
0.0055344
0.00593499
0.00274913
0.00309392
0.00334869
0.00285631
0.00512354
0.00406984
0.00262926
