# vtk DataFile Version 3.0
DEM2D particles
ASCII
DATASET POLYDATA
POINTS 25 double
0.000436514 0.00126773 0
0.00259373 0.00105576 0
0.00503527 0.00184705 0
0.0075525 0.000398468 0
0.00982669 0.000556404 0
0.00134532 0.00343152 0
0.00385426 0.00291997 0
0.0049179 0.00202947 0
0.00662312 0.0036656 0
0.00923317 0.00297942 0
0.000767125 0.00516701 0
0.0037611 0.00405957 0
0.00456232 0.00524574 0
0.00622589 0.00546397 0
0.00871364 0.00471327 0
0.00180205 0.0068788 0
0.00309208 0.00618195 0
0.0055426 0.00662194 0
0.00726105 0.00776479 0
0.00950038 0.00756978 0
0.000727258 0.00875323 0
0.00319925 0.00810353 0
0.00427969 0.0091746 0
0.00693409 0.0086137 0
0.00824174 0.00904116 0
VERTICES 25 50
1 0
1 1
1 2
1 3
1 4
1 5
1 6
1 7
1 8
1 9
1 10
1 11
1 12
1 13
1 14
1 15
1 16
1 17
1 18
1 19
1 20
1 21
1 22
1 23
1 24
POINT_DATA 25
VECTORS velocity double
-2.6927e-06 -0.00970674 0
-1.94141e-06 -0.00970775 0
1.68535e-07 -0.00970397 0
2.6402e-06 -0.00971089 0
3.95046e-06 -0.00971014 0
1.65016e-06 -0.00970596 0
4.08221e-06 -0.0097084 0
-3.92319e-07 -0.00971266 0
-1.80096e-06 -0.00970484 0
1.11423e-06 -0.00970812 0
-1.11282e-06 -0.00970722 0
3.63702e-06 -0.00971251 0
-2.09152e-06 -0.00970684 0
-3.69918e-06 -0.0097058 0
-1.36841e-06 -0.00970939 0
3.83272e-06 -0.0097086 0
4.4e-07 -0.00971193 0
2.59288e-06 -0.00970982 0
1.24745e-06 -0.00970436 0
2.39114e-06 -0.00970529 0
-1.30334e-06 -0.0097092 0
9.52139e-07 -0.0097123 0
-3.44212e-06 -0.00970718 0
-3.1495e-07 -0.00970986 0
-3.62346e-06 -0.00970782 0
SCALARS radius double 1
LOOKUP_TABLE default
0.000621415
0.000750874
0.000735541
0.000522882
0.000780242
0.00097475
0.000994168
0.000790412
0.000880848
0.000720838
0.000933918
0.000958934
0.000753488
0.00054522
0.000712397
0.000950783
0.000807753
0.000836475
0.000569299
0.000603945
0.000628319
0.000580291
0.000777192
0.000692678
0.00055675
SCALARS mass double 1
LOOKUP_TABLE default
0.00327549
0.00478242
0.00458909
0.0023191
0.00516383
0.00805935
0.00838365
0.00529932
0.00658136
0.00440747
0.00739829
0.00779994
0.00481578
0.00252149
0.00430484
0.0076679
0.0055344
0.00593499
0.00274913
0.00309392
0.00334869
0.00285631
0.00512354
0.00406984
0.00262926
