# vtk DataFile Version 3.0
DEM2D particles
ASCII
DATASET POLYDATA
POINTS 25 double
0.000436511 0.000244452 0
0.00259373 3.24775e-05 0
0.00503527 0.000823768 0
0.0075525 -0.000624819 0
0.00982669 -0.000466882 0
0.00134532 0.00240824 0
0.00385427 0.00189669 0
0.0049179 0.00100618 0
0.00662312 0.00264232 0
0.00923317 0.00195614 0
0.000767124 0.00414373 0
0.0037611 0.00303628 0
0.00456232 0.00422246 0
0.00622589 0.00444068 0
0.00871364 0.00368999 0
0.00180206 0.00585552 0
0.00309208 0.00515866 0
0.0055426 0.00559865 0
0.00726105 0.00674151 0
0.00950038 0.0065465 0
0.000727257 0.00772994 0
0.00319925 0.00708024 0
0.00427968 0.00815132 0
0.00693409 0.00759041 0
0.00824173 0.00801787 0
VERTICES 25 50
1 0
1 1
1 2
1 3
1 4
1 5
1 6
1 7
1 8
1 9
1 10
1 11
1 12
1 13
1 14
1 15
1 16
1 17
1 18
1 19
1 20
1 21
1 22
1 23
1 24
POINT_DATA 25
VECTORS velocity double
-2.66157e-52 -0.00970858 0
-1.91898e-52 -0.00970858 0
1.66587e-53 -0.00970858 0
2.60969e-52 -0.00970858 0
3.9048e-52 -0.00970858 0
1.63108e-52 -0.00970858 0
4.03503e-52 -0.00970858 0
-3.87784e-53 -0.00970858 0
-1.78015e-52 -0.00970858 0
1.10135e-52 -0.00970858 0
-1.09996e-52 -0.00970858 0
3.59498e-52 -0.00970858 0
-2.06734e-52 -0.00970858 0
-3.65642e-52 -0.00970858 0
-1.35259e-52 -0.00970858 0
3.78842e-52 -0.00970858 0
4.34915e-53 -0.00970858 0
2.56292e-52 -0.00970858 0
1.23303e-52 -0.00970858 0
2.3635e-52 -0.00970858 0
-1.28827e-52 -0.00970858 0
9.41134e-53 -0.00970858 0
-3.40233e-52 -0.00970858 0
-3.11309e-53 -0.00970858 0
-3.58158e-52 -0.00970858 0
SCALARS radius double 1
LOOKUP_TABLE default
0.000621415
0.000750874
0.000735541
0.000522882
0.000780242
0.00097475
0.000994168
0.000790412
0.000880848
0.000720838
0.000933918
0.000958934
0.000753488
0.00054522
0.000712397
0.000950783
0.000807753
0.000836475
0.000569299
0.000603945
0.000628319
0.000580291
0.000777192
0.000692678
0.00055675
SCALARS mass double 1
LOOKUP_TABLE default
0.00327549
0.00478242
0.00458909
0.0023191
0.00516383
0.00805935
0.00838365
0.00529932
0.00658136
0.00440747
0.00739829
0.00779994
0.00481578
0.00252149
0.00430484
0.0076679
0.0055344
0.00593499
0.00274913
0.00309392
0.00334869
0.00285631
0.00512354
0.00406984
0.00262926
