# vtk DataFile Version 3.0
DEM2D particles
ASCII
DATASET POLYDATA
POINTS 25 double
0.000436511 0.000646387 0
0.00259373 0.000434413 0
0.00503527 0.0012257 0
0.0075525 -0.000222884 0
0.00982669 -6.49466e-05 0
0.00134532 0.00281017 0
0.00385427 0.00229862 0
0.0049179 0.00140812 0
0.00662312 0.00304426 0
0.00923317 0.00235807 0
0.000767124 0.00454566 0
0.0037611 0.00343822 0
0.00456232 0.0046244 0
0.00622589 0.00484262 0
0.00871364 0.00409192 0
0.00180206 0.00625745 0
0.00309208 0.00556059 0
0.0055426 0.00600059 0
0.00726105 0.00714345 0
0.00950038 0.00694844 0
0.000727257 0.00813188 0
0.00319925 0.00748218 0
0.00427968 0.00855326 0
0.00693409 0.00799235 0
0.00824173 0.00841981 0
VERTICES 25 50
1 0
1 1
1 2
1 3
1 4
1 5
1 6
1 7
1 8
1 9
1 10
1 11
1 12
1 13
1 14
1 15
1 16
1 17
1 18
1 19
1 20
1 21
1 22
1 23
1 24
POINT_DATA 25
VECTORS velocity double
-3.1292e-34 -0.00970858 0
-2.25613e-34 -0.00970858 0
1.95856e-35 -0.00970858 0
3.06819e-34 -0.00970858 0
4.59084e-34 -0.00970858 0
1.91766e-34 -0.00970858 0
4.74396e-34 -0.00970858 0
-4.55916e-35 -0.00970858 0
-2.09291e-34 -0.00970858 0
1.29485e-34 -0.00970858 0
-1.29322e-34 -0.00970858 0
4.2266e-34 -0.00970858 0
-2.43057e-34 -0.00970858 0
-4.29883e-34 -0.00970858 0
-1.59023e-34 -0.00970858 0
4.45403e-34 -0.00970858 0
5.11327e-35 -0.00970858 0
3.0132e-34 -0.00970858 0
1.44966e-34 -0.00970858 0
2.77875e-34 -0.00970858 0
-1.51461e-34 -0.00970858 0
1.10649e-34 -0.00970858 0
-4.0001e-34 -0.00970858 0
-3.66005e-35 -0.00970858 0
-4.21084e-34 -0.00970858 0
SCALARS radius double 1
LOOKUP_TABLE default
0.000621415
0.000750874
0.000735541
0.000522882
0.000780242
0.00097475
0.000994168
0.000790412
0.000880848
0.000720838
0.000933918
0.000958934
0.000753488
0.00054522
0.000712397
0.000950783
0.000807753
0.000836475
0.000569299
0.000603945
0.000628319
0.000580291
0.000777192
0.000692678
0.00055675
SCALARS mass double 1
LOOKUP_TABLE default
0.00327549
0.00478242
0.00458909
0.0023191
0.00516383
0.00805935
0.00838365
0.00529932
0.00658136
0.00440747
0.00739829
0.00779994
0.00481578
0.00252149
0.00430484
0.0076679
0.0055344
0.00593499
0.00274913
0.00309392
0.00334869
0.00285631
0.00512354
0.00406984
0.00262926
