# vtk DataFile Version 3.0
DEM2D particles
ASCII
DATASET POLYDATA
POINTS 25 double
0.000436511 -0.00033418 0
0.00259373 -0.000546154 0
0.00503527 0.000245137 0
0.0075525 -0.00120345 0
0.00982669 -0.00104551 0
0.00134532 0.00182961 0
0.00385427 0.00131806 0
0.0049179 0.000427552 0
0.00662312 0.00206369 0
0.00923317 0.00137751 0
0.000767124 0.00356509 0
0.0037611 0.00245765 0
0.00456232 0.00364383 0
0.00622589 0.00386205 0
0.00871364 0.00311136 0
0.00180206 0.00527689 0
0.00309208 0.00458003 0
0.0055426 0.00502002 0
0.00726105 0.00616288 0
0.00950038 0.00596787 0
0.000727257 0.00715131 0
0.00319925 0.00650161 0
0.00427968 0.00757269 0
0.00693409 0.00701178 0
0.00824173 0.00743924 0
VERTICES 25 50
1 0
1 1
1 2
1 3
1 4
1 5
1 6
1 7
1 8
1 9
1 10
1 11
1 12
1 13
1 14
1 15
1 16
1 17
1 18
1 19
1 20
1 21
1 22
1 23
1 24
POINT_DATA 25
VECTORS velocity double
-2.57572e-78 -0.00970858 0
-1.85707e-78 -0.00970858 0
1.61214e-79 -0.00970858 0
2.5255e-78 -0.00970858 0
3.77884e-78 -0.00970858 0
1.57847e-78 -0.00970858 0
3.90487e-78 -0.00970858 0
-3.75275e-79 -0.00970858 0
-1.72272e-78 -0.00970858 0
1.06582e-78 -0.00970858 0
-1.06448e-78 -0.00970858 0
3.47901e-78 -0.00970858 0
-2.00066e-78 -0.00970858 0
-3.53848e-78 -0.00970858 0
-1.30896e-78 -0.00970858 0
3.66622e-78 -0.00970858 0
4.20885e-79 -0.00970858 0
2.48024e-78 -0.00970858 0
1.19325e-78 -0.00970858 0
2.28726e-78 -0.00970858 0
-1.24671e-78 -0.00970858 0
9.10775e-79 -0.00970858 0
-3.29258e-78 -0.00970858 0
-3.01267e-79 -0.00970858 0
-3.46604e-78 -0.00970858 0
SCALARS radius double 1
LOOKUP_TABLE default
0.000621415
0.000750874
0.000735541
0.000522882
0.000780242
0.00097475
0.000994168
0.000790412
0.000880848
0.000720838
0.000933918
0.000958934
0.000753488
0.00054522
0.000712397
0.000950783
0.000807753
0.000836475
0.000569299
0.000603945
0.000628319
0.000580291
0.000777192
0.000692678
0.00055675
SCALARS mass double 1
LOOKUP_TABLE default
0.00327549
0.00478242
0.00458909
0.0023191
0.00516383
0.00805935
0.00838365
0.00529932
0.00658136
0.00440747
0.00739829
0.00779994
0.00481578
0.00252149
0.00430484
0.0076679
0.0055344
0.00593499
0.00274913
0.00309392
0.00334869
0.00285631
0.00512354
0.00406984
0.00262926
