# vtk DataFile Version 3.0
DEM2D particles
ASCII
DATASET POLYDATA
POINTS 25 double
0.000436511 0.000902694 0
0.00259373 0.000690719 0
0.00503527 0.00148201 0
0.0075525 3.3423e-05 0
0.00982669 0.00019136 0
0.00134532 0.00306648 0
0.00385427 0.00255493 0
0.0049179 0.00166443 0
0.00662312 0.00330056 0
0.00923317 0.00261438 0
0.000767124 0.00480197 0
0.0037611 0.00369453 0
0.00456232 0.0048807 0
0.00622589 0.00509893 0
0.00871364 0.00434823 0
0.00180206 0.00651376 0
0.00309208 0.0058169 0
0.0055426 0.00625689 0
0.00726105 0.00739976 0
0.00950038 0.00720474 0
0.000727257 0.00838818 0
0.00319925 0.00773849 0
0.00427968 0.00880956 0
0.00693409 0.00824865 0
0.00824173 0.00867611 0
VERTICES 25 50
1 0
1 1
1 2
1 3
1 4
1 5
1 6
1 7
1 8
1 9
1 10
1 11
1 12
1 13
1 14
1 15
1 16
1 17
1 18
1 19
1 20
1 21
1 22
1 23
1 24
POINT_DATA 25
VECTORS velocity double
-1.04356e-22 -0.00970858 0
-7.52402e-23 -0.00970858 0
6.53165e-24 -0.00970858 0
1.02322e-22 -0.00970858 0
1.53101e-22 -0.00970858 0
6.39524e-23 -0.00970858 0
1.58208e-22 -0.00970858 0
-1.52045e-23 -0.00970858 0
-6.97969e-23 -0.00970858 0
4.31823e-23 -0.00970858 0
-4.31279e-23 -0.00970858 0
1.40954e-22 -0.00970858 0
-8.10576e-23 -0.00970858 0
-1.43363e-22 -0.00970858 0
-5.30332e-23 -0.00970858 0
1.48538e-22 -0.00970858 0
1.70524e-23 -0.00970858 0
1.00488e-22 -0.00970858 0
4.83452e-23 -0.00970858 0
9.26694e-23 -0.00970858 0
-5.05112e-23 -0.00970858 0
3.69005e-23 -0.00970858 0
-1.334e-22 -0.00970858 0
-1.2206e-23 -0.00970858 0
-1.40428e-22 -0.00970858 0
SCALARS radius double 1
LOOKUP_TABLE default
0.000621415
0.000750874
0.000735541
0.000522882
0.000780242
0.00097475
0.000994168
0.000790412
0.000880848
0.000720838
0.000933918
0.000958934
0.000753488
0.00054522
0.000712397
0.000950783
0.000807753
0.000836475
0.000569299
0.000603945
0.000628319
0.000580291
0.000777192
0.000692678
0.00055675
SCALARS mass double 1
LOOKUP_TABLE default
0.00327549
0.00478242
0.00458909
0.0023191
0.00516383
0.00805935
0.00838365
0.00529932
0.00658136
0.00440747
0.00739829
0.00779994
0.00481578
0.00252149
0.00430484
0.0076679
0.0055344
0.00593499
0.00274913
0.00309392
0.00334869
0.00285631
0.00512354
0.00406984
0.00262926
