# vtk DataFile Version 3.0
DEM2D particles
ASCII
DATASET POLYDATA
POINTS 25 double
0.000436511 3.6688e-05 0
0.00259373 -0.000175286 0
0.00503527 0.000616004 0
0.0075525 -0.000832583 0
0.00982669 -0.000674646 0
0.00134532 0.00220047 0
0.00385427 0.00168892 0
0.0049179 0.00079842 0
0.00662312 0.00243456 0
0.00923317 0.00174837 0
0.000767124 0.00393596 0
0.0037611 0.00282852 0
0.00456232 0.0040147 0
0.00622589 0.00423292 0
0.00871364 0.00348222 0
0.00180206 0.00564776 0
0.00309208 0.00495089 0
0.0055426 0.00539089 0
0.00726105 0.00653375 0
0.00950038 0.00633874 0
0.000727257 0.00752218 0
0.00319925 0.00687248 0
0.00427968 0.00794356 0
0.00693409 0.00738265 0
0.00824173 0.00781011 0
VERTICES 25 50
1 0
1 1
1 2
1 3
1 4
1 5
1 6
1 7
1 8
1 9
1 10
1 11
1 12
1 13
1 14
1 15
1 16
1 17
1 18
1 19
1 20
1 21
1 22
1 23
1 24
POINT_DATA 25
VECTORS velocity double
-1.21466e-61 -0.00970858 0
-8.75762e-62 -0.00970858 0
7.60254e-63 -0.00970858 0
1.19098e-61 -0.00970858 0
1.78203e-61 -0.00970858 0
7.44376e-62 -0.00970858 0
1.84146e-61 -0.00970858 0
-1.76973e-62 -0.00970858 0
-8.12404e-62 -0.00970858 0
5.02622e-62 -0.00970858 0
-5.01989e-62 -0.00970858 0
1.64064e-61 -0.00970858 0
-9.43473e-62 -0.00970858 0
-1.66868e-61 -0.00970858 0
-6.17282e-62 -0.00970858 0
1.72892e-61 -0.00970858 0
1.98482e-62 -0.00970858 0
1.16964e-61 -0.00970858 0
5.62716e-62 -0.00970858 0
1.07863e-61 -0.00970858 0
-5.87927e-62 -0.00970858 0
4.29505e-62 -0.00970858 0
-1.55272e-61 -0.00970858 0
-1.42072e-62 -0.00970858 0
-1.63452e-61 -0.00970858 0
SCALARS radius double 1
LOOKUP_TABLE default
0.000621415
0.000750874
0.000735541
0.000522882
0.000780242
0.00097475
0.000994168
0.000790412
0.000880848
0.000720838
0.000933918
0.000958934
0.000753488
0.00054522
0.000712397
0.000950783
0.000807753
0.000836475
0.000569299
0.000603945
0.000628319
0.000580291
0.000777192
0.000692678
0.00055675
SCALARS mass double 1
LOOKUP_TABLE default
0.00327549
0.00478242
0.00458909
0.0023191
0.00516383
0.00805935
0.00838365
0.00529932
0.00658136
0.00440747
0.00739829
0.00779994
0.00481578
0.00252149
0.00430484
0.0076679
0.0055344
0.00593499
0.00274913
0.00309392
0.00334869
0.00285631
0.00512354
0.00406984
0.00262926
