# vtk DataFile Version 3.0
DEM2D particles
ASCII
DATASET POLYDATA
POINTS 25 double
0.000436511 1.73706e-06 0
0.00259373 -0.000210237 0
0.00503527 0.000581054 0
0.0075525 -0.000867534 0
0.00982669 -0.000709597 0
0.00134532 0.00216552 0
0.00385427 0.00165397 0
0.0049179 0.000763469 0
0.00662312 0.00239961 0
0.00923317 0.00171342 0
0.000767124 0.00390101 0
0.0037611 0.00279357 0
0.00456232 0.00397975 0
0.00622589 0.00419797 0
0.00871364 0.00344727 0
0.00180206 0.0056128 0
0.00309208 0.00491594 0
0.0055426 0.00535594 0
0.00726105 0.0064988 0
0.00950038 0.00630379 0
0.000727257 0.00748723 0
0.00319925 0.00683753 0
0.00427968 0.00790861 0
0.00693409 0.0073477 0
0.00824173 0.00777516 0
VERTICES 25 50
1 0
1 1
1 2
1 3
1 4
1 5
1 6
1 7
1 8
1 9
1 10
1 11
1 12
1 13
1 14
1 15
1 16
1 17
1 18
1 19
1 20
1 21
1 22
1 23
1 24
POINT_DATA 25
VECTORS velocity double
-3.25931e-63 -0.00970858 0
-2.34994e-63 -0.00970858 0
2.03999e-64 -0.00970858 0
3.19576e-63 -0.00970858 0
4.78173e-63 -0.00970858 0
1.99739e-63 -0.00970858 0
4.94121e-63 -0.00970858 0
-4.74872e-64 -0.00970858 0
-2.17993e-63 -0.00970858 0
1.34869e-63 -0.00970858 0
-1.34699e-63 -0.00970858 0
4.40233e-63 -0.00970858 0
-2.53163e-63 -0.00970858 0
-4.47757e-63 -0.00970858 0
-1.65635e-63 -0.00970858 0
4.63922e-63 -0.00970858 0
5.32587e-64 -0.00970858 0
3.13849e-63 -0.00970858 0
1.50994e-63 -0.00970858 0
2.89429e-63 -0.00970858 0
-1.57759e-63 -0.00970858 0
1.15249e-63 -0.00970858 0
-4.16642e-63 -0.00970858 0
-3.81223e-64 -0.00970858 0
-4.38592e-63 -0.00970858 0
SCALARS radius double 1
LOOKUP_TABLE default
0.000621415
0.000750874
0.000735541
0.000522882
0.000780242
0.00097475
0.000994168
0.000790412
0.000880848
0.000720838
0.000933918
0.000958934
0.000753488
0.00054522
0.000712397
0.000950783
0.000807753
0.000836475
0.000569299
0.000603945
0.000628319
0.000580291
0.000777192
0.000692678
0.00055675
SCALARS mass double 1
LOOKUP_TABLE default
0.00327549
0.00478242
0.00458909
0.0023191
0.00516383
0.00805935
0.00838365
0.00529932
0.00658136
0.00440747
0.00739829
0.00779994
0.00481578
0.00252149
0.00430484
0.0076679
0.0055344
0.00593499
0.00274913
0.00309392
0.00334869
0.00285631
0.00512354
0.00406984
0.00262926
