# vtk DataFile Version 3.0
DEM2D particles
ASCII
DATASET POLYDATA
POINTS 25 double
0.000436511 0.000879393 0
0.00259373 0.000667419 0
0.00503527 0.00145871 0
0.0075525 1.01224e-05 0
0.00982669 0.000168059 0
0.00134532 0.00304318 0
0.00385427 0.00253163 0
0.0049179 0.00164112 0
0.00662312 0.00327726 0
0.00923317 0.00259108 0
0.000767124 0.00477867 0
0.0037611 0.00367123 0
0.00456232 0.0048574 0
0.00622589 0.00507563 0
0.00871364 0.00432493 0
0.00180206 0.00649046 0
0.00309208 0.0057936 0
0.0055426 0.00623359 0
0.00726105 0.00737645 0
0.00950038 0.00718144 0
0.000727257 0.00836488 0
0.00319925 0.00771519 0
0.00427968 0.00878626 0
0.00693409 0.00822535 0
0.00824173 0.00865281 0
VERTICES 25 50
1 0
1 1
1 2
1 3
1 4
1 5
1 6
1 7
1 8
1 9
1 10
1 11
1 12
1 13
1 14
1 15
1 16
1 17
1 18
1 19
1 20
1 21
1 22
1 23
1 24
POINT_DATA 25
VECTORS velocity double
-9.35333e-24 -0.00970858 0
-6.74368e-24 -0.00970858 0
5.85423e-25 -0.00970858 0
9.17098e-24 -0.00970858 0
1.37223e-23 -0.00970858 0
5.73196e-24 -0.00970858 0
1.41799e-23 -0.00970858 0
-1.36275e-24 -0.00970858 0
-6.2558e-24 -0.00970858 0
3.87037e-24 -0.00970858 0
-3.86549e-24 -0.00970858 0
1.26335e-23 -0.00970858 0
-7.26508e-24 -0.00970858 0
-1.28494e-23 -0.00970858 0
-4.75329e-24 -0.00970858 0
1.33133e-23 -0.00970858 0
1.52838e-24 -0.00970858 0
9.00662e-24 -0.00970858 0
4.33311e-24 -0.00970858 0
8.30583e-24 -0.00970858 0
-4.52725e-24 -0.00970858 0
3.30734e-24 -0.00970858 0
-1.19565e-23 -0.00970858 0
-1.09401e-24 -0.00970858 0
-1.25864e-23 -0.00970858 0
SCALARS radius double 1
LOOKUP_TABLE default
0.000621415
0.000750874
0.000735541
0.000522882
0.000780242
0.00097475
0.000994168
0.000790412
0.000880848
0.000720838
0.000933918
0.000958934
0.000753488
0.00054522
0.000712397
0.000950783
0.000807753
0.000836475
0.000569299
0.000603945
0.000628319
0.000580291
0.000777192
0.000692678
0.00055675
SCALARS mass double 1
LOOKUP_TABLE default
0.00327549
0.00478242
0.00458909
0.0023191
0.00516383
0.00805935
0.00838365
0.00529932
0.00658136
0.00440747
0.00739829
0.00779994
0.00481578
0.00252149
0.00430484
0.0076679
0.0055344
0.00593499
0.00274913
0.00309392
0.00334869
0.00285631
0.00512354
0.00406984
0.00262926
