# vtk DataFile Version 3.0
DEM2D particles
ASCII
DATASET POLYDATA
POINTS 25 double
0.000436511 -0.000128358 0
0.00259373 -0.000340332 0
0.00503527 0.000450958 0
0.0075525 -0.000997629 0
0.00982669 -0.000839692 0
0.00134532 0.00203543 0
0.00385427 0.00152388 0
0.0049179 0.000633374 0
0.00662312 0.00226951 0
0.00923317 0.00158333 0
0.000767124 0.00377092 0
0.0037611 0.00266347 0
0.00456232 0.00384965 0
0.00622589 0.00406788 0
0.00871364 0.00331718 0
0.00180206 0.00548271 0
0.00309208 0.00478585 0
0.0055426 0.00522584 0
0.00726105 0.0063687 0
0.00950038 0.00617369 0
0.000727257 0.00735713 0
0.00319925 0.00670743 0
0.00427968 0.00777851 0
0.00693409 0.0072176 0
0.00824173 0.00764506 0
VERTICES 25 50
1 0
1 1
1 2
1 3
1 4
1 5
1 6
1 7
1 8
1 9
1 10
1 11
1 12
1 13
1 14
1 15
1 16
1 17
1 18
1 19
1 20
1 21
1 22
1 23
1 24
POINT_DATA 25
VECTORS velocity double
-4.61621e-69 -0.00970858 0
-3.32826e-69 -0.00970858 0
2.88928e-70 -0.00970858 0
4.52622e-69 -0.00970858 0
6.77245e-69 -0.00970858 0
2.82894e-69 -0.00970858 0
6.99832e-69 -0.00970858 0
-6.7257e-70 -0.00970858 0
-3.08747e-69 -0.00970858 0
1.91017e-69 -0.00970858 0
-1.90776e-69 -0.00970858 0
6.2351e-69 -0.00970858 0
-3.58559e-69 -0.00970858 0
-6.34167e-69 -0.00970858 0
-2.34593e-69 -0.00970858 0
6.57061e-69 -0.00970858 0
7.54312e-70 -0.00970858 0
4.4451e-69 -0.00970858 0
2.13855e-69 -0.00970858 0
4.09924e-69 -0.00970858 0
-2.23437e-69 -0.00970858 0
1.6323e-69 -0.00970858 0
-5.90098e-69 -0.00970858 0
-5.39932e-70 -0.00970858 0
-6.21186e-69 -0.00970858 0
SCALARS radius double 1
LOOKUP_TABLE default
0.000621415
0.000750874
0.000735541
0.000522882
0.000780242
0.00097475
0.000994168
0.000790412
0.000880848
0.000720838
0.000933918
0.000958934
0.000753488
0.00054522
0.000712397
0.000950783
0.000807753
0.000836475
0.000569299
0.000603945
0.000628319
0.000580291
0.000777192
0.000692678
0.00055675
SCALARS mass double 1
LOOKUP_TABLE default
0.00327549
0.00478242
0.00458909
0.0023191
0.00516383
0.00805935
0.00838365
0.00529932
0.00658136
0.00440747
0.00739829
0.00779994
0.00481578
0.00252149
0.00430484
0.0076679
0.0055344
0.00593499
0.00274913
0.00309392
0.00334869
0.00285631
0.00512354
0.00406984
0.00262926
