# vtk DataFile Version 3.0
DEM2D particles
ASCII
DATASET POLYDATA
POINTS 25 double
0.000436511 0.000856092 0
0.00259373 0.000644118 0
0.00503527 0.00143541 0
0.0075525 -1.31782e-05 0
0.00982669 0.000144759 0
0.00134532 0.00301988 0
0.00385427 0.00250833 0
0.0049179 0.00161782 0
0.00662312 0.00325396 0
0.00923317 0.00256778 0
0.000767124 0.00475537 0
0.0037611 0.00364793 0
0.00456232 0.0048341 0
0.00622589 0.00505233 0
0.00871364 0.00430163 0
0.00180206 0.00646716 0
0.00309208 0.0057703 0
0.0055426 0.00621029 0
0.00726105 0.00735315 0
0.00950038 0.00715814 0
0.000727257 0.00834158 0
0.00319925 0.00769188 0
0.00427968 0.00876296 0
0.00693409 0.00820205 0
0.00824173 0.00862951 0
VERTICES 25 50
1 0
1 1
1 2
1 3
1 4
1 5
1 6
1 7
1 8
1 9
1 10
1 11
1 12
1 13
1 14
1 15
1 16
1 17
1 18
1 19
1 20
1 21
1 22
1 23
1 24
POINT_DATA 25
VECTORS velocity double
-8.38326e-25 -0.00970858 0
-6.04426e-25 -0.00970858 0
5.24706e-26 -0.00970858 0
8.21982e-25 -0.00970858 0
1.22991e-24 -0.00970858 0
5.13748e-25 -0.00970858 0
1.27093e-24 -0.00970858 0
-1.22142e-25 -0.00970858 0
-5.60699e-25 -0.00970858 0
3.46896e-25 -0.00970858 0
-3.46459e-25 -0.00970858 0
1.13232e-24 -0.00970858 0
-6.51159e-25 -0.00970858 0
-1.15168e-24 -0.00970858 0
-4.26031e-25 -0.00970858 0
1.19325e-24 -0.00970858 0
1.36987e-25 -0.00970858 0
8.07251e-25 -0.00970858 0
3.88371e-25 -0.00970858 0
7.4444e-25 -0.00970858 0
-4.05771e-25 -0.00970858 0
2.96432e-25 -0.00970858 0
-1.07164e-24 -0.00970858 0
-9.80542e-26 -0.00970858 0
-1.1281e-24 -0.00970858 0
SCALARS radius double 1
LOOKUP_TABLE default
0.000621415
0.000750874
0.000735541
0.000522882
0.000780242
0.00097475
0.000994168
0.000790412
0.000880848
0.000720838
0.000933918
0.000958934
0.000753488
0.00054522
0.000712397
0.000950783
0.000807753
0.000836475
0.000569299
0.000603945
0.000628319
0.000580291
0.000777192
0.000692678
0.00055675
SCALARS mass double 1
LOOKUP_TABLE default
0.00327549
0.00478242
0.00458909
0.0023191
0.00516383
0.00805935
0.00838365
0.00529932
0.00658136
0.00440747
0.00739829
0.00779994
0.00481578
0.00252149
0.00430484
0.0076679
0.0055344
0.00593499
0.00274913
0.00309392
0.00334869
0.00285631
0.00512354
0.00406984
0.00262926
