# vtk DataFile Version 3.0
DEM2D particles
ASCII
DATASET POLYDATA
POINTS 25 double
0.000436511 0.00121337 0
0.00259373 0.00100139 0
0.00503527 0.00179268 0
0.0075525 0.000344098 0
0.00982669 0.000502035 0
0.00134532 0.00337715 0
0.00385427 0.0028656 0
0.0049179 0.0019751 0
0.00662312 0.00361124 0
0.00923317 0.00292505 0
0.000767124 0.00511264 0
0.0037611 0.0040052 0
0.00456232 0.00519138 0
0.00622589 0.0054096 0
0.00871364 0.00465891 0
0.00180206 0.00682444 0
0.00309208 0.00612757 0
0.0055426 0.00656757 0
0.00726105 0.00771043 0
0.00950038 0.00751542 0
0.000727257 0.00869886 0
0.00319925 0.00804916 0
0.00427968 0.00912024 0
0.00693409 0.00855933 0
0.00824173 0.00898679 0
VERTICES 25 50
1 0
1 1
1 2
1 3
1 4
1 5
1 6
1 7
1 8
1 9
1 10
1 11
1 12
1 13
1 14
1 15
1 16
1 17
1 18
1 19
1 20
1 21
1 22
1 23
1 24
POINT_DATA 25
VECTORS velocity double
-9.68047e-09 -0.00970858 0
-6.97955e-09 -0.00970858 0
6.05899e-10 -0.00970857 0
9.49175e-09 -0.00970859 0
1.42022e-08 -0.00970859 0
5.93245e-09 -0.00970857 0
1.46759e-08 -0.00970858 0
-1.41042e-09 -0.0097086 0
-6.47461e-09 -0.00970857 0
4.00574e-09 -0.00970858 0
-4.0007e-09 -0.00970858 0
1.30754e-08 -0.0097086 0
-7.51919e-09 -0.00970858 0
-1.32989e-08 -0.00970857 0
-4.91954e-09 -0.00970859 0
1.3779e-08 -0.00970858 0
1.58184e-09 -0.0097086 0
9.32164e-09 -0.00970859 0
4.48467e-09 -0.00970857 0
8.59634e-09 -0.00970857 0
-4.6856e-09 -0.00970859 0
3.42302e-09 -0.0097086 0
-1.23747e-08 -0.00970858 0
-1.13227e-09 -0.00970859 0
-1.30266e-08 -0.00970858 0
SCALARS radius double 1
LOOKUP_TABLE default
0.000621415
0.000750874
0.000735541
0.000522882
0.000780242
0.00097475
0.000994168
0.000790412
0.000880848
0.000720838
0.000933918
0.000958934
0.000753488
0.00054522
0.000712397
0.000950783
0.000807753
0.000836475
0.000569299
0.000603945
0.000628319
0.000580291
0.000777192
0.000692678
0.00055675
SCALARS mass double 1
LOOKUP_TABLE default
0.00327549
0.00478242
0.00458909
0.0023191
0.00516383
0.00805935
0.00838365
0.00529932
0.00658136
0.00440747
0.00739829
0.00779994
0.00481578
0.00252149
0.00430484
0.0076679
0.0055344
0.00593499
0.00274913
0.00309392
0.00334869
0.00285631
0.00512354
0.00406984
0.00262926
