# vtk DataFile Version 3.0
DEM2D particles
ASCII
DATASET POLYDATA
POINTS 25 double
0.000436511 -0.000376898 0
0.00259373 -0.000588872 0
0.00503527 0.000202419 0
0.0075525 -0.00124617 0
0.00982669 -0.00108823 0
0.00134532 0.00178689 0
0.00385427 0.00127534 0
0.0049179 0.000384834 0
0.00662312 0.00202097 0
0.00923317 0.00133479 0
0.000767124 0.00352238 0
0.0037611 0.00241494 0
0.00456232 0.00360111 0
0.00622589 0.00381934 0
0.00871364 0.00306864 0
0.00180206 0.00523417 0
0.00309208 0.00453731 0
0.0055426 0.0049773 0
0.00726105 0.00612016 0
0.00950038 0.00592515 0
0.000727257 0.00710859 0
0.00319925 0.00645889 0
0.00427968 0.00752997 0
0.00693409 0.00696906 0
0.00824173 0.00739652 0
VERTICES 25 50
1 0
1 1
1 2
1 3
1 4
1 5
1 6
1 7
1 8
1 9
1 10
1 11
1 12
1 13
1 14
1 15
1 16
1 17
1 18
1 19
1 20
1 21
1 22
1 23
1 24
POINT_DATA 25
VECTORS velocity double
-3.09303e-80 -0.00970858 0
-2.23005e-80 -0.00970858 0
1.93592e-81 -0.00970858 0
3.03273e-80 -0.00970858 0
4.53778e-80 -0.00970858 0
1.89549e-80 -0.00970858 0
4.68913e-80 -0.00970858 0
-4.50646e-81 -0.00970858 0
-2.06872e-80 -0.00970858 0
1.27988e-80 -0.00970858 0
-1.27827e-80 -0.00970858 0
4.17774e-80 -0.00970858 0
-2.40247e-80 -0.00970858 0
-4.24915e-80 -0.00970858 0
-1.57185e-80 -0.00970858 0
4.40254e-80 -0.00970858 0
5.05417e-81 -0.00970858 0
2.97838e-80 -0.00970858 0
1.43291e-80 -0.00970858 0
2.74664e-80 -0.00970858 0
-1.49711e-80 -0.00970858 0
1.0937e-80 -0.00970858 0
-3.95387e-80 -0.00970858 0
-3.61774e-81 -0.00970858 0
-4.16217e-80 -0.00970858 0
SCALARS radius double 1
LOOKUP_TABLE default
0.000621415
0.000750874
0.000735541
0.000522882
0.000780242
0.00097475
0.000994168
0.000790412
0.000880848
0.000720838
0.000933918
0.000958934
0.000753488
0.00054522
0.000712397
0.000950783
0.000807753
0.000836475
0.000569299
0.000603945
0.000628319
0.000580291
0.000777192
0.000692678
0.00055675
SCALARS mass double 1
LOOKUP_TABLE default
0.00327549
0.00478242
0.00458909
0.0023191
0.00516383
0.00805935
0.00838365
0.00529932
0.00658136
0.00440747
0.00739829
0.00779994
0.00481578
0.00252149
0.00430484
0.0076679
0.0055344
0.00593499
0.00274913
0.00309392
0.00334869
0.00285631
0.00512354
0.00406984
0.00262926
