# vtk DataFile Version 3.0
DEM2D particles
ASCII
DATASET POLYDATA
POINTS 25 double
0.000436511 0.00122308 0
0.00259373 0.0010111 0
0.00503527 0.00180239 0
0.0075525 0.000353806 0
0.00982669 0.000511743 0
0.00134532 0.00338686 0
0.00385427 0.00287531 0
0.0049179 0.00198481 0
0.00662312 0.00362095 0
0.00923317 0.00293476 0
0.000767124 0.00512235 0
0.0037611 0.00401491 0
0.00456232 0.00520109 0
0.00622589 0.00541931 0
0.00871364 0.00466861 0
0.00180206 0.00683414 0
0.00309208 0.00613728 0
0.0055426 0.00657728 0
0.00726105 0.00772014 0
0.00950038 0.00752513 0
0.000727257 0.00870857 0
0.00319925 0.00805887 0
0.00427968 0.00912995 0
0.00693409 0.00856904 0
0.00824173 0.0089965 0
VERTICES 25 50
1 0
1 1
1 2
1 3
1 4
1 5
1 6
1 7
1 8
1 9
1 10
1 11
1 12
1 13
1 14
1 15
1 16
1 17
1 18
1 19
1 20
1 21
1 22
1 23
1 24
POINT_DATA 25
VECTORS velocity double
-2.6447e-08 -0.00970857 0
-1.90681e-08 -0.00970858 0
1.65532e-09 -0.00970854 0
2.59314e-08 -0.00970861 0
3.88004e-08 -0.0097086 0
1.62074e-08 -0.00970856 0
4.00945e-08 -0.00970858 0
-3.85326e-09 -0.00970862 0
-1.76886e-08 -0.00970855 0
1.09437e-08 -0.00970858 0
-1.09299e-08 -0.00970857 0
3.57219e-08 -0.00970862 0
-2.05424e-08 -0.00970857 0
-3.63325e-08 -0.00970856 0
-1.34402e-08 -0.00970859 0
3.76441e-08 -0.00970858 0
4.32158e-09 -0.00970862 0
2.54667e-08 -0.0097086 0
1.22521e-08 -0.00970854 0
2.34852e-08 -0.00970855 0
-1.28011e-08 -0.00970859 0
9.35169e-09 -0.00970862 0
-3.38077e-08 -0.00970857 0
-3.09336e-09 -0.0097086 0
-3.55888e-08 -0.00970858 0
SCALARS radius double 1
LOOKUP_TABLE default
0.000621415
0.000750874
0.000735541
0.000522882
0.000780242
0.00097475
0.000994168
0.000790412
0.000880848
0.000720838
0.000933918
0.000958934
0.000753488
0.00054522
0.000712397
0.000950783
0.000807753
0.000836475
0.000569299
0.000603945
0.000628319
0.000580291
0.000777192
0.000692678
0.00055675
SCALARS mass double 1
LOOKUP_TABLE default
0.00327549
0.00478242
0.00458909
0.0023191
0.00516383
0.00805935
0.00838365
0.00529932
0.00658136
0.00440747
0.00739829
0.00779994
0.00481578
0.00252149
0.00430484
0.0076679
0.0055344
0.00593499
0.00274913
0.00309392
0.00334869
0.00285631
0.00512354
0.00406984
0.00262926
