# vtk DataFile Version 3.0
DEM2D particles
ASCII
DATASET POLYDATA
POINTS 25 double
0.000436511 -0.000192435 0
0.00259373 -0.000404409 0
0.00503527 0.000386882 0
0.0075525 -0.00106171 0
0.00982669 -0.000903768 0
0.00134532 0.00197135 0
0.00385427 0.0014598 0
0.0049179 0.000569297 0
0.00662312 0.00220544 0
0.00923317 0.00151925 0
0.000767124 0.00370684 0
0.0037611 0.0025994 0
0.00456232 0.00378557 0
0.00622589 0.0040038 0
0.00871364 0.0032531 0
0.00180206 0.00541863 0
0.00309208 0.00472177 0
0.0055426 0.00516176 0
0.00726105 0.00630463 0
0.00950038 0.00610961 0
0.000727257 0.00729306 0
0.00319925 0.00664336 0
0.00427968 0.00771443 0
0.00693409 0.00715353 0
0.00824173 0.00758099 0
VERTICES 25 50
1 0
1 1
1 2
1 3
1 4
1 5
1 6
1 7
1 8
1 9
1 10
1 11
1 12
1 13
1 14
1 15
1 16
1 17
1 18
1 19
1 20
1 21
1 22
1 23
1 24
POINT_DATA 25
VECTORS velocity double
-6.07455e-72 -0.00970858 0
-4.37971e-72 -0.00970858 0
3.80205e-73 -0.00970858 0
5.95613e-72 -0.00970858 0
8.91197e-72 -0.00970858 0
3.72265e-72 -0.00970858 0
9.2092e-72 -0.00970858 0
-8.85046e-73 -0.00970858 0
-4.06286e-72 -0.00970858 0
2.51362e-72 -0.00970858 0
-2.51046e-72 -0.00970858 0
8.20488e-72 -0.00970858 0
-4.71833e-72 -0.00970858 0
-8.34511e-72 -0.00970858 0
-3.08704e-72 -0.00970858 0
8.64637e-72 -0.00970858 0
9.92612e-73 -0.00970858 0
5.84938e-72 -0.00970858 0
2.81416e-72 -0.00970858 0
5.39426e-72 -0.00970858 0
-2.94024e-72 -0.00970858 0
2.14796e-72 -0.00970858 0
-7.7652e-72 -0.00970858 0
-7.10506e-73 -0.00970858 0
-8.17429e-72 -0.00970858 0
SCALARS radius double 1
LOOKUP_TABLE default
0.000621415
0.000750874
0.000735541
0.000522882
0.000780242
0.00097475
0.000994168
0.000790412
0.000880848
0.000720838
0.000933918
0.000958934
0.000753488
0.00054522
0.000712397
0.000950783
0.000807753
0.000836475
0.000569299
0.000603945
0.000628319
0.000580291
0.000777192
0.000692678
0.00055675
SCALARS mass double 1
LOOKUP_TABLE default
0.00327549
0.00478242
0.00458909
0.0023191
0.00516383
0.00805935
0.00838365
0.00529932
0.00658136
0.00440747
0.00739829
0.00779994
0.00481578
0.00252149
0.00430484
0.0076679
0.0055344
0.00593499
0.00274913
0.00309392
0.00334869
0.00285631
0.00512354
0.00406984
0.00262926
