# vtk DataFile Version 3.0
DEM2D particles
ASCII
DATASET POLYDATA
POINTS 25 double
0.000436511 0.000656096 0
0.00259373 0.000444121 0
0.00503527 0.00123541 0
0.0075525 -0.000213175 0
0.00982669 -5.5238e-05 0
0.00134532 0.00281988 0
0.00385427 0.00230833 0
0.0049179 0.00141783 0
0.00662312 0.00305397 0
0.00923317 0.00236778 0
0.000767124 0.00455537 0
0.0037611 0.00344793 0
0.00456232 0.0046341 0
0.00622589 0.00485233 0
0.00871364 0.00410163 0
0.00180206 0.00626716 0
0.00309208 0.0055703 0
0.0055426 0.0060103 0
0.00726105 0.00715316 0
0.00950038 0.00695814 0
0.000727257 0.00814159 0
0.00319925 0.00749189 0
0.00427968 0.00856296 0
0.00693409 0.00800206 0
0.00824173 0.00842952 0
VERTICES 25 50
1 0
1 1
1 2
1 3
1 4
1 5
1 6
1 7
1 8
1 9
1 10
1 11
1 12
1 13
1 14
1 15
1 16
1 17
1 18
1 19
1 20
1 21
1 22
1 23
1 24
POINT_DATA 25
VECTORS velocity double
-8.54897e-34 -0.00970858 0
-6.16374e-34 -0.00970858 0
5.35078e-35 -0.00970858 0
8.3823e-34 -0.00970858 0
1.25422e-33 -0.00970858 0
5.23903e-34 -0.00970858 0
1.29605e-33 -0.00970858 0
-1.24556e-34 -0.00970858 0
-5.71782e-34 -0.00970858 0
3.53753e-34 -0.00970858 0
-3.53307e-34 -0.00970858 0
1.15471e-33 -0.00970858 0
-6.6403e-34 -0.00970858 0
-1.17444e-33 -0.00970858 0
-4.34452e-34 -0.00970858 0
1.21684e-33 -0.00970858 0
1.39694e-34 -0.00970858 0
8.23207e-34 -0.00970858 0
3.96048e-34 -0.00970858 0
7.59155e-34 -0.00970858 0
-4.13792e-34 -0.00970858 0
3.02292e-34 -0.00970858 0
-1.09283e-33 -0.00970858 0
-9.99924e-35 -0.00970858 0
-1.1504e-33 -0.00970858 0
SCALARS radius double 1
LOOKUP_TABLE default
0.000621415
0.000750874
0.000735541
0.000522882
0.000780242
0.00097475
0.000994168
0.000790412
0.000880848
0.000720838
0.000933918
0.000958934
0.000753488
0.00054522
0.000712397
0.000950783
0.000807753
0.000836475
0.000569299
0.000603945
0.000628319
0.000580291
0.000777192
0.000692678
0.00055675
SCALARS mass double 1
LOOKUP_TABLE default
0.00327549
0.00478242
0.00458909
0.0023191
0.00516383
0.00805935
0.00838365
0.00529932
0.00658136
0.00440747
0.00739829
0.00779994
0.00481578
0.00252149
0.00430484
0.0076679
0.0055344
0.00593499
0.00274913
0.00309392
0.00334869
0.00285631
0.00512354
0.00406984
0.00262926
