# vtk DataFile Version 3.0
DEM2D particles
ASCII
DATASET POLYDATA
POINTS 25 double
0.000436511 0.00068328 0
0.00259373 0.000471306 0
0.00503527 0.0012626 0
0.0075525 -0.000185991 0
0.00982669 -2.8054e-05 0
0.00134532 0.00284707 0
0.00385427 0.00233551 0
0.0049179 0.00144501 0
0.00662312 0.00308115 0
0.00923317 0.00239496 0
0.000767124 0.00458255 0
0.0037611 0.00347511 0
0.00456232 0.00466129 0
0.00622589 0.00487951 0
0.00871364 0.00412882 0
0.00180206 0.00629435 0
0.00309208 0.00559749 0
0.0055426 0.00603748 0
0.00726105 0.00718034 0
0.00950038 0.00698533 0
0.000727257 0.00816877 0
0.00319925 0.00751907 0
0.00427968 0.00859015 0
0.00693409 0.00802924 0
0.00824173 0.0084567 0
VERTICES 25 50
1 0
1 1
1 2
1 3
1 4
1 5
1 6
1 7
1 8
1 9
1 10
1 11
1 12
1 13
1 14
1 15
1 16
1 17
1 18
1 19
1 20
1 21
1 22
1 23
1 24
POINT_DATA 25
VECTORS velocity double
-1.4258e-32 -0.00970858 0
-1.02799e-32 -0.00970858 0
8.92406e-34 -0.00970858 0
1.398e-32 -0.00970858 0
2.09179e-32 -0.00970858 0
8.73769e-33 -0.00970858 0
2.16156e-32 -0.00970858 0
-2.07735e-33 -0.00970858 0
-9.53622e-33 -0.00970858 0
5.89991e-33 -0.00970858 0
-5.89248e-33 -0.00970858 0
1.92583e-32 -0.00970858 0
-1.10747e-32 -0.00970858 0
-1.95874e-32 -0.00970858 0
-7.24582e-33 -0.00970858 0
2.02945e-32 -0.00970858 0
2.32983e-33 -0.00970858 0
1.37295e-32 -0.00970858 0
6.60531e-33 -0.00970858 0
1.26612e-32 -0.00970858 0
-6.90125e-33 -0.00970858 0
5.04164e-33 -0.00970858 0
-1.82262e-32 -0.00970858 0
-1.66768e-33 -0.00970858 0
-1.91865e-32 -0.00970858 0
SCALARS radius double 1
LOOKUP_TABLE default
0.000621415
0.000750874
0.000735541
0.000522882
0.000780242
0.00097475
0.000994168
0.000790412
0.000880848
0.000720838
0.000933918
0.000958934
0.000753488
0.00054522
0.000712397
0.000950783
0.000807753
0.000836475
0.000569299
0.000603945
0.000628319
0.000580291
0.000777192
0.000692678
0.00055675
SCALARS mass double 1
LOOKUP_TABLE default
0.00327549
0.00478242
0.00458909
0.0023191
0.00516383
0.00805935
0.00838365
0.00529932
0.00658136
0.00440747
0.00739829
0.00779994
0.00481578
0.00252149
0.00430484
0.0076679
0.0055344
0.00593499
0.00274913
0.00309392
0.00334869
0.00285631
0.00512354
0.00406984
0.00262926
