# vtk DataFile Version 3.0
DEM2D particles
ASCII
DATASET POLYDATA
POINTS 25 double
0.000443278 0.00133883 0
0.00259861 0.0011294 0
0.00503485 0.00191119 0
0.00754587 0.000479994 0
0.00981677 0.000636034 0
0.00134117 0.00350065 0
0.00384401 0.00299524 0
0.00491889 0.00211543 0
0.00662765 0.00373192 0
0.00923037 0.00305397 0
0.000769921 0.00523931 0
0.00375196 0.00414517 0
0.00456757 0.0053171 0
0.00623519 0.0055327 0
0.00871708 0.00479102 0
0.00179243 0.00695456 0
0.00309097 0.00626607 0
0.00553609 0.00670078 0
0.00725791 0.00782992 0
0.00949437 0.00763725 0
0.000730532 0.0088305 0
0.00319686 0.0081886 0
0.00428833 0.00924681 0
0.00693488 0.00869264 0
0.00825084 0.00911497 0
VERTICES 25 50
1 0
1 1
1 2
1 3
1 4
1 5
1 6
1 7
1 8
1 9
1 10
1 11
1 12
1 13
1 14
1 15
1 16
1 17
1 18
1 19
1 20
1 21
1 22
1 23
1 24
POINT_DATA 25
VECTORS velocity double
-0.00683496 -0.00502432 0
-0.00492795 -0.0075955 0
0.000427799 0.00200262 0
0.00670171 -0.0155683 0
0.0100276 -0.0136526 0
0.00418864 -0.00303764 0
0.010362 -0.00924261 0
-0.000995835 -0.0200442 0
-0.00457144 -0.00019827 0
0.00282828 -0.00852149 0
-0.00282472 -0.00624609 0
0.00923195 -0.019679 0
-0.00530897 -0.00529106 0
-0.00938974 -0.00264407 0
-0.00347347 -0.0117498 0
0.00972871 -0.00974196 0
0.00111687 -0.0181947 0
0.0065816 -0.0128577 0
0.00316643 0.00100489 0
0.0060695 -0.00136056 0
-0.0033083 -0.0112652 0
0.00241684 -0.0191458 0
-0.00873723 -0.00615397 0
-0.000799446 -0.0129576 0
-0.00919754 -0.00777265 0
SCALARS radius double 1
LOOKUP_TABLE default
0.000621415
0.000750874
0.000735541
0.000522882
0.000780242
0.00097475
0.000994168
0.000790412
0.000880848
0.000720838
0.000933918
0.000958934
0.000753488
0.00054522
0.000712397
0.000950783
0.000807753
0.000836475
0.000569299
0.000603945
0.000628319
0.000580291
0.000777192
0.000692678
0.00055675
SCALARS mass double 1
LOOKUP_TABLE default
0.00327549
0.00478242
0.00458909
0.0023191
0.00516383
0.00805935
0.00838365
0.00529932
0.00658136
0.00440747
0.00739829
0.00779994
0.00481578
0.00252149
0.00430484
0.0076679
0.0055344
0.00593499
0.00274913
0.00309392
0.00334869
0.00285631
0.00512354
0.00406984
0.00262926
