# vtk DataFile Version 3.0
DEM2D particles
ASCII
DATASET POLYDATA
POINTS 25 double
0.000436511 0.000510467 0
0.00259373 0.000298493 0
0.00503527 0.00108978 0
0.0075525 -0.000358804 0
0.00982669 -0.000200867 0
0.00134532 0.00267425 0
0.00385427 0.0021627 0
0.0049179 0.0012722 0
0.00662312 0.00290834 0
0.00923317 0.00222215 0
0.000767124 0.00440974 0
0.0037611 0.0033023 0
0.00456232 0.00448848 0
0.00622589 0.0047067 0
0.00871364 0.003956 0
0.00180206 0.00612153 0
0.00309208 0.00542467 0
0.0055426 0.00586467 0
0.00726105 0.00700753 0
0.00950038 0.00681252 0
0.000727257 0.00799596 0
0.00319925 0.00734626 0
0.00427968 0.00841734 0
0.00693409 0.00785643 0
0.00824173 0.00828389 0
VERTICES 25 50
1 0
1 1
1 2
1 3
1 4
1 5
1 6
1 7
1 8
1 9
1 10
1 11
1 12
1 13
1 14
1 15
1 16
1 17
1 18
1 19
1 20
1 21
1 22
1 23
1 24
POINT_DATA 25
VECTORS velocity double
-2.42497e-40 -0.00970858 0
-1.74838e-40 -0.00970858 0
1.51778e-41 -0.00970858 0
2.37769e-40 -0.00970858 0
3.55767e-40 -0.00970858 0
1.48608e-40 -0.00970858 0
3.67632e-40 -0.00970858 0
-3.53311e-41 -0.00970858 0
-1.62189e-40 -0.00970858 0
1.00344e-40 -0.00970858 0
-1.00218e-40 -0.00970858 0
3.27539e-40 -0.00970858 0
-1.88356e-40 -0.00970858 0
-3.33137e-40 -0.00970858 0
-1.23235e-40 -0.00970858 0
3.45164e-40 -0.00970858 0
3.96251e-41 -0.00970858 0
2.33508e-40 -0.00970858 0
1.12341e-40 -0.00970858 0
2.15339e-40 -0.00970858 0
-1.17375e-40 -0.00970858 0
8.57469e-41 -0.00970858 0
-3.09987e-40 -0.00970858 0
-2.83634e-41 -0.00970858 0
-3.26318e-40 -0.00970858 0
SCALARS radius double 1
LOOKUP_TABLE default
0.000621415
0.000750874
0.000735541
0.000522882
0.000780242
0.00097475
0.000994168
0.000790412
0.000880848
0.000720838
0.000933918
0.000958934
0.000753488
0.00054522
0.000712397
0.000950783
0.000807753
0.000836475
0.000569299
0.000603945
0.000628319
0.000580291
0.000777192
0.000692678
0.00055675
SCALARS mass double 1
LOOKUP_TABLE default
0.00327549
0.00478242
0.00458909
0.0023191
0.00516383
0.00805935
0.00838365
0.00529932
0.00658136
0.00440747
0.00739829
0.00779994
0.00481578
0.00252149
0.00430484
0.0076679
0.0055344
0.00593499
0.00274913
0.00309392
0.00334869
0.00285631
0.00512354
0.00406984
0.00262926
