# vtk DataFile Version 3.0
DEM2D particles
ASCII
DATASET POLYDATA
POINTS 25 double
0.000436511 8.32892e-05 0
0.00259373 -0.000128685 0
0.00503527 0.000662606 0
0.0075525 -0.000785981 0
0.00982669 -0.000628044 0
0.00134532 0.00224708 0
0.00385427 0.00173552 0
0.0049179 0.000845021 0
0.00662312 0.00248116 0
0.00923317 0.00179497 0
0.000767124 0.00398256 0
0.0037611 0.00287512 0
0.00456232 0.0040613 0
0.00622589 0.00427952 0
0.00871364 0.00352883 0
0.00180206 0.00569436 0
0.00309208 0.00499749 0
0.0055426 0.00543749 0
0.00726105 0.00658035 0
0.00950038 0.00638534 0
0.000727257 0.00756878 0
0.00319925 0.00691908 0
0.00427968 0.00799016 0
0.00693409 0.00742925 0
0.00824173 0.00785671 0
VERTICES 25 50
1 0
1 1
1 2
1 3
1 4
1 5
1 6
1 7
1 8
1 9
1 10
1 11
1 12
1 13
1 14
1 15
1 16
1 17
1 18
1 19
1 20
1 21
1 22
1 23
1 24
POINT_DATA 25
VECTORS velocity double
-1.51203e-59 -0.00970858 0
-1.09017e-59 -0.00970858 0
9.46379e-61 -0.00970858 0
1.48256e-59 -0.00970858 0
2.21831e-59 -0.00970858 0
9.26615e-60 -0.00970858 0
2.29229e-59 -0.00970858 0
-2.20299e-60 -0.00970858 0
-1.0113e-59 -0.00970858 0
6.25674e-60 -0.00970858 0
-6.24886e-60 -0.00970858 0
2.0423e-59 -0.00970858 0
-1.17445e-59 -0.00970858 0
-2.07721e-59 -0.00970858 0
-7.68405e-60 -0.00970858 0
2.15219e-59 -0.00970858 0
2.47074e-60 -0.00970858 0
1.45599e-59 -0.00970858 0
7.0048e-60 -0.00970858 0
1.3427e-59 -0.00970858 0
-7.31864e-60 -0.00970858 0
5.34656e-60 -0.00970858 0
-1.93286e-59 -0.00970858 0
-1.76854e-60 -0.00970858 0
-2.03469e-59 -0.00970858 0
SCALARS radius double 1
LOOKUP_TABLE default
0.000621415
0.000750874
0.000735541
0.000522882
0.000780242
0.00097475
0.000994168
0.000790412
0.000880848
0.000720838
0.000933918
0.000958934
0.000753488
0.00054522
0.000712397
0.000950783
0.000807753
0.000836475
0.000569299
0.000603945
0.000628319
0.000580291
0.000777192
0.000692678
0.00055675
SCALARS mass double 1
LOOKUP_TABLE default
0.00327549
0.00478242
0.00458909
0.0023191
0.00516383
0.00805935
0.00838365
0.00529932
0.00658136
0.00440747
0.00739829
0.00779994
0.00481578
0.00252149
0.00430484
0.0076679
0.0055344
0.00593499
0.00274913
0.00309392
0.00334869
0.00285631
0.00512354
0.00406984
0.00262926
