# vtk DataFile Version 3.0
DEM2D particles
ASCII
DATASET POLYDATA
POINTS 25 double
0.000436511 -0.000369131 0
0.00259373 -0.000581105 0
0.00503527 0.000210186 0
0.0075525 -0.0012384 0
0.00982669 -0.00108046 0
0.00134532 0.00179466 0
0.00385427 0.0012831 0
0.0049179 0.000392601 0
0.00662312 0.00202874 0
0.00923317 0.00134255 0
0.000767124 0.00353014 0
0.0037611 0.0024227 0
0.00456232 0.00360888 0
0.00622589 0.0038271 0
0.00871364 0.00307641 0
0.00180206 0.00524194 0
0.00309208 0.00454507 0
0.0055426 0.00498507 0
0.00726105 0.00612793 0
0.00950038 0.00593292 0
0.000727257 0.00711636 0
0.00319925 0.00646666 0
0.00427968 0.00753774 0
0.00693409 0.00697683 0
0.00824173 0.00740429 0
VERTICES 25 50
1 0
1 1
1 2
1 3
1 4
1 5
1 6
1 7
1 8
1 9
1 10
1 11
1 12
1 13
1 14
1 15
1 16
1 17
1 18
1 19
1 20
1 21
1 22
1 23
1 24
POINT_DATA 25
VECTORS velocity double
-6.91144e-80 -0.00970858 0
-4.9831e-80 -0.00970858 0
4.32586e-81 -0.00970858 0
6.7767e-80 -0.00970858 0
1.01398e-79 -0.00970858 0
4.23551e-80 -0.00970858 0
1.04779e-79 -0.00970858 0
-1.00698e-80 -0.00970858 0
-4.62259e-80 -0.00970858 0
2.85992e-80 -0.00970858 0
-2.85632e-80 -0.00970858 0
9.33526e-80 -0.00970858 0
-5.36837e-80 -0.00970858 0
-9.49481e-80 -0.00970858 0
-3.51234e-80 -0.00970858 0
9.83758e-80 -0.00970858 0
1.12936e-80 -0.00970858 0
6.65525e-80 -0.00970858 0
3.20186e-80 -0.00970858 0
6.13742e-80 -0.00970858 0
-3.34532e-80 -0.00970858 0
2.44389e-80 -0.00970858 0
-8.835e-80 -0.00970858 0
-8.08392e-81 -0.00970858 0
-9.30046e-80 -0.00970858 0
SCALARS radius double 1
LOOKUP_TABLE default
0.000621415
0.000750874
0.000735541
0.000522882
0.000780242
0.00097475
0.000994168
0.000790412
0.000880848
0.000720838
0.000933918
0.000958934
0.000753488
0.00054522
0.000712397
0.000950783
0.000807753
0.000836475
0.000569299
0.000603945
0.000628319
0.000580291
0.000777192
0.000692678
0.00055675
SCALARS mass double 1
LOOKUP_TABLE default
0.00327549
0.00478242
0.00458909
0.0023191
0.00516383
0.00805935
0.00838365
0.00529932
0.00658136
0.00440747
0.00739829
0.00779994
0.00481578
0.00252149
0.00430484
0.0076679
0.0055344
0.00593499
0.00274913
0.00309392
0.00334869
0.00285631
0.00512354
0.00406984
0.00262926
