# vtk DataFile Version 3.0
DEM2D particles
ASCII
DATASET POLYDATA
POINTS 25 double
0.000436511 -0.000540002 0
0.00259373 -0.000751976 0
0.00503527 3.93145e-05 0
0.0075525 -0.00140927 0
0.00982669 -0.00125134 0
0.00134532 0.00162378 0
0.00385427 0.00111223 0
0.0049179 0.00022173 0
0.00662312 0.00185787 0
0.00923317 0.00117168 0
0.000767124 0.00335927 0
0.0037611 0.00225183 0
0.00456232 0.00343801 0
0.00622589 0.00365623 0
0.00871364 0.00290554 0
0.00180206 0.00507107 0
0.00309208 0.0043742 0
0.0055426 0.0048142 0
0.00726105 0.00595706 0
0.00950038 0.00576205 0
0.000727257 0.00694549 0
0.00319925 0.00629579 0
0.00427968 0.00736687 0
0.00693409 0.00680596 0
0.00824173 0.00723342 0
VERTICES 25 50
1 0
1 1
1 2
1 3
1 4
1 5
1 6
1 7
1 8
1 9
1 10
1 11
1 12
1 13
1 14
1 15
1 16
1 17
1 18
1 19
1 20
1 21
1 22
1 23
1 24
POINT_DATA 25
VECTORS velocity double
-1.43718e-87 -0.00970858 0
-1.0362e-87 -0.00970858 0
8.99528e-89 -0.00970858 0
1.40916e-87 -0.00970858 0
2.10849e-87 -0.00970858 0
8.80742e-88 -0.00970858 0
2.17881e-87 -0.00970858 0
-2.09393e-88 -0.00970858 0
-9.61232e-88 -0.00970858 0
5.94699e-88 -0.00970858 0
-5.9395e-88 -0.00970858 0
1.94119e-87 -0.00970858 0
-1.11631e-87 -0.00970858 0
-1.97437e-87 -0.00970858 0
-7.30364e-88 -0.00970858 0
2.04565e-87 -0.00970858 0
2.34842e-88 -0.00970858 0
1.38391e-87 -0.00970858 0
6.65802e-88 -0.00970858 0
1.27623e-87 -0.00970858 0
-6.95632e-88 -0.00970858 0
5.08187e-88 -0.00970858 0
-1.83717e-87 -0.00970858 0
-1.68099e-88 -0.00970858 0
-1.93396e-87 -0.00970858 0
SCALARS radius double 1
LOOKUP_TABLE default
0.000621415
0.000750874
0.000735541
0.000522882
0.000780242
0.00097475
0.000994168
0.000790412
0.000880848
0.000720838
0.000933918
0.000958934
0.000753488
0.00054522
0.000712397
0.000950783
0.000807753
0.000836475
0.000569299
0.000603945
0.000628319
0.000580291
0.000777192
0.000692678
0.00055675
SCALARS mass double 1
LOOKUP_TABLE default
0.00327549
0.00478242
0.00458909
0.0023191
0.00516383
0.00805935
0.00838365
0.00529932
0.00658136
0.00440747
0.00739829
0.00779994
0.00481578
0.00252149
0.00430484
0.0076679
0.0055344
0.00593499
0.00274913
0.00309392
0.00334869
0.00285631
0.00512354
0.00406984
0.00262926
