# vtk DataFile Version 3.0
MPM2D particles
ASCII
DATASET POLYDATA
POINTS 121 double
0.0142324 1.7653e-12 0
0.0423199 5.48702e-13 0
0.06703 1.78489e-13 0
0.0890636 6.20189e-14 0
0.112229 1.77655e-13 0
0.137809 1.28572e-10 0
0.162773 5.33787e-08 0
0.185283 5.22978e-06 0
0.205709 0.000381508 0
0.198334 0.000742223 0
0.188318 0.00018165 0
0.0184116 4.50419e-12 0
0.053622 1.04953e-12 0
0.0745411 3.78983e-13 0
0.0917055 1.6473e-13 0
0.11167 4.60448e-13 0
0.13845 4.54078e-10 0
0.163023 1.71434e-07 0
0.181348 7.39106e-06 0
0.197136 0.000213465 0
0.196306 0.0003373 0
0.191367 0.000202069 0
0.0222033 5.99284e-12 0
0.0620323 1.11508e-12 0
0.0792995 4.81557e-13 0
0.0934841 2.41642e-13 0
0.111286 6.65933e-13 0
0.139014 8.40042e-10 0
0.162861 2.70861e-07 0
0.178047 6.30708e-06 0
0.190986 0.0001003 0
0.191872 0.000159141 0
0.18946 0.00013192 0
0.0233027 6.70702e-12 0
0.064352 1.21134e-12 0
0.0809086 5.51275e-13 0
0.0944245 2.89502e-13 0
0.111786 9.63243e-13 0
0.13942 1.19096e-09 0
0.162219 3.09724e-07 0
0.175111 4.6151e-06 0
0.18606 4.86207e-05 0
0.188394 9.41234e-05 0
0.187093 9.16883e-05 0
0.0242227 7.34616e-12 0
0.0661815 1.30304e-12 0
0.0822544 6.17244e-13 0
0.0953262 3.35605e-13 0
0.112471 1.41328e-12 0
0.139649 1.56398e-09 0
0.161243 3.20172e-07 0
0.172047 3.15466e-06 0
0.181178 2.2772e-05 0
0.184904 5.47824e-05 0
0.184883 6.56379e-05 0
0.0251707 8.21248e-12 0
0.0679609 1.44239e-12 0
0.0835984 7.11827e-13 0
0.096258 4.01431e-13 0
0.113145 2.14465e-12 0
0.139349 1.8731e-09 0
0.159547 2.98827e-07 0
0.168365 1.96979e-06 0
0.175828 1.00166e-05 0
0.180216 2.63369e-05 0
0.181953 4.23897e-05 0
0.0258205 9.58243e-12 0
0.0690924 1.69617e-12 0
0.0844083 8.67531e-13 0
0.0967536 5.05567e-13 0
0.113147 2.8199e-12 0
0.13775 1.67322e-09 0
0.15698 2.26626e-07 0
0.164523 1.22078e-06 0
0.171016 5.02566e-06 0
0.175268 1.2574e-05 0
0.178305 2.5052e-05 0
0.0257307 1.15842e-11 0
0.0689623 2.10313e-12 0
0.0842123 1.09567e-12 0
0.0964794 6.49654e-13 0
0.112289 2.90015e-12 0
0.135231 1.1534e-09 0
0.154138 1.4388e-07 0
0.161379 8.45751e-07 0
0.167597 3.24946e-06 0
0.17174 7.88971e-06 0
0.175264 1.69692e-05 0
0.0250289 1.41029e-11 0
0.0678911 2.64853e-12 0
0.0833001 1.38321e-12 0
0.0956659 8.23613e-13 0
0.110963 2.5246e-12 0
0.132641 7.41771e-10 0
0.151484 9.2302e-08 0
0.159073 6.62922e-07 0
0.165365 2.56256e-06 0
0.169591 6.31687e-06 0
0.17331 1.40559e-05 0
0.0242096 1.6864e-11 0
0.0666046 3.27915e-12 0
0.0822037 1.70893e-12 0
0.0946605 1.01958e-12 0
0.109492 2.0406e-12 0
0.130291 4.87132e-10 0
0.148992 5.96382e-08 0
0.157261 5.26203e-07 0
0.163736 2.21076e-06 0
0.16808 5.57769e-06 0
0.171917 1.26962e-05 0
0.0234378 1.98383e-11 0
0.0653158 3.99913e-12 0
0.081057 2.08087e-12 0
0.093527 1.24676e-12 0
0.107887 1.56088e-12 0
0.128053 3.2212e-10 0
0.146531 3.80843e-08 0
0.155568 3.9641e-07 0
0.162294 1.94959e-06 0
0.166731 5.00638e-06 0
0.1706 1.14726e-05 0
VERTICES 121 242
1 0
1 1
1 2
1 3
1 4
1 5
1 6
1 7
1 8
1 9
1 10
1 11
1 12
1 13
1 14
1 15
1 16
1 17
1 18
1 19
1 20
1 21
1 22
1 23
1 24
1 25
1 26
1 27
1 28
1 29
1 30
1 31
1 32
1 33
1 34
1 35
1 36
1 37
1 38
1 39
1 40
1 41
1 42
1 43
1 44
1 45
1 46
1 47
1 48
1 49
1 50
1 51
1 52
1 53
1 54
1 55
1 56
1 57
1 58
1 59
1 60
1 61
1 62
1 63
1 64
1 65
1 66
1 67
1 68
1 69
1 70
1 71
1 72
1 73
1 74
1 75
1 76
1 77
1 78
1 79
1 80
1 81
1 82
1 83
1 84
1 85
1 86
1 87
1 88
1 89
1 90
1 91
1 92
1 93
1 94
1 95
1 96
1 97
1 98
1 99
1 100
1 101
1 102
1 103
1 104
1 105
1 106
1 107
1 108
1 109
1 110
1 111
1 112
1 113
1 114
1 115
1 116
1 117
1 118
1 119
1 120
POINT_DATA 121
VECTORS velocity double
4.42479 6.47073 0
2.15481 4.39952 0
0.943656 3.02239 0
0.752702 2.26102 0
0.561705 1.81744 0
0.40166 2.23021 0
0.160607 2.2076 0
-0.336268 0.483644 0
-0.42046 -0.924388 0
-4.64524 5.81213 0
-8.30446 9.48822 0
2.96538 0.752759 0
0.314565 -0.437132 0
-0.175807 -0.960029 0
0.190759 -1.35145 0
0.423305 -1.60916 0
0.347421 -1.38473 0
0.238062 -1.41645 0
0.159473 -2.21597 0
0.442949 -3.03295 0
-0.371197 -1.50418 0
-0.814096 -0.650083 0
1.93414 -3.20217 0
-0.820255 -3.6046 0
-0.871138 -3.76939 0
-0.175715 -3.95239 0
0.340297 -4.10374 0
0.33874 -4.05681 0
0.343514 -4.07259 0
0.536766 -4.16639 0
0.929535 -4.33308 0
1.07964 -4.2704 0
1.33241 -4.29774 0
1.91716 -3.84298 0
-0.74103 -4.1171 0
-0.762836 -4.24723 0
-0.109639 -4.393 0
0.387283 -4.51965 0
0.416121 -4.53809 0
0.430677 -4.55437 0
0.535114 -4.44111 0
0.735675 -4.37084 0
0.597068 -4.4637 0
0.623207 -4.62838 0
1.95648 -4.2971 0
-0.565575 -4.49448 0
-0.582916 -4.58159 0
-0.013703 -4.68396 0
0.418641 -4.77606 0
0.479796 -4.82129 0
0.497419 -4.83394 0
0.467519 -4.60745 0
0.468367 -4.4221 0
-0.00945805 -4.57444 0
-0.229822 -4.85445 0
1.93283 -4.65419 0
-0.441093 -4.82498 0
-0.463815 -4.87089 0
0.0302788 -4.92297 0
0.399772 -4.9675 0
0.488031 -5.00053 0
0.520336 -5.01674 0
0.423386 -4.78869 0
0.324956 -4.60046 0
-0.32922 -4.74153 0
-0.794406 -5.02251 0
1.75085 -4.90248 0
-0.442763 -5.08713 0
-0.461569 -5.09753 0
-0.00566128 -5.1036 0
0.333919 -5.10751 0
0.432775 -5.12058 0
0.487313 -5.14157 0
0.390035 -4.97249 0
0.275968 -4.81685 0
-0.381517 -4.94557 0
-1.00394 -5.1874 0
1.4352 -5.17585 0
-0.484642 -5.36527 0
-0.486037 -5.3505 0
-0.0636312 -5.3245 0
0.262539 -5.30084 0
0.371186 -5.29206 0
0.434859 -5.27356 0
0.318425 -5.18456 0
0.172212 -5.04538 0
-0.43532 -5.15467 0
-1.07809 -5.36224 0
1.0489 -5.61198 0
-0.51522 -5.76663 0
-0.497962 -5.73444 0
-0.132197 -5.6863 0
0.172124 -5.64132 0
0.292303 -5.61168 0
0.373251 -5.56088 0
0.236445 -5.52317 0
0.0629557 -5.38942 0
-0.500667 -5.45032 0
-1.12011 -5.59259 0
0.659571 -6.37911 0
-0.561447 -6.45473 0
-0.532059 -6.39525 0
-0.237662 -6.32062 0
0.0358501 -6.24649 0
0.169444 -6.18674 0
0.278014 -6.09977 0
0.151732 -6.08458 0
-0.0218683 -5.96557 0
-0.566033 -5.95859 0
-1.17758 -6.00142 0
0.218419 -7.67089 0
-0.673024 -7.64266 0
-0.631371 -7.55357 0
-0.424157 -7.44654 0
-0.195078 -7.30437 0
-0.0420571 -7.20399 0
0.119343 -7.0329 0
0.0326901 -7.01911 0
-0.107087 -6.94018 0
-0.633048 -6.83539 0
-1.23942 -6.74328 0
SCALARS mass double 1
LOOKUP_TABLE default
2.67769
2.67769
2.67769
2.67769
2.67769
2.67769
2.67769
2.67769
2.67769
2.67769
2.67769
2.67769
2.67769
2.67769
2.67769
2.67769
2.67769
2.67769
2.67769
2.67769
2.67769
2.67769
2.67769
2.67769
2.67769
2.67769
2.67769
2.67769
2.67769
2.67769
2.67769
2.67769
2.67769
2.67769
2.67769
2.67769
2.67769
2.67769
2.67769
2.67769
2.67769
2.67769
2.67769
2.67769
2.67769
2.67769
2.67769
2.67769
2.67769
2.67769
2.67769
2.67769
2.67769
2.67769
2.67769
2.67769
2.67769
2.67769
2.67769
2.67769
2.67769
2.67769
2.67769
2.67769
2.67769
2.67769
2.67769
2.67769
2.67769
2.67769
2.67769
2.67769
2.67769
2.67769
2.67769
2.67769
2.67769
2.67769
2.67769
2.67769
2.67769
2.67769
2.67769
2.67769
2.67769
2.67769
2.67769
2.67769
2.67769
2.67769
2.67769
2.67769
2.67769
2.67769
2.67769
2.67769
2.67769
2.67769
2.67769
2.67769
2.67769
2.67769
2.67769
2.67769
2.67769
2.67769
2.67769
2.67769
2.67769
2.67769
2.67769
2.67769
2.67769
2.67769
2.67769
2.67769
2.67769
2.67769
2.67769
2.67769
2.67769
SCALARS volume double 1
LOOKUP_TABLE default
1.19834e-13
3.69153e-14
9.37189e-15
3.27291e-15
1.08213e-14
7.82845e-12
2.90584e-09
2.82935e-07
1.48706e-05
8.2573e-06
9.38936e-07
1.32358e-13
2.87392e-14
5.17586e-15
2.28022e-15
9.79637e-15
9.64897e-12
2.601e-09
1.10499e-07
1.79408e-06
9.14167e-07
2.87763e-07
5.88779e-14
8.49717e-15
1.9914e-15
1.08398e-15
6.06985e-15
7.82681e-12
1.52034e-09
3.71808e-08
3.27463e-07
1.59405e-07
5.22203e-08
5.04904e-14
6.44056e-15
1.62167e-15
9.36035e-16
6.76794e-15
8.75233e-12
1.20199e-09
1.83156e-08
1.25859e-07
8.10135e-08
3.012e-08
5.49321e-14
6.37631e-15
1.69777e-15
1.02293e-15
9.70833e-15
1.13107e-11
1.07708e-09
1.06119e-08
5.31551e-08
5.70626e-08
2.32316e-08
8.14649e-14
8.4285e-15
2.3614e-15
1.45562e-15
1.77056e-14
1.65475e-11
1.05296e-09
6.58326e-09
2.26451e-08
3.96795e-08
2.73902e-08
1.10299e-13
1.03344e-14
2.92255e-15
1.83358e-15
2.22993e-14
1.41885e-11
7.01441e-10
3.3686e-09
9.33858e-09
1.85949e-08
2.13346e-08
1.2992e-13
1.17021e-14
3.33017e-15
2.05265e-15
1.86348e-14
7.82107e-12
3.71301e-10
1.83132e-09
4.74674e-09
9.28869e-09
1.46756e-08
1.34884e-13
1.26774e-14
3.55191e-15
2.16951e-15
1.24913e-14
3.80482e-12
2.10024e-10
1.14635e-09
3.05799e-09
6.08704e-09
1.12189e-08
1.37446e-13
1.44939e-14
3.85772e-15
2.37518e-15
8.45051e-15
2.06958e-12
1.36643e-10
8.12826e-10
2.41019e-09
4.78622e-09
9.63216e-09
1.42586e-13
1.65658e-14
4.33884e-15
2.64329e-15
5.77289e-15
6.58467e-13
8.72718e-11
5.89157e-10
1.9934e-09
4.06377e-09
8.37664e-09
TENSORS stress double
5076.67 44757.3 0
44757.3 1085.23 0
0 0 0
5076.67 139226 0
139226 759.563 0
0 0 0
5076.67 137908 0
137908 228.146 0
0 0 0
5076.67 75723.6 0
75723.6 -402.114 0
0 0 0
5076.67 -329.55 0
-329.55 357.641 0
0 0 0
5076.67 -116781 0
-116781 4849.08 0
0 0 0
5076.67 -221653 0
-221653 8588.63 0
0 0 0
5076.66 -292206 0
-292206 9570.55 0
0 0 0
5075.6 -344783 0
-344783 10448.6 0
0 0 0
5074.57 -297425 0
-297425 10114.2 0
0 0 0
5076.16 -254534 0
-254534 9696.83 0
0 0 0
5076.67 51666.1 0
51666.1 1036.77 0
0 0 0
5076.67 164350 0
164350 611.671 0
0 0 0
5076.67 115533 0
115533 13.2941 0
0 0 0
5076.67 65659.8 0
65659.8 -477.686 0
0 0 0
5076.67 1204.71 0
1204.71 259.485 0
0 0 0
5076.67 -120765 0
-120765 4961.54 0
0 0 0
5076.67 -220139 0
-220139 8599.53 0
0 0 0
5076.65 -278580 0
-278580 9398.81 0
0 0 0
5076.07 -315916 0
-315916 10080.4 0
0 0 0
5075.72 -258697 0
-258697 10039.9 0
0 0 0
5076.1 -227965 0
-227965 9829.15 0
0 0 0
5076.67 56133.2 0
56133.2 992.806 0
0 0 0
5076.67 135689 0
135689 371.099 0
0 0 0
5076.67 93869.2 0
93869.2 -122.817 0
0 0 0
5076.67 57091.6 0
57091.6 -528.56 0
0 0 0
5076.67 3952.31 0
3952.31 191.952 0
0 0 0
5076.67 -124273 0
-124273 5060.6 0
0 0 0
5076.67 -218483 0
-218483 8592.47 0
0 0 0
5076.66 -268103 0
-268103 9254.84 0
0 0 0
5076.39 -298758 0
-298758 9816.07 0
0 0 0
5076.22 -244364 0
-244364 9852.65 0
0 0 0
5076.3 -195943 0
-195943 9748.38 0
0 0 0
5076.67 59924 0
59924 980.06 0
0 0 0
5076.67 129218 0
129218 304.746 0
0 0 0
5076.67 89637.4 0
89637.4 -168.845 0
0 0 0
5076.67 56006.9 0
56006.9 -555.46 0
0 0 0
5076.67 3526.52 0
3526.52 279.871 0
0 0 0
5076.67 -126141 0
-126141 5131.96 0
0 0 0
5076.67 -213853 0
-213853 8564.47 0
0 0 0
5076.66 -257302 0
-257302 9126.77 0
0 0 0
5076.54 -292137 0
-292137 9602.93 0
0 0 0
5076.41 -249738 0
-249738 9703.21 0
0 0 0
5076.41 -199292 0
-199292 9646.49 0
0 0 0
5076.67 64078.4 0
64078.4 969.393 0
0 0 0
5076.67 125131 0
125131 252.414 0
0 0 0
5076.67 87137.5 0
87137.5 -207.341 0
0 0 0
5076.67 55386.1 0
55386.1 -581.252 0
0 0 0
5076.67 1665.66 0
1665.66 400.089 0
0 0 0
5076.67 -127125 0
-127125 5172.21 0
0 0 0
5076.67 -208043 0
-208043 8521.86 0
0 0 0
5076.67 -244700 0
-244700 8993.17 0
0 0 0
5076.61 -278064 0
-278064 9390.85 0
0 0 0
5076.52 -261469 0
-261469 9552.3 0
0 0 0
5076.49 -204264 0
-204264 9551.01 0
0 0 0
5076.67 68037.6 0
68037.6 958.401 0
0 0 0
5076.67 120328 0
120328 201.515 0
0 0 0
5076.67 83409 0
83409 -245.786 0
0 0 0
5076.67 54125.1 0
54125.1 -607.907 0
0 0 0
5076.67 -594.186 0
-594.186 518.399 0
0 0 0
5076.67 -126100 0
-126100 5119.45 0
0 0 0
5076.67 -200844 0
-200844 8447.86 0
0 0 0
5076.67 -228148 0
-228148 8832.56 0
0 0 0
5076.65 -253676 0
-253676 9157.86 0
0 0 0
5076.6 -261753 0
-261753 9348.75 0
0 0 0
5076.55 -221829 0
-221829 9423.97 0
0 0 0
5076.67 70182.2 0
70182.2 950.867 0
0 0 0
5076.67 114276 0
114276 169.152 0
0 0 0
5076.67 79771.9 0
79771.9 -268.953 0
0 0 0
5076.67 53044.1 0
53044.1 -622.082 0
0 0 0
5076.67 195.477 0
195.477 518.802 0
0 0 0
5076.67 -118387 0
-118387 4838.73 0
0 0 0
5076.66 -191375 0
-191375 8215.09 0
0 0 0
5076.67 -211089 0
-211089 8664.95 0
0 0 0
5076.66 -229249 0
-229249 8948.12 0
0 0 0
5076.64 -244262 0
-244262 9133.37 0
0 0 0
5076.6 -224481 0
-224481 9265.43 0
0 0 0
5076.67 69238.4 0
69238.4 951.908 0
0 0 0
5076.67 111324 0
111324 172.871 0
0 0 0
5076.67 78265 0
78265 -263.347 0
0 0 0
5076.67 53459.4 0
53459.4 -614.238 0
0 0 0
5076.67 5408.34 0
5408.34 368.105 0
0 0 0
5076.67 -104774 0
-104774 4396.36 0
0 0 0
5076.67 -181463 0
-181463 7716.14 0
0 0 0
5076.67 -196988 0
-196988 8527.77 0
0 0 0
5076.67 -211356 0
-211356 8798.99 0
0 0 0
5076.65 -224341 0
-224341 8979.59 0
0 0 0
5076.63 -217677 0
-217677 9133.02 0
0 0 0
5076.67 66380.5 0
66380.5 960.044 0
0 0 0
5076.67 111260 0
111260 203.513 0
0 0 0
5076.67 79441.6 0
79441.6 -237.251 0
0 0 0
5076.67 55105.6 0
55105.6 -590.97 0
0 0 0
5076.67 13029.4 0
13029.4 135.293 0
0 0 0
5076.67 -90113.7 0
-90113.7 3941.64 0
0 0 0
5076.67 -173208 0
-173208 7250.22 0
0 0 0
5076.67 -187358 0
-187358 8427.2 0
0 0 0
5076.67 -200131 0
-200131 8701.61 0
0 0 0
5076.66 -211096 0
-211096 8885.89 0
0 0 0
5076.63 -212646 0
-212646 9047.86 0
0 0 0
5076.67 63948.5 0
63948.5 969.544 0
0 0 0
5076.67 112579 0
112579 240.312 0
0 0 0
5076.67 82264.7 0
82264.7 -205.891 0
0 0 0
5076.67 57357.4 0
57357.4 -562.21 0
0 0 0
5076.67 21252.3 0
21252.3 -122.965 0
0 0 0
5076.67 -76795.9 0
-76795.9 3529.09 0
0 0 0
5076.67 -166814 0
-166814 6812.67 0
0 0 0
5076.64 -180159 0
-180159 8264.57 0
0 0 0
5076.67 -192730 0
-192730 8630.55 0
0 0 0
5076.66 -204021 0
-204021 8819.99 0
0 0 0
5076.64 -211407 0
-211407 8987.12 0
0 0 0
5076.67 61577.2 0
61577.2 978.493 0
0 0 0
5076.67 113621 0
113621 277.179 0
0 0 0
5076.67 83371.7 0
83371.7 -173.091 0
0 0 0
5076.67 59077.6 0
59077.6 -529.787 0
0 0 0
5076.67 29557.3 0
29557.3 -404.793 0
0 0 0
5076.67 -65853.9 0
-65853.9 3136.06 0
0 0 0
5076.67 -155267 0
-155267 6380.47 0
0 0 0
5076.65 -174333 0
-174333 7967.16 0
0 0 0
5076.67 -187414 0
-187414 8567.66 0
0 0 0
5076.66 -198286 0
-198286 8761.16 0
0 0 0
5076.64 -207763 0
-207763 8929.71 0
0 0 0
TENSORS strain double
0.129853 0.447573 0
0.447573 -21.9042 0
0 0 0
0.120967 1.39226 0
1.39226 -22.9986 0
0 0 0
-0.123147 1.37908 0
1.37908 -24.0419 0
0 0 0
-0.118155 0.757236 0
0.757236 -25.0168 0
0 0 0
0.0234034 -0.0032955 0
-0.0032955 -24.0614 0
0 0 0
0.0229906 -1.16781 0
-1.16781 -17.9241 0
0 0 0
-0.0868228 -2.21653 0
-2.21653 -12.1362 0
0 0 0
-0.0930781 -2.92206 0
-2.92206 -7.67882 0
0 0 0
-0.417232 -3.44783 0
-3.44783 -3.44836 0
0 0 0
-1.65366 -2.97425 0
-2.97425 -2.7897 0
0 0 0
-2.40588 -2.54534 0
-2.54534 -4.15611 0
0 0 0
0.387777 0.516661 0
0.516661 -22.0555 0
0 0 0
0.319544 1.6435 0
1.6435 -23.4172 0
0 0 0
-0.367003 1.15533 0
1.15533 -24.3601 0
0 0 0
-0.353705 0.656598 0
0.656598 -25.1285 0
0 0 0
0.070227 0.0120471 0
0.0120471 -24.1954 0
0 0 0
0.068942 -1.20765 0
-1.20765 -17.7694 0
0 0 0
-0.261314 -2.20139 0
-2.20139 -12.0705 0
0 0 0
-0.276128 -2.7858 0
-2.7858 -8.41579 0
0 0 0
-0.846998 -3.15916 0
-3.15916 -5.11302 0
0 0 0
-1.94798 -2.58697 0
-2.58697 -4.66281 0
0 0 0
-2.57073 -2.27965 0
-2.27965 -5.1659 0
0 0 0
0.575677 0.561332 0
0.561332 -23.0422 0
0 0 0
0.14753 1.35689 0
1.35689 -24.4223 0
0 0 0
-0.554406 0.938692 0
0.938692 -25.1003 0
0 0 0
-0.53901 0.570916 0
0.570916 -25.6711 0
0 0 0
0.105981 0.0395231 0
0.0395231 -24.6991 0
0 0 0
0.104174 -1.24273 0
-1.24273 -18.0192 0
0 0 0
-0.422397 -2.18483 0
-2.18483 -12.439 0
0 0 0
-0.444292 -2.68103 0
-2.68103 -9.31563 0
0 0 0
-1.0776 -2.98758 0
-2.98758 -6.55685 0
0 0 0
-2.01038 -2.44364 0
-2.44364 -6.32171 0
0 0 0
-2.5824 -1.95943 0
-1.95943 -6.82966 0
0 0 0
0.624235 0.59924 0
0.59924 -23.2413 0
0 0 0
0.0908804 1.29218 0
1.29218 -24.6316 0
0 0 0
-0.604422 0.896374 0
0.896374 -25.2463 0
0 0 0
-0.592859 0.560069 0
0.560069 -25.7575 0
0 0 0
0.102789 0.0352652 0
0.0352652 -24.5977 0
0 0 0
0.101482 -1.26141 0
-1.26141 -17.9099 0
0 0 0
-0.560621 -2.13853 0
-2.13853 -12.5282 0
0 0 0
-0.592479 -2.57302 0
-2.57302 -9.85705 0
0 0 0
-1.0621 -2.92137 0
-2.92137 -7.51032 0
0 0 0
-1.90327 -2.49738 0
-2.49738 -7.09479 0
0 0 0
-2.47777 -1.99292 0
-1.99292 -7.47287 0
0 0 0
0.663164 0.640784 0
0.640784 -23.1942 0
0 0 0
0.0443083 1.25131 0
1.25131 -24.5869 0
0 0 0
-0.641268 0.871375 0
0.871375 -25.158 0
0 0 0
-0.633226 0.553861 0
0.553861 -25.6247 0
0 0 0
0.0862955 0.0166566 0
0.0166566 -24.2362 0
0 0 0
0.0849986 -1.27125 0
-1.27125 -17.641 0
0 0 0
-0.709096 -2.08043 0
-2.08043 -12.4812 0
0 0 0
-0.750118 -2.447 0
-2.447 -10.2264 0
0 0 0
-1.13261 -2.78064 0
-2.78064 -8.28073 0
0 0 0
-1.73484 -2.61469 0
-2.61469 -7.60886 0
0 0 0
-2.38612 -2.04264 0
-2.04264 -7.81681 0
0 0 0
0.701787 0.680376 0
0.680376 -22.8389 0
0 0 0
-0.011337 1.20328 0
1.20328 -24.2454 0
0 0 0
-0.677616 0.83409 0
0.83409 -24.7898 0
0 0 0
-0.674014 0.541251 0
0.541251 -25.2309 0
0 0 0
0.0511967 -0.00594186 0
-0.00594186 -23.6174 0
0 0 0
0.0487195 -1.261 0
-1.261 -17.2235 0
0 0 0
-0.88283 -2.00844 0
-2.00844 -12.3192 0
0 0 0
-0.928495 -2.28148 0
-2.28148 -10.504 0
0 0 0
-1.28383 -2.53676 0
-2.53676 -8.95724 0
0 0 0
-1.59653 -2.61753 0
-2.61753 -8.10088 0
0 0 0
-2.1064 -2.21829 0
-2.21829 -7.94355 0
0 0 0
0.727448 0.701822 0
0.701822 -22.5629 0
0 0 0
-0.034854 1.14276 0
1.14276 -24.0138 0
0 0 0
-0.70429 0.797719 0
0.797719 -24.5492 0
0 0 0
-0.704363 0.530441 0
0.530441 -24.9701 0
0 0 0
-0.00697121 0.00195477 0
0.00195477 -23.3307 0
0 0 0
-0.0123881 -1.18387 0
-1.18387 -17.298 0
0 0 0
-1.01539 -1.91375 0
-1.91375 -12.5742 0
0 0 0
-1.06862 -2.11089 0
-2.11089 -11.0084 0
0 0 0
-1.3994 -2.29249 0
-2.29249 -9.69913 0
0 0 0
-1.58469 -2.44262 0
-2.44262 -8.84825 0
0 0 0
-1.91838 -2.24481 0
-2.24481 -8.37751 0
0 0 0
0.723962 0.692384 0
0.692384 -22.3989 0
0 0 0
-0.0447554 1.11324 0
1.11324 -23.8811 0
0 0 0
-0.708174 0.78265 0
0.78265 -24.4171 0
0 0 0
-0.709818 0.534594 0
0.534594 -24.8542 0
0 0 0
-0.0695889 0.0540834 0
0.0540834 -23.4309 0
0 0 0
-0.0781112 -1.04774 0
-1.04774 -17.7955 0
0 0 0
-1.0252 -1.81463 0
-1.81463 -13.1808 0
0 0 0
-1.12893 -1.96988 0
-1.96988 -11.5355 0
0 0 0
-1.42848 -2.11356 0
-2.11356 -10.3244 0
0 0 0
-1.60277 -2.24341 0
-2.24341 -9.50256 0
0 0 0
-1.79292 -2.17677 0
-2.17677 -8.8663 0
0 0 0
0.696173 0.663805 0
0.663805 -22.3382 0
0 0 0
-0.0317138 1.1126 0
1.1126 -23.8205 0
0 0 0
-0.696878 0.794416 0
0.794416 -24.3686 0
0 0 0
-0.699304 0.551056 0
0.551056 -24.8137 0
0 0 0
-0.119766 0.130294 0
0.130294 -23.7529 0
0 0 0
-0.13028 -0.901137 0
-0.901137 -18.4276 0
0 0 0
-0.94869 -1.73208 0
-1.73208 -13.8103 0
0 0 0
-1.12964 -1.87358 0
-1.87358 -11.9869 0
0 0 0
-1.40373 -2.00131 0
-2.00131 -10.7744 0
0 0 0
-1.57601 -2.11096 0
-2.11096 -9.93859 0
0 0 0
-1.68133 -2.12646 0
-2.12646 -9.23867 0
0 0 0
0.662719 0.639485 0
0.639485 -22.2901 0
0 0 0
0.00308114 1.12579 0
1.12579 -23.7297 0
0 0 0
-0.686538 0.822647 0
0.822647 -24.3015 0
0 0 0
-0.689545 0.573574 0
0.573574 -24.7385 0
0 0 0
-0.155684 0.212523 0
0.212523 -24.0763 0
0 0 0
-0.167488 -0.767959 0
-0.767959 -18.9649 0
0 0 0
-0.803874 -1.66814 0
-1.66814 -14.3685 0
0 0 0
-1.10248 -1.80159 0
-1.80159 -12.3459 0
0 0 0
-1.36497 -1.9273 0
-1.9273 -11.0425 0
0 0 0
-1.54532 -2.04021 0
-2.04021 -10.2014 0
0 0 0
-1.61659 -2.11407 0
-2.11407 -9.45116 0
0 0 0
0.630158 0.615772 0
0.615772 -22.2245 0
0 0 0
0.0332664 1.13621 0
1.13621 -23.634 0
0 0 0
-0.681232 0.833717 0
0.833717 -24.1956 0
0 0 0
-0.683716 0.590776 0
0.590776 -24.6433 0
0 0 0
-0.180891 0.295573 0
0.295573 -24.3969 0
0 0 0
-0.193533 -0.658539 0
-0.658539 -19.8861 0
0 0 0
-0.702666 -1.55267 0
-1.55267 -14.8975 0
0 0 0
-1.05226 -1.74333 0
-1.74333 -12.708 0
0 0 0
-1.33598 -1.87414 0
-1.87414 -11.2535 0
0 0 0
-1.52517 -1.98286 0
-1.98286 -10.379 0
0 0 0
-1.58416 -2.07763 0
-2.07763 -9.61872 0
0 0 0
