# vtk DataFile Version 3.0
MPM2D particles
ASCII
DATASET POLYDATA
POINTS 121 double
0.0142324 4.6894e-09 0
0.0423199 2.02002e-09 0
0.06703 1.02562e-09 0
0.0890636 5.87483e-10 0
0.112229 8.54886e-10 0
0.137809 1.46823e-08 0
0.162773 2.83326e-07 0
0.185293 9.34532e-06 0
0.206149 0.000254232 0
0.199377 0.000693409 0
0.188659 0.00027857 0
0.0184116 1.25594e-08 0
0.053622 4.45523e-09 0
0.0745411 2.58144e-09 0
0.0917055 1.65712e-09 0
0.11167 2.40875e-09 0
0.13845 4.73113e-08 0
0.163024 8.98943e-07 0
0.181365 1.59578e-05 0
0.197448 0.000214714 0
0.19681 0.000351475 0
0.191715 0.000267671 0
0.0222033 1.74621e-08 0
0.0620323 5.72285e-09 0
0.0792995 3.65393e-09 0
0.0934841 2.53131e-09 0
0.111286 3.68997e-09 0
0.139014 8.07414e-08 0
0.162862 1.43152e-06 0
0.178063 1.59663e-05 0
0.191161 0.000135828 0
0.192141 0.000206123 0
0.1897 0.000191938 0
0.0233027 1.97942e-08 0
0.064352 6.55149e-09 0
0.0809086 4.33854e-09 0
0.0944245 3.09833e-09 0
0.111786 4.95233e-09 0
0.13942 1.08012e-07 0
0.162221 1.68882e-06 0
0.175123 1.34641e-05 0
0.186157 8.35437e-05 0
0.188571 0.000144329 0
0.187271 0.000149658 0
0.0242227 2.19133e-08 0
0.0661815 7.34513e-09 0
0.0822544 5.00846e-09 0
0.0953262 3.6663e-09 0
0.112471 6.55966e-09 0
0.13965 1.37274e-07 0
0.161244 1.83079e-06 0
0.172057 1.06738e-05 0
0.18123 4.9534e-05 0
0.185017 9.9473e-05 0
0.185019 0.000119247 0
0.0251707 2.47686e-08 0
0.0679609 8.46464e-09 0
0.0835984 5.95498e-09 0
0.096258 4.47954e-09 0
0.113145 9.00208e-09 0
0.139349 1.71615e-07 0
0.159548 1.85592e-06 0
0.168372 7.96706e-06 0
0.175855 2.82191e-05 0
0.180278 5.99944e-05 0
0.182048 8.87487e-05 0
0.0258205 2.91193e-08 0
0.0690924 1.02121e-08 0
0.0844083 7.39237e-09 0
0.0967536 5.70568e-09 0
0.113147 1.18324e-08 0
0.13775 1.92694e-07 0
0.156981 1.73222e-06 0
0.164528 5.95052e-06 0
0.171032 1.78728e-05 0
0.175303 3.63886e-05 0
0.178368 6.2575e-05 0
0.0257306 3.51657e-08 0
0.0689623 1.2625e-08 0
0.0842123 9.29489e-09 0
0.0964794 7.28611e-09 0
0.112289 1.38321e-08 0
0.135231 1.90692e-07 0
0.154139 1.63357e-06 0
0.161382 4.80401e-06 0
0.167608 1.36409e-05 0
0.171764 2.70874e-05 0
0.17531 4.9107e-05 0
0.0250289 4.24639e-08 0
0.0678911 1.55182e-08 0
0.0833001 1.14935e-08 0
0.0956659 9.06744e-09 0
0.110963 1.4681e-08 0
0.132641 1.78118e-07 0
0.151485 1.51884e-06 0
0.159076 4.21315e-06 0
0.165374 1.19894e-05 0
0.169612 2.40686e-05 0
0.173351 4.47124e-05 0
0.0242096 5.02969e-08 0
0.0666046 1.8662e-08 0
0.0822037 1.38507e-08 0
0.0946605 1.09707e-08 0
0.109492 1.4793e-08 0
0.130291 1.64335e-07 0
0.148993 1.39246e-06 0
0.157264 3.86739e-06 0
0.163744 1.11959e-05 0
0.168099 2.28686e-05 0
0.171955 4.32062e-05 0
0.0234378 5.86398e-08 0
0.0653158 2.21057e-08 0
0.081057 1.64317e-08 0
0.093527 1.30731e-08 0
0.107887 1.44015e-08 0
0.128053 1.50413e-07 0
0.146531 1.25804e-06 0
0.15557 3.68732e-06 0
0.162302 1.05906e-05 0
0.166749 2.19154e-05 0
0.170636 4.16151e-05 0
VERTICES 121 242
1 0
1 1
1 2
1 3
1 4
1 5
1 6
1 7
1 8
1 9
1 10
1 11
1 12
1 13
1 14
1 15
1 16
1 17
1 18
1 19
1 20
1 21
1 22
1 23
1 24
1 25
1 26
1 27
1 28
1 29
1 30
1 31
1 32
1 33
1 34
1 35
1 36
1 37
1 38
1 39
1 40
1 41
1 42
1 43
1 44
1 45
1 46
1 47
1 48
1 49
1 50
1 51
1 52
1 53
1 54
1 55
1 56
1 57
1 58
1 59
1 60
1 61
1 62
1 63
1 64
1 65
1 66
1 67
1 68
1 69
1 70
1 71
1 72
1 73
1 74
1 75
1 76
1 77
1 78
1 79
1 80
1 81
1 82
1 83
1 84
1 85
1 86
1 87
1 88
1 89
1 90
1 91
1 92
1 93
1 94
1 95
1 96
1 97
1 98
1 99
1 100
1 101
1 102
1 103
1 104
1 105
1 106
1 107
1 108
1 109
1 110
1 111
1 112
1 113
1 114
1 115
1 116
1 117
1 118
1 119
1 120
POINT_DATA 121
VECTORS velocity double
4.74726 7.30832 0
2.47728 5.23711 0
1.14937 3.85999 0
0.77974 3.09864 0
0.478055 2.66832 0
0.393942 3.12976 0
0.208698 3.11034 0
-0.313542 1.22507 0
-0.92732 -0.315535 0
-5.69549 6.49285 0
-8.55808 10.218 0
3.28785 1.59035 0
0.629006 0.400461 0
-0.0310036 -0.122423 0
0.196373 -0.513831 0
0.337995 -0.759349 0
0.3416 -0.483969 0
0.285749 -0.51549 0
0.181431 -1.44611 0
0.153995 -2.36705 0
-0.842869 -0.826265 0
-1.09482 0.0581483 0
2.25662 -2.36458 0
-0.574015 -2.767 0
-0.764921 -2.93178 0
-0.184524 -3.11477 0
0.253846 -3.25466 0
0.334591 -3.15497 0
0.391144 -3.17046 0
0.562775 -3.37286 0
0.803348 -3.62751 0
0.864675 -3.56819 0
1.15692 -3.57922 0
2.23963 -3.00539 0
-0.513601 -3.2795 0
-0.669668 -3.40962 0
-0.126074 -3.55538 0
0.302319 -3.66962 0
0.413175 -3.63548 0
0.478724 -3.64762 0
0.56604 -3.62659 0
0.689296 -3.63234 0
0.479518 -3.73951 0
0.509072 -3.8948 0
2.27896 -3.45951 0
-0.352981 -3.65688 0
-0.500661 -3.74398 0
-0.0374501 -3.84634 0
0.335709 -3.92472 0
0.477528 -3.91824 0
0.54619 -3.92018 0
0.503166 -3.77103 0
0.46528 -3.64994 0
-0.0654163 -3.82716 0
-0.303077 -4.10633 0
2.2553 -3.8166 0
-0.242929 -3.98737 0
-0.392459 -4.03328 0
-0.00102471 -4.08536 0
0.31884 -4.11488 0
0.484868 -4.09805 0
0.570436 -4.0908 0
0.463825 -3.92592 0
0.346214 -3.79066 0
-0.337693 -3.96217 0
-0.829801 -4.25461 0
2.07333 -4.06488 0
-0.253774 -4.24952 0
-0.396781 -4.25992 0
-0.0409833 -4.26598 0
0.252993 -4.25489 0
0.424864 -4.22115 0
0.536058 -4.20552 0
0.434691 -4.08219 0
0.309102 -3.97285 0
-0.364245 -4.13154 0
-1.00938 -4.39432 0
1.75768 -4.33826 0
-0.294598 -4.52766 0
-0.41966 -4.51288 0
-0.0967297 -4.48688 0
0.179066 -4.44985 0
0.355799 -4.39742 0
0.475261 -4.34292 0
0.366136 -4.27172 0
0.210951 -4.17695 0
-0.407679 -4.31562 0
-1.0683 -4.54782 0
1.37138 -4.77439 0
-0.31649 -4.92903 0
-0.424186 -4.89683 0
-0.158699 -4.84868 0
0.0847147 -4.79285 0
0.269231 -4.72197 0
0.405848 -4.63529 0
0.286239 -4.59379 0
0.104569 -4.50503 0
-0.468786 -4.59594 0
-1.10416 -4.76431 0
0.982045 -5.54152 0
-0.352284 -5.61713 0
-0.449393 -5.55764 0
-0.256011 -5.483 0
-0.0559251 -5.40082 0
0.1394 -5.3015 0
0.30327 -5.17893 0
0.20075 -5.14794 0
0.0215929 -5.0695 0
-0.531777 -5.09341 0
-1.1584 -5.16321 0
0.540893 -6.8333 0
-0.45341 -6.80506 0
-0.539407 -6.71596 0
-0.433314 -6.60893 0
-0.291618 -6.46175 0
-0.078744 -6.32301 0
0.137337 -6.11674 0
0.076823 -6.08571 0
-0.0620729 -6.03378 0
-0.596808 -5.96056 0
-1.21727 -5.89569 0
SCALARS mass double 1
LOOKUP_TABLE default
2.67769
2.67769
2.67769
2.67769
2.67769
2.67769
2.67769
2.67769
2.67769
2.67769
2.67769
2.67769
2.67769
2.67769
2.67769
2.67769
2.67769
2.67769
2.67769
2.67769
2.67769
2.67769
2.67769
2.67769
2.67769
2.67769
2.67769
2.67769
2.67769
2.67769
2.67769
2.67769
2.67769
2.67769
2.67769
2.67769
2.67769
2.67769
2.67769
2.67769
2.67769
2.67769
2.67769
2.67769
2.67769
2.67769
2.67769
2.67769
2.67769
2.67769
2.67769
2.67769
2.67769
2.67769
2.67769
2.67769
2.67769
2.67769
2.67769
2.67769
2.67769
2.67769
2.67769
2.67769
2.67769
2.67769
2.67769
2.67769
2.67769
2.67769
2.67769
2.67769
2.67769
2.67769
2.67769
2.67769
2.67769
2.67769
2.67769
2.67769
2.67769
2.67769
2.67769
2.67769
2.67769
2.67769
2.67769
2.67769
2.67769
2.67769
2.67769
2.67769
2.67769
2.67769
2.67769
2.67769
2.67769
2.67769
2.67769
2.67769
2.67769
2.67769
2.67769
2.67769
2.67769
2.67769
2.67769
2.67769
2.67769
2.67769
2.67769
2.67769
2.67769
2.67769
2.67769
2.67769
2.67769
2.67769
2.67769
2.67769
2.67769
SCALARS volume double 1
LOOKUP_TABLE default
3.18331e-10
1.35902e-10
5.38522e-11
3.10029e-11
5.20728e-11
8.93973e-10
1.54237e-08
5.05581e-07
9.89762e-06
7.69632e-06
1.43915e-06
3.69065e-10
1.21997e-10
3.52553e-11
2.29382e-11
5.1248e-11
1.00535e-09
1.36387e-08
2.38571e-07
1.80338e-06
9.51588e-07
3.80954e-07
1.7156e-10
4.36096e-11
1.51102e-11
1.13552e-11
3.36334e-11
7.52282e-10
8.03509e-09
9.41216e-08
4.4332e-07
2.06366e-07
7.5949e-08
1.4901e-10
3.48336e-11
1.27626e-11
1.00177e-11
3.47961e-11
7.93776e-10
6.55404e-09
5.34332e-08
2.16231e-07
1.24193e-07
4.91504e-08
1.6386e-10
3.59428e-11
1.37761e-11
1.11749e-11
4.50607e-11
9.92768e-10
6.15892e-09
3.59055e-08
1.15617e-07
1.03598e-07
4.2198e-08
2.45696e-10
4.94623e-11
1.9755e-11
1.62431e-11
7.43188e-11
1.5161e-09
6.53961e-09
2.66268e-08
6.37953e-08
9.03822e-08
5.73388e-08
3.3518e-10
6.22202e-11
2.49035e-11
2.06932e-11
9.35685e-11
1.63401e-09
5.36164e-09
1.64198e-08
3.32106e-08
5.38115e-08
5.32865e-08
3.94391e-10
7.02472e-11
2.82508e-11
2.30213e-11
8.88774e-11
1.29306e-09
4.21577e-09
1.04022e-08
1.99263e-08
3.189e-08
4.24681e-08
4.06138e-10
7.42793e-11
2.95137e-11
2.3885e-11
7.26393e-11
9.13635e-10
3.45603e-09
7.28552e-09
1.43073e-08
2.31927e-08
3.56867e-08
4.09934e-10
8.24868e-11
3.12664e-11
2.55569e-11
6.12604e-11
6.98179e-10
3.19046e-09
5.97437e-09
1.22058e-08
1.96234e-08
3.27782e-08
4.2147e-10
9.15698e-11
3.4262e-11
2.77167e-11
5.32637e-11
3.07469e-10
2.88289e-09
5.48053e-09
1.08286e-08
1.7789e-08
3.03844e-08
TENSORS stress double
5076.68 33502.3 0
33502.3 2463.82 0
0 0 0
5076.68 105759 0
105759 2126.57 0
0 0 0
5076.67 99211.4 0
99211.4 1766.01 0
0 0 0
5076.67 41501.3 0
41501.3 1403.73 0
0 0 0
5076.67 -16701.8 0
-16701.8 1981.43 0
0 0 0
5076.67 -79687.7 0
-79687.7 5080.87 0
0 0 0
5076.67 -143330 0
-143330 7827.35 0
0 0 0
5076.43 -217375 0
-217375 9271.02 0
0 0 0
5070.02 -273826 0
-273826 10600 0
0 0 0
5058.44 -226285 0
-226285 10150.9 0
0 0 0
5069.3 -180688 0
-180688 9477.61 0
0 0 0
5076.68 37106.3 0
37106.3 2413.64 0
0 0 0
5076.67 122930 0
122930 1986.47 0
0 0 0
5076.67 78361.7 0
78361.7 1642.51 0
0 0 0
5076.67 31974.1 0
31974.1 1360.3 0
0 0 0
5076.67 -16336 0
-16336 1913.7 0
0 0 0
5076.67 -82332.8 0
-82332.8 5158.47 0
0 0 0
5076.65 -141856 0
-141856 7843.38 0
0 0 0
5076.25 -203151 0
-203151 9018.91 0
0 0 0
5071.02 -243402 0
-243402 10043.4 0
0 0 0
5067.42 -186361 0
-186361 9997.88 0
0 0 0
5069.6 -154605 0
-154605 9673.95 0
0 0 0
5076.68 38574.8 0
38574.8 2368.11 0
0 0 0
5076.67 95976.9 0
95976.9 1848.18 0
0 0 0
5076.67 57664.1 0
57664.1 1564.28 0
0 0 0
5076.67 23767 0
23767 1331.05 0
0 0 0
5076.67 -14392.3 0
-14392.3 1867.1 0
0 0 0
5076.67 -84661.8 0
-84661.8 5226.83 0
0 0 0
5076.64 -140175 0
-140175 7833.02 0
0 0 0
5076.25 -192163 0
-192163 8807.22 0
0 0 0
5073.08 -225066 0
-225066 9642.92 0
0 0 0
5071.23 -170960 0
-170960 9703.42 0
0 0 0
5071.6 -122117 0
-122117 9547.32 0
0 0 0
5076.68 41496.3 0
41496.3 2354.91 0
0 0 0
5076.67 89977.5 0
89977.5 1810.04 0
0 0 0
5076.67 53759.1 0
53759.1 1537.82 0
0 0 0
5076.67 22873.3 0
22873.3 1315.59 0
0 0 0
5076.67 -13771.5 0
-13771.5 1927.77 0
0 0 0
5076.67 -85679.8 0
-85679.8 5276.07 0
0 0 0
5076.63 -135447 0
-135447 7791.88 0
0 0 0
5076.32 -180903 0
-180903 8618.79 0
0 0 0
5074.46 -217561 0
-217561 9323.86 0
0 0 0
5072.85 -175647 0
-175647 9476.55 0
0 0 0
5072.71 -125002 0
-125002 9393.01 0
0 0 0
5076.68 44923.2 0
44923.2 2343.86 0
0 0 0
5076.67 86261.4 0
86261.4 1779.96 0
0 0 0
5076.67 51532.4 0
51532.4 1515.69 0
0 0 0
5076.67 22435.7 0
22435.7 1300.76 0
0 0 0
5076.67 -14201.3 0
-14201.3 2010.73 0
0 0 0
5076.67 -86185.2 0
-86185.2 5303.85 0
0 0 0
5076.63 -129486 0
-129486 7729.26 0
0 0 0
5076.39 -167823 0
-167823 8422.26 0
0 0 0
5075.36 -202664 0
-202664 9009.13 0
0 0 0
5074.03 -186739 0
-186739 9250.25 0
0 0 0
5073.51 -129566 0
-129566 9249.68 0
0 0 0
5076.68 48132.7 0
48132.7 2332.48 0
0 0 0
5076.67 81820.7 0
81820.7 1750.7 0
0 0 0
5076.67 48076.8 0
48076.8 1493.59 0
0 0 0
5076.67 21363.9 0
21363.9 1285.44 0
0 0 0
5076.67 -15052.8 0
-15052.8 2092.37 0
0 0 0
5076.66 -85788.1 0
-85788.1 5267.44 0
0 0 0
5076.62 -122025 0
-122025 7620.5 0
0 0 0
5076.46 -150698 0
-150698 8186.08 0
0 0 0
5075.92 -177410 0
-177410 8665.17 0
0 0 0
5075.08 -186219 0
-186219 8947.72 0
0 0 0
5074.31 -146614 0
-146614 9060.24 0
0 0 0
5076.68 49763.5 0
49763.5 2324.68 0
0 0 0
5076.67 75998 0
75998 1732.1 0
0 0 0
5076.67 44604.3 0
44604.3 1480.28 0
0 0 0
5076.67 20383.6 0
20383.6 1277.3 0
0 0 0
5076.67 -14258.3 0
-14258.3 2092.65 0
0 0 0
5076.66 -81416.5 0
-81416.5 5073.72 0
0 0 0
5076.56 -114216 0
-114216 7403.75 0
0 0 0
5076.51 -133043 0
-133043 7939.66 0
0 0 0
5076.2 -152223 0
-152223 8356.29 0
0 0 0
5075.7 -167921 0
-167921 8629.51 0
0 0 0
5075.01 -148653 0
-148653 8825.14 0
0 0 0
5076.68 48890.7 0
48890.7 2325.75 0
0 0 0
5076.67 73019.4 0
73019.4 1734.24 0
0 0 0
5076.67 43057.5 0
43057.5 1483.5 0
0 0 0
5076.67 20743.1 0
20743.1 1281.8 0
0 0 0
5076.67 -10839.4 0
-10839.4 1988.66 0
0 0 0
5076.66 -73069.2 0
-73069.2 4768.45 0
0 0 0
5076.57 -110243 0
-110243 7059.4 0
0 0 0
5076.55 -118455 0
-118455 7738.01 0
0 0 0
5076.31 -133795 0
-133795 8136.9 0
0 0 0
5075.95 -147439 0
-147439 8402.92 0
0 0 0
5075.36 -141354 0
-141354 8629.55 0
0 0 0
5076.68 46587.7 0
46587.7 2334.18 0
0 0 0
5076.67 72737.6 0
72737.6 1751.85 0
0 0 0
5076.67 44048.9 0
44048.9 1498.5 0
0 0 0
5076.67 22224.1 0
22224.1 1295.18 0
0 0 0
5076.67 -5989.72 0
-5989.72 1828 0
0 0 0
5076.66 -63822.3 0
-63822.3 4454.66 0
0 0 0
5076.57 -107533 0
-107533 6737.86 0
0 0 0
5076.56 -108469 0
-108469 7590.18 0
0 0 0
5076.35 -122223 0
-122223 7993.71 0
0 0 0
5076.03 -133857 0
-133857 8265.01 0
0 0 0
5075.48 -136012 0
-136012 8504.03 0
0 0 0
5076.68 44803.6 0
44803.6 2344.02 0
0 0 0
5076.67 73795.5 0
73795.5 1773.01 0
0 0 0
5076.67 46649.4 0
46649.4 1516.52 0
0 0 0
5076.67 24271.8 0
24271.8 1311.71 0
0 0 0
5076.67 -841.096 0
-841.096 1649.78 0
0 0 0
5076.66 -55415.4 0
-55415.4 4169.97 0
0 0 0
5076.58 -106348 0
-106348 6435.9 0
0 0 0
5076.42 -102416 0
-102416 7438 0
0 0 0
5076.37 -114569 0
-114569 7889.23 0
0 0 0
5076.06 -126547 0
-126547 8168.06 0
0 0 0
5075.52 -134554 0
-134554 8414.6 0
0 0 0
5076.68 43042.7 0
43042.7 2353.28 0
0 0 0
5076.67 74575.9 0
74575.9 1794.2 0
0 0 0
5076.67 47523.4 0
47523.4 1535.38 0
0 0 0
5076.67 25761.8 0
25761.8 1330.35 0
0 0 0
5076.67 4108.98 0
4108.98 1455.3 0
0 0 0
5076.66 -49152 0
-49152 3898.75 0
0 0 0
5076.59 -99945.6 0
-99945.6 6137.64 0
0 0 0
5076.43 -100129 0
-100129 7232.72 0
0 0 0
5076.39 -109030 0
-109030 7796.77 0
0 0 0
5076.09 -120602 0
-120602 8081.53 0
0 0 0
5075.56 -130703 0
-130703 8330.07 0
0 0 0
TENSORS strain double
0.129853 0.335023 0
0.335023 -14.3558 0
0 0 0
0.120967 1.05759 0
1.05759 -15.1517 0
0 0 0
-0.123147 0.992114 0
0.992114 -15.7898 0
0 0 0
-0.118155 0.415013 0
0.415013 -16.3124 0
0 0 0
0.0234034 -0.167018 0
-0.167018 -15.9707 0
0 0 0
0.0229908 -0.796877 0
-0.796877 -13.3087 0
0 0 0
-0.0868228 -1.4333 0
-1.4333 -10.4827 0
0 0 0
-0.0930925 -2.17375 0
-2.17375 -7.10022 0
0 0 0
-0.418444 -2.73826 0
-2.73826 -3.85518 0
0 0 0
-1.65599 -2.26285 0
-2.26285 -2.85776 0
0 0 0
-2.40641 -1.80688 0
-1.80688 -3.72955 0
0 0 0
0.387777 0.371063 0
0.371063 -14.4626 0
0 0 0
0.319544 1.2293 0
1.2293 -15.4405 0
0 0 0
-0.367003 0.783617 0
0.783617 -15.9539 0
0 0 0
-0.353705 0.319741 0
0.319741 -16.3698 0
0 0 0
0.070227 -0.16336 0
-0.16336 -16.0288 0
0 0 0
0.0689425 -0.823328 0
-0.823328 -13.2411 0
0 0 0
-0.261314 -1.41856 0
-1.41856 -10.4289 0
0 0 0
-0.276147 -2.03151 0
-2.03151 -7.64945 0
0 0 0
-0.847661 -2.43402 0
-2.43402 -5.10719 0
0 0 0
-1.94903 -1.86361 0
-1.86361 -4.62166 0
0 0 0
-2.57133 -1.54605 0
-1.54605 -4.88521 0
0 0 0
0.575677 0.385748 0
0.385748 -15.4091 0
0 0 0
0.14753 0.959769 0
0.959769 -16.2729 0
0 0 0
-0.554406 0.576641 0
0.576641 -16.5963 0
0 0 0
-0.53901 0.23767 0
0.23767 -16.8759 0
0 0 0
0.105981 -0.143923 0
-0.143923 -16.4803 0
0 0 0
0.104174 -0.846618 0
-0.846618 -13.5676 0
0 0 0
-0.422397 -1.40175 0
-1.40175 -10.7896 0
0 0 0
-0.444307 -1.92163 0
-1.92163 -8.39167 0
0 0 0
-1.0779 -2.25066 0
-2.25066 -6.25416 0
0 0 0
-2.01086 -1.7096 0
-1.7096 -6.06341 0
0 0 0
-2.58278 -1.22117 0
-1.22117 -6.45548 0
0 0 0
0.624235 0.414963 0
0.414963 -15.5965 0
0 0 0
0.0908804 0.899775 0
0.899775 -16.4345 0
0 0 0
-0.604422 0.537591 0
0.537591 -16.7093 0
0 0 0
-0.592859 0.228733 0
0.228733 -16.943 0
0 0 0
0.102789 -0.137715 0
-0.137715 -16.4468 0
0 0 0
0.101483 -0.856798 0
-0.856798 -13.5135 0
0 0 0
-0.560622 -1.35447 0
-1.35447 -10.8482 0
0 0 0
-0.592489 -1.80903 0
-1.80903 -8.79281 0
0 0 0
-1.06223 -2.17561 0
-2.17561 -6.97066 0
0 0 0
-1.90355 -1.75647 0
-1.75647 -6.66833 0
0 0 0
-2.47804 -1.25002 0
-1.25002 -6.98427 0
0 0 0
0.663164 0.449232 0
0.449232 -15.5396 0
0 0 0
0.0443083 0.862614 0
0.862614 -16.3523 0
0 0 0
-0.641268 0.515324 0
0.515324 -16.5933 0
0 0 0
-0.633226 0.224357 0
0.224357 -16.7917 0
0 0 0
0.0862955 -0.142013 0
-0.142013 -16.1784 0
0 0 0
0.0849999 -0.861852 0
-0.861852 -13.2757 0
0 0 0
-0.709096 -1.29486 0
-1.29486 -10.7546 0
0 0 0
-0.750124 -1.67823 0
-1.67823 -9.01588 0
0 0 0
-1.13267 -2.02664 0
-2.02664 -7.50701 0
0 0 0
-1.73499 -1.86739 0
-1.86739 -7.01435 0
0 0 0
-2.3863 -1.29566 0
-1.29566 -7.22178 0
0 0 0
0.701787 0.481327 0
0.481327 -15.1743 0
0 0 0
-0.0113369 0.818207 0
0.818207 -15.9742 0
0 0 0
-0.677616 0.480768 0
0.480768 -16.1976 0
0 0 0
-0.674014 0.213639 0
0.213639 -16.3787 0
0 0 0
0.0511968 -0.150528 0
-0.150528 -15.6511 0
0 0 0
0.0487211 -0.857881 0
-0.857881 -12.8174 0
0 0 0
-0.88283 -1.22025 0
-1.22025 -10.5116 0
0 0 0
-0.928497 -1.50698 0
-1.50698 -9.11757 0
0 0 0
-1.28385 -1.7741 0
-1.7741 -7.92751 0
0 0 0
-1.59659 -1.86219 0
-1.86219 -7.28142 0
0 0 0
-2.10651 -1.46614 0
-1.46614 -7.20773 0
0 0 0
0.727448 0.497635 0
0.497635 -14.8913 0
0 0 0
-0.034854 0.75998 0
0.75998 -15.7194 0
0 0 0
-0.70429 0.446043 0
0.446043 -15.9403 0
0 0 0
-0.704363 0.203836 0
0.203836 -16.1078 0
0 0 0
-0.00697114 -0.142583 0
-0.142583 -15.3648 0
0 0 0
-0.0123863 -0.814165 0
-0.814165 -12.6747 0
0 0 0
-1.01536 -1.14216 0
-1.14216 -10.5635 0
0 0 0
-1.06862 -1.33043 0
-1.33043 -9.43842 0
0 0 0
-1.39941 -1.52223 0
-1.52223 -8.43944 0
0 0 0
-1.58472 -1.67921 0
-1.67921 -7.79197 0
0 0 0
-1.91844 -1.48653 0
-1.48653 -7.46681 0
0 0 0
0.723962 0.488907 0
0.488907 -14.7283 0
0 0 0
-0.0447554 0.730194 0
0.730194 -15.5894 0
0 0 0
-0.708174 0.430575 0
0.430575 -15.8122 0
0 0 0
-0.709818 0.207431 0
0.207431 -15.9975 0
0 0 0
-0.0695888 -0.108394 0
-0.108394 -15.3484 0
0 0 0
-0.0781095 -0.730692 0
-0.730692 -12.8299 0
0 0 0
-1.02518 -1.10243 0
-1.10243 -10.7839 0
0 0 0
-1.12893 -1.18455 0
-1.18455 -9.81543 0
0 0 0
-1.42848 -1.33795 0
-1.33795 -8.90132 0
0 0 0
-1.60279 -1.47439 0
-1.47439 -8.27759 0
0 0 0
-1.79296 -1.41354 0
-1.41354 -7.81005 0
0 0 0
0.696173 0.465877 0
0.465877 -14.6751 0
0 0 0
-0.0317138 0.727376 0
0.727376 -15.5508 0
0 0 0
-0.696878 0.440489 0
0.440489 -15.7825 0
0 0 0
-0.699304 0.222241 0
0.222241 -15.9737 0
0 0 0
-0.119766 -0.0598972 0
-0.0598972 -15.4902 0
0 0 0
-0.130278 -0.638223 0
-0.638223 -13.1101 0
0 0 0
-0.948669 -1.07533 0
-1.07533 -11.0529 0
0 0 0
-1.12964 -1.08469 0
-1.08469 -10.1567 0
0 0 0
-1.40373 -1.22223 0
-1.22223 -9.24472 0
0 0 0
-1.57602 -1.33857 0
-1.33857 -8.61094 0
0 0 0
-1.68135 -1.36012 0
-1.36012 -8.08898 0
0 0 0
0.662719 0.448036 0
0.448036 -14.6357 0
0 0 0
0.00308115 0.737955 0
0.737955 -15.4864 0
0 0 0
-0.686538 0.466494 0
0.466494 -15.7379 0
0 0 0
-0.689545 0.242718 0
0.242718 -15.9192 0
0 0 0
-0.155684 -0.00841096 0
-0.00841096 -15.6138 0
0 0 0
-0.167487 -0.554154 0
-0.554154 -13.3282 0
0 0 0
-0.803856 -1.06348 0
-1.06348 -11.2725 0
0 0 0
-1.10241 -1.02416 0
-1.02416 -10.3734 0
0 0 0
-1.36497 -1.14569 0
-1.14569 -9.43501 0
0 0 0
-1.54532 -1.26547 0
-1.26547 -8.80162 0
0 0 0
-1.61661 -1.34554 0
-1.34554 -8.2349 0
0 0 0
0.630158 0.430427 0
0.430427 -14.5782 0
0 0 0
0.0332665 0.745759 0
0.745759 -15.4171 0
0 0 0
-0.681231 0.475234 0
0.475234 -15.6556 0
0 0 0
-0.683716 0.257618 0
0.257618 -15.8472 0
0 0 0
-0.180891 0.0410898 0
0.0410898 -15.7163 0
0 0 0
-0.193532 -0.49152 0
-0.49152 -13.9453 0
0 0 0
-0.702651 -0.999456 0
-0.999456 -11.4671 0
0 0 0
-1.0522 -1.00129 0
-1.00129 -10.5054 0
0 0 0
-1.33598 -1.0903 0
-1.0903 -9.57722 0
0 0 0
-1.52518 -1.20602 0
-1.20602 -8.91473 0
0 0 0
-1.58418 -1.30703 0
-1.30703 -8.33953 0
0 0 0
