# vtk DataFile Version 3.0
MPM2D particles
ASCII
DATASET POLYDATA
POINTS 121 double
0.0142149 0.000352938 0
0.042281 0.000277131 0
0.0670035 0.000232344 0
0.0890575 0.000204645 0
0.112238 0.00019028 0
0.137835 0.000204569 0
0.162834 0.000247999 0
0.18556 0.00045469 0
0.207547 0.000840769 0
0.205191 0.00450261 0
0.194353 0.00751185 0
0.0183458 0.00103335 0
0.0534917 0.000777134 0
0.0744836 0.000677062 0
0.0916933 0.000607845 0
0.111697 0.000569957 0
0.138528 0.000615339 0
0.163211 0.000760245 0
0.182006 0.00126883 0
0.199652 0.00208139 0
0.200528 0.00348848 0
0.195986 0.00506029 0
0.0220845 0.00155775 0
0.0618748 0.0011759 0
0.0792292 0.00105164 0
0.093471 0.000961373 0
0.111327 0.000910654 0
0.139142 0.000988361 0
0.163166 0.00123384 0
0.178923 0.00192694 0
0.193478 0.00294092 0
0.195351 0.00381935 0
0.193356 0.00481116 0
0.0231584 0.00180766 0
0.0641761 0.00140839 0
0.0808304 0.00128853 0
0.0944123 0.00119858 0
0.11184 0.00115691 0
0.139586 0.00126569 0
0.1626 0.00157953 0
0.176067 0.00236489 0
0.188343 0.00345493 0
0.191616 0.00426624 0
0.190789 0.00516207 0
0.0240537 0.00204081 0
0.0659889 0.0016363 0
0.0821695 0.0015271 0
0.0953163 0.00144354 0
0.11254 0.00142165 0
0.139857 0.00156933 0
0.161693 0.00194074 0
0.173044 0.00277799 0
0.183232 0.00387759 0
0.187879 0.00467705 0
0.188435 0.00552226 0
0.0249686 0.00235378 0
0.0677447 0.00195222 0
0.0835042 0.00186398 0
0.0962518 0.0017962 0
0.113236 0.00181218 0
0.139614 0.00202557 0
0.160077 0.00244763 0
0.169401 0.00333044 0
0.177703 0.00442717 0
0.182909 0.00522995 0
0.185359 0.00605419 0
0.0255739 0.00280567 0
0.068836 0.00240766 0
0.0842965 0.00235076 0
0.0967498 0.00231015 0
0.113267 0.00238112 0
0.13809 0.00269848 0
0.157598 0.00313236 0
0.165617 0.00408233 0
0.172846 0.00522507 0
0.177804 0.00604637 0
0.181619 0.00688322 0
0.0254347 0.00338141 0
0.0686444 0.00296876 0
0.08407 0.00294434 0
0.0964716 0.00293424 0
0.112436 0.00305742 0
0.135642 0.0034985 0
0.15488 0.00398658 0
0.16255 0.00494596 0
0.169499 0.00619793 0
0.174334 0.00710106 0
0.178677 0.00800586 0
0.0246865 0.00402204 0
0.0674929 0.00357327 0
0.0831146 0.00357625 0
0.0956456 0.00359388 0
0.11113 0.00375217 0
0.133112 0.00431628 0
0.152348 0.00490698 0
0.160335 0.00584175 0
0.167411 0.00725597 0
0.172392 0.00830412 0
0.177016 0.00934153 0
0.0238239 0.00468086 0
0.0661158 0.00419019 0
0.081967 0.0042181 0
0.0946205 0.00426342 0
0.109672 0.00444248 0
0.130813 0.00512875 0
0.149969 0.00585812 0
0.158618 0.00674609 0
0.165951 0.00834632 0
0.171134 0.00955529 0
0.175979 0.0107446 0
0.0230095 0.00536757 0
0.0647257 0.00483957 0
0.0807607 0.00489289 0
0.0934595 0.00496884 0
0.108074 0.00515851 0
0.12862 0.00597658 0
0.147615 0.00687354 0
0.157058 0.00770674 0
0.164682 0.00949375 0
0.170041 0.0108618 0
0.175011 0.0122041 0
VERTICES 121 242
1 0
1 1
1 2
1 3
1 4
1 5
1 6
1 7
1 8
1 9
1 10
1 11
1 12
1 13
1 14
1 15
1 16
1 17
1 18
1 19
1 20
1 21
1 22
1 23
1 24
1 25
1 26
1 27
1 28
1 29
1 30
1 31
1 32
1 33
1 34
1 35
1 36
1 37
1 38
1 39
1 40
1 41
1 42
1 43
1 44
1 45
1 46
1 47
1 48
1 49
1 50
1 51
1 52
1 53
1 54
1 55
1 56
1 57
1 58
1 59
1 60
1 61
1 62
1 63
1 64
1 65
1 66
1 67
1 68
1 69
1 70
1 71
1 72
1 73
1 74
1 75
1 76
1 77
1 78
1 79
1 80
1 81
1 82
1 83
1 84
1 85
1 86
1 87
1 88
1 89
1 90
1 91
1 92
1 93
1 94
1 95
1 96
1 97
1 98
1 99
1 100
1 101
1 102
1 103
1 104
1 105
1 106
1 107
1 108
1 109
1 110
1 111
1 112
1 113
1 114
1 115
1 116
1 117
1 118
1 119
1 120
POINT_DATA 121
VECTORS velocity double
5.26153 8.79832 0
3.03046 6.77818 0
1.52866 5.43245 0
0.871216 4.6905 0
0.335729 4.28942 0
0.168958 4.80559 0
-0.0638494 4.77373 0
-0.517322 2.63418 0
-1.2397 0.864032 0
-6.50741 7.78178 0
-9.16535 11.6331 0
3.81934 3.09349 0
1.19153 1.96548 0
0.254036 1.45982 0
0.254906 1.08282 0
0.197318 0.862488 0
0.113209 1.19488 0
0.00985571 1.14663 0
-0.056548 0.0112067 0
-0.216774 -1.08179 0
-1.36927 0.477621 0
-1.61896 1.42586 0
2.80196 -0.850238 0
-0.117827 -1.19171 0
-0.5399 -1.34291 0
-0.148224 -1.51446 0
0.114294 -1.6319 0
0.103102 -1.47343 0
0.110811 -1.50506 0
0.304682 -1.87566 0
0.44925 -2.2687 0
0.429555 -2.21374 0
0.701208 -2.19269 0
2.79055 -1.487 0
-0.0856578 -1.70051 0
-0.464419 -1.81782 0
-0.101514 -1.95288 0
0.161015 -2.04455 0
0.179392 -1.95198 0
0.1937 -1.97394 0
0.296711 -2.09478 0
0.357032 -2.21661 0
0.0778798 -2.34472 0
0.0786412 -2.48091 0
2.83491 -1.93755 0
0.052958 -2.07469 0
-0.311852 -2.1495 0
-0.0242117 -2.24165 0
0.192009 -2.29687 0
0.241933 -2.23306 0
0.255666 -2.23441 0
0.224312 -2.20347 0
0.148162 -2.17866 0
-0.441052 -2.39242 0
-0.715839 -2.66688 0
2.8176 -2.29036 0
0.142375 -2.40142 0
-0.219651 -2.43551 0
0.000642375 -2.47784 0
0.172677 -2.48366 0
0.248754 -2.41168 0
0.271886 -2.38451 0
0.173826 -2.31538 0
0.0342888 -2.25836 0
-0.690542 -2.47407 0
-1.22574 -2.78117 0
2.6438 -2.53379 0
0.120852 -2.65934 0
-0.232081 -2.65836 0
-0.0447549 -2.65509 0
0.106511 -2.62079 0
0.192152 -2.53535 0
0.231107 -2.47939 0
0.132421 -2.42646 0
-0.00754863 -2.38473 0
-0.708437 -2.5864 0
-1.39391 -2.87808 0
2.33736 -2.8027 0
0.0875975 -2.93347 0
-0.248789 -2.90764 0
-0.0952162 -2.87259 0
0.0352041 -2.8141 0
0.12971 -2.71342 0
0.176213 -2.61965 0
0.053016 -2.57847 0
-0.114357 -2.54796 0
-0.756304 -2.72819 0
-1.45465 -2.99434 0
1.96056 -3.23497 0
0.0870032 -3.33116 0
-0.236816 -3.28815 0
-0.144184 -3.23115 0
-0.0547732 -3.15624 0
0.0504262 -3.03966 0
0.112311 -2.91408 0
-0.0355906 -2.87244 0
-0.229921 -2.84812 0
-0.827477 -2.9809 0
-1.50248 -3.18462 0
1.58093 -3.99833 0
0.0761129 -4.01555 0
-0.242512 -3.9455 0
-0.225451 -3.86223 0
-0.190359 -3.76358 0
-0.0725748 -3.62029 0
0.0151011 -3.45916 0
-0.127314 -3.4102 0
-0.321501 -3.39136 0
-0.901417 -3.45767 0
-1.57126 -3.56325 0
1.15004 -5.28604 0
0.00079417 -5.19943 0
-0.311652 -5.10011 0
-0.38438 -4.98471 0
-0.420341 -4.82395 0
-0.284005 -4.64236 0
-0.145263 -4.39792 0
-0.249897 -4.34766 0
-0.413181 -4.33644 0
-0.97686 -4.30587 0
-1.64357 -4.27628 0
SCALARS mass double 1
LOOKUP_TABLE default
2.67769
2.67769
2.67769
2.67769
2.67769
2.67769
2.67769
2.67769
2.67769
2.67769
2.67769
2.67769
2.67769
2.67769
2.67769
2.67769
2.67769
2.67769
2.67769
2.67769
2.67769
2.67769
2.67769
2.67769
2.67769
2.67769
2.67769
2.67769
2.67769
2.67769
2.67769
2.67769
2.67769
2.67769
2.67769
2.67769
2.67769
2.67769
2.67769
2.67769
2.67769
2.67769
2.67769
2.67769
2.67769
2.67769
2.67769
2.67769
2.67769
2.67769
2.67769
2.67769
2.67769
2.67769
2.67769
2.67769
2.67769
2.67769
2.67769
2.67769
2.67769
2.67769
2.67769
2.67769
2.67769
2.67769
2.67769
2.67769
2.67769
2.67769
2.67769
2.67769
2.67769
2.67769
2.67769
2.67769
2.67769
2.67769
2.67769
2.67769
2.67769
2.67769
2.67769
2.67769
2.67769
2.67769
2.67769
2.67769
2.67769
2.67769
2.67769
2.67769
2.67769
2.67769
2.67769
2.67769
2.67769
2.67769
2.67769
2.67769
2.67769
2.67769
2.67769
2.67769
2.67769
2.67769
2.67769
2.67769
2.67769
2.67769
2.67769
2.67769
2.67769
2.67769
2.67769
2.67769
2.67769
2.67769
2.67769
2.67769
2.67769
SCALARS volume double 1
LOOKUP_TABLE default
2.39273e-05
1.86265e-05
1.22111e-05
1.08083e-05
1.15965e-05
1.24635e-05
1.35214e-05
2.46996e-05
3.31984e-05
5.33094e-05
4.19544e-05
3.02509e-05
2.13476e-05
9.27172e-06
8.43391e-06
1.21455e-05
1.31004e-05
1.15891e-05
1.91712e-05
1.79465e-05
9.87197e-06
7.61532e-06
1.52179e-05
9.00324e-06
4.36699e-06
4.32879e-06
8.32148e-06
9.23669e-06
6.97879e-06
1.15329e-05
9.90219e-06
3.98783e-06
2.00124e-06
1.35189e-05
7.53081e-06
3.80976e-06
3.89341e-06
8.15492e-06
9.33774e-06
6.18983e-06
9.55281e-06
9.2366e-06
3.8313e-06
1.78299e-06
1.51478e-05
8.05986e-06
4.22576e-06
4.42468e-06
9.80464e-06
1.14043e-05
6.60637e-06
9.5315e-06
9.35183e-06
5.08544e-06
2.0568e-06
2.31504e-05
1.14972e-05
6.22908e-06
6.55871e-06
1.50368e-05
1.80062e-05
8.75133e-06
1.13832e-05
1.03527e-05
8.23014e-06
4.1229e-06
3.19687e-05
1.48114e-05
7.99281e-06
8.45381e-06
1.89553e-05
2.30718e-05
9.7969e-06
1.15621e-05
1.00736e-05
9.36222e-06
6.19711e-06
3.7462e-05
1.6716e-05
9.05322e-06
9.37721e-06
1.98136e-05
2.39751e-05
1.04235e-05
1.1039e-05
9.43791e-06
8.79732e-06
7.36169e-06
3.79114e-05
1.73504e-05
9.31358e-06
9.59986e-06
1.87595e-05
2.24277e-05
1.13444e-05
1.04592e-05
9.07702e-06
8.47759e-06
7.99192e-06
3.75078e-05
1.88349e-05
9.68156e-06
1.00979e-05
1.86244e-05
2.21237e-05
1.36766e-05
1.07714e-05
9.59565e-06
8.75068e-06
8.81511e-06
3.78338e-05
2.04411e-05
1.04012e-05
1.07403e-05
1.93513e-05
1.2434e-05
1.60981e-05
1.17503e-05
1.03006e-05
9.48121e-06
9.72345e-06
TENSORS stress double
5077.1 11523.2 0
11523.2 5021.14 0
0 0 0
5077.01 40322.6 0
40322.6 4746.07 0
0 0 0
5066.79 38466.7 0
38466.7 4548.03 0
0 0 0
5067.95 12383.5 0
12383.5 4399.9 0
0 0 0
5070.2 -6423.96 0
-6423.96 4386.73 0
0 0 0
5069.74 -9981.06 0
-9981.06 4738.07 0
0 0 0
5064.74 -17389.1 0
-17389.1 5293.7 0
0 0 0
5055.09 -46931 0
-46931 6581.06 0
0 0 0
5037.28 -62362.9 0
-62362.9 7820.34 0
0 0 0
4865.41 -31642 0
-31642 7558.45 0
0 0 0
4721.98 -9507.01 0
-9507.01 6833.21 0
0 0 0
5077.91 8737.58 0
8737.58 4954.92 0
0 0 0
5043.64 42958.4 0
42958.4 4619.1 0
0 0 0
5047.85 28421 0
28421 4480.81 0
0 0 0
5050.76 6672.59 0
6672.59 4366.97 0
0 0 0
5057.27 -7414.91 0
-7414.91 4365.07 0
0 0 0
5055.81 -11204.3 0
-11204.3 4732.31 0
0 0 0
5040.11 -15727.8 0
-15727.8 5296.54 0
0 0 0
5016.32 -41093.7 0
-41093.7 6349.48 0
0 0 0
4978.69 -50306.4 0
-50306.4 7326.92 0
0 0 0
4912.54 4204.64 0
4204.64 7327.61 0
0 0 0
4837.96 24615.3 0
24615.3 7012.96 0
0 0 0
5078.54 4400.29 0
4400.29 4898.39 0
0 0 0
5026.65 28097.4 0
28097.4 4547.49 0
0 0 0
5031.88 14574.7 0
14574.7 4434.69 0
0 0 0
5035.69 1040.24 0
1040.24 4341.69 0
0 0 0
5045.67 -6416.76 0
-6416.76 4347.23 0
0 0 0
5043.16 -12282.8 0
-12282.8 4726.86 0
0 0 0
5017.32 -14652.5 0
-14652.5 5276.68 0
0 0 0
4984.85 -37096.6 0
-37096.6 6150.12 0
0 0 0
4937.73 -45079 0
-45079 6944.42 0
0 0 0
4896.43 10184.6 0
10184.6 7020.41 0
0 0 0
4849.36 53420.7 0
53420.7 6871.46 0
0 0 0
5078.84 5649.61 0
5649.61 4878.45 0
0 0 0
5016.75 25439.3 0
25439.3 4523.23 0
0 0 0
5021.79 12992.9 0
12992.9 4414.99 0
0 0 0
5025.57 1511.27 0
1511.27 4326.43 0
0 0 0
5037.29 -4670.32 0
-4670.32 4345.07 0
0 0 0
5033.76 -12401.5 0
-12401.5 4722.65 0
0 0 0
5000.67 -11400.1 0
-11400.1 5231.83 0
0 0 0
4963.79 -31931.5 0
-31931.5 5971.5 0
0 0 0
4912.95 -47784.7 0
-47784.7 6633.14 0
0 0 0
4874.9 -1836.11 0
-1836.11 6791.31 0
0 0 0
4832.41 45538 0
45538 6712.38 0
0 0 0
5079.12 7679.96 0
7679.96 4860.91 0
0 0 0
5007.05 24360.9 0
24360.9 4502.45 0
0 0 0
5011.62 12711.8 0
12711.8 4397 0
0 0 0
5015.12 2383.53 0
2383.53 4311.13 0
0 0 0
5028.28 -3550.05 0
-3550.05 4344.79 0
0 0 0
5023.47 -12423.4 0
-12423.4 4715.06 0
0 0 0
4983.24 -7583.61 0
-7583.61 5166.93 0
0 0 0
4943.83 -25160.2 0
-25160.2 5784.13 0
0 0 0
4892.37 -42830.2 0
-42830.2 6326.25 0
0 0 0
4854.98 -20164.6 0
-20164.6 6563.24 0
0 0 0
4815.01 36328.1 0
36328.1 6565.06 0
0 0 0
5079.49 9458.75 0
9458.75 4840.2 0
0 0 0
4993.59 22490.3 0
22490.3 4478.76 0
0 0 0
4997.26 11205 0
11205 4375.35 0
0 0 0
5000.08 2671.78 0
2671.78 4291.58 0
0 0 0
5015 -2896.06 0
-2896.06 4339.75 0
0 0 0
5008 -12797.9 0
-12797.9 4694.75 0
0 0 0
4958.72 -3766.18 0
-3766.18 5056.25 0
0 0 0
4917.07 -15632.2 0
-15632.2 5556.25 0
0 0 0
4865.56 -28457.6 0
-28457.6 5990.8 0
0 0 0
4828.04 -29262.7 0
-29262.7 6259.58 0
0 0 0
4789.28 13126.8 0
13126.8 6370.27 0
0 0 0
5080.03 10135.8 0
10135.8 4817.39 0
0 0 0
4974.2 18313.8 0
18313.8 4454.35 0
0 0 0
4976.51 8922.67 0
8922.67 4351.76 0
0 0 0
4978.15 2435.21 0
2435.21 4268.94 0
0 0 0
4995.63 -2183.38 0
-2183.38 4318.89 0
0 0 0
4985.17 -12248.1 0
-12248.1 4648.71 0
0 0 0
4970.75 -459.667 0
-459.667 4901.17 0
0 0 0
4880.59 -5986.8 0
-5986.8 5312.87 0
0 0 0
4826.79 -13209.9 0
-13209.9 5684.53 0
0 0 0
4788.36 -21193.7 0
-21193.7 5938.51 0
0 0 0
4749.2 3372.32 0
3372.32 6126.73 0
0 0 0
5080.72 9466.86 0
9466.86 4797.34 0
0 0 0
4950.32 15174.2 0
15174.2 4434.68 0
0 0 0
4951.22 7127.07 0
7127.07 4331.08 0
0 0 0
4951.54 2439.59 0
2439.59 4247.43 0
0 0 0
4972.6 -861.28 0
-861.28 4282.13 0
0 0 0
4957.99 -9880.33 0
-9880.33 4585.21 0
0 0 0
4941.81 -3229.1 0
-3229.1 4832.04 0
0 0 0
4838.67 1920.76 0
1920.76 5106.18 0
0 0 0
4779.67 -2075.72 0
-2075.72 5458.02 0
0 0 0
4737.37 -8282.97 0
-8282.97 5702.07 0
0 0 0
4695.13 3980.13 0
3980.13 5918.18 0
0 0 0
5081.49 8320.85 0
8320.85 4780.91 0
0 0 0
4924.61 13380.1 0
13380.1 4419.89 0
0 0 0
4924.31 6841.87 0
6841.87 4313.9 0
0 0 0
4923.42 2792.36 0
2792.36 4228.3 0
0 0 0
4948.93 802.94 0
802.94 4238.14 0
0 0 0
4930.2 -6777.65 0
-6777.65 4519.89 0
0 0 0
4910.62 -6834.24 0
-6834.24 4762.99 0
0 0 0
4795.2 6873.18 0
6873.18 4946.86 0
0 0 0
4728.54 4489.25 0
4489.25 5300.21 0
0 0 0
4679.43 341.559 0
341.559 5547.5 0
0 0 0
4631.04 4622.54 0
4622.54 5775.07 0
0 0 0
5082.28 7877.35 0
7877.35 4764.94 0
0 0 0
4898.37 12615.9 0
12615.9 4406.18 0
0 0 0
4896.98 7901.06 0
7901.06 4297.65 0
0 0 0
4894.88 3435.74 0
3435.74 4210.15 0
0 0 0
4925.4 2430.81 0
2430.81 4192.21 0
0 0 0
4902.57 -3955.28 0
-3955.28 4457.92 0
0 0 0
4878.36 -11591.3 0
-11591.3 4694.87 0
0 0 0
4751.29 9748.65 0
9748.65 4815.58 0
0 0 0
4675.88 8309.68 0
8309.68 5177.02 0
0 0 0
4619.24 3918.79 0
3918.79 5430.21 0
0 0 0
4563.8 2439.97 0
2439.97 5665.22 0
0 0 0
5083.1 7386.27 0
7386.27 4747.46 0
0 0 0
4870.76 11571.2 0
11571.2 4391.35 0
0 0 0
4868.25 7162.33 0
7162.33 4280.58 0
0 0 0
4864.82 3338.8 0
3338.8 4191.59 0
0 0 0
4900.97 3545.09 0
3545.09 4143.36 0
0 0 0
4873.72 -3022.56 0
-3022.56 4396.05 0
0 0 0
4843.91 -11070 0
-11070 4624.67 0
0 0 0
4816.05 9582.45 0
9582.45 4724.05 0
0 0 0
4620.43 10360.8 0
10360.8 5062.6 0
0 0 0
4556.36 6427.96 0
6427.96 5320.31 0
0 0 0
4493.8 2781.01 0
2781.01 5557.18 0
0 0 0
TENSORS strain double
0.128619 0.115232 0
0.115232 -3.49497 0
0 0 0
0.120048 0.403226 0
0.403226 -3.73002 0
0 0 0
-0.12227 0.384667 0
0.384667 -3.90157 0
0 0 0
-0.117403 0.123835 0
0.123835 -4.02524 0
0 0 0
0.0239016 -0.0642396 0
-0.0642396 -4.09704 0
0 0 0
0.0235802 -0.0998106 0
-0.0998106 -4.02995 0
0 0 0
-0.0853613 -0.173891 0
-0.173891 -3.8476 0
0 0 0
-0.0891263 -0.46931 0
-0.46931 -3.26586 0
0 0 0
-0.404481 -0.623629 0
-0.623629 -2.66966 0
0 0 0
-1.59252 -0.31642 0
-0.31642 -1.00242 0
0 0 0
-2.33057 -0.0950701 0
-0.0950701 -0.471939 0
0 0 0
0.384193 0.0873758 0
0.0873758 -3.51845 0
0 0 0
0.322526 0.429584 0
0.429584 -3.79503 0
0 0 0
-0.364471 0.28421 0
0.28421 -3.92967 0
0 0 0
-0.351478 0.0667259 0
0.0667259 -4.03486 0
0 0 0
0.0717167 -0.0741491 0
-0.0741491 -4.09848 0
0 0 0
0.0707206 -0.112043 0
-0.112043 -4.02746 0
0 0 0
-0.256814 -0.157278 0
-0.157278 -3.82688 0
0 0 0
-0.265917 -0.410937 0
-0.410937 -3.33562 0
0 0 0
-0.82195 -0.503064 0
-0.503064 -2.85683 0
0 0 0
-1.90569 0.0420464 0
0.0420464 -2.34766 0
0 0 0
-2.51691 0.246153 0
0.246153 -1.97657 0
0 0 0
0.570312 0.0440029 0
0.0440029 -4.38926 0
0 0 0
0.151996 0.280974 0
0.280974 -4.47526 0
0 0 0
-0.550496 0.145747 0
0.145747 -4.48602 0
0 0 0
-0.535495 0.0104024 0
0.0104024 -4.50874 0
0 0 0
0.108358 -0.0641676 0
-0.0641676 -4.51093 0
0 0 0
0.107037 -0.122828 0
-0.122828 -4.41137 0
0 0 0
-0.415104 -0.146525 0
-0.146525 -4.16934 0
0 0 0
-0.429705 -0.370966 0
-0.370966 -3.67158 0
0 0 0
-1.04758 -0.45079 0
-0.45079 -3.21265 0
0 0 0
-1.96992 0.101846 0
0.101846 -3.17472 0
0 0 0
-2.53419 0.534207 0
0.534207 -3.26994 0
0 0 0
0.618022 0.0564961 0
0.0564961 -4.55476 0
0 0 0
0.0962136 0.254393 0
0.254393 -4.59493 0
0 0 0
-0.59964 0.129929 0
0.129929 -4.56989 0
0 0 0
-0.588481 0.0151127 0
0.0151127 -4.55885 0
0 0 0
0.105814 -0.0467032 0
-0.0467032 -4.52835 0
0 0 0
0.105156 -0.124015 0
-0.124015 -4.39867 0
0 0 0
-0.551363 -0.114001 0
-0.114001 -4.14945 0
0 0 0
-0.575485 -0.319315 0
-0.319315 -3.70828 0
0 0 0
-1.03082 -0.477847 0
-0.477847 -3.29487 0
0 0 0
-1.86201 -0.0183611 0
-0.0183611 -3.32122 0
0 0 0
-2.42908 0.45538 0
0.45538 -3.48583 0
0 0 0
0.656162 0.0767996 0
0.0767996 -4.47962 0
0 0 0
0.0504908 0.243609 0
0.243609 -4.47957 0
0 0 0
-0.635609 0.127118 0
0.127118 -4.42955 0
0 0 0
-0.627959 0.0238353 0
0.0238353 -4.39121 0
0 0 0
0.0900215 -0.0355005 0
-0.0355005 -4.32936 0
0 0 0
0.0895585 -0.124234 0
-0.124234 -4.18427 0
0 0 0
-0.697865 -0.0758361 0
-0.0758361 -3.93557 0
0 0 0
-0.73116 -0.251602 0
-0.251602 -3.55034 0
0 0 0
-1.10106 -0.428302 0
-0.428302 -3.20811 0
0 0 0
-1.69325 -0.201646 0
-0.201646 -3.2129 0
0 0 0
-2.3367 0.363281 0
0.363281 -3.43508 0
0 0 0
0.693726 0.0945875 0
0.0945875 -4.09536 0
0 0 0
-0.00397673 0.224903 0
0.224903 -4.06931 0
0 0 0
-0.670721 0.11205 0
0.11205 -4.00948 0
0 0 0
-0.667468 0.0267178 0
0.0267178 -3.96135 0
0 0 0
0.0559574 -0.0289606 0
-0.0289606 -3.87055 0
0 0 0
0.0545982 -0.127979 0
-0.127979 -3.69573 0
0 0 0
-0.868975 -0.0376618 0
-0.0376618 -3.48307 0
0 0 0
-0.907051 -0.156322 0
-0.156322 -3.19407 0
0 0 0
-1.25135 -0.284576 0
-0.284576 -2.95243 0
0 0 0
-1.55451 -0.292627 0
-0.292627 -2.87757 0
0 0 0
-2.05563 0.131268 0
0.131268 -3.04277 0
0 0 0
0.717851 0.101358 0
0.101358 -3.79952 0
0 0 0
-0.0257889 0.183138 0
0.183138 -3.79406 0
0 0 0
-0.695602 0.0892267 0
0.0892267 -3.73757 0
0 0 0
-0.695949 0.0243521 0
0.0243521 -3.68147 0
0 0 0
-0.000715593 -0.0218338 0
-0.0218338 -3.58453 0
0 0 0
-0.00460815 -0.122481 0
-0.122481 -3.39111 0
0 0 0
-1.00548 -0.00459667 0
-0.00459667 -3.23226 0
0 0 0
-1.04378 -0.059868 0
-0.059868 -3.03751 0
0 0 0
-1.3641 -0.132099 0
-0.132099 -2.8613 0
0 0 0
-1.54051 -0.211937 0
-0.211937 -2.76103 0
0 0 0
-1.86478 0.0337232 0
0.0337232 -2.83648 0
0 0 0
0.712392 0.0946686 0
0.0946686 -3.6384 0
0 0 0
-0.0335755 0.151742 0
0.151742 -3.66648 0
0 0 0
-0.697289 0.0712707 0
0.0712707 -3.61311 0
0 0 0
-0.699127 0.0243959 0
0.0243959 -3.57618 0
0 0 0
-0.0615798 -0.0086128 0
-0.0086128 -3.48112 0
0 0 0
-0.068128 -0.0988033 0
-0.0988033 -3.29092 0
0 0 0
-1.01278 -0.032291 0
-0.032291 -3.16485 0
0 0 0
-1.10012 0.0192076 0
0.0192076 -3.02437 0
0 0 0
-1.38878 -0.0207572 0
-0.0207572 -2.89728 0
0 0 0
-1.55392 -0.0828297 0
-0.0828297 -2.80479 0
0 0 0
-1.73396 0.0398013 0
0.0398013 -2.79744 0
0 0 0
0.682393 0.0832085 0
0.0832085 -3.59928 0
0 0 0
-0.0182392 0.133801 0
0.133801 -3.64741 0
0 0 0
-0.683642 0.0684187 0
0.0684187 -3.5999 0
0 0 0
-0.686197 0.0279236 0
0.0279236 -3.56712 0
0 0 0
-0.109981 0.0080294 0
0.0080294 -3.48853 0
0 0 0
-0.11809 -0.0677765 0
-0.0677765 -3.30868 0
0 0 0
-0.933613 -0.0683424 0
-0.0683424 -3.16505 0
0 0 0
-1.09662 0.0687318 0
0.0687318 -3.08013 0
0 0 0
-1.35873 0.0448925 0
0.0448925 -2.96437 0
0 0 0
-1.52075 0.00341559 0
0.00341559 -2.87253 0
0 0 0
-1.6147 0.0462254 0
0.0462254 -2.83579 0
0 0 0
0.646656 0.0787735 0
0.0787735 -3.57634 0
0 0 0
0.0189078 0.126159 0
0.126159 -3.60642 0
0 0 0
-0.670906 0.0790106 0
0.0790106 -3.57525 0
0 0 0
-0.673978 0.0343574 0
0.0343574 -3.53081 0
0 0 0
-0.144156 0.0243081 0
0.0243081 -3.46295 0
0 0 0
-0.153136 -0.0395528 0
-0.0395528 -3.28855 0
0 0 0
-0.786091 -0.115913 0
-0.115913 -3.13224 0
0 0 0
-1.07108 0.0974865 0
0.0974865 -3.07675 0
0 0 0
-1.31435 0.0830968 0
0.0830968 -2.95402 0
0 0 0
-1.48311 0.0391879 0
0.0391879 -2.87827 0
0 0 0
-1.54154 0.0243997 0
0.0243997 -2.81294 0
0 0 0
0.611711 0.0738627 0
0.0738627 -3.53437 0
0 0 0
0.0515758 0.115712 0
0.115712 -3.56061 0
0 0 0
-0.663073 0.0716233 0
0.0716233 -3.51373 0
0 0 0
-0.665549 0.033388 0
0.033388 -3.47936 0
0 0 0
-0.167576 0.0354509 0
0.0354509 -3.40263 0
0 0 0
-0.176951 -0.0302256 0
-0.0302256 -3.67873 0
0 0 0
-0.682039 -0.1107 0
-0.1107 -3.07745 0
0 0 0
-1.02803 0.0958245 0
0.0958245 -3.03504 0
0 0 0
-1.2795 0.103608 0
0.103608 -2.91896 0
0 0 0
-1.45578 0.0642796 0
0.0642796 -2.82666 0
0 0 0
-1.50054 0.0278101 0
0.0278101 -2.758 0
0 0 0
