# vtk DataFile Version 3.0
MPM2D particles
ASCII
DATASET POLYDATA
POINTS 121 double
0.0142324 9.42421e-14 0
0.0423199 2.63052e-14 0
0.06703 7.11453e-15 0
0.0890636 1.9781e-15 0
0.112229 7.35613e-15 0
0.137809 2.42446e-11 0
0.162773 3.34215e-08 0
0.185281 4.33509e-06 0
0.205653 0.000406869 0
0.198198 0.000722416 0
0.188278 0.000156309 0
0.0184116 2.36648e-13 0
0.053622 4.78841e-14 0
0.0745411 1.40013e-14 0
0.0917055 5.11284e-15 0
0.11167 1.84278e-14 0
0.13845 8.88515e-11 0
0.163023 1.07675e-07 0
0.181346 5.83448e-06 0
0.197096 0.000204853 0
0.196242 0.00032034 0
0.191324 0.000180568 0
0.0222033 3.10326e-13 0
0.0620323 4.67458e-14 0
0.0792995 1.69546e-14 0
0.0934841 7.36545e-15 0
0.111286 2.60338e-14 0
0.139014 1.69813e-10 0
0.162861 1.69779e-07 0
0.178046 4.77857e-06 0
0.190965 8.9219e-05 0
0.191838 0.000143107 0
0.189431 0.000115142 0
0.0233027 3.45851e-13 0
0.064352 4.96069e-14 0
0.0809086 1.90948e-14 0
0.0944245 8.74065e-15 0
0.111786 3.88228e-14 0
0.13942 2.46458e-10 0
0.162219 1.92584e-07 0
0.175109 3.37108e-06 0
0.186048 4.06906e-05 0
0.188373 8.10799e-05 0
0.187072 7.7718e-05 0
0.0242227 3.77476e-13 0
0.0661815 5.23865e-14 0
0.0822544 2.10902e-14 0
0.0953262 1.00395e-14 0
0.112471 5.93836e-14 0
0.139649 3.27952e-10 0
0.161243 1.9666e-07 0
0.172047 2.21797e-06 0
0.181172 1.79377e-05 0
0.184891 4.51942e-05 0
0.184868 5.41348e-05 0
0.0251707 4.20463e-13 0
0.0679609 5.6957e-14 0
0.0835984 2.39924e-14 0
0.096258 1.18952e-14 0
0.113145 9.3877e-14 0
0.139349 3.8603e-10 0
0.159547 1.79687e-07 0
0.168365 1.32269e-06 0
0.175825 7.38215e-06 0
0.180209 2.04991e-05 0
0.181942 3.37128e-05 0
0.0258205 4.89382e-13 0
0.0690924 6.62168e-14 0
0.0844083 2.90009e-14 0
0.0967536 1.49056e-14 0
0.113147 1.23451e-13 0
0.13775 3.14442e-10 0
0.156979 1.26845e-07 0
0.164523 7.81285e-07 0
0.171015 3.48824e-06 0
0.175265 9.20256e-06 0
0.178299 1.9041e-05 0
0.0257307 5.91819e-13 0
0.0689623 8.22121e-14 0
0.0842123 3.67002e-14 0
0.0964794 1.92074e-14 0
0.112289 1.20517e-13 0
0.135231 1.87315e-10 0
0.154138 6.87062e-08 0
0.161379 5.20372e-07 0
0.167596 2.16111e-06 0
0.171738 5.5258e-06 0
0.175259 1.24185e-05 0
0.0250289 7.2243e-13 0
0.0678911 1.04658e-13 0
0.0833001 4.67627e-14 0
0.0956659 2.4553e-14 0
0.110963 9.67765e-14 0
0.132641 1.03603e-10 0
0.151484 3.79731e-08 0
0.159073 3.96261e-07 0
0.165364 1.65737e-06 0
0.169589 4.30712e-06 0
0.173306 1.0039e-05 0
0.0242096 8.66585e-13 0
0.0666046 1.31272e-13 0
0.0822037 5.84214e-14 0
0.0946605 3.07084e-14 0
0.109492 7.15069e-14 0
0.130291 5.92984e-11 0
0.148992 2.1316e-08 0
0.157261 2.99181e-07 0
0.163735 1.40098e-06 0
0.168078 3.732e-06 0
0.171913 8.9117e-06 0
0.0234378 1.02244e-12 0
0.0653158 1.62189e-13 0
0.081057 7.19684e-14 0
0.093527 3.79865e-14 0
0.107887 4.95768e-14 0
0.128053 3.4378e-11 0
0.146531 1.18388e-08 0
0.155567 2.05061e-07 0
0.162293 1.21337e-06 0
0.16673 3.29374e-06 0
0.170596 7.92159e-06 0
VERTICES 121 242
1 0
1 1
1 2
1 3
1 4
1 5
1 6
1 7
1 8
1 9
1 10
1 11
1 12
1 13
1 14
1 15
1 16
1 17
1 18
1 19
1 20
1 21
1 22
1 23
1 24
1 25
1 26
1 27
1 28
1 29
1 30
1 31
1 32
1 33
1 34
1 35
1 36
1 37
1 38
1 39
1 40
1 41
1 42
1 43
1 44
1 45
1 46
1 47
1 48
1 49
1 50
1 51
1 52
1 53
1 54
1 55
1 56
1 57
1 58
1 59
1 60
1 61
1 62
1 63
1 64
1 65
1 66
1 67
1 68
1 69
1 70
1 71
1 72
1 73
1 74
1 75
1 76
1 77
1 78
1 79
1 80
1 81
1 82
1 83
1 84
1 85
1 86
1 87
1 88
1 89
1 90
1 91
1 92
1 93
1 94
1 95
1 96
1 97
1 98
1 99
1 100
1 101
1 102
1 103
1 104
1 105
1 106
1 107
1 108
1 109
1 110
1 111
1 112
1 113
1 114
1 115
1 116
1 117
1 118
1 119
1 120
POINT_DATA 121
VECTORS velocity double
4.3173 6.19153 0
2.04732 4.12032 0
0.874853 2.74319 0
0.743103 1.98182 0
0.589403 1.53278 0
0.406482 1.92552 0
0.145791 1.90157 0
-0.356188 0.243992 0
-0.159903 -1.11121 0
-4.17719 5.5959 0
-8.22779 9.25381 0
2.85789 0.473562 0
0.209735 -0.71633 0
-0.224428 -1.23923 0
0.188259 -1.63065 0
0.451503 -1.89338 0
0.35167 -1.68993 0
0.223196 -1.72174 0
0.141741 -2.46729 0
0.555664 -3.24188 0
-0.180674 -1.71813 0
-0.720375 -0.87589 0
1.82665 -3.48137 0
-0.902487 -3.8838 0
-0.906973 -4.04859 0
-0.173437 -4.23158 0
0.368839 -4.38766 0
0.342485 -4.36245 0
0.328734 -4.37836 0
0.519452 -4.42744 0
0.963303 -4.55788 0
1.14893 -4.49381 0
1.38287 -4.52772 0
1.80967 -4.12218 0
-0.817029 -4.39629 0
-0.794348 -4.52642 0
-0.104834 -4.6722 0
0.415378 -4.80396 0
0.419502 -4.84405 0
0.416131 -4.86203 0
0.517933 -4.7108 0
0.738453 -4.60912 0
0.625441 -4.69604 0
0.64939 -4.86452 0
1.84899 -4.5763 0
-0.636657 -4.77368 0
-0.610811 -4.86079 0
-0.00647474 -4.96316 0
0.446124 -5.06091 0
0.482973 -5.12743 0
0.483212 -5.14449 0
0.4507 -4.88615 0
0.458029 -4.67425 0
-0.00369347 -4.81627 0
-0.218463 -5.09657 0
1.82533 -4.93339 0
-0.507394 -5.10418 0
-0.488099 -5.15009 0
0.0400109 -5.20217 0
0.426652 -5.25288 0
0.491477 -5.30643 0
0.506707 -5.3323 0
0.407316 -5.07824 0
0.309855 -4.86814 0
-0.337775 -4.9966 0
-0.795307 -5.2728 0
1.64336 -5.18167 0
-0.506024 -5.36633 0
-0.483677 -5.37673 0
0.0054023 -5.3828 0
0.360797 -5.39289 0
0.43765 -5.42524 0
0.475049 -5.46129 0
0.37499 -5.27337 0
0.260188 -5.09864 0
-0.395404 -5.21496 0
-1.0129 -5.4481 0
1.32771 -5.45505 0
-0.548252 -5.64446 0
-0.508672 -5.62969 0
-0.0533044 -5.6037 0
0.290184 -5.58555 0
0.378315 -5.59474 0
0.425112 -5.59106 0
0.304327 -5.49472 0
0.156844 -5.33722 0
-0.450209 -5.43438 0
-1.09013 -5.63174 0
0.941414 -5.89118 0
-0.581709 -6.04583 0
-0.523048 -6.01364 0
-0.124056 -5.9655 0
0.200955 -5.92499 0
0.301747 -5.91233 0
0.365863 -5.87629 0
0.22308 -5.84014 0
0.0480719 -5.68785 0
-0.515542 -5.73635 0
-1.13295 -5.8678 0
0.55208 -6.6583 0
-0.631393 -6.73393 0
-0.56009 -6.67445 0
-0.232223 -6.59982 0
0.0659967 -6.529 0
0.180989 -6.48555 0
0.272846 -6.41323 0
0.139296 -6.40453 0
-0.0363338 -6.2688 0
-0.58073 -6.24906 0
-1.19065 -6.28072 0
0.110928 -7.95009 0
-0.746433 -7.92186 0
-0.662484 -7.83277 0
-0.421763 -7.72574 0
-0.163496 -7.58562 0
-0.0285099 -7.50105 0
0.116371 -7.34443 0
0.0217283 -7.33773 0
-0.121159 -7.24766 0
-0.647538 -7.12983 0
-1.25265 -7.02644 0
SCALARS mass double 1
LOOKUP_TABLE default
2.67769
2.67769
2.67769
2.67769
2.67769
2.67769
2.67769
2.67769
2.67769
2.67769
2.67769
2.67769
2.67769
2.67769
2.67769
2.67769
2.67769
2.67769
2.67769
2.67769
2.67769
2.67769
2.67769
2.67769
2.67769
2.67769
2.67769
2.67769
2.67769
2.67769
2.67769
2.67769
2.67769
2.67769
2.67769
2.67769
2.67769
2.67769
2.67769
2.67769
2.67769
2.67769
2.67769
2.67769
2.67769
2.67769
2.67769
2.67769
2.67769
2.67769
2.67769
2.67769
2.67769
2.67769
2.67769
2.67769
2.67769
2.67769
2.67769
2.67769
2.67769
2.67769
2.67769
2.67769
2.67769
2.67769
2.67769
2.67769
2.67769
2.67769
2.67769
2.67769
2.67769
2.67769
2.67769
2.67769
2.67769
2.67769
2.67769
2.67769
2.67769
2.67769
2.67769
2.67769
2.67769
2.67769
2.67769
2.67769
2.67769
2.67769
2.67769
2.67769
2.67769
2.67769
2.67769
2.67769
2.67769
2.67769
2.67769
2.67769
2.67769
2.67769
2.67769
2.67769
2.67769
2.67769
2.67769
2.67769
2.67769
2.67769
2.67769
2.67769
2.67769
2.67769
2.67769
2.67769
2.67769
2.67769
2.67769
2.67769
2.67769
SCALARS volume double 1
LOOKUP_TABLE default
6.39745e-15
1.76977e-15
3.7357e-16
1.04356e-16
4.48057e-16
1.4762e-12
1.8194e-09
2.34538e-07
1.58937e-05
8.06959e-06
8.08706e-07
6.95403e-15
1.31121e-15
1.91229e-16
7.07757e-17
3.9206e-16
1.88806e-12
1.63364e-09
8.72309e-08
1.72369e-06
8.69782e-07
2.57416e-07
3.04886e-15
3.56214e-16
7.01129e-17
3.30418e-17
2.37299e-16
1.58218e-12
9.52967e-10
2.8171e-08
2.91437e-07
1.43464e-07
4.56102e-08
2.60356e-15
2.63757e-16
5.61717e-17
2.82601e-17
2.72779e-16
1.8112e-12
7.4739e-10
1.33788e-08
1.05357e-07
6.98205e-08
2.55426e-08
2.82264e-15
2.5635e-16
5.80102e-17
3.06011e-17
4.07924e-16
2.37175e-12
6.61579e-10
7.46112e-09
4.18755e-08
4.70883e-08
1.91666e-08
4.17084e-15
3.32822e-16
7.95921e-17
4.31333e-17
7.75025e-16
3.4103e-12
6.33154e-10
4.42063e-09
1.66901e-08
3.08881e-08
2.17882e-08
5.63308e-15
4.03447e-16
9.7699e-17
5.40592e-17
9.76238e-16
2.66641e-12
3.92602e-10
2.15588e-09
6.48194e-09
1.36099e-08
1.62175e-08
6.63739e-15
4.57438e-16
1.11547e-16
6.06876e-17
7.74377e-16
1.27016e-12
1.77306e-10
1.12678e-09
3.15696e-09
6.50585e-09
1.07409e-08
6.90954e-15
5.00954e-16
1.20082e-16
6.46769e-17
4.78835e-16
5.31417e-13
8.64038e-11
6.8523e-10
1.97781e-09
4.15053e-09
8.01327e-09
7.06292e-15
5.80224e-16
1.3188e-16
7.15374e-17
2.96122e-16
2.5193e-13
4.88391e-11
4.62143e-10
1.52737e-09
3.20252e-09
6.76138e-09
7.34872e-15
6.71848e-16
1.50063e-16
8.05372e-17
1.83357e-16
7.02744e-14
2.7129e-11
3.04767e-10
1.24065e-09
2.67365e-09
5.78419e-09
TENSORS stress double
5076.67 48354.1 0
48354.1 625.772 0
0 0 0
5076.67 149920 0
149920 301.69 0
0 0 0
5076.67 150378 0
150378 -273.002 0
0 0 0
5076.67 86921.9 0
86921.9 -970.374 0
0 0 0
5076.67 5883.92 0
5883.92 -172.996 0
0 0 0
5076.67 -125440 0
-125440 4637.79 0
0 0 0
5076.68 -240644 0
-240644 8605.02 0
0 0 0
5076.69 -304993 0
-304993 9480.49 0
0 0 0
5078.25 -351711 0
-351711 10258.8 0
0 0 0
5079.49 -306188 0
-306188 9957.66 0
0 0 0
5077.29 -266389 0
-266389 9591.68 0
0 0 0
5076.67 56319 0
56319 577.551 0
0 0 0
5076.67 177594 0
177594 151.362 0
0 0 0
5076.67 127570 0
127570 -510.732 0
0 0 0
5076.67 76705.6 0
76705.6 -1053.99 0
0 0 0
5076.67 7743.18 0
7743.18 -278.13 0
0 0 0
5076.67 -129796 0
-129796 4758.24 0
0 0 0
5076.68 -239062 0
-239062 8614.73 0
0 0 0
5076.7 -292450 0
-292450 9327.35 0
0 0 0
5077.47 -325317 0
-325317 9933.03 0
0 0 0
5077.92 -268256 0
-268256 9895.73 0
0 0 0
5077.38 -238966 0
-238966 9709.36 0
0 0 0
5076.67 61744.3 0
61744.3 533.802 0
0 0 0
5076.67 148447 0
148447 -114.827 0
0 0 0
5076.67 105631 0
105631 -661.336 0
0 0 0
5076.67 68034.7 0
68034.7 -1110.28 0
0 0 0
5076.67 10714.4 0
10714.4 -350.465 0
0 0 0
5076.67 -133632 0
-133632 4864.34 0
0 0 0
5076.68 -237450 0
-237450 8608.44 0
0 0 0
5076.69 -282883 0
-282883 9199 0
0 0 0
5077.02 -309921 0
-309921 9698.59 0
0 0 0
5077.23 -255250 0
-255250 9730.67 0
0 0 0
5077.12 -207510 0
-207510 9638.01 0
0 0 0
5076.67 65813 0
65813 521.117 0
0 0 0
5076.67 141843 0
141843 -188.245 0
0 0 0
5076.67 101306 0
101306 -712.265 0
0 0 0
5076.67 66895.7 0
66895.7 -1140.05 0
0 0 0
5076.67 9997.5 0
9997.5 -256.295 0
0 0 0
5076.67 -135736 0
-135736 4940.78 0
0 0 0
5076.68 -232997 0
-232997 8583.47 0
0 0 0
5076.69 -272892 0
-272892 9084.81 0
0 0 0
5076.83 -304687 0
-304687 9509.04 0
0 0 0
5076.99 -261620 0
-261620 9598.07 0
0 0 0
5076.98 -211534 0
-211534 9547.54 0
0 0 0
5076.67 70199.9 0
70199.9 510.501 0
0 0 0
5076.67 137649 0
137649 -246.149 0
0 0 0
5076.67 98728.7 0
98728.7 -754.86 0
0 0 0
5076.67 66223 0
66223 -1168.59 0
0 0 0
5076.67 7738.58 0
7738.58 -127.53 0
0 0 0
5076.67 -136853 0
-136853 4983.89 0
0 0 0
5076.68 -227456 0
-227456 8545.48 0
0 0 0
5076.68 -261134 0
-261134 8965.7 0
0 0 0
5076.75 -291973 0
-291973 9320.16 0
0 0 0
5076.85 -274334 0
-274334 9463.87 0
0 0 0
5076.89 -217129 0
-217129 9462.64 0
0 0 0
5076.67 74398.6 0
74398.6 499.563 0
0 0 0
5076.67 132745 0
132745 -302.468 0
0 0 0
5076.67 94922.6 0
94922.6 -797.399 0
0 0 0
5076.67 64908.1 0
64908.1 -1198.08 0
0 0 0
5076.67 5087 0
5087 -0.807503 0
0 0 0
5076.67 -135653 0
-135653 4927.38 0
0 0 0
5076.68 -220724 0
-220724 8479.5 0
0 0 0
5076.68 -245597 0
-245597 8822.51 0
0 0 0
5076.7 -269065 0
-269065 9112.51 0
0 0 0
5076.76 -275925 0
-275925 9282.6 0
0 0 0
5076.81 -235514 0
-235514 9349.56 0
0 0 0
5076.67 76707.5 0
76707.5 492.066 0
0 0 0
5076.67 126627 0
126627 -338.278 0
0 0 0
5076.67 91238.8 0
91238.8 -823.033 0
0 0 0
5076.67 63798.6 0
63798.6 -1213.76 0
0 0 0
5076.67 5875.33 0
5875.33 -0.376182 0
0 0 0
5076.67 -127011 0
-127011 4626.7 0
0 0 0
5076.67 -211178 0
-211178 8243.11 0
0 0 0
5076.68 -229597 0
-229597 8673.06 0
0 0 0
5076.69 -245967 0
-245967 8925.53 0
0 0 0
5076.71 -259805 0
-259805 9090.66 0
0 0 0
5076.75 -239181 0
-239181 9208.33 0
0 0 0
5076.67 75740.9 0
75740.9 493.102 0
0 0 0
5076.67 123682 0
123682 -334.162 0
0 0 0
5076.67 89743.2 0
89743.2 -816.83 0
0 0 0
5076.67 64229.7 0
64229.7 -1205.09 0
0 0 0
5076.67 11587.2 0
11587.2 -161.788 0
0 0 0
5076.67 -111933 0
-111933 4152.87 0
0 0 0
5076.67 -199614 0
-199614 7708.68 0
0 0 0
5076.68 -216363 0
-216363 8550.75 0
0 0 0
5076.68 -229017 0
-229017 8792.57 0
0 0 0
5076.7 -240858 0
-240858 8953.58 0
0 0 0
5076.72 -233219 0
-233219 9090.33 0
0 0 0
5076.67 72705.7 0
72705.7 501.198 0
0 0 0
5076.67 123680 0
123680 -300.258 0
0 0 0
5076.67 90972.5 0
90972.5 -787.956 0
0 0 0
5076.67 65922.8 0
65922.8 -1179.34 0
0 0 0
5076.67 19979.1 0
19979.1 -411.153 0
0 0 0
5076.67 -95767.1 0
-95767.1 3665.82 0
0 0 0
5076.67 -189816 0
-189816 7209.64 0
0 0 0
5076.68 -207369 0
-207369 8461.08 0
0 0 0
5076.68 -218408 0
-218408 8705.75 0
0 0 0
5076.69 -228205 0
-228205 8870.04 0
0 0 0
5076.71 -228727 0
-228727 9014.42 0
0 0 0
5076.67 70066.7 0
70066.7 510.652 0
0 0 0
5076.67 125073 0
125073 -259.54 0
0 0 0
5076.67 93858.9 0
93858.9 -753.256 0
0 0 0
5076.67 68232.6 0
68232.6 -1147.52 0
0 0 0
5076.67 29057.1 0
29057.1 -687.772 0
0 0 0
5076.67 -81083.3 0
-81083.3 3223.94 0
0 0 0
5076.67 -181973 0
-181973 6740.98 0
0 0 0
5076.66 -200125 0
-200125 8296.09 0
0 0 0
5076.68 -211455 0
-211455 8642.39 0
0 0 0
5076.69 -221548 0
-221548 8811.28 0
0 0 0
5076.71 -227873 0
-227873 8960.27 0
0 0 0
5076.67 67500.3 0
67500.3 519.558 0
0 0 0
5076.67 126190 0
126190 -218.748 0
0 0 0
5076.67 95032 0
95032 -716.963 0
0 0 0
5076.67 70018.3 0
70018.3 -1111.64 0
0 0 0
5076.67 38295.2 0
38295.2 -989.638 0
0 0 0
5076.67 -68840 0
-68840 2802.97 0
0 0 0
5076.67 -168996 0
-168996 6278.05 0
0 0 0
5076.66 -193315 0
-193315 7977.54 0
0 0 0
5076.68 -206536 0
-206536 8586.32 0
0 0 0
5076.69 -216185 0
-216185 8758.83 0
0 0 0
5076.71 -224592 0
-224592 8909.09 0
0 0 0
TENSORS strain double
0.129853 0.483541 0
0.483541 -24.6959 0
0 0 0
0.120967 1.4992 0
1.4992 -25.8876 0
0 0 0
-0.123147 1.50378 0
1.50378 -27.0972 0
0 0 0
-0.118155 0.869219 0
0.869219 -28.2719 0
0 0 0
0.0234034 0.0588392 0
0.0588392 -27.0825 0
0 0 0
0.0229906 -1.2544 0
-1.2544 -19.5468 0
0 0 0
-0.0868226 -2.40644 0
-2.40644 -12.6008 0
0 0 0
-0.0930518 -3.04993 0
-3.04993 -7.86586 0
0 0 0
-0.415048 -3.51711 0
-3.51711 -3.38393 0
0 0 0
-1.64961 -3.06188 0
-3.06188 -2.81674 0
0 0 0
-2.40495 -2.66389 0
-2.66389 -4.30598 0
0 0 0
0.387777 0.56319 0
0.56319 -24.8616 0
0 0 0
0.319544 1.77594 0
1.77594 -26.351 0
0 0 0
-0.367003 1.2757 0
1.2757 -27.4835 0
0 0 0
-0.353705 0.767056 0
0.767056 -28.4075 0
0 0 0
0.070227 0.0774318 0
0.0774318 -27.2471 0
0 0 0
0.068942 -1.29796 0
-1.29796 -19.3571 0
0 0 0
-0.261313 -2.39062 0
-2.39062 -12.532 0
0 0 0
-0.276092 -2.9245 0
-2.9245 -8.65135 0
0 0 0
-0.845842 -3.25317 0
-3.25317 -5.15417 0
0 0 0
-1.94616 -2.68256 0
-2.68256 -4.71435 0
0 0 0
-2.56967 -2.38966 0
-2.38966 -5.27819 0
0 0 0
0.575677 0.617443 0
0.617443 -25.8614 0
0 0 0
0.14753 1.48447 0
1.48447 -27.4323 0
0 0 0
-0.554406 1.05631 0
1.05631 -28.2668 0
0 0 0
-0.53901 0.680347 0
0.680347 -28.9662 0
0 0 0
0.105981 0.107144 0
0.107144 -27.7718 0
0 0 0
0.104174 -1.33632 0
-1.33632 -19.5761 0
0 0 0
-0.422395 -2.3745 0
-2.3745 -12.9025 0
0 0 0
-0.444262 -2.82883 0
-2.82883 -9.59188 0
0 0 0
-1.07708 -3.09921 0
-3.09921 -6.6737 0
0 0 0
-2.00955 -2.5525 0
-2.5525 -6.42772 0
0 0 0
-2.58172 -2.0751 0
-2.0751 -6.96538 0
0 0 0
0.624235 0.65813 0
0.65813 -26.0644 0
0 0 0
0.0908804 1.41843 0
1.41843 -27.6626 0
0 0 0
-0.604422 1.01306 0
1.01306 -28.4275 0
0 0 0
-0.592859 0.668957 0
0.668957 -29.0612 0
0 0 0
0.102789 0.099975 0
0.099975 -27.643 0
0 0 0
0.101482 -1.35736 0
-1.35736 -19.4446 0
0 0 0
-0.56062 -2.32997 0
-2.32997 -12.9996 0
0 0 0
-0.592457 -2.72892 0
-2.72892 -10.1695 0
0 0 0
-1.06185 -3.04687 0
-3.04687 -7.68785 0
0 0 0
-1.90279 -2.6162 0
-2.6162 -7.24359 0
0 0 0
-2.47731 -2.11534 0
-2.11534 -7.63773 0
0 0 0
0.663164 0.701999 0
0.701999 -26.0205 0
0 0 0
0.0443083 1.37649 0
1.37649 -27.6345 0
0 0 0
-0.641268 0.987287 0
0.987287 -28.3513 0
0 0 0
-0.633226 0.66223 0
0.66223 -28.9366 0
0 0 0
0.0862955 0.0773858 0
0.0773858 -27.2441 0
0 0 0
0.0849985 -1.36853 0
-1.36853 -19.1631 0
0 0 0
-0.709094 -2.27456 0
-2.27456 -12.9646 0
0 0 0
-0.750104 -2.61134 0
-2.61134 -10.5767 0
0 0 0
-1.1325 -2.91973 0
-2.91973 -8.51841 0
0 0 0
-1.73457 -2.74334 0
-2.74334 -7.80064 0
0 0 0
-2.3858 -2.17129 0
-2.17129 -8.00887 0
0 0 0
0.701787 0.743986 0
0.743986 -25.6685 0
0 0 0
-0.011337 1.32745 0
1.32745 -27.3091 0
0 0 0
-0.677616 0.949226 0
0.949226 -27.9953 0
0 0 0
-0.674014 0.649081 0
0.649081 -28.5512 0
0 0 0
0.0511967 0.05087 0
0.05087 -26.5885 0
0 0 0
0.0487194 -1.35653 0
-1.35653 -18.7621 0
0 0 0
-0.882829 -2.20724 0
-2.20724 -12.8235 0
0 0 0
-0.928486 -2.45597 0
-2.45597 -10.8996 0
0 0 0
-1.28379 -2.69065 0
-2.69065 -9.26087 0
0 0 0
-1.5964 -2.75925 0
-2.75925 -8.35043 0
0 0 0
-2.10619 -2.35514 0
-2.35514 -8.17171 0
0 0 0
0.727448 0.767075 0
0.767075 -25.3947 0
0 0 0
-0.034854 1.26627 0
1.26627 -27.0878 0
0 0 0
-0.70429 0.912388 0
0.912388 -27.762 0
0 0 0
-0.704363 0.637986 0
0.637986 -28.2949 0
0 0 0
-0.00697121 0.0587533 0
0.0587533 -26.3017 0
0 0 0
-0.0123881 -1.27011 0
-1.27011 -18.924 0
0 0 0
-1.01539 -2.11178 0
-2.11178 -13.149 0
0 0 0
-1.06861 -2.29597 0
-2.29597 -11.4514 0
0 0 0
-1.39938 -2.45967 0
-2.45967 -10.0621 0
0 0 0
-1.58463 -2.59805 0
-2.59805 -9.15878 0
0 0 0
-1.91826 -2.39181 0
-2.39181 -8.65062 0
0 0 0
0.723962 0.757409 0
0.757409 -25.2304 0
0 0 0
-0.0447554 1.23682 0
1.23682 -26.9539 0
0 0 0
-0.708174 0.897432 0
0.897432 -27.6282 0
0 0 0
-0.709818 0.642297 0
0.642297 -28.1765 0
0 0 0
-0.0695889 0.115872 0
0.115872 -26.4488 0
0 0 0
-0.0781112 -1.11933 0
-1.11933 -19.5592 0
0 0 0
-1.0252 -1.99614 0
-1.99614 -13.9109 0
0 0 0
-1.12893 -2.16363 0
-2.16363 -12.0173 0
0 0 0
-1.42846 -2.29017 0
-2.29017 -10.7295 0
0 0 0
-1.60273 -2.40858 0
-2.40858 -9.85658 0
0 0 0
-1.79284 -2.33219 0
-2.33219 -9.1769 0
0 0 0
0.696173 0.727057 0
0.727057 -25.1673 0
0 0 0
-0.0317138 1.2368 0
1.2368 -26.8836 0
0 0 0
-0.696878 0.909725 0
0.909725 -27.5714 0
0 0 0
-0.699304 0.659228 0
0.659228 -28.1287 0
0 0 0
-0.119766 0.199791 0
0.199791 -26.8433 0
0 0 0
-0.13028 -0.957671 0
-0.957671 -20.3329 0
0 0 0
-0.948691 -1.89816 0
-1.89816 -14.6854 0
0 0 0
-1.12964 -2.07369 0
-2.07369 -12.4971 0
0 0 0
-1.40372 -2.18408 0
-2.18408 -11.207 0
0 0 0
-1.57598 -2.28205 0
-2.28205 -10.3191 0
0 0 0
-1.68126 -2.28727 0
-2.28727 -9.57335 0
0 0 0
0.662719 0.700667 0
0.700667 -25.1164 0
0 0 0
0.00308114 1.25073 0
1.25073 -26.7812 0
0 0 0
-0.686538 0.938589 0
0.938589 -27.4944 0
0 0 0
-0.689545 0.682326 0
0.682326 -28.0444 0
0 0 0
-0.155684 0.290571 0
0.290571 -27.2471 0
0 0 0
-0.167488 -0.810833 0
-0.810833 -20.9986 0
0 0 0
-0.803875 -1.81973 0
-1.81973 -15.3799 0
0 0 0
-1.10248 -2.00125 0
-2.00125 -12.9052 0
0 0 0
-1.36496 -2.11455 0
-2.11455 -11.4952 0
0 0 0
-1.54529 -2.21548 0
-2.21548 -10.6006 0
0 0 0
-1.61653 -2.27873 0
-2.27873 -9.80302 0
0 0 0
0.630158 0.675003 0
0.675003 -25.048 0
0 0 0
0.0332664 1.2619 0
1.2619 -26.6738 0
0 0 0
-0.681232 0.95032 0
0.95032 -27.3781 0
0 0 0
-0.683716 0.700183 0
0.700183 -27.9388 0
0 0 0
-0.180891 0.382952 0
0.382952 -27.6554 0
0 0 0
-0.193533 -0.6884 0
-0.6884 -22.0422 0
0 0 0
-0.702666 -1.68996 0
-1.68996 -16.0435 0
0 0 0
-1.05226 -1.93315 0
-1.93315 -13.3599 0
0 0 0
-1.33597 -2.06536 0
-2.06536 -11.724 0
0 0 0
-1.52515 -2.16185 0
-2.16185 -10.7948 0
0 0 0
-1.58411 -2.24592 0
-2.24592 -9.98681 0
0 0 0
