# vtk DataFile Version 3.0
MPM2D particles
ASCII
DATASET POLYDATA
POINTS 121 double
0.0142324 2.84192e-11 0
0.0423199 9.84027e-12 0
0.06703 3.78682e-12 0
0.0890636 1.60308e-12 0
0.112229 3.59105e-12 0
0.137809 6.42996e-10 0
0.162773 8.69381e-08 0
0.185285 6.2069e-06 0
0.205825 0.000340469 0
0.198591 0.000733062 0
0.188393 0.000206532 0
0.0184116 7.3684e-11 0
0.053622 1.97581e-11 0
0.0745411 8.59918e-12 0
0.0917055 4.36036e-12 0
0.11167 9.60289e-12 0
0.13845 2.19464e-09 0
0.163023 2.78231e-07 0
0.181351 9.26861e-06 0
0.197212 0.000214637 0
0.196428 0.000342981 0
0.191446 0.00022017 0
0.0222033 9.94744e-11 0
0.0620323 2.26253e-11 0
0.0792995 1.14025e-11 0
0.0934841 6.49945e-12 0
0.111286 1.41906e-11 0
0.139014 3.93989e-09 0
0.162861 4.40603e-07 0
0.178051 8.28393e-06 0
0.191026 0.000109897 0
0.191933 0.000172202 0
0.189513 0.000147639 0
0.0233027 1.118e-10 0
0.064352 2.50925e-11 0
0.0809086 1.32431e-11 0
0.0944245 7.85297e-12 0
0.111786 1.99589e-11 0
0.13942 5.46624e-09 0
0.16222 5.0841e-07 0
0.175113 6.31687e-06 0
0.18608 5.70742e-05 0
0.188433 0.000106929 0
0.187131 0.000106074 0
0.0242227 1.22887e-10 0
0.0661815 2.74367e-11 0
0.0822544 1.5008e-11 0
0.0953262 9.1778e-12 0
0.112471 2.81842e-11 0
0.139649 7.09132e-09 0
0.161243 5.3287e-07 0
0.172049 4.50799e-06 0
0.181188 2.86235e-05 0
0.184928 6.53534e-05 0
0.184912 7.83239e-05 0
0.0251707 1.3788e-10 0
0.0679609 3.08575e-11 0
0.0835984 1.75177e-11 0
0.096258 1.10705e-11 0
0.113145 4.11903e-11 0
0.139349 8.62971e-09 0
0.159547 5.09425e-07 0
0.168367 2.96466e-06 0
0.175833 1.35724e-05 0
0.180228 3.35535e-05 0
0.181972 5.27037e-05 0
0.0258205 1.61283e-10 0
0.0690924 3.66555e-11 0
0.0844083 2.15054e-11 0
0.0967536 1.40047e-11 0
0.113147 5.41523e-11 0
0.13775 8.39425e-09 0
0.15698 4.14589e-07 0
0.164524 1.93971e-06 0
0.171019 7.28658e-06 0
0.175275 1.71719e-05 0
0.178317 3.27833e-05 0
0.0257307 1.94908e-10 0
0.0689623 4.53972e-11 0
0.0842123 2.7113e-11 0
0.0964794 1.79517e-11 0
0.112289 5.84277e-11 0
0.135231 6.62096e-09 0
0.154138 3.04882e-07 0
0.161379 1.40489e-06 0
0.167599 4.9439e-06 0
0.171744 1.13231e-05 0
0.175273 2.31755e-05 0
0.0250289 2.36646e-10 0
0.0678911 5.66253e-11 0
0.0833001 3.39491e-11 0
0.0956659 2.25924e-11 0
0.110963 5.47789e-11 0
0.132641 4.89361e-09 0
0.151484 2.24505e-07 0
0.159074 1.13771e-06 0
0.165366 4.02359e-06 0
0.169595 9.34433e-06 0
0.173317 1.97315e-05 0
0.0242096 2.82089e-10 0
0.0666046 6.93067e-11 0
0.0822037 4.15329e-11 0
0.0946605 2.77159e-11 0
0.109492 4.80858e-11 0
0.130291 3.64809e-09 0
0.148992 1.65207e-07 0
0.157262 9.48737e-07 0
0.163737 3.552e-06 0
0.168083 8.4285e-06 0
0.171923 1.81757e-05 0
0.0234378 3.30858e-10 0
0.0653158 8.35567e-11 0
0.081057 5.00545e-11 0
0.093527 3.3547e-11 0
0.107887 4.02575e-11 0
0.128053 2.72338e-09 0
0.146531 1.20029e-07 0
0.155568 7.80057e-07 0
0.162295 3.19685e-06 0
0.166734 7.7105e-06 0
0.170606 1.67313e-05 0
VERTICES 121 242
1 0
1 1
1 2
1 3
1 4
1 5
1 6
1 7
1 8
1 9
1 10
1 11
1 12
1 13
1 14
1 15
1 16
1 17
1 18
1 19
1 20
1 21
1 22
1 23
1 24
1 25
1 26
1 27
1 28
1 29
1 30
1 31
1 32
1 33
1 34
1 35
1 36
1 37
1 38
1 39
1 40
1 41
1 42
1 43
1 44
1 45
1 46
1 47
1 48
1 49
1 50
1 51
1 52
1 53
1 54
1 55
1 56
1 57
1 58
1 59
1 60
1 61
1 62
1 63
1 64
1 65
1 66
1 67
1 68
1 69
1 70
1 71
1 72
1 73
1 74
1 75
1 76
1 77
1 78
1 79
1 80
1 81
1 82
1 83
1 84
1 85
1 86
1 87
1 88
1 89
1 90
1 91
1 92
1 93
1 94
1 95
1 96
1 97
1 98
1 99
1 100
1 101
1 102
1 103
1 104
1 105
1 106
1 107
1 108
1 109
1 110
1 111
1 112
1 113
1 114
1 115
1 116
1 117
1 118
1 119
1 120
POINT_DATA 121
VECTORS velocity double
4.53228 6.74993 0
2.2623 4.67872 0
1.01236 3.30159 0
0.762051 2.54022 0
0.533923 2.1017 0
0.397782 2.53304 0
0.176007 2.51165 0
-0.321216 0.726195 0
-0.633291 -0.731599 0
-5.06294 6.03228 0
-8.3867 9.72611 0
3.07287 1.03196 0
0.419387 -0.157935 0
-0.127337 -0.68083 0
0.192991 -1.07225 0
0.395001 -1.32531 0
0.34414 -1.08144 0
0.253438 -1.11307 0
0.17305 -1.9626 0
0.337351 -2.81903 0
-0.548374 -1.28564 0
-0.909619 -0.420286 0
2.04163 -2.92298 0
-0.738089 -3.3254 0
-0.835486 -3.49019 0
-0.178275 -3.67318 0
0.311634 -3.82017 0
0.335987 -3.7531 0
0.35883 -3.76877 0
0.550645 -3.904 0
0.891567 -4.10425 0
1.00812 -4.04286 0
1.27722 -4.06405 0
2.02465 -3.56378 0
-0.665112 -3.8379 0
-0.731519 -3.96803 0
-0.114732 -4.1138 0
0.359088 -4.23572 0
0.413747 -4.23409 0
0.445908 -4.24879 0
0.549599 -4.17072 0
0.727193 -4.1295 0
0.563217 -4.22784 0
0.591029 -4.38897 0
2.06398 -4.01791 0
-0.494585 -4.21528 0
-0.555224 -4.30239 0
-0.0212249 -4.40476 0
0.391086 -4.49162 0
0.477636 -4.51713 0
0.512541 -4.52568 0
0.482442 -4.3287 0
0.473882 -4.16791 0
-0.0211596 -4.32978 0
-0.247375 -4.6095 0
2.04032 -4.37499 0
-0.374897 -4.54578 0
-0.439744 -4.59169 0
0.0202467 -4.64377 0
0.372846 -4.68258 0
0.485591 -4.69658 0
0.535285 -4.70385 0
0.438514 -4.49989 0
0.336811 -4.3319 0
-0.325562 -4.48462 0
-0.799216 -4.77001 0
1.85834 -4.62328 0
-0.379615 -4.80793 0
-0.43968 -4.81833 0
-0.0170284 -4.82439 0
0.306995 -4.82258 0
0.42884 -4.8178 0
0.501257 -4.82482 0
0.405115 -4.6732 0
0.289908 -4.53524 0
-0.370963 -4.67541 0
-0.9996 -4.92528 0
1.54269 -4.89666 0
-0.421143 -5.08607 0
-0.46362 -5.07129 0
-0.0742596 -5.0453 0
0.234813 -5.01654 0
0.364898 -4.99111 0
0.446178 -4.95888 0
0.333341 -4.87667 0
0.186682 -4.75444 0
-0.422688 -4.87496 0
-1.06972 -5.09196 0
1.1564 -5.33278 0
-0.448836 -5.48743 0
-0.473087 -5.45524 0
-0.140634 -5.4071 0
0.143159 -5.35798 0
0.283595 -5.3126 0
0.382111 -5.24812 0
0.251196 -5.20897 0
0.0775274 -5.09239 0
-0.487446 -5.16476 0
-1.11037 -5.31702 0
0.767062 -6.09991 0
-0.491597 -6.17553 0
-0.504231 -6.11605 0
-0.243391 -6.04142 0
0.00551107 -5.96421 0
0.15854 -5.88938 0
0.284559 -5.78883 0
0.16582 -5.76762 0
-0.00729721 -5.66409 0
-0.552586 -5.66892 0
-1.16723 -5.72207 0
0.32591 -7.3917 0
-0.599702 -7.36346 0
-0.600454 -7.27437 0
-0.426832 -7.16734 0
-0.226917 -7.02326 0
-0.0550523 -6.90825 0
0.123596 -6.72374 0
0.0452433 -6.70338 0
-0.0925432 -6.63476 0
-0.619447 -6.54203 0
-1.22856 -6.46035 0
SCALARS mass double 1
LOOKUP_TABLE default
2.67769
2.67769
2.67769
2.67769
2.67769
2.67769
2.67769
2.67769
2.67769
2.67769
2.67769
2.67769
2.67769
2.67769
2.67769
2.67769
2.67769
2.67769
2.67769
2.67769
2.67769
2.67769
2.67769
2.67769
2.67769
2.67769
2.67769
2.67769
2.67769
2.67769
2.67769
2.67769
2.67769
2.67769
2.67769
2.67769
2.67769
2.67769
2.67769
2.67769
2.67769
2.67769
2.67769
2.67769
2.67769
2.67769
2.67769
2.67769
2.67769
2.67769
2.67769
2.67769
2.67769
2.67769
2.67769
2.67769
2.67769
2.67769
2.67769
2.67769
2.67769
2.67769
2.67769
2.67769
2.67769
2.67769
2.67769
2.67769
2.67769
2.67769
2.67769
2.67769
2.67769
2.67769
2.67769
2.67769
2.67769
2.67769
2.67769
2.67769
2.67769
2.67769
2.67769
2.67769
2.67769
2.67769
2.67769
2.67769
2.67769
2.67769
2.67769
2.67769
2.67769
2.67769
2.67769
2.67769
2.67769
2.67769
2.67769
2.67769
2.67769
2.67769
2.67769
2.67769
2.67769
2.67769
2.67769
2.67769
2.67769
2.67769
2.67769
2.67769
2.67769
2.67769
2.67769
2.67769
2.67769
2.67769
2.67769
2.67769
2.67769
SCALARS volume double 1
LOOKUP_TABLE default
1.92918e-12
6.62028e-13
1.98835e-13
8.45987e-14
2.18738e-13
3.91507e-11
4.73274e-09
3.35791e-07
1.32547e-05
8.13502e-06
1.06685e-06
2.16525e-12
5.41035e-13
1.17441e-13
6.03571e-14
2.04309e-13
4.66353e-11
4.22131e-09
1.38566e-07
1.80261e-06
9.28493e-07
3.13316e-07
9.77307e-13
1.72411e-13
4.71533e-14
2.91559e-14
1.29345e-13
3.67086e-11
2.4731e-09
4.88334e-08
3.58668e-07
1.7239e-07
5.84152e-08
8.41629e-13
1.33414e-13
3.89569e-14
2.53907e-14
1.40235e-13
4.01711e-11
1.97306e-09
2.50688e-08
1.47716e-07
9.20039e-08
3.48341e-08
9.18909e-13
1.34259e-13
4.12805e-14
2.79741e-14
1.93607e-13
5.12845e-11
1.79261e-09
1.51642e-08
6.68081e-08
6.80598e-08
2.77149e-08
1.36772e-12
1.80313e-13
5.81131e-14
4.01425e-14
3.40056e-13
7.62375e-11
1.79503e-09
9.90816e-09
3.06828e-08
5.05469e-08
3.40492e-08
1.85646e-12
2.23334e-13
7.24475e-14
5.0792e-14
4.28228e-13
7.11815e-11
1.28322e-09
5.35239e-09
1.35395e-08
2.53932e-08
2.7916e-08
2.18594e-12
2.52596e-13
8.24069e-14
5.67203e-14
3.75425e-13
4.48959e-11
7.86792e-10
3.04204e-09
7.22185e-09
1.33304e-08
2.00417e-08
2.26335e-12
2.71042e-13
8.71771e-14
5.95116e-14
2.71036e-13
2.51012e-11
5.10839e-10
1.96736e-09
4.80143e-09
9.00412e-09
1.5748e-08
2.2991e-12
3.06338e-13
9.37558e-14
6.45658e-14
1.99132e-13
1.54989e-11
3.78521e-10
1.46553e-09
3.87238e-09
7.23233e-09
1.37885e-08
2.37802e-12
3.46122e-13
1.04369e-13
7.11241e-14
1.48892e-13
5.56704e-12
2.75053e-10
1.15935e-09
3.26866e-09
6.25861e-09
1.22157e-08
TENSORS stress double
5076.67 41041.9 0
41041.9 1544.03 0
0 0 0
5076.67 128178 0
128178 1214.54 0
0 0 0
5076.67 125046 0
125046 734.359 0
0 0 0
5076.67 64203.8 0
64203.8 184.656 0
0 0 0
5076.67 -6257.36 0
-6257.36 898.606 0
0 0 0
5076.67 -105800 0
-105800 5004.36 0
0 0 0
5076.67 -198218 0
-198218 8469.5 0
0 0 0
5076.61 -272579 0
-272579 9582.73 0
0 0 0
5073.18 -328863 0
-328863 10587.1 0
0 0 0
5069.13 -280532 0
-280532 10215.7 0
0 0 0
5074.54 -235557 0
-235557 9729.5 0
0 0 0
5076.67 46859.7 0
46859.7 1495.01 0
0 0 0
5076.67 150671 0
150671 1068.86 0
0 0 0
5076.67 103129 0
103129 546.969 0
0 0 0
5076.67 54301 0
54301 118.744 0
0 0 0
5076.67 -5092.65 0
-5092.65 808.879 0
0 0 0
5076.67 -109360 0
-109360 5107.16 0
0 0 0
5076.67 -196747 0
-196747 8481.86 0
0 0 0
5076.58 -258290 0
-258290 9388.08 0
0 0 0
5074.46 -298443 0
-298443 10165.4 0
0 0 0
5073.14 -241174 0
-241174 10122.2 0
0 0 0
5074.4 -209515 0
-209515 9880.06 0
0 0 0
5076.67 50336.9 0
50336.9 1450.53 0
0 0 0
5076.67 122522 0
122522 859.041 0
0 0 0
5076.67 81754.5 0
81754.5 428.255 0
0 0 0
5076.67 45841.1 0
45841.1 74.3723 0
0 0 0
5076.67 -2599.3 0
-2599.3 747.145 0
0 0 0
5076.67 -112495 0
-112495 5197.71 0
0 0 0
5076.67 -195063 0
-195063 8473.85 0
0 0 0
5076.59 -247255 0
-247255 9224.85 0
0 0 0
5075.54 -280167 0
-280167 9863.07 0
0 0 0
5074.9 -225966 0
-225966 9905.81 0
0 0 0
5075.15 -177120 0
-177120 9786.96 0
0 0 0
5076.67 53840.8 0
53840.8 1437.63 0
0 0 0
5076.67 116193 0
116193 801.169 0
0 0 0
5076.67 77620.8 0
77620.8 388.11 0
0 0 0
5076.67 44813.7 0
44813.7 50.9106 0
0 0 0
5076.67 -2694.08 0
-2694.08 827.514 0
0 0 0
5076.67 -114094 0
-114094 5262.95 0
0 0 0
5076.67 -190325 0
-190325 8442.12 0
0 0 0
5076.61 -235956 0
-235956 9079.63 0
0 0 0
5076.08 -272676 0
-272676 9620.3 0
0 0 0
5075.57 -230706 0
-230706 9734.94 0
0 0 0
5075.58 -180039 0
-180039 9670.57 0
0 0 0
5076.67 57755 0
57755 1426.84 0
0 0 0
5076.67 112217 0
112217 755.525 0
0 0 0
5076.67 75202.8 0
75202.8 354.534 0
0 0 0
5076.67 44247.9 0
44247.9 28.4144 0
0 0 0
5076.67 -4102.34 0
-4102.34 937.408 0
0 0 0
5076.67 -114927 0
-114927 5299.74 0
0 0 0
5076.67 -184350 0
-184350 8393.81 0
0 0 0
5076.63 -222835 0
-222835 8928.15 0
0 0 0
5076.38 -257758 0
-257758 9379.34 0
0 0 0
5076 -241818 0
-241818 9563.02 0
0 0 0
5075.86 -184618 0
-184618 9561.77 0
0 0 0
5076.67 61466.7 0
61466.7 1415.72 0
0 0 0
5076.67 107523 0
107523 711.132 0
0 0 0
5076.67 71556.2 0
71556.2 321.003 0
0 0 0
5076.67 43043.6 0
43043.6 5.16693 0
0 0 0
5076.67 -5916.76 0
-5916.76 1045.56 0
0 0 0
5076.67 -114100 0
-114100 5251.51 0
0 0 0
5076.67 -176864 0
-176864 8309.92 0
0 0 0
5076.64 -205659 0
-205659 8746.06 0
0 0 0
5076.53 -232455 0
-232455 9114.97 0
0 0 0
5076.33 -241288 0
-241288 9331.68 0
0 0 0
5076.13 -201669 0
-201669 9417.27 0
0 0 0
5076.67 63441.7 0
63441.7 1408.09 0
0 0 0
5076.67 101539 0
101539 682.905 0
0 0 0
5076.67 67968.5 0
67968.5 300.797 0
0 0 0
5076.67 41992.9 0
41992.9 -7.1962 0
0 0 0
5076.67 -5125.58 0
-5125.58 1045.93 0
0 0 0
5076.67 -107444 0
-107444 4994.9 0
0 0 0
5076.65 -167721 0
-167721 8081.34 0
0 0 0
5076.65 -187950 0
-187950 8556.04 0
0 0 0
5076.6 -207212 0
-207212 8877.1 0
0 0 0
5076.5 -222949 0
-222949 9087.25 0
0 0 0
5076.33 -203692 0
-203692 9237.19 0
0 0 0
5076.67 62521.3 0
62521.3 1409.15 0
0 0 0
5076.67 98579.3 0
98579.3 686.15 0
0 0 0
5076.67 66449.6 0
66449.6 305.687 0
0 0 0
5076.67 42391.4 0
42391.4 -0.355367 0
0 0 0
5076.67 -480.072 0
-480.072 908.171 0
0 0 0
5076.67 -95496 0
-95496 4590.51 0
0 0 0
5076.66 -159687 0
-159687 7625.23 0
0 0 0
5076.66 -173318 0
-173318 8400.53 0
0 0 0
5076.62 -188739 0
-188739 8708.02 0
0 0 0
5076.56 -202428 0
-202428 8912.83 0
0 0 0
5076.43 -196368 0
-196368 9086.93 0
0 0 0
5076.67 59846.6 0
59846.6 1417.38 0
0 0 0
5076.67 98449.7 0
98449.7 712.874 0
0 0 0
5076.67 67570.6 0
67570.6 328.447 0
0 0 0
5076.67 43988 0
43988 19.9387 0
0 0 0
5076.67 6264.46 0
6264.46 695.351 0
0 0 0
5076.67 -82548.2 0
-82548.2 4174.84 0
0 0 0
5076.66 -153186 0
-153186 7199.31 0
0 0 0
5076.66 -163299 0
-163299 8286.51 0
0 0 0
5076.63 -177137 0
-177137 8597.62 0
0 0 0
5076.58 -188818 0
-188818 8806.58 0
0 0 0
5076.47 -191004 0
-191004 8990.33 0
0 0 0
5076.67 57628.5 0
57628.5 1426.99 0
0 0 0
5076.67 99690.5 0
99690.5 744.971 0
0 0 0
5076.67 70327 0
70327 355.799 0
0 0 0
5076.67 46178.6 0
46178.6 45.0227 0
0 0 0
5076.67 13515.1 0
13515.1 459.271 0
0 0 0
5076.67 -70783.5 0
-70783.5 3797.72 0
0 0 0
5076.66 -148439 0
-148439 6799.33 0
0 0 0
5076.61 -156320 0
-156320 8126.59 0
0 0 0
5076.64 -169459 0
-169459 8517.05 0
0 0 0
5076.59 -181488 0
-181488 8731.86 0
0 0 0
5076.49 -189528 0
-189528 8921.45 0
0 0 0
5076.67 55458.7 0
55458.7 1436.04 0
0 0 0
5076.67 100654 0
100654 777.125 0
0 0 0
5076.67 71364 0
71364 384.407 0
0 0 0
5076.67 47829.8 0
47829.8 73.3015 0
0 0 0
5076.67 20759 0
20759 201.643 0
0 0 0
5076.67 -61321.3 0
-61321.3 3438.44 0
0 0 0
5076.67 -138520 0
-138520 6404.25 0
0 0 0
5076.62 -151613 0
-151613 7854.71 0
0 0 0
5076.64 -163900 0
-163900 8445.76 0
0 0 0
5076.59 -175525 0
-175525 8665.16 0
0 0 0
5076.5 -185661 0
-185661 8856.34 0
0 0 0
TENSORS strain double
0.129853 0.410419 0
0.410419 -19.2503 0
0 0 0
0.120967 1.28178 0
1.28178 -20.2464 0
0 0 0
-0.123147 1.25046 0
1.25046 -21.1375 0
0 0 0
-0.118155 0.642038 0
0.642038 -21.9347 0
0 0 0
0.0234034 -0.0625736 0
-0.0625736 -21.2008 0
0 0 0
0.0229906 -1.058 0
-1.058 -16.3568 0
0 0 0
-0.086823 -1.98218 0
-1.98218 -11.6524 0
0 0 0
-0.0930972 -2.72579 0
-2.72579 -7.50802 0
0 0 0
-0.41846 -3.28863 0
-3.28863 -3.56239 0
0 0 0
-1.65616 -2.80532 0
-2.80532 -2.80213 0
0 0 0
-2.40654 -2.35557 0
-2.35557 -4.02801 0
0 0 0
0.387777 0.468597 0
0.468597 -19.387 0
0 0 0
0.319544 1.50671 0
1.50671 -20.6211 0
0 0 0
-0.367003 1.03129 0
1.03129 -21.3952 0
0 0 0
-0.353705 0.54301 0
0.54301 -22.0251 0
0 0 0
0.070227 -0.0509265 0
-0.0509265 -21.3066 0
0 0 0
0.0689421 -1.0936 0
-1.0936 -16.2345 0
0 0 0
-0.261315 -1.96747 0
-1.96747 -11.5902 0
0 0 0
-0.276156 -2.5829 0
-2.5829 -8.19028 0
0 0 0
-0.847723 -2.98443 0
-2.98443 -5.10755 0
0 0 0
-1.94913 -2.41174 0
-2.41174 -4.64611 0
0 0 0
-2.57144 -2.09515 0
-2.09515 -5.08023 0
0 0 0
0.575677 0.503369 0
0.503369 -20.3604 0
0 0 0
0.14753 1.22522 0
1.22522 -21.5583 0
0 0 0
-0.554406 0.817545 0
0.817545 -22.097 0
0 0 0
-0.53901 0.458411 0
0.458411 -22.5533 0
0 0 0
0.105981 -0.025993 0
-0.025993 -21.7908 0
0 0 0
0.104174 -1.12495 0
-1.12495 -16.5129 0
0 0 0
-0.422398 -1.95063 0
-1.95063 -11.9563 0
0 0 0
-0.444316 -2.47255 0
-2.47255 -9.04421 0
0 0 0
-1.07796 -2.80167 0
-2.80167 -6.46562 0
0 0 0
-2.01094 -2.25966 0
-2.25966 -6.24294 0
0 0 0
-2.58287 -1.7712 0
-1.7712 -6.7173 0
0 0 0
0.624235 0.538408 0
0.538408 -20.5557 0
0 0 0
0.0908804 1.16193 0
1.16193 -21.7489 0
0 0 0
-0.604422 0.776208 0
0.776208 -22.23 0
0 0 0
-0.592859 0.448137 0
0.448137 -22.6322 0
0 0 0
0.102789 -0.0269408 0
-0.0269408 -21.7147 0
0 0 0
0.101482 -1.14094 0
-1.14094 -16.4242 0
0 0 0
-0.560623 -1.90325 0
-1.90325 -12.0367 0
0 0 0
-0.592497 -2.35956 0
-2.35956 -9.5448 0
0 0 0
-1.06227 -2.72676 0
-2.72676 -7.35045 0
0 0 0
-1.90361 -2.30706 0
-2.30706 -6.9675 0
0 0 0
-2.47811 -1.80039 0
-1.80039 -7.32748 0
0 0 0
0.663164 0.57755 0
0.57755 -20.5054 0
0 0 0
0.0443083 1.12217 0
1.12217 -21.6894 0
0 0 0
-0.641268 0.752028 0
0.752028 -22.1308 0
0 0 0
-0.633226 0.442479 0
0.442479 -22.4921 0
0 0 0
0.0862955 -0.0410234 0
-0.0410234 -21.3878 0
0 0 0
0.0849986 -1.14927 0
-1.14927 -16.1668 0
0 0 0
-0.709097 -1.8435 0
-1.8435 -11.9761 0
0 0 0
-0.750131 -2.22835 0
-2.22835 -9.87159 0
0 0 0
-1.1327 -2.57758 0
-2.57758 -8.05291 0
0 0 0
-1.73504 -2.41818 0
-2.41818 -7.43293 0
0 0 0
-2.38637 -1.84618 0
-1.84618 -7.64063 0
0 0 0
0.701787 0.614667 0
0.614667 -20.1468 0
0 0 0
-0.011337 1.07523 0
1.07523 -21.3335 0
0 0 0
-0.677616 0.715562 0
0.715562 -21.7518 0
0 0 0
-0.674014 0.430436 0
0.430436 -22.0907 0
0 0 0
0.0511967 -0.0591676 0
-0.0591676 -20.8031 0
0 0 0
0.0487195 -1.141 0
-1.141 -15.7342 0
0 0 0
-0.882831 -1.76864 0
-1.76864 -11.7905 0
0 0 0
-0.928503 -2.05659 0
-2.05659 -10.0979 0
0 0 0
-1.28387 -2.32455 0
-2.32455 -8.65498 0
0 0 0
-1.59663 -2.41288 0
-2.41288 -7.85969 0
0 0 0
-2.10656 -2.01669 0
-2.01669 -7.72656 0
0 0 0
0.727448 0.634417 0
0.634417 -19.8685 0
0 0 0
-0.034854 1.01539 0
1.01539 -21.0928 0
0 0 0
-0.70429 0.679685 0
0.679685 -21.5046 0
0 0 0
-0.704363 0.419929 0
0.419929 -21.826 0
0 0 0
-0.00697121 -0.0512558 0
-0.0512558 -20.5165 0
0 0 0
-0.012388 -1.07444 0
-1.07444 -15.7278 0
0 0 0
-1.01539 -1.67721 0
-1.67721 -11.9763 0
0 0 0
-1.06862 -1.8795 0
-1.8795 -10.5489 0
0 0 0
-1.39942 -2.07212 0
-2.07212 -9.32994 0
0 0 0
-1.58474 -2.22949 0
-2.22949 -8.53821 0
0 0 0
-1.91848 -2.03692 0
-2.03692 -8.10975 0
0 0 0
0.723962 0.625213 0
0.625213 -19.7048 0
0 0 0
-0.0447554 0.985793 0
0.985793 -20.9611 0
0 0 0
-0.708174 0.664496 0
0.664496 -21.3741 0
0 0 0
-0.709818 0.423914 0
0.423914 -21.7123 0
0 0 0
-0.0695889 -0.00480072 0
-0.00480072 -20.5733 0
0 0 0
-0.0781111 -0.95496 0
-0.95496 -16.0979 0
0 0 0
-1.0252 -1.59687 0
-1.59687 -12.4391 0
0 0 0
-1.12894 -1.73318 0
-1.73318 -11.0323 0
0 0 0
-1.42849 -1.88739 0
-1.88739 -9.90763 0
0 0 0
-1.6028 -2.02428 0
-2.02428 -9.14344 0
0 0 0
-1.79299 -1.96368 0
-1.96368 -8.55622 0
0 0 0
0.696173 0.598466 0
0.598466 -19.6466 0
0 0 0
-0.0317138 0.984497 0
0.984497 -20.9092 0
0 0 0
-0.696878 0.675706 0
0.675706 -21.333 0
0 0 0
-0.699304 0.43988 0
0.43988 -21.6783 0
0 0 0
-0.119766 0.0626446 0
0.0626446 -20.8283 0
0 0 0
-0.13028 -0.825482 0
-0.825482 -16.5991 0
0 0 0
-0.948688 -1.53186 0
-1.53186 -12.9345 0
0 0 0
-1.12965 -1.63299 0
-1.63299 -11.4516 0
0 0 0
-1.40374 -1.77137 0
-1.77137 -10.3266 0
0 0 0
-1.57603 -1.88818 0
-1.88818 -9.54958 0
0 0 0
-1.68138 -1.91004 0
-1.91004 -8.9014 0
0 0 0
0.662719 0.576285 0
0.576285 -19.6014 0
0 0 0
0.00308114 0.996905 0
0.996905 -20.8288 0
0 0 0
-0.686538 0.70327 0
0.70327 -21.2747 0
0 0 0
-0.689545 0.461786 0
0.461786 -21.6113 0
0 0 0
-0.155684 0.135151 0
0.135151 -21.0774 0
0 0 0
-0.167488 -0.707835 0
-0.707835 -17.0176 0
0 0 0
-0.803873 -1.48439 0
-1.48439 -13.3667 0
0 0 0
-1.10247 -1.5632 0
-1.5632 -11.7622 0
0 0 0
-1.36498 -1.69459 0
-1.69459 -10.572 0
0 0 0
-1.54534 -1.81488 0
-1.81488 -9.79143 0
0 0 0
-1.61664 -1.89528 0
-1.89528 -9.09451 0
0 0 0
0.630158 0.554587 0
0.554587 -19.5384 0
0 0 0
0.0332664 1.00654 0
1.00654 -20.7435 0
0 0 0
-0.681232 0.71364 0
0.71364 -21.1781 0
0 0 0
-0.683716 0.478298 0
0.478298 -21.5251 0
0 0 0
-0.180891 0.20759 0
0.20759 -21.3168 0
0 0 0
-0.193533 -0.613213 0
-0.613213 -17.8256 0
0 0 0
-0.702665 -1.3852 0
-1.3852 -13.7712 0
0 0 0
-1.05225 -1.51613 0
-1.51613 -12.0387 0
0 0 0
-1.33599 -1.639 0
-1.639 -10.763 0
0 0 0
-1.52519 -1.75525 0
-1.75525 -9.95021 0
0 0 0
-1.5842 -1.85661 0
-1.85661 -9.24376 0
0 0 0
