# vtk DataFile Version 3.0
MPM2D particles
ASCII
DATASET POLYDATA
POINTS 121 double
0.0142224 0.000207115 0
0.0422983 0.000157733 0
0.0670156 0.000129341 0
0.0890602 0.000112031 0
0.112234 0.000104065 0
0.137824 0.000116624 0
0.162811 0.000150639 0
0.185492 0.000318161 0
0.207366 0.000673208 0
0.204261 0.00354601 0
0.193049 0.00552903 0
0.0183742 0.000603679 0
0.0535509 0.000437059 0
0.0745099 0.000374771 0
0.0916986 0.000332092 0
0.111684 0.000311436 0
0.138495 0.000351191 0
0.163142 0.000462816 0
0.181829 0.000868219 0
0.199256 0.00158697 0
0.199856 0.00267199 0
0.195081 0.00376667 0
0.022136 0.000906324 0
0.0619467 0.000657133 0
0.0792614 0.000580013 0
0.0934764 0.000524531 0
0.111307 0.000497298 0
0.139088 0.000564636 0
0.163054 0.000750813 0
0.17867 0.00129325 0
0.192972 0.00215811 0
0.194674 0.0028338 0
0.192532 0.00352456 0
0.023221 0.00105049 0
0.0642565 0.000785682 0
0.0808661 0.000709801 0
0.0944172 0.000653482 0
0.111814 0.000632302 0
0.139516 0.000723581 0
0.162459 0.000957676 0
0.175775 0.00155905 0
0.1878 0.00245598 0
0.190906 0.00309307 0
0.189943 0.003722 0
0.0241271 0.00118482 0
0.066077 0.000911567 0
0.0822083 0.000840367 0
0.0953199 0.0007865 0
0.112507 0.000777873 0
0.139769 0.000897547 0
0.161525 0.0011699 0
0.172723 0.00179705 0
0.182677 0.00267051 0
0.18715 0.00331337 0
0.187568 0.00392399 0
0.0250565 0.00136514 0
0.0678437 0.00108611 0
0.0835472 0.00102471 0
0.0962534 0.00097795 0
0.113193 0.000992668 0
0.139503 0.00115801 0
0.159875 0.0014604 0
0.169048 0.00210577 0
0.177137 0.002946 0
0.182168 0.00359265 0
0.184461 0.00422047 0
0.0256812 0.00162614 0
0.0689535 0.00133837 0
0.0843475 0.00129154 0
0.0967498 0.0012573 0
0.11321 0.00130437 0
0.137946 0.00153886 0
0.157357 0.00184338 0
0.165223 0.00252043 0
0.172246 0.00337297 0
0.177032 0.00402348 0
0.180669 0.00468769 0
0.0255634 0.00196011 0
0.0687902 0.0016505 0
0.0841349 0.00161792 0
0.096473 0.00159729 0
0.112366 0.00167257 0
0.135466 0.00198714 0
0.154587 0.00233571 0
0.162112 0.00299503 0
0.168842 0.00391753 0
0.173493 0.00462332 0
0.177637 0.00535203 0
0.0248351 0.00233334 0
0.0676756 0.00198829 0
0.0831994 0.00196657 0
0.0956525 0.0019576 0
0.11105 0.00204826 0
0.132908 0.00244155 0
0.152002 0.00286311 0
0.15985 0.00348808 0
0.166681 0.00452574 0
0.171452 0.00533985 0
0.175846 0.00617825 0
0.023991 0.00271808 0
0.06634 0.00233397 0
0.0820755 0.00232153 0
0.0946363 0.0023241 0
0.109584 0.00241933 0
0.130585 0.00289029 0
0.149573 0.00340482 0
0.158087 0.00398421 0
0.165143 0.00515717 0
0.170084 0.00609424 0
0.174665 0.00705735 0
0.0231947 0.00311957 0
0.0649964 0.00269847 0
0.0808967 0.00269535 0
0.0934878 0.00271102 0
0.107982 0.00280197 0
0.128369 0.00335606 0
0.147171 0.00397967 0
0.156471 0.00453014 0
0.163795 0.00581824 0
0.16888 0.00687802 0
0.173552 0.00796423 0
VERTICES 121 242
1 0
1 1
1 2
1 3
1 4
1 5
1 6
1 7
1 8
1 9
1 10
1 11
1 12
1 13
1 14
1 15
1 16
1 17
1 18
1 19
1 20
1 21
1 22
1 23
1 24
1 25
1 26
1 27
1 28
1 29
1 30
1 31
1 32
1 33
1 34
1 35
1 36
1 37
1 38
1 39
1 40
1 41
1 42
1 43
1 44
1 45
1 46
1 47
1 48
1 49
1 50
1 51
1 52
1 53
1 54
1 55
1 56
1 57
1 58
1 59
1 60
1 61
1 62
1 63
1 64
1 65
1 66
1 67
1 68
1 69
1 70
1 71
1 72
1 73
1 74
1 75
1 76
1 77
1 78
1 79
1 80
1 81
1 82
1 83
1 84
1 85
1 86
1 87
1 88
1 89
1 90
1 91
1 92
1 93
1 94
1 95
1 96
1 97
1 98
1 99
1 100
1 101
1 102
1 103
1 104
1 105
1 106
1 107
1 108
1 109
1 110
1 111
1 112
1 113
1 114
1 115
1 116
1 117
1 118
1 119
1 120
POINT_DATA 121
VECTORS velocity double
5.26227 8.74014 0
3.01708 6.70258 0
1.51703 5.34552 0
0.870164 4.59602 0
0.345644 4.18944 0
0.190937 4.70586 0
-0.0366485 4.67905 0
-0.509175 2.56154 0
-1.24817 0.812099 0
-6.49569 7.71942 0
-9.13644 11.555 0
3.814 3.03003 0
1.1704 1.88119 0
0.244449 1.36885 0
0.254421 0.986282 0
0.206918 0.761592 0
0.13574 1.09444 0
0.0375063 1.0516 0
-0.0429437 -0.0663565 0
-0.213249 -1.14402 0
-1.35994 0.413231 0
-1.6005 1.35411 0
2.79164 -0.918088 0
-0.136367 -1.28021 0
-0.548116 -1.43664 0
-0.148328 -1.6126 0
0.12366 -1.73362 0
0.126141 -1.57451 0
0.139216 -1.60081 0
0.322503 -1.95732 0
0.460507 -2.33849 0
0.443228 -2.28355 0
0.719862 -2.26629 0
2.77824 -1.5565 0
-0.103921 -1.79057 0
-0.472399 -1.91281 0
-0.101437 -2.05198 0
0.170595 -2.14685 0
0.202809 -2.05353 0
0.223062 -2.07072 0
0.31772 -2.17989 0
0.373344 -2.29215 0
0.0953082 -2.41881 0
0.0998 -2.55748 0
2.82079 -2.00851 0
0.034797 -2.16611 0
-0.319683 -2.24565 0
-0.0239396 -2.34172 0
0.201899 -2.39978 0
0.265663 -2.33512 0
0.286233 -2.33257 0
0.248371 -2.29209 0
0.168829 -2.25967 0
-0.420253 -2.47067 0
-0.692373 -2.74621 0
2.80119 -2.36311 0
0.124001 -2.49447 0
-0.227518 -2.53311 0
0.00104068 -2.57919 0
0.182871 -2.58745 0
0.272624 -2.51454 0
0.304304 -2.48489 0
0.201421 -2.40827 0
0.0595532 -2.34537 0
-0.665598 -2.55777 0
-1.19926 -2.86418 0
2.62447 -2.60868 0
0.101363 -2.75427 0
-0.240627 -2.75768 0
-0.0446475 -2.758 0
0.116654 -2.72593 0
0.215589 -2.63948 0
0.265526 -2.58267 0
0.163677 -2.52397 0
0.0220979 -2.47741 0
-0.679004 -2.67601 0
-1.36357 -2.96581 0
2.31477 -2.87974 0
0.0657128 -3.03024 0
-0.258951 -3.00869 0
-0.096054 -2.97713 0
0.044814 -2.9209 0
0.152206 -2.81919 0
0.209975 -2.72433 0
0.0873076 -2.68 0
-0.0811886 -2.64511 0
-0.723004 -2.82255 0
-1.42035 -3.08649 0
1.93465 -3.31405 0
0.0617401 -3.42967 0
-0.249313 -3.39085 0
-0.146492 -3.33727 0
-0.0459959 -3.26481 0
0.071835 -3.14721 0
0.145462 -3.02033 0
0.00100469 -2.97719 0
-0.19399 -2.94868 0
-0.790927 -3.07882 0
-1.46441 -3.28037 0
1.55164 -4.07944 0
0.0470783 -4.11581 0
-0.257659 -4.04988 0
-0.229529 -3.96994 0
-0.182549 -3.87398 0
-0.0522251 -3.72967 0
0.0476344 -3.56713 0
-0.0888861 -3.51768 0
-0.283246 -3.49476 0
-0.861983 -3.55857 0
-1.52964 -3.66213 0
1.1172 -5.36933 0
-0.0323398 -5.3016 0
-0.329747 -5.20627 0
-0.390548 -5.09412 0
-0.413639 -4.93631 0
-0.264737 -4.75373 0
-0.113402 -4.50781 0
-0.211002 -4.45699 0
-0.372785 -4.44254 0
-0.93469 -4.40965 0
-1.5985 -4.37827 0
SCALARS mass double 1
LOOKUP_TABLE default
2.67769
2.67769
2.67769
2.67769
2.67769
2.67769
2.67769
2.67769
2.67769
2.67769
2.67769
2.67769
2.67769
2.67769
2.67769
2.67769
2.67769
2.67769
2.67769
2.67769
2.67769
2.67769
2.67769
2.67769
2.67769
2.67769
2.67769
2.67769
2.67769
2.67769
2.67769
2.67769
2.67769
2.67769
2.67769
2.67769
2.67769
2.67769
2.67769
2.67769
2.67769
2.67769
2.67769
2.67769
2.67769
2.67769
2.67769
2.67769
2.67769
2.67769
2.67769
2.67769
2.67769
2.67769
2.67769
2.67769
2.67769
2.67769
2.67769
2.67769
2.67769
2.67769
2.67769
2.67769
2.67769
2.67769
2.67769
2.67769
2.67769
2.67769
2.67769
2.67769
2.67769
2.67769
2.67769
2.67769
2.67769
2.67769
2.67769
2.67769
2.67769
2.67769
2.67769
2.67769
2.67769
2.67769
2.67769
2.67769
2.67769
2.67769
2.67769
2.67769
2.67769
2.67769
2.67769
2.67769
2.67769
2.67769
2.67769
2.67769
2.67769
2.67769
2.67769
2.67769
2.67769
2.67769
2.67769
2.67769
2.67769
2.67769
2.67769
2.67769
2.67769
2.67769
2.67769
2.67769
2.67769
2.67769
2.67769
2.67769
2.67769
SCALARS volume double 1
LOOKUP_TABLE default
1.40491e-05
1.06061e-05
6.79469e-06
5.91463e-06
6.34071e-06
7.10363e-06
8.20824e-06
1.72634e-05
2.65237e-05
4.14943e-05
3.02945e-05
1.77012e-05
1.19885e-05
5.12569e-06
4.60263e-06
6.63194e-06
7.47104e-06
7.04223e-06
1.30769e-05
1.36103e-05
7.49367e-06
5.59566e-06
8.87579e-06
5.02032e-06
2.40386e-06
2.35762e-06
4.53922e-06
5.27033e-06
4.23416e-06
7.70339e-06
7.21229e-06
2.93009e-06
1.44824e-06
7.87871e-06
4.19014e-06
2.09365e-06
2.11805e-06
4.45072e-06
5.32992e-06
3.73875e-06
6.26115e-06
6.50906e-06
2.74786e-06
1.2689e-06
8.82262e-06
4.47643e-06
2.31888e-06
2.40433e-06
5.35542e-06
6.50982e-06
3.96394e-06
6.12408e-06
6.37866e-06
3.56053e-06
1.44132e-06
1.34767e-05
6.37325e-06
3.41261e-06
3.5591e-06
8.21861e-06
1.02683e-05
5.19115e-06
7.1394e-06
6.81423e-06
5.58039e-06
2.83089e-06
1.86109e-05
8.19663e-06
4.37228e-06
4.5814e-06
1.03535e-05
1.31133e-05
5.74294e-06
7.06855e-06
6.42033e-06
6.13769e-06
4.1488e-06
2.18317e-05
9.24225e-06
4.94773e-06
5.07704e-06
1.07987e-05
1.35591e-05
6.07681e-06
6.60592e-06
5.87629e-06
5.62885e-06
4.82494e-06
2.21337e-05
9.59047e-06
5.08772e-06
5.1945e-06
1.01938e-05
1.26192e-05
6.57891e-06
6.15869e-06
5.56305e-06
5.34193e-06
5.16534e-06
2.19413e-05
1.04098e-05
5.287e-06
5.46145e-06
1.00879e-05
1.23892e-05
7.89133e-06
6.26022e-06
5.81091e-06
5.4526e-06
5.63896e-06
2.21754e-05
1.12955e-05
5.67802e-06
5.80644e-06
1.04452e-05
6.93095e-06
9.24131e-06
6.84093e-06
6.17006e-06
5.84722e-06
6.15802e-06
TENSORS stress double
5076.93 12847.2 0
12847.2 4895.19 0
0 0 0
5076.87 44292.1 0
44292.1 4599.29 0
0 0 0
5071.18 41800.6 0
41800.6 4383.69 0
0 0 0
5071.91 13243.4 0
13243.4 4220.25 0
0 0 0
5073.04 -7884.7 0
-7884.7 4215.89 0
0 0 0
5072.62 -13344.4 0
-13344.4 4641.06 0
0 0 0
5069.39 -22893.8 0
-22893.8 5277.9 0
0 0 0
5061.51 -55587.2 0
-55587.2 6675.2 0
0 0 0
5045.02 -74007 0
-74007 8016.38 0
0 0 0
4909.62 -41923.6 0
-41923.6 7724.56 0
0 0 0
4814.35 -17482 0
-17482 6959.68 0
0 0 0
5077.43 10423.5 0
10423.5 4836.38 0
0 0 0
5058.13 47791.1 0
47791.1 4472.42 0
0 0 0
5060.74 30902.2 0
30902.2 4318.71 0
0 0 0
5062.54 7225.36 0
7225.36 4192.35 0
0 0 0
5065.79 -8812.76 0
-8812.76 4198.97 0
0 0 0
5064.45 -14593.8 0
-14593.8 4643.49 0
0 0 0
5054.29 -21159.3 0
-21159.3 5287.03 0
0 0 0
5035.18 -49035.9 0
-49035.9 6428.94 0
0 0 0
5001.67 -60497.4 0
-60497.4 7482.55 0
0 0 0
4950.44 -5718.14 0
-5718.14 7481.9 0
0 0 0
4898.19 15750.3 0
15750.3 7147.6 0
0 0 0
5077.8 6417.94 0
6417.94 4785.21 0
0 0 0
5048.77 31977.4 0
31977.4 4401.68 0
0 0 0
5052.01 16512.6 0
16512.6 4275.65 0
0 0 0
5054.34 1383.74 0
1383.74 4171.89 0
0 0 0
5059.29 -7766.84 0
-7766.84 4185.73 0
0 0 0
5057.03 -15694.8 0
-15694.8 4645.4 0
0 0 0
5040.36 -19960.8 0
-19960.8 5271.08 0
0 0 0
5014.74 -44435.8 0
-44435.8 6218.22 0
0 0 0
4974.27 -54175.7 0
-54175.7 7073.34 0
0 0 0
4942.36 1067.77 0
1067.77 7155.11 0
0 0 0
4909.39 44848.1 0
44848.1 6998.05 0
0 0 0
5077.98 7758.69 0
7758.69 4768.33 0
0 0 0
5043.3 29054 0
29054 4379.68 0
0 0 0
5046.49 14744.3 0
14744.3 4258.83 0
0 0 0
5048.85 1742.62 0
1742.62 4160.04 0
0 0 0
5054.57 -6043.88 0
-6043.88 4189.11 0
0 0 0
5051.5 -15829.4 0
-15829.4 4646.61 0
0 0 0
5030.33 -16543.9 0
-16543.9 5226.75 0
0 0 0
5001.88 -38759.2 0
-38759.2 6029.44 0
0 0 0
4959.75 -56031.6 0
-56031.6 6742.4 0
0 0 0
4929.72 -10316.9 0
-10316.9 6912.44 0
0 0 0
4899.73 37411.9 0
37411.9 6830.59 0
0 0 0
5078.15 9864.35 0
9864.35 4753.72 0
0 0 0
5037.95 27765.4 0
27765.4 4361.41 0
0 0 0
5040.93 14306.2 0
14306.2 4243.94 0
0 0 0
5043.19 2506.76 0
2506.76 4148.32 0
0 0 0
5049.48 -4959.81 0
-4959.81 4195.17 0
0 0 0
5045.45 -15852.5 0
-15852.5 4644.34 0
0 0 0
5020.03 -12511.8 0
-12511.8 5161.15 0
0 0 0
4990.29 -31461.5 0
-31461.5 5831.88 0
0 0 0
4949.12 -50258.7 0
-50258.7 6417.38 0
0 0 0
4918.87 -28021.4 0
-28021.4 6671.83 0
0 0 0
4889.84 28620.4 0
28620.4 6676.11 0
0 0 0
5078.37 11717.2 0
11717.2 4737.14 0
0 0 0
5030.53 25688.4 0
25688.4 4341.72 0
0 0 0
5033.08 12640 0
12640 4227.06 0
0 0 0
5035.03 2680.42 0
2680.42 4134.18 0
0 0 0
5041.98 -4334.21 0
-4334.21 4198.53 0
0 0 0
5036.38 -16180.9 0
-16180.9 4630.2 0
0 0 0
5005.88 -8344.74 0
-8344.74 5048.41 0
0 0 0
4975.21 -21288.1 0
-21288.1 5593.11 0
0 0 0
4935.46 -34980.9 0
-34980.9 6064.16 0
0 0 0
4905.02 -36291.9 0
-36291.9 6352.97 0
0 0 0
4875.33 5980 0
5980 6472.88 0
0 0 0
5078.7 12433.8 0
12433.8 4720.78 0
0 0 0
5019.81 21375.8 0
21375.8 4324.01 0
0 0 0
5021.73 10254.9 0
10254.9 4211.09 0
0 0 0
5023.13 2373.9 0
2373.9 4119.99 0
0 0 0
5031.08 -3589.88 0
-3589.88 4187.14 0
0 0 0
5023.12 -15476.4 0
-15476.4 4590.1 0
0 0 0
5012.74 -5107.12 0
-5107.12 4901.94 0
0 0 0
4954.93 -10931.2 0
-10931.2 5341.14 0
0 0 0
4914.48 -18861.7 0
-18861.7 5745.61 0
0 0 0
4883.8 -27313 0
-27313 6019.06 0
0 0 0
4852.49 -3048.34 0
-3048.34 6221 0
0 0 0
5079.12 11729.2 0
11729.2 4709.59 0
0 0 0
5006.55 18240.5 0
18240.5 4313.54 0
0 0 0
5007.85 8467.57 0
8467.57 4200.43 0
0 0 0
5008.66 2392.25 0
2392.25 4109.28 0
0 0 0
5018.2 -2165.8 0
-2165.8 4159.28 0
0 0 0
5007.49 -12877.9 0
-12877.9 4532.11 0
0 0 0
4995.62 -7621.18 0
-7621.18 4837.55 0
0 0 0
4931.71 -2387.66 0
-2387.66 5131.02 0
0 0 0
4887.88 -7024.05 0
-7024.05 5514.88 0
0 0 0
4854.54 -13659.9 0
-13659.9 5778.02 0
0 0 0
4820.22 -1751.2 0
-1751.2 6009.13 0
0 0 0
5079.58 10487.6 0
10487.6 4703.41 0
0 0 0
4992.2 16556.8 0
16556.8 4309.2 0
0 0 0
4993.02 8271.01 0
8271.01 4194.33 0
0 0 0
4993.32 2819.24 0
2819.24 4101.86 0
0 0 0
5005.05 -363.418 0
-363.418 4123.28 0
0 0 0
4991.63 -9537.67 0
-9537.67 4472.57 0
0 0 0
4977.28 -10980.9 0
-10980.9 4774.93 0
0 0 0
4907.59 3087.96 0
3087.96 4972.82 0
0 0 0
4858.27 89.8361 0
89.8361 5358.85 0
0 0 0
4819.78 -4466.95 0
-4466.95 5625.53 0
0 0 0
4780.29 -541.258 0
-541.258 5868.28 0
0 0 0
5080.06 9936.8 0
9936.8 4698.02 0
0 0 0
4977.52 15927.6 0
15927.6 4306.22 0
0 0 0
4977.93 9439.89 0
9439.89 4189.39 0
0 0 0
4977.72 3558.71 0
3558.71 4095.67 0
0 0 0
4992.05 1413.43 0
1413.43 4084.96 0
0 0 0
4975.95 -6495.48 0
-6495.48 4417.13 0
0 0 0
4958.42 -15502.4 0
-15502.4 4714.35 0
0 0 0
4883.32 6417.88 0
6417.88 4845.36 0
0 0 0
4827.55 4379.18 0
4379.18 5240.49 0
0 0 0
4783.23 -404.317 0
-404.317 5513.41 0
0 0 0
4737.86 -2225.53 0
-2225.53 5763.38 0
0 0 0
5080.56 9341.81 0
9341.81 4691.51 0
0 0 0
4962.05 15018.2 0
15018.2 4302.6 0
0 0 0
4962.04 8816.31 0
8816.31 4184.17 0
0 0 0
4961.26 3571.91 0
3571.91 4089.7 0
0 0 0
4978.64 2688.45 0
2688.45 4043.9 0
0 0 0
4959.68 -5348.86 0
-5348.86 4362.83 0
0 0 0
4938.4 -14743.7 0
-14743.7 4652.95 0
0 0 0
4919.53 5264.55 0
5264.55 4787.57 0
0 0 0
4795.37 6885.23 0
6885.23 5132.76 0
0 0 0
4745.23 2579.68 0
2579.68 5410.31 0
0 0 0
4694.05 -1383.24 0
-1383.24 5661.62 0
0 0 0
TENSORS strain double
0.129148 0.128472 0
0.128472 -4.01403 0
0 0 0
0.120458 0.442921 0
0.442921 -4.27801 0
0 0 0
-0.122677 0.418006 0
0.418006 -4.47051 0
0 0 0
-0.117759 0.132434 0
0.132434 -4.60995 0
0 0 0
0.0236829 -0.078847 0
-0.078847 -4.68267 0
0 0 0
0.0233412 -0.133444 0
-0.133444 -4.5764 0
0 0 0
-0.0859268 -0.228938 0
-0.228938 -4.33391 0
0 0 0
-0.090225 -0.555872 0
-0.555872 -3.61662 0
0 0 0
-0.406631 -0.74007 0
-0.74007 -2.88947 0
0 0 0
-1.60396 -0.419236 0
-0.419236 -1.23843 0
0 0 0
-2.34912 -0.17482 0
-0.17482 -0.77376 0
0 0 0
0.38574 0.104235 0
0.104235 -4.04178 0
0 0 0
0.321158 0.477911 0
0.477911 -4.35432 0
0 0 0
-0.365655 0.309022 0
0.309022 -4.50397 0
0 0 0
-0.352536 0.0722536 0
0.0722536 -4.62146 0
0 0 0
0.0710617 -0.0881276 0
-0.0881276 -4.68495 0
0 0 0
0.0700013 -0.145938 0
-0.145938 -4.57286 0
0 0 0
-0.25855 -0.211593 0
-0.211593 -4.31108 0
0 0 0
-0.268955 -0.490359 0
-0.490359 -3.70792 0
0 0 0
-0.827164 -0.604974 0
-0.604974 -3.12439 0
0 0 0
-1.91445 -0.0571814 0
-0.0571814 -2.61077 0
0 0 0
-2.52946 0.157503 0
0.157503 -2.26748 0
0 0 0
0.572641 0.0641794 0
0.0641794 -4.91645 0
0 0 0
0.149932 0.319774 0
0.319774 -5.04056 0
0 0 0
-0.552332 0.165126 0
0.165126 -5.06371 0
0 0 0
-0.537166 0.0138374 0
0.0138374 -5.0966 0
0 0 0
0.107312 -0.0776684 0
-0.0776684 -5.09797 0
0 0 0
0.105882 -0.156948 0
-0.156948 -4.95585 0
0 0 0
-0.41792 -0.199608 0
-0.199608 -4.65394 0
0 0 0
-0.434282 -0.444358 0
-0.444358 -4.06251 0
0 0 0
-1.05484 -0.541757 0
-0.541757 -3.5174 0
0 0 0
-1.97938 0.0106777 0
0.0106777 -3.46877 0
0 0 0
-2.54604 0.448481 0
0.448481 -3.57633 0
0 0 0
0.620723 0.0775869 0
0.0775869 -5.08307 0
0 0 0
0.0937438 0.29054 0
0.29054 -5.16187 0
0 0 0
-0.601888 0.147443 0
0.147443 -5.14873 0
0 0 0
-0.590564 0.0174262 0
0.0174262 -5.14739 0
0 0 0
0.104485 -0.0604388 0
-0.0604388 -5.11461 0
0 0 0
0.103675 -0.158294 0
-0.158294 -4.94248 0
0 0 0
-0.554963 -0.165439 0
-0.165439 -4.63751 0
0 0 0
-0.581062 -0.387592 0
-0.387592 -4.11637 0
0 0 0
-1.03923 -0.560316 0
-0.560316 -3.63039 0
0 0 0
-1.87247 -0.103169 0
-0.103169 -3.63767 0
0 0 0
-2.44171 0.374119 0
0.374119 -3.80761 0
0 0 0
0.65921 0.0986435 0
0.0986435 -5.00885 0
0 0 0
0.0476228 0.277654 0
0.277654 -5.04782 0
0 0 0
-0.638273 0.143062 0
0.143062 -5.00935 0
0 0 0
-0.630468 0.0250676 0
0.0250676 -4.9804 0
0 0 0
0.088387 -0.0495981 0
-0.0495981 -4.91455 0
0 0 0
0.0877226 -0.158525 0
-0.158525 -4.72769 0
0 0 0
-0.702278 -0.125118 0
-0.125118 -4.42913 0
0 0 0
-0.73766 -0.314615 0
-0.314615 -3.97657 0
0 0 0
-1.11037 -0.502587 0
-0.502587 -3.57419 0
0 0 0
-1.70461 -0.280214 0
-0.280214 -3.55173 0
0 0 0
-2.35013 0.286204 0
0.286204 -3.77098 0
0 0 0
0.69724 0.117172 0
0.117172 -4.62555 0
0 0 0
-0.00739666 0.256884 0
0.256884 -4.63881 0
0 0 0
-0.673971 0.1264 0
0.1264 -4.59024 0
0 0 0
-0.670588 0.0268042 0
0.0268042 -4.55121 0
0 0 0
0.0538729 -0.0433421 0
-0.0433421 -4.45468 0
0 0 0
0.0522289 -0.161809 0
-0.161809 -4.23953 0
0 0 0
-0.874518 -0.0834474 0
-0.0834474 -3.98637 0
0 0 0
-0.914772 -0.212881 0
-0.212881 -3.64215 0
0 0 0
-1.26183 -0.349809 0
-0.349809 -3.35156 0
0 0 0
-1.56706 -0.362919 0
-0.362919 -3.24612 0
0 0 0
-2.07024 0.0598 0
0.0598 -3.39714 0
0 0 0
0.722038 0.124338 0
0.124338 -4.33034 0
0 0 0
-0.0300053 0.213758 0
0.213758 -4.36435 0
0 0 0
-0.6997 0.102549 0
0.102549 -4.31889 0
0 0 0
-0.699961 0.023739 0
0.023739 -4.27168 0
0 0 0
-0.00345455 -0.0358988 0
-0.0358988 -4.16862 0
0 0 0
-0.00776142 -0.154764 0
-0.154764 -3.93728 0
0 0 0
-1.00919 -0.0510712 0
-0.0510712 -3.74864 0
0 0 0
-1.05315 -0.109312 0
-0.109312 -3.5083 0
0 0 0
-1.37632 -0.188617 0
-0.188617 -3.28953 0
0 0 0
-1.55482 -0.27313 0
-0.27313 -3.16016 0
0 0 0
-1.88124 -0.0304834 0
-0.0304834 -3.21334 0
0 0 0
0.71744 0.117292 0
0.117292 -4.16909 0
0 0 0
-0.0387748 0.182405 0
0.182405 -4.23664 0
0 0 0
-0.702422 0.0846757 0
0.0846757 -4.19428 0
0 0 0
-0.704223 0.0239225 0
0.0239225 -4.16619 0
0 0 0
-0.0650948 -0.021658 0
-0.021658 -4.0665 0
0 0 0
-0.0722098 -0.128779 0
-0.128779 -3.84086 0
0 0 0
-1.01749 -0.0762118 0
-0.0762118 -3.68542 0
0 0 0
-1.11139 -0.0238766 0
-0.0238766 -3.51361 0
0 0 0
-1.40315 -0.0702405 0
-0.0702405 -3.34567 0
0 0 0
-1.57058 -0.136599 0
-0.136599 -3.22485 0
0 0 0
-1.75295 -0.017512 0
-0.017512 -3.19213 0
0 0 0
0.688398 0.104876 0
0.104876 -4.12921 0
0 0 0
-0.0244994 0.165568 0
0.165568 -4.21676 0
0 0 0
-0.689879 0.0827101 0
0.0827101 -4.18039 0
0 0 0
-0.692441 0.0281924 0
0.0281924 -4.15654 0
0 0 0
-0.114291 -0.00363418 0
-0.00363418 -4.07592 0
0 0 0
-0.123118 -0.0953767 0
-0.0953767 -3.86251 0
0 0 0
-0.939399 -0.109809 0
-0.109809 -3.68954 0
0 0 0
-1.10986 0.0308796 0
0.0308796 -3.58274 0
0 0 0
-1.37546 0.000898361 0
0.000898361 -3.42545 0
0 0 0
-1.54014 -0.0446695 0
-0.0446695 -3.30448 0
0 0 0
-1.63677 -0.00541258 0
-0.00541258 -3.24079 0
0 0 0
0.653648 0.099368 0
0.099368 -4.10539 0
0 0 0
0.0115638 0.159276 0
0.159276 -4.17481 0
0 0 0
-0.678264 0.0943989 0
0.0943989 -4.15492 0
0 0 0
-0.681387 0.0355871 0
0.0355871 -4.11951 0
0 0 0
-0.149254 0.0141343 0
0.0141343 -4.05257 0
0 0 0
-0.159101 -0.0649548 0
-0.0649548 -3.84592 0
0 0 0
-0.792988 -0.155024 0
-0.155024 -3.66042 0
0 0 0
-1.0863 0.0641788 0
0.0641788 -3.58974 0
0 0 0
-1.33353 0.0437918 0
0.0437918 -3.42405 0
0 0 0
-1.50535 -0.00404317 0
-0.00404317 -3.31806 0
0 0 0
-1.56685 -0.0222553 0
-0.0222553 -3.22456 0
0 0 0
0.619732 0.0934181 0
0.0934181 -4.06259 0
0 0 0
0.0430902 0.150182 0
0.150182 -4.12802 0
0 0 0
-0.671611 0.0881631 0
0.0881631 -4.09255 0
0 0 0
-0.674187 0.0357191 0
0.0357191 -4.06723 0
0 0 0
-0.17349 0.0268845 0
0.0268845 -3.9947 0
0 0 0
-0.183893 -0.0534886 0
-0.0534886 -4.23947 0
0 0 0
-0.69012 -0.147437 0
-0.147437 -3.60926 0
0 0 0
-1.03715 0.0526455 0
0.0526455 -3.55251 0
0 0 0
-1.30124 0.0688523 0
0.0688523 -3.39681 0
0 0 0
-1.48099 0.0257968 0
0.0257968 -3.27331 0
0 0 0
-1.52921 -0.0138324 0
-0.0138324 -3.17583 0
0 0 0
