# vtk DataFile Version 3.0
MPM2D particles
ASCII
DATASET POLYDATA
POINTS 121 double
0.0134172 0.0103854 0
0.0401805 0.00958437 0
0.0652085 0.00895476 0
0.0883749 0.00847699 0
0.112266 0.00809033 0
0.137859 0.00788724 0
0.16316 0.00769459 0
0.187363 0.00751352 0
0.21124 0.00750525 0
0.229754 0.0104955 0
0.24692 0.0145158 0
0.0154523 0.0310319 0
0.0460954 0.0284159 0
0.0700318 0.0266562 0
0.0899315 0.0253657 0
0.111779 0.0242793 0
0.138601 0.0236514 0
0.164406 0.0230784 0
0.18709 0.0225363 0
0.209215 0.0222069 0
0.219711 0.0278936 0
0.228561 0.0347324 0
0.0169902 0.0476192 0
0.0507552 0.0441369 0
0.0731137 0.0419708 0
0.0909745 0.0403205 0
0.111459 0.0388412 0
0.13926 0.0378844 0
0.165312 0.0370945 0
0.186674 0.0365147 0
0.207473 0.0360495 0
0.214898 0.0417735 0
0.221398 0.048171 0
0.0170743 0.0555674 0
0.0511679 0.0531637 0
0.0736109 0.0516349 0
0.0914911 0.0504018 0
0.112008 0.0492413 0
0.139738 0.0484172 0
0.165379 0.0478615 0
0.185442 0.0478743 0
0.205061 0.047907 0
0.213518 0.0518831 0
0.220921 0.0567077 0
0.0171304 0.0634367 0
0.05137 0.0620722 0
0.0739641 0.0612998 0
0.0920411 0.0606849 0
0.112733 0.0601107 0
0.140095 0.0596845 0
0.165097 0.0595512 0
0.183829 0.060155 0
0.202148 0.0607405 0
0.212143 0.0623224 0
0.22059 0.0652309 0
0.0171272 0.074424 0
0.0513904 0.0743389 0
0.0742392 0.0744825 0
0.0926126 0.0746288 0
0.113495 0.0747779 0
0.14033 0.0748865 0
0.164638 0.0752376 0
0.182271 0.0762419 0
0.19953 0.077197 0
0.2107 0.0767777 0
0.220559 0.0772352 0
0.0168718 0.0906938 0
0.0506006 0.0917685 0
0.0738959 0.0927391 0
0.0927486 0.0935956 0
0.113825 0.0943954 0
0.139965 0.0950218 0
0.163867 0.0957254 0
0.18145 0.0966835 0
0.19877 0.0975573 0
0.210509 0.0961726 0
0.221692 0.094444 0
0.0162621 0.111217 0
0.0487346 0.112541 0
0.0726278 0.113782 0
0.0922021 0.114909 0
0.113617 0.115956 0
0.139163 0.116811 0
0.163027 0.117618 0
0.18149 0.118295 0
0.199718 0.118894 0
0.212366 0.117208 0
0.224548 0.115007 0
0.0156169 0.131615 0
0.04681 0.132773 0
0.0712006 0.133975 0
0.0915123 0.13513 0
0.113303 0.136213 0
0.13843 0.137135 0
0.162317 0.137964 0
0.181709 0.138464 0
0.200875 0.138897 0
0.214554 0.137212 0
0.227817 0.135121 0
0.0151181 0.150431 0
0.0453263 0.151441 0
0.069998 0.152555 0
0.0908691 0.153672 0
0.112959 0.154726 0
0.137845 0.155637 0
0.161797 0.156459 0
0.181986 0.156925 0
0.201951 0.157333 0
0.216413 0.155817 0
0.230521 0.153994 0
0.0147555 0.168552 0
0.0442459 0.169471 0
0.0690415 0.170516 0
0.0902865 0.171601 0
0.112586 0.172634 0
0.13735 0.173535 0
0.161389 0.17437 0
0.182241 0.174891 0
0.202879 0.175363 0
0.217856 0.174071 0
0.23252 0.172561 0
VERTICES 121 242
1 0
1 1
1 2
1 3
1 4
1 5
1 6
1 7
1 8
1 9
1 10
1 11
1 12
1 13
1 14
1 15
1 16
1 17
1 18
1 19
1 20
1 21
1 22
1 23
1 24
1 25
1 26
1 27
1 28
1 29
1 30
1 31
1 32
1 33
1 34
1 35
1 36
1 37
1 38
1 39
1 40
1 41
1 42
1 43
1 44
1 45
1 46
1 47
1 48
1 49
1 50
1 51
1 52
1 53
1 54
1 55
1 56
1 57
1 58
1 59
1 60
1 61
1 62
1 63
1 64
1 65
1 66
1 67
1 68
1 69
1 70
1 71
1 72
1 73
1 74
1 75
1 76
1 77
1 78
1 79
1 80
1 81
1 82
1 83
1 84
1 85
1 86
1 87
1 88
1 89
1 90
1 91
1 92
1 93
1 94
1 95
1 96
1 97
1 98
1 99
1 100
1 101
1 102
1 103
1 104
1 105
1 106
1 107
1 108
1 109
1 110
1 111
1 112
1 113
1 114
1 115
1 116
1 117
1 118
1 119
1 120
POINT_DATA 121
VECTORS velocity double
3.79521 6.25925 0
2.06736 5.34723 0
0.942236 4.67404 0
0.574088 4.26919 0
0.251384 4.06495 0
0.0690128 4.38601 0
-0.115248 4.33824 0
-0.298561 2.80303 0
-0.73793 1.59449 0
-4.36913 5.09605 0
-7.62553 8.24391 0
2.62315 1.79434 0
0.686456 1.492 0
-0.0614697 1.24835 0
0.070688 1.06622 0
0.123078 0.960999 0
0.017064 1.10487 0
-0.0438953 1.05984 0
0.0768818 0.360459 0
0.0926736 -0.295689 0
-0.992612 0.8622 0
-1.63338 1.62359 0
1.84122 -1.20693 0
-0.272829 -1.0865 0
-0.677479 -1.12573 0
-0.251259 -1.18735 0
0.0491621 -1.24427 0
0.0100202 -1.2644 0
0.0468131 -1.29108 0
0.362981 -1.35771 0
0.619204 -1.44433 0
0.536875 -1.31607 0
0.52046 -1.27685 0
1.923 -1.43833 0
-0.0922747 -1.32458 0
-0.507632 -1.35156 0
-0.156967 -1.40001 0
0.101556 -1.45465 0
0.0883524 -1.52076 0
0.116008 -1.54276 0
0.294693 -1.4459 0
0.418031 -1.35418 0
0.0894226 -1.37547 0
-0.213689 -1.42063 0
2.02045 -1.62765 0
0.148478 -1.49761 0
-0.281407 -1.48262 0
-0.0383193 -1.49492 0
0.141599 -1.52292 0
0.154453 -1.58859 0
0.163053 -1.5945 0
0.169606 -1.41924 0
0.118767 -1.25734 0
-0.476748 -1.38896 0
-0.994424 -1.55351 0
2.0409 -1.74309 0
0.325334 -1.63233 0
-0.123663 -1.58541 0
0.0281321 -1.55918 0
0.140616 -1.5513 0
0.167038 -1.59022 0
0.16396 -1.57816 0
0.0883466 -1.40944 0
-0.0355814 -1.25524 0
-0.753378 -1.41245 0
-1.43188 -1.61973 0
1.88278 -1.73952 0
0.367338 -1.67906 0
-0.0802454 -1.61938 0
0.0249797 -1.56957 0
0.100663 -1.5387 0
0.114664 -1.55296 0
0.106101 -1.53415 0
0.0484357 -1.40798 0
-0.0506708 -1.29453 0
-0.731574 -1.45291 0
-1.46729 -1.65843 0
1.56932 -1.73263 0
0.351366 -1.7012 0
-0.0576043 -1.64746 0
0.0185012 -1.59508 0
0.0697754 -1.55609 0
0.0685705 -1.54755 0
0.0531093 -1.52171 0
0.00464517 -1.43312 0
-0.0799013 -1.3558 0
-0.672652 -1.51406 0
-1.31502 -1.70314 0
1.24614 -1.79304 0
0.333662 -1.77216 0
-0.0172281 -1.72919 0
0.0218611 -1.68185 0
0.046233 -1.64212 0
0.0413755 -1.62023 0
0.0243141 -1.59046 0
-0.0307368 -1.52907 0
-0.115993 -1.47708 0
-0.640065 -1.60761 0
-1.19156 -1.75616 0
0.978805 -2.06496 0
0.302589 -2.04388 0
0.00756737 -2.0056 0
0.00926051 -1.96144 0
0.00807139 -1.92101 0
0.00393548 -1.89027 0
-0.00871006 -1.85712 0
-0.0546498 -1.81632 0
-0.127281 -1.78177 0
-0.618632 -1.8618 0
-1.12505 -1.95087 0
0.722827 -2.6639 0
0.229925 -2.6297 0
-0.0108963 -2.58928 0
-0.0408161 -2.54199 0
-0.063335 -2.49033 0
-0.0658261 -2.44658 0
-0.0692873 -2.40368 0
-0.0755198 -2.36951 0
-0.105175 -2.32983 0
-0.58108 -2.35196 0
-1.06421 -2.38024 0
SCALARS mass double 1
LOOKUP_TABLE default
2.67769
2.67769
2.67769
2.67769
2.67769
2.67769
2.67769
2.67769
2.67769
2.67769
2.67769
2.67769
2.67769
2.67769
2.67769
2.67769
2.67769
2.67769
2.67769
2.67769
2.67769
2.67769
2.67769
2.67769
2.67769
2.67769
2.67769
2.67769
2.67769
2.67769
2.67769
2.67769
2.67769
2.67769
2.67769
2.67769
2.67769
2.67769
2.67769
2.67769
2.67769
2.67769
2.67769
2.67769
2.67769
2.67769
2.67769
2.67769
2.67769
2.67769
2.67769
2.67769
2.67769
2.67769
2.67769
2.67769
2.67769
2.67769
2.67769
2.67769
2.67769
2.67769
2.67769
2.67769
2.67769
2.67769
2.67769
2.67769
2.67769
2.67769
2.67769
2.67769
2.67769
2.67769
2.67769
2.67769
2.67769
2.67769
2.67769
2.67769
2.67769
2.67769
2.67769
2.67769
2.67769
2.67769
2.67769
2.67769
2.67769
2.67769
2.67769
2.67769
2.67769
2.67769
2.67769
2.67769
2.67769
2.67769
2.67769
2.67769
2.67769
2.67769
2.67769
2.67769
2.67769
2.67769
2.67769
2.67769
2.67769
2.67769
2.67769
2.67769
2.67769
2.67769
2.67769
2.67769
2.67769
2.67769
2.67769
2.67769
2.67769
SCALARS volume double 1
LOOKUP_TABLE default
0.000663439
0.000611231
0.000493894
0.000468139
0.000492989
0.000480519
0.000443023
0.000432921
0.000343748
0.000467093
0.000624265
0.000761313
0.000693357
0.000421121
0.000402158
0.00051716
0.000503482
0.000414669
0.000405831
0.0002317
0.000236493
0.000273967
0.000355133
0.000395691
0.000218126
0.000224386
0.000354689
0.000354001
0.00027355
0.000289883
0.00016441
9.38619e-05
7.56767e-05
0.000315212
0.000356362
0.000201175
0.000213344
0.000346807
0.00035715
0.000264162
0.000279241
0.000190269
9.40725e-05
7.56238e-05
0.000358323
0.00040435
0.000229507
0.000244402
0.000392792
0.000407965
0.000289331
0.000303418
0.00022524
0.000120713
9.58415e-05
0.0005503
0.000610157
0.000344261
0.000360464
0.00055709
0.000575054
0.000386983
0.000390577
0.000287131
0.000201748
0.000169364
0.000753608
0.000788447
0.000450062
0.000463937
0.0006606
0.00067161
0.00045555
0.000451485
0.000335966
0.000280064
0.000258412
0.00081409
0.000810194
0.000487272
0.000489682
0.000642094
0.000646601
0.000465966
0.000461242
0.000351977
0.000305471
0.000306239
0.00072141
0.000717058
0.000463509
0.000463908
0.000571493
0.000573224
0.000439977
0.000438993
0.000345049
0.000306394
0.000310412
0.000658002
0.00065511
0.000448997
0.000448401
0.000532539
0.000532708
0.000430302
0.000430992
0.000346885
0.000309629
0.000315945
0.000630906
0.000630161
0.000446646
0.000448581
0.000524809
0.00028099
0.000430593
0.000437312
0.00035659
0.000319839
0.000324473
TENSORS stress double
4995.92 2026.14 0
2026.14 8710.77 0
0 0 0
5001.98 9734.1 0
9734.1 8524.42 0
0 0 0
4820.87 10538.3 0
10538.3 8376.63 0
0 0 0
4834.2 2640.54 0
2640.54 8264.47 0
0 0 0
4969.08 -1561.7 0
-1561.7 8164.22 0
0 0 0
4971.7 1216.49 0
1216.49 8098.79 0
0 0 0
4849.03 2527.85 0
2527.85 8063.43 0
0 0 0
4854.54 -1428.02 0
-1428.02 8137.69 0
0 0 0
4568.32 1542.4 0
1542.4 8246.84 0
0 0 0
4373.62 -23567.3 0
-23567.3 9241.61 0
0 0 0
4114.21 -47930.5 0
-47930.5 10126.4 0
0 0 0
4835.33 -1270.63 0
-1270.63 7957.51 0
0 0 0
4855.13 7150.81 0
7150.81 7803.59 0
0 0 0
4314.99 7146.14 0
7146.14 7715.51 0
0 0 0
4351.05 -112.13 0
-112.13 7649.81 0
0 0 0
4753.79 -2617.1 0
-2617.1 7584 0
0 0 0
4761.89 243.315 0
243.315 7529.96 0
0 0 0
4393.91 1199.33 0
1199.33 7513.54 0
0 0 0
4410.38 -2609.44 0
-2609.44 7597 0
0 0 0
4420.53 8642.42 0
8642.42 7671.21 0
0 0 0
3197.12 918.444 0
918.444 8031.64 0
0 0 0
2748.87 -15351.2 0
-15351.2 8328.32 0
0 0 0
4706.28 -6219.63 0
-6219.63 7353.01 0
0 0 0
4732.43 -3155.25 0
-3155.25 7203.72 0
0 0 0
3877.17 -2208.48 0
-2208.48 7149.35 0
0 0 0
3923.17 -3528.29 0
-3528.29 7107.32 0
0 0 0
4560.14 -1648.11 0
-1648.11 7061.78 0
0 0 0
4572.46 -611.865 0
-611.865 7016.39 0
0 0 0
3979.28 -877.499 0
-877.499 7011.95 0
0 0 0
3997.09 -4980 0
-4980 7093.43 0
0 0 0
4011.48 4269.22 0
4269.22 7169.17 0
0 0 0
2253.77 30170.2 0
30170.2 7249.05 0
0 0 0
1834.44 33724.2 0
33724.2 7421.68 0
0 0 0
4619.66 -4465.6 0
-4465.6 6178.13 0
0 0 0
4653.25 -3641.26 0
-3641.26 6606.67 0
0 0 0
3600.94 -2096.37 0
-2096.37 6800.2 0
0 0 0
3634.72 -1756.33 0
-1756.33 6742.64 0
0 0 0
4421.82 270.584 0
270.584 6686.57 0
0 0 0
4432.26 -567.49 0
-567.49 6636.36 0
0 0 0
3660.75 -654.445 0
-654.445 6624.85 0
0 0 0
3661.19 -5465.93 0
-5465.93 6681.65 0
0 0 0
3661.01 -6681.27 0
-6681.27 6736.46 0
0 0 0
1570.36 23141 0
23141 7089.79 0
0 0 0
1604.73 25740.1 0
25740.1 6428.67 0
0 0 0
4502.94 -1899.01 0
-1899.01 5895.1 0
0 0 0
4521.58 -1006.78 0
-1006.78 6288.69 0
0 0 0
3414.29 -132.974 0
-132.974 6511.7 0
0 0 0
3425.29 390.796 0
390.796 6688.05 0
0 0 0
4209 1368.49 0
1368.49 6860.29 0
0 0 0
4217.52 87.7948 0
87.7948 7017.89 0
0 0 0
3326.24 632.58 0
632.58 7103.66 0
0 0 0
3309.94 -3750.82 0
-3750.82 7050.09 0
0 0 0
3294.14 -9455.6 0
-9455.6 6997.87 0
0 0 0
1648.41 9724.97 0
9724.97 6803.36 0
0 0 0
1668.63 14129.2 0
14129.2 6142.25 0
0 0 0
4339.98 476.87 0
476.87 5499.1 0
0 0 0
4340.29 647.685 0
647.685 5848.26 0
0 0 0
3162.39 897.068 0
897.068 6041.52 0
0 0 0
3159.26 1837.51 0
1837.51 6193.94 0
0 0 0
3894.4 1728.35 0
1728.35 6340.29 0
0 0 0
3891.92 298.652 0
298.652 6476.88 0
0 0 0
2884.73 1164.02 0
1164.02 6545.33 0
0 0 0
2856.98 -459.118 0
-459.118 6479.14 0
0 0 0
2830.59 -4323.27 0
-4323.27 6415.33 0
0 0 0
1756.21 13.3768 0
13.3768 6376.71 0
0 0 0
1758.54 5169.99 0
5169.99 5710.26 0
0 0 0
4098.68 1542.69 0
1542.69 4910.17 0
0 0 0
4082.7 29.8009 0
29.8009 5214.13 0
0 0 0
2813.54 268.995 0
268.995 5384.15 0
0 0 0
2797.42 1734.7 0
1734.7 5516.38 0
0 0 0
3473.64 1357.03 0
1357.03 5641.21 0
0 0 0
3460.66 -25.3324 0
-25.3324 5756.76 0
0 0 0
2308.08 247.674 0
247.674 5816.43 0
0 0 0
2281.45 1705.15 0
1705.15 5751.68 0
0 0 0
2257.18 772.854 0
772.854 5690.37 0
0 0 0
1900.51 -2444.65 0
-2444.65 5689.39 0
0 0 0
1887.4 1265.23 0
1265.23 5013.1 0
0 0 0
3736.31 1223.37 0
1223.37 5363.72 0
0 0 0
3707.41 -1350.99 0
-1350.99 5324.35 0
0 0 0
2457.17 -716.026 0
-716.026 5300.23 0
0 0 0
2441.24 1182.87 0
1182.87 5279.09 0
0 0 0
3035.06 1142.62 0
1142.62 5268.14 0
0 0 0
3019.13 50.4128 0
50.4128 5279.55 0
0 0 0
1921.09 -379.102 0
-379.102 5278.58 0
0 0 0
1913.38 2042.55 0
2042.55 5243.53 0
0 0 0
1906.58 1647.48 0
1647.48 5211.38 0
0 0 0
1787.15 -622.013 0
-622.013 5267.87 0
0 0 0
1814.75 2886.13 0
2886.13 5359.94 0
0 0 0
3277.81 1111.91 0
1111.91 4637.35 0
0 0 0
3252.63 -1275.11 0
-1275.11 4603.63 0
0 0 0
2163.03 -546.491 0
-546.491 4580.14 0
0 0 0
2146.77 1160.22 0
1160.22 4558.87 0
0 0 0
2640.25 1192.83 0
1192.83 4546.97 0
0 0 0
2623.17 442.028 0
442.028 4555.61 0
0 0 0
1686.66 -368.614 0
-368.614 4555.62 0
0 0 0
1680.99 1996.2 0
1996.2 4526.25 0
0 0 0
1676.07 1444.51 0
1444.51 4499.38 0
0 0 0
1531.71 -84.9196 0
-84.9196 4558.92 0
0 0 0
1557.91 3166.84 0
3166.84 4648.44 0
0 0 0
2854.88 1211.75 0
1211.75 3967.36 0
0 0 0
2833.03 -554.06 0
-554.06 3938.73 0
0 0 0
1892.38 172.597 0
172.597 3917.68 0
0 0 0
1876.74 1282.02 0
1282.02 3898.41 0
0 0 0
2279.44 1128.27 0
1128.27 3887.8 0
0 0 0
2262.7 756.41 0
756.41 3896.7 0
0 0 0
1472.71 31.1623 0
31.1623 3593.37 0
0 0 0
1466.26 1938.9 0
1938.9 3609.66 0
0 0 0
1460.63 1025.78 0
1025.78 3627.66 0
0 0 0
1294.17 -900.237 0
-900.237 3899.43 0
0 0 0
1316.95 1104.84 0
1104.84 3980.45 0
0 0 0
2468.64 1218.57 0
1218.57 3199.97 0
0 0 0
2450.25 -227.865 0
-227.865 3157.28 0
0 0 0
1599.14 293.568 0
293.568 3114.75 0
0 0 0
1581.71 1175.94 0
1175.94 3072.98 0
0 0 0
1958.26 1012.56 0
1012.56 3030.63 0
0 0 0
1943.1 -325.68 0
-325.68 2987.28 0
0 0 0
1221.94 35.1243 0
35.1243 2954.01 0
0 0 0
1214.8 1957.82 0
1957.82 2969.6 0
0 0 0
1208.34 1180.27 0
1180.27 2986.56 0
0 0 0
988.037 -519.33 0
-519.33 3078.05 0
0 0 0
1012.99 897.616 0
897.616 3195.38 0
0 0 0
TENSORS strain double
0.0708395 0.0202614 0
0.0202614 -0.184756 0
0 0 0
0.0690718 0.097341 0
0.097341 -0.264617 0
0 0 0
-0.0755264 0.105383 0
0.105383 -0.332134 0
0 0 0
-0.0742076 0.0264054 0
0.0264054 -0.38656 0
0 0 0
0.0236062 -0.015617 0
-0.015617 -0.432849 0
0 0 0
0.0234006 0.0121649 0
0.0121649 -0.458019 0
0 0 0
-0.0326151 0.0252785 0
0.0252785 -0.482538 0
0 0 0
-0.0318706 -0.0142802 0
-0.0142802 -0.506328 0
0 0 0
-0.259556 0.015424 0
0.015424 -0.507581 0
0 0 0
-0.289213 -0.235673 0
-0.235673 -0.174466 0
0 0 0
-0.324735 -0.479305 0
-0.479305 0.149719 0
0 0 0
0.212315 -0.0127063 0
-0.0127063 -0.188729 0
0 0 0
0.206643 0.0715081 0
0.0715081 -0.276328 0
0 0 0
-0.226141 0.0714614 0
0.0714614 -0.339844 0
0 0 0
-0.222478 -0.0011213 0
-0.0011213 -0.389105 0
0 0 0
0.0708246 -0.026171 0
-0.026171 -0.432512 0
0 0 0
0.070194 0.00243315 0
0.00243315 -0.45845 0
0 0 0
-0.0978123 0.0119933 0
0.0119933 -0.482772 0
0 0 0
-0.0955994 -0.0260944 0
-0.0260944 -0.506517 0
0 0 0
-0.636187 0.0864242 0
0.0864242 -0.521234 0
0 0 0
-0.841896 0.00918444 0
0.00918444 -0.294942 0
0 0 0
-0.915455 -0.153512 0
-0.153512 -0.0764624 0
0 0 0
0.307521 -0.0621963 0
-0.0621963 -1.0425 0
0 0 0
0.303266 -0.0315525 0
-0.0315525 -0.931441 0
0 0 0
-0.333513 -0.0220848 0
-0.0220848 -0.883148 0
0 0 0
-0.330713 -0.0352829 0
-0.0352829 -0.858175 0
0 0 0
0.106926 -0.0164811 0
-0.0164811 -0.843777 0
0 0 0
0.106211 -0.00611865 0
-0.00611865 -0.844966 0
0 0 0
-0.158718 -0.00877499 0
-0.00877499 -0.834555 0
0 0 0
-0.155851 -0.0498 0
-0.0498 -0.780148 0
0 0 0
-0.752492 0.0426922 0
0.0426922 -0.742399 0
0 0 0
-1.2271 0.301702 0
0.301702 -0.815531 0
0 0 0
-1.25351 0.337242 0
0.337242 -0.998039 0
0 0 0
0.312497 -0.044656 0
-0.044656 -1.16567 0
0 0 0
0.311415 -0.0364126 0
-0.0364126 -1.04344 0
0 0 0
-0.33293 -0.0209637 0
-0.0209637 -0.963136 0
0 0 0
-0.332674 -0.0175633 0
-0.0175633 -0.905764 0
0 0 0
0.104013 0.00270584 0
0.00270584 -0.863171 0
0 0 0
0.104116 -0.0056749 0
-0.0056749 -0.834168 0
0 0 0
-0.220563 -0.00654445 0
-0.00654445 -0.80719 0
0 0 0
-0.219686 -0.0546593 0
-0.0546593 -0.753289 0
0 0 0
-0.646474 -0.0668127 0
-0.0668127 -0.705251 0
0 0 0
-1.18098 0.23141 0
0.23141 -0.858956 0
0 0 0
-1.16477 0.257401 0
0.257401 -1.08689 0
0 0 0
0.315811 -0.0189901 0
-0.0189901 -1.04104 0
0 0 0
0.315394 -0.0100678 0
-0.0100678 -0.921302 0
0 0 0
-0.323073 -0.00132974 0
-0.00132974 -0.84192 0
0 0 0
-0.323001 0.00390796 0
0.00390796 -0.780305 0
0 0 0
0.0904063 0.0136849 0
0.0136849 -0.725419 0
0 0 0
0.0905424 0.000877948 0
0.000877948 -0.688034 0
0 0 0
-0.285715 0.0063258 0
0.0063258 -0.651132 0
0 0 0
-0.287387 -0.0375082 0
-0.0375082 -0.60256 0
0 0 0
-0.622469 -0.094556 0
-0.094556 -0.562797 0
0 0 0
-1.06691 0.0972497 0
0.0972497 -0.728337 0
0 0 0
-1.06107 0.141292 0
0.141292 -0.958065 0
0 0 0
0.315653 0.0047687 0
0.0047687 -0.613784 0
0 0 0
0.315827 0.00647685 0
0.00647685 -0.511879 0
0 0 0
-0.307788 0.00897068 0
0.00897068 -0.45612 0
0 0 0
-0.307715 0.0183751 0
0.0183751 -0.411058 0
0 0 0
0.0708237 0.0172835 0
0.0172835 -0.35821 0
0 0 0
0.0707038 0.00298652 0
0.00298652 -0.326646 0
0 0 0
-0.344619 0.0116402 0
0.0116402 -0.303736 0
0 0 0
-0.346719 -0.00459118 0
-0.00459118 -0.292599 0
0 0 0
-0.65279 -0.0432327 0
-0.0432327 -0.292573 0
0 0 0
-0.925486 0.000133768 0
0.000133768 -0.366315 0
0 0 0
-0.929011 0.0516999 0
0.0516999 -0.532814 0
0 0 0
0.300602 0.0154269 0
0.0154269 -0.286349 0
0 0 0
0.300309 0.000298009 0
0.000298009 -0.241326 0
0 0 0
-0.281663 0.00268995 0
0.00268995 -0.217929 0
0 0 0
-0.281239 0.017347 0
0.017347 -0.188447 0
0 0 0
0.0448653 0.0135703 0
0.0135703 -0.163037 0
0 0 0
0.0445626 -0.000253324 0
-0.000253324 -0.146305 0
0 0 0
-0.349715 0.00247674 0
0.00247674 -0.137744 0
0 0 0
-0.349183 0.0170515 0
0.0170515 -0.147203 0
0 0 0
-0.633283 0.00772854 0
0.00772854 -0.157052 0
0 0 0
-0.795205 -0.0244465 0
-0.0244465 -0.174943 0
0 0 0
-0.800527 0.0126523 0
0.0126523 -0.248075 0
0 0 0
0.263653 0.0122337 0
0.0122337 -0.173255 0
0 0 0
0.262586 -0.0135099 0
-0.0135099 -0.176992 0
0 0 0
-0.243326 -0.00716026 0
-0.00716026 -0.178144 0
0 0 0
-0.242531 0.0118287 0
0.0118287 -0.174046 0
0 0 0
0.0221738 0.0114262 0
0.0114262 -0.168972 0
0 0 0
0.0218705 0.000504128 0
0.000504128 -0.161695 0
0 0 0
-0.302214 -0.00379102 0
-0.00379102 -0.163265 0
0 0 0
-0.301146 0.0204255 0
0.0204255 -0.174441 0
0 0 0
-0.55913 0.0164748 0
0.0164748 -0.185292 0
0 0 0
-0.703741 -0.00622013 0
-0.00622013 -0.180833 0
0 0 0
-0.706987 0.0288613 0
0.0288613 -0.175103 0
0 0 0
0.223023 0.0111191 0
0.0111191 -0.253548 0
0 0 0
0.222147 -0.0127511 0
-0.0127511 -0.258721 0
0 0 0
-0.206438 -0.00546491 0
-0.00546491 -0.264715 0
0 0 0
-0.205766 0.0116022 0
0.0116022 -0.264542 0
0 0 0
0.00561948 0.0119283 0
0.0119283 -0.268539 0
0 0 0
0.00539299 0.00442028 0
0.00442028 -0.265304 0
0 0 0
-0.253498 -0.00368614 0
-0.00368614 -0.268954 0
0 0 0
-0.252685 0.019962 0
0.019962 -0.271995 0
0 0 0
-0.487657 0.0144451 0
0.0144451 -0.276517 0
0 0 0
-0.620805 -0.000849196 0
-0.000849196 -0.260679 0
0 0 0
-0.623404 0.0316684 0
0.0316684 -0.245233 0
0 0 0
0.190453 0.0121175 0
0.0121175 -0.312876 0
0 0 0
0.189836 -0.0055406 0
-0.0055406 -0.316656 0
0 0 0
-0.179407 0.00172597 0
0.00172597 -0.32328 0
0 0 0
-0.178993 0.0128202 0
0.0128202 -0.325018 0
0 0 0
-0.00414823 0.0112827 0
0.0112827 -0.329027 0
0 0 0
-0.00421228 0.0075641 0
0.0075641 -0.328653 0
0 0 0
-0.213421 0.000311623 0
0.000311623 -0.33105 0
0 0 0
-0.212841 0.019389 0
0.019389 -0.330081 0
0 0 0
-0.431182 0.0102578 0
0.0102578 -0.327622 0
0 0 0
-0.563226 -0.00900237 0
-0.00900237 -0.307751 0
0 0 0
-0.564502 0.0110484 0
0.0110484 -0.286562 0
0 0 0
0.166107 0.0121857 0
0.0121857 -0.330457 0
0 0 0
0.165643 -0.00227865 0
-0.00227865 -0.331181 0
0 0 0
-0.161723 0.00293568 0
0.00293568 -0.346016 0
0 0 0
-0.161425 0.0117594 0
0.0117594 -0.342089 0
0 0 0
-0.00908132 0.0101256 0
0.0101256 -0.338612 0
0 0 0
-0.00909987 -0.0032568 0
-0.0032568 -0.799067 0
0 0 0
-0.181181 0.000351243 0
0.000351243 -0.3622 0
0 0 0
-0.180605 0.0195782 0
0.0195782 -0.347727 0
0 0 0
-0.398356 0.0118027 0
0.0118027 -0.333039 0
0 0 0
-0.527119 -0.0051933 0
-0.0051933 -0.311655 0
0 0 0
-0.527685 0.00897616 0
0.00897616 -0.296879 0
0 0 0
