# vtk DataFile Version 3.0
MPM2D particles
ASCII
DATASET POLYDATA
POINTS 121 double
0.012517 0.0124604 0
0.037551 0.0124601 0
0.062558 0.0124599 0
0.0875239 0.0124597 0
0.112502 0.0124596 0
0.137509 0.0124596 0
0.162516 0.0124593 0
0.187524 0.0124579 0
0.212515 0.0124568 0
0.237317 0.0124598 0
0.262118 0.0124628 0
0.0125511 0.0373812 0
0.0376532 0.0373804 0
0.0626739 0.0373797 0
0.0875718 0.0373791 0
0.112505 0.0373787 0
0.137527 0.0373788 0
0.162549 0.037378 0
0.187572 0.0373737 0
0.212546 0.0373705 0
0.236954 0.0373793 0
0.261362 0.0373881 0
0.0125692 0.0621938 0
0.0377076 0.0621929 0
0.0627354 0.0621922 0
0.0875972 0.0621916 0
0.112507 0.0621912 0
0.137536 0.0621913 0
0.162566 0.0621905 0
0.187597 0.0621861 0
0.212561 0.0621829 0
0.236763 0.062192 0
0.260965 0.0622011 0
0.0125623 0.0868371 0
0.037687 0.0868371 0
0.0627122 0.0868371 0
0.0875879 0.086837 0
0.112507 0.086837 0
0.137533 0.0868369 0
0.162559 0.0868369 0
0.187586 0.0868368 0
0.212552 0.0868368 0
0.236834 0.0868378 0
0.261115 0.0868388 0
0.0125552 0.111579 0
0.0376657 0.11158 0
0.0626882 0.11158 0
0.0875782 0.11158 0
0.112507 0.111581 0
0.13753 0.111581 0
0.162552 0.111581 0
0.187575 0.111584 0
0.212545 0.111587 0
0.236907 0.111581 0
0.26127 0.111576 0
0.0125475 0.136584 0
0.0376425 0.136585 0
0.062662 0.136585 0
0.0875673 0.136586 0
0.112506 0.136586 0
0.137525 0.136586 0
0.162545 0.136587 0
0.187565 0.13659 0
0.212539 0.136593 0
0.236989 0.136587 0
0.261439 0.13658 0
0.0125398 0.16159 0
0.0376194 0.16159 0
0.0626358 0.161591 0
0.0875565 0.161592 0
0.112505 0.161592 0
0.137521 0.161592 0
0.162538 0.161593 0
0.187555 0.161596 0
0.212533 0.161599 0
0.237071 0.161592 0
0.261609 0.161585 0
0.0125321 0.186597 0
0.0375963 0.186597 0
0.0626096 0.186598 0
0.0875456 0.186598 0
0.112504 0.186599 0
0.137517 0.186599 0
0.162531 0.186599 0
0.187545 0.186602 0
0.212527 0.186605 0
0.237154 0.186599 0
0.261781 0.186592 0
0.0125245 0.211591 0
0.0375736 0.211592 0
0.0625838 0.211592 0
0.0875349 0.211592 0
0.112503 0.211593 0
0.137513 0.211593 0
0.162524 0.211593 0
0.187534 0.211596 0
0.212521 0.211598 0
0.237236 0.211592 0
0.26195 0.211586 0
0.0125193 0.236398 0
0.0375579 0.236399 0
0.0625661 0.236399 0
0.0875277 0.2364 0
0.112503 0.2364 0
0.137511 0.2364 0
0.162518 0.236401 0
0.187526 0.236403 0
0.212515 0.236405 0
0.237292 0.2364 0
0.26207 0.236394 0
0.0125141 0.261206 0
0.0375422 0.261206 0
0.0625483 0.261207 0
0.0875205 0.261207 0
0.112502 0.261207 0
0.137508 0.261207 0
0.162513 0.261208 0
0.187517 0.26121 0
0.212508 0.261212 0
0.237349 0.261207 0
0.26219 0.261201 0
VERTICES 121 242
1 0
1 1
1 2
1 3
1 4
1 5
1 6
1 7
1 8
1 9
1 10
1 11
1 12
1 13
1 14
1 15
1 16
1 17
1 18
1 19
1 20
1 21
1 22
1 23
1 24
1 25
1 26
1 27
1 28
1 29
1 30
1 31
1 32
1 33
1 34
1 35
1 36
1 37
1 38
1 39
1 40
1 41
1 42
1 43
1 44
1 45
1 46
1 47
1 48
1 49
1 50
1 51
1 52
1 53
1 54
1 55
1 56
1 57
1 58
1 59
1 60
1 61
1 62
1 63
1 64
1 65
1 66
1 67
1 68
1 69
1 70
1 71
1 72
1 73
1 74
1 75
1 76
1 77
1 78
1 79
1 80
1 81
1 82
1 83
1 84
1 85
1 86
1 87
1 88
1 89
1 90
1 91
1 92
1 93
1 94
1 95
1 96
1 97
1 98
1 99
1 100
1 101
1 102
1 103
1 104
1 105
1 106
1 107
1 108
1 109
1 110
1 111
1 112
1 113
1 114
1 115
1 116
1 117
1 118
1 119
1 120
POINT_DATA 121
VECTORS velocity double
0.336001 0.56216 0
0.128195 0.560705 0
0.00230788 0.559482 0
0.00162827 0.558611 0
0.00113756 0.558342 0
0.00111053 0.559552 0
0.010191 0.559065 0
0.0595638 0.551078 0
0.0833667 0.54484 0
-0.189057 0.558789 0
-0.46148 0.572737 0
0.313402 0.102711 0
0.117236 0.101865 0
-0.000840036 0.101155 0
-0.000330519 0.100651 0
-1.7658e-06 0.100494 0
-0.000116696 0.101186 0
0.00858404 0.100901 0
0.0562036 0.0963142 0
0.0804359 0.092744 0
-0.162635 0.100655 0
-0.405701 0.108565 0
0.287611 -0.176654 0
0.106388 -0.176972 0
-0.00230677 -0.17724 0
-0.00124514 -0.177432 0
-0.000533601 -0.177495 0
-0.000681462 -0.177244 0
0.00741164 -0.177353 0
0.0518444 -0.179044 0
0.0750753 -0.180354 0
-0.142409 -0.177403 0
-0.359891 -0.174452 0
0.256866 -0.176384 0
0.0956977 -0.176296 0
-0.00114968 -0.176227 0
-0.000528575 -0.176186 0
-0.000114812 -0.176177 0
-0.00021 -0.176248 0
0.0069212 -0.176221 0
0.0459329 -0.175761 0
0.0658647 -0.175384 0
-0.131442 -0.175946 0
-0.328748 -0.176508 0
0.225821 -0.176408 0
0.084682 -0.176025 0
-0.000281458 -0.17571 0
-1.85262e-06 -0.175497 0
0.000180698 -0.175433 0
0.000125026 -0.175737 0
0.00632272 -0.17561 0
0.0401212 -0.173586 0
0.0570289 -0.171985 0
-0.118926 -0.175149 0
-0.294883 -0.178313 0
0.193971 -0.177238 0
0.0727975 -0.17686 0
-0.000201478 -0.176546 0
7.15016e-06 -0.176328 0
0.000140622 -0.176259 0
8.96218e-05 -0.176553 0
0.00543048 -0.176424 0
0.0345804 -0.174425 0
0.0492236 -0.172854 0
-0.102258 -0.176123 0
-0.253742 -0.179392 0
0.162027 -0.176134 0
0.060863 -0.175767 0
-0.000129375 -0.17546 0
1.3321e-05 -0.175242 0
0.000101622 -0.175168 0
5.64116e-05 -0.17545 0
0.00453642 -0.175321 0
0.0290077 -0.173379 0
0.0413593 -0.171861 0
-0.0854866 -0.175172 0
-0.212335 -0.178483 0
0.129634 -0.165738 0
0.0487191 -0.165417 0
-9.7704e-05 -0.165146 0
5.0057e-06 -0.164951 0
6.82738e-05 -0.164885 0
3.47327e-05 -0.165138 0
0.00363091 -0.165025 0
0.0232697 -0.163298 0
0.0332236 -0.161953 0
-0.0683942 -0.164977 0
-0.170014 -0.168001 0
0.0976835 -0.159691 0
0.0367454 -0.159413 0
-4.81753e-05 -0.159177 0
8.90973e-06 -0.159004 0
4.31073e-05 -0.158946 0
2.113e-05 -0.159171 0
0.00274408 -0.159073 0
0.0176046 -0.157553 0
0.0251684 -0.156375 0
-0.0515794 -0.159121 0
-0.128329 -0.161867 0
0.0719095 -0.213179 0
0.0272869 -0.212911 0
0.000286005 -0.212683 0
0.000207585 -0.212515 0
0.000147637 -0.212459 0
0.000133029 -0.212677 0
0.00211147 -0.212583 0
0.0129057 -0.211108 0
0.0182571 -0.209964 0
-0.0394342 -0.212646 0
-0.097127 -0.215328 0
0.0461337 -0.266668 0
0.0178228 -0.266409 0
0.00062029 -0.266189 0
0.000406303 -0.266027 0
0.000252166 -0.265973 0
0.000244929 -0.266184 0
0.00147937 -0.266093 0
0.00820786 -0.264662 0
0.0113415 -0.263554 0
-0.0272632 -0.266172 0
-0.0658694 -0.268789 0
SCALARS mass double 1
LOOKUP_TABLE default
2.67769
2.67769
2.67769
2.67769
2.67769
2.67769
2.67769
2.67769
2.67769
2.67769
2.67769
2.67769
2.67769
2.67769
2.67769
2.67769
2.67769
2.67769
2.67769
2.67769
2.67769
2.67769
2.67769
2.67769
2.67769
2.67769
2.67769
2.67769
2.67769
2.67769
2.67769
2.67769
2.67769
2.67769
2.67769
2.67769
2.67769
2.67769
2.67769
2.67769
2.67769
2.67769
2.67769
2.67769
2.67769
2.67769
2.67769
2.67769
2.67769
2.67769
2.67769
2.67769
2.67769
2.67769
2.67769
2.67769
2.67769
2.67769
2.67769
2.67769
2.67769
2.67769
2.67769
2.67769
2.67769
2.67769
2.67769
2.67769
2.67769
2.67769
2.67769
2.67769
2.67769
2.67769
2.67769
2.67769
2.67769
2.67769
2.67769
2.67769
2.67769
2.67769
2.67769
2.67769
2.67769
2.67769
2.67769
2.67769
2.67769
2.67769
2.67769
2.67769
2.67769
2.67769
2.67769
2.67769
2.67769
2.67769
2.67769
2.67769
2.67769
2.67769
2.67769
2.67769
2.67769
2.67769
2.67769
2.67769
2.67769
2.67769
2.67769
2.67769
2.67769
2.67769
2.67769
2.67769
2.67769
2.67769
2.67769
2.67769
2.67769
SCALARS volume double 1
LOOKUP_TABLE default
0.000742455
0.000742438
0.000740404
0.000740392
0.000741608
0.000741609
0.000741614
0.000741529
0.000735342
0.000735517
0.000735692
0.000744476
0.000744459
0.000738384
0.000738373
0.000742031
0.000742032
0.000742078
0.000741993
0.000723684
0.000723854
0.000724024
0.000737256
0.000737281
0.000729175
0.000729191
0.000734113
0.00073411
0.000734198
0.000734325
0.000710058
0.000709823
0.000709589
0.000736853
0.000736877
0.000729582
0.000729598
0.000734025
0.000734023
0.00073407
0.000734197
0.000712379
0.000712144
0.000711908
0.000747244
0.000747245
0.000740686
0.000740687
0.000744645
0.000744647
0.00074465
0.000744657
0.000725013
0.000724989
0.000724964
0.000746784
0.000746786
0.000741144
0.000741145
0.000744549
0.000744551
0.000744563
0.00074457
0.000727609
0.000727584
0.00072756
0.00074638
0.000746378
0.000741649
0.000741648
0.000744495
0.000744496
0.000744511
0.0007445
0.000730225
0.000730237
0.000730249
0.000745921
0.000745919
0.000742105
0.000742103
0.000744401
0.000744401
0.000744417
0.000744407
0.000732876
0.000732888
0.0007329
0.000739521
0.00073952
0.000736623
0.000736623
0.000738369
0.000738368
0.000738384
0.000738381
0.000729622
0.000729626
0.00072963
0.000739212
0.000739211
0.000736935
0.000736935
0.000738302
0.000738302
0.000738284
0.000738281
0.000731489
0.000731493
0.000731497
0.000738903
0.000738902
0.000737248
0.000737247
0.000738235
0.000738235
0.000738183
0.00073818
0.00073336
0.000733364
0.000733368
TENSORS stress double
4883.49 67.5858 0
67.5858 9681.19 0
0 0 0
4883.49 203.877 0
203.877 9680.4 0
0 0 0
4829.49 232.266 0
232.266 9679.7 0
0 0 0
4829.5 95.6016 0
95.6016 9679.15 0
0 0 0
4862.26 7.19225 0
7.19225 9678.76 0
0 0 0
4862.26 35.7824 0
35.7824 9678.75 0
0 0 0
4858.08 61.9659 0
61.9659 9678.09 0
0 0 0
4858.09 93.248 0
93.248 9674.57 0
0 0 0
4721.46 67.487 0
67.487 9671.95 0
0 0 0
4721.41 -728.499 0
-728.499 9679.57 0
0 0 0
4721.35 -1524.49 0
-1524.49 9687.18 0
0 0 0
4497.11 66.5463 0
66.5463 8800.8 0
0 0 0
4497.12 202.997 0
202.997 8800.02 0
0 0 0
4335.13 231.235 0
231.235 8799.34 0
0 0 0
4335.14 94.7309 0
94.7309 8798.8 0
0 0 0
4433.42 7.27466 0
7.27466 8798.41 0
0 0 0
4433.42 35.8718 0
35.8718 8798.4 0
0 0 0
4420.88 56.2578 0
56.2578 8797.75 0
0 0 0
4420.93 87.5489 0
87.5489 8794.3 0
0 0 0
4011.04 78.7775 0
78.7775 8791.74 0
0 0 0
4010.87 -711.651 0
-711.651 8799.12 0
0 0 0
4010.7 -1502.08 0
-1502.08 8806.5 0
0 0 0
4087.2 -15.5018 0
-15.5018 7669.43 0
0 0 0
4087.21 -43.0707 0
-43.0707 7670.62 0
0 0 0
3867.52 -47.9102 0
-47.9102 7671.64 0
0 0 0
3867.52 -19.9629 0
-19.9629 7672.44 0
0 0 0
4000.71 -0.562005 0
-0.562005 7673 0
0 0 0
4000.71 -6.5495 0
-6.5495 7672.98 0
0 0 0
3983.29 -21.8807 0
-21.8807 7673.95 0
0 0 0
3983.35 -30.6215 0
-30.6215 7679.27 0
0 0 0
3427.61 1.88444 0
1.88444 7683.26 0
0 0 0
3427.52 162.813 0
162.813 7672.7 0
0 0 0
3427.42 323.742 0
323.742 7662.15 0
0 0 0
3640.26 -13.8444 0
-13.8444 6796.63 0
0 0 0
3640.26 -41.4068 0
-41.4068 6797.8 0
0 0 0
3441.97 -46.8404 0
-46.8404 6798.81 0
0 0 0
3441.97 -18.8864 0
-18.8864 6799.59 0
0 0 0
3561.9 -0.743782 0
-0.743782 6800.14 0
0 0 0
3561.9 -6.73097 0
-6.73097 6800.13 0
0 0 0
3545.07 -13.3508 0
-13.3508 6801.08 0
0 0 0
3545.07 -22.0904 0
-22.0904 6806.29 0
0 0 0
3044.21 -14.7484 0
-14.7484 6810.21 0
0 0 0
3044.2 146.413 0
146.413 6799.82 0
0 0 0
3044.19 307.574 0
307.574 6789.43 0
0 0 0
3191.47 -14.2365 0
-14.2365 6210.25 0
0 0 0
3191.47 -45.0648 0
-45.0648 6210.32 0
0 0 0
3015.38 -51.765 0
-51.765 6210.39 0
0 0 0
3015.38 -20.939 0
-20.939 6210.47 0
0 0 0
3121.63 -1.81368 0
-1.81368 6210.55 0
0 0 0
3121.63 -8.28652 0
-8.28652 6210.64 0
0 0 0
3105.91 -8.30488 0
-8.30488 6210.77 0
0 0 0
3105.88 -14.155 0
-14.155 6211.02 0
0 0 0
2661.2 -21.9534 0
-21.9534 6211.17 0
0 0 0
2661.26 154.239 0
154.239 6210.17 0
0 0 0
2661.31 330.431 0
330.431 6209.18 0
0 0 0
2737.76 -14.1244 0
-14.1244 5327.19 0
0 0 0
2737.75 -44.9446 0
-44.9446 5327.26 0
0 0 0
2586.14 -51.6763 0
-51.6763 5327.34 0
0 0 0
2586.14 -20.8421 0
-20.8421 5327.41 0
0 0 0
2677.51 -1.68491 0
-1.68491 5327.49 0
0 0 0
2677.51 -8.15738 0
-8.15738 5327.58 0
0 0 0
2664.4 -7.83413 0
-7.83413 5327.71 0
0 0 0
2664.35 -13.684 0
-13.684 5327.95 0
0 0 0
2279.58 -23.6645 0
-23.6645 5328.1 0
0 0 0
2279.65 152.804 0
152.804 5327.12 0
0 0 0
2279.71 329.272 0
329.272 5326.14 0
0 0 0
2284.02 -14.0302 0
-14.0302 4441.83 0
0 0 0
2284.01 -44.7979 0
-44.7979 4441.72 0
0 0 0
2156.89 -51.5949 0
-51.5949 4441.62 0
0 0 0
2156.89 -20.9333 0
-20.9333 4441.56 0
0 0 0
2233.39 -1.82841 0
-1.82841 4441.51 0
0 0 0
2233.39 -8.18026 0
-8.18026 4441.5 0
0 0 0
2222.84 -7.66806 0
-7.66806 4441.4 0
0 0 0
2222.79 -13.9721 0
-13.9721 4440.9 0
0 0 0
1898.28 -25.7485 0
-25.7485 4440.5 0
0 0 0
1898.35 153.573 0
153.573 4441.2 0
0 0 0
1898.42 332.894 0
332.894 4441.9 0
0 0 0
1830.13 -14.1656 0
-14.1656 3558.69 0
0 0 0
1830.12 -44.9252 0
-44.9252 3558.58 0
0 0 0
1727.63 -51.6881 0
-51.6881 3558.49 0
0 0 0
1727.63 -21.0184 0
-21.0184 3558.42 0
0 0 0
1789.31 -1.82293 0
-1.82293 3558.37 0
0 0 0
1789.31 -8.17443 0
-8.17443 3558.36 0
0 0 0
1781.08 -8.34233 0
-8.34233 3558.27 0
0 0 0
1781.04 -14.646 0
-14.646 3557.78 0
0 0 0
1518.73 -24.9492 0
-24.9492 3557.38 0
0 0 0
1518.79 154.657 0
154.657 3558.07 0
0 0 0
1518.86 334.263 0
334.263 3558.76 0
0 0 0
1376.65 -9.41282 0
-9.41282 2538.76 0
0 0 0
1376.64 -30.3993 0
-30.3993 2538.72 0
0 0 0
1298.37 -34.9909 0
-34.9909 2538.68 0
0 0 0
1298.37 -13.7781 0
-13.7781 2538.65 0
0 0 0
1345.45 -0.69696 0
-0.69696 2538.63 0
0 0 0
1345.45 -5.23772 0
-5.23772 2538.62 0
0 0 0
1339.46 -4.67385 0
-4.67385 2538.58 0
0 0 0
1339.43 -11.4806 0
-11.4806 2538.39 0
0 0 0
1138.33 -25.0386 0
-25.0386 2538.25 0
0 0 0
1138.39 102.235 0
102.235 2538.59 0
0 0 0
1138.46 229.508 0
229.508 2538.93 0
0 0 0
929.942 -9.4527 0
-9.4527 1661.47 0
0 0 0
929.936 -30.4354 0
-30.4354 1661.43 0
0 0 0
867.965 -35.0246 0
-35.0246 1661.39 0
0 0 0
867.961 -13.808 0
-13.808 1661.36 0
0 0 0
904.992 -0.702723 0
-0.702723 1661.34 0
0 0 0
904.992 -5.24331 0
-5.24331 1661.33 0
0 0 0
899.62 -4.86764 0
-4.86764 1661.29 0
0 0 0
899.586 -11.674 0
-11.674 1661.11 0
0 0 0
740.905 -24.774 0
-24.774 1660.96 0
0 0 0
740.968 102.642 0
102.642 1661.3 0
0 0 0
741.032 230.059 0
230.059 1661.64 0
0 0 0
483.238 -9.49257 0
-9.49257 784.177 0
0 0 0
483.232 -30.4715 0
-30.4715 784.136 0
0 0 0
437.56 -35.0583 0
-35.0583 784.1 0
0 0 0
437.556 -13.8378 0
-13.8378 784.072 0
0 0 0
464.532 -0.708487 0
-0.708487 784.05 0
0 0 0
464.532 -5.24889 0
-5.24889 784.043 0
0 0 0
459.776 -5.06143 0
-5.06143 784.004 0
0 0 0
459.744 -11.8674 0
-11.8674 783.82 0
0 0 0
343.48 -24.5094 0
-24.5094 783.678 0
0 0 0
343.542 103.051 0
103.051 784.012 0
0 0 0
343.605 230.61 0
230.61 784.346 0
0 0 0
TENSORS strain double
0.00135939 0.000675858 0
0.000675858 -0.00317128 0
0 0 0
0.00135938 0.00203877 0
0.00203877 -0.00319373 0
0 0 0
-0.0013647 0.00232266 0
0.00232266 -0.00321331 0
0 0 0
-0.00136469 0.000956016 0
0.000956016 -0.00322848 0
0 0 0
0.000285289 7.19225e-05 0
7.19225e-05 -0.0032388 0
0 0 0
0.000285289 0.000357824 0
0.000357824 -0.00323719 0
0 0 0
0.000312405 0.000619659 0
0.000619659 -0.00325702 0
0 0 0
0.000312401 0.00093248 0
0.00093248 -0.00337166 0
0 0 0
-0.00797255 0.00067487 0
0.00067487 -0.00345818 0
0 0 0
-0.00797303 -0.00728499 0
-0.00728499 -0.00322056 0
0 0 0
-0.0079735 -0.0152449 0
-0.0152449 -0.00298295 0
0 0 0
0.00407816 0.000665463 0
0.000665463 -0.00317129 0
0 0 0
0.00407814 0.00202997 0
0.00202997 -0.00319379 0
0 0 0
-0.0040941 0.00231235 0
0.00231235 -0.00321335 0
0 0 0
-0.00409408 0.000947309 0
0.000947309 -0.0032285 0
0 0 0
0.000855867 7.27466e-05 0
7.27466e-05 -0.0032388 0
0 0 0
0.000855868 0.000358718 0
0.000358718 -0.00323719 0
0 0 0
0.000937214 0.000562578 0
0.000562578 -0.00325711 0
0 0 0
0.000937202 0.000875489 0
0.000875489 -0.0033718 0
0 0 0
-0.0239177 0.000787775 0
0.000787775 -0.00345795 0
0 0 0
-0.0239191 -0.00711651 0
-0.00711651 -0.00322262 0
0 0 0
-0.0239205 -0.0150208 0
-0.0150208 -0.00298728 0
0 0 0
0.00552168 -0.000155018 0
-0.000155018 -0.0143551 0
0 0 0
0.00552169 -0.000430707 0
-0.000430707 -0.0143217 0
0 0 0
-0.00554023 -0.000479102 0
-0.000479102 -0.0142929 0
0 0 0
-0.00554024 -0.000199629 0
-0.000199629 -0.0142712 0
0 0 0
0.0011572 -5.62005e-06 0
-5.62005e-06 -0.0142568 0
0 0 0
0.0011572 -6.5495e-05 0
-6.5495e-05 -0.0142605 0
0 0 0
0.00124878 -0.000218807 0
-0.000218807 -0.0142315 0
0 0 0
0.00124878 -0.000306215 0
-0.000306215 -0.0140595 0
0 0 0
-0.0323643 1.88444e-05 0
1.88444e-05 -0.0139286 0
0 0 0
-0.032364 0.00162813 0
0.00162813 -0.0142568 0
0 0 0
-0.0323637 0.00323742 0
0.00323742 -0.014585 0
0 0 0
0.00497494 -0.000138444 0
-0.000138444 -0.0143551 0
0 0 0
0.00497494 -0.000414068 0
-0.000414068 -0.0143217 0
0 0 0
-0.00498337 -0.000468404 0
-0.000468404 -0.0142929 0
0 0 0
-0.00498338 -0.000188864 0
-0.000188864 -0.0142712 0
0 0 0
0.00103825 -7.43782e-06 0
-7.43782e-06 -0.0142568 0
0 0 0
0.00103825 -6.73097e-05 0
-6.73097e-05 -0.0142605 0
0 0 0
0.00107475 -0.000133508 0
-0.000133508 -0.0142315 0
0 0 0
0.00107475 -0.000220904 0
-0.000220904 -0.0140595 0
0 0 0
-0.0291176 -0.000147484 0
-0.000147484 -0.0139285 0
0 0 0
-0.0291176 0.00146413 0
0.00146413 -0.0142574 0
0 0 0
-0.0291176 0.00307574 0
0.00307574 -0.0145862 0
0 0 0
0.00440955 -0.000142365 0
-0.000142365 0.000208909 0
0 0 0
0.00440954 -0.000450648 0
-0.000450648 0.000211074 0
0 0 0
-0.00440997 -0.00051765 0
-0.00051765 0.000213193 0
0 0 0
-0.00440997 -0.00020939 0
-0.00020939 0.00021524 0
0 0 0
0.000916431 -1.81368e-05 0
-1.81368e-05 0.000217441 0
0 0 0
0.000916432 -8.28652e-05 0
-8.28652e-05 0.000220015 0
0 0 0
0.000916017 -8.30488e-05 0
-8.30488e-05 0.000223858 0
0 0 0
0.000916016 -0.00014155 0
-0.00014155 0.000233274 0
0 0 0
-0.0257845 -0.000219534 0
-0.000219534 0.000239213 0
0 0 0
-0.0257847 0.00154239 0
0.00154239 0.000206098 0
0 0 0
-0.0257849 0.00330431 0
0.00330431 0.000172982 0
0 0 0
0.00379408 -0.000141244 0
-0.000141244 0.000208908 0
0 0 0
0.00379408 -0.000449446 0
-0.000449446 0.000211073 0
0 0 0
-0.00379222 -0.000516763 0
-0.000516763 0.000213191 0
0 0 0
-0.00379222 -0.000208421 0
-0.000208421 0.00021524 0
0 0 0
0.000787013 -1.68491e-05 0
-1.68491e-05 0.00021744 0
0 0 0
0.000787013 -8.15738e-05 0
-8.15738e-05 0.000220015 0
0 0 0
0.000799053 -7.83413e-05 0
-7.83413e-05 0.000223856 0
0 0 0
0.000799052 -0.00013684 0
-0.00013684 0.000233271 0
0 0 0
-0.0222206 -0.000236645 0
-0.000236645 0.00023922 0
0 0 0
-0.0222208 0.00152804 0
0.00152804 0.000206031 0
0 0 0
-0.022221 0.00329272 0
0.00329272 0.000172842 0
0 0 0
0.0031788 -0.000140302 0
-0.000140302 0.000282161 0
0 0 0
0.0031788 -0.000447979 0
-0.000447979 0.000279367 0
0 0 0
-0.00317509 -0.000515949 0
-0.000515949 0.000277055 0
0 0 0
-0.00317509 -0.000209333 0
-0.000209333 0.000275473 0
0 0 0
0.000657988 -1.82841e-05 0
-1.82841e-05 0.000274379 0
0 0 0
0.000657988 -8.18026e-05 0
-8.18026e-05 0.000274487 0
0 0 0
0.000680577 -7.66806e-05 0
-7.66806e-05 0.000272078 0
0 0 0
0.000680575 -0.000139721 0
-0.000139721 0.000258582 0
0 0 0
-0.0186482 -0.000257485 0
-0.000257485 0.000247505 0
0 0 0
-0.0186484 0.00153573 0
0.00153573 0.000263908 0
0 0 0
-0.0186487 0.00332894 0
0.00332894 0.000280312 0
0 0 0
0.00256416 -0.000141656 0
-0.000141656 0.000282161 0
0 0 0
0.00256416 -0.000449252 0
-0.000449252 0.000279368 0
0 0 0
-0.0025609 -0.000516881 0
-0.000516881 0.000277056 0
0 0 0
-0.00256089 -0.000210184 0
-0.000210184 0.000275473 0
0 0 0
0.000530961 -1.82293e-05 0
-1.82293e-05 0.000274379 0
0 0 0
0.000530961 -8.17443e-05 0
-8.17443e-05 0.000274487 0
0 0 0
0.000554519 -8.34233e-05 0
-8.34233e-05 0.000272081 0
0 0 0
0.000554517 -0.00014646 0
-0.00014646 0.000258586 0
0 0 0
-0.0150317 -0.000249492 0
-0.000249492 0.000247502 0
0 0 0
-0.015032 0.00154657 0
0.00154657 0.000263941 0
0 0 0
-0.0150322 0.00334263 0
0.00334263 0.00028038 0
0 0 0
0.0019617 -9.41282e-05 0
-9.41282e-05 -0.00773177 0
0 0 0
0.0019617 -0.000303993 0
-0.000303993 -0.00773261 0
0 0 0
-0.00195856 -0.000349909 0
-0.000349909 -0.00773334 0
0 0 0
-0.00195856 -0.000137781 0
-0.000137781 -0.00773388 0
0 0 0
0.000406228 -6.9696e-06 0
-6.9696e-06 -0.0077343 0
0 0 0
0.000406228 -5.23772e-05 0
-5.23772e-05 -0.00773442 0
0 0 0
0.000428221 -4.67385e-05 0
-4.67385e-05 -0.00773524 0
0 0 0
0.000428218 -0.000114806 0
-0.000114806 -0.00773914 0
0 0 0
-0.0114826 -0.000250386 0
-0.000250386 -0.00774228 0
0 0 0
-0.0114828 0.00102235 0
0.00102235 -0.00773662 0
0 0 0
-0.011483 0.00229508 0
0.00229508 -0.00773096 0
0 0 0
0.00154385 -9.4527e-05 0
-9.4527e-05 -0.00773177 0
0 0 0
0.00154385 -0.000304354 0
-0.000304354 -0.00773261 0
0 0 0
-0.00153551 -0.000350246 0
-0.000350246 -0.00773334 0
0 0 0
-0.00153551 -0.00013808 0
-0.00013808 -0.00773388 0
0 0 0
0.000315765 -7.02723e-06 0
-7.02723e-06 -0.0077343 0
0 0 0
0.000315765 -5.24331e-05 0
-5.24331e-05 -0.00773442 0
0 0 0
0.000292422 -4.86764e-05 0
-4.86764e-05 -0.00773524 0
0 0 0
0.000292419 -0.00011674 0
-0.00011674 -0.00773914 0
0 0 0
-0.00893308 -0.00024774 0
-0.00024774 -0.00774228 0
0 0 0
-0.00893323 0.00102642 0
0.00102642 -0.00773661 0
0 0 0
-0.00893338 0.00230059 0
0.00230059 -0.00773094 0
0 0 0
0.001126 -9.49257e-05 0
-9.49257e-05 -0.00773177 0
0 0 0
0.001126 -0.000304715 0
-0.000304715 -0.00773261 0
0 0 0
-0.00111246 -0.000350583 0
-0.000350583 -0.00773334 0
0 0 0
-0.00111246 -0.000138378 0
-0.000138378 -0.00773388 0
0 0 0
0.000225303 -7.08487e-06 0
-7.08487e-06 -0.0077343 0
0 0 0
0.000225303 -5.24889e-05 0
-5.24889e-05 -0.00773442 0
0 0 0
0.000156622 -5.06143e-05 0
-5.06143e-05 -0.00773524 0
0 0 0
0.00015662 -0.000118674 0
-0.000118674 -0.00773914 0
0 0 0
-0.00638352 -0.000245094 0
-0.000245094 -0.00774228 0
0 0 0
-0.00638366 0.00103051 0
0.00103051 -0.0077366 0
0 0 0
-0.00638381 0.0023061 0
0.0023061 -0.00773092 0
0 0 0
