# vtk DataFile Version 3.0
MPM2D particles
ASCII
DATASET POLYDATA
POINTS 121 double
0.0142324 3.9353e-10 0
0.0423199 1.51924e-10 0
0.06703 6.78536e-11 0
0.0890636 3.39588e-11 0
0.112229 6.05972e-11 0
0.137809 3.09304e-09 0
0.162773 1.49516e-07 0
0.185288 7.4443e-06 0
0.205979 0.000294655 0
0.198948 0.000709946 0
0.188505 0.000235559 0
0.0184116 1.03695e-09 0
0.053622 3.19893e-10 0
0.0745411 1.63114e-10 0
0.0917055 9.4246e-11 0
0.11167 1.66649e-10 0
0.13845 1.02372e-08 0
0.163023 4.76578e-07 0
0.181357 1.1835e-05 0
0.197318 0.000212878 0
0.196598 0.000344238 0
0.191562 0.000239226 0
0.0222033 1.42059e-09 0
0.0620323 3.90356e-10 0
0.0792995 2.2425e-10 0
0.0934841 1.42399e-10 0
0.111286 2.51063e-10 0
0.139014 1.78874e-08 0
0.162862 7.56671e-07 0
0.178056 1.115e-05 0
0.191084 0.000120264 0
0.192023 0.000185704 0
0.189592 0.000165463 0
0.0233027 1.60343e-09 0
0.064352 4.4059e-10 0
0.0809086 2.63652e-10 0
0.0944245 1.73293e-10 0
0.111786 3.44357e-10 0
0.13942 2.43383e-08 0
0.16222 8.8219e-07 0
0.175117 8.91123e-06 0
0.186112 6.75766e-05 0
0.188491 0.000121932 0
0.187189 0.000123486 0
0.0242227 1.76873e-09 0
0.0661815 4.88471e-10 0
0.0822544 3.01862e-10 0
0.0953262 2.03926e-10 0
0.112471 4.6987e-10 0
0.139649 3.1229e-08 0
0.161243 9.39299e-07 0
0.172052 6.67928e-06 0
0.181205 3.6641e-05 0
0.184965 7.8808e-05 0
0.184956 9.44677e-05 0
0.0251707 1.99182e-09 0
0.0679609 5.56831e-10 0
0.0835984 3.55963e-10 0
0.096258 2.47736e-10 0
0.113145 6.63924e-10 0
0.139349 3.8555e-08 0
0.159547 9.22874e-07 0
0.168369 4.65994e-06 0
0.175841 1.89269e-05 0
0.180248 4.36138e-05 0
0.182003 6.6621e-05 0
0.0258205 2.33576e-09 0
0.0690924 6.67152e-10 0
0.0844083 4.39693e-10 0
0.0967536 3.14586e-10 0
0.113147 8.72751e-10 0
0.13775 4.04939e-08 0
0.15698 8.04955e-07 0
0.164525 3.24317e-06 0
0.171024 1.09758e-05 0
0.175286 2.41606e-05 0
0.178337 4.39328e-05 0
0.0257307 2.82175e-09 0
0.0689623 8.25444e-10 0
0.0842123 5.53519e-10 0
0.0964794 4.02402e-10 0
0.112289 9.82999e-10 0
0.135231 3.60591e-08 0
0.154138 6.75999e-07 0
0.16138 2.47098e-06 0
0.167602 7.86729e-06 0
0.171752 1.68584e-05 0
0.175287 3.26077e-05 0
0.0250289 3.41672e-09 0
0.0678911 1.02127e-09 0
0.0833001 6.88287e-10 0
0.0956659 5.03294e-10 0
0.110963 9.84985e-10 0
0.132641 3.02067e-08 0
0.151485 5.63787e-07 0
0.159075 2.07686e-06 0
0.165369 6.63678e-06 0
0.169601 1.44005e-05 0
0.17333 2.86453e-05 0
0.0242096 4.05992e-09 0
0.0666046 1.23787e-09 0
0.0822037 8.35048e-10 0
0.0946605 6.12712e-10 0
0.109492 9.30994e-10 0
0.130291 2.52391e-08 0
0.148993 4.66555e-07 0
0.157262 1.81797e-06 0
0.163739 6.01454e-06 0
0.168089 1.33082e-05 0
0.171935 2.69825e-05 0
0.0234378 4.74762e-09 0
0.0653158 1.47789e-09 0
0.081057 9.97644e-10 0
0.093527 7.35236e-10 0
0.107887 8.45108e-10 0
0.128053 2.10127e-08 0
0.146531 3.80822e-07 0
0.155568 1.61768e-06 0
0.162297 5.54032e-06 0
0.166739 1.24413e-05 0
0.170617 2.53687e-05 0
VERTICES 121 242
1 0
1 1
1 2
1 3
1 4
1 5
1 6
1 7
1 8
1 9
1 10
1 11
1 12
1 13
1 14
1 15
1 16
1 17
1 18
1 19
1 20
1 21
1 22
1 23
1 24
1 25
1 26
1 27
1 28
1 29
1 30
1 31
1 32
1 33
1 34
1 35
1 36
1 37
1 38
1 39
1 40
1 41
1 42
1 43
1 44
1 45
1 46
1 47
1 48
1 49
1 50
1 51
1 52
1 53
1 54
1 55
1 56
1 57
1 58
1 59
1 60
1 61
1 62
1 63
1 64
1 65
1 66
1 67
1 68
1 69
1 70
1 71
1 72
1 73
1 74
1 75
1 76
1 77
1 78
1 79
1 80
1 81
1 82
1 83
1 84
1 85
1 86
1 87
1 88
1 89
1 90
1 91
1 92
1 93
1 94
1 95
1 96
1 97
1 98
1 99
1 100
1 101
1 102
1 103
1 104
1 105
1 106
1 107
1 108
1 109
1 110
1 111
1 112
1 113
1 114
1 115
1 116
1 117
1 118
1 119
1 120
POINT_DATA 121
VECTORS velocity double
4.63977 7.02913 0
2.36979 4.95791 0
1.08093 3.58079 0
0.771063 2.81943 0
0.506038 2.38534 0
0.395202 2.83295 0
0.192059 2.81263 0
-0.313504 0.973249 0
-0.79943 -0.52892 0
-5.41356 6.259 0
-8.47199 9.96927 0
3.18036 1.31115 0
0.524201 0.121263 0
-0.0790698 -0.401629 0
0.194861 -0.793041 0
0.366562 -1.04203 0
0.342194 -0.781124 0
0.26936 -0.812687 0
0.180483 -1.70604 0
0.24095 -2.59723 0
-0.706103 -1.05983 0
-1.0039 -0.184335 0
2.14913 -2.64378 0
-0.656009 -3.0462 0
-0.800081 -3.21099 0
-0.181212 -3.39398 0
0.282815 -3.53713 0
0.334598 -3.45243 0
0.374734 -3.46799 0
0.559425 -3.63953 0
0.849252 -3.86919 0
0.935987 -3.80892 0
1.21827 -3.82465 0
2.13214 -3.28458 0
-0.589303 -3.5587 0
-0.700464 -3.68882 0
-0.120211 -3.83459 0
0.330764 -3.95236 0
0.41276 -3.93316 0
0.461949 -3.94647 0
0.560015 -3.89923 0
0.711664 -3.88342 0
0.523749 -3.98655 0
0.5527 -4.14454 0
2.17147 -3.73871 0
-0.423721 -3.93608 0
-0.527806 -4.02319 0
-0.0291415 -4.12555 0
0.363439 -4.20783 0
0.476875 -4.21604 0
0.528818 -4.22102 0
0.494422 -4.04989 0
0.472917 -3.91058 0
-0.039909 -4.08078 0
-0.271941 -4.36021 0
2.14781 -4.09579 0
-0.308842 -4.26658 0
-0.415959 -4.31249 0
0.00981127 -4.36457 0
0.345867 -4.39836 0
0.484531 -4.39569 0
0.551995 -4.39511 0
0.452073 -4.21227 0
0.344011 -4.06199 0
-0.328325 -4.22489 0
-0.811028 -4.51411 0
1.96584 -4.34408 0
-0.316619 -4.52873 0
-0.418084 -4.53913 0
-0.0288033 -4.54519 0
0.280018 -4.53836 0
0.426199 -4.51793 0
0.517505 -4.51271 0
0.420055 -4.37637 0
0.301063 -4.25389 0
-0.365085 -4.40409 0
-1.00133 -4.66096 0
1.65019 -4.61746 0
-0.357796 -4.80687 0
-0.441495 -4.79209 0
-0.0852934 -4.76609 0
0.206987 -4.73286 0
0.359765 -4.69284 0
0.459648 -4.64857 0
0.34928 -4.57231 0
0.199689 -4.46493 0
-0.413348 -4.59527 0
-1.06632 -4.82051 0
1.26389 -5.05358 0
-0.382593 -5.20823 0
-0.448496 -5.17604 0
-0.149469 -5.1279 0
0.114021 -5.07515 0
0.275901 -5.01598 0
0.392981 -4.9395 0
0.267813 -4.89909 0
0.0914809 -4.79755 0
-0.476694 -4.87996 0
-1.1049 -5.04094 0
0.874553 -5.82071 0
-0.421876 -5.89633 0
-0.476676 -5.83685 0
-0.249508 -5.76221 0
-0.0250824 -5.68232 0
0.148522 -5.59425 0
0.292982 -5.4818 0
0.182171 -5.4553 0
0.00726332 -5.36534 0
-0.541044 -5.3805 0
-1.16069 -5.44267 0
0.433401 -7.1125 0
-0.526498 -7.08426 0
-0.5698 -6.99517 0
-0.429885 -6.88814 0
-0.259098 -6.74239 0
-0.0672844 -6.61454 0
0.129599 -6.41828 0
0.0599684 -6.39215 0
-0.0774732 -6.33255 0
-0.607247 -6.25039 0
-1.22101 -6.17782 0
SCALARS mass double 1
LOOKUP_TABLE default
2.67769
2.67769
2.67769
2.67769
2.67769
2.67769
2.67769
2.67769
2.67769
2.67769
2.67769
2.67769
2.67769
2.67769
2.67769
2.67769
2.67769
2.67769
2.67769
2.67769
2.67769
2.67769
2.67769
2.67769
2.67769
2.67769
2.67769
2.67769
2.67769
2.67769
2.67769
2.67769
2.67769
2.67769
2.67769
2.67769
2.67769
2.67769
2.67769
2.67769
2.67769
2.67769
2.67769
2.67769
2.67769
2.67769
2.67769
2.67769
2.67769
2.67769
2.67769
2.67769
2.67769
2.67769
2.67769
2.67769
2.67769
2.67769
2.67769
2.67769
2.67769
2.67769
2.67769
2.67769
2.67769
2.67769
2.67769
2.67769
2.67769
2.67769
2.67769
2.67769
2.67769
2.67769
2.67769
2.67769
2.67769
2.67769
2.67769
2.67769
2.67769
2.67769
2.67769
2.67769
2.67769
2.67769
2.67769
2.67769
2.67769
2.67769
2.67769
2.67769
2.67769
2.67769
2.67769
2.67769
2.67769
2.67769
2.67769
2.67769
2.67769
2.67769
2.67769
2.67769
2.67769
2.67769
2.67769
2.67769
2.67769
2.67769
2.67769
2.67769
2.67769
2.67769
2.67769
2.67769
2.67769
2.67769
2.67769
2.67769
2.67769
SCALARS volume double 1
LOOKUP_TABLE default
2.6714e-11
1.02211e-11
3.56279e-12
1.79209e-12
3.69109e-12
1.88328e-10
8.13936e-09
4.02731e-07
1.14672e-05
7.87244e-06
1.21651e-06
3.04715e-11
8.7596e-12
2.22769e-12
1.30457e-12
3.54559e-12
2.17537e-10
7.23062e-09
1.76932e-07
1.78744e-06
9.31555e-07
3.40352e-07
1.39569e-11
2.97461e-12
9.27347e-13
6.38788e-13
2.28839e-12
1.6666e-10
4.24718e-09
6.57278e-08
3.92453e-07
1.85873e-07
6.54567e-08
1.20706e-11
2.34257e-12
7.7558e-13
5.603e-13
2.41952e-12
1.78861e-10
3.42364e-09
3.53643e-08
1.74886e-07
1.049e-07
4.05473e-08
1.32259e-11
2.39029e-12
8.30293e-13
6.2157e-13
3.2277e-12
2.25848e-10
3.15987e-09
2.2468e-08
8.55184e-08
8.20655e-08
3.34244e-08
1.97582e-11
3.25379e-12
1.18087e-12
8.9831e-13
5.48118e-12
3.40606e-10
3.25187e-09
1.55739e-08
4.27867e-08
6.56998e-08
4.30378e-08
2.6886e-11
4.06482e-12
1.48124e-12
1.14093e-12
6.90158e-12
3.4338e-10
2.49149e-09
8.94909e-09
2.03944e-08
3.57271e-08
3.74086e-08
3.16466e-11
4.59287e-12
1.68236e-12
1.27143e-12
6.31623e-12
2.44512e-10
1.74452e-09
5.35044e-09
1.14922e-08
1.98468e-08
2.81977e-08
3.26785e-11
4.88841e-12
1.76743e-12
1.32575e-12
4.87353e-12
1.54941e-10
1.28285e-09
3.59135e-09
7.91976e-09
1.3876e-08
2.28617e-08
3.30895e-11
5.47142e-12
1.88503e-12
1.42735e-12
3.85541e-12
1.07229e-10
1.06897e-09
2.80831e-09
6.557e-09
1.14194e-08
2.04691e-08
3.41232e-11
6.12194e-12
2.0802e-12
1.5588e-12
3.12563e-12
4.29535e-11
8.72674e-10
2.4043e-09
5.66475e-09
1.00985e-08
1.85215e-08
TENSORS stress double
5076.68 37279.1 0
37279.1 2003.21 0
0 0 0
5076.68 116989 0
116989 1669.27 0
0 0 0
5076.67 112039 0
112039 1248.48 0
0 0 0
5076.67 52585.4 0
52585.4 792.144 0
0 0 0
5076.67 -11891.7 0
-11891.7 1448.23 0
0 0 0
5076.67 -93209.7 0
-93209.7 5089.42 0
0 0 0
5076.67 -171576 0
-171576 8223.56 0
0 0 0
5076.54 -247136 0
-247136 9492.84 0
0 0 0
5071.32 -304755 0
-304755 10649.7 0
0 0 0
5063.72 -256364 0
-256364 10239 0
0 0 0
5072.35 -210449 0
-210449 9666.36 0
0 0 0
5076.68 41992 0
41992 1953.52 0
0 0 0
5076.67 136818 0
136818 1526.16 0
0 0 0
5076.67 90594.8 0
90594.8 1092.91 0
0 0 0
5076.67 42849.2 0
42849.2 737.427 0
0 0 0
5076.67 -11125.3 0
-11125.3 1368.65 0
0 0 0
5076.67 -96313.7 0
-96313.7 5180.58 0
0 0 0
5076.67 -170119 0
-170119 8237.65 0
0 0 0
5076.46 -232641 0
-232641 9271.01 0
0 0 0
5072.79 -273796 0
-273796 10164.1 0
0 0 0
5070.39 -216590 0
-216590 10119 0
0 0 0
5072.29 -184576 0
-184576 9838.62 0
0 0 0
5076.68 44466.8 0
44466.8 1908.44 0
0 0 0
5076.67 109200 0
109200 1351.98 0
0 0 0
5076.67 69520.7 0
69520.7 994.365 0
0 0 0
5076.67 34501.4 0
34501.4 700.593 0
0 0 0
5076.67 -8905.95 0
-8905.95 1313.91 0
0 0 0
5076.67 -99047 0
-99047 5260.89 0
0 0 0
5076.66 -168427 0
-168427 8228.53 0
0 0 0
5076.47 -221430 0
-221430 9084.89 0
0 0 0
5074.47 -255114 0
-255114 9815.74 0
0 0 0
5073.27 -201012 0
-201012 9866.47 0
0 0 0
5073.64 -152020 0
-152020 9730.1 0
0 0 0
5076.68 47680 0
47680 1895.37 0
0 0 0
5076.67 103017 0
103017 1303.94 0
0 0 0
5076.67 65488.4 0
65488.4 961.04 0
0 0 0
5076.67 33533.2 0
33533.2 681.116 0
0 0 0
5076.67 -8644 0
-8644 1385.18 0
0 0 0
5076.67 -100356 0
-100356 5318.74 0
0 0 0
5076.66 -163655 0
-163655 8192.35 0
0 0 0
5076.51 -209974 0
-209974 8919.27 0
0 0 0
5075.43 -247319 0
-247319 9537.22 0
0 0 0
5074.44 -205515 0
-205515 9669.49 0
0 0 0
5074.41 -154779 0
-154779 9596.04 0
0 0 0
5076.68 51351 0
51351 1884.43 0
0 0 0
5076.67 99155.9 0
99155.9 1266.05 0
0 0 0
5076.67 63155.2 0
63155.2 933.167 0
0 0 0
5076.67 33024.3 0
33024.3 662.441 0
0 0 0
5076.67 -9564.47 0
-9564.47 1482.64 0
0 0 0
5076.67 -101026 0
-101026 5351.37 0
0 0 0
5076.66 -157628 0
-157628 8137.28 0
0 0 0
5076.55 -196689 0
-196689 8746.53 0
0 0 0
5076 -232118 0
-232118 9261.61 0
0 0 0
5075.23 -216407 0
-216407 9472.13 0
0 0 0
5074.94 -159218 0
-159218 9471.09 0
0 0 0
5076.68 54812.1 0
54812.1 1873.16 0
0 0 0
5076.67 94574.4 0
94574.4 1229.19 0
0 0 0
5076.67 59593.3 0
59593.3 905.331 0
0 0 0
5076.67 31878.7 0
31878.7 643.142 0
0 0 0
5076.67 -10898.8 0
-10898.8 1578.55 0
0 0 0
5076.67 -100413 0
-100413 5308.6 0
0 0 0
5076.66 -150052 0
-150052 8041.64 0
0 0 0
5076.59 -179317 0
-179317 8538.91 0
0 0 0
5076.33 -206519 0
-206519 8959.76 0
0 0 0
5075.87 -215602 0
-215602 9207.4 0
0 0 0
5075.45 -176092 0
-176092 9305.54 0
0 0 0
5076.68 56615.3 0
56615.3 1865.44 0
0 0 0
5076.67 88662.2 0
88662.2 1205.76 0
0 0 0
5076.67 56056.7 0
56056.7 888.557 0
0 0 0
5076.67 30859.2 0
30859.2 632.879 0
0 0 0
5076.67 -10106 0
-10106 1578.88 0
0 0 0
5076.67 -94896 0
-94896 5081.02 0
0 0 0
5076.62 -141475 0
-141475 7818.26 0
0 0 0
5076.61 -161404 0
-161404 8322.25 0
0 0 0
5076.47 -181014 0
-181014 8688.41 0
0 0 0
5076.23 -196987 0
-196987 8928.25 0
0 0 0
5075.86 -177904 0
-177904 9099.63 0
0 0 0
5076.68 55718.7 0
55718.7 1866.5 0
0 0 0
5076.67 85693.9 0
85693.9 1208.45 0
0 0 0
5076.67 54525.5 0
54525.5 892.616 0
0 0 0
5076.67 31240.5 0
31240.5 638.558 0
0 0 0
5076.67 -6071.97 0
-6071.97 1456.71 0
0 0 0
5076.67 -84743.2 0
-84743.2 4722.39 0
0 0 0
5076.63 -135465 0
-135465 7413.75 0
0 0 0
5076.63 -146604 0
-146604 8144.95 0
0 0 0
5076.53 -162358 0
-162358 8495.58 0
0 0 0
5076.36 -176273 0
-176273 8729.24 0
0 0 0
5076.07 -170411 0
-170411 8928.04 0
0 0 0
5076.68 53229.5 0
53229.5 1874.85 0
0 0 0
5076.67 85496.8 0
85496.8 1230.64 0
0 0 0
5076.67 55588.9 0
55588.9 911.51 0
0 0 0
5076.67 32785.8 0
32785.8 655.405 0
0 0 0
5076.67 -272.082 0
-272.082 1267.97 0
0 0 0
5076.67 -73640.4 0
-73640.4 4353.75 0
0 0 0
5076.64 -130854 0
-130854 7036.02 0
0 0 0
5076.64 -136463 0
-136463 8014.96 0
0 0 0
5076.55 -150637 0
-150637 8369.7 0
0 0 0
5076.41 -162548 0
-162548 8608.05 0
0 0 0
5076.14 -164940 0
-164940 8817.81 0
0 0 0
5076.68 51228 0
51228 1884.59 0
0 0 0
5076.67 86656.5 0
86656.5 1257.28 0
0 0 0
5076.67 58276.2 0
58276.2 934.217 0
0 0 0
5076.67 34913 0
34913 676.228 0
0 0 0
5076.67 5930.63 0
5930.63 1058.6 0
0 0 0
5076.67 -63549.7 0
-63549.7 4019.3 0
0 0 0
5076.64 -127883 0
-127883 6681.29 0
0 0 0
5076.55 -129874 0
-129874 7858.43 0
0 0 0
5076.56 -142873 0
-142873 8277.84 0
0 0 0
5076.43 -155137 0
-155137 8522.84 0
0 0 0
5076.18 -163389 0
-163389 8739.23 0
0 0 0
5076.68 49262.2 0
49262.2 1893.77 0
0 0 0
5076.67 87538.9 0
87538.9 1283.98 0
0 0 0
5076.67 59241 0
59241 957.965 0
0 0 0
5076.67 36492.8 0
36492.8 699.704 0
0 0 0
5076.67 12031 0
12031 830.128 0
0 0 0
5076.67 -55682.1 0
-55682.1 3700.68 0
0 0 0
5076.65 -119717 0
-119717 6330.91 0
0 0 0
5076.57 -126374 0
-126374 7617.3 0
0 0 0
5076.57 -137237 0
-137237 8196.56 0
0 0 0
5076.44 -149101 0
-149101 8446.78 0
0 0 0
5076.2 -159451 0
-159451 8664.97 0
0 0 0
TENSORS strain double
0.129853 0.372791 0
0.372791 -16.7341 0
0 0 0
0.120967 1.16989 0
1.16989 -17.6307 0
0 0 0
-0.123147 1.12039 0
1.12039 -18.3862 0
0 0 0
-0.118155 0.525854 0
0.525854 -19.0318 0
0 0 0
0.0234034 -0.118917 0
-0.118917 -18.504 0
0 0 0
0.0229906 -0.932097 0
-0.932097 -14.8265 0
0 0 0
-0.0868231 -1.71576 0
-1.71576 -11.1151 0
0 0 0
-0.0931042 -2.47136 0
-2.47136 -7.32678 0
0 0 0
-0.418805 -3.04755 0
-3.04755 -3.70725 0
0 0 0
-1.65693 -2.56364 0
-2.56364 -2.83419 0
0 0 0
-2.40677 -2.10449 0
-2.10449 -3.89679 0
0 0 0
0.387777 0.41992 0
0.41992 -16.8559 0
0 0 0
0.319544 1.36818 0
1.36818 -17.962 0
0 0 0
-0.367003 0.905948 0
0.905948 -18.5922 0
0 0 0
-0.353705 0.428492 0
0.428492 -19.1039 0
0 0 0
0.070227 -0.111253 0
-0.111253 -18.5843 0
0 0 0
0.0689421 -0.963137 0
-0.963137 -14.7334 0
0 0 0
-0.261315 -1.70119 0
-1.70119 -11.0568 0
0 0 0
-0.276166 -2.32641 0
-2.32641 -7.94685 0
0 0 0
-0.84795 -2.73796 0
-2.73796 -5.11578 0
0 0 0
-1.9495 -2.1659 0
-2.1659 -4.64246 0
0 0 0
-2.57168 -1.84576 0
-1.84576 -4.99734 0
0 0 0
0.575677 0.444668 0
0.444668 -17.8159 0
0 0 0
0.14753 1.092 0
1.092 -18.8414 0
0 0 0
-0.554406 0.695207 0
0.695207 -19.2612 0
0 0 0
-0.53901 0.345014 0
0.345014 -19.6199 0
0 0 0
0.105981 -0.0890595 0
-0.0890595 -19.051 0
0 0 0
0.104174 -0.99047 0
-0.99047 -15.0375 0
0 0 0
-0.422398 -1.68427 0
-1.68427 -11.4204 0
0 0 0
-0.444326 -2.2143 0
-2.2143 -8.74857 0
0 0 0
-1.07808 -2.55114 0
-2.55114 -6.37561 0
0 0 0
-2.01113 -2.01012 0
-2.01012 -6.16755 0
0 0 0
-2.58303 -1.5202 0
-1.5202 -6.60354 0
0 0 0
0.624235 0.4768 0
0.4768 -18.0073 0
0 0 0
0.0908804 1.03017 0
1.03017 -19.016 0
0 0 0
-0.604422 0.654884 0
0.654884 -19.3832 0
0 0 0
-0.592859 0.335332 0
0.335332 -19.6923 0
0 0 0
0.102789 -0.08644 0
-0.08644 -18.9977 0
0 0 0
0.101482 -1.00356 0
-1.00356 -14.9673 0
0 0 0
-0.560623 -1.63655 0
-1.63655 -11.4906 0
0 0 0
-0.592505 -2.09974 0
-2.09974 -9.20268 0
0 0 0
-1.06234 -2.47319 0
-2.47319 -7.18202 0
0 0 0
-1.90373 -2.05515 0
-2.05515 -6.83649 0
0 0 0
-2.47822 -1.54779 0
-1.54779 -7.17588 0
0 0 0
0.663164 0.51351 0
0.51351 -17.9538 0
0 0 0
0.0443083 0.991559 0
0.991559 -18.9439 0
0 0 0
-0.641268 0.631552 0
0.631552 -19.2747 0
0 0 0
-0.633226 0.330243 0
0.330243 -19.546 0
0 0 0
0.0862955 -0.0956447 0
-0.0956447 -18.702 0
0 0 0
0.0849988 -1.01026 0
-1.01026 -14.7204 0
0 0 0
-0.709098 -1.57628 0
-1.57628 -11.4146 0
0 0 0
-0.750137 -1.96689 0
-1.96689 -9.481 0
0 0 0
-1.13273 -2.32118 0
-2.32118 -7.80698 0
0 0 0
-1.73512 -2.16407 0
-2.16407 -7.24631 0
0 0 0
-2.38645 -1.59218 0
-1.59218 -7.45381 0
0 0 0
0.701787 0.548121 0
0.548121 -17.5918 0
0 0 0
-0.011337 0.945744 0
0.945744 -18.5758 0
0 0 0
-0.677616 0.595933 0
0.595933 -18.8865 0
0 0 0
-0.674014 0.318787 0
0.318787 -19.1383 0
0 0 0
0.0511967 -0.108988 0
-0.108988 -18.1481 0
0 0 0
0.0487198 -1.00413 0
-1.00413 -14.274 0
0 0 0
-0.882832 -1.50052 0
-1.50052 -11.2021 0
0 0 0
-0.928506 -1.79317 0
-1.79317 -9.6491 0
0 0 0
-1.28389 -2.06519 0
-2.06519 -8.32427 0
0 0 0
-1.59667 -2.15602 0
-2.15602 -7.5986 0
0 0 0
-2.10662 -1.76092 0
-1.76092 -7.49314 0
0 0 0
0.727448 0.566153 0
0.566153 -17.3112 0
0 0 0
-0.034854 0.886622 0
0.886622 -18.3273 0
0 0 0
-0.70429 0.560567 0
0.560567 -18.6337 0
0 0 0
-0.704363 0.308592 0
0.308592 -18.8701 0
0 0 0
-0.0069712 -0.10106 0
-0.10106 -17.8616 0
0 0 0
-0.0123877 -0.94896 0
-0.94896 -14.1948 0
0 0 0
-1.01538 -1.41475 0
-1.41475 -11.3201 0
0 0 0
-1.06863 -1.61404 0
-1.61404 -10.0392 0
0 0 0
-1.39943 -1.81014 0
-1.81014 -8.92307 0
0 0 0
-1.58476 -1.96987 0
-1.96987 -8.19871 0
0 0 0
-1.91851 -1.77904 0
-1.77904 -7.81843 0
0 0 0
0.723962 0.557187 0
0.557187 -17.1478 0
0 0 0
-0.0447554 0.856939 0
0.856939 -18.1965 0
0 0 0
-0.708174 0.545255 0
0.545255 -18.5046 0
0 0 0
-0.709818 0.312405 0
0.312405 -18.7583 0
0 0 0
-0.0695889 -0.0607197 0
-0.0607197 -17.8793 0
0 0 0
-0.0781109 -0.847432 0
-0.847432 -14.45 0
0 0 0
-1.02519 -1.35465 0
-1.35465 -11.6534 0
0 0 0
-1.12894 -1.46604 0
-1.46604 -10.4729 0
0 0 0
-1.4285 -1.62358 0
-1.62358 -9.44665 0
0 0 0
-1.60282 -1.76273 0
-1.76273 -8.74807 0
0 0 0
-1.79301 -1.70411 0
-1.70411 -8.21671 0
0 0 0
0.696173 0.532295 0
0.532295 -17.0921 0
0 0 0
-0.0317138 0.854968 0
0.854968 -18.152 0
0 0 0
-0.696878 0.555889 0
0.555889 -18.4697 0
0 0 0
-0.699304 0.327858 0
0.327858 -18.73 0
0 0 0
-0.119766 -0.00272082 0
-0.00272082 -18.0738 0
0 0 0
-0.13028 -0.736404 0
-0.736404 -14.8331 0
0 0 0
-0.948683 -1.30854 0
-1.30854 -12.0277 0
0 0 0
-1.12965 -1.36463 0
-1.36463 -10.8558 0
0 0 0
-1.40374 -1.50637 0
-1.50637 -9.8303 0
0 0 0
-1.57605 -1.62548 0
-1.62548 -9.1202 0
0 0 0
-1.68141 -1.6494 0
-1.6494 -8.53094 0
0 0 0
0.662719 0.51228 0
0.51228 -17.0498 0
0 0 0
0.00308114 0.866565 0
0.866565 -18.0804 0
0 0 0
-0.686538 0.582762 0
0.582762 -18.419 0
0 0 0
-0.689545 0.34913 0
0.34913 -18.6698 0
0 0 0
-0.155684 0.0593063 0
0.0593063 -18.2558 0
0 0 0
-0.167488 -0.635497 0
-0.635497 -15.1444 0
0 0 0
-0.803869 -1.27883 0
-1.27883 -12.3463 0
0 0 0
-1.10245 -1.29874 0
-1.29874 -11.1188 0
0 0 0
-1.36498 -1.42873 0
-1.42873 -10.05 0
0 0 0
-1.54535 -1.55137 0
-1.55137 -9.33813 0
0 0 0
-1.61666 -1.63389 0
-1.63389 -8.702 0
0 0 0
0.630158 0.492622 0
0.492622 -16.9895 0
0 0 0
0.0332664 0.875389 0
0.875389 -18.0039 0
0 0 0
-0.681232 0.59241 0
0.59241 -18.3302 0
0 0 0
-0.683716 0.364928 0
0.364928 -18.5915 0
0 0 0
-0.180891 0.12031 0
0.12031 -18.422 0
0 0 0
-0.193533 -0.556821 0
-0.556821 -15.8504 0
0 0 0
-0.702661 -1.19717 0
-1.19717 -12.6386 0
0 0 0
-1.05223 -1.26374 0
-1.26374 -11.3181 0
0 0 0
-1.33599 -1.37237 0
-1.37237 -10.2182 0
0 0 0
-1.5252 -1.49101 0
-1.49101 -9.47557 0
0 0 0
-1.58423 -1.59451 0
-1.59451 -8.83041 0
0 0 0
