# vtk DataFile Version 3.0
MPM2D particles
ASCII
DATASET POLYDATA
POINTS 121 double
0.0128784 0.0123598 0
0.0386309 0.0122058 0
0.0637247 0.01207 0
0.0879386 0.0119571 0
0.112436 0.011867 0
0.137625 0.0118313 0
0.162744 0.011761 0
0.187567 0.011546 0
0.212185 0.0114078 0
0.234327 0.0121498 0
0.256359 0.0129367 0
0.0136691 0.03707 0
0.0409928 0.0365895 0
0.0660588 0.0361881 0
0.0887728 0.0358632 0
0.112308 0.0356012 0
0.137879 0.035493 0
0.163224 0.0352752 0
0.187698 0.034634 0
0.211616 0.0341967 0
0.228984 0.0360904 0
0.24612 0.0380752 0
0.0141553 0.0588388 0
0.0424666 0.058335 0
0.0674082 0.0579175 0
0.0892852 0.0575763 0
0.11227 0.0572942 0
0.138063 0.057172 0
0.163507 0.0569312 0
0.18766 0.0562422 0
0.211117 0.0557277 0
0.226179 0.0576824 0
0.241279 0.0595369 0
0.0140735 0.0757126 0
0.0422206 0.075523 0
0.0672296 0.0753609 0
0.0893091 0.0752235 0
0.112423 0.0751099 0
0.138125 0.0750595 0
0.163434 0.0749792 0
0.187284 0.0747851 0
0.210575 0.0746405 0
0.226268 0.0754945 0
0.241975 0.0763096 0
0.0139889 0.0929184 0
0.0419663 0.0930428 0
0.0670401 0.0931397 0
0.0893299 0.0932105 0
0.112576 0.093268 0
0.138186 0.0932902 0
0.16336 0.0933689 0
0.186914 0.0936631 0
0.210018 0.0939249 0
0.226389 0.0936214 0
0.242742 0.0933452 0
0.0138275 0.115802 0
0.0414806 0.11607 0
0.0666151 0.116294 0
0.0892144 0.116475 0
0.112648 0.116624 0
0.138127 0.116691 0
0.163222 0.11683 0
0.186861 0.117244 0
0.210092 0.117595 0
0.227216 0.116871 0
0.244321 0.116149 0
0.0136446 0.140191 0
0.0409316 0.140481 0
0.0661104 0.140741 0
0.0890473 0.14097 0
0.112684 0.141159 0
0.138024 0.141252 0
0.16306 0.1414 0
0.186916 0.141764 0
0.210388 0.142057 0
0.228298 0.141221 0
0.246188 0.140388 0
0.0134589 0.16419 0
0.0403745 0.164462 0
0.0655757 0.164718 0
0.0888477 0.164953 0
0.112692 0.165149 0
0.137925 0.16525 0
0.162923 0.165393 0
0.186982 0.165703 0
0.210691 0.165942 0
0.229489 0.165094 0
0.248264 0.164246 0
0.0132725 0.188054 0
0.0398157 0.188292 0
0.0650199 0.188523 0
0.0886287 0.188744 0
0.112687 0.188928 0
0.137832 0.189027 0
0.162803 0.18916 0
0.187062 0.189435 0
0.211013 0.189636 0
0.230772 0.188811 0
0.250506 0.187984 0
0.0131433 0.211295 0
0.0394294 0.211504 0
0.0646278 0.211712 0
0.0884757 0.211918 0
0.112684 0.212089 0
0.137764 0.21218 0
0.162713 0.212296 0
0.187117 0.212523 0
0.211245 0.212682 0
0.231691 0.211913 0
0.252127 0.211141 0
0.0130545 0.234274 0
0.039163 0.234467 0
0.0643509 0.234662 0
0.0883636 0.234857 0
0.112675 0.23502 0
0.137707 0.235102 0
0.162639 0.235206 0
0.187146 0.2354 0
0.211406 0.235533 0
0.232357 0.234825 0
0.2533 0.234114 0
VERTICES 121 242
1 0
1 1
1 2
1 3
1 4
1 5
1 6
1 7
1 8
1 9
1 10
1 11
1 12
1 13
1 14
1 15
1 16
1 17
1 18
1 19
1 20
1 21
1 22
1 23
1 24
1 25
1 26
1 27
1 28
1 29
1 30
1 31
1 32
1 33
1 34
1 35
1 36
1 37
1 38
1 39
1 40
1 41
1 42
1 43
1 44
1 45
1 46
1 47
1 48
1 49
1 50
1 51
1 52
1 53
1 54
1 55
1 56
1 57
1 58
1 59
1 60
1 61
1 62
1 63
1 64
1 65
1 66
1 67
1 68
1 69
1 70
1 71
1 72
1 73
1 74
1 75
1 76
1 77
1 78
1 79
1 80
1 81
1 82
1 83
1 84
1 85
1 86
1 87
1 88
1 89
1 90
1 91
1 92
1 93
1 94
1 95
1 96
1 97
1 98
1 99
1 100
1 101
1 102
1 103
1 104
1 105
1 106
1 107
1 108
1 109
1 110
1 111
1 112
1 113
1 114
1 115
1 116
1 117
1 118
1 119
1 120
POINT_DATA 121
VECTORS velocity double
1.92972 3.13687 0
0.919036 2.92535 0
0.288052 2.75671 0
0.19349 2.64473 0
0.110783 2.59025 0
0.0587285 2.6788 0
0.0235142 2.65044 0
0.062247 2.12392 0
-0.0452968 1.72186 0
-1.81512 2.78646 0
-3.56237 3.83305 0
1.50282 0.786979 0
0.454475 0.686076 0
-0.0791108 0.608943 0
-0.0196215 0.556627 0
0.014133 0.529456 0
-0.013702 0.567267 0
0.00175371 0.550015 0
0.192641 0.311033 0
0.29157 0.119685 0
-0.574033 0.542891 0
-1.39253 0.928811 0
1.22465 -0.713488 0
0.187522 -0.739115 0
-0.267242 -0.760755 0
-0.132407 -0.777885 0
-0.0377343 -0.790722 0
-0.0471651 -0.792429 0
-0.00158669 -0.801185 0
0.261205 -0.839996 0
0.467202 -0.869987 0
0.0148065 -0.787097 0
-0.448606 -0.70869 0
1.19863 -0.834171 0
0.27502 -0.827579 0
-0.153676 -0.825935 0
-0.0658842 -0.828246 0
-0.00358249 -0.833317 0
-0.00589197 -0.845217 0
0.024525 -0.848191 0
0.187677 -0.818656 0
0.294028 -0.79217 0
-0.265976 -0.805521 0
-0.830178 -0.820449 0
1.16902 -0.96321 0
0.359456 -0.925523 0
-0.041061 -0.901098 0
-0.000465991 -0.888949 0
0.0296722 -0.886434 0
0.0343793 -0.907856 0
0.0501816 -0.905475 0
0.116146 -0.811964 0
0.126863 -0.730482 0
-0.540725 -0.835927 0
-1.20542 -0.940492 0
1.03453 -1.00528 0
0.340213 -0.964052 0
-0.0158979 -0.934767 0
0.00928399 -0.917065 0
0.027496 -0.909515 0
0.0286184 -0.926913 0
0.0395251 -0.923712 0
0.0962409 -0.840693 0
0.104365 -0.770042 0
-0.517647 -0.879788 0
-1.14081 -0.989816 0
0.868935 -0.995026 0
0.287549 -0.958675 0
-0.016802 -0.929734 0
0.0036674 -0.908759 0
0.0160765 -0.896526 0
0.0088624 -0.905672 0
0.0167838 -0.901524 0
0.0896616 -0.843987 0
0.118834 -0.797363 0
-0.419207 -0.900038 0
-0.958483 -1.0029 0
0.706334 -0.976933 0
0.24173 -0.946781 0
-0.0078748 -0.920941 0
0.00532155 -0.900278 0
0.011608 -0.886871 0
0.00130138 -0.891095 0
0.00565854 -0.886084 0
0.0718705 -0.842486 0
0.0999064 -0.808774 0
-0.358123 -0.903847 0
-0.817075 -0.999509 0
0.547417 -0.978531 0
0.201346 -0.954453 0
0.00855691 -0.93279 0
0.0118723 -0.914304 0
0.0112693 -0.902013 0
0.00135339 -0.904754 0
0.00216231 -0.900137 0
0.0487663 -0.864128 0
0.0638431 -0.837147 0
-0.317027 -0.920087 0
-0.698832 -1.00364 0
0.425574 -1.07542 0
0.169999 -1.05637 0
0.0219673 -1.03852 0
0.0163 -1.02245 0
0.00892902 -1.01165 0
-0.0024326 -1.01368 0
-0.00393111 -1.01039 0
0.0370511 -0.984123 0
0.0508595 -0.964778 0
-0.281982 -1.02791 0
-0.614523 -1.09148 0
0.317609 -1.27892 0
0.138185 -1.26055 0
0.0292468 -1.24312 0
0.0155141 -1.22709 0
0.00130995 -1.2159 0
-0.0138975 -1.21645 0
-0.0163776 -1.21267 0
0.0356172 -1.19008 0
0.0625934 -1.17297 0
-0.237683 -1.22115 0
-0.537673 -1.26974 0
SCALARS mass double 1
LOOKUP_TABLE default
2.67769
2.67769
2.67769
2.67769
2.67769
2.67769
2.67769
2.67769
2.67769
2.67769
2.67769
2.67769
2.67769
2.67769
2.67769
2.67769
2.67769
2.67769
2.67769
2.67769
2.67769
2.67769
2.67769
2.67769
2.67769
2.67769
2.67769
2.67769
2.67769
2.67769
2.67769
2.67769
2.67769
2.67769
2.67769
2.67769
2.67769
2.67769
2.67769
2.67769
2.67769
2.67769
2.67769
2.67769
2.67769
2.67769
2.67769
2.67769
2.67769
2.67769
2.67769
2.67769
2.67769
2.67769
2.67769
2.67769
2.67769
2.67769
2.67769
2.67769
2.67769
2.67769
2.67769
2.67769
2.67769
2.67769
2.67769
2.67769
2.67769
2.67769
2.67769
2.67769
2.67769
2.67769
2.67769
2.67769
2.67769
2.67769
2.67769
2.67769
2.67769
2.67769
2.67769
2.67769
2.67769
2.67769
2.67769
2.67769
2.67769
2.67769
2.67769
2.67769
2.67769
2.67769
2.67769
2.67769
2.67769
2.67769
2.67769
2.67769
2.67769
2.67769
2.67769
2.67769
2.67769
2.67769
2.67769
2.67769
2.67769
2.67769
2.67769
2.67769
2.67769
2.67769
2.67769
2.67769
2.67769
2.67769
2.67769
2.67769
2.67769
SCALARS volume double 1
LOOKUP_TABLE default
0.00075773
0.000748209
0.00069565
0.000689201
0.000711483
0.000709339
0.00069487
0.000682207
0.00060278
0.000640562
0.000680484
0.000804053
0.000793377
0.000652178
0.000646487
0.000722305
0.000720097
0.000684898
0.00067258
0.000474485
0.000497772
0.000521927
0.000569223
0.000579761
0.000453557
0.000458885
0.000547045
0.000549246
0.000518437
0.000532783
0.000338351
0.000318375
0.000299512
0.000565883
0.0005763
0.00045774
0.000463165
0.000545096
0.000547283
0.000511942
0.000525942
0.000352748
0.000331129
0.000310782
0.000637247
0.000647423
0.000521553
0.000526966
0.000611177
0.000613485
0.000568129
0.000582974
0.000423629
0.000389068
0.000369393
0.000803232
0.000804012
0.00065796
0.000659201
0.000744409
0.000745209
0.000691651
0.000690281
0.000507311
0.000497004
0.000494933
0.000782963
0.000783593
0.000659436
0.000660599
0.000730921
0.000731653
0.000688985
0.000687564
0.000515353
0.000513599
0.000511853
0.000765141
0.000764069
0.000659832
0.000659404
0.000714622
0.00071454
0.000680937
0.000679943
0.000530883
0.000531622
0.000532361
0.000741943
0.000740924
0.000658226
0.000657797
0.000700264
0.000700185
0.00067518
0.000674213
0.000547807
0.000549538
0.000550321
0.000718937
0.000718468
0.000651329
0.000651028
0.000684425
0.00068419
0.000665302
0.000664368
0.000556022
0.000557697
0.000559376
0.000714071
0.000713608
0.00065584
0.000655534
0.000683119
0.000682885
0.000668127
0.000667185
0.000569786
0.000571544
0.000573307
TENSORS stress double
4956.95 1223.07 0
1223.07 9675.97 0
0 0 0
4958.34 4279.37 0
4279.37 9594.33 0
0 0 0
4752.87 4742.94 0
4742.94 9522.48 0
0 0 0
4755.69 1552.61 0
1552.61 9462.59 0
0 0 0
4896.14 -336.49 0
-336.49 9413.54 0
0 0 0
4896.64 437.623 0
437.623 9391.79 0
0 0 0
4831.9 548.25 0
548.25 9361.08 0
0 0 0
4836.19 -178.004 0
-178.004 9293.46 0
0 0 0
4528.14 295.453 0
295.453 9256.41 0
0 0 0
4494.6 -11202.5 0
-11202.5 9596.54 0
0 0 0
4459.15 -22685.5 0
-22685.5 9933.6 0
0 0 0
4717.58 660.233 0
660.233 8800.34 0
0 0 0
4721.91 3811.13 0
3811.13 8724.31 0
0 0 0
4105.79 4117.81 0
4117.81 8662.97 0
0 0 0
4113.92 1026.77 0
1026.77 8613.9 0
0 0 0
4535.07 -482.555 0
-482.555 8572.76 0
0 0 0
4536.59 297.52 0
297.52 8553.05 0
0 0 0
4342.5 -358.692 0
-358.692 8526.09 0
0 0 0
4355.31 -1072.09 0
-1072.09 8473.98 0
0 0 0
3432.22 3624.52 0
3624.52 8438.62 0
0 0 0
3346.16 -6544.21 0
-6544.21 8663.43 0
0 0 0
3256.19 -16679.2 0
-16679.2 8881.83 0
0 0 0
4455.53 -1215.21 0
-1215.21 6431.3 0
0 0 0
4463.79 -1558.35 0
-1558.35 6575.22 0
0 0 0
3576.84 -1255.64 0
-1255.64 6684.85 0
0 0 0
3582.13 -759.719 0
-759.719 6769.98 0
0 0 0
4188.67 112.952 0
112.952 6840.17 0
0 0 0
4190.73 -102.498 0
-102.498 6870.01 0
0 0 0
3882.84 -1746.43 0
-1746.43 6926.39 0
0 0 0
3897.78 -2517.63 0
-2517.63 7073.02 0
0 0 0
2520.86 4683.49 0
4683.49 7194.01 0
0 0 0
2500.35 6312.74 0
6312.74 6831.33 0
0 0 0
2480.85 7948.76 0
7948.76 6471.18 0
0 0 0
4153.52 -553.427 0
-553.427 5825.09 0
0 0 0
4156.55 -890.131 0
-890.131 5957.79 0
0 0 0
3283.61 -753.892 0
-753.892 6059.36 0
0 0 0
3285.7 -252.91 0
-252.91 6138.33 0
0 0 0
3857.2 269.774 0
269.774 6202.96 0
0 0 0
3858.02 55.0034 0
55.0034 6230.31 0
0 0 0
3471.43 -611.806 0
-611.806 6280.85 0
0 0 0
3475.62 -1364.04 0
-1364.04 6409.18 0
0 0 0
2309.81 1136.49 0
1136.49 6529.21 0
0 0 0
2301.01 2904.46 0
2904.46 6191.94 0
0 0 0
2292.6 4674.75 0
4674.75 5855.64 0
0 0 0
3845.57 79.2811 0
79.2811 5206.94 0
0 0 0
3843.38 -312.633 0
-312.633 5328.4 0
0 0 0
2984.74 -357.714 0
-357.714 5421.81 0
0 0 0
2983.56 192.928 0
192.928 5494.49 0
0 0 0
3519.37 394.372 0
394.372 5553.51 0
0 0 0
3518.92 168.151 0
168.151 5578.34 0
0 0 0
3052.23 486.395 0
486.395 5623.09 0
0 0 0
3045.81 -55.0122 0
-55.0122 5733.38 0
0 0 0
3040.14 -1994.97 0
-1994.97 5842.55 0
0 0 0
2098.14 -66.1544 0
-66.1544 5540.63 0
0 0 0
2101.35 1937.13 0
1937.13 5229.15 0
0 0 0
3417.72 154.578 0
154.578 5970.76 0
0 0 0
3412.84 -551.124 0
-551.124 5965.98 0
0 0 0
2610.42 -676.52 0
-676.52 5968.05 0
0 0 0
2607.75 36.2308 0
36.2308 5974.84 0
0 0 0
3081.01 205.748 0
205.748 5982.29 0
0 0 0
3079.79 -73.2881 0
-73.2881 5991.38 0
0 0 0
2611.92 518.054 0
518.054 5989.12 0
0 0 0
2605.98 964.111 0
964.111 5946.52 0
0 0 0
2600.97 -909.653 0
-909.653 5906.58 0
0 0 0
1806.47 755.71 0
755.71 5918.68 0
0 0 0
1815.99 2677.89 0
2677.89 5930.86 0
0 0 0
2942.22 203.727 0
203.727 5108.88 0
0 0 0
2936.92 -498.057 0
-498.057 5103.3 0
0 0 0
2230.09 -590.387 0
-590.387 5103.96 0
0 0 0
2226.75 126.335 0
126.335 5109.4 0
0 0 0
2616.88 254.11 0
254.11 5115.63 0
0 0 0
2615.22 -22.8245 0
-22.8245 5123.84 0
0 0 0
2239.07 407.422 0
407.422 5121.52 0
0 0 0
2233.79 845.931 0
845.931 5080.19 0
0 0 0
1461.27 -1400.79 0
-1400.79 5041.8 0
0 0 0
1472.28 596.163 0
596.163 5057.25 0
0 0 0
1483.25 2592.64 0
2592.64 5072.61 0
0 0 0
2473.08 160.827 0
160.827 4129.28 0
0 0 0
2468.06 -578.598 0
-578.598 4110.78 0
0 0 0
1856.15 -674.381 0
-674.381 4095.5 0
0 0 0
1852.71 36.3892 0
36.3892 4083.27 0
0 0 0
2167.85 194.216 0
194.216 4073.33 0
0 0 0
2166.12 14.7725 0
14.7725 4068.92 0
0 0 0
1872.33 394.299 0
394.299 4061.1 0
0 0 0
1867.67 813.685 0
813.685 4039.91 0
0 0 0
1143.75 -1319.3 0
-1319.3 4021.76 0
0 0 0
1153.95 921.832 0
921.832 4066.88 0
0 0 0
1164.16 3162.32 0
3162.32 4112.04 0
0 0 0
2003.69 113.517 0
113.517 3284.92 0
0 0 0
1999.3 -595.318 0
-595.318 3267.68 0
0 0 0
1482.93 -673.751 0
-673.751 3253.13 0
0 0 0
1479.71 17.9381 0
17.9381 3241.32 0
0 0 0
1732.06 192.862 0
192.862 3231.71 0
0 0 0
1730.38 17.6459 0
17.6459 3227.39 0
0 0 0
1504.08 327.697 0
327.697 3219.94 0
0 0 0
1499.94 742.377 0
742.377 3199.84 0
0 0 0
845.982 -1209.88 0
-1209.88 3183.18 0
0 0 0
855.929 964.461 0
964.461 3228.42 0
0 0 0
865.894 3134.78 0
3134.78 3273.69 0
0 0 0
1548.53 237.002 0
237.002 2299.59 0
0 0 0
1544.89 -123.942 0
-123.942 2291.7 0
0 0 0
1116.45 -158.43 0
-158.43 2284.11 0
0 0 0
1113.19 193.323 0
193.323 2276.91 0
0 0 0
1308.47 165.508 0
165.508 2271.09 0
0 0 0
1306.96 65.5114 0
65.5114 2268.59 0
0 0 0
1143.89 318.472 0
318.472 2265.3 0
0 0 0
1140.32 540.364 0
540.364 2258.64 0
0 0 0
544.814 -1411.97 0
-1411.97 2254.92 0
0 0 0
556.853 -236.827 0
-236.827 2297.07 0
0 0 0
568.929 938.194 0
938.194 2339.29 0
0 0 0
1121.91 208.235 0
208.235 1485.18 0
0 0 0
1118.55 -151.483 0
-151.483 1477.84 0
0 0 0
725.807 -183.6 0
-183.6 1470.71 0
0 0 0
722.723 169.35 0
169.35 1463.86 0
0 0 0
895.991 149.254 0
149.254 1458.37 0
0 0 0
894.626 49.3548 0
49.3548 1456.15 0
0 0 0
774.477 248.83 0
248.83 1453.32 0
0 0 0
771.434 471.215 0
471.215 1447.84 0
0 0 0
172.627 -1240.62 0
-1240.62 1445.19 0
0 0 0
183.713 -51.3372 0
-51.3372 1485.65 0
0 0 0
194.834 1137.84 0
1137.84 1526.19 0
0 0 0
TENSORS strain double
0.0298375 0.0122307 0
0.0122307 -0.0112769 0
0 0 0
0.0297232 0.0427937 0
0.0427937 -0.0238139 0
0 0 0
-0.0318855 0.0474294 0
0.0474294 -0.0349849 0
0 0 0
-0.0317906 0.0155261 0
0.0155261 -0.0443717 0
0 0 0
0.00753638 -0.0033649 0
-0.0033649 -0.0519271 0
0 0 0
0.00752927 0.00437623 0
0.00437623 -0.0549333 0
0 0 0
-0.00709746 0.0054825 0
0.0054825 -0.0608778 0
0 0 0
-0.00702777 -0.00178004 0
-0.00178004 -0.0792944 0
0 0 0
-0.118358 0.00295453 0
0.00295453 -0.0912976 0
0 0 0
-0.120765 -0.112025 0
-0.112025 -0.0284049 0
0 0 0
-0.123257 -0.226855 0
-0.226855 0.0343716 0
0 0 0
0.0895075 0.00660233 0
0.00660233 -0.0115307 0
0 0 0
0.0891545 0.0381113 0
0.0381113 -0.0245734 0
0 0 0
-0.0956426 0.0411781 0
0.0411781 -0.0355941 0
0 0 0
-0.0953664 0.0102677 0
0.0102677 -0.0445985 0
0 0 0
0.0226092 -0.00482555 0
-0.00482555 -0.0519206 0
0 0 0
0.0225877 0.0029752 0
0.0029752 -0.0549566 0
0 0 0
-0.0212904 -0.00358692 0
-0.00358692 -0.0611012 0
0 0 0
-0.0210821 -0.0107209 0
-0.0107209 -0.0794059 0
0 0 0
-0.355025 0.0362452 0
0.0362452 -0.0920784 0
0 0 0
-0.361446 -0.0654421 0
-0.0654421 -0.0382928 0
0 0 0
-0.368051 -0.166792 0
-0.166792 0.0152326 0
0 0 0
0.124555 -0.0121521 0
-0.0121521 -0.391004 0
0 0 0
0.124573 -0.0155835 0
-0.0155835 -0.372838 0
0 0 0
-0.133175 -0.0125564 0
-0.0125564 -0.358238 0
0 0 0
-0.133216 -0.00759719 0
-0.00759719 -0.346694 0
0 0 0
0.0312659 0.00112952 0
0.00112952 -0.33727 0
0 0 0
0.031273 -0.00102498 0
-0.00102498 -0.333298 0
0 0 0
-0.034719 -0.0174643 0
-0.0174643 -0.324485 0
0 0 0
-0.0344569 -0.0251763 0
-0.0251763 -0.29773 0
0 0 0
-0.502944 0.0468349 0
0.0468349 -0.277315 0
0 0 0
-0.501693 0.0631274 0
0.0631274 -0.338079 0
0 0 0
-0.500483 0.0794876 0
0.0794876 -0.398894 0
0 0 0
0.118744 -0.00553427 0
-0.00553427 -0.391049 0
0 0 0
0.118749 -0.00890131 0
-0.00890131 -0.372974 0
0 0 0
-0.124012 -0.00753892 0
-0.00753892 -0.358327 0
0 0 0
-0.124025 -0.0025291 0
-0.0025291 -0.346706 0
0 0 0
0.0277158 0.00269774 0
0.00269774 -0.337258 0
0 0 0
0.0277181 0.000550034 0
0.000550034 -0.333295 0
0 0 0
-0.0471243 -0.00611806 0
-0.00611806 -0.324541 0
0 0 0
-0.0470549 -0.0136404 0
-0.0136404 -0.297917 0
0 0 0
-0.462812 0.0113649 0
0.0113649 -0.276515 0
0 0 0
-0.462357 0.0290446 0
0.0290446 -0.338881 0
0 0 0
-0.461917 0.0467475 0
0.0467475 -0.401264 0
0 0 0
0.1127 0.000792811 0
0.000792811 -0.266344 0
0 0 0
0.112692 -0.00312633 0
-0.00312633 -0.250644 0
0 0 0
-0.114585 -0.00357714 0
-0.00357714 -0.237904 0
0 0 0
-0.114571 0.00192928 0
0.00192928 -0.227752 0
0 0 0
0.0240843 0.00394372 0
0.00394372 -0.219442 0
0 0 0
0.0240816 0.00168151 0
0.00168151 -0.215706 0
0 0 0
-0.0594072 0.00486395 0
0.00486395 -0.208325 0
0 0 0
-0.0595181 -0.000550122 0
-0.000550122 -0.182704 0
0 0 0
-0.393108 -0.0199497 0
-0.0199497 -0.165445 0
0 0 0
-0.42206 -0.000661544 0
-0.000661544 -0.219898 0
0 0 0
-0.422401 0.0193713 0
0.0193713 -0.2702 0
0 0 0
0.101067 0.00154578 0
0.00154578 -0.0241186 0
0 0 0
0.10102 -0.00551124 0
-0.00551124 -0.0230995 0
0 0 0
-0.100804 -0.0067652 0
-0.0067652 -0.0216136 0
0 0 0
-0.100766 0.000362308 0
0.000362308 -0.0197737 0
0 0 0
0.0189756 0.00205748 0
0.00205748 -0.0181535 0
0 0 0
0.0189688 -0.000732881 0
-0.000732881 -0.0170727 0
0 0 0
-0.0559138 0.00518054 0
0.00518054 -0.0166717 0
0 0 0
-0.0558329 0.00964111 0
0.00964111 -0.0187286 0
0 0 0
-0.359916 -0.00909653 0
-0.00909653 -0.0209199 0
0 0 0
-0.376585 0.0075571 0
0.0075571 -0.0245947 0
0 0 0
-0.377044 0.0267789 0
0.0267789 -0.0282664 0
0 0 0
0.0877173 0.00203727 0
0.00203727 -0.0363608 0
0 0 0
0.087666 -0.00498057 0
-0.00498057 -0.035503 0
0 0 0
-0.0860111 -0.00590387 0
-0.00590387 -0.0341848 0
0 0 0
-0.0859646 0.00126335 0
0.00126335 -0.0324765 0
0 0 0
0.0135123 0.0025411 0
0.0025411 -0.0309715 0
0 0 0
0.0135036 -0.000228245 0
-0.000228245 -0.0299616 0
0 0 0
-0.0468476 0.00407422 0
0.00407422 -0.029613 0
0 0 0
-0.0467703 0.00845931 0
0.00845931 -0.0317482 0
0 0 0
-0.33133 -0.0140079 0
-0.0140079 -0.0339436 0
0 0 0
-0.331856 0.00596163 0
0.00596163 -0.0367882 0
0 0 0
-0.332382 0.0259264 0
0.0259264 -0.0396314 0
0 0 0
0.0739841 0.00160827 0
0.00160827 -0.0456841 0
0 0 0
0.0739325 -0.00578598 0
-0.00578598 -0.0470352 0
0 0 0
-0.071524 -0.00674381 0
-0.00674381 -0.0480648 0
0 0 0
-0.0714794 0.000363892 0
0.000363892 -0.0487555 0
0 0 0
0.00928292 0.00194216 0
0.00194216 -0.0492766 0
0 0 0
0.00927785 0.000147725 0
0.000147725 -0.0493863 0
0 0 0
-0.0383898 0.00394299 0
0.00394299 -0.049781 0
0 0 0
-0.0383224 0.00813685 0
0.00813685 -0.0513046 0
0 0 0
-0.28314 -0.013193 0
-0.013193 -0.052641 0
0 0 0
-0.283757 0.00921832 0
0.00921832 -0.0506466 0
0 0 0
-0.284374 0.0316232 0
0.0316232 -0.0486534 0
0 0 0
0.0600166 0.00113517 0
0.00113517 -0.0625075 0
0 0 0
0.0599711 -0.00595318 0
-0.00595318 -0.0638361 0
0 0 0
-0.0571834 -0.00673751 0
-0.00673751 -0.0648655 0
0 0 0
-0.0571417 0.000179381 0
0.000179381 -0.0655569 0
0 0 0
0.00580289 0.00192862 0
0.00192862 -0.0660779 0
0 0 0
0.00579786 0.000176459 0
0.000176459 -0.066186 0
0 0 0
-0.0301084 0.00327697 0
0.00327697 -0.0665674 0
0 0 0
-0.0300462 0.00742377 0
0.00742377 -0.0680577 0
0 0 0
-0.23365 -0.0120988 0
-0.0120988 -0.0710651 0
0 0 0
-0.234252 0.00964461 0
0.00964461 -0.0673272 0
0 0 0
-0.234855 0.0313478 0
0.0313478 -0.0653123 0
0 0 0
0.0502231 0.00237002 0
0.00237002 -0.0842088 0
0 0 0
0.0502055 -0.00123942 0
-0.00123942 -0.0848431 0
0 0 0
-0.0471354 -0.0015843 0
-0.0015843 -0.0854082 0
0 0 0
-0.0471198 0.00193323 0
0.00193323 -0.0858856 0
0 0 0
0.00321016 0.00165508 0
0.00165508 -0.0863227 0
0 0 0
0.00320793 0.000655114 0
0.000655114 -0.0866633 0
0 0 0
-0.0241619 0.00318472 0
0.00318472 -0.0872115 0
0 0 0
-0.0241308 0.00540364 0
0.00540364 -0.0886445 0
0 0 0
-0.200155 -0.0141197 0
-0.0141197 -0.0897601 0
0 0 0
-0.20038 -0.00236827 0
-0.00236827 -0.0865521 0
0 0 0
-0.200604 0.00938194 0
0.00938194 -0.0833448 0
0 0 0
0.0434356 0.00208235 0
0.00208235 -0.0842075 0
0 0 0
0.0434196 -0.00151483 0
-0.00151483 -0.0848391 0
0 0 0
-0.0402576 -0.001836 0
-0.001836 -0.0854047 0
0 0 0
-0.040243 0.0016935 0
0.0016935 -0.0858842 0
0 0 0
0.001303 0.00149254 0
0.00149254 -0.0863227 0
0 0 0
0.00130109 0.000493548 0
0.000493548 -0.086663 0
0 0 0
-0.019942 0.0024883 0
0.0024883 -0.0872096 0
0 0 0
-0.0199161 0.00471215 0
0.00471215 -0.0886433 0
0 0 0
-0.175854 -0.0124062 0
-0.0124062 -0.0897518 0
0 0 0
-0.176062 -0.000513372 0
-0.000513372 -0.0864858 0
0 0 0
-0.17627 0.0113784 0
0.0113784 -0.0832204 0
0 0 0
