# vtk DataFile Version 3.0
MPM2D particles
ASCII
DATASET POLYDATA
POINTS 121 double
0.0127572 0.0123735 0
0.0382703 0.0123045 0
0.0633487 0.0122429 0
0.0878189 0.0121911 0
0.112478 0.0121501 0
0.137599 0.012135 0
0.162678 0.0120978 0
0.187584 0.0119665 0
0.212334 0.0118775 0
0.235279 0.0122644 0
0.258184 0.0126631 0
0.0132871 0.0371177 0
0.039857 0.0369051 0
0.064993 0.0367217 0
0.088436 0.0365707 0
0.112433 0.0364503 0
0.137797 0.0364048 0
0.163032 0.0362899 0
0.187749 0.035897 0
0.21202 0.0356259 0
0.23134 0.0366625 0
0.250567 0.037726 0
0.0136 0.0599367 0
0.0408005 0.0597113 0
0.0659205 0.0595183 0
0.088799 0.0593589 0
0.112428 0.0592304 0
0.137928 0.0591812 0
0.163234 0.0590566 0
0.187784 0.0586355 0
0.211744 0.058334 0
0.229264 0.0594098 0
0.246799 0.0604532 0
0.013527 0.0795663 0
0.0405812 0.0795002 0
0.0657262 0.0794413 0
0.0887662 0.0793902 0
0.112498 0.07935 0
0.137941 0.0793373 0
0.163175 0.0793053 0
0.18759 0.0791971 0
0.211497 0.0791242 0
0.229538 0.0795046 0
0.247585 0.0798747 0
0.0134514 0.0995836 0
0.040354 0.0996746 0
0.0655214 0.0997497 0
0.0887291 0.0998075 0
0.112566 0.0998558 0
0.137952 0.09988 0
0.163115 0.0999387 0
0.187402 0.100136 0
0.211256 0.100297 0
0.229848 0.0999678 0
0.248433 0.0996501 0
0.0133329 0.123892 0
0.039998 0.124017 0
0.0651759 0.124126 0
0.0886113 0.124216 0
0.11259 0.124291 0
0.137899 0.124328 0
0.163022 0.124402 0
0.187399 0.124629 0
0.211384 0.124807 0
0.230618 0.124352 0
0.249843 0.123897 0
0.0132121 0.148459 0
0.0396355 0.148598 0
0.0648162 0.148725 0
0.0884852 0.148835 0
0.112608 0.148927 0
0.137841 0.148971 0
0.162927 0.149051 0
0.187411 0.149275 0
0.211544 0.149444 0
0.231447 0.148926 0
0.25134 0.148409 0
0.0130887 0.172719 0
0.0392654 0.172848 0
0.0644371 0.172968 0
0.0883382 0.173076 0
0.112609 0.173166 0
0.137783 0.173212 0
0.162841 0.173289 0
0.187424 0.173498 0
0.211702 0.173653 0
0.232349 0.173135 0
0.252985 0.172618 0
0.0129657 0.196959 0
0.0388966 0.197073 0
0.0640514 0.197181 0
0.0881857 0.197282 0
0.112606 0.197367 0
0.137725 0.197413 0
0.162758 0.197487 0
0.187438 0.197682 0
0.211866 0.197823 0
0.23329 0.197315 0
0.254704 0.196807 0
0.0128877 0.220629 0
0.0386628 0.220731 0
0.0638041 0.22083 0
0.0880904 0.220924 0
0.112608 0.221003 0
0.137688 0.221043 0
0.162702 0.221107 0
0.187435 0.221273 0
0.211952 0.221389 0
0.233895 0.220911 0
0.255833 0.220432 0
0.0128239 0.24424 0
0.0384714 0.244333 0
0.0635994 0.244424 0
0.088012 0.244511 0
0.11261 0.244583 0
0.137657 0.244617 0
0.162652 0.244671 0
0.187423 0.244807 0
0.212011 0.2449 0
0.234402 0.244456 0
0.256789 0.244012 0
VERTICES 121 242
1 0
1 1
1 2
1 3
1 4
1 5
1 6
1 7
1 8
1 9
1 10
1 11
1 12
1 13
1 14
1 15
1 16
1 17
1 18
1 19
1 20
1 21
1 22
1 23
1 24
1 25
1 26
1 27
1 28
1 29
1 30
1 31
1 32
1 33
1 34
1 35
1 36
1 37
1 38
1 39
1 40
1 41
1 42
1 43
1 44
1 45
1 46
1 47
1 48
1 49
1 50
1 51
1 52
1 53
1 54
1 55
1 56
1 57
1 58
1 59
1 60
1 61
1 62
1 63
1 64
1 65
1 66
1 67
1 68
1 69
1 70
1 71
1 72
1 73
1 74
1 75
1 76
1 77
1 78
1 79
1 80
1 81
1 82
1 83
1 84
1 85
1 86
1 87
1 88
1 89
1 90
1 91
1 92
1 93
1 94
1 95
1 96
1 97
1 98
1 99
1 100
1 101
1 102
1 103
1 104
1 105
1 106
1 107
1 108
1 109
1 110
1 111
1 112
1 113
1 114
1 115
1 116
1 117
1 118
1 119
1 120
POINT_DATA 121
VECTORS velocity double
1.47829 2.41989 0
0.662142 2.30855 0
0.158758 2.21822 0
0.108827 2.15695 0
0.0659537 2.12867 0
0.0407866 2.18185 0
0.0350107 2.16379 0
0.114266 1.83898 0
0.0789258 1.59079 0
-1.2576 2.22327 0
-2.58719 2.85086 0
1.21821 0.56431 0
0.394655 0.506329 0
-0.0509425 0.460858 0
-0.0163169 0.429826 0
0.00437026 0.414587 0
-0.00877543 0.438963 0
0.0126685 0.427594 0
0.178649 0.269331 0
0.265179 0.146092 0
-0.500182 0.424677 0
-1.24941 0.69196 0
1.03636 -0.605169 0
0.239841 -0.623482 0
-0.155076 -0.638317 0
-0.0796487 -0.649345 0
-0.026956 -0.656497 0
-0.0314557 -0.653878 0
0.00429648 -0.65941 0
0.204743 -0.698198 0
0.348871 -0.728183 0
-0.13294 -0.656304 0
-0.618646 -0.586867 0
0.986241 -0.66558 0
0.27884 -0.661689 0
-0.085365 -0.659931 0
-0.0378785 -0.660279 0
-0.0045893 -0.661796 0
-0.00663667 -0.666177 0
0.0183649 -0.666473 0
0.155812 -0.650876 0
0.238057 -0.637483 0
-0.302935 -0.647797 0
-0.845162 -0.65884 0
0.932169 -0.733097 0
0.314208 -0.708212 0
-0.0177898 -0.690607 0
0.00229584 -0.680789 0
0.0166117 -0.676874 0
0.0168511 -0.687544 0
0.0315478 -0.682975 0
0.108477 -0.617407 0
0.132087 -0.56315 0
-0.463485 -0.650381 0
-1.05788 -0.737041 0
0.807301 -0.766803 0
0.278468 -0.741918 0
-0.0107681 -0.723148 0
0.00359035 -0.711237 0
0.0131398 -0.70546 0
0.0108967 -0.714754 0
0.0228571 -0.711105 0
0.0959444 -0.654991 0
0.121661 -0.609626 0
-0.408246 -0.693522 0
-0.938771 -0.777518 0
0.676642 -0.785576 0
0.236133 -0.762888 0
-0.00848279 -0.744502 0
0.00202182 -0.731286 0
0.00800599 -0.724012 0
0.00294919 -0.731297 0
0.012693 -0.728797 0
0.085656 -0.6858 0
0.117105 -0.652153 0
-0.337198 -0.728871 0
-0.792188 -0.805713 0
0.546499 -0.785479 0
0.196452 -0.766104 0
-0.00154125 -0.749745 0
0.00423547 -0.737224 0
0.00679507 -0.729958 0
0.00153601 -0.735537 0
0.00854826 -0.732826 0
0.0681417 -0.695171 0
0.0929061 -0.666218 0
-0.288276 -0.739759 0
-0.670043 -0.81341 0
0.417502 -0.794536 0
0.157458 -0.778342 0
0.00692335 -0.764174 0
0.00751731 -0.752717 0
0.00648028 -0.74583 0
0.00150394 -0.7501 0
0.00567929 -0.747116 0
0.0493705 -0.713124 0
0.0652189 -0.687305 0
-0.243268 -0.756826 0
-0.552339 -0.826459 0
0.322565 -0.874397 0
0.128947 -0.860594 0
0.0141456 -0.848231 0
0.0102127 -0.837856 0
0.00571954 -0.831556 0
-0.000105947 -0.835192 0
0.00205832 -0.832967 0
0.0388134 -0.805511 0
0.052253 -0.784895 0
-0.209245 -0.844643 0
-0.470844 -0.904586 0
0.234875 -0.979435 0
0.102185 -0.967387 0
0.0207549 -0.956396 0
0.0124512 -0.9469 0
0.00442064 -0.941064 0
-0.00290953 -0.944142 0
-0.00257237 -0.942549 0
0.0309179 -0.92073 0
0.0448177 -0.904455 0
-0.175592 -0.953807 0
-0.396096 -1.00334 0
SCALARS mass double 1
LOOKUP_TABLE default
2.67769
2.67769
2.67769
2.67769
2.67769
2.67769
2.67769
2.67769
2.67769
2.67769
2.67769
2.67769
2.67769
2.67769
2.67769
2.67769
2.67769
2.67769
2.67769
2.67769
2.67769
2.67769
2.67769
2.67769
2.67769
2.67769
2.67769
2.67769
2.67769
2.67769
2.67769
2.67769
2.67769
2.67769
2.67769
2.67769
2.67769
2.67769
2.67769
2.67769
2.67769
2.67769
2.67769
2.67769
2.67769
2.67769
2.67769
2.67769
2.67769
2.67769
2.67769
2.67769
2.67769
2.67769
2.67769
2.67769
2.67769
2.67769
2.67769
2.67769
2.67769
2.67769
2.67769
2.67769
2.67769
2.67769
2.67769
2.67769
2.67769
2.67769
2.67769
2.67769
2.67769
2.67769
2.67769
2.67769
2.67769
2.67769
2.67769
2.67769
2.67769
2.67769
2.67769
2.67769
2.67769
2.67769
2.67769
2.67769
2.67769
2.67769
2.67769
2.67769
2.67769
2.67769
2.67769
2.67769
2.67769
2.67769
2.67769
2.67769
2.67769
2.67769
2.67769
2.67769
2.67769
2.67769
2.67769
2.67769
2.67769
2.67769
2.67769
2.67769
2.67769
2.67769
2.67769
2.67769
2.67769
2.67769
2.67769
2.67769
2.67769
SCALARS volume double 1
LOOKUP_TABLE default
0.000751428
0.000747215
0.000713066
0.000710069
0.000726477
0.000725575
0.000717139
0.000709366
0.000649218
0.000669857
0.000691094
0.000782584
0.000778031
0.000683008
0.000680249
0.000733521
0.000732602
0.000711634
0.000703973
0.000547355
0.000562085
0.000577143
0.000635842
0.000640979
0.000542079
0.000545037
0.000610654
0.000611761
0.00059146
0.000600638
0.000432639
0.000418011
0.000403849
0.000632396
0.00063748
0.000545912
0.000548911
0.000609295
0.000610397
0.000588196
0.000597278
0.000445691
0.000430209
0.00041524
0.000712477
0.000716529
0.000620667
0.000623124
0.000684092
0.000685177
0.000657478
0.000666994
0.000513694
0.000500135
0.000489042
0.000780106
0.000780573
0.000686462
0.000687032
0.0007425
0.000742747
0.00071552
0.000715446
0.000564433
0.000563065
0.000561701
0.000763637
0.000763972
0.00068464
0.000685111
0.000730824
0.000731017
0.000709431
0.000709312
0.0005765
0.000575601
0.000574702
0.000755748
0.000755291
0.000689238
0.000689026
0.000725578
0.000725575
0.000708419
0.000708007
0.000594463
0.000594826
0.00059519
0.000736147
0.000735712
0.00068436
0.000684151
0.000711911
0.000711909
0.000699374
0.000698994
0.000605577
0.000606982
0.00060734
0.000724307
0.000724022
0.0006819
0.000681707
0.000703829
0.000703643
0.000693565
0.000692709
0.000613904
0.000614892
0.000615882
0.000720715
0.000720434
0.000685452
0.000685257
0.000702907
0.000702723
0.000694622
0.000693763
0.000626467
0.000627496
0.000628526
TENSORS stress double
4947.01 900.805 0
900.805 9728.32 0
0 0 0
4947.67 2975.85 0
2975.85 9680.34 0
0 0 0
4763.16 3327.97 0
3327.97 9637.5 0
0 0 0
4764.37 1185.76 0
1185.76 9601.4 0
0 0 0
4885.91 -121.299 0
-121.299 9572.29 0
0 0 0
4886.12 369.03 0
369.03 9560.54 0
0 0 0
4833.91 455.902 0
455.902 9538.31 0
0 0 0
4836.37 70.2867 0
70.2867 9471.89 0
0 0 0
4542.94 134.909 0
134.909 9428.85 0
0 0 0
4526.89 -8144.91 0
-8144.91 9658.67 0
0 0 0
4510.39 -16421.3 0
-16421.3 9887.76 0
0 0 0
4687.7 648.53 0
648.53 8853.55 0
0 0 0
4689.73 2765.89 0
2765.89 8808.19 0
0 0 0
4136.3 3044.77 0
3044.77 8769.83 0
0 0 0
4139.82 946.759 0
946.759 8738.44 0
0 0 0
4504.38 -181.973 0
-181.973 8712.83 0
0 0 0
4505.03 310.694 0
310.694 8701.94 0
0 0 0
4348.44 -83.9298 0
-83.9298 8681.36 0
0 0 0
4355.81 -465.39 0
-465.39 8624.09 0
0 0 0
3475.71 1806.44 0
1806.44 8584.5 0
0 0 0
3432.51 -5804.25 0
-5804.25 8755.98 0
0 0 0
3388.28 -13406.5 0
-13406.5 8925.77 0
0 0 0
4390.81 -611.603 0
-611.603 6723.73 0
0 0 0
4394.54 -918.111 0
-918.111 6804.23 0
0 0 0
3614.42 -804.779 0
-804.779 6869.63 0
0 0 0
3616.82 -433.595 0
-433.595 6921.57 0
0 0 0
4128.21 55.9976 0
55.9976 6964.09 0
0 0 0
4129.02 -69.4184 0
-69.4184 6982.45 0
0 0 0
3889.65 -1040.58 0
-1040.58 7022.03 0
0 0 0
3897.6 -1356.87 0
-1356.87 7139.36 0
0 0 0
2642.54 2320.61 0
2320.61 7228.58 0
0 0 0
2629.64 3616.88 0
3616.88 6965.4 0
0 0 0
2617.1 4914.29 0
4914.29 6703.04 0
0 0 0
4029.78 -285.699 0
-285.699 6021.09 0
0 0 0
4030.85 -590.184 0
-590.184 6096.04 0
0 0 0
3282.18 -559.102 0
-559.102 6157.25 0
0 0 0
3282.93 -185.995 0
-185.995 6205.98 0
0 0 0
3756.55 132.508 0
132.508 6245.74 0
0 0 0
3756.75 7.29397 0
7.29397 6262.88 0
0 0 0
3477.36 -362.616 0
-362.616 6299.18 0
0 0 0
3479.38 -673.232 0
-673.232 6405.59 0
0 0 0
2372.4 404.448 0
404.448 6490.87 0
0 0 0
2367.95 1750.93 0
1750.93 6244.31 0
0 0 0
2363.61 3097.73 0
3097.73 5998.01 0
0 0 0
3661.62 4.50913 0
4.50913 5304.58 0
0 0 0
3660.07 -359.588 0
-359.588 5374.03 0
0 0 0
2943.51 -423.893 0
-423.893 5431.08 0
0 0 0
2942.61 -4.33856 0
-4.33856 5476.6 0
0 0 0
3377.76 175.246 0
175.246 5513.6 0
0 0 0
3377.34 38.0951 0
38.0951 5529.52 0
0 0 0
3057.23 270.263 0
270.263 5562.58 0
0 0 0
3053.48 157.464 0
157.464 5658.39 0
0 0 0
2097.31 -1099.33 0
-1099.33 5739.5 0
0 0 0
2101.44 349.554 0
349.554 5509.56 0
0 0 0
2105.44 1840.95 0
1840.95 5279.36 0
0 0 0
3197.23 7.3357 0
7.3357 5662.76 0
0 0 0
3195.02 -464.428 0
-464.428 5662.39 0
0 0 0
2553.6 -553.302 0
-553.302 5664.46 0
0 0 0
2552.29 -71.1934 0
-71.1934 5668.76 0
0 0 0
2927.2 110.532 0
110.532 5672.54 0
0 0 0
2926.58 -42.7238 0
-42.7238 5675.06 0
0 0 0
2640.89 268.48 0
268.48 5673.42 0
0 0 0
2637.46 488.163 0
488.163 5655.7 0
0 0 0
1777.35 -730.139 0
-730.139 5639.52 0
0 0 0
1782.96 787.128 0
787.128 5640.43 0
0 0 0
1788.55 2304.25 0
2304.25 5641.31 0
0 0 0
2723.36 36.8355 0
36.8355 4794.34 0
0 0 0
2720.9 -433.589 0
-433.589 4793.49 0
0 0 0
2164.3 -517.434 0
-517.434 4794.92 0
0 0 0
2162.7 -34.233 0
-34.233 4798.64 0
0 0 0
2473.15 122.878 0
122.878 4801.92 0
0 0 0
2472.4 -28.8174 0
-28.8174 4804.18 0
0 0 0
2240.88 258.042 0
258.042 4802.41 0
0 0 0
2237.46 468.595 0
468.595 4784.67 0
0 0 0
1455.41 -869.594 0
-869.594 4768.6 0
0 0 0
1461.78 705.685 0
705.685 4771.09 0
0 0 0
1468.13 2280.8 0
2280.8 4773.55 0
0 0 0
2253.29 8.15367 0
8.15367 3901.77 0
0 0 0
2251 -482.411 0
-482.411 3892.09 0
0 0 0
1779.77 -573.801 0
-573.801 3884.02 0
0 0 0
1778.21 -90.9055 0
-90.9055 3877.73 0
0 0 0
2031.25 86.1766 0
86.1766 3872.63 0
0 0 0
2030.49 -26.198 0
-26.198 3870.4 0
0 0 0
1846.73 257.786 0
257.786 3865.76 0
0 0 0
1843.5 457.581 0
457.581 3851.3 0
0 0 0
1151.48 -824.399 0
-824.399 3839.59 0
0 0 0
1157.45 893.099 0
893.099 3863.68 0
0 0 0
1163.43 2610.39 0
2610.39 3887.77 0
0 0 0
1782.44 -6.07356 0
-6.07356 3044.67 0
0 0 0
1780.42 -468.918 0
-468.918 3035.52 0
0 0 0
1395.27 -549.818 0
-549.818 3027.78 0
0 0 0
1393.8 -88.7193 0
-88.7193 3021.7 0
0 0 0
1592.55 89.8985 0
89.8985 3016.75 0
0 0 0
1591.8 -18.435 0
-18.435 3014.51 0
0 0 0
1452.82 237.603 0
237.603 3009.99 0
0 0 0
1449.8 431.345 0
431.345 2995.95 0
0 0 0
853.919 -789.375 0
-789.375 2984.7 0
0 0 0
859.783 838.369 0
838.369 3008.72 0
0 0 0
865.65 2462.53 0
2462.53 3032.74 0
0 0 0
1333.35 73.8865 0
73.8865 2129.77 0
0 0 0
1331.63 -185.668 0
-185.668 2123.53 0
0 0 0
1008.08 -234.183 0
-234.183 2117.69 0
0 0 0
1006.63 29.9932 0
29.9932 2112.36 0
0 0 0
1166.24 85.3049 0
85.3049 2107.82 0
0 0 0
1165.58 17.5705 0
17.5705 2105.21 0
0 0 0
1060.91 235.707 0
235.707 2101.19 0
0 0 0
1058.24 314.835 0
314.835 2091.2 0
0 0 0
526.643 -922.31 0
-922.31 2084 0
0 0 0
533.597 64.7706 0
64.7706 2112.39 0
0 0 0
540.561 1051.8 0
1051.8 2140.8 0
0 0 0
897.904 55.998 0
55.998 1294.24 0
0 0 0
896.339 -202.921 0
-202.921 1288.32 0
0 0 0
608.625 -249.292 0
-249.292 1282.74 0
0 0 0
607.278 15.5537 0
15.5537 1277.6 0
0 0 0
743.262 72.7173 0
72.7173 1273.27 0
0 0 0
742.709 5.0277 0
5.0277 1270.87 0
0 0 0
661.944 175.568 0
175.568 1267.22 0
0 0 0
659.748 254.787 0
254.787 1258.22 0
0 0 0
161.944 -833.36 0
-833.36 1251.87 0
0 0 0
168.403 163.45 0
163.45 1279.38 0
0 0 0
174.871 1160.21 0
1160.21 1306.9 0
0 0 0
TENSORS strain double
0.0203741 0.00900805 0
0.00900805 -0.0101686 0
0 0 0
0.0203396 0.0297585 0
0.0297585 -0.0157589 0
0 0 0
-0.0213972 0.0332797 0
0.0332797 -0.0207774 0
0 0 0
-0.0213691 0.0118576 0
0.0118576 -0.0250107 0
0 0 0
0.00482157 -0.00121299 0
-0.00121299 -0.0283805 0
0 0 0
0.00481982 0.0036903 0
0.0036903 -0.0296197 0
0 0 0
-0.00379683 0.00455902 0
0.00455902 -0.0326849 0
0 0 0
-0.00377439 0.000702867 0
0.000702867 -0.043587 0
0 0 0
-0.0846805 0.00134909 0
0.00134909 -0.051034 0
0 0 0
-0.085532 -0.0814491 0
-0.0814491 -0.0190204 0
0 0 0
-0.0863982 -0.164213 0
-0.164213 0.0129729 0
0 0 0
0.0611212 0.0064853 0
0.0064853 -0.0102448 0
0 0 0
0.0610157 0.0276589 0
0.0276589 -0.0159871 0
0 0 0
-0.0641889 0.0304477 0
0.0304477 -0.020967 0
0 0 0
-0.0641063 0.00946759 0
0.00946759 -0.0250839 0
0 0 0
0.0144647 -0.00181973 0
-0.00181973 -0.0283799 0
0 0 0
0.0144594 0.00310694 0
0.00310694 -0.029627 0
0 0 0
-0.01139 -0.000839298 0
-0.000839298 -0.032784 0
0 0 0
-0.0113228 -0.0046539 0
-0.0046539 -0.0436524 0
0 0 0
-0.254035 0.0180644 0
0.0180644 -0.0512199 0
0 0 0
-0.256387 -0.0580425 0
-0.0580425 -0.0225785 0
0 0 0
-0.258774 -0.134065 0
-0.134065 0.00601307 0
0 0 0
0.0844552 -0.00611603 0
-0.00611603 -0.24084 0
0 0 0
0.0844671 -0.00918111 0
-0.00918111 -0.232857 0
0 0 0
-0.0885489 -0.00804779 0
-0.00804779 -0.226158 0
0 0 0
-0.0885633 -0.00433595 0
-0.00433595 -0.220769 0
0 0 0
0.0197968 0.000559976 0
0.000559976 -0.216404 0
0 0 0
0.0197985 -0.000694184 0
-0.000694184 -0.214609 0
0 0 0
-0.0182224 -0.0104058 0
-0.0104058 -0.210073 0
0 0 0
-0.0181624 -0.0135687 0
-0.0135687 -0.194863 0
0 0 0
-0.353696 0.0232061 0
0.0232061 -0.183744 0
0 0 0
-0.353264 0.0361688 0
0.0361688 -0.217907 0
0 0 0
-0.35284 0.0491429 0
0.0491429 -0.252081 0
0 0 0
0.0790624 -0.00285699 0
-0.00285699 -0.240856 0
0 0 0
0.0790653 -0.00590184 0
-0.00590184 -0.232906 0
0 0 0
-0.0815342 -0.00559102 0
-0.00559102 -0.226194 0
0 0 0
-0.0815382 -0.00185995 0
-0.00185995 -0.220778 0
0 0 0
0.0175812 0.00132508 0
0.00132508 -0.216402 0
0 0 0
0.0175816 7.29397e-05 0
7.29397e-05 -0.214609 0
0 0 0
-0.0236807 -0.00362616 0
-0.00362616 -0.210098 0
0 0 0
-0.0236662 -0.00673232 0
-0.00673232 -0.194921 0
0 0 0
-0.324612 0.00404448 0
0.00404448 -0.18356 0
0 0 0
-0.324484 0.0175093 0
0.0175093 -0.21839 0
0 0 0
-0.324358 0.0309773 0
0.0309773 -0.253222 0
0 0 0
0.0734448 4.50913e-05 0
4.50913e-05 -0.116121 0
0 0 0
0.0734385 -0.00359588 0
-0.00359588 -0.110486 0
0 0 0
-0.074298 -0.00423893 0
-0.00423893 -0.105716 0
0 0 0
-0.0742915 -4.33856e-05 0
-4.33856e-05 -0.101821 0
0 0 0
0.0153098 0.00175246 0
0.00175246 -0.0985947 0
0 0 0
0.0153089 0.000380951 0
0.000380951 -0.0970219 0
0 0 0
-0.0288848 0.00270263 0
0.00270263 -0.0938501 0
0 0 0
-0.0289059 0.00157464 0
0.00157464 -0.0795823 0
0 0 0
-0.294765 -0.0109933 0
-0.0109933 -0.0729431 0
0 0 0
-0.294933 0.00349554 0
0.00349554 -0.099032 0
0 0 0
-0.295098 0.0184095 0
0.0184095 -0.12082 0
0 0 0
0.064573 7.3357e-05 0
7.3357e-05 -0.0168807 0
0 0 0
0.0645587 -0.00464428 0
-0.00464428 -0.0162682 0
0 0 0
-0.0645491 -0.00553302 0
-0.00553302 -0.0155512 0
0 0 0
-0.0645374 -0.000711934 0
-0.000711934 -0.0147356 0
0 0 0
0.0123133 0.00110532 0
0.00110532 -0.0140595 0
0 0 0
0.0123116 -0.000427238 0
-0.000427238 -0.013726 0
0 0 0
-0.0252272 0.0026848 0
0.0026848 -0.0134888 0
0 0 0
-0.0252057 0.00488163 0
0.00488163 -0.0136122 0
0 0 0
-0.260858 -0.00730139 0
-0.00730139 -0.0138955 0
0 0 0
-0.261067 0.00787128 0
0.00787128 -0.0160907 0
0 0 0
-0.261275 0.0230425 0
0.0230425 -0.0182856 0
0 0 0
0.0554528 0.000368355 0
0.000368355 -0.0291208 0
0 0 0
0.0554367 -0.00433589 0
-0.00433589 -0.0286651 0
0 0 0
-0.0546551 -0.00517434 0
-0.00517434 -0.0281032 0
0 0 0
-0.0546408 -0.00034233 0
-0.00034233 -0.0274319 0
0 0 0
0.00928676 0.00122878 0
0.00122878 -0.0268783 0
0 0 0
0.0092847 -0.000288174 0
-0.000288174 -0.0266125 0
0 0 0
-0.0208198 0.00258042 0
0.00258042 -0.0264403 0
0 0 0
-0.0207977 0.00468595 0
0.00468595 -0.0266291 0
0 0 0
-0.226875 -0.00869594 0
-0.00869594 -0.0269 0
0 0 0
-0.227114 0.00705685 0
0.00705685 -0.0282081 0
0 0 0
-0.227352 0.022808 0
0.022808 -0.0295157 0
0 0 0
0.0460539 8.15367e-05 0
8.15367e-05 -0.0301129 0
0 0 0
0.046038 -0.00482411 0
-0.00482411 -0.0307036 0
0 0 0
-0.0449117 -0.00573801 0
-0.00573801 -0.0311709 0
0 0 0
-0.0448983 -0.000909055 0
-0.000909055 -0.0314906 0
0 0 0
0.00692756 0.000861766 0
0.000861766 -0.0317183 0
0 0 0
0.00692622 -0.00026198 0
-0.00026198 -0.0317212 0
0 0 0
-0.0168434 0.00257786 0
0.00257786 -0.0318418 0
0 0 0
-0.016823 0.00457581 0
0.00457581 -0.0324419 0
0 0 0
-0.190369 -0.00824399 0
-0.00824399 -0.0329341 0
0 0 0
-0.190635 0.00893099 0
0.00893099 -0.0320625 0
0 0 0
-0.1909 0.0261039 0
0.0261039 -0.031191 0
0 0 0
0.0366044 -6.07356e-05 0
-6.07356e-05 -0.0469406 0
0 0 0
0.0365902 -0.00468918 0
-0.00468918 -0.0475177 0
0 0 0
-0.0352117 -0.00549818 0
-0.00549818 -0.0479789 0
0 0 0
-0.0351992 -0.000887193 0
-0.000887193 -0.0482949 0
0 0 0
0.00472542 0.000898985 0
0.000898985 -0.0485195 0
0 0 0
0.00472405 -0.00018435 0
-0.00018435 -0.0485212 0
0 0 0
-0.0129012 0.00237603 0
0.00237603 -0.0486319 0
0 0 0
-0.0128815 0.00431345 0
0.00431345 -0.0491933 0
0 0 0
-0.153587 -0.00789375 0
-0.00789375 -0.0513721 0
0 0 0
-0.153846 0.00838369 0
0.00838369 -0.0488072 0
0 0 0
-0.154104 0.0246253 0
0.0246253 -0.0479642 0
0 0 0
0.03056 0.000738865 0
0.000738865 -0.0571079 0
0 0 0
0.0305539 -0.00185668 0
-0.00185668 -0.0574943 0
0 0 0
-0.0289446 -0.00234183 0
-0.00234183 -0.0578385 0
0 0 0
-0.0289391 0.000299932 0
0.000299932 -0.0581259 0
0 0 0
0.00320857 0.000853049 0
0.000853049 -0.0584059 0
0 0 0
0.00320791 0.000175705 0
0.000175705 -0.058668 0
0 0 0
-0.0107428 0.00235707 0
0.00235707 -0.0591154 0
0 0 0
-0.0107348 0.00314835 0
0.00314835 -0.060356 0
0 0 0
-0.130007 -0.0092231 0
-0.0092231 -0.0613699 0
0 0 0
-0.130124 0.000647706 0
0.000647706 -0.059654 0
0 0 0
-0.130241 0.010518 0
0.010518 -0.0579384 0
0 0 0
0.0255924 0.00055998 0
0.00055998 -0.0571072 0
0 0 0
0.0255869 -0.00202921 0
-0.00202921 -0.0574924 0
0 0 0
-0.0237638 -0.00249292 0
-0.00249292 -0.0578368 0
0 0 0
-0.0237587 0.000155537 0
0.000155537 -0.0581253 0
0 0 0
0.0019009 0.000727173 0
0.000727173 -0.0584059 0
0 0 0
0.00190037 5.0277e-05 0
5.0277e-05 -0.0586678 0
0 0 0
-0.00922588 0.00175568 0
0.00175568 -0.059114 0
0 0 0
-0.00921943 0.00254787 0
0.00254787 -0.0603548 0
0 0 0
-0.109853 -0.0083336 0
-0.0083336 -0.0613688 0
0 0 0
-0.109962 0.0016345 0
0.0016345 -0.0596286 0
0 0 0
-0.110071 0.0116021 0
0.0116021 -0.0578886 0
0 0 0
