# vtk DataFile Version 3.0
MPM2D particles
ASCII
DATASET POLYDATA
POINTS 121 double
0.0142324 1.14454e-11 0
0.0423199 3.82265e-12 0
0.06703 1.39369e-12 0
0.0890636 5.54143e-13 0
0.112229 1.34483e-12 0
0.137809 3.7803e-10 0
0.162773 7.35842e-08 0
0.185284 5.86424e-06 0
0.205781 0.000355224 0
0.198493 0.000738536 0
0.188364 0.000198084 0
0.0184116 2.95166e-11 0
0.053622 7.55308e-12 0
0.0745411 3.09805e-12 0
0.0917055 1.49593e-12 0
0.11167 3.56015e-12 0
0.13845 1.30459e-09 0
0.163023 2.35784e-07 0
0.18135 8.59101e-06 0
0.197183 0.000214837 0
0.196381 0.00034199 0
0.191416 0.000214313 0
0.0222033 3.96545e-11 0
0.0620323 8.44578e-12 0
0.0792995 4.05279e-12 0
0.0934841 2.2185e-12 0
0.111286 5.22457e-12 0
0.139014 2.36489e-09 0
0.162861 3.73087e-07 0
0.178049 7.55583e-06 0
0.19101 0.00010676 0
0.19191 0.000168019 0
0.189493 0.000142375 0
0.0233027 4.45052e-11 0
0.064352 9.30539e-12 0
0.0809086 4.68546e-12 0
0.0944245 2.67331e-12 0
0.111786 7.41503e-12 0
0.13942 3.30409e-09 0
0.16222 4.29149e-07 0
0.175112 5.67967e-06 0
0.186072 5.41313e-05 0
0.188418 0.000102578 0
0.187116 0.000101118 0
0.0242227 4.88611e-11 0
0.0661815 1.01221e-11 0
0.0822544 5.28957e-12 0
0.0953262 3.11627e-12 0
0.112471 1.0601e-11 0
0.139649 4.3033e-09 0
0.161243 4.47642e-07 0
0.172048 3.99303e-06 0
0.181184 2.65097e-05 0
0.184919 6.16374e-05 0
0.184901 7.38643e-05 0
0.0251707 5.47557e-11 0
0.0679609 1.13268e-11 0
0.0835984 6.15055e-12 0
0.096258 3.74892e-12 0
0.113145 1.56822e-11 0
0.139349 5.20988e-09 0
0.159547 4.24392e-07 0
0.168366 2.57909e-06 0
0.175831 1.22463e-05 0
0.180223 3.09306e-05 0
0.181965 4.89978e-05 0
0.0258205 6.3996e-11 0
0.0690924 1.34119e-11 0
0.0844083 7.53321e-12 0
0.0967536 4.73585e-12 0
0.113147 2.0618e-11 0
0.13775 4.93013e-09 0
0.15698 3.37401e-07 0
0.164524 1.65594e-06 0
0.171018 6.42177e-06 0
0.175272 1.54519e-05 0
0.178313 2.99405e-05 0
0.0257307 7.73471e-11 0
0.0689623 1.66166e-11 0
0.0842123 9.50284e-12 0
0.0964794 6.07531e-12 0
0.112289 2.19044e-11 0
0.135231 3.72299e-09 0
0.154138 2.366e-07 0
0.161379 1.18098e-06 0
0.167598 4.28476e-06 0
0.171743 1.00146e-05 0
0.175269 2.08538e-05 0
0.0250289 9.39951e-11 0
0.0678911 2.07894e-11 0
0.0833001 1.19298e-11 0
0.0956659 7.66367e-12 0
0.110963 2.00507e-11 0
0.132641 2.63075e-09 0
0.151484 1.66626e-07 0
0.159074 9.45601e-07 0
0.165365 3.44919e-06 0
0.169593 8.17807e-06 0
0.173314 1.75861e-05 0
0.0242096 1.12163e-10 0
0.0666046 2.55383e-11 0
0.0822037 1.46404e-11 0
0.0946605 9.4287e-12 0
0.109492 1.71384e-11 0
0.130291 1.88248e-09 0
0.148992 1.17565e-07 0
0.157262 7.75742e-07 0
0.163736 3.02067e-06 0
0.168082 7.32214e-06 0
0.171921 1.60894e-05 0
0.0234378 1.31685e-10 0
0.0653158 3.09019e-11 0
0.081057 1.7702e-11 0
0.093527 1.14494e-11 0
0.107887 1.39363e-11 0
0.128053 1.35133e-09 0
0.146531 8.19256e-08 0
0.155568 6.20025e-07 0
0.162295 2.69946e-06 0
0.166733 6.65424e-06 0
0.170603 1.47157e-05 0
VERTICES 121 242
1 0
1 1
1 2
1 3
1 4
1 5
1 6
1 7
1 8
1 9
1 10
1 11
1 12
1 13
1 14
1 15
1 16
1 17
1 18
1 19
1 20
1 21
1 22
1 23
1 24
1 25
1 26
1 27
1 28
1 29
1 30
1 31
1 32
1 33
1 34
1 35
1 36
1 37
1 38
1 39
1 40
1 41
1 42
1 43
1 44
1 45
1 46
1 47
1 48
1 49
1 50
1 51
1 52
1 53
1 54
1 55
1 56
1 57
1 58
1 59
1 60
1 61
1 62
1 63
1 64
1 65
1 66
1 67
1 68
1 69
1 70
1 71
1 72
1 73
1 74
1 75
1 76
1 77
1 78
1 79
1 80
1 81
1 82
1 83
1 84
1 85
1 86
1 87
1 88
1 89
1 90
1 91
1 92
1 93
1 94
1 95
1 96
1 97
1 98
1 99
1 100
1 101
1 102
1 103
1 104
1 105
1 106
1 107
1 108
1 109
1 110
1 111
1 112
1 113
1 114
1 115
1 116
1 117
1 118
1 119
1 120
POINT_DATA 121
VECTORS velocity double
4.49645 6.65686 0
2.22647 4.58565 0
0.989473 3.20852 0
0.75897 2.44716 0
0.543195 2.00701 0
0.398941 2.43239 0
0.170802 2.41061 0
-0.325497 0.644896 0
-0.567787 -0.796831 0
-4.93067 5.95826 0
-8.35883 9.64628 0
3.03704 0.938891 0
0.384447 -0.251 0
-0.143473 -0.773896 0
0.192284 -1.16531 0
0.40445 -1.41987 0
0.345096 -1.18224 0
0.248252 -1.2139 0
0.169144 -2.04737 0
0.371589 -2.89112 0
-0.491273 -1.35921 0
-0.877779 -0.497499 0
2.0058 -3.01604 0
-0.765469 -3.41847 0
-0.847344 -3.58326 0
-0.177382 -3.76625 0
0.321204 -3.91464 0
0.336764 -3.85404 0
0.353659 -3.86974 0
0.546531 -3.99167 0
0.904721 -4.18115 0
1.03211 -4.11934 0
1.2961 -4.14251 0
1.98882 -3.65685 0
-0.690407 -3.93096 0
-0.741931 -4.06109 0
-0.112994 -4.20687 0
0.3685 -4.3303 0
0.414396 -4.33512 0
0.440743 -4.35032 0
0.545177 -4.26096 0
0.730772 -4.21042 0
0.575143 -4.307 0
0.602456 -4.46927 0
2.02815 -4.11097 0
-0.518235 -4.30835 0
-0.564426 -4.39546 0
-0.0186766 -4.49783 0
0.40028 -4.58637 0
0.478212 -4.61821 0
0.507378 -4.62808 0
0.477759 -4.42163 0
0.472714 -4.25295 0
-0.0164984 -4.41177 0
-0.240755 -4.69158 0
2.00449 -4.46806 0
-0.396947 -4.63884 0
-0.447738 -4.68476 0
0.0236326 -4.73684 0
0.381828 -4.77748 0
0.486262 -4.79759 0
0.530118 -4.80773 0
0.433623 -4.59604 0
0.33333 -4.42155 0
-0.326113 -4.57054 0
-0.796868 -4.85451 0
1.82251 -4.71634 0
-0.400648 -4.90099 0
-0.446946 -4.9114 0
-0.0131969 -4.91746 0
0.315976 -4.91749 0
0.430018 -4.91844 0
0.496371 -4.92995 0
0.400095 -4.77271 0
0.285537 -4.62908 0
-0.374006 -4.76558 0
-1.00042 -5.01287 0
1.50686 -4.98972 0
-0.442294 -5.17913 0
-0.471062 -5.16436 0
-0.0706747 -5.13836 0
0.244066 -5.11124 0
0.366875 -5.09116 0
0.442183 -5.06334 0
0.32826 -4.97895 0
0.182 -4.85128 0
-0.42657 -4.96819 0
-1.072 -5.18218 0
1.12057 -5.42585 0
-0.470949 -5.5805 0
-0.481349 -5.54831 0
-0.13778 -5.50017 0
0.152832 -5.45238 0
0.286393 -5.41205 0
0.37895 -5.35196 0
0.246085 -5.31328 0
0.0727255 -5.19119 0
-0.491609 -5.25988 0
-1.11318 -5.40893 0
0.731232 -6.19298 0
-0.514867 -6.26859 0
-0.513478 -6.20912 0
-0.241441 -6.13448 0
0.0156507 -6.05827 0
0.162084 -5.98828 0
0.282183 -5.89209 0
0.16089 -5.87281 0
-0.0121605 -5.76431 0
-0.556882 -5.76535 0
-1.1703 -5.81519 0
0.29008 -7.48476 0
-0.624131 -7.45653 0
-0.610733 -7.36744 0
-0.425901 -7.26041 0
-0.216268 -7.11694 0
-0.0507991 -7.00663 0
0.121997 -6.82643 0
0.0408335 -6.80818 0
-0.0974516 -6.73624 0
-0.623846 -6.63965 0
-1.23185 -6.55463 0
SCALARS mass double 1
LOOKUP_TABLE default
2.67769
2.67769
2.67769
2.67769
2.67769
2.67769
2.67769
2.67769
2.67769
2.67769
2.67769
2.67769
2.67769
2.67769
2.67769
2.67769
2.67769
2.67769
2.67769
2.67769
2.67769
2.67769
2.67769
2.67769
2.67769
2.67769
2.67769
2.67769
2.67769
2.67769
2.67769
2.67769
2.67769
2.67769
2.67769
2.67769
2.67769
2.67769
2.67769
2.67769
2.67769
2.67769
2.67769
2.67769
2.67769
2.67769
2.67769
2.67769
2.67769
2.67769
2.67769
2.67769
2.67769
2.67769
2.67769
2.67769
2.67769
2.67769
2.67769
2.67769
2.67769
2.67769
2.67769
2.67769
2.67769
2.67769
2.67769
2.67769
2.67769
2.67769
2.67769
2.67769
2.67769
2.67769
2.67769
2.67769
2.67769
2.67769
2.67769
2.67769
2.67769
2.67769
2.67769
2.67769
2.67769
2.67769
2.67769
2.67769
2.67769
2.67769
2.67769
2.67769
2.67769
2.67769
2.67769
2.67769
2.67769
2.67769
2.67769
2.67769
2.67769
2.67769
2.67769
2.67769
2.67769
2.67769
2.67769
2.67769
2.67769
2.67769
2.67769
2.67769
2.67769
2.67769
2.67769
2.67769
2.67769
2.67769
2.67769
2.67769
2.67769
SCALARS volume double 1
LOOKUP_TABLE default
7.7695e-13
2.57178e-13
7.31788e-14
2.92435e-14
8.19163e-14
2.30174e-11
4.00579e-09
3.17255e-07
1.38333e-05
8.20105e-06
1.0234e-06
8.67362e-13
2.06825e-13
4.23108e-14
2.07071e-14
7.57448e-14
2.7722e-11
3.5773e-09
1.28436e-07
1.80463e-06
9.26087e-07
3.0504e-07
3.89594e-13
6.4359e-14
1.67596e-14
9.95198e-15
4.7621e-14
2.20341e-11
2.09413e-09
4.45415e-08
3.48461e-07
1.68229e-07
5.63396e-08
3.35034e-13
4.94758e-14
1.37831e-14
8.64352e-15
5.20995e-14
2.42816e-11
1.66546e-09
2.25401e-08
1.40106e-07
8.8269e-08
3.32095e-08
3.65366e-13
4.95315e-14
1.45493e-14
9.49845e-15
7.28219e-14
3.11215e-11
1.5059e-09
1.3432e-08
6.1876e-08
6.41935e-08
2.61386e-08
5.43158e-13
6.61871e-14
2.04037e-14
1.35939e-14
1.29468e-13
4.60256e-11
1.4954e-09
8.61956e-09
2.76851e-08
4.6597e-08
3.16564e-08
7.36631e-13
8.17161e-14
2.5378e-14
1.71759e-14
1.63044e-13
4.18065e-11
1.04431e-09
4.56938e-09
1.19326e-08
2.285e-08
2.5496e-08
8.67466e-13
9.24568e-14
2.88828e-14
1.91956e-14
1.40746e-13
2.52451e-11
6.1058e-10
2.5572e-09
6.25904e-09
1.17901e-08
1.80343e-08
8.98997e-13
9.95103e-14
3.06343e-14
2.01872e-14
9.92075e-14
1.34941e-11
3.79141e-10
1.63516e-09
4.11599e-09
7.88038e-09
1.4036e-08
9.14158e-13
1.1288e-13
3.30491e-14
2.19647e-14
7.09733e-14
7.99772e-12
2.69365e-10
1.1983e-09
3.29313e-09
6.28304e-09
1.2206e-08
9.46474e-13
1.28007e-13
3.69107e-14
2.42743e-14
5.15435e-14
2.76233e-12
1.87736e-10
9.21503e-10
2.76011e-09
5.40128e-09
1.07442e-08
TENSORS stress double
5076.67 42288.5 0
42288.5 1391.11 0
0 0 0
5076.67 131884 0
131884 1063.05 0
0 0 0
5076.67 129362 0
129362 564.783 0
0 0 0
5076.67 68070.1 0
68070.1 -13.4116 0
0 0 0
5076.67 -4308.16 0
-4308.16 716.87 0
0 0 0
5076.67 -109676 0
-109676 4959.52 0
0 0 0
5076.67 -206455 0
-206455 8522.05 0
0 0 0
5076.63 -279829 0
-279829 9588.65 0
0 0 0
5073.93 -335132 0
-335132 10547.9 0
0 0 0
5070.96 -287025 0
-287025 10189.2 0
0 0 0
5075.13 -242624 0
-242624 9727.93 0
0 0 0
5076.67 48472.3 0
48472.3 1342.3 0
0 0 0
5076.67 155260 0
155260 916.625 0
0 0 0
5076.67 107291 0
107291 367.68 0
0 0 0
5076.67 58113.4 0
58113.4 -82.7402 0
0 0 0
5076.67 -3016.12 0
-3016.12 624.151 0
0 0 0
5076.67 -113383 0
-113383 5065.74 0
0 0 0
5076.67 -204973 0
-204973 8533.89 0
0 0 0
5076.61 -265712 0
-265712 9402.13 0
0 0 0
5075.01 -305120 0
-305120 10145.3 0
0 0 0
5074.03 -247856 0
-247856 10102.9 0
0 0 0
5075.01 -216444 0
-216444 9872 0
0 0 0
5076.67 52281.6 0
52281.6 1298.01 0
0 0 0
5076.67 126940 0
126940 695.927 0
0 0 0
5076.67 85820.1 0
85820.1 242.813 0
0 0 0
5076.67 49617.3 0
49617.3 -129.411 0
0 0 0
5076.67 -435.174 0
-435.174 560.359 0
0 0 0
5076.67 -116646 0
-116646 5159.31 0
0 0 0
5076.67 -203297 0
-203297 8526.21 0
0 0 0
5076.62 -254821 0
-254821 9245.74 0
0 0 0
5075.85 -287141 0
-287141 9856.52 0
0 0 0
5075.37 -232885 0
-232885 9897 0
0 0 0
5075.57 -184151 0
-184151 9783.35 0
0 0 0
5076.67 55881.8 0
55881.8 1285.17 0
0 0 0
5076.67 120563 0
120563 635.055 0
0 0 0
5076.67 81653.5 0
81653.5 200.588 0
0 0 0
5076.67 48570.7 0
48570.7 -154.089 0
0 0 0
5076.67 -644.003 0
-644.003 643.407 0
0 0 0
5076.67 -118338 0
-118338 5226.72 0
0 0 0
5076.67 -198587 0
-198587 8495.81 0
0 0 0
5076.63 -243651 0
-243651 9106.61 0
0 0 0
5076.25 -279879 0
-279879 9624.32 0
0 0 0
5075.88 -237794 0
-237794 9733.81 0
0 0 0
5075.89 -187184 0
-187184 9672.16 0
0 0 0
5076.67 59876.6 0
59876.6 1274.43 0
0 0 0
5076.67 116550 0
116550 587.046 0
0 0 0
5076.67 79208.1 0
79208.1 165.272 0
0 0 0
5076.67 47986.5 0
47986.5 -177.751 0
0 0 0
5076.67 -2208.2 0
-2208.2 756.966 0
0 0 0
5076.67 -119223 0
-119223 5264.74 0
0 0 0
5076.67 -192655 0
-192655 8449.52 0
0 0 0
5076.64 -230665 0
-230665 8961.48 0
0 0 0
5076.47 -265182 0
-265182 9393.65 0
0 0 0
5076.19 -249069 0
-249069 9569.39 0
0 0 0
5076.1 -191867 0
-191867 9568.11 0
0 0 0
5076.67 63671.3 0
63671.3 1263.35 0
0 0 0
5076.67 111820 0
111820 540.352 0
0 0 0
5076.67 75534 0
75534 130.003 0
0 0 0
5076.67 46763.2 0
46763.2 -202.204 0
0 0 0
5076.67 -4176.09 0
-4176.09 868.723 0
0 0 0
5076.67 -118328 0
-118328 5214.9 0
0 0 0
5076.67 -185243 0
-185243 8369.14 0
0 0 0
5076.65 -213651 0
-213651 8787.02 0
0 0 0
5076.58 -240118 0
-240118 9140.43 0
0 0 0
5076.43 -248753 0
-248753 9347.95 0
0 0 0
5076.29 -209054 0
-209054 9429.84 0
0 0 0
5076.67 65703.2 0
65703.2 1255.76 0
0 0 0
5076.67 105813 0
105813 510.662 0
0 0 0
5076.67 71929.8 0
71929.8 108.749 0
0 0 0
5076.67 45702.3 0
45702.3 -215.207 0
0 0 0
5076.67 -3385.43 0
-3385.43 869.103 0
0 0 0
5076.67 -111307 0
-111307 4949.73 0
0 0 0
5076.65 -175964 0
-175964 8139.08 0
0 0 0
5076.66 -196111 0
-196111 8604.95 0
0 0 0
5076.62 -215086 0
-215086 8912.56 0
0 0 0
5076.55 -230636 0
-230636 9113.86 0
0 0 0
5076.44 -211241 0
-211241 9257.43 0
0 0 0
5076.67 64775 0
64775 1256.81 0
0 0 0
5076.67 102856 0
102856 514.075 0
0 0 0
5076.67 70415 0
70415 113.892 0
0 0 0
5076.67 46106.5 0
46106.5 -208.012 0
0 0 0
5076.67 1455.55 0
1455.55 726.754 0
0 0 0
5076.67 -98785.7 0
-98785.7 4531.87 0
0 0 0
5076.66 -167283 0
-167283 7667.76 0
0 0 0
5076.67 -181616 0
-181616 8455.95 0
0 0 0
5076.64 -196764 0
-196764 8750.56 0
0 0 0
5076.6 -210271 0
-210271 8946.77 0
0 0 0
5076.51 -204052 0
-204052 9113.52 0
0 0 0
5076.67 62038.8 0
62038.8 1265.01 0
0 0 0
5076.67 102748 0
102748 542.185 0
0 0 0
5076.67 71554.6 0
71554.6 137.832 0
0 0 0
5076.67 47719.7 0
47719.7 -186.666 0
0 0 0
5076.67 8502.09 0
8502.09 506.838 0
0 0 0
5076.67 -85248 0
-85248 4102.34 0
0 0 0
5076.66 -160178 0
-160178 7227.64 0
0 0 0
5076.67 -171698 0
-171698 8346.71 0
0 0 0
5076.65 -185260 0
-185260 8644.79 0
0 0 0
5076.61 -196755 0
-196755 8844.98 0
0 0 0
5076.54 -198775 0
-198775 9020.98 0
0 0 0
5076.67 59749 0
59749 1274.58 0
0 0 0
5076.67 104015 0
104015 575.944 0
0 0 0
5076.67 74333.3 0
74333.3 166.602 0
0 0 0
5076.67 49930.8 0
49930.8 -160.282 0
0 0 0
5076.67 16087.7 0
16087.7 262.886 0
0 0 0
5076.67 -72948.2 0
-72948.2 3712.64 0
0 0 0
5076.67 -154863 0
-154863 6814.33 0
0 0 0
5076.63 -164627 0
-164627 8185.83 0
0 0 0
5076.65 -177654 0
-177654 8567.6 0
0 0 0
5076.62 -189491 0
-189491 8773.39 0
0 0 0
5076.55 -197361 0
-197361 8955 0
0 0 0
5076.67 57511.5 0
57511.5 1283.59 0
0 0 0
5076.67 105005 0
105005 609.765 0
0 0 0
5076.67 75393.8 0
75393.8 196.692 0
0 0 0
5076.67 51605.1 0
51605.1 -130.538 0
0 0 0
5076.67 23697.2 0
23697.2 -3.33039 0
0 0 0
5076.67 -62976.1 0
-62976.1 3341.38 0
0 0 0
5076.67 -144383 0
-144383 6406.07 0
0 0 0
5076.64 -159535 0
-159535 7904.89 0
0 0 0
5076.65 -172158 0
-172158 8499.29 0
0 0 0
5076.62 -183587 0
-183587 8709.48 0
0 0 0
5076.56 -193551 0
-193551 8892.62 0
0 0 0
TENSORS strain double
0.129853 0.422885 0
0.422885 -20.1197 0
0 0 0
0.120967 1.31884 0
1.31884 -21.1487 0
0 0 0
-0.123147 1.29362 0
1.29362 -22.0888 0
0 0 0
-0.118155 0.680701 0
0.680701 -22.9425 0
0 0 0
0.0234034 -0.0430816 0
-0.0430816 -22.1363 0
0 0 0
0.0229906 -1.09676 0
-1.09676 -16.8741 0
0 0 0
-0.0868229 -2.06455 0
-2.06455 -11.8178 0
0 0 0
-0.0930919 -2.79829 0
-2.79829 -7.56465 0
0 0 0
-0.418156 -3.35132 0
-3.35132 -3.51987 0
0 0 0
-1.65552 -2.87025 0
-2.87025 -2.79468 0
0 0 0
-2.40636 -2.42624 0
-2.42624 -4.06968 0
0 0 0
0.387777 0.484723 0
0.484723 -20.2612 0
0 0 0
0.319544 1.5526 0
1.5526 -21.5379 0
0 0 0
-0.367003 1.07291 0
1.07291 -22.3657 0
0 0 0
-0.353705 0.581134 0
0.581134 -23.0396 0
0 0 0
0.070227 -0.0301612 0
-0.0301612 -22.2512 0
0 0 0
0.068942 -1.13383 0
-1.13383 -16.7414 0
0 0 0
-0.261315 -2.04973 0
-2.04973 -11.7543 0
0 0 0
-0.276148 -2.65712 0
-2.65712 -8.26591 0
0 0 0
-0.847535 -3.0512 0
-3.0512 -5.10662 0
0 0 0
-1.94883 -2.47856 0
-2.47856 -4.64901 0
0 0 0
-2.57125 -2.16444 0
-2.16444 -5.10716 0
0 0 0
0.575677 0.522816 0
0.522816 -21.2391 0
0 0 0
0.14753 1.2694 0
1.2694 -22.4967 0
0 0 0
-0.554406 0.858201 0
0.858201 -23.0797 0
0 0 0
-0.53901 0.496173 0
0.496173 -23.5724 0
0 0 0
0.105981 -0.00435174 0
-0.00435174 -22.7417 0
0 0 0
0.104174 -1.16646 0
-1.16646 -17.0105 0
0 0 0
-0.422397 -2.03297 0
-2.03297 -12.1213 0
0 0 0
-0.44431 -2.54821 0
-2.54821 -9.13579 0
0 0 0
-1.07786 -2.87141 0
-2.87141 -6.49454 0
0 0 0
-2.01079 -2.32885 0
-2.32885 -6.2675 0
0 0 0
-2.58274 -1.84151 0
-1.84151 -6.75354 0
0 0 0
0.624235 0.558818 0
0.558818 -21.4356 0
0 0 0
0.0908804 1.20563 0
1.20563 -22.6932 0
0 0 0
-0.604422 0.816535 0
0.816535 -23.2169 0
0 0 0
-0.592859 0.485707 0
0.485707 -23.6537 0
0 0 0
0.102789 -0.00644003 0
-0.00644003 -22.6574 0
0 0 0
0.101482 -1.18338 0
-1.18338 -16.9151 0
0 0 0
-0.560622 -1.98587 0
-1.98587 -12.2047 0
0 0 0
-0.592492 -2.43651 0
-2.43651 -9.65057 0
0 0 0
-1.06223 -2.79879 0
-2.79879 -7.40325 0
0 0 0
-1.90352 -2.37794 0
-2.37794 -7.00895 0
0 0 0
-2.47802 -1.87184 0
-1.87184 -7.37522 0
0 0 0
0.663164 0.598766 0
0.598766 -21.3864 0
0 0 0
0.0443083 1.1655 0
1.1655 -22.6385 0
0 0 0
-0.641268 0.792081 0
0.792081 -23.1211 0
0 0 0
-0.633226 0.479865 0
0.479865 -23.5159 0
0 0 0
0.0862955 -0.022082 0
-0.022082 -22.3193 0
0 0 0
0.0849986 -1.19223 0
-1.19223 -16.654 0
0 0 0
-0.709097 -1.92655 0
-1.92655 -12.1489 0
0 0 0
-0.750127 -2.30665 0
-2.30665 -9.99216 0
0 0 0
-1.13267 -2.65182 0
-2.65182 -8.12933 0
0 0 0
-1.73499 -2.49069 0
-2.49069 -7.4913 0
0 0 0
-2.3863 -1.91867 0
-1.91867 -7.69908 0
0 0 0
0.701787 0.636713 0
0.636713 -21.0289 0
0 0 0
-0.011337 1.1182 0
1.1182 -22.2871 0
0 0 0
-0.677616 0.75534 0
0.75534 -22.7455 0
0 0 0
-0.674014 0.467632 0
0.467632 -23.117 0
0 0 0
0.0511967 -0.0417609 0
-0.0417609 -21.7236 0
0 0 0
0.0487195 -1.18328 0
-1.18328 -16.2263 0
0 0 0
-0.882831 -1.85243 0
-1.85243 -11.9715 0
0 0 0
-0.9285 -2.13651 0
-2.13651 -10.2363 0
0 0 0
-1.28386 -2.40118 0
-2.40118 -8.75727 0
0 0 0
-1.5966 -2.48753 0
-2.48753 -7.94075 0
0 0 0
-2.10652 -2.09054 0
-2.09054 -7.79921 0
0 0 0
0.727448 0.657032 0
0.657032 -20.7514 0
0 0 0
-0.034854 1.05813 0
1.05813 -22.0493 0
0 0 0
-0.70429 0.719298 0
0.719298 -22.5004 0
0 0 0
-0.704363 0.457023 0
0.457023 -22.8535 0
0 0 0
-0.00697121 -0.0338543 0
-0.0338543 -21.437 0
0 0 0
-0.012388 -1.11307 0
-1.11307 -16.2461 0
0 0 0
-1.01539 -1.75964 0
-1.75964 -12.1802 0
0 0 0
-1.06862 -1.96111 0
-1.96111 -10.7058 0
0 0 0
-1.39941 -2.15086 0
-2.15086 -9.45549 0
0 0 0
-1.58473 -2.30636 0
-2.30636 -8.6432 0
0 0 0
-1.91845 -2.11241 0
-2.11241 -8.20004 0
0 0 0
0.723962 0.64775 0
0.64775 -20.5876 0
0 0 0
-0.0447554 1.02856 0
1.02856 -21.9173 0
0 0 0
-0.708174 0.70415 0
0.70415 -22.3694 0
0 0 0
-0.709818 0.461065 0
0.461065 -22.7391 0
0 0 0
-0.0695889 0.0145555 0
0.0145555 -21.5078 0
0 0 0
-0.0781111 -0.987857 0
-0.987857 -16.6573 0
0 0 0
-1.0252 -1.67283 0
-1.67283 -12.6895 0
0 0 0
-1.12894 -1.81616 0
-1.81616 -11.2044 0
0 0 0
-1.42849 -1.96764 0
-1.96764 -10.0497 0
0 0 0
-1.60279 -2.10271 0
-2.10271 -9.26549 0
0 0 0
-1.79297 -2.04052 0
-2.04052 -8.66123 0
0 0 0
0.696173 0.620388 0
0.620388 -20.5286 0
0 0 0
-0.0317138 1.02748 0
1.02748 -21.8627 0
0 0 0
-0.696878 0.715546 0
0.715546 -22.326 0
0 0 0
-0.699304 0.477197 0
0.477197 -22.7031 0
0 0 0
-0.119766 0.0850209 0
0.0850209 -21.7845 0
0 0 0
-0.13028 -0.85248 0
-0.85248 -17.2009 0
0 0 0
-0.948689 -1.60178 0
-1.60178 -13.2282 0
0 0 0
-1.12965 -1.71698 0
-1.71698 -11.6349 0
0 0 0
-1.40373 -1.8526 0
-1.8526 -10.4795 0
0 0 0
-1.57603 -1.96755 0
-1.96755 -9.68201 0
0 0 0
-1.68137 -1.98775 0
-1.98775 -9.01585 0
0 0 0
0.662719 0.59749 0
0.59749 -20.4824 0
0 0 0
0.00308114 1.04015 0
1.04015 -21.779 0
0 0 0
-0.686538 0.743333 0
0.743333 -22.2649 0
0 0 0
-0.689545 0.499308 0
0.499308 -22.6334 0
0 0 0
-0.155684 0.160877 0
0.160877 -22.0576 0
0 0 0
-0.167488 -0.729482 0
-0.729482 -17.6578 0
0 0 0
-0.803873 -1.54863 0
-1.54863 -13.7012 0
0 0 0
-1.10247 -1.64627 0
-1.64627 -11.9615 0
0 0 0
-1.36497 -1.77654 0
-1.77654 -10.7328 0
0 0 0
-1.54533 -1.89491 0
-1.89491 -9.93116 0
0 0 0
-1.61662 -1.97361 0
-1.97361 -9.2157 0
0 0 0
0.630158 0.575115 0
0.575115 -20.4185 0
0 0 0
0.0332664 1.05005 0
1.05005 -21.6903 0
0 0 0
-0.681232 0.753938 0
0.753938 -22.1653 0
0 0 0
-0.683716 0.516051 0
0.516051 -22.5444 0
0 0 0
-0.180891 0.236972 0
0.236972 -22.3232 0
0 0 0
-0.193533 -0.629761 0
-0.629761 -18.5024 0
0 0 0
-0.702665 -1.44383 0
-1.44383 -14.146 0
0 0 0
-1.05225 -1.59535 0
-1.59535 -12.2657 0
0 0 0
-1.33598 -1.72158 0
-1.72158 -10.9307 0
0 0 0
-1.52519 -1.83587 0
-1.83587 -10.0965 0
0 0 0
-1.58419 -1.93551 0
-1.93551 -9.37131 0
0 0 0
