# vtk DataFile Version 3.0
MPM2D particles
ASCII
DATASET POLYDATA
POINTS 121 double
0.0126523 0.0123661 0
0.0379565 0.0123432 0
0.0630105 0.0123226 0
0.0877004 0.0123053 0
0.1125 0.0122918 0
0.137567 0.0122877 0
0.162615 0.0122736 0
0.187581 0.0122161 0
0.212444 0.012176 0
0.23613 0.0123302 0
0.259805 0.0124863 0
0.0129621 0.0370978 0
0.0388855 0.037028 0
0.0640132 0.0369664 0
0.0880939 0.0369153 0
0.112499 0.0368754 0
0.137701 0.0368631 0
0.162844 0.0368199 0
0.187743 0.0366475 0
0.212334 0.0365273 0
0.233587 0.0369587 0
0.254815 0.0373946 0
0.0131376 0.0607697 0
0.0394129 0.0606949 0
0.0645646 0.0606293 0
0.0883152 0.0605747 0
0.112506 0.0605319 0
0.137781 0.0605185 0
0.162972 0.0604715 0
0.187811 0.0602864 0
0.212234 0.0601564 0
0.232248 0.0606088 0
0.252267 0.0610552 0
0.0130853 0.0827159 0
0.039256 0.0826982 0
0.0644073 0.0826822 0
0.0882661 0.0826681 0
0.112526 0.0826569 0
0.137773 0.0826531 0
0.162931 0.0826414 0
0.187728 0.0825978 0
0.212154 0.0825685 0
0.232563 0.0826962 0
0.252972 0.0828224 0
0.0130307 0.105096 0
0.039092 0.105132 0
0.0642409 0.105163 0
0.0882126 0.105187 0
0.112544 0.105206 0
0.137761 0.105212 0
0.162889 0.105233 0
0.187651 0.10532 0
0.212087 0.105385 0
0.23291 0.105204 0
0.25373 0.105023 0
0.0129602 0.129967 0
0.0388803 0.13001 0
0.0640199 0.130048 0
0.0881296 0.13008 0
0.112549 0.130105 0
0.137729 0.130116 0
0.162836 0.130144 0
0.187638 0.130242 0
0.212151 0.130314 0
0.233451 0.130099 0
0.254748 0.129884 0
0.0128899 0.154824 0
0.0386697 0.154873 0
0.0637976 0.154918 0
0.088046 0.154957 0
0.112554 0.154989 0
0.137697 0.155005 0
0.162782 0.155039 0
0.187623 0.155148 0
0.212214 0.155227 0
0.234003 0.154979 0
0.255789 0.154732 0
0.0128186 0.179372 0
0.0384556 0.179418 0
0.0635676 0.179459 0
0.0879546 0.179496 0
0.112551 0.179526 0
0.137662 0.179543 0
0.162728 0.179577 0
0.187602 0.179684 0
0.212268 0.179762 0
0.234589 0.17952 0
0.256906 0.179279 0
0.0127478 0.203905 0
0.0382432 0.203946 0
0.0633368 0.203984 0
0.0878627 0.204018 0
0.112549 0.204047 0
0.137628 0.204063 0
0.162675 0.204097 0
0.187581 0.204201 0
0.212322 0.204278 0
0.235185 0.204044 0
0.258045 0.203809 0
0.0127041 0.227935 0
0.0381121 0.227972 0
0.0631938 0.228006 0
0.0878076 0.228038 0
0.11255 0.228064 0
0.137609 0.228078 0
0.16264 0.228106 0
0.187555 0.228194 0
0.212334 0.228257 0
0.235549 0.228037 0
0.258763 0.227818 0
0.0126634 0.251958 0
0.0379902 0.251991 0
0.0630599 0.252023 0
0.0877563 0.252052 0
0.112552 0.252076 0
0.137591 0.252087 0
0.162608 0.252108 0
0.187528 0.252179 0
0.21234 0.252227 0
0.235893 0.252023 0
0.259444 0.251819 0
VERTICES 121 242
1 0
1 1
1 2
1 3
1 4
1 5
1 6
1 7
1 8
1 9
1 10
1 11
1 12
1 13
1 14
1 15
1 16
1 17
1 18
1 19
1 20
1 21
1 22
1 23
1 24
1 25
1 26
1 27
1 28
1 29
1 30
1 31
1 32
1 33
1 34
1 35
1 36
1 37
1 38
1 39
1 40
1 41
1 42
1 43
1 44
1 45
1 46
1 47
1 48
1 49
1 50
1 51
1 52
1 53
1 54
1 55
1 56
1 57
1 58
1 59
1 60
1 61
1 62
1 63
1 64
1 65
1 66
1 67
1 68
1 69
1 70
1 71
1 72
1 73
1 74
1 75
1 76
1 77
1 78
1 79
1 80
1 81
1 82
1 83
1 84
1 85
1 86
1 87
1 88
1 89
1 90
1 91
1 92
1 93
1 94
1 95
1 96
1 97
1 98
1 99
1 100
1 101
1 102
1 103
1 104
1 105
1 106
1 107
1 108
1 109
1 110
1 111
1 112
1 113
1 114
1 115
1 116
1 117
1 118
1 119
1 120
POINT_DATA 121
VECTORS velocity double
1.06477 1.74268 0
0.448076 1.69563 0
0.0709574 1.65681 0
0.0493216 1.62989 0
0.0313257 1.61837 0
0.0223202 1.64474 0
0.0326268 1.63584 0
0.127812 1.47346 0
0.139641 1.34904 0
-0.798022 1.65601 0
-1.73434 1.96217 0
0.925938 0.333144 0
0.321101 0.307752 0
-0.0232049 0.287152 0
-0.00809791 0.272742 0
0.00111968 0.266346 0
-0.00406381 0.279758 0
0.0164753 0.274788 0
0.147302 0.192307 0
0.213948 0.129337 0
-0.41969 0.278916 0
-1.04987 0.426419 0
0.816129 -0.518246 0
0.242651 -0.527123 0
-0.0695348 -0.534473 0
-0.0366031 -0.539937 0
-0.0138111 -0.542898 0
-0.0161003 -0.539662 0
0.00899926 -0.541775 0
0.149973 -0.566172 0
0.239986 -0.584418 0
-0.225176 -0.537023 0
-0.690947 -0.490393 0
0.754384 -0.474811 0
0.244359 -0.473462 0
-0.0386909 -0.472614 0
-0.0177748 -0.472389 0
-0.00318082 -0.472724 0
-0.00417039 -0.474429 0
0.0154886 -0.474788 0
0.123218 -0.469546 0
0.182462 -0.465376 0
-0.291893 -0.472558 0
-0.766405 -0.47993 0
0.688571 -0.436369 0
0.242042 -0.426139 0
-0.0109888 -0.418116 0
-0.00104709 -0.412884 0
0.00605432 -0.410874 0
0.00618089 -0.416778 0
0.0208287 -0.415732 0
0.0981438 -0.385619 0
0.129977 -0.362513 0
-0.34538 -0.417142 0
-0.820875 -0.471805 0
0.59361 -0.506986 0
0.211592 -0.496268 0
-0.00707617 -0.487697 0
4.74514e-05 -0.481892 0
0.00478806 -0.47922 0
0.00368572 -0.484238 0
0.015919 -0.482619 0
0.0857693 -0.453066 0
0.115744 -0.430179 0
-0.300817 -0.481451 0
-0.717545 -0.532764 0
0.498356 -0.579699 0
0.180816 -0.568551 0
-0.00298055 -0.559485 0
0.00126312 -0.553155 0
0.0035998 -0.549861 0
0.00126979 -0.554011 0
0.0110433 -0.551814 0
0.0731876 -0.522717 0
0.101088 -0.499916 0
-0.255989 -0.54742 0
-0.613221 -0.594978 0
0.400209 -0.595489 0
0.148234 -0.585628 0
0.000772071 -0.57742 0
0.00268335 -0.571452 0
0.00338996 -0.568276 0
0.00114776 -0.571943 0
0.00863477 -0.569731 0
0.0583837 -0.542366 0
0.0800676 -0.521044 0
-0.215505 -0.567337 0
-0.511328 -0.613644 0
0.302409 -0.609469 0
0.115336 -0.601154 0
0.00438965 -0.594035 0
0.00403613 -0.588595 0
0.00318257 -0.585675 0
0.00110828 -0.588923 0
0.00638151 -0.58685 0
0.0437055 -0.561781 0
0.059146 -0.542376 0
-0.174179 -0.586759 0
-0.407744 -0.631155 0
0.23044 -0.666992 0
0.0913925 -0.659805 0
0.00778949 -0.653534 0
0.00553684 -0.648577 0
0.00328803 -0.645929 0
0.00105349 -0.648937 0
0.00463568 -0.647592 0
0.0336363 -0.627352 0
0.0450578 -0.611933 0
-0.145172 -0.65155 0
-0.335506 -0.691207 0
0.160575 -0.730083 0
0.0681712 -0.723876 0
0.0113366 -0.718363 0
0.0071552 -0.71386 0
0.00345803 -0.711469 0
0.000950899 -0.714241 0
0.00282851 -0.713551 0
0.0238854 -0.697774 0
0.0314632 -0.686003 0
-0.117116 -0.72058 0
-0.265793 -0.755192 0
SCALARS mass double 1
LOOKUP_TABLE default
2.67769
2.67769
2.67769
2.67769
2.67769
2.67769
2.67769
2.67769
2.67769
2.67769
2.67769
2.67769
2.67769
2.67769
2.67769
2.67769
2.67769
2.67769
2.67769
2.67769
2.67769
2.67769
2.67769
2.67769
2.67769
2.67769
2.67769
2.67769
2.67769
2.67769
2.67769
2.67769
2.67769
2.67769
2.67769
2.67769
2.67769
2.67769
2.67769
2.67769
2.67769
2.67769
2.67769
2.67769
2.67769
2.67769
2.67769
2.67769
2.67769
2.67769
2.67769
2.67769
2.67769
2.67769
2.67769
2.67769
2.67769
2.67769
2.67769
2.67769
2.67769
2.67769
2.67769
2.67769
2.67769
2.67769
2.67769
2.67769
2.67769
2.67769
2.67769
2.67769
2.67769
2.67769
2.67769
2.67769
2.67769
2.67769
2.67769
2.67769
2.67769
2.67769
2.67769
2.67769
2.67769
2.67769
2.67769
2.67769
2.67769
2.67769
2.67769
2.67769
2.67769
2.67769
2.67769
2.67769
2.67769
2.67769
2.67769
2.67769
2.67769
2.67769
2.67769
2.67769
2.67769
2.67769
2.67769
2.67769
2.67769
2.67769
2.67769
2.67769
2.67769
2.67769
2.67769
2.67769
2.67769
2.67769
2.67769
2.67769
2.67769
SCALARS volume double 1
LOOKUP_TABLE default
0.000744802
0.000743418
0.000724149
0.000723133
0.00073338
0.000733138
0.000729342
0.000725927
0.000686535
0.000695114
0.00070379
0.000763037
0.000761588
0.000706251
0.000705282
0.00073733
0.000737086
0.000727344
0.000723946
0.000616209
0.000623174
0.000630208
0.000686444
0.000688228
0.000623152
0.000624297
0.000665563
0.000665851
0.00065534
0.000659527
0.000533249
0.00052546
0.000517778
0.000683697
0.000685466
0.000626002
0.000627158
0.000664794
0.000665081
0.000654196
0.000658369
0.000543852
0.000535767
0.000527795
0.000771393
0.00077161
0.000709925
0.000710131
0.000747221
0.000747379
0.000734082
0.000734414
0.000617778
0.000616976
0.000616175
0.000767214
0.000767429
0.000714012
0.00071422
0.000746126
0.000746284
0.000735267
0.0007356
0.000631953
0.000631116
0.00063028
0.000753781
0.000753876
0.000709151
0.000709252
0.000735543
0.000735649
0.000726961
0.000727244
0.000638077
0.000637813
0.000637549
0.00074908
0.000748939
0.000712278
0.000712201
0.000733308
0.000733317
0.00072638
0.000726312
0.000651712
0.00065194
0.000652168
0.000732504
0.000732373
0.000704382
0.000704311
0.000720175
0.000720184
0.000715202
0.000715163
0.000655332
0.00065667
0.000656874
0.000726428
0.000726325
0.0007035
0.000703431
0.000716079
0.000715979
0.00071169
0.000711169
0.000662201
0.000662664
0.000663127
0.0007241
0.000723997
0.000705863
0.000705794
0.000715517
0.000715417
0.000711855
0.000711333
0.000671837
0.000672313
0.000672789
TENSORS stress double
4932.74 567.439 0
567.439 9678.61 0
0 0 0
4932.97 1793.56 0
1793.56 9656.29 0
0 0 0
4780.07 2022.5 0
2022.5 9636.12 0
0 0 0
4780.43 772.978 0
772.978 9618.96 0
0 0 0
4877.15 -9.78362 0
-9.78362 9605.39 0
0 0 0
4877.21 261.378 0
261.378 9600.63 0
0 0 0
4840.67 348.098 0
348.098 9588.4 0
0 0 0
4841.67 210.893 0
210.893 9544.04 0
0 0 0
4570.64 93.0265 0
93.0265 9514.02 0
0 0 0
4564.93 -5198.93 0
-5198.93 9646.58 0
0 0 0
4559.16 -10490.4 0
-10490.4 9779.04 0
0 0 0
4644.87 483.409 0
483.409 8804.59 0
0 0 0
4645.58 1723.95 0
1723.95 8783.18 0
0 0 0
4186.89 1927.6 0
1927.6 8764.4 0
0 0 0
4187.96 692.915 0
692.915 8748.7 0
0 0 0
4478.1 -25.9729 0
-25.9729 8736.21 0
0 0 0
4478.27 245.89 0
245.89 8731.67 0
0 0 0
4368.68 114.875 0
114.875 8719.98 0
0 0 0
4371.67 -21.6578 0
-21.6578 8679.39 0
0 0 0
3558.57 736.115 0
736.115 8651.68 0
0 0 0
3542.55 -4288.52 0
-4288.52 8762.07 0
0 0 0
3526.38 -9311.87 0
-9311.87 8872.22 0
0 0 0
4311.76 -258.417 0
-258.417 7211.67 0
0 0 0
4312.97 -475.043 0
-475.043 7245.73 0
0 0 0
3677.34 -457.859 0
-457.859 7274.98 0
0 0 0
3678.12 -222.788 0
-222.788 7298.96 0
0 0 0
4079.03 16.3358 0
16.3358 7317.96 0
0 0 0
4079.24 -45.1925 0
-45.1925 7324.6 0
0 0 0
3918.06 -470.212 0
-470.212 7343.18 0
0 0 0
3921.16 -564.082 0
-564.082 7408.78 0
0 0 0
2791.75 904.267 0
904.267 7454.62 0
0 0 0
2786.37 1818.49 0
1818.49 7291.17 0
0 0 0
2781.05 2732.81 0
2732.81 7127.85 0
0 0 0
3901.43 -143.194 0
-143.194 6430.36 0
0 0 0
3901.7 -359.258 0
-359.258 6462.53 0
0 0 0
3311.13 -371.844 0
-371.844 6490.27 0
0 0 0
3311.33 -136.181 0
-136.181 6513.07 0
0 0 0
3678.02 35.9018 0
35.9018 6531.14 0
0 0 0
3678.07 -25.5882 0
-25.5882 6537.49 0
0 0 0
3503.45 -175.579 0
-175.579 6554.85 0
0 0 0
3504.16 -268.506 0
-268.506 6615.8 0
0 0 0
2492.09 119.22 0
119.22 6659.11 0
0 0 0
2490.61 1047.39 0
1047.39 6503.23 0
0 0 0
2489.14 1975.58 0
1975.58 6347.38 0
0 0 0
3482.9 -67.8343 0
-67.8343 6228.43 0
0 0 0
3482.3 -344.961 0
-344.961 6231.48 0
0 0 0
2937.94 -399.355 0
-399.355 6234.63 0
0 0 0
2937.58 -118.601 0
-118.601 6237.86 0
0 0 0
3269.28 20.5972 0
20.5972 6240.98 0
0 0 0
3269.19 -52.9959 0
-52.9959 6243.8 0
0 0 0
3081.64 66.669 0
66.669 6246.96 0
0 0 0
3080.29 146.963 0
146.963 6251.38 0
0 0 0
2187.04 -276.07 0
-276.07 6255.29 0
0 0 0
2189.22 760.716 0
760.716 6252.46 0
0 0 0
2191.41 1797.48 0
1797.48 6249.63 0
0 0 0
3011.41 -53.6241 0
-53.6241 5348.34 0
0 0 0
3010.69 -330.026 0
-330.026 5351.16 0
0 0 0
2533.29 -385.86 0
-385.86 5354.08 0
0 0 0
2532.83 -104.337 0
-104.337 5357.12 0
0 0 0
2816.15 31.1334 0
31.1334 5360.05 0
0 0 0
2815.97 -42.4075 0
-42.4075 5362.7 0
0 0 0
2659.43 89.0714 0
89.0714 5365.66 0
0 0 0
2657.93 169.43 0
169.43 5369.75 0
0 0 0
1854.15 -344.432 0
-344.432 5373.43 0
0 0 0
1856.76 703.411 0
703.411 5371.53 0
0 0 0
1859.36 1751.23 0
1751.23 5369.62 0
0 0 0
2540.19 -40.2875 0
-40.2875 4468.74 0
0 0 0
2539.36 -316.738 0
-316.738 4471.34 0
0 0 0
2128.88 -375.005 0
-375.005 4474.05 0
0 0 0
2128.33 -93.9357 0
-93.9357 4476.9 0
0 0 0
2363.29 37.5715 0
37.5715 4479.65 0
0 0 0
2363.04 -34.5823 0
-34.5823 4482.14 0
0 0 0
2237.5 107.819 0
107.819 4484.91 0
0 0 0
2235.84 178.653 0
178.653 4488.71 0
0 0 0
1521.5 -428.278 0
-428.278 4492.16 0
0 0 0
1524.5 664.258 0
664.258 4491.11 0
0 0 0
1527.5 1756.76 0
1756.76 4490.06 0
0 0 0
2071.61 -51.8774 0
-51.8774 3695.96 0
0 0 0
2070.86 -335.288 0
-335.288 3691.71 0
0 0 0
1730.93 -396.228 0
-396.228 3688.19 0
0 0 0
1730.42 -113.004 0
-113.004 3685.6 0
0 0 0
1921.16 28.1919 0
28.1919 3683.49 0
0 0 0
1920.91 -35.5489 0
-35.5489 3682.55 0
0 0 0
1821.53 108.101 0
108.101 3680.25 0
0 0 0
1819.89 173.48 0
173.48 3672.22 0
0 0 0
1212.15 -410.34 0
-410.34 3665.73 0
0 0 0
1214.89 737.645 0
737.645 3676.66 0
0 0 0
1217.63 1885.59 0
1885.59 3687.58 0
0 0 0
1602.97 -47.8053 0
-47.8053 2828.66 0
0 0 0
1602.29 -305.01 0
-305.01 2824.58 0
0 0 0
1333.38 -359.141 0
-359.141 2821.16 0
0 0 0
1332.9 -99.2171 0
-99.2171 2818.64 0
0 0 0
1479.82 32.5955 0
32.5955 2816.57 0
0 0 0
1479.55 -27.186 0
-27.186 2815.62 0
0 0 0
1405.86 113.076 0
113.076 2813.33 0
0 0 0
1404.23 172.06 0
172.06 2805.34 0
0 0 0
904.812 -403.407 0
-403.407 2798.87 0
0 0 0
907.469 637.583 0
637.583 2809.63 0
0 0 0
910.127 1675.16 0
1675.16 2820.4 0
0 0 0
1156.58 -8.89012 0
-8.89012 1933.81 0
0 0 0
1155.98 -174.067 0
-174.067 1930.91 0
0 0 0
930.986 -211.365 0
-211.365 1928.25 0
0 0 0
930.518 -41.3369 0
-41.3369 1925.93 0
0 0 0
1049.74 31.22 0
31.22 1923.77 0
0 0 0
1049.53 -8.97176 0
-8.97176 1922 0
0 0 0
991.125 111.019 0
111.019 1918.97 0
0 0 0
989.729 123.119 0
123.119 1910.52 0
0 0 0
558.433 -450.271 0
-450.271 1903.86 0
0 0 0
561.413 262.429 0
262.429 1917.91 0
0 0 0
564.396 975.118 0
975.118 1931.96 0
0 0 0
714.524 -15.4918 0
-15.4918 1084.16 0
0 0 0
713.981 -180.412 0
-180.412 1081.36 0
0 0 0
524.409 -216.625 0
-216.625 1078.79 0
0 0 0
523.975 -46.3231 0
-46.3231 1076.54 0
0 0 0
620.492 24.4508 0
24.4508 1074.46 0
0 0 0
620.332 -15.7253 0
-15.7253 1072.8 0
0 0 0
574.019 75.3653 0
75.3653 1069.97 0
0 0 0
572.906 87.4779 0
87.4779 1062.1 0
0 0 0
197.94 -413.28 0
-413.28 1055.91 0
0 0 0
200.706 304.373 0
304.373 1069.55 0
0 0 0
203.474 1022.02 0
1022.02 1083.2 0
0 0 0
TENSORS strain double
0.0121099 0.00567439 0
0.00567439 -0.010766 0
0 0 0
0.0121032 0.0179356 0
0.0179356 -0.0126194 0
0 0 0
-0.0124738 0.020225 0
0.020225 -0.0142895 0
0 0 0
-0.0124685 0.00772978 0
0.00772978 -0.0156964 0
0 0 0
0.00268505 -9.78362e-05 0
-9.78362e-05 -0.0167917 0
0 0 0
0.00268482 0.00261378 0
0.00261378 -0.0171212 0
0 0 0
-0.00135604 0.00348098 0
0.00348098 -0.0182672 0
0 0 0
-0.00135192 0.00210893 0
0.00210893 -0.022959 0
0 0 0
-0.0537343 0.000930265 0
0.000930265 -0.0262485 0
0 0 0
-0.0539391 -0.0519893 0
-0.0519893 -0.0136698 0
0 0 0
-0.0541453 -0.104904 0
-0.104904 -0.00109287 0
0 0 0
0.0363296 0.00483409 0
0.00483409 -0.0107806 0
0 0 0
0.0363091 0.0172395 0
0.0172395 -0.0126633 0
0 0 0
-0.0374211 0.019276 0
0.019276 -0.0143269 0
0 0 0
-0.0374054 0.00692915 0
0.00692915 -0.0157113 0
0 0 0
0.00805516 -0.000259729 0
-0.000259729 -0.0167918 0
0 0 0
0.00805446 0.0024589 0
0.0024589 -0.0171225 0
0 0 0
-0.00406806 0.00114875 0
0.00114875 -0.0182945 0
0 0 0
-0.0040557 -0.000216578 0
-0.000216578 -0.022983 0
0 0 0
-0.161203 0.00736115 0
0.00736115 -0.0262633 0
0 0 0
-0.161787 -0.0428852 0
-0.0428852 -0.0145361 0
0 0 0
-0.162374 -0.0931187 0
-0.0931187 -0.00281378 0
0 0 0
0.0498033 -0.00258417 0
-0.00258417 -0.129912 0
0 0 0
0.0498068 -0.00475043 0
-0.00475043 -0.127331 0
0 0 0
-0.05121 -0.00457859 0
-0.00457859 -0.125095 0
0 0 0
-0.0512131 -0.00222788 0
-0.00222788 -0.123271 0
0 0 0
0.0109701 0.000163358 0
0.000163358 -0.121849 0
0 0 0
0.0109702 -0.000451925 0
-0.000451925 -0.121419 0
0 0 0
-0.00643324 -0.00470212 0
-0.00470212 -0.119833 0
0 0 0
-0.00642663 -0.00564082 0
-0.00564082 -0.11351 0
0 0 0
-0.221519 0.00904267 0
0.00904267 -0.109017 0
0 0 0
-0.221407 0.0181849 0
0.0181849 -0.123606 0
0 0 0
-0.221296 0.0273281 0
0.0273281 -0.138195 0
0 0 0
0.0458098 -0.00143194 0
-0.00143194 -0.129916 0
0 0 0
0.0458105 -0.00359258 0
-0.00359258 -0.127342 0
0 0 0
-0.0466721 -0.00371844 0
-0.00371844 -0.125103 0
0 0 0
-0.0466728 -0.00136181 0
-0.00136181 -0.123274 0
0 0 0
0.00981967 0.000359018 0
0.000359018 -0.121849 0
0 0 0
0.00981972 -0.000255882 0
-0.000255882 -0.121419 0
0 0 0
-0.00816228 -0.00175579 0
-0.00175579 -0.11984 0
0 0 0
-0.00816098 -0.00268506 0
-0.00268506 -0.113522 0
0 0 0
-0.202108 0.0011922 0
0.0011922 -0.10899 0
0 0 0
-0.20208 0.0104739 0
0.0104739 -0.123767 0
0 0 0
-0.202053 0.0197558 0
0.0197558 -0.138544 0
0 0 0
0.0416191 -0.000678343 0
-0.000678343 -0.00516685 0
0 0 0
0.0416166 -0.00344961 0
-0.00344961 -0.00488203 0
0 0 0
-0.0419607 -0.00399355 0
-0.00399355 -0.00459599 0
0 0 0
-0.0419589 -0.00118601 0
-0.00118601 -0.00430903 0
0 0 0
0.00863388 0.000205972 0
0.000205972 -0.0040438 0
0 0 0
0.00863377 -0.000529959 0
-0.000529959 -0.00383202 0
0 0 0
-0.00956624 0.00066669 0
0.00066669 -0.00357374 0
0 0 0
-0.00956296 0.00146963 0
0.00146963 -0.00312561 0
0 0 0
-0.182108 -0.0027607 0
-0.0027607 -0.00281616 0
0 0 0
-0.18216 0.00760716 0
0.00760716 -0.00405211 0
0 0 0
-0.182211 0.0179748 0
0.0179748 -0.00528802 0
0 0 0
0.0361802 -0.000536241 0
-0.000536241 -0.00516738 0
0 0 0
0.0361774 -0.00330026 0
-0.00330026 -0.00488363 0
0 0 0
-0.0362307 -0.0038586 0
-0.0038586 -0.00459779 0
0 0 0
-0.0362284 -0.00104337 0
-0.00104337 -0.00430973 0
0 0 0
0.00716764 0.000311334 0
0.000311334 -0.00404379 0
0 0 0
0.00716743 -0.000424075 0
-0.000424075 -0.0038322 0
0 0 0
-0.0079534 0.000890714 0
0.000890714 -0.00357441 0
0 0 0
-0.00794983 0.0016943 0
0.0016943 -0.00312591 0
0 0 0
-0.159579 -0.00344432 0
-0.00344432 -0.00281742 0
0 0 0
-0.159641 0.00703411 0
0.00703411 -0.00407078 0
0 0 0
-0.159703 0.0175123 0
0.0175123 -0.00532408 0
0 0 0
0.0307389 -0.000402875 0
-0.000402875 -0.0174063 0
0 0 0
0.0307357 -0.00316738 0
-0.00316738 -0.017277 0
0 0 0
-0.030502 -0.00375005 0
-0.00375005 -0.0171433 0
0 0 0
-0.0304993 -0.000939357 0
-0.000939357 -0.0170037 0
0 0 0
0.00570446 0.000375715 0
0.000375715 -0.0168627 0
0 0 0
0.00570415 -0.000345823 0
-0.000345823 -0.0167185 0
0 0 0
-0.00635213 0.00107819 0
0.00107819 -0.0165276 0
0 0 0
-0.00634853 0.00178653 0
0.00178653 -0.0161429 0
0 0 0
-0.136989 -0.00428278 0
-0.00428278 -0.0158165 0
0 0 0
-0.137061 0.00664258 0
0.00664258 -0.0161545 0
0 0 0
-0.137133 0.0175676 0
0.0175676 -0.0164924 0
0 0 0
0.0251814 -0.000518774 0
-0.000518774 -0.0181068 0
0 0 0
0.0251783 -0.00335288 0
-0.00335288 -0.0182928 0
0 0 0
-0.0248099 -0.00396228 0
-0.00396228 -0.0184458 0
0 0 0
-0.0248073 -0.00113004 0
-0.00113004 -0.018555 0
0 0 0
0.00443043 0.000281919 0
0.000281919 -0.0186293 0
0 0 0
0.00443018 -0.000355489 0
-0.000355489 -0.0186178 0
0 0 0
-0.00505249 0.00108101 0
0.00108101 -0.0186272 0
0 0 0
-0.00504915 0.0017348 0
0.0017348 -0.0187235 0
0 0 0
-0.113005 -0.0041034 0
-0.0041034 -0.0187777 0
0 0 0
-0.113081 0.00737645 0
0.00737645 -0.0183539 0
0 0 0
-0.113157 0.0188559 0
0.0188559 -0.0179301 0
0 0 0
0.0196372 -0.000478053 0
-0.000478053 -0.0349361 0
0 0 0
0.0196344 -0.0030501 0
-0.0030501 -0.0351114 0
0 0 0
-0.0191384 -0.00359141 0
-0.00359141 -0.0352565 0
0 0 0
-0.0191361 -0.000992171 0
-0.000992171 -0.0353604 0
0 0 0
0.00317114 0.000325955 0
0.000325955 -0.0354305 0
0 0 0
0.00317088 -0.00027186 0
-0.00027186 -0.0354179 0
0 0 0
-0.00376024 0.00113076 0
0.00113076 -0.0354187 0
0 0 0
-0.00375691 0.0017206 0
0.0017206 -0.0354751 0
0 0 0
-0.0890926 -0.00403407 0
-0.00403407 -0.037218 0
0 0 0
-0.0891653 0.00637583 0
0.00637583 -0.0351152 0
0 0 0
-0.0892382 0.0167516 0
0.0167516 -0.0347343 0
0 0 0
0.0161994 -8.89012e-05 0
-8.89012e-05 -0.0398235 0
0 0 0
0.0161979 -0.00174067 0
-0.00174067 -0.0399637 0
0 0 0
-0.015561 -0.00211365 0
-0.00211365 -0.0400865 0
0 0 0
-0.0155598 -0.000413369 0
-0.000413369 -0.0401848 0
0 0 0
0.00233809 0.0003122 0
0.0003122 -0.0402951 0
0 0 0
0.00233796 -8.97176e-05 0
-8.97176e-05 -0.0404348 0
0 0 0
-0.0034089 0.00111019 0
0.00111019 -0.0406857 0
0 0 0
-0.00340788 0.00123119 0
0.00123119 -0.0414179 0
0 0 0
-0.0739006 -0.00450271 0
-0.00450271 -0.0420323 0
0 0 0
-0.0739391 0.00262429 0
0.00262429 -0.0412992 0
0 0 0
-0.0739776 0.00975118 0
0.00975118 -0.0405661 0
0 0 0
0.0129922 -0.000154918 0
-0.000154918 -0.0398233 0
0 0 0
0.0129909 -0.00180412 0
-0.00180412 -0.0399632 0
0 0 0
-0.0122146 -0.00216625 0
-0.00216625 -0.0400862 0
0 0 0
-0.0122134 -0.000463231 0
-0.000463231 -0.0401847 0
0 0 0
0.00155373 0.000244508 0
0.000244508 -0.0402951 0
0 0 0
0.00155365 -0.000157253 0
-0.000157253 -0.0404348 0
0 0 0
-0.00317857 0.000753653 0
0.000753653 -0.0406851 0
0 0 0
-0.00317777 0.000874779 0
0.000874779 -0.0414172 0
0 0 0
-0.0595154 -0.0041328 0
-0.0041328 -0.0420325 0
0 0 0
-0.0595511 0.00304373 0
0.00304373 -0.0412923 0
0 0 0
-0.0595867 0.0102202 0
0.0102202 -0.0405522 0
0 0 0
