# vtk DataFile Version 3.0
MPM2D particles
ASCII
DATASET POLYDATA
POINTS 121 double
0.0142324 2.5455e-13 0
0.0423199 7.36463e-14 0
0.06703 2.12178e-14 0
0.0890636 6.36968e-15 0
0.112229 2.16846e-14 0
0.137809 4.26008e-11 0
0.162773 3.90543e-08 0
0.185282 4.62965e-06 0
0.205664 0.000400789 0
0.198229 0.000732884 0
0.188288 0.000164948 0
0.0184116 6.42605e-13 0
0.053622 1.36307e-13 0
0.0745411 4.28668e-14 0
0.0917055 1.66232e-14 0
0.11167 5.49573e-14 0
0.13845 1.54166e-10 0
0.163023 1.25696e-07 0
0.181347 6.32938e-06 0
0.197105 0.00020874 0
0.196257 0.000327521 0
0.191335 0.000188255 0
0.0222033 8.46761e-13 0
0.0620323 1.37009e-13 0
0.0792995 5.27772e-14 0
0.0934841 2.40977e-14 0
0.111286 7.82663e-14 0
0.139014 2.91389e-10 0
0.162861 1.98323e-07 0
0.178046 5.25262e-06 0
0.19097 9.31509e-05 0
0.191846 0.000148895 0
0.189438 0.000120951 0
0.0233027 9.45018e-13 0
0.064352 1.46574e-13 0
0.0809086 5.97753e-14 0
0.0944245 2.86904e-14 0
0.111786 1.15505e-13 0
0.13942 4.19541e-10 0
0.162219 2.25543e-07 0
0.17511 3.74923e-06 0
0.186051 4.33227e-05 0
0.188379 8.55295e-05 0
0.187077 8.24087e-05 0
0.0242227 1.03265e-12 0
0.0661815 1.55775e-13 0
0.0822544 6.6333e-14 0
0.0953262 3.30586e-14 0
0.112471 1.74181e-13 0
0.139649 5.55759e-10 0
0.161243 2.31222e-07 0
0.172047 2.49717e-06 0
0.181174 1.94727e-05 0
0.184894 4.83398e-05 0
0.184872 5.7908e-05 0
0.0251707 1.15163e-12 0
0.0679609 1.70418e-13 0
0.0835984 7.58176e-14 0
0.096258 3.92977e-14 0
0.113145 2.71537e-13 0
0.139349 6.58054e-10 0
0.159547 2.12712e-07 0
0.168365 1.51132e-06 0
0.175826 8.18678e-06 0
0.180211 2.23389e-05 0
0.181945 3.64854e-05 0
0.0258205 1.34152e-12 0
0.0690924 1.98907e-13 0
0.0844083 9.19054e-14 0
0.0967536 4.93292e-14 0
0.113147 3.57064e-13 0
0.13775 5.53158e-10 0
0.156979 1.53808e-07 0
0.164523 9.06567e-07 0
0.171015 3.9436e-06 0
0.175266 1.02285e-05 0
0.1783 2.09088e-05 0
0.0257307 1.62213e-12 0
0.0689623 2.46843e-13 0
0.0842123 1.16226e-13 0
0.0964794 6.35044e-14 0
0.112289 3.54836e-13 0
0.135231 3.46342e-10 0
0.154138 8.79443e-08 0
0.161379 6.11491e-07 0
0.167596 2.47693e-06 0
0.171738 6.22909e-06 0
0.17526 1.38032e-05 0
0.0250289 1.97836e-12 0
0.0678911 3.13066e-13 0
0.0833001 1.4762e-13 0
0.0956659 8.09471e-14 0
0.110963 2.929e-13 0
0.132641 2.01673e-10 0
0.151484 5.1139e-08 0
0.159073 4.69985e-07 0
0.165364 1.91665e-06 0
0.16959 4.89726e-06 0
0.173307 1.12459e-05 0
0.0242096 2.37064e-12 0
0.0666046 3.9092e-13 0
0.0822037 1.83716e-13 0
0.0946605 1.00883e-13 0
0.109492 2.23158e-13 0
0.130291 1.20973e-10 0
0.148992 3.01166e-08 0
0.157261 3.60841e-07 0
0.163735 1.63079e-06 0
0.168079 4.26911e-06 0
0.171914 1.00389e-05 0
0.0234378 2.79425e-12 0
0.0653158 4.8083e-13 0
0.081057 2.25411e-13 0
0.093527 1.24296e-13 0
0.107887 1.59999e-13 0
0.128053 7.33538e-11 0
0.146531 1.75419e-08 0
0.155567 2.55419e-07 0
0.162294 1.4206e-06 0
0.16673 3.78821e-06 0
0.170597 8.9707e-06 0
VERTICES 121 242
1 0
1 1
1 2
1 3
1 4
1 5
1 6
1 7
1 8
1 9
1 10
1 11
1 12
1 13
1 14
1 15
1 16
1 17
1 18
1 19
1 20
1 21
1 22
1 23
1 24
1 25
1 26
1 27
1 28
1 29
1 30
1 31
1 32
1 33
1 34
1 35
1 36
1 37
1 38
1 39
1 40
1 41
1 42
1 43
1 44
1 45
1 46
1 47
1 48
1 49
1 50
1 51
1 52
1 53
1 54
1 55
1 56
1 57
1 58
1 59
1 60
1 61
1 62
1 63
1 64
1 65
1 66
1 67
1 68
1 69
1 70
1 71
1 72
1 73
1 74
1 75
1 76
1 77
1 78
1 79
1 80
1 81
1 82
1 83
1 84
1 85
1 86
1 87
1 88
1 89
1 90
1 91
1 92
1 93
1 94
1 95
1 96
1 97
1 98
1 99
1 100
1 101
1 102
1 103
1 104
1 105
1 106
1 107
1 108
1 109
1 110
1 111
1 112
1 113
1 114
1 115
1 116
1 117
1 118
1 119
1 120
POINT_DATA 121
VECTORS velocity double
4.35313 6.2846 0
2.08315 4.21339 0
0.897795 2.83626 0
0.746322 2.07489 0
0.580177 1.62769 0
0.404806 2.02719 0
0.150675 2.0037 0
-0.349242 0.323706 0
-0.251681 -1.04924 0
-4.33712 5.66778 0
-8.25259 9.33173 0
2.89372 0.566627 0
0.244679 -0.623264 0
-0.20821 -1.14616 0
0.189113 -1.53758 0
0.442112 -1.79862 0
0.350183 -1.58809 0
0.228102 -1.61986 0
0.147924 -2.38364 0
0.517513 -3.17252 0
-0.245099 -1.64707 0
-0.75121 -0.800861 0
1.86248 -3.38831 0
-0.875071 -3.79073 0
-0.895014 -3.95552 0
-0.174175 -4.13852 0
0.359335 -4.293 0
0.341164 -4.26045 0
0.33361 -4.27633 0
0.525448 -4.3405 0
0.952459 -4.48319 0
1.12618 -4.41959 0
1.3666 -4.45128 0
1.8455 -4.02911 0
-0.79169 -4.30323 0
-0.783829 -4.43336 0
-0.106414 -4.57913 0
0.406021 -4.70917 0
0.418301 -4.74195 0
0.420919 -4.75935 0
0.523832 -4.62094 0
0.738008 -4.52988 0
0.61653 -4.61881 0
0.641264 -4.786 0
1.88482 -4.48323 0
-0.612956 -4.68061 0
-0.601497 -4.76772 0
-0.00886195 -4.87009 0
0.436969 -4.96593 0
0.481839 -5.02527 0
0.487873 -5.04084 0
0.456422 -4.79325 0
0.461845 -4.59032 0
-0.00508947 -4.73583 0
-0.221674 -5.01604 0
1.86116 -4.84032 0
-0.485286 -5.01111 0
-0.479988 -5.05702 0
0.0367895 -5.10911 0
0.417696 -5.15772 0
0.490254 -5.20435 0
0.51115 -5.22696 0
0.412723 -4.98168 0
0.315118 -4.77897 0
-0.334532 -4.91169 0
-0.794514 -5.1895 0
1.67919 -5.08861 0
-0.484929 -5.27326 0
-0.476291 -5.28367 0
0.00173739 -5.28973 0
0.351841 -5.29773 0
0.435956 -5.32358 0
0.479014 -5.35455 0
0.37999 -5.17299 0
0.265568 -5.0047 0
-0.390529 -5.12521 0
-1.00954 -5.36129 0
1.36354 -5.36198 0
-0.52704 -5.5514 0
-0.50111 -5.53663 0
-0.0567239 -5.51063 0
0.280976 -5.49062 0
0.375877 -5.49375 0
0.428245 -5.48506 0
0.30896 -5.3912 0
0.16202 -5.23989 0
-0.445087 -5.34114 0
-1.08583 -5.54196 0
0.977244 -5.79811 0
-0.559538 -5.95276 0
-0.51467 -5.92058 0
-0.126747 -5.87244 0
0.191355 -5.83041 0
0.298545 -5.81202 0
0.368218 -5.771 0
0.227432 -5.73432 0
0.0530456 -5.58829 0
-0.51047 -5.64098 0
-1.12843 -5.77608 0
0.587911 -6.56524 0
-0.60807 -6.64086 0
-0.550731 -6.58138 0
-0.234014 -6.50675 0
0.0559627 -6.43481 0
0.177094 -6.38587 0
0.274468 -6.3086 0
0.143321 -6.2977 0
-0.0315276 -6.16762 0
-0.575746 -6.15219 0
-1.18608 -6.18762 0
0.146758 -7.85702 0
-0.721957 -7.82879 0
-0.652098 -7.7397 0
-0.42254 -7.63268 0
-0.174004 -7.49186 0
-0.0330659 -7.40195 0
0.117267 -7.24045 0
0.0252658 -7.23136 0
-0.116508 -7.14505 0
-0.642648 -7.03162 0
-1.24806 -6.93204 0
SCALARS mass double 1
LOOKUP_TABLE default
2.67769
2.67769
2.67769
2.67769
2.67769
2.67769
2.67769
2.67769
2.67769
2.67769
2.67769
2.67769
2.67769
2.67769
2.67769
2.67769
2.67769
2.67769
2.67769
2.67769
2.67769
2.67769
2.67769
2.67769
2.67769
2.67769
2.67769
2.67769
2.67769
2.67769
2.67769
2.67769
2.67769
2.67769
2.67769
2.67769
2.67769
2.67769
2.67769
2.67769
2.67769
2.67769
2.67769
2.67769
2.67769
2.67769
2.67769
2.67769
2.67769
2.67769
2.67769
2.67769
2.67769
2.67769
2.67769
2.67769
2.67769
2.67769
2.67769
2.67769
2.67769
2.67769
2.67769
2.67769
2.67769
2.67769
2.67769
2.67769
2.67769
2.67769
2.67769
2.67769
2.67769
2.67769
2.67769
2.67769
2.67769
2.67769
2.67769
2.67769
2.67769
2.67769
2.67769
2.67769
2.67769
2.67769
2.67769
2.67769
2.67769
2.67769
2.67769
2.67769
2.67769
2.67769
2.67769
2.67769
2.67769
2.67769
2.67769
2.67769
2.67769
2.67769
2.67769
2.67769
2.67769
2.67769
2.67769
2.67769
2.67769
2.67769
2.67769
2.67769
2.67769
2.67769
2.67769
2.67769
2.67769
2.67769
2.67769
2.67769
2.67769
SCALARS volume double 1
LOOKUP_TABLE default
1.72796e-14
4.95474e-15
1.11412e-15
3.3615e-16
1.32084e-15
2.59387e-12
2.12604e-09
2.50472e-07
1.56432e-05
8.17423e-06
8.53119e-07
1.88833e-14
3.73249e-15
5.85451e-16
2.30107e-16
1.16926e-15
3.27596e-12
1.90706e-09
9.4629e-08
1.75565e-06
8.88685e-07
2.68271e-07
8.31918e-15
1.04404e-15
2.18252e-16
1.081e-16
7.13391e-16
2.71492e-12
1.11318e-09
3.09653e-08
3.04223e-07
1.49222e-07
4.78995e-08
7.11409e-15
7.79319e-16
1.75842e-16
9.2762e-17
8.11565e-16
3.08319e-12
8.75298e-10
1.48795e-08
1.12163e-07
7.36395e-08
2.70797e-08
7.72177e-15
7.62273e-16
1.82455e-16
1.00765e-16
1.19651e-15
4.01926e-12
7.77848e-10
8.40031e-09
4.54572e-08
5.03609e-08
2.05001e-08
1.14238e-14
9.95821e-16
2.51516e-16
1.42498e-16
2.24174e-15
5.81344e-12
7.49522e-10
5.05103e-09
1.8509e-08
3.36588e-08
2.35784e-08
1.54416e-14
1.2119e-15
3.09612e-16
1.78906e-16
2.82361e-15
4.69066e-12
4.76057e-10
2.50158e-09
7.32805e-09
1.51269e-08
1.78076e-08
1.81926e-14
1.37346e-15
3.53255e-16
2.00649e-16
2.27998e-15
2.3485e-12
2.26952e-10
1.32408e-09
3.61828e-09
7.33379e-09
1.19382e-08
1.89216e-14
1.49852e-15
3.79069e-16
2.13227e-16
1.44922e-15
1.03445e-12
1.16362e-10
8.12715e-10
2.28722e-09
4.71917e-09
8.97645e-09
1.93214e-14
1.72788e-15
4.14717e-16
2.35012e-16
9.24136e-16
5.13956e-13
6.9003e-11
5.5739e-10
1.77791e-09
3.66339e-09
7.61644e-09
2.00835e-14
1.99177e-15
4.70007e-16
2.63525e-16
5.91755e-16
1.49947e-13
4.01979e-11
3.7961e-10
1.45254e-09
3.075e-09
6.55012e-09
TENSORS stress double
5076.67 47173.9 0
47173.9 779.045 0
0 0 0
5076.67 146411 0
146411 454.767 0
0 0 0
5076.67 146281 0
146281 -106.207 0
0 0 0
5076.67 83232.8 0
83232.8 -782.474 0
0 0 0
5076.67 3774.97 0
3774.97 3.16746 0
0 0 0
5076.67 -122849 0
-122849 4713.88 0
0 0 0
5076.68 -234865 0
-234865 8609.65 0
0 0 0
5076.68 -301531 0
-301531 9518.02 0
0 0 0
5077.37 -350426 0
-350426 10326.8 0
0 0 0
5077.95 -304200 0
-304200 10015 0
0 0 0
5076.96 -263268 0
-263268 9633.71 0
0 0 0
5076.67 54792.3 0
54792.3 730.795 0
0 0 0
5076.67 173248 0
173248 305.315 0
0 0 0
5076.67 123611 0
123611 -336.742 0
0 0 0
5076.67 73065.5 0
73065.5 -863.562 0
0 0 0
5076.67 5531.51 0
5531.51 -99.7802 0
0 0 0
5076.67 -127087 0
-127087 4831.82 0
0 0 0
5076.68 -233308 0
-233308 8619.74 0
0 0 0
5076.69 -288584 0
-288584 9359.13 0
0 0 0
5077.04 -323112 0
-323112 9988.08 0
0 0 0
5077.25 -265986 0
-265986 9949.66 0
0 0 0
5077 -236163 0
-236163 9755.89 0
0 0 0
5076.67 59903.2 0
59903.2 687.019 0
0 0 0
5076.67 144257 0
144257 47.1822 0
0 0 0
5076.67 101761 0
101761 -482.789 0
0 0 0
5076.67 64427.6 0
64427.6 -918.149 0
0 0 0
5076.67 8432.05 0
8432.05 -170.61 0
0 0 0
5076.67 -130819 0
-130819 4935.72 0
0 0 0
5076.68 -231679 0
-231679 8613.2 0
0 0 0
5076.68 -278677 0
-278677 9225.95 0
0 0 0
5076.84 -307062 0
-307062 9744.5 0
0 0 0
5076.94 -252491 0
-252491 9777.92 0
0 0 0
5076.89 -204499 0
-204499 9681.7 0
0 0 0
5076.67 63880.7 0
63880.7 674.326 0
0 0 0
5076.67 137696 0
137696 -24.0142 0
0 0 0
5076.67 97466.2 0
97466.2 -532.176 0
0 0 0
5076.67 63306 0
63306 -947.013 0
0 0 0
5076.67 7807.16 0
7807.16 -78.3994 0
0 0 0
5076.67 -132848 0
-132848 5010.56 0
0 0 0
5076.68 -227160 0
-227160 8587.3 0
0 0 0
5076.68 -268383 0
-268383 9107.48 0
0 0 0
5076.75 -301312 0
-301312 9547.71 0
0 0 0
5076.82 -258492 0
-258492 9640.17 0
0 0 0
5076.82 -208272 0
-208272 9587.74 0
0 0 0
5076.67 68191.3 0
68191.3 663.705 0
0 0 0
5076.67 133536 0
133536 -80.1666 0
0 0 0
5076.67 94913.4 0
94913.4 -573.482 0
0 0 0
5076.67 62649.9 0
62649.9 -974.689 0
0 0 0
5076.67 5674.05 0
5674.05 47.6872 0
0 0 0
5076.67 -133924 0
-133924 5052.78 0
0 0 0
5076.68 -221519 0
-221519 8547.88 0
0 0 0
5076.68 -256310 0
-256310 8983.89 0
0 0 0
5076.71 -288091 0
-288091 9351.69 0
0 0 0
5076.76 -270841 0
-270841 9500.85 0
0 0 0
5076.78 -213635 0
-213635 9499.59 0
0 0 0
5076.67 72311.5 0
72311.5 652.759 0
0 0 0
5076.67 128664 0
128664 -134.781 0
0 0 0
5076.67 91132.3 0
91132.3 -614.734 0
0 0 0
5076.67 61352.4 0
61352.4 -1003.29 0
0 0 0
5076.67 3146.27 0
3146.27 171.774 0
0 0 0
5076.67 -132779 0
-132779 4997.44 0
0 0 0
5076.68 -214612 0
-214612 8479.42 0
0 0 0
5076.68 -240394 0
-240394 8835.32 0
0 0 0
5076.69 -264631 0
-264631 9136.22 0
0 0 0
5076.71 -271945 0
-271945 9312.72 0
0 0 0
5076.74 -231715 0
-231715 9382.22 0
0 0 0
5076.67 74566.5 0
74566.5 645.257 0
0 0 0
5076.67 122568 0
122568 -169.507 0
0 0 0
5076.67 87463.5 0
87463.5 -639.593 0
0 0 0
5076.67 60252 0
60252 -1018.5 0
0 0 0
5076.67 3935.02 0
3935.02 172.196 0
0 0 0
5076.67 -124430 0
-124430 4703.02 0
0 0 0
5076.67 -205064 0
-205064 8244.2 0
0 0 0
5076.68 -223998 0
-223998 8680.26 0
0 0 0
5076.68 -241037 0
-241037 8942.21 0
0 0 0
5076.69 -255313 0
-255313 9113.55 0
0 0 0
5076.71 -235003 0
-235003 9235.66 0
0 0 0
5076.67 73607.4 0
73607.4 646.294 0
0 0 0
5076.67 119621 0
119621 -165.516 0
0 0 0
5076.67 85964.3 0
85964.3 -633.577 0
0 0 0
5076.67 60678 0
60678 -1010.08 0
0 0 0
5076.67 9489.16 0
9489.16 14.1424 0
0 0 0
5076.67 -109815 0
-109815 4239.05 0
0 0 0
5076.67 -194023 0
-194023 7720.89 0
0 0 0
5076.68 -210440 0
-210440 8553.35 0
0 0 0
5076.68 -223734 0
-223734 8804.25 0
0 0 0
5076.69 -236003 0
-236003 8971.31 0
0 0 0
5076.7 -228727 0
-228727 9113.21 0
0 0 0
5076.67 70630.3 0
70630.3 654.396 0
0 0 0
5076.67 119598 0
119598 -132.638 0
0 0 0
5076.67 87176.6 0
87176.6 -605.577 0
0 0 0
5076.67 62356.1 0
62356.1 -985.116 0
0 0 0
5076.67 17637.4 0
17637.4 -230.036 0
0 0 0
5076.67 -94125.7 0
-94125.7 3762.13 0
0 0 0
5076.67 -184712 0
-184712 7232.23 0
0 0 0
5076.68 -201208 0
-201208 8460.31 0
0 0 0
5076.68 -212895 0
-212895 8714.17 0
0 0 0
5076.68 -223129 0
-223129 8884.63 0
0 0 0
5076.69 -224034 0
-224034 9034.44 0
0 0 0
5076.67 68059.2 0
68059.2 663.856 0
0 0 0
5076.67 120968 0
120968 -93.1516 0
0 0 0
5076.67 90042.7 0
90042.7 -571.927 0
0 0 0
5076.67 64647.3 0
64647.3 -954.257 0
0 0 0
5076.67 26445.2 0
26445.2 -500.901 0
0 0 0
5076.67 -79873.5 0
-79873.5 3329.44 0
0 0 0
5076.67 -177328 0
-177328 6773.32 0
0 0 0
5076.65 -193960 0
-193960 8296.08 0
0 0 0
5076.68 -205775 0
-205775 8648.43 0
0 0 0
5076.68 -216315 0
-216315 8823.67 0
0 0 0
5076.69 -223036 0
-223036 8978.26 0
0 0 0
5076.67 65556.8 0
65556.8 672.767 0
0 0 0
5076.67 122061 0
122061 -53.5945 0
0 0 0
5076.67 91194.6 0
91194.6 -536.732 0
0 0 0
5076.67 66412 0
66412 -919.467 0
0 0 0
5076.67 35388.4 0
35388.4 -796.487 0
0 0 0
5076.67 -68041.5 0
-68041.5 2917.23 0
0 0 0
5076.67 -164802 0
-164802 6320.02 0
0 0 0
5076.66 -187461 0
-187461 7984.16 0
0 0 0
5076.68 -200708 0
-200708 8590.25 0
0 0 0
5076.68 -210813 0
-210813 8769.25 0
0 0 0
5076.69 -219620 0
-219620 8925.16 0
0 0 0
TENSORS strain double
0.129853 0.471739 0
0.471739 -23.75 0
0 0 0
0.120967 1.46411 0
1.46411 -24.9093 0
0 0 0
-0.123147 1.46281 0
1.46281 -26.0621 0
0 0 0
-0.118155 0.832328 0
0.832328 -27.168 0
0 0 0
0.0234034 0.0377497 0
0.0377497 -26.0578 0
0 0 0
0.0229906 -1.22849 0
-1.22849 -18.9987 0
0 0 0
-0.0868226 -2.34865 0
-2.34865 -12.4463 0
0 0 0
-0.093061 -3.01531 0
-3.01531 -7.80034 0
0 0 0
-0.415879 -3.50426 0
-3.50426 -3.399 0
0 0 0
-1.65111 -3.042 0
-3.042 -2.80236 0
0 0 0
-2.40529 -2.63268 0
-2.63268 -4.25232 0
0 0 0
0.387777 0.547923 0
0.547923 -23.9109 0
0 0 0
0.319544 1.73248 0
1.73248 -25.3577 0
0 0 0
-0.367003 1.23611 0
1.23611 -26.425 0
0 0 0
-0.353705 0.730655 0
0.730655 -27.2953 0
0 0 0
0.070227 0.0553151 0
0.0553151 -26.212 0
0 0 0
0.068942 -1.27087 0
-1.27087 -18.821 0
0 0 0
-0.261314 -2.33308 0
-2.33308 -12.3785 0
0 0 0
-0.276104 -2.88584 0
-2.88584 -8.57026 0
0 0 0
-0.846268 -3.23112 0
-3.23112 -5.13539 0
0 0 0
-1.94683 -2.65986 0
-2.65986 -4.69221 0
0 0 0
-2.57005 -2.36163 0
-2.36163 -5.23659 0
0 0 0
0.575677 0.599032 0
0.599032 -24.9064 0
0 0 0
0.14753 1.44257 0
1.44257 -26.4128 0
0 0 0
-0.554406 1.01761 0
1.01761 -27.1934 0
0 0 0
-0.53901 0.644276 0
0.644276 -27.8485 0
0 0 0
0.105981 0.0843205 0
0.0843205 -26.7295 0
0 0 0
0.104174 -1.30819 0
-1.30819 -19.0505 0
0 0 0
-0.422396 -2.31679 0
-2.31679 -12.7483 0
0 0 0
-0.444272 -2.78677 0
-2.78677 -9.49774 0
0 0 0
-1.07727 -3.07062 0
-3.07062 -6.63067 0
0 0 0
-2.00985 -2.52491 0
-2.52491 -6.38815 0
0 0 0
-2.58196 -2.04499 0
-2.04499 -6.91628 0
0 0 0
0.624235 0.638807 0
0.638807 -25.108 0
0 0 0
0.0908804 1.37696 0
1.37696 -26.6359 0
0 0 0
-0.604422 0.974662 0
0.974662 -27.349 0
0 0 0
-0.592859 0.63306 0
0.63306 -27.9405 0
0 0 0
0.102789 0.0780716 0
0.0780716 -26.61 0
0 0 0
0.101482 -1.32848 0
-1.32848 -18.9265 0
0 0 0
-0.56062 -2.2716 0
-2.2716 -12.8429 0
0 0 0
-0.592465 -2.68383 0
-2.68383 -10.0638 0
0 0 0
-1.06194 -3.01312 0
-3.01312 -7.62536 0
0 0 0
-1.90296 -2.58492 0
-2.58492 -7.1903 0
0 0 0
-2.47747 -2.08272 0
-2.08272 -7.57929 0
0 0 0
0.663164 0.681913 0
0.681913 -25.0631 0
0 0 0
0.0443083 1.33536 0
1.33536 -26.602 0
0 0 0
-0.641268 0.949134 0
0.949134 -27.2686 0
0 0 0
-0.633226 0.626499 0
0.626499 -27.8131 0
0 0 0
0.0862955 0.0567405 0
0.0567405 -26.2239 0
0 0 0
0.0849985 -1.33924 0
-1.33924 -18.6493 0
0 0 0
-0.709095 -2.21519 0
-2.21519 -12.804 0
0 0 0
-0.750109 -2.5631 0
-2.5631 -10.4588 0
0 0 0
-1.13254 -2.88091 0
-2.88091 -8.43664 0
0 0 0
-1.73466 -2.70841 0
-2.70841 -7.73358 0
0 0 0
-2.38591 -2.13635 0
-2.13635 -7.94172 0
0 0 0
0.701787 0.723115 0
0.723115 -24.71 0
0 0 0
-0.011337 1.28664 0
1.28664 -26.2711 0
0 0 0
-0.677616 0.911323 0
0.911323 -26.9085 0
0 0 0
-0.674014 0.613524 0
0.613524 -27.4248 0
0 0 0
0.0511967 0.0314627 0
0.0314627 -25.5808 0
0 0 0
0.0487194 -1.32779 0
-1.32779 -18.2427 0
0 0 0
-0.882829 -2.14612 0
-2.14612 -12.6562 0
0 0 0
-0.928489 -2.40394 0
-2.40394 -10.7672 0
0 0 0
-1.2838 -2.64631 0
-2.64631 -9.15795 0
0 0 0
-1.59644 -2.71945 0
-2.71945 -8.26485 0
0 0 0
-2.10627 -2.31715 0
-2.31715 -8.09299 0
0 0 0
0.727448 0.745665 0
0.745665 -24.4355 0
0 0 0
-0.034854 1.22568 0
1.22568 -26.0462 0
0 0 0
-0.70429 0.874635 0
0.874635 -26.6726 0
0 0 0
-0.704363 0.60252 0
0.60252 -27.167 0
0 0 0
-0.00697121 0.0393502 0
0.0393502 -25.2941 0
0 0 0
-0.0123881 -1.2443 0
-1.2443 -18.3748 0
0 0 0
-1.01539 -2.05064 0
-2.05064 -12.9581 0
0 0 0
-1.06861 -2.23998 0
-2.23998 -11.3037 0
0 0 0
-1.39938 -2.41037 0
-2.41037 -9.94012 0
0 0 0
-1.58465 -2.55313 0
-2.55313 -9.05364 0
0 0 0
-1.9183 -2.35003 0
-2.35003 -8.55748 0
0 0 0
0.723962 0.736074 0
0.736074 -24.2713 0
0 0 0
-0.0447554 1.19621 0
1.19621 -25.9127 0
0 0 0
-0.708174 0.859643 0
0.859643 -26.5394 0
0 0 0
-0.709818 0.60678 0
0.60678 -27.0495 0
0 0 0
-0.0695889 0.0948916 0
0.0948916 -25.4252 0
0 0 0
-0.0781112 -1.09815 0
-1.09815 -18.9631 0
0 0 0
-1.0252 -1.94023 0
-1.94023 -13.667 0
0 0 0
-1.12893 -2.1044 0
-2.1044 -11.8572 0
0 0 0
-1.42847 -2.23734 0
-2.23734 -10.594 0
0 0 0
-1.60275 -2.36003 0
-2.36003 -9.73749 0
0 0 0
-1.79287 -2.28727 0
-2.28727 -9.07174 0
0 0 0
0.696173 0.706303 0
0.706303 -24.209 0
0 0 0
-0.0317138 1.19598 0
1.19598 -25.8458 0
0 0 0
-0.696878 0.871766 0
0.871766 -26.4855 0
0 0 0
-0.699304 0.623561 0
0.623561 -27.0041 0
0 0 0
-0.119766 0.176374 0
0.176374 -25.795 0
0 0 0
-0.13028 -0.941257 0
-0.941257 -19.6885 0
0 0 0
-0.948691 -1.84712 0
-1.84712 -14.3922 0
0 0 0
-1.12964 -2.01208 0
-2.01208 -12.3279 0
0 0 0
-1.40372 -2.12895 0
-2.12895 -11.0627 0
0 0 0
-1.57599 -2.23129 0
-2.23129 -10.1915 0
0 0 0
-1.68128 -2.24034 0
-2.24034 -9.46046 0
0 0 0
0.662719 0.680592 0
0.680592 -24.159 0
0 0 0
0.00308114 1.20968 0
1.20968 -25.7474 0
0 0 0
-0.686538 0.900427 0
0.900427 -26.4119 0
0 0 0
-0.689545 0.646473 0
0.646473 -26.923 0
0 0 0
-0.155684 0.264452 0
0.264452 -26.1714 0
0 0 0
-0.167488 -0.798735 0
-0.798735 -20.3105 0
0 0 0
-0.803875 -1.77328 0
-1.77328 -15.0402 0
0 0 0
-1.10248 -1.9396 0
-1.9396 -12.7196 0
0 0 0
-1.36496 -2.05775 0
-2.05775 -11.3445 0
0 0 0
-1.5453 -2.16315 0
-2.16315 -10.467 0
0 0 0
-1.61655 -2.23036 0
-2.23036 -9.68462 0
0 0 0
0.630158 0.655568 0
0.655568 -24.0915 0
0 0 0
0.0332664 1.22061 0
1.22061 -25.644 0
0 0 0
-0.681232 0.911946 0
0.911946 -26.2992 0
0 0 0
-0.683716 0.66412 0
0.66412 -26.8209 0
0 0 0
-0.180891 0.353884 0
0.353884 -26.5498 0
0 0 0
-0.193533 -0.680415 0
-0.680415 -21.3124 0
0 0 0
-0.702666 -1.64802 0
-1.64802 -15.6579 0
0 0 0
-1.05226 -1.87461 0
-1.87461 -13.1427 0
0 0 0
-1.33597 -2.00708 0
-2.00708 -11.5676 0
0 0 0
-1.52516 -2.10813 0
-2.10813 -10.6559 0
0 0 0
-1.58412 -2.1962 0
-2.1962 -9.86321 0
0 0 0
