# vtk DataFile Version 3.0
MPM2D particles
ASCII
DATASET POLYDATA
POINTS 121 double
0.0140926 0.00261959 0
0.0419759 0.00225216 0
0.066772 0.00200757 0
0.0889922 0.00184484 0
0.112301 0.00172288 0
0.137985 0.00167944 0
0.163114 0.00171384 0
0.186223 0.00203863 0
0.208864 0.0024855 0
0.212515 0.0130127 0
0.206388 0.0264129 0
0.0178832 0.0077703 0
0.0524039 0.00654023 0
0.0739575 0.00593392 0
0.0915497 0.00550727 0
0.111879 0.00517061 0
0.138988 0.00503653 0
0.164084 0.00519584 0
0.183831 0.00603524 0
0.202898 0.00703429 0
0.206029 0.0114152 0
0.20398 0.0177297 0
0.0212438 0.0118515 0
0.0605055 0.0100555 0
0.0785621 0.00930054 0
0.0932982 0.00874008 0
0.111614 0.00827206 0
0.139891 0.00806802 0
0.164592 0.00840941 0
0.181652 0.0096568 0
0.198019 0.0110619 0
0.201321 0.0137323 0
0.200891 0.0177711 0
0.0221362 0.0137982 0
0.0626271 0.0120958 0
0.0800747 0.0114302 0
0.094233 0.0109163 0
0.112216 0.0104873 0
0.140556 0.0103117 0
0.164417 0.0108543 0
0.179353 0.0124641 0
0.193599 0.0142474 0
0.198233 0.0163868 0
0.198832 0.0199475 0
0.0228563 0.0156203 0
0.0642723 0.0141011 0
0.0813352 0.0135809 0
0.0951426 0.0131703 0
0.11302 0.012851 0
0.141068 0.0127686 0
0.163901 0.0135346 0
0.176812 0.0154565 0
0.189003 0.0175531 0
0.195056 0.0192082 0
0.196992 0.0222364 0
0.0235381 0.0180649 0
0.0657909 0.0168785 0
0.08256 0.0166187 0
0.0960905 0.0164175 0
0.113872 0.0163346 0
0.141177 0.0164893 0
0.162796 0.0175456 0
0.173768 0.019782 0
0.184091 0.0221677 0
0.190785 0.0234932 0
0.194663 0.0257175 0
0.0238353 0.0215686 0
0.0664903 0.0208561 0
0.0831569 0.0209888 0
0.0965795 0.0211355 0
0.114109 0.0214552 0
0.140122 0.0220833 0
0.160928 0.0234379 0
0.170756 0.0259321 0
0.180143 0.0285296 0
0.186696 0.0297352 0
0.192082 0.0311622 0
0.023367 0.0259741 0
0.0657086 0.0257002 0
0.0826072 0.0262735 0
0.0962259 0.0268302 0
0.113479 0.0276303 0
0.138165 0.0288828 0
0.15889 0.0304985 0
0.168558 0.0331315 0
0.177963 0.0358109 0
0.184623 0.0369861 0
0.190777 0.0379429 0
0.022323 0.0308108 0
0.0637965 0.0308543 0
0.0812072 0.0318474 0
0.0952404 0.0328076 0
0.112332 0.0340724 0
0.136078 0.0359619 0
0.157125 0.0379092 0
0.167253 0.0405974 0
0.177221 0.043274 0
0.184397 0.044418 0
0.191187 0.0451198 0
0.0211968 0.0357478 0
0.0615569 0.0360716 0
0.0795336 0.0374719 0
0.0939841 0.0388394 0
0.110989 0.0405612 0
0.134177 0.0430887 0
0.15552 0.0456297 0
0.166459 0.0481799 0
0.177203 0.0507482 0
0.185007 0.0517716 0
0.19242 0.0522113 0
0.0201304 0.0408733 0
0.0591928 0.0415325 0
0.0777099 0.043354 0
0.0925088 0.0451588 0
0.109464 0.0473836 0
0.132358 0.0506131 0
0.153952 0.0539428 0
0.165859 0.0562068 0
0.177437 0.0584902 0
0.185809 0.0593174 0
0.193707 0.0595545 0
VERTICES 121 242
1 0
1 1
1 2
1 3
1 4
1 5
1 6
1 7
1 8
1 9
1 10
1 11
1 12
1 13
1 14
1 15
1 16
1 17
1 18
1 19
1 20
1 21
1 22
1 23
1 24
1 25
1 26
1 27
1 28
1 29
1 30
1 31
1 32
1 33
1 34
1 35
1 36
1 37
1 38
1 39
1 40
1 41
1 42
1 43
1 44
1 45
1 46
1 47
1 48
1 49
1 50
1 51
1 52
1 53
1 54
1 55
1 56
1 57
1 58
1 59
1 60
1 61
1 62
1 63
1 64
1 65
1 66
1 67
1 68
1 69
1 70
1 71
1 72
1 73
1 74
1 75
1 76
1 77
1 78
1 79
1 80
1 81
1 82
1 83
1 84
1 85
1 86
1 87
1 88
1 89
1 90
1 91
1 92
1 93
1 94
1 95
1 96
1 97
1 98
1 99
1 100
1 101
1 102
1 103
1 104
1 105
1 106
1 107
1 108
1 109
1 110
1 111
1 112
1 113
1 114
1 115
1 116
1 117
1 118
1 119
1 120
POINT_DATA 121
VECTORS velocity double
5.00676 8.72096 0
2.88437 6.8643 0
1.46524 5.63256 0
0.874322 4.97154 0
0.367942 4.6198 0
0.126314 5.09798 0
-0.149623 5.03046 0
-0.534203 2.86378 0
-1.19184 1.07015 0
-6.43472 7.99677 0
-9.17357 12.0226 0
3.61811 3.11026 0
1.12392 2.15807 0
0.233463 1.72044 0
0.276049 1.40077 0
0.233824 1.21541 0
0.0709113 1.503 0
-0.0721482 1.41841 0
-0.0838139 0.26781 0
-0.196112 -0.83436 0
-1.35093 0.75652 0
-1.61654 1.75177 0
2.64589 -0.760147 0
-0.140838 -0.938086 0
-0.533553 -1.03843 0
-0.114512 -1.16664 0
0.154324 -1.25879 0
0.0611417 -1.15133 0
0.0310752 -1.2188 0
0.269331 -1.59605 0
0.451131 -1.98933 0
0.433981 -1.91655 0
0.698413 -1.86694 0
2.65327 -1.36643 0
-0.0906627 -1.42111 0
-0.445723 -1.49097 0
-0.0606957 -1.58611 0
0.201276 -1.65843 0
0.137702 -1.61967 0
0.114204 -1.67618 0
0.254441 -1.79794 0
0.345148 -1.91429 0
0.0723604 -2.02868 0
0.069422 -2.14059 0
2.71482 -1.78933 0
0.0638054 -1.77181 0
-0.282025 -1.80129 0
0.0232626 -1.85571 0
0.232061 -1.8973 0
0.201173 -1.88927 0
0.175733 -1.92399 0
0.175306 -1.88927 0
0.123866 -1.85479 0
-0.455717 -2.05779 0
-0.730652 -2.31189 0
2.71944 -2.10677 0
0.172858 -2.06883 0
-0.175991 -2.05927 0
0.056324 -2.06577 0
0.213398 -2.06386 0
0.21133 -2.04925 0
0.190848 -2.05542 0
0.117794 -1.97797 0
-0.0019817 -1.90757 0
-0.716159 -2.11352 0
-1.24733 -2.40487 0
2.57408 -2.30292 0
0.176732 -2.28889 0
-0.170841 -2.24558 0
0.0210192 -2.20794 0
0.151143 -2.16932 0
0.163225 -2.14191 0
0.148871 -2.12405 0
0.0710612 -2.05868 0
-0.0522491 -2.00016 0
-0.743573 -2.1911 0
-1.42275 -2.47003 0
2.29936 -2.51572 0
0.173645 -2.52106 0
-0.166923 -2.45391 0
-0.0177132 -2.38551 0
0.0871516 -2.32215 0
0.112975 -2.2796 0
0.102717 -2.23442 0
-0.0101792 -2.17732 0
-0.16247 -2.1267 0
-0.796 -2.29404 0
-1.48812 -2.54744 0
1.95448 -2.88755 0
0.207046 -2.87574 0
-0.131637 -2.79242 0
-0.053081 -2.703 0
0.0061545 -2.62024 0
0.0464361 -2.56224 0
0.0511461 -2.49204 0
-0.0976647 -2.43796 0
-0.277933 -2.38978 0
-0.868032 -2.50663 0
-1.53781 -2.69559 0
1.6067 -3.58832 0
0.233354 -3.51601 0
-0.111486 -3.40694 0
-0.118602 -3.29232 0
-0.119913 -3.18196 0
-0.0643819 -3.09818 0
-0.0336334 -2.99693 0
-0.186496 -2.9426 0
-0.367674 -2.89589 0
-0.941263 -2.94311 0
-1.60726 -3.03142 0
1.209 -4.80967 0
0.199803 -4.65244 0
-0.1511 -4.51575 0
-0.258598 -4.37031 0
-0.339636 -4.19316 0
-0.263563 -4.07234 0
-0.180501 -3.88982 0
-0.300849 -3.84175 0
-0.446552 -3.79412 0
-1.00092 -3.73843 0
-1.66209 -3.68643 0
SCALARS mass double 1
LOOKUP_TABLE default
2.67769
2.67769
2.67769
2.67769
2.67769
2.67769
2.67769
2.67769
2.67769
2.67769
2.67769
2.67769
2.67769
2.67769
2.67769
2.67769
2.67769
2.67769
2.67769
2.67769
2.67769
2.67769
2.67769
2.67769
2.67769
2.67769
2.67769
2.67769
2.67769
2.67769
2.67769
2.67769
2.67769
2.67769
2.67769
2.67769
2.67769
2.67769
2.67769
2.67769
2.67769
2.67769
2.67769
2.67769
2.67769
2.67769
2.67769
2.67769
2.67769
2.67769
2.67769
2.67769
2.67769
2.67769
2.67769
2.67769
2.67769
2.67769
2.67769
2.67769
2.67769
2.67769
2.67769
2.67769
2.67769
2.67769
2.67769
2.67769
2.67769
2.67769
2.67769
2.67769
2.67769
2.67769
2.67769
2.67769
2.67769
2.67769
2.67769
2.67769
2.67769
2.67769
2.67769
2.67769
2.67769
2.67769
2.67769
2.67769
2.67769
2.67769
2.67769
2.67769
2.67769
2.67769
2.67769
2.67769
2.67769
2.67769
2.67769
2.67769
2.67769
2.67769
2.67769
2.67769
2.67769
2.67769
2.67769
2.67769
2.67769
2.67769
2.67769
2.67769
2.67769
2.67769
2.67769
2.67769
2.67769
2.67769
2.67769
2.67769
2.67769
SCALARS volume double 1
LOOKUP_TABLE default
0.000175989
0.000150222
0.000106316
9.81127e-05
0.000105377
0.000102689
9.43153e-05
0.000112138
9.98651e-05
0.000212677
0.000176247
0.000221448
0.000182058
8.31036e-05
7.80104e-05
0.000111377
0.000108388
8.14813e-05
9.45788e-05
6.35916e-05
3.49196e-05
3.0048e-05
0.000111151
7.99909e-05
4.00013e-05
4.06662e-05
7.69032e-05
7.67134e-05
4.98014e-05
6.12244e-05
4.00313e-05
1.5704e-05
8.31009e-06
9.841e-05
6.77203e-05
3.52849e-05
3.69424e-05
7.55569e-05
7.77751e-05
4.51309e-05
5.41803e-05
4.16942e-05
1.63699e-05
7.84399e-06
0.000109882
7.32787e-05
3.95561e-05
4.24132e-05
9.10372e-05
9.5365e-05
4.95917e-05
5.80074e-05
4.71819e-05
2.36054e-05
9.55417e-06
0.00016699
0.00010598
5.9128e-05
6.37542e-05
0.000140241
0.000151856
6.89725e-05
7.56869e-05
5.92172e-05
4.2779e-05
2.061e-05
0.000228225
0.000138872
7.7241e-05
8.37235e-05
0.000178626
0.000197955
8.27658e-05
8.4938e-05
6.50241e-05
5.51324e-05
3.40603e-05
0.000263221
0.000159544
8.92021e-05
9.48248e-05
0.000189689
0.000210539
8.80937e-05
8.8831e-05
6.70856e-05
5.71521e-05
4.40707e-05
0.000261265
0.000168459
9.35365e-05
9.91234e-05
0.000182895
0.000201761
9.51825e-05
9.08364e-05
6.94249e-05
5.90536e-05
5.09304e-05
0.000253341
0.000185997
9.90902e-05
0.000106447
0.000185038
0.000203732
0.000117635
0.000100079
7.80444e-05
6.44931e-05
5.9069e-05
0.000250336
0.000205493
0.000108585
0.000115685
0.000196166
0.000117259
0.000138786
0.00011065
8.54787e-05
7.17852e-05
6.80535e-05
TENSORS stress double
5076.25 6431.7 0
6431.7 5426.09 0
0 0 0
5076.31 24822.1 0
24822.1 5298.02 0
0 0 0
4998.7 25139.8 0
25139.8 5236.82 0
0 0 0
5005 8523.87 0
8523.87 5217.63 0
0 0 0
5030.54 -1747.19 0
-1747.19 5246.49 0
0 0 0
5031.78 1114.17 0
1114.17 5404.24 0
0 0 0
4992.86 1015.16 0
1015.16 5699.52 0
0 0 0
4977.78 -15910.8 0
-15910.8 6463.82 0
0 0 0
4957.05 -19202.8 0
-19202.8 7208.33 0
0 0 0
2391.06 -11001.5 0
-11001.5 7667.61 0
0 0 0
3804.53 16959.8 0
16959.8 6270.71 0
0 0 0
5075.42 2477.28 0
2477.28 5216.14 0
0 0 0
5075.62 23925.5 0
23925.5 5086.13 0
0 0 0
4846.17 18379 0
18379 5082.95 0
0 0 0
4862.7 4044.86 0
4044.86 5078.77 0
0 0 0
4938.21 -3085.55 0
-3085.55 5116 0
0 0 0
4942.03 -131.959 0
-131.959 5286.03 0
0 0 0
4822.67 1684.66 0
1684.66 5604.37 0
0 0 0
4783.67 -13527.1 0
-13527.1 6238.66 0
0 0 0
4737.42 -13319.9 0
-13319.9 6845.05 0
0 0 0
4526.75 39963.5 0
39963.5 6794.09 0
0 0 0
4221.98 55409.1 0
55409.1 6498.98 0
0 0 0
5074.76 -2946.47 0
-2946.47 5047.94 0
0 0 0
4686.13 12661.7 0
12661.7 4945.34 0
0 0 0
4715.37 6650.83 0
6650.83 4952.77 0
0 0 0
4737.09 -729.6 0
-729.6 4956.77 0
0 0 0
4855.15 -2370.67 0
-2370.67 4999.3 0
0 0 0
4861 -1233.68 0
-1233.68 5179.29 0
0 0 0
4665.64 1620.8 0
1620.8 5503.62 0
0 0 0
4607.49 -12564.3 0
-12564.3 6033.89 0
0 0 0
4542.28 -13058.6 0
-13058.6 6536.02 0
0 0 0
4414.05 42199.3 0
42199.3 6551.94 0
0 0 0
4219.06 82775.6 0
82775.6 6392.66 0
0 0 0
5074.45 -1952.14 0
-1952.14 4971.32 0
0 0 0
4606.87 11027.9 0
11027.9 4867.22 0
0 0 0
4632.63 5808.82 0
5808.82 4872 0
0 0 0
4652.53 211.389 0
211.389 4874.92 0
0 0 0
4795.84 -631.126 0
-631.126 4920.78 0
0 0 0
4801.04 -1371.82 0
-1371.82 5100.28 0
0 0 0
4546.11 3712.52 0
3712.52 5408.06 0
0 0 0
4470.62 -9993.66 0
-9993.66 5854.3 0
0 0 0
4387.35 -19795.8 0
-19795.8 6271.97 0
0 0 0
4285.13 27113.8 0
27113.8 6352.12 0
0 0 0
4113.35 72660.2 0
72660.2 6244.69 0
0 0 0
5074.15 -119.083 0
-119.083 4900.19 0
0 0 0
4528.98 10765.2 0
10765.2 4790.94 0
0 0 0
4549.07 6157.36 0
6157.36 4790.74 0
0 0 0
4564.94 1541.73 0
1541.73 4790.2 0
0 0 0
4732.56 520.258 0
520.258 4837.99 0
0 0 0
4735.38 -1469.14 0
-1469.14 5012.45 0
0 0 0
4414.98 6101.02 0
6101.02 5292.29 0
0 0 0
4324.45 -5959.39 0
-5959.39 5659.47 0
0 0 0
4226.06 -18870.8 0
-18870.8 5997 0
0 0 0
4147.83 5676.19 0
5676.19 6142.92 0
0 0 0
4002.14 61299.6 0
61299.6 6099.93 0
0 0 0
5073.76 1501.01 0
1501.01 4806.2 0
0 0 0
4421.09 9700.26 0
9700.26 4686.15 0
0 0 0
4431.05 5301.6 0
5301.6 4676.59 0
0 0 0
4438.76 2333.35 0
2333.35 4668.56 0
0 0 0
4639.3 1136.27 0
1136.27 4713.96 0
0 0 0
4635.93 -2122.08 0
-2122.08 4875.37 0
0 0 0
4218.56 7648.12 0
7648.12 5107.64 0
0 0 0
4112.93 36.5969 0
36.5969 5398.59 0
0 0 0
4000.62 -9200.25 0
-9200.25 5663.14 0
0 0 0
3938.95 -7722.77 0
-7722.77 5843.28 0
0 0 0
3832.94 35116.1 0
35116.1 5895.43 0
0 0 0
5073.19 2209.66 0
2209.66 4674.95 0
0 0 0
4266.59 6060.81 0
6060.81 4537.76 0
0 0 0
4261.27 3467.62 0
3467.62 4513.7 0
0 0 0
4255.44 2455.37 0
2455.37 4492.85 0
0 0 0
4502.2 1543.36 0
1543.36 4525.44 0
0 0 0
4486.37 -2284.71 0
-2284.71 4661.8 0
0 0 0
3929.65 8167.55 0
8167.55 4827.68 0
0 0 0
3811.99 5457.58 0
5457.58 5071.59 0
0 0 0
3689.91 1115.92 0
1115.92 5297.77 0
0 0 0
3634.65 -4713.32 0
-4713.32 5478.28 0
0 0 0
3568.3 21301.6 0
21301.6 5611.19 0
0 0 0
5072.48 1907.97 0
1907.97 4514.22 0
0 0 0
4078.45 2908.12 0
2908.12 4358.92 0
0 0 0
4055.97 1694.7 0
1694.7 4318.19 0
0 0 0
4034.17 2506.97 0
2506.97 4281.84 0
0 0 0
4336.83 2277.04 0
2277.04 4292.48 0
0 0 0
4304.51 -936 0
-936 4398.01 0
0 0 0
3583.05 8167.36 0
8167.36 4498.4 0
0 0 0
3459.66 9191.84 0
9191.84 4733.26 0
0 0 0
3334.7 7830.82 0
7830.82 4958.54 0
0 0 0
3281.76 3671.49 0
3671.49 5144.9 0
0 0 0
3239.32 17788.6 0
17788.6 5322.03 0
0 0 0
5071.7 1378.91 0
1378.91 4340.47 0
0 0 0
3878.28 676.296 0
676.296 4169.89 0
0 0 0
3839.45 1112.47 0
1112.47 4112.92 0
0 0 0
3801.93 2669.55 0
2669.55 4061.06 0
0 0 0
4164.27 3214.96 0
3214.96 4046.39 0
0 0 0
4115.13 1106.71 0
1106.71 4122.98 0
0 0 0
4064.43 5837.2 0
5837.2 4181 0
0 0 0
3094.41 10356.3 0
10356.3 4415.23 0
0 0 0
2971.18 10593 0
10593 4661.67 0
0 0 0
2921 8515.53 0
8515.53 4868.14 0
0 0 0
2892.19 14827.5 0
14827.5 5077.52 0
0 0 0
5070.9 1597.74 0
1597.74 4163.43 0
0 0 0
3675.68 -633.883 0
-633.883 3978.91 0
0 0 0
3620.98 1783.15 0
1783.15 3906.11 0
0 0 0
3567.59 3029.52 0
3029.52 3838.6 0
0 0 0
3990.41 4073.44 0
4073.44 3797.33 0
0 0 0
3924.44 2921.41 0
2921.41 3847.26 0
0 0 0
3858.15 32.6961 0
32.6961 3885.58 0
0 0 0
2723.56 9681.82 0
9681.82 4110.24 0
0 0 0
2614.93 10938.4 0
10938.4 5400.03 0
0 0 0
2610.41 8690.19 0
8690.19 5130.67 0
0 0 0
2608.82 9379.91 0
9379.91 4894.18 0
0 0 0
5070.07 1762 0
1762 3979.12 0
0 0 0
3463.63 -2236.86 0
-2236.86 3779.05 0
0 0 0
3392.51 626.863 0
626.863 3689.93 0
0 0 0
3322.08 2588.81 0
2588.81 3605.71 0
0 0 0
3807.58 4360.11 0
4360.11 3534.7 0
0 0 0
3724.48 2846.37 0
2846.37 5652.2 0
0 0 0
3647.4 -389.327 0
-389.327 5818.16 0
0 0 0
2586.11 7817.77 0
7817.77 5538.36 0
0 0 0
2575.39 9416.11 0
9416.11 5110.35 0
0 0 0
2571.82 7484.73 0
7484.73 4830.78 0
0 0 0
2571.22 5381.75 0
5381.75 4586.89 0
0 0 0
TENSORS strain double
0.119976 0.064317 0
0.064317 -1.53992 0
0 0 0
0.112805 0.248221 0
0.248221 -1.68885 0
0 0 0
-0.115048 0.251398 0
0.251398 -1.8023 0
0 0 0
-0.110833 0.0852387 0
0.0852387 -1.88584 0
0 0 0
0.0273041 -0.0174719 0
-0.0174719 -1.9535 0
0 0 0
0.0269889 0.0111417 0
0.0111417 -1.97916 0
0 0 0
-0.0764864 0.0101516 0
0.0101516 -1.96053 0
0 0 0
-0.0770684 -0.159108 0
-0.159108 -1.79324 0
0 0 0
-0.387554 -0.192028 0
-0.192028 -1.60039 0
0 0 0
-1.28418 -0.110015 0
-0.110015 0.0448492 0
0 0 0
-2.15858 0.169598 0
0.169598 0.765872 0
0 0 0
0.358648 0.0247728 0
0.0247728 -1.55103 0
0 0 0
0.335086 0.239255 0
0.239255 -1.72071 0
0 0 0
-0.343195 0.18379 0
0.18379 -1.81695 0
0 0 0
-0.331888 0.0404486 0
0.0404486 -1.89071 0
0 0 0
0.0819228 -0.0308555 0
-0.0308555 -1.95312 0
0 0 0
0.0809524 -0.00131959 0
-0.00131959 -1.97952 0
0 0 0
-0.229799 0.0168466 0
0.0168466 -1.95038 0
0 0 0
-0.23083 -0.135271 0
-0.135271 -1.80611 0
0 0 0
-0.776093 -0.133199 0
-0.133199 -1.65746 0
0 0 0
-1.83021 0.399635 0
0.399635 -1.1796 0
0 0 0
-2.40197 0.554091 0
0.554091 -0.742207 0
0 0 0
0.531476 -0.0294647 0
-0.0294647 -2.4107 0
0 0 0
0.188264 0.126617 0
0.126617 -2.38583 0
0 0 0
-0.51722 0.0665083 0
0.0665083 -2.36473 0
0 0 0
-0.504429 -0.007296 0
-0.007296 -2.36136 0
0 0 0
0.124681 -0.0237067 0
-0.0237067 -2.36435 0
0 0 0
0.123442 -0.0123368 0
-0.0123368 -2.36598 0
0 0 0
-0.371311 0.016208 0
0.016208 -2.29547 0
0 0 0
-0.374409 -0.125643 0
-0.125643 -2.09189 0
0 0 0
-0.977906 -0.130586 0
-0.130586 -1.90958 0
0 0 0
-1.88192 0.421993 0
0.421993 -1.91532 0
0 0 0
-2.42109 0.827756 0
0.827756 -1.98442 0
0 0 0
0.572848 -0.0195214 0
-0.0195214 -2.57308 0
0 0 0
0.139797 0.110279 0
0.110279 -2.50139 0
0 0 0
-0.558774 0.0580882 0
0.0580882 -2.44574 0
0 0 0
-0.549697 0.00211389 0
0.00211389 -2.40976 0
0 0 0
0.12652 -0.00631126 0
-0.00631126 -2.38373 0
0 0 0
0.126135 -0.0137182 0
-0.0137182 -2.35514 0
0 0 0
-0.494942 0.0371252 0
0.0371252 -2.26774 0
0 0 0
-0.505172 -0.0999366 0
-0.0999366 -2.08022 0
0 0 0
-0.94368 -0.197958 0
-0.197958 -1.9029 0
0 0 0
-1.75921 0.271138 0
0.271138 -1.99787 0
0 0 0
-2.30394 0.726602 0
0.726602 -2.15665 0
0 0 0
0.60506 -0.00119083 0
-0.00119083 -2.49535 0
0 0 0
0.101259 0.107652 0
0.107652 -2.38281 0
0 0 0
-0.587082 0.0615736 0
0.0615736 -2.303 0
0 0 0
-0.581186 0.0154173 0
0.0154173 -2.24047 0
0 0 0
0.115415 0.00520258 0
0.00520258 -2.18739 0
0 0 0
0.115547 -0.0146914 0
-0.0146914 -2.14199 0
0 0 0
-0.627776 0.0610102 0
0.0610102 -2.03983 0
0 0 0
-0.645351 -0.0595939 0
-0.0595939 -1.87034 0
0 0 0
-0.996815 -0.188708 0
-0.188708 -1.72624 0
0 0 0
-1.57529 0.0567619 0
0.0567619 -1.82488 0
0 0 0
-2.19899 0.612996 0
0.612996 -2.06611 0
0 0 0
0.634668 0.0150101 0
0.0150101 -2.10851 0
0 0 0
0.0567455 0.0970026 0
0.0970026 -1.96946 0
0 0 0
-0.611374 0.053016 0
0.053016 -1.88055 0
0 0 0
-0.609186 0.0233335 0
0.0233335 -1.80891 0
0 0 0
0.088261 0.0113627 0
0.0113627 -1.73127 0
0 0 0
0.0881583 -0.0212208 0
-0.0212208 -1.65295 0
0 0 0
-0.778773 0.0764812 0
0.0764812 -1.56114 0
0 0 0
-0.7993 0.000365969 0
0.000365969 -1.45152 0
0 0 0
-1.12373 -0.0920025 0
-0.0920025 -1.37357 0
0 0 0
-1.41423 -0.0772277 0
-0.0772277 -1.40313 0
0 0 0
-1.89896 0.351161 0
0.351161 -1.62219 0
0 0 0
0.647367 0.0220966 0
0.0220966 -1.8111 0
0 0 0
0.0492118 0.0606081 0
0.0606081 -1.6924 0
0 0 0
-0.620673 0.0346762 0
0.0346762 -1.60727 0
0 0 0
-0.620936 0.0245537 0
0.0245537 -1.52812 0
0 0 0
0.0417213 0.0154336 0
0.0154336 -1.44559 0
0 0 0
0.040276 -0.0228471 0
-0.0228471 -1.34334 0
0 0 0
-0.89017 0.0816755 0
0.0816755 -1.26955 0
0 0 0
-0.905192 0.0545758 0
0.0545758 -1.23081 0
0 0 0
-1.20402 0.0111592 0
0.0111592 -1.19936 0
0 0 0
-1.36776 -0.0471332 0
-0.0471332 -1.19947 0
0 0 0
-1.67851 0.213016 0
0.213016 -1.35452 0
0 0 0
0.627487 0.0190797 0
0.0190797 -1.65074 0
0 0 0
0.0588647 0.0290812 0
0.0290812 -1.56542 0
0 0 0
-0.603478 0.016947 0
0.016947 -1.48336 0
0 0 0
-0.60389 0.0250697 0
0.0250697 -1.42335 0
0 0 0
-0.00697044 0.0227704 0
0.0227704 -1.3394 0
0 0 0
-0.00956124 -0.00936 0
-0.00936 -1.23483 0
0 0 0
-0.918233 0.0816736 0
0.0816736 -1.18104 0
0 0 0
-0.925603 0.0919184 0
0.0919184 -1.16702 0
0 0 0
-1.19097 0.0783082 0
0.0783082 -1.18118 0
0 0 0
-1.34246 0.0367149 0
0.0367149 -1.1881 0
0 0 0
-1.50995 0.177886 0
0.177886 -1.27143 0
0 0 0
0.581592 0.0137891 0
0.0137891 -1.61421 0
0 0 0
0.0928159 0.00676296 0
0.00676296 -1.54878 0
0 0 0
-0.56987 0.0111247 0
0.0111247 -1.47207 0
0 0 0
-0.569695 0.0266955 0
0.0266955 -1.41585 0
0 0 0
-0.0427256 0.0321496 0
0.0321496 -1.34226 0
0 0 0
-0.0453475 0.0110671 0
0.0110671 -1.24391 0
0 0 0
-0.855232 0.058372 0
0.058372 -1.17194 0
0 0 0
-0.884807 0.103563 0
0.103563 -1.18777 0
0 0 0
-1.12154 0.10593 0
0.10593 -1.21798 0
0 0 0
-1.2683 0.0851553 0
0.0851553 -1.23035 0
0 0 0
-1.34915 0.148275 0
0.148275 -1.29158 0
0 0 0
0.529594 0.0159774 0
0.0159774 -1.59418 0
0 0 0
0.148847 -0.00633883 0
-0.00633883 -1.51067 0
0 0 0
-0.536956 0.0178315 0
0.0178315 -1.44972 0
0 0 0
-0.535987 0.0302952 0
0.0302952 -1.38149 0
0 0 0
-0.0642106 0.0407344 0
0.0407344 -1.31153 0
0 0 0
-0.0661723 0.0292141 0
0.0292141 -1.21588 0
0 0 0
-0.691949 0.000326961 0
0.000326961 -1.13135 0
0 0 0
-0.821377 0.0968182 0
0.0968182 -1.15839 0
0 0 0
-1.03726 0.109384 0
0.109384 -1.18917 0
0 0 0
-1.18928 0.0869019 0
0.0869019 -1.22379 0
0 0 0
-1.23389 0.0937991 0
0.0937991 -1.26294 0
0 0 0
0.477747 0.01762 0
0.01762 -1.55498 0
0 0 0
0.201313 -0.0223686 0
-0.0223686 -1.4678 0
0 0 0
-0.507992 0.00626863 0
0.00626863 -1.39066 0
0 0 0
-0.505011 0.0258881 0
0.0258881 -1.33228 0
0 0 0
-0.0743368 0.0436011 0
0.0436011 -1.24551 0
0 0 0
-0.0750193 0.0284637 0
0.0284637 -1.59852 0
0 0 0
-0.570846 -0.00389327 0
-0.00389327 -1.09171 0
0 0 0
-0.751044 0.0781777 0
0.0781777 -1.13154 0
0 0 0
-0.965288 0.0941611 0
0.0941611 -1.17226 0
0 0 0
-1.12527 0.0748473 0
0.0748473 -1.18324 0
0 0 0
-1.15628 0.0538175 0
0.0538175 -1.20314 0
0 0 0
