# vtk DataFile Version 3.0
MPM2D particles
ASCII
DATASET POLYDATA
POINTS 121 double
0.0142324 6.76019e-13 0
0.0423199 2.02723e-13 0
0.06703 6.21153e-14 0
0.0890636 2.00884e-14 0
0.112229 6.26807e-14 0
0.137809 7.42745e-11 0
0.162773 4.56351e-08 0
0.185282 4.92719e-06 0
0.205683 0.000392219 0
0.198274 0.000739389 0
0.188301 0.000173378 0
0.0184116 1.7157e-12 0
0.053622 3.81454e-13 0
0.0745411 1.28709e-13 0
0.0917055 5.28983e-14 0
0.11167 1.60672e-13 0
0.13845 2.65493e-10 0
0.163023 1.46724e-07 0
0.181347 6.84666e-06 0
0.197118 0.000211583 0
0.196278 0.000333135 0
0.191349 0.000195405 0
0.0222033 2.27174e-12 0
0.0620323 3.94396e-13 0
0.0792995 1.61032e-13 0
0.0934841 7.71466e-14 0
0.111286 2.30612e-13 0
0.139014 4.96392e-10 0
0.162861 2.31656e-07 0
0.178047 5.7601e-06 0
0.190977 9.68359e-05 0
0.191857 0.000154226 0
0.189448 0.000126532 0
0.0233027 2.5389e-12 0
0.064352 4.25234e-13 0
0.0809086 1.83381e-13 0
0.0944245 9.21424e-14 0
0.111786 3.36893e-13 0
0.13942 7.09142e-10 0
0.162219 2.64158e-07 0
0.17511 4.16183e-06 0
0.186055 4.59603e-05 0
0.188386 8.98684e-05 0
0.187084 8.70558e-05 0
0.0242227 2.77759e-12 0
0.0661815 4.54719e-13 0
0.0822544 2.04426e-13 0
0.0953262 1.06501e-13 0
0.112471 5.01027e-13 0
0.139649 9.35261e-10 0
0.161243 2.71914e-07 0
0.172047 2.80747e-06 0
0.181176 2.10792e-05 0
0.184899 5.15285e-05 0
0.184877 6.17335e-05 0
0.0251707 3.10138e-12 0
0.0679609 5.0045e-13 0
0.0835984 2.3472e-13 0
0.096258 1.27002e-13 0
0.113145 7.70485e-13 0
0.139349 1.11382e-09 0
0.159547 2.51925e-07 0
0.168365 1.72532e-06 0
0.175827 9.06078e-06 0
0.180213 2.42784e-05 0
0.181949 3.93694e-05 0
0.0258205 3.61574e-12 0
0.0690924 5.86344e-13 0
0.0844083 2.85307e-13 0
0.0967536 1.59688e-13 0
0.113147 1.01312e-12 0
0.13775 9.65528e-10 0
0.15698 1.86567e-07 0
0.164523 1.05163e-06 0
0.171016 4.45267e-06 0
0.175267 1.13467e-05 0
0.178303 2.29047e-05 0
0.0257307 4.37157e-12 0
0.0689623 7.2733e-13 0
0.0842123 3.60567e-13 0
0.0964794 2.05384e-13 0
0.112289 1.02445e-12 0
0.135231 6.34692e-10 0
0.154138 1.12477e-07 0
0.161379 7.18699e-07 0
0.167597 2.83672e-06 0
0.171739 7.01207e-06 0
0.175262 1.53127e-05 0
0.0250289 5.32681e-12 0
0.0678911 9.19137e-13 0
0.0833001 4.56548e-13 0
0.0956659 2.61075e-13 0
0.110963 8.68704e-13 0
0.132641 3.88637e-10 0
0.151484 6.87377e-08 0
0.159073 5.57726e-07 0
0.165364 2.21556e-06 0
0.16959 5.56229e-06 0
0.173308 1.25773e-05 0
0.0242096 6.37639e-12 0
0.0666046 1.14275e-12 0
0.0822037 5.66078e-13 0
0.0946605 3.24261e-13 0
0.109492 6.81972e-13 0
0.130291 2.4406e-10 0
0.148992 4.24247e-08 0
0.157261 4.35411e-07 0
0.163735 1.89795e-06 0
0.168079 4.87942e-06 0
0.171915 1.12925e-05 0
0.0234378 7.50838e-12 0
0.0653158 1.39949e-12 0
0.081057 6.91862e-13 0
0.093527 3.97984e-13 0
0.107887 5.05248e-13 0
0.128053 1.54626e-10 0
0.146531 2.58883e-08 0
0.155567 3.18071e-07 0
0.162294 1.66331e-06 0
0.166731 4.35414e-06 0
0.170598 1.01463e-05 0
VERTICES 121 242
1 0
1 1
1 2
1 3
1 4
1 5
1 6
1 7
1 8
1 9
1 10
1 11
1 12
1 13
1 14
1 15
1 16
1 17
1 18
1 19
1 20
1 21
1 22
1 23
1 24
1 25
1 26
1 27
1 28
1 29
1 30
1 31
1 32
1 33
1 34
1 35
1 36
1 37
1 38
1 39
1 40
1 41
1 42
1 43
1 44
1 45
1 46
1 47
1 48
1 49
1 50
1 51
1 52
1 53
1 54
1 55
1 56
1 57
1 58
1 59
1 60
1 61
1 62
1 63
1 64
1 65
1 66
1 67
1 68
1 69
1 70
1 71
1 72
1 73
1 74
1 75
1 76
1 77
1 78
1 79
1 80
1 81
1 82
1 83
1 84
1 85
1 86
1 87
1 88
1 89
1 90
1 91
1 92
1 93
1 94
1 95
1 96
1 97
1 98
1 99
1 100
1 101
1 102
1 103
1 104
1 105
1 106
1 107
1 108
1 109
1 110
1 111
1 112
1 113
1 114
1 115
1 116
1 117
1 118
1 119
1 120
POINT_DATA 121
VECTORS velocity double
4.38896 6.37766 0
2.11898 4.30645 0
0.92073 2.92932 0
0.749524 2.16796 0
0.570945 1.72258 0
0.40319 2.12878 0
0.155611 2.10573 0
-0.342548 0.403555 0
-0.338658 -0.987046 0
-4.49353 5.7398 0
-8.27817 9.40983 0
2.92955 0.659693 0
0.279622 -0.530198 0
-0.192002 -1.0531 0
0.189948 -1.44451 0
0.432713 -1.70388 0
0.348758 -1.48633 0
0.233055 -1.51808 0
0.153879 -2.29989 0
0.479891 -3.10294 0
-0.308736 -1.57581 0
-0.782491 -0.725639 0
1.89831 -3.29524 0
-0.84766 -3.69767 0
-0.883067 -3.86246 0
-0.174932 -4.04545 0
0.349821 -4.19836 0
0.339907 -4.15855 0
0.338534 -4.17438 0
0.531255 -4.2535 0
0.941218 -4.4083 0
1.10306 -4.34517 0
1.34978 -4.37467 0
1.88133 -3.93604 0
-0.766356 -4.21016 0
-0.773324 -4.34029 0
-0.108013 -4.48607 0
0.396657 -4.6144 0
0.417165 -4.63994 0
0.425764 -4.65677 0
0.529588 -4.53106 0
0.737119 -4.45049 0
0.607091 -4.5414 0
0.632555 -4.70733 0
1.92065 -4.39017 0
-0.589261 -4.58755 0
-0.592197 -4.67466 0
-0.0112689 -4.77703 0
0.427808 -4.87098 0
0.480771 -4.9232 0
0.492603 -4.93729 0
0.46205 -4.70035 0
0.46533 -4.5063 0
-0.00697768 -4.65526 0
-0.225432 -4.93536 0
1.897 -4.74726 0
-0.463184 -4.91804 0
-0.471892 -4.96395 0
0.033548 -5.01604 0
0.408737 -5.06259 0
0.489097 -5.10236 0
0.515682 -5.12174 0
0.418092 -4.88515 0
0.320182 -4.68975 0
-0.331644 -4.82669 0
-0.794179 -5.1061 0
1.71502 -4.99554 0
-0.463841 -5.18019 0
-0.46892 -5.1906 0
-0.00194791 -5.19666 0
0.342882 -5.2026 0
0.434322 -5.222 0
0.483087 -5.24794 0
0.385007 -5.07267 0
0.270847 -4.91077 0
-0.385872 -5.03542 0
-1.00652 -5.27441 0
1.39937 -5.26892 0
-0.505836 -5.45833 0
-0.493564 -5.44356 0
-0.0601636 -5.41756 0
0.271761 -5.39571 0
0.373493 -5.39283 0
0.43148 -5.3792 0
0.313653 -5.28779 0
0.167153 -5.14259 0
-0.440103 -5.24791 0
-1.08179 -5.45213 0
1.01307 -5.70504 0
-0.537374 -5.8597 0
-0.506306 -5.82751 0
-0.129458 -5.77937 0
0.181746 -5.73585 0
0.295391 -5.71178 0
0.370667 -5.66583 0
0.231875 -5.62863 0
0.0580116 -5.4888 0
-0.505496 -5.54563 0
-1.12413 -5.68435 0
0.623741 -6.47217 0
-0.584754 -6.54779 0
-0.541386 -6.48832 0
-0.235825 -6.41368 0
0.0459154 -6.34064 0
0.17324 -6.28625 0
0.276178 -6.20408 0
0.147452 -6.19102 0
-0.0267053 -6.06652 0
-0.570835 -6.05536 0
-1.1817 -6.09452 0
0.182589 -7.76396 0
-0.697486 -7.73572 0
-0.641726 -7.64664 0
-0.423335 -7.53961 0
-0.184529 -7.39811 0
-0.0375866 -7.30292 0
0.118246 -7.13657 0
0.0289054 -7.12511 0
-0.111821 -7.04253 0
-0.63781 -6.93346 0
-1.24363 -6.83765 0
SCALARS mass double 1
LOOKUP_TABLE default
2.67769
2.67769
2.67769
2.67769
2.67769
2.67769
2.67769
2.67769
2.67769
2.67769
2.67769
2.67769
2.67769
2.67769
2.67769
2.67769
2.67769
2.67769
2.67769
2.67769
2.67769
2.67769
2.67769
2.67769
2.67769
2.67769
2.67769
2.67769
2.67769
2.67769
2.67769
2.67769
2.67769
2.67769
2.67769
2.67769
2.67769
2.67769
2.67769
2.67769
2.67769
2.67769
2.67769
2.67769
2.67769
2.67769
2.67769
2.67769
2.67769
2.67769
2.67769
2.67769
2.67769
2.67769
2.67769
2.67769
2.67769
2.67769
2.67769
2.67769
2.67769
2.67769
2.67769
2.67769
2.67769
2.67769
2.67769
2.67769
2.67769
2.67769
2.67769
2.67769
2.67769
2.67769
2.67769
2.67769
2.67769
2.67769
2.67769
2.67769
2.67769
2.67769
2.67769
2.67769
2.67769
2.67769
2.67769
2.67769
2.67769
2.67769
2.67769
2.67769
2.67769
2.67769
2.67769
2.67769
2.67769
2.67769
2.67769
2.67769
2.67769
2.67769
2.67769
2.67769
2.67769
2.67769
2.67769
2.67769
2.67769
2.67769
2.67769
2.67769
2.67769
2.67769
2.67769
2.67769
2.67769
2.67769
2.67769
2.67769
2.67769
SCALARS volume double 1
LOOKUP_TABLE default
4.58902e-14
1.36387e-14
3.2615e-15
1.06013e-15
3.81801e-15
4.52242e-12
2.48429e-09
2.66567e-07
1.52976e-05
8.23561e-06
8.96441e-07
5.04169e-14
1.04453e-14
1.75781e-15
7.32233e-16
3.41841e-15
5.64162e-12
2.22609e-09
1.02361e-07
1.77886e-06
9.03367e-07
2.78361e-07
2.23192e-14
3.0054e-15
6.65919e-16
3.46072e-16
2.102e-15
4.62497e-12
1.30028e-09
3.39566e-08
3.16203e-07
1.54521e-07
5.00981e-08
1.91128e-14
2.26092e-15
5.39447e-16
2.9792e-16
2.36708e-15
5.21144e-12
1.02516e-09
1.65168e-08
1.18982e-07
7.73626e-08
2.86023e-08
2.07698e-14
2.22513e-15
5.62289e-16
3.24617e-16
3.44173e-15
6.76382e-12
9.14741e-10
9.44406e-09
4.92055e-08
5.36779e-08
2.1852e-08
3.07646e-14
2.92434e-15
7.78656e-16
4.60518e-16
6.36092e-15
9.8398e-12
8.87694e-10
5.76624e-09
2.04846e-08
3.65795e-08
2.54403e-08
4.16192e-14
3.57247e-15
9.61146e-16
5.79153e-16
8.0116e-15
8.18748e-12
5.77452e-10
2.90186e-09
8.27393e-09
1.67803e-08
1.95067e-08
4.90282e-14
4.04696e-15
1.0959e-15
6.48933e-16
6.58257e-15
4.30377e-12
2.90262e-10
1.55622e-09
4.14385e-09
8.25552e-09
1.32433e-08
5.09472e-14
4.39953e-15
1.17236e-15
6.87709e-16
4.29819e-15
1.99346e-12
1.56405e-10
9.6444e-10
2.64391e-09
5.35997e-09
1.00389e-08
5.19694e-14
5.05098e-15
1.27786e-15
7.55386e-16
2.82417e-15
1.03689e-12
9.72032e-11
6.72578e-10
2.06917e-09
4.18707e-09
8.56738e-09
5.39659e-14
5.7972e-15
1.44261e-15
8.43778e-16
1.86866e-15
3.16081e-13
5.93241e-11
4.72725e-10
1.70069e-09
3.53436e-09
7.40836e-09
TENSORS stress double
5076.67 45973.8 0
45973.8 932.187 0
0 0 0
5076.67 142843 0
142843 607.365 0
0 0 0
5076.67 142121 0
142121 60.7757 0
0 0 0
5076.67 79498.6 0
79498.6 -593.174 0
0 0 0
5076.67 1705.01 0
1705.01 179.943 0
0 0 0
5076.67 -119956 0
-119956 4784.4 0
0 0 0
5076.67 -228525 0
-228525 8604.43 0
0 0 0
5076.67 -297263 0
-297263 9548.23 0
0 0 0
5076.48 -348114 0
-348114 10390.2 0
0 0 0
5076.31 -301276 0
-301276 10067.4 0
0 0 0
5076.59 -259311 0
-259311 9668.93 0
0 0 0
5076.67 53239.8 0
53239.8 883.856 0
0 0 0
5076.67 168829 0
168829 458.717 0
0 0 0
5076.67 119597 0
119597 -162.151 0
0 0 0
5076.67 69382.3 0
69382.3 -671.586 0
0 0 0
5076.67 3353.12 0
3353.12 79.3169 0
0 0 0
5076.67 -124070 0
-124070 4899.69 0
0 0 0
5076.67 -226991 0
-226991 8614.91 0
0 0 0
5076.67 -283954 0
-283954 9383.15 0
0 0 0
5076.57 -319975 0
-319975 10037.4 0
0 0 0
5076.51 -262796 0
-262796 9997.88 0
0 0 0
5076.58 -232491 0
-232491 9795.99 0
0 0 0
5076.67 58030.9 0
58030.9 840.006 0
0 0 0
5076.67 140001 0
140001 209.102 0
0 0 0
5076.67 97838.1 0
97838.1 -303.379 0
0 0 0
5076.67 60778.7 0
60778.7 -724.372 0
0 0 0
5076.67 6179.05 0
6179.05 10.0845 0
0 0 0
5076.67 -127694 0
-127694 5001.24 0
0 0 0
5076.67 -225348 0
-225348 8608.12 0
0 0 0
5076.67 -273743 0
-273743 9244.78 0
0 0 0
5076.63 -303336 0
-303336 9783.84 0
0 0 0
5076.6 -248858 0
-248858 9818.75 0
0 0 0
5076.61 -200638 0
-200638 9718.67 0
0 0 0
5076.67 61915.8 0
61915.8 827.292 0
0 0 0
5076.67 133484 0
133484 140.256 0
0 0 0
5076.67 93574.4 0
93574.4 -351.136 0
0 0 0
5076.67 59675.4 0
59675.4 -752.283 0
0 0 0
5076.67 5651.29 0
5651.29 100.215 0
0 0 0
5076.67 -129644 0
-129644 5074.4 0
0 0 0
5076.67 -220770 0
-220770 8581.21 0
0 0 0
5076.67 -263179 0
-263179 9121.68 0
0 0 0
5076.65 -297123 0
-297123 9579.2 0
0 0 0
5076.63 -254526 0
-254526 9675.4 0
0 0 0
5076.63 -204186 0
-204186 9620.91 0
0 0 0
5076.67 66148.8 0
66148.8 816.653 0
0 0 0
5076.67 129360 0
129360 85.9564 0
0 0 0
5076.67 91047.7 0
91047.7 -391.079 0
0 0 0
5076.67 59036.7 0
59036.7 -779.045 0
0 0 0
5076.67 3650.99 0
3650.99 223.458 0
0 0 0
5076.67 -130675 0
-130675 5115.66 0
0 0 0
5076.67 -215039 0
-215039 8540.25 0
0 0 0
5076.67 -250824 0
-250824 8993.27 0
0 0 0
5076.66 -283448 0
-283448 9375.45 0
0 0 0
5076.65 -266547 0
-266547 9530.52 0
0 0 0
5076.64 -209341 0
-209341 9529.24 0
0 0 0
5076.67 70189 0
70189 805.689 0
0 0 0
5076.67 124523 0
124523 33.1444 0
0 0 0
5076.67 87292.5 0
87292.5 -430.969 0
0 0 0
5076.67 57757.2 0
57757.2 -806.701 0
0 0 0
5076.67 1253.92 0
1253.92 344.746 0
0 0 0
5076.67 -129588 0
-129588 5061.57 0
0 0 0
5076.67 -207976 0
-207976 8469.12 0
0 0 0
5076.67 -234569 0
-234569 8838.9 0
0 0 0
5076.67 -259494 0
-259494 9151.55 0
0 0 0
5076.66 -267214 0
-267214 9334.97 0
0 0 0
5076.66 -227147 0
-227147 9407.22 0
0 0 0
5076.67 72389.2 0
72389.2 798.175 0
0 0 0
5076.67 118448 0
118448 -0.435509 0
0 0 0
5076.67 83639.4 0
83639.4 -455.008 0
0 0 0
5076.67 56666.4 0
56666.4 -821.409 0
0 0 0
5076.67 2043.12 0
2043.12 345.159 0
0 0 0
5076.67 -121550 0
-121550 4773.79 0
0 0 0
5076.66 -198454 0
-198454 8235.11 0
0 0 0
5076.67 -217820 0
-217820 8677.79 0
0 0 0
5076.67 -235456 0
-235456 8949.96 0
0 0 0
5076.67 -250125 0
-250125 9128 0
0 0 0
5076.66 -230097 0
-230097 9254.9 0
0 0 0
5076.67 71437.7 0
71437.7 799.214 0
0 0 0
5076.67 115498 0
115498 3.4239 0
0 0 0
5076.67 82136.3 0
82136.3 -449.19 0
0 0 0
5076.67 57087.1 0
57087.1 -813.271 0
0 0 0
5076.67 7430.77 0
7430.77 190.67 0
0 0 0
5076.67 -107423 0
-107423 4320.28 0
0 0 0
5076.67 -187963 0
-187963 7723.6 0
0 0 0
5076.67 -203972 0
-203972 8545.94 0
0 0 0
5076.67 -217839 0
-217839 8806.62 0
0 0 0
5076.67 -230489 0
-230489 8980.21 0
0 0 0
5076.67 -223540 0
-223540 9127.65 0
0 0 0
5076.67 68519.8 0
68519.8 807.329 0
0 0 0
5076.67 115455 0
115455 35.2169 0
0 0 0
5076.67 83331 0
83331 -422.114 0
0 0 0
5076.67 58749.4 0
58749.4 -789.128 0
0 0 0
5076.67 15321.8 0
15321.8 -48.0007 0
0 0 0
5076.67 -92236 0
-92236 3854.13 0
0 0 0
5076.67 -179167 0
-179167 7245.96 0
0 0 0
5076.67 -194528 0
-194528 8449.27 0
0 0 0
5076.67 -206794 0
-206794 8713.03 0
0 0 0
5076.67 -217417 0
-217417 8890.14 0
0 0 0
5076.67 -218666 0
-218666 9045.81 0
0 0 0
5076.67 66017.8 0
66017.8 816.804 0
0 0 0
5076.67 116800 0
116800 73.3999 0
0 0 0
5076.67 86176 0
86176 -389.575 0
0 0 0
5076.67 61021.2 0
61021.2 -759.287 0
0 0 0
5076.67 23844.3 0
23844.3 -312.757 0
0 0 0
5076.67 -78439.7 0
-78439.7 3431.19 0
0 0 0
5076.67 -172266 0
-172266 6797.4 0
0 0 0
5076.65 -187295 0
-187295 8285.82 0
0 0 0
5076.67 -199524 0
-199524 8644.72 0
0 0 0
5076.67 -210465 0
-210465 8826.8 0
0 0 0
5076.67 -217539 0
-217539 8987.43 0
0 0 0
5076.67 63580.5 0
63580.5 825.73 0
0 0 0
5076.67 117868 0
117868 111.652 0
0 0 0
5076.67 87305.7 0
87305.7 -355.542 0
0 0 0
5076.67 62764 0
62764 -725.645 0
0 0 0
5076.67 32476.1 0
32476.1 -601.676 0
0 0 0
5076.67 -67041.9 0
-67041.9 3028.28 0
0 0 0
5076.67 -160218 0
-160218 6354.32 0
0 0 0
5076.66 -181124 0
-181124 7980.94 0
0 0 0
5076.67 -194325 0
-194325 8584.28 0
0 0 0
5076.67 -204839 0
-204839 8770.26 0
0 0 0
5076.67 -214002 0
-214002 8932.25 0
0 0 0
TENSORS strain double
0.129853 0.459738 0
0.459738 -22.8195 0
0 0 0
0.120967 1.42843 0
1.42843 -23.9463 0
0 0 0
-0.123147 1.42121 0
1.42121 -25.0436 0
0 0 0
-0.118155 0.794986 0
0.794986 -26.0829 0
0 0 0
0.0234034 0.0170501 0
0.0170501 -25.0507 0
0 0 0
0.0229906 -1.19956 0
-1.19956 -18.458 0
0 0 0
-0.0868227 -2.28525 0
-2.28525 -12.2917 0
0 0 0
-0.0930698 -2.97263 0
-2.97263 -7.73825 0
0 0 0
-0.416609 -3.48114 0
-3.48114 -3.42064 0
0 0 0
-1.65247 -3.01276 0
-3.01276 -2.79353 0
0 0 0
-2.4056 -2.59311 0
-2.59311 -4.2026 0
0 0 0
0.387777 0.532398 0
0.532398 -22.9755 0
0 0 0
0.319544 1.68829 0
1.68829 -24.3798 0
0 0 0
-0.367003 1.19597 0
1.19597 -25.3838 0
0 0 0
-0.353705 0.693823 0
0.693823 -26.2023 0
0 0 0
0.070227 0.0335312 0
0.0335312 -25.1947 0
0 0 0
0.068942 -1.2407 0
-1.2407 -18.2919 0
0 0 0
-0.261314 -2.26991 0
-2.26991 -12.225 0
0 0 0
-0.276116 -2.83954 0
-2.83954 -8.49201 0
0 0 0
-0.846655 -3.19975 0
-3.19975 -5.12187 0
0 0 0
-1.94744 -2.62796 0
-2.62796 -4.67523 0
0 0 0
-2.57041 -2.32491 0
-2.32491 -5.19938 0
0 0 0
0.575677 0.580309 0
0.580309 -23.9666 0
0 0 0
0.14753 1.40001 0
1.40001 -25.4095 0
0 0 0
-0.554406 0.978381 0
0.978381 -26.1378 0
0 0 0
-0.53901 0.607787 0
0.607787 -26.75 0
0 0 0
0.105981 0.0617905 0
0.0617905 -25.7053 0
0 0 0
0.104174 -1.27694 0
-1.27694 -18.5317 0
0 0 0
-0.422396 -2.25348 0
-2.25348 -12.5941 0
0 0 0
-0.444283 -2.73743 0
-2.73743 -9.40593 0
0 0 0
-1.07745 -3.03336 0
-3.03336 -6.59194 0
0 0 0
-2.01013 -2.48858 0
-2.48858 -6.35303 0
0 0 0
-2.58219 -2.00638 0
-2.00638 -6.87127 0
0 0 0
0.624235 0.619158 0
0.619158 -24.167 0
0 0 0
0.0908804 1.33484 0
1.33484 -25.6255 0
0 0 0
-0.604422 0.935744 0
0.935744 -26.2886 0
0 0 0
-0.592859 0.596754 0
0.596754 -26.8392 0
0 0 0
0.102789 0.0565129 0
0.0565129 -25.5949 0
0 0 0
0.101482 -1.29644 0
-1.29644 -18.4152 0
0 0 0
-0.560621 -2.2077 0
-2.2077 -12.6861 0
0 0 0
-0.592472 -2.63179 0
-2.63179 -9.9599 0
0 0 0
-1.06202 -2.97123 0
-2.97123 -7.56644 0
0 0 0
-1.90312 -2.54526 0
-2.54526 -7.14094 0
0 0 0
-2.47763 -2.04186 0
-2.04186 -7.52459 0
0 0 0
0.663164 0.661488 0
0.661488 -24.121 0
0 0 0
0.0443083 1.2936 0
1.2936 -25.5862 0
0 0 0
-0.641268 0.910477 0
0.910477 -26.2041 0
0 0 0
-0.633226 0.590367 0
0.590367 -26.7091 0
0 0 0
0.0862955 0.0365099 0
0.0365099 -25.2212 0
0 0 0
0.0849985 -1.30675 0
-1.30675 -18.1422 0
0 0 0
-0.709095 -2.15039 0
-2.15039 -12.6432 0
0 0 0
-0.750114 -2.50824 0
-2.50824 -10.3424 0
0 0 0
-1.13257 -2.83448 0
-2.83448 -8.35768 0
0 0 0
-1.73476 -2.66547 0
-2.66547 -7.6699 0
0 0 0
-2.38602 -2.09341 0
-2.09341 -7.87795 0
0 0 0
0.701787 0.70189 0
0.70189 -23.7668 0
0 0 0
-0.011337 1.24523 0
1.24523 -25.2498 0
0 0 0
-0.677616 0.872925 0
0.872925 -25.8399 0
0 0 0
-0.674014 0.577572 0
0.577572 -26.3179 0
0 0 0
0.0511967 0.0125392 0
0.0125392 -24.5904 0
0 0 0
0.0487195 -1.29588 0
-1.29588 -17.73 0
0 0 0
-0.88283 -2.07976 0
-2.07976 -12.4885 0
0 0 0
-0.928492 -2.34569 0
-2.34569 -10.6356 0
0 0 0
-1.28382 -2.59494 0
-2.59494 -9.05703 0
0 0 0
-1.59649 -2.67214 0
-2.67214 -8.18194 0
0 0 0
-2.10634 -2.27147 0
-2.27147 -8.0172 0
0 0 0
0.727448 0.723892 0
0.723892 -23.4915 0
0 0 0
-0.034854 1.18448 0
1.18448 -25.0215 0
0 0 0
-0.70429 0.836394 0
0.836394 -25.6016 0
0 0 0
-0.704363 0.566664 0
0.566664 -26.0586 0
0 0 0
-0.00697121 0.0204312 0
0.0204312 -24.3037 0
0 0 0
-0.0123881 -1.2155 0
-1.2155 -17.833 0
0 0 0
-1.01539 -1.98454 0
-1.98454 -12.7669 0
0 0 0
-1.06862 -2.1782 0
-2.1782 -11.1564 0
0 0 0
-1.39939 -2.35456 0
-2.35456 -9.81945 0
0 0 0
-1.58467 -2.50125 0
-2.50125 -8.95042 0
0 0 0
-1.91834 -2.30097 0
-2.30097 -8.46672 0
0 0 0
0.723962 0.714377 0
0.714377 -23.3275 0
0 0 0
-0.0447554 1.15498 0
1.15498 -24.8885 0
0 0 0
-0.708174 0.821363 0
0.821363 -25.469 0
0 0 0
-0.709818 0.570871 0
0.570871 -25.942 0
0 0 0
-0.0695889 0.0743077 0
0.0743077 -24.4192 0
0 0 0
-0.0781112 -1.07423 0
-1.07423 -18.3753 0
0 0 0
-1.0252 -1.87963 0
-1.87963 -13.424 0
0 0 0
-1.12893 -2.03972 0
-2.03972 -11.697 0
0 0 0
-1.42847 -2.17839 0
-2.17839 -10.4593 0
0 0 0
-1.60276 -2.30489 0
-2.30489 -9.61979 0
0 0 0
-1.79289 -2.2354 0
-2.2354 -8.9685 0
0 0 0
0.696173 0.685198 0
0.685198 -23.266 0
0 0 0
-0.0317138 1.15455 0
1.15455 -24.8248 0
0 0 0
-0.696878 0.83331 0
0.83331 -25.4178 0
0 0 0
-0.699304 0.587494 0
0.587494 -25.8991 0
0 0 0
-0.119766 0.153218 0
0.153218 -24.7648 0
0 0 0
-0.13028 -0.92236 0
-0.92236 -19.0536 0
0 0 0
-0.948691 -1.79167 0
-1.79167 -14.1007 0
0 0 0
-1.12964 -1.94528 0
-1.94528 -12.1582 0
0 0 0
-1.40372 -2.06794 0
-2.06794 -10.9188 0
0 0 0
-1.576 -2.17417 0
-2.17417 -10.065 0
0 0 0
-1.6813 -2.18666 0
-2.18666 -9.3492 0
0 0 0
0.662719 0.660178 0
0.660178 -23.2169 0
0 0 0
0.00308114 1.168 0
1.168 -24.7302 0
0 0 0
-0.686538 0.86176 0
0.86176 -25.3475 0
0 0 0
-0.689545 0.610212 0
0.610212 -25.821 0
0 0 0
-0.155684 0.238443 0
0.238443 -25.1144 0
0 0 0
-0.167488 -0.784397 0
-0.784397 -19.6327 0
0 0 0
-0.803874 -1.72266 0
-1.72266 -14.7033 0
0 0 0
-1.10248 -1.87295 0
-1.87295 -12.5335 0
0 0 0
-1.36496 -1.99524 0
-1.99524 -11.1939 0
0 0 0
-1.54531 -2.10465 0
-2.10465 -10.3343 0
0 0 0
-1.61657 -2.17539 0
-2.17539 -9.56764 0
0 0 0
0.630158 0.635805 0
0.635805 -23.1504 0
0 0 0
0.0332664 1.17868 0
1.17868 -24.6307 0
0 0 0
-0.681232 0.873057 0
0.873057 -25.2383 0
0 0 0
-0.683716 0.62764 0
0.62764 -25.7224 0
0 0 0
-0.180891 0.324761 0
0.324761 -25.4636 0
0 0 0
-0.193533 -0.670419 0
-0.670419 -20.5938 0
0 0 0
-0.702666 -1.60218 0
-1.60218 -15.2762 0
0 0 0
-1.05226 -1.81124 0
-1.81124 -12.9258 0
0 0 0
-1.33597 -1.94325 0
-1.94325 -11.4111 0
0 0 0
-1.52517 -2.04839 0
-2.04839 -10.5176 0
0 0 0
-1.58414 -2.14002 0
-2.14002 -9.74082 0
0 0 0
