# vtk DataFile Version 3.0
MPM2D particles
ASCII
DATASET POLYDATA
POINTS 121 double
0.0142323 3.2279e-06 0
0.0423197 1.92955e-06 0
0.0670298 1.31569e-06 0
0.0890636 9.8466e-07 0
0.112229 9.69638e-07 0
0.137809 1.99175e-06 0
0.162775 5.37038e-06 0
0.185328 3.79823e-05 0
0.206675 0.000249973 0
0.20108 0.0010331 0
0.189594 0.000878315 0
0.0184112 9.07636e-06 0
0.0536214 4.85897e-06 0
0.0745408 3.62723e-06 0
0.0917054 2.86809e-06 0
0.11167 2.86357e-06 0
0.138451 6.0898e-06 0
0.16303 1.67461e-05 0
0.181432 8.45972e-05 0
0.198008 0.000378039 0
0.197742 0.000638426 0
0.192536 0.000688383 0
0.0222025 1.31895e-05 0
0.0620316 6.91017e-06 0
0.0792991 5.43936e-06 0
0.0934839 4.47688e-06 0
0.111286 4.53096e-06 0
0.139015 9.92336e-06 0
0.162873 2.69631e-05 0
0.178138 0.000105947 0
0.191585 0.000366986 0
0.192767 0.000518064 0
0.190325 0.000569066 0
0.0233017 1.51438e-05 0
0.0643512 8.13611e-06 0
0.0809082 6.58587e-06 0
0.0944243 5.54276e-06 0
0.111786 5.83021e-06 0
0.139422 1.28404e-05 0
0.162234 3.3246e-05 0
0.175193 0.0001092 0
0.18646 0.000317833 0
0.189058 0.000463791 0
0.187796 0.000524629 0
0.0242216 1.69459e-05 0
0.0661806 9.32612e-06 0
0.0822539 7.72806e-06 0
0.095326 6.63116e-06 0
0.112471 7.2905e-06 0
0.139652 1.60155e-05 0
0.161259 3.85511e-05 0
0.172118 0.000106786 0
0.18144 0.000263999 0
0.185392 0.000408037 0
0.185467 0.000488083 0
0.0251694 1.93668e-05 0
0.0679599 1.09818e-05 0
0.0835979 9.33974e-06 0
0.0962578 8.19442e-06 0
0.113145 9.4544e-06 0
0.139352 2.05205e-05 0
0.159564 4.39355e-05 0
0.168423 0.000102633 0
0.175996 0.000217327 0
0.18054 0.000340681 0
0.182414 0.000445524 0
0.0258189 2.29418e-05 0
0.0690911 1.34318e-05 0
0.0844077 1.17087e-05 0
0.0967533 1.05005e-05 0
0.113147 1.24245e-05 0
0.137754 2.62656e-05 0
0.156997 4.94841e-05 0
0.164571 9.9859e-05 0
0.171137 0.000191605 0
0.175489 0.000290681 0
0.178658 0.000404432 0
0.0257287 2.76765e-05 0
0.0689608 1.65794e-05 0
0.0842115 1.46871e-05 0
0.096479 1.33644e-05 0
0.112289 1.56103e-05 0
0.135235 3.19652e-05 0
0.154156 5.86814e-05 0
0.161421 0.000100146 0
0.167698 0.000185023 0
0.17192 0.000275852 0
0.175561 0.000391439 0
0.0250267 3.31481e-05 0
0.0678892 2.01159e-05 0
0.083299 1.7961e-05 0
0.0956655 1.6468e-05 0
0.110963 1.85232e-05 0
0.132646 3.695e-05 0
0.151503 6.76123e-05 0
0.159113 0.000102997 0
0.165459 0.000189641 0
0.16976 0.000284126 0
0.173594 0.0004076 0
0.024207 3.88893e-05 0
0.0666022 2.38169e-05 0
0.0822024 2.13585e-05 0
0.0946599 1.96825e-05 0
0.109492 2.11261e-05 0
0.130296 4.13825e-05 0
0.149011 7.58568e-05 0
0.1573 0.00010795 0
0.163828 0.000198126 0
0.168247 0.000299496 0
0.172201 0.000433332 0
0.0234349 4.49338e-05 0
0.0653129 2.77747e-05 0
0.0810555 2.49882e-05 0
0.0935263 2.31332e-05 0
0.107887 2.35491e-05 0
0.128057 4.55771e-05 0
0.14655 8.37016e-05 0
0.155607 0.000117974 0
0.162385 0.000207007 0
0.166897 0.000314911 0
0.170884 0.000456854 0
VERTICES 121 242
1 0
1 1
1 2
1 3
1 4
1 5
1 6
1 7
1 8
1 9
1 10
1 11
1 12
1 13
1 14
1 15
1 16
1 17
1 18
1 19
1 20
1 21
1 22
1 23
1 24
1 25
1 26
1 27
1 28
1 29
1 30
1 31
1 32
1 33
1 34
1 35
1 36
1 37
1 38
1 39
1 40
1 41
1 42
1 43
1 44
1 45
1 46
1 47
1 48
1 49
1 50
1 51
1 52
1 53
1 54
1 55
1 56
1 57
1 58
1 59
1 60
1 61
1 62
1 63
1 64
1 65
1 66
1 67
1 68
1 69
1 70
1 71
1 72
1 73
1 74
1 75
1 76
1 77
1 78
1 79
1 80
1 81
1 82
1 83
1 84
1 85
1 86
1 87
1 88
1 89
1 90
1 91
1 92
1 93
1 94
1 95
1 96
1 97
1 98
1 99
1 100
1 101
1 102
1 103
1 104
1 105
1 106
1 107
1 108
1 109
1 110
1 111
1 112
1 113
1 114
1 115
1 116
1 117
1 118
1 119
1 120
POINT_DATA 121
VECTORS velocity double
5.06866 8.1448 0
2.79922 6.07442 0
1.35875 4.69779 0
0.816567 3.93673 0
0.398548 3.51556 0
0.353054 4.00981 0
0.189661 3.99197 0
-0.378077 1.99542 0
-1.17801 0.357739 0
-6.2494 7.215 0
-8.84429 10.9835 0
3.60951 2.42696 0
0.94348 1.23811 0
0.119583 0.71549 0
0.212515 0.324308 0
0.257629 0.0871873 0
0.30158 0.396924 0
0.265552 0.364964 0
0.117001 -0.655843 0
-0.0742581 -1.65016 0
-1.16843 -0.101388 0
-1.36743 0.806902 0
2.57848 -1.52784 0
-0.325381 -1.92923 0
-0.651587 -2.09379 0
-0.18231 -2.2766 0
0.172885 -2.40861 0
0.295326 -2.27333 0
0.370575 -2.28915 0
0.503093 -2.56612 0
0.631768 -2.88118 0
0.639496 -2.82411 0
0.941031 -2.823 0
2.56158 -2.16861 0
-0.283117 -2.44169 0
-0.568929 -2.5716 0
-0.131225 -2.71719 0
0.222103 -2.82292 0
0.374448 -2.75331 0
0.458909 -2.7631 0
0.513065 -2.80533 0
0.561286 -2.86275 0
0.301125 -2.9795 0
0.326071 -3.12783 0
2.60097 -2.6227 0
-0.136811 -2.81904 0
-0.410456 -2.90594 0
-0.0496644 -3.00814 0
0.256514 -3.07714 0
0.439064 -3.03576 0
0.52782 -3.03078 0
0.45761 -2.93467 0
0.370589 -2.85712 0
-0.206381 -3.05099 0
-0.460896 -3.32919 0
2.5774 -2.97974 0
-0.0406746 -3.1495 0
-0.312773 -3.19521 0
-0.0205397 -3.24713 0
0.240642 -3.26643 0
0.445841 -3.21594 0
0.554845 -3.19298 0
0.426828 -3.07139 0
0.277553 -2.97206 0
-0.441122 -3.16394 0
-0.960363 -3.46379 0
2.39555 -3.228 0
-0.0603467 -3.41162 0
-0.323425 -3.42183 0
-0.0643825 -3.42773 0
0.174773 -3.40641 0
0.383314 -3.34106 0
0.521887 -3.30062 0
0.406034 -3.20869 0
0.257385 -3.1308 0
-0.440394 -3.3096 0
-1.1138 -3.58622 0
2.08004 -3.50136 0
-0.100099 -3.68974 0
-0.344747 -3.67478 0
-0.117981 -3.64863 0
0.0995261 -3.60247 0
0.310372 -3.52054 0
0.456631 -3.44163 0
0.34389 -3.38267 0
0.16874 -3.31811 0
-0.470158 -3.47651 0
-1.15716 -3.72505 0
1.69389 -3.93749 0
-0.11353 -4.0911 0
-0.342098 -4.05872 0
-0.173575 -4.01043 0
0.00315732 -3.94716 0
0.219853 -3.84838 0
0.383086 -3.73736 0
0.268465 -3.69333 0
0.0675378 -3.63515 0
-0.525319 -3.74625 0
-1.18677 -3.9319 0
1.30472 -4.70463 0
-0.139166 -4.77919 0
-0.358679 -4.71953 0
-0.263002 -4.64474 0
-0.139713 -4.55699 0
0.0864513 -4.43091 0
0.27667 -4.28417 0
0.184233 -4.24236 0
-0.012065 -4.19155 0
-0.585033 -4.23621 0
-1.23812 -4.32383 0
0.863737 -5.99643 0
-0.230105 -5.96711 0
-0.439666 -5.87784 0
-0.431411 -5.77066 0
-0.377834 -5.61998 0
-0.135084 -5.45527 0
0.106984 -5.2251 0
0.0576009 -5.18226 0
-0.0928196 -5.14868 0
-0.647219 -5.09664 0
-1.29401 -5.04973 0
SCALARS mass double 1
LOOKUP_TABLE default
2.67769
2.67769
2.67769
2.67769
2.67769
2.67769
2.67769
2.67769
2.67769
2.67769
2.67769
2.67769
2.67769
2.67769
2.67769
2.67769
2.67769
2.67769
2.67769
2.67769
2.67769
2.67769
2.67769
2.67769
2.67769
2.67769
2.67769
2.67769
2.67769
2.67769
2.67769
2.67769
2.67769
2.67769
2.67769
2.67769
2.67769
2.67769
2.67769
2.67769
2.67769
2.67769
2.67769
2.67769
2.67769
2.67769
2.67769
2.67769
2.67769
2.67769
2.67769
2.67769
2.67769
2.67769
2.67769
2.67769
2.67769
2.67769
2.67769
2.67769
2.67769
2.67769
2.67769
2.67769
2.67769
2.67769
2.67769
2.67769
2.67769
2.67769
2.67769
2.67769
2.67769
2.67769
2.67769
2.67769
2.67769
2.67769
2.67769
2.67769
2.67769
2.67769
2.67769
2.67769
2.67769
2.67769
2.67769
2.67769
2.67769
2.67769
2.67769
2.67769
2.67769
2.67769
2.67769
2.67769
2.67769
2.67769
2.67769
2.67769
2.67769
2.67769
2.67769
2.67769
2.67769
2.67769
2.67769
2.67769
2.67769
2.67769
2.67769
2.67769
2.67769
2.67769
2.67769
2.67769
2.67769
2.67769
2.67769
2.67769
2.67769
SCALARS volume double 1
LOOKUP_TABLE default
2.19118e-07
1.29815e-07
6.90831e-08
5.19631e-08
5.90627e-08
1.21274e-07
2.92363e-07
2.05557e-06
9.77018e-06
1.16266e-05
4.57845e-06
2.66707e-07
1.33055e-07
4.95384e-08
3.9701e-08
6.09252e-08
1.2941e-07
2.54097e-07
1.26566e-06
3.19019e-06
1.74221e-06
9.87123e-07
1.29578e-07
5.26582e-08
2.24939e-08
2.00831e-08
4.12996e-08
9.24627e-08
1.51369e-07
6.25092e-07
1.20251e-06
5.21642e-07
2.26515e-07
1.13997e-07
4.32598e-08
1.93739e-08
1.79214e-08
4.09652e-08
9.43702e-08
1.29049e-07
4.33732e-07
8.25138e-07
4.00961e-07
1.73189e-07
1.26709e-07
4.56377e-08
2.1257e-08
2.02122e-08
5.00826e-08
1.15835e-07
1.29719e-07
3.59493e-07
6.17604e-07
4.26582e-07
1.7351e-07
1.92101e-07
6.4173e-08
3.09843e-08
2.97142e-08
7.8056e-08
1.81304e-07
1.54853e-07
3.43251e-07
4.92143e-07
5.14724e-07
2.88975e-07
2.64056e-07
8.18403e-08
3.94457e-08
3.8084e-08
9.82559e-08
2.22758e-07
1.53219e-07
2.75725e-07
3.56519e-07
4.3082e-07
3.45538e-07
3.10373e-07
9.22537e-08
4.46415e-08
4.22278e-08
1.0031e-07
2.16788e-07
1.51499e-07
2.16981e-07
2.70612e-07
3.25408e-07
3.39541e-07
3.17008e-07
9.62916e-08
4.61238e-08
4.33809e-08
9.16566e-08
1.89566e-07
1.53916e-07
1.78214e-07
2.26582e-07
2.74327e-07
3.26307e-07
3.16923e-07
1.05278e-07
4.82171e-08
4.58537e-08
8.74943e-08
1.75849e-07
1.73888e-07
1.66891e-07
2.16268e-07
2.57518e-07
3.2978e-07
3.22916e-07
1.15061e-07
5.21066e-08
4.90483e-08
8.71042e-08
9.31874e-08
1.91905e-07
1.75491e-07
2.11929e-07
2.5615e-07
3.34642e-07
TENSORS stress double
5076.68 22054.9 0
22054.9 3855.84 0
0 0 0
5076.68 71719.5 0
71719.5 3519.71 0
0 0 0
5076.62 65309.9 0
65309.9 3252.91 0
0 0 0
5076.64 20503.8 0
20503.8 3033.49 0
0 0 0
5076.63 -17112.1 0
-17112.1 3228.9 0
0 0 0
5076.59 -39337.2 0
-39337.2 4538.88 0
0 0 0
5076.43 -66815.3 0
-66815.3 5957.21 0
0 0 0
5074.94 -121691 0
-121691 7757.52 0
0 0 0
5065.46 -160811 0
-160811 9455.57 0
0 0 0
5030.13 -120369 0
-120369 8982.13 0
0 0 0
5036.73 -83305.1 0
-83305.1 8069.42 0
0 0 0
5076.68 22297.8 0
22297.8 3805.61 0
0 0 0
5076.48 81176.6 0
81176.6 3386.32 0
0 0 0
5076.53 48859.3 0
48859.3 3178.02 0
0 0 0
5076.56 12524 0
12524 3007.1 0
0 0 0
5076.55 -17637.9 0
-17637.9 3200.2 0
0 0 0
5076.41 -40963.9 0
-40963.9 4571.56 0
0 0 0
5075.9 -65137.6 0
-65137.6 5977.18 0
0 0 0
5072.8 -110871 0
-110871 7444.71 0
0 0 0
5059.6 -137929 0
-137929 8758.87 0
0 0 0
5047.83 -81857.6 0
-81857.6 8728.73 0
0 0 0
5045.44 -54411.3 0
-54411.3 8311.05 0
0 0 0
5076.68 20717 0
20717 3760.07 0
0 0 0
5076.4 59148.8 0
59148.8 3302.48 0
0 0 0
5076.46 30948.5 0
30948.5 3130.56 0
0 0 0
5076.5 5358.62 0
5358.62 2989.33 0
0 0 0
5076.47 -16307.8 0
-16307.8 3180.44 0
0 0 0
5076.24 -42396 0
-42396 4600.34 0
0 0 0
5075.42 -63603.4 0
-63603.4 5964.25 0
0 0 0
5071.81 -102718 0
-102718 7180.83 0
0 0 0
5060.01 -124860 0
-124860 8246.08 0
0 0 0
5053.18 -70155.1 0
-70155.1 8335.31 0
0 0 0
5050.81 -23429.3 0
-23429.3 8138.48 0
0 0 0
5076.68 22754.4 0
22754.4 3746.84 0
0 0 0
5076.35 54508 0
54508 3279.33 0
0 0 0
5076.42 27985.9 0
27985.9 3114.5 0
0 0 0
5076.46 5015.73 0
5015.73 2979.92 0
0 0 0
5076.42 -14889.7 0
-14889.7 3206.04 0
0 0 0
5076.11 -42768.1 0
-42768.1 4621.08 0
0 0 0
5075.13 -59427.3 0
-59427.3 5912.97 0
0 0 0
5071.65 -93963.4 0
-93963.4 6945.42 0
0 0 0
5062.18 -121508 0
-121508 7838.32 0
0 0 0
5055.57 -77757.5 0
-77757.5 8040.81 0
0 0 0
5052.78 -28287.2 0
-28287.2 7937.89 0
0 0 0
5076.68 25441.5 0
25441.5 3735.76 0
0 0 0
5076.31 51863.5 0
51863.5 3261.07 0
0 0 0
5076.37 26547.5 0
26547.5 3101.05 0
0 0 0
5076.41 5106.27 0
5106.27 2970.9 0
0 0 0
5076.35 -14229.1 0
-14229.1 3241.05 0
0 0 0
5075.98 -42909.9 0
-42909.9 4632.73 0
0 0 0
5074.88 -54304.1 0
-54304.1 5834.9 0
0 0 0
5071.75 -83491.2 0
-83491.2 6699.87 0
0 0 0
5064.59 -110712 0
-110712 7439.11 0
0 0 0
5058.06 -91765 0
-91765 7749.81 0
0 0 0
5054.4 -34693.8 0
-34693.8 7753.11 0
0 0 0
5076.69 27888.7 0
27888.7 3724.33 0
0 0 0
5076.24 48465 0
48465 3243.29 0
0 0 0
5076.31 23879.2 0
23879.2 3087.6 0
0 0 0
5076.35 4580.29 0
4580.29 2961.56 0
0 0 0
5076.26 -14007.8 0
-14007.8 3275.48 0
0 0 0
5075.78 -42994.1 0
-42994.1 4617.21 0
0 0 0
5074.63 -48293.4 0
-48293.4 5699.31 0
0 0 0
5071.93 -69500 0
-69500 6404.9 0
0 0 0
5066.68 -89964.6 0
-89964.6 7005.85 0
0 0 0
5061.07 -95164.5 0
-95164.5 7364.53 0
0 0 0
5056.29 -54190.2 0
-54190.2 7510.65 0
0 0 0
5076.69 28997.2 0
28997.2 3716.42 0
0 0 0
5076.15 43305.1 0
43305.1 3231.93 0
0 0 0
5076.21 20881.1 0
20881.1 3079.45 0
0 0 0
5076.26 3890.36 0
3890.36 2956.54 0
0 0 0
5076.13 -13211 0
-13211 3275.49 0
0 0 0
5075.53 -41173 0
-41173 4535.15 0
0 0 0
5074.54 -43348.1 0
-43348.1 5519.78 0
0 0 0
5072.04 -55116.2 0
-55116.2 6097.29 0
0 0 0
5067.83 -68848.1 0
-68848.1 6618.55 0
0 0 0
5063.3 -81023.3 0
-81023.3 6962.74 0
0 0 0
5058.12 -59286.4 0
-59286.4 7211.94 0
0 0 0
5076.69 28197.1 0
28197.1 3717.32 0
0 0 0
5076.02 40250.5 0
40250.5 3233.11 0
0 0 0
5076.1 19219.8 0
19219.8 3081.29 0
0 0 0
5076.15 4089.53 0
4089.53 2959.16 0
0 0 0
5075.98 -11161 0
-11161 3231.41 0
0 0 0
5075.28 -36843.1 0
-36843.1 4405.93 0
0 0 0
5074.14 -43908.7 0
-43908.7 5373.96 0
0 0 0
5072.01 -43208 0
-43208 5845.65 0
0 0 0
5068.11 -53324.9 0
-53324.9 6344.04 0
0 0 0
5063.95 -63527.7 0
-63527.7 6678.09 0
0 0 0
5058.67 -54558.2 0
-54558.2 6965 0
0 0 0
5076.69 26459 0
26459 3725.52 0
0 0 0
5075.88 39341.6 0
39341.6 3243.64 0
0 0 0
5075.97 19677 0
19677 3090.25 0
0 0 0
5076.02 5094.33 0
5094.33 2967.15 0
0 0 0
5075.85 -8425.37 0
-8425.37 3163.4 0
0 0 0
5075.06 -31725.1 0
-31725.1 4273.12 0
0 0 0
5073.74 -45432.4 0
-45432.4 5237.76 0
0 0 0
5071.87 -35188.7 0
-35188.7 5661.19 0
0 0 0
5067.88 -43657.5 0
-43657.5 6165.02 0
0 0 0
5063.54 -51779.7 0
-51779.7 6505.26 0
0 0 0
5057.89 -50891.4 0
-50891.4 6807.25 0
0 0 0
5076.7 25334.6 0
25334.6 3735.11 0
0 0 0
5075.74 39646.2 0
39646.2 3256.32 0
0 0 0
5075.83 21635.7 0
21635.7 3101.05 0
0 0 0
5075.9 6553.33 0
6553.33 2977.04 0
0 0 0
5075.74 -5621.53 0
-5621.53 3087.97 0
0 0 0
5074.86 -27064.1 0
-27064.1 4152.62 0
0 0 0
5073.38 -48221.7 0
-48221.7 5109.84 0
0 0 0
5072.01 -31136.5 0
-31136.5 5533.18 0
0 0 0
5067.47 -37396.9 0
-37396.9 6034.41 0
0 0 0
5062.81 -45768.3 0
-45768.3 6383.86 0
0 0 0
5056.68 -50640.3 0
-50640.3 6695.06 0
0 0 0
5076.7 24195 0
24195 3744.12 0
0 0 0
5075.58 39672.1 0
39672.1 3269.01 0
0 0 0
5075.69 21838.4 0
21838.4 3112.33 0
0 0 0
5075.76 7379.78 0
7379.78 2988.2 0
0 0 0
5075.63 -3230.04 0
-3230.04 3005.67 0
0 0 0
5074.67 -24369.2 0
-24369.2 4037.83 0
0 0 0
5073.04 -45745.5 0
-45745.5 4983.49 0
0 0 0
5071.57 -31555.1 0
-31555.1 5446.09 0
0 0 0
5067.05 -33092.1 0
-33092.1 5918.83 0
0 0 0
5062.08 -40983.4 0
-40983.4 6275.48 0
0 0 0
5055.58 -47929 0
-47929 6588.95 0
0 0 0
TENSORS strain double
0.129844 0.220549 0
0.220549 -8.05385 0
0 0 0
0.120962 0.717195 0
0.717195 -8.54561 0
0 0 0
-0.123144 0.653099 0
0.653099 -8.91107 0
0 0 0
-0.118153 0.205038 0
0.205038 -9.1872 0
0 0 0
0.023407 -0.171121 0
-0.171121 -9.20547 0
0 0 0
0.0230008 -0.393372 0
-0.393372 -8.53028 0
0 0 0
-0.0867908 -0.668153 0
-0.668153 -7.5896 0
0 0 0
-0.0927433 -1.21691 0
-1.21691 -5.70976 0
0 0 0
-0.41451 -1.60811 0
-1.60811 -3.87258 0
0 0 0
-1.64222 -1.20369 0
-1.20369 -2.46047 0
0 0 0
-2.39758 -0.833051 0
-0.833051 -2.58928 0
0 0 0
0.387752 0.222978 0
0.222978 -8.11544 0
0 0 0
0.319556 0.811766 0
0.811766 -8.71164 0
0 0 0
-0.366995 0.488593 0
0.488593 -8.9911 0
0 0 0
-0.353699 0.12524 0
0.12524 -9.21509 0
0 0 0
0.0702378 -0.176379 0
-0.176379 -9.22015 0
0 0 0
0.0689734 -0.409639 0
-0.409639 -8.51237 0
0 0 0
-0.261214 -0.651376 0
-0.651376 -7.55263 0
0 0 0
-0.275432 -1.10871 0
-1.10871 -5.99785 0
0 0 0
-0.842969 -1.37929 0
-1.37929 -4.54392 0
0 0 0
-1.94118 -0.818576 0
-0.818576 -4.02739 0
0 0 0
-2.5639 -0.544113 0
-0.544113 -3.94627 0
0 0 0
0.575641 0.20717 0
0.20717 -9.02081 0
0 0 0
0.147547 0.591488 0
0.591488 -9.45003 0
0 0 0
-0.554393 0.309485 0
0.309485 -9.58035 0
0 0 0
-0.538999 0.0535862 0
0.0535862 -9.70127 0
0 0 0
0.105998 -0.163078 0
-0.163078 -9.6417 0
0 0 0
0.104225 -0.42396 0
-0.42396 -8.88269 0
0 0 0
-0.422236 -0.636034 0
-0.636034 -7.90266 0
0 0 0
-0.44347 -1.02718 0
-1.02718 -6.52003 0
0 0 0
-1.07402 -1.2486 0
-1.2486 -5.26646 0
0 0 0
-2.00523 -0.701551 0
-0.701551 -5.14721 0
0 0 0
-2.57695 -0.234293 0
-0.234293 -5.37596 0
0 0 0
0.624194 0.227544 0
0.227544 -9.19632 0
0 0 0
0.0909004 0.54508 0
0.54508 -9.58572 0
0 0 0
-0.604406 0.279859 0
0.279859 -9.67535 0
0 0 0
-0.592846 0.0501573 0
0.0501573 -9.75789 0
0 0 0
0.102811 -0.148897 0
-0.148897 -9.64718 0
0 0 0
0.101549 -0.427681 0
-0.427681 -8.86019 0
0 0 0
-0.560425 -0.594273 0
-0.594273 -7.91854 0
0 0 0
-0.591675 -0.939634 0
-0.939634 -6.72492 0
0 0 0
-1.05924 -1.21508 0
-1.21508 -5.64524 0
0 0 0
-1.89892 -0.777575 0
-0.777575 -5.50934 0
0 0 0
-2.47296 -0.282872 0
-0.282872 -5.73946 0
0 0 0
0.663118 0.254415 0
0.254415 -9.12953 0
0 0 0
0.0443312 0.518635 0
0.518635 -9.483 0
0 0 0
-0.641249 0.265475 0
0.265475 -9.54431 0
0 0 0
-0.63321 0.0510627 0
0.0510627 -9.59649 0
0 0 0
0.086323 -0.142291 0
-0.142291 -9.43187 0
0 0 0
0.0850824 -0.429099 0
-0.429099 -8.64019 0
0 0 0
-0.708871 -0.543041 0
-0.543041 -7.75982 0
0 0 0
-0.749374 -0.834912 0
-0.834912 -6.74326 0
0 0 0
-1.13044 -1.10712 0
-1.10712 -5.85016 0
0 0 0
-1.73125 -0.91765 0
-0.91765 -5.61477 0
0 0 0
-2.38182 -0.346938 0
-0.346938 -5.82435 0
0 0 0
0.701735 0.278887 0
0.278887 -8.75388 0
0 0 0
-0.0113101 0.48465 0
0.48465 -9.08502 0
0 0 0
-0.677594 0.238792 0
0.238792 -9.13352 0
0 0 0
-0.673994 0.0458029 0
0.0458029 -9.17308 0
0 0 0
0.0512327 -0.140078 0
-0.140078 -8.95698 0
0 0 0
0.0488265 -0.429941 0
-0.429941 -8.15858 0
0 0 0
-0.882581 -0.482934 0
-0.482934 -7.40374 0
0 0 0
-0.927823 -0.695 0
-0.695 -6.59896 0
0 0 0
-1.28221 -0.899646 0
-0.899646 -5.91019 0
0 0 0
-1.59377 -0.951645 0
-0.951645 -5.56236 0
0 0 0
-2.10268 -0.541902 0
-0.541902 -5.60961 0
0 0 0
0.727386 0.289972 0
0.289972 -8.4639 0
0 0 0
-0.0348212 0.433051 0
0.433051 -8.81754 0
0 0 0
-0.704262 0.208811 0
0.208811 -8.86719 0
0 0 0
-0.704338 0.0389036 0
0.0389036 -8.89663 0
0 0 0
-0.006924 -0.13211 0
-0.13211 -8.67082 0
0 0 0
-0.0122544 -0.41173 0
-0.41173 -7.89171 0
0 0 0
-1.01502 -0.433481 0
-0.433481 -7.27434 0
0 0 0
-1.06801 -0.551162 0
-0.551162 -6.66326 0
0 0 0
-1.39809 -0.688481 0
-0.688481 -6.09949 0
0 0 0
-1.58254 -0.810233 0
-0.810233 -5.73891 0
0 0 0
-1.91522 -0.592864 0
-0.592864 -5.62094 0
0 0 0
0.723887 0.281971 0
0.281971 -8.30187 0
0 0 0
-0.0447149 0.402505 0
0.402505 -8.68899 0
0 0 0
-0.708139 0.192198 0
0.192198 -8.74134 0
0 0 0
-0.709786 0.0408953 0
0.0408953 -8.78943 0
0 0 0
-0.0695301 -0.11161 0
-0.11161 -8.58774 0
0 0 0
-0.0779542 -0.368431 0
-0.368431 -7.85118 0
0 0 0
-1.0248 -0.439087 0
-0.439087 -7.27403 0
0 0 0
-1.12835 -0.43208 0
-0.43208 -6.8304 0
0 0 0
-1.42728 -0.533249 0
-0.533249 -6.33263 0
0 0 0
-1.60085 -0.635277 0
-0.635277 -5.98765 0
0 0 0
-1.79002 -0.545582 0
-0.545582 -5.75908 0
0 0 0
0.696083 0.26459 0
0.26459 -8.25624 0
0 0 0
-0.0316645 0.393416 0
0.393416 -8.66241 0
0 0 0
-0.696835 0.19677 0
0.19677 -8.72176 0
0 0 0
-0.699265 0.0509433 0
0.0509433 -8.77473 0
0 0 0
-0.119697 -0.0842537 0
-0.0842537 -8.62662 0
0 0 0
-0.130105 -0.317251 0
-0.317251 -7.93032 0
0 0 0
-0.948251 -0.454324 0
-0.454324 -7.3369 0
0 0 0
-1.12906 -0.351887 0
-0.351887 -7.01787 0
0 0 0
-1.40255 -0.436575 0
-0.436575 -6.52689 0
0 0 0
-1.57411 -0.517797 0
-0.517797 -6.17722 0
0 0 0
-1.67841 -0.508914 0
-0.508914 -5.90701 0
0 0 0
0.662614 0.253346 0
0.253346 -8.22573 0
0 0 0
0.00313955 0.396462 0
0.396462 -8.61241 0
0 0 0
-0.686487 0.216357 0
0.216357 -8.68946 0
0 0 0
-0.689498 0.0655333 0
0.0655333 -8.73144 0
0 0 0
-0.155607 -0.0562153 0
-0.0562153 -8.63598 0
0 0 0
-0.167298 -0.270641 0
-0.270641 -7.9659 0
0 0 0
-0.803406 -0.482217 0
-0.482217 -7.36296 0
0 0 0
-1.10167 -0.311365 0
-0.311365 -7.10663 0
0 0 0
-1.36377 -0.373969 0
-0.373969 -6.60844 0
0 0 0
-1.54336 -0.457683 0
-0.457683 -6.26698 0
0 0 0
-1.61356 -0.506403 0
-0.506403 -5.95984 0
0 0 0
0.630036 0.24195 0
0.24195 -8.17662 0
0 0 0
0.0333347 0.396721 0
0.396721 -8.55755 0
0 0 0
-0.681171 0.218384 0
0.218384 -8.61993 0
0 0 0
-0.683661 0.0737978 0
0.0737978 -8.67211 0
0 0 0
-0.180806 -0.0323004 0
-0.0323004 -8.6138 0
0 0 0
-0.193329 -0.243692 0
-0.243692 -8.40917 0
0 0 0
-0.702173 -0.457455 0
-0.457455 -7.36635 0
0 0 0
-1.05141 -0.315551 0
-0.315551 -7.10704 0
0 0 0
-1.33475 -0.330921 0
-0.330921 -6.65444 0
0 0 0
-1.52317 -0.409834 0
-0.409834 -6.29002 0
0 0 0
-1.58104 -0.47929 0
-0.47929 -5.97646 0
0 0 0
