# vtk DataFile Version 3.0
MPM2D particles
ASCII
DATASET POLYDATA
POINTS 121 double
0.0138832 0.00588963 0
0.0414317 0.00517669 0
0.066323 0.00464875 0
0.0888253 0.00426323 0
0.112326 0.00395606 0
0.138057 0.00378822 0
0.163307 0.00369244 0
0.186837 0.00381857 0
0.209997 0.00406158 0
0.221516 0.0128818 0
0.224205 0.0307232 0
0.0171058 0.0175194 0
0.0504471 0.0151512 0
0.0728733 0.0137318 0
0.0911311 0.0127238 0
0.111952 0.0118759 0
0.13921 0.0113521 0
0.164725 0.0111134 0
0.185568 0.0114311 0
0.205888 0.0118485 0
0.211249 0.0186649 0
0.212176 0.0288578 0
0.0198501 0.0267871 0
0.0578124 0.0232988 0
0.0771077 0.0215135 0
0.0927208 0.0201895 0
0.111728 0.0190025 0
0.140256 0.0181727 0
0.165687 0.0179069 0
0.184313 0.0184824 0
0.20243 0.0191071 0
0.207168 0.0231661 0
0.208527 0.029911 0
0.0204545 0.031206 0
0.059526 0.0280212 0
0.0783823 0.0264362 0
0.0935702 0.0252144 0
0.112368 0.0240808 0
0.14103 0.0232149 0
0.165833 0.0231146 0
0.182603 0.0241459 0
0.198906 0.0252052 0
0.204934 0.0280927 0
0.207192 0.0339231 0
0.0209006 0.0353437 0
0.0607793 0.0326619 0
0.0794176 0.031407 0
0.0944119 0.0304181 0
0.113218 0.0294916 0
0.141663 0.0287349 0
0.165629 0.0288839 0
0.180574 0.0303583 0
0.195032 0.0318549 0
0.202566 0.0334868 0
0.206106 0.0381563 0
0.021225 0.0408921 0
0.0617349 0.03909 0
0.0803193 0.038428 0
0.0952686 0.0379147 0
0.11414 0.0374628 0
0.141949 0.0371029 0
0.164904 0.0376476 0
0.178165 0.0394981 0
0.191003 0.0413297 0
0.199386 0.0418933 0
0.204918 0.0446131 0
0.0210673 0.0488267 0
0.0615088 0.0482996 0
0.0803687 0.0485308 0
0.0955732 0.0488081 0
0.114468 0.0491969 0
0.141134 0.0497222 0
0.163413 0.0507925 0
0.175995 0.0525961 0
0.18835 0.0542669 0
0.196908 0.0541052 0
0.204155 0.0546424 0
0.0202098 0.0587448 0
0.0595356 0.0594169 0
0.0791282 0.0605619 0
0.0949817 0.061665 0
0.113998 0.0629336 0
0.139536 0.0644369 0
0.161703 0.0659625 0
0.17462 0.0671949 0
0.187369 0.0683286 0
0.196328 0.0677169 0
0.204612 0.0668574 0
0.0190791 0.0694128 0
0.0567505 0.0707555 0
0.077287 0.0725166 0
0.09391 0.0741793 0
0.113146 0.0760151 0
0.137949 0.0781267 0
0.160295 0.0800399 0
0.173973 0.0809034 0
0.187504 0.0816971 0
0.197174 0.0808846 0
0.206302 0.0793958 0
0.0180605 0.0800574 0
0.0539935 0.0817634 0
0.0754215 0.0839241 0
0.0927047 0.085969 0
0.112172 0.0881769 0
0.136591 0.0906634 0
0.159222 0.0929108 0
0.173743 0.0936423 0
0.188125 0.0943232 0
0.198484 0.0934775 0
0.208314 0.0917141 0
0.0172143 0.0909706 0
0.051488 0.0929239 0
0.073652 0.0953483 0
0.091429 0.0976802 0
0.111091 0.100169 0
0.135372 0.102915 0
0.158363 0.105464 0
0.173691 0.106283 0
0.188892 0.107074 0
0.199812 0.106371 0
0.210111 0.104719 0
VERTICES 121 242
1 0
1 1
1 2
1 3
1 4
1 5
1 6
1 7
1 8
1 9
1 10
1 11
1 12
1 13
1 14
1 15
1 16
1 17
1 18
1 19
1 20
1 21
1 22
1 23
1 24
1 25
1 26
1 27
1 28
1 29
1 30
1 31
1 32
1 33
1 34
1 35
1 36
1 37
1 38
1 39
1 40
1 41
1 42
1 43
1 44
1 45
1 46
1 47
1 48
1 49
1 50
1 51
1 52
1 53
1 54
1 55
1 56
1 57
1 58
1 59
1 60
1 61
1 62
1 63
1 64
1 65
1 66
1 67
1 68
1 69
1 70
1 71
1 72
1 73
1 74
1 75
1 76
1 77
1 78
1 79
1 80
1 81
1 82
1 83
1 84
1 85
1 86
1 87
1 88
1 89
1 90
1 91
1 92
1 93
1 94
1 95
1 96
1 97
1 98
1 99
1 100
1 101
1 102
1 103
1 104
1 105
1 106
1 107
1 108
1 109
1 110
1 111
1 112
1 113
1 114
1 115
1 116
1 117
1 118
1 119
1 120
POINT_DATA 121
VECTORS velocity double
4.64772 8.08919 0
2.62564 6.53957 0
1.28621 5.47385 0
0.76279 4.88231 0
0.311575 4.56922 0
0.0874363 5.00018 0
-0.163267 4.92003 0
-0.497166 2.85724 0
-1.10528 1.16657 0
-6.02121 7.2077 0
-9.08371 11.6625 0
3.31002 2.7042 0
0.959635 2.03782 0
0.112029 1.65403 0
0.191899 1.37522 0
0.184621 1.21046 0
0.0367412 1.44506 0
-0.0826834 1.35403 0
-0.0544809 0.295882 0
-0.128481 -0.715448 0
-1.28072 0.922619 0
-1.56164 1.9545 0
2.38421 -0.995993 0
-0.242401 -0.959791 0
-0.617059 -1.0352 0
-0.178454 -1.13923 0
0.111699 -1.22284 0
0.0309953 -1.1734 0
0.0222308 -1.24258 0
0.291955 -1.53626 0
0.503595 -1.84777 0
0.488933 -1.73342 0
0.746196 -1.64317 0
2.41117 -1.5295 0
-0.165135 -1.39873 0
-0.50998 -1.44852 0
-0.112613 -1.5244 0
0.163667 -1.59485 0
0.110394 -1.61527 0
0.105466 -1.67143 0
0.271033 -1.71568 0
0.385211 -1.75629 0
0.117673 -1.82975 0
0.110114 -1.9019 0
2.4908 -1.88607 0
0.0141301 -1.70785 0
-0.328287 -1.72051 0
-0.0171216 -1.75916 0
0.199738 -1.80465 0
0.176773 -1.85551 0
0.166559 -1.88922 0
0.185794 -1.78294 0
0.151938 -1.67883 0
-0.420048 -1.84115 0
-0.696719 -2.05606 0
2.51839 -2.11725 0
0.155607 -1.94951 0
-0.198584 -1.9262 0
0.031067 -1.92044 0
0.188552 -1.92779 0
0.191026 -1.96971 0
0.180705 -1.97679 0
0.121355 -1.83361 0
0.0132888 -1.6994 0
-0.693392 -1.86697 0
-1.22272 -2.12089 0
2.40198 -2.19372 0
0.204998 -2.09271 0
-0.160522 -2.03948 0
0.0164667 -1.99366 0
0.136908 -1.96738 0
0.149004 -1.99083 0
0.137748 -1.98122 0
0.0679308 -1.85417 0
-0.0481617 -1.73618 0
-0.734422 -1.89235 0
-1.40931 -2.13864 0
2.15469 -2.2612 0
0.250672 -2.22963 0
-0.120968 -2.15833 0
0.00259903 -2.08746 0
0.089184 -2.03875 0
0.109675 -2.0425 0
0.0966205 -2.01943 0
-0.00426137 -1.90745 0
-0.143007 -1.80467 0
-0.769151 -1.94185 0
-1.45525 -2.16804 0
1.82746 -2.47818 0
0.30529 -2.47011 0
-0.0646231 -2.39083 0
-0.00858373 -2.30683 0
0.0342987 -2.24358 0
0.0646624 -2.23163 0
0.0610402 -2.19987 0
-0.0677561 -2.09989 0
-0.22674 -2.00844 0
-0.804991 -2.1012 0
-1.46621 -2.26934 0
1.49507 -3.00605 0
0.327523 -2.97445 0
-0.0370582 -2.88009 0
-0.0523544 -2.7811 0
-0.0572288 -2.69927 0
-0.0147734 -2.66503 0
0.00211395 -2.61742 0
-0.123394 -2.53169 0
-0.274596 -2.45213 0
-0.830722 -2.48292 0
-1.48469 -2.55873 0
1.1182 -4.01056 0
0.264286 -3.93336 0
-0.0839725 -3.82138 0
-0.173013 -3.70212 0
-0.229192 -3.57347 0
-0.169263 -3.5102 0
-0.105225 -3.40143 0
-0.191201 -3.33805 0
-0.297833 -3.26675 0
-0.831255 -3.21197 0
-1.47791 -3.16517 0
SCALARS mass double 1
LOOKUP_TABLE default
2.67769
2.67769
2.67769
2.67769
2.67769
2.67769
2.67769
2.67769
2.67769
2.67769
2.67769
2.67769
2.67769
2.67769
2.67769
2.67769
2.67769
2.67769
2.67769
2.67769
2.67769
2.67769
2.67769
2.67769
2.67769
2.67769
2.67769
2.67769
2.67769
2.67769
2.67769
2.67769
2.67769
2.67769
2.67769
2.67769
2.67769
2.67769
2.67769
2.67769
2.67769
2.67769
2.67769
2.67769
2.67769
2.67769
2.67769
2.67769
2.67769
2.67769
2.67769
2.67769
2.67769
2.67769
2.67769
2.67769
2.67769
2.67769
2.67769
2.67769
2.67769
2.67769
2.67769
2.67769
2.67769
2.67769
2.67769
2.67769
2.67769
2.67769
2.67769
2.67769
2.67769
2.67769
2.67769
2.67769
2.67769
2.67769
2.67769
2.67769
2.67769
2.67769
2.67769
2.67769
2.67769
2.67769
2.67769
2.67769
2.67769
2.67769
2.67769
2.67769
2.67769
2.67769
2.67769
2.67769
2.67769
2.67769
2.67769
2.67769
2.67769
2.67769
2.67769
2.67769
2.67769
2.67769
2.67769
2.67769
2.67769
2.67769
2.67769
2.67769
2.67769
2.67769
2.67769
2.67769
2.67769
2.67769
2.67769
2.67769
2.67769
SCALARS volume double 1
LOOKUP_TABLE default
0.000389564
0.000340634
0.000249268
0.000229329
0.000242455
0.000232082
0.000206539
0.000213789
0.000166439
0.000389312
0.000629536
0.000476733
0.000405369
0.000199513
0.000186479
0.000257368
0.000245731
0.000183069
0.000188841
0.000113395
7.04697e-05
7.24328e-05
0.000234103
0.000197278
9.80186e-05
9.91601e-05
0.000178385
0.000174414
0.000114818
0.000127587
7.57508e-05
2.96219e-05
1.61618e-05
0.000205003
0.000169114
8.75999e-05
9.12955e-05
0.000175641
0.000177199
0.000106497
0.000117261
8.3123e-05
3.21128e-05
1.57084e-05
0.000226536
0.000185264
9.95127e-05
0.000106282
0.000212092
0.000217807
0.000120318
0.000130898
9.9466e-05
4.82874e-05
1.96951e-05
0.00033944
0.000272575
0.000151568
0.000162998
0.000327857
0.000348277
0.00017491
0.000180897
0.000133896
9.30572e-05
4.42817e-05
0.000454393
0.000366115
0.000203448
0.000220413
0.000420022
0.000457258
0.000224637
0.00021871
0.000157948
0.000129394
7.79096e-05
0.000507687
0.000420121
0.000230304
0.000242841
0.00041442
0.000438945
0.000227551
0.00021926
0.000163287
0.000138723
0.00010666
0.000484804
0.000428378
0.000229852
0.000239297
0.000369329
0.00038436
0.000214903
0.000211257
0.000163583
0.000141399
0.000124999
0.000460786
0.000456002
0.000235331
0.000242179
0.000348914
0.000359297
0.000216191
0.000215986
0.000173208
0.000150098
0.000144011
0.000453604
0.000461905
0.000244538
0.00025055
0.000350744
0.000190416
0.000222511
0.000225878
0.000185939
0.000163809
0.000164369
TENSORS stress double
5076.25 4128.79 0
4128.79 7025.95 0
0 0 0
5076.3 17621.2 0
17621.2 6955.01 0
0 0 0
4910.52 18399.2 0
18399.2 6915.08 0
0 0 0
4924.25 5837.99 0
5837.99 6896.81 0
0 0 0
5003.46 -1261.36 0
-1261.36 6883.02 0
0 0 0
5006.57 2611.08 0
2611.08 6884.13 0
0 0 0
4913.93 4180.15 0
4180.15 6981.71 0
0 0 0
4909.11 -5969.18 0
-5969.18 7403.1 0
0 0 0
4899.21 -2638.34 0
-2638.34 7813.65 0
0 0 0
2041.57 -31322.4 0
-31322.4 11854.1 0
0 0 0
-2067.42 -45038.2 0
-45038.2 12604.1 0
0 0 0
5075.42 -132.843 0
-132.843 6591.66 0
0 0 0
5075.58 15270.5 0
15270.5 6560.32 0
0 0 0
4585.84 12868.5 0
12868.5 6574.79 0
0 0 0
4621.74 1782.42 0
1782.42 6585.17 0
0 0 0
4856.9 -2775.24 0
-2775.24 6594.37 0
0 0 0
4866.58 1253.15 0
1253.15 6608.14 0
0 0 0
4587 3684.24 0
3684.24 6737.39 0
0 0 0
4574.95 -5759.49 0
-5759.49 7104.98 0
0 0 0
4558.59 9.39733 0
9.39733 7459.61 0
0 0 0
502.22 42723.8 0
42723.8 7680.1 0
0 0 0
-1964.56 44735.3 0
44735.3 7755.33 0
0 0 0
5074.75 -5848.03 0
-5848.03 6244.91 0
0 0 0
4244.05 4557.47 0
4557.47 6248.12 0
0 0 0
4307.63 1927.28 0
1927.28 6285.17 0
0 0 0
4354.79 -2705.24 0
-2705.24 6310.79 0
0 0 0
4725.02 -2213.85 0
-2213.85 6334.61 0
0 0 0
4740.35 50.6299 0
50.6299 6359.27 0
0 0 0
4287.8 2441.84 0
2441.84 6507.79 0
0 0 0
4265.28 -6805.44 0
-6805.44 6827.18 0
0 0 0
4240.68 -2559.88 0
-2559.88 7135.72 0
0 0 0
4063.99 52907.7 0
52907.7 7076.62 0
0 0 0
3769.48 92069.4 0
92069.4 6859.52 0
0 0 0
5074.43 -4868.1 0
-4868.1 6082.06 0
0 0 0
4075.26 3264.55 0
3264.55 6073.66 0
0 0 0
4131.64 1328.94 0
1328.94 6103.97 0
0 0 0
4175.12 -1613.31 0
-1613.31 6126.42 0
0 0 0
4631.04 -552.59 0
-552.59 6149.35 0
0 0 0
4647.04 -162.123 0
-162.123 6175.3 0
0 0 0
4058.41 3463.25 0
3463.25 6321.05 0
0 0 0
4016.31 -6014.77 0
-6014.77 6591.05 0
0 0 0
3973.16 -11781.5 0
-11781.5 6851.84 0
0 0 0
3848.13 35959.1 0
35959.1 6858.73 0
0 0 0
3593.79 80569.6 0
80569.6 6690.94 0
0 0 0
5074.13 -3027.78 0
-3027.78 5929.98 0
0 0 0
3909.39 3258.01 0
3258.01 5902.82 0
0 0 0
3953.93 1876.45 0
1876.45 5921.36 0
0 0 0
3989.04 -135.55 0
-135.55 5935.54 0
0 0 0
4530.91 521.798 0
521.798 5951.94 0
0 0 0
4544.88 -349.57 0
-349.57 5973.92 0
0 0 0
3804.21 4569.7 0
4569.7 6107.46 0
0 0 0
3743 -3943.19 0
-3943.19 6328.96 0
0 0 0
3681.03 -13508.6 0
-13508.6 6541.17 0
0 0 0
3611.6 12536.3 0
12536.3 6621.3 0
0 0 0
3408.43 67844.7 0
67844.7 6518.94 0
0 0 0
5073.73 -1348.68 0
-1348.68 5727.03 0
0 0 0
3679.64 2408.63 0
2408.63 5667.32 0
0 0 0
3702.93 1200.68 0
1200.68 5664.24 0
0 0 0
3720.97 803.28 0
803.28 5661.07 0
0 0 0
4383.39 1011.35 0
1011.35 5661.16 0
0 0 0
4390.01 -1165.39 0
-1165.39 5668.79 0
0 0 0
3417.92 4072.49 0
4072.49 5775.31 0
0 0 0
3340.71 -634.936 0
-634.936 5953.51 0
0 0 0
3264.58 -7141.65 0
-7141.65 6125.11 0
0 0 0
3242.75 -3763.76 0
-3763.76 6260.19 0
0 0 0
3125.72 39718.6 0
39718.6 6265.05 0
0 0 0
5073.16 -440.603 0
-440.603 5439 0
0 0 0
3350.51 -1198.97 0
-1198.97 5332.24 0
0 0 0
3341.76 -592.099 0
-592.099 5296.07 0
0 0 0
3331.45 973.98 0
973.98 5263.59 0
0 0 0
4166.24 1192.27 0
1192.27 5233.32 0
0 0 0
4156.47 -1621.66 0
-1621.66 5208.88 0
0 0 0
2838.13 1458.99 0
1458.99 5269.28 0
0 0 0
2803.83 1327.58 0
1327.58 6249.11 0
0 0 0
2778.28 -1083.82 0
-1083.82 5999.21 0
0 0 0
2782.23 -5158.04 0
-5158.04 5873.74 0
0 0 0
2774.48 22194.3 0
22194.3 5743.06 0
0 0 0
4881.11 581.877 0
581.877 5061.63 0
0 0 0
3129.44 -2418.71 0
-2418.71 5346.26 0
0 0 0
3112.62 -803.049 0
-803.049 5503.4 0
0 0 0
3096.46 1820.71 0
1820.71 5624.29 0
0 0 0
3890.59 2159.38 0
2159.38 5761.23 0
0 0 0
3860.66 5.8242 0
5.8242 5936.55 0
0 0 0
2582.91 -697.179 0
-697.179 5987.19 0
0 0 0
2564.24 1478.74 0
1478.74 5743.66 0
0 0 0
2547.09 815.86 0
815.86 5506.09 0
0 0 0
2558.17 -2658.78 0
-2658.78 5390.04 0
0 0 0
2573.29 12092.8 0
12092.8 5293.45 0
0 0 0
4613.8 1415.71 0
1415.71 4665.09 0
0 0 0
2962.14 -2353.1 0
-2353.1 4907.01 0
0 0 0
2936.6 -55.4559 0
-55.4559 5052.22 0
0 0 0
2912.52 2483.8 0
2483.8 5161.36 0
0 0 0
3624.99 2935.14 0
2935.14 5281.88 0
0 0 0
3583.32 1658.24 0
1658.24 5429.83 0
0 0 0
2352.44 -1296.26 0
-1296.26 5502.25 0
0 0 0
2339.4 1867.81 0
1867.81 5259.23 0
0 0 0
2327.44 2049.52 0
2049.52 5020.88 0
0 0 0
2341.57 -607.458 0
-607.458 4900.42 0
0 0 0
2366.84 5460.49 0
5460.49 4812.95 0
0 0 0
4347.04 2184.06 0
2184.06 4270.18 0
0 0 0
2799.62 -1823.11 0
-1823.11 4479.83 0
0 0 0
2768.57 1148.64 0
1148.64 4620.44 0
0 0 0
2739.18 3099.04 0
3099.04 4723.16 0
0 0 0
3378.03 3454.35 0
3454.35 4834.49 0
0 0 0
3329.29 2877.79 0
2877.79 4966.53 0
0 0 0
2141.81 -1009.7 0
-1009.7 5055.72 0
0 0 0
2130.52 2179.39 0
2179.39 4803.37 0
0 0 0
2120 2484.14 0
2484.14 4554.9 0
0 0 0
2134.39 -539.731 0
-539.731 4424.23 0
0 0 0
2163.92 -766.585 0
-766.585 4335.18 0
0 0 0
4073.5 2668.61 0
2668.61 3866.71 0
0 0 0
4025.73 -1495.09 0
-1495.09 4053.51 0
0 0 0
2600.23 1369.57 0
1369.57 4188.89 0
0 0 0
2566.95 2778.69 0
2778.69 4286.97 0
0 0 0
3134.46 3274.34 0
3274.34 4392.2 0
0 0 0
3086.61 2224.65 0
2224.65 4095.69 0
0 0 0
1952.81 -450.802 0
-450.802 4905.22 0
0 0 0
1944.51 2617.23 0
2617.23 4909.03 0
0 0 0
1936.52 3282.42 0
3282.42 4913.63 0
0 0 0
1944 437.539 0
437.539 4962.41 0
0 0 0
1151.75 -2393.38 0
-2393.38 5049.99 0
0 0 0
TENSORS strain double
0.105 0.0412879 0
0.0412879 -0.746233 0
0 0 0
0.0997516 0.176212 0
0.176212 -0.873961 0
0 0 0
-0.103112 0.183992 0
0.183992 -0.980311 0
0 0 0
-0.0998824 0.0583799 0
0.0583799 -1.0658 0
0 0 0
0.0292383 -0.0126136 0
-0.0126136 -1.13957 0
0 0 0
0.0288538 0.0261108 0
0.0261108 -1.18226 0
0 0 0
-0.0608059 0.0418015 0
0.0418015 -1.20768 0
0 0 0
-0.0599499 -0.0596918 0
-0.0596918 -1.17548 0
0 0 0
-0.368328 -0.0263834 0
-0.0263834 -1.11532 0
0 0 0
-0.677857 -0.313224 0
-0.313224 0.0328186 0
0 0 0
-1.07758 -0.450382 0
-0.450382 0.9124 0
0 0 0
0.314147 -0.00132843 0
-0.00132843 -0.754628 0
0 0 0
0.296992 0.152705 0
0.152705 -0.898318 0
0 0 0
-0.307934 0.128685 0
0.128685 -0.995582 0
0 0 0
-0.299205 0.0178242 0
0.0178242 -1.07089 0
0 0 0
0.0877286 -0.0277524 0
-0.0277524 -1.13892 0
0 0 0
0.0865426 0.0125315 0
0.0125315 -1.18334 0
0 0 0
-0.182464 0.0368424 0
0.0368424 -1.20452 0
0 0 0
-0.17978 -0.0575949 0
-0.0575949 -1.17759 0
0 0 0
-0.720636 9.39733e-05 0
9.39733e-05 -1.14285 0
0 0 0
-1.62742 0.427238 0
0.427238 -0.693983 0
0 0 0
-2.02707 0.447353 0
0.447353 -0.261101 0
0 0 0
0.463496 -0.0584803 0
-0.0584803 -1.61194 0
0 0 0
0.248078 0.0455747 0
0.0455747 -1.56325 0
0 0 0
-0.461972 0.0192728 0
0.0192728 -1.54376 0
0 0 0
-0.452568 -0.0270524 0
-0.0270524 -1.54169 0
0 0 0
0.13397 -0.0221385 0
-0.0221385 -1.54999 0
0 0 0
0.132393 0.000506299 0
0.000506299 -1.57044 0
0 0 0
-0.294894 0.0244184 0
0.0244184 -1.5539 0
0 0 0
-0.292168 -0.0680544 0
-0.0680544 -1.45327 0
0 0 0
-0.889309 -0.0255988 0
-0.0255988 -1.3705 0
0 0 0
-1.77341 0.529077 0
0.529077 -1.39923 0
0 0 0
-2.28075 0.920694 0
0.920694 -1.47057 0
0 0 0
0.49367 -0.048681 0
-0.048681 -1.77373 0
0 0 0
0.211737 0.0326455 0
0.0326455 -1.67899 0
0 0 0
-0.490882 0.0132894 0
0.0132894 -1.62489 0
0 0 0
-0.484927 -0.0161331 0
-0.0161331 -1.59018 0
0 0 0
0.138294 -0.0055259 0
-0.0055259 -1.56978 0
0 0 0
0.137572 -0.00162123 0
-0.00162123 -1.56008 0
0 0 0
-0.39629 0.0346325 0
0.0346325 -1.52611 0
0 0 0
-0.398206 -0.0601477 0
-0.0601477 -1.4299 0
0 0 0
-0.827862 -0.117815 0
-0.117815 -1.34057 0
0 0 0
-1.62841 0.359591 0
0.359591 -1.46612 0
0 0 0
-2.14537 0.805696 0
0.805696 -1.63274 0
0 0 0
0.515397 -0.0302778 0
-0.0302778 -1.69554 0
0 0 0
0.185117 0.0325801 0
0.0325801 -1.56056 0
0 0 0
-0.506423 0.0187645 0
0.0187645 -1.48226 0
0 0 0
-0.503048 -0.0013555 0
-0.0013555 -1.42097 0
0 0 0
0.129837 0.00521798 0
0.00521798 -1.37399 0
0 0 0
0.129706 -0.0034957 0
-0.0034957 -1.34731 0
0 0 0
-0.504582 0.045697 0
0.045697 -1.29614 0
0 0 0
-0.511548 -0.0394319 0
-0.0394319 -1.2067 0
0 0 0
-0.851857 -0.135086 0
-0.135086 -1.13918 0
0 0 0
-1.42036 0.125363 0
0.125363 -1.27682 0
0 0 0
-2.02121 0.678447 0
0.678447 -1.53347 0
0 0 0
0.530944 -0.0134868 0
-0.0134868 -1.3083 0
0 0 0
0.15711 0.0240863 0
0.0240863 -1.14733 0
0 0 0
-0.512681 0.0120068 0
0.0120068 -1.05992 0
0 0 0
-0.51179 0.0080328 0
0.0080328 -0.989483 0
0 0 0
0.106586 0.0101135 0
0.0101135 -0.918464 0
0 0 0
0.106441 -0.0116539 0
-0.0116539 -0.858405 0
0 0 0
-0.618504 0.0407249 0
0.0407249 -0.812239 0
0 0 0
-0.626265 -0.00634936 0
-0.00634936 -0.772003 0
0 0 0
-0.937565 -0.0714165 0
-0.0714165 -0.760353 0
0 0 0
-1.22204 -0.0376376 0
-0.0376376 -0.833108 0
0 0 0
-1.69188 0.397186 0
0.397186 -1.07896 0
0 0 0
0.523516 -0.00440603 0
-0.00440603 -1.01083 0
0 0 0
0.173224 -0.0119897 0
-0.0119897 -0.870314 0
0 0 0
-0.496032 -0.00592099 0
-0.00592099 -0.786681 0
0 0 0
-0.495555 0.0097398 0
0.0097398 -0.708734 0
0 0 0
0.0657882 0.0119227 0
0.0119227 -0.632974 0
0 0 0
0.0647717 -0.0162166 0
-0.0162166 -0.548169 0
0 0 0
-0.674718 0.0145899 0
0.0145899 -0.511097 0
0 0 0
-0.676074 0.0132758 0
0.0132758 -0.536162 0
0 0 0
-0.96184 -0.0108382 0
-0.0108382 -0.573508 0
0 0 0
-1.12178 -0.0515804 0
-0.0515804 -0.610312 0
0 0 0
-1.42655 0.221943 0
0.221943 -0.795981 0
0 0 0
0.481779 0.00581877 0
0.00581877 -0.859407 0
0 0 0
0.208347 -0.0241871 0
-0.0241871 -0.770175 0
0 0 0
-0.451831 -0.00803049 0
-0.00803049 -0.709271 0
0 0 0
-0.450255 0.0182071 0
0.0182071 -0.659116 0
0 0 0
0.0243723 0.0215938 0
0.0215938 -0.605593 0
0 0 0
0.0228938 5.8242e-05 0
5.8242e-05 -0.547405 0
0 0 0
-0.653424 -0.00697179 0
-0.00697179 -0.520127 0
0 0 0
-0.652662 0.0147874 0
0.0147874 -0.557212 0
0 0 0
-0.910892 0.0081586 0
0.0081586 -0.591525 0
0 0 0
-1.05988 -0.0265878 0
-0.0265878 -0.60344 0
0 0 0
-1.22543 0.120928 0
0.120928 -0.691381 0
0 0 0
0.423935 0.0141571 0
0.0141571 -0.848422 0
0 0 0
0.257925 -0.023531 0
-0.023531 -0.80277 0
0 0 0
-0.402706 -0.000554559 0
-0.000554559 -0.761044 0
0 0 0
-0.40078 0.024838 0
0.024838 -0.72375 0
0 0 0
-0.00407996 0.0293514 0
0.0293514 -0.691959 0
0 0 0
-0.00518957 0.0165824 0
0.0165824 -0.65158 0
0 0 0
-0.5988 -0.0129626 0
-0.0129626 -0.63149 0
0 0 0
-0.597573 0.0186781 0
0.0186781 -0.649379 0
0 0 0
-0.83216 0.0204952 0
0.0204952 -0.668771 0
0 0 0
-0.977759 -0.00607458 0
-0.00607458 -0.666715 0
0 0 0
-1.0574 0.0546049 0
0.0546049 -0.705428 0
0 0 0
0.368827 0.0218406 0
0.0218406 -0.844581 0
0 0 0
0.321722 -0.0182311 0
-0.0182311 -0.807374 0
0 0 0
-0.362867 0.0114864 0
0.0114864 -0.778318 0
0 0 0
-0.361097 0.0309904 0
0.0309904 -0.752182 0
0 0 0
-0.019527 0.0345435 0
0.0345435 -0.733245 0
0 0 0
-0.0199427 0.0287779 0
0.0287779 -0.703994 0
0 0 0
-0.540168 -0.010097 0
-0.010097 -0.684562 0
0 0 0
-0.538879 0.0217939 0
0.0217939 -0.686739 0
0 0 0
-0.756552 0.0248414 0
0.0248414 -0.688416 0
0 0 0
-0.908768 -0.00539731 0
-0.00539731 -0.677241 0
0 0 0
-0.952356 -0.00766585 0
-0.00766585 -0.672941 0
0 0 0
0.320639 0.0266861 0
0.0266861 -0.812561 0
0 0 0
0.317619 -0.0149509 0
-0.0149509 -0.791793 0
0 0 0
-0.333328 0.0136957 0
0.0136957 -0.770425 0
0 0 0
-0.331241 0.0277869 0
0.0277869 -0.748824 0
0 0 0
-0.0249036 0.0327434 0
0.0327434 -0.722931 0
0 0 0
-0.0242309 0.0222465 0
0.0222465 -1.1704 0
0 0 0
-0.486687 -0.00450802 0
-0.00450802 -0.709521 0
0 0 0
-0.485113 0.0261723 0
0.0261723 -0.696485 0
0 0 0
-0.70192 0.0328242 0
0.0328242 -0.673476 0
0 0 0
-0.861836 0.00437539 0
0.00437539 -0.638573 0
0 0 0
-0.891464 -0.0239338 0
-0.0239338 -0.605364 0
0 0 0
