# vtk DataFile Version 3.0
MPM2D particles
ASCII
DATASET POLYDATA
POINTS 121 double
0.0142022 0.000593413 0
0.0422509 0.000479224 0
0.0669821 0.000409929 0
0.0890527 0.000366481 0
0.112246 0.000341329 0
0.137853 0.000354696 0
0.162869 0.00040699 0
0.185656 0.000655497 0
0.207771 0.00107073 0
0.206372 0.00579397 0
0.196128 0.0102549 0
0.0182978 0.00174459 0
0.0533879 0.00135863 0
0.0744369 0.00120059 0
0.091684 0.00109048 0
0.11172 0.00102313 0
0.138584 0.00106591 0
0.163321 0.00124467 0
0.182261 0.00186551 0
0.200168 0.00276815 0
0.201402 0.00461194 0
0.197199 0.00685612 0
0.0219974 0.00263972 0
0.0617478 0.00206742 0
0.0791722 0.00187079 0
0.0934617 0.00172679 0
0.111363 0.0016355 0
0.139233 0.00171064 0
0.163343 0.00202017 0
0.179293 0.00288214 0
0.194161 0.00404748 0
0.196259 0.0051979 0
0.194476 0.00661758 0
0.0230524 0.00306647 0
0.0640339 0.00248001 0
0.0807669 0.00229467 0
0.0944043 0.00215421 0
0.111887 0.00207634 0
0.139704 0.00218932 0
0.162824 0.00259421 0
0.176502 0.00359441 0
0.1891 0.0048936 0
0.192589 0.00592843 0
0.191957 0.00720275 0
0.0239293 0.00346505 0
0.0658328 0.00288485 0
0.0821006 0.00272199 0
0.0953108 0.00259608 0
0.1126 0.00254908 0
0.140003 0.00271351 0
0.161963 0.00320367 0
0.17353 0.00429494 0
0.184027 0.00565278 0
0.188899 0.00663696 0
0.18965 0.00780735 0
0.0248197 0.00400005 0
0.0675689 0.00344588 0
0.0834278 0.00332547 0
0.0962503 0.00323236 0
0.113315 0.00324626 0
0.139803 0.00350342 0
0.160405 0.00407737 0
0.169948 0.00525628 0
0.178541 0.00665882 0
0.183979 0.00763212 0
0.186641 0.00870788 0
0.0253921 0.00477081 0
0.0686272 0.00425288 0
0.084206 0.00419613 0
0.0967515 0.00415865 0
0.113371 0.00426521 0
0.138333 0.00467654 0
0.157993 0.00528921 0
0.166239 0.00658241 0
0.173761 0.00807741 0
0.178955 0.0090808 0
0.183006 0.0101093 0
0.0252171 0.00574891 0
0.0683849 0.00524323 0
0.0839543 0.00525483 0
0.0964712 0.00528111 0
0.112564 0.00548261 0
0.135942 0.00608248 0
0.155363 0.00675591 0
0.163256 0.00811432 0
0.170523 0.00976299 0
0.175615 0.0108734 0
0.180226 0.0119505 0
0.0244356 0.00683284 0
0.0671675 0.00630583 0
0.0829632 0.00637841 0
0.0956357 0.00646471 0
0.111278 0.00674005 0
0.133463 0.00752924 0
0.152921 0.00834309 0
0.161128 0.00970408 0
0.168565 0.0115625 0
0.173844 0.0128507 0
0.178781 0.0140678 0
0.0235425 0.0079451 0
0.0657159 0.00738748 0
0.0817731 0.00751726 0
0.0945949 0.00766372 0
0.109834 0.00799548 0
0.131208 0.00897358 0
0.150628 0.00999112 0
0.159497 0.0113146 0
0.167242 0.0134062 0
0.172771 0.0148855 0
0.177982 0.0162654 0
0.0226983 0.00910313 0
0.0642425 0.00852413 0
0.080517 0.00871257 0
0.0934112 0.00892467 0
0.108246 0.00930387 0
0.129056 0.0104872 0
0.14836 0.0117589 0
0.158027 0.0130179 0
0.166115 0.0153542 0
0.17187 0.0170174 0
0.177256 0.018564 0
VERTICES 121 242
1 0
1 1
1 2
1 3
1 4
1 5
1 6
1 7
1 8
1 9
1 10
1 11
1 12
1 13
1 14
1 15
1 16
1 17
1 18
1 19
1 20
1 21
1 22
1 23
1 24
1 25
1 26
1 27
1 28
1 29
1 30
1 31
1 32
1 33
1 34
1 35
1 36
1 37
1 38
1 39
1 40
1 41
1 42
1 43
1 44
1 45
1 46
1 47
1 48
1 49
1 50
1 51
1 52
1 53
1 54
1 55
1 56
1 57
1 58
1 59
1 60
1 61
1 62
1 63
1 64
1 65
1 66
1 67
1 68
1 69
1 70
1 71
1 72
1 73
1 74
1 75
1 76
1 77
1 78
1 79
1 80
1 81
1 82
1 83
1 84
1 85
1 86
1 87
1 88
1 89
1 90
1 91
1 92
1 93
1 94
1 95
1 96
1 97
1 98
1 99
1 100
1 101
1 102
1 103
1 104
1 105
1 106
1 107
1 108
1 109
1 110
1 111
1 112
1 113
1 114
1 115
1 116
1 117
1 118
1 119
1 120
POINT_DATA 121
VECTORS velocity double
5.24101 8.83836 0
3.03044 6.842 0
1.53519 5.51265 0
0.876339 4.78235 0
0.335468 4.38908 0
0.152336 4.90234 0
-0.0888478 4.86372 0
-0.522333 2.70383 0
-1.22663 0.914593 0
-6.51106 7.84448 0
-9.18638 11.7133 0
3.80757 3.14212 0
1.20355 2.04207 0
0.262503 1.54663 0
0.260948 1.1782 0
0.19752 0.96389 0
0.0959761 1.29284 0
-0.0154186 1.23744 0
-0.0667999 0.0861442 0
-0.215142 -1.0207 0
-1.3722 0.541699 0
-1.6306 1.49814 0
2.79739 -0.794589 0
-0.104085 -1.10827 0
-0.530321 -1.25149 0
-0.141558 -1.41632 0
0.114843 -1.52894 0
0.0853131 -1.37439 0
0.0849257 -1.41314 0
0.290307 -1.7963 0
0.443127 -2.1998 0
0.421804 -2.14419 0
0.688787 -2.11878 0
2.78888 -1.42863 0
-0.0707697 -1.61446 0
-0.454108 -1.72425 0
-0.0944883 -1.85304 0
0.1613 -1.94058 0
0.161189 -1.85215 0
0.166942 -1.88072 0
0.279136 -2.01179 0
0.345585 -2.14181 0
0.0661314 -2.2707 0
0.0635115 -2.40385 0
2.83588 -1.87673 0
0.0689315 -1.98634 0
-0.300852 -2.05393 0
-0.0168707 -2.1401 0
0.191903 -2.19186 0
0.223415 -2.13234 0
0.227782 -2.13956 0
0.203645 -2.11679 0
0.132026 -2.09828 0
-0.45646 -2.31408 0
-0.733459 -2.58684 0
2.82188 -2.22652 0
0.159888 -2.31028 0
-0.207673 -2.33742 0
0.0084259 -2.37405 0
0.172205 -2.37707 0
0.230201 -2.30951 0
0.242254 -2.28707 0
0.14959 -2.22417 0
0.0132386 -2.17177 0
-0.710485 -2.39 0
-1.24661 -2.69712 0
2.65233 -2.46619 0
0.140857 -2.56492 0
-0.218493 -2.55721 0
-0.0361762 -2.54846 0
0.106166 -2.51174 0
0.174378 -2.43075 0
0.199246 -2.37832 0
0.104551 -2.33018 0
-0.0331434 -2.292 0
-0.733182 -2.49591 0
-1.41888 -2.78876 0
2.35058 -2.73104 0
0.11121 -2.83571 0
-0.232816 -2.8033 0
-0.085348 -2.76292 0
0.0356308 -2.7019 0
0.113392 -2.60564 0
0.14555 -2.51589 0
0.0222239 -2.47756 0
-0.143469 -2.45006 0
-0.784997 -2.6322 0
-1.48366 -2.89975 0
1.97853 -3.15927 0
0.115093 -3.23018 0
-0.217837 -3.18071 0
-0.132575 -3.11847 0
-0.0531902 -3.04062 0
0.0357225 -2.92844 0
0.0828012 -2.80731 0
-0.068516 -2.76762 0
-0.261697 -2.74598 0
-0.859355 -2.88039 0
-1.5352 -3.08536 0
1.6037 -3.91852 0
0.109139 -3.91132 0
-0.220157 -3.83493 0
-0.211765 -3.74652 0
-0.187458 -3.64443 0
-0.0857315 -3.50552 0
-0.0132793 -3.34914 0
-0.161869 -3.30192 0
-0.35547 -3.28548 0
-0.936077 -3.35313 0
-1.60743 -3.4597 0
1.17787 -5.20186 0
0.0392637 -5.09168 0
-0.285494 -4.98619 0
-0.368201 -4.8658 0
-0.415948 -4.701 0
-0.295605 -4.52379 0
-0.17246 -4.28429 0
-0.285477 -4.23614 0
-0.44915 -4.22686 0
-1.01417 -4.19733 0
-1.68313 -4.16839 0
SCALARS mass double 1
LOOKUP_TABLE default
2.67769
2.67769
2.67769
2.67769
2.67769
2.67769
2.67769
2.67769
2.67769
2.67769
2.67769
2.67769
2.67769
2.67769
2.67769
2.67769
2.67769
2.67769
2.67769
2.67769
2.67769
2.67769
2.67769
2.67769
2.67769
2.67769
2.67769
2.67769
2.67769
2.67769
2.67769
2.67769
2.67769
2.67769
2.67769
2.67769
2.67769
2.67769
2.67769
2.67769
2.67769
2.67769
2.67769
2.67769
2.67769
2.67769
2.67769
2.67769
2.67769
2.67769
2.67769
2.67769
2.67769
2.67769
2.67769
2.67769
2.67769
2.67769
2.67769
2.67769
2.67769
2.67769
2.67769
2.67769
2.67769
2.67769
2.67769
2.67769
2.67769
2.67769
2.67769
2.67769
2.67769
2.67769
2.67769
2.67769
2.67769
2.67769
2.67769
2.67769
2.67769
2.67769
2.67769
2.67769
2.67769
2.67769
2.67769
2.67769
2.67769
2.67769
2.67769
2.67769
2.67769
2.67769
2.67769
2.67769
2.67769
2.67769
2.67769
2.67769
2.67769
2.67769
2.67769
2.67769
2.67769
2.67769
2.67769
2.67769
2.67769
2.67769
2.67769
2.67769
2.67769
2.67769
2.67769
2.67769
2.67769
2.67769
2.67769
2.67769
2.67769
SCALARS volume double 1
LOOKUP_TABLE default
4.01924e-05
3.21854e-05
2.15607e-05
1.93688e-05
2.08103e-05
2.16191e-05
2.22113e-05
3.56657e-05
4.23954e-05
6.96286e-05
5.87778e-05
5.09314e-05
3.74164e-05
1.64779e-05
1.51612e-05
2.18283e-05
2.27212e-05
1.90299e-05
2.83166e-05
2.40366e-05
1.32056e-05
1.04985e-05
2.56806e-05
1.58906e-05
7.79574e-06
7.80025e-06
1.49735e-05
1.60188e-05
1.14816e-05
1.73721e-05
1.37675e-05
5.49891e-06
2.79889e-06
2.28225e-05
1.33226e-05
6.81372e-06
7.02578e-06
1.46711e-05
1.61933e-05
1.02292e-05
1.46472e-05
1.32435e-05
5.40383e-06
2.53317e-06
2.55791e-05
1.42867e-05
7.57058e-06
7.99592e-06
1.76322e-05
1.97819e-05
1.09888e-05
1.48907e-05
1.3825e-05
7.3369e-06
2.96514e-06
3.90948e-05
2.0425e-05
1.11822e-05
1.18739e-05
2.70381e-05
3.12716e-05
1.472e-05
1.81948e-05
1.58272e-05
1.22391e-05
6.05972e-06
5.39528e-05
2.63717e-05
1.43793e-05
1.53364e-05
3.41224e-05
4.02038e-05
1.6684e-05
1.89393e-05
1.58812e-05
1.43771e-05
9.33154e-06
6.31165e-05
2.98137e-05
1.63166e-05
1.7044e-05
3.57567e-05
4.1981e-05
1.78057e-05
1.84644e-05
1.52213e-05
1.38324e-05
1.13163e-05
6.37157e-05
3.09822e-05
1.68101e-05
1.74773e-05
3.39623e-05
3.94687e-05
1.9479e-05
1.77797e-05
1.48726e-05
1.35352e-05
1.24575e-05
6.28716e-05
3.36692e-05
1.74977e-05
1.84123e-05
3.38319e-05
3.91172e-05
2.36017e-05
1.85567e-05
1.59174e-05
1.41332e-05
1.38865e-05
6.32498e-05
3.65831e-05
1.88248e-05
1.96144e-05
3.52802e-05
2.2087e-05
2.79235e-05
2.02325e-05
1.72838e-05
1.54794e-05
1.54774e-05
TENSORS stress double
5077.37 10213.6 0
10213.6 5134.45 0
0 0 0
5077.24 36378.1 0
36378.1 4888.14 0
0 0 0
5059.35 35157.8 0
35157.8 4713.65 0
0 0 0
5061.17 11554.9 0
11554.9 4585.57 0
0 0 0
5065.32 -4965.14 0
-4965.14 4569.09 0
0 0 0
5064.91 -6725.33 0
-6725.33 4853.98 0
0 0 0
5057.18 -12102.6 0
-12102.6 5331.44 0
0 0 0
5045.65 -38517.1 0
-38517.1 6494.77 0
0 0 0
5026.59 -50967.3 0
-50967.3 7618.04 0
0 0 0
4805.49 -21653.9 0
-21653.9 7380.51 0
0 0 0
4594.1 -2019.16 0
-2019.16 6693.88 0
0 0 0
5078.73 7085.83 0
7085.83 5055.09 0
0 0 0
5019.31 38149 0
38149 4758.2 0
0 0 0
5025.92 25971.6 0
25971.6 4640.33 0
0 0 0
5030.52 6158.11 0
6158.11 4543.04 0
0 0 0
5042.65 -6026.65 0
-6026.65 4537.74 0
0 0 0
5041.34 -7933.57 0
-7933.57 4835.66 0
0 0 0
5017.06 -10567.3 0
-10567.3 5324.08 0
0 0 0
4988.23 -33443.2 0
-33443.2 6276.7 0
0 0 0
4946.68 -40398.2 0
-40398.2 7166.92 0
0 0 0
4860.24 13816.9 0
13816.9 7165.59 0
0 0 0
4754.22 33092.8 0
33092.8 6869.43 0
0 0 0
5079.78 2433.57 0
2433.57 4988.77 0
0 0 0
4989.34 24247.1 0
24247.1 4682.62 0
0 0 0
4997.56 12675.1 0
12675.1 4587.46 0
0 0 0
5003.59 741.425 0
741.425 4508.79 0
0 0 0
5022.28 -5083.67 0
-5083.67 4510.88 0
0 0 0
5019.97 -8999.43 0
-8999.43 4818.91 0
0 0 0
4979.92 -9663.97 0
-9663.97 5296.92 0
0 0 0
4939.81 -30098.9 0
-30098.9 6087.32 0
0 0 0
4886 -36317 0
-36317 6812.09 0
0 0 0
4832.08 18947.9 0
18947.9 6879.55 0
0 0 0
4764.98 61589.4 0
61589.4 6737.23 0
0 0 0
5080.28 3599.16 0
3599.16 4963.49 0
0 0 0
4971.9 21857.2 0
21857.2 4653.78 0
0 0 0
4979.63 11283.5 0
11283.5 4562.24 0
0 0 0
4985.49 1328.95 0
1328.95 4487.26 0
0 0 0
5007.62 -3322.18 0
-3322.18 4500.26 0
0 0 0
5004.1 -9109.56 0
-9109.56 4806.35 0
0 0 0
4952.39 -6612.91 0
-6612.91 5249.24 0
0 0 0
4905.74 -25486.6 0
-25486.6 5917.83 0
0 0 0
4845.52 -39923.4 0
-39923.4 6520.94 0
0 0 0
4797.16 6246.96 0
6246.96 6664.22 0
0 0 0
4736.97 53222.1 0
53222.1 6586.31 0
0 0 0
5080.75 5561.43 0
5561.43 4940.84 0
0 0 0
4954.78 20992 0
20992 4628.1 0
0 0 0
4961.55 11163.3 0
11163.3 4538.43 0
0 0 0
4966.78 2313.94 0
2313.94 4465.4 0
0 0 0
4991.91 -2175.3 0
-2175.3 4490.54 0
0 0 0
4986.73 -9137.23 0
-9137.23 4790.19 0
0 0 0
4923.12 -3052.68 0
-3052.68 5182.59 0
0 0 0
4872.1 -19287.4 0
-19287.4 5739.3 0
0 0 0
4808.93 -35844.1 0
-35844.1 6232.03 0
0 0 0
4763.14 -12755.2 0
-12755.2 6448.47 0
0 0 0
4708 43553.5 0
43553.5 6445.59 0
0 0 0
5081.38 7275.72 0
7275.72 4912.99 0
0 0 0
4931.06 19331.7 0
19331.7 4596.95 0
0 0 0
4936.01 9821.13 0
9821.13 4508.08 0
0 0 0
4939.84 2723.34 0
2723.34 4436.07 0
0 0 0
4968.73 -1505.63 0
-1505.63 4472.47 0
0 0 0
4960.55 -9566.2 0
-9566.2 4758.57 0
0 0 0
4881.08 354.264 0
354.264 5070.31 0
0 0 0
4825.82 -10472.2 0
-10472.2 5519.63 0
0 0 0
4760.36 -22455.9 0
-22455.9 5912.67 0
0 0 0
4715.18 -22758.1 0
-22758.1 6158.73 0
0 0 0
4664.82 19729.8 0
19729.8 6257.89 0
0 0 0
5082.29 7926.61 0
7926.61 4879.23 0
0 0 0
4896.95 15296.2 0
15296.2 4560.62 0
0 0 0
4899.17 7648.74 0
7648.74 4470.96 0
0 0 0
4900.62 2565.84 0
2565.84 4398.47 0
0 0 0
4934.85 -839.337 0
-839.337 4435.03 0
0 0 0
4921.63 -9179.08 0
-9179.08 4698.51 0
0 0 0
4822.62 3644.05 0
3644.05 4901.43 0
0 0 0
4761.91 -1635.1 0
-1635.1 5279.94 0
0 0 0
4691.99 -8186 0
-8186 5614.46 0
0 0 0
4645.41 -15708.3 0
-15708.3 5846.91 0
0 0 0
4597.61 9153.45 0
9153.45 6019.65 0
0 0 0
5083.44 7309.27 0
7309.27 4844.44 0
0 0 0
4855.1 12156.8 0
12156.8 4525.1 0
0 0 0
4854.39 5852.49 0
5852.49 4432.89 0
0 0 0
4853.11 2566.56 0
2566.56 4358.13 0
0 0 0
4894.36 366.302 0
366.302 4380.53 0
0 0 0
4874.96 -7049.89 0
-7049.89 4619.47 0
0 0 0
4853.14 922.287 0
922.287 4811.59 0
0 0 0
4688.03 5522.11 0
5522.11 5069.89 0
0 0 0
4610.91 2124.07 0
2124.07 5385.91 0
0 0 0
4559.36 -3663.72 0
-3663.72 5609.41 0
0 0 0
4509.52 8955.13 0
8955.13 5809.59 0
0 0 0
5084.72 6275.91 0
6275.91 4811.14 0
0 0 0
4810.21 10256 0
10256 4492.64 0
0 0 0
4806.88 5485.72 0
5485.72 4396.76 0
0 0 0
4803.01 2855.17 0
2855.17 4318.78 0
0 0 0
4852.51 1878.74 0
1878.74 4319.16 0
0 0 0
4826.91 -4193.64 0
-4193.64 4537.88 0
0 0 0
4800.55 -2935.72 0
-2935.72 4725.36 0
0 0 0
4611.36 9831.63 0
9831.63 4901.68 0
0 0 0
4524.48 8015.57 0
8015.57 5219.18 0
0 0 0
4464.71 4266.08 0
4266.08 5446.21 0
0 0 0
4408.53 8907.67 0
8907.67 5658.54 0
0 0 0
5086.03 5956.76 0
5956.76 4777.79 0
0 0 0
4764.53 9359.66 0
9359.66 4460.86 0
0 0 0
4758.73 6441.76 0
6441.76 4361.24 0
0 0 0
4752.28 3412.07 0
3412.07 4280.07 0
0 0 0
4810.71 3344.21 0
3344.21 4256.09 0
0 0 0
4778.92 -1601.44 0
-1601.44 4458.85 0
0 0 0
4745.92 -7937.83 0
-7937.83 4638.49 0
0 0 0
4533.66 12130 0
12130 4758.24 0
0 0 0
4435.98 11240.5 0
11240.5 5083.55 0
0 0 0
4367.41 7230.9 0
7230.9 5316.95 0
0 0 0
4303.84 6103.86 0
6103.86 5537.93 0
0 0 0
5087.39 5587.23 0
5587.23 4742.31 0
0 0 0
4716.54 8182.31 0
8182.31 4427.17 0
0 0 0
4708.21 5594.27 0
5594.27 4324.01 0
0 0 0
4698.93 3214.51 0
3214.51 4239.9 0
0 0 0
4767.13 4283.64 0
4283.64 4189.4 0
0 0 0
4728.61 -894.864 0
-894.864 4378.34 0
0 0 0
4687.29 -7665.58 0
-7665.58 4547.42 0
0 0 0
4451.42 13075.5 0
13075.5 4619.54 0
0 0 0
4342.44 12701.3 0
12701.3 4954.15 0
0 0 0
4265.45 9130.42 0
9130.42 5192.94 0
0 0 0
4194.3 5812.06 0
5812.06 5417.43 0
0 0 0
TENSORS strain double
0.127728 0.102136 0
0.102136 -2.98864 0
0 0 0
0.119336 0.363781 0
0.363781 -3.19707 0
0 0 0
-0.121545 0.351578 0
0.351578 -3.34962 0
0 0 0
-0.116759 0.115549 0
0.115549 -3.45922 0
0 0 0
0.024275 -0.0496514 0
-0.0496514 -3.52944 0
0 0 0
0.0239734 -0.0672533 0
-0.0672533 -3.49446 0
0 0 0
-0.084439 -0.121026 0
-0.121026 -3.36431 0
0 0 0
-0.0875603 -0.385171 0
-0.385171 -2.90669 0
0 0 0
-0.401787 -0.509673 0
-0.509673 -2.43078 0
0 0 0
-1.578 -0.216539 0
-0.216539 -0.753414 0
0 0 0
-2.30549 -0.0201916 0
-0.0201916 -0.165457 0
0 0 0
0.381577 0.0708583 0
0.0708583 -3.00822 0
0 0 0
0.324936 0.38149 0
0.38149 -3.25172 0
0 0 0
-0.362353 0.259716 0
0.259716 -3.37296 0
0 0 0
-0.349564 0.0615811 0
0.0615811 -3.46717 0
0 0 0
0.0728356 -0.0602665 0
-0.0602665 -3.53021 0
0 0 0
0.0719026 -0.0793357 0
-0.0793357 -3.49286 0
0 0 0
-0.253991 -0.105673 0
-0.105673 -3.34585 0
0 0 0
-0.261496 -0.334432 0
-0.334432 -2.95751 0
0 0 0
-0.81511 -0.403982 0
-0.403982 -2.57571 0
0 0 0
-1.89427 0.138169 0
0.138169 -2.07234 0
0 0 0
-2.50009 0.330928 0
0.330928 -1.67742 0
0 0 0
0.566359 0.0243357 0
0.0243357 -3.87549 0
0 0 0
0.155655 0.242471 0
0.242471 -3.92662 0
0 0 0
-0.5472 0.126751 0
0.126751 -3.92628 0
0 0 0
-0.532464 0.00741425 0
0.00741425 -3.9399 0
0 0 0
0.110147 -0.0508367 0
-0.0508367 -3.9422 0
0 0 0
0.108935 -0.0899943 0
-0.0899943 -3.87757 0
0 0 0
-0.410521 -0.0966397 0
-0.0966397 -3.68825 0
0 0 0
-0.422922 -0.300989 0
-0.300989 -3.27698 0
0 0 0
-1.03773 -0.36317 0
-0.36317 -2.89833 0
0 0 0
-1.95719 0.189479 0
0.189479 -2.87125 0
0 0 0
-2.51806 0.615894 0
0.615894 -2.95617 0
0 0 0
0.613433 0.0359916 0
0.0359916 -4.03999 0
0 0 0
0.100601 0.218572 0
0.218572 -4.04482 0
0 0 0
-0.595599 0.112835 0
0.112835 -4.00914 0
0 0 0
-0.584701 0.0132895 0
0.0132895 -3.98942 0
0 0 0
0.108085 -0.0332218 0
-0.0332218 -3.96028 0
0 0 0
0.107585 -0.0910956 0
-0.0910956 -3.86544 0
0 0 0
-0.545486 -0.0661291 0
-0.0661291 -3.6654 0
0 0 0
-0.567081 -0.254866 0
-0.254866 -3.29827 0
0 0 0
-1.01904 -0.399234 0
-0.399234 -2.95273 0
0 0 0
-1.84762 0.0624696 0
0.0624696 -2.99755 0
0 0 0
-2.41163 0.532221 0
0.532221 -3.15819 0
0 0 0
0.650977 0.0556143 0
0.0556143 -3.964 0
0 0 0
0.0555914 0.20992 0
0.20992 -3.92832 0
0 0 0
-0.630817 0.111633 0
0.111633 -3.86795 0
0 0 0
-0.623405 0.0231394 0
0.0231394 -3.8212 0
0 0 0
0.0928105 -0.021753 0
-0.021753 -3.76217 0
0 0 0
0.0925699 -0.0913723 0
-0.0913723 -3.6514 0
0 0 0
-0.690621 -0.0305268 0
-0.0305268 -3.4467 0
0 0 0
-0.721187 -0.192874 0
-0.192874 -3.12398 0
0 0 0
-1.08761 -0.358441 0
-0.358441 -2.83819 0
0 0 0
-1.67728 -0.127552 0
-0.127552 -2.86897 0
0 0 0
-2.31789 0.435535 0
0.435535 -3.09472 0
0 0 0
0.687743 0.0727572 0
0.0727572 -3.5789 0
0 0 0
0.00211296 0.193317 0
0.193317 -3.51694 0
0 0 0
-0.664868 0.0982113 0
0.0982113 -3.44703 0
0 0 0
-0.661799 0.0272334 0
0.0272334 -3.39074 0
0 0 0
0.0595105 -0.0150563 0
-0.0150563 -3.30424 0
0 0 0
0.0584857 -0.095662 0
-0.095662 -3.16258 0
0 0 0
-0.859789 0.00354264 0
0.00354264 -2.98554 0
0 0 0
-0.894948 -0.104722 0
-0.104722 -2.74801 0
0 0 0
-1.23571 -0.224559 0
-0.224559 -2.55247 0
0 0 0
-1.53636 -0.227581 0
-0.227581 -2.50666 0
0 0 0
-2.0348 0.197298 0
0.197298 -2.68582 0
0 0 0
0.710717 0.0792661 0
0.0792661 -3.28249 0
0 0 0
-0.0182752 0.152962 0
0.152962 -3.241 0
0 0 0
-0.688219 0.0764874 0
0.0764874 -3.17461 0
0 0 0
-0.688656 0.0256584 0
0.0256584 -3.11054 0
0 0 0
0.00395284 -0.00839337 0
-0.00839337 -3.01827 0
0 0 0
0.000577143 -0.0917908 0
-0.0917908 -2.85609 0
0 0 0
-0.997421 0.0364405 0
0.0364405 -2.72186 0
0 0 0
-1.02875 -0.016351 0
-0.016351 -2.57101 0
0 0 0
-1.34534 -0.08186 0
-0.08186 -2.43504 0
0 0 0
-1.51917 -0.157083 0
-0.157083 -2.36249 0
0 0 0
-1.8408 0.0915345 0
0.0915345 -2.45941 0
0 0 0
0.703795 0.0730927 0
0.0730927 -3.12153 0
0 0 0
-0.0243116 0.121568 0
0.121568 -3.11356 0
0 0 0
-0.688043 0.0585249 0
0.0585249 -3.05031 0
0 0 0
-0.689865 0.0256656 0
0.0256656 -3.00543 0
0 0 0
-0.0555814 0.00366302 0
0.00366302 -2.91384 0
0 0 0
-0.0613923 -0.0704989 0
-0.0704989 -2.75286 0
0 0 0
-1.00523 0.00922287 0
0.00922287 -2.65103 0
0 0 0
-1.08172 0.0552211 0
0.0552211 -2.54136 0
0 0 0
-1.36628 0.0212407 0
0.0212407 -2.45306 0
0 0 0
-1.52856 -0.0366372 0
-0.0366372 -2.38767 0
0 0 0
-1.7058 0.0895513 0
0.0895513 -2.40476 0
0 0 0
0.672171 0.0627591 0
0.0627591 -3.08313 0
0 0 0
-0.0070943 0.10256 0
0.10256 -3.09524 0
0 0 0
-0.672416 0.0548572 0
0.0548572 -3.03772 0
0 0 0
-0.674857 0.0285517 0
0.0285517 -2.9969 0
0 0 0
-0.102611 0.0187874 0
0.0187874 -2.91963 0
0 0 0
-0.109763 -0.0419364 0
-0.0419364 -2.76748 0
0 0 0
-0.924292 -0.0293572 0
-0.0293572 -2.64811 0
0 0 0
-1.07473 0.0983163 0
0.0983163 -2.58528 0
0 0 0
-1.3322 0.0801557 0
0.0801557 -2.50912 0
0 0 0
-1.49091 0.0426608 0
0.0426608 -2.44528 0
0 0 0
-1.58166 0.0890767 0
0.0890767 -2.43464 0
0 0 0
0.634767 0.0595676 0
0.0595676 -3.06102 0
0 0 0
0.0319694 0.0935966 0
0.0935966 -3.05516 0
0 0 0
-0.657671 0.0644176 0
0.0644176 -3.01381 0
0 0 0
-0.660531 0.0341207 0
0.0341207 -2.96125 0
0 0 0
-0.135421 0.0334421 0
0.0334421 -2.89222 0
0 0 0
-0.143223 -0.0160144 0
-0.0160144 -2.74448 0
0 0 0
-0.774943 -0.0793783 0
-0.0793783 -2.61237 0
0 0 0
-1.04566 0.1213 0
0.1213 -2.57276 0
0 0 0
-1.28369 0.112405 0
0.112405 -2.49118 0
0 0 0
-1.44863 0.072309 0
0.072309 -2.44466 0
0 0 0
-1.50342 0.0610386 0
0.0610386 -2.40678 0
0 0 0
0.598085 0.0558723 0
0.0558723 -3.01984 0
0 0 0
0.0666528 0.0818231 0
0.0818231 -3.01026 0
0 0 0
-0.647729 0.0559427 0
0.0559427 -2.95308 0
0 0 0
-0.649884 0.0321451 0
0.0321451 -2.91054 0
0 0 0
-0.15742 0.0428364 0
0.0428364 -2.8299 0
0 0 0
-0.165379 -0.00894864 0
-0.00894864 -3.13194 0
0 0 0
-0.668934 -0.0766558 0
-0.0766558 -2.55468 0
0 0 0
-1.00985 0.130755 0
0.130755 -2.52432 0
0 0 0
-1.24448 0.127013 0
0.127013 -2.44958 0
0 0 0
-1.41646 0.0913042 0
0.0913042 -2.38761 0
0 0 0
-1.45711 0.0581206 0
0.0581206 -2.34722 0
0 0 0
