# vtk DataFile Version 3.0
MPM2D particles
ASCII
DATASET POLYDATA
POINTS 121 double
0.0142324 9.13971e-10 0
0.0423199 3.65946e-10 0
0.06703 1.7097e-10 0
0.0890636 8.98249e-11 0
0.112229 1.49312e-10 0
0.137809 5.19815e-09 0
0.162773 1.82614e-07 0
0.18529 7.97397e-06 0
0.206035 0.000280134 0
0.199084 0.000702547 0
0.188551 0.000247632 0
0.0184116 2.4214e-09 0
0.053622 7.82646e-10 0
0.0745411 4.1785e-10 0
0.0917055 2.50752e-10 0
0.11167 4.14142e-10 0
0.13845 1.70438e-08 0
0.163023 5.81225e-07 0
0.181359 1.29693e-05 0
0.197359 0.000212707 0
0.196665 0.000345358 0
0.191609 0.000247086 0
0.0222033 3.33359e-09 0
0.0620323 9.72833e-10 0
0.0792995 5.80517e-10 0
0.0934841 3.80362e-10 0
0.111286 6.27593e-10 0
0.139014 2.95352e-08 0
0.162862 9.23696e-07 0
0.178058 1.24552e-05 0
0.191107 0.000124568 0
0.192059 0.000191302 0
0.189625 0.000172861 0
0.0233027 3.768e-09 0
0.064352 1.10364e-09 0
0.0809086 6.84945e-10 0
0.0944245 4.63845e-10 0
0.111786 8.54251e-10 0
0.13942 3.99482e-08 0
0.16222 1.08098e-06 0
0.175119 1.01261e-05 0
0.186125 7.20377e-05 0
0.188515 0.000128201 0
0.187214 0.000130815 0
0.0242227 4.16142e-09 0
0.0661815 1.2285e-09 0
0.0822544 7.86543e-10 0
0.0953262 5.4693e-10 0
0.112471 1.1535e-09 0
0.139649 5.10867e-08 0
0.161244 1.15758e-06 0
0.172053 7.72673e-06 0
0.181213 4.01875e-05 0
0.18498 8.45699e-05 0
0.184975 0.000101379 0
0.0251707 4.69208e-09 0
0.0679609 1.40592e-09 0
0.0835984 9.30265e-10 0
0.096258 6.65801e-10 0
0.113145 1.61325e-09 0
0.139349 6.33492e-08 0
0.159547 1.14873e-06 0
0.168369 5.50798e-06 0
0.175845 2.14165e-05 0
0.180257 4.81015e-05 0
0.182016 7.27304e-05 0
0.0258205 5.50693e-09 0
0.0690924 1.68866e-09 0
0.0844083 1.15114e-09 0
0.0967536 8.46391e-10 0
0.113147 2.1206e-09 0
0.13775 6.81128e-08 0
0.15698 1.02502e-06 0
0.164526 3.92061e-06 0
0.171026 1.27734e-05 0
0.17529 2.74272e-05 0
0.178346 4.89943e-05 0
0.0257307 6.65195e-09 0
0.0689623 2.08873e-09 0
0.0842123 1.44852e-09 0
0.0964794 1.082e-09 0
0.112289 2.41992e-09 0
0.135231 6.29425e-08 0
0.154138 8.96523e-07 0
0.161381 3.04276e-06 0
0.167604 9.34078e-06 0
0.171755 1.95363e-05 0
0.175294 3.7016e-05 0
0.0250289 8.04718e-09 0
0.0678911 2.57818e-09 0
0.0833001 1.79757e-09 0
0.0956659 1.35085e-09 0
0.110963 2.47438e-09 0
0.132641 5.47813e-08 0
0.151485 7.76746e-07 0
0.159075 2.59231e-06 0
0.16537 7.98351e-06 0
0.169604 1.68989e-05 0
0.173335 3.28909e-05 0
0.0242096 9.55192e-09 0
0.0666046 3.11614e-09 0
0.0822037 2.17559e-09 0
0.0946605 1.64088e-09 0
0.109492 2.39196e-09 0
0.130291 4.73936e-08 0
0.148993 6.66294e-07 0
0.157263 2.30568e-06 0
0.163741 7.30444e-06 0
0.168092 1.57557e-05 0
0.171941 3.12348e-05 0
0.0234378 1.11587e-08 0
0.0653158 3.70981e-09 0
0.081057 2.59264e-09 0
0.093527 1.96407e-09 0
0.107887 2.22539e-09 0
0.128053 4.07923e-08 0
0.146531 5.63572e-07 0
0.155569 2.10191e-06 0
0.162299 6.78568e-06 0
0.166742 1.48462e-05 0
0.170622 2.95936e-05 0
VERTICES 121 242
1 0
1 1
1 2
1 3
1 4
1 5
1 6
1 7
1 8
1 9
1 10
1 11
1 12
1 13
1 14
1 15
1 16
1 17
1 18
1 19
1 20
1 21
1 22
1 23
1 24
1 25
1 26
1 27
1 28
1 29
1 30
1 31
1 32
1 33
1 34
1 35
1 36
1 37
1 38
1 39
1 40
1 41
1 42
1 43
1 44
1 45
1 46
1 47
1 48
1 49
1 50
1 51
1 52
1 53
1 54
1 55
1 56
1 57
1 58
1 59
1 60
1 61
1 62
1 63
1 64
1 65
1 66
1 67
1 68
1 69
1 70
1 71
1 72
1 73
1 74
1 75
1 76
1 77
1 78
1 79
1 80
1 81
1 82
1 83
1 84
1 85
1 86
1 87
1 88
1 89
1 90
1 91
1 92
1 93
1 94
1 95
1 96
1 97
1 98
1 99
1 100
1 101
1 102
1 103
1 104
1 105
1 106
1 107
1 108
1 109
1 110
1 111
1 112
1 113
1 114
1 115
1 116
1 117
1 118
1 119
1 120
POINT_DATA 121
VECTORS velocity double
4.6756 7.12219 0
2.40562 5.05098 0
1.10376 3.67386 0
0.77399 2.9125 0
0.49672 2.47974 0
0.394644 2.93222 0
0.197548 2.91222 0
-0.31269 1.05668 0
-0.845783 -0.458935 0
-5.51488 6.33619 0
-8.50068 10.0516 0
3.21619 1.40422 0
0.559137 0.214329 0
-0.0630269 -0.308561 0
0.195402 -0.699972 0
0.357053 -0.947737 0
0.341854 -0.681735 0
0.274778 -0.713281 0
0.181493 -1.61975 0
0.210944 -2.5214 0
-0.75398 -0.982802 0
-1.03465 -0.104203 0
2.18496 -2.55071 0
-0.628669 -2.95314 0
-0.788336 -3.11792 0
-0.182277 -3.30091 0
0.273173 -3.44291 0
0.334451 -3.35293 0
0.380156 -3.36847 0
0.561127 -3.55087 0
0.834293 -3.78933 0
0.912066 -3.7294 0
1.19802 -3.74349 0
2.16797 -3.19152 0
-0.564058 -3.46563 0
-0.690171 -3.59576 0
-0.122126 -3.74153 0
0.321295 -3.85805 0
0.412751 -3.83358 0
0.467468 -3.84648 0
0.5625 -3.80847 0
0.704921 -3.80026 0
0.509473 -3.90481 0
0.538685 -4.06186 0
2.2073 -3.64564 0
-0.400128 -3.84301 0
-0.51873 -3.93012 0
-0.0318705 -4.03248 0
0.354204 -4.11339 0
0.476945 -4.11643 0
0.534498 -4.12033 0
0.497691 -3.95695 0
0.471086 -3.82406 0
-0.047706 -3.99673 0
-0.281638 -4.27607 0
2.18364 -4.00273 0
-0.286857 -4.17351 0
-0.408097 -4.21942 0
0.00624076 -4.2715 0
0.336862 -4.30379 0
0.484498 -4.29613 0
0.557964 -4.2932 0
0.456193 -4.11669 0
0.345291 -3.9717 0
-0.330736 -4.13763 0
-0.816543 -4.42799 0
2.00167 -4.25101 0
-0.295655 -4.43566 0
-0.410953 -4.44606 0
-0.0328213 -4.45212 0
0.271014 -4.44379 0
0.425618 -4.41867 0
0.523451 -4.40978 0
0.424976 -4.27803 0
0.30409 -4.16018 0
-0.36425 -4.31337 0
-1.00332 -4.57233 0
1.68602 -4.52439 0
-0.336714 -4.7138 0
-0.434186 -4.69902 0
-0.0890638 -4.67302 0
0.197689 -4.63846 0
0.358321 -4.59406 0
0.464631 -4.54619 0
0.35481 -4.47171 0
0.203645 -4.36878 0
-0.411046 -4.50205 0
-1.06639 -4.72975 0
1.29972 -4.96052 0
-0.360544 -5.11517 0
-0.440364 -5.08297 0
-0.152505 -5.03483 0
0.104269 -4.98099 0
0.273571 -4.9177 0
0.397064 -4.83763 0
0.273772 -4.79683 0
0.095952 -4.69979 0
-0.473733 -4.7852 0
-1.10413 -4.94879 0
0.910384 -5.72765 0
-0.398666 -5.80326 0
-0.467554 -5.74378 0
-0.251636 -5.66914 0
-0.0353377 -5.58844 0
0.145388 -5.49641 0
0.296219 -5.3804 0
0.188136 -5.35232 0
0.0120808 -5.26642 0
-0.537689 -5.28466 0
-1.15944 -5.34952 0
0.469232 -7.01943 0
-0.502123 -6.99119 0
-0.559642 -6.9021 0
-0.430989 -6.79507 0
-0.269903 -6.64882 0
-0.071185 -6.51713 0
0.132 -6.31735 0
0.0653696 -6.28949 0
-0.0723585 -6.2326 0
-0.603555 -6.15358 0
-1.21932 -6.08373 0
SCALARS mass double 1
LOOKUP_TABLE default
2.67769
2.67769
2.67769
2.67769
2.67769
2.67769
2.67769
2.67769
2.67769
2.67769
2.67769
2.67769
2.67769
2.67769
2.67769
2.67769
2.67769
2.67769
2.67769
2.67769
2.67769
2.67769
2.67769
2.67769
2.67769
2.67769
2.67769
2.67769
2.67769
2.67769
2.67769
2.67769
2.67769
2.67769
2.67769
2.67769
2.67769
2.67769
2.67769
2.67769
2.67769
2.67769
2.67769
2.67769
2.67769
2.67769
2.67769
2.67769
2.67769
2.67769
2.67769
2.67769
2.67769
2.67769
2.67769
2.67769
2.67769
2.67769
2.67769
2.67769
2.67769
2.67769
2.67769
2.67769
2.67769
2.67769
2.67769
2.67769
2.67769
2.67769
2.67769
2.67769
2.67769
2.67769
2.67769
2.67769
2.67769
2.67769
2.67769
2.67769
2.67769
2.67769
2.67769
2.67769
2.67769
2.67769
2.67769
2.67769
2.67769
2.67769
2.67769
2.67769
2.67769
2.67769
2.67769
2.67769
2.67769
2.67769
2.67769
2.67769
2.67769
2.67769
2.67769
2.67769
2.67769
2.67769
2.67769
2.67769
2.67769
2.67769
2.67769
2.67769
2.67769
2.67769
2.67769
2.67769
2.67769
2.67769
2.67769
2.67769
2.67769
SCALARS volume double 1
LOOKUP_TABLE default
6.20432e-11
2.46199e-11
8.97715e-12
4.74028e-12
9.09487e-12
3.16504e-10
9.94118e-09
4.31387e-07
1.09027e-05
7.7914e-06
1.27892e-06
7.11543e-11
2.14311e-11
5.70668e-12
3.47096e-12
8.81118e-12
3.62174e-10
8.81832e-09
1.93889e-07
1.78607e-06
9.34646e-07
3.5155e-07
3.27516e-11
7.41323e-12
2.40063e-12
1.70626e-12
5.7204e-12
2.75184e-10
5.18469e-09
7.34221e-08
4.06507e-07
1.91483e-07
6.83857e-08
2.83655e-11
5.86792e-12
2.01489e-12
1.49973e-12
6.00214e-12
2.93577e-10
4.19512e-09
4.01857e-08
1.86434e-07
1.10296e-07
4.29549e-08
3.11177e-11
6.01158e-12
2.16344e-12
1.66705e-12
7.92383e-12
3.6946e-10
3.89418e-09
2.59915e-08
9.37963e-08
8.80669e-08
3.58703e-08
4.65438e-11
8.21536e-12
3.08605e-12
2.41424e-12
1.33186e-11
5.59646e-10
4.0477e-09
1.84081e-08
4.84152e-08
7.24607e-08
4.69852e-08
6.3388e-11
1.02887e-11
3.87798e-12
3.06967e-12
1.67694e-11
5.77583e-10
3.17265e-09
1.08184e-08
2.37347e-08
4.05578e-08
4.17189e-08
7.46032e-11
1.16219e-11
4.4026e-12
3.41871e-12
1.55491e-11
4.26805e-10
2.31363e-09
6.58851e-09
1.36446e-08
2.29994e-08
3.201e-08
7.69656e-11
1.23407e-11
4.61593e-12
3.55834e-12
1.22428e-11
2.80994e-10
1.76743e-09
4.4827e-09
9.52684e-09
1.62835e-08
2.62503e-08
7.78508e-11
1.37734e-11
4.91115e-12
3.82252e-12
9.90551e-12
2.01352e-10
1.52662e-09
3.56172e-09
7.96325e-09
1.35196e-08
2.36951e-08
8.02025e-11
1.53674e-11
5.40595e-12
4.16409e-12
8.23059e-12
8.33863e-11
1.29146e-09
3.12403e-09
6.93808e-09
1.20505e-08
2.16062e-08
TENSORS stress double
5076.68 36021.3 0
36021.3 2156.54 0
0 0 0
5076.68 113249 0
113249 1821.31 0
0 0 0
5076.67 107722 0
107722 1421.11 0
0 0 0
5076.67 48780.8 0
48780.8 997.039 0
0 0 0
5076.67 -13637.8 0
-13637.8 1629.81 0
0 0 0
5076.67 -88779.6 0
-88779.6 5098.3 0
0 0 0
5076.67 -162252 0
-162252 8109.1 0
0 0 0
5076.51 -237609 0
-237609 9435.05 0
0 0 0
5070.83 -295120 0
-295120 10647.7 0
0 0 0
5061.96 -246913 0
-246913 10223.8 0
0 0 0
5071.46 -200960 0
-200960 9618.92 0
0 0 0
5076.68 40364.8 0
40364.8 2106.66 0
0 0 0
5076.67 132190 0
132190 1679.17 0
0 0 0
5076.67 86452.5 0
86452.5 1276.55 0
0 0 0
5076.67 39105.9 0
39105.9 946.19 0
0 0 0
5076.67 -13006.4 0
-13006.4 1554.01 0
0 0 0
5076.67 -91729 0
-91729 5185.14 0
0 0 0
5076.66 -160793 0
-160793 8123.82 0
0 0 0
5076.4 -223152 0
-223152 9203.37 0
0 0 0
5072.22 -264219 0
-264219 10138.9 0
0 0 0
5069.43 -207057 0
-207057 10093.5 0
0 0 0
5071.48 -175060 0
-175060 9799.04 0
0 0 0
5076.68 42504.5 0
42504.5 2061.41 0
0 0 0
5076.67 104767 0
104767 1517.3 0
0 0 0
5076.67 65489 0
65489 1184.96 0
0 0 0
5076.67 30799.5 0
30799.5 911.959 0
0 0 0
5076.67 -10879.9 0
-10879.9 1501.86 0
0 0 0
5076.67 -94326.1 0
-94326.1 5261.64 0
0 0 0
5076.66 -159102 0
-159102 8114.29 0
0 0 0
5076.41 -211971 0
-211971 9008.94 0
0 0 0
5074.05 -245567 0
-245567 9773.7 0
0 0 0
5072.65 -191476 0
-191476 9827.5 0
0 0 0
5073.04 -142500 0
-142500 9684.73 0
0 0 0
5076.68 45620.5 0
45620.5 2048.29 0
0 0 0
5076.67 98637.6 0
98637.6 1472.65 0
0 0 0
5076.67 61494.1 0
61494.1 1153.99 0
0 0 0
5076.67 29853.2 0
29853.2 893.86 0
0 0 0
5076.67 -10497 0
-10497 1569.75 0
0 0 0
5076.67 -95537.3 0
-95537.3 5316.75 0
0 0 0
5076.65 -154336 0
-154336 8076.5 0
0 0 0
5076.46 -200540 0
-200540 8835.91 0
0 0 0
5075.15 -237803 0
-237803 9482.07 0
0 0 0
5073.97 -195993 0
-195993 9620.89 0
0 0 0
5073.92 -145269 0
-145269 9544.15 0
0 0 0
5076.68 49210.2 0
49210.2 2037.3 0
0 0 0
5076.67 94819.3 0
94819.3 1437.44 0
0 0 0
5076.67 59192.3 0
59192.3 1128.09 0
0 0 0
5076.67 29365.2 0
29365.2 876.505 0
0 0 0
5076.67 -11252.2 0
-11252.2 1662.59 0
0 0 0
5076.67 -96151.5 0
-96151.5 5347.83 0
0 0 0
5076.65 -148318 0
-148318 8018.98 0
0 0 0
5076.51 -187283 0
-187283 8655.44 0
0 0 0
5075.82 -222637 0
-222637 9193.8 0
0 0 0
5074.89 -206905 0
-206905 9414.19 0
0 0 0
5074.53 -149720 0
-149720 9413.27 0
0 0 0
5076.68 52587.5 0
52587.5 2025.99 0
0 0 0
5076.67 90279.1 0
90279.1 1403.19 0
0 0 0
5076.67 55661.6 0
55661.6 1102.22 0
0 0 0
5076.67 28241.4 0
28241.4 858.57 0
0 0 0
5076.67 -12423.9 0
-12423.9 1753.95 0
0 0 0
5076.67 -95611.6 0
-95611.6 5307.08 0
0 0 0
5076.65 -140758 0
-140758 7919.08 0
0 0 0
5076.56 -169944 0
-169944 8438.54 0
0 0 0
5076.22 -197082 0
-197082 8878.29 0
0 0 0
5075.66 -206132 0
-206132 9137.23 0
0 0 0
5075.14 -166614 0
-166614 9240 0
0 0 0
5076.68 54333.3 0
54333.3 2018.23 0
0 0 0
5076.67 84393.2 0
84393.2 1381.42 0
0 0 0
5076.67 52143.8 0
52143.8 1086.64 0
0 0 0
5076.67 27233.4 0
27233.4 849.033 0
0 0 0
5076.67 -11630.5 0
-11630.5 1754.27 0
0 0 0
5076.67 -90480.2 0
-90480.2 5090.3 0
0 0 0
5076.61 -132416 0
-132416 7697.73 0
0 0 0
5076.59 -152065 0
-152065 8212.21 0
0 0 0
5076.4 -171619 0
-171619 8594.76 0
0 0 0
5076.09 -187556 0
-187556 8845.42 0
0 0 0
5075.64 -168452 0
-168452 9024.65 0
0 0 0
5076.68 53444.6 0
53444.6 2019.31 0
0 0 0
5076.67 81421.9 0
81421.9 1383.92 0
0 0 0
5076.67 50608 0
50608 1090.41 0
0 0 0
5076.67 27608.2 0
27608.2 854.31 0
0 0 0
5076.67 -7803.69 0
-7803.69 1637.89 0
0 0 0
5076.67 -80935.7 0
-80935.7 4748.68 0
0 0 0
5076.61 -127093 0
-127093 7312.4 0
0 0 0
5076.61 -137294 0
-137294 8027 0
0 0 0
5076.48 -152993 0
-152993 8393.31 0
0 0 0
5076.26 -166873 0
-166873 8637.46 0
0 0 0
5075.89 -160983 0
-160983 8845.27 0
0 0 0
5076.68 51017.4 0
51017.4 2027.68 0
0 0 0
5076.67 81200 0
81200 1404.54 0
0 0 0
5076.67 51650.3 0
51650.3 1107.97 0
0 0 0
5076.67 29134.7 0
29134.7 869.966 0
0 0 0
5076.67 -2323.94 0
-2323.94 1458.1 0
0 0 0
5076.67 -70458.1 0
-70458.1 4397.53 0
0 0 0
5076.62 -123123 0
-123123 6952.58 0
0 0 0
5076.62 -127173 0
-127173 7891.21 0
0 0 0
5076.5 -141291 0
-141291 8261.8 0
0 0 0
5076.31 -153166 0
-153166 8510.84 0
0 0 0
5075.98 -155529 0
-155529 8730.09 0
0 0 0
5076.68 49088.4 0
49088.4 2037.46 0
0 0 0
5076.67 82329.7 0
82329.7 1429.3 0
0 0 0
5076.67 54312.1 0
54312.1 1129.07 0
0 0 0
5076.67 31238.5 0
31238.5 889.317 0
0 0 0
5076.67 3523.64 0
3523.64 1258.67 0
0 0 0
5076.67 -60934.7 0
-60934.7 4078.94 0
0 0 0
5076.63 -120753 0
-120753 6614.67 0
0 0 0
5076.52 -120748 0
-120748 7736.01 0
0 0 0
5076.52 -133542 0
-133542 8165.84 0
0 0 0
5076.34 -145768 0
-145768 8421.82 0
0 0 0
5076.01 -153990 0
-153990 8647.98 0
0 0 0
5076.68 47190.8 0
47190.8 2046.67 0
0 0 0
5076.67 83182.1 0
83182.1 1454.1 0
0 0 0
5076.67 55250.2 0
55250.2 1151.14 0
0 0 0
5076.67 32791.9 0
32791.9 911.133 0
0 0 0
5076.67 9236.47 0
9236.47 1041.03 0
0 0 0
5076.67 -53607.6 0
-53607.6 3775.43 0
0 0 0
5076.64 -113181 0
-113181 6280.9 0
0 0 0
5076.53 -117657 0
-117657 7506.31 0
0 0 0
5076.53 -127919 0
-127919 8080.92 0
0 0 0
5076.36 -139745 0
-139745 8342.36 0
0 0 0
5076.04 -150063 0
-150063 8570.38 0
0 0 0
TENSORS strain double
0.129853 0.360213 0
0.360213 -15.926 0
0 0 0
0.120967 1.13249 0
1.13249 -16.7891 0
0 0 0
-0.123147 1.07722 0
1.07722 -17.5035 0
0 0 0
-0.118155 0.487808 0
0.487808 -18.1049 0
0 0 0
0.0234034 -0.136378 0
-0.136378 -17.6417 0
0 0 0
0.0229907 -0.887796 0
-0.887796 -14.3206 0
0 0 0
-0.0868231 -1.62252 0
-1.62252 -10.9171 0
0 0 0
-0.0931028 -2.37609 0
-2.37609 -7.25828 0
0 0 0
-0.418753 -2.9512 0
-2.9512 -3.75792 0
0 0 0
-1.6568 -2.46913 0
-2.46913 -2.84467 0
0 0 0
-2.40672 -2.0096 0
-2.0096 -3.84693 0
0 0 0
0.387777 0.403648 0
0.403648 -16.0428 0
0 0 0
0.319544 1.3219 0
1.3219 -17.1061 0
0 0 0
-0.367003 0.864525 0
0.864525 -17.6944 0
0 0 0
-0.353705 0.391059 0
0.391059 -18.1717 0
0 0 0
0.070227 -0.130064 0
-0.130064 -17.7142 0
0 0 0
0.0689422 -0.91729 0
-0.91729 -14.2364 0
0 0 0
-0.261315 -1.60793 0
-1.60793 -10.8602 0
0 0 0
-0.276164 -2.23152 0
-2.23152 -7.85574 0
0 0 0
-0.847911 -2.64219 0
-2.64219 -5.11658 0
0 0 0
-1.94943 -2.07057 0
-2.07057 -4.63921 0
0 0 0
-2.57164 -1.7506 0
-1.7506 -4.96507 0
0 0 0
0.575677 0.425045 0
0.425045 -16.9983 0
0 0 0
0.14753 1.04767 0
1.04767 -17.9687 0
0 0 0
-0.554406 0.65489 0
0.65489 -18.3539 0
0 0 0
-0.53901 0.307995 0
0.307995 -18.6842 0
0 0 0
0.105981 -0.108799 0
-0.108799 -18.1755 0
0 0 0
0.104174 -0.943261 0
-0.943261 -14.5484 0
0 0 0
-0.422398 -1.59102 0
-1.59102 -11.2229 0
0 0 0
-0.444324 -2.11971 0
-2.11971 -8.63848 0
0 0 0
-1.07806 -2.45567 0
-2.45567 -6.34051 0
0 0 0
-2.01109 -1.91476 0
-1.91476 -6.13789 0
0 0 0
-2.583 -1.425 0
-1.425 -6.55989 0
0 0 0
0.624235 0.456205 0
0.456205 -17.1884 0
0 0 0
0.0908804 0.986376 0
0.986376 -18.1386 0
0 0 0
-0.604422 0.614941 0
0.614941 -18.4726 0
0 0 0
-0.592859 0.298532 0
0.298532 -18.7547 0
0 0 0
0.102789 -0.10497 0
-0.10497 -18.1292 0
0 0 0
0.101482 -0.955373 0
-0.955373 -14.4838 0
0 0 0
-0.560623 -1.54336 0
-1.54336 -11.2894 0
0 0 0
-0.592503 -2.0054 0
-2.0054 -9.07569 0
0 0 0
-1.06233 -2.37803 0
-2.37803 -7.11829 0
0 0 0
-1.90371 -1.95993 0
-1.95993 -6.78648 0
0 0 0
-2.4782 -1.45269 0
-1.45269 -7.11839 0
0 0 0
0.663164 0.492102 0
0.492102 -17.1338 0
0 0 0
0.0443083 0.948193 0
0.948193 -18.0629 0
0 0 0
-0.641268 0.591923 0
0.591923 -18.3615 0
0 0 0
-0.633226 0.293652 0
0.293652 -18.6066 0
0 0 0
0.0862955 -0.112522 0
-0.112522 -17.8431 0
0 0 0
0.084999 -0.961515 0
-0.961515 -14.2401 0
0 0 0
-0.709097 -1.48318 0
-1.48318 -11.2078 0
0 0 0
-0.750135 -1.87283 0
-1.87283 -9.33639 0
0 0 0
-1.13272 -2.22637 0
-2.22637 -7.71502 0
0 0 0
-1.7351 -2.06905 0
-2.06905 -7.176 0
0 0 0
-2.38644 -1.4972 0
-1.4972 -7.38346 0
0 0 0
0.701787 0.525875 0
0.525875 -16.7706 0
0 0 0
-0.011337 0.902791 0
0.902791 -17.6912 0
0 0 0
-0.677616 0.556616 0
0.556616 -17.9705 0
0 0 0
-0.674014 0.282414 0
0.282414 -18.1969 0
0 0 0
0.0511967 -0.124239 0
-0.124239 -17.2985 0
0 0 0
0.0487201 -0.956116 0
-0.956116 -13.7896 0
0 0 0
-0.882832 -1.40758 0
-1.40758 -10.9856 0
0 0 0
-0.928505 -1.69944 0
-1.69944 -9.4833 0
0 0 0
-1.28388 -1.97082 0
-1.97082 -8.20145 0
0 0 0
-1.59666 -2.06132 0
-2.06132 -7.50114 0
0 0 0
-2.10661 -1.66614 0
-1.66614 -7.40579 0
0 0 0
0.727448 0.543333 0
0.543333 -16.4892 0
0 0 0
-0.034854 0.843932 0
0.843932 -17.4404 0
0 0 0
-0.70429 0.521438 0
0.521438 -17.7161 0
0 0 0
-0.704363 0.272334 0
0.272334 -17.9278 0
0 0 0
-0.0069712 -0.116305 0
-0.116305 -17.0121 0
0 0 0
-0.0123875 -0.904802 0
-0.904802 -13.6881 0
0 0 0
-1.01537 -1.32416 0
-1.32416 -11.0813 0
0 0 0
-1.06863 -1.52065 0
-1.52065 -9.85132 0
0 0 0
-1.39943 -1.71619 0
-1.71619 -8.77254 0
0 0 0
-1.58476 -1.87556 0
-1.87556 -8.07269 0
0 0 0
-1.91851 -1.68452 0
-1.68452 -7.70998 0
0 0 0
0.723962 0.534446 0
0.534446 -16.326 0
0 0 0
-0.0447554 0.814219 0
0.814219 -17.3099 0
0 0 0
-0.708174 0.50608 0
0.50608 -17.5874 0
0 0 0
-0.709818 0.276082 0
0.276082 -17.8166 0
0 0 0
-0.0695889 -0.0780369 0
-0.0780369 -17.0178 0
0 0 0
-0.0781106 -0.809357 0
-0.809357 -13.9081 0
0 0 0
-1.02519 -1.27093 0
-1.27093 -11.375 0
0 0 0
-1.12894 -1.37294 0
-1.37294 -10.2669 0
0 0 0
-1.4285 -1.52993 0
-1.52993 -9.27644 0
0 0 0
-1.60281 -1.66873 0
-1.66873 -8.60172 0
0 0 0
-1.79301 -1.60983 0
-1.60983 -8.09071 0
0 0 0
0.696173 0.510174 0
0.510174 -16.2711 0
0 0 0
-0.0317138 0.812 0
0.812 -17.2675 0
0 0 0
-0.696878 0.516503 0
0.516503 -17.5543 0
0 0 0
-0.699304 0.291347 0
0.291347 -17.7898 0
0 0 0
-0.119766 -0.0232394 0
-0.0232394 -17.1938 0
0 0 0
-0.130279 -0.704581 0
-0.704581 -14.2552 0
0 0 0
-0.94868 -1.23123 0
-1.23123 -11.7123 0
0 0 0
-1.12965 -1.27173 0
-1.27173 -10.6365 0
0 0 0
-1.40374 -1.41291 0
-1.41291 -9.64725 0
0 0 0
-1.57604 -1.53166 0
-1.53166 -8.96149 0
0 0 0
-1.6814 -1.55529 0
-1.55529 -8.39368 0
0 0 0
0.662719 0.490884 0
0.490884 -16.2298 0
0 0 0
0.00308114 0.823297 0
0.823297 -17.1985 0
0 0 0
-0.686538 0.543121 0
0.543121 -17.5059 0
0 0 0
-0.689545 0.312385 0
0.312385 -17.7317 0
0 0 0
-0.155684 0.0352364 0
0.0352364 -17.3553 0
0 0 0
-0.167488 -0.609347 0
-0.609347 -14.5338 0
0 0 0
-0.803866 -1.20753 0
-1.20753 -11.9962 0
0 0 0
-1.10244 -1.20748 0
-1.20748 -10.884 0
0 0 0
-1.36498 -1.33542 0
-1.33542 -9.85754 0
0 0 0
-1.54535 -1.45768 0
-1.45768 -9.17073 0
0 0 0
-1.61665 -1.5399 0
-1.5399 -8.55672 0
0 0 0
0.630158 0.471908 0
0.471908 -16.1705 0
0 0 0
0.0332665 0.831821 0
0.831821 -17.1247 0
0 0 0
-0.681232 0.552502 0
0.552502 -17.4194 0
0 0 0
-0.683716 0.327919 0
0.327919 -17.6556 0
0 0 0
-0.180891 0.0923647 0
0.0923647 -17.4992 0
0 0 0
-0.193533 -0.536076 0
-0.536076 -15.2086 0
0 0 0
-0.702659 -1.13181 0
-1.13181 -12.2542 0
0 0 0
-1.05222 -1.17657 0
-1.17657 -11.0596 0
0 0 0
-1.33599 -1.27919 0
-1.27919 -10.0175 0
0 0 0
-1.5252 -1.39745 0
-1.39745 -9.3004 0
0 0 0
-1.58422 -1.50063 0
-1.50063 -8.67755 0
0 0 0
