# vtk DataFile Version 3.0
MPM2D particles
ASCII
DATASET POLYDATA
POINTS 121 double
0.014181 0.000985394 0
0.0421993 0.000815752 0
0.0669441 0.000710025 0
0.0890431 0.000642808 0
0.112259 0.000599763 0
0.137882 0.000606473 0
0.162924 0.000664028 0
0.18579 0.000952419 0
0.208052 0.00139171 0
0.207886 0.00755949 0
0.198555 0.0140515 0
0.0182176 0.00290741 0
0.0532071 0.00233501 0
0.0743525 0.00208833 0
0.0916642 0.00191557 0
0.111756 0.00179877 0
0.138674 0.00182106 0
0.16349 0.00202547 0
0.182624 0.00275581 0
0.200844 0.00373365 0
0.202547 0.00617468 0
0.198832 0.00936307 0
0.0218514 0.00441345 0
0.0615237 0.00357007 0
0.0790672 0.00326285 0
0.0934396 0.0030364 0
0.111419 0.00287645 0
0.139379 0.00292045 0
0.163619 0.00328619 0
0.179831 0.00432012 0
0.195088 0.00562267 0
0.197481 0.00713966 0
0.196003 0.00916428 0
0.0228746 0.00513166 0
0.0637819 0.0042881 0
0.0806491 0.00400577 0
0.0943829 0.00379003 0
0.111961 0.00364971 0
0.139892 0.0037357 0
0.163174 0.00423035 0
0.177143 0.00546306 0
0.190154 0.00697126 0
0.193925 0.00829229 0
0.193571 0.0100996 0
0.0237209 0.00580309 0
0.0655549 0.00499316 0
0.0819717 0.00475534 0
0.0952922 0.00456979 0
0.112694 0.00447722 0
0.140238 0.00462856 0
0.162387 0.00524623 0
0.174258 0.00662553 0
0.185164 0.00825983 0
0.190329 0.00945521 0
0.191352 0.0110728 0
0.0245702 0.00670423 0
0.0672546 0.00597004 0
0.0832836 0.00581398 0
0.0962364 0.00569287 0
0.113439 0.00569731 0
0.140105 0.00597701 0
0.160924 0.00672872 0
0.170781 0.00825537 0
0.179776 0.0100012 0
0.185519 0.0111432 0
0.188468 0.0125348 0
0.025088 0.00799991 0
0.0682524 0.00737249 0
0.0840337 0.00733938 0
0.09674 0.00732636 0
0.113534 0.00748499 0
0.138725 0.00799052 0
0.158624 0.00883445 0
0.167207 0.0105317 0
0.175145 0.012425 0
0.180657 0.0135941 0
0.185026 0.0148145 0
0.0248536 0.00963829 0
0.0679182 0.00908782 0
0.0837342 0.00918969 0
0.096452 0.00930231 0
0.112766 0.00962949 0
0.136426 0.0104187 0
0.156134 0.0113341 0
0.164373 0.0131769 0
0.172102 0.0152595 0
0.17755 0.0165459 0
0.182523 0.0177483 0
0.0240177 0.0114474 0
0.0665821 0.0109216 0
0.0826762 0.0111481 0
0.0955956 0.0113817 0
0.111511 0.0118541 0
0.134029 0.0129304 0
0.153838 0.0140321 0
0.162399 0.0159245 0
0.170369 0.0182428 0
0.176068 0.0197169 0
0.181435 0.0210272 0
0.0230753 0.0133 0
0.0649965 0.012784 0
0.081407 0.0131294 0
0.0945226 0.0134845 0
0.11009 0.0140836 0
0.131848 0.0154473 0
0.151688 0.0168436 0
0.160921 0.0187156 0
0.169283 0.021282 0
0.175307 0.0229456 0
0.181022 0.0243868 0
0.0221833 0.0152268 0
0.0633729 0.014738 0
0.0800583 0.0152058 0
0.0932943 0.0156924 0
0.108517 0.0164159 0
0.129763 0.0180937 0
0.149563 0.0198702 0
0.159605 0.0216873 0
0.168405 0.0244994 0
0.174732 0.0263306 0
0.180699 0.0279072 0
VERTICES 121 242
1 0
1 1
1 2
1 3
1 4
1 5
1 6
1 7
1 8
1 9
1 10
1 11
1 12
1 13
1 14
1 15
1 16
1 17
1 18
1 19
1 20
1 21
1 22
1 23
1 24
1 25
1 26
1 27
1 28
1 29
1 30
1 31
1 32
1 33
1 34
1 35
1 36
1 37
1 38
1 39
1 40
1 41
1 42
1 43
1 44
1 45
1 46
1 47
1 48
1 49
1 50
1 51
1 52
1 53
1 54
1 55
1 56
1 57
1 58
1 59
1 60
1 61
1 62
1 63
1 64
1 65
1 66
1 67
1 68
1 69
1 70
1 71
1 72
1 73
1 74
1 75
1 76
1 77
1 78
1 79
1 80
1 81
1 82
1 83
1 84
1 85
1 86
1 87
1 88
1 89
1 90
1 91
1 92
1 93
1 94
1 95
1 96
1 97
1 98
1 99
1 100
1 101
1 102
1 103
1 104
1 105
1 106
1 107
1 108
1 109
1 110
1 111
1 112
1 113
1 114
1 115
1 116
1 117
1 118
1 119
1 120
POINT_DATA 121
VECTORS velocity double
5.19444 8.85211 0
3.01063 6.88668 0
1.5363 5.58026 0
0.894628 4.86755 0
0.358806 4.48534 0
0.147337 4.99156 0
-0.111582 4.94414 0
-0.525192 2.76948 0
-1.21096 0.966563 0
-6.50652 7.91184 0
-9.19658 11.8001 0
3.77286 3.17002 0
1.20102 2.10514 0
0.272971 1.62503 0
0.282767 1.26943 0
0.221459 1.06339 0
0.0901428 1.3842 0
-0.0379481 1.31963 0
-0.0739667 0.157419 0
-0.209163 -0.958561 0
-1.36876 0.608566 0
-1.63417 1.57429 0
2.77255 -0.755416 0
-0.0967407 -1.03413 0
-0.514132 -1.16549 0
-0.117402 -1.32033 0
0.139195 -1.42653 0
0.0787366 -1.28114 0
0.0622297 -1.32905 0
0.2797 -1.72032 0
0.442262 -2.13003 0
0.420516 -2.07236 0
0.683906 -2.04169 0
2.76807 -1.38491 0
-0.0597146 -1.53597 0
-0.435486 -1.6346 0
-0.0690784 -1.75407 0
0.185083 -1.83635 0
0.154071 -1.75753 0
0.143702 -1.79487 0
0.265747 -1.9321 0
0.339782 -2.06643 0
0.0611454 -2.19448 0
0.0561171 -2.32355 0
2.81872 -1.82891 0
0.0831772 -1.90396 0
-0.280098 -1.96084 0
0.00968199 -2.03815 0
0.214906 -2.08576 0
0.215945 -2.03614 0
0.203762 -2.05167 0
0.187536 -2.03337 0
0.121766 -2.01763 0
-0.464891 -2.23359 0
-0.743142 -2.50344 0
2.80935 -2.17351 0
0.177949 -2.22313 0
-0.184385 -2.23994 0
0.0362839 -2.2681 0
0.194431 -2.26814 0
0.222922 -2.2107 0
0.216975 -2.19607 0
0.130397 -2.13604 0
-0.00161326 -2.08506 0
-0.723201 -2.3038 0
-1.25924 -2.60942 0
2.64575 -2.40647 0
0.16358 -2.47199 0
-0.192228 -2.45425 0
-0.00693739 -2.43736 0
0.128354 -2.39829 0
0.168695 -2.32747 0
0.172279 -2.28292 0
0.0823817 -2.23646 0
-0.0519809 -2.19871 0
-0.750239 -2.40284 0
-1.43513 -2.69508 0
2.35059 -2.66368 0
0.139178 -2.73674 0
-0.203296 -2.69451 0
-0.0546877 -2.64617 0
0.0587507 -2.58261 0
0.110338 -2.49646 0
0.120691 -2.41552 0
-0.00211662 -2.37828 0
-0.165096 -2.35055 0
-0.805292 -2.53246 0
-1.50322 -2.79949 0
1.98519 -3.08394 0
0.148828 -3.12527 0
-0.18472 -3.06611 0
-0.100267 -2.99605 0
-0.0285945 -2.91493 0
0.035411 -2.81286 0
0.0605709 -2.70145 0
-0.0942196 -2.66325 0
-0.285196 -2.64077 0
-0.881982 -2.77444 0
-1.55753 -2.97854 0
1.61705 -3.835 0
0.149182 -3.80037 0
-0.183015 -3.71447 0
-0.177443 -3.61839 0
-0.161203 -3.5121 0
-0.0835366 -3.38336 0
-0.0330363 -3.23739 0
-0.188435 -3.19277 0
-0.380371 -3.17486 0
-0.960628 -3.24124 0
-1.63225 -3.34647 0
1.19824 -5.10966 0
0.0864166 -4.97424 0
-0.243694 -4.85945 0
-0.331325 -4.73159 0
-0.387858 -4.5615 0
-0.291004 -4.39458 0
-0.189761 -4.16599 0
-0.31261 -4.12214 0
-0.475249 -4.11073 0
-1.04052 -4.07938 0
-1.71042 -4.04854 0
SCALARS mass double 1
LOOKUP_TABLE default
2.67769
2.67769
2.67769
2.67769
2.67769
2.67769
2.67769
2.67769
2.67769
2.67769
2.67769
2.67769
2.67769
2.67769
2.67769
2.67769
2.67769
2.67769
2.67769
2.67769
2.67769
2.67769
2.67769
2.67769
2.67769
2.67769
2.67769
2.67769
2.67769
2.67769
2.67769
2.67769
2.67769
2.67769
2.67769
2.67769
2.67769
2.67769
2.67769
2.67769
2.67769
2.67769
2.67769
2.67769
2.67769
2.67769
2.67769
2.67769
2.67769
2.67769
2.67769
2.67769
2.67769
2.67769
2.67769
2.67769
2.67769
2.67769
2.67769
2.67769
2.67769
2.67769
2.67769
2.67769
2.67769
2.67769
2.67769
2.67769
2.67769
2.67769
2.67769
2.67769
2.67769
2.67769
2.67769
2.67769
2.67769
2.67769
2.67769
2.67769
2.67769
2.67769
2.67769
2.67769
2.67769
2.67769
2.67769
2.67769
2.67769
2.67769
2.67769
2.67769
2.67769
2.67769
2.67769
2.67769
2.67769
2.67769
2.67769
2.67769
2.67769
2.67769
2.67769
2.67769
2.67769
2.67769
2.67769
2.67769
2.67769
2.67769
2.67769
2.67769
2.67769
2.67769
2.67769
2.67769
2.67769
2.67769
2.67769
2.67769
2.67769
SCALARS volume double 1
LOOKUP_TABLE default
6.66371e-05
5.47165e-05
3.73934e-05
3.40129e-05
3.65912e-05
3.69906e-05
3.62963e-05
5.1943e-05
5.53004e-05
9.26136e-05
8.34336e-05
8.44872e-05
6.45831e-05
2.8772e-05
2.67262e-05
3.8454e-05
3.88983e-05
3.11173e-05
4.21137e-05
3.27268e-05
1.79584e-05
1.46787e-05
4.26365e-05
2.76211e-05
1.36782e-05
1.37925e-05
2.64198e-05
2.74383e-05
1.88235e-05
2.63154e-05
1.93961e-05
7.6896e-06
3.96594e-06
3.7883e-05
2.3218e-05
1.19823e-05
1.24469e-05
2.58942e-05
2.77484e-05
1.68492e-05
2.25595e-05
1.91951e-05
7.71649e-06
3.64257e-06
4.24458e-05
2.49559e-05
1.33417e-05
1.41932e-05
3.11254e-05
3.39203e-05
1.82206e-05
2.3342e-05
2.06158e-05
1.07004e-05
4.32265e-06
6.48311e-05
3.57773e-05
1.97597e-05
2.11315e-05
4.77575e-05
5.37134e-05
2.46823e-05
2.91496e-05
2.43591e-05
1.83667e-05
8.9976e-06
8.93297e-05
4.63401e-05
2.54915e-05
2.73832e-05
6.03868e-05
6.93182e-05
2.84545e-05
3.10762e-05
2.51759e-05
2.22501e-05
1.41826e-05
0.000104212
5.25456e-05
2.90198e-05
3.05374e-05
6.3485e-05
7.27625e-05
3.02599e-05
3.09413e-05
2.46831e-05
2.19133e-05
1.75541e-05
0.000104825
5.47501e-05
2.99878e-05
3.14184e-05
6.05318e-05
6.87806e-05
3.32888e-05
3.03026e-05
2.45186e-05
2.17857e-05
1.96042e-05
0.000103049
5.96517e-05
3.13065e-05
3.32072e-05
6.05427e-05
6.85234e-05
4.05589e-05
3.20888e-05
2.65946e-05
2.30332e-05
2.21008e-05
0.000103273
6.49914e-05
3.37848e-05
3.54945e-05
6.34064e-05
3.8894e-05
4.82633e-05
3.54833e-05
2.92493e-05
2.55299e-05
2.49117e-05
TENSORS stress double
5077.82 8913.12 0
8913.12 5233.86 0
0 0 0
5077.62 32437.3 0
32437.3 5024.45 0
0 0 0
5047.27 31803.6 0
31803.6 4880.3 0
0 0 0
5050.02 10628.8 0
10628.8 4778.21 0
0 0 0
5057.19 -3672.62 0
-3672.62 4764.72 0
0 0 0
5057.02 -3703.77 0
-3703.77 4990.34 0
0 0 0
5044.91 -7136.91 0
-7136.91 5391.93 0
0 0 0
5031.61 -30431.6 0
-30431.6 6414.2 0
0 0 0
5011.5 -39889.1 0
-39889.1 7404.25 0
0 0 0
4722.67 -12008.8 0
-12008.8 7179.3 0
0 0 0
4415.83 4924.46 0
4924.46 6525.37 0
0 0 0
5080.05 5467.73 0
5467.73 5131.45 0
0 0 0
4980.03 33325.8 0
33325.8 4884.88 0
0 0 0
4990.15 23464 0
23464 4793.88 0
0 0 0
4997.24 5547.63 0
5547.63 4718.32 0
0 0 0
5018.24 -4815.95 0
-4815.95 4715.57 0
0 0 0
5017.67 -4908.85 0
-4908.85 4952.16 0
0 0 0
4979.82 -5797.76 0
-5797.76 5367.69 0
0 0 0
4946.08 -26182.1 0
-26182.1 6206.28 0
0 0 0
4901.25 -30844.7 0
-30844.7 6995.53 0
0 0 0
4786.8 23054.2 0
23054.2 6986.15 0
0 0 0
4636.37 41115.7 0
41115.7 6704.49 0
0 0 0
5081.8 521.272 0
521.272 5047.56 0
0 0 0
4928.85 20367.4 0
20367.4 4799.5 0
0 0 0
4941.45 10712 0
10712 4727.77 0
0 0 0
4950.74 349.939 0
349.939 4668.08 0
0 0 0
4983.24 -3938.65 0
-3938.65 4672.4 0
0 0 0
4982.05 -5972.68 0
-5972.68 4917.52 0
0 0 0
4919.55 -5131.4 0
-5131.4 5327.37 0
0 0 0
4871.69 -23553.8 0
-23553.8 6023.48 0
0 0 0
4811.79 -27970.1 0
-27970.1 6667.75 0
0 0 0
4740.7 27283.5 0
27283.5 6722.19 0
0 0 0
4645.14 69278 0
69278 6583.11 0
0 0 0
5082.63 1613.24 0
1613.24 5013.02 0
0 0 0
4899.09 18242.5 0
18242.5 4762.06 0
0 0 0
4910.65 9510.8 0
9510.8 4692.58 0
0 0 0
4919.48 1057.04 0
1057.04 4635.49 0
0 0 0
4958.12 -2171.56 0
-2171.56 4648.34 0
0 0 0
4955.64 -6081.98 0
-6081.98 4891.75 0
0 0 0
4874.36 -2332 0
-2332 5272.71 0
0 0 0
4817.13 -19549.4 0
-19549.4 5860.48 0
0 0 0
4747.5 -32541.4 0
-32541.4 6395.93 0
0 0 0
4685.82 13848.9 0
13848.9 6519.84 0
0 0 0
4600.56 60379.8 0
60379.8 6439.29 0
0 0 0
5083.41 3517 0
3517 4981.57 0
0 0 0
4869.88 17588.7 0
17588.7 4727.4 0
0 0 0
4879.57 9552.47 0
9552.47 4658.36 0
0 0 0
4887.13 2158.28 0
2158.28 4602.07 0
0 0 0
4931.25 -1008.43 0
-1008.43 4623.95 0
0 0 0
4926.72 -6123.34 0
-6123.34 4861.62 0
0 0 0
4825.69 915.734 0
915.734 5199.85 0
0 0 0
4761.48 -13985.3 0
-13985.3 5687.63 0
0 0 0
4685.75 -29413.6 0
-29413.6 6123.38 0
0 0 0
4630.26 -5889.77 0
-5889.77 6315.02 0
0 0 0
4554.14 50203.1 0
50203.1 6303.66 0
0 0 0
5084.45 5179.68 0
5179.68 4941.58 0
0 0 0
4829.4 16138 0
16138 4682.96 0
0 0 0
4835.67 8377.76 0
8377.76 4612.66 0
0 0 0
4840.54 2694.88 0
2694.88 4555.68 0
0 0 0
4891.64 -337.44 0
-337.44 4585.03 0
0 0 0
4883.03 -6617.11 0
-6617.11 4810.33 0
0 0 0
4754.54 3825.83 0
3825.83 5079.24 0
0 0 0
4683.3 -5977.66 0
-5977.66 5470.71 0
0 0 0
4602.13 -17118.4 0
-17118.4 5815.98 0
0 0 0
4549.38 -16898.4 0
-16898.4 6035.94 0
0 0 0
4484.36 25680.2 0
25680.2 6120.16 0
0 0 0
5085.96 5822.71 0
5822.71 4889.49 0
0 0 0
4771.29 12245.2 0
12245.2 4625.99 0
0 0 0
4772.43 6321.55 0
6321.55 4552.22 0
0 0 0
4772.77 2626.96 0
2626.96 4492.31 0
0 0 0
4833.58 263.73 0
263.73 4519.22 0
0 0 0
4817.77 -6406 0
-6406 4723.28 0
0 0 0
4653.27 6384.23 0
6384.23 4897.6 0
0 0 0
4573.99 1913.64 0
1913.64 5225.45 0
0 0 0
4485.85 -3972.52 0
-3972.52 5517.73 0
0 0 0
4431.94 -11013.3 0
-11013.3 5726.45 0
0 0 0
4375.51 14161.5 0
14161.5 5881.58 0
0 0 0
5087.86 5279.5 0
5279.5 4830.47 0
0 0 0
4700.25 9110.35 0
9110.35 4563.7 0
0 0 0
4695.73 4533.99 0
4533.99 4484.65 0
0 0 0
4690.81 2637.96 0
2637.96 4419.93 0
0 0 0
4763.91 1332.09 0
1332.09 4432.45 0
0 0 0
4739.02 -4531.14 0
-4531.14 4612.65 0
0 0 0
4710.02 4722.07 0
4722.07 4753.33 0
0 0 0
4446.89 8157.59 0
8157.59 4999.92 0
0 0 0
4350.03 5349.47 0
5349.47 5276.27 0
0 0 0
4290.81 3.77678 0
3.77678 5478.18 0
0 0 0
4235.69 13012.7 0
13012.7 5661.89 0
0 0 0
5089.96 4382.85 0
4382.85 4769.76 0
0 0 0
4624.32 7107.99 0
7107.99 4501.77 0
0 0 0
4614.57 4095.84 0
4095.84 4416.67 0
0 0 0
4604.58 2877.25 0
2877.25 4346.4 0
0 0 0
4691.61 2671.6 0
2671.6 4338.35 0
0 0 0
4657.52 -1938.63 0
-1938.63 4498 0
0 0 0
4622.65 596.737 0
596.737 4632.87 0
0 0 0
4314.86 11654 0
11654 4809.4 0
0 0 0
4207.27 10401.5 0
10401.5 5088.72 0
0 0 0
4139.56 7079.51 0
7079.51 5295.79 0
0 0 0
4079.83 12130.6 0
12130.6 5494.03 0
0 0 0
5092.11 4212.15 0
4212.15 4708.26 0
0 0 0
4547.23 6084.04 0
6084.04 4439.99 0
0 0 0
4532.48 4958.44 0
4958.44 4348.85 0
0 0 0
4517.39 3362.15 0
3362.15 4273.04 0
0 0 0
4619.12 3953.21 0
3953.21 4242.58 0
0 0 0
4575.83 404.628 0
404.628 4385 0
0 0 0
4531.57 -4667.08 0
-4667.08 4509.45 0
0 0 0
4180.72 13200.9 0
13200.9 4639.64 0
0 0 0
4061.93 12864 0
12864 4928.49 0
0 0 0
3985.74 9274.96 0
9274.96 5144.05 0
0 0 0
3920.36 8564.32 0
8564.32 5354.06 0
0 0 0
5094.34 3988.94 0
3988.94 4643.62 0
0 0 0
4466.35 4777.78 0
4777.78 4374.99 0
0 0 0
4446.45 4011.55 0
4011.55 4277.89 0
0 0 0
4425.86 3078.44 0
3078.44 4196.51 0
0 0 0
4543.27 4694.84 0
4694.84 4141.58 0
0 0 0
4489.92 864.026 0
864.026 4268 0
0 0 0
4433.5 -4663.27 0
-4663.27 4378.2 0
0 0 0
4037.83 13384.1 0
13384.1 4470.41 0
0 0 0
3908.05 13556.2 0
13556.2 4771.07 0
0 0 0
3824.49 10398.9 0
10398.9 4995.05 0
0 0 0
3753.27 7489.3 0
7489.3 5212.36 0
0 0 0
TENSORS strain double
0.126236 0.0891312 0
0.0891312 -2.49413 0
0 0 0
0.118113 0.324373 0
0.324373 -2.67903 0
0 0 0
-0.12031 0.318036 0
0.318036 -2.81512 0
0 0 0
-0.115646 0.106288 0
0.106288 -2.91282 0
0 0 0
0.0249115 -0.0367262 0
-0.0367262 -2.98135 0
0 0 0
0.0246239 -0.0370377 0
-0.0370377 -2.9722 0
0 0 0
-0.0829367 -0.0713691 0
-0.0713691 -2.88656 0
0 0 0
-0.0853021 -0.304316 0
-0.304316 -2.53997 0
0 0 0
-0.398332 -0.398891 0
-0.398891 -2.172 0
0 0 0
-1.55925 -0.120088 0
-0.120088 -0.490935 0
0 0 0
-2.27133 0.0492446 0
0.0492446 0.144602 0
0 0 0
0.377183 0.0546773 0
0.0546773 -2.5103 0
0 0 0
0.329011 0.333258 0
0.333258 -2.72459 0
0 0 0
-0.358726 0.23464 0
0.23464 -2.83446 0
0 0 0
-0.346249 0.0554763 0
0.0554763 -2.91935 0
0 0 0
0.074744 -0.0481595 0
-0.0481595 -2.9816 0
0 0 0
0.0738564 -0.0490885 0
-0.0490885 -2.97137 0
0 0 0
-0.249404 -0.0579776 0
-0.0579776 -2.87058 0
0 0 0
-0.255005 -0.261821 0
-0.261821 -2.57485 0
0 0 0
-0.80598 -0.308447 0
-0.308447 -2.28094 0
0 0 0
-1.87912 0.230542 0
0.230542 -1.78474 0
0 0 0
-2.47731 0.411157 0
0.411157 -1.37059 0
0 0 0
0.559699 0.00521272 0
0.00521272 -3.3745 0
0 0 0
0.161874 0.203674 0
0.203674 -3.39499 0
0 0 0
-0.541538 0.10712 0
0.10712 -3.38523 0
0 0 0
-0.527212 0.00349939 0
0.00349939 -3.39113 0
0 0 0
0.113198 -0.0393865 0
-0.0393865 -3.39324 0
0 0 0
0.112069 -0.0597268 0
-0.0597268 -3.35675 0
0 0 0
-0.403077 -0.051314 0
-0.051314 -3.21335 0
0 0 0
-0.412806 -0.235538 0
-0.235538 -2.88031 0
0 0 0
-1.02414 -0.279701 0
-0.279701 -2.57496 0
0 0 0
-1.93986 0.272835 0
0.272835 -2.55882 0
0 0 0
-2.49589 0.69278 0
0.69278 -2.63583 0
0 0 0
0.605691 0.0161324 0
0.0161324 -3.53812 0
0 0 0
0.108066 0.182425 0
0.182425 -3.51197 0
0 0 0
-0.588651 0.095108 0
0.095108 -3.46723 0
0 0 0
-0.578147 0.0105704 0
0.0105704 -3.44013 0
0 0 0
0.111958 -0.0217156 0
-0.0217156 -3.41185 0
0 0 0
0.111595 -0.0608198 0
-0.0608198 -3.34512 0
0 0 0
-0.535912 -0.02332 0
-0.02332 -3.18816 0
0 0 0
-0.554361 -0.195494 0
-0.195494 -2.88828 0
0 0 0
-1.00237 -0.325414 0
-0.325414 -2.60505 0
0 0 0
-1.82764 0.138489 0
0.138489 -2.66755 0
0 0 0
-2.38731 0.603798 0
0.603798 -2.82581 0
0 0 0
0.642225 0.03517 0
0.03517 -3.46141 0
0 0 0
0.0642815 0.175887 0
0.175887 -3.3945 0
0 0 0
-0.622571 0.0955247 0
0.0955247 -3.32532 0
0 0 0
-0.615504 0.0215828 0
0.0215828 -3.27143 0
0 0 0
0.0975625 -0.0100843 0
-0.0100843 -3.21447 0
0 0 0
0.097539 -0.0612334 0
-0.0612334 -3.13141 0
0 0 0
-0.678768 0.00915734 0
0.00915734 -2.96545 0
0 0 0
-0.705852 -0.139853 0
-0.139853 -2.69975 0
0 0 0
-1.06806 -0.294136 0
-0.294136 -2.46604 0
0 0 0
-1.65467 -0.0588977 0
-0.0588977 -2.52124 0
0 0 0
-2.29135 0.502031 0
0.502031 -2.75133 0
0 0 0
0.677634 0.0517968 0
0.0517968 -3.07557 0
0 0 0
0.0124993 0.16138 0
0.16138 -2.98219 0
0 0 0
-0.654789 0.0837776 0
0.0837776 -2.90369 0
0 0 0
-0.651958 0.0269488 0
0.0269488 -2.84046 0
0 0 0
0.0655593 -0.0033744 0
-0.0033744 -2.75728 0
0 0 0
0.0649021 -0.0661711 0
-0.0661711 -2.64242 0
0 0 0
-0.844633 0.0382583 0
0.0382583 -2.49695 0
0 0 0
-0.875977 -0.0597766 0
-0.0597766 -2.3066 0
0 0 0
-1.2123 -0.171184 0
-0.171184 -2.15387 0
0 0 0
-1.50998 -0.168984 0
-0.168984 -2.13527 0
0 0 0
-2.00494 0.256802 0
0.256802 -2.32809 0
0 0 0
0.698657 0.0582271 0
0.0582271 -2.77871 0
0 0 0
-0.00545196 0.122452 0
0.122452 -2.7057 0
0 0 0
-0.675498 0.0632155 0
0.0632155 -2.63086 0
0 0 0
-0.675994 0.0262696 0
0.0262696 -2.55999 0
0 0 0
0.0119 0.0026373 0
0.0026373 -2.47139 0
0 0 0
0.00915005 -0.06406 0
-0.06406 -2.33448 0
0 0 0
-0.977615 0.0638423 0
0.0638423 -2.22181 0
0 0 0
-1.00473 0.0191364 0
0.0191364 -2.11189 0
0 0 0
-1.31654 -0.0397252 0
-0.0397252 -2.01354 0
0 0 0
-1.4873 -0.110133 0
-0.110133 -1.96704 0
0 0 0
-1.80577 0.141615 0
0.141615 -2.08446 0
0 0 0
0.689265 0.052795 0
0.052795 -2.61792 0
0 0 0
-0.00850367 0.0911035 0
0.0911035 -2.57842 0
0 0 0
-0.672113 0.0453399 0
0.0453399 -2.50671 0
0 0 0
-0.673786 0.0263796 0
0.0263796 -2.45503 0
0 0 0
-0.0453606 0.0133209 0
0.0133209 -2.36616 0
0 0 0
-0.050225 -0.0453114 0
-0.0453114 -2.22889 0
0 0 0
-0.992979 0.0472207 0
0.0472207 -2.14679 0
0 0 0
-1.05184 0.0815759 0
0.0815759 -2.06809 0
0 0 0
-1.33113 0.0534947 0
0.0534947 -2.01628 0
0 0 0
-1.49003 3.77678e-05 0
3.77678e-05 -1.97654 0
0 0 0
-1.66405 0.130127 0
0.130127 -2.01696 0
0 0 0
0.654908 0.0438285 0
0.0438285 -2.5802 0
0 0 0
0.0119089 0.0710799 0
0.0710799 -2.56079 0
0 0 0
-0.653088 0.0409584 0
0.0409584 -2.49467 0
0 0 0
-0.65518 0.0287725 0
0.0287725 -2.44696 0
0 0 0
-0.0900361 0.026716 0
0.026716 -2.37067 0
0 0 0
-0.0959173 -0.0193863 0
-0.0193863 -2.24105 0
0 0 0
-0.909143 0.00596737 0
0.00596737 -2.14148 0
0 0 0
-1.03877 0.11654 0
0.11654 -2.10203 0
0 0 0
-1.29034 0.104015 0
0.104015 -2.06336 0
0 0 0
-1.44515 0.0707951 0
0.0707951 -2.02623 0
0 0 0
-1.53233 0.121306 0
0.121306 -2.04068 0
0 0 0
0.614704 0.0421215 0
0.0421215 -2.55886 0
0 0 0
0.0542207 0.0608404 0
0.0608404 -2.52152 0
0 0 0
-0.634901 0.0495844 0
0.0495844 -2.47142 0
0 0 0
-0.637213 0.0336215 0
0.0336215 -2.41188 0
0 0 0
-0.120489 0.0395321 0
0.0395321 -2.34182 0
0 0 0
-0.126698 0.00404628 0
0.00404628 -2.21582 0
0 0 0
-0.756775 -0.0466708 0
-0.0466708 -2.1035 0
0 0 0
-1.00352 0.132009 0
0.132009 -2.08195 0
0 0 0
-1.23497 0.12864 0
0.12864 -2.03955 0
0 0 0
-1.39547 0.0927496 0
0.0927496 -2.02115 0
0 0 0
-1.44626 0.0856432 0
0.0856432 -2.00988 0
0 0 0
0.575108 0.0398894 0
0.0398894 -2.51841 0
0 0 0
0.0923142 0.0477778 0
0.0477778 -2.47746 0
0 0 0
-0.62135 0.0401155 0
0.0401155 -2.41139 0
0 0 0
-0.622741 0.0307844 0
0.0307844 -2.36182 0
0 0 0
-0.140027 0.0469484 0
0.0469484 -2.27791 0
0 0 0
-0.14604 0.00864026 0
0.00864026 -2.60114 0
0 0 0
-0.647522 -0.0466327 0
-0.0466327 -2.04359 0
0 0 0
-0.961163 0.133841 0
0.133841 -2.02672 0
0 0 0
-1.1885 0.135562 0
0.135562 -1.99307 0
0 0 0
-1.35553 0.103989 0
0.103989 -1.96051 0
0 0 0
-1.39177 0.074893 0
0.074893 -1.94776 0
0 0 0
