# vtk DataFile Version 3.0
MPM2D particles
ASCII
DATASET POLYDATA
POINTS 121 double
0.0125696 0.0124173 0
0.0377086 0.0124126 0
0.0627359 0.0124085 0
0.0875955 0.0124051 0
0.112504 0.0124025 0
0.137534 0.012402 0
0.162558 0.0123986 0
0.187559 0.0123828 0
0.212506 0.0123714 0
0.236837 0.0124089 0
0.261167 0.0124466 0
0.0127097 0.0372518 0
0.0381292 0.0372378 0
0.0632039 0.0372254 0
0.087785 0.0372152 0
0.112513 0.0372075 0
0.137602 0.0372059 0
0.162675 0.0371957 0
0.187677 0.0371483 0
0.212515 0.0371142 0
0.235559 0.0372231 0
0.258599 0.0373323 0
0.0127864 0.0615918 0
0.0383593 0.0615771 0
0.0634564 0.0615641 0
0.0878884 0.0615533 0
0.11252 0.0615452 0
0.13764 0.0615435 0
0.162738 0.0615327 0
0.187736 0.0614831 0
0.212511 0.0614477 0
0.234884 0.0615618 0
0.257259 0.0616755 0
0.0127602 0.085144 0
0.0382807 0.0851419 0
0.0633716 0.0851398 0
0.087857 0.0851379 0
0.112523 0.0851364 0
0.137631 0.0851359 0
0.162715 0.0851342 0
0.187701 0.0851271 0
0.212487 0.0851227 0
0.235093 0.0851466 0
0.2577 0.0851704 0
0.0127328 0.109023 0
0.0381984 0.109031 0
0.0632822 0.109038 0
0.0878232 0.109044 0
0.112525 0.109048 0
0.13762 0.109049 0
0.162692 0.109054 0
0.187669 0.109082 0
0.212469 0.109103 0
0.235319 0.109051 0
0.258168 0.108999 0
0.0127008 0.134051 0
0.0381025 0.13406 0
0.0631768 0.134068 0
0.087781 0.134075 0
0.112523 0.13408 0
0.137604 0.134082 0
0.162667 0.134089 0
0.18765 0.134118 0
0.212479 0.13414 0
0.235601 0.134078 0
0.258723 0.134016 0
0.0126689 0.159069 0
0.0380066 0.159079 0
0.063071 0.159088 0
0.0877385 0.159096 0
0.112522 0.159102 0
0.137589 0.159105 0
0.162641 0.159113 0
0.18763 0.159144 0
0.212488 0.159167 0
0.235888 0.159096 0
0.259287 0.159025 0
0.0126366 0.183976 0
0.0379096 0.183986 0
0.0629631 0.183994 0
0.0876943 0.184001 0
0.112519 0.184007 0
0.137572 0.18401 0
0.162614 0.184019 0
0.187607 0.18405 0
0.212493 0.184074 0
0.236186 0.184005 0
0.259878 0.183936 0
0.0126046 0.208866 0
0.0378137 0.208874 0
0.0628558 0.208882 0
0.0876503 0.208888 0
0.112516 0.208894 0
0.137556 0.208897 0
0.162588 0.208906 0
0.187584 0.208938 0
0.212499 0.208963 0
0.236485 0.208896 0
0.260471 0.208829 0
0.0125844 0.233247 0
0.0377533 0.233255 0
0.0627884 0.233262 0
0.0876241 0.233268 0
0.112516 0.233273 0
0.137547 0.233276 0
0.16257 0.233283 0
0.187562 0.23331 0
0.212489 0.233329 0
0.236668 0.233268 0
0.260847 0.233206 0
0.0125645 0.257626 0
0.0376934 0.257634 0
0.0627214 0.257641 0
0.087598 0.257646 0
0.112516 0.257651 0
0.137538 0.257653 0
0.162552 0.257658 0
0.18754 0.257679 0
0.212478 0.257693 0
0.236851 0.257637 0
0.261223 0.257581 0
VERTICES 121 242
1 0
1 1
1 2
1 3
1 4
1 5
1 6
1 7
1 8
1 9
1 10
1 11
1 12
1 13
1 14
1 15
1 16
1 17
1 18
1 19
1 20
1 21
1 22
1 23
1 24
1 25
1 26
1 27
1 28
1 29
1 30
1 31
1 32
1 33
1 34
1 35
1 36
1 37
1 38
1 39
1 40
1 41
1 42
1 43
1 44
1 45
1 46
1 47
1 48
1 49
1 50
1 51
1 52
1 53
1 54
1 55
1 56
1 57
1 58
1 59
1 60
1 61
1 62
1 63
1 64
1 65
1 66
1 67
1 68
1 69
1 70
1 71
1 72
1 73
1 74
1 75
1 76
1 77
1 78
1 79
1 80
1 81
1 82
1 83
1 84
1 85
1 86
1 87
1 88
1 89
1 90
1 91
1 92
1 93
1 94
1 95
1 96
1 97
1 98
1 99
1 100
1 101
1 102
1 103
1 104
1 105
1 106
1 107
1 108
1 109
1 110
1 111
1 112
1 113
1 114
1 115
1 116
1 117
1 118
1 119
1 120
POINT_DATA 121
VECTORS velocity double
0.686414 1.13814 0
0.27263 1.12457 0
0.021122 1.11325 0
0.0148247 1.10526 0
0.00983008 1.10218 0
0.00803651 1.11112 0
0.0221857 1.10797 0
0.10665 1.05176 0
0.137787 1.00836 0
-0.442929 1.11084 0
-1.02353 1.21327 0
0.622971 0.212383 0
0.226475 0.204702 0
-0.0073338 0.198342 0
-0.00275035 0.19385 0
0.000136497 0.19207 0
-0.00113807 0.196954 0
0.0148485 0.195144 0
0.106209 0.164403 0
0.15228 0.140837 0
-0.305882 0.195457 0
-0.763715 0.24992 0
0.563357 -0.35223 0
0.193461 -0.355039 0
-0.0208629 -0.357383 0
-0.0111453 -0.359086 0
-0.00448445 -0.359845 0
-0.00533823 -0.35828 0
0.0107916 -0.358991 0
0.10066 -0.369463 0
0.151464 -0.377399 0
-0.227739 -0.358256 0
-0.606965 -0.339191 0
0.510002 -0.347843 0
0.18134 -0.347161 0
-0.0107526 -0.346657 0
-0.00492873 -0.3464 0
-0.000962792 -0.346371 0
-0.00156049 -0.346905 0
0.0119404 -0.346832 0
0.0868211 -0.34415 0
0.125556 -0.341967 0
-0.236057 -0.345149 0
-0.597676 -0.348344 0
0.454464 -0.34308 0
0.166883 -0.339661 0
-0.00266169 -0.336905 0
-3.49086e-05 -0.335077 0
0.00171615 -0.334399 0
0.00131746 -0.336541 0
0.0124447 -0.335875 0
0.0738931 -0.323113 0
0.102457 -0.313178 0
-0.235582 -0.334044 0
-0.573661 -0.354911 0
0.390799 -0.335452 0
0.143727 -0.332149 0
-0.00238592 -0.329428 0
-0.000234911 -0.327532 0
0.00117421 -0.326741 0
0.000762524 -0.328666 0
0.0104779 -0.32806 0
0.0644785 -0.316506 0
0.0901486 -0.307631 0
-0.201757 -0.328194 0
-0.49371 -0.348759 0
0.326898 -0.328949 0
0.120469 -0.325797 0
-0.00200905 -0.323145 0
-0.000359387 -0.321215 0
0.00068985 -0.320339 0
0.000266165 -0.322051 0
0.00853715 -0.32148 0
0.0548913 -0.310989 0
0.0774696 -0.303029 0
-0.167934 -0.323147 0
-0.413381 -0.343266 0
0.261778 -0.351555 0
0.097548 -0.348688 0
-0.000391926 -0.346274 0
0.000396209 -0.344518 0
0.000821907 -0.343724 0
0.00035869 -0.345288 0
0.00683808 -0.344461 0
0.0437908 -0.333214 0
0.0615467 -0.324484 0
-0.138333 -0.343898 0
-0.338256 -0.363314 0
0.197211 -0.379415 0
0.0747674 -0.37683 0
0.00126448 -0.374651 0
0.00117732 -0.37307 0
0.000969187 -0.372357 0
0.000464678 -0.373776 0
0.00516926 -0.372694 0
0.032786 -0.360681 0
0.0457133 -0.351169 0
-0.108863 -0.369878 0
-0.263475 -0.388588 0
0.147646 -0.444643 0
0.0573753 -0.442292 0
0.00279403 -0.440284 0
0.00198409 -0.438785 0
0.00126488 -0.438113 0
0.00076844 -0.439466 0
0.00412514 -0.438856 0
0.0244503 -0.429635 0
0.0334266 -0.422487 0
-0.0877927 -0.43893 0
-0.209042 -0.455377 0
0.0981714 -0.508406 0
0.0399505 -0.506304 0
0.00429241 -0.50448 0
0.00277279 -0.503072 0
0.00155299 -0.502446 0
0.00106885 -0.503738 0
0.00308869 -0.503609 0
0.0161475 -0.497232 0
0.0211728 -0.492494 0
-0.0665328 -0.50659 0
-0.154267 -0.520691 0
SCALARS mass double 1
LOOKUP_TABLE default
2.67769
2.67769
2.67769
2.67769
2.67769
2.67769
2.67769
2.67769
2.67769
2.67769
2.67769
2.67769
2.67769
2.67769
2.67769
2.67769
2.67769
2.67769
2.67769
2.67769
2.67769
2.67769
2.67769
2.67769
2.67769
2.67769
2.67769
2.67769
2.67769
2.67769
2.67769
2.67769
2.67769
2.67769
2.67769
2.67769
2.67769
2.67769
2.67769
2.67769
2.67769
2.67769
2.67769
2.67769
2.67769
2.67769
2.67769
2.67769
2.67769
2.67769
2.67769
2.67769
2.67769
2.67769
2.67769
2.67769
2.67769
2.67769
2.67769
2.67769
2.67769
2.67769
2.67769
2.67769
2.67769
2.67769
2.67769
2.67769
2.67769
2.67769
2.67769
2.67769
2.67769
2.67769
2.67769
2.67769
2.67769
2.67769
2.67769
2.67769
2.67769
2.67769
2.67769
2.67769
2.67769
2.67769
2.67769
2.67769
2.67769
2.67769
2.67769
2.67769
2.67769
2.67769
2.67769
2.67769
2.67769
2.67769
2.67769
2.67769
2.67769
2.67769
2.67769
2.67769
2.67769
2.67769
2.67769
2.67769
2.67769
2.67769
2.67769
2.67769
2.67769
2.67769
2.67769
2.67769
2.67769
2.67769
2.67769
2.67769
2.67769
SCALARS volume double 1
LOOKUP_TABLE default
0.000742993
0.000742714
0.00073421
0.000734007
0.000738875
0.000738843
0.000737789
0.00073685
0.000716454
0.000718617
0.000720787
0.000751281
0.000750997
0.000725979
0.000725781
0.000740629
0.000740597
0.000737827
0.000736888
0.000678543
0.000680499
0.000682459
0.000716848
0.000717231
0.000685429
0.000685685
0.00070529
0.000705328
0.000702137
0.000703401
0.000630134
0.000627718
0.00062531
0.000715373
0.000715754
0.000686932
0.00068719
0.000704932
0.00070497
0.00070179
0.000703053
0.000636723
0.000634259
0.000631805
0.000758494
0.000758528
0.000731025
0.000731061
0.000747598
0.000747628
0.000744152
0.000744205
0.000680848
0.000680579
0.000680311
0.00075659
0.000756624
0.000732906
0.000732942
0.000747179
0.000747209
0.000744328
0.000744381
0.00068898
0.000688706
0.000688431
0.000751065
0.000751039
0.000731142
0.000731124
0.000742957
0.000742964
0.000740655
0.000740681
0.000693611
0.000693671
0.000693731
0.000749148
0.000749122
0.000733031
0.000733013
0.000742556
0.000742563
0.000740771
0.000740797
0.000702287
0.000702349
0.00070241
0.000734777
0.000734758
0.000722644
0.000722631
0.000729785
0.000729793
0.000728539
0.000728594
0.00069796
0.000699196
0.000699224
0.000730244
0.000730227
0.000720531
0.000720521
0.000726169
0.000726146
0.000724976
0.0007248
0.000701047
0.000701202
0.000701358
0.000729083
0.000729066
0.00072172
0.00072171
0.000725896
0.000725872
0.000724845
0.000724668
0.000706661
0.000706818
0.000706976
TENSORS stress double
4910.82 270.11 0
270.11 9676.48 0
0 0 0
4910.87 828.865 0
828.865 9669.69 0
0 0 0
4802.56 940.727 0
940.727 9663.58 0
0 0 0
4802.62 376.857 0
376.857 9658.47 0
0 0 0
4869.23 16.4792 0
16.4792 9654.52 0
0 0 0
4869.24 135.593 0
135.593 9653.46 0
0 0 0
4850.29 202.49 0
202.49 9648.9 0
0 0 0
4850.53 205.18 0
205.18 9629.14 0
0 0 0
4626.88 99.6689 0
99.6689 9615.05 0
0 0 0
4625.75 -2587.19 0
-2587.19 9665.15 0
0 0 0
4624.61 -5274.03 0
-5274.03 9715.24 0
0 0 0
4579.11 253.032 0
253.032 8799.05 0
0 0 0
4579.27 814.695 0
814.695 8792.46 0
0 0 0
4254.32 921.981 0
921.981 8786.61 0
0 0 0
4254.5 361.064 0
361.064 8781.74 0
0 0 0
4454.34 14.3941 0
14.3941 8777.98 0
0 0 0
4454.36 133.64 0
133.64 8776.94 0
0 0 0
4397.51 139.11 0
139.11 8772.5 0
0 0 0
4398.24 141.833 0
141.833 8753.67 0
0 0 0
3727.3 250.164 0
250.164 8740.39 0
0 0 0
3724 -2369.35 0
-2369.35 8785.89 0
0 0 0
3720.69 -4988.8 0
-4988.8 8831.39 0
0 0 0
4207.62 -82.8134 0
-82.8134 7395.7 0
0 0 0
4207.84 -189.403 0
-189.403 7405.85 0
0 0 0
3763.09 -198.045 0
-198.045 7414.72 0
0 0 0
3763.24 -87.2482 0
-87.2482 7421.94 0
0 0 0
4036.14 2.60479 0
2.60479 7427.49 0
0 0 0
4036.16 -23.4383 0
-23.4383 7428.96 0
0 0 0
3955.62 -146.643 0
-146.643 7435.78 0
0 0 0
3956.36 -171.965 0
-171.965 7465.02 0
0 0 0
3038.25 197.935 0
197.935 7485.94 0
0 0 0
3036.9 698.814 0
698.814 7420.93 0
0 0 0
3035.55 1199.7 0
1199.7 7355.92 0
0 0 0
3771.37 -57.5352 0
-57.5352 6559.07 0
0 0 0
3771.4 -164.015 0
-164.015 6568.84 0
0 0 0
3364.5 -180.027 0
-180.027 6577.4 0
0 0 0
3364.53 -69.1138 0
-69.1138 6584.37 0
0 0 0
3612.19 5.15088 0
5.15088 6589.74 0
0 0 0
3612.2 -20.886 0
-20.886 6591.18 0
0 0 0
3531.23 -60.1513 0
-60.1513 6597.71 0
0 0 0
3531.33 -85.3976 0
-85.3976 6625.66 0
0 0 0
2699.77 0.19017 0
0.19017 6645.74 0
0 0 0
2699.49 503.835 0
503.835 6582.82 0
0 0 0
2699.22 1007.48 0
1007.48 6519.9 0
0 0 0
3328.61 -47.0873 0
-47.0873 6310.23 0
0 0 0
3328.49 -173.942 0
-173.942 6310.84 0
0 0 0
2961.56 -201.135 0
-201.135 6311.52 0
0 0 0
2961.49 -73.9109 0
-73.9109 6312.32 0
0 0 0
3182.83 -1.22751 0
-1.22751 6313.1 0
0 0 0
3182.82 -29.3053 0
-29.3053 6313.82 0
0 0 0
3103.69 3.73984 0
3.73984 6314.47 0
0 0 0
3103.28 15.5378 0
15.5378 6314.84 0
0 0 0
2359.36 -90.9535 0
-90.9535 6314.76 0
0 0 0
2359.96 475.814 0
475.814 6310.04 0
0 0 0
2360.56 1042.58 0
1042.58 6305.32 0
0 0 0
2862.24 -44.7689 0
-44.7689 5426.52 0
0 0 0
2862.09 -171.475 0
-171.475 5427.09 0
0 0 0
2545.13 -198.936 0
-198.936 5427.74 0
0 0 0
2545.04 -71.5594 0
-71.5594 5428.51 0
0 0 0
2735.06 0.814977 0
0.814977 5429.25 0
0 0 0
2735.03 -27.2554 0
-27.2554 5429.94 0
0 0 0
2669.2 7.30738 0
7.30738 5430.56 0
0 0 0
2668.76 19.1063 0
19.1063 5430.87 0
0 0 0
2016.11 -111.342 0
-111.342 5430.77 0
0 0 0
2016.83 458.551 0
458.551 5426.28 0
0 0 0
2017.55 1028.44 0
1028.44 5421.79 0
0 0 0
2396 -43.9112 0
-43.9112 4407.94 0
0 0 0
2395.84 -172.604 0
-172.604 4407.14 0
0 0 0
2128.81 -201.328 0
-201.328 4406.42 0
0 0 0
2128.7 -73.2376 0
-73.2376 4405.81 0
0 0 0
2287.43 -0.290837 0
-0.290837 4405.44 0
0 0 0
2287.4 -27.3235 0
-27.3235 4405.64 0
0 0 0
2234.75 8.69346 0
8.69346 4405.77 0
0 0 0
2234.29 16.528 0
16.528 4405.57 0
0 0 0
1673.3 -136.246 0
-136.246 4405.74 0
0 0 0
1674.1 464.604 0
464.604 4409.94 0
0 0 0
1674.91 1065.45 0
1065.45 4414.15 0
0 0 0
1931.24 -45.5625 0
-45.5625 3527.28 0
0 0 0
1931.09 -174.102 0
-174.102 3526.51 0
0 0 0
1713.59 -202.827 0
-202.827 3525.81 0
0 0 0
1713.49 -74.5826 0
-74.5826 3525.22 0
0 0 0
1841.48 0.152657 0
0.152657 3524.86 0
0 0 0
1841.44 -26.8732 0
-26.8732 3525.05 0
0 0 0
1800.16 10.4605 0
10.4605 3525.17 0
0 0 0
1799.69 18.2953 0
18.2953 3524.95 0
0 0 0
1336.2 -131.298 0
-131.298 3525.09 0
0 0 0
1336.99 473.032 0
473.032 3529.27 0
0 0 0
1337.77 1077.36 0
1077.36 3533.44 0
0 0 0
1466.82 -34.4729 0
-34.4729 2647.27 0
0 0 0
1466.69 -137.409 0
-137.409 2646.53 0
0 0 0
1298.68 -160.459 0
-160.459 2645.85 0
0 0 0
1298.59 -56.13 0
-56.13 2645.28 0
0 0 0
1395.85 4.41798 0
4.41798 2644.93 0
0 0 0
1395.81 -18.6802 0
-18.6802 2645.12 0
0 0 0
1365.89 22.0334 0
22.0334 2645.22 0
0 0 0
1365.41 23.4347 0
23.4347 2644.98 0
0 0 0
999.356 -142.367 0
-142.367 2645.09 0
0 0 0
1000.12 345.345 0
345.345 2649.24 0
0 0 0
1000.88 829.678 0
829.678 2653.38 0
0 0 0
1020.69 -24.4947 0
-24.4947 1744.14 0
0 0 0
1020.57 -105.214 0
-105.214 1743.35 0
0 0 0
883.083 -123.581 0
-123.581 1742.67 0
0 0 0
882.997 -40.4851 0
-40.4851 1742.15 0
0 0 0
961.094 5.32527 0
5.32527 1741.53 0
0 0 0
961.06 -13.7556 0
-13.7556 1740.65 0
0 0 0
935.919 18.1244 0
18.1244 1739.06 0
0 0 0
935.518 8.98595 0
8.98595 1734.42 0
0 0 0
632.887 -147.606 0
-147.606 1730.56 0
0 0 0
633.67 248.982 0
248.982 1735.55 0
0 0 0
634.452 645.57 0
645.57 1740.55 0
0 0 0
575.095 -25.5952 0
-25.5952 881.802 0
0 0 0
574.984 -106.254 0
-106.254 881.03 0
0 0 0
467.018 -124.381 0
-124.381 880.363 0
0 0 0
466.937 -41.221 0
-41.221 879.852 0
0 0 0
526.467 3.74851 0
3.74851 879.24 0
0 0 0
526.444 -15.3289 0
-15.3289 878.38 0
0 0 0
505.731 6.21901 0
6.21901 876.849 0
0 0 0
505.419 -2.91752 0
-2.91752 872.381 0
0 0 0
264.546 -136.367 0
-136.367 868.66 0
0 0 0
265.26 261.711 0
261.711 873.521 0
0 0 0
265.974 659.788 0
659.788 878.382 0
0 0 0
TENSORS strain double
0.00554994 0.0027011 0
0.0027011 -0.00663806 0
0 0 0
0.00554933 0.00828865 0
0.00828865 -0.00701186 0
0 0 0
-0.00562883 0.00940727 0
0.00940727 -0.00734621 0
0 0 0
-0.00562838 0.00376857 0
0.00376857 -0.00762182 0
0 0 0
0.0011851 0.000164792 0
0.000164792 -0.00782998 0
0 0 0
0.00118509 0.00135593 0
0.00135593 -0.0078725 0
0 0 0
2.81926e-05 0.0020249 0
0.0020249 -0.00814338 0
0 0 0
2.84089e-05 0.0020518 0
0.0020518 -0.00941635 0
0 0 0
-0.0270774 0.000996689 0
0.000996689 -0.0103413 0
0 0 0
-0.0271012 -0.0258719 0
-0.0258719 -0.0073097 0
0 0 0
-0.027125 -0.0527403 0
-0.0527403 -0.0042782 0
0 0 0
0.0166498 0.00253032 0
0.00253032 -0.00663936 0
0 0 0
0.016648 0.00814695 0
0.00814695 -0.00701577 0
0 0 0
-0.0168865 0.00921981 0
0.00921981 -0.0073495 0
0 0 0
-0.0168851 0.00361064 0
0.00361064 -0.00762317 0
0 0 0
0.0035553 0.000143941 0
0.000143941 -0.00782999 0
0 0 0
0.00355527 0.0013364 0
0.0013364 -0.00787258 0
0 0 0
8.45792e-05 0.0013911 0
0.0013911 -0.00814704 0
0 0 0
8.52285e-05 0.00141833 0
0.00141833 -0.0094206 0
0 0 0
-0.0812322 0.00250164 0
0.00250164 -0.0103381 0
0 0 0
-0.0813019 -0.0236935 0
-0.0236935 -0.00740962 0
0 0 0
-0.0813716 -0.049888 0
-0.049888 -0.00448127 0
0 0 0
0.0226724 -0.000828134 0
-0.000828134 -0.0595361 0
0 0 0
0.0226728 -0.00189403 0
-0.00189403 -0.0590052 0
0 0 0
-0.0229639 -0.00198045 0
-0.00198045 -0.0585413 0
0 0 0
-0.0229642 -0.000872482 0
-0.000872482 -0.058169 0
0 0 0
0.00481793 2.60479e-05 0
2.60479e-05 -0.0578889 0
0 0 0
0.00481794 -0.000234383 0
-0.000234383 -0.0578355 0
0 0 0
-7.73665e-05 -0.00146643 0
-0.00146643 -0.0574524 0
0 0 0
-7.70529e-05 -0.00171965 0
-0.00171965 -0.0556617 0
0 0 0
-0.110625 0.00197935 0
0.00197935 -0.054356 0
0 0 0
-0.110611 0.00698814 0
0.00698814 -0.0581641 0
0 0 0
-0.110598 0.011997 0
0.011997 -0.0619722 0
0 0 0
0.0206182 -0.000575352 0
-0.000575352 -0.0595365 0
0 0 0
0.0206182 -0.00164015 0
-0.00164015 -0.0590063 0
0 0 0
-0.020784 -0.00180027 0
-0.00180027 -0.0585422 0
0 0 0
-0.0207841 -0.000691138 0
-0.000691138 -0.0581693 0
0 0 0
0.00431247 5.15088e-05 0
5.15088e-05 -0.0578889 0
0 0 0
0.00431247 -0.00020886 0
-0.00020886 -0.0578355 0
0 0 0
-0.000569548 -0.000601513 0
-0.000601513 -0.0574534 0
0 0 0
-0.000569514 -0.000853976 0
-0.000853976 -0.0556633 0
0 0 0
-0.100327 1.9017e-06 0
1.9017e-06 -0.0543536 0
0 0 0
-0.100324 0.00503835 0
0.00503835 -0.0581871 0
0 0 0
-0.100322 0.0100748 0
0.0100748 -0.0620207 0
0 0 0
0.0184637 -0.000470873 0
-0.000470873 0.00111036 0
0 0 0
0.0184634 -0.00173942 0
-0.00173942 0.00115574 0
0 0 0
-0.018519 -0.00201135 0
-0.00201135 0.00120247 0
0 0 0
-0.0185189 -0.000739109 0
-0.000739109 0.00125097 0
0 0 0
0.00379446 -1.22751e-05 0
-1.22751e-05 0.00129727 0
0 0 0
0.00379446 -0.000293053 0
-0.000293053 0.00133817 0
0 0 0
-0.000914128 3.73984e-05 0
3.73984e-05 0.00138482 0
0 0 0
-0.000913908 0.000155378 0
0.000155378 0.00145641 0
0 0 0
-0.0896845 -0.000909535 0
-0.000909535 0.00148954 0
0 0 0
-0.089692 0.00475814 0
0.00475814 0.00110516 0
0 0 0
-0.0896996 0.0104258 0
0.0104258 0.000720774 0
0 0 0
0.0159472 -0.000447689 0
-0.000447689 0.00111033 0
0 0 0
0.0159469 -0.00171475 0
-0.00171475 0.00115563 0
0 0 0
-0.0159515 -0.00198936 0
-0.00198936 0.00120233 0
0 0 0
-0.0159513 -0.000715594 0
-0.000715594 0.00125091 0
0 0 0
0.00323366 8.14977e-06 0
8.14977e-06 0.00129727 0
0 0 0
0.00323365 -0.000272554 0
-0.000272554 0.00133815 0
0 0 0
-0.000677977 7.30738e-05 0
7.30738e-05 0.00138478 0
0 0 0
-0.000677743 0.000191063 0
0.000191063 0.00145637 0
0 0 0
-0.0778703 -0.00111342 0
-0.00111342 0.00148955 0
0 0 0
-0.0778793 0.00458551 0
0.00458551 0.00110227 0
0 0 0
-0.0778883 0.0102844 0
0.0102844 0.000715001 0
0 0 0
0.0134261 -0.000439112 0
-0.000439112 -0.00370532 0
0 0 0
0.0134258 -0.00172604 0
-0.00172604 -0.00374016 0
0 0 0
-0.0133829 -0.00201328 0
-0.00201328 -0.0037708 0
0 0 0
-0.0133827 -0.000732376 0
-0.000732376 -0.00379535 0
0 0 0
0.00267522 -2.90837e-06 0
-2.90837e-06 -0.00381022 0
0 0 0
0.00267521 -0.000273235 0
-0.000273235 -0.00380135 0
0 0 0
-0.000449638 8.69346e-05 0
8.69346e-05 -0.00378737 0
0 0 0
-0.000449442 0.00016528 0
0.00016528 -0.00375179 0
0 0 0
-0.0659929 -0.00136246 0
-0.00136246 -0.00371121 0
0 0 0
-0.0660037 0.00464604 0
0.00464604 -0.00361429 0
0 0 0
-0.0660144 0.0106545 0
0.0106545 -0.00351737 0
0 0 0
0.010869 -0.000455625 0
-0.000455625 -0.00370529 0
0 0 0
0.0108687 -0.00174102 0
-0.00174102 -0.00374009 0
0 0 0
-0.010806 -0.00202827 0
-0.00202827 -0.00377073 0
0 0 0
-0.0108058 -0.000745826 0
-0.000745826 -0.00379532 0
0 0 0
0.00213548 1.52657e-06 0
1.52657e-06 -0.00381022 0
0 0 0
0.00213546 -0.000268732 0
-0.000268732 -0.00380135 0
0 0 0
-0.000293301 0.000104605 0
0.000104605 -0.00378742 0
0 0 0
-0.000293106 0.000182953 0
0.000182953 -0.00375183 0
0 0 0
-0.0536108 -0.00131298 0
-0.00131298 -0.00371122 0
0 0 0
-0.0536211 0.00473032 0
0.00473032 -0.00361362 0
0 0 0
-0.0536315 0.0107736 0
0.0107736 -0.00351602 0
0 0 0
0.00833306 -0.000344729 0
-0.000344729 -0.0205349 0
0 0 0
0.00833282 -0.00137409 0
-0.00137409 -0.0205596 0
0 0 0
-0.00824967 -0.00160459 0
-0.00160459 -0.020582 0
0 0 0
-0.00824949 -0.0005613 0
-0.0005613 -0.0206009 0
0 0 0
0.0015994 4.41798e-05 0
4.41798e-05 -0.0206115 0
0 0 0
0.00159939 -0.000186802 0
-0.000186802 -0.0206014 0
0 0 0
-0.000140153 0.000220334 0
0.000220334 -0.0205792 0
0 0 0
-0.000139988 0.000234347 0
0.000234347 -0.0205035 0
0 0 0
-0.0413388 -0.00142367 0
-0.00142367 -0.0221519 0
0 0 0
-0.0413479 0.00345345 0
0.00345345 -0.020381 0
0 0 0
-0.0413571 0.00829678 0
0.00829678 -0.020332 0
0 0 0
0.00673268 -0.000244947 0
-0.000244947 -0.0251188 0
0 0 0
0.00673253 -0.00105214 0
-0.00105214 -0.025142 0
0 0 0
-0.00659329 -0.00123581 0
-0.00123581 -0.0251615 0
0 0 0
-0.00659318 -0.000404851 0
-0.000404851 -0.0251755 0
0 0 0
0.00122081 5.32527e-05 0
5.32527e-05 -0.0251949 0
0 0 0
0.0012208 -0.000137556 0
-0.000137556 -0.0252271 0
0 0 0
-0.000316545 0.000181244 0
0.000181244 -0.0252985 0
0 0 0
-0.00031655 8.98595e-05 0
8.98595e-05 -0.0255412 0
0 0 0
-0.0333452 -0.00147606 0
-0.00147606 -0.0257459 0
0 0 0
-0.033351 0.00248982 0
0.00248982 -0.0255194 0
0 0 0
-0.0333568 0.0064557 0
0.0064557 -0.025293 0
0 0 0
0.00514399 -0.000255952 0
-0.000255952 -0.0251188 0
0 0 0
0.00514385 -0.00106254 0
-0.00106254 -0.0251419 0
0 0 0
-0.00494828 -0.00124381 0
-0.00124381 -0.0251614 0
0 0 0
-0.00494817 -0.00041221 0
-0.00041221 -0.0251755 0
0 0 0
0.000844503 3.74851e-05 0
3.74851e-05 -0.0251949 0
0 0 0
0.000844496 -0.000153289 0
-0.000153289 -0.0252271 0
0 0 0
-0.000498456 6.21901e-05 0
6.21901e-05 -0.0252984 0
0 0 0
-0.000498462 -2.91752e-05 0
-2.91752e-05 -0.025541 0
0 0 0
-0.0253956 -0.00136367 0
-0.00136367 -0.025746 0
0 0 0
-0.025401 0.00261711 0
0.00261711 -0.0255182 0
0 0 0
-0.0254064 0.00659788 0
0.00659788 -0.0252905 0
0 0 0
