# vtk DataFile Version 3.0
MPM2D particles
ASCII
DATASET POLYDATA
POINTS 121 double
0.0137245 0.00756909 0
0.0410127 0.00673214 0
0.0659591 0.0061033 0
0.0886743 0.00564022 0
0.112307 0.00526823 0
0.138026 0.00506226 0
0.163319 0.0049121 0
0.187078 0.00492353 0
0.210484 0.00507862 0
0.225724 0.0105028 0
0.236635 0.020052 0
0.0165311 0.0225441 0
0.0489669 0.0197755 0
0.0719607 0.0180662 0
0.090733 0.0168457 0
0.111895 0.0158142 0
0.139116 0.0151724 0
0.164805 0.0147556 0
0.186262 0.014759 0
0.207206 0.0148876 0
0.214343 0.0216482 0
0.21817 0.0310354 0
0.0188399 0.0345071 0
0.0555701 0.0304889 0
0.0758426 0.0283429 0
0.0921467 0.0267434 0
0.111638 0.0253033 0
0.140103 0.0242915 0
0.165862 0.0237436 0
0.185387 0.0238967 0
0.204413 0.024107 0
0.209858 0.029033 0
0.212408 0.036871 0
0.0192474 0.040208 0
0.056909 0.0366869 0
0.0768854 0.0348415 0
0.0928911 0.0334083 0
0.112252 0.0320681 0
0.140833 0.0310346 0
0.16607 0.0306412 0
0.183911 0.0312848 0
0.201321 0.0319397 0
0.208063 0.0353008 0
0.211253 0.0423658 0
0.0195096 0.045546 0
0.0577937 0.0427777 0
0.0776935 0.0414054 0
0.0936385 0.0403139 0
0.113073 0.0392779 0
0.141417 0.0384171 0
0.165912 0.0382979 0
0.182074 0.0394343 0
0.1978 0.0405632 0
0.206123 0.0421987 0
0.210529 0.0478325 0
0.0196004 0.0527007 0
0.0582107 0.0512075 0
0.0782624 0.0506734 0
0.0943613 0.0502624 0
0.113951 0.0499002 0
0.14163 0.0496063 0
0.165206 0.0499641 0
0.179891 0.0514619 0
0.194211 0.0528913 0
0.203548 0.0529908 0
0.209973 0.0559596 0
0.0193337 0.0631428 0
0.0575354 0.0632298 0
0.0780494 0.0637981 0
0.0945875 0.0643579 0
0.114308 0.0649937 0
0.140891 0.0656876 0
0.163817 0.0665931 0
0.178029 0.0678301 0
0.191989 0.0689668 0
0.201607 0.0681734 0
0.209779 0.0683209 0
0.0186474 0.0763962 0
0.0556972 0.0775999 0
0.0769615 0.0790001 0
0.0941576 0.0803024 0
0.11405 0.0816819 0
0.139645 0.0831344 0
0.162383 0.0844531 0
0.176998 0.085253 0
0.191424 0.0859747 0
0.201507 0.0847846 0
0.210822 0.0832892 0
0.0177214 0.0906732 0
0.0530554 0.0923151 0
0.0752618 0.0941312 0
0.0932213 0.0958228 0
0.1134 0.0975707 0
0.138376 0.0993918 0
0.161247 0.100962 0
0.176752 0.10155 0
0.192092 0.102083 0
0.203 0.100795 0
0.213349 0.098548 0
0.0168871 0.104942 0
0.0505618 0.106665 0
0.0735445 0.108603 0
0.0921494 0.110441 0
0.11262 0.112317 0
0.137298 0.114262 0
0.160406 0.115968 0
0.176853 0.116569 0
0.193137 0.117122 0
0.204848 0.11595 0
0.215976 0.113811 0
0.0162208 0.119106 0
0.0485801 0.120777 0
0.0720281 0.122716 0
0.091111 0.124621 0
0.111809 0.126574 0
0.136351 0.128601 0
0.159696 0.130436 0
0.176962 0.131134 0
0.194072 0.131795 0
0.206365 0.130825 0
0.21802 0.129054 0
VERTICES 121 242
1 0
1 1
1 2
1 3
1 4
1 5
1 6
1 7
1 8
1 9
1 10
1 11
1 12
1 13
1 14
1 15
1 16
1 17
1 18
1 19
1 20
1 21
1 22
1 23
1 24
1 25
1 26
1 27
1 28
1 29
1 30
1 31
1 32
1 33
1 34
1 35
1 36
1 37
1 38
1 39
1 40
1 41
1 42
1 43
1 44
1 45
1 46
1 47
1 48
1 49
1 50
1 51
1 52
1 53
1 54
1 55
1 56
1 57
1 58
1 59
1 60
1 61
1 62
1 63
1 64
1 65
1 66
1 67
1 68
1 69
1 70
1 71
1 72
1 73
1 74
1 75
1 76
1 77
1 78
1 79
1 80
1 81
1 82
1 83
1 84
1 85
1 86
1 87
1 88
1 89
1 90
1 91
1 92
1 93
1 94
1 95
1 96
1 97
1 98
1 99
1 100
1 101
1 102
1 103
1 104
1 105
1 106
1 107
1 108
1 109
1 110
1 111
1 112
1 113
1 114
1 115
1 116
1 117
1 118
1 119
1 120
POINT_DATA 121
VECTORS velocity double
4.41663 7.58268 0
2.45646 6.24184 0
1.17087 5.29367 0
0.697439 4.75006 0
0.286942 4.4641 0
0.0744394 4.86411 0
-0.152573 4.79097 0
-0.422664 2.86309 0
-0.968707 1.30541 0
-5.51121 6.31596 0
-8.99758 10.3566 0
3.11074 2.40256 0
0.862319 1.89579 0
0.0439642 1.55411 0
0.147378 1.30249 0
0.16327 1.15257 0
0.0259208 1.35548 0
-0.072325 1.27789 0
-0.00200377 0.328208 0
-0.0358088 -0.577283 0
-1.18893 0.926643 0
-1.597 1.83455 0
2.21551 -1.14411 0
-0.282787 -1.01178 0
-0.654102 -1.07236 0
-0.207849 -1.16147 0
0.0933801 -1.23843 0
0.0220228 -1.22084 0
0.0300531 -1.27334 0
0.32512 -1.47881 0
0.560237 -1.70494 0
0.534123 -1.55801 0
0.747198 -1.47225 0
2.25527 -1.60964 0
-0.181075 -1.41108 0
-0.530736 -1.44921 0
-0.133093 -1.51349 0
0.147761 -1.58101 0
0.102716 -1.63142 0
0.10993 -1.67061 0
0.289012 -1.64018 0
0.414072 -1.60958 0
0.139198 -1.65023 0
0.10216 -1.70272 0
2.34663 -1.9036 0
0.0210713 -1.6823 0
-0.333617 -1.68514 0
-0.0291716 -1.71434 0
0.186389 -1.75947 0
0.170388 -1.83712 0
0.166958 -1.85495 0
0.188936 -1.68661 0
0.154561 -1.52459 0
-0.422451 -1.65523 0
-0.719962 -1.84587 0
2.38885 -2.05198 0
0.193529 -1.87271 0
-0.183042 -1.841 0
0.0301084 -1.82768 0
0.178776 -1.83598 0
0.18637 -1.8983 0
0.175494 -1.89261 0
0.106342 -1.70158 0
-0.0146959 -1.5238 0
-0.729139 -1.66628 0
-1.27044 -1.89897 0
2.27902 -2.05255 0
0.264225 -1.96161 0
-0.129422 -1.90346 0
0.0252622 -1.85392 0
0.132012 -1.82983 0
0.144937 -1.86594 0
0.129477 -1.85059 0
0.0509929 -1.69395 0
-0.0714412 -1.54963 0
-0.764111 -1.68842 0
-1.44287 -1.92018 0
2.02525 -2.05855 0
0.293915 -2.04122 0
-0.0958666 -1.97501 0
0.0149704 -1.90977 0
0.0924645 -1.86829 0
0.10626 -1.87921 0
0.0886198 -1.85622 0
-0.00754056 -1.73034 0
-0.140184 -1.61567 0
-0.76468 -1.74486 0
-1.45186 -1.96243 0
1.69054 -2.21101 0
0.327481 -2.22025 0
-0.0479903 -2.15877 0
0.00642594 -2.09145 0
0.045942 -2.0422 0
0.0627682 -2.03319 0
0.0507081 -2.00337 0
-0.0595205 -1.90463 0
-0.199049 -1.81577 0
-0.766305 -1.91038 0
-1.42411 -2.08135 0
1.35238 -2.67422 0
0.323091 -2.66024 0
-0.0297447 -2.59423 0
-0.0337218 -2.51997 0
-0.0326852 -2.45606 0
-0.00903959 -2.42035 0
-0.00689576 -2.37461 0
-0.103774 -2.30121 0
-0.226316 -2.23447 0
-0.763549 -2.28037 0
-1.3852 -2.37588 0
0.995425 -3.55185 0
0.245266 -3.4876 0
-0.0678003 -3.40458 0
-0.124823 -3.31327 0
-0.158354 -3.2127 0
-0.122129 -3.1438 0
-0.096251 -3.06547 0
-0.154079 -3.01557 0
-0.2337 -2.95838 0
-0.749109 -2.92603 0
-1.33863 -2.92619 0
SCALARS mass double 1
LOOKUP_TABLE default
2.67769
2.67769
2.67769
2.67769
2.67769
2.67769
2.67769
2.67769
2.67769
2.67769
2.67769
2.67769
2.67769
2.67769
2.67769
2.67769
2.67769
2.67769
2.67769
2.67769
2.67769
2.67769
2.67769
2.67769
2.67769
2.67769
2.67769
2.67769
2.67769
2.67769
2.67769
2.67769
2.67769
2.67769
2.67769
2.67769
2.67769
2.67769
2.67769
2.67769
2.67769
2.67769
2.67769
2.67769
2.67769
2.67769
2.67769
2.67769
2.67769
2.67769
2.67769
2.67769
2.67769
2.67769
2.67769
2.67769
2.67769
2.67769
2.67769
2.67769
2.67769
2.67769
2.67769
2.67769
2.67769
2.67769
2.67769
2.67769
2.67769
2.67769
2.67769
2.67769
2.67769
2.67769
2.67769
2.67769
2.67769
2.67769
2.67769
2.67769
2.67769
2.67769
2.67769
2.67769
2.67769
2.67769
2.67769
2.67769
2.67769
2.67769
2.67769
2.67769
2.67769
2.67769
2.67769
2.67769
2.67769
2.67769
2.67769
2.67769
2.67769
2.67769
2.67769
2.67769
2.67769
2.67769
2.67769
2.67769
2.67769
2.67769
2.67769
2.67769
2.67769
2.67769
2.67769
2.67769
2.67769
2.67769
2.67769
2.67769
2.67769
SCALARS volume double 1
LOOKUP_TABLE default
0.000494786
0.000438386
0.000330247
0.000305949
0.000322707
0.00030998
0.000277468
0.0002784
0.000210275
0.000396305
0.000662155
0.000592344
0.000513156
0.000269641
0.000253138
0.00034218
0.000327933
0.000250343
0.00025118
0.000146854
0.000122856
0.000143421
0.000285845
0.000270178
0.000134697
0.000136669
0.000236939
0.000232581
0.000159652
0.000173106
0.000100368
3.93843e-05
2.87594e-05
0.000248167
0.00023388
0.000121598
0.000127117
0.000233159
0.000236162
0.000150111
0.000161824
0.000112388
4.33591e-05
2.42623e-05
0.000272022
0.00025865
0.000139536
0.000149552
0.000281378
0.000290094
0.000172262
0.000184107
0.000137523
6.63078e-05
2.91843e-05
0.000405259
0.000385465
0.000215542
0.000232846
0.000434557
0.00046337
0.000256608
0.000261477
0.00018926
0.000130287
6.13589e-05
0.000555474
0.000518927
0.000283044
0.000302089
0.000517946
0.000546152
0.00030083
0.000293573
0.000215184
0.000178058
0.000108141
0.000625355
0.000590146
0.000315651
0.000326275
0.000503201
0.000520678
0.000301182
0.000294722
0.000222857
0.000191317
0.00015336
0.000601784
0.000601059
0.00031427
0.000320398
0.000450739
0.000458605
0.000284783
0.000284552
0.000223924
0.000195749
0.000189555
0.000576341
0.000575177
0.000316763
0.000318305
0.000423
0.00042653
0.000284052
0.000285288
0.000230225
0.00020187
0.000205961
0.00054145
0.000537073
0.000315692
0.000318297
0.000414922
0.000223615
0.000287374
0.000290626
0.000238351
0.00020956
0.00021304
TENSORS stress double
5059.98 3109.3 0
3109.3 7812.96 0
0 0 0
5061.8 14271.6 0
14271.6 7698.41 0
0 0 0
4872.81 15145.8 0
15145.8 7597.17 0
0 0 0
4888.07 4414.49 0
4414.49 7507.77 0
0 0 0
4994.73 -1431.88 0
-1431.88 7429.56 0
0 0 0
4997.89 2308.23 0
2308.23 7385.31 0
0 0 0
4892.7 4068.64 0
4068.64 7396.16 0
0 0 0
4892.65 -3479.03 0
-3479.03 7594.77 0
0 0 0
4241.5 2405.58 0
2405.58 7785.35 0
0 0 0
3409.77 -31622.1 0
-31622.1 11139.3 0
0 0 0
1974.46 -60067.2 0
-60067.2 13445.9 0
0 0 0
5026.93 -1118.71 0
-1118.71 7258.18 0
0 0 0
5032.97 11455.8 0
11455.8 7185.51 0
0 0 0
4473.05 10303.8 0
10303.8 7136.72 0
0 0 0
4513.32 703.852 0
703.852 7092.6 0
0 0 0
4830.69 -2880.26 0
-2880.26 7048.28 0
0 0 0
4840.54 1005.38 0
1005.38 7016.61 0
0 0 0
4524.11 3182.92 0
3182.92 7051.79 0
0 0 0
4525 -3938.63 0
-3938.63 7232.41 0
0 0 0
4521.19 4088.57 0
4088.57 7404.19 0
0 0 0
1550.59 17766 0
17766 8135.68 0
0 0 0
69.4562 5968.13 0
5968.13 8754.83 0
0 0 0
5000.53 -6816.88 0
-6816.88 6814.56 0
0 0 0
4058.79 900.608 0
900.608 6765.28 0
0 0 0
4129.52 -153.978 0
-153.978 6746.91 0
0 0 0
4182.27 -3513.67 0
-3513.67 6727.71 0
0 0 0
4683.08 -2260.5 0
-2260.5 6704.99 0
0 0 0
4698.6 -147.485 0
-147.485 6684.03 0
0 0 0
4187.61 1549.28 0
1549.28 6734.94 0
0 0 0
4183.38 -5616.74 0
-5616.74 6894.7 0
0 0 0
4176.99 651.632 0
651.632 7048.19 0
0 0 0
3993.66 56396.1 0
56396.1 6916.79 0
0 0 0
-954.143 71205.8 0
71205.8 7172.93 0
0 0 0
4987.95 -5769.88 0
-5769.88 6606.84 0
0 0 0
3851.79 -175.53 0
-175.53 6535.14 0
0 0 0
3912.29 -560.906 0
-560.906 6507.01 0
0 0 0
3959.33 -2257.22 0
-2257.22 6482.95 0
0 0 0
4577.85 -561.692 0
-561.692 6458.64 0
0 0 0
4593.64 -323.527 0
-323.527 6438.1 0
0 0 0
3929.36 2204.71 0
2204.71 6486.71 0
0 0 0
3907.05 -5416.97 0
-5416.97 6615.07 0
0 0 0
3884.36 -9377.43 0
-9377.43 6739.45 0
0 0 0
3759.65 38869.7 0
38869.7 6675.64 0
0 0 0
-1871.6 72948.8 0
72948.8 6706.86 0
0 0 0
4976.17 -3856.65 0
-3856.65 6412.97 0
0 0 0
3648.38 -4.00789 0
-4.00789 6311.01 0
0 0 0
3692.88 159.78 0
159.78 6265.83 0
0 0 0
3728.32 -611.502 0
-611.502 6229.44 0
0 0 0
4465.69 551.847 0
551.847 6195.74 0
0 0 0
4478.73 -469.689 0
-469.689 6169.28 0
0 0 0
3642.64 2863.56 0
2863.56 6207.86 0
0 0 0
3602.15 -4015.75 0
-4015.75 6304.71 0
0 0 0
3561.99 -11998.1 0
-11998.1 6398.27 0
0 0 0
3502.05 14818.5 0
14818.5 6410.43 0
0 0 0
-2781.27 64482.9 0
64482.9 6343.56 0
0 0 0
4937.89 -1865.71 0
-1865.71 5669.5 0
0 0 0
3366.89 -671.3 0
-671.3 6004.61 0
0 0 0
3383.09 -317.407 0
-317.407 5927.99 0
0 0 0
3395.52 540.482 0
540.482 5865.86 0
0 0 0
4300.44 1100.76 0
1100.76 5809.06 0
0 0 0
4304.58 -1219.5 0
-1219.5 5763.2 0
0 0 0
3205.69 1636.66 0
1636.66 5778.97 0
0 0 0
3153.74 -1634.76 0
-1634.76 6865.51 0
0 0 0
3122.8 -6816.97 0
-6816.97 6717.99 0
0 0 0
3121.46 -2550.6 0
-2550.6 6651.63 0
0 0 0
3054.77 40955.4 0
40955.4 6501.75 0
0 0 0
4714.67 509.19 0
509.19 5288.67 0
0 0 0
3173.48 -379.346 0
-379.346 5630.94 0
0 0 0
3164.17 280.598 0
280.598 5838.65 0
0 0 0
3155.11 1884.93 0
1884.93 6002.52 0
0 0 0
3980.21 1785.53 0
1785.53 6172.36 0
0 0 0
3965.17 -578.92 0
-578.92 6364.61 0
0 0 0
2810.08 -293.375 0
-293.375 6431.76 0
0 0 0
2783.18 -157.266 0
-157.266 6291.3 0
0 0 0
2758.47 -2386.26 0
-2386.26 6156.06 0
0 0 0
2777.16 -6412.84 0
-6412.84 6119.45 0
0 0 0
2774.42 21020.4 0
21020.4 6058.85 0
0 0 0
4431.34 1538.73 0
1538.73 4802.22 0
0 0 0
2946.78 -1176.34 0
-1176.34 5091.55 0
0 0 0
2924.91 39.1871 0
39.1871 5278.8 0
0 0 0
2904.63 2329.31 0
2329.31 5424.29 0
0 0 0
3616.52 2279.96 0
2279.96 5571.23 0
0 0 0
3585.75 432.819 0
432.819 5729.63 0
0 0 0
2406.28 -1491.04 0
-1491.04 5802.04 0
0 0 0
2388.89 851.272 0
851.272 5673.8 0
0 0 0
2373.22 348.674 0
348.674 5549.57 0
0 0 0
2400.66 -3097.63 0
-3097.63 5523.58 0
0 0 0
-94.4388 9217.45 0
9217.45 5298.99 0
0 0 0
4126.08 1815.27 0
1815.27 4276.47 0
0 0 0
2714.5 -1819.11 0
-1819.11 4530.45 0
0 0 0
2686.68 33.6016 0
33.6016 4714.5 0
0 0 0
2660.78 2199.7 0
2199.7 4855.56 0
0 0 0
3270.21 2378 0
2378 4995.51 0
0 0 0
3232.12 1375.48 0
1375.48 5136.94 0
0 0 0
2033.1 -1272.49 0
-1272.49 5218.78 0
0 0 0
2020.13 2049.17 0
2049.17 5091.33 0
0 0 0
2008.39 2383.88 0
2383.88 4966.95 0
0 0 0
2037.82 -246.509 0
-246.509 4938.36 0
0 0 0
1490.36 1347.81 0
1347.81 4118.51 0
0 0 0
3815.26 2029.7 0
2029.7 4805.75 0
0 0 0
3775.48 -1340.74 0
-1340.74 4846.95 0
0 0 0
2461.22 669.324 0
669.324 4842.6 0
0 0 0
2434.1 2311.66 0
2311.66 4828.98 0
0 0 0
2990.77 2469.92 0
2469.92 4811.03 0
0 0 0
2958.67 1994.51 0
1994.51 4783.05 0
0 0 0
1809.49 -696.906 0
-696.906 4760.53 0
0 0 0
1801.58 2228.58 0
2228.58 4763.93 0
0 0 0
1794.32 2322.16 0
2322.16 4768.8 0
0 0 0
1810.34 -720.384 0
-720.384 4828.4 0
0 0 0
1796.52 -581.091 0
-581.091 4975.19 0
0 0 0
3474.85 2193.77 0
2193.77 4295.65 0
0 0 0
3436.59 -795.681 0
-795.681 4335.28 0
0 0 0
2245.07 973.952 0
973.952 4332.98 0
0 0 0
2217.08 2187.25 0
2187.25 4318.58 0
0 0 0
2744.69 2477.49 0
2477.49 4299.58 0
0 0 0
2711.26 1246.74 0
1246.74 4268.63 0
0 0 0
1613.57 -337.89 0
-337.89 4242.23 0
0 0 0
1604.42 2340.36 0
2340.36 4243.53 0
0 0 0
1595.76 2619.44 0
2619.44 4245.91 0
0 0 0
1609.08 -488.999 0
-488.999 4299.24 0
0 0 0
1531.89 -202.02 0
-202.02 4451.91 0
0 0 0
TENSORS strain double
0.093501 0.031093 0
0.031093 -0.498508 0
0 0 0
0.0895811 0.142716 0
0.142716 -0.614685 0
0 0 0
-0.0942786 0.151458 0
0.151458 -0.711776 0
0 0 0
-0.091752 0.0441449 0
0.0441449 -0.789809 0
0 0 0
0.0287318 -0.0143188 0
-0.0143188 -0.857197 0
0 0 0
0.0283676 0.0230823 0
0.0230823 -0.896517 0
0 0 0
-0.0512828 0.0406864 0
0.0406864 -0.926307 0
0 0 0
-0.0502886 -0.0347903 0
-0.0347903 -0.924537 0
0 0 0
-0.358243 0.0240558 0
0.0240558 -0.89433 0
0 0 0
-0.4538 -0.316221 0
-0.316221 -0.173478 0
0 0 0
-0.59223 -0.600672 0
-0.600672 0.476401 0
0 0 0
0.279918 -0.0111871 0
-0.0111871 -0.505646 0
0 0 0
0.267166 0.114558 0
0.114558 -0.635498 0
0 0 0
-0.281815 0.103038 0
0.103038 -0.725001 0
0 0 0
-0.274931 0.00703852 0
0.00703852 -0.794186 0
0 0 0
0.0862081 -0.0288026 0
-0.0288026 -0.856607 0
0 0 0
0.0850854 0.0100538 0
0.0100538 -0.897452 0
0 0 0
-0.153835 0.0318292 0
0.0318292 -0.925032 0
0 0 0
-0.150832 -0.0393863 0
-0.0393863 -0.925306 0
0 0 0
-0.691125 0.0408857 0
0.0408857 -0.917116 0
0 0 0
-1.23404 0.17766 0
0.17766 -0.546815 0
0 0 0
-1.4396 0.0596813 0
0.0596813 -0.188681 0
0 0 0
0.411129 -0.0681688 0
-0.0681688 -1.36191 0
0 0 0
0.292283 0.00900608 0
0.00900608 -1.29791 0
0 0 0
-0.421024 -0.00153978 0
-0.00153978 -1.27186 0
0 0 0
-0.414041 -0.0351367 0
-0.0351367 -1.2645 0
0 0 0
0.131538 -0.022605 0
-0.022605 -1.26771 0
0 0 0
0.13006 -0.00147485 0
-0.00147485 -1.28442 0
0 0 0
-0.248803 0.0154928 0
0.0154928 -1.27572 0
0 0 0
-0.245322 -0.0561674 0
-0.0561674 -1.19963 0
0 0 0
-0.841595 0.00651632 0
0.00651632 -1.14074 0
0 0 0
-1.71579 0.563961 0
0.563961 -1.17602 0
0 0 0
-1.93136 0.712058 0
0.712058 -1.26356 0
0 0 0
0.432658 -0.0576988 0
-0.0576988 -1.52349 0
0 0 0
0.264915 -0.0017553 0
-0.0017553 -1.41316 0
0 0 0
-0.440556 -0.00560906 0
-0.00560906 -1.35262 0
0 0 0
-0.436806 -0.0225722 0
-0.0225722 -1.31273 0
0 0 0
0.135211 -0.00561692 0
-0.00561692 -1.28742 0
0 0 0
0.134591 -0.00323527 0
-0.00323527 -1.27396 0
0 0 0
-0.336804 0.0220471 0
0.0220471 -1.24818 0
0 0 0
-0.336925 -0.0541697 0
-0.0541697 -1.17421 0
0 0 0
-0.764749 -0.0937743 0
-0.0937743 -1.10656 0
0 0 0
-1.55843 0.388697 0
0.388697 -1.24031 0
0 0 0
-1.94257 0.729488 0
0.729488 -1.41294 0
0 0 0
0.44629 -0.0385665 0
-0.0385665 -1.44516 0
0 0 0
0.247112 -4.00789e-05 0
-4.00789e-05 -1.29439 0
0 0 0
-0.446624 0.0015978 0
0.0015978 -1.20969 0
0 0 0
-0.444988 -0.00611502 0
-0.00611502 -1.14326 0
0 0 0
0.126061 0.00551847 0
0.00551847 -1.09152 0
0 0 0
0.126017 -0.00469689 0
-0.00469689 -1.06111 0
0 0 0
-0.430238 0.0286356 0
0.0286356 -1.01799 0
0 0 0
-0.434378 -0.0401575 0
-0.0401575 -0.948532 0
0 0 0
-0.771853 -0.119981 0
-0.119981 -0.900409 0
0 0 0
-1.33678 0.148185 0
0.148185 -1.04824 0
0 0 0
-1.86108 0.644829 0
0.644829 -1.30999 0
0 0 0
0.450997 -0.0186571 0
-0.0186571 -1.05272 0
0 0 0
0.231315 -0.006713 0
-0.006713 -0.880953 0
0 0 0
-0.439506 -0.00317407 0
-0.00317407 -0.787113 0
0 0 0
-0.439411 0.00540482 0
0.00540482 -0.711519 0
0 0 0
0.101789 0.0110076 0
0.0110076 -0.635872 0
0 0 0
0.101678 -0.012195 0
-0.012195 -0.572172 0
0 0 0
-0.521548 0.0163666 0
0.0163666 -0.533178 0
0 0 0
-0.525673 -0.0163476 0
-0.0163476 -0.510887 0
0 0 0
-0.833479 -0.0681697 0
-0.0681697 -0.524342 0
0 0 0
-1.11729 -0.025506 0
-0.025506 -0.606961 0
0 0 0
-1.5818 0.409554 0
0.409554 -0.868177 0
0 0 0
0.437277 0.0050919 0
0.0050919 -0.725736 0
0 0 0
0.256754 -0.00379346 0
-0.00379346 -0.611076 0
0 0 0
-0.412521 0.00280598 0
0.00280598 -0.545459 0
0 0 0
-0.412052 0.0188493 0
0.0188493 -0.482037 0
0 0 0
0.062234 0.0178553 0
0.0178553 -0.42218 0
0 0 0
0.0613869 -0.0057892 0
-0.0057892 -0.368823 0
0 0 0
-0.556848 -0.00293375 0
-0.00293375 -0.341274 0
0 0 0
-0.557941 -0.00157266 0
-0.00157266 -0.364239 0
0 0 0
-0.843526 -0.0238626 0
-0.0238626 -0.387368 0
0 0 0
-1.00358 -0.0641284 0
-0.0641284 -0.414347 0
0 0 0
-1.30832 0.210204 0
0.210204 -0.591684 0
0 0 0
0.400988 0.0153873 0
0.0153873 -0.572323 0
0 0 0
0.288622 -0.0117634 0
-0.0117634 -0.516347 0
0 0 0
-0.371966 0.000391871 0
0.000391871 -0.478832 0
0 0 0
-0.370777 0.0232931 0
0.0232931 -0.447595 0
0 0 0
0.025322 0.0227996 0
0.0227996 -0.414318 0
0 0 0
0.0242789 0.00432819 0
0.00432819 -0.379494 0
0 0 0
-0.532718 -0.0149104 0
-0.0149104 -0.364401 0
0 0 0
-0.531829 0.00851272 0
0.00851272 -0.386624 0
0 0 0
-0.789944 0.00348674 0
0.00348674 -0.406268 0
0 0 0
-0.939111 -0.0309763 0
-0.0309763 -0.407901 0
0 0 0
-1.07495 0.0921745 0
0.0921745 -0.485585 0
0 0 0
0.34984 0.0181527 0
0.0181527 -0.560496 0
0 0 0
0.334027 -0.0181911 0
-0.0181911 -0.545869 0
0 0 0
-0.327182 0.000336016 0
0.000336016 -0.528608 0
0 0 0
-0.325798 0.021997 0
0.021997 -0.511107 0
0 0 0
0.00119564 0.02378 0
0.02378 -0.500016 0
0 0 0
0.000659403 0.0137548 0
0.0137548 -0.48238 0
0 0 0
-0.475533 -0.0127249 0
-0.0127249 -0.477153 0
0 0 0
-0.474214 0.0204917 0
0.0204917 -0.479305 0
0 0 0
-0.708718 0.0238388 0
0.0238388 -0.483129 0
0 0 0
-0.854515 -0.00246509 0
-0.00246509 -0.469972 0
0 0 0
-0.875963 0.0134781 0
0.0134781 -0.479354 0
0 0 0
0.301419 0.020297 0
0.020297 -0.555896 0
0 0 0
0.299445 -0.0134074 0
-0.0134074 -0.555955 0
0 0 0
-0.291495 0.00669324 0
0.00669324 -0.556986 0
0 0 0
-0.290346 0.0231166 0
0.0231166 -0.553381 0
0 0 0
-0.0108859 0.0246992 0
0.0246992 -0.551228 0
0 0 0
-0.0110463 0.0199451 0
0.0199451 -0.542854 0
0 0 0
-0.417088 -0.00696906 0
-0.00696906 -0.538363 0
0 0 0
-0.415946 0.0222858 0
0.0222858 -0.535277 0
0 0 0
-0.633786 0.0232216 0
0.0232216 -0.530723 0
0 0 0
-0.785711 -0.00720384 0
-0.00720384 -0.508447 0
0 0 0
-0.798066 -0.00581091 0
-0.00581091 -0.476299 0
0 0 0
0.261015 0.0219377 0
0.0219377 -0.577668 0
0 0 0
0.259315 -0.00795681 0
-0.00795681 -0.58398 0
0 0 0
-0.266071 0.00973952 0
0.00973952 -0.58563 0
0 0 0
-0.265002 0.0218725 0
0.0218725 -0.578645 0
0 0 0
-0.0164413 0.0247749 0
0.0247749 -0.564801 0
0 0 0
-0.0163834 0.0124674 0
0.0124674 -1.01886 0
0 0 0
-0.368708 -0.0033789 0
-0.0033789 -0.574941 0
0 0 0
-0.367489 0.0234036 0
0.0234036 -0.56522 0
0 0 0
-0.584634 0.0261944 0
0.0261944 -0.545498 0
0 0 0
-0.744156 -0.00488999 0
-0.00488999 -0.512956 0
0 0 0
-0.754345 -0.0020202 0
-0.0020202 -0.486503 0
0 0 0
