# vtk DataFile Version 3.0
MPM2D particles
ASCII
DATASET POLYDATA
POINTS 121 double
0.0130092 0.0122382 0
0.0390164 0.0119518 0
0.0641114 0.0117047 0
0.08805 0.0115026 0
0.112378 0.0113403 0
0.137652 0.0112709 0
0.162817 0.0111613 0
0.187539 0.0108846 0
0.212009 0.0107227 0
0.233307 0.0119344 0
0.254359 0.0132724 0
0.014089 0.0366906 0
0.0422294 0.0357854 0
0.0671277 0.0350616 0
0.0890755 0.0344893 0
0.112133 0.034022 0
0.137962 0.0338108 0
0.163439 0.0334715 0
0.187612 0.0326493 0
0.211164 0.0320971 0
0.22664 0.0350236 0
0.241661 0.0381733 0
0.0147834 0.0573111 0
0.0443488 0.0563532 0
0.0689232 0.055594 0
0.0897315 0.0549805 0
0.11203 0.0544567 0
0.13821 0.0541998 0
0.163827 0.0538054 0
0.187494 0.0529043 0
0.210455 0.0521814 0
0.22316 0.0552412 0
0.235951 0.0580706 0
0.0147114 0.0714474 0
0.0441336 0.0709942 0
0.0688259 0.0706272 0
0.0898605 0.0703238 0
0.112311 0.0700628 0
0.138364 0.0699227 0
0.163756 0.0697579 0
0.186848 0.069497 0
0.209405 0.0692781 0
0.222925 0.0708243 0
0.236432 0.0722945 0
0.0146367 0.0858605 0
0.0439099 0.0859137 0
0.0687193 0.0859477 0
0.0899887 0.0859635 0
0.112594 0.0859696 0
0.138519 0.0859477 0
0.163686 0.0860113 0
0.186216 0.0863812 0
0.208307 0.086727 0
0.222711 0.0866874 0
0.236988 0.0867003 0
0.0144643 0.105972 0
0.0433875 0.106436 0
0.0683364 0.1068 0
0.0899644 0.107085 0
0.112785 0.107313 0
0.138518 0.107399 0
0.163521 0.107615 0
0.185954 0.108289 0
0.208007 0.108895 0
0.223265 0.107913 0
0.238416 0.106897 0
0.0142007 0.130192 0
0.0425967 0.130686 0
0.0676688 0.13112 0
0.0897451 0.131497 0
0.112823 0.131808 0
0.138321 0.13196 0
0.163244 0.132193 0
0.186059 0.132736 0
0.208513 0.133202 0
0.224597 0.132046 0
0.240597 0.13087 0
0.0139376 0.153974 0
0.0418074 0.154451 0
0.0669677 0.154901 0
0.0894901 0.155318 0
0.11283 0.155669 0
0.138132 0.155859 0
0.162996 0.156091 0
0.186181 0.156496 0
0.209033 0.156828 0
0.22605 0.15563 0
0.243002 0.154409 0
0.0136787 0.1771 0
0.0410315 0.177515 0
0.0662389 0.177923 0
0.0891922 0.178318 0
0.112797 0.17865 0
0.137961 0.178835 0
0.162801 0.179052 0
0.186356 0.179404 0
0.209607 0.179681 0
0.227634 0.17854 0
0.245613 0.177388 0
0.0134825 0.19961 0
0.0404447 0.199972 0
0.06567 0.200342 0
0.0889587 0.200713 0
0.112767 0.201026 0
0.137817 0.201201 0
0.162635 0.201397 0
0.186504 0.201686 0
0.210088 0.201903 0
0.228895 0.200865 0
0.247679 0.199818 0
0.0133575 0.221768 0
0.040071 0.222096 0
0.0652935 0.222436 0
0.0887888 0.222785 0
0.112723 0.223079 0
0.137707 0.223242 0
0.162517 0.223422 0
0.186602 0.223676 0
0.210415 0.223862 0
0.22975 0.222939 0
0.249074 0.222009 0
VERTICES 121 242
1 0
1 1
1 2
1 3
1 4
1 5
1 6
1 7
1 8
1 9
1 10
1 11
1 12
1 13
1 14
1 15
1 16
1 17
1 18
1 19
1 20
1 21
1 22
1 23
1 24
1 25
1 26
1 27
1 28
1 29
1 30
1 31
1 32
1 33
1 34
1 35
1 36
1 37
1 38
1 39
1 40
1 41
1 42
1 43
1 44
1 45
1 46
1 47
1 48
1 49
1 50
1 51
1 52
1 53
1 54
1 55
1 56
1 57
1 58
1 59
1 60
1 61
1 62
1 63
1 64
1 65
1 66
1 67
1 68
1 69
1 70
1 71
1 72
1 73
1 74
1 75
1 76
1 77
1 78
1 79
1 80
1 81
1 82
1 83
1 84
1 85
1 86
1 87
1 88
1 89
1 90
1 91
1 92
1 93
1 94
1 95
1 96
1 97
1 98
1 99
1 100
1 101
1 102
1 103
1 104
1 105
1 106
1 107
1 108
1 109
1 110
1 111
1 112
1 113
1 114
1 115
1 116
1 117
1 118
1 119
1 120
POINT_DATA 121
VECTORS velocity double
2.41101 3.88552 0
1.21226 3.53613 0
0.452589 3.26233 0
0.296694 3.08401 0
0.159716 2.99391 0
0.0737776 3.12577 0
-0.000349481 3.08814 0
-0.0215947 2.33589 0
-0.220002 1.76068 0
-2.44378 3.34528 0
-4.61029 4.88113 0
1.77952 0.997617 0
0.505158 0.84953 0
-0.100434 0.737678 0
-0.0144099 0.661021 0
0.0319456 0.619562 0
-0.0140256 0.673688 0
-0.0114481 0.651069 0
0.183216 0.325451 0
0.277252 0.0545895 0
-0.655026 0.635226 0
-1.48161 1.12637 0
1.38227 -0.847256 0
0.0871989 -0.871084 0
-0.398552 -0.896501 0
-0.190042 -0.91956 0
-0.0413769 -0.939172 0
-0.0549063 -0.949641 0
-0.00126767 -0.962252 0
0.310948 -0.98992 0
0.568859 -1.00986 0
0.190915 -0.927181 0
-0.20907 -0.85154 0
1.39173 -0.980165 0
0.227987 -0.968533 0
-0.242355 -0.968043 0
-0.100114 -0.974299 0
0.00373381 -0.98547 0
0.00734243 -1.009 0
0.0439127 -1.01608 0
0.214793 -0.967031 0
0.329567 -0.921685 0
-0.194059 -0.945213 0
-0.726051 -0.972245 0
1.39821 -1.12169 0
0.366499 -1.0757 0
-0.0860154 -1.04972 0
-0.0109751 -1.03945 0
0.0483186 -1.04241 0
0.0690689 -1.07835 0
0.0892538 -1.08036 0
0.12195 -0.959105 0
0.09864 -0.850113 0
-0.574514 -0.975214 0
-1.24223 -1.10224 0
1.29009 -1.16971 0
0.397094 -1.11818 0
-0.0213039 -1.08452 0
0.0188549 -1.0659 0
0.054114 -1.0619 0
0.0773763 -1.09395 0
0.0905143 -1.09439 0
0.0852578 -0.979415 0
0.0330862 -0.8777 0
-0.635726 -1.01611 0
-1.30643 -1.15888 0
1.08451 -1.17206 0
0.336721 -1.12453 0
-0.0244959 -1.08723 0
0.00960391 -1.0599 0
0.0354512 -1.04465 0
0.041259 -1.059 0
0.0487552 -1.05354 0
0.0752557 -0.972428 0
0.0593056 -0.902899 0
-0.518229 -1.03835 0
-1.09781 -1.17673 0
0.88275 -1.17404 0
0.283601 -1.13197 0
-0.0161258 -1.0944 0
0.00854233 -1.06255 0
0.0242161 -1.04035 0
0.0186924 -1.04137 0
0.0198477 -1.03055 0
0.0540708 -0.971934 0
0.050889 -0.923369 0
-0.44172 -1.05144 0
-0.934412 -1.18288 0
0.691865 -1.2074 0
0.244113 -1.17395 0
0.00781683 -1.14276 0
0.0158027 -1.11481 0
0.0184096 -1.09523 0
0.00855359 -1.09565 0
0.00543404 -1.08689 0
0.0331039 -1.03968 0
0.029463 -1.00173 0
-0.399448 -1.10354 0
-0.828477 -1.20795 0
0.538539 -1.33215 0
0.211769 -1.30726 0
0.0287823 -1.28296 0
0.020966 -1.26006 0
0.010674 -1.24423 0
-0.00515244 -1.24513 0
-0.0114491 -1.23954 0
0.0237979 -1.20617 0
0.0312139 -1.1797 0
-0.363656 -1.24395 0
-0.757227 -1.31041 0
0.405441 -1.58572 0
0.170844 -1.56589 0
0.0321622 -1.54572 0
0.0134056 -1.52574 0
-0.00636861 -1.5114 0
-0.0283642 -1.51066 0
-0.0339053 -1.50506 0
0.030888 -1.47856 0
0.0686854 -1.45721 0
-0.304147 -1.49417 0
-0.675957 -1.53222 0
SCALARS mass double 1
LOOKUP_TABLE default
2.67769
2.67769
2.67769
2.67769
2.67769
2.67769
2.67769
2.67769
2.67769
2.67769
2.67769
2.67769
2.67769
2.67769
2.67769
2.67769
2.67769
2.67769
2.67769
2.67769
2.67769
2.67769
2.67769
2.67769
2.67769
2.67769
2.67769
2.67769
2.67769
2.67769
2.67769
2.67769
2.67769
2.67769
2.67769
2.67769
2.67769
2.67769
2.67769
2.67769
2.67769
2.67769
2.67769
2.67769
2.67769
2.67769
2.67769
2.67769
2.67769
2.67769
2.67769
2.67769
2.67769
2.67769
2.67769
2.67769
2.67769
2.67769
2.67769
2.67769
2.67769
2.67769
2.67769
2.67769
2.67769
2.67769
2.67769
2.67769
2.67769
2.67769
2.67769
2.67769
2.67769
2.67769
2.67769
2.67769
2.67769
2.67769
2.67769
2.67769
2.67769
2.67769
2.67769
2.67769
2.67769
2.67769
2.67769
2.67769
2.67769
2.67769
2.67769
2.67769
2.67769
2.67769
2.67769
2.67769
2.67769
2.67769
2.67769
2.67769
2.67769
2.67769
2.67769
2.67769
2.67769
2.67769
2.67769
2.67769
2.67769
2.67769
2.67769
2.67769
2.67769
2.67769
2.67769
2.67769
2.67769
2.67769
2.67769
2.67769
2.67769
SCALARS volume double 1
LOOKUP_TABLE default
0.000757898
0.000739965
0.000666937
0.000655567
0.000682207
0.000678017
0.000656692
0.000640513
0.00054686
0.000605574
0.000669862
0.000820298
0.000799402
0.000610598
0.000601017
0.000697288
0.000692916
0.000641801
0.000626322
0.000400358
0.000431141
0.000463485
0.000498392
0.000516012
0.00037154
0.000379276
0.000486514
0.000490147
0.000448636
0.000466975
0.000263236
0.000235819
0.000214844
0.000495908
0.000513355
0.000375522
0.000383423
0.000484144
0.000487743
0.000437862
0.000455349
0.000305374
0.000248853
0.000225603
0.000558955
0.000577193
0.000428516
0.000436946
0.000542108
0.000545998
0.000480154
0.000498448
0.000366352
0.000296722
0.000271367
0.000834481
0.000835628
0.000626503
0.000628823
0.000750647
0.000752655
0.000656601
0.000653136
0.000478445
0.00043724
0.00043465
0.000809305
0.000810272
0.000631469
0.000633758
0.000734301
0.000736199
0.0006592
0.000655622
0.00048977
0.000456228
0.000453819
0.00077331
0.000772049
0.00062105
0.000620827
0.000697375
0.000697758
0.00063624
0.000634687
0.000488102
0.000467433
0.000469867
0.000740724
0.000738933
0.000618798
0.000618158
0.000677145
0.000677018
0.000633181
0.000631837
0.000496727
0.000484716
0.0004866
0.000713095
0.000711969
0.000613084
0.000612485
0.000658319
0.000658074
0.000626491
0.000624629
0.000500501
0.000495013
0.000498388
0.000704496
0.000703548
0.000617847
0.000617205
0.000655792
0.000655467
0.000631326
0.000630405
0.000505593
0.000508544
0.00051151
TENSORS stress double
4962.08 1489.22 0
1489.22 9570.17 0
0 0 0
4964.61 5611.35 0
5611.35 9446.84 0
0 0 0
4753.89 6166.97 0
6166.97 9340.36 0
0 0 0
4759.17 1830.11 0
1830.11 9253.07 0
0 0 0
4912.3 -656.468 0
-656.468 9180.29 0
0 0 0
4913.25 482.023 0
482.023 9144.9 0
0 0 0
4832.07 714.869 0
714.869 9106.24 0
0 0 0
4837.99 -454.557 0
-454.557 9054.56 0
0 0 0
4533.04 625.34 0
625.34 9039 0
0 0 0
4474.69 -14215.9 0
-14215.9 9506.71 0
0 0 0
4410.56 -29008 0
-29008 9964.91 0
0 0 0
4733.09 435.227 0
435.227 8699.87 0
0 0 0
4741.08 4736.61 0
4736.61 8586.55 0
0 0 0
4109.67 5020.83 0
5020.83 8500.47 0
0 0 0
4124.63 870.207 0
870.207 8433.26 0
0 0 0
4583.55 -948.701 0
-948.701 8375.02 0
0 0 0
4586.42 203.046 0
203.046 8343.56 0
0 0 0
4343.13 -508.961 0
-508.961 8311.66 0
0 0 0
4360.71 -1651.16 0
-1651.16 8280.21 0
0 0 0
3449.05 6299.03 0
6299.03 8258.92 0
0 0 0
3307.29 -6237.58 0
-6237.58 8531.95 0
0 0 0
3155.16 -18673.9 0
-18673.9 8787.51 0
0 0 0
4504.57 -2147.3 0
-2147.3 6303.94 0
0 0 0
4519.46 -2421.98 0
-2421.98 6528.63 0
0 0 0
3576.37 -1810.83 0
-1810.83 6686.54 0
0 0 0
3586.21 -1225.89 0
-1225.89 6806.83 0
0 0 0
4278.15 184.474 0
184.474 6909.16 0
0 0 0
4282.61 -135.057 0
-135.057 6958.4 0
0 0 0
3890.92 -2373.72 0
-2373.72 7031.71 0
0 0 0
3913.78 -3973.43 0
-3973.43 7180.65 0
0 0 0
3931.75 7681.43 0
7681.43 7527.67 0
0 0 0
2404.86 10163.4 0
10163.4 6858.49 0
0 0 0
2383.22 12111.1 0
12111.1 6402.45 0
0 0 0
4267.15 -1049.04 0
-1049.04 5794.97 0
0 0 0
4274.04 -1306.41 0
-1306.41 6001.58 0
0 0 0
3318.07 -974.887 0
-974.887 6147.06 0
0 0 0
3322.85 -378.665 0
-378.665 6257.85 0
0 0 0
3984.25 448.948 0
448.948 6351.12 0
0 0 0
3986.64 131.123 0
131.123 6396.21 0
0 0 0
3472.26 -806.295 0
-806.295 6461.08 0
0 0 0
3478.84 -2358.35 0
-2358.35 6585.15 0
0 0 0
3484.31 -388.892 0
-388.892 6705.04 0
0 0 0
2279.3 4778.17 0
4778.17 6306.12 0
0 0 0
2268.23 7029.04 0
7029.04 5877.55 0
0 0 0
4025.07 28.7132 0
28.7132 5276.02 0
0 0 0
4023.95 -273.001 0
-273.001 5464.46 0
0 0 0
3054.83 -238.14 0
-238.14 5597.23 0
0 0 0
3054.4 414.135 0
414.135 5698.25 0
0 0 0
3684.68 683.278 0
683.278 5782.32 0
0 0 0
3684.97 355.044 0
355.044 5823.22 0
0 0 0
3045.7 732.841 0
732.841 5879.7 0
0 0 0
3036.23 -580.175 0
-580.175 5979.27 0
0 0 0
3027.42 -3277.46 0
-3277.46 6077.55 0
0 0 0
2151.5 -203.183 0
-203.183 5743.16 0
0 0 0
2151.73 2460.15 0
2460.15 5343.92 0
0 0 0
3681.59 358.498 0
358.498 6225.9 0
0 0 0
3672.73 -642.226 0
-642.226 6218.75 0
0 0 0
2701.67 -821.046 0
-821.046 6226.14 0
0 0 0
2697.51 150.245 0
150.245 6240.16 0
0 0 0
3280.67 247.515 0
247.515 6255.96 0
0 0 0
3279.02 -226.222 0
-226.222 6276.2 0
0 0 0
2520.39 833.174 0
833.174 6277.66 0
0 0 0
2511.51 1638.97 0
1638.97 6219.48 0
0 0 0
2503.57 119.189 0
119.189 6164.33 0
0 0 0
1959.64 609.648 0
609.648 6183.91 0
0 0 0
1973.28 2858.01 0
2858.01 6206.26 0
0 0 0
3196.16 430.428 0
430.428 5369.19 0
0 0 0
3186.73 -561.778 0
-561.778 5360.89 0
0 0 0
2332.8 -645.137 0
-645.137 5365.49 0
0 0 0
2327.34 334.905 0
334.905 5376.96 0
0 0 0
2802.55 372.692 0
372.692 5390.28 0
0 0 0
2799.74 -97.4186 0
-97.4186 5408.21 0
0 0 0
2182.73 535.255 0
535.255 5409.7 0
0 0 0
2175.55 1338.75 0
1338.75 5355.34 0
0 0 0
2169.41 -548.317 0
-548.317 5304.2 0
0 0 0
1625.2 368.338 0
368.338 5329.41 0
0 0 0
1640.99 2707.83 0
2707.83 5356.55 0
0 0 0
2719.51 404.832 0
404.832 4527.98 0
0 0 0
2710.46 -623.12 0
-623.12 4520.18 0
0 0 0
1972.1 -668.629 0
-668.629 4523.84 0
0 0 0
1966.12 279.121 0
279.121 4534.58 0
0 0 0
2336.84 331.514 0
331.514 4547.02 0
0 0 0
2333.37 22.4415 0
22.4415 4563.61 0
0 0 0
1854.43 432.134 0
432.134 4565.75 0
0 0 0
1849.03 1234.01 0
1234.01 4515.4 0
0 0 0
1844.61 -760.066 0
-760.066 4468.12 0
0 0 0
1298.36 729.347 0
729.347 4494.19 0
0 0 0
1314.71 3315.48 0
3315.48 4521.96 0
0 0 0
2260.38 324.045 0
324.045 3485.88 0
0 0 0
2252.59 -659.992 0
-659.992 3456.7 0
0 0 0
1607.96 -690.53 0
-690.53 3430.78 0
0 0 0
1602.03 226.892 0
226.892 3407.88 0
0 0 0
1908.33 313.968 0
313.968 3388.34 0
0 0 0
1905.11 31.4768 0
31.4768 3376.74 0
0 0 0
1530.9 338.397 0
338.397 3364.01 0
0 0 0
1526.09 1136.74 0
1136.74 3346.51 0
0 0 0
1522.32 -962.182 0
-962.182 3331.72 0
0 0 0
964.84 974.512 0
974.512 3404.18 0
0 0 0
981.106 3495.05 0
3495.05 3478.49 0
0 0 0
1814.09 414.975 0
414.975 2688.08 0
0 0 0
1807.26 -203.148 0
-203.148 2660.84 0
0 0 0
1252.04 -158.605 0
-158.605 2636.11 0
0 0 0
1246.45 389.567 0
389.567 2613.82 0
0 0 0
1492.2 275.314 0
275.314 2594.82 0
0 0 0
1489.14 79.5577 0
79.5577 2583.55 0
0 0 0
1215.77 298.595 0
298.595 2571.51 0
0 0 0
1211.83 885.749 0
885.749 2556.15 0
0 0 0
1208.9 -1332.13 0
-1332.13 2543.39 0
0 0 0
638.976 -133.7 0
-133.7 2614.86 0
0 0 0
653.806 1415.66 0
1415.66 2687.2 0
0 0 0
1389.27 420.236 0
420.236 1891.64 0
0 0 0
1383.44 -58.7927 0
-58.7927 1875.45 0
0 0 0
884.105 -38.0702 0
-38.0702 1858.72 0
0 0 0
878.419 389.595 0
389.595 1841.67 0
0 0 0
1090.87 238.831 0
238.831 1827.52 0
0 0 0
1088.12 110.45 0
110.45 1820.26 0
0 0 0
886.713 302.281 0
302.281 1813 0
0 0 0
882.937 756.905 0
756.905 1805.69 0
0 0 0
261.253 -1470.79 0
-1470.79 1800.78 0
0 0 0
276.998 -186.595 0
-186.595 1862.51 0
0 0 0
292.849 1097.41 0
1097.41 1924.44 0
0 0 0
TENSORS strain double
0.0399432 0.0148922 0
0.0148922 -0.0211596 0
0 0 0
0.0396567 0.0561135 0
0.0561135 -0.0448185 0
0 0 0
-0.0432597 0.0616697 0
0.0616697 -0.0656704 0
0 0 0
-0.0430204 0.0183011 0
0.0183011 -0.0830477 0
0 0 0
0.0108965 -0.00656468 0
-0.00656468 -0.0972152 0
0 0 0
0.0108749 0.00482023 0
0.00482023 -0.103335 0
0 0 0
-0.0112426 0.00714869 0
0.00714869 -0.11308 0
0 0 0
-0.0110839 -0.00454557 0
-0.00454557 -0.1381 0
0 0 0
-0.153496 0.0062534 0
0.0062534 -0.153044 0
0 0 0
-0.158899 -0.142159 0
-0.142159 -0.0462809 0
0 0 0
-0.16463 -0.29008 0
-0.29008 0.0600242 0
0 0 0
0.119812 0.00435227 0
0.00435227 -0.0218126 0
0 0 0
0.118918 0.0473661 0
0.0473661 -0.0467685 0
0 0 0
-0.129732 0.0502083 0
0.0502083 -0.0671643 0
0 0 0
-0.129044 0.00870207 0
0.00870207 -0.0835829 0
0 0 0
0.0326898 -0.00948701 0
-0.00948701 -0.097186 0
0 0 0
0.0326241 0.00203046 0
0.00203046 -0.103393 0
0 0 0
-0.0337222 -0.00508961 0
-0.00508961 -0.113447 0
0 0 0
-0.0332489 -0.0165116 0
-0.0165116 -0.13824 0
0 0 0
-0.460298 0.0629903 0
0.0629903 -0.155238 0
0 0 0
-0.474165 -0.0623758 0
-0.0623758 -0.0682519 0
0 0 0
-0.488674 -0.186739 0
-0.186739 0.0178055 0
0 0 0
0.168063 -0.021473 0
-0.021473 -0.566518 0
0 0 0
0.168035 -0.0242198 0
-0.0242198 -0.532111 0
0 0 0
-0.182984 -0.0181083 0
-0.0181083 -0.505916 0
0 0 0
-0.183066 -0.0122589 0
-0.0122589 -0.485577 0
0 0 0
0.0461871 0.00184474 0
0.00184474 -0.46877 0
0 0 0
0.0462084 -0.00135057 0
-0.00135057 -0.461429 0
0 0 0
-0.0556128 -0.0237372 0
-0.0237372 -0.447158 0
0 0 0
-0.0548092 -0.0397343 0
-0.0397343 -0.408349 0
0 0 0
-0.653092 0.0768143 0
0.0768143 -0.374948 0
0 0 0
-0.664813 0.101634 0
0.101634 -0.470662 0
0 0 0
-0.661672 0.121111 0
0.121111 -0.564488 0
0 0 0
0.163175 -0.0104904 0
-0.0104904 -0.566608 0
0 0 0
0.163159 -0.0130641 0
-0.0130641 -0.53238 0
0 0 0
-0.172311 -0.00974887 0
-0.00974887 -0.506065 0
0 0 0
-0.172342 -0.00378665 0
-0.00378665 -0.48556 0
0 0 0
0.0413096 0.00448948 0
0.00448948 -0.468731 0
0 0 0
0.0413188 0.00131123 0
0.00131123 -0.461413 0
0 0 0
-0.0795065 -0.00806295 0
-0.00806295 -0.447251 0
0 0 0
-0.0792822 -0.0235835 0
-0.0235835 -0.408783 0
0 0 0
-0.506629 -0.00388892 0
-0.00388892 -0.375825 0
0 0 0
-0.611504 0.0477817 0
0.0477817 -0.471336 0
0 0 0
-0.610135 0.0702904 0
0.0702904 -0.568284 0
0 0 0
0.158072 0.000287132 0
0.000287132 -0.441948 0
0 0 0
0.158069 -0.00273001 0
-0.00273001 -0.410188 0
0 0 0
-0.161345 -0.0023814 0
-0.0023814 -0.385707 0
0 0 0
-0.161326 0.00414135 0
0.00414135 -0.366578 0
0 0 0
0.0363251 0.00683278 0
0.00683278 -0.350888 0
0 0 0
0.036322 0.00355044 0
0.00355044 -0.34381 0
0 0 0
-0.103495 0.00732841 0
0.00732841 -0.331072 0
0 0 0
-0.103832 -0.00580175 0
-0.00580175 -0.293812 0
0 0 0
-0.437629 -0.0327746 0
-0.0327746 -0.265136 0
0 0 0
-0.556987 -0.00203183 0
-0.00203183 -0.352291 0
0 0 0
-0.557463 0.0246015 0
0.0246015 -0.438817 0
0 0 0
0.14619 0.00358498 0
0.00358498 -0.0310015 0
0 0 0
0.146069 -0.00642226 0
-0.00642226 -0.0295037 0
0 0 0
-0.144613 -0.00821046 0
-0.00821046 -0.0266738 0
0 0 0
-0.144521 0.00150245 0
0.00150245 -0.0230855 0
0 0 0
0.0289281 0.00247515 0
0.00247515 -0.0197572 0
0 0 0
0.0289095 -0.00226222 0
-0.00226222 -0.0170661 0
0 0 0
-0.108201 0.00833174 0
0.00833174 -0.0162507 0
0 0 0
-0.107951 0.0163897 0
0.0163897 -0.021767 0
0 0 0
-0.411886 0.00119189 0
0.00119189 -0.0273584 0
0 0 0
-0.495956 0.00609648 0
0.00609648 -0.032522 0
0 0 0
-0.496755 0.0285801 0
0.0285801 -0.0375963 0
0 0 0
0.12775 0.00430428 0
0.00430428 -0.0432476 0
0 0 0
0.127619 -0.00561778 0
-0.00561778 -0.0419188 0
0 0 0
-0.124146 -0.00645137 0
-0.00645137 -0.0392914 0
0 0 0
-0.124031 0.00334905 0
0.00334905 -0.0358035 0
0 0 0
0.0197285 0.00372692 0
0.00372692 -0.0325727 0
0 0 0
0.0197017 -0.000974186 0
-0.000974186 -0.0299642 0
0 0 0
-0.0913934 0.00535255 0
0.00535255 -0.0291604 0
0 0 0
-0.091175 0.0133875 0
0.0133875 -0.0347983 0
0 0 0
-0.375616 -0.00548317 0
-0.00548317 -0.0404406 0
0 0 0
-0.441576 0.00368338 0
0.00368338 -0.0448201 0
0 0 0
-0.442493 0.0270783 0
0.0270783 -0.0491373 0
0 0 0
0.108995 0.00404832 0
0.00404832 -0.0700646 0
0 0 0
0.108868 -0.0062312 0
-0.0062312 -0.071569 0
0 0 0
-0.104166 -0.00668629 0
-0.00668629 -0.0758069 0
0 0 0
-0.104057 0.00279121 0
0.00279121 -0.0762745 0
0 0 0
0.0120503 0.00331514 0
0.00331514 -0.0764378 0
0 0 0
0.0120305 0.000224415 0
0.000224415 -0.0758694 0
0 0 0
-0.0753758 0.00432134 0
0.00432134 -0.0804516 0
0 0 0
-0.0751929 0.0123401 0
0.0123401 -0.0830669 0
0 0 0
-0.333942 -0.00760066 0
-0.00760066 -0.0854763 0
0 0 0
-0.383959 0.00729347 0
0.00729347 -0.0782935 0
0 0 0
-0.384968 0.0331548 0
0.0331548 -0.0721522 0
0 0 0
0.0902045 0.00324045 0
0.00324045 -0.0943381 0
0 0 0
0.0900948 -0.00659992 0
-0.00659992 -0.0966498 0
0 0 0
-0.0852543 -0.0069053 0
-0.0069053 -0.0983708 0
0 0 0
-0.0851559 0.00226892 0
0.00226892 -0.0994999 0
0 0 0
0.00655777 0.00313968 0
0.00313968 -0.100347 0
0 0 0
0.0065412 0.000314768 0
0.000314768 -0.100517 0
0 0 0
-0.0595773 0.00338397 0
0.00338397 -0.101109 0
0 0 0
-0.0594153 0.0113674 0
0.0113674 -0.103387 0
0 0 0
-0.294938 -0.00962182 0
-0.00962182 -0.107155 0
0 0 0
-0.325634 0.00974512 0
0.00974512 -0.100672 0
0 0 0
-0.326598 0.0349505 0
0.0349505 -0.0958727 0
0 0 0
0.0757346 0.00414975 0
0.00414975 -0.117875 0
0 0 0
0.0756628 -0.00203148 0
-0.00203148 -0.119383 0
0 0 0
-0.0707892 -0.00158605 0
-0.00158605 -0.122084 0
0 0 0
-0.0707259 0.00389567 0
0.00389567 -0.123119 0
0 0 0
0.00202752 0.00275314 0
0.00275314 -0.123953 0
0 0 0
0.00201519 0.000795577 0
0.000795577 -0.124312 0
0 0 0
-0.0463338 0.00298595 0
0.00298595 -0.124964 0
0 0 0
-0.0462247 0.00885749 0
0.00885749 -0.128038 0
0 0 0
-0.264959 -0.0133213 0
-0.0133213 -0.129576 0
0 0 0
-0.283241 -0.001337 0
-0.001337 -0.122213 0
0 0 0
-0.283759 0.0141566 0
0.0141566 -0.114966 0
0 0 0
0.0664057 0.00420236 0
0.00420236 -0.120668 0
0 0 0
0.0663669 -0.000587927 0
-0.000587927 -0.121975 0
0 0 0
-0.0619867 -0.000380702 0
-0.000380702 -0.123175 0
0 0 0
-0.0619558 0.00389595 0
0.00389595 -0.124239 0
0 0 0
-0.000629188 0.00238831 0
0.00238831 -0.125132 0
0 0 0
-0.000633711 0.0011045 0
0.0011045 -0.125622 0
0 0 0
-0.0373415 0.00302281 0
0.00302281 -0.126306 0
0 0 0
-0.0372738 0.00756905 0
0.00756905 -0.12783 0
0 0 0
-0.255459 -0.0147079 0
-0.0147079 -0.128963 0
0 0 0
-0.255744 -0.00186595 0
-0.00186595 -0.122914 0
0 0 0
-0.25603 0.0109741 0
0.0109741 -0.116866 0
0 0 0
