# vtk DataFile Version 3.0
MPM2D particles
ASCII
DATASET POLYDATA
POINTS 121 double
0.014009 0.00412468 0
0.0417603 0.00358858 0
0.0665985 0.00320996 0
0.0889333 0.00294443 0
0.112323 0.00273561 0
0.138038 0.00262962 0
0.163227 0.00260719 0
0.186527 0.00286606 0
0.209419 0.003236 0
0.216408 0.0146591 0
0.212572 0.0338945 0
0.0175705 0.012254 0
0.0516244 0.0104666 0
0.0735473 0.00948253 0
0.0914076 0.00878801 0
0.111945 0.00821174 0
0.139151 0.00788152 0
0.164449 0.00787441 0
0.184688 0.00854535 0
0.204348 0.00932907 0
0.208516 0.0149531 0
0.20777 0.0233318 0
0.0206796 0.0187162 0
0.0594714 0.0160871 0
0.0780223 0.014857 0
0.0931095 0.0139447 0
0.111718 0.0131391 0
0.140159 0.0126188 0
0.165203 0.0127168 0
0.182959 0.0137634 0
0.200139 0.014896 0
0.204116 0.0182656 0
0.204511 0.0236378 0
0.0214533 0.0217982 0
0.0614436 0.0193482 0
0.0794523 0.0182569 0
0.094022 0.0174155 0
0.112353 0.016652 0
0.140903 0.0161219 0
0.165203 0.0164185 0
0.180948 0.0178942 0
0.196136 0.0194596 0
0.201419 0.0220093 0
0.202776 0.0267022 0
0.0220597 0.0246837 0
0.0629467 0.022553 0
0.0806362 0.02169 0
0.0949171 0.0210099 0
0.113195 0.0203961 0
0.141504 0.0199571 0
0.16486 0.0205022 0
0.17866 0.0223723 0
0.191873 0.0243354 0
0.198606 0.0260601 0
0.201271 0.0299338 0
0.022592 0.0285543 0
0.0642624 0.0269921 0
0.0817521 0.0265392 0
0.0958471 0.0261881 0
0.114105 0.0259125 0
0.141741 0.02577 0
0.163975 0.0266672 0
0.175931 0.0289141 0
0.187363 0.0312257 0
0.194817 0.0323091 0
0.199441 0.0348627 0
0.0226964 0.0340953 0
0.0646281 0.0333519 0
0.082162 0.0335168 0
0.0962903 0.0337126 0
0.114419 0.0340305 0
0.140862 0.0345304 0
0.162353 0.0358335 0
0.173335 0.0382646 0
0.184001 0.0406864 0
0.191433 0.0414118 0
0.197654 0.0425547 0
0.0220299 0.0410496 0
0.0633481 0.0411022 0
0.0813165 0.0419584 0
0.0958323 0.0427976 0
0.113867 0.043839 0
0.139095 0.0452081 0
0.160524 0.0469341 0
0.171622 0.0492117 0
0.182588 0.0513803 0
0.190325 0.0517862 0
0.197478 0.0519422 0
0.0208172 0.0486702 0
0.0607924 0.0493549 0
0.0795174 0.0508671 0
0.0946729 0.0523372 0
0.112787 0.0540663 0
0.137194 0.0562433 0
0.158936 0.0584031 0
0.170785 0.0602266 0
0.182527 0.0619191 0
0.190942 0.0620278 0
0.198884 0.0615967 0
0.0195765 0.0564091 0
0.0579195 0.0576161 0
0.0774973 0.0596519 0
0.0933023 0.0615955 0
0.11157 0.0638092 0
0.135535 0.0665106 0
0.157648 0.0690737 0
0.170327 0.0705377 0
0.182902 0.0718992 0
0.19198 0.0718197 0
0.200593 0.0710379 0
0.0185239 0.0643386 0
0.0552064 0.0659621 0
0.0755522 0.0684131 0
0.0918595 0.0707627 0
0.110257 0.0733918 0
0.134026 0.0765203 0
0.156497 0.0795489 0
0.170025 0.0807929 0
0.183416 0.0819669 0
0.193052 0.0817988 0
0.202133 0.0809085 0
VERTICES 121 242
1 0
1 1
1 2
1 3
1 4
1 5
1 6
1 7
1 8
1 9
1 10
1 11
1 12
1 13
1 14
1 15
1 16
1 17
1 18
1 19
1 20
1 21
1 22
1 23
1 24
1 25
1 26
1 27
1 28
1 29
1 30
1 31
1 32
1 33
1 34
1 35
1 36
1 37
1 38
1 39
1 40
1 41
1 42
1 43
1 44
1 45
1 46
1 47
1 48
1 49
1 50
1 51
1 52
1 53
1 54
1 55
1 56
1 57
1 58
1 59
1 60
1 61
1 62
1 63
1 64
1 65
1 66
1 67
1 68
1 69
1 70
1 71
1 72
1 73
1 74
1 75
1 76
1 77
1 78
1 79
1 80
1 81
1 82
1 83
1 84
1 85
1 86
1 87
1 88
1 89
1 90
1 91
1 92
1 93
1 94
1 95
1 96
1 97
1 98
1 99
1 100
1 101
1 102
1 103
1 104
1 105
1 106
1 107
1 108
1 109
1 110
1 111
1 112
1 113
1 114
1 115
1 116
1 117
1 118
1 119
1 120
POINT_DATA 121
VECTORS velocity double
4.84707 8.4697 0
2.77304 6.74388 0
1.38879 5.58232 0
0.824344 4.95133 0
0.339309 4.61658 0
0.103665 5.07544 0
-0.165227 5.00116 0
-0.539229 2.87021 0
-1.18629 1.11221 0
-6.31647 7.84008 0
-9.1368 12.1588 0
3.48209 2.94939 0
1.052 2.12493 0
0.179231 1.70919 0
0.237232 1.40732 0
0.209019 1.23088 0
0.0512308 1.49526 0
-0.0850388 1.4053 0
-0.0866251 0.287947 0
-0.188831 -0.781196 0
-1.33774 0.833702 0
-1.59809 1.85364 0
2.53063 -0.852397 0
-0.189287 -0.931265 0
-0.572949 -1.02038 0
-0.144935 -1.13787 0
0.133009 -1.22654 0
0.0440675 -1.14587 0
0.0205539 -1.21752 0
0.268406 -1.56357 0
0.459846 -1.92588 0
0.447 -1.83635 0
0.715151 -1.76967 0
2.54669 -1.42959 0
-0.128979 -1.39584 0
-0.477606 -1.4565 0
-0.0860534 -1.54297 0
0.182566 -1.61495 0
0.122512 -1.60453 0
0.105215 -1.6648 0
0.254573 -1.75687 0
0.354492 -1.84367 0
0.086261 -1.94158 0
0.0870971 -2.03695 0
2.61624 -1.82605 0
0.0347168 -1.72919 0
-0.306876 -1.7508 0
0.00282326 -1.79798 0
0.216109 -1.84209 0
0.187979 -1.86341 0
0.16824 -1.90204 0
0.1764 -1.83924 0
0.133628 -1.77685 0
-0.440951 -1.96325 0
-0.711864 -2.20108 0
2.63103 -2.10928 0
0.155702 -2.0032 0
-0.191637 -1.98698 0
0.0423942 -1.98765 0
0.201405 -1.99115 0
0.201057 -2.00652 0
0.185361 -2.01818 0
0.120438 -1.91411 0
0.00887252 -1.81727 0
-0.699999 -2.00695 0
-1.22667 -2.28248 0
2.49869 -2.25847 0
0.175918 -2.19149 0
-0.173947 -2.14296 0
0.0159191 -2.10106 0
0.144841 -2.06991 0
0.157323 -2.07235 0
0.146042 -2.06481 0
0.0763971 -1.97324 0
-0.0386019 -1.8886 0
-0.724457 -2.06385 0
-1.39866 -2.32795 0
2.23803 -2.41355 0
0.193187 -2.38523 0
-0.154566 -2.31487 0
-0.0120106 -2.24417 0
0.0877387 -2.18932 0
0.112618 -2.17607 0
0.102964 -2.1486 0
-0.00111715 -2.06467 0
-0.144386 -1.98725 0
-0.771954 -2.13865 0
-1.45862 -2.37784 0
1.90672 -2.72136 0
0.25007 -2.69795 0
-0.101556 -2.61411 0
-0.0350175 -2.52488 0
0.0143962 -2.4511 0
0.0530627 -2.42154 0
0.0565203 -2.37643 0
-0.0811394 -2.29474 0
-0.249662 -2.21939 0
-0.832643 -2.32039 0
-1.49651 -2.49599 0
1.57193 -3.35049 0
0.296784 -3.28846 0
-0.0665929 -3.17895 0
-0.0873257 -3.06509 0
-0.0973132 -2.9641 0
-0.0420379 -2.9087 0
-0.012418 -2.83991 0
-0.152282 -2.76274 0
-0.318391 -2.68998 0
-0.88315 -2.72268 0
-1.54288 -2.79998 0
1.18983 -4.46004 0
0.264503 -4.33832 0
-0.102408 -4.19835 0
-0.213739 -4.05361 0
-0.289717 -3.89547 0
-0.212365 -3.80695 0
-0.130027 -3.6734 0
-0.237285 -3.61477 0
-0.366247 -3.54505 0
-0.91163 -3.47861 0
-1.56652 -3.41916 0
SCALARS mass double 1
LOOKUP_TABLE default
2.67769
2.67769
2.67769
2.67769
2.67769
2.67769
2.67769
2.67769
2.67769
2.67769
2.67769
2.67769
2.67769
2.67769
2.67769
2.67769
2.67769
2.67769
2.67769
2.67769
2.67769
2.67769
2.67769
2.67769
2.67769
2.67769
2.67769
2.67769
2.67769
2.67769
2.67769
2.67769
2.67769
2.67769
2.67769
2.67769
2.67769
2.67769
2.67769
2.67769
2.67769
2.67769
2.67769
2.67769
2.67769
2.67769
2.67769
2.67769
2.67769
2.67769
2.67769
2.67769
2.67769
2.67769
2.67769
2.67769
2.67769
2.67769
2.67769
2.67769
2.67769
2.67769
2.67769
2.67769
2.67769
2.67769
2.67769
2.67769
2.67769
2.67769
2.67769
2.67769
2.67769
2.67769
2.67769
2.67769
2.67769
2.67769
2.67769
2.67769
2.67769
2.67769
2.67769
2.67769
2.67769
2.67769
2.67769
2.67769
2.67769
2.67769
2.67769
2.67769
2.67769
2.67769
2.67769
2.67769
2.67769
2.67769
2.67769
2.67769
2.67769
2.67769
2.67769
2.67769
2.67769
2.67769
2.67769
2.67769
2.67769
2.67769
2.67769
2.67769
2.67769
2.67769
2.67769
2.67769
2.67769
2.67769
2.67769
2.67769
2.67769
SCALARS volume double 1
LOOKUP_TABLE default
0.000275386
0.000238076
0.000170868
0.000157332
0.000167542
0.000160995
0.000144475
0.000158886
0.000131197
0.000316924
0.00030323
0.000342845
0.000286816
0.000134834
0.000126249
0.000177591
0.000170267
0.0001261
0.00013706
8.65474e-05
4.76888e-05
4.21994e-05
0.000170657
0.000131313
6.54398e-05
6.63503e-05
0.000122934
0.000120726
7.79042e-05
9.058e-05
5.6171e-05
2.19743e-05
1.18036e-05
0.000150451
0.000111735
5.80334e-05
6.06072e-05
0.000120947
0.00012256
7.13182e-05
8.16475e-05
6.00804e-05
2.33679e-05
1.13074e-05
0.000167311
0.000121515
6.54119e-05
6.99808e-05
0.000145928
0.000150515
7.93393e-05
8.9197e-05
6.99253e-05
3.44154e-05
1.39735e-05
0.000252861
0.000176981
9.85332e-05
0.000106065
0.000225296
0.000240334
0.000112549
0.000119603
9.08393e-05
6.43036e-05
3.07679e-05
0.000342756
0.000234284
0.000130167
0.00014098
0.000288053
0.000314803
0.000139208
0.000138941
0.000103602
8.6028e-05
5.23171e-05
0.000391121
0.000272564
0.000152392
0.000162036
0.000307458
0.000336906
0.000153607
0.000150641
0.000110711
9.22485e-05
6.96523e-05
0.000383624
0.000291705
0.000162132
0.000172026
0.000292666
0.000311655
0.000155417
0.00014848
0.000111754
9.45763e-05
8.19174e-05
0.000364013
0.000314324
0.000166246
0.000174519
0.000275588
0.000290247
0.000159915
0.000153045
0.000119051
0.000100843
9.46293e-05
0.000355335
0.000338382
0.000173027
0.000180968
0.000276114
0.000153277
0.000176376
0.000161431
0.000129183
0.000111408
0.000108383
TENSORS stress double
5076.87 5275.3 0
5275.3 6019.49 0
0 0 0
5076.84 21232 0
21232 5942.98 0
0 0 0
4957.01 21849.3 0
21849.3 5936.02 0
0 0 0
4966.94 7309.17 0
7309.17 5972.88 0
0 0 0
5015.94 -1286.28 0
-1286.28 6020.6 0
0 0 0
5018.34 2320.49 0
2320.49 6098.15 0
0 0 0
4946.42 3294.9 0
3294.9 6317.12 0
0 0 0
4934.53 -10165.9 0
-10165.9 7011.78 0
0 0 0
4917.32 -10077.4 0
-10077.4 7690.35 0
0 0 0
1408.82 -21405 0
-21405 9823.49 0
0 0 0
-3520.93 5593.28 0
5593.28 7767.35 0
0 0 0
5077.25 1135.1 0
1135.1 5708.19 0
0 0 0
5077.17 19564.6 0
19564.6 5655.69 0
0 0 0
4723.21 15724 0
15724 5713.43 0
0 0 0
4749.17 3043.35 0
3043.35 5760.74 0
0 0 0
4894.36 -2750.35 0
-2750.35 5818 0
0 0 0
4901.83 994.829 0
994.829 5908.25 0
0 0 0
4683.43 3410.06 0
3410.06 6161.55 0
0 0 0
4652.62 -8898.82 0
-8898.82 6751.04 0
0 0 0
4616.56 -5904.69 0
-5904.69 7319.47 0
0 0 0
4340.15 47109.3 0
47109.3 7245.64 0
0 0 0
3927.24 61133.5 0
61133.5 6924.34 0
0 0 0
5077.56 -4463.61 0
-4463.61 5459.74 0
0 0 0
4476.92 8700.53 0
8700.53 5452.99 0
0 0 0
4522.91 4399.09 0
4399.09 5520.96 0
0 0 0
4557.01 -1589.04 0
-1589.04 5572.97 0
0 0 0
4784.96 -2145.31 0
-2145.31 5636.02 0
0 0 0
4796.75 -178.638 0
-178.638 5736.97 0
0 0 0
4441.77 2778.38 0
2778.38 6007.53 0
0 0 0
4393.33 -8959.89 0
-8959.89 6509.93 0
0 0 0
4341.05 -7121.35 0
-7121.35 6992.46 0
0 0 0
4175.78 48191.2 0
48191.2 6993.29 0
0 0 0
3910.99 87989.7 0
87989.7 6813.56 0
0 0 0
5077.7 -3490.84 0
-3490.84 5343.7 0
0 0 0
4355.36 7245.49 0
7245.49 5335.27 0
0 0 0
4396.2 3681.82 0
3681.82 5397.5 0
0 0 0
4427.68 -574.527 0
-574.527 5446.3 0
0 0 0
4706.97 -461.145 0
-461.145 5508.58 0
0 0 0
4719.05 -369.915 0
-369.915 5610.33 0
0 0 0
4256.96 4350.67 0
4350.67 5872.32 0
0 0 0
4187.69 -7287.17 0
-7287.17 6299.19 0
0 0 0
4114.51 -15135.2 0
-15135.2 6706.75 0
0 0 0
3990.24 32140 0
32140 6777.01 0
0 0 0
3759.17 77154.6 0
77154.6 6650.88 0
0 0 0
5077.84 -1667.8 0
-1667.8 5235.47 0
0 0 0
4235.9 7117.81 0
7117.81 5219.05 0
0 0 0
4268.25 4131.8 0
4131.8 5272.52 0
0 0 0
4293.74 826.908 0
826.908 5315.07 0
0 0 0
4623.86 635.923 0
635.923 5373.23 0
0 0 0
4633.98 -531.64 0
-531.64 5471.06 0
0 0 0
4052.97 6116.98 0
6116.98 5712.66 0
0 0 0
3964.43 -4234.26 0
-4234.26 6067.04 0
0 0 0
3871.84 -15555.9 0
-15555.9 6401.11 0
0 0 0
3789.18 9681.74 0
9681.74 6545.79 0
0 0 0
3599.05 65084.9 0
65084.9 6489.08 0
0 0 0
5078.02 -36.4882 0
-36.4882 5091.27 0
0 0 0
4070.42 6168.84 0
6168.84 5057.15 0
0 0 0
4087.52 3367.55 0
3367.55 5095.33 0
0 0 0
4100.78 1687.33 0
1687.33 5125.58 0
0 0 0
4501.4 1162.29 0
1162.29 5172.88 0
0 0 0
4505.04 -1301.54 0
-1301.54 5258.05 0
0 0 0
3744.78 6675.22 0
6675.22 5460.27 0
0 0 0
3638 428.727 0
428.727 5746.03 0
0 0 0
3528.56 -7548.23 0
-7548.23 6014.4 0
0 0 0
3478.6 -5197.26 0
-5197.26 6205.16 0
0 0 0
3354.81 37892 0
37892 6256.31 0
0 0 0
5078.28 746.501 0
746.501 4887.12 0
0 0 0
3833.34 2556.01 0
2556.01 4823.33 0
0 0 0
3827.47 1555.29 0
1555.29 4838.89 0
0 0 0
3820.4 1825.68 0
1825.68 4849.12 0
0 0 0
4321.18 1407.98 0
1407.98 4875.08 0
0 0 0
4310.69 -1675.8 0
-1675.8 4933.44 0
0 0 0
3286.06 5689.9 0
5689.9 5075.07 0
0 0 0
3171.22 4146.82 0
4146.82 5326.25 0
0 0 0
3057.45 908.2 0
908.2 5569.05 0
0 0 0
3026.26 -4021.28 0
-4021.28 5773.45 0
0 0 0
2973.8 22661.1 0
22661.1 5925.5 0
0 0 0
5078.61 609.584 0
609.584 4633.68 0
0 0 0
3544.38 -720.658 0
-720.658 4536.25 0
0 0 0
3512.82 -313.03 0
-313.03 4526.99 0
0 0 0
3481.84 1806.76 0
1806.76 4514.1 0
0 0 0
4103.42 1920.1 0
1920.1 4512.56 0
0 0 0
4073.78 -604.579 0
-604.579 4535.73 0
0 0 0
2730.03 3900.84 0
3900.84 4611.99 0
0 0 0
2624.83 6087.87 0
6087.87 4874.93 0
0 0 0
2542.11 5866.12 0
5866.12 5824.25 0
0 0 0
2539.63 2665.63 0
2665.63 5603.38 0
0 0 0
2539.26 17698.9 0
17698.9 5407.1 0
0 0 0
5078.97 305.301 0
305.301 4357.67 0
0 0 0
3236.66 -3190.24 0
-3190.24 4229.07 0
0 0 0
3189.66 -1076.31 0
-1076.31 5576.8 0
0 0 0
3169.14 1835.1 0
1835.1 5720.61 0
0 0 0
3885.04 2728.82 0
2728.82 5880.77 0
0 0 0
3843.09 1310.04 0
1310.04 6078.02 0
0 0 0
2477.65 1912.94 0
1912.94 6201.26 0
0 0 0
2463.16 5330.77 0
5330.77 5818.96 0
0 0 0
2449.72 5772.71 0
5772.71 5443.95 0
0 0 0
2449.73 3439.47 0
3439.47 5215.13 0
0 0 0
2454.44 9882.44 0
9882.44 5018.56 0
0 0 0
4915.97 1256.5 0
1256.5 4665.01 0
0 0 0
3094.1 -2798.11 0
-2798.11 5050.79 0
0 0 0
3065.85 658.264 0
658.264 5232.04 0
0 0 0
3038.94 3016.47 0
3016.47 5367.74 0
0 0 0
3692.56 3768.2 0
3768.2 5515.17 0
0 0 0
3640.78 3074.55 0
3074.55 5689.54 0
0 0 0
3591.87 494.44 0
494.44 5848.38 0
0 0 0
2373.03 4351.05 0
4351.05 5458.45 0
0 0 0
2362.26 4967.16 0
4967.16 5072.22 0
0 0 0
2363.78 2300.66 0
2300.66 4831.81 0
0 0 0
2371.45 2505.23 0
2505.23 4629.47 0
0 0 0
4696.17 2217.93 0
2217.93 4363.67 0
0 0 0
2976.08 -2425.81 0
-2425.81 4712.06 0
0 0 0
2942.31 1411.04 0
1411.04 4888.96 0
0 0 0
2909.96 3256.27 0
3256.27 5017.12 0
0 0 0
3503.18 4101.71 0
4101.71 5154.17 0
0 0 0
3443.49 2952.38 0
2952.38 5311.9 0
0 0 0
3385.96 -248.644 0
-248.644 5459.04 0
0 0 0
2283.41 3575.48 0
3575.48 5095.88 0
0 0 0
2274.03 4701.44 0
4701.44 4693.53 0
0 0 0
2276.14 2298.59 0
2298.59 4440.65 0
0 0 0
2284.59 -339.613 0
-339.613 4229.01 0
0 0 0
TENSORS strain double
0.114029 0.052753 0
0.052753 -1.09612 0
0 0 0
0.107654 0.21232 0
0.21232 -1.23369 0
0 0 0
-0.110145 0.218493 0
0.218493 -1.34383 0
0 0 0
-0.106329 0.0730917 0
0.0730917 -1.42911 0
0 0 0
0.0285737 -0.0128628 0
-0.0128628 -1.5017 0
0 0 0
0.0282165 0.0232049 0
0.0232049 -1.5407 0
0 0 0
-0.0698513 0.032949 0
0.032949 -1.54968 0
0 0 0
-0.069536 -0.101659 0
-0.101659 -1.45833 0
0 0 0
-0.378775 -0.100774 0
-0.100774 -1.33999 0
0 0 0
-1.01145 -0.21405 0
-0.21405 0.163096 0
0 0 0
-1.8801 0.0559328 0
0.0559328 1.0121 0
0 0 0
0.340992 0.011351 0
0.011351 -1.10572 0
0 0 0
0.320087 0.195646 0
0.195646 -1.2614 0
0 0 0
-0.328706 0.15724 0
0.15724 -1.35903 0
0 0 0
-0.318445 0.0304335 0
0.0304335 -1.43417 0
0 0 0
0.0857338 -0.0275035 0
-0.0275035 -1.50111 0
0 0 0
0.0846327 0.00994829 0
0.00994829 -1.54162 0
0 0 0
-0.209727 0.0341006 0
0.0341006 -1.54316 0
0 0 0
-0.208434 -0.0889882 0
-0.0889882 -1.46433 0
0 0 0
-0.75097 -0.0590469 0
-0.0590469 -1.37908 0
0 0 0
-1.78972 0.471093 0
0.471093 -0.913259 0
0 0 0
-2.3389 0.611335 0
0.611335 -0.471385 0
0 0 0
0.504523 -0.0446361 0
-0.0446361 -1.96407 0
0 0 0
0.212826 0.0870053 0
0.0870053 -1.92682 0
0 0 0
-0.494512 0.0439909 0
0.0439909 -1.90716 0
0 0 0
-0.483097 -0.0158904 0
-0.0158904 -1.90495 0
0 0 0
0.130779 -0.0214531 0
-0.0214531 -1.91221 0
0 0 0
0.129335 -0.00178638 0
-0.00178638 -1.92858 0
0 0 0
-0.338865 0.0277838 0
0.0277838 -1.89035 0
0 0 0
-0.33843 -0.0895989 0
-0.0895989 -1.74377 0
0 0 0
-0.938037 -0.0712135 0
-0.0712135 -1.61639 0
0 0 0
-1.83277 0.481912 0
0.481912 -1.63409 0
0 0 0
-2.35748 0.879897 0
0.879897 -1.7032 0
0 0 0
0.54146 -0.0349084 0
-0.0349084 -2.12611 0
0 0 0
0.169342 0.0724549 0
0.0724549 -2.04254 0
0 0 0
-0.530867 0.0368182 0
0.0368182 -1.98828 0
0 0 0
-0.523054 -0.00574527 0
-0.00574527 -1.95343 0
0 0 0
0.134249 -0.00461145 0
-0.00461145 -1.93191 0
0 0 0
0.133666 -0.00369915 0
-0.00369915 -1.9181 0
0 0 0
-0.453055 0.0435067 0
0.0435067 -1.86236 0
0 0 0
-0.45853 -0.0728717 0
-0.0728717 -1.72508 0
0 0 0
-0.891895 -0.151352 0
-0.151352 -1.59596 0
0 0 0
-1.70022 0.3214 0
0.3214 -1.7072 0
0 0 0
-2.23226 0.771546 0
0.771546 -1.86924 0
0 0 0
0.569521 -0.016678 0
-0.016678 -2.0481 0
0 0 0
0.135701 0.0711781 0
0.0711781 -1.92408 0
0 0 0
-0.553925 0.041318 0
0.041318 -1.84563 0
0 0 0
-0.549042 0.00826908 0
0.00826908 -1.78421 0
0 0 0
0.124883 0.00635923 0
0.00635923 -1.736 0
0 0 0
0.124871 -0.0053164 0
-0.0053164 -1.70524 0
0 0 0
-0.575498 0.0611698 0
0.0611698 -1.63307 0
0 0 0
-0.587226 -0.0423426 0
-0.0423426 -1.50732 0
0 0 0
-0.932445 -0.155559 0
-0.155559 -1.40484 0
0 0 0
-1.50572 0.0968174 0
0.0968174 -1.52444 0
0 0 0
-2.11881 0.650849 0
0.650849 -1.77324 0
0 0 0
0.59356 -0.000364882 0
-0.000364882 -1.66101 0
0 0 0
0.0979692 0.0616884 0
0.0616884 -1.51083 0
0 0 0
-0.570801 0.0336755 0
0.0336755 -1.42327 0
0 0 0
-0.569118 0.0168733 0
0.0168733 -1.35271 0
0 0 0
0.100293 0.0116229 0
0.0116229 -1.28034 0
0 0 0
0.100198 -0.0130154 0
-0.0130154 -1.2163 0
0 0 0
-0.710863 0.0667522 0
0.0667522 -1.15117 0
0 0 0
-0.724471 0.00428727 0
0.00428727 -1.0791 0
0 0 0
-1.04167 -0.0754823 0
-0.0754823 -1.03679 0
0 0 0
-1.32846 -0.0519726 0
-0.0519726 -1.08953 0
0 0 0
-1.80584 0.37892 0
0.37892 -1.32255 0
0 0 0
0.598283 0.00746501 0
0.00746501 -1.36353 0
0 0 0
0.10015 0.0255601 0
0.0255601 -1.2338 0
0 0 0
-0.569432 0.0155529 0
0.0155529 -1.15002 0
0 0 0
-0.569355 0.0182568 0
0.0182568 -1.07196 0
0 0 0
0.0575231 0.0140798 0
0.0140798 -0.994803 0
0 0 0
0.0564056 -0.016758 0
-0.016758 -0.906183 0
0 0 0
-0.799128 0.056899 0
0.056899 -0.853923 0
0 0 0
-0.806535 0.0414682 0
0.0414682 -0.849254 0
0 0 0
-1.09761 0.009082 0
0.009082 -0.850655 0
0 0 0
-1.25837 -0.0402128 0
-0.0402128 -0.873686 0
0 0 0
-1.56516 0.226611 0
0.226611 -1.04776 0
0 0 0
0.568386 0.00609584 0
0.00609584 -1.20339 0
0 0 0
0.121635 -0.00720658 0
-0.00720658 -1.10674 0
0 0 0
-0.539334 -0.0031303 0
-0.0031303 -1.02605 0
0 0 0
-0.538409 0.0180676 0
0.0180676 -0.967161 0
0 0 0
0.0133832 0.019201 0
0.019201 -0.88831 0
0 0 0
0.0115474 -0.00604579 0
-0.00604579 -0.796706 0
0 0 0
-0.799296 0.0390084 0
0.0390084 -0.759152 0
0 0 0
-0.799044 0.0608787 0
0.0608787 -0.779119 0
0 0 0
-1.05689 0.0586612 0
0.0586612 -0.826641 0
0 0 0
-1.20593 0.0266563 0
0.0266563 -0.85715 0
0 0 0
-1.37169 0.176989 0
0.176989 -0.962282 0
0 0 0
0.511506 0.00305301 0
0.00305301 -1.16732 0
0 0 0
0.16818 -0.0319024 0
-0.0319024 -1.0899 0
0 0 0
-0.492114 -0.0107631 0
-0.0107631 -1.01463 0
0 0 0
-0.489624 0.018351 0
0.018351 -0.959572 0
0 0 0
-0.0176553 0.0272882 0
0.0272882 -0.908348 0
0 0 0
-0.0191854 0.0131004 0
0.0131004 -0.845083 0
0 0 0
-0.739059 0.0191294 0
0.0191294 -0.810105 0
0 0 0
-0.737011 0.0533077 0
0.0533077 -0.856413 0
0 0 0
-0.970836 0.0577271 0
0.0577271 -0.903936 0
0 0 0
-1.11665 0.0343947 0
0.0343947 -0.92201 0
0 0 0
-1.19688 0.0988244 0
0.0988244 -0.979727 0
0 0 0
0.449755 0.012565 0
0.012565 -1.15849 0
0 0 0
0.235173 -0.0279811 0
-0.0279811 -1.08605 0
0 0 0
-0.448661 0.00658264 0
0.00658264 -1.03407 0
0 0 0
-0.446174 0.0301647 0
0.0301647 -0.989434 0
0 0 0
-0.0352776 0.037682 0
0.037682 -0.950645 0
0 0 0
-0.0362001 0.0307455 0
0.0307455 -0.898892 0
0 0 0
-0.661115 0.0049444 0
0.0049444 -0.860577 0
0 0 0
-0.671241 0.0435105 0
0.0435105 -0.892992 0
0 0 0
-0.888302 0.0496716 0
0.0496716 -0.924658 0
0 0 0
-1.04081 0.0230066 0
0.0230066 -0.935107 0
0 0 0
-1.08518 0.0250523 0
0.0250523 -0.951328 0
0 0 0
0.394231 0.0221793 0
0.0221793 -1.12735 0
0 0 0
0.293118 -0.0242581 0
-0.0242581 -1.07333 0
0 0 0
-0.415508 0.0141104 0
0.0141104 -1.02824 0
0 0 0
-0.41258 0.0325627 0
0.0325627 -0.987585 0
0 0 0
-0.0427972 0.0410171 0
0.0410171 -0.941437 0
0 0 0
-0.0426963 0.0295238 0
0.0295238 -1.36656 0
0 0 0
-0.537816 -0.00248644 0
-0.00248644 -0.887931 0
0 0 0
-0.610299 0.0357548 0
0.0357548 -0.901633 0
0 0 0
-0.826417 0.0470144 0
0.0470144 -0.906595 0
0 0 0
-0.98672 0.0229859 0
0.0229859 -0.891804 0
0 0 0
-1.01731 -0.00339613 0
-0.00339613 -0.887409 0
0 0 0
