# vtk DataFile Version 3.0
MPM2D particles
ASCII
DATASET POLYDATA
POINTS 121 double
0.0142324 1.66639e-10 0
0.0423199 6.2034e-11 0
0.06703 2.64243e-11 0
0.0890636 1.25517e-11 0
0.112229 2.41059e-11 0
0.137809 1.8376e-09 0
0.162773 1.23736e-07 0
0.185287 6.9846e-06 0
0.205925 0.000309794 0
0.198819 0.000718034 0
0.188463 0.00022496 0
0.0184116 4.36729e-10 0
0.053622 1.28582e-10 0
0.0745411 6.24029e-11 0
0.0917055 3.46166e-11 0
0.11167 6.57035e-11 0
0.13845 6.14214e-09 0
0.163023 3.94959e-07 0
0.181355 1.08647e-05 0
0.197279 0.00021343 0
0.196536 0.000343745 0
0.191519 0.000232353 0
0.0222033 5.95377e-10 0
0.0620323 1.53823e-10 0
0.0792995 8.48296e-11 0
0.0934841 5.20825e-11 0
0.111286 9.83767e-11 0
0.139014 1.08254e-08 0
0.162861 6.26515e-07 0
0.178054 1.00497e-05 0
0.191062 0.000116507 0
0.19199 0.000180833 0
0.189563 0.000158975 0
0.0233027 6.71047e-10 0
0.064352 1.72669e-10 0
0.0809086 9.93549e-11 0
0.0944245 6.32402e-11 0
0.111786 1.3602e-10 0
0.13942 1.48216e-08 0
0.16222 7.27818e-07 0
0.175115 7.90159e-06 0
0.1861 6.36918e-05 0
0.188469 0.000116442 0
0.187168 0.00011708 0
0.0242227 7.39347e-10 0
0.0661815 1.90608e-10 0
0.0822544 1.13391e-10 0
0.0953262 7.42597e-11 0
0.112471 1.87641e-10 0
0.139649 1.90849e-08 0
0.161243 7.70698e-07 0
0.172051 5.82217e-06 0
0.181199 3.36082e-05 0
0.184951 7.38067e-05 0
0.184939 8.84676e-05 0
0.0251707 8.31581e-10 0
0.0679609 2.16371e-10 0
0.0835984 1.33288e-10 0
0.096258 9.00134e-11 0
0.113145 2.68007e-10 0
0.139349 2.34537e-08 0
0.159547 7.5004e-07 0
0.168368 3.97923e-06 0
0.175838 1.68502e-05 0
0.18024 3.97916e-05 0
0.181991 6.1377e-05 0
0.0258205 9.74356e-10 0
0.0690924 2.58546e-10 0
0.0844083 1.64324e-10 0
0.0967536 1.14168e-10 0
0.113147 3.52318e-10 0
0.13775 2.40359e-08 0
0.15698 6.39369e-07 0
0.164525 2.71047e-06 0
0.171022 9.51254e-06 0
0.175281 2.14432e-05 0
0.178329 3.96591e-05 0
0.0257307 1.17722e-09 0
0.0689623 3.19988e-10 0
0.0842123 2.0696e-10 0
0.0964794 1.46133e-10 0
0.112289 3.91416e-10 0
0.135231 2.0589e-08 0
0.154138 5.1459e-07 0
0.16138 2.02901e-06 0
0.167601 6.68932e-06 0
0.171749 1.46704e-05 0
0.175281 2.89404e-05 0
0.0250289 1.42673e-09 0
0.0678911 3.96908e-10 0
0.0833001 2.57907e-10 0
0.0956659 1.83127e-10 0
0.110963 3.83966e-10 0
0.132641 1.65704e-08 0
0.151484 4.12397e-07 0
0.159074 1.68343e-06 0
0.165368 5.57294e-06 0
0.169598 1.23819e-05 0
0.173325 2.51478e-05 0
0.0242096 1.69712e-09 0
0.0666046 4.8255e-10 0
0.0822037 3.13715e-10 0
0.0946605 2.23473e-10 0
0.109492 3.54452e-10 0
0.130291 1.33495e-08 0
0.148992 3.28686e-07 0
0.157262 1.4501e-06 0
0.163738 5.00454e-06 0
0.168087 1.13464e-05 0
0.17193 2.35044e-05 0
0.0234378 1.98657e-09 0
0.0653158 5.77872e-10 0
0.081057 3.75821e-10 0
0.093527 2.68886e-10 0
0.107887 3.1355e-10 0
0.128053 1.07333e-08 0
0.146531 2.58475e-07 0
0.155568 1.25809e-06 0
0.162297 4.57282e-06 0
0.166737 1.05275e-05 0
0.170613 2.19366e-05 0
VERTICES 121 242
1 0
1 1
1 2
1 3
1 4
1 5
1 6
1 7
1 8
1 9
1 10
1 11
1 12
1 13
1 14
1 15
1 16
1 17
1 18
1 19
1 20
1 21
1 22
1 23
1 24
1 25
1 26
1 27
1 28
1 29
1 30
1 31
1 32
1 33
1 34
1 35
1 36
1 37
1 38
1 39
1 40
1 41
1 42
1 43
1 44
1 45
1 46
1 47
1 48
1 49
1 50
1 51
1 52
1 53
1 54
1 55
1 56
1 57
1 58
1 59
1 60
1 61
1 62
1 63
1 64
1 65
1 66
1 67
1 68
1 69
1 70
1 71
1 72
1 73
1 74
1 75
1 76
1 77
1 78
1 79
1 80
1 81
1 82
1 83
1 84
1 85
1 86
1 87
1 88
1 89
1 90
1 91
1 92
1 93
1 94
1 95
1 96
1 97
1 98
1 99
1 100
1 101
1 102
1 103
1 104
1 105
1 106
1 107
1 108
1 109
1 110
1 111
1 112
1 113
1 114
1 115
1 116
1 117
1 118
1 119
1 120
POINT_DATA 121
VECTORS velocity double
4.60394 6.93606 0
2.33396 4.86485 0
1.05809 3.48772 0
0.768098 2.72636 0
0.515345 2.29087 0
0.39591 2.73334 0
0.186637 2.71268 0
-0.315193 0.890355 0
-0.748812 -0.597692 0
-5.30452 6.18262 0
-8.44337 9.88758 0
3.14453 1.21809 0
0.489264 0.0281973 0
-0.0951355 -0.494696 0
0.194279 -0.88611 0
0.376057 -1.13639 0
0.342687 -0.880871 0
0.263995 -0.912455 0
0.178741 -1.79194 0
0.272015 -2.67212 0
-0.655867 -1.13598 0
-0.972767 -0.263728 0
2.1133 -2.73684 0
-0.683359 -3.13927 0
-0.811854 -3.30406 0
-0.180189 -3.48705 0
0.292439 -3.63141 0
0.334901 -3.55229 0
0.36937 -3.56789 0
0.557111 -3.72794 0
0.863809 -3.94829 0
0.960003 -3.88767 0
1.23826 -3.90514 0
2.09631 -3.37765 0
-0.61456 -3.65176 0
-0.710785 -3.78189 0
-0.11834 -3.92766 0
0.34022 -4.04674 0
0.412927 -4.0331 0
0.456512 -4.04685 0
0.557035 -3.98986 0
0.717638 -3.96602 0
0.537491 -4.06763 0
0.566122 -4.22662 0
2.13564 -3.83177 0
-0.447328 -4.02915 0
-0.536914 -4.11626 0
-0.0264569 -4.21862 0
0.372665 -4.30235 0
0.476965 -4.31603 0
0.523262 -4.32214 0
0.490788 -4.14284 0
0.473997 -3.99674 0
-0.03287 -4.1643 0
-0.26298 -4.44383 0
2.11198 -4.18886 0
-0.330844 -4.35964 0
-0.423854 -4.40555 0
0.0133365 -4.45764 0
0.354866 -4.49301 0
0.484723 -4.49562 0
0.546221 -4.49752 0
0.447749 -4.308 0
0.342169 -4.15212 0
-0.326655 -4.3118 0
-0.806292 -4.59981 0
1.93001 -4.43715 0
-0.3376 -4.62179 0
-0.425249 -4.6322 0
-0.024831 -4.63826 0
0.289016 -4.63302 0
0.426928 -4.61753 0
0.51182 -4.61618 0
0.4151 -4.47501 0
0.297686 -4.34764 0
-0.366485 -4.49467 0
-1.00004 -4.74933 0
1.61435 -4.71052 0
-0.378894 -4.89993 0
-0.448836 -4.88516 0
-0.0815685 -4.85916 0
0.216273 -4.82735 0
0.361341 -4.79193 0
0.454908 -4.75148 0
0.343853 -4.67334 0
0.195538 -4.56126 0
-0.41606 -4.6885 0
-1.06686 -4.91114 0
1.22806 -5.14665 0
-0.404658 -5.3013 0
-0.45666 -5.26911 0
-0.146478 -5.22096 0
0.123754 -5.16937 0
0.278347 -5.11456 0
0.389124 -5.04188 0
0.26206 -5.00186 0
0.0869141 -4.89556 0
-0.479973 -4.9748 0
-1.10621 -5.13303 0
0.838723 -5.91378 0
-0.445102 -5.9894 0
-0.485829 -5.92992 0
-0.247424 -5.85528 0
-0.0148553 -5.77624 0
0.151758 -5.69235 0
0.289956 -5.58367 0
0.176459 -5.55885 0
0.00242175 -5.46459 0
-0.544652 -5.47648 0
-1.16241 -5.53581 0
0.397571 -7.20556 0
-0.550886 -7.17733 0
-0.579988 -7.08824 0
-0.428824 -6.98121 0
-0.248332 -6.83598 0
-0.0632965 -6.7122 0
0.127395 -6.51965 0
0.0548086 -6.49535 0
-0.0825486 -6.4329 0
-0.611134 -6.34739 0
-1.22312 -6.27195 0
SCALARS mass double 1
LOOKUP_TABLE default
2.67769
2.67769
2.67769
2.67769
2.67769
2.67769
2.67769
2.67769
2.67769
2.67769
2.67769
2.67769
2.67769
2.67769
2.67769
2.67769
2.67769
2.67769
2.67769
2.67769
2.67769
2.67769
2.67769
2.67769
2.67769
2.67769
2.67769
2.67769
2.67769
2.67769
2.67769
2.67769
2.67769
2.67769
2.67769
2.67769
2.67769
2.67769
2.67769
2.67769
2.67769
2.67769
2.67769
2.67769
2.67769
2.67769
2.67769
2.67769
2.67769
2.67769
2.67769
2.67769
2.67769
2.67769
2.67769
2.67769
2.67769
2.67769
2.67769
2.67769
2.67769
2.67769
2.67769
2.67769
2.67769
2.67769
2.67769
2.67769
2.67769
2.67769
2.67769
2.67769
2.67769
2.67769
2.67769
2.67769
2.67769
2.67769
2.67769
2.67769
2.67769
2.67769
2.67769
2.67769
2.67769
2.67769
2.67769
2.67769
2.67769
2.67769
2.67769
2.67769
2.67769
2.67769
2.67769
2.67769
2.67769
2.67769
2.67769
2.67769
2.67769
2.67769
2.67769
2.67769
2.67769
2.67769
2.67769
2.67769
2.67769
2.67769
2.67769
2.67769
2.67769
2.67769
2.67769
2.67769
2.67769
2.67769
2.67769
2.67769
2.67769
SCALARS volume double 1
LOOKUP_TABLE default
1.1312e-11
4.17349e-12
1.38746e-12
6.62383e-13
1.46834e-12
1.11887e-10
6.73595e-09
3.77862e-07
1.20567e-05
7.96263e-06
1.1618e-06
1.28335e-11
3.52095e-12
8.52251e-13
4.79172e-13
1.39789e-12
1.30518e-10
5.9923e-09
1.62425e-07
1.7921e-06
9.3025e-07
3.3058e-07
5.8494e-12
1.17217e-12
3.50799e-13
2.33637e-13
8.96686e-13
1.00862e-10
3.51661e-09
5.9242e-08
3.80197e-07
1.81e-07
6.28912e-08
5.05163e-12
9.18064e-13
2.9227e-13
2.04472e-13
9.55702e-13
1.08923e-10
2.82454e-09
3.13576e-08
1.64833e-07
1.00179e-07
3.84443e-08
5.52858e-12
9.32723e-13
3.11891e-13
2.26345e-13
1.28897e-12
1.38022e-10
2.59268e-09
1.95848e-08
7.84401e-08
7.68579e-08
3.13017e-08
8.24899e-12
1.26434e-12
4.42168e-13
3.26395e-13
2.2126e-12
2.07197e-10
2.64287e-09
1.32989e-08
3.80922e-08
5.99423e-08
3.96504e-08
1.12154e-11
1.57527e-12
5.53577e-13
4.14062e-13
2.78607e-12
2.03819e-10
1.97896e-09
7.47918e-09
1.76755e-08
3.17088e-08
3.37698e-08
1.32028e-11
1.78046e-12
6.29032e-13
4.61725e-13
2.51503e-12
1.39611e-10
1.32798e-09
4.39343e-09
9.77143e-09
1.72709e-08
2.50264e-08
1.36457e-11
1.89983e-12
6.62274e-13
4.82383e-13
1.8998e-12
8.49958e-11
9.38372e-10
2.91103e-09
6.65027e-09
1.19309e-08
2.00704e-08
1.3832e-11
2.13289e-12
7.08176e-13
5.20594e-13
1.46785e-12
5.67156e-11
7.53087e-10
2.24002e-09
5.4559e-09
9.736e-09
1.78307e-08
1.42783e-11
2.39376e-12
7.8363e-13
5.70072e-13
1.15966e-12
2.19406e-11
5.92307e-10
1.86984e-09
4.67552e-09
8.54507e-09
1.60158e-08
TENSORS stress double
5076.67 38535.7 0
38535.7 1850.04 0
0 0 0
5076.67 120726 0
120726 1517.54 0
0 0 0
5076.67 116374 0
116374 1076.3 0
0 0 0
5076.67 56443.1 0
56443.1 587.891 0
0 0 0
5076.67 -10062.1 0
-10062.1 1265.03 0
0 0 0
5076.67 -97538.9 0
-97538.9 5070.15 0
0 0 0
5076.67 -180720 0
-180720 8321.21 0
0 0 0
5076.57 -256179 0
-256179 9535.94 0
0 0 0
5071.87 -313628 0
-313628 10639.3 0
0 0 0
5065.5 -265154 0
-265154 10241.8 0
0 0 0
5073.15 -219418 0
-219418 9699.83 0
0 0 0
5076.67 43617.7 0
43617.7 1800.56 0
0 0 0
5076.67 141444 0
141444 1373.51 0
0 0 0
5076.67 94767.1 0
94767.1 909.806 0
0 0 0
5076.67 46649.6 0
46649.6 529.328 0
0 0 0
5076.67 -9161.09 0
-9161.09 1181.88 0
0 0 0
5076.67 -100797 0
-100797 5165.42 0
0 0 0
5076.67 -179261 0
-179261 8334.69 0
0 0 0
5076.5 -241701 0
-241701 9323.61 0
0 0 0
5073.35 -282731 0
-282731 10176 0
0 0 0
5071.32 -225492 0
-225492 10131.5 0
0 0 0
5073.04 -193529 0
-193529 9864.51 0
0 0 0
5076.67 46427.2 0
46427.2 1755.68 0
0 0 0
5076.67 113643 0
113643 1187.08 0
0 0 0
5076.67 73589.9 0
73589.9 804.328 0
0 0 0
5076.67 38263.3 0
38263.3 489.904 0
0 0 0
5076.67 -6849.16 0
-6849.16 1124.66 0
0 0 0
5076.67 -103666 0
-103666 5249.34 0
0 0 0
5076.67 -177570 0
-177570 8325.96 0
0 0 0
5076.52 -230505 0
-230505 9145.49 0
0 0 0
5074.85 -264102 0
-264102 9843.83 0
0 0 0
5073.85 -209978 0
-209978 9891.69 0
0 0 0
5074.19 -161002 0
-161002 9761.46 0
0 0 0
5076.67 49737.5 0
49737.5 1742.66 0
0 0 0
5076.67 107410 0
107410 1135.66 0
0 0 0
5076.67 69522.8 0
69522.8 768.66 0
0 0 0
5076.67 37274.8 0
37274.8 469.058 0
0 0 0
5076.67 -6707.77 0
-6707.77 1199.15 0
0 0 0
5076.67 -105073 0
-105073 5309.8 0
0 0 0
5076.66 -172801 0
-172801 8291.33 0
0 0 0
5076.55 -219062 0
-219062 8987 0
0 0 0
5075.68 -256343 0
-256343 9577.86 0
0 0 0
5074.85 -214514 0
-214514 9703.91 0
0 0 0
5074.84 -163783 0
-163783 9633.63 0
0 0 0
5076.67 53489.7 0
53489.7 1731.77 0
0 0 0
5076.67 103509 0
103509 1095.11 0
0 0 0
5076.67 67160.4 0
67160.4 738.828 0
0 0 0
5076.67 36746.3 0
36746.3 449.071 0
0 0 0
5076.67 -7793.08 0
-7793.08 1300.99 0
0 0 0
5076.67 -105798 0
-105798 5343.9 0
0 0 0
5076.66 -166778 0
-166778 8238.62 0
0 0 0
5076.58 -205791 0
-205791 8821.69 0
0 0 0
5076.15 -241172 0
-241172 9314.4 0
0 0 0
5075.52 -225433 0
-225433 9515.49 0
0 0 0
5075.29 -168240 0
-168240 9514.36 0
0 0 0
5076.67 57034.5 0
57034.5 1720.55 0
0 0 0
5076.67 98889.3 0
98889.3 1055.67 0
0 0 0
5076.67 63569.4 0
63569.4 709.036 0
0 0 0
5076.67 35580.6 0
35580.6 428.415 0
0 0 0
5076.67 -9289.68 0
-9289.68 1401.23 0
0 0 0
5076.67 -105113 0
-105113 5299.2 0
0 0 0
5076.66 -159210 0
-159210 8147.09 0
0 0 0
5076.61 -188436 0
-188436 8622.99 0
0 0 0
5076.41 -215601 0
-215601 9025.67 0
0 0 0
5076.05 -224658 0
-224658 9262.47 0
0 0 0
5075.71 -185135 0
-185135 9356.2 0
0 0 0
5076.67 58895.1 0
58895.1 1712.86 0
0 0 0
5076.67 92952.5 0
92952.5 1030.59 0
0 0 0
5076.67 60015.2 0
60015.2 691.082 0
0 0 0
5076.67 34550.4 0
34550.4 417.431 0
0 0 0
5076.67 -8497.42 0
-8497.42 1401.57 0
0 0 0
5076.67 -99211 0
-99211 5061.38 0
0 0 0
5076.63 -150419 0
-150419 7921.84 0
0 0 0
5076.63 -170539 0
-170539 8415.65 0
0 0 0
5076.52 -190119 0
-190119 8766.04 0
0 0 0
5076.34 -206070 0
-206070 8995.48 0
0 0 0
5076.05 -186969 0
-186969 9159.34 0
0 0 0
5076.67 57990.5 0
57990.5 1713.92 0
0 0 0
5076.67 89987.1 0
89987.1 1033.47 0
0 0 0
5076.67 58488.3 0
58488.3 695.427 0
0 0 0
5076.67 34937.6 0
34937.6 423.509 0
0 0 0
5076.67 -4256.73 0
-4256.73 1273.9 0
0 0 0
5076.67 -88451.6 0
-88451.6 4686.6 0
0 0 0
5076.64 -143725 0
-143725 7499.12 0
0 0 0
5076.64 -155754 0
-155754 8245.96 0
0 0 0
5076.57 -171479 0
-171479 8581.51 0
0 0 0
5076.44 -185374 0
-185374 8805.08 0
0 0 0
5076.22 -179491 0
-179491 8995.22 0
0 0 0
5076.67 55439.4 0
55439.4 1722.23 0
0 0 0
5076.67 89813.3 0
89813.3 1057.21 0
0 0 0
5076.67 59571.5 0
59571.5 715.649 0
0 0 0
5076.67 36500.5 0
36500.5 441.54 0
0 0 0
5076.67 1862.4 0
1862.4 1076.66 0
0 0 0
5076.67 -76725.2 0
-76725.2 4301.37 0
0 0 0
5076.65 -138476 0
-138476 7104.38 0
0 0 0
5076.65 -145622 0
-145622 8121.55 0
0 0 0
5076.59 -159768 0
-159768 8461.04 0
0 0 0
5076.48 -171658 0
-171658 8689.11 0
0 0 0
5076.28 -174030 0
-174030 8889.76 0
0 0 0
5076.67 53365.5 0
53365.5 1731.93 0
0 0 0
5076.67 91000.8 0
91000.8 1085.73 0
0 0 0
5076.67 62282.5 0
62282.5 739.952 0
0 0 0
5076.67 38649.5 0
38649.5 463.827 0
0 0 0
5076.67 8419.24 0
8419.24 857.867 0
0 0 0
5076.67 -66068.8 0
-66068.8 3951.86 0
0 0 0
5076.65 -134904 0
-134904 6733.69 0
0 0 0
5076.58 -138886 0
-138886 7963.8 0
0 0 0
5076.6 -152011 0
-152011 8373.13 0
0 0 0
5076.5 -164254 0
-164254 8607.57 0
0 0 0
5076.3 -172486 0
-172486 8814.58 0
0 0 0
5076.67 51331.6 0
51331.6 1741.06 0
0 0 0
5076.67 91911 0
91911 1114.3 0
0 0 0
5076.67 63272.2 0
63272.2 765.369 0
0 0 0
5076.67 40253.8 0
40253.8 488.953 0
0 0 0
5076.67 14906.1 0
14906.1 619.104 0
0 0 0
5076.67 -57662.3 0
-57662.3 3618.89 0
0 0 0
5076.66 -126146 0
-126146 6367.53 0
0 0 0
5076.59 -134978 0
-134978 7711.82 0
0 0 0
5076.6 -146381 0
-146381 8295.33 0
0 0 0
5076.51 -158225 0
-158225 8534.78 0
0 0 0
5076.33 -168554 0
-168554 8743.51 0
0 0 0
TENSORS strain double
0.129853 0.385357 0
0.385357 -17.5575 0
0 0 0
0.120967 1.20726 0
1.20726 -18.4875 0
0 0 0
-0.123147 1.16374 0
1.16374 -19.2862 0
0 0 0
-0.118155 0.564431 0
0.564431 -19.9791 0
0 0 0
0.0234034 -0.100621 0
-0.100621 -19.3846 0
0 0 0
0.0229906 -0.975389 0
-0.975389 -15.3338 0
0 0 0
-0.0868231 -1.8072 0
-1.8072 -11.3025 0
0 0 0
-0.0931036 -2.56179 0
-2.56179 -7.39032 0
0 0 0
-0.418778 -3.13628 0
-3.13628 -3.65703 0
0 0 0
-1.65687 -2.65154 0
-2.65154 -2.82285 0
0 0 0
-2.40675 -2.19418 0
-2.19418 -3.94272 0
0 0 0
0.387777 0.436177 0
0.436177 -17.6843 0
0 0 0
0.319544 1.41444 0
1.41444 -18.8331 0
0 0 0
-0.367003 0.947671 0
0.947671 -19.5083 0
0 0 0
-0.353705 0.466496 0
0.466496 -20.057 0
0 0 0
0.070227 -0.0916109 0
-0.0916109 -19.4731 0
0 0 0
0.0689421 -1.00797 0
-1.00797 -15.2314 0
0 0 0
-0.261315 -1.79261 0
-1.79261 -11.2429 0
0 0 0
-0.276165 -2.41701 0
-2.41701 -8.03203 0
0 0 0
-0.847931 -2.82731 0
-2.82731 -5.11319 0
0 0 0
-1.94947 -2.25492 0
-2.25492 -4.64389 0
0 0 0
-2.57166 -1.93529 0
-1.93529 -5.02645 0
0 0 0
0.575677 0.464272 0
0.464272 -18.6488 0
0 0 0
0.14753 1.13643 0
1.13643 -19.7306 0
0 0 0
-0.554406 0.735899 0
0.735899 -20.1876 0
0 0 0
-0.53901 0.382633 0
0.382633 -20.5768 0
0 0 0
0.105981 -0.0684916 0
-0.0684916 -19.9454 0
0 0 0
0.104174 -1.03666 0
-1.03666 -15.5273 0
0 0 0
-0.422398 -1.7757 0
-1.7757 -11.6074 0
0 0 0
-0.444325 -2.30505 0
-2.30505 -8.85192 0
0 0 0
-1.07807 -2.64102 0
-2.64102 -6.4073 0
0 0 0
-2.01111 -2.09978 0
-2.09978 -6.19409 0
0 0 0
-2.58301 -1.61002 0
-1.61002 -6.64345 0
0 0 0
0.624235 0.497375 0
0.497375 -18.8415 0
0 0 0
0.0908804 1.0741 0
1.0741 -19.9102 0
0 0 0
-0.604422 0.695228 0
0.695228 -20.313 0
0 0 0
-0.592859 0.372748 0
0.372748 -20.6512 0
0 0 0
0.102789 -0.0670777 0
-0.0670777 -19.8848 0
0 0 0
0.101482 -1.05073 0
-1.05073 -15.4511 0
0 0 0
-0.560623 -1.72801 0
-1.72801 -11.6811 0
0 0 0
-0.592504 -2.19062 0
-2.19062 -9.32221 0
0 0 0
-1.06233 -2.56343 0
-2.56343 -7.24105 0
0 0 0
-1.90372 -2.14514 0
-2.14514 -6.88245 0
0 0 0
-2.47821 -1.63783 0
-1.63783 -7.22901 0
0 0 0
0.663164 0.534897 0
0.534897 -18.7891 0
0 0 0
0.0443083 1.03509 0
1.03509 -19.842 0
0 0 0
-0.641268 0.671604 0
0.671604 -20.2074 0
0 0 0
-0.633226 0.367463 0
0.367463 -20.5069 0
0 0 0
0.0862955 -0.0779308 0
-0.0779308 -19.5791 0
0 0 0
0.0849987 -1.05798 0
-1.05798 -15.2009 0
0 0 0
-0.709098 -1.66778 0
-1.66778 -11.6104 0
0 0 0
-0.750136 -2.05791 0
-2.05791 -9.6174 0
0 0 0
-1.13273 -2.41172 0
-2.41172 -7.89301 0
0 0 0
-1.73511 -2.25433 0
-2.25433 -7.31166 0
0 0 0
-2.38645 -1.6824 0
-1.6824 -7.51922 0
0 0 0
0.701787 0.570345 0
0.570345 -18.4282 0
0 0 0
-0.011337 0.988893 0
0.988893 -19.4777 0
0 0 0
-0.677616 0.635694 0
0.635694 -19.8221 0
0 0 0
-0.674014 0.355806 0
0.355806 -20.1011 0
0 0 0
0.0511967 -0.0928968 0
-0.0928968 -19.0153 0
0 0 0
0.0487197 -1.05113 0
-1.05113 -14.7589 0
0 0 0
-0.882832 -1.5921 0
-1.5921 -11.4074 0
0 0 0
-0.928506 -1.88436 0
-1.88436 -9.80578 0
0 0 0
-1.28389 -2.15601 0
-2.15601 -8.43982 0
0 0 0
-1.59666 -2.24658 0
-2.24658 -7.6899 0
0 0 0
-2.10661 -1.85135 0
-1.85135 -7.57479 0
0 0 0
0.727448 0.588951 0
0.588951 -18.1483 0
0 0 0
-0.034854 0.929525 0
0.929525 -19.2317 0
0 0 0
-0.70429 0.600152 0
0.600152 -19.571 0
0 0 0
-0.704363 0.345504 0
0.345504 -19.834 0
0 0 0
-0.00697121 -0.0849742 0
-0.0849742 -18.7288 0
0 0 0
-0.0123879 -0.99211 0
-0.99211 -14.703 0
0 0 0
-1.01538 -1.50419 0
-1.50419 -11.5478 0
0 0 0
-1.06863 -1.70539 0
-1.70539 -10.2171 0
0 0 0
-1.39943 -1.90119 0
-1.90119 -9.06513 0
0 0 0
-1.58476 -2.0607 0
-2.0607 -8.31731 0
0 0 0
-1.91851 -1.86969 0
-1.86969 -7.92025 0
0 0 0
0.723962 0.579905 0
0.579905 -17.9849 0
0 0 0
-0.0447554 0.899871 0
0.899871 -19.1006 0
0 0 0
-0.708174 0.584883 0
0.584883 -19.4415 0
0 0 0
-0.709818 0.349376 0
0.349376 -19.7216 0
0 0 0
-0.0695889 -0.0425673 0
-0.0425673 -18.759 0
0 0 0
-0.078111 -0.884516 0
-0.884516 -14.995 0
0 0 0
-1.02519 -1.43725 0
-1.43725 -11.9225 0
0 0 0
-1.12894 -1.55754 0
-1.55754 -10.6681 0
0 0 0
-1.4285 -1.71479 0
-1.71479 -9.60754 0
0 0 0
-1.60282 -1.85374 0
-1.85374 -8.88612 0
0 0 0
-1.79301 -1.79491 0
-1.79491 -8.33531 0
0 0 0
0.696173 0.554394 0
0.554394 -17.9283 0
0 0 0
-0.0317138 0.898133 0
0.898133 -19.0538 0
0 0 0
-0.696878 0.595715 0
0.595715 -19.4047 0
0 0 0
-0.699304 0.365005 0
0.365005 -19.6916 0
0 0 0
-0.119766 0.018624 0
0.018624 -18.9729 0
0 0 0
-0.13028 -0.767252 0
-0.767252 -15.4158 0
0 0 0
-0.948685 -1.38476 0
-1.38476 -12.3355 0
0 0 0
-1.12965 -1.45622 0
-1.45622 -11.0636 0
0 0 0
-1.40374 -1.59768 0
-1.59768 -10.0035 0
0 0 0
-1.57604 -1.71658 0
-1.71658 -9.27009 0
0 0 0
-1.6814 -1.7403 0
-1.7403 -8.66032 0
0 0 0
0.662719 0.533655 0
0.533655 -17.885 0
0 0 0
0.00308114 0.910008 0
0.910008 -18.9795 0
0 0 0
-0.686538 0.622825 0
0.622825 -19.3516 0
0 0 0
-0.689545 0.386495 0
0.386495 -19.6292 0
0 0 0
-0.155684 0.0841924 0
0.0841924 -19.1763 0
0 0 0
-0.167488 -0.660688 0
-0.660688 -15.7615 0
0 0 0
-0.803871 -1.34904 0
-1.34904 -12.6905 0
0 0 0
-1.10245 -1.38886 0
-1.38886 -11.3424 0
0 0 0
-1.36498 -1.52011 0
-1.52011 -10.2321 0
0 0 0
-1.54535 -1.64254 0
-1.64254 -9.49635 0
0 0 0
-1.61666 -1.72486 0
-1.72486 -8.83905 0
0 0 0
0.630158 0.513316 0
0.513316 -17.8239 0
0 0 0
0.0332664 0.91911 0
0.91911 -18.9002 0
0 0 0
-0.681232 0.632722 0
0.632722 -19.2604 0
0 0 0
-0.683716 0.402538 0
0.402538 -19.5485 0
0 0 0
-0.180891 0.149061 0
0.149061 -19.3659 0
0 0 0
-0.193533 -0.576623 0
-0.576623 -16.5001 0
0 0 0
-0.702663 -1.26146 0
-1.26146 -13.0187 0
0 0 0
-1.05224 -1.34978 0
-1.34978 -11.5663 0
0 0 0
-1.33599 -1.46381 0
-1.46381 -10.4083 0
0 0 0
-1.5252 -1.58225 0
-1.58225 -9.64122 0
0 0 0
-1.58422 -1.68554 0
-1.68554 -8.97471 0
0 0 0
