# vtk DataFile Version 3.0
MPM2D particles
ASCII
DATASET POLYDATA
POINTS 121 double
0.0142324 4.53286e-12 0
0.0423199 1.46043e-12 0
0.06703 5.03428e-13 0
0.0890636 1.87404e-13 0
0.112229 4.9367e-13 0
0.137809 2.21111e-10 0
0.162773 6.25687e-08 0
0.185283 5.54061e-06 0
0.205742 0.000369042 0
0.198407 0.000741778 0
0.188339 0.000189845 0
0.0184116 1.16275e-11 0
0.053622 2.83932e-12 0
0.0745411 1.09427e-12 0
0.0917055 5.01911e-13 0
0.11167 1.29333e-12 0
0.13845 7.71797e-10 0
0.163023 2.00723e-07 0
0.181349 7.96938e-06 0
0.197157 0.000214503 0
0.196341 0.000340181 0
0.19139 0.000208332 0
0.0222033 1.55455e-11 0
0.0620323 3.09652e-12 0
0.0792995 1.41128e-12 0
0.0934841 7.4038e-13 0
0.111286 1.88439e-12 0
0.139014 1.41317e-09 0
0.162861 3.17368e-07 0
0.178048 6.9019e-06 0
0.190997 0.000103588 0
0.191889 0.000163707 0
0.189475 0.000137173 0
0.0233027 1.74225e-11 0
0.064352 3.38821e-12 0
0.0809086 1.62376e-12 0
0.0944245 8.89645e-13 0
0.111786 2.69956e-12 0
0.13942 1.98869e-09 0
0.162219 3.63956e-07 0
0.175111 5.11734e-06 0
0.186065 5.13313e-05 0
0.188405 9.83388e-05 0
0.187103 9.63531e-05 0
0.0242227 1.91053e-11 0
0.0661815 3.66554e-12 0
0.0822544 1.82575e-12 0
0.0953262 1.03425e-12 0
0.112471 3.90904e-12 0
0.139649 2.60066e-09 0
0.161243 3.77897e-07 0
0.172048 3.54645e-06 0
0.181181 2.45724e-05 0
0.184911 5.81358e-05 0
0.184891 6.96621e-05 0
0.0251707 2.13842e-11 0
0.0679609 4.08012e-12 0
0.0835984 2.11439e-12 0
0.096258 1.24074e-12 0
0.113145 5.85574e-12 0
0.139349 3.1318e-09 0
0.159547 3.55418e-07 0
0.168366 2.25142e-06 0
0.175829 1.10709e-05 0
0.180219 2.85418e-05 0
0.181958 4.55824e-05 0
0.0258205 2.49721e-11 0
0.0690924 4.81494e-12 0
0.0844083 2.58344e-12 0
0.0967536 1.56504e-12 0
0.113147 7.6991e-12 0
0.13775 2.88062e-09 0
0.15698 2.75995e-07 0
0.164523 1.41969e-06 0
0.171017 5.67606e-06 0
0.17527 1.39324e-05 0
0.178309 2.73828e-05 0
0.0257307 3.01853e-11 0
0.0689623 5.96775e-12 0
0.0842123 3.26082e-12 0
0.0964794 2.00934e-12 0
0.112289 8.04975e-12 0
0.135231 2.07971e-09 0
0.154138 1.84282e-07 0
0.161379 9.97621e-07 0
0.167597 3.72692e-06 0
0.171741 8.88181e-06 0
0.175266 1.88028e-05 0
0.0250289 3.67153e-11 0
0.0678911 7.49028e-12 0
0.0833001 4.10482e-12 0
0.0956659 2.54088e-12 0
0.110963 7.18842e-12 0
0.132641 1.40294e-09 0
0.151484 1.23948e-07 0
0.159074 7.90153e-07 0
0.165365 2.96883e-06 0
0.169592 7.18028e-06 0
0.173312 1.57121e-05 0
0.0242096 4.38577e-11 0
0.0666046 9.23663e-12 0
0.0822037 5.05405e-12 0
0.0946605 3.13553e-12 0
0.109492 5.97753e-12 0
0.130291 9.62334e-10 0
0.148992 8.374e-08 0
0.157261 6.37645e-07 0
0.163736 2.58014e-06 0
0.168081 6.38335e-06 0
0.171918 1.42814e-05 0
0.0234378 5.1542e-11 0
0.0653158 1.12195e-11 0
0.081057 6.13196e-12 0
0.093527 3.82052e-12 0
0.107887 4.71648e-12 0
0.128053 6.6342e-10 0
0.146531 5.58963e-08 0
0.155568 4.94995e-07 0
0.162294 2.29019e-06 0
0.166732 5.76444e-06 0
0.170601 1.29816e-05 0
VERTICES 121 242
1 0
1 1
1 2
1 3
1 4
1 5
1 6
1 7
1 8
1 9
1 10
1 11
1 12
1 13
1 14
1 15
1 16
1 17
1 18
1 19
1 20
1 21
1 22
1 23
1 24
1 25
1 26
1 27
1 28
1 29
1 30
1 31
1 32
1 33
1 34
1 35
1 36
1 37
1 38
1 39
1 40
1 41
1 42
1 43
1 44
1 45
1 46
1 47
1 48
1 49
1 50
1 51
1 52
1 53
1 54
1 55
1 56
1 57
1 58
1 59
1 60
1 61
1 62
1 63
1 64
1 65
1 66
1 67
1 68
1 69
1 70
1 71
1 72
1 73
1 74
1 75
1 76
1 77
1 78
1 79
1 80
1 81
1 82
1 83
1 84
1 85
1 86
1 87
1 88
1 89
1 90
1 91
1 92
1 93
1 94
1 95
1 96
1 97
1 98
1 99
1 100
1 101
1 102
1 103
1 104
1 105
1 106
1 107
1 108
1 109
1 110
1 111
1 112
1 113
1 114
1 115
1 116
1 117
1 118
1 119
1 120
POINT_DATA 121
VECTORS velocity double
4.46062 6.5638 0
2.19064 4.49258 0
0.966571 3.11546 0
0.755852 2.35409 0
0.552455 1.91225 0
0.400238 2.33143 0
0.165669 2.30924 0
-0.330545 0.564065 0
-0.496862 -0.861045 0
-4.79123 5.8849 0
-8.33138 9.56701 0
3.00121 0.845825 0
0.349506 -0.344066 0
-0.15963 -0.866963 0
0.191539 -1.25838 0
0.413884 -1.51449 0
0.346194 -1.28335 0
0.243127 -1.31504 0
0.164594 -2.13182 0
0.406814 -2.96239 0
-0.432138 -1.43202 0
-0.8459 -0.574071 0
1.96997 -3.10911 0
-0.792858 -3.51154 0
-0.859229 -3.67632 0
-0.17653 -3.85932 0
0.330758 -4.00917 0
0.337686 -3.95528 0
0.348554 -3.97103 0
0.541884 -4.07913 0
0.917375 -4.2574 0
1.05597 -4.19516 0
1.3145 -4.22038 0
1.95299 -3.74991 0
-0.715713 -4.02403 0
-0.752371 -4.15416 0
-0.111298 -4.29993 0
0.377898 -4.42495 0
0.415192 -4.43647 0
0.435668 -4.4522 0
0.540332 -4.35108 0
0.733583 -4.29085 0
0.586425 -4.3856 0
0.613181 -4.54905 0
1.99231 -4.20404 0
-0.541899 -4.40141 0
-0.573658 -4.48852 0
-0.0161705 -4.59089 0
0.409465 -4.68119 0
0.478937 -4.71961 0
0.50234 -4.73085 0
0.472772 -4.51454 0
0.470855 -4.33767 0
-0.0126114 -4.49331 0
-0.234914 -4.77321 0
1.96866 -4.56112 0
-0.419013 -4.73191 0
-0.455763 -4.77782 0
0.0269754 -4.82991 0
0.390803 -4.87246 0
0.48708 -4.89892 0
0.525141 -4.91205 0
0.428572 -4.69231 0
0.329361 -4.51107 0
-0.327351 -4.65616 0
-0.79528 -4.93867 0
1.78668 -4.80941 0
-0.421698 -4.99406 0
-0.454243 -5.00447 0
-0.0094092 -5.01053 0
0.32495 -5.01247 0
0.431334 -5.01938 0
0.49173 -5.03555 0
0.395067 -4.87249 0
0.280879 -4.72296 0
-0.377541 -4.85563 0
-1.00188 -5.10024 0
1.47103 -5.08279 0
-0.46346 -5.2722 0
-0.478535 -5.25743 0
-0.0671332 -5.23143 0
0.253307 -5.20601 0
0.368975 -5.19149 0
0.438417 -5.16825 0
0.32329 -5.0816 0
0.17717 -4.94826 0
-0.430793 -5.06143 0
-1.07481 -5.27226 0
1.08474 -5.51891 0
-0.493078 -5.67357 0
-0.489642 -5.64138 0
-0.134969 -5.59324 0
0.162487 -5.54683 0
0.289299 -5.51176 0
0.376003 -5.45623 0
0.241173 -5.41803 0
0.0678645 -5.29021 0
-0.496026 -5.35506 0
-1.11644 -5.50078 0
0.695402 -6.28604 0
-0.538151 -6.36166 0
-0.522755 -6.30218 0
-0.239532 -6.22755 0
0.0257629 -6.15236 0
0.165721 -6.08741 0
0.280007 -5.99575 0
0.156201 -5.97848 0
-0.0170189 -5.86482 0
-0.561373 -5.86191 0
-1.17376 -5.90831 0
0.254249 -7.57783 0
-0.648572 -7.54959 0
-0.621039 -7.46051 0
-0.425011 -7.35348 0
-0.205656 -7.21064 0
-0.0464648 -7.10522 0
0.120585 -6.92949 0
0.0366563 -6.91344 0
-0.102299 -6.83807 0
-0.628386 -6.73744 0
-1.23548 -6.64894 0
SCALARS mass double 1
LOOKUP_TABLE default
2.67769
2.67769
2.67769
2.67769
2.67769
2.67769
2.67769
2.67769
2.67769
2.67769
2.67769
2.67769
2.67769
2.67769
2.67769
2.67769
2.67769
2.67769
2.67769
2.67769
2.67769
2.67769
2.67769
2.67769
2.67769
2.67769
2.67769
2.67769
2.67769
2.67769
2.67769
2.67769
2.67769
2.67769
2.67769
2.67769
2.67769
2.67769
2.67769
2.67769
2.67769
2.67769
2.67769
2.67769
2.67769
2.67769
2.67769
2.67769
2.67769
2.67769
2.67769
2.67769
2.67769
2.67769
2.67769
2.67769
2.67769
2.67769
2.67769
2.67769
2.67769
2.67769
2.67769
2.67769
2.67769
2.67769
2.67769
2.67769
2.67769
2.67769
2.67769
2.67769
2.67769
2.67769
2.67769
2.67769
2.67769
2.67769
2.67769
2.67769
2.67769
2.67769
2.67769
2.67769
2.67769
2.67769
2.67769
2.67769
2.67769
2.67769
2.67769
2.67769
2.67769
2.67769
2.67769
2.67769
2.67769
2.67769
2.67769
2.67769
2.67769
2.67769
2.67769
2.67769
2.67769
2.67769
2.67769
2.67769
2.67769
2.67769
2.67769
2.67769
2.67769
2.67769
2.67769
2.67769
2.67769
2.67769
2.67769
2.67769
2.67769
SCALARS volume double 1
LOOKUP_TABLE default
3.07704e-13
9.82542e-14
2.64336e-14
9.88979e-15
3.00703e-14
1.34629e-11
3.40612e-09
2.99748e-07
1.43773e-05
8.24394e-06
9.81045e-07
3.4168e-13
7.77488e-14
1.49447e-14
6.94756e-15
2.75165e-14
1.64004e-11
3.04536e-09
1.19144e-07
1.80226e-06
9.21545e-07
2.96598e-07
1.5273e-13
2.35963e-14
5.83613e-15
3.32126e-15
1.71759e-14
1.31667e-11
1.78138e-09
4.0687e-08
3.38148e-07
1.63942e-07
5.42896e-08
1.31157e-13
1.80148e-14
4.77658e-15
2.87646e-15
1.89677e-14
1.46148e-11
1.41246e-09
2.03086e-08
1.32867e-07
8.46305e-08
3.16482e-08
1.42862e-13
1.7937e-14
5.02185e-15
3.15241e-15
2.68526e-14
1.8808e-11
1.27127e-09
1.19298e-08
5.73558e-08
6.05508e-08
2.46536e-08
2.12123e-13
2.38418e-14
7.01426e-15
4.49901e-15
4.83434e-14
2.76672e-11
1.25237e-09
7.52448e-09
2.50284e-08
4.29998e-08
2.94514e-08
2.87443e-13
2.93365e-14
8.70313e-15
5.67604e-15
6.08832e-14
2.4427e-11
8.54247e-10
3.91748e-09
1.05471e-08
2.06034e-08
2.33187e-08
3.38535e-13
3.32053e-14
9.91089e-15
6.34873e-15
5.17234e-14
1.41023e-11
4.75566e-10
2.16017e-09
5.44419e-09
1.04566e-08
1.6261e-08
3.51156e-13
3.58529e-14
1.05407e-14
6.69304e-15
3.5567e-14
7.19622e-12
2.8203e-10
1.36636e-09
3.54278e-09
6.91897e-09
1.25405e-08
3.57452e-13
4.08262e-14
1.14089e-14
7.3044e-15
2.4754e-14
4.08848e-12
1.91865e-10
9.84974e-10
2.81288e-09
5.47751e-09
1.08345e-08
3.70454e-13
4.64753e-14
1.27858e-14
8.1e-15
1.74439e-14
1.35614e-12
1.28089e-10
7.35677e-10
2.34165e-09
4.67906e-09
9.47828e-09
TENSORS stress double
5076.67 43527.8 0
43527.8 1238.19 0
0 0 0
5076.67 135570 0
135570 911.43 0
0 0 0
5076.67 133652 0
133652 396.089 0
0 0 0
5076.67 71912.4 0
71912.4 -208.953 0
0 0 0
5076.67 -2332.77 0
-2332.77 536.552 0
0 0 0
5076.67 -113346 0
-113346 4907.59 0
0 0 0
5076.67 -214283 0
-214283 8561.45 0
0 0 0
5076.65 -286384 0
-286384 9584.29 0
0 0 0
5074.74 -340448 0
-340448 10501.5 0
0 0 0
5072.78 -292666 0
-292666 10155.1 0
0 0 0
5075.67 -248962 0
-248962 9716.74 0
0 0 0
5076.67 50075.6 0
50075.6 1189.57 0
0 0 0
5076.67 159823 0
159823 764.269 0
0 0 0
5076.67 111429 0
111429 189.834 0
0 0 0
5076.67 61901.9 0
61901.9 -281.501 0
0 0 0
5076.67 -917.358 0
-917.358 441.028 0
0 0 0
5076.67 -117194 0
-117194 5017.03 0
0 0 0
5076.67 -212786 0
-212786 8572.81 0
0 0 0
5076.63 -272488 0
-272488 9405.4 0
0 0 0
5075.55 -310956 0
-310956 10116.7 0
0 0 0
5074.89 -253707 0
-253707 10075.2 0
0 0 0
5075.58 -222606 0
-222606 9854.73 0
0 0 0
5076.67 54215.1 0
54215.1 1145.46 0
0 0 0
5076.67 131332 0
131332 533.323 0
0 0 0
5076.67 89860.9 0
89860.9 59.1687 0
0 0 0
5076.67 53369.6 0
53369.6 -330.339 0
0 0 0
5076.67 1748.47 0
1748.47 375.305 0
0 0 0
5076.67 -120582 0
-120582 5113.43 0
0 0 0
5076.67 -211119 0
-211119 8565.45 0
0 0 0
5076.64 -261784 0
-261784 9255.43 0
0 0 0
5076.13 -293350 0
-293350 9840.56 0
0 0 0
5075.81 -239030 0
-239030 9878.99 0
0 0 0
5075.95 -190438 0
-190438 9770.2 0
0 0 0
5076.67 57911 0
57911 1132.67 0
0 0 0
5076.67 124908 0
124908 469.625 0
0 0 0
5076.67 85661.6 0
85661.6 14.9829 0
0 0 0
5076.67 52303.9 0
52303.9 -356.163 0
0 0 0
5076.67 1429.14 0
1429.14 460.867 0
0 0 0
5076.67 -122363 0
-122363 5182.88 0
0 0 0
5076.67 -206445 0
-206445 8536.29 0
0 0 0
5076.65 -250781 0
-250781 9122.02 0
0 0 0
5076.4 -286379 0
-286379 9618.23 0
0 0 0
5076.16 -244151 0
-244151 9722.94 0
0 0 0
5076.17 -193615 0
-193615 9663.84 0
0 0 0
5076.67 61985.9 0
61985.9 1121.97 0
0 0 0
5076.67 120857 0
120857 419.386 0
0 0 0
5076.67 83188.8 0
83188.8 -21.9731 0
0 0 0
5076.67 51701.3 0
51701.3 -380.924 0
0 0 0
5076.67 -286.161 0
-286.161 577.862 0
0 0 0
5076.67 -123299 0
-123299 5222.05 0
0 0 0
5076.67 -200568 0
-200568 8491.9 0
0 0 0
5076.66 -237968 0
-237968 8982.85 0
0 0 0
5076.55 -271964 0
-271964 9397.18 0
0 0 0
5076.37 -255633 0
-255633 9565.52 0
0 0 0
5076.31 -198429 0
-198429 9564.23 0
0 0 0
5076.67 65863.2 0
65863.2 1110.94 0
0 0 0
5076.67 116091 0
116091 370.524 0
0 0 0
5076.67 79487.4 0
79487.4 -58.8799 0
0 0 0
5076.67 50459.1 0
50459.1 -406.512 0
0 0 0
5076.67 -2402.75 0
-2402.75 693.001 0
0 0 0
5076.67 -122338 0
-122338 5170.71 0
0 0 0
5076.67 -193252 0
-193252 8414.82 0
0 0 0
5076.66 -221162 0
-221162 8815.55 0
0 0 0
5076.62 -247205 0
-247205 9154.43 0
0 0 0
5076.52 -255588 0
-255588 9353.34 0
0 0 0
5076.43 -215787 0
-215787 9431.78 0
0 0 0
5076.67 67951.7 0
67951.7 1103.38 0
0 0 0
5076.67 110062 0
110062 339.456 0
0 0 0
5076.67 75866.7 0
75866.7 -81.1205 0
0 0 0
5076.67 49388.2 0
49388.2 -420.12 0
0 0 0
5076.67 -1612.6 0
-1612.6 693.393 0
0 0 0
5076.67 -114964 0
-114964 4897.51 0
0 0 0
5076.66 -183864 0
-183864 8183.36 0
0 0 0
5076.67 -203839 0
-203839 8640.96 0
0 0 0
5076.64 -222447 0
-222447 8935.93 0
0 0 0
5076.6 -237754 0
-237754 9128.93 0
0 0 0
5076.53 -218184 0
-218184 9266.54 0
0 0 0
5076.67 67015.6 0
67015.6 1104.42 0
0 0 0
5076.67 107107 0
107107 343.026 0
0 0 0
5076.67 74355.9 0
74355.9 -75.7382 0
0 0 0
5076.67 49797.9 0
49797.9 -412.59 0
0 0 0
5076.67 3417.79 0
3417.79 546.736 0
0 0 0
5076.67 -101887 0
-101887 4467 0
0 0 0
5076.66 -174556 0
-174556 7697.79 0
0 0 0
5076.67 -189522 0
-189522 8498.06 0
0 0 0
5076.66 -204318 0
-204318 8780.58 0
0 0 0
5076.63 -217589 0
-217589 8968.72 0
0 0 0
5076.58 -211170 0
-211170 9128.58 0
0 0 0
5076.67 64218.4 0
64218.4 1112.59 0
0 0 0
5076.67 107021 0
107021 372.442 0
0 0 0
5076.67 75514 0
75514 -50.687 0
0 0 0
5076.67 51427.6 0
51427.6 -390.253 0
0 0 0
5076.67 10756.9 0
10756.9 320.165 0
0 0 0
5076.67 -87777.3 0
-87777.3 4024.47 0
0 0 0
5076.67 -166865 0
-166865 7244.35 0
0 0 0
5076.67 -179734 0
-179734 8393.3 0
0 0 0
5076.66 -192940 0
-192940 8679.15 0
0 0 0
5076.64 -204196 0
-204196 8871.11 0
0 0 0
5076.59 -206003 0
-206003 9039.86 0
0 0 0
5076.67 61857.2 0
61857.2 1122.12 0
0 0 0
5076.67 108314 0
108314 407.769 0
0 0 0
5076.67 78315 0
78315 -20.5812 0
0 0 0
5076.67 53659.1 0
53659.1 -362.644 0
0 0 0
5076.67 18667.2 0
18667.2 68.8307 0
0 0 0
5076.67 -74959 0
-74959 3622.98 0
0 0 0
5076.67 -161001 0
-161001 6818.53 0
0 0 0
5076.64 -172589 0
-172589 8231.52 0
0 0 0
5076.66 -185426 0
-185426 8605.13 0
0 0 0
5076.64 -197017 0
-197017 8802.46 0
0 0 0
5076.6 -204668 0
-204668 8976.59 0
0 0 0
5076.67 59552.5 0
59552.5 1131.1 0
0 0 0
5076.67 109330 0
109330 443.16 0
0 0 0
5076.67 79398.8 0
79398.8 10.9064 0
0 0 0
5076.67 55356.5 0
55356.5 -331.518 0
0 0 0
5076.67 26630.9 0
26630.9 -205.442 0
0 0 0
5076.67 -64492.9 0
-64492.9 3240.49 0
0 0 0
5076.67 -149978 0
-149978 6397.92 0
0 0 0
5076.64 -167123 0
-167123 7942.08 0
0 0 0
5076.66 -180012 0
-180012 8539.62 0
0 0 0
5076.64 -191190 0
-191190 8741.18 0
0 0 0
5076.61 -200933 0
-200933 8916.78 0
0 0 0
TENSORS strain double
0.129853 0.435278 0
0.435278 -21.0043 0
0 0 0
0.120967 1.3557 0
1.3557 -22.066 0
0 0 0
-0.123147 1.33652 0
1.33652 -23.0569 0
0 0 0
-0.118155 0.719124 0
0.719124 -23.9699 0
0 0 0
0.0234034 -0.0233277 0
-0.0233277 -23.0898 0
0 0 0
0.0229906 -1.13346 0
-1.13346 -17.3963 0
0 0 0
-0.0868229 -2.14283 0
-2.14283 -11.9786 0
0 0 0
-0.0930855 -2.86384 0
-2.86384 -7.62126 0
0 0 0
-0.417747 -3.40448 0
-3.40448 -3.48164 0
0 0 0
-1.65468 -2.92666 0
-2.92666 -2.7903 0
0 0 0
-2.40614 -2.48962 0
-2.48962 -4.11208 0
0 0 0
0.387777 0.500756 0
0.500756 -21.1507 0
0 0 0
0.319544 1.59823 0
1.59823 -22.4699 0
0 0 0
-0.367003 1.11429 0
1.11429 -23.3541 0
0 0 0
-0.353705 0.619019 0
0.619019 -24.0742 0
0 0 0
0.070227 -0.00917358 0
-0.00917358 -23.2142 0
0 0 0
0.068942 -1.17194 0
-1.17194 -17.2528 0
0 0 0
-0.261314 -2.12786 0
-2.12786 -11.914 0
0 0 0
-0.276138 -2.72488 0
-2.72488 -8.34074 0
0 0 0
-0.847292 -3.10956 0
-3.10956 -5.10817 0
0 0 0
-1.94845 -2.53707 0
-2.53707 -4.65431 0
0 0 0
-2.57101 -2.22606 0
-2.22606 -5.13542 0
0 0 0
0.575677 0.542151 0
0.542151 -22.133 0
0 0 0
0.14753 1.31332 0
1.31332 -23.4514 0
0 0 0
-0.554406 0.898609 0
0.898609 -24.0808 0
0 0 0
-0.53901 0.533696 0
0.533696 -24.6118 0
0 0 0
0.105981 0.0174847 0
0.0174847 -23.7112 0
0 0 0
0.104174 -1.20582 0
-1.20582 -17.5124 0
0 0 0
-0.422397 -2.11119 0
-2.11119 -12.2818 0
0 0 0
-0.444301 -2.61784 0
-2.61784 -9.22591 0
0 0 0
-1.07774 -2.9335 0
-2.9335 -6.52465 0
0 0 0
-2.0106 -2.3903 0
-2.3903 -6.29346 0
0 0 0
-2.58258 -1.90438 0
-1.90438 -6.79069 0
0 0 0
0.624235 0.57911 0
0.57911 -22.3308 0
0 0 0
0.0908804 1.24908 0
1.24908 -23.6542 0
0 0 0
-0.604422 0.856616 0
0.856616 -24.2224 0
0 0 0
-0.592859 0.523039 0
0.523039 -24.6956 0
0 0 0
0.102789 0.0142914 0
0.0142914 -23.6184 0
0 0 0
0.101482 -1.22363 0
-1.22363 -17.4101 0
0 0 0
-0.560622 -2.06445 0
-2.06445 -12.3681 0
0 0 0
-0.592486 -2.50781 0
-2.50781 -9.75428 0
0 0 0
-1.06217 -2.86379 0
-2.86379 -7.45622 0
0 0 0
-1.90341 -2.44151 0
-2.44151 -7.05107 0
0 0 0
-2.4779 -1.93615 0
-1.93615 -7.42337 0
0 0 0
0.663164 0.619859 0
0.619859 -22.2827 0
0 0 0
0.0443083 1.20857 0
1.20857 -23.6043 0
0 0 0
-0.641268 0.831888 0
0.831888 -24.1302 0
0 0 0
-0.633226 0.517013 0
0.517013 -24.5602 0
0 0 0
0.0862955 -0.00286161 0
-0.00286161 -23.2688 0
0 0 0
0.0849986 -1.23299 0
-1.23299 -17.1452 0
0 0 0
-0.709096 -2.00568 0
-2.00568 -12.3168 0
0 0 0
-0.750123 -2.37968 0
-2.37968 -10.1101 0
0 0 0
-1.13264 -2.71964 0
-2.71964 -8.20493 0
0 0 0
-1.73492 -2.55633 0
-2.55633 -7.54962 0
0 0 0
-2.38622 -1.98429 0
-1.98429 -7.75749 0
0 0 0
0.701787 0.658632 0
0.658632 -21.9263 0
0 0 0
-0.011337 1.16091 0
1.16091 -23.2578 0
0 0 0
-0.677616 0.794874 0
0.794874 -23.7583 0
0 0 0
-0.674014 0.504591 0
0.504591 -24.1638 0
0 0 0
0.0511967 -0.0240275 0
-0.0240275 -22.6617 0
0 0 0
0.0487195 -1.22338 0
-1.22338 -16.7225 0
0 0 0
-0.882831 -1.93252 0
-1.93252 -12.1473 0
0 0 0
-0.928498 -2.21162 0
-2.21162 -10.3713 0
0 0 0
-1.28385 -2.47205 0
-2.47205 -8.85766 0
0 0 0
-1.59657 -2.55588 0
-2.55588 -8.0208 0
0 0 0
-2.10646 -2.15787 0
-2.15787 -7.8712 0
0 0 0
0.727448 0.679517 0
0.679517 -21.6495 0
0 0 0
-0.034854 1.10062 0
1.10062 -23.023 0
0 0 0
-0.70429 0.758667 0
0.758667 -23.5154 0
0 0 0
-0.704363 0.493882 0
0.493882 -23.9016 0
0 0 0
-0.00697121 -0.016126 0
-0.016126 -22.3751 0
0 0 0
-0.0123881 -1.14964 0
-1.14964 -16.7693 0
0 0 0
-1.01539 -1.83864 0
-1.83864 -12.3791 0
0 0 0
-1.06862 -2.03839 0
-2.03839 -10.8585 0
0 0 0
-1.39941 -2.22447 0
-2.22447 -9.57816 0
0 0 0
-1.58471 -2.37754 0
-2.37754 -8.74618 0
0 0 0
-1.91842 -2.18184 0
-2.18184 -8.28894 0
0 0 0
0.723962 0.670156 0
0.670156 -21.4856 0
0 0 0
-0.0447554 1.07107 0
1.07107 -22.8907 0
0 0 0
-0.708174 0.743559 0
0.743559 -23.3838 0
0 0 0
-0.709818 0.497979 0
0.497979 -23.7865 0
0 0 0
-0.0695889 0.0341779 0
0.0341779 -22.4604 0
0 0 0
-0.0781112 -1.01887 0
-1.01887 -17.223 0
0 0 0
-1.0252 -1.74556 0
-1.74556 -12.9363 0
0 0 0
-1.12893 -1.89522 0
-1.89522 -11.3717 0
0 0 0
-1.42848 -2.04318 0
-2.04318 -10.1882 0
0 0 0
-1.60278 -2.17589 0
-2.17589 -9.38481 0
0 0 0
-1.79294 -2.1117 0
-2.1117 -8.76422 0
0 0 0
0.696173 0.642184 0
0.642184 -21.4258 0
0 0 0
-0.0317138 1.07021 0
1.07021 -22.8331 0
0 0 0
-0.696878 0.75514 0
0.75514 -23.3379 0
0 0 0
-0.699304 0.514276 0
0.514276 -23.7483 0
0 0 0
-0.119766 0.107569 0
0.107569 -22.7594 0
0 0 0
-0.13028 -0.877773 0
-0.877773 -17.8102 0
0 0 0
-0.94869 -1.66865 0
-1.66865 -13.5198 0
0 0 0
-1.12965 -1.79734 0
-1.79734 -11.8129 0
0 0 0
-1.40373 -1.9294 0
-1.9294 -10.6283 0
0 0 0
-1.57602 -2.04196 0
-2.04196 -9.81129 0
0 0 0
-1.68135 -2.06003 0
-2.06003 -9.1279 0
0 0 0
0.662719 0.618572 0
0.618572 -21.3786 0
0 0 0
0.00308114 1.08314 0
1.08314 -22.746 0
0 0 0
-0.686538 0.78315 0
0.78315 -23.2739 0
0 0 0
-0.689545 0.536591 0
0.536591 -23.676 0
0 0 0
-0.155684 0.186672 0
0.186672 -23.0573 0
0 0 0
-0.167488 -0.74959 0
-0.74959 -18.3067 0
0 0 0
-0.803874 -1.61001 0
-1.61001 -14.0348 0
0 0 0
-1.10247 -1.72589 0
-1.72589 -12.1556 0
0 0 0
-1.36497 -1.85426 0
-1.85426 -10.8892 0
0 0 0
-1.54532 -1.97017 0
-1.97017 -10.0674 0
0 0 0
-1.6166 -2.04668 0
-2.04668 -9.3342 0
0 0 0
0.630158 0.595525 0
0.595525 -21.3139 0
0 0 0
0.0332664 1.0933 0
1.0933 -22.6538 0
0 0 0
-0.681232 0.793988 0
0.793988 -23.1712 0
0 0 0
-0.683716 0.553565 0
0.553565 -23.5839 0
0 0 0
-0.180891 0.266309 0
0.266309 -23.35 0
0 0 0
-0.193533 -0.644929 0
-0.644929 -19.1891 0
0 0 0
-0.702665 -1.49978 0
-1.49978 -14.5211 0
0 0 0
-1.05226 -1.67123 0
-1.67123 -12.4883 0
0 0 0
-1.33598 -1.80012 0
-1.80012 -11.0938 0
0 0 0
-1.52518 -1.9119 0
-1.9119 -10.239 0
0 0 0
-1.58418 -2.00933 0
-2.00933 -9.49591 0
0 0 0
