# vtk DataFile Version 3.0
MPM2D particles
ASCII
DATASET POLYDATA
POINTS 121 double
0.0135632 0.00909657 0
0.0405801 0.008222 0
0.0655732 0.00755688 0
0.0885162 0.00706505 0
0.112282 0.00666751 0
0.137955 0.00644985 0
0.163264 0.00626797 0
0.187247 0.00618137 0
0.210889 0.00626055 0
0.228139 0.0100746 0
0.243114 0.0157884 0
0.0159594 0.0271349 0
0.0474632 0.0242573 0
0.0709754 0.0224334 0
0.0903107 0.0211218 0
0.111824 0.0200122 0
0.138895 0.0193362 0
0.164681 0.0188099 0
0.186752 0.0185377 0
0.208293 0.0184313 0
0.217204 0.0246668 0
0.223793 0.0326366 0
0.017852 0.0415848 0
0.0531052 0.0375295 0
0.0744564 0.0352598 0
0.0915305 0.0335542 0
0.111527 0.032018 0
0.139742 0.0309654 0
0.165712 0.0302457 0
0.186147 0.0300298 0
0.206061 0.029896 0
0.212325 0.0355538 0
0.216863 0.0428202 0
0.0180769 0.0484637 0
0.0540043 0.0451841 0
0.0752293 0.0433641 0
0.0921567 0.0419309 0
0.112105 0.0405843 0
0.140364 0.039568 0
0.165887 0.0390269 0
0.184824 0.0393513 0
0.203334 0.0396877 0
0.21076 0.0436435 0
0.21591 0.0500495 0
0.0181811 0.0549264 0
0.0544492 0.0527026 0
0.0757676 0.0515508 0
0.0927954 0.0506158 0
0.112881 0.049719 0
0.140829 0.0489871 0
0.165671 0.048785 0
0.183092 0.049662 0
0.200102 0.0505187 0
0.209205 0.0522455 0
0.215405 0.0570928 0
0.0182145 0.0638765 0
0.0545876 0.0630665 0
0.0761376 0.0629092 0
0.0934385 0.0628126 0
0.113719 0.0627462 0
0.140988 0.0627009 0
0.164979 0.0630377 0
0.181125 0.0642089 0
0.196898 0.0653191 0
0.207147 0.0651007 0
0.215027 0.067166 0
0.0179968 0.077132 0
0.0539597 0.0777975 0
0.0759677 0.0786498 0
0.0937072 0.0794311 0
0.11413 0.080217 0
0.1405 0.0809322 0
0.163921 0.0817399 0
0.179728 0.0827658 0
0.195272 0.0837033 0
0.205902 0.0825536 0
0.21543 0.0817771 0
0.0173948 0.0939643 0
0.0521205 0.0954411 0
0.0748765 0.0968955 0
0.0932796 0.0982186 0
0.11394 0.0995146 0
0.139523 0.100709 0
0.162823 0.101777 0
0.179266 0.102469 0
0.19551 0.103087 0
0.206771 0.101584 0
0.217493 0.0992715 0
0.0165809 0.111977 0
0.0496682 0.113445 0
0.0732011 0.114977 0
0.0923827 0.116417 0
0.113411 0.117827 0
0.138509 0.11916 0
0.161927 0.120322 0
0.179405 0.12086 0
0.19669 0.121337 0
0.208979 0.119802 0
0.220726 0.117499 0
0.0159124 0.128855 0
0.0476814 0.130181 0
0.0717103 0.131667 0
0.0915209 0.133124 0
0.112863 0.134562 0
0.137669 0.135951 0
0.161213 0.137177 0
0.179609 0.137694 0
0.197813 0.138159 0
0.210917 0.136738 0
0.223513 0.134715 0
0.015408 0.145099 0
0.0461807 0.146335 0
0.0704678 0.147778 0
0.0907156 0.149246 0
0.112286 0.150711 0
0.136952 0.152135 0
0.160645 0.153426 0
0.179812 0.154015 0
0.198794 0.154563 0
0.21245 0.153354 0
0.225622 0.151688 0
VERTICES 121 242
1 0
1 1
1 2
1 3
1 4
1 5
1 6
1 7
1 8
1 9
1 10
1 11
1 12
1 13
1 14
1 15
1 16
1 17
1 18
1 19
1 20
1 21
1 22
1 23
1 24
1 25
1 26
1 27
1 28
1 29
1 30
1 31
1 32
1 33
1 34
1 35
1 36
1 37
1 38
1 39
1 40
1 41
1 42
1 43
1 44
1 45
1 46
1 47
1 48
1 49
1 50
1 51
1 52
1 53
1 54
1 55
1 56
1 57
1 58
1 59
1 60
1 61
1 62
1 63
1 64
1 65
1 66
1 67
1 68
1 69
1 70
1 71
1 72
1 73
1 74
1 75
1 76
1 77
1 78
1 79
1 80
1 81
1 82
1 83
1 84
1 85
1 86
1 87
1 88
1 89
1 90
1 91
1 92
1 93
1 94
1 95
1 96
1 97
1 98
1 99
1 100
1 101
1 102
1 103
1 104
1 105
1 106
1 107
1 108
1 109
1 110
1 111
1 112
1 113
1 114
1 115
1 116
1 117
1 118
1 119
1 120
POINT_DATA 121
VECTORS velocity double
4.14646 6.96813 0
2.27291 5.84749 0
1.055 5.03224 0
0.636212 4.54791 0
0.270277 4.29717 0
0.0707414 4.66433 0
-0.136787 4.60543 0
-0.365168 2.85412 0
-0.864459 1.46002 0
-4.95343 5.67 0
-8.43115 9.29351 0
2.89072 2.09141 0
0.764395 1.71264 0
-0.0186153 1.4181 0
0.10836 1.19655 0
0.148225 1.06554 0
0.0233844 1.24089 0
-0.0584073 1.18161 0
0.0365478 0.35325 0
0.0267303 -0.432775 0
-1.1032 0.902682 0
-1.64656 1.72876 0
2.03901 -1.22571 0
-0.308262 -1.0582 0
-0.681233 -1.10846 0
-0.230715 -1.18502 0
0.0798738 -1.25392 0
0.0204646 -1.25794 0
0.0405269 -1.29385 0
0.346685 -1.42069 0
0.592529 -1.56977 0
0.548231 -1.41825 0
0.659944 -1.38008 0
2.09694 -1.58654 0
-0.17677 -1.39351 0
-0.538717 -1.42593 0
-0.146401 -1.48263 0
0.13568 -1.54578 0
0.101838 -1.61081 0
0.116879 -1.63695 0
0.297351 -1.5556 0
0.422789 -1.47786 0
0.137374 -1.50166 0
-0.0148539 -1.57195 0
2.20275 -1.79045 0
0.0537956 -1.60293 0
-0.323134 -1.60273 0
-0.0334402 -1.62764 0
0.175851 -1.66985 0
0.170132 -1.75294 0
0.169938 -1.76219 0
0.184266 -1.56874 0
0.140623 -1.38732 0
-0.44527 -1.50968 0
-0.843659 -1.6995 0
2.24212 -1.90217 0
0.24108 -1.75097 0
-0.160372 -1.7133 0
0.0327462 -1.69487 0
0.170107 -1.69727 0
0.185329 -1.75222 0
0.174371 -1.74229 0
0.0960777 -1.55351 0
-0.0318465 -1.3797 0
-0.751304 -1.52484 0
-1.34726 -1.7565 0
2.11424 -1.89324 0
0.301803 -1.81691 0
-0.111632 -1.7576 0
0.0275637 -1.70756 0
0.124443 -1.68003 0
0.136627 -1.70594 0
0.121837 -1.68781 0
0.048456 -1.54193 0
-0.0673319 -1.40913 0
-0.757414 -1.55543 0
-1.46992 -1.78555 0
1.83534 -1.8874 0
0.319004 -1.86835 0
-0.0836434 -1.80824 0
0.0173141 -1.7489 0
0.0860507 -1.70756 0
0.0905366 -1.70578 0
0.0715397 -1.67943 0
-0.00384053 -1.57357 0
-0.114867 -1.47932 0
-0.726847 -1.62205 0
-1.4234 -1.83283 0
1.47908 -2.01509 0
0.329848 -2.00451 0
-0.0400802 -1.95318 0
0.0124422 -1.89607 0
0.0471761 -1.84961 0
0.0492306 -1.82746 0
0.031925 -1.79359 0
-0.0478012 -1.71796 0
-0.157231 -1.65197 0
-0.704245 -1.76969 0
-1.3177 -1.92883 0
1.16569 -2.36354 0
0.314767 -2.3421 0
-0.0116349 -2.2916 0
-0.00762241 -2.23389 0
-0.00564472 -2.18169 0
-0.0015291 -2.14346 0
-0.0115231 -2.10152 0
-0.0795473 -2.04984 0
-0.173808 -2.00461 0
-0.691292 -2.07314 0
-1.25707 -2.158 0
0.855692 -3.08435 0
0.240359 -3.04413 0
-0.0363049 -2.99157 0
-0.0769383 -2.92899 0
-0.104093 -2.85347 0
-0.0929505 -2.79535 0
-0.0863926 -2.73118 0
-0.117756 -2.70101 0
-0.171481 -2.66329 0
-0.667476 -2.6513 0
-1.20288 -2.65067 0
SCALARS mass double 1
LOOKUP_TABLE default
2.67769
2.67769
2.67769
2.67769
2.67769
2.67769
2.67769
2.67769
2.67769
2.67769
2.67769
2.67769
2.67769
2.67769
2.67769
2.67769
2.67769
2.67769
2.67769
2.67769
2.67769
2.67769
2.67769
2.67769
2.67769
2.67769
2.67769
2.67769
2.67769
2.67769
2.67769
2.67769
2.67769
2.67769
2.67769
2.67769
2.67769
2.67769
2.67769
2.67769
2.67769
2.67769
2.67769
2.67769
2.67769
2.67769
2.67769
2.67769
2.67769
2.67769
2.67769
2.67769
2.67769
2.67769
2.67769
2.67769
2.67769
2.67769
2.67769
2.67769
2.67769
2.67769
2.67769
2.67769
2.67769
2.67769
2.67769
2.67769
2.67769
2.67769
2.67769
2.67769
2.67769
2.67769
2.67769
2.67769
2.67769
2.67769
2.67769
2.67769
2.67769
2.67769
2.67769
2.67769
2.67769
2.67769
2.67769
2.67769
2.67769
2.67769
2.67769
2.67769
2.67769
2.67769
2.67769
2.67769
2.67769
2.67769
2.67769
2.67769
2.67769
2.67769
2.67769
2.67769
2.67769
2.67769
2.67769
2.67769
2.67769
2.67769
2.67769
2.67769
2.67769
2.67769
2.67769
2.67769
2.67769
2.67769
2.67769
2.67769
2.67769
SCALARS volume double 1
LOOKUP_TABLE default
0.000587518
0.000529643
0.00041287
0.000386701
0.00040761
0.00039419
0.000357495
0.000352888
0.000274987
0.000421659
0.000621266
0.000687854
0.000609734
0.000344565
0.000326051
0.000430443
0.000415535
0.000328531
0.00032469
0.000187106
0.000178267
0.000210004
0.00032608
0.000348986
0.000175298
0.000178968
0.000296971
0.000293766
0.000213104
0.000227912
0.000130407
6.30222e-05
5.09291e-05
0.0002806
0.00030526
0.000159975
0.000168308
0.000291535
0.00029758
0.000203088
0.000216373
0.000148563
5.89602e-05
4.68959e-05
0.000310181
0.000340838
0.000185574
0.000200295
0.000350943
0.000364568
0.000236643
0.000250452
0.000185309
8.90754e-05
6.03914e-05
0.000477359
0.000508872
0.00027924
0.000297142
0.000504192
0.000529247
0.000324081
0.000324968
0.000237388
0.000164302
0.000111347
0.000655564
0.000683739
0.000364584
0.000382083
0.000593717
0.000613373
0.000374514
0.000368815
0.000272749
0.000226816
0.000178832
0.000740077
0.000756721
0.00040606
0.000411815
0.000581163
0.000589714
0.000379472
0.000374738
0.000285918
0.000246692
0.000238865
0.000687816
0.000683503
0.000394017
0.000395412
0.000516659
0.000520362
0.000361113
0.000360562
0.00028359
0.000248898
0.000252279
0.000621874
0.000619029
0.000383584
0.000384125
0.000480412
0.000482525
0.000357086
0.000357912
0.00028826
0.000253016
0.000259005
0.000589045
0.000582833
0.000380997
0.000382789
0.0004712
0.000252956
0.000358528
0.000361807
0.000296102
0.000262353
0.000267038
TENSORS stress double
5026.33 2394.68 0
2394.68 8291.08 0
0 0 0
5031.08 11619.3 0
11619.3 8134.13 0
0 0 0
4847.19 12511 0
12511 8006.47 0
0 0 0
4861.87 3336.8 0
3336.8 7904.58 0
0 0 0
4983.51 -1558.73 0
-1558.73 7811.86 0
0 0 0
4986.49 1769.09 0
1769.09 7747.43 0
0 0 0
4869.98 3405.09 0
3405.09 7724.89 0
0 0 0
4873.09 -2138.73 0
-2138.73 7849.24 0
0 0 0
4511.42 1672.95 0
1672.95 8002.8 0
0 0 0
4182.46 -27460.2 0
-27460.2 9560.49 0
0 0 0
3695.79 -54783.9 0
-54783.9 10846.3 0
0 0 0
4926.46 -1527.56 0
-1527.56 7627.54 0
0 0 0
4942.09 8713.53 0
8713.53 7510.3 0
0 0 0
4395.24 8397.18 0
8397.18 7443.07 0
0 0 0
4434.43 75.8573 0
75.8573 7388.78 0
0 0 0
4797.06 -2845.75 0
-2845.75 7331.77 0
0 0 0
4806.29 598.765 0
598.765 7279.62 0
0 0 0
4456.45 2270.13 0
2270.13 7279.11 0
0 0 0
4466.12 -3020.09 0
-3020.09 7401.21 0
0 0 0
4470.3 6789.95 0
6789.95 7514.62 0
0 0 0
2863.88 6358.02 0
6358.02 7980.57 0
0 0 0
2168.47 -9362.28 0
-9362.28 8366.29 0
0 0 0
4846.44 -6982.11 0
-6982.11 7096.08 0
0 0 0
3937.78 -1839.85 0
-1839.85 6994.47 0
0 0 0
4005.44 -1517.64 0
-1517.64 6963.2 0
0 0 0
4056.33 -3770.58 0
-3770.58 6934.43 0
0 0 0
4629.31 -2082.64 0
-2082.64 6899.54 0
0 0 0
4643.67 -434.539 0
-434.539 6857.43 0
0 0 0
4079.42 385.715 0
385.715 6871.38 0
0 0 0
4087.59 -5101.37 0
-5101.37 6983.75 0
0 0 0
4093.01 2800.93 0
2800.93 7090.47 0
0 0 0
1871.84 41874.3 0
41874.3 7110.45 0
0 0 0
1234.82 46432.1 0
46432.1 7315.97 0
0 0 0
4808.35 -5770.88 0
-5770.88 6847.81 0
0 0 0
3705.43 -2665.54 0
-2665.54 6714.65 0
0 0 0
3759.17 -1678.9 0
-1678.9 6667.45 0
0 0 0
3801.56 -2277.97 0
-2277.97 6629.29 0
0 0 0
4509.61 -294.23 0
-294.23 6588.89 0
0 0 0
4523.36 -522.115 0
-522.115 6545.12 0
0 0 0
3789.9 797.495 0
797.495 6555.18 0
0 0 0
3780.48 -5295.48 0
-5295.48 6640.83 0
0 0 0
3770.65 -7763.4 0
-7763.4 6723.89 0
0 0 0
1136.57 38825.9 0
38825.9 6666.14 0
0 0 0
582.178 42746.2 0
42746.2 6967.43 0
0 0 0
4736.09 -3373.08 0
-3373.08 6047.11 0
0 0 0
3490.06 -1970.66 0
-1970.66 6478.98 0
0 0 0
3510.4 -726.761 0
-726.761 6369.96 0
0 0 0
3537.41 -388.617 0
-388.617 6312.95 0
0 0 0
4381.96 912.231 0
912.231 6257.16 0
0 0 0
4391.64 -567.983 0
-567.983 6203.78 0
0 0 0
3468.15 1152.08 0
1152.08 6201.68 0
0 0 0
3440.71 -4349.64 0
-4349.64 6260.06 0
0 0 0
3413.96 -10989.2 0
-10989.2 6317.12 0
0 0 0
3362.2 16504.4 0
16504.4 7141.85 0
0 0 0
570.222 29035.9 0
29035.9 6404.19 0
0 0 0
4581.91 -482.348 0
-482.348 5724.45 0
0 0 0
3305.2 295.504 0
295.504 6107.64 0
0 0 0
3307.37 688.235 0
688.235 6320.93 0
0 0 0
3308.59 1576.19 0
1576.19 6491.1 0
0 0 0
4109.08 1658.14 0
1658.14 6667.34 0
0 0 0
4109.68 -288.404 0
-288.404 6862.15 0
0 0 0
3075.42 995.725 0
995.725 6941.3 0
0 0 0
3045.54 -1439.14 0
-1439.14 6831.88 0
0 0 0
3017.2 -6096.64 0
-6096.64 6726.13 0
0 0 0
3023.51 -1513.03 0
-1513.03 6690.97 0
0 0 0
867.909 15347.7 0
15347.7 6079.02 0
0 0 0
4353.56 1343.36 0
1343.36 5243.95 0
0 0 0
3042.44 346.129 0
346.129 5571.84 0
0 0 0
3027.21 817.043 0
817.043 5754.47 0
0 0 0
3013.3 2263.91 0
2263.91 5898.39 0
0 0 0
3723.56 1850.98 0
1850.98 6045.59 0
0 0 0
3708.15 -13.7723 0
-13.7723 6208.22 0
0 0 0
2583.75 -192.202 0
-192.202 6278.83 0
0 0 0
2557.33 463.786 0
463.786 6175.45 0
0 0 0
2533.2 -1256.26 0
-1256.26 6076.28 0
0 0 0
2563.84 -4979.67 0
-4979.67 6072.44 0
0 0 0
1298.76 4826.19 0
4826.19 5505.02 0
0 0 0
4063.57 1673.15 0
1673.15 4630.57 0
0 0 0
4038.57 -1189 0
-1189 4919.33 0
0 0 0
2702.41 -284.338 0
-284.338 5089.09 0
0 0 0
2679.46 1810.54 0
1810.54 5221.22 0
0 0 0
3297.73 1640.29 0
1640.29 5354.25 0
0 0 0
3272.54 251.627 0
251.627 5495.59 0
0 0 0
2057.02 -912.215 0
-912.215 5568.99 0
0 0 0
2039.06 1956.55 0
1956.55 5474.24 0
0 0 0
2023 1972.07 0
1972.07 5382.91 0
0 0 0
2062.71 -1163.35 0
-1163.35 5388.61 0
0 0 0
1815.19 1745.07 0
1745.07 4648.64 0
0 0 0
3703.44 1422.09 0
1422.09 4937.16 0
0 0 0
3670.91 -1742.61 0
-1742.61 4889.34 0
0 0 0
2409.25 -492.926 0
-492.926 4848.96 0
0 0 0
2387.92 1501.9 0
1501.9 4810.71 0
0 0 0
2945.47 1645.32 0
1645.32 4776.02 0
0 0 0
2921.97 759.932 0
759.932 4749.35 0
0 0 0
1806.21 -841.008 0
-841.008 4726.73 0
0 0 0
1799.8 2087.85 0
2087.85 4719.17 0
0 0 0
1794.14 2093.69 0
2093.69 4713.67 0
0 0 0
1812.82 -506.922 0
-506.922 4776.64 0
0 0 0
1736.24 2566.65 0
2566.65 4910.94 0
0 0 0
3315.7 1547.75 0
1547.75 4333.83 0
0 0 0
3286.39 -968.263 0
-968.263 4290.93 0
0 0 0
2153.66 309.761 0
309.761 4251.55 0
0 0 0
2132.11 1715.62 0
1715.62 4213.17 0
0 0 0
2636.75 1732.2 0
1732.2 4177.68 0
0 0 0
2612.28 1227.42 0
1227.42 4148.91 0
0 0 0
1601.88 -441.388 0
-441.388 4124.35 0
0 0 0
1595.75 2056.4 0
2056.4 4118.18 0
0 0 0
1590.27 1726.89 0
1726.89 4113.79 0
0 0 0
1450.47 -1429.71 0
-1429.71 4177.23 0
0 0 0
1480.03 829.651 0
829.651 4309.85 0
0 0 0
2942.52 1620.42 0
1620.42 3753.18 0
0 0 0
2915.24 -544.359 0
-544.359 3713.36 0
0 0 0
1906.91 511.96 0
511.96 3674.94 0
0 0 0
1885.25 1483.18 0
1483.18 3636.57 0
0 0 0
2338.84 1621.86 0
1621.86 3600.27 0
0 0 0
2313.78 361.394 0
361.394 3570.24 0
0 0 0
1404.89 -142.74 0
-142.74 3543.68 0
0 0 0
1397.92 2088.09 0
2088.09 3535.52 0
0 0 0
1391.46 1924.12 0
1924.12 3528.72 0
0 0 0
1203.13 -875.882 0
-875.882 3591.31 0
0 0 0
1227.52 601.376 0
601.376 3714.3 0
0 0 0
TENSORS strain double
0.0816716 0.0239468 0
0.0239468 -0.316374 0
0 0 0
0.078971 0.116193 0
0.116193 -0.416759 0
0 0 0
-0.0848249 0.12511 0
0.12511 -0.500421 0
0 0 0
-0.0829603 0.033368 0
0.033368 -0.567098 0
0 0 0
0.0267914 -0.0155873 0
-0.0155873 -0.624406 0
0 0 0
0.0264957 0.0176909 0
0.0176909 -0.657192 0
0 0 0
-0.0418557 0.0340509 0
0.0340509 -0.685508 0
0 0 0
-0.04093 -0.0213873 0
-0.0213873 -0.699595 0
0 0 0
-0.300567 0.0167295 0
0.0167295 -0.687279 0
0 0 0
-0.350182 -0.274602 0
-0.274602 -0.215308 0
0 0 0
-0.413958 -0.547839 0
-0.547839 0.234133 0
0 0 0
0.244657 -0.0152756 0
-0.0152756 -0.322017 0
0 0 0
0.235927 0.0871353 0
0.0871353 -0.433305 0
0 0 0
-0.253787 0.0839718 0
0.0839718 -0.510829 0
0 0 0
-0.248658 0.000758573 0
0.000758573 -0.570525 0
0 0 0
0.0803839 -0.0284575 0
-0.0284575 -0.623927 0
0 0 0
0.0794743 0.00598765 0
0.00598765 -0.65787 0
0 0 0
-0.125534 0.0227013 0
0.0227013 -0.685203 0
0 0 0
-0.122771 -0.0302009 0
-0.0302009 -0.699936 0
0 0 0
-0.663059 0.0678995 0
0.0678995 -0.70586 0
0 0 0
-0.998379 0.0635802 0
0.0635802 -0.417125 0
0 0 0
-1.11576 -0.0936228 0
-0.0936228 -0.138509 0
0 0 0
0.357121 -0.0698211 0
-0.0698211 -1.17708 0
0 0 0
0.339363 -0.0183985 0
-0.0183985 -1.09229 0
0 0 0
-0.377007 -0.0151764 0
-0.0151764 -1.05586 0
0 0 0
-0.372317 -0.0377058 0
-0.0377058 -1.04019 0
0 0 0
0.122219 -0.0208264 0
-0.0208264 -1.0351 0
0 0 0
0.121075 -0.00434539 0
-0.00434539 -1.04461 0
0 0 0
-0.203282 0.00385715 0
0.00385715 -1.03659 0
0 0 0
-0.199873 -0.0510137 0
-0.0510137 -0.97377 0
0 0 0
-0.796101 0.0280093 0
0.0280093 -0.927823 0
0 0 0
-1.45765 0.418743 0
0.418743 -0.975448 0
0 0 0
-1.52472 0.464321 0
0.464321 -1.11509 0
0 0 0
0.36972 -0.0577088 0
-0.0577088 -1.33849 0
0 0 0
0.321585 -0.0266554 0
-0.0266554 -1.207 0
0 0 0
-0.386432 -0.016789 0
-0.016789 -1.13618 0
0 0 0
-0.384673 -0.0227797 0
-0.0227797 -1.08808 0
0 0 0
0.1234 -0.0029423 0
-0.0029423 -1.05466 0
0 0 0
0.123111 -0.00522115 0
-0.00522115 -1.03397 0
0 0 0
-0.278064 0.00797495 0
0.00797495 -1.00918 0
0 0 0
-0.27739 -0.0529548 0
-0.0529548 -0.947425 0
0 0 0
-0.704403 -0.077634 0
-0.077634 -0.891709 0
0 0 0
-1.46595 0.388259 0
0.388259 -1.0304 0
0 0 0
-1.47056 0.427462 0
0.427462 -1.24767 0
0 0 0
0.375514 -0.0337308 0
-0.0337308 -1.24399 0
0 0 0
0.313194 -0.0197066 0
-0.0197066 -1.08832 0
0 0 0
-0.382292 -0.00726761 0
-0.00726761 -0.992924 0
0 0 0
-0.382067 -0.00388617 0
-0.00388617 -0.91827 0
0 0 0
0.111593 0.00912231 0
0.00912231 -0.858555 0
0 0 0
0.111805 -0.00567983 0
-0.00567983 -0.820989 0
0 0 0
-0.356814 0.0115208 0
0.0115208 -0.77887 0
0 0 0
-0.359282 -0.0434964 0
-0.0434964 -0.72057 0
0 0 0
-0.695108 -0.109892 0
-0.109892 -0.683322 0
0 0 0
-1.25722 0.165044 0
0.165044 -0.836939 0
0 0 0
-1.34356 0.290359 0
0.290359 -1.12685 0
0 0 0
0.377394 -0.00482348 0
-0.00482348 -0.816712 0
0 0 0
0.303077 0.00295504 0
0.00295504 -0.67881 0
0 0 0
-0.367777 0.00688235 0
0.00688235 -0.603282 0
0 0 0
-0.367709 0.0157619 0
0.0157619 -0.542389 0
0 0 0
0.0868896 0.0165814 0
0.0165814 -0.47355 0
0 0 0
0.0867521 -0.00288404 0
-0.00288404 -0.425359 0
0 0 0
-0.430118 0.00995725 0
0.00995725 -0.394061 0
0 0 0
-0.433214 -0.0143914 0
-0.0143914 -0.388322 0
0 0 0
-0.740232 -0.0609664 0
-0.0609664 -0.393576 0
0 0 0
-1.02411 -0.0151303 0
-0.0151303 -0.470857 0
0 0 0
-1.17274 0.153477 0
0.153477 -0.699767 0
0 0 0
0.36536 0.0134336 0
0.0134336 -0.489516 0
0 0 0
0.326669 0.00346129 0
0.00346129 -0.408963 0
0 0 0
-0.342707 0.00817043 0
0.00817043 -0.365309 0
0 0 0
-0.342333 0.0226391 0
0.0226391 -0.319591 0
0 0 0
0.053795 0.0185098 0
0.0185098 -0.278144 0
0 0 0
0.0532345 -0.000137723 0
-0.000137723 -0.245272 0
0 0 0
-0.453651 -0.00192202 0
-0.00192202 -0.227776 0
0 0 0
-0.454037 0.00463786 0
0.00463786 -0.242567 0
0 0 0
-0.738974 -0.0125626 0
-0.0125626 -0.257661 0
0 0 0
-0.899693 -0.0497967 0
-0.0497967 -0.279125 0
0 0 0
-0.988455 0.0482619 0
0.0482619 -0.421534 0
0 0 0
0.331212 0.0167315 0
0.0167315 -0.335529 0
0 0 0
0.329981 -0.01189 0
-0.01189 -0.312361 0
0 0 0
-0.304513 -0.00284338 0
-0.00284338 -0.29758 0
0 0 0
-0.303515 0.0181054 0
0.0181054 -0.284725 0
0 0 0
0.0241272 0.0164029 0
0.0164029 -0.270121 0
0 0 0
0.0236125 0.00251627 0
0.00251627 -0.255099 0
0 0 0
-0.417117 -0.00912215 0
-0.00912215 -0.25159 0
0 0 0
-0.415763 0.0195655 0
0.0195655 -0.265363 0
0 0 0
-0.673462 0.0197207 0
0.0197207 -0.276663 0
0 0 0
-0.823528 -0.0116335 0
-0.0116335 -0.272486 0
0 0 0
-0.836642 0.0174507 0
0.0174507 -0.290673 0
0 0 0
0.283097 0.0142209 0
0.0142209 -0.36119 0
0 0 0
0.281592 -0.0174261 0
-0.0174261 -0.36597 0
0 0 0
-0.262572 -0.00492926 0
-0.00492926 -0.369691 0
0 0 0
-0.261538 0.015019 0
0.015019 -0.367245 0
0 0 0
0.00508373 0.0164532 0
0.0164532 -0.368356 0
0 0 0
0.00473554 0.00759932 0
0.00759932 -0.360922 0
0 0 0
-0.356787 -0.00841008 0
-0.00841008 -0.361237 0
0 0 0
-0.35566 0.0208785 0
0.0208785 -0.363899 0
0 0 0
-0.590358 0.0209369 0
0.0209369 -0.368045 0
0 0 0
-0.735629 -0.00506922 0
-0.00506922 -0.351532 0
0 0 0
-0.741402 0.0256665 0
0.0256665 -0.332452 0
0 0 0
0.241795 0.0154775 0
0.0154775 -0.420525 0
0 0 0
0.240617 -0.00968263 0
-0.00968263 -0.423924 0
0 0 0
-0.230495 0.00309761 0
0.00309761 -0.428405 0
0 0 0
-0.229722 0.0171562 0
0.0171562 -0.427804 0
0 0 0
-0.00673479 0.017322 0
0.017322 -0.428914 0
0 0 0
-0.00692234 0.0122742 0
0.0122742 -0.424386 0
0 0 0
-0.305884 -0.00441388 0
-0.00441388 -0.423349 0
0 0 0
-0.30501 0.020564 0
0.020564 -0.42198 0
0 0 0
-0.523091 0.0172689 0
0.0172689 -0.419126 0
0 0 0
-0.672768 -0.0142971 0
-0.0142971 -0.398091 0
0 0 0
-0.674848 0.00829651 0
0.00829651 -0.37296 0
0 0 0
0.209478 0.0162042 0
0.0162042 -0.442236 0
0 0 0
0.208534 -0.00544359 0
-0.00544359 -0.451767 0
0 0 0
-0.208605 0.0051196 0
0.0051196 -0.456834 0
0 0 0
-0.20792 0.0148318 0
0.0148318 -0.452924 0
0 0 0
-0.0124779 0.0162186 0
0.0162186 -0.442381 0
0 0 0
-0.0124485 0.00361394 0
0.00361394 -0.900266 0
0 0 0
-0.264999 -0.0014274 0
-0.0014274 -0.459863 0
0 0 0
-0.264085 0.0208809 0
0.0208809 -0.451939 0
0 0 0
-0.481517 0.0192412 0
0.0192412 -0.433997 0
0 0 0
-0.632005 -0.00875882 0
-0.00875882 -0.402932 0
0 0 0
-0.632754 0.00601376 0
0.00601376 -0.384715 0
0 0 0
