# vtk DataFile Version 3.0
MPM2D particles
ASCII
DATASET POLYDATA
POINTS 121 double
0.0142324 4.80957e-08 0
0.0423199 2.31222e-08 0
0.0670299 1.30989e-08 0
0.0890636 8.34299e-09 0
0.112229 1.02162e-08 0
0.137809 7.10952e-08 0
0.162773 6.20845e-07 0
0.1853 1.28319e-05 0
0.206321 0.000227497 0
0.199864 0.000709814 0
0.188866 0.000356186 0
0.0184116 1.30931e-07 0
0.053622 5.33528e-08 0
0.0745411 3.41821e-08 0
0.0917055 2.38351e-08 0
0.11167 2.93684e-08 0
0.13845 2.24047e-07 0
0.163024 1.95953e-06 0
0.181377 2.37589e-05 0
0.1976 0.00022943 0
0.19706 0.000380098 0
0.19191 0.000321477 0
0.0222033 1.84757e-07 0
0.0620323 7.13561e-08 0
0.0792995 4.95048e-08 0
0.0934841 3.67228e-08 0
0.111286 4.56148e-08 0
0.139014 3.74935e-07 0
0.162863 3.13099e-06 0
0.178076 2.54505e-05 0
0.19126 0.00016516 0
0.192292 0.000245517 0
0.189841 0.000240386 0
0.0233027 2.10332e-07 0
0.064352 8.26035e-08 0
0.0809086 5.92374e-08 0
0.0944245 4.51534e-08 0
0.111786 6.01297e-08 0
0.13942 4.94541e-07 0
0.162222 3.74364e-06 0
0.175134 2.281e-05 0
0.18622 0.000112627 0
0.188678 0.000185067 0
0.187383 0.000197087 0
0.0242227 2.33689e-07 0
0.0661815 9.34277e-08 0
0.0822544 6.88293e-08 0
0.0953262 5.36638e-08 0
0.112471 7.77137e-08 0
0.13965 6.23534e-07 0
0.161246 4.14216e-06 0
0.172066 1.92719e-05 0
0.181269 7.39346e-05 0
0.185093 0.000137267 0
0.185109 0.000164523 0
0.0251707 2.65119e-07 0
0.0679609 1.08592e-07 0
0.0835984 8.23687e-08 0
0.096258 6.5863e-08 0
0.113145 1.04106e-07 0
0.139349 7.87695e-07 0
0.15955 4.35091e-06 0
0.168379 1.55314e-05 0
0.175877 4.70824e-05 0
0.180325 9.13189e-05 0
0.182117 0.000130209 0
0.0258205 3.1248e-07 0
0.0690923 1.31725e-07 0
0.0844083 1.0265e-07 0
0.0967536 8.4092e-08 0
0.113147 1.36826e-07 0
0.13775 9.34986e-07 0
0.156982 4.33692e-06 0
0.164533 1.25691e-05 0
0.171047 3.29628e-05 0
0.175332 6.14073e-05 0
0.178417 9.9082e-05 0
0.0257306 3.77231e-07 0
0.0689623 1.62747e-07 0
0.0842123 1.28947e-07 0
0.0964794 1.07243e-07 0
0.112289 1.64945e-07 0
0.135231 1.01016e-06 0
0.15414 4.50594e-06 0
0.161386 1.08374e-05 0
0.167619 2.70177e-05 0
0.171786 4.91992e-05 0
0.17535 8.28488e-05 0
0.0250289 4.54275e-07 0
0.0678911 1.99016e-07 0
0.0833 1.58748e-07 0
0.0956659 1.32938e-07 0
0.110963 1.83599e-07 0
0.132641 1.03293e-06 0
0.151486 4.58736e-06 0
0.15908 9.97499e-06 0
0.165384 2.48799e-05 0
0.169631 4.57189e-05 0
0.173387 7.85677e-05 0
0.0242096 5.36351e-07 0
0.0666046 2.37858e-07 0
0.0822037 1.90298e-07 0
0.0946605 1.60063e-07 0
0.109492 1.95042e-07 0
0.130292 1.03479e-06 0
0.148994 4.5809e-06 0
0.157267 9.58955e-06 0
0.163754 2.40382e-05 0
0.168118 4.483e-05 0
0.17199 7.8155e-05 0
0.0234377 6.23435e-07 0
0.0653158 2.8001e-07 0
0.081057 2.24515e-07 0
0.093527 1.89697e-07 0
0.107887 2.01178e-07 0
0.128053 1.02464e-06 0
0.146532 4.50429e-06 0
0.155573 9.68604e-06 0
0.162311 2.34349e-05 0
0.166767 4.41881e-05 0
0.17067 7.7371e-05 0
VERTICES 121 242
1 0
1 1
1 2
1 3
1 4
1 5
1 6
1 7
1 8
1 9
1 10
1 11
1 12
1 13
1 14
1 15
1 16
1 17
1 18
1 19
1 20
1 21
1 22
1 23
1 24
1 25
1 26
1 27
1 28
1 29
1 30
1 31
1 32
1 33
1 34
1 35
1 36
1 37
1 38
1 39
1 40
1 41
1 42
1 43
1 44
1 45
1 46
1 47
1 48
1 49
1 50
1 51
1 52
1 53
1 54
1 55
1 56
1 57
1 58
1 59
1 60
1 61
1 62
1 63
1 64
1 65
1 66
1 67
1 68
1 69
1 70
1 71
1 72
1 73
1 74
1 75
1 76
1 77
1 78
1 79
1 80
1 81
1 82
1 83
1 84
1 85
1 86
1 87
1 88
1 89
1 90
1 91
1 92
1 93
1 94
1 95
1 96
1 97
1 98
1 99
1 100
1 101
1 102
1 103
1 104
1 105
1 106
1 107
1 108
1 109
1 110
1 111
1 112
1 113
1 114
1 115
1 116
1 117
1 118
1 119
1 120
POINT_DATA 121
VECTORS velocity double
4.85474 7.5875 0
2.58476 5.5163 0
1.21771 4.1392 0
0.788165 3.37787 0
0.45001 2.95077 0
0.393722 3.42401 0
0.225723 3.40532 0
-0.320033 1.48076 0
-1.0275 -0.0934163 0
-5.91787 6.73246 0
-8.64372 10.4714 0
3.39533 1.86953 0
0.733801 0.679662 0
0.0169098 0.156794 0
0.197614 -0.2346 0
0.309342 -0.477152 0
0.34207 -0.18942 0
0.302403 -0.220936 0
0.176889 -1.18345 0
0.0756955 -2.13004 0
-0.960517 -0.586384 0
-1.18141 0.305987 0
2.3641 -2.0854 0
-0.492088 -2.4878 0
-0.729946 -2.65256 0
-0.188119 -2.83554 0
0.224774 -2.97264 0
0.335666 -2.86016 0
0.407831 -2.87562 0
0.561415 -3.10442 0
0.75517 -3.38043 0
0.795209 -3.32192 0
1.09448 -3.32881 0
2.34712 -2.7262 0
-0.437981 -3.00029 0
-0.639068 -3.13039 0
-0.132226 -3.27615 0
0.273791 -3.38737 0
0.414687 -3.34048 0
0.495957 -3.35165 0
0.568167 -3.35304 0
0.661362 -3.37716 0
0.431874 -3.48775 0
0.461442 -3.64068 0
2.38644 -3.18033 0
-0.282336 -3.37767 0
-0.473721 -3.46476 0
-0.046054 -3.56711 0
0.307926 -3.64215 0
0.479282 -3.62313 0
0.564308 -3.62249 0
0.508946 -3.49215 0
0.451832 -3.38657 0
-0.096526 -3.56976 0
-0.339649 -3.84866 0
2.36279 -3.53741 0
-0.177122 -3.70816 0
-0.369174 -3.75405 0
-0.0121625 -3.80612 0
0.291789 -3.832 0
0.486287 -3.80308 0
0.590141 -3.79015 0
0.473793 -3.64062 0
0.343833 -3.51817 0
-0.352956 -3.69698 0
-0.854707 -3.99213 0
2.18082 -3.7857 0
-0.191043 -3.97031 0
-0.375697 -3.9807 0
-0.0534687 -3.98674 0
0.225944 -3.97201 0
0.424539 -3.92692 0
0.556345 -3.90239 0
0.448792 -3.79019 0
0.314096 -3.69206 0
-0.368171 -3.85796 0
-1.0233 -4.12575 0
1.86517 -4.05907 0
-0.231513 -4.24845 0
-0.398043 -4.23366 0
-0.10847 -4.20764 0
0.151082 -4.16737 0
0.352733 -4.10435 0
0.492469 -4.04111 0
0.38348 -3.97423 0
0.220307 -3.89023 0
-0.405685 -4.03597 0
-1.07549 -4.27407 0
1.47887 -4.4952 0
-0.250492 -4.64982 0
-0.400089 -4.61761 0
-0.168227 -4.56945 0
0.0552888 -4.51098 0
0.26335 -4.43009 0
0.420187 -4.3347 0
0.305896 -4.29227 0
0.116479 -4.21441 0
-0.4639 -4.31257 0
-1.10819 -4.48718 0
1.08954 -5.26233 0
-0.282786 -5.33791 0
-0.422314 -5.27842 0
-0.262805 -5.20377 0
-0.0869512 -5.11962 0
0.130965 -5.01071 0
0.314919 -4.87949 0
0.220911 -4.84465 0
0.0352627 -4.77605 0
-0.525092 -4.80741 0
-1.1606 -4.88366 0
0.648392 -6.55412 0
-0.380406 -6.52585 0
-0.50921 -6.43674 0
-0.437027 -6.32969 0
-0.32439 -6.1813 0
-0.0896107 -6.03325 0
0.146333 -5.81844 0
0.0951678 -5.7832 0
-0.0468718 -5.73781 0
-0.588551 -5.6722 0
-1.2177 -5.61385 0
SCALARS mass double 1
LOOKUP_TABLE default
2.67769
2.67769
2.67769
2.67769
2.67769
2.67769
2.67769
2.67769
2.67769
2.67769
2.67769
2.67769
2.67769
2.67769
2.67769
2.67769
2.67769
2.67769
2.67769
2.67769
2.67769
2.67769
2.67769
2.67769
2.67769
2.67769
2.67769
2.67769
2.67769
2.67769
2.67769
2.67769
2.67769
2.67769
2.67769
2.67769
2.67769
2.67769
2.67769
2.67769
2.67769
2.67769
2.67769
2.67769
2.67769
2.67769
2.67769
2.67769
2.67769
2.67769
2.67769
2.67769
2.67769
2.67769
2.67769
2.67769
2.67769
2.67769
2.67769
2.67769
2.67769
2.67769
2.67769
2.67769
2.67769
2.67769
2.67769
2.67769
2.67769
2.67769
2.67769
2.67769
2.67769
2.67769
2.67769
2.67769
2.67769
2.67769
2.67769
2.67769
2.67769
2.67769
2.67769
2.67769
2.67769
2.67769
2.67769
2.67769
2.67769
2.67769
2.67769
2.67769
2.67769
2.67769
2.67769
2.67769
2.67769
2.67769
2.67769
2.67769
2.67769
2.67769
2.67769
2.67769
2.67769
2.67769
2.67769
2.67769
2.67769
2.67769
2.67769
2.67769
2.67769
2.67769
2.67769
2.67769
2.67769
2.67769
2.67769
2.67769
2.67769
SCALARS volume double 1
LOOKUP_TABLE default
3.26489e-09
1.5556e-09
6.87782e-10
4.4028e-10
6.22287e-10
4.32884e-09
3.37977e-08
6.94236e-07
8.86458e-06
7.89888e-06
1.84233e-06
3.84748e-09
1.46095e-09
4.66833e-10
3.2993e-10
6.24835e-10
4.76092e-09
2.97302e-08
3.55224e-07
1.92856e-06
1.03048e-06
4.58037e-07
1.81518e-09
5.43751e-10
2.04719e-10
1.64735e-10
4.1577e-10
3.49335e-09
1.75743e-08
1.50043e-07
5.39359e-07
2.46013e-07
9.51968e-08
1.58338e-09
4.39194e-10
1.74257e-10
1.45993e-10
4.22483e-10
3.63437e-09
1.45286e-08
9.05296e-08
2.91614e-07
1.59345e-07
6.47691e-08
1.74744e-09
4.5718e-10
1.8932e-10
1.63568e-10
5.33844e-10
4.50944e-09
1.39347e-08
6.4832e-08
1.72611e-07
1.43023e-07
5.82512e-08
2.62988e-09
6.34549e-10
2.73249e-10
2.38824e-10
8.59468e-10
6.95878e-09
1.53312e-08
5.19099e-08
1.06455e-07
1.37612e-07
8.41603e-08
3.59682e-09
8.02574e-10
3.4581e-10
3.04982e-10
1.082e-09
7.92855e-09
1.34243e-08
3.46841e-08
6.12562e-08
9.08257e-08
8.44003e-08
4.23073e-09
9.05547e-10
3.9192e-10
3.38845e-10
1.05985e-09
6.84985e-09
1.16289e-08
2.34671e-08
3.94698e-08
5.79306e-08
7.16661e-08
4.34481e-09
9.52606e-10
4.07645e-10
3.50179e-10
9.08418e-10
5.29832e-09
1.04387e-08
1.72495e-08
2.9692e-08
4.40609e-08
6.27226e-08
4.37141e-09
1.05134e-09
4.29577e-10
3.72877e-10
8.07705e-10
4.39637e-09
1.04963e-08
1.48153e-08
2.62082e-08
3.84733e-08
5.93056e-08
4.48089e-09
1.1599e-09
4.6814e-10
4.02181e-10
7.44056e-10
2.09455e-09
1.03223e-08
1.43978e-08
2.3963e-08
3.58725e-08
5.65035e-08
TENSORS stress double
5076.68 29711.7 0
29711.7 2926.41 0
0 0 0
5076.68 94487.8 0
94487.8 2587.86 0
0 0 0
5076.67 87034.3 0
87034.3 2274.87 0
0 0 0
5076.67 32141.1 0
32141.1 1986.11 0
0 0 0
5076.67 -19437.4 0
-19437.4 2455.44 0
0 0 0
5076.67 -65701.8 0
-65701.8 4958.47 0
0 0 0
5076.65 -115310 0
-115310 7274.44 0
0 0 0
5076.23 -185184 0
-185184 8892.84 0
0 0 0
5068.98 -237979 0
-237979 10396.3 0
0 0 0
5052.57 -192130 0
-192130 9915.96 0
0 0 0
5064.48 -148163 0
-148163 9137.36 0
0 0 0
5076.68 32202.6 0
32202.6 2876.03 0
0 0 0
5076.67 109039 0
109039 2450.59 0
0 0 0
5076.67 67144.9 0
67144.9 2176.43 0
0 0 0
5076.67 22951.6 0
22951.6 1951.48 0
0 0 0
5076.67 -19437 0
-19437 2400.74 0
0 0 0
5076.66 -67928.3 0
-67928.3 5021.14 0
0 0 0
5076.61 -113790 0
-113790 7292.42 0
0 0 0
5075.86 -171698 0
-171698 8610.55 0
0 0 0
5068.87 -209154 0
-209154 9769.44 0
0 0 0
5063.74 -152367 0
-152367 9725.55 0
0 0 0
5065.69 -121491 0
-121491 9357.37 0
0 0 0
5076.68 32661.3 0
32661.3 2830.33 0
0 0 0
5076.67 83160.9 0
83160.9 2340.37 0
0 0 0
5076.67 47055.6 0
47055.6 2114.07 0
0 0 0
5076.67 14971.9 0
14971.9 1928.17 0
0 0 0
5076.67 -17744.8 0
-17744.8 2363.1 0
0 0 0
5076.65 -69888.7 0
-69888.7 5076.34 0
0 0 0
5076.57 -112140 0
-112140 7280.81 0
0 0 0
5075.8 -161323 0
-161323 8373.25 0
0 0 0
5071.03 -191918 0
-191918 9315.96 0
0 0 0
5068.29 -137701 0
-137701 9387.37 0
0 0 0
5068.45 -89302.4 0
-89302.4 9211.43 0
0 0 0
5076.68 35290 0
35290 2817.07 0
0 0 0
5076.67 77458.1 0
77458.1 2309.97 0
0 0 0
5076.67 43356.3 0
43356.3 2092.98 0
0 0 0
5076.67 14198.4 0
14198.4 1915.85 0
0 0 0
5076.67 -16796.7 0
-16796.7 2412.1 0
0 0 0
5076.65 -70641.1 0
-70641.1 5116.11 0
0 0 0
5076.54 -107531 0
-107531 7234.71 0
0 0 0
5075.89 -150607 0
-150607 8161.93 0
0 0 0
5072.81 -185292 0
-185292 8955.51 0
0 0 0
5070.34 -142993 0
-142993 9129.69 0
0 0 0
5069.92 -92597.6 0
-92597.6 9036.2 0
0 0 0
5076.68 38471.8 0
38471.8 2805.98 0
0 0 0
5076.67 73975.9 0
73975.9 2285.99 0
0 0 0
5076.67 41301.6 0
41301.6 2075.34 0
0 0 0
5076.67 13876.1 0
13876.1 1904.03 0
0 0 0
5076.67 -16778.9 0
-16778.9 2479.09 0
0 0 0
5076.64 -70996.7 0
-70996.7 5138.54 0
0 0 0
5076.53 -101752 0
-101752 7164.53 0
0 0 0
5076.01 -138093 0
-138093 7941.54 0
0 0 0
5074.13 -171275 0
-171275 8601.02 0
0 0 0
5071.96 -154701 0
-154701 8873.67 0
0 0 0
5071.03 -97549.5 0
-97549.5 8873.93 0
0 0 0
5076.68 41428.8 0
41428.8 2794.56 0
0 0 0
5076.67 69762.6 0
69762.6 2262.67 0
0 0 0
5076.67 38017.9 0
38017.9 2057.73 0
0 0 0
5076.67 12923.4 0
12923.4 1891.82 0
0 0 0
5076.67 -17189.9 0
-17189.9 2545.03 0
0 0 0
5076.63 -70796.1 0
-70796.1 5109.13 0
0 0 0
5076.52 -94605.1 0
-94605.1 7042.63 0
0 0 0
5076.14 -121649 0
-121649 7676.72 0
0 0 0
5075.05 -146996 0
-146996 8214.48 0
0 0 0
5073.53 -155020 0
-155020 8532.6 0
0 0 0
5072.2 -115119 0
-115119 8660.03 0
0 0 0
5076.68 42886.6 0
42886.6 2786.72 0
0 0 0
5076.67 64084.6 0
64084.6 2247.84 0
0 0 0
5076.67 34648.9 0
34648.9 2047.11 0
0 0 0
5076.67 12006.4 0
12006.4 1885.32 0
0 0 0
5076.67 -16394 0
-16394 2545.25 0
0 0 0
5076.62 -67469.8 0
-67469.8 4952.68 0
0 0 0
5076.42 -87701.7 0
-87701.7 6834.42 0
0 0 0
5076.24 -104705 0
-104705 7400.45 0
0 0 0
5075.53 -122692 0
-122692 7867.83 0
0 0 0
5074.55 -137620 0
-137620 8174.81 0
0 0 0
5073.26 -117813 0
-117813 8395.22 0
0 0 0
5076.68 42037.7 0
42037.7 2787.8 0
0 0 0
5076.67 61089.4 0
61089.4 2249.54 0
0 0 0
5076.67 33077.1 0
33077.1 2049.68 0
0 0 0
5076.67 12330.9 0
12330.9 1888.91 0
0 0 0
5076.66 -13536.1 0
-13536.1 2461.27 0
0 0 0
5076.61 -60769.5 0
-60769.5 4706.15 0
0 0 0
5076.41 -85586.6 0
-85586.6 6556.32 0
0 0 0
5076.3 -90699.3 0
-90699.3 7174.41 0
0 0 0
5075.74 -104895 0
-104895 7621.76 0
0 0 0
5074.97 -117785 0
-117785 7920.41 0
0 0 0
5073.81 -111068 0
-111068 8175.34 0
0 0 0
5076.68 39921.6 0
39921.6 2796.26 0
0 0 0
5076.67 60670.7 0
60670.7 2263.58 0
0 0 0
5076.67 33951.8 0
33951.8 2061.64 0
0 0 0
5076.67 13707.9 0
13707.9 1899.57 0
0 0 0
5076.66 -9553.21 0
-9553.21 2331.52 0
0 0 0
5076.61 -53215.5 0
-53215.5 4452.74 0
0 0 0
5076.4 -84611.8 0
-84611.8 6296.63 0
0 0 0
5076.33 -81140.5 0
-81140.5 7008.7 0
0 0 0
5075.81 -93736.4 0
-93736.4 7461.19 0
0 0 0
5075.09 -104599 0
-104599 7765.69 0
0 0 0
5073.95 -106085 0
-106085 8034.41 0
0 0 0
5076.68 38355.8 0
38355.8 2806.13 0
0 0 0
5076.67 61564.1 0
61564.1 2280.44 0
0 0 0
5076.67 36412.2 0
36412.2 2076 0
0 0 0
5076.67 15627 0
15627 1912.75 0
0 0 0
5076.66 -5366.09 0
-5366.09 2187.6 0
0 0 0
5076.61 -46344.6 0
-46344.6 4222.82 0
0 0 0
5076.4 -85055.1 0
-85055.1 6052.76 0
0 0 0
5076.1 -75721.3 0
-75721.3 6862.14 0
0 0 0
5075.84 -86383.7 0
-86383.7 7344.05 0
0 0 0
5075.12 -97568.5 0
-97568.5 7656.97 0
0 0 0
5073.97 -104885 0
-104885 7934.07 0
0 0 0
5076.68 36800.4 0
36800.4 2815.43 0
0 0 0
5076.67 62179.7 0
62179.7 2297.33 0
0 0 0
5076.67 37139.6 0
37139.6 2091.03 0
0 0 0
5076.67 16972.2 0
16972.2 1927.6 0
0 0 0
5076.66 -1465.25 0
-1465.25 2030.54 0
0 0 0
5076.61 -41544.3 0
-41544.3 4003.79 0
0 0 0
5076.4 -80261.9 0
-80261.9 5811.88 0
0 0 0
5076.1 -74542.5 0
-74542.5 6696.33 0
0 0 0
5075.86 -81111.5 0
-81111.5 7240.4 0
0 0 0
5075.14 -91873.3 0
-91873.3 7559.92 0
0 0 0
5073.99 -101278 0
-101278 7839.22 0
0 0 0
TENSORS strain double
0.129853 0.297117 0
0.297117 -12.1159 0
0 0 0
0.120967 0.944878 0
0.944878 -12.8104 0
0 0 0
-0.123147 0.870343 0
0.870343 -13.3478 0
0 0 0
-0.118155 0.321411 0
0.321411 -13.773 0
0 0 0
0.0234034 -0.194374 0
-0.194374 -13.5898 0
0 0 0
0.0229912 -0.657018 0
-0.657018 -11.7721 0
0 0 0
-0.0868212 -1.1531 0
-1.1531 -9.70837 0
0 0 0
-0.0930512 -1.85184 0
-1.85184 -6.78485 0
0 0 0
-0.417562 -2.37979 0
-2.37979 -3.9665 0
0 0 0
-1.6534 -1.9213 0
-1.9213 -2.8344 0
0 0 0
-2.40523 -1.48163 0
-1.48163 -3.48479 0
0 0 0
0.387777 0.322026 0
0.322026 -12.2077 0
0 0 0
0.319544 1.09039 0
1.09039 -13.0576 0
0 0 0
-0.367003 0.671449 0
0.671449 -13.4786 0
0 0 0
-0.353705 0.229516 0
0.229516 -13.8188 0
0 0 0
0.0702272 -0.19437 0
-0.19437 -13.6295 0
0 0 0
0.068944 -0.679283 0
-0.679283 -11.7256 0
0 0 0
-0.261309 -1.1379 0
-1.1379 -9.65972 0
0 0 0
-0.276073 -1.71698 0
-1.71698 -7.2541 0
0 0 0
-0.846839 -2.09154 0
-2.09154 -5.04099 0
0 0 0
-1.94767 -1.52367 0
-1.52367 -4.54348 0
0 0 0
-2.57024 -1.21491 0
-1.21491 -4.70261 0
0 0 0
0.575676 0.326613 0
0.326613 -13.1404 0
0 0 0
0.14753 0.831609 0
0.831609 -13.8529 0
0 0 0
-0.554406 0.470556 0
0.470556 -14.1001 0
0 0 0
-0.53901 0.149719 0
0.149719 -14.317 0
0 0 0
0.105982 -0.177448 0
-0.177448 -14.0682 0
0 0 0
0.104177 -0.698887 0
-0.698887 -12.0707 0
0 0 0
-0.422388 -1.1214 0
-1.1214 -10.0171 0
0 0 0
-0.44423 -1.61323 0
-1.61323 -7.92904 0
0 0 0
-1.07734 -1.91918 0
-1.91918 -6.05929 0
0 0 0
-2.01002 -1.37701 0
-1.37701 -5.88904 0
0 0 0
-2.58198 -0.893024 0
-0.893024 -6.23127 0
0 0 0
0.624234 0.3529 0
0.3529 -13.3239 0
0 0 0
0.0908805 0.774581 0
0.774581 -14.0043 0
0 0 0
-0.604422 0.433563 0
0.433563 -14.206 0
0 0 0
-0.592859 0.141984 0
0.141984 -14.38 0
0 0 0
0.10279 -0.167967 0
-0.167967 -14.0513 0
0 0 0
0.101486 -0.706411 0
-0.706411 -12.03 0
0 0 0
-0.560612 -1.07531 0
-1.07531 -10.0627 0
0 0 0
-0.592421 -1.50607 0
-1.50607 -8.27026 0
0 0 0
-1.06187 -1.85292 0
-1.85292 -6.67345 0
0 0 0
-1.90293 -1.42993 0
-1.42993 -6.42076 0
0 0 0
-2.47739 -0.925976 0
-0.925976 -6.71026 0
0 0 0
0.663163 0.384718 0
0.384718 -13.2637 0
0 0 0
0.0443084 0.739759 0
0.739759 -13.914 0
0 0 0
-0.641268 0.413016 0
0.413016 -14.0841 0
0 0 0
-0.633226 0.138761 0
0.138761 -14.2247 0
0 0 0
0.0862959 -0.167789 0
-0.167789 -13.8054 0
0 0 0
0.0850041 -0.709967 0
-0.709967 -11.7998 0
0 0 0
-0.709085 -1.01752 0
-1.01752 -9.94916 0
0 0 0
-0.750069 -1.38093 0
-1.38093 -8.43083 0
0 0 0
-1.13244 -1.71275 0
-1.71275 -7.10917 0
0 0 0
-1.73455 -1.54701 0
-1.54701 -6.69404 0
0 0 0
-2.38578 -0.975495 0
-0.975495 -6.90166 0
0 0 0
0.701786 0.414288 0
0.414288 -12.8949 0
0 0 0
-0.0113368 0.697626 0
0.697626 -13.528 0
0 0 0
-0.677616 0.380179 0
0.380179 -13.6824 0
0 0 0
-0.674014 0.129234 0
0.129234 -13.8076 0
0 0 0
0.0511973 -0.171899 0
-0.171899 -13.3004 0
0 0 0
0.0487264 -0.707961 0
-0.707961 -11.3316 0
0 0 0
-0.882819 -0.946051 0
-0.946051 -9.67161 0
0 0 0
-0.928454 -1.21649 0
-1.21649 -8.45743 0
0 0 0
-1.28371 -1.46996 0
-1.46996 -7.41998 0
0 0 0
-1.59631 -1.5502 0
-1.5502 -6.86426 0
0 0 0
-2.1061 -1.15119 0
-1.15119 -6.82685 0
0 0 0
0.727448 0.428866 0
0.428866 -12.6096 0
0 0 0
-0.0348539 0.640846 0
0.640846 -13.2682 0
0 0 0
-0.70429 0.346489 0
0.346489 -13.4215 0
0 0 0
-0.704363 0.120064 0
0.120064 -13.5345 0
0 0 0
-0.00697046 -0.16394 0
-0.16394 -13.0142 0
0 0 0
-0.0123801 -0.674698 0
-0.674698 -11.1361 0
0 0 0
-1.01532 -0.877017 0
-0.877017 -9.65963 0
0 0 0
-1.06859 -1.04705 0
-1.04705 -8.69994 0
0 0 0
-1.39931 -1.22692 0
-1.22692 -7.83357 0
0 0 0
-1.58454 -1.3762 0
-1.3762 -7.27326 0
0 0 0
-1.91814 -1.17813 0
-1.17813 -7.01075 0
0 0 0
0.723961 0.420377 0
0.420377 -12.447 0
0 0 0
-0.0447552 0.610894 0
0.610894 -13.1388 0
0 0 0
-0.708174 0.330771 0
0.330771 -13.2943 0
0 0 0
-0.709817 0.123309 0
0.123309 -13.4255 0
0 0 0
-0.069588 -0.135361 0
-0.135361 -12.9694 0
0 0 0
-0.078103 -0.607695 0
-0.607695 -11.2081 0
0 0 0
-1.02514 -0.855866 0
-0.855866 -9.78626 0
0 0 0
-1.1289 -0.906993 0
-0.906993 -9.01285 0
0 0 0
-1.42841 -1.04895 0
-1.04895 -8.22566 0
0 0 0
-1.60264 -1.17785 0
-1.17785 -7.68671 0
0 0 0
-1.79271 -1.11068 0
-1.11068 -7.29159 0
0 0 0
0.696172 0.399216 0
0.399216 -12.3963 0
0 0 0
-0.0317136 0.606707 0
0.606707 -13.1049 0
0 0 0
-0.696878 0.339518 0
0.339518 -13.2686 0
0 0 0
-0.699304 0.137079 0
0.137079 -13.4052 0
0 0 0
-0.119765 -0.0955321 0
-0.0955321 -13.0675 0
0 0 0
-0.130272 -0.532155 0
-0.532155 -11.4029 0
0 0 0
-0.948633 -0.846118 0
-0.846118 -9.96765 0
0 0 0
-1.12962 -0.811405 0
-0.811405 -9.30717 0
0 0 0
-1.40366 -0.937364 0
-0.937364 -8.52353 0
0 0 0
-1.57589 -1.04599 0
-1.04599 -7.97618 0
0 0 0
-1.68112 -1.06085 0
-1.06085 -7.53056 0
0 0 0
0.662718 0.383558 0
0.383558 -12.3598 0
0 0 0
0.00308141 0.615641 0
0.615641 -13.0462 0
0 0 0
-0.686538 0.364122 0
0.364122 -13.2289 0
0 0 0
-0.689545 0.15627 0
0.15627 -13.3551 0
0 0 0
-0.155683 -0.0536609 0
-0.0536609 -13.1426 0
0 0 0
-0.167481 -0.463446 0
-0.463446 -11.5435 0
0 0 0
-0.803822 -0.850551 0
-0.850551 -10.105 0
0 0 0
-1.10233 -0.757213 0
-0.757213 -9.47896 0
0 0 0
-1.3649 -0.863837 0
-0.863837 -8.6806 0
0 0 0
-1.5452 -0.975685 0
-0.975685 -8.13603 0
0 0 0
-1.61638 -1.04885 0
-1.04885 -7.64803 0
0 0 0
0.630157 0.368004 0
0.368004 -12.3052 0
0 0 0
0.0332668 0.621797 0
0.621797 -12.9827 0
0 0 0
-0.681231 0.371396 0
0.371396 -13.1516 0
0 0 0
-0.683715 0.169722 0
0.169722 -13.2881 0
0 0 0
-0.18089 -0.0146525 0
-0.0146525 -13.1921 0
0 0 0
-0.193526 -0.415443 0
-0.415443 -12.0867 0
0 0 0
-0.702618 -0.802619 0
-0.802619 -10.2184 0
0 0 0
-1.05212 -0.745425 0
-0.745425 -9.55504 0
0 0 0
-1.33592 -0.811115 0
-0.811115 -8.79342 0
0 0 0
-1.52506 -0.918733 0
-0.918733 -8.22163 0
0 0 0
-1.58396 -1.01278 0
-1.01278 -7.72578 0
0 0 0
