# vtk DataFile Version 3.0
MPM2D particles
ASCII
DATASET POLYDATA
POINTS 121 double
0.0142315 2.11481e-05 0
0.0423182 1.40677e-05 0
0.0670289 1.04263e-05 0
0.0890633 8.34809e-06 0
0.11223 7.86484e-06 0
0.137811 1.14689e-05 0
0.16278 2.10055e-05 0
0.185363 8.56526e-05 0
0.206897 0.000337145 0
0.202008 0.00157934 0
0.190393 0.00177185 0
0.0184083 6.04167e-05 0
0.0536167 3.69579e-05 0
0.0745388 2.9413e-05 0
0.0917049 2.45139e-05 0
0.111671 2.34023e-05 0
0.138455 3.47678e-05 0
0.163045 6.50834e-05 0
0.181509 0.000209555 0
0.198349 0.000626168 0
0.198318 0.00106141 0
0.193161 0.00129615 0
0.0221974 8.90702e-05 0
0.062026 5.39288e-05 0
0.0792966 4.47553e-05 0
0.0934833 3.8474e-05 0
0.111287 3.72212e-05 0
0.139022 5.62292e-05 0
0.162896 0.000105189 0
0.178234 0.000284247 0
0.191918 0.000709282 0
0.193237 0.000971728 0
0.190843 0.00113143 0
0.0232956 0.000102696 0
0.064345 6.39486e-05 0
0.0809054 5.44567e-05 0
0.0944236 4.77717e-05 0
0.111788 4.75723e-05 0
0.139431 7.23648e-05 0
0.162262 0.000131752 0
0.175291 0.000314757 0
0.18675 0.00069545 0
0.189479 0.000951744 0
0.188273 0.00110921 0
0.0242144 0.000115319 0
0.0661738 7.37134e-05 0
0.0822509 6.41653e-05 0
0.0953253 5.73108e-05 0
0.112473 5.89413e-05 0
0.139663 8.99824e-05 0
0.161292 0.000156485 0
0.172213 0.000331806 0
0.18168 0.000652682 0
0.185763 0.000915383 0
0.185912 0.00109208 0
0.0251609 0.00013227 0
0.0679523 8.72738e-05 0
0.0835945 7.78671e-05 0
0.0962571 7.10244e-05 0
0.113148 7.57449e-05 0
0.139366 0.000115752 0
0.159601 0.000185951 0
0.168514 0.000349109 0
0.176192 0.000613633 0
0.180849 0.000860232 0
0.182819 0.00107383 0
0.0258085 0.000157073 0
0.0690822 0.000107115 0
0.0844037 9.78605e-05 0
0.0967526 9.11507e-05 0
0.113151 9.95366e-05 0
0.137771 0.000151343 0
0.157038 0.000220894 0
0.164658 0.000373387 0
0.171308 0.000609328 0
0.175751 0.000830391 0
0.179024 0.00106835 0
0.0257163 0.000189423 0
0.0689497 0.000132162 0
0.0842064 0.00012268 0
0.096478 0.000115913 0
0.112293 0.000126513 0
0.135255 0.000190469 0
0.154203 0.000271959 0
0.161506 0.000404672 0
0.167861 0.000640178 0
0.172166 0.00085994 0
0.175914 0.00111519 0
0.0250122 0.000226266 0
0.0678753 0.000159828 0
0.0832924 0.000149607 0
0.0956639 0.000142475 0
0.110968 0.000152827 0
0.132667 0.000227908 0
0.151556 0.000324532 0
0.1592 0.000440584 0
0.165624 0.000693227 0
0.170012 0.000933755 0
0.17396 0.00121817 0
0.0241907 0.000264629 0
0.0665852 0.000188489 0
0.082194 0.000177309 0
0.0946576 0.000169761 0
0.109497 0.000177793 0
0.130319 0.000263382 0
0.149069 0.00037631 0
0.157389 0.000479844 0
0.163999 0.000753849 0
0.168511 0.00102132 0
0.172589 0.00133962 0
0.0234166 0.000304862 0
0.0652923 0.000218945 0
0.081045 0.000206712 0
0.0935229 0.00019883 0
0.107891 0.000202525 0
0.128081 0.000298889 0
0.146611 0.000428993 0
0.155703 0.000536243 0
0.162562 0.000816079 0
0.167174 0.00110992 0
0.171291 0.00145832 0
VERTICES 121 242
1 0
1 1
1 2
1 3
1 4
1 5
1 6
1 7
1 8
1 9
1 10
1 11
1 12
1 13
1 14
1 15
1 16
1 17
1 18
1 19
1 20
1 21
1 22
1 23
1 24
1 25
1 26
1 27
1 28
1 29
1 30
1 31
1 32
1 33
1 34
1 35
1 36
1 37
1 38
1 39
1 40
1 41
1 42
1 43
1 44
1 45
1 46
1 47
1 48
1 49
1 50
1 51
1 52
1 53
1 54
1 55
1 56
1 57
1 58
1 59
1 60
1 61
1 62
1 63
1 64
1 65
1 66
1 67
1 68
1 69
1 70
1 71
1 72
1 73
1 74
1 75
1 76
1 77
1 78
1 79
1 80
1 81
1 82
1 83
1 84
1 85
1 86
1 87
1 88
1 89
1 90
1 91
1 92
1 93
1 94
1 95
1 96
1 97
1 98
1 99
1 100
1 101
1 102
1 103
1 104
1 105
1 106
1 107
1 108
1 109
1 110
1 111
1 112
1 113
1 114
1 115
1 116
1 117
1 118
1 119
1 120
POINT_DATA 121
VECTORS velocity double
5.17049 8.41827 0
2.90371 6.35177 0
1.43297 4.9773 0
0.842994 4.21737 0
0.376538 3.80003 0
0.28209 4.30524 0
0.0879907 4.28664 0
-0.445983 2.24709 0
-1.23106 0.570221 0
-6.38287 7.44535 0
-8.97897 11.235 0
3.7126 2.70116 0
1.04728 1.5171 0
0.177708 0.995496 0
0.233268 0.605164 0
0.23664 0.371474 0
0.229187 0.692702 0
0.163544 0.659274 0
0.0389787 -0.396211 0
-0.152497 -1.41975 0
-1.27064 0.131931 0
-1.48145 1.05087 0
2.68253 -1.25298 0
-0.239653 -1.64971 0
-0.603692 -1.81346 0
-0.165387 -1.99559 0
0.152591 -2.12443 0
0.221661 -1.97724 0
0.267642 -1.99442 0
0.418178 -2.29992 0
0.544886 -2.63841 0
0.540943 -2.58221 0
0.834521 -2.57585 0
2.66602 -1.89353 0
-0.202318 -2.16199 0
-0.524472 -2.29114 0
-0.116331 -2.43609 0
0.200816 -2.53849 0
0.299856 -2.45699 0
0.354552 -2.46707 0
0.423347 -2.53343 0
0.471144 -2.61052 0
0.202068 -2.73089 0
0.219948 -2.87618 0
2.70577 -2.34744 0
-0.0598869 -2.5392 0
-0.368873 -2.62536 0
-0.0367209 -2.72694 0
0.233875 -2.79237 0
0.363872 -2.73929 0
0.421584 -2.73283 0
0.363366 -2.65687 0
0.277665 -2.5957 0
-0.305802 -2.7958 0
-0.567066 -3.07336 0
2.68264 -2.70427 0
0.0325189 -2.86949 0
-0.274045 -2.9145 0
-0.00961307 -2.96583 0
0.216652 -2.9813 0
0.371001 -2.9195 0
0.445618 -2.8917 0
0.327267 -2.78652 0
0.180494 -2.70059 0
-0.541698 -2.9 0
-1.06709 -3.20244 0
2.50136 -2.95232 0
0.0106038 -3.13144 0
-0.286351 -3.14098 0
-0.0545154 -3.14632 0
0.150698 -3.12119 0
0.311269 -3.04519 0
0.411407 -2.9964 0
0.300848 -2.91643 0
0.155272 -2.85021 0
-0.543986 -3.03639 0
-1.2222 -3.31799 0
2.18652 -3.22556 0
-0.0285485 -3.40942 0
-0.307085 -3.39381 0
-0.107476 -3.36711 0
0.0770197 -3.3175 0
0.242918 -3.2256 0
0.351108 -3.13846 0
0.233972 -3.08434 0
0.0621765 -3.03095 0
-0.577537 -3.19655 0
-1.26863 -3.45093 0
1.80108 -3.66164 0
-0.0392444 -3.81067 0
-0.302237 -3.77765 0
-0.161224 -3.72883 0
-0.0168628 -3.66265 0
0.157184 -3.55441 0
0.2822 -3.43516 0
0.15495 -3.39053 0
-0.0425177 -3.34362 0
-0.63625 -3.46201 0
-1.30206 -3.65379 0
1.41263 -4.42875 0
-0.0616243 -4.49864 0
-0.316182 -4.43836 0
-0.248361 -4.36306 0
-0.156949 -4.27301 0
0.0281471 -4.13781 0
0.180173 -3.98284 0
0.0696752 -3.9373 0
-0.124968 -3.89678 0
-0.699095 -3.94888 0
-1.35714 -4.04274 0
0.972424 -5.72051 0
-0.149245 -5.68643 0
-0.394383 -5.59657 0
-0.414166 -5.4889 0
-0.392012 -5.33658 0
-0.18921 -5.16298 0
0.0148671 -4.92464 0
-0.0542301 -4.87774 0
-0.208283 -4.85102 0
-0.764132 -4.80653 0
-1.41641 -4.76583 0
SCALARS mass double 1
LOOKUP_TABLE default
2.67769
2.67769
2.67769
2.67769
2.67769
2.67769
2.67769
2.67769
2.67769
2.67769
2.67769
2.67769
2.67769
2.67769
2.67769
2.67769
2.67769
2.67769
2.67769
2.67769
2.67769
2.67769
2.67769
2.67769
2.67769
2.67769
2.67769
2.67769
2.67769
2.67769
2.67769
2.67769
2.67769
2.67769
2.67769
2.67769
2.67769
2.67769
2.67769
2.67769
2.67769
2.67769
2.67769
2.67769
2.67769
2.67769
2.67769
2.67769
2.67769
2.67769
2.67769
2.67769
2.67769
2.67769
2.67769
2.67769
2.67769
2.67769
2.67769
2.67769
2.67769
2.67769
2.67769
2.67769
2.67769
2.67769
2.67769
2.67769
2.67769
2.67769
2.67769
2.67769
2.67769
2.67769
2.67769
2.67769
2.67769
2.67769
2.67769
2.67769
2.67769
2.67769
2.67769
2.67769
2.67769
2.67769
2.67769
2.67769
2.67769
2.67769
2.67769
2.67769
2.67769
2.67769
2.67769
2.67769
2.67769
2.67769
2.67769
2.67769
2.67769
2.67769
2.67769
2.67769
2.67769
2.67769
2.67769
2.67769
2.67769
2.67769
2.67769
2.67769
2.67769
2.67769
2.67769
2.67769
2.67769
2.67769
2.67769
2.67769
2.67769
SCALARS volume double 1
LOOKUP_TABLE default
1.4355e-06
9.464e-07
5.47472e-07
4.40561e-07
4.79075e-07
6.98347e-07
1.14366e-06
4.63779e-06
1.32095e-05
1.79682e-05
9.33769e-06
1.77504e-06
1.01214e-06
4.01739e-07
3.39354e-07
4.9794e-07
7.38908e-07
9.87859e-07
3.13891e-06
5.30616e-06
2.91701e-06
1.87396e-06
8.74842e-07
4.11023e-07
1.85104e-07
1.72611e-07
3.39307e-07
5.2402e-07
5.90825e-07
1.67972e-06
2.33447e-06
9.84483e-07
4.53531e-07
7.72843e-07
3.40079e-07
1.60222e-07
1.54481e-07
3.34306e-07
5.31965e-07
5.11738e-07
1.25231e-06
1.813e-06
8.2762e-07
3.68637e-07
8.62e-07
3.60796e-07
1.76527e-07
1.74716e-07
4.0497e-07
6.50998e-07
5.26945e-07
1.11897e-06
1.5326e-06
9.62185e-07
3.90748e-07
1.31152e-06
5.1012e-07
2.58379e-07
2.57597e-07
6.2549e-07
1.02308e-06
6.55974e-07
1.16965e-06
1.39424e-06
1.30604e-06
7.00829e-07
1.80711e-06
6.52853e-07
3.29776e-07
3.30677e-07
7.87385e-07
1.28415e-06
6.84476e-07
1.03288e-06
1.13739e-06
1.23628e-06
9.18228e-07
2.12316e-06
7.35681e-07
3.73015e-07
3.66374e-07
8.13251e-07
1.29253e-06
7.02768e-07
8.78487e-07
9.3936e-07
1.01902e-06
9.73203e-07
2.16254e-06
7.65425e-07
3.84353e-07
3.75468e-07
7.56546e-07
1.17007e-06
7.39578e-07
7.63921e-07
8.31125e-07
9.05905e-07
9.81578e-07
2.155e-06
8.33637e-07
4.00479e-07
3.95678e-07
7.36708e-07
1.12011e-06
8.63697e-07
7.43057e-07
8.25927e-07
8.82751e-07
1.02672e-06
2.18907e-06
9.07593e-07
4.31301e-07
4.21808e-07
7.49533e-07
6.11668e-07
9.84944e-07
7.99133e-07
8.38796e-07
9.07878e-07
1.07636e-06
TENSORS stress double
5076.69 18146.3 0
18146.3 4317.49 0
0 0 0
5076.69 60093.3 0
60093.3 3987.11 0
0 0 0
5076.24 55193.4 0
55193.4 3735.36 0
0 0 0
5076.33 17034.4 0
17034.4 3535.76 0
0 0 0
5076.37 -13489.9 0
-13489.9 3617.52 0
0 0 0
5076.23 -27611.7 0
-27611.7 4456.67 0
0 0 0
5075.66 -46695.7 0
-46695.7 5485.85 0
0 0 0
5072.59 -92192.8 0
-92192.8 7196.75 0
0 0 0
5060.88 -122619 0
-122619 8821.93 0
0 0 0
5002.41 -85535.4 0
-85535.4 8408.6 0
0 0 0
4992.61 -53297.4 0
-53297.4 7519.96 0
0 0 0
5076.73 17244.6 0
17244.6 4266.85 0
0 0 0
5075.15 67016.3 0
67016.3 3855.91 0
0 0 0
5075.46 41009.7 0
41009.7 3666.59 0
0 0 0
5075.66 9852.52 0
9852.52 3511.21 0
0 0 0
5075.76 -14196.7 0
-14196.7 3598.61 0
0 0 0
5075.33 -29041.7 0
-29041.7 4476.92 0
0 0 0
5073.52 -44938.2 0
-44938.2 5504.35 0
0 0 0
5066.66 -83086.2 0
-83086.2 6900.05 0
0 0 0
5047.15 -103573 0
-103573 8163.45 0
0 0 0
5026.62 -47963.2 0
-47963.2 8146.16 0
0 0 0
5015.31 -22838 0
-22838 7746.58 0
0 0 0
5076.75 14624.7 0
14624.7 4221.16 0
0 0 0
5074.45 47526.7 0
47526.7 3779.06 0
0 0 0
5074.82 24535.3 0
24535.3 3622.89 0
0 0 0
5075.08 3224.52 0
3224.52 3494.56 0
0 0 0
5075.22 -12991.9 0
-12991.9 3585.49 0
0 0 0
5074.5 -30300.8 0
-30300.8 4494.74 0
0 0 0
5071.57 -43494 0
-43494 5491.64 0
0 0 0
5063.06 -76357.4 0
-76357.4 6648.93 0
0 0 0
5043.06 -93226.4 0
-93226.4 7672.54 0
0 0 0
5030.67 -38235.7 0
-38235.7 7763.55 0
0 0 0
5023.01 7363.28 0
7363.28 7576.27 0
0 0 0
5076.77 16361.3 0
16361.3 4207.73 0
0 0 0
5074.03 43586.2 0
43586.2 3757.67 0
0 0 0
5074.42 22058.8 0
22058.8 3607.95 0
0 0 0
5074.69 3165.88 0
3165.88 3485.69 0
0 0 0
5074.82 -11417.7 0
-11417.7 3601.54 0
0 0 0
5073.87 -30548.3 0
-30548.3 4507.56 0
0 0 0
5070.28 -39601 0
-39601 5442.59 0
0 0 0
5061.56 -68850.5 0
-68850.5 6424.55 0
0 0 0
5043.58 -91984 0
-91984 7280.73 0
0 0 0
5031.48 -47350.9 0
-47350.9 7479.02 0
0 0 0
5023.96 1482.29 0
1482.29 7381.98 0
0 0 0
5076.78 18796.8 0
18796.8 4196.44 0
0 0 0
5073.63 41494.1 0
41494.1 3740.73 0
0 0 0
5074.02 21026.9 0
21026.9 3595.39 0
0 0 0
5074.3 3529.01 0
3529.01 3477.16 0
0 0 0
5074.37 -10543.1 0
-10543.1 3623.59 0
0 0 0
5073.19 -30622.2 0
-30622.2 4514.51 0
0 0 0
5069.08 -34899.6 0
-34899.6 5368.06 0
0 0 0
5060.71 -59669.9 0
-59669.9 6190.4 0
0 0 0
5045.5 -83235.6 0
-83235.6 6897.46 0
0 0 0
5033.09 -62843.3 0
-62843.3 7198.17 0
0 0 0
5024.68 -5869.59 0
-5869.59 7203.29 0
0 0 0
5076.79 20985.1 0
20985.1 4184.66 0
0 0 0
5073.07 38633.1 0
38633.1 3724.1 0
0 0 0
5073.45 18764.8 0
18764.8 3582.69 0
0 0 0
5073.73 3284.96 0
3284.96 3468.19 0
0 0 0
5073.71 -10112.6 0
-10112.6 3645.09 0
0 0 0
5072.19 -30808.4 0
-30808.4 4503.82 0
0 0 0
5067.64 -29613.8 0
-29613.8 5238.7 0
0 0 0
5059.82 -47228 0
-47228 5909.09 0
0 0 0
5047.23 -64718.4 0
-64718.4 6482.38 0
0 0 0
5035.55 -68206.6 0
-68206.6 6827.13 0
0 0 0
5025.42 -26609.8 0
-26609.8 6969.19 0
0 0 0
5076.81 21917.3 0
21917.3 4176.1 0
0 0 0
5072.24 33815.5 0
33815.5 3713.11 0
0 0 0
5072.62 16012.2 0
16012.2 3574.6 0
0 0 0
5072.89 2745.72 0
2745.72 3462.94 0
0 0 0
5072.79 -9321.05 0
-9321.05 3644.3 0
0 0 0
5070.81 -29503.2 0
-29503.2 4450.17 0
0 0 0
5068.17 -25604.6 0
-25604.6 5079.76 0
0 0 0
5058.6 -34463 0
-34463 5615.64 0
0 0 0
5047.33 -45615 0
-45615 6111.83 0
0 0 0
5036.82 -56133.1 0
-56133.1 6441.21 0
0 0 0
5025.53 -33249.8 0
-33249.8 6681.29 0
0 0 0
5076.84 21144.9 0
21144.9 4175.98 0
0 0 0
5071.21 30723 0
30723 3713.37 0
0 0 0
5071.59 14293.1 0
14293.1 3575.45 0
0 0 0
5071.87 2863.61 0
2863.61 3464.49 0
0 0 0
5071.73 -7549.68 0
-7549.68 3615.14 0
0 0 0
5069.29 -25981.7 0
-25981.7 4366.15 0
0 0 0
5066.2 -27079.4 0
-27079.4 4984.87 0
0 0 0
5057.03 -23885 0
-23885 5375.39 0
0 0 0
5045.76 -31538.6 0
-31538.6 5849.13 0
0 0 0
5035.29 -40133.5 0
-40133.5 6168.05 0
0 0 0
5023.16 -29829.6 0
-29829.6 6443.54 0
0 0 0
5076.88 19603 0
19603 4182.88 0
0 0 0
5070.06 29492.2 0
29492.2 3722.06 0
0 0 0
5070.48 14476.5 0
14476.5 3582.72 0
0 0 0
5070.77 3624.52 0
3624.52 3470.87 0
0 0 0
5070.7 -5240.63 0
-5240.63 3570.66 0
0 0 0
5067.83 -21693.8 0
-21693.8 4279.84 0
0 0 0
5064.16 -29457.9 0
-29457.9 4896.06 0
0 0 0
5055.25 -16847.5 0
-16847.5 5199.03 0
0 0 0
5043.14 -22833.2 0
-22833.2 5677.49 0
0 0 0
5031.66 -29326.4 0
-29326.4 6001.93 0
0 0 0
5018.13 -27041.8 0
-27041.8 6291.52 0
0 0 0
5076.91 18707.2 0
18707.2 4191.12 0
0 0 0
5068.88 29410.1 0
29410.1 3732.67 0
0 0 0
5069.33 16105.9 0
16105.9 3591.63 0
0 0 0
5069.63 4781.74 0
4781.74 3478.95 0
0 0 0
5069.72 -2908.88 0
-2908.88 3521.45 0
0 0 0
5066.44 -17786.2 0
-17786.2 4201.46 0
0 0 0
5062.15 -33050.6 0
-33050.6 4812.54 0
0 0 0
5058.21 -13372.2 0
-13372.2 5081.76 0
0 0 0
5040.16 -17286.3 0
-17286.3 5551.97 0
0 0 0
5027.38 -23995.9 0
-23995.9 5884.89 0
0 0 0
5012.22 -27443.8 0
-27443.8 6183.12 0
0 0 0
5076.94 17783.3 0
17783.3 4198.72 0
0 0 0
5067.62 29048.5 0
29048.5 3743.25 0
0 0 0
5068.11 15964.2 0
15964.2 3600.93 0
0 0 0
5068.43 5267.85 0
5267.85 3488.14 0
0 0 0
5068.75 -1031.89 0
-1031.89 3467.84 0
0 0 0
5065.06 -15809.4 0
-15809.4 4126.71 0
0 0 0
5060.1 -31368.2 0
-31368.2 4729.95 0
0 0 0
5056.03 -14342.9 0
-14342.9 5024.34 0
0 0 0
5037.1 -13617.3 0
-13617.3 5440.69 0
0 0 0
5023.04 -19824.3 0
-19824.3 5780.17 0
0 0 0
5006.44 -25351.3 0
-25351.3 6080.32 0
0 0 0
TENSORS strain double
0.129789 0.181463 0
0.181463 -6.23184 0
0 0 0
0.120927 0.600933 0
0.600933 -6.62339 0
0 0 0
-0.123115 0.551934 0
0.551934 -6.91093 0
0 0 0
-0.118131 0.170344 0
0.170344 -7.12411 0
0 0 0
0.0234281 -0.134899 0
-0.134899 -7.18361 0
0 0 0
0.0230349 -0.276117 0
-0.276117 -6.82975 0
0 0 0
-0.0866932 -0.466957 0
-0.466957 -6.25628 0
0 0 0
-0.0922514 -0.921928 0
-0.921928 -4.90754 0
0 0 0
-0.412096 -1.22619 0
-1.22619 -3.57496 0
0 0 0
-1.63151 -0.855354 0
-0.855354 -2.03906 0
0 0 0
-2.38691 -0.532974 0
-0.532974 -1.89568 0
0 0 0
0.387596 0.172446 0
0.172446 -6.27852 0
0 0 0
0.319657 0.670163 0
0.670163 -6.7498 0
0 0 0
-0.366915 0.410097 0
0.410097 -6.9695 0
0 0 0
-0.353634 0.0985252 0
0.0985252 -7.14446 0
0 0 0
0.0703002 -0.141967 0
-0.141967 -7.19128 0
0 0 0
0.0690772 -0.290417 0
-0.290417 -6.81991 0
0 0 0
-0.260911 -0.449382 0
-0.449382 -6.22541 0
0 0 0
-0.274273 -0.830862 0
-0.830862 -5.10438 0
0 0 0
-0.838873 -1.03573 0
-1.03573 -4.04356 0
0 0 0
-1.93425 -0.479632 0
-0.479632 -3.52336 0
0 0 0
-2.55587 -0.22838 0
-0.22838 -3.32013 0
0 0 0
0.575412 0.146247 0
0.146247 -7.17036 0
0 0 0
0.147694 0.475267 0
0.475267 -7.46417 0
0 0 0
-0.554273 0.245353 0
0.245353 -7.54516 0
0 0 0
-0.538898 0.0322452 0
0.0322452 -7.62555 0
0 0 0
0.106098 -0.129919 0
-0.129919 -7.608 0
0 0 0
0.104393 -0.303008 0
-0.303008 -7.19734 0
0 0 0
-0.421747 -0.43494 0
-0.43494 -6.57183 0
0 0 0
-0.441948 -0.763574 0
-0.763574 -5.54922 0
0 0 0
-1.06967 -0.932264 0
-0.932264 -4.61475 0
0 0 0
-1.9992 -0.382357 0
-0.382357 -4.52482 0
0 0 0
-2.5701 0.0736328 0
0.0736328 -4.69657 0
0 0 0
0.62393 0.163613 0
0.163613 -7.34195 0
0 0 0
0.0910741 0.435862 0
0.435862 -7.59323 0
0 0 0
-0.604261 0.220588 0
0.220588 -7.63556 0
0 0 0
-0.592719 0.0316588 0
0.0316588 -7.67949 0
0 0 0
0.102938 -0.114177 0
-0.114177 -7.61977 0
0 0 0
0.101766 -0.305483 0
-0.305483 -7.17996 0
0 0 0
-0.559816 -0.39601 0
-0.39601 -6.57271 0
0 0 0
-0.590035 -0.688505 0
-0.688505 -5.6848 0
0 0 0
-1.0552 -0.91984 0
-0.91984 -4.87238 0
0 0 0
-1.89324 -0.473509 0
-0.473509 -4.79906 0
0 0 0
-2.46641 0.0148229 0
0.0148229 -5.00005 0
0 0 0
0.662823 0.187968 0
0.187968 -7.27189 0
0 0 0
0.0445311 0.414941 0
0.414941 -7.48529 0
0 0 0
-0.641078 0.210269 0
0.210269 -7.50068 0
0 0 0
-0.633059 0.0352901 0
0.0352901 -7.51551 0
0 0 0
0.0864808 -0.105431 0
-0.105431 -7.41306 0
0 0 0
0.0853527 -0.306222 0
-0.306222 -6.96285 0
0 0 0
-0.708154 -0.348996 0
-0.348996 -6.39109 0
0 0 0
-0.747694 -0.596699 0
-0.596699 -5.63072 0
0 0 0
-1.12683 -0.832356 0
-0.832356 -4.95857 0
0 0 0
-1.72597 -0.628433 0
-0.628433 -4.81761 0
0 0 0
-2.37552 -0.0586959 0
-0.0586959 -5.02974 0
0 0 0
0.701396 0.209851 0
0.209851 -6.89286 0
0 0 0
-0.0110738 0.386331 0
0.386331 -7.08222 0
0 0 0
-0.677386 0.187648 0
0.187648 -7.08606 0
0 0 0
-0.673807 0.0328496 0
0.0328496 -7.08944 0
0 0 0
0.051436 -0.101126 0
-0.101126 -6.94663 0
0 0 0
0.0491736 -0.308084 0
-0.308084 -6.47749 0
0 0 0
-0.881742 -0.296138 0
-0.296138 -5.99515 0
0 0 0
-0.926115 -0.47228 0
-0.47228 -5.39942 0
0 0 0
-1.27899 -0.647184 0
-0.647184 -4.88998 0
0 0 0
-1.58905 -0.682066 0
-0.682066 -4.6503 0
0 0 0
-2.09667 -0.266098 0
-0.266098 -4.74268 0
0 0 0
0.726985 0.219173 0
0.219173 -6.60056 0
0 0 0
-0.0345315 0.338155 0
0.338155 -6.81152 0
0 0 0
-0.704001 0.160122 0
0.160122 -6.8174 0
0 0 0
-0.704098 0.0274572 0
0.0274572 -6.81158 0
0 0 0
-0.00665674 -0.0932105 0
-0.0932105 -6.66051 0
0 0 0
-0.0118036 -0.295032 0
-0.295032 -6.19056 0
0 0 0
-1.01431 -0.256046 0
-0.256046 -5.81502 0
0 0 0
-1.06624 -0.34463 0
-0.34463 -5.373 0
0 0 0
-1.39503 -0.45615 0
-0.45615 -4.96462 0
0 0 0
-1.5782 -0.561331 0
-0.561331 -4.70743 0
0 0 0
-1.90945 -0.332498 0
-0.332498 -4.66514 0
0 0 0
0.723403 0.211449 0
0.211449 -6.43886 0
0 0 0
-0.0443575 0.30723 0
0.30723 -6.68334 0
0 0 0
-0.707812 0.142931 0
0.142931 -6.69212 0
0 0 0
-0.70948 0.0286361 0
0.0286361 -6.70516 0
0 0 0
-0.0691916 -0.0754968 0
-0.0754968 -6.56665 0
0 0 0
-0.0773931 -0.259817 0
-0.259817 -6.1184 0
0 0 0
-1.02392 -0.270794 0
-0.270794 -5.77906 0
0 0 0
-1.12649 -0.23885 0
-0.23885 -5.46598 0
0 0 0
-1.42417 -0.315386 0
-0.315386 -5.11672 0
0 0 0
-1.59651 -0.401335 0
-0.401335 -4.87197 0
0 0 0
-1.78418 -0.298296 0
-0.298296 -4.73022 0
0 0 0
0.695505 0.19603 0
0.19603 -6.39574 0
0 0 0
-0.0312319 0.294922 0
0.294922 -6.65982 0
0 0 0
-0.696436 0.144765 0
0.144765 -6.67515 0
0 0 0
-0.698889 0.0362452 0
0.0362452 -6.69278 0
0 0 0
-0.11929 -0.0524063 0
-0.0524063 -6.58888 0
0 0 0
-0.129441 -0.216938 0
-0.216938 -6.16502 0
0 0 0
-0.947224 -0.294579 0
-0.294579 -5.80862 0
0 0 0
-1.12708 -0.168475 0
-0.168475 -5.59914 0
0 0 0
-1.39925 -0.228332 0
-0.228332 -5.2583 0
0 0 0
-1.56948 -0.293264 0
-0.293264 -5.01074 0
0 0 0
-1.67215 -0.270418 0
-0.270418 -4.83195 0
0 0 0
0.661937 0.187072 0
0.187072 -6.36815 0
0 0 0
0.0036504 0.294101 0
0.294101 -6.6135 0
0 0 0
-0.686013 0.161059 0
0.161059 -6.64598 0
0 0 0
-0.68905 0.0478174 0
0.0478174 -6.65237 0
0 0 0
-0.155137 -0.0290888 0
-0.0290888 -6.57976 0
0 0 0
-0.166538 -0.177862 0
-0.177862 -6.17108 0
0 0 0
-0.802228 -0.330506 0
-0.330506 -5.80341 0
0 0 0
-1.10011 -0.133722 0
-0.133722 -5.65135 0
0 0 0
-1.36023 -0.172863 0
-0.172863 -5.30151 0
0 0 0
-1.53837 -0.239959 0
-0.239959 -5.065 0
0 0 0
-1.60677 -0.274438 0
-0.274438 -4.8522 0
0 0 0
0.629255 0.177833 0
0.177833 -6.3218 0
0 0 0
0.0339288 0.290485 0
0.290485 -6.56234 0
0 0 0
-0.680619 0.159642 0
0.159642 -6.57974 0
0 0 0
-0.683135 0.0526785 0
0.0526785 -6.59628 0
0 0 0
-0.180274 -0.0103189 0
-0.0103189 -6.53742 0
0 0 0
-0.192475 -0.158094 0
-0.158094 -6.58624 0
0 0 0
-0.700845 -0.313682 0
-0.313682 -5.77589 0
0 0 0
-1.04968 -0.143429 0
-0.143429 -5.63051 0
0 0 0
-1.33097 -0.136173 0
-0.136173 -5.3136 0
0 0 0
-1.51781 -0.198243 0
-0.198243 -5.05638 0
0 0 0
-1.57373 -0.253513 0
-0.253513 -4.83798 0
0 0 0
