# vtk DataFile Version 3.0
MPM2D particles
ASCII
DATASET POLYDATA
POINTS 121 double
0.0142268 0.000119812 0
0.0423082 8.83415e-05 0
0.0670223 7.07397e-05 0
0.0890618 6.01708e-05 0
0.112232 5.59089e-05 0
0.137818 6.58648e-05 0
0.162798 9.14488e-05 0
0.185443 0.000224856 0
0.207218 0.000549609 0
0.203518 0.00283128 0
0.192083 0.00409669 0
0.0183907 0.00034755 0
0.0535838 0.000241696 0
0.0745245 0.000203711 0
0.0917017 0.000177977 0
0.111677 0.000167138 0
0.138476 0.000198595 0
0.163099 0.000281564 0
0.181704 0.000598656 0
0.198947 0.00122767 0
0.199333 0.00207384 0
0.194398 0.00283124 0
0.0221658 0.000519531 0
0.0619866 0.000360899 0
0.0792792 0.000314043 0
0.0934797 0.000280698 0
0.111296 0.000266686 0
0.139057 0.000319662 0
0.162984 0.00045646 0
0.178496 0.000872962 0
0.192594 0.00160121 0
0.194164 0.00212548 0
0.19192 0.00260549 0
0.0232573 0.000601417 0
0.0643011 0.000430679 0
0.0808859 0.000383807 0
0.0944202 0.000349434 0
0.111801 0.00033942 0
0.139476 0.000409985 0
0.162372 0.000579854 0
0.175578 0.0010321 0
0.187407 0.00176064 0
0.190384 0.00226264 0
0.189326 0.00270455 0
0.0241696 0.000677611 0
0.0661258 0.000498936 0
0.0822297 0.000453905 0
0.0953223 0.00042025 0
0.11249 0.000418128 0
0.139719 0.0005088 0
0.161421 0.000703848 0
0.172511 0.0011655 0
0.18229 0.00185026 0
0.186627 0.00236406 0
0.186944 0.0028066 0
0.0251073 0.000779905 0
0.0678985 0.000593605 0
0.083571 0.000552866 0
0.0962548 0.000522145 0
0.11317 0.000534299 0
0.139438 0.000656101 0
0.159751 0.000868809 0
0.16882 0.00133232 0
0.176755 0.00196697 0
0.181652 0.00247968 0
0.183827 0.00295677 0
0.0257432 0.000928339 0
0.0690184 0.000730808 0
0.0843758 0.000696364 0
0.0967505 0.00067102 0
0.11318 0.000702092 0
0.137862 0.000869226 0
0.157211 0.0010812 0
0.164976 0.001554 0
0.171853 0.00217928 0
0.176511 0.00268326 0
0.180016 0.00320183 0
0.0256378 0.00111914 0
0.0688707 0.000901358 0
0.0841709 0.000872495 0
0.0964747 0.00085267 0
0.112328 0.000898785 0
0.135364 0.00111701 0
0.15441 0.00136258 0
0.161841 0.00180807 0
0.168421 0.00247361 0
0.17294 0.00301068 0
0.176938 0.00358168 0
0.0249213 0.00133335 0
0.0677764 0.00108681 0
0.0832463 0.00106132 0
0.0956574 0.00104572 0
0.111007 0.00109783 0
0.132791 0.0013656 0
0.151796 0.00166184 0
0.159555 0.00207356 0
0.166221 0.00281598 0
0.170842 0.00342928 0
0.175069 0.00408423 0
0.024088 0.0015547 0
0.0664638 0.00127715 0
0.0821353 0.00125404 0
0.0946461 0.00124253 0
0.109538 0.001293 0
0.130455 0.00160926 0
0.149338 0.00196691 0
0.157768 0.00234044 0
0.16464 0.00317527 0
0.169412 0.00387711 0
0.173801 0.00462724 0
0.0233024 0.00178597 0
0.0651457 0.00147823 0
0.0809716 0.00145737 0
0.0935046 0.00145076 0
0.107934 0.0014928 0
0.128228 0.00186052 0
0.146909 0.00228822 0
0.156119 0.00265196 0
0.163247 0.0035493 0
0.168143 0.00433949 0
0.172601 0.00518151 0
VERTICES 121 242
1 0
1 1
1 2
1 3
1 4
1 5
1 6
1 7
1 8
1 9
1 10
1 11
1 12
1 13
1 14
1 15
1 16
1 17
1 18
1 19
1 20
1 21
1 22
1 23
1 24
1 25
1 26
1 27
1 28
1 29
1 30
1 31
1 32
1 33
1 34
1 35
1 36
1 37
1 38
1 39
1 40
1 41
1 42
1 43
1 44
1 45
1 46
1 47
1 48
1 49
1 50
1 51
1 52
1 53
1 54
1 55
1 56
1 57
1 58
1 59
1 60
1 61
1 62
1 63
1 64
1 65
1 66
1 67
1 68
1 69
1 70
1 71
1 72
1 73
1 74
1 75
1 76
1 77
1 78
1 79
1 80
1 81
1 82
1 83
1 84
1 85
1 86
1 87
1 88
1 89
1 90
1 91
1 92
1 93
1 94
1 95
1 96
1 97
1 98
1 99
1 100
1 101
1 102
1 103
1 104
1 105
1 106
1 107
1 108
1 109
1 110
1 111
1 112
1 113
1 114
1 115
1 116
1 117
1 118
1 119
1 120
POINT_DATA 121
VECTORS velocity double
5.24966 8.66953 0
2.99507 6.6198 0
1.49984 5.25517 0
0.865594 4.50092 0
0.354051 4.0904 0
0.213177 4.60526 0
-0.00749147 4.58198 0
-0.497664 2.48621 0
-1.25132 0.757154 0
-6.47653 7.65519 0
-9.10187 11.4768 0
3.79727 2.9562 0
1.14356 1.79263 0
0.2306 1.27608 0
0.250967 0.889982 0
0.215049 0.662095 0
0.158588 0.993391 0
0.0671209 0.954416 0
-0.0261509 -0.146184 0
-0.204553 -1.20866 0
-1.34467 0.346873 0
-1.57646 1.28118 0
2.77158 -0.994655 0
-0.159276 -1.37131 0
-0.559777 -1.53106 0
-0.151019 -1.70981 0
0.1316 -1.83354 0
0.149542 -1.67595 0
0.169567 -1.69848 0
0.343293 -2.04089 0
0.476393 -2.41017 0
0.462044 -2.35499 0
0.743535 -2.34103 0
2.75684 -1.63406 0
-0.126014 -1.88258 0
-0.483452 -2.00796 0
-0.103729 -2.14975 0
0.178829 -2.24711 0
0.22662 -2.15526 0
0.254328 -2.16924 0
0.341469 -2.26663 0
0.393688 -2.3692 0
0.117359 -2.4942 0
0.125571 -2.63494 0
2.79817 -2.08695 0
0.013279 -2.25892 0
-0.330254 -2.34147 0
-0.0258347 -2.44004 0
0.210539 -2.50041 0
0.289806 -2.43716 0
0.318641 -2.43228 0
0.274926 -2.3821 0
0.192925 -2.34184 0
-0.395365 -2.5499 0
-0.664665 -2.82618 0
2.77705 -2.44261 0
0.102852 -2.58822 0
-0.237712 -2.62975 0
-0.000477844 -2.67821 0
0.191929 -2.68861 0
0.296896 -2.61701 0
0.338467 -2.58656 0
0.231228 -2.5022 0
0.0876428 -2.4331 0
-0.637249 -2.64201 0
-1.16902 -2.94747 0
2.59837 -2.68939 0
0.0798437 -2.84908 0
-0.250979 -2.85527 0
-0.0461507 -2.85787 0
0.125769 -2.82781 0
0.23935 -2.74257 0
0.301317 -2.68663 0
0.19687 -2.62207 0
0.0540771 -2.5703 0
-0.64682 -2.76561 0
-1.33005 -3.05328 0
2.28646 -2.96158 0
0.0426675 -3.12607 0
-0.270321 -3.10722 0
-0.0981512 -3.07786 0
0.0534819 -3.02361 0
0.174917 -2.92302 0
0.244891 -2.8289 0
0.123332 -2.78165 0
-0.0460247 -2.74193 0
-0.687404 -2.91628 0
-1.38335 -3.17774 0
1.90408 -3.39689 0
0.0362821 -3.52643 0
-0.262348 -3.49026 0
-0.14966 -3.43884 0
-0.0380818 -3.36839 0
0.093374 -3.25184 0
0.179576 -3.12564 0
0.039203 -3.08158 0
-0.156296 -3.04833 0
-0.752386 -3.17545 0
-1.424 -3.37451 0
1.51877 -4.16327 0
0.0188932 -4.21351 0
-0.272615 -4.15016 0
-0.234009 -4.07233 0
-0.175515 -3.97843 0
-0.0317947 -3.83515 0
0.08097 -3.67324 0
-0.0489672 -3.6243 0
-0.243416 -3.59668 0
-0.820821 -3.65754 0
-1.48599 -3.75868 0
1.08189 -5.45421 0
-0.0634648 -5.40032 0
-0.346825 -5.3075 0
-0.396577 -5.19739 0
-0.40761 -5.04167 0
-0.245407 -4.86014 0
-0.0808781 -4.61484 0
-0.171199 -4.56442 0
-0.330989 -4.54657 0
-0.891055 -4.51082 0
-1.55175 -4.47718 0
SCALARS mass double 1
LOOKUP_TABLE default
2.67769
2.67769
2.67769
2.67769
2.67769
2.67769
2.67769
2.67769
2.67769
2.67769
2.67769
2.67769
2.67769
2.67769
2.67769
2.67769
2.67769
2.67769
2.67769
2.67769
2.67769
2.67769
2.67769
2.67769
2.67769
2.67769
2.67769
2.67769
2.67769
2.67769
2.67769
2.67769
2.67769
2.67769
2.67769
2.67769
2.67769
2.67769
2.67769
2.67769
2.67769
2.67769
2.67769
2.67769
2.67769
2.67769
2.67769
2.67769
2.67769
2.67769
2.67769
2.67769
2.67769
2.67769
2.67769
2.67769
2.67769
2.67769
2.67769
2.67769
2.67769
2.67769
2.67769
2.67769
2.67769
2.67769
2.67769
2.67769
2.67769
2.67769
2.67769
2.67769
2.67769
2.67769
2.67769
2.67769
2.67769
2.67769
2.67769
2.67769
2.67769
2.67769
2.67769
2.67769
2.67769
2.67769
2.67769
2.67769
2.67769
2.67769
2.67769
2.67769
2.67769
2.67769
2.67769
2.67769
2.67769
2.67769
2.67769
2.67769
2.67769
2.67769
2.67769
2.67769
2.67769
2.67769
2.67769
2.67769
2.67769
2.67769
2.67769
2.67769
2.67769
2.67769
2.67769
2.67769
2.67769
2.67769
2.67769
2.67769
2.67769
SCALARS volume double 1
LOOKUP_TABLE default
8.12979e-06
5.94164e-06
3.71531e-06
3.17605e-06
3.40608e-06
4.01125e-06
4.98118e-06
1.21909e-05
2.16154e-05
3.28225e-05
2.21292e-05
1.02006e-05
6.62439e-06
2.78422e-06
2.46518e-06
3.55773e-06
4.22289e-06
4.2795e-06
8.99715e-06
1.04853e-05
5.77568e-06
4.16525e-06
5.09511e-06
2.75385e-06
1.30017e-06
1.26046e-06
2.4327e-06
2.98155e-06
2.56951e-06
5.18314e-06
5.32151e-06
2.18167e-06
1.06093e-06
4.51809e-06
2.29356e-06
1.13062e-06
1.13123e-06
2.38722e-06
3.01713e-06
2.25851e-06
4.12893e-06
4.63712e-06
1.99424e-06
9.13297e-07
5.05516e-06
2.44603e-06
1.25057e-06
1.28287e-06
2.87582e-06
3.68599e-06
2.37812e-06
3.95429e-06
4.38981e-06
2.5191e-06
1.02065e-06
7.71571e-06
3.47633e-06
1.83777e-06
1.89689e-06
4.41802e-06
5.80904e-06
3.07746e-06
4.49389e-06
4.51643e-06
3.81697e-06
1.96221e-06
1.06518e-05
4.46474e-06
2.35187e-06
2.43951e-06
5.5636e-06
7.39232e-06
3.36028e-06
4.33159e-06
4.11385e-06
4.05244e-06
2.80063e-06
1.25034e-05
5.03206e-06
2.66029e-06
2.70236e-06
5.79046e-06
7.60226e-06
3.5342e-06
3.95919e-06
3.67501e-06
3.62383e-06
3.18615e-06
1.26943e-05
5.22316e-06
2.7359e-06
2.76494e-06
5.44942e-06
7.03587e-06
3.80434e-06
3.6306e-06
3.42345e-06
3.38583e-06
3.36264e-06
1.26037e-05
5.67193e-06
2.84384e-06
2.90752e-06
5.3748e-06
6.87241e-06
4.53848e-06
3.64776e-06
3.53325e-06
3.41741e-06
3.63317e-06
1.27579e-05
6.15716e-06
3.05502e-06
3.09191e-06
5.54507e-06
3.82576e-06
5.28606e-06
3.981e-06
3.71124e-06
3.62754e-06
3.92829e-06
TENSORS stress double
5076.82 14176.6 0
14176.6 4759.33 0
0 0 0
5076.78 48265.6 0
48265.6 4449.04 0
0 0 0
5073.68 45147.7 0
45147.7 4220.52 0
0 0 0
5074.12 14138.1 0
14138.1 4045.3 0
0 0 0
5074.67 -9327.58 0
-9327.58 4054.97 0
0 0 0
5074.33 -16787.6 0
-16787.6 4563.52 0
0 0 0
5072.23 -28575.9 0
-28575.9 5286.52 0
0 0 0
5065.92 -64449.3 0
-64449.3 6780.92 0
0 0 0
5050.76 -85869 0
-85869 8211.32 0
0 0 0
4942.87 -52471.1 0
-52471.1 7887.58 0
0 0 0
4881.56 -25891 0
-25891 7084.93 0
0 0 0
5077.09 12127.1 0
12127.1 4704.65 0
0 0 0
5066.46 52625.8 0
52625.8 4321.2 0
0 0 0
5068.05 33407.5 0
33407.5 4155.75 0
0 0 0
5069.13 7819.82 0
7819.82 4019.83 0
0 0 0
5070.69 -10197.9 0
-10197.9 4039.77 0
0 0 0
5069.6 -18072.3 0
-18072.3 4571.66 0
0 0 0
5062.99 -26805.8 0
-26805.8 5299.6 0
0 0 0
5047.96 -57221.8 0
-57221.8 6520.13 0
0 0 0
5018.47 -70936 0
-70936 7640.11 0
0 0 0
4978.39 -15915.9 0
-15915.9 7636.28 0
0 0 0
4942.04 6543.09 0
6543.09 7282.78 0
0 0 0
5077.3 8463.16 0
8463.16 4656.36 0
0 0 0
5061.41 35870.9 0
35870.9 4249.77 0
0 0 0
5063.37 18482.9 0
18482.9 4113.72 0
0 0 0
5064.77 1774.65 0
1774.65 4001.8 0
0 0 0
5067.12 -9109.35 0
-9109.35 4028.45 0
0 0 0
5065.29 -19203.9 0
-19203.9 4578.71 0
0 0 0
5054.49 -25518.3 0
-25518.3 5285.64 0
0 0 0
5034.71 -52055.5 0
-52055.5 6297.91 0
0 0 0
5000.44 -63561.6 0
-63561.6 7206.15 0
0 0 0
4975.58 -8357.87 0
-8357.87 7291.87 0
0 0 0
4952.56 35923.8 0
35923.8 7126.33 0
0 0 0
5077.4 9900.14 0
9900.14 4641.19 0
0 0 0
5058.46 32686.4 0
32686.4 4228.71 0
0 0 0
5060.42 16532 0
16532 4098.29 0
0 0 0
5061.85 2025.05 0
2025.05 3991.72 0
0 0 0
5064.51 -7416.48 0
-7416.48 4035.75 0
0 0 0
5062.07 -19360.2 0
-19360.2 4583.68 0
0 0 0
5048.49 -21962.3 0
-21962.3 5240.61 0
0 0 0
5026.96 -45896.4 0
-45896.4 6098.93 0
0 0 0
4992.55 -64605.7 0
-64605.7 6856.84 0
0 0 0
4968.78 -19140.8 0
-19140.8 7036.5 0
0 0 0
4947.62 28904.7 0
28904.7 6950.84 0
0 0 0
5077.49 12085.6 0
12085.6 4628.23 0
0 0 0
5055.56 31191.2 0
31191.2 4211.61 0
0 0 0
5057.44 15940.6 0
15940.6 4084.95 0
0 0 0
5058.85 2684.83 0
2684.83 3981.86 0
0 0 0
5061.7 -6376.21 0
-6376.21 4046.5 0
0 0 0
5058.55 -19390.3 0
-19390.3 4584.84 0
0 0 0
5042.43 -17741.7 0
-17741.7 5173.1 0
0 0 0
5020.41 -38103.1 0
-38103.1 5890.99 0
0 0 0
4987.96 -58054.4 0
-58054.4 6514.52 0
0 0 0
4963.66 -36258.2 0
-36258.2 6783.89 0
0 0 0
4942.53 20501.2 0
20501.2 6789.28 0
0 0 0
5077.61 14018.6 0
14018.6 4614.01 0
0 0 0
5051.56 28912 0
28912 4193.93 0
0 0 0
5053.25 14119.8 0
14119.8 4070.54 0
0 0 0
5054.53 2749 0
2749 3970.6 0
0 0 0
5057.54 -5788.93 0
-5788.93 4055.67 0
0 0 0
5053.3 -19678.6 0
-19678.6 4573.76 0
0 0 0
5034.36 -13265.2 0
-13265.2 5056.53 0
0 0 0
5012.19 -27328.7 0
-27328.7 5640.48 0
0 0 0
4982 -41924.6 0
-41924.6 6143.52 0
0 0 0
4957.72 -43755.6 0
-43755.6 6449.91 0
0 0 0
4935.05 -1623.76 0
-1623.76 6577.3 0
0 0 0
5077.79 14783.3 0
14783.3 4601.42 0
0 0 0
5045.75 24467.8 0
24467.8 4179.86 0
0 0 0
5047.17 11637.5 0
11637.5 4058.73 0
0 0 0
5048.21 2379.02 0
2379.02 3961.04 0
0 0 0
5051.53 -5023.81 0
-5023.81 4049.57 0
0 0 0
5045.7 -18824.5 0
-18824.5 4534.47 0
0 0 0
5038.3 -9947.29 0
-9947.29 4911.66 0
0 0 0
5001.26 -16323.4 0
-16323.4 5377.76 0
0 0 0
4971.42 -25005.1 0
-25005.1 5810.99 0
0 0 0
4947.5 -33942.6 0
-33942.6 6101.82 0
0 0 0
4922.91 -9995.7 0
-9995.7 6315.8 0
0 0 0
5078.02 14054 0
14054 4595.47 0
0 0 0
5038.53 21340.5 0
21340.5 4174.65 0
0 0 0
5039.7 9863.66 0
9863.66 4053.75 0
0 0 0
5040.51 2418.04 0
2418.04 3956.4 0
0 0 0
5044.47 -3507.65 0
-3507.65 4025.25 0
0 0 0
5036.85 -15999.5 0
-15999.5 4475.52 0
0 0 0
5028.29 -12208.1 0
-12208.1 4845.49 0
0 0 0
4988.74 -7217.99 0
-7217.99 5160.82 0
0 0 0
4956.93 -12545.8 0
-12545.8 5572.88 0
0 0 0
4931.38 -19633.9 0
-19633.9 5853.25 0
0 0 0
4904.3 -8095.12 0
-8095.12 6098.03 0
0 0 0
5078.28 12728.3 0
12728.3 4595.42 0
0 0 0
5030.68 19769.6 0
19769.6 4176.42 0
0 0 0
5031.7 9760.22 0
9760.22 4054.03 0
0 0 0
5032.32 2925.48 0
2925.48 3955.66 0
0 0 0
5037.33 -1575.92 0
-1575.92 3991.47 0
0 0 0
5027.96 -12426.5 0
-12426.5 4415.04 0
0 0 0
5017.63 -15326.7 0
-15326.7 4782.33 0
0 0 0
4975.67 -1296.77 0
-1296.77 4999.63 0
0 0 0
4940.14 -4968.47 0
-4968.47 5414.63 0
0 0 0
4910.94 -9963.39 0
-9963.39 5699.07 0
0 0 0
4879.86 -6410.28 0
-6410.28 5956.05 0
0 0 0
5078.54 12082.1 0
12082.1 4596.4 0
0 0 0
5022.64 19277.4 0
19277.4 4179.75 0
0 0 0
5023.54 11042.9 0
11042.9 4055.65 0
0 0 0
5023.98 3766.89 0
3766.89 3956.31 0
0 0 0
5030.32 341.446 0
341.446 3954.91 0
0 0 0
5019.24 -9170.51 0
-9170.51 4359.44 0
0 0 0
5006.75 -19618.3 0
-19618.3 4722.09 0
0 0 0
4993.62 2159.29 0
2159.29 4876.11 0
0 0 0
4922.55 -297.653 0
-297.653 5296.73 0
0 0 0
4889.11 -5507.88 0
-5507.88 5588.01 0
0 0 0
4853.5 -7690.89 0
-7690.89 5852.44 0
0 0 0
5078.82 11395.4 0
11395.4 4596.49 0
0 0 0
5014.14 18505.2 0
18505.2 4182.72 0
0 0 0
5014.94 10538.5 0
10538.5 4057.29 0
0 0 0
5015.15 3896.02 0
3896.02 3957.58 0
0 0 0
5023.14 1768.43 0
1768.43 3915.46 0
0 0 0
5010.24 -7817.43 0
-7817.43 4305.71 0
0 0 0
4995.29 -18629.7 0
-18629.7 4661.77 0
0 0 0
4982.54 696.53 0
696.53 4831.71 0
0 0 0
4904.23 2569.98 0
2569.98 5190.79 0
0 0 0
4866.56 -2147.2 0
-2147.2 5487.17 0
0 0 0
4826.57 -6448.43 0
-6448.43 5752.93 0
0 0 0
TENSORS strain double
0.129457 0.141766 0
0.141766 -4.54667 0
0 0 0
0.120691 0.482656 0
0.482656 -4.84122 0
0 0 0
-0.1229 0.451477 0
0.451477 -5.0561 0
0 0 0
-0.117951 0.141381 0
0.141381 -5.21261 0
0 0 0
0.023558 -0.0932758 0
-0.0932758 -5.28506 0
0 0 0
0.0231985 -0.167876 0
-0.167876 -5.13173 0
0 0 0
-0.0862731 -0.285759 0
-0.285759 -4.82077 0
0 0 0
-0.0910034 -0.644493 0
-0.644493 -3.95776 0
0 0 0
-0.408382 -0.85869 0
-0.85869 -3.09027 0
0 0 0
-1.6131 -0.524711 0
-0.524711 -1.461 0
0 0 0
-2.36292 -0.25891 0
-0.25891 -1.06914 0
0 0 0
0.386639 0.121271 0
0.121271 -4.57895 0
0 0 0
0.320401 0.526258 0
0.526258 -4.9295 0
0 0 0
-0.3663 0.334075 0
0.334075 -5.09537 0
0 0 0
-0.353104 0.0781982 0
0.0781982 -5.22616 0
0 0 0
0.070688 -0.101979 0
-0.101979 -5.28835 0
0 0 0
0.0695712 -0.180723 0
-0.180723 -5.12698 0
0 0 0
-0.259614 -0.268058 0
-0.268058 -4.7959 0
0 0 0
-0.271057 -0.572218 0
-0.572218 -4.07285 0
0 0 0
-0.831198 -0.70936 0
-0.70936 -3.37783 0
0 0 0
-1.92125 -0.159159 0
-0.159159 -2.86101 0
0 0 0
-2.53892 0.0654309 0
0.0654309 -2.54892 0
0 0 0
0.573987 0.0846316 0
0.0846316 -5.45772 0
0 0 0
0.148797 0.358709 0
0.358709 -5.62224 0
0 0 0
-0.553329 0.184829 0
0.184829 -5.65879 0
0 0 0
-0.538063 0.0177465 0
0.0177465 -5.70268 0
0 0 0
0.106716 -0.0910935 0
-0.0910935 -5.70207 0
0 0 0
0.10519 -0.192039 0
-0.192039 -5.50889 0
0 0 0
-0.419647 -0.255183 0
-0.255183 -5.13942 0
0 0 0
-0.437386 -0.520555 0
-0.520555 -4.44791 0
0 0 0
-1.06022 -0.635616 0
-0.635616 -3.81146 0
0 0 0
-1.98649 -0.0835787 0
-0.0835787 -3.75229 0
0 0 0
-2.55483 0.359238 0
0.359238 -3.87394 0
0 0 0
0.622283 0.0990014 0
0.0990014 -5.62553 0
0 0 0
0.092387 0.326864 0
0.326864 -5.74534 0
0 0 0
-0.603108 0.16532 0
0.16532 -5.74506 0
0 0 0
-0.591682 0.0202505 0
0.0202505 -5.7542 0
0 0 0
0.103726 -0.0741648 0
-0.0741648 -5.71778 0
0 0 0
0.102788 -0.193602 0
-0.193602 -5.49474 0
0 0 0
-0.557162 -0.219623 0
-0.219623 -5.12686 0
0 0 0
-0.584775 -0.458964 0
-0.458964 -4.52046 0
0 0 0
-1.04528 -0.646057 0
-0.646057 -3.95776 0
0 0 0
-1.88015 -0.191408 0
-0.191408 -3.94547 0
0 0 0
-2.45093 0.289047 0
0.289047 -4.12189 0
0 0 0
0.660969 0.120856 0
0.120856 -5.5523 0
0 0 0
0.0460496 0.311912 0
0.311912 -5.6327 0
0 0 0
-0.639715 0.159406 0
0.159406 -5.60671 0
0 0 0
-0.631812 0.0268483 0
0.0268483 -5.58791 0
0 0 0
0.087453 -0.0637621 0
-0.0637621 -5.51645 0
0 0 0
0.0866224 -0.193903 0
-0.193903 -5.27949 0
0 0 0
-0.704957 -0.177417 0
-0.177417 -4.92455 0
0 0 0
-0.741904 -0.381031 0
-0.381031 -4.40032 0
0 0 0
-1.11685 -0.580544 0
-0.580544 -3.93448 0
0 0 0
-1.71275 -0.362582 0
-0.362582 -3.88368 0
0 0 0
-2.35979 0.205012 0
0.205012 -4.10056 0
0 0 0
0.699265 0.140186 0
0.140186 -5.17001 0
0 0 0
-0.00926999 0.28912 0
0.28912 -5.22507 0
0 0 0
-0.675729 0.141198 0
0.141198 -5.18864 0
0 0 0
-0.672259 0.02749 0
0.02749 -5.15944 0
0 0 0
0.0526805 -0.0578893 0
-0.0578893 -5.05532 0
0 0 0
0.0508096 -0.196786 0
-0.196786 -4.79184 0
0 0 0
-0.877848 -0.132652 0
-0.132652 -4.49246 0
0 0 0
-0.919695 -0.273287 0
-0.273287 -4.08958 0
0 0 0
-1.26887 -0.419246 0
-0.419246 -3.74747 0
0 0 0
-1.57576 -0.437556 0
-0.437556 -3.61009 0
0 0 0
-2.08053 -0.0162376 0
-0.0162376 -3.74674 0
0 0 0
0.72445 0.147833 0
0.147833 -4.87549 0
0 0 0
-0.0323129 0.244678 0
0.244678 -4.95147 0
0 0 0
-0.701915 0.116375 0
0.116375 -4.91791 0
0 0 0
-0.70211 0.0237902 0
0.0237902 -4.8803 0
0 0 0
-0.00502149 -0.0502381 0
-0.0502381 -4.76924 0
0 0 0
-0.00964523 -0.188245 0
-0.188245 -4.49246 0
0 0 0
-1.01148 -0.0994729 0
-0.0994729 -4.26818 0
0 0 0
-1.05898 -0.163234 0
-0.163234 -3.98039 0
0 0 0
-1.38427 -0.250051 0
-0.250051 -3.71693 0
0 0 0
-1.56444 -0.339426 0
-0.339426 -3.55718 0
0 0 0
-1.89255 -0.099957 0
-0.099957 -3.58738 0
0 0 0
0.720347 0.14054 0
0.14054 -4.71412 0
0 0 0
-0.0416208 0.213405 0
0.213405 -4.82364 0
0 0 0
-0.705198 0.0986366 0
0.0986366 -4.79314 0
0 0 0
-0.706953 0.0241804 0
0.0241804 -4.77459 0
0 0 0
-0.0671027 -0.0350765 0
-0.0350765 -4.66868 0
0 0 0
-0.0746377 -0.159995 0
-0.159995 -4.40062 0
0 0 0
-1.02039 -0.122081 0
-0.122081 -4.2101 0
0 0 0
-1.11826 -0.0721799 0
-0.0721799 -4.00578 0
0 0 0
-1.4123 -0.125458 0
-0.125458 -3.79504 0
0 0 0
-1.58152 -0.196339 0
-0.196339 -3.64472 0
0 0 0
-1.76576 -0.0809512 0
-0.0809512 -3.58582 0
0 0 0
0.69186 0.127283 0
0.127283 -4.67345 0
0 0 0
-0.027929 0.197696 0
0.197696 -4.8029 0
0 0 0
-0.693254 0.0976022 0
0.0976022 -4.77853 0
0 0 0
-0.695787 0.0292548 0
0.0292548 -4.76431 0
0 0 0
-0.116747 -0.0157592 0
-0.0157592 -4.68052 0
0 0 0
-0.126095 -0.124265 0
-0.124265 -4.42699 0
0 0 0
-0.942941 -0.153267 0
-0.153267 -4.21899 0
0 0 0
-1.11781 -0.0129677 0
-0.0129677 -4.08954 0
0 0 0
-1.38597 -0.0496847 0
-0.0496847 -3.88884 0
0 0 0
-1.5527 -0.0996339 0
-0.0996339 -3.73766 0
0 0 0
-1.65148 -0.0641028 0
-0.0641028 -3.64625 0
0 0 0
0.657683 0.120821 0
0.120821 -4.64871 0
0 0 0
0.00753623 0.192774 0
0.192774 -4.75992 0
0 0 0
-0.68225 0.110429 0
0.110429 -4.7522 0
0 0 0
-0.685361 0.0376689 0
0.0376689 -4.72649 0
0 0 0
-0.152153 0.00341446 0
0.00341446 -4.65987 0
0 0 0
-0.16262 -0.0917051 0
-0.0917051 -4.41468 0
0 0 0
-0.797194 -0.196183 0
-0.196183 -4.19436 0
0 0 0
-1.09398 0.0215929 0
0.0215929 -4.10784 0
0 0 0
-1.34545 -0.00297653 0
-0.00297653 -3.89747 0
0 0 0
-1.51963 -0.0550788 0
-0.0550788 -3.76024 0
0 0 0
-1.5836 -0.0769089 0
-0.0769089 -3.63789 0
0 0 0
0.624364 0.113954 0
0.113954 -4.60506 0
0 0 0
0.0384316 0.185052 0
0.185052 -4.71211 0
0 0 0
-0.67624 0.105385 0
0.105385 -4.68892 0
0 0 0
-0.678824 0.0389602 0
0.0389602 -4.67332 0
0 0 0
-0.176843 0.0176843 0
0.0176843 -4.60495 0
0 0 0
-0.187971 -0.0781743 0
-0.0781743 -4.81232 0
0 0 0
-0.695026 -0.186297 0
-0.186297 -4.14765 0
0 0 0
-1.04277 0.0069653 0
0.0069653 -4.07388 0
0 0 0
-1.31464 0.0256998 0
0.0256998 -3.87904 0
0 0 0
-1.49705 -0.021472 0
-0.021472 -3.72343 0
0 0 0
-1.54805 -0.0644843 0
-0.0644843 -3.59659 0
0 0 0
