# vtk DataFile Version 3.0
MPM2D particles
ASCII
DATASET POLYDATA
POINTS 121 double
0.0131412 0.0119495 0
0.0394003 0.0114888 0
0.064481 0.0111006 0
0.0881465 0.0107883 0
0.112315 0.0105354 0
0.137695 0.010415 0
0.162915 0.0102614 0
0.187502 0.0099671 0
0.211802 0.00982029 0
0.232232 0.0115864 0
0.252193 0.0136416 0
0.0145213 0.0357991 0
0.0434835 0.0343246 0
0.0681217 0.0332004 0
0.0893282 0.0323309 0
0.111939 0.0316091 0
0.138095 0.0312409 0
0.16372 0.0307696 0
0.1875 0.0298969 0
0.210649 0.0293149 0
0.224356 0.033323 0
0.237307 0.0377675 0
0.0154555 0.0552484 0
0.0463535 0.0536453 0
0.0703604 0.0524306 0
0.0900998 0.0514438 0
0.111727 0.0505593 0
0.138429 0.0500543 0
0.164266 0.0494478 0
0.187317 0.0484445 0
0.2097 0.0476069 0
0.220293 0.0519159 0
0.230924 0.0558459 0
0.0154195 0.066851 0
0.0462516 0.0659569 0
0.0704181 0.0652769 0
0.0903848 0.0647233 0
0.112171 0.06423 0
0.138692 0.0639329 0
0.164186 0.0636429 0
0.186369 0.0633536 0
0.208048 0.063099 0
0.219654 0.0654816 0
0.2311 0.0678223 0
0.015381 0.0786799 0
0.0461423 0.0784993 0
0.0704697 0.0783682 0
0.0906731 0.0782552 0
0.112625 0.078149 0
0.138956 0.0780601 0
0.164096 0.0780856 0
0.185416 0.0784929 0
0.206307 0.0788832 0
0.219012 0.0793282 0
0.231347 0.0799278 0
0.0152545 0.0951931 0
0.0457617 0.0957614 0
0.0703107 0.0962084 0
0.090872 0.0965633 0
0.113038 0.0968621 0
0.139095 0.0970085 0
0.163911 0.0973211 0
0.184743 0.098185 0
0.205208 0.0989921 0
0.218893 0.0979546 0
0.232293 0.0968681 0
0.014914 0.118282 0
0.0447288 0.119042 0
0.0695219 0.119693 0
0.09062 0.120253 0
0.113075 0.120729 0
0.138766 0.121002 0
0.163472 0.121377 0
0.18482 0.122114 0
0.205842 0.122768 0
0.22034 0.12137 0
0.234616 0.119853 0
0.0145464 0.141719 0
0.0436269 0.142445 0
0.0686204 0.143132 0
0.09028 0.14377 0
0.113044 0.14432 0
0.138415 0.144662 0
0.163044 0.14504 0
0.184965 0.145562 0
0.20658 0.146008 0
0.222031 0.1445 0
0.237297 0.142898 0
0.0141975 0.164105 0
0.0425829 0.164726 0
0.0677039 0.165346 0
0.0898847 0.165948 0
0.112955 0.166468 0
0.138122 0.166794 0
0.162736 0.16714 0
0.185215 0.167576 0
0.20741 0.16794 0
0.223857 0.166525 0
0.240167 0.165042 0
0.013924 0.185583 0
0.0417647 0.186123 0
0.0669483 0.186685 0
0.0895441 0.187253 0
0.11286 0.187743 0
0.137875 0.188049 0
0.162485 0.188369 0
0.185461 0.188753 0
0.208168 0.189067 0
0.2254 0.187785 0
0.242541 0.18646 0
0.0137339 0.206711 0
0.0411975 0.207197 0
0.0663975 0.207711 0
0.0892681 0.208247 0
0.112747 0.208713 0
0.137666 0.208998 0
0.162286 0.209298 0
0.185653 0.209661 0
0.208764 0.209966 0
0.226529 0.208841 0
0.244245 0.207689 0
VERTICES 121 242
1 0
1 1
1 2
1 3
1 4
1 5
1 6
1 7
1 8
1 9
1 10
1 11
1 12
1 13
1 14
1 15
1 16
1 17
1 18
1 19
1 20
1 21
1 22
1 23
1 24
1 25
1 26
1 27
1 28
1 29
1 30
1 31
1 32
1 33
1 34
1 35
1 36
1 37
1 38
1 39
1 40
1 41
1 42
1 43
1 44
1 45
1 46
1 47
1 48
1 49
1 50
1 51
1 52
1 53
1 54
1 55
1 56
1 57
1 58
1 59
1 60
1 61
1 62
1 63
1 64
1 65
1 66
1 67
1 68
1 69
1 70
1 71
1 72
1 73
1 74
1 75
1 76
1 77
1 78
1 79
1 80
1 81
1 82
1 83
1 84
1 85
1 86
1 87
1 88
1 89
1 90
1 91
1 92
1 93
1 94
1 95
1 96
1 97
1 98
1 99
1 100
1 101
1 102
1 103
1 104
1 105
1 106
1 107
1 108
1 109
1 110
1 111
1 112
1 113
1 114
1 115
1 116
1 117
1 118
1 119
1 120
POINT_DATA 121
VECTORS velocity double
2.9065 4.66973 0
1.5264 4.14715 0
0.637867 3.75156 0
0.406985 3.50865 0
0.202337 3.3905 0
0.0725176 3.5899 0
-0.0483886 3.55669 0
-0.127798 2.55487 0
-0.414367 1.78279 0
-3.10725 3.93681 0
-5.67808 5.98725 0
2.05392 1.26267 0
0.554889 1.06163 0
-0.107428 0.906821 0
0.00268401 0.797353 0
0.0587506 0.735146 0
-0.00511885 0.807686 0
-0.0206496 0.776576 0
0.155321 0.345901 0
0.22688 -0.0301195 0
-0.752586 0.727499 0
-1.53468 1.31724 0
1.51795 -0.93764 0
-0.0535922 -0.943339 0
-0.538097 -0.982662 0
-0.244111 -1.02663 0
-0.0284216 -1.06854 0
-0.035775 -1.10872 0
0.0267325 -1.13851 0
0.355825 -1.15356 0
0.627687 -1.16965 0
0.372522 -1.0803 0
0.0613069 -0.995244 0
1.56663 -1.11385 0
0.139128 -1.0841 0
-0.343621 -1.08908 0
-0.134739 -1.10768 0
0.0211941 -1.13382 0
0.0328985 -1.17782 0
0.0757362 -1.19612 0
0.248172 -1.13209 0
0.36511 -1.07216 0
-0.0980087 -1.09279 0
-0.570883 -1.12131 0
1.61308 -1.29954 0
0.330473 -1.23543 0
-0.148225 -1.20631 0
-0.0256678 -1.19786 0
0.070534 -1.20407 0
0.100633 -1.24677 0
0.122664 -1.24881 0
0.136004 -1.10937 0
0.0927884 -0.982448 0
-0.562827 -1.11608 0
-1.206 -1.25748 0
1.5609 -1.40977 0
0.434873 -1.33972 0
-0.0309055 -1.29099 0
0.0299217 -1.25951 0
0.0823617 -1.24285 0
0.116252 -1.26361 0
0.125484 -1.25004 0
0.0749596 -1.11435 0
-0.0225605 -0.992342 0
-0.732231 -1.15184 0
-1.44187 -1.32668 0
1.33053 -1.40778 0
0.385024 -1.34876 0
-0.0277031 -1.29873 0
0.020052 -1.25943 0
0.057274 -1.23378 0
0.0693003 -1.24084 0
0.0712541 -1.22558 0
0.0561735 -1.12687 0
-0.000359218 -1.04016 0
-0.620667 -1.19769 0
-1.24808 -1.36702 0
1.08223 -1.38062 0
0.324592 -1.33636 0
-0.0223392 -1.29437 0
0.0142768 -1.2574 0
0.0388924 -1.23152 0
0.0355303 -1.23161 0
0.0303057 -1.21697 0
0.0292608 -1.14419 0
-0.00842793 -1.08176 0
-0.534495 -1.23065 0
-1.06373 -1.389 0
0.854437 -1.40299 0
0.281826 -1.37046 0
0.00245873 -1.33747 0
0.0189291 -1.30605 0
0.0280271 -1.28373 0
0.0205675 -1.28332 0
0.0127432 -1.27132 0
0.00919528 -1.21213 0
-0.0251569 -1.16239 0
-0.485531 -1.28477 0
-0.946877 -1.41358 0
0.669872 -1.54646 0
0.247899 -1.52082 0
0.026969 -1.49241 0
0.0224518 -1.46306 0
0.0153894 -1.44152 0
0.00310446 -1.43863 0
-0.00593999 -1.42786 0
0.00124759 -1.38398 0
-0.0189742 -1.34717 0
-0.446698 -1.42934 0
-0.873879 -1.51597 0
0.499002 -1.89447 0
0.196982 -1.87305 0
0.0269753 -1.85266 0
0.00512373 -1.82777 0
-0.0160339 -1.80376 0
-0.0354917 -1.7992 0
-0.0436352 -1.78919 0
0.00346666 -1.75703 0
0.0264765 -1.72001 0
-0.386682 -1.75306 0
-0.796675 -1.79107 0
SCALARS mass double 1
LOOKUP_TABLE default
2.67769
2.67769
2.67769
2.67769
2.67769
2.67769
2.67769
2.67769
2.67769
2.67769
2.67769
2.67769
2.67769
2.67769
2.67769
2.67769
2.67769
2.67769
2.67769
2.67769
2.67769
2.67769
2.67769
2.67769
2.67769
2.67769
2.67769
2.67769
2.67769
2.67769
2.67769
2.67769
2.67769
2.67769
2.67769
2.67769
2.67769
2.67769
2.67769
2.67769
2.67769
2.67769
2.67769
2.67769
2.67769
2.67769
2.67769
2.67769
2.67769
2.67769
2.67769
2.67769
2.67769
2.67769
2.67769
2.67769
2.67769
2.67769
2.67769
2.67769
2.67769
2.67769
2.67769
2.67769
2.67769
2.67769
2.67769
2.67769
2.67769
2.67769
2.67769
2.67769
2.67769
2.67769
2.67769
2.67769
2.67769
2.67769
2.67769
2.67769
2.67769
2.67769
2.67769
2.67769
2.67769
2.67769
2.67769
2.67769
2.67769
2.67769
2.67769
2.67769
2.67769
2.67769
2.67769
2.67769
2.67769
2.67769
2.67769
2.67769
2.67769
2.67769
2.67769
2.67769
2.67769
2.67769
2.67769
2.67769
2.67769
2.67769
2.67769
2.67769
2.67769
2.67769
2.67769
2.67769
2.67769
2.67769
2.67769
2.67769
2.67769
SCALARS volume double 1
LOOKUP_TABLE default
0.000747549
0.000718328
0.000625315
0.000608006
0.000636464
0.000629159
0.000600404
0.000583357
0.00048337
0.000564694
0.000657732
0.000824987
0.000789638
0.000558689
0.000544772
0.00065609
0.000648343
0.000580242
0.000564289
0.000328697
0.000364561
0.000402495
0.000428009
0.000453772
0.000301048
0.000315433
0.000442983
0.000449052
0.000394126
0.00041505
0.000234019
0.000172768
0.000150952
0.000426963
0.0004526
0.00030441
0.000314767
0.000431404
0.000437856
0.000373493
0.000392117
0.00026541
0.000184452
0.000160759
0.000482496
0.000510219
0.000347526
0.000358925
0.000481992
0.000489044
0.000403639
0.000422637
0.000313264
0.000224043
0.000196093
0.000735021
0.000763431
0.00052236
0.000530226
0.00068955
0.000695718
0.000559831
0.00056472
0.000414898
0.000349661
0.000330207
0.000837788
0.000838236
0.000595035
0.000598103
0.000731574
0.000734432
0.000610748
0.000605497
0.000450891
0.000400633
0.00039801
0.000795538
0.00079373
0.000588876
0.00058959
0.000691439
0.000692715
0.000595696
0.000592261
0.000453965
0.000414315
0.000415913
0.000733771
0.000730995
0.000569326
0.000568378
0.000643991
0.00064355
0.000573896
0.00057292
0.000450584
0.000419807
0.000422725
0.00070286
0.000700814
0.000566361
0.000565442
0.000625096
0.000624556
0.00057279
0.000571318
0.000457955
0.00043131
0.000435661
0.000684741
0.000685299
0.000562414
0.000565075
0.000618082
0.000330709
0.000564363
0.00057072
0.000463425
0.000443766
0.000445838
TENSORS stress double
4965.26 1671.59 0
1671.59 9383.57 0
0 0 0
4969.37 6892.18 0
6892.18 9225.61 0
0 0 0
4768.2 7514.38 0
7514.38 9089.11 0
0 0 0
4776.51 2001.03 0
2001.03 8975.6 0
0 0 0
4933.88 -1058.24 0
-1058.24 8878.07 0
0 0 0
4935.42 564.335 0
564.335 8823.22 0
0 0 0
4829.31 1082.44 0
1082.44 8777.82 0
0 0 0
4836.36 -716.109 0
-716.109 8769.79 0
0 0 0
4552.1 1054.4 0
1054.4 8797.95 0
0 0 0
4461.7 -17137.9 0
-17137.9 9371.2 0
0 0 0
4357.09 -35196.1 0
-35196.1 9921.31 0
0 0 0
4742.86 -54.2421 0
-54.2421 8529.33 0
0 0 0
4755.99 5468.94 0
5468.94 8388.17 0
0 0 0
4153.9 5674.92 0
5674.92 8284.39 0
0 0 0
4177.06 467.917 0
467.917 8202.53 0
0 0 0
4648.24 -1586.56 0
-1586.56 8127.93 0
0 0 0
4652.97 63.794 0
63.794 8079.71 0
0 0 0
4334.93 -334.404 0
-334.404 8045.58 0
0 0 0
4355.83 -2084.09 0
-2084.09 8058.63 0
0 0 0
3510.2 9743.02 0
9743.02 8067.55 0
0 0 0
3303.7 -4808.73 0
-4808.73 8358.23 0
0 0 0
3075.4 -19116.6 0
-19116.6 8612.05 0
0 0 0
4544.65 -3418.49 0
-3418.49 6163.1 0
0 0 0
4567.62 -3440.56 0
-3440.56 6481.36 0
0 0 0
3620.87 -2435.36 0
-2435.36 6701.82 0
0 0 0
3645.18 -1898.43 0
-1898.43 7518.04 0
0 0 0
4391.39 -149.048 0
-149.048 7453.09 0
0 0 0
4397.81 -363.604 0
-363.604 7408.09 0
0 0 0
3884.65 -2509.89 0
-2509.89 7378.8 0
0 0 0
3908.64 -4643.57 0
-4643.57 7396.94 0
0 0 0
3928.63 6518.89 0
6518.89 7409.68 0
0 0 0
2311 15569.3 0
15569.3 7571.49 0
0 0 0
2275.65 17738.2 0
17738.2 6425.55 0
0 0 0
4366.94 -1814.45 0
-1814.45 5744.5 0
0 0 0
4379.56 -1796.7 0
-1796.7 6037.75 0
0 0 0
3387.94 -1177.87 0
-1177.87 6241.11 0
0 0 0
3397.3 -561.799 0
-561.799 6400.75 0
0 0 0
4128.62 653.97 0
653.97 6545.01 0
0 0 0
4134.12 131.813 0
131.813 6642.2 0
0 0 0
3501.29 -1013.4 0
-1013.4 6734.55 0
0 0 0
3509.26 -3625.64 0
-3625.64 6812.96 0
0 0 0
3516.27 -2691.31 0
-2691.31 6888.57 0
0 0 0
2224.79 7912.15 0
7912.15 6479.77 0
0 0 0
2213.3 10563.9 0
10563.9 5987.83 0
0 0 0
4185.77 -221.039 0
-221.039 5317.73 0
0 0 0
4187.97 -225.076 0
-225.076 5585.78 0
0 0 0
3150.57 -11.5437 0
-11.5437 5771.56 0
0 0 0
3152.29 672.326 0
672.326 5917.75 0
0 0 0
3850.64 1093.01 0
1093.01 6048.32 0
0 0 0
3852.23 563.865 0
563.865 6137.9 0
0 0 0
3101.61 838.954 0
838.954 6218.31 0
0 0 0
3090.58 -1488.25 0
-1488.25 6269.64 0
0 0 0
3080.04 -5179.92 0
-5179.92 6320.28 0
0 0 0
2152.98 514.523 0
514.523 6005.21 0
0 0 0
2150.28 3882.3 0
3882.3 5542.87 0
0 0 0
3932.84 798.552 0
798.552 4721.31 0
0 0 0
3924.28 -26.2051 0
-26.2051 4961.74 0
0 0 0
2827.09 -184.812 0
-184.812 5130.06 0
0 0 0
2820.81 869.05 0
869.05 5262.95 0
0 0 0
3476.92 763.124 0
763.124 5379.93 0
0 0 0
3474.14 57.5287 0
57.5287 5460.81 0
0 0 0
2569.29 1227.21 0
1227.21 5530.54 0
0 0 0
2545.98 1574.81 0
1574.81 5564.64 0
0 0 0
2524.26 -356.333 0
-356.333 5599.67 0
0 0 0
2056.42 -1118.1 0
-1118.1 5340.3 0
0 0 0
2062.07 1735.73 0
1735.73 4898.54 0
0 0 0
3503.58 711.266 0
711.266 5791.56 0
0 0 0
3488.53 -667.228 0
-667.228 5759.95 0
0 0 0
2452.78 -697.506 0
-697.506 5744.96 0
0 0 0
2444.79 570.124 0
570.124 5737.03 0
0 0 0
3003.53 532.804 0
532.804 5732.3 0
0 0 0
2998.44 -196.701 0
-196.701 5735.48 0
0 0 0
2153.69 573.368 0
573.368 5722.68 0
0 0 0
2144.24 1855.21 0
1855.21 5661.25 0
0 0 0
2135.86 439.567 0
439.567 5603.25 0
0 0 0
1789.18 16.3964 0
16.3964 5639.86 0
0 0 0
1809.41 2660.77 0
2660.77 5685.56 0
0 0 0
3020.48 669.506 0
669.506 4962.75 0
0 0 0
3006.1 -736.494 0
-736.494 4932.42 0
0 0 0
2104.99 -655.455 0
-655.455 4915.53 0
0 0 0
2095.9 586.667 0
586.667 4905.25 0
0 0 0
2537.03 554.792 0
554.792 4898.19 0
0 0 0
2530.63 -10.9873 0
-10.9873 4898.87 0
0 0 0
1841.95 278.236 0
278.236 4886.82 0
0 0 0
1835.23 1569.93 0
1569.93 4831.76 0
0 0 0
1829.49 59.2339 0
59.2339 4779.9 0
0 0 0
1473.2 352.546 0
352.546 4820.52 0
0 0 0
1494.55 3262.97 0
3262.97 4868.64 0
0 0 0
2561.49 579.757 0
579.757 3728.01 0
0 0 0
2549.41 -722.416 0
-722.416 3692.45 0
0 0 0
1765.63 -647.018 0
-647.018 3660.07 0
0 0 0
1756.45 475.692 0
475.692 3630.53 0
0 0 0
2112.78 472.459 0
472.459 3607.8 0
0 0 0
2107.15 99.3219 0
99.3219 3600.77 0
0 0 0
1548.61 351.04 0
351.04 3593.76 0
0 0 0
1542.89 1604.59 0
1604.59 3586.26 0
0 0 0
1538.13 -44.9659 0
-44.9659 3581.23 0
0 0 0
1152.68 774.776 0
774.776 3660.46 0
0 0 0
1175.25 3505.57 0
3505.57 3746.57 0
0 0 0
2125.71 623.584 0
623.584 2965.19 0
0 0 0
2115.18 -307.29 0
-307.29 2932.63 0
0 0 0
1425.15 -155.692 0
-155.692 2902.12 0
0 0 0
1416.47 601.203 0
601.203 2873.57 0
0 0 0
1721.81 413.144 0
413.144 2851.72 0
0 0 0
1716.56 127.228 0
127.228 2845.41 0
0 0 0
1264.49 319.598 0
319.598 2839.33 0
0 0 0
1259.49 1369.79 0
1369.79 2833.94 0
0 0 0
1255.42 -390.567 0
-390.567 2830.9 0
0 0 0
819.833 -103.354 0
-103.354 2908.45 0
0 0 0
840.04 1668.11 0
1668.11 2990.96 0
0 0 0
1697.01 643.638 0
643.638 2214.74 0
0 0 0
1687.54 -51.3954 0
-51.3954 2184.2 0
0 0 0
1089.67 -49.2781 0
-49.2781 2155.25 0
0 0 0
1081.48 524.459 0
524.459 2127.66 0
0 0 0
1336.45 276.571 0
276.571 2106.51 0
0 0 0
1332.33 -996.271 0
-996.271 -44189.1 0
0 0 0
988.339 165.878 0
165.878 -781.137 0
0 0 0
988.503 1209.91 0
1209.91 250.916 0
0 0 0
988.637 -436.506 0
-436.506 1273.7 0
0 0 0
490.214 -296.294 0
-296.294 2162.88 0
0 0 0
507.811 961.138 0
961.138 2240.68 0
0 0 0
TENSORS strain double
0.050043 0.0167159 0
0.0167159 -0.044998 0
0 0 0
0.0494542 0.0689218 0
0.0689218 -0.0842459 0
0 0 0
-0.0546361 0.0751438 0
0.0751438 -0.118524 0
0 0 0
-0.0541478 0.0200103 0
0.0200103 -0.14695 0
0 0 0
0.015089 -0.0105824 0
-0.0105824 -0.170569 0
0 0 0
0.0150319 0.00564335 0
0.00564335 -0.181996 0
0 0 0
-0.0167489 0.0108244 0
0.0108244 -0.196778 0
0 0 0
-0.0164413 -0.00716109 0
-0.00716109 -0.225772 0
0 0 0
-0.188622 0.010544 0
0.010544 -0.240565 0
0 0 0
-0.198999 -0.171379 0
-0.171379 -0.07583 0
0 0 0
-0.210359 -0.351961 0
-0.351961 0.0874969 0
0 0 0
0.150083 -0.000542421 0
-0.000542421 -0.0463789 0
0 0 0
0.148227 0.0546894 0
0.0546894 -0.088356 0
0 0 0
-0.163789 0.0567492 0
0.0567492 -0.121557 0
0 0 0
-0.162401 0.00467917 0
0.00467917 -0.147996 0
0 0 0
0.0452677 -0.0158656 0
-0.0158656 -0.170475 0
0 0 0
0.0450942 0.00063794 0
0.00063794 -0.182127 0
0 0 0
-0.050234 -0.00334404 0
-0.00334404 -0.197255 0
0 0 0
-0.0493187 -0.0208409 0
-0.0208409 -0.22592 0
0 0 0
-0.565329 0.0974302 0
0.0974302 -0.245495 0
0 0 0
-0.590854 -0.0480873 0
-0.0480873 -0.117902 0
0 0 0
-0.618092 -0.191166 0
-0.191166 0.00712603 0
0 0 0
0.212625 -0.0341849 0
-0.0341849 -0.762168 0
0 0 0
0.212343 -0.0344056 0
-0.0344056 -0.70413 0
0 0 0
-0.235171 -0.0243536 0
-0.0243536 -0.661919 0
0 0 0
-0.235162 -0.0189843 0
-0.0189843 -0.616075 0
0 0 0
0.0660444 -0.00149048 0
-0.00149048 -0.581893 0
0 0 0
0.0660003 -0.00363604 0
-0.00363604 -0.568384 0
0 0 0
-0.0822548 -0.0250989 0
-0.0250989 -0.549213 0
0 0 0
-0.0808599 -0.0464357 0
-0.0464357 -0.499477 0
0 0 0
-0.67872 0.0651889 0
0.0651889 -0.466273 0
0 0 0
-0.842398 0.155693 0
0.155693 -0.599384 0
0 0 0
-0.835674 0.177382 0
0.177382 -0.737277 0
0 0 0
0.210292 -0.0181445 0
-0.0181445 -0.762302 0
0 0 0
0.210145 -0.017967 0
-0.017967 -0.704532 0
0 0 0
-0.224043 -0.0117787 0
-0.0117787 -0.662084 0
0 0 0
-0.224085 -0.00561799 0
-0.00561799 -0.629188 0
0 0 0
0.0591705 0.0065397 0
0.0065397 -0.601268 0
0 0 0
0.0592128 0.00131813 0
0.00131813 -0.586625 0
0 0 0
-0.119851 -0.010134 0
-0.010134 -0.564652 0
0 0 0
-0.119363 -0.0362564 0
-0.0362564 -0.517092 0
0 0 0
-0.546482 -0.0269131 0
-0.0269131 -0.475253 0
0 0 0
-0.772899 0.0791215 0
0.0791215 -0.604972 0
0 0 0
-0.769443 0.105639 0
0.105639 -0.742169 0
0 0 0
0.207794 -0.00221039 0
-0.00221039 -0.63769 0
0 0 0
0.207782 -0.00225076 0
-0.00225076 -0.582479 0
0 0 0
-0.212614 -0.000115437 0
-0.000115437 -0.541748 0
0 0 0
-0.212594 0.00672326 0
0.00672326 -0.510084 0
0 0 0
0.0519098 0.0109301 0
0.0109301 -0.483321 0
0 0 0
0.051915 0.00563865 0
0.00563865 -0.468963 0
0 0 0
-0.158153 0.00838954 0
0.00838954 -0.448502 0
0 0 0
-0.15885 -0.0148825 0
-0.0148825 -0.402425 0
0 0 0
-0.492987 -0.0517992 0
-0.0517992 -0.365107 0
0 0 0
-0.701723 0.00514523 0
0.00514523 -0.484603 0
0 0 0
-0.701903 0.038823 0
0.038823 -0.614036 0
0 0 0
0.199523 0.00798552 0
0.00798552 -0.210302 0
0 0 0
0.199487 -0.000262051 0
-0.000262051 -0.172685 0
0 0 0
-0.195212 -0.00184812 0
-0.00184812 -0.156058 0
0 0 0
-0.1951 0.0086905 0
0.0086905 -0.141462 0
0 0 0
0.0414242 0.00763124 0
0.00763124 -0.116636 0
0 0 0
0.0413855 0.000575287 0
0.000575287 -0.107757 0
0 0 0
-0.181396 0.0122721 0
0.0122721 -0.101094 0
0 0 0
-0.181581 0.0157481 0
0.0157481 -0.0924107 0
0 0 0
-0.485839 -0.00356333 0
-0.00356333 -0.0947971 0
0 0 0
-0.61865 -0.011181 0
-0.011181 -0.130711 0
0 0 0
-0.6205 0.0173573 0
0.0173573 -0.1847 0
0 0 0
0.176875 0.00711266 0
0.00711266 -0.0577221 0
0 0 0
0.176581 -0.00667228 0
-0.00667228 -0.0568935 0
0 0 0
-0.16928 -0.00697506 0
-0.00697506 -0.0534096 0
0 0 0
-0.169044 0.00570124 0
0.00570124 -0.048526 0
0 0 0
0.0273476 0.00532804 0
0.00532804 -0.043912 0
0 0 0
0.0272802 -0.00196701 0
-0.00196701 -0.0399455 0
0 0 0
-0.157645 0.00573368 0
0.00573368 -0.0389583 0
0 0 0
-0.157151 0.0185521 0
0.0185521 -0.0480405 0
0 0 0
-0.44135 0.00439567 0
0.00439567 -0.0570733 0
0 0 0
-0.552971 0.000163964 0
0.000163964 -0.0625326 0
0 0 0
-0.554417 0.0266077 0
0.0266077 -0.0675777 0
0 0 0
0.151845 0.00669506 0
0.00669506 -0.0845337 0
0 0 0
0.151561 -0.00736494 0
-0.00736494 -0.0865275 0
0 0 0
-0.143053 -0.00655455 0
-0.00655455 -0.0899751 0
0 0 0
-0.142807 0.00586667 0
0.00586667 -0.0890154 0
0 0 0
0.0148464 0.00554792 0
0.00554792 -0.0877775 0
0 0 0
0.014775 -0.000109873 0
-0.000109873 -0.0858639 0
0 0 0
-0.131256 0.00278236 0
0.00278236 -0.0901982 0
0 0 0
-0.130873 0.0156993 0
0.0156993 -0.0963301 0
0 0 0
-0.389454 0.000592339 0
0.000592339 -0.102206 0
0 0 0
-0.486075 0.00352546 0
0.00352546 -0.0960808 0
0 0 0
-0.487639 0.0326297 0
0.0326297 -0.0907138 0
0 0 0
0.127504 0.00579757 0
0.00579757 -0.141063 0
0 0 0
0.127278 -0.00722416 0
-0.00722416 -0.144626 0
0 0 0
-0.119313 -0.00647018 0
-0.00647018 -0.147288 0
0 0 0
-0.119126 0.00475692 0
0.00475692 -0.149131 0
0 0 0
0.00675709 0.00472459 0
0.00472459 -0.150619 0
0 0 0
0.00672331 0.000993219 0
0.000993219 -0.151267 0
0 0 0
-0.106327 0.0035104 0
0.0035104 -0.152178 0
0 0 0
-0.10601 0.0160459 0
0.0160459 -0.154195 0
0 0 0
-0.341406 -0.000449659 0
-0.000449659 -0.157703 0
0 0 0
-0.420846 0.00774776 0
0.00774776 -0.148199 0
0 0 0
-0.422143 0.0350557 0
0.0350557 -0.140061 0
0 0 0
0.108004 0.00623584 0
0.00623584 -0.16459 0
0 0 0
0.107831 -0.0030729 0
-0.0030729 -0.167329 0
0 0 0
-0.100845 -0.00155692 0
-0.00155692 -0.170981 0
0 0 0
-0.100698 0.00601203 0
0.00601203 -0.172741 0
0 0 0
0.000650292 0.00413144 0
0.00413144 -0.174225 0
0 0 0
0.000621862 0.00127228 0
0.00127228 -0.175058 0
0 0 0
-0.0844689 0.00319598 0
0.00319598 -0.176037 0
0 0 0
-0.0842282 0.0136979 0
0.0136979 -0.178843 0
0 0 0
-0.302859 -0.00390567 0
-0.00390567 -0.180116 0
0 0 0
-0.372797 -0.00103354 0
-0.00103354 -0.169468 0
0 0 0
-0.373616 0.0166811 0
0.0166811 -0.158723 0
0 0 0
0.0942353 0.00643638 0
0.00643638 -0.176874 0
0 0 0
0.09413 -0.000513954 0
-0.000513954 -0.17597 0
0 0 0
-0.0887698 -0.000492781 0
-0.000492781 -0.189838 0
0 0 0
-0.0886823 0.00524459 0
0.00524459 -0.185308 0
0 0 0
-0.00317 0.00276571 0
0.00276571 -0.181611 0
0 0 0
-0.00316893 -0.00996271 0
-0.00996271 -0.642744 0
0 0 0
-0.0675712 0.00165878 0
0.00165878 -0.207132 0
0 0 0
-0.0673435 0.0120991 0
0.0120991 -0.196532 0
0 0 0
-0.285401 -0.00436506 0
-0.00436506 -0.185676 0
0 0 0
-0.341559 -0.00296294 0
-0.00296294 -0.172409 0
0 0 0
-0.341809 0.00961138 0
0.00961138 -0.16752 0
0 0 0
