# vtk DataFile Version 3.0
MPM2D particles
ASCII
DATASET POLYDATA
POINTS 121 double
0.0142324 2.08759e-09 0
0.0423199 8.66952e-10 0
0.06703 4.22718e-10 0
0.0890636 2.32301e-10 0
0.112229 3.60725e-10 0
0.137809 8.73248e-09 0
0.162773 2.25842e-07 0
0.185291 8.59726e-06 0
0.206091 0.000266559 0
0.199227 0.000696717 0
0.188602 0.000261733 0
0.0184116 5.56079e-09 0
0.053622 1.88303e-09 0
0.0745411 1.04905e-09 0
0.0917055 6.51997e-10 0
0.11167 1.00866e-09 0
0.13845 2.83777e-08 0
0.163023 7.17706e-07 0
0.181362 1.432e-05 0
0.197402 0.000213208 0
0.196736 0.000347588 0
0.191659 0.000256382 0
0.0222033 7.69346e-09 0
0.0620323 2.38096e-09 0
0.0792995 1.47166e-09 0
0.0934841 9.92611e-10 0
0.111286 1.53707e-09 0
0.139014 4.87906e-08 0
0.162862 1.14173e-06 0
0.17806 1.40308e-05 0
0.191133 0.000129657 0
0.192099 0.000197969 0
0.189661 0.000181533 0
0.0233027 8.70845e-09 0
0.064352 2.71387e-09 0
0.0809086 1.7421e-09 0
0.0944245 1.21281e-09 0
0.111786 2.07707e-09 0
0.13942 6.56201e-08 0
0.16222 1.34141e-06 0
0.175121 1.16129e-05 0
0.18614 7.72735e-05 0
0.188541 0.000135541 0
0.187241 0.000139397 0
0.0242227 9.62921e-09 0
0.0661815 3.03219e-09 0
0.0822544 2.00601e-09 0
0.0953262 1.43269e-09 0
0.112471 2.77704e-09 0
0.139649 8.36493e-08 0
0.161244 1.4451e-06 0
0.172055 9.02832e-06 0
0.181221 4.44114e-05 0
0.184998 9.13464e-05 0
0.184996 0.000109505 0
0.0251707 1.08705e-08 0
0.0679609 3.48268e-09 0
0.0835984 2.37909e-09 0
0.096258 1.74741e-09 0
0.113145 3.84624e-09 0
0.139349 1.04162e-07 0
0.159548 1.44907e-06 0
0.168371 6.58225e-06 0
0.175849 2.44525e-05 0
0.180267 5.34661e-05 0
0.182031 7.99823e-05 0
0.0258205 1.27691e-08 0
0.0690924 4.19273e-09 0
0.0844083 2.94884e-09 0
0.0967536 2.22362e-09 0
0.113147 5.05567e-09 0
0.13775 1.14518e-07 0
0.15698 1.32255e-06 0
0.164527 4.79682e-06 0
0.171029 1.50189e-05 0
0.175296 3.1421e-05 0
0.178356 5.50942e-05 0
0.0257307 1.54223e-08 0
0.0689623 5.18466e-09 0
0.0842123 3.70913e-09 0
0.0964794 2.84102e-09 0
0.112289 5.84129e-09 0
0.135231 1.09618e-07 0
0.154138 1.20237e-06 0
0.161381 3.7953e-06 0
0.167606 1.1215e-05 0
0.171759 2.28686e-05 0
0.175301 4.24049e-05 0
0.0250289 1.86401e-08 0
0.0678911 6.38564e-09 0
0.0833001 4.59436e-09 0
0.0956659 3.54104e-09 0
0.110963 6.08851e-09 0
0.132641 9.89333e-08 0
0.151485 1.0802e-06 0
0.159076 3.27959e-06 0
0.165372 9.71732e-06 0
0.169607 2.00429e-05 0
0.173342 3.81316e-05 0
0.0242096 2.2102e-08 0
0.0666046 7.69787e-09 0
0.0822037 5.54809e-09 0
0.0946605 4.29245e-09 0
0.109492 6.01264e-09 0
0.130291 8.84688e-08 0
0.148993 9.58803e-07 0
0.157263 2.96352e-06 0
0.163742 8.98001e-06 0
0.168095 1.88606e-05 0
0.171947 3.65209e-05 0
0.0234378 2.57941e-08 0
0.0653158 9.14043e-09 0
0.081057 6.59617e-09 0
0.093527 5.12599e-09 0
0.107887 5.72602e-09 0
0.128053 7.85913e-08 0
0.146531 8.3892e-07 0
0.155569 2.76457e-06 0
0.1623 8.41636e-06 0
0.166745 1.79191e-05 0
0.170628 3.48815e-05 0
VERTICES 121 242
1 0
1 1
1 2
1 3
1 4
1 5
1 6
1 7
1 8
1 9
1 10
1 11
1 12
1 13
1 14
1 15
1 16
1 17
1 18
1 19
1 20
1 21
1 22
1 23
1 24
1 25
1 26
1 27
1 28
1 29
1 30
1 31
1 32
1 33
1 34
1 35
1 36
1 37
1 38
1 39
1 40
1 41
1 42
1 43
1 44
1 45
1 46
1 47
1 48
1 49
1 50
1 51
1 52
1 53
1 54
1 55
1 56
1 57
1 58
1 59
1 60
1 61
1 62
1 63
1 64
1 65
1 66
1 67
1 68
1 69
1 70
1 71
1 72
1 73
1 74
1 75
1 76
1 77
1 78
1 79
1 80
1 81
1 82
1 83
1 84
1 85
1 86
1 87
1 88
1 89
1 90
1 91
1 92
1 93
1 94
1 95
1 96
1 97
1 98
1 99
1 100
1 101
1 102
1 103
1 104
1 105
1 106
1 107
1 108
1 109
1 110
1 111
1 112
1 113
1 114
1 115
1 116
1 117
1 118
1 119
1 120
POINT_DATA 121
VECTORS velocity double
4.71143 7.21526 0
2.44145 5.14404 0
1.12657 3.76692 0
0.776881 3.00557 0
0.487392 2.57406 0
0.394227 3.03115 0
0.203096 3.01144 0
-0.312719 1.14064 0
-0.888276 -0.387782 0
-5.60873 6.41416 0
-8.5294 10.1345 0
3.25202 1.49729 0
0.594072 0.307395 0
-0.0470054 -0.215493 0
0.195905 -0.606902 0
0.34753 -0.853513 0
0.34166 -0.58269 0
0.280244 -0.614222 0
0.181796 -1.5331 0
0.18197 -2.44465 0
-0.799543 -0.904928 0
-1.06497 -0.0233604 0
2.22079 -2.45765 0
-0.601338 -2.86007 0
-0.776616 -3.02485 0
-0.183382 -3.20784 0
0.263517 -3.34876 0
0.334452 -3.25378 0
0.385628 -3.2693 0
0.562234 -3.46198 0
0.818975 -3.70875 0
0.888283 -3.64914 0
1.17756 -3.66166 0
2.2038 -3.09845 0
-0.538824 -3.37256 0
-0.679907 -3.50269 0
-0.124081 -3.64845 0
0.311812 -3.7638 0
0.412894 -3.73436 0
0.473064 -3.74687 0
0.564502 -3.71759 0
0.697449 -3.71656 0
0.494712 -3.82245 0
0.524126 -3.9786 0
2.24313 -3.55258 0
-0.376549 -3.74995 0
-0.509682 -3.83705 0
-0.0346412 -3.93941 0
0.34496 -4.01902 0
0.477166 -4.01717 0
0.540294 -4.02006 0
0.500602 -3.86399 0
0.468529 -3.73717 0
-0.0562236 -3.91218 0
-0.292031 -4.19144 0
2.21947 -3.90966 0
-0.264886 -4.08044 0
-0.400264 -4.12635 0
0.00262754 -4.17843 0
0.327853 -4.2093 0
0.484614 -4.19692 0
0.564117 -4.19178 0
0.46011 -4.02124 0
0.34602 -3.88125 0
-0.333869 -4.05005 0
-0.822812 -4.34148 0
2.0375 -4.15795 0
-0.274707 -4.34259 0
-0.403853 -4.35299 0
-0.0368826 -4.35905 0
0.262006 -4.3493 0
0.425177 -4.31975 0
0.529642 -4.3074 0
0.429858 -4.17998 0
0.306769 -4.0665 0
-0.363975 -4.22252 0
-1.00601 -4.48344 0
1.72185 -4.43133 0
-0.315649 -4.62073 0
-0.426909 -4.60595 0
-0.0928771 -4.57995 0
0.188382 -4.54412 0
0.357003 -4.49559 0
0.469842 -4.44432 0
0.360434 -4.37152 0
0.2074 -4.27279 0
-0.409157 -4.40883 0
-1.06705 -4.63885 0
1.33555 -4.86745 0
-0.33851 -5.0221 0
-0.432261 -4.9899 0
-0.155583 -4.94176 0
0.0945 -4.8869 0
0.27135 -4.8197 0
0.401359 -4.73624 0
0.279921 -4.69508 0
0.100318 -4.60229 0
-0.471095 -4.69053 0
-1.10388 -4.85658 0
0.946214 -5.63458 0
-0.375469 -5.71019 0
-0.45846 -5.65071 0
-0.253804 -5.57607 0
-0.0456194 -5.49461 0
0.14235 -5.39883 0
0.299655 -5.27945 0
0.194337 -5.24988 0
0.0168623 -5.16781 0
-0.534597 -5.18897 0
-1.15868 -5.25637 0
0.505062 -6.92637 0
-0.477761 -6.89813 0
-0.549511 -6.80903 0
-0.432133 -6.702 0
-0.280744 -6.55527 0
-0.0750026 -6.41996 0
0.134586 -6.21684 0
0.0709957 -6.18736 0
-0.0672188 -6.13301 0
-0.600071 -6.05698 0
-1.21807 -5.98969 0
SCALARS mass double 1
LOOKUP_TABLE default
2.67769
2.67769
2.67769
2.67769
2.67769
2.67769
2.67769
2.67769
2.67769
2.67769
2.67769
2.67769
2.67769
2.67769
2.67769
2.67769
2.67769
2.67769
2.67769
2.67769
2.67769
2.67769
2.67769
2.67769
2.67769
2.67769
2.67769
2.67769
2.67769
2.67769
2.67769
2.67769
2.67769
2.67769
2.67769
2.67769
2.67769
2.67769
2.67769
2.67769
2.67769
2.67769
2.67769
2.67769
2.67769
2.67769
2.67769
2.67769
2.67769
2.67769
2.67769
2.67769
2.67769
2.67769
2.67769
2.67769
2.67769
2.67769
2.67769
2.67769
2.67769
2.67769
2.67769
2.67769
2.67769
2.67769
2.67769
2.67769
2.67769
2.67769
2.67769
2.67769
2.67769
2.67769
2.67769
2.67769
2.67769
2.67769
2.67769
2.67769
2.67769
2.67769
2.67769
2.67769
2.67769
2.67769
2.67769
2.67769
2.67769
2.67769
2.67769
2.67769
2.67769
2.67769
2.67769
2.67769
2.67769
2.67769
2.67769
2.67769
2.67769
2.67769
2.67769
2.67769
2.67769
2.67769
2.67769
2.67769
2.67769
2.67769
2.67769
2.67769
2.67769
2.67769
2.67769
2.67769
2.67769
2.67769
2.67769
2.67769
2.67769
SCALARS volume double 1
LOOKUP_TABLE default
1.41712e-10
5.83264e-11
2.21957e-11
1.22591e-11
2.19725e-11
5.31702e-10
1.22944e-08
4.65108e-07
1.03756e-05
7.72918e-06
1.3519e-06
1.63407e-10
5.15628e-11
1.43271e-11
9.0251e-12
2.146e-11
6.03014e-10
1.0889e-08
2.14083e-07
1.79045e-06
9.40827e-07
3.64819e-07
7.5586e-11
1.81435e-11
6.08579e-12
4.45275e-12
1.40101e-11
4.54591e-10
6.40848e-09
8.27106e-08
4.23138e-07
1.98173e-07
7.18222e-08
6.55571e-11
1.44294e-11
5.12471e-12
3.92132e-12
1.45939e-11
4.82239e-10
5.20579e-09
4.60862e-08
1.99991e-07
1.16619e-07
4.57757e-08
7.20039e-11
1.48378e-11
5.51768e-12
4.36686e-12
1.90765e-11
6.04953e-10
4.86141e-09
3.03699e-08
1.03657e-07
9.51275e-08
3.87474e-08
1.07832e-10
2.03507e-11
7.89235e-12
6.33622e-12
3.17535e-11
9.20204e-10
5.10599e-09
2.19985e-08
5.5279e-08
8.05439e-08
5.16718e-08
1.4698e-10
2.55455e-11
9.93408e-12
8.06457e-12
3.99794e-11
9.71092e-10
4.09358e-09
1.32362e-08
2.79073e-08
4.64641e-08
4.69141e-08
1.72965e-10
2.88481e-11
1.12735e-11
8.97652e-12
3.7533e-11
7.43304e-10
3.10295e-09
8.21801e-09
1.63824e-08
2.69227e-08
3.66708e-08
1.78279e-10
3.05654e-11
1.17977e-11
9.3276e-12
3.01249e-11
5.07466e-10
2.45792e-09
5.67116e-09
1.15959e-08
1.93132e-08
3.04333e-08
1.80138e-10
3.40248e-11
1.25242e-11
9.9995e-12
2.48994e-11
3.75861e-10
2.19683e-09
4.57799e-09
9.78997e-09
1.61839e-08
2.77057e-08
1.85393e-10
3.7863e-11
1.37538e-11
1.08678e-11
2.11777e-11
1.60654e-10
1.92244e-09
4.10897e-09
8.60542e-09
1.4545e-08
2.54672e-08
TENSORS stress double
5076.68 34762.4 0
34762.4 2310.07 0
0 0 0
5076.68 109506 0
109506 1973.72 0
0 0 0
5076.67 103440 0
103440 1593.79 0
0 0 0
5076.67 45069.8 0
45069.8 1201.37 0
0 0 0
5076.67 -15258.7 0
-15258.7 1808.15 0
0 0 0
5076.67 -84267.3 0
-84267.3 5095.76 0
0 0 0
5076.67 -152814 0
-152814 7977.16 0
0 0 0
5076.47 -227665 0
-227665 9361.45 0
0 0 0
5070.4 -284787 0
-284787 10631.7 0
0 0 0
5060.21 -236864 0
-236864 10194.9 0
0 0 0
5070.45 -191017 0
-191017 9556.36 0
0 0 0
5076.68 38736.3 0
38736.3 2260.03 0
0 0 0
5076.67 127560 0
127560 1832.59 0
0 0 0
5076.67 82365.1 0
82365.1 1460.02 0
0 0 0
5076.67 35463.4 0
35463.4 1154.32 0
0 0 0
5076.67 -14761.2 0
-14761.2 1736.31 0
0 0 0
5076.67 -87063.1 0
-87063.1 5178.07 0
0 0 0
5076.66 -151349 0
-151349 7992.53 0
0 0 0
5076.33 -213298 0
-213298 9119.64 0
0 0 0
5071.63 -254064 0
-254064 10099.1 0
0 0 0
5068.45 -196957 0
-196957 10053.6 0
0 0 0
5070.59 -165046 0
-165046 9744.53 0
0 0 0
5076.68 40540.5 0
40540.5 2214.62 0
0 0 0
5076.67 100355 0
100355 1682.8 0
0 0 0
5076.67 61524.9 0
61524.9 1375.27 0
0 0 0
5076.67 27203.1 0
27203.1 1122.64 0
0 0 0
5076.67 -12727 0
-12727 1686.87 0
0 0 0
5076.67 -89525 0
-89525 5250.58 0
0 0 0
5076.65 -149662 0
-149662 7982.58 0
0 0 0
5076.34 -202192 0
-202192 8916.65 0
0 0 0
5073.6 -235528 0
-235528 9716.48 0
0 0 0
5071.98 -181435 0
-181435 9773.54 0
0 0 0
5072.36 -132509 0
-132509 9624.17 0
0 0 0
5076.68 43559.4 0
43559.4 2201.45 0
0 0 0
5076.67 94286 0
94286 1641.49 0
0 0 0
5076.67 57571.7 0
57571.7 1346.61 0
0 0 0
5076.67 26281.2 0
26281.2 1105.89 0
0 0 0
5076.67 -12224.1 0
-12224.1 1751.23 0
0 0 0
5076.67 -90638.7 0
-90638.7 5302.82 0
0 0 0
5076.64 -144911 0
-144911 7943.13 0
0 0 0
5076.4 -190827 0
-190827 8735.99 0
0 0 0
5074.83 -227860 0
-227860 9411.29 0
0 0 0
5073.45 -186013 0
-186013 9556.94 0
0 0 0
5073.36 -135320 0
-135320 9476.82 0
0 0 0
5076.68 47067.7 0
47067.7 2190.44 0
0 0 0
5076.67 90515.2 0
90515.2 1608.91 0
0 0 0
5076.67 55304.8 0
55304.8 1322.65 0
0 0 0
5076.67 25816.6 0
25816.6 1089.83 0
0 0 0
5076.67 -12815.1 0
-12815.1 1839.22 0
0 0 0
5076.67 -91198 0
-91198 5332.28 0
0 0 0
5076.64 -138915 0
-138915 7883.08 0
0 0 0
5076.46 -177638 0
-177638 8547.57 0
0 0 0
5075.61 -212796 0
-212796 9109.93 0
0 0 0
5074.5 -196992 0
-196992 9340.55 0
0 0 0
5074.06 -139813 0
-139813 9339.79 0
0 0 0
5076.68 50361.1 0
50361.1 2179.08 0
0 0 0
5076.67 86021.1 0
86021.1 1577.21 0
0 0 0
5076.67 51809 0
51809 1298.71 0
0 0 0
5076.67 24716.9 0
24716.9 1073.24 0
0 0 0
5076.67 -13825.2 0
-13825.2 1925.82 0
0 0 0
5076.67 -90730.1 0
-90730.1 5293.66 0
0 0 0
5076.64 -131393 0
-131393 7778.79 0
0 0 0
5076.52 -160381 0
-160381 8321.11 0
0 0 0
5076.09 -187355 0
-187355 8780.34 0
0 0 0
5075.4 -196314 0
-196314 9050.96 0
0 0 0
5074.76 -156764 0
-156764 9158.53 0
0 0 0
5076.68 52049.4 0
52049.4 2171.3 0
0 0 0
5076.67 80164.5 0
80164.5 1557.06 0
0 0 0
5076.67 48312.1 0
48312.1 1284.28 0
0 0 0
5076.67 23721.7 0
23721.7 1064.41 0
0 0 0
5076.67 -13031.3 0
-13031.3 1926.12 0
0 0 0
5076.67 -85982.1 0
-85982.1 5088.18 0
0 0 0
5076.59 -123308 0
-123308 7559.65 0
0 0 0
5076.56 -142588 0
-142588 8084.83 0
0 0 0
5076.31 -161998 0
-161998 8484.26 0
0 0 0
5075.92 -177845 0
-177845 8746.08 0
0 0 0
5075.36 -158678 0
-158678 8933.42 0
0 0 0
5076.68 51168.6 0
51168.6 2172.38 0
0 0 0
5076.67 77189.9 0
77189.9 1559.38 0
0 0 0
5076.67 46771.3 0
46771.3 1287.77 0
0 0 0
5076.67 24089.5 0
24089.5 1069.3 0
0 0 0
5076.67 -9410.26 0
-9410.26 1815.81 0
0 0 0
5076.67 -77041.6 0
-77041.6 4764.38 0
0 0 0
5076.59 -118666 0
-118666 7194.41 0
0 0 0
5076.58 -127888 0
-127888 7891.47 0
0 0 0
5076.4 -143449 0
-143449 8273.92 0
0 0 0
5076.13 -157239 0
-157239 8528.9 0
0 0 0
5075.66 -151274 0
-151274 8746.02 0
0 0 0
5076.68 48803.5 0
48803.5 2180.78 0
0 0 0
5076.67 76940.2 0
76940.2 1578.46 0
0 0 0
5076.67 47789.9 0
47789.9 1304.02 0
0 0 0
5076.67 25594.8 0
25594.8 1083.78 0
0 0 0
5076.67 -4248.42 0
-4248.42 1645.4 0
0 0 0
5076.67 -67185 0
-67185 4431.54 0
0 0 0
5076.6 -115332 0
-115332 6853.35 0
0 0 0
5076.6 -117819 0
-117819 7749.71 0
0 0 0
5076.44 -131797 0
-131797 8136.62 0
0 0 0
5076.19 -143579 0
-143579 8396.68 0
0 0 0
5075.76 -145863 0
-145863 8625.72 0
0 0 0
5076.68 46947 0
46947 2190.59 0
0 0 0
5076.67 78036.5 0
78036.5 1601.37 0
0 0 0
5076.67 50423.3 0
50423.3 1323.55 0
0 0 0
5076.67 27672.6 0
27672.6 1101.69 0
0 0 0
5076.67 1246.51 0
1246.51 1456.36 0
0 0 0
5076.67 -58224.9 0
-58224.9 4129.56 0
0 0 0
5076.61 -113560 0
-113560 6533.06 0
0 0 0
5076.48 -111573 0
-111573 7595.96 0
0 0 0
5076.46 -124084 0
-124084 8036.44 0
0 0 0
5076.22 -136215 0
-136215 8303.74 0
0 0 0
5075.8 -144355 0
-144355 8539.98 0
0 0 0
5076.68 45117.6 0
45117.6 2199.84 0
0 0 0
5076.67 78855.5 0
78855.5 1624.32 0
0 0 0
5076.67 51331.7 0
51331.7 1343.97 0
0 0 0
5076.67 29196.6 0
29196.6 1121.88 0
0 0 0
5076.67 6574.49 0
6574.49 1250.07 0
0 0 0
5076.67 -51434.5 0
-51434.5 3841.88 0
0 0 0
5076.62 -106578 0
-106578 6216.7 0
0 0 0
5076.49 -108888 0
-108888 7378.23 0
0 0 0
5076.47 -118494 0
-118494 7947.79 0
0 0 0
5076.24 -130222 0
-130222 8220.77 0
0 0 0
5075.84 -140458 0
-140458 8458.95 0
0 0 0
TENSORS strain double
0.129853 0.347624 0
0.347624 -15.1332 0
0 0 0
0.120967 1.09506 0
1.09506 -15.9628 0
0 0 0
-0.123147 1.0344 0
1.0344 -16.638 0
0 0 0
-0.118155 0.450698 0
0.450698 -17.1984 0
0 0 0
0.0234034 -0.152587 0
-0.152587 -16.7974 0
0 0 0
0.0229907 -0.842673 0
-0.842673 -13.8151 0
0 0 0
-0.086823 -1.52814 0
-1.52814 -10.7069 0
0 0 0
-0.093099 -2.27665 0
-2.27665 -7.18331 0
0 0 0
-0.41863 -2.84787 0
-2.84787 -3.80772 0
0 0 0
-1.65649 -2.36864 0
-2.36864 -2.853 0
0 0 0
-2.40661 -1.91017 0
-1.91017 -3.7917 0
0 0 0
0.387777 0.387363 0
0.387363 -15.245 0
0 0 0
0.319544 1.2756 0
1.2756 -16.2656 0
0 0 0
-0.367003 0.823651 0
0.823651 -16.815 0
0 0 0
-0.353705 0.354634 0
0.354634 -17.2604 0
0 0 0
0.070227 -0.147612 0
-0.147612 -16.8625 0
0 0 0
0.0689423 -0.870631 0
-0.870631 -13.7394 0
0 0 0
-0.261315 -1.51349 0
-1.51349 -10.6515 0
0 0 0
-0.276158 -2.13298 0
-2.13298 -7.75716 0
0 0 0
-0.847815 -2.54064 0
-2.54064 -5.11423 0
0 0 0
-1.94928 -1.96957 0
-1.96957 -4.63277 0
0 0 0
-2.57152 -1.65046 0
-1.65046 -4.9282 0
0 0 0
0.575677 0.405405 0
0.405405 -16.196 0
0 0 0
0.14753 1.00355 0
1.00355 -17.1125 0
0 0 0
-0.554406 0.615249 0
0.615249 -17.4656 0
0 0 0
-0.53901 0.272031 0
0.272031 -17.7695 0
0 0 0
0.105981 -0.12727 0
-0.12727 -17.3187 0
0 0 0
0.104174 -0.89525 0
-0.89525 -14.0588 0
0 0 0
-0.422398 -1.49662 0
-1.49662 -11.0133 0
0 0 0
-0.444318 -2.02192 0
-2.02192 -8.52007 0
0 0 0
-1.078 -2.35528 0
-2.35528 -6.30055 0
0 0 0
-2.011 -1.81435 0
-1.81435 -6.10369 0
0 0 0
-2.58292 -1.32509 0
-1.32509 -6.51106 0
0 0 0
0.624235 0.435594 0
0.435594 -16.3848 0
0 0 0
0.0908804 0.94286 0
0.94286 -17.2781 0
0 0 0
-0.604422 0.575717 0
0.575717 -17.5814 0
0 0 0
-0.592859 0.262812 0
0.262812 -17.8383 0
0 0 0
0.102789 -0.122241 0
-0.122241 -17.2791 0
0 0 0
0.101482 -0.906387 0
-0.906387 -13.9996 0
0 0 0
-0.560623 -1.44911 0
-1.44911 -11.0759 0
0 0 0
-0.592498 -1.90827 0
-1.90827 -8.93963 0
0 0 0
-1.06229 -2.2786 0
-2.2786 -7.04838 0
0 0 0
-1.90365 -1.86013 0
-1.86013 -6.73096 0
0 0 0
-2.47814 -1.3532 0
-1.3532 -7.05505 0
0 0 0
0.663164 0.470677 0
0.470677 -16.329 0
0 0 0
0.0443083 0.905152 0
0.905152 -17.199 0
0 0 0
-0.641268 0.553048 0
0.553048 -17.4677 0
0 0 0
-0.633226 0.258166 0
0.258166 -17.6885 0
0 0 0
0.0862955 -0.128151 0
-0.128151 -17.002 0
0 0 0
0.0849994 -0.91198 0
-0.91198 -13.759 0
0 0 0
-0.709097 -1.38915 0
-1.38915 -10.9884 0
0 0 0
-0.750131 -1.77638 0
-1.77638 -9.18191 0
0 0 0
-1.1327 -2.12796 0
-2.12796 -7.61558 0
0 0 0
-1.73506 -1.96992 0
-1.96992 -7.09921 0
0 0 0
-2.38639 -1.39813 0
-1.39813 -7.30665 0
0 0 0
0.701787 0.503611 0
0.503611 -15.9648 0
0 0 0
-0.011337 0.860211 0
0.860211 -16.824 0
0 0 0
-0.677616 0.51809 0
0.51809 -17.0742 0
0 0 0
-0.674014 0.247169 0
0.247169 -17.2771 0
0 0 0
0.0511968 -0.138252 0
-0.138252 -16.4663 0
0 0 0
0.0487205 -0.907301 0
-0.907301 -13.3044 0
0 0 0
-0.882831 -1.31393 0
-1.31393 -10.756 0
0 0 0
-0.928503 -1.60381 0
-1.60381 -9.3067 0
0 0 0
-1.28387 -1.87355 0
-1.87355 -8.06976 0
0 0 0
-1.59663 -1.96314 0
-1.96314 -7.39596 0
0 0 0
-2.10657 -1.56764 0
-1.56764 -7.31119 0
0 0 0
0.727448 0.520494 0
0.520494 -15.6826 0
0 0 0
-0.034854 0.801645 0
0.801645 -16.5711 0
0 0 0
-0.70429 0.483121 0
0.483121 -16.8184 0
0 0 0
-0.704363 0.237217 0
0.237217 -17.0071 0
0 0 0
-0.00697118 -0.130313 0
-0.130313 -16.18 0
0 0 0
-0.012387 -0.859821 0
-0.859821 -13.1818 0
0 0 0
-1.01537 -1.23308 0
-1.23308 -10.8297 0
0 0 0
-1.06862 -1.42588 0
-1.42588 -9.65164 0
0 0 0
-1.39942 -1.61998 0
-1.61998 -8.6119 0
0 0 0
-1.58474 -1.77845 0
-1.77845 -7.93767 0
0 0 0
-1.91848 -1.58678 0
-1.58678 -7.59333 0
0 0 0
0.723962 0.511686 0
0.511686 -15.5195 0
0 0 0
-0.0447554 0.771899 0
0.771899 -16.4409 0
0 0 0
-0.708174 0.467713 0
0.467713 -16.69 0
0 0 0
-0.709818 0.240895 0
0.240895 -16.8963 0
0 0 0
-0.0695889 -0.0941026 0
-0.0941026 -16.1743 0
0 0 0
-0.0781102 -0.770416 0
-0.770416 -13.3685 0
0 0 0
-1.02518 -1.18666 0
-1.18666 -11.0857 0
0 0 0
-1.12894 -1.27888 0
-1.27888 -10.0484 0
0 0 0
-1.42849 -1.43449 0
-1.43449 -9.09524 0
0 0 0
-1.6028 -1.57239 0
-1.57239 -8.44547 0
0 0 0
-1.79299 -1.51274 0
-1.51274 -7.95571 0
0 0 0
0.696173 0.488035 0
0.488035 -15.4654 0
0 0 0
-0.0317138 0.769402 0
0.769402 -16.4005 0
0 0 0
-0.696878 0.477899 0
0.477899 -16.6586 0
0 0 0
-0.699304 0.255948 0
0.255948 -16.8711 0
0 0 0
-0.119766 -0.0424842 0
-0.0424842 -16.3328 0
0 0 0
-0.130279 -0.67185 0
-0.67185 -13.6812 0
0 0 0
-0.948675 -1.15332 0
-1.15332 -11.3879 0
0 0 0
-1.12965 -1.17819 0
-1.17819 -10.4041 0
0 0 0
-1.40374 -1.31797 0
-1.31797 -9.45264 0
0 0 0
-1.57603 -1.43579 0
-1.43579 -8.79231 0
0 0 0
-1.68138 -1.45863 0
-1.45863 -8.24693 0
0 0 0
0.662719 0.46947 0
0.46947 -15.4251 0
0 0 0
0.00308115 0.780365 0
0.780365 -16.3339 0
0 0 0
-0.686538 0.504233 0
0.504233 -16.6122 0
0 0 0
-0.689545 0.276726 0
0.276726 -16.8149 0
0 0 0
-0.155684 0.0124651 0
0.0124651 -16.4748 0
0 0 0
-0.167487 -0.582249 0
-0.582249 -13.9287 0
0 0 0
-0.803862 -1.1356 0
-1.1356 -11.6388 0
0 0 0
-1.10242 -1.11573 0
-1.11573 -10.6361 0
0 0 0
-1.36498 -1.24084 0
-1.24084 -9.65314 0
0 0 0
-1.54534 -1.36215 0
-1.36215 -8.99246 0
0 0 0
-1.61664 -1.44355 0
-1.44355 -8.40159 0
0 0 0
0.630158 0.451176 0
0.451176 -15.3667 0
0 0 0
0.0332665 0.788555 0
0.788555 -16.2624 0
0 0 0
-0.681231 0.513317 0
0.513317 -16.5279 0
0 0 0
-0.683716 0.291966 0
0.291966 -16.7409 0
0 0 0
-0.180891 0.0657449 0
0.0657449 -16.5974 0
0 0 0
-0.193533 -0.514345 0
-0.514345 -14.5739 0
0 0 0
-0.702656 -1.06578 0
-1.06578 -11.8642 0
0 0 0
-1.05221 -1.08888 0
-1.08888 -10.7893 0
0 0 0
-1.33599 -1.18494 0
-1.18494 -9.80439 0
0 0 0
-1.52519 -1.30222 0
-1.30222 -9.11403 0
0 0 0
-1.58421 -1.40458 0
-1.40458 -8.51449 0
0 0 0
