# vtk DataFile Version 3.0
MPM2D particles
ASCII
DATASET POLYDATA
POINTS 121 double
0.0142293 6.8273e-05 0
0.0423136 4.86781e-05 0
0.0670259 3.80195e-05 0
0.0890626 3.17221e-05 0
0.11223 2.9537e-05 0
0.137814 3.69318e-05 0
0.162789 5.56436e-05 0
0.185408 0.000160747 0
0.207094 0.000457579 0
0.202917 0.00229361 0
0.191361 0.00306191 0
0.0184001 0.000197063 0
0.0536019 0.000131433 0
0.0745324 0.00010877 0
0.0917034 9.36129e-05 0
0.111674 8.81855e-05 0
0.138465 0.000111526 0
0.163072 0.000171683 0
0.181617 0.000416727 0
0.198704 0.0009644 0
0.198919 0.00163259 0
0.193878 0.00215229 0
0.0221828 0.000293251 0
0.0620083 0.00019482 0
0.0792888 0.000166986 0
0.0934816 0.000147413 0
0.111291 0.000140584 0
0.139038 0.000179754 0
0.162941 0.000278079 0
0.178376 0.000593937 0
0.192308 0.00120283 0
0.193775 0.00161382 0
0.191461 0.00194687 0
0.0232778 0.000339029 0
0.0643253 0.000232019 0
0.0808967 0.000203795 0
0.094422 0.00018336 0
0.111793 0.000179136 0
0.139452 0.000230768 0
0.162318 0.000351688 0
0.175445 0.000687765 0
0.18712 0.00127515 0
0.189996 0.0016729 0
0.188871 0.00198433 0
0.0241937 0.000381564 0
0.0661523 0.000268363 0
0.0822414 0.000240733 0
0.0953238 0.000220345 0
0.11248 0.00022103 0
0.139689 0.000286548 0
0.161357 0.00042397 0
0.17237 0.000759854 0
0.182016 0.0012925 0
0.186248 0.00170224 0
0.186491 0.00202491 0
0.0251361 0.000438672 0
0.0679282 0.000318789 0
0.0835839 0.000292873 0
0.0962559 0.000273548 0
0.113157 0.000282888 0
0.1394 0.00036926 0
0.159676 0.00051707 0
0.168673 0.000846005 0
0.176495 0.00132117 0
0.18129 0.00172385 0
0.183378 0.0020868 0
0.0257783 0.000521764 0
0.0690536 0.000392087 0
0.0843911 0.00036863 0
0.0967514 0.00035139 0
0.113163 0.000371734 0
0.137814 0.000487419 0
0.157124 0.000634032 0
0.16482 0.000959951 0
0.171594 0.00141356 0
0.176159 0.0017986 0
0.179564 0.00219954 0
0.02568 0.000629078 0
0.0689143 0.00048365 0
0.0841904 0.000461948 0
0.0964762 0.000446621 0
0.112309 0.00047493 0
0.135306 0.000622735 0
0.154305 0.000793867 0
0.161675 0.00109201 0
0.168151 0.00156555 0
0.172574 0.0019673 0
0.176463 0.00240708 0
0.0249701 0.000750125 0
0.067831 0.000583717 0
0.0832717 0.000562377 0
0.0956606 0.000548128 0
0.110985 0.00057832 0
0.132725 0.000756782 0
0.151673 0.000962364 0
0.159376 0.00123188 0
0.16593 0.00175426 0
0.170446 0.0022073 0
0.174549 0.00270814 0
0.0241431 0.000875521 0
0.0665308 0.00068673 0
0.0821677 0.000665139 0
0.094652 0.000651869 0
0.109515 0.000678799 0
0.130382 0.000886976 0
0.1492 0.00113255 0
0.157576 0.00137407 0
0.164324 0.00195563 0
0.168978 0.00246985 0
0.173229 0.00304005 0
0.0233636 0.0010067 0
0.0652266 0.000795759 0
0.0810121 0.000773771 0
0.0935142 0.00076187 0
0.107909 0.000780757 0
0.128149 0.00102016 0
0.146755 0.00131015 0
0.155907 0.00155101 0
0.162908 0.00216407 0
0.167673 0.0027391 0
0.171979 0.00337461 0
VERTICES 121 242
1 0
1 1
1 2
1 3
1 4
1 5
1 6
1 7
1 8
1 9
1 10
1 11
1 12
1 13
1 14
1 15
1 16
1 17
1 18
1 19
1 20
1 21
1 22
1 23
1 24
1 25
1 26
1 27
1 28
1 29
1 30
1 31
1 32
1 33
1 34
1 35
1 36
1 37
1 38
1 39
1 40
1 41
1 42
1 43
1 44
1 45
1 46
1 47
1 48
1 49
1 50
1 51
1 52
1 53
1 54
1 55
1 56
1 57
1 58
1 59
1 60
1 61
1 62
1 63
1 64
1 65
1 66
1 67
1 68
1 69
1 70
1 71
1 72
1 73
1 74
1 75
1 76
1 77
1 78
1 79
1 80
1 81
1 82
1 83
1 84
1 85
1 86
1 87
1 88
1 89
1 90
1 91
1 92
1 93
1 94
1 95
1 96
1 97
1 98
1 99
1 100
1 101
1 102
1 103
1 104
1 105
1 106
1 107
1 108
1 109
1 110
1 111
1 112
1 113
1 114
1 115
1 116
1 117
1 118
1 119
1 120
POINT_DATA 121
VECTORS velocity double
5.22824 8.59057 0
2.96758 6.53267 0
1.47929 5.16315 0
0.859024 4.40599 0
0.361774 3.99258 0
0.235802 4.50474 0
0.0232285 4.4838 0
-0.483 2.40847 0
-1.24918 0.698487 0
-6.45076 7.58814 0
-9.06331 11.3976 0
3.77314 2.8753 0
1.11325 1.70177 0
0.214233 1.18264 0
0.245852 0.794374 0
0.22249 0.56408 0
0.181809 0.892574 0
0.0982364 0.856248 0
-0.00657607 -0.22798 0
-0.191098 -1.27623 0
-1.32416 0.277862 0
-1.54797 1.20636 0
2.74529 -1.07724 0
-0.184774 -1.46367 0
-0.573435 -1.62546 0
-0.155141 -1.80593 0
0.138853 -1.93175 0
0.173302 -1.77703 0
0.201334 -1.79699 0
0.366505 -2.12604 0
0.49623 -2.48411 0
0.48515 -2.4286 0
0.771138 -2.41753 0
2.72967 -1.71723 0
-0.150346 -1.97547 0
-0.49627 -2.10277 0
-0.107326 -2.24618 0
0.186408 -2.34553 0
0.250778 -2.25654 0
0.286914 -2.26848 0
0.367323 -2.35467 0
0.417247 -2.44801 0
0.143056 -2.57136 0
0.154786 -2.71385 0
2.77022 -2.17065 0
-0.0101736 -2.35227 0
-0.34238 -2.43666 0
-0.0289168 -2.53677 0
0.218559 -2.59908 0
0.314273 -2.53863 0
0.352255 -2.53254 0
0.303269 -2.47309 0
0.219548 -2.42531 0
-0.367453 -2.6305 0
-0.633953 -2.90733 0
2.7481 -2.52692 0
0.0801407 -2.6821 0
-0.249208 -2.72541 0
-0.00304287 -2.77533 0
0.200407 -2.78762 0
0.321436 -2.7187 0
0.373661 -2.68855 0
0.262451 -2.59673 0
0.117576 -2.52162 0
-0.606644 -2.72713 0
-1.13633 -3.03155 0
2.56814 -2.77439 0
0.0572376 -2.94355 0
-0.262318 -2.95145 0
-0.0485344 -2.95545 0
0.134326 -2.92721 0
0.263264 -2.84448 0
0.337774 -2.79047 0
0.231095 -2.72034 0
0.0873122 -2.66345 0
-0.613128 -2.85551 0
-1.29476 -3.14104 0
2.25479 -3.04717 0
0.0190946 -3.22108 0
-0.282313 -3.20389 0
-0.10094 -3.17589 0
0.0615985 -3.12338 0
0.197643 -3.02516 0
0.280244 -2.93289 0
0.160076 -2.88304 0
-0.0100496 -2.8385 0
-0.650859 -3.00977 0
-1.34521 -3.26875 0
1.87091 -3.48295 0
0.0109231 -3.62194 0
-0.275597 -3.58739 0
-0.153298 -3.53729 0
-0.0307161 -3.46851 0
0.114807 -3.35423 0
0.213909 -3.22985 0
0.0778839 -3.18533 0
-0.118136 -3.14731 0
-0.713337 -3.27138 0
-1.38295 -3.46791 0
1.48407 -4.24978 0
-0.00851177 -4.30952 0
-0.287331 -4.24775 0
-0.238701 -4.17121 0
-0.169018 -4.07889 0
-0.0115646 -3.93783 0
0.114329 -3.77774 0
-0.00898097 -3.72976 0
-0.203416 -3.69753 0
-0.779536 -3.75536 0
-1.44218 -3.85399 0
1.04556 -5.54123 0
-0.0930513 -5.49688 0
-0.363147 -5.40558 0
-0.402503 -5.29672 0
-0.402094 -5.14249 0
-0.226351 -4.96315 0
-0.0485139 -4.71968 0
-0.131597 -4.6702 0
-0.289303 -4.64913 0
-0.847677 -4.61039 0
-1.50531 -4.57435 0
SCALARS mass double 1
LOOKUP_TABLE default
2.67769
2.67769
2.67769
2.67769
2.67769
2.67769
2.67769
2.67769
2.67769
2.67769
2.67769
2.67769
2.67769
2.67769
2.67769
2.67769
2.67769
2.67769
2.67769
2.67769
2.67769
2.67769
2.67769
2.67769
2.67769
2.67769
2.67769
2.67769
2.67769
2.67769
2.67769
2.67769
2.67769
2.67769
2.67769
2.67769
2.67769
2.67769
2.67769
2.67769
2.67769
2.67769
2.67769
2.67769
2.67769
2.67769
2.67769
2.67769
2.67769
2.67769
2.67769
2.67769
2.67769
2.67769
2.67769
2.67769
2.67769
2.67769
2.67769
2.67769
2.67769
2.67769
2.67769
2.67769
2.67769
2.67769
2.67769
2.67769
2.67769
2.67769
2.67769
2.67769
2.67769
2.67769
2.67769
2.67769
2.67769
2.67769
2.67769
2.67769
2.67769
2.67769
2.67769
2.67769
2.67769
2.67769
2.67769
2.67769
2.67769
2.67769
2.67769
2.67769
2.67769
2.67769
2.67769
2.67769
2.67769
2.67769
2.67769
2.67769
2.67769
2.67769
2.67769
2.67769
2.67769
2.67769
2.67769
2.67769
2.67769
2.67769
2.67769
2.67769
2.67769
2.67769
2.67769
2.67769
2.67769
2.67769
2.67769
2.67769
2.67769
SCALARS volume double 1
LOOKUP_TABLE default
4.6335e-06
3.27442e-06
1.99656e-06
1.67424e-06
1.79932e-06
2.24899e-06
3.03021e-06
8.71011e-06
1.79694e-05
2.63895e-05
1.63646e-05
5.78697e-06
3.60073e-06
1.48607e-06
1.29623e-06
1.87672e-06
2.37082e-06
2.60763e-06
6.25345e-06
8.21016e-06
4.52197e-06
3.14309e-06
2.87828e-06
1.48562e-06
6.90946e-07
6.61616e-07
1.28195e-06
1.67588e-06
1.56363e-06
3.51871e-06
3.98093e-06
1.64733e-06
7.87406e-07
2.54931e-06
1.23465e-06
5.99927e-07
5.93226e-07
1.25934e-06
1.6973e-06
1.36789e-06
2.74431e-06
3.34329e-06
1.46585e-06
6.65428e-07
2.84957e-06
1.31447e-06
6.6271e-07
6.72127e-07
1.51937e-06
2.07445e-06
1.43004e-06
2.57057e-06
3.05213e-06
1.80292e-06
7.31098e-07
4.34512e-06
1.86493e-06
9.72568e-07
9.92838e-07
2.33748e-06
3.26647e-06
1.82771e-06
2.8442e-06
3.01866e-06
2.63689e-06
1.37448e-06
5.99538e-06
2.39224e-06
1.24344e-06
1.27595e-06
2.94298e-06
4.14036e-06
1.96759e-06
2.66561e-06
2.654e-06
2.69815e-06
1.90843e-06
7.04049e-06
2.69572e-06
1.40631e-06
1.41332e-06
3.05609e-06
4.23186e-06
2.05525e-06
2.38074e-06
2.3118e-06
2.35029e-06
2.1221e-06
7.15649e-06
2.79982e-06
1.44695e-06
1.44658e-06
2.86647e-06
3.8919e-06
2.19807e-06
2.14613e-06
2.11803e-06
2.16091e-06
2.20703e-06
7.11492e-06
3.04281e-06
1.50497e-06
1.52198e-06
2.8168e-06
3.77964e-06
2.60624e-06
2.13471e-06
2.1593e-06
2.15628e-06
2.35959e-06
7.21129e-06
3.3057e-06
1.61778e-06
1.61952e-06
2.8944e-06
2.09248e-06
3.01715e-06
2.31983e-06
2.24334e-06
2.26539e-06
2.52568e-06
TENSORS stress double
5076.75 15505 0
15505 4616.33 0
0 0 0
5076.73 52228 0
52228 4296.4 0
0 0 0
5075.08 48496.8 0
48496.8 4058.21 0
0 0 0
5075.34 15064.7 0
15064.7 3873.54 0
0 0 0
5075.59 -10747.8 0
-10747.8 3902.29 0
0 0 0
5075.33 -20308.5 0
-20308.5 4506.42 0
0 0 0
5073.96 -34428.4 0
-34428.4 5322.62 0
0 0 0
5068.97 -73503.7 0
-73503.7 6901.63 0
0 0 0
5055.09 -97931.1 0
-97931.1 8409.01 0
0 0 0
4968.14 -63264.5 0
-63264.5 8053.55 0
0 0 0
4930.58 -34687.3 0
-34687.3 7216.96 0
0 0 0
5076.89 13836.1 0
13836.1 4563.9 0
0 0 0
5071.15 57446.2 0
57446.2 4167.35 0
0 0 0
5072.1 35927.5 0
35927.5 3992.57 0
0 0 0
5072.73 8452.55 0
8452.55 3849.05 0
0 0 0
5073.43 -11563.3 0
-11563.3 3886.93 0
0 0 0
5072.6 -21635.6 0
-21635.6 4519.02 0
0 0 0
5068.31 -32647.8 0
-32647.8 5338.26 0
0 0 0
5056.65 -65628.9 0
-65628.9 6627.29 0
0 0 0
5030.9 -81601.5 0
-81601.5 7804.26 0
0 0 0
4999.2 -26365.2 0
-26365.2 7796.26 0
0 0 0
4974.17 -2972.37 0
-2972.37 7425.1 0
0 0 0
5077 10518.8 0
10518.8 4517.11 0
0 0 0
5068.48 39763.5 0
39763.5 4094.43 0
0 0 0
5069.64 20476.6 0
20476.6 3950.46 0
0 0 0
5070.46 2208.7 0
2208.7 3832.1 0
0 0 0
5071.51 -10435.1 0
-10435.1 3875.92 0
0 0 0
5070.11 -22804.4 0
-22804.4 4530.03 0
0 0 0
5063.13 -31294.6 0
-31294.6 5325.2 0
0 0 0
5048.07 -59923.3 0
-59923.3 6394.2 0
0 0 0
5019.32 -73208.5 0
-73208.5 7348.16 0
0 0 0
4999.81 -18062.2 0
-18062.2 7436.56 0
0 0 0
4983.79 26685.4 0
26685.4 7262.9 0
0 0 0
5077.05 12054.7 0
12054.7 4502.9 0
0 0 0
5066.92 36322.2 0
36322.2 4073.59 0
0 0 0
5068.09 18346.9 0
18346.9 3935.59 0
0 0 0
5068.94 2353.57 0
2353.57 3822.86 0
0 0 0
5070.09 -8777.58 0
-8777.58 3886.34 0
0 0 0
5068.25 -22987.2 0
-22987.2 4537.91 0
0 0 0
5059.54 -27616.4 0
-27616.4 5278.92 0
0 0 0
5043.48 -53301.8 0
-53301.8 6185.65 0
0 0 0
5015.65 -73469.5 0
-73469.5 6982.36 0
0 0 0
4996.78 -28269.8 0
-28269.8 7169.8 0
0 0 0
4981.83 20061.3 0
20061.3 7080.1 0
0 0 0
5077.1 14322.5 0
14322.5 4490.85 0
0 0 0
5065.39 34624.1 0
34624.1 4056.89 0
0 0 0
5066.53 17605.4 0
17605.4 3922.91 0
0 0 0
5067.38 2911.99 0
2911.99 3813.89 0
0 0 0
5068.55 -7787.26 0
-7787.26 3900.99 0
0 0 0
5066.21 -23028.6 0
-23028.6 4541.44 0
0 0 0
5056 -23225.3 0
-23225.3 5209.03 0
0 0 0
5039.92 -45033.4 0
-45033.4 5967.86 0
0 0 0
5014.59 -66167.5 0
-66167.5 6624.3 0
0 0 0
4995.16 -44827 0
-44827 6906.27 0
0 0 0
4979.72 12023.5 0
12023.5 6911.98 0
0 0 0
5077.16 16339.1 0
16339.1 4477.95 0
0 0 0
5063.26 32147 0
32147 4040.1 0
0 0 0
5064.34 15634.1 0
15634.1 3909.68 0
0 0 0
5065.14 2870.49 0
2870.49 3804.07 0
0 0 0
5066.28 -7246.05 0
-7246.05 3914.67 0
0 0 0
5063.19 -23280.9 0
-23280.9 4531.52 0
0 0 0
5051.43 -18464.7 0
-18464.7 5088.01 0
0 0 0
5035.64 -33686.4 0
-33686.4 5705.92 0
0 0 0
5012.96 -49220.7 0
-49220.7 6236.62 0
0 0 0
4993.82 -51589.2 0
-51589.2 6558.18 0
0 0 0
4976.53 -9618.77 0
-9618.77 6691.65 0
0 0 0
5077.26 17157.1 0
17157.1 4467.51 0
0 0 0
5060.18 27575 0
27575 4027.9 0
0 0 0
5061.14 13058.6 0
13058.6 3900.06 0
0 0 0
5061.85 2441.38 0
2441.38 3796.97 0
0 0 0
5063.01 -6467.67 0
-6467.67 3911.47 0
0 0 0
5058.87 -22279 0
-22279 4489.65 0
0 0 0
5053.63 -14969.8 0
-14969.8 4940.52 0
0 0 0
5029.98 -22072.5 0
-22072.5 5432.07 0
0 0 0
5008.26 -31547 0
-31547 5890.13 0
0 0 0
4989.91 -40992.7 0
-40992.7 6196.1 0
0 0 0
4970.83 -17383.1 0
-17383.1 6420.45 0
0 0 0
5077.37 16409.8 0
16409.8 4464.63 0
0 0 0
5056.32 24458.1 0
24458.1 4025.63 0
0 0 0
5057.21 11301.6 0
11301.6 3898.23 0
0 0 0
5057.84 2505.04 0
2505.04 3795.69 0
0 0 0
5059.22 -4865.16 0
-4865.16 3887.39 0
0 0 0
5053.92 -19227.5 0
-19227.5 4425.34 0
0 0 0
5047.8 -16975.8 0
-16975.8 4867.99 0
0 0 0
5023.43 -12451.4 0
-12451.4 5207.06 0
0 0 0
5000.71 -18518.9 0
-18518.9 5643.47 0
0 0 0
4981.52 -26086.5 0
-26086.5 5938.95 0
0 0 0
4960.58 -14939.3 0
-14939.3 6195.78 0
0 0 0
5077.51 15007.8 0
15007.8 4468.21 0
0 0 0
5052.12 23001.1 0
23001.1 4030.96 0
0 0 0
5052.98 11293.5 0
11293.5 3902.16 0
0 0 0
5053.56 3096.21 0
3096.21 3798.71 0
0 0 0
5055.41 -2808.39 0
-2808.39 3852.22 0
0 0 0
5049 -15422.1 0
-15422.1 4359.33 0
0 0 0
5041.65 -19853.5 0
-19853.5 4799.54 0
0 0 0
5016.51 -6132.67 0
-6132.67 5041.03 0
0 0 0
4991.41 -10534.2 0
-10534.2 5481.1 0
0 0 0
4969.75 -16000.6 0
-16000.6 5781.21 0
0 0 0
4945.88 -12845.8 0
-12845.8 6050.91 0
0 0 0
5077.65 14274 0
14274 4472.96 0
0 0 0
5047.79 22646.5 0
22646.5 4038.01 0
0 0 0
5048.65 12691.9 0
12691.9 3907.56 0
0 0 0
5049.18 4042.51 0
4042.51 3803.27 0
0 0 0
5051.7 -754.312 0
-754.312 3813.69 0
0 0 0
5044.22 -11953.6 0
-11953.6 4299.09 0
0 0 0
5035.43 -23916.8 0
-23916.8 4734.77 0
0 0 0
5026.73 -2795.78 0
-2795.78 4923.85 0
0 0 0
4981.51 -5539.35 0
-5539.35 5361.36 0
0 0 0
4956.9 -11215.9 0
-11215.9 5668.93 0
0 0 0
4929.71 -13791.2 0
-13791.2 5946.48 0
0 0 0
5077.79 13503.7 0
13503.7 4476.96 0
0 0 0
5043.2 22012.1 0
22012.1 4044.86 0
0 0 0
5044.08 12308.6 0
12308.6 3913.17 0
0 0 0
5044.55 4290.4 0
4290.4 3808.67 0
0 0 0
5047.94 820.861 0
820.861 3771.91 0
0 0 0
5039.32 -10396.5 0
-10396.5 4241.33 0
0 0 0
5028.93 -22700.8 0
-22700.8 4670.38 0
0 0 0
5020.28 -4095.65 0
-4095.65 4877.85 0
0 0 0
4971.26 -2371.02 0
-2371.02 5254.56 0
0 0 0
4943.72 -7545.81 0
-7545.81 5567.78 0
0 0 0
4913.38 -12221 0
-12221 5846.84 0
0 0 0
TENSORS strain double
0.129634 0.15505 0
0.15505 -5.09356 0
0 0 0
0.120819 0.52228 0
0.52228 -5.41979 0
0 0 0
-0.12302 0.484968 0
0.484968 -5.65812 0
0 0 0
-0.118052 0.150647 0
0.150647 -5.83272 0
0 0 0
0.023488 -0.107478 0
-0.107478 -5.9032 0
0 0 0
0.0231141 -0.203085 0
-0.203085 -5.69385 0
0 0 0
-0.0864847 -0.344284 0
-0.344284 -5.30545 0
0 0 0
-0.0915594 -0.735037 0
-0.735037 -4.28782 0
0 0 0
-0.409832 -0.979311 0
-0.979311 -3.27185 0
0 0 0
-1.62048 -0.632645 0
-0.632645 -1.6694 0
0 0 0
-2.37325 -0.346873 0
-0.346873 -1.35608 0
0 0 0
0.387151 0.138361 0
0.138361 -5.13053 0
0 0 0
0.31999 0.574462 0
0.574462 -5.5205 0
0 0 0
-0.366644 0.359275 0
0.359275 -5.70355 0
0 0 0
-0.353403 0.0845255 0
0.0845255 -5.84844 0
0 0 0
0.0704789 -0.115633 0
-0.115633 -5.90772 0
0 0 0
0.0693166 -0.216356 0
-0.216356 -5.68766 0
0 0 0
-0.260267 -0.326478 0
-0.326478 -5.27858 0
0 0 0
-0.272521 -0.656289 0
-0.656289 -4.42862 0
0 0 0
-0.834357 -0.816015 0
-0.816015 -3.61631 0
0 0 0
-1.92659 -0.263652 0
-0.263652 -3.09741 0
0 0 0
-2.54611 -0.0297237 0
-0.0297237 -2.81938 0
0 0 0
0.574752 0.105188 0
0.105188 -6.01357 0
0 0 0
0.148185 0.397635 0
0.397635 -6.22014 0
0 0 0
-0.553858 0.204766 0
0.204766 -6.27087 0
0 0 0
-0.538534 0.022087 0
0.022087 -6.32642 0
0 0 0
0.106382 -0.104351 0
-0.104351 -6.32227 0
0 0 0
0.10478 -0.228044 0
-0.228044 -6.0683 0
0 0 0
-0.420704 -0.312946 0
-0.312946 -5.62293 0
0 0 0
-0.439501 -0.599233 0
-0.599233 -4.8257 0
0 0 0
-1.06427 -0.732085 0
-0.732085 -4.09349 0
0 0 0
-1.99188 -0.180622 0
-0.180622 -4.02393 0
0 0 0
-2.5614 0.266854 0
0.266854 -4.16114 0
0 0 0
0.623168 0.120547 0
0.120547 -6.18261 0
0 0 0
0.0916573 0.363222 0
0.363222 -6.34514 0
0 0 0
-0.603754 0.183469 0
0.183469 -6.35846 0
0 0 0
-0.592268 0.0235357 0
0.0235357 -6.37871 0
0 0 0
0.103301 -0.0877758 0
-0.0877758 -6.33688 0
0 0 0
0.102262 -0.229872 0
-0.229872 -6.05325 0
0 0 0
-0.558502 -0.276164 0
-0.276164 -5.6146 0
0 0 0
-0.587253 -0.533018 0
-0.533018 -4.91824 0
0 0 0
-1.04965 -0.734695 0
-0.734695 -4.27522 0
0 0 0
-1.88583 -0.282698 0
-0.282698 -4.24293 0
0 0 0
-2.45769 0.200613 0
0.200613 -4.4268 0
0 0 0
0.661965 0.143225 0
0.143225 -6.11041 0
0 0 0
0.0452047 0.346241 0
0.346241 -6.234 0
0 0 0
-0.64048 0.176054 0
0.176054 -6.22122 0
0 0 0
-0.632517 0.0291199 0
0.0291199 -6.21316 0
0 0 0
0.0869294 -0.0778726 0
-0.0778726 -6.13404 0
0 0 0
0.0859692 -0.230286 0
-0.230286 -5.83747 0
0 0 0
-0.706579 -0.232253 0
-0.232253 -5.41881 0
0 0 0
-0.744678 -0.450334 0
-0.450334 -4.81908 0
0 0 0
-1.12138 -0.661675 0
-0.661675 -4.28687 0
0 0 0
-1.71861 -0.44827 0
-0.44827 -4.20678 0
0 0 0
-2.36675 0.120235 0
0.120235 -4.42174 0
0 0 0
0.700411 0.163391 0
0.163391 -5.72919 0
0 0 0
-0.0102746 0.32147 0
0.32147 -5.82782 0
0 0 0
-0.67666 0.156341 0
0.156341 -5.80425 0
0 0 0
-0.673134 0.0287049 0
0.0287049 -5.78545 0
0 0 0
0.052011 -0.0724605 0
-0.0724605 -5.67143 0
0 0 0
0.0499677 -0.232809 0
-0.232809 -5.35044 0
0 0 0
-0.87984 -0.184647 0
-0.184647 -4.99817 0
0 0 0
-0.922832 -0.336864 0
-0.336864 -4.53358 0
0 0 0
-1.27361 -0.492207 0
-0.492207 -4.13763 0
0 0 0
-1.58182 -0.515892 0
-0.515892 -3.96713 0
0 0 0
-2.08781 -0.0961877 0
-0.0961877 -4.0892 0
0 0 0
0.725814 0.171571 0
0.171571 -5.43539 0
0 0 0
-0.0335492 0.27575 0
0.27575 -5.55514 0
0 0 0
-0.703087 0.130586 0
0.130586 -5.53418 0
0 0 0
-0.703234 0.0244138 0
0.0244138 -5.50672 0
0 0 0
-0.00590123 -0.0646767 0
-0.0646767 -5.38533 0
0 0 0
-0.0107591 -0.22279 0
-0.22279 -5.05453 0
0 0 0
-1.01289 -0.149698 0
-0.149698 -4.78792 0
0 0 0
-1.0626 -0.220725 0
-0.220725 -4.45068 0
0 0 0
-1.38945 -0.31547 0
-0.31547 -4.14057 0
0 0 0
-1.5709 -0.409927 0
-0.409927 -3.94931 0
0 0 0
-1.90034 -0.173831 0
-0.173831 -3.9559 0
0 0 0
0.721991 0.164098 0
0.164098 -5.2739 0
0 0 0
-0.0431457 0.244581 0
0.244581 -5.4272 0
0 0 0
-0.706666 0.113016 0
0.113016 -5.40924 0
0 0 0
-0.708382 0.0250504 0
0.0250504 -5.40079 0
0 0 0
-0.0682281 -0.0486516 0
-0.0486516 -5.28664 0
0 0 0
-0.0760658 -0.192275 0
-0.192275 -4.96817 0
0 0 0
-1.02216 -0.169758 0
-0.169758 -4.73598 0
0 0 0
-1.12243 -0.124514 0
-0.124514 -4.49752 0
0 0 0
-1.41812 -0.185189 0
-0.185189 -4.24217 0
0 0 0
-1.58869 -0.260865 0
-0.260865 -4.0613 0
0 0 0
-1.77439 -0.149393 0
-0.149393 -3.97544 0
0 0 0
0.693819 0.150078 0
0.150078 -5.23242 0
0 0 0
-0.0297683 0.230011 0
0.230011 -5.40557 0
0 0 0
-0.69504 0.112935 0
0.112935 -5.39388 0
0 0 0
-0.69754 0.0309621 0
0.0309621 -5.38983 0
0 0 0
-0.11812 -0.0280839 0
-0.0280839 -5.30138 0
0 0 0
-0.127837 -0.154221 0
-0.154221 -5.00018 0
0 0 0
-0.945098 -0.198535 0
-0.198535 -4.75063 0
0 0 0
-1.12256 -0.0613267 0
-0.0613267 -4.59693 0
0 0 0
-1.39255 -0.105342 0
-0.105342 -4.35108 0
0 0 0
-1.56082 -0.160006 0
-0.160006 -4.16867 0
0 0 0
-1.66127 -0.128458 0
-0.128458 -4.04879 0
0 0 0
0.659968 0.14274 0
0.14274 -5.20675 0
0 0 0
0.0053738 0.226465 0
0.226465 -5.36152 0
0 0 0
-0.684362 0.126919 0
0.126919 -5.36664 0
0 0 0
-0.687445 0.0404251 0
0.0404251 -5.35118 0
0 0 0
-0.153768 -0.00754312 0
-0.00754312 -5.28395 0
0 0 0
-0.164668 -0.119536 0
-0.119536 -4.993 0
0 0 0
-0.79974 -0.239168 0
-0.239168 -4.73139 0
0 0 0
-1.09703 -0.0279578 0
-0.0279578 -4.62647 0
0 0 0
-1.35284 -0.0553935 0
-0.0553935 -4.37059 0
0 0 0
-1.52877 -0.112159 0
-0.112159 -4.20115 0
0 0 0
-1.59465 -0.137912 0
-0.137912 -4.04927 0
0 0 0
0.62699 0.135037 0
0.135037 -5.16221 0
0 0 0
0.0359276 0.220121 0
0.220121 -5.31262 0
0 0 0
-0.678696 0.123086 0
0.123086 -5.30241 0
0 0 0
-0.681258 0.042904 0
0.042904 -5.29708 0
0 0 0
-0.178704 0.00820861 0
0.00820861 -5.23254 0
0 0 0
-0.190335 -0.103965 0
-0.103965 -5.39552 0
0 0 0
-0.697982 -0.227008 0
-0.227008 -4.69002 0
0 0 0
-1.04623 -0.0409565 0
-0.0409565 -4.59614 0
0 0 0
-1.32286 -0.0237102 0
-0.0237102 -4.36176 0
0 0 0
-1.50725 -0.0754581 0
-0.0754581 -4.17314 0
0 0 0
-1.56038 -0.12221 0
-0.12221 -4.01634 0
0 0 0
