# vtk DataFile Version 3.0
MPM2D particles
ASCII
DATASET POLYDATA
POINTS 121 double
0.0142307 3.83024e-05 0
0.0423166 2.63857e-05 0
0.0670279 2.00825e-05 0
0.0890631 1.64211e-05 0
0.11223 1.53579e-05 0
0.137812 2.06072e-05 0
0.162783 3.40403e-05 0
0.185382 0.000116451 0
0.206989 0.000388712 0
0.202422 0.0018873 0
0.190814 0.0023138 0
0.0184054 0.000109993 0
0.0536116 7.02828e-05 0
0.0745366 5.70606e-05 0
0.0917044 4.83418e-05 0
0.111672 4.57817e-05 0
0.138458 6.23402e-05 0
0.163056 0.000105248 0
0.181554 0.000293474 0
0.198509 0.000770211 0
0.198588 0.0013053 0
0.193476 0.00165776 0
0.0221922 0.000162925 0
0.0620199 0.000103381 0
0.0792939 8.72189e-05 0
0.0934827 7.60001e-05 0
0.111288 7.2907e-05 0
0.139028 0.000100636 0
0.162914 0.000170298 0
0.178293 0.000408272 0
0.192089 0.00091638 0
0.193473 0.00124251 0
0.191112 0.00147331 0
0.0232893 0.000188106 0
0.0643382 0.000122859 0
0.0809024 0.000106288 0
0.094423 9.44514e-05 0
0.11179 9.30296e-05 0
0.139439 0.000129343 0
0.162284 0.000214362 0
0.175354 0.000462526 0
0.186908 0.000934946 0
0.189703 0.0012526 0
0.188531 0.00147323 0
0.0242071 0.000211468 0
0.0661664 0.000141866 0
0.0822476 0.000125398 0
0.0953247 0.000113409 0
0.112476 0.000115004 0
0.139673 0.000160711 0
0.161317 0.000256546 0
0.172276 0.000499385 0
0.181821 0.000912499 0
0.18597 0.00123976 0
0.186159 0.00147715 0
0.0251521 0.000242838 0
0.067944 0.000168249 0
0.0835909 0.000152371 0
0.0962566 0.000140671 0
0.113151 0.000147466 0
0.139378 0.000206934 0
0.15963 0.000308926 0
0.168577 0.000540798 0
0.176316 0.000895205 0
0.181033 0.00121021 0
0.183055 0.00148758 0
0.0257978 0.000288608 0
0.0690724 0.000206721 0
0.0843993 0.000191641 0
0.0967521 0.000180619 0
0.113155 0.000193783 0
0.137787 0.00027196 0
0.15707 0.000372986 0
0.164721 0.000596108 0
0.171423 0.000923365 0
0.175918 0.00121537 0
0.179248 0.00152413 0
0.0257034 0.000348009 0
0.0689375 0.000255028 0
0.0842009 0.0002402 0
0.0964772 0.000229627 0
0.112298 0.000246992 0
0.135273 0.00034507 0
0.154242 0.000463419 0
0.161571 0.00066221 0
0.167975 0.000996552 0
0.17233 0.0012942 0
0.176139 0.00162976 0
0.0249973 0.000415332 0
0.0678601 0.000308098 0
0.0832852 0.000292666 0
0.0956626 0.000282028 0
0.110973 0.00029966 0
0.132688 0.000416377 0
0.1516 0.000557738 0
0.159267 0.000734155 0
0.165744 0.00109814 0
0.170185 0.00142902 0
0.174199 0.00180739 0
0.0241738 0.000485252 0
0.0665665 0.000362901 0
0.082185 0.000346494 0
0.0946555 0.000335716 0
0.109503 0.000350294 0
0.130341 0.000484868 0
0.149118 0.00065193 0
0.15746 0.000809267 0
0.164126 0.00120943 0
0.168696 0.00158137 0
0.172847 0.00200873 0
0.0233978 0.00055849 0
0.0652697 0.000421018 0
0.0810337 0.00040351 0
0.0935198 0.000392777 0
0.107897 0.000401121 0
0.128105 0.000554248 0
0.146665 0.000749114 0
0.15578 0.000909299 0
0.162696 0.00132406 0
0.167371 0.00173651 0
0.171567 0.00220877 0
VERTICES 121 242
1 0
1 1
1 2
1 3
1 4
1 5
1 6
1 7
1 8
1 9
1 10
1 11
1 12
1 13
1 14
1 15
1 16
1 17
1 18
1 19
1 20
1 21
1 22
1 23
1 24
1 25
1 26
1 27
1 28
1 29
1 30
1 31
1 32
1 33
1 34
1 35
1 36
1 37
1 38
1 39
1 40
1 41
1 42
1 43
1 44
1 45
1 46
1 47
1 48
1 49
1 50
1 51
1 52
1 53
1 54
1 55
1 56
1 57
1 58
1 59
1 60
1 61
1 62
1 63
1 64
1 65
1 66
1 67
1 68
1 69
1 70
1 71
1 72
1 73
1 74
1 75
1 76
1 77
1 78
1 79
1 80
1 81
1 82
1 83
1 84
1 85
1 86
1 87
1 88
1 89
1 90
1 91
1 92
1 93
1 94
1 95
1 96
1 97
1 98
1 99
1 100
1 101
1 102
1 103
1 104
1 105
1 106
1 107
1 108
1 109
1 110
1 111
1 112
1 113
1 114
1 115
1 116
1 117
1 118
1 119
1 120
POINT_DATA 121
VECTORS velocity double
5.20115 8.50616 0
2.93668 6.44297 0
1.45672 5.07038 0
0.851321 4.31147 0
0.369206 3.89587 0
0.258797 4.4047 0
0.0551616 4.38523 0
-0.465612 2.32865 0
-1.24223 0.636052 0
-6.41927 7.51811 0
-9.02204 11.3169 0
3.74432 2.78973 0
1.08087 1.60973 0
0.196392 1.08904 0
0.239811 0.699476 0
0.229623 0.467306 0
0.205367 0.792323 0
0.130482 0.757756 0
0.015293 -0.311429 0
-0.173527 -1.3467 0
-1.29924 0.206125 0
-1.51603 1.12953 0
2.7151 -1.16382 0
-0.211782 -1.55658 0
-0.588241 -1.71961 0
-0.160053 -1.90112 0
0.145787 -2.02859 0
0.197367 -1.87747 0
0.234129 -1.89574 0
0.391619 -2.21248 0
0.519284 -2.56028 0
0.511694 -2.50442 0
0.801721 -2.49586 0
2.69893 -1.80417 0
-0.175968 -2.06869 0
-0.510092 -2.19715 0
-0.111639 -2.34153 0
0.193677 -2.44253 0
0.275216 -2.35712 0
0.320422 -2.36785 0
0.394758 -2.44368 0
0.443274 -2.52852 0
0.171528 -2.65033 0
0.186489 -2.79432 0
2.73898 -2.25789 0
-0.0347252 -2.44575 0
-0.355385 -2.53126 0
-0.0326485 -2.63229 0
0.226281 -2.69627 0
0.338987 -2.63933 0
0.386666 -2.63281 0
0.332879 -2.56475 0
0.247979 -2.50999 0
-0.337379 -2.71252 0
-0.601188 -2.98976 0
2.71624 -2.61452 0
0.0565636 -2.77588 0
-0.261431 -2.82025 0
-0.00617923 -2.87106 0
0.208595 -2.88503 0
0.346161 -2.81951 0
0.409468 -2.79034 0
0.294578 -2.69156 0
0.148681 -2.61082 0
-0.574603 -2.81316 0
-1.10214 -3.11657 0
2.53546 -2.86236 0
0.0340633 -3.03765 0
-0.274194 -3.04658 0
-0.0514 -3.05143 0
0.142586 -3.02482 0
0.287253 -2.9453 0
0.374539 -2.89377 0
0.265853 -2.8185 0
0.121169 -2.75677 0
-0.578694 -2.94578 0
-1.25863 -3.22928 0
2.22119 -3.13545 0
-0.00469313 -3.31548 0
-0.294623 -3.29928 0
-0.104109 -3.2721 0
0.0693952 -3.22113 0
0.220316 -3.12592 0
0.315703 -3.03608 0
0.19704 -2.98396 0
0.0261211 -2.93484 0
-0.614108 -3.10318 0
-1.30681 -3.35978 0
1.83634 -3.57145 0
-0.0142511 -3.71659 0
-0.288915 -3.68301 0
-0.157195 -3.63371 0
-0.0236914 -3.56633 0
0.136075 -3.45494 0
0.248157 -3.33299 0
0.116539 -3.28832 0
-0.0801228 -3.24571 0
-0.674516 -3.36686 0
-1.34216 -3.56094 0
1.44852 -4.33848 0
-0.0352951 -4.40443 0
-0.301838 -4.3436 0
-0.243506 -4.26784 0
-0.162876 -4.17678 0
0.00840782 -4.03852 0
0.147424 -3.88085 0
0.0306059 -3.83405 0
-0.16386 -3.79751 0
-0.738868 -3.8524 0
-1.3991 -3.94859 0
1.00897 -5.63014 0
-0.121528 -5.59208 0
-0.378943 -5.50169 0
-0.408361 -5.39357 0
-0.396939 -5.24044 0
-0.207632 -5.06385 0
-0.0165831 -4.82281 0
-0.0925794 -4.77456 0
-0.248341 -4.75053 0
-0.805293 -4.70885 0
-1.46009 -4.67044 0
SCALARS mass double 1
LOOKUP_TABLE default
2.67769
2.67769
2.67769
2.67769
2.67769
2.67769
2.67769
2.67769
2.67769
2.67769
2.67769
2.67769
2.67769
2.67769
2.67769
2.67769
2.67769
2.67769
2.67769
2.67769
2.67769
2.67769
2.67769
2.67769
2.67769
2.67769
2.67769
2.67769
2.67769
2.67769
2.67769
2.67769
2.67769
2.67769
2.67769
2.67769
2.67769
2.67769
2.67769
2.67769
2.67769
2.67769
2.67769
2.67769
2.67769
2.67769
2.67769
2.67769
2.67769
2.67769
2.67769
2.67769
2.67769
2.67769
2.67769
2.67769
2.67769
2.67769
2.67769
2.67769
2.67769
2.67769
2.67769
2.67769
2.67769
2.67769
2.67769
2.67769
2.67769
2.67769
2.67769
2.67769
2.67769
2.67769
2.67769
2.67769
2.67769
2.67769
2.67769
2.67769
2.67769
2.67769
2.67769
2.67769
2.67769
2.67769
2.67769
2.67769
2.67769
2.67769
2.67769
2.67769
2.67769
2.67769
2.67769
2.67769
2.67769
2.67769
2.67769
2.67769
2.67769
2.67769
2.67769
2.67769
2.67769
2.67769
2.67769
2.67769
2.67769
2.67769
2.67769
2.67769
2.67769
2.67769
2.67769
2.67769
2.67769
2.67769
2.67769
2.67769
2.67769
SCALARS volume double 1
LOOKUP_TABLE default
2.59976e-06
1.77501e-06
1.05454e-06
8.66628e-07
9.35525e-07
1.25483e-06
1.8535e-06
6.30732e-06
1.5246e-05
2.15814e-05
1.22678e-05
3.23105e-06
1.92502e-06
7.7944e-07
6.69266e-07
9.74182e-07
1.32502e-06
1.59791e-06
4.39923e-06
6.5402e-06
3.5998e-06
2.40726e-06
1.59985e-06
7.88064e-07
3.60785e-07
3.41014e-07
6.64689e-07
9.38005e-07
9.56929e-07
2.41512e-06
3.02335e-06
1.26294e-06
5.92855e-07
1.41519e-06
6.53504e-07
3.12777e-07
3.05481e-07
6.53839e-07
9.51006e-07
8.33041e-07
1.84237e-06
2.44326e-06
1.0928e-06
4.91497e-07
1.5802e-06
6.94547e-07
3.45061e-07
3.45802e-07
7.90298e-07
1.16298e-06
8.6443e-07
1.68621e-06
2.14769e-06
1.30733e-06
5.30546e-07
2.40697e-06
9.83711e-07
5.05729e-07
5.1032e-07
1.21801e-06
1.82957e-06
1.0906e-06
1.81431e-06
2.0386e-06
1.84308e-06
9.74571e-07
3.31894e-06
1.26039e-06
6.46016e-07
6.55454e-07
1.53336e-06
2.30855e-06
1.15642e-06
1.65139e-06
1.72755e-06
1.81499e-06
1.31504e-06
3.8986e-06
1.42024e-06
7.30644e-07
7.26081e-07
1.58829e-06
2.34288e-06
1.19837e-06
1.43988e-06
1.46589e-06
1.53858e-06
1.42812e-06
3.96702e-06
1.47628e-06
7.52263e-07
7.43591e-07
1.48408e-06
2.139e-06
1.27212e-06
1.2752e-06
1.32015e-06
1.39134e-06
1.46298e-06
3.94872e-06
1.60602e-06
7.83076e-07
7.82934e-07
1.45223e-06
2.06355e-06
1.49778e-06
1.25474e-06
1.329e-06
1.37217e-06
1.5473e-06
4.00683e-06
1.74651e-06
8.42502e-07
8.33817e-07
1.4854e-06
1.13519e-06
1.72189e-06
1.35698e-06
1.36532e-06
1.42651e-06
1.63927e-06
TENSORS stress double
5076.71 16828.9 0
16828.9 4468.48 0
0 0 0
5076.7 56171.6 0
56171.6 4142.22 0
0 0 0
5075.84 51844.8 0
51844.8 3896.56 0
0 0 0
5075.99 16027.1 0
16027.1 3703.97 0
0 0 0
5076.09 -12138.7 0
-12138.7 3756.77 0
0 0 0
5075.9 -23913.2 0
-23913.2 4470.61 0
0 0 0
5075.02 -40461.7 0
-40461.7 5388.56 0
0 0 0
5071.1 -82750.2 0
-82750.2 7040.04 0
0 0 0
5058.37 -110184 0
-110184 8612.61 0
0 0 0
4987.5 -74290.4 0
-74290.4 8226.94 0
0 0 0
4966.39 -43833.2 0
-43833.2 7361.29 0
0 0 0
5076.79 15543.3 0
15543.3 4417.23 0
0 0 0
5073.74 62244.1 0
62244.1 4012.02 0
0 0 0
5074.29 38460.4 0
38460.4 3829.49 0
0 0 0
5074.65 9126.97 0
9126.97 3679.66 0
0 0 0
5074.94 -12900.2 0
-12900.2 3740.05 0
0 0 0
5074.33 -25288.9 0
-25288.9 4487.1 0
0 0 0
5071.55 -38687.3 0
-38687.3 5405.91 0
0 0 0
5062.59 -74250.2 0
-74250.2 6753.57 0
0 0 0
5040.17 -92483.2 0
-92483.2 7978.55 0
0 0 0
5014.82 -37051.7 0
-37051.7 7965.96 0
0 0 0
4997.81 -12772.5 0
-12772.5 7579.24 0
0 0 0
5076.84 12574.6 0
12574.6 4371.2 0
0 0 0
5072.36 43649.1 0
43649.1 3937.23 0
0 0 0
5073.03 22492.5 0
22492.5 3786.75 0
0 0 0
5073.49 2688.85 0
2688.85 3663.06 0
0 0 0
5073.92 -11733.8 0
-11733.8 3728.32 0
0 0 0
5072.9 -26500.3 0
-26500.3 4501.57 0
0 0 0
5068.38 -37283.6 0
-37283.6 5393.17 0
0 0 0
5057.03 -68025.1 0
-68025.1 6510.72 0
0 0 0
5033.04 -83100.5 0
-83100.5 7503.3 0
0 0 0
5017.57 -28026.3 0
-28026.3 7593.41 0
0 0 0
5006.46 17158.7 0
17158.7 7412.38 0
0 0 0
5076.86 14210.6 0
14210.6 4357.5 0
0 0 0
5071.55 39955.7 0
39955.7 3916.22 0
0 0 0
5072.23 20187.5 0
20187.5 3771.96 0
0 0 0
5072.72 2730.74 0
2730.74 3654.14 0
0 0 0
5073.16 -10115.9 0
-10115.9 3741.56 0
0 0 0
5071.82 -26713.7 0
-26713.7 4511.97 0
0 0 0
5066.23 -33494.3 0
-33494.3 5345.46 0
0 0 0
5054.37 -60955.4 0
-60955.4 6293.57 0
0 0 0
5031.98 -82600.5 0
-82600.5 7123.18 0
0 0 0
5016.92 -37679.1 0
-37679.1 7316.82 0
0 0 0
5006.33 10912.8 0
10912.8 7223.24 0
0 0 0
5076.89 16562 0
16562 4345.95 0
0 0 0
5070.75 38058.5 0
38058.5 3899.51 0
0 0 0
5071.43 19299.2 0
19299.2 3759.47 0
0 0 0
5071.93 3190.32 0
3190.32 3645.54 0
0 0 0
5072.32 -9180.87 0
-9180.87 3759.88 0
0 0 0
5070.64 -26769.9 0
-26769.9 4517.33 0
0 0 0
5064.17 -28944.2 0
-28944.2 5273.13 0
0 0 0
5052.53 -52225.7 0
-52225.7 6066.92 0
0 0 0
5032.88 -74567.4 0
-74567.4 6751.31 0
0 0 0
5017.36 -53696 0
-53696 7043.76 0
0 0 0
5006.02 3224.27 0
3224.27 7049.31 0
0 0 0
5076.92 18664 0
18664 4333.78 0
0 0 0
5069.65 35387.3 0
35387.3 3882.97 0
0 0 0
5070.3 17180.8 0
17180.8 3746.7 0
0 0 0
5070.79 3046.2 0
3046.2 3636.36 0
0 0 0
5071.1 -8692.13 0
-8692.13 3777.51 0
0 0 0
5068.91 -26988.7 0
-26988.7 4507.4 0
0 0 0
5061.6 -23915.6 0
-23915.6 5147.7 0
0 0 0
5050.46 -40324.7 0
-40324.7 5794.51 0
0 0 0
5033.53 -56826.9 0
-56826.9 6348.72 0
0 0 0
5018.56 -59749.1 0
-59749.1 6683.13 0
0 0 0
5005.35 -17958.4 0
-17958.4 6821.47 0
0 0 0
5076.96 19538.4 0
19538.4 4324.55 0
0 0 0
5068.04 30691 0
30691 3871.65 0
0 0 0
5068.66 14515.4 0
14515.4 3738.15 0
0 0 0
5069.11 2560.93 0
2560.93 3630.52 0
0 0 0
5069.35 -7905.53 0
-7905.53 3775.88 0
0 0 0
5066.46 -25837.4 0
-25837.4 4460.55 0
0 0 0
5062.75 -20182.7 0
-20182.7 4995.13 0
0 0 0
5047.69 -28126.9 0
-28126.9 5510.16 0
0 0 0
5032.01 -38428.3 0
-38428.3 5989.27 0
0 0 0
5018.09 -48402.5 0
-48402.5 6308.16 0
0 0 0
5003.39 -25148.7 0
-25148.7 6541.25 0
0 0 0
5077.02 18777.3 0
18777.3 4323.43 0
0 0 0
5066.02 27585.9 0
27585.9 3871.02 0
0 0 0
5066.63 12776.9 0
12776.9 3738.06 0
0 0 0
5067.06 2651.27 0
2651.27 3631.07 0
0 0 0
5067.33 -6218.9 0
-6218.9 3749.96 0
0 0 0
5063.71 -22555.2 0
-22555.2 4387.66 0
0 0 0
5059.36 -21928.1 0
-21928.1 4912.82 0
0 0 0
5044.4 -18018.4 0
-18018.4 5277.09 0
0 0 0
5028.34 -24865.1 0
-24865.1 5734.11 0
0 0 0
5014.12 -32936.8 0
-32936.8 6042.52 0
0 0 0
4998.12 -22202.5 0
-22202.5 6309.66 0
0 0 0
5077.09 17303.9 0
17303.9 4329.12 0
0 0 0
5063.81 26242.6 0
26242.6 3878.45 0
0 0 0
5064.44 12864.9 0
12864.9 3744.09 0
0 0 0
5064.87 3327.41 0
3327.41 3636.22 0
0 0 0
5065.33 -4037.45 0
-4037.45 3710.99 0
0 0 0
5061.02 -18512.9 0
-18512.9 4312.82 0
0 0 0
5055.82 -24560.5 0
-24560.5 4835.57 0
0 0 0
5040.83 -11331.3 0
-11331.3 5105.71 0
0 0 0
5023.32 -16508.6 0
-16508.6 5566.99 0
0 0 0
5007.48 -22476.7 0
-22476.7 5880.51 0
0 0 0
4989.43 -19746.2 0
-19746.2 6161.18 0
0 0 0
5077.16 16487.4 0
16487.4 4336.09 0
0 0 0
5061.52 26025 0
26025 3887.7 0
0 0 0
5062.19 14379.3 0
14379.3 3751.69 0
0 0 0
5062.62 4379.45 0
4379.45 3643 0
0 0 0
5063.41 -1846.4 0
-1846.4 3668.02 0
0 0 0
5058.43 -14828.7 0
-14828.7 4244.76 0
0 0 0
5052.28 -28392.3 0
-28392.3 4762.78 0
0 0 0
5046.47 -7969.17 0
-7969.17 4989.91 0
0 0 0
5017.84 -11226.1 0
-11226.1 5444.42 0
0 0 0
5000.02 -17405.2 0
-17405.2 5765.97 0
0 0 0
4979.61 -20403.7 0
-20403.7 6054.91 0
0 0 0
5077.23 15638.7 0
15638.7 4342.37 0
0 0 0
5059.1 25527.8 0
25527.8 3896.86 0
0 0 0
5059.8 14117.3 0
14117.3 3759.61 0
0 0 0
5060.23 4746.85 0
4746.85 3650.78 0
0 0 0
5061.48 -122.46 0
-122.46 3621.29 0
0 0 0
5055.81 -13065.1 0
-13065.1 4179.73 0
0 0 0
5048.62 -26946.7 0
-26946.7 4690.69 0
0 0 0
5042.72 -9106.22 0
-9106.22 4939.3 0
0 0 0
5012.2 -7795.43 0
-7795.43 5335.53 0
0 0 0
4992.42 -13469.9 0
-13469.9 5663.24 0
0 0 0
4969.84 -18555.6 0
-18555.6 5953.9 0
0 0 0
TENSORS strain double
0.129734 0.168289 0
0.168289 -5.65517 0
0 0 0
0.120889 0.561716 0
0.561716 -6.01382 0
0 0 0
-0.123083 0.518448 0
0.518448 -6.27643 0
0 0 0
-0.118104 0.160271 0
0.160271 -6.46996 0
0 0 0
0.0234493 -0.121387 0
-0.121387 -6.53629 0
0 0 0
0.0230643 -0.239132 0
-0.239132 -6.26059 0
0 0 0
-0.086614 -0.404617 0
-0.404617 -5.78499 0
0 0 0
-0.0919601 -0.827502 0
-0.827502 -4.60504 0
0 0 0
-0.411053 -1.10184 0
-1.10184 -3.43364 0
0 0 0
-1.62652 -0.742904 0
-0.742904 -1.86249 0
0 0 0
-2.38102 -0.438332 0
-0.438332 -1.63234 0
0 0 0
0.387438 0.155433 0
0.155433 -5.69696 0
0 0 0
0.319771 0.622441 0
0.622441 -6.12728 0
0 0 0
-0.366824 0.384604 0
0.384604 -6.32831 0
0 0 0
-0.353556 0.0912697 0
0.0912697 -6.48795 0
0 0 0
0.0703634 -0.129002 0
-0.129002 -6.54225 0
0 0 0
0.0691662 -0.252889 0
-0.252889 -6.25272 0
0 0 0
-0.260666 -0.386873 0
-0.386873 -5.75612 0
0 0 0
-0.273548 -0.742502 0
-0.742502 -4.77318 0
0 0 0
-0.836862 -0.924832 0
-0.924832 -3.83864 0
0 0 0
-1.93084 -0.370517 0
-0.370517 -3.31865 0
0 0 0
-2.55161 -0.127725 0
-0.127725 -3.07706 0
0 0 0
0.575178 0.125746 0
0.125746 -6.58437 0
0 0 0
0.147861 0.436491 0
0.436491 -6.83414 0
0 0 0
-0.554133 0.224925 0
0.224925 -6.89972 0
0 0 0
-0.538776 0.0268885 0
0.0268885 -6.96746 0
0 0 0
0.106198 -0.117338 0
-0.117338 -6.95779 0
0 0 0
0.104537 -0.265003 0
-0.265003 -6.63188 0
0 0 0
-0.42135 -0.372836 0
-0.372836 -6.10146 0
0 0 0
-0.440949 -0.680251 0
-0.680251 -5.19361 0
0 0 0
-1.06733 -0.831005 0
-0.831005 -4.36183 0
0 0 0
-1.99601 -0.280263 0
-0.280263 -4.28201 0
0 0 0
-2.56634 0.171587 0
0.171587 -4.436 0
0 0 0
0.62366 0.142106 0
0.142106 -6.75467 0
0 0 0
0.0912727 0.399557 0
0.399557 -6.96114 0
0 0 0
-0.60409 0.201875 0
0.201875 -6.98868 0
0 0 0
-0.592569 0.0273074 0
0.0273074 -7.02055 0
0 0 0
0.103066 -0.101159 0
-0.101159 -6.9711 0
0 0 0
0.101951 -0.267137 0
-0.267137 -6.61575 0
0 0 0
-0.559318 -0.334943 0
-0.334943 -6.09762 0
0 0 0
-0.588915 -0.609554 0
-0.609554 -5.30721 0
0 0 0
-1.05285 -0.826005 0
-0.826005 -4.58079 0
0 0 0
-1.89006 -0.376791 0
-0.376791 -4.52812 0
0 0 0
-2.46269 0.109128 0
0.109128 -4.72023 0
0 0 0
0.662519 0.16562 0
0.16562 -6.68353 0
0 0 0
0.0447602 0.380585 0
0.380585 -6.85156 0
0 0 0
-0.640876 0.192992 0
0.192992 -6.8526 0
0 0 0
-0.632878 0.0319032 0
0.0319032 -6.85577 0
0 0 0
0.0866397 -0.0918087 0
-0.0918087 -6.76648 0
0 0 0
0.0855824 -0.267699 0
-0.267699 -6.39936 0
0 0 0
-0.70756 -0.289442 0
-0.289442 -5.90876 0
0 0 0
-0.746497 -0.522257 0
-0.522257 -5.23014 0
0 0 0
-1.12457 -0.745674 0
-0.745674 -4.62902 0
0 0 0
-1.72287 -0.53696 0
-0.53696 -4.51883 0
0 0 0
-2.37182 0.0322427 0
0.0322427 -4.73223 0
0 0 0
0.701048 0.18664 0
0.18664 -6.3034 0
0 0 0
-0.0108023 0.353873 0
0.353873 -6.44691 0
0 0 0
-0.677142 0.171808 0
0.171808 -6.43678 0
0 0 0
-0.673582 0.030462 0
0.030462 -6.42887 0
0 0 0
0.0516399 -0.0869213 0
-0.0869213 -6.30212 0
0 0 0
0.0494693 -0.269887 0
-0.269887 -5.91309 0
0 0 0
-0.88103 -0.239156 0
-0.239156 -5.5002 0
0 0 0
-0.924834 -0.403247 0
-0.403247 -4.97119 0
0 0 0
-1.27681 -0.568269 0
-0.568269 -4.51937 0
0 0 0
-1.58606 -0.597491 0
-0.597491 -4.31471 0
0 0 0
-2.09298 -0.179584 0
-0.179584 -4.42202 0
0 0 0
0.726571 0.195384 0
0.195384 -6.01034 0
0 0 0
-0.0341981 0.30691 0
0.30691 -6.1752 0
0 0 0
-0.703694 0.145154 0
0.145154 -6.16741 0
0 0 0
-0.70381 0.0256093 0
0.0256093 -6.15056 0
0 0 0
-0.0063889 -0.0790553 0
-0.0790553 -6.016 0
0 0 0
-0.0114157 -0.258374 0
-0.258374 -5.6213 0
0 0 0
-1.01376 -0.201827 0
-0.201827 -5.30465 0
0 0 0
-1.06485 -0.281269 0
-0.281269 -4.91597 0
0 0 0
-1.39282 -0.384283 0
-0.384283 -4.55748 0
0 0 0
-1.57525 -0.484025 0
-0.484025 -4.33368 0
0 0 0
-1.90572 -0.251487 0
-0.251487 -4.31608 0
0 0 0
0.722904 0.187773 0
0.187773 -5.84874 0
0 0 0
-0.043946 0.275859 0
0.275859 -6.04714 0
0 0 0
-0.707426 0.127769 0
0.127769 -6.0423 0
0 0 0
-0.709114 0.0265127 0
0.0265127 -6.04439 0
0 0 0
-0.0688506 -0.062189 0
-0.062189 -5.91953 0
0 0 0
-0.0769025 -0.225552 0
-0.225552 -5.54145 0
0 0 0
-1.02325 -0.219281 0
-0.219281 -5.26003 0
0 0 0
-1.12496 -0.180184 0
-0.180184 -4.98541 0
0 0 0
-1.42181 -0.248651 0
-0.248651 -4.68382 0
0 0 0
-1.5934 -0.329368 0
-0.329368 -4.47142 0
0 0 0
-1.78023 -0.222025 0
-0.222025 -4.35792 0
0 0 0
0.694909 0.173039 0
0.173039 -5.80645 0
0 0 0
-0.0307346 0.262426 0
0.262426 -6.02458 0
0 0 0
-0.695966 0.128649 0
0.128649 -6.02615 0
0 0 0
-0.698439 0.0332741 0
0.0332741 -6.03274 0
0 0 0
-0.118877 -0.0403745 0
-0.0403745 -5.93771 0
0 0 0
-0.128851 -0.185129 0
-0.185129 -5.58017 0
0 0 0
-0.946414 -0.245605 0
-0.245605 -5.28152 0
0 0 0
-1.12539 -0.113313 0
-0.113313 -5.10134 0
0 0 0
-1.39667 -0.165086 0
-0.165086 -4.8087 0
0 0 0
-1.56607 -0.224767 0
-0.224767 -4.59414 0
0 0 0
-1.66779 -0.197462 0
-0.197462 -4.4451 0
0 0 0
0.66124 0.164874 0
0.164874 -5.77983 0
0 0 0
0.00423639 0.26025 0
0.26025 -5.97941 0
0 0 0
-0.685457 0.143793 0
0.143793 -5.99796 0
0 0 0
-0.688514 0.0437945 0
0.0437945 -5.99322 0
0 0 0
-0.154655 -0.018464 0
-0.018464 -5.92409 0
0 0 0
-0.165853 -0.148287 0
-0.148287 -5.57906 0
0 0 0
-0.801285 -0.283923 0
-0.283923 -5.26871 0
0 0 0
-1.09893 -0.0796917 0
-0.0796917 -5.14211 0
0 0 0
-1.3574 -0.112261 0
-0.112261 -4.83979 0
0 0 0
-1.53462 -0.174052 0
-0.174052 -4.63723 0
0 0 0
-1.60194 -0.204037 0
-0.204037 -4.45518 0
0 0 0
0.628454 0.156387 0
0.156387 -5.73439 0
0 0 0
0.034609 0.255278 0
0.255278 -5.9294 0
0 0 0
-0.679971 0.141173 0
0.141173 -5.93274 0
0 0 0
-0.682507 0.0474685 0
0.0474685 -5.93814 0
0 0 0
-0.179723 -0.0012246 0
-0.0012246 -5.87685 0
0 0 0
-0.191695 -0.130651 0
-0.130651 -5.98738 0
0 0 0
-0.699765 -0.269467 0
-0.269467 -5.23369 0
0 0 0
-1.04836 -0.0910622 0
-0.0910622 -5.11613 0
0 0 0
-1.32789 -0.0779543 0
-0.0779543 -4.84117 0
0 0 0
-1.51371 -0.134699 0
-0.134699 -4.61866 0
0 0 0
-1.56845 -0.185556 0
-0.185556 -4.43132 0
0 0 0
