# vtk DataFile Version 3.0
MPM2D particles
ASCII
DATASET POLYDATA
POINTS 121 double
0.0142324 2.08895e-07 0
0.0423199 1.08033e-07 0
0.0670299 6.5339e-08 0
0.0890636 4.41517e-08 0
0.112229 4.92694e-08 0
0.137809 2.0936e-07 0
0.162774 1.16151e-06 0
0.185307 1.70653e-05 0
0.206436 0.000220998 0
0.200222 0.000757358 0
0.189045 0.000448434 0
0.0184116 5.74877e-07 0
0.053622 2.56745e-07 0
0.0745411 1.73975e-07 0
0.0917055 1.27036e-07 0
0.11167 1.43189e-07 0
0.13845 6.51771e-07 0
0.163025 3.65195e-06 0
0.181389 3.35164e-05 0
0.197716 0.000253655 0
0.197252 0.000423373 0
0.192073 0.000386762 0
0.0222033 8.19235e-07 0
0.0620323 3.512e-07 0
0.0792995 2.552e-07 0
0.0934841 1.96664e-07 0
0.111286 2.24078e-07 0
0.139014 1.07907e-06 0
0.162865 5.8495e-06 0
0.178089 3.77355e-05 0
0.191344 0.000200762 0
0.192416 0.000293783 0
0.189963 0.000298386 0
0.0233026 9.35307e-07 0
0.064352 4.09091e-07 0
0.0809086 3.06694e-07 0
0.0944245 2.42425e-07 0
0.111786 2.92506e-07 0
0.139421 1.41233e-06 0
0.162224 7.06295e-06 0
0.175146 3.53589e-05 0
0.186277 0.000147674 0
0.188771 0.000233808 0
0.187482 0.000253864 0
0.0242226 1.04165e-06 0
0.0661815 4.64972e-07 0
0.0822544 3.57645e-07 0
0.0953262 2.88817e-07 0
0.112471 3.73024e-07 0
0.13965 1.77297e-06 0
0.161248 7.93234e-06 0
0.172075 3.12966e-05 0
0.181306 0.00010445 0
0.185162 0.000183036 0
0.185192 0.000219302 0
0.0251706 1.18467e-06 0
0.0679609 5.43028e-07 0
0.0835984 4.29546e-07 0
0.096258 3.55362e-07 0
0.113145 4.93177e-07 0
0.139349 2.25258e-06 0
0.159552 8.55124e-06 0
0.168386 2.66755e-05 0
0.175901 7.21622e-05 0
0.180371 0.000130848 0
0.182182 0.000181577 0
0.0258204 1.39866e-06 0
0.0690923 6.60706e-07 0
0.0844083 5.3648e-07 0
0.0967536 4.54322e-07 0
0.113147 6.48151e-07 0
0.137751 2.75641e-06 0
0.156984 8.8931e-06 0
0.164539 2.28906e-05 0
0.171063 5.43614e-05 0
0.175363 9.4892e-05 0
0.178467 0.000146113 0
0.0257305 1.68809e-06 0
0.0689622 8.16023e-07 0
0.0842123 6.73558e-07 0
0.0964793 5.7897e-07 0
0.112289 7.94552e-07 0
0.135231 3.12463e-06 0
0.154142 9.74487e-06 0
0.161392 2.07087e-05 0
0.167633 4.69408e-05 0
0.171811 8.02276e-05 0
0.175391 0.000127981 0
0.0250288 2.02915e-06 0
0.067891 9.95013e-07 0
0.0833 8.27194e-07 0
0.0956659 7.16125e-07 0
0.110963 9.07621e-07 0
0.132641 3.35722e-06 0
0.151488 1.04279e-05 0
0.159085 1.97459e-05 0
0.165396 4.47244e-05 0
0.169654 7.70331e-05 0
0.173426 0.000125032 0
0.0242095 2.39067e-06 0
0.0666045 1.18512e-06 0
0.0822036 9.8868e-07 0
0.0946604 8.59914e-07 0
0.109492 9.92335e-07 0
0.130292 3.51819e-06 0
0.148996 1.09134e-05 0
0.157272 1.95589e-05 0
0.163765 4.42998e-05 0
0.16814 7.72942e-05 0
0.172029 0.000127037 0
0.0234376 2.77326e-06 0
0.0653156 1.39033e-06 0
0.0810569 1.16286e-06 0
0.0935269 1.01601e-06 0
0.107887 1.05625e-06 0
0.128053 3.63669e-06 0
0.146534 1.12411e-05 0
0.155577 2.03923e-05 0
0.162322 4.41504e-05 0
0.166789 7.77705e-05 0
0.170708 0.000128309 0
VERTICES 121 242
1 0
1 1
1 2
1 3
1 4
1 5
1 6
1 7
1 8
1 9
1 10
1 11
1 12
1 13
1 14
1 15
1 16
1 17
1 18
1 19
1 20
1 21
1 22
1 23
1 24
1 25
1 26
1 27
1 28
1 29
1 30
1 31
1 32
1 33
1 34
1 35
1 36
1 37
1 38
1 39
1 40
1 41
1 42
1 43
1 44
1 45
1 46
1 47
1 48
1 49
1 50
1 51
1 52
1 53
1 54
1 55
1 56
1 57
1 58
1 59
1 60
1 61
1 62
1 63
1 64
1 65
1 66
1 67
1 68
1 69
1 70
1 71
1 72
1 73
1 74
1 75
1 76
1 77
1 78
1 79
1 80
1 81
1 82
1 83
1 84
1 85
1 86
1 87
1 88
1 89
1 90
1 91
1 92
1 93
1 94
1 95
1 96
1 97
1 98
1 99
1 100
1 101
1 102
1 103
1 104
1 105
1 106
1 107
1 108
1 109
1 110
1 111
1 112
1 113
1 114
1 115
1 116
1 117
1 118
1 119
1 120
POINT_DATA 121
VECTORS velocity double
4.92634 7.77358 0
2.6564 5.70242 0
1.26323 4.32536 0
0.793716 3.56405 0
0.431314 3.13892 0
0.393905 3.61929 0
0.237113 3.60099 0
-0.326753 1.6525 0
-1.08313 0.0575167 0
-6.03963 6.89398 0
-8.70045 10.642 0
3.46695 2.05561 0
0.803654 0.8658 0
0.0488085 0.342958 0
0.198372 -0.0484133 0
0.290233 -0.289162 0
0.342713 0.00603725 0
0.313478 -0.025518 0
0.171697 -1.00744 0
0.0279332 -1.96977 0
-1.02988 -0.424381 0
-1.23668 0.473052 0
2.43573 -1.89931 0
-0.437492 -2.30165 0
-0.70668 -2.46639 0
-0.190588 -2.64935 0
0.205379 -2.78476 0
0.336713 -2.66454 0
0.418909 -2.68002 0
0.558536 -2.92488 0
0.722594 -3.21387 0
0.7503 -3.15585 0
1.05274 -3.16016 0
2.41875 -2.54011 0
-0.387593 -2.81413 0
-0.618721 -2.94422 0
-0.136402 -3.08996 0
0.254765 -3.19935 0
0.416024 -3.14475 0
0.507447 -3.15536 0
0.567863 -3.17037 0
0.640517 -3.20562 0
0.398929 -3.31828 0
0.42809 -3.46973 0
2.45808 -2.99423 0
-0.235266 -3.19151 0
-0.455815 -3.27858 0
-0.0518654 -3.38092 0
0.289404 -3.45394 0
0.480778 -3.42734 0
0.576481 -3.42516 0
0.511399 -3.30624 0
0.440286 -3.21006 0
-0.119675 -3.39683 0
-0.366448 -3.67554 0
2.43443 -3.35132 0
-0.13328 -3.522 0
-0.353706 -3.56788 0
-0.0196647 -3.61993 0
0.273764 -3.6436 0
0.487547 -3.60737 0
0.603548 -3.59101 0
0.479465 -3.45081 0
0.340034 -3.33611 0
-0.365925 -3.51933 0
-0.87424 -3.81608 0
2.25247 -3.5996 0
-0.149252 -3.78415 0
-0.361699 -3.79452 0
-0.0618705 -3.80055 0
0.207918 -3.7836 0
0.424608 -3.73165 0
0.570307 -3.70174 0
0.457682 -3.5963 0
0.315779 -3.50496 0
-0.37325 -3.67521 0
-1.0356 -3.94599 0
1.93683 -3.87298 0
-0.189484 -4.06229 0
-0.383689 -4.04748 0
-0.116374 -4.02145 0
0.132421 -3.9792 0
0.350937 -3.90978 0
0.50432 -3.84124 0
0.39491 -3.77699 0
0.225323 -3.69952 0
-0.406437 -3.84953 0
-1.08316 -4.09117 0
1.55054 -4.30911 0
-0.206516 -4.46366 0
-0.384079 -4.43143 0
-0.174656 -4.38326 0
0.0356478 -4.32319 0
0.259641 -4.23624 0
0.430074 -4.13557 0
0.31914 -4.09259 0
0.123458 -4.02133 0
-0.462516 -4.12386 0
-1.11367 -4.30222 0
1.16122 -5.07624 0
-0.236473 -5.15175 0
-0.404313 -5.09224 0
-0.26741 -5.01757 0
-0.107678 -4.93224 0
0.125523 -4.81752 0
0.32297 -4.68106 0
0.234621 -4.64387 0
0.0435928 -4.58123 0
-0.522388 -4.61709 0
-1.16484 -4.69721 0
0.720078 -6.36802 0
-0.33175 -6.33969 0
-0.489126 -6.25056 0
-0.439575 -6.1435 0
-0.346302 -5.99436 0
-0.0967026 -5.84068 0
0.152577 -5.62069 0
0.107622 -5.58289 0
-0.0373623 -5.54146 0
-0.584685 -5.48045 0
-1.22071 -5.42599 0
SCALARS mass double 1
LOOKUP_TABLE default
2.67769
2.67769
2.67769
2.67769
2.67769
2.67769
2.67769
2.67769
2.67769
2.67769
2.67769
2.67769
2.67769
2.67769
2.67769
2.67769
2.67769
2.67769
2.67769
2.67769
2.67769
2.67769
2.67769
2.67769
2.67769
2.67769
2.67769
2.67769
2.67769
2.67769
2.67769
2.67769
2.67769
2.67769
2.67769
2.67769
2.67769
2.67769
2.67769
2.67769
2.67769
2.67769
2.67769
2.67769
2.67769
2.67769
2.67769
2.67769
2.67769
2.67769
2.67769
2.67769
2.67769
2.67769
2.67769
2.67769
2.67769
2.67769
2.67769
2.67769
2.67769
2.67769
2.67769
2.67769
2.67769
2.67769
2.67769
2.67769
2.67769
2.67769
2.67769
2.67769
2.67769
2.67769
2.67769
2.67769
2.67769
2.67769
2.67769
2.67769
2.67769
2.67769
2.67769
2.67769
2.67769
2.67769
2.67769
2.67769
2.67769
2.67769
2.67769
2.67769
2.67769
2.67769
2.67769
2.67769
2.67769
2.67769
2.67769
2.67769
2.67769
2.67769
2.67769
2.67769
2.67769
2.67769
2.67769
2.67769
2.67769
2.67769
2.67769
2.67769
2.67769
2.67769
2.67769
2.67769
2.67769
2.67769
2.67769
2.67769
2.67769
SCALARS volume double 1
LOOKUP_TABLE default
1.41805e-08
7.26816e-09
3.43076e-09
2.33e-09
3.00109e-09
1.27475e-08
6.32305e-08
9.23324e-07
8.61841e-06
8.4508e-06
2.32295e-06
1.68931e-08
7.03043e-09
2.37601e-09
1.75846e-09
3.04646e-09
1.385e-08
5.54081e-08
5.01165e-07
2.1341e-06
1.14951e-06
5.5178e-07
8.04873e-09
2.67623e-09
1.05534e-09
8.82213e-10
2.04243e-09
1.00539e-08
3.2834e-08
2.22495e-07
6.56072e-07
2.94673e-07
1.18285e-07
7.04096e-09
2.1751e-09
9.02197e-10
7.83824e-10
2.05521e-09
1.03793e-08
2.74111e-08
1.4035e-07
3.82543e-07
2.01469e-07
8.3498e-08
7.7891e-09
2.2753e-09
9.8373e-10
8.80319e-10
2.56244e-09
1.28223e-08
2.66859e-08
1.05294e-07
2.43934e-07
1.90825e-07
7.7702e-08
1.17514e-08
3.17313e-09
1.42497e-09
1.28857e-09
4.07155e-09
1.99003e-08
3.01326e-08
8.91635e-08
1.63198e-07
1.97263e-07
1.1743e-07
1.60993e-08
4.02555e-09
1.8073e-09
1.64772e-09
5.12549e-09
2.33743e-08
2.75287e-08
6.31703e-08
1.01039e-07
1.40393e-07
1.2452e-07
1.89322e-08
4.54046e-09
2.0472e-09
1.82932e-09
5.10539e-09
2.11882e-08
2.51509e-08
4.4845e-08
6.85847e-08
9.44885e-08
1.1075e-07
1.94073e-08
4.76272e-09
2.12413e-09
1.88638e-09
4.49077e-09
1.72208e-08
2.37304e-08
3.4148e-08
5.33816e-08
7.42566e-08
9.98543e-08
1.94845e-08
5.23827e-09
2.23184e-09
2.00322e-09
4.10946e-09
1.49474e-08
2.50076e-08
3.02206e-08
4.83052e-08
6.63495e-08
9.64356e-08
1.99325e-08
5.75925e-09
2.42471e-09
2.15408e-09
3.90656e-09
7.43419e-09
2.57623e-08
3.03153e-08
4.51512e-08
6.31497e-08
9.37393e-08
TENSORS stress double
5076.68 27172.6 0
27172.6 3235.82 0
0 0 0
5076.68 86937.5 0
86937.5 2897.42 0
0 0 0
5076.67 79440.6 0
79440.6 2605.42 0
0 0 0
5076.67 27296.2 0
27296.2 2348.71 0
0 0 0
5076.67 -19674.4 0
-19674.4 2729.81 0
0 0 0
5076.66 -56439.3 0
-56439.3 4822.28 0
0 0 0
5076.63 -97690.1 0
-97690.1 6837.27 0
0 0 0
5076.01 -163427 0
-163427 8554.74 0
0 0 0
5068.19 -212495 0
-212495 10158.9 0
0 0 0
5047.47 -168187 0
-168187 9667.11 0
0 0 0
5059.24 -126018 0
-126018 8825.11 0
0 0 0
5076.68 28917.8 0
28917.8 3185.45 0
0 0 0
5076.67 99772.7 0
99772.7 2761.63 0
0 0 0
5076.67 60488.3 0
60488.3 2517.91 0
0 0 0
5076.67 18436.3 0
18436.3 2317.93 0
0 0 0
5076.67 -19881.7 0
-19881.7 2684.07 0
0 0 0
5076.64 -58428.2 0
-58428.2 4874.66 0
0 0 0
5076.53 -96125.6 0
-96125.6 6856.36 0
0 0 0
5075.36 -150672 0
-150672 8255.49 0
0 0 0
5066.88 -185288 0
-185288 9492.92 0
0 0 0
5060.31 -128712 0
-128712 9451.83 0
0 0 0
5061.67 -98751.4 0
-98751.4 9058.06 0
0 0 0
5076.68 28700.1 0
28700.1 3139.76 0
0 0 0
5076.66 74943.8 0
74943.8 2663.64 0
0 0 0
5076.67 40992.6 0
40992.6 2462.46 0
0 0 0
5076.67 10678.5 0
10678.5 2297.2 0
0 0 0
5076.66 -18332.3 0
-18332.3 2652.61 0
0 0 0
5076.62 -60179.2 0
-60179.2 4920.8 0
0 0 0
5076.44 -94506.2 0
-94506.2 6844.05 0
0 0 0
5075.19 -140908 0
-140908 8003.69 0
0 0 0
5068.88 -169180 0
-169180 9008.78 0
0 0 0
5065.28 -114833 0
-114833 9087.38 0
0 0 0
5065.08 -66885.6 0
-66885.6 8900.17 0
0 0 0
5076.68 31132.7 0
31132.7 3126.51 0
0 0 0
5076.66 69530.3 0
69530.3 2636.61 0
0 0 0
5076.66 37494 0
37494 2443.71 0
0 0 0
5076.67 10022.3 0
10022.3 2286.24 0
0 0 0
5076.66 -17198.3 0
-17198.3 2693.56 0
0 0 0
5076.6 -60780.9 0
-60780.9 4954.04 0
0 0 0
5076.39 -90015.9 0
-90015.9 6795.14 0
0 0 0
5075.28 -130731 0
-130731 7779.36 0
0 0 0
5070.92 -163446 0
-163446 8624.22 0
0 0 0
5067.58 -120749 0
-120749 8811.51 0
0 0 0
5066.79 -70603.2 0
-70603.2 8712.52 0
0 0 0
5076.68 34150.4 0
34150.4 3115.42 0
0 0 0
5076.66 66276.4 0
66276.4 2615.29 0
0 0 0
5076.66 35607.3 0
35607.3 2428.03 0
0 0 0
5076.67 9812.43 0
9812.43 2275.74 0
0 0 0
5076.65 -16926.3 0
-16926.3 2749.57 0
0 0 0
5076.58 -61051.6 0
-61051.6 4972.79 0
0 0 0
5076.36 -84417.1 0
-84417.1 6720.68 0
0 0 0
5075.44 -118779 0
-118779 7545.41 0
0 0 0
5072.59 -150311 0
-150311 8246.69 0
0 0 0
5069.54 -133083 0
-133083 8538.02 0
0 0 0
5068.12 -75950.4 0
-75950.4 8539.1 0
0 0 0
5076.68 36938.2 0
36938.2 3104 0
0 0 0
5076.66 62285.1 0
62285.1 2594.56 0
0 0 0
5076.66 32491.2 0
32491.2 2412.37 0
0 0 0
5076.66 8976.01 0
8976.01 2264.88 0
0 0 0
5076.65 -17087.1 0
-17087.1 2804.68 0
0 0 0
5076.55 -60962.9 0
-60962.9 4948.2 0
0 0 0
5076.33 -77583.1 0
-77583.1 6591.35 0
0 0 0
5075.62 -103011 0
-103011 7264.31 0
0 0 0
5073.84 -127005 0
-127005 7835.67 0
0 0 0
5071.55 -134246 0
-134246 8174.48 0
0 0 0
5069.58 -94045.7 0
-94045.7 8310.86 0
0 0 0
5076.68 38280.1 0
38280.1 3096.16 0
0 0 0
5076.65 56748.2 0
56748.2 2581.37 0
0 0 0
5076.66 29223.3 0
29223.3 2402.93 0
0 0 0
5076.66 8120.88 0
8120.88 2259.1 0
0 0 0
5076.64 -16290.4 0
-16290.4 2804.86 0
0 0 0
5076.52 -58230.5 0
-58230.5 4817.4 0
0 0 0
5076.2 -71324.2 0
-71324.2 6390.52 0
0 0 0
5075.77 -86773.1 0
-86773.1 6971.1 0
0 0 0
5074.53 -103579 0
-103579 7467.42 0
0 0 0
5072.95 -117742 0
-117742 7793.86 0
0 0 0
5070.95 -97398 0
-97398 8028.78 0
0 0 0
5076.68 37447.2 0
37447.2 3097.23 0
0 0 0
5076.65 53736.8 0
53736.8 2582.88 0
0 0 0
5076.65 27627 0
27627 2405.21 0
0 0 0
5076.66 8411.2 0
8411.2 2262.29 0
0 0 0
5076.63 -13751.3 0
-13751.3 2734.65 0
0 0 0
5076.5 -52466 0
-52466 4611.29 0
0 0 0
5076.15 -70265 0
-70265 6158.01 0
0 0 0
5075.85 -73345.6 0
-73345.6 6731.21 0
0 0 0
5074.82 -86408.6 0
-86408.6 7206.15 0
0 0 0
5073.51 -98550.7 0
-98550.7 7523.53 0
0 0 0
5071.64 -91205.6 0
-91205.6 7794.87 0
0 0 0
5076.68 35456.4 0
35456.4 3105.67 0
0 0 0
5076.64 53184.5 0
53184.5 2595.35 0
0 0 0
5076.65 28387.9 0
28387.9 2415.83 0
0 0 0
5076.65 9686.72 0
9686.72 2271.76 0
0 0 0
5076.62 -10260.9 0
-10260.9 2626.18 0
0 0 0
5076.49 -45873.9 0
-45873.9 4399.44 0
0 0 0
5076.11 -70276.1 0
-70276.1 5940.89 0
0 0 0
5075.89 -64210.8 0
-64210.8 6555.36 0
0 0 0
5074.9 -75659.8 0
-75659.8 7035.7 0
0 0 0
5073.63 -85758.7 0
-85758.7 7359.21 0
0 0 0
5071.75 -86582.2 0
-86582.2 7645.13 0
0 0 0
5076.68 34036.7 0
34036.7 3115.53 0
0 0 0
5076.63 53917.4 0
53917.4 2610.34 0
0 0 0
5076.64 30711.5 0
30711.5 2428.6 0
0 0 0
5076.65 11480.4 0
11480.4 2283.47 0
0 0 0
5076.62 -6620.03 0
-6620.03 2505.86 0
0 0 0
5076.48 -39875.6 0
-39875.6 4207.23 0
0 0 0
5076.09 -71645.1 0
-71645.1 5736.99 0
0 0 0
5075.63 -59244.4 0
-59244.4 6413.68 0
0 0 0
5074.92 -68606.9 0
-68606.9 6911.36 0
0 0 0
5073.62 -79006.9 0
-79006.9 7243.77 0
0 0 0
5071.67 -85639.8 0
-85639.8 7538.55 0
0 0 0
5076.68 32619.1 0
32619.1 3124.82 0
0 0 0
5076.63 54372.2 0
54372.2 2625.35 0
0 0 0
5076.63 31295.9 0
31295.9 2441.95 0
0 0 0
5076.64 12684.1 0
12684.1 2296.67 0
0 0 0
5076.62 -3315.3 0
-3315.3 2374.56 0
0 0 0
5076.47 -35906.6 0
-35906.6 4024.11 0
0 0 0
5076.07 -67766.2 0
-67766.2 5535.6 0
0 0 0
5075.58 -58695.2 0
-58695.2 6275.04 0
0 0 0
5074.92 -63600.1 0
-63600.1 6801.34 0
0 0 0
5073.6 -73560.2 0
-73560.2 7140.74 0
0 0 0
5071.61 -82276.1 0
-82276.1 7437.81 0
0 0 0
TENSORS strain double
0.129852 0.271726 0
0.271726 -10.6999 0
0 0 0
0.120967 0.869375 0
0.869375 -11.3267 0
0 0 0
-0.123147 0.794406 0
0.794406 -11.8036 0
0 0 0
-0.118155 0.272962 0
0.272962 -12.1744 0
0 0 0
0.0234036 -0.196744 0
-0.196744 -12.0768 0
0 0 0
0.0229922 -0.564393 0
-0.564393 -10.7207 0
0 0 0
-0.0868179 -0.976901 0
-0.976901 -9.09171 0
0 0 0
-0.0929961 -1.63427 0
-1.63427 -6.50177 0
0 0 0
-0.416741 -2.12495 0
-2.12495 -3.99551 0
0 0 0
-1.6507 -1.68187 0
-1.68187 -2.76967 0
0 0 0
-2.40375 -1.26018 0
-1.26018 -3.25581 0
0 0 0
0.387775 0.289178 0
0.289178 -10.7816 0
0 0 0
0.319544 0.997727 0
0.997727 -11.5466 0
0 0 0
-0.367003 0.604883 0
0.604883 -11.9159 0
0 0 0
-0.353705 0.184363 0
0.184363 -12.2136 0
0 0 0
0.0702277 -0.198817 0
-0.198817 -12.1063 0
0 0 0
0.068947 -0.584282 0
-0.584282 -10.6858 0
0 0 0
-0.261299 -0.961256 0
-0.961256 -9.04677 0
0 0 0
-0.275967 -1.50672 0
-1.50672 -6.91297 0
0 0 0
-0.84595 -1.85288 0
-1.85288 -4.94087 0
0 0 0
-1.94619 -1.28712 0
-1.28712 -4.43595 0
0 0 0
-2.56893 -0.987514 0
-0.987514 -4.51858 0
0 0 0
0.575675 0.287001 0
0.287001 -11.7052 0
0 0 0
0.147531 0.749438 0
0.749438 -12.3211 0
0 0 0
-0.554406 0.409926 0
0.409926 -12.5256 0
0 0 0
-0.53901 0.106785 0
0.106785 -12.7074 0
0 0 0
0.105983 -0.183323 0
-0.183323 -12.5381 0
0 0 0
0.104182 -0.601792 0
-0.601792 -11.041 0
0 0 0
-0.422372 -0.945062 0
-0.945062 -9.40182 0
0 0 0
-0.444114 -1.40908 0
-1.40908 -7.53904 0
0 0 0
-1.07667 -1.6918 0
-1.6918 -5.86503 0
0 0 0
-2.00903 -1.14833 0
-1.14833 -5.71037 0
0 0 0
-2.58099 -0.668856 0
-0.668856 -6.01629 0
0 0 0
0.624232 0.311327 0
0.311327 -11.886 0
0 0 0
0.0908811 0.695303 0
0.695303 -12.4667 0
0 0 0
-0.604422 0.37494 0
0.37494 -12.6275 0
0 0 0
-0.592858 0.100223 0
0.100223 -12.7681 0
0 0 0
0.102791 -0.171983 0
-0.171983 -12.5303 0
0 0 0
0.101493 -0.607809 0
-0.607809 -11.0077 0
0 0 0
-0.560592 -0.900159 0
-0.900159 -9.43786 0
0 0 0
-0.592315 -1.30731 0
-1.30731 -7.83669 0
0 0 0
-1.06139 -1.63446 0
-1.63446 -6.40436 0
0 0 0
-1.90216 -1.20749 0
-1.20749 -6.18834 0
0 0 0
-2.47656 -0.706032 0
-0.706032 -6.45871 0
0 0 0
0.663161 0.341504 0
0.341504 -11.8237 0
0 0 0
0.0443091 0.662764 0
0.662764 -12.3719 0
0 0 0
-0.641267 0.356073 0
0.356073 -12.5022 0
0 0 0
-0.633226 0.0981243 0
0.0981243 -12.6105 0
0 0 0
0.0862974 -0.169263 0
-0.169263 -12.2967 0
0 0 0
0.0850123 -0.610516 0
-0.610516 -10.7816 0
0 0 0
-0.709063 -0.844171 0
-0.844171 -9.30988 0
0 0 0
-0.749976 -1.18779 0
-1.18779 -7.95182 0
0 0 0
-1.13211 -1.50311 0
-1.50311 -6.76662 0
0 0 0
-1.73396 -1.33083 0
-1.33083 -6.40836 0
0 0 0
-2.38507 -0.759504 0
-0.759504 -6.61633 0
0 0 0
0.701784 0.369382 0
0.369382 -11.4526 0
0 0 0
-0.0113361 0.622851 0
0.622851 -11.9815 0
0 0 0
-0.677616 0.324912 0
0.324912 -12.0972 0
0 0 0
-0.674013 0.0897601 0
0.0897601 -12.1911 0
0 0 0
0.0511992 -0.170871 0
-0.170871 -11.8039 0
0 0 0
0.0487369 -0.609629 0
-0.609629 -10.308 0
0 0 0
-0.882795 -0.775831 0
-0.775831 -9.00722 0
0 0 0
-0.928377 -1.03011 0
-1.03011 -7.92381 0
0 0 0
-1.2835 -1.27005 0
-1.27005 -6.9975 0
0 0 0
-1.5959 -1.34246 0
-1.34246 -6.50781 0
0 0 0
-2.10553 -0.940457 0
-0.940457 -6.49708 0
0 0 0
0.727445 0.382801 0
0.382801 -11.1657 0
0 0 0
-0.034853 0.567482 0
0.567482 -11.7189 0
0 0 0
-0.704289 0.292233 0
0.292233 -11.8343 0
0 0 0
-0.704363 0.0812088 0
0.0812088 -11.9168 0
0 0 0
-0.00696796 -0.162904 0
-0.162904 -11.5177 0
0 0 0
-0.0123675 -0.582305 0
-0.582305 -10.0837 0
0 0 0
-1.01528 -0.713242 0
-0.713242 -8.95427 0
0 0 0
-1.06852 -0.867731 0
-0.867731 -8.10936 0
0 0 0
-1.39915 -1.03579 0
-1.03579 -7.33951 0
0 0 0
-1.58425 -1.17742 0
-1.17742 -6.84276 0
0 0 0
-1.91769 -0.97398 0
-0.97398 -6.62608 0
0 0 0
0.723958 0.374472 0
0.374472 -11.0032 0
0 0 0
-0.0447541 0.537368 0
0.537368 -11.5898 0
0 0 0
-0.708173 0.27627 0
0.27627 -11.7077 0
0 0 0
-0.709817 0.084112 0
0.084112 -11.8084 0
0 0 0
-0.069585 -0.137513 0
-0.137513 -11.4575 0
0 0 0
-0.078089 -0.52466 0
-0.52466 -10.1102 0
0 0 0
-1.02509 -0.70265 0
-0.70265 -9.02961 0
0 0 0
-1.12885 -0.733456 0
-0.733456 -8.37569 0
0 0 0
-1.42827 -0.864086 0
-0.864086 -7.68084 0
0 0 0
-1.60241 -0.985507 0
-0.985507 -7.20366 0
0 0 0
-1.79232 -0.912056 0
-0.912056 -6.86143 0
0 0 0
0.696168 0.354564 0
0.354564 -10.9542 0
0 0 0
-0.0317122 0.531845 0
0.531845 -11.5586 0
0 0 0
-0.696877 0.283879 0
0.283879 -11.6842 0
0 0 0
-0.699303 0.0968672 0
0.0968672 -11.7902 0
0 0 0
-0.119761 -0.102609 0
-0.102609 -11.5316 0
0 0 0
-0.130257 -0.458739 0
-0.458739 -10.2583 0
0 0 0
-0.94858 -0.702761 0
-0.702761 -9.16311 0
0 0 0
-1.12956 -0.642108 0
-0.642108 -8.63585 0
0 0 0
-1.40353 -0.756598 0
-0.756598 -7.9456 0
0 0 0
-1.57566 -0.857587 0
-0.857587 -7.46122 0
0 0 0
-1.68075 -0.865822 0
-0.865822 -7.07132 0
0 0 0
0.662713 0.340367 0
0.340367 -10.9198 0
0 0 0
0.003083 0.539174 0
0.539174 -11.5031 0
0 0 0
-0.686537 0.307115 0
0.307115 -11.6471 0
0 0 0
-0.689544 0.114804 0
0.114804 -11.7426 0
0 0 0
-0.15568 -0.0662003 0
-0.0662003 -11.5801 0
0 0 0
-0.167465 -0.398756 0
-0.398756 -10.3564 0
0 0 0
-0.803767 -0.716451 0
-0.716451 -9.25551 0
0 0 0
-1.10222 -0.592444 0
-0.592444 -8.77877 0
0 0 0
-1.36478 -0.686069 0
-0.686069 -8.07853 0
0 0 0
-1.54497 -0.790069 0
-0.790069 -7.59866 0
0 0 0
-1.61601 -0.856398 0
-0.856398 -7.16811 0
0 0 0
0.630152 0.326191 0
0.326191 -10.867 0
0 0 0
0.0332686 0.543722 0
0.543722 -11.4427 0
0 0 0
-0.68123 0.312959 0
0.312959 -11.5727 0
0 0 0
-0.683714 0.126841 0
0.126841 -11.6784 0
0 0 0
-0.180886 -0.033153 0
-0.033153 -11.6007 0
0 0 0
-0.193511 -0.359066 0
-0.359066 -10.8593 0
0 0 0
-0.702563 -0.677662 0
-0.677662 -9.32442 0
0 0 0
-1.05201 -0.586952 0
-0.586952 -8.82427 0
0 0 0
-1.33579 -0.636001 0
-0.636001 -8.16999 0
0 0 0
-1.52483 -0.735602 0
-0.735602 -7.66425 0
0 0 0
-1.58358 -0.822761 0
-0.822761 -7.22631 0
0 0 0
