# vtk DataFile Version 3.0
MPM2D particles
ASCII
DATASET POLYDATA
POINTS 121 double
0.0142324 4.24618e-07 0
0.0423198 2.27732e-07 0
0.0670299 1.42087e-07 0
0.0890636 9.86593e-08 0
0.112229 1.0589e-07 0
0.137809 3.63399e-07 0
0.162774 1.6447e-06 0
0.185311 2.02211e-05 0
0.206493 0.000222159 0
0.200415 0.000798323 0
0.189153 0.000515814 0
0.0184116 1.17487e-06 0
0.053622 5.49182e-07 0
0.074541 3.81848e-07 0
0.0917055 2.84797e-07 0
0.11167 3.09198e-07 0
0.13845 1.12535e-06 0
0.163026 5.1608e-06 0
0.181397 4.09536e-05 0
0.19778 0.000272769 0
0.197358 0.000456837 0
0.192167 0.000434513 0
0.0222032 1.6825e-06 0
0.0620323 7.59039e-07 0
0.0792994 5.63423e-07 0
0.0934841 4.41862e-07 0
0.111286 4.85441e-07 0
0.139014 1.85446e-06 0
0.162866 8.27687e-06 0
0.178097 4.73222e-05 0
0.191392 0.000226878 0
0.192488 0.000329205 0
0.190035 0.000340822 0
0.0233026 1.92362e-06 0
0.0643519 8.86688e-07 0
0.0809085 6.78457e-07 0
0.0944245 5.45313e-07 0
0.111786 6.31008e-07 0
0.139421 2.41907e-06 0
0.162225 1.00451e-05 0
0.175153 4.53837e-05 0
0.186312 0.000173635 0
0.188827 0.000269574 0
0.187543 0.000295658 0
0.0242225 2.14489e-06 0
0.0661814 1.01008e-06 0
0.0822543 7.92484e-07 0
0.0953262 6.50391e-07 0
0.112471 8.00067e-07 0
0.13965 3.03103e-06 0
0.161249 1.13698e-05 0
0.172082 4.11572e-05 0
0.18133 0.000127702 0
0.185205 0.000217094 0
0.185244 0.000260037 0
0.0251705 2.44237e-06 0
0.0679608 1.18223e-06 0
0.0835984 9.53385e-07 0
0.096258 8.01168e-07 0
0.113145 1.05178e-06 0
0.13935 3.86052e-06 0
0.159553 1.24242e-05 0
0.168392 3.61217e-05 0
0.175917 9.20674e-05 0
0.180401 0.000161154 0
0.182224 0.000220458 0
0.0258203 2.88597e-06 0
0.0690922 1.44044e-06 0
0.0844083 1.19192e-06 0
0.0967535 1.0249e-06 0
0.113147 1.38226e-06 0
0.137751 4.78678e-06 0
0.156986 1.31906e-05 0
0.164544 3.19596e-05 0
0.171075 7.2063e-05 0
0.175384 0.00012158 0
0.1785 0.00018267 0
0.0257304 3.48278e-06 0
0.0689621 1.77877e-06 0
0.0842122 1.49611e-06 0
0.0964793 1.30565e-06 0
0.112289 1.70679e-06 0
0.135232 5.54051e-06 0
0.154144 1.47925e-05 0
0.161396 2.96484e-05 0
0.167643 6.39436e-05 0
0.171828 0.000105721 0
0.175419 0.000163933 0
0.0250287 4.18263e-06 0
0.0678909 2.16607e-06 0
0.0832999 1.8353e-06 0
0.0956659 1.61333e-06 0
0.110963 1.97163e-06 0
0.132642 6.08212e-06 0
0.15149 1.61759e-05 0
0.159089 2.8796e-05 0
0.165406 6.20178e-05 0
0.169671 0.000103262 0
0.173453 0.000162664 0
0.0242093 4.92261e-06 0
0.0666043 2.57583e-06 0
0.0822036 2.19062e-06 0
0.0946604 1.93486e-06 0
0.109492 2.18264e-06 0
0.130292 6.49938e-06 0
0.148998 1.72777e-05 0
0.157276 2.89426e-05 0
0.163774 6.22324e-05 0
0.168156 0.000104865 0
0.172056 0.000167109 0
0.0234374 5.7047e-06 0
0.0653155 3.01705e-06 0
0.0810568 2.57291e-06 0
0.0935269 2.28289e-06 0
0.107887 2.35502e-06 0
0.128054 6.84464e-06 0
0.146536 1.81593e-05 0
0.155581 3.05948e-05 0
0.162331 6.27405e-05 0
0.166805 0.00010665 0
0.170736 0.000170557 0
VERTICES 121 242
1 0
1 1
1 2
1 3
1 4
1 5
1 6
1 7
1 8
1 9
1 10
1 11
1 12
1 13
1 14
1 15
1 16
1 17
1 18
1 19
1 20
1 21
1 22
1 23
1 24
1 25
1 26
1 27
1 28
1 29
1 30
1 31
1 32
1 33
1 34
1 35
1 36
1 37
1 38
1 39
1 40
1 41
1 42
1 43
1 44
1 45
1 46
1 47
1 48
1 49
1 50
1 51
1 52
1 53
1 54
1 55
1 56
1 57
1 58
1 59
1 60
1 61
1 62
1 63
1 64
1 65
1 66
1 67
1 68
1 69
1 70
1 71
1 72
1 73
1 74
1 75
1 76
1 77
1 78
1 79
1 80
1 81
1 82
1 83
1 84
1 85
1 86
1 87
1 88
1 89
1 90
1 91
1 92
1 93
1 94
1 95
1 96
1 97
1 98
1 99
1 100
1 101
1 102
1 103
1 104
1 105
1 106
1 107
1 108
1 109
1 110
1 111
1 112
1 113
1 114
1 115
1 116
1 117
1 118
1 119
1 120
POINT_DATA 121
VECTORS velocity double
4.9621 7.86656 0
2.69219 5.79547 0
1.28599 4.41844 0
0.796495 3.65716 0
0.42198 3.23299 0
0.394016 3.71682 0
0.242759 3.69869 0
-0.330486 1.73848 0
-1.10816 0.13321 0
-6.09403 6.97481 0
-8.72878 10.7275 0
3.50273 2.14861 0
0.838572 0.958873 0
0.0647558 0.436055 0
0.198756 0.0447029 0
0.280691 -0.195164 0
0.34305 0.103656 0
0.318943 0.0720573 0
0.1687 -0.919355 0
0.00539036 -1.88942 0
-1.06215 -0.343199 0
-1.2636 0.556786 0
2.47152 -1.8063 0
-0.410198 -2.20856 0
-0.695046 -2.37329 0
-0.191816 -2.55623 0
0.195694 -2.69081 0
0.337248 -2.56684 0
0.42436 -2.58235 0
0.556674 -2.83506 0
0.706384 -3.1304 0
0.728357 -3.07261 0
1.03194 -3.07564 0
2.45455 -2.4471 0
-0.362401 -2.72105 0
-0.608546 -2.85112 0
-0.138483 -2.99684 0
0.245264 -3.10533 0
0.416701 -3.047 0
0.513103 -3.05736 0
0.567303 -3.07902 0
0.629643 -3.1197 0
0.382262 -3.23336 0
0.411055 -3.38407 0
2.49388 -2.90122 0
-0.211732 -3.09842 0
-0.44686 -3.18547 0
-0.0547643 -3.28779 0
0.280155 -3.35983 0
0.48153 -3.32955 0
0.582485 -3.32664 0
0.512255 -3.2133 0
0.433892 -3.12169 0
-0.131821 -3.31021 0
-0.380461 -3.58881 0
2.47024 -3.2583 0
-0.111358 -3.42891 0
-0.345969 -3.47477 0
-0.0234088 -3.52681 0
0.264761 -3.5494 0
0.488177 -3.50962 0
0.610187 -3.4916 0
0.481989 -3.35596 0
0.337531 -3.24504 0
-0.373156 -3.43039 0
-0.88481 -3.72791 0
2.28828 -3.50659 0
-0.128354 -3.69106 0
-0.354696 -3.70141 0
-0.0660644 -3.70742 0
0.198914 -3.6894 0
0.424636 -3.63412 0
0.577243 -3.60159 0
0.461883 -3.49946 0
0.316102 -3.41142 0
-0.376521 -3.58378 0
-1.04264 -3.85601 0
1.97265 -3.77996 0
-0.168465 -3.96919 0
-0.376507 -3.95437 0
-0.12032 -3.92833 0
0.123098 -3.88512 0
0.350028 -3.81259 0
0.510188 -3.74147 0
0.400437 -3.67851 0
0.227376 -3.60421 0
-0.4075 -3.7563 0
-1.0879 -3.99965 0
1.58638 -4.21609 0
-0.184521 -4.37056 0
-0.376068 -4.33832 0
-0.177865 -4.29013 0
0.025834 -4.22928 0
0.257774 -4.1394 0
0.43495 -4.03616 0
0.325613 -3.9929 0
0.126525 -3.92487 0
-0.4625 -4.02951 0
-1.11735 -4.20968 0
1.19707 -4.98322 0
-0.213306 -5.05866 0
-0.395306 -4.99913 0
-0.269707 -4.92445 0
-0.118036 -4.83853 0
0.122787 -4.72099 0
0.326919 -4.58198 0
0.241346 -4.54365 0
0.0473526 -4.48392 0
-0.521716 -4.52195 0
-1.16794 -4.60394 0
0.755939 -6.27501 0
-0.307409 -6.24659 0
-0.479077 -6.15745 0
-0.440843 -6.05038 0
-0.357253 -5.90087 0
-0.100266 -5.74445 0
0.155615 -5.52194 0
0.113705 -5.4829 0
-0.0329969 -5.44339 0
-0.583435 -5.38461 0
-1.22324 -5.33203 0
SCALARS mass double 1
LOOKUP_TABLE default
2.67769
2.67769
2.67769
2.67769
2.67769
2.67769
2.67769
2.67769
2.67769
2.67769
2.67769
2.67769
2.67769
2.67769
2.67769
2.67769
2.67769
2.67769
2.67769
2.67769
2.67769
2.67769
2.67769
2.67769
2.67769
2.67769
2.67769
2.67769
2.67769
2.67769
2.67769
2.67769
2.67769
2.67769
2.67769
2.67769
2.67769
2.67769
2.67769
2.67769
2.67769
2.67769
2.67769
2.67769
2.67769
2.67769
2.67769
2.67769
2.67769
2.67769
2.67769
2.67769
2.67769
2.67769
2.67769
2.67769
2.67769
2.67769
2.67769
2.67769
2.67769
2.67769
2.67769
2.67769
2.67769
2.67769
2.67769
2.67769
2.67769
2.67769
2.67769
2.67769
2.67769
2.67769
2.67769
2.67769
2.67769
2.67769
2.67769
2.67769
2.67769
2.67769
2.67769
2.67769
2.67769
2.67769
2.67769
2.67769
2.67769
2.67769
2.67769
2.67769
2.67769
2.67769
2.67769
2.67769
2.67769
2.67769
2.67769
2.67769
2.67769
2.67769
2.67769
2.67769
2.67769
2.67769
2.67769
2.67769
2.67769
2.67769
2.67769
2.67769
2.67769
2.67769
2.67769
2.67769
2.67769
2.67769
2.67769
2.67769
2.67769
SCALARS volume double 1
LOOKUP_TABLE default
2.88244e-08
1.53212e-08
7.46059e-09
5.2065e-09
6.44994e-09
2.21266e-08
8.9535e-08
1.09411e-06
8.66783e-06
8.923e-06
2.67483e-06
3.45242e-08
1.50382e-08
5.21499e-09
3.94223e-09
6.57843e-09
2.39134e-08
7.83015e-08
6.12424e-07
2.29624e-06
1.24157e-06
6.20464e-07
1.653e-08
5.78407e-09
2.32994e-09
1.98215e-09
4.42472e-09
1.72785e-08
4.64599e-08
2.79046e-07
7.41766e-07
3.30428e-07
1.35202e-07
1.44809e-08
4.71444e-09
1.99581e-09
1.76314e-09
4.4336e-09
1.77779e-08
3.89854e-08
1.80157e-07
4.49953e-07
2.32417e-07
9.73035e-08
1.60387e-08
4.94275e-09
2.17979e-09
1.98241e-09
5.49597e-09
2.1921e-08
3.82511e-08
1.3848e-07
2.98314e-07
2.26432e-07
9.21837e-08
2.42273e-08
6.90829e-09
3.16275e-09
2.9051e-09
8.68323e-09
3.4106e-08
4.3781e-08
1.20746e-07
2.08252e-07
2.43029e-07
1.4264e-07
3.32189e-08
8.77633e-09
4.01535e-09
3.71709e-09
1.09307e-08
4.05923e-08
4.08333e-08
8.82034e-08
1.33959e-07
1.79922e-07
1.55731e-07
3.90598e-08
9.89734e-09
4.54726e-09
4.12537e-09
1.0967e-08
3.7571e-08
3.818e-08
6.42077e-08
9.34389e-08
1.2454e-07
1.41908e-07
4.00035e-08
1.03681e-08
4.71282e-09
4.24976e-09
9.75539e-09
3.11988e-08
3.68126e-08
4.98019e-08
7.40314e-08
9.95606e-08
1.2995e-07
4.01201e-08
1.13853e-08
4.94509e-09
4.50739e-09
9.0388e-09
2.76138e-08
3.95929e-08
4.47231e-08
6.78674e-08
9.00348e-08
1.26897e-07
4.10015e-08
1.24978e-08
5.36485e-09
4.84004e-09
8.71011e-09
1.39922e-08
4.16193e-08
4.54864e-08
6.41703e-08
8.6618e-08
1.24647e-07
TENSORS stress double
5076.68 25899.1 0
25899.1 3390.76 0
0 0 0
5076.68 83150.8 0
83150.8 3052.66 0
0 0 0
5076.67 75794.8 0
75794.8 2768.5 0
0 0 0
5076.67 25278 0
25278 2523.61 0
0 0 0
5076.67 -19359.3 0
-19359.3 2857.78 0
0 0 0
5076.66 -51950.5 0
-51950.5 4746.08 0
0 0 0
5076.61 -89396.6 0
-89396.6 6609.02 0
0 0 0
5075.84 -152702 0
-152702 8364.91 0
0 0 0
5067.69 -199559 0
-199559 10009.2 0
0 0 0
5044.24 -156130 0
-156130 9515.98 0
0 0 0
5055.53 -115062 0
-115062 8647.49 0
0 0 0
5076.68 27270.4 0
27270.4 3340.43 0
0 0 0
5076.66 95136.5 0
95136.5 2917.51 0
0 0 0
5076.66 57397.3 0
57397.3 2685.01 0
0 0 0
5076.66 16613.3 0
16613.3 2494.23 0
0 0 0
5076.66 -19657.8 0
-19657.8 2816.51 0
0 0 0
5076.62 -53835.1 0
-53835.1 4793.34 0
0 0 0
5076.46 -87806 0
-87806 6628.54 0
0 0 0
5074.99 -140378 0
-140378 8059.15 0
0 0 0
5065.57 -173312 0
-173312 9328.24 0
0 0 0
5058.07 -116851 0
-116851 9289.18 0
0 0 0
5058.91 -87440.7 0
-87440.7 8885.23 0
0 0 0
5076.68 26713.4 0
26713.4 3294.77 0
0 0 0
5076.65 70928.8 0
70928.8 2824.03 0
0 0 0
5076.65 38253.1 0
38253.1 2632.11 0
0 0 0
5076.66 8986.88 0
8986.88 2474.46 0
0 0 0
5076.65 -18171.2 0
-18171.2 2788.11 0
0 0 0
5076.58 -55494.3 0
-55494.3 4834.97 0
0 0 0
5076.33 -86205 0
-86205 6615.97 0
0 0 0
5074.72 -130973 0
-130973 7801.74 0
0 0 0
5067.39 -157875 0
-157875 8831.89 0
0 0 0
5063.22 -103448 0
-103448 8913.79 0
0 0 0
5062.71 -55769.3 0
-55769.3 8722.18 0
0 0 0
5076.68 29047.6 0
29047.6 3281.52 0
0 0 0
5076.64 65686.7 0
65686.7 2798.24 0
0 0 0
5076.65 34873.5 0
34873.5 2614.23 0
0 0 0
5076.66 8400.18 0
8400.18 2464 0
0 0 0
5076.64 -16955.6 0
-16955.6 2825.07 0
0 0 0
5076.55 -56029.8 0
-56029.8 4864.96 0
0 0 0
5076.25 -81784.5 0
-81784.5 6565.97 0
0 0 0
5074.79 -121114 0
-121114 7572.35 0
0 0 0
5069.54 -152669 0
-152669 8437.66 0
0 0 0
5065.62 -109736 0
-109736 8630.49 0
0 0 0
5064.54 -59738.7 0
-59738.7 8529.45 0
0 0 0
5076.68 31983 0
31983 3270.44 0
0 0 0
5076.64 62568 0
62568 2777.9 0
0 0 0
5076.65 33086.2 0
33086.2 2599.26 0
0 0 0
5076.65 8256.95 0
8256.95 2453.98 0
0 0 0
5076.63 -16571.9 0
-16571.9 2875.6 0
0 0 0
5076.52 -56263.2 0
-56263.2 4881.87 0
0 0 0
5076.2 -76291.8 0
-76291.8 6489.85 0
0 0 0
5074.96 -109493 0
-109493 7333.11 0
0 0 0
5071.41 -140056 0
-140056 8050.93 0
0 0 0
5067.75 -122441 0
-122441 8349.92 0
0 0 0
5065.98 -65320.6 0
-65320.6 8351.48 0
0 0 0
5076.68 34686.1 0
34686.1 3259.02 0
0 0 0
5076.63 58708.1 0
58708.1 2758.12 0
0 0 0
5076.64 30069.4 0
30069.4 2584.32 0
0 0 0
5076.65 7489.36 0
7489.36 2443.62 0
0 0 0
5076.62 -16622.9 0
-16622.9 2925.34 0
0 0 0
5076.48 -56223.8 0
-56223.8 4859.67 0
0 0 0
5076.15 -69641.7 0
-69641.7 6357.63 0
0 0 0
5075.17 -94122.1 0
-94122.1 7045.68 0
0 0 0
5072.86 -117321 0
-117321 7630.23 0
0 0 0
5070.02 -124103 0
-124103 7977.35 0
0 0 0
5067.59 -83727.3 0
-83727.3 8117.45 0
0 0 0
5076.68 35969.8 0
35969.8 3251.18 0
0 0 0
5076.62 53254.8 0
53254.8 2745.53 0
0 0 0
5076.63 26861.3 0
26861.3 2575.31 0
0 0 0
5076.64 6670.85 0
6670.85 2438.1 0
0 0 0
5076.6 -15825.9 0
-15825.9 2925.49 0
0 0 0
5076.43 -53752.5 0
-53752.5 4741.62 0
0 0 0
5076.01 -63710.7 0
-63710.7 6161.24 0
0 0 0
5075.34 -78298.4 0
-78298.4 6745.89 0
0 0 0
5073.68 -94412.5 0
-94412.5 7253.52 0
0 0 0
5071.64 -108127 0
-108127 7587.66 0
0 0 0
5069.12 -87467.9 0
-87467.9 7828.44 0
0 0 0
5076.68 35145 0
35145 3252.24 0
0 0 0
5076.61 50233.8 0
50233.8 2746.96 0
0 0 0
5076.62 25250.6 0
25250.6 2577.47 0
0 0 0
5076.63 6940.92 0
6940.92 2441.14 0
0 0 0
5076.59 -13426.9 0
-13426.9 2862.12 0
0 0 0
5076.39 -48399.4 0
-48399.4 4555.61 0
0 0 0
5075.92 -63115.7 0
-63115.7 5951.39 0
0 0 0
5075.43 -65210.6 0
-65210.6 6500.62 0
0 0 0
5074.01 -77609.8 0
-77609.8 6986.3 0
0 0 0
5072.28 -89314 0
-89314 7311.06 0
0 0 0
5069.88 -81601.4 0
-81601.4 7588.97 0
0 0 0
5076.68 33217 0
33217 3260.66 0
0 0 0
5076.6 49602.4 0
49602.4 2758.86 0
0 0 0
5076.61 25944.1 0
25944.1 2587.6 0
0 0 0
5076.62 8156.37 0
8156.37 2450.17 0
0 0 0
5076.57 -10152.9 0
-10152.9 2764.23 0
0 0 0
5076.36 -42229.9 0
-42229.9 4364.41 0
0 0 0
5075.85 -63560.2 0
-63560.2 5755.43 0
0 0 0
5075.47 -56325 0
-56325 6320.84 0
0 0 0
5074.08 -67102.2 0
-67102.2 6812 0
0 0 0
5072.38 -76754.3 0
-76754.3 7142.98 0
0 0 0
5069.92 -77189.9 0
-77189.9 7435.75 0
0 0 0
5076.68 31870.7 0
31870.7 3270.5 0
0 0 0
5076.58 50240.2 0
50240.2 2773.14 0
0 0 0
5076.6 28186.7 0
28186.7 2599.77 0
0 0 0
5076.61 9875.78 0
9875.78 2461.33 0
0 0 0
5076.56 -6752.08 0
-6752.08 2655.65 0
0 0 0
5076.34 -36615.1 0
-36615.1 4190.95 0
0 0 0
5075.79 -65336.2 0
-65336.2 5571.4 0
0 0 0
5075.21 -51589 0
-51589 6182.06 0
0 0 0
5074.07 -60225.7 0
-60225.7 6684.86 0
0 0 0
5072.3 -70166.6 0
-70166.6 7024.92 0
0 0 0
5069.73 -76399.9 0
-76399.9 7326.73 0
0 0 0
5076.68 30522.2 0
30522.2 3279.76 0
0 0 0
5076.57 50599.9 0
50599.9 2787.45 0
0 0 0
5076.58 28686.4 0
28686.4 2612.5 0
0 0 0
5076.59 10995.8 0
10995.8 2473.91 0
0 0 0
5076.55 -3709.29 0
-3709.29 2537.15 0
0 0 0
5076.32 -33011.5 0
-33011.5 4025.69 0
0 0 0
5075.75 -61859.3 0
-61859.3 5389.63 0
0 0 0
5075.12 -51316.8 0
-51316.8 6056.92 0
0 0 0
5074.05 -55375 0
-55375 6572.36 0
0 0 0
5072.22 -64866.6 0
-64866.6 6919.54 0
0 0 0
5069.58 -73179.9 0
-73179.9 7223.67 0
0 0 0
TENSORS strain double
0.129852 0.258991 0
0.258991 -10.0152 0
0 0 0
0.120967 0.831508 0
0.831508 -10.6081 0
0 0 0
-0.123147 0.757948 0
0.757948 -11.0562 0
0 0 0
-0.118155 0.25278 0
0.25278 -11.4018 0
0 0 0
0.0234039 -0.193593 0
-0.193593 -11.3402 0
0 0 0
0.0229931 -0.519505 0
-0.519505 -10.1842 0
0 0 0
-0.0868149 -0.893966 0
-0.893966 -8.74985 0
0 0 0
-0.0929555 -1.52702 0
-1.52702 -6.33352 0
0 0 0
-0.416262 -1.99559 0
-1.99559 -3.99027 0
0 0 0
-1.64901 -1.5613 0
-1.5613 -2.71714 0
0 0 0
-2.4027 -1.15062 0
-1.15062 -3.1168 0
0 0 0
0.387774 0.272704 0
0.272704 -10.0918 0
0 0 0
0.319545 0.951365 0
0.951365 -10.8144 0
0 0 0
-0.367003 0.573973 0
0.573973 -11.1599 0
0 0 0
-0.353705 0.166133 0
0.166133 -11.438 0
0 0 0
0.0702285 -0.196578 0
-0.196578 -11.3654 0
0 0 0
0.0689499 -0.538351 0
-0.538351 -10.1542 0
0 0 0
-0.261289 -0.87806 0
-0.87806 -8.70685 0
0 0 0
-0.275886 -1.40378 0
-1.40378 -6.71456 0
0 0 0
-0.845379 -1.73312 0
-1.73312 -4.86848 0
0 0 0
-1.94524 -1.16851 0
-1.16851 -4.36017 0
0 0 0
-2.56804 -0.874407 0
-0.874407 -4.40284 0
0 0 0
0.575672 0.267134 0
0.267134 -11.0108 0
0 0 0
0.147532 0.709288 0
0.709288 -11.5793 0
0 0 0
-0.554405 0.382531 0
0.382531 -11.7641 0
0 0 0
-0.539009 0.0898688 0
0.0898688 -11.9298 0
0 0 0
0.105984 -0.181712 0
-0.181712 -11.7942 0
0 0 0
0.104187 -0.554943 0
-0.554943 -10.514 0
0 0 0
-0.422357 -0.86205 0
-0.86205 -9.06067 0
0 0 0
-0.444021 -1.30973 0
-1.30973 -7.31521 0
0 0 0
-1.0762 -1.57875 0
-1.57875 -5.74349 0
0 0 0
-2.00835 -1.03448 0
-1.03448 -5.59718 0
0 0 0
-2.58029 -0.557693 0
-0.557693 -5.8842 0
0 0 0
0.62423 0.290476 0
0.290476 -11.1903 0
0 0 0
0.090882 0.656867 0
0.656867 -11.7224 0
0 0 0
-0.604421 0.348735 0
0.348735 -11.8642 0
0 0 0
-0.592858 0.0840018 0
0.0840018 -11.9894 0
0 0 0
0.102792 -0.169556 0
-0.169556 -11.7903 0
0 0 0
0.101499 -0.560298 0
-0.560298 -10.4838 0
0 0 0
-0.560573 -0.817845 0
-0.817845 -9.09178 0
0 0 0
-0.592227 -1.21114 0
-1.21114 -7.59018 0
0 0 0
-1.06104 -1.52669 0
-1.52669 -6.24372 0
0 0 0
-1.90161 -1.09736 0
-1.09736 -6.04701 0
0 0 0
-2.47596 -0.597387 0
-0.597387 -6.30746 0
0 0 0
0.663158 0.31983 0
0.31983 -11.1268 0
0 0 0
0.0443101 0.62568 0
0.62568 -11.6254 0
0 0 0
-0.641266 0.330862 0
0.330862 -11.7374 0
0 0 0
-0.633225 0.0825695 0
0.0825695 -11.8308 0
0 0 0
0.0862992 -0.165719 0
-0.165719 -11.5621 0
0 0 0
0.0850202 -0.562632 0
-0.562632 -10.2595 0
0 0 0
-0.709042 -0.762918 0
-0.762918 -8.95628 0
0 0 0
-0.749897 -1.09493 0
-1.09493 -7.68165 0
0 0 0
-1.13186 -1.40056 0
-1.40056 -6.56764 0
0 0 0
-1.73353 -1.22441 0
-1.22441 -6.23916 0
0 0 0
-2.38455 -0.653206 0
-0.653206 -6.4474 0
0 0 0
0.701781 0.346861 0
0.346861 -10.7546 0
0 0 0
-0.0113348 0.587081 0
0.587081 -11.233 0
0 0 0
-0.677615 0.300694 0
0.300694 -11.3309 0
0 0 0
-0.674012 0.0748936 0
0.0748936 -11.4104 0
0 0 0
0.0512017 -0.166229 0
-0.166229 -11.0745 0
0 0 0
0.0487468 -0.562238 0
-0.562238 -9.78352 0
0 0 0
-0.882772 -0.696417 0
-0.696417 -8.64054 0
0 0 0
-0.928308 -0.941221 0
-0.941221 -7.62521 0
0 0 0
-1.28332 -1.17321 0
-1.17321 -6.75684 0
0 0 0
-1.59558 -1.24103 0
-1.24103 -6.30164 0
0 0 0
-2.10509 -0.837273 0
-0.837273 -6.30492 0
0 0 0
0.727441 0.359698 0
0.359698 -10.467 0
0 0 0
-0.0348514 0.532548 0
0.532548 -10.9691 0
0 0 0
-0.704288 0.268613 0
0.268613 -11.0671 0
0 0 0
-0.704361 0.0667085 0
0.0667085 -11.1355 0
0 0 0
-0.00696469 -0.158259 0
-0.158259 -10.7883 0
0 0 0
-0.0123552 -0.537525 0
-0.537525 -9.54671 0
0 0 0
-1.01524 -0.637107 0
-0.637107 -8.56771 0
0 0 0
-1.06846 -0.782984 0
-0.782984 -7.78112 0
0 0 0
-1.39902 -0.944125 0
-0.944125 -7.06157 0
0 0 0
-1.58401 -1.08127 0
-1.08127 -6.59797 0
0 0 0
-1.91733 -0.874679 0
-0.874679 -6.40526 0
0 0 0
0.723953 0.35145 0
0.35145 -10.3046 0
0 0 0
-0.0447522 0.502338 0
0.502338 -10.8402 0
0 0 0
-0.708171 0.252506 0
0.252506 -10.9406 0
0 0 0
-0.709815 0.0694092 0
0.0694092 -11.0274 0
0 0 0
-0.0695809 -0.134269 0
-0.134269 -10.7214 0
0 0 0
-0.0780749 -0.483994 0
-0.483994 -9.55353 0
0 0 0
-1.02505 -0.631157 0
-0.631157 -8.62082 0
0 0 0
-1.12879 -0.652106 0
-0.652106 -8.0232 0
0 0 0
-1.42815 -0.776098 0
-0.776098 -7.37646 0
0 0 0
-1.6022 -0.89314 0
-0.89314 -6.93149 0
0 0 0
-1.792 -0.816014 0
-0.816014 -6.6169 0
0 0 0
0.696162 0.33217 0
0.33217 -10.2565 0
0 0 0
-0.0317099 0.496024 0
0.496024 -10.8102 0
0 0 0
-0.696875 0.259441 0
0.259441 -10.9182 0
0 0 0
-0.699301 0.0815637 0
0.0815637 -11.0101 0
0 0 0
-0.119757 -0.101529 0
-0.101529 -10.7852 0
0 0 0
-0.130242 -0.422299 0
-0.422299 -9.68135 0
0 0 0
-0.948537 -0.635602 0
-0.635602 -8.73357 0
0 0 0
-1.12951 -0.56325 0
-0.56325 -8.26559 0
0 0 0
-1.40342 -0.671022 0
-0.671022 -7.62398 0
0 0 0
-1.57547 -0.767543 0
-0.767543 -7.17243 0
0 0 0
-1.68044 -0.771899 0
-0.771899 -6.81164 0
0 0 0
0.662707 0.318707 0
0.318707 -10.223 0
0 0 0
0.00308577 0.502402 0
0.502402 -10.7561 0
0 0 0
-0.686534 0.281867 0
0.281867 -10.8824 0
0 0 0
-0.689541 0.0987578 0
0.0987578 -10.9637 0
0 0 0
-0.155675 -0.0675208 0
-0.0675208 -10.8222 0
0 0 0
-0.167449 -0.366151 0
-0.366151 -9.7611 0
0 0 0
-0.803721 -0.653362 0
-0.653362 -8.80648 0
0 0 0
-1.10214 -0.51589 0
-0.51589 -8.39447 0
0 0 0
-1.36466 -0.602257 0
-0.602257 -7.74435 0
0 0 0
-1.54478 -0.701666 0
-0.701666 -7.29821 0
0 0 0
-1.61569 -0.763999 0
-0.763999 -6.89767 0
0 0 0
0.630144 0.305222 0
0.305222 -10.1711 0
0 0 0
0.0332719 0.505999 0
0.505999 -10.6972 0
0 0 0
-0.681227 0.286864 0
0.286864 -10.8093 0
0 0 0
-0.683712 0.109958 0
0.109958 -10.9008 0
0 0 0
-0.180881 -0.0370929 0
-0.0370929 -10.8302 0
0 0 0
-0.193494 -0.330115 0
-0.330115 -10.2464 0
0 0 0
-0.702515 -0.618593 0
-0.618593 -8.85614 0
0 0 0
-1.05193 -0.513168 0
-0.513168 -8.42671 0
0 0 0
-1.33568 -0.55375 0
-0.55375 -7.82469 0
0 0 0
-1.52463 -0.648666 0
-0.648666 -7.35339 0
0 0 0
-1.58325 -0.731799 0
-0.731799 -6.94569 0
0 0 0
