# vtk DataFile Version 3.0
MPM2D particles
ASCII
DATASET POLYDATA
POINTS 121 double
0.0132768 0.0113463 0
0.0397879 0.0106948 0
0.0648453 0.0101649 0
0.088252 0.00975162 0
0.112275 0.0094168 0
0.137767 0.0092491 0
0.163036 0.00906693 0
0.187443 0.00881115 0
0.211541 0.00872238 0
0.231064 0.0110735 0
0.249774 0.0139902 0
0.0149744 0.0339529 0
0.044771 0.0318446 0
0.0690839 0.0303366 0
0.089605 0.0292039 0
0.111814 0.0282561 0
0.138317 0.0277403 0
0.164062 0.0271883 0
0.187325 0.0264295 0
0.209992 0.0259283 0
0.22205 0.030882 0
0.232969 0.0365676 0
0.0161908 0.0521577 0
0.0485058 0.0496259 0
0.0717547 0.0478437 0
0.090499 0.046447 0
0.111521 0.0451991 0
0.138794 0.0444412 0
0.164792 0.0436933 0
0.187041 0.0428257 0
0.208674 0.0421034 0
0.217524 0.0473614 0
0.226059 0.0525612 0
0.0162026 0.0616139 0
0.0485842 0.060044 0
0.072006 0.0589553 0
0.0909157 0.0580794 0
0.112053 0.0572747 0
0.139143 0.0567504 0
0.164731 0.0563199 0
0.185884 0.0561137 0
0.206565 0.0559355 0
0.216482 0.0591874 0
0.225938 0.0626135 0
0.0162126 0.0712527 0
0.0486319 0.0705873 0
0.0722253 0.0701699 0
0.0913535 0.0698386 0
0.112661 0.069536 0
0.139475 0.0693207 0
0.16456 0.0692779 0
0.184591 0.069746 0
0.2042 0.0701996 0
0.215434 0.0712467 0
0.225876 0.0727769 0
0.0161493 0.0847083 0
0.0484535 0.0850973 0
0.0723069 0.0854561 0
0.0917644 0.0857584 0
0.113272 0.0860279 0
0.139697 0.0861848 0
0.164277 0.0865347 0
0.183477 0.0874747 0
0.202306 0.0883664 0
0.214622 0.0876184 0
0.226316 0.0870005 0
0.0158212 0.104637 0
0.047435 0.105719 0
0.0716561 0.106613 0
0.0916511 0.107375 0
0.113421 0.108044 0
0.139333 0.108486 0
0.163697 0.109032 0
0.183247 0.10993 0
0.202513 0.110741 0
0.215571 0.109236 0
0.228256 0.107417 0
0.0153103 0.127429 0
0.0459044 0.128451 0
0.0705135 0.129412 0
0.0911897 0.130296 0
0.113312 0.131085 0
0.138771 0.131649 0
0.163071 0.13222 0
0.183394 0.132837 0
0.203443 0.133374 0
0.217474 0.131683 0
0.23117 0.129742 0
0.0148328 0.149124 0
0.0444783 0.150002 0
0.0693618 0.1509 0
0.0906741 0.151771 0
0.113144 0.152553 0
0.138292 0.153129 0
0.16258 0.153679 0
0.183654 0.154142 0
0.204471 0.154537 0
0.219509 0.152921 0
0.234275 0.151105 0
0.014468 0.169241 0
0.0433896 0.169998 0
0.0684099 0.170808 0
0.090196 0.171627 0
0.112939 0.172363 0
0.137905 0.172909 0
0.162227 0.173432 0
0.183955 0.173874 0
0.205435 0.174252 0
0.221231 0.172807 0
0.236811 0.171226 0
0.0141978 0.188975 0
0.0425828 0.189648 0
0.0676591 0.190388 0
0.0897801 0.191161 0
0.112716 0.191862 0
0.137562 0.19238 0
0.161922 0.192888 0
0.184207 0.193344 0
0.206256 0.193747 0
0.222578 0.192506 0
0.238734 0.191174 0
VERTICES 121 242
1 0
1 1
1 2
1 3
1 4
1 5
1 6
1 7
1 8
1 9
1 10
1 11
1 12
1 13
1 14
1 15
1 16
1 17
1 18
1 19
1 20
1 21
1 22
1 23
1 24
1 25
1 26
1 27
1 28
1 29
1 30
1 31
1 32
1 33
1 34
1 35
1 36
1 37
1 38
1 39
1 40
1 41
1 42
1 43
1 44
1 45
1 46
1 47
1 48
1 49
1 50
1 51
1 52
1 53
1 54
1 55
1 56
1 57
1 58
1 59
1 60
1 61
1 62
1 63
1 64
1 65
1 66
1 67
1 68
1 69
1 70
1 71
1 72
1 73
1 74
1 75
1 76
1 77
1 78
1 79
1 80
1 81
1 82
1 83
1 84
1 85
1 86
1 87
1 88
1 89
1 90
1 91
1 92
1 93
1 94
1 95
1 96
1 97
1 98
1 99
1 100
1 101
1 102
1 103
1 104
1 105
1 106
1 107
1 108
1 109
1 110
1 111
1 112
1 113
1 114
1 115
1 116
1 117
1 118
1 119
1 120
POINT_DATA 121
VECTORS velocity double
3.38242 5.46507 0
1.81816 4.76853 0
0.802172 4.246 0
0.4973 3.92623 0
0.228956 3.76783 0
0.0693585 4.02629 0
-0.0861776 3.98377 0
-0.218678 2.7072 0
-0.585577 1.71289 0
-3.754 4.52017 0
-6.69748 7.12664 0
2.33367 1.51098 0
0.618524 1.2611 0
-0.0904629 1.06566 0
0.033845 0.92339 0
0.090886 0.842709 0
0.00708295 0.949864 0
-0.0303758 0.914091 0
0.117799 0.354382 0
0.161143 -0.157892 0
-0.87073 0.801027 0
-1.58753 1.48244 0
1.65401 -1.09426 0
-0.180055 -1.06889 0
-0.6292 -1.10637 0
-0.258854 -1.15623 0
0.00833582 -1.20273 0
-0.00937144 -1.23322 0
0.0442467 -1.25589 0
0.367898 -1.27926 0
0.632742 -1.31551 0
0.484864 -1.21419 0
0.313307 -1.14751 0
1.73566 -1.26864 0
0.0339624 -1.22506 0
-0.430282 -1.24183 0
-0.151586 -1.27588 0
0.0563631 -1.31598 0
0.0623676 -1.36792 0
0.100901 -1.38611 0
0.272882 -1.30302 0
0.389646 -1.22439 0
-0.00582289 -1.24193 0
-0.40066 -1.27202 0
1.81583 -1.45213 0
0.256497 -1.3754 0
-0.215562 -1.3535 0
-0.0357672 -1.35508 0
0.101518 -1.37125 0
0.129215 -1.42343 0
0.146969 -1.4268 0
0.151558 -1.26994 0
0.0992997 -1.12603 0
-0.525711 -1.25899 0
-1.11841 -1.4067 0
1.8114 -1.5593 0
0.405945 -1.47842 0
-0.0726124 -1.43051 0
0.027793 -1.40156 0
0.10791 -1.38993 0
0.143747 -1.42222 0
0.148842 -1.41207 0
0.0793786 -1.2608 0
-0.0376634 -1.12368 0
-0.758545 -1.2861 0
-1.47149 -1.47452 0
1.61418 -1.54355 0
0.401651 -1.48012 0
-0.0479455 -1.42792 0
0.023053 -1.38681 0
0.0774737 -1.36255 0
0.0941889 -1.37848 0
0.0924029 -1.36639 0
0.0513303 -1.2568 0
-0.0307947 -1.15978 0
-0.690991 -1.32467 0
-1.37802 -1.51227 0
1.31339 -1.54259 0
0.351523 -1.49537 0
-0.0356987 -1.44753 0
0.0178272 -1.40383 0
0.0547793 -1.37191 0
0.0546219 -1.36776 0
0.0452794 -1.34834 0
0.0174011 -1.27075 0
-0.0467382 -1.20387 0
-0.608979 -1.36382 0
-1.18646 -1.5409 0
1.0346 -1.60285 0
0.314319 -1.56994 0
-0.00411675 -1.52936 0
0.0219402 -1.48766 0
0.03794 -1.45379 0
0.0327915 -1.43889 0
0.0207018 -1.41557 0
-0.0107826 -1.35768 0
-0.0726872 -1.30883 0
-0.564211 -1.43897 0
-1.06189 -1.5816 0
0.811682 -1.83704 0
0.276655 -1.80822 0
0.0174273 -1.7718 0
0.0152798 -1.7325 0
0.0110182 -1.69905 0
0.00339723 -1.67951 0
-0.00743361 -1.65523 0
-0.0282178 -1.61056 0
-0.0760355 -1.57265 0
-0.536167 -1.65817 0
-0.999181 -1.75148 0
0.604115 -2.27015 0
0.218246 -2.24383 0
0.0137059 -2.21581 0
-0.0123998 -2.1821 0
-0.0346378 -2.14649 0
-0.0469191 -2.12353 0
-0.0543049 -2.09803 0
-0.035073 -2.06327 0
-0.0395833 -2.02344 0
-0.485293 -2.05402 0
-0.930267 -2.09115 0
SCALARS mass double 1
LOOKUP_TABLE default
2.67769
2.67769
2.67769
2.67769
2.67769
2.67769
2.67769
2.67769
2.67769
2.67769
2.67769
2.67769
2.67769
2.67769
2.67769
2.67769
2.67769
2.67769
2.67769
2.67769
2.67769
2.67769
2.67769
2.67769
2.67769
2.67769
2.67769
2.67769
2.67769
2.67769
2.67769
2.67769
2.67769
2.67769
2.67769
2.67769
2.67769
2.67769
2.67769
2.67769
2.67769
2.67769
2.67769
2.67769
2.67769
2.67769
2.67769
2.67769
2.67769
2.67769
2.67769
2.67769
2.67769
2.67769
2.67769
2.67769
2.67769
2.67769
2.67769
2.67769
2.67769
2.67769
2.67769
2.67769
2.67769
2.67769
2.67769
2.67769
2.67769
2.67769
2.67769
2.67769
2.67769
2.67769
2.67769
2.67769
2.67769
2.67769
2.67769
2.67769
2.67769
2.67769
2.67769
2.67769
2.67769
2.67769
2.67769
2.67769
2.67769
2.67769
2.67769
2.67769
2.67769
2.67769
2.67769
2.67769
2.67769
2.67769
2.67769
2.67769
2.67769
2.67769
2.67769
2.67769
2.67769
2.67769
2.67769
2.67769
2.67769
2.67769
2.67769
2.67769
2.67769
2.67769
2.67769
2.67769
2.67769
2.67769
2.67769
2.67769
2.67769
SCALARS volume double 1
LOOKUP_TABLE default
0.000717175
0.00067531
0.000566383
0.000543795
0.000571454
0.000561213
0.00052656
0.00051197
0.000414423
0.000517123
0.000640648
0.000806986
0.00075444
0.000494065
0.000476711
0.000594461
0.000583407
0.000501331
0.000488087
0.000277309
0.000298997
0.000338552
0.000370516
0.000424957
0.00026087
0.00027076
0.000404655
0.000407283
0.000335916
0.000354168
0.000199902
0.000130332
0.000103753
0.000365951
0.000399973
0.000246912
0.000259086
0.000388396
0.000398169
0.000319263
0.000336617
0.00022879
0.000134231
0.000112357
0.000414859
0.000452415
0.000281731
0.000295315
0.000432665
0.000443345
0.000340208
0.000357431
0.000265816
0.00016688
0.000139346
0.000634735
0.000679928
0.000423081
0.000435961
0.000616485
0.000628044
0.00046307
0.000468425
0.000345111
0.000267963
0.000239569
0.000864633
0.000864116
0.000548824
0.000552721
0.000720807
0.000725353
0.000548025
0.000541766
0.000402286
0.000347093
0.000344382
0.000814582
0.000811842
0.000547065
0.000548832
0.000677794
0.000680631
0.000541174
0.000536397
0.000409882
0.000362442
0.000363346
0.000728253
0.000724825
0.000516951
0.000516487
0.000605849
0.000606003
0.000504437
0.000504063
0.000396796
0.000360012
0.000364676
0.000682356
0.000679266
0.000508694
0.000507413
0.000580234
0.000579532
0.000503354
0.000502962
0.000403868
0.000367478
0.000372895
0.000661362
0.000660853
0.000506771
0.000508702
0.000573143
0.000306559
0.000500178
0.000506737
0.000412205
0.000379401
0.000383004
TENSORS stress double
4979.65 1814.63 0
1814.63 9081.76 0
0 0 0
4985.03 8213.74 0
8213.74 8898.81 0
0 0 0
4789.58 8925.12 0
8925.12 8748.36 0
0 0 0
4800.89 2229.87 0
2229.87 8630.17 0
0 0 0
4951.72 -1381.79 0
-1381.79 8526.42 0
0 0 0
4953.85 805.731 0
805.731 8462.86 0
0 0 0
4835.04 1710.96 0
1710.96 8419.33 0
0 0 0
4841.91 -1019.09 0
-1019.09 8451.93 0
0 0 0
4571.58 1342.25 0
1342.25 8520.65 0
0 0 0
4440.68 -20218.8 0
-20218.8 9253.82 0
0 0 0
4279.43 -41456.7 0
-41456.7 9936.2 0
0 0 0
4786.28 -715.18 0
-715.18 8264.95 0
0 0 0
4803.68 6162.32 0
6162.32 8106.96 0
0 0 0
4219.66 6306.89 0
6306.89 8004.59 0
0 0 0
4250.69 69.748 0
69.748 7927.41 0
0 0 0
4701.72 -2172.3 0
-2172.3 7853.65 0
0 0 0
4708.3 66.2811 0
66.2811 7799.35 0
0 0 0
4352.12 277.208 0
277.208 7771.18 0
0 0 0
4372.5 -2367.9 0
-2367.9 7820.88 0
0 0 0
4386 10016.2 0
10016.2 7860.76 0
0 0 0
3296.39 -2527.9 0
-2527.9 8177.04 0
0 0 0
2978.39 -18164.8 0
-18164.8 8442.04 0
0 0 0
4630.54 -5041.04 0
-5041.04 7608.26 0
0 0 0
4651.13 -3679.71 0
-3679.71 7444.46 0
0 0 0
3724.88 -2431.47 0
-2431.47 7364.53 0
0 0 0
3762.93 -2838.03 0
-2838.03 7306.1 0
0 0 0
4476.9 -967.839 0
-967.839 7248.27 0
0 0 0
4486.51 -577.451 0
-577.451 7200.14 0
0 0 0
3912.28 -1906.29 0
-1906.29 7180.65 0
0 0 0
3935.64 -4902.74 0
-4902.74 7233.43 0
0 0 0
3955.12 5421.52 0
5421.52 7280.38 0
0 0 0
2341.24 21855.6 0
21855.6 7400.49 0
0 0 0
2068.9 25626 0
25626 6559.88 0
0 0 0
4489.93 -2976.45 0
-2976.45 5972.35 0
0 0 0
4511.81 -2558.19 0
-2558.19 6344.78 0
0 0 0
3477.3 -1536.77 0
-1536.77 6570.92 0
0 0 0
3492.73 -996.774 0
-996.774 6745.74 0
0 0 0
4277.81 692.132 0
692.132 6910.41 0
0 0 0
4287.91 -155.056 0
-155.056 7037.5 0
0 0 0
3567.67 -1209.5 0
-1209.5 7132.39 0
0 0 0
3573.86 -4917.69 0
-4917.69 7152.76 0
0 0 0
3579.25 -5054.36 0
-5054.36 7171.84 0
0 0 0
2063.29 13339.9 0
13339.9 6770.08 0
0 0 0
2060.61 16182.7 0
16182.7 6202.88 0
0 0 0
4345.88 -861.996 0
-861.996 5625.1 0
0 0 0
4354.76 -426.928 0
-426.928 5966.44 0
0 0 0
3268.45 78.0886 0
78.0886 6170.47 0
0 0 0
3274.04 703.349 0
703.349 6328.06 0
0 0 0
4025.61 1365.12 0
1365.12 6474.54 0
0 0 0
4029.65 518.33 0
518.33 6590.02 0
0 0 0
3198.6 774.583 0
774.583 6670.02 0
0 0 0
3185.62 -2592.7 0
-2592.7 6665.73 0
0 0 0
3173.05 -7303.18 0
-7303.18 6661.69 0
0 0 0
2053.39 3209.3 0
3209.3 6385.34 0
0 0 0
2052.24 7212.58 0
7212.58 5839.12 0
0 0 0
4144.8 883.873 0
883.873 5139.58 0
0 0 0
4138.62 538.681 0
538.681 5443.36 0
0 0 0
2983.77 516.677 0
516.677 5622.99 0
0 0 0
2978.01 1531.19 0
1531.19 5761.25 0
0 0 0
3686.42 1352.21 0
1352.21 5887.49 0
0 0 0
3683.17 338.319 0
338.319 5988.8 0
0 0 0
2707.1 1341.36 0
1341.36 6054.23 0
0 0 0
2680.72 685.813 0
685.813 6032.68 0
0 0 0
2655.72 -2230.37 0
-2230.37 6012.64 0
0 0 0
2039.96 -2062.42 0
-2062.42 5834.5 0
0 0 0
2040.51 1906.53 0
1906.53 5305.15 0
0 0 0
3841.78 1020.41 0
1020.41 5936.88 0
0 0 0
3819.18 -881.785 0
-881.785 5899.45 0
0 0 0
2600.96 -786.474 0
-786.474 5890.82 0
0 0 0
2590.26 804.593 0
804.593 5888.32 0
0 0 0
3236.1 711.147 0
711.147 5892.38 0
0 0 0
3227.66 -297.152 0
-297.152 5911.93 0
0 0 0
2150.41 509.634 0
509.634 5911.63 0
0 0 0
2139.98 2316.55 0
2316.55 5858.26 0
0 0 0
2130.58 1418.69 0
1418.69 5808.29 0
0 0 0
1955.93 -401.35 0
-401.35 5852.33 0
0 0 0
1980.05 2531.66 0
2531.66 5914.58 0
0 0 0
3349.66 954.449 0
954.449 5128.1 0
0 0 0
3328.36 -960.5 0
-960.5 5092.81 0
0 0 0
2271.15 -663.479 0
-663.479 5080.66 0
0 0 0
2258.77 912.093 0
912.093 5074.83 0
0 0 0
2776.17 845.133 0
845.133 5075.25 0
0 0 0
2765.47 5.1281 0
5.1281 5090.18 0
0 0 0
1876.85 15.9656 0
15.9656 5090.55 0
0 0 0
1869.69 1851.93 0
1851.93 5046.15 0
0 0 0
1863.46 878.561 0
878.561 5004.86 0
0 0 0
1652.35 -74.2923 0
-74.2923 5056.09 0
0 0 0
1678.09 3146.07 0
3146.07 5122.48 0
0 0 0
2881.26 864.257 0
864.257 4358.31 0
0 0 0
2863.03 -886.52 0
-886.52 4328.07 0
0 0 0
1960.29 -545.044 0
-545.044 4316.96 0
0 0 0
1948.18 827.49 0
827.49 4312.53 0
0 0 0
2347.66 772.221 0
772.221 4313.86 0
0 0 0
2336.84 269.79 0
269.79 4328.17 0
0 0 0
1623.7 135.453 0
135.453 4330.6 0
0 0 0
1618.3 1888.61 0
1888.61 4290.66 0
0 0 0
1613.69 732.322 0
732.322 4253.41 0
0 0 0
1365.13 337.497 0
337.497 4302.72 0
0 0 0
1389.12 3276.56 0
3276.56 4364.45 0
0 0 0
2464.7 906.797 0
906.797 3410.88 0
0 0 0
2450.01 -379.619 0
-379.619 3367.65 0
0 0 0
1642.98 -25.2945 0
-25.2945 3325.93 0
0 0 0
1630.05 901.353 0
901.353 3286.18 0
0 0 0
1981.6 679.799 0
679.799 3251.45 0
0 0 0
1972.33 331.849 0
331.849 3228.13 0
0 0 0
1351.48 225.425 0
225.425 3209.63 0
0 0 0
1345.35 1742.04 0
1742.04 3210.22 0
0 0 0
1340.14 442.5 0
442.5 3212.92 0
0 0 0
1047.93 -343.964 0
-343.964 3302.94 0
0 0 0
1073.37 1528.81 0
1528.81 3408.55 0
0 0 0
2065.64 877.126 0
877.126 2709.16 0
0 0 0
2052.56 -167.667 0
-167.667 2669.09 0
0 0 0
1320.19 30.9813 0
30.9813 2629.7 0
0 0 0
1307.98 776.887 0
776.887 2591.34 0
0 0 0
1628.21 530.531 0
530.531 2557.62 0
0 0 0
1619.41 -804.067 0
-804.067 2535.23 0
0 0 0
1077.07 138.961 0
138.961 2517.01 0
0 0 0
1070.8 1659.13 0
1659.13 2517.63 0
0 0 0
1065.27 483.518 0
483.518 2519.95 0
0 0 0
723.525 -232.659 0
-232.659 2606.61 0
0 0 0
745.022 1133.38 0
1133.38 2705.57 0
0 0 0
TENSORS strain double
0.060319 0.0181463 0
0.0181463 -0.0966632 0
0 0 0
0.0592484 0.0821374 0
0.0821374 -0.1556 0
0 0 0
-0.0654697 0.0892512 0
0.0892512 -0.206182 0
0 0 0
-0.0646167 0.0222987 0
0.0222987 -0.247466 0
0 0 0
0.0195387 -0.0138179 0
-0.0138179 -0.282176 0
0 0 0
0.0194185 0.00805731 0
0.00805731 -0.300009 0
0 0 0
-0.0241316 0.0171096 0
0.0171096 -0.319769 0
0 0 0
-0.0236114 -0.0101909 0
-0.0101909 -0.348282 0
0 0 0
-0.223481 0.0134225 0
0.0134225 -0.35842 0
0 0 0
-0.241448 -0.202188 0
-0.202188 -0.120997 0
0 0 0
-0.261908 -0.414567 0
-0.414567 0.112762 0
0 0 0
0.180853 -0.0071518 0
-0.0071518 -0.0991825 0
0 0 0
0.177447 0.0616232 0
0.0616232 -0.163065 0
0 0 0
-0.196161 0.0630689 0
0.0630689 -0.211352 0
0 0 0
-0.193766 0.00069748 0
0.00069748 -0.249198 0
0 0 0
0.0586188 -0.021723 0
-0.021723 -0.281977 0
0 0 0
0.0582516 0.000662811 0
0.000662811 -0.300257 0
0 0 0
-0.0723714 0.00277208 0
0.00277208 -0.320225 0
0 0 0
-0.0708259 -0.023679 0
-0.023679 -0.348432 0
0 0 0
-0.611842 0.100162 0
0.100162 -0.3675 0
0 0 0
-0.711376 -0.025279 0
-0.025279 -0.193682 0
0 0 0
-0.75737 -0.181648 0
-0.181648 -0.0251078 0
0 0 0
0.259212 -0.0504104 0
-0.0504104 -0.951883 0
0 0 0
0.257832 -0.0367971 0
-0.0367971 -0.814916 0
0 0 0
-0.286264 -0.0243147 0
-0.0243147 -0.753045 0
0 0 0
-0.285059 -0.0283803 0
-0.0283803 -0.717727 0
0 0 0
0.0874002 -0.00967839 0
-0.00967839 -0.693331 0
0 0 0
0.0870802 -0.00577451 0
-0.00577451 -0.686614 0
0 0 0
-0.11783 -0.0190629 0
-0.0190629 -0.672168 0
0 0 0
-0.11571 -0.0490274 0
-0.0490274 -0.621995 0
0 0 0
-0.712964 0.0542152 0
0.0542152 -0.588366 0
0 0 0
-1.02893 0.218556 0
0.218556 -0.690775 0
0 0 0
-1.02975 0.25626 0
0.25626 -0.911202 0
0 0 0
0.259958 -0.0297645 0
-0.0297645 -0.964984 0
0 0 0
0.259467 -0.0255819 0
-0.0255819 -0.876704 0
0 0 0
-0.277808 -0.0153677 0
-0.0153677 -0.815485 0
0 0 0
-0.277813 -0.00996774 0
-0.00996774 -0.768251 0
0 0 0
0.080484 0.00692132 0
0.00692132 -0.727048 0
0 0 0
0.0806204 -0.00155056 0
-0.00155056 -0.702595 0
0 0 0
-0.167672 -0.012095 0
-0.012095 -0.672493 0
0 0 0
-0.166922 -0.0491769 0
-0.0491769 -0.62099 0
0 0 0
-0.593811 -0.0505436 0
-0.0505436 -0.575297 0
0 0 0
-0.954888 0.133399 0
0.133399 -0.735812 0
0 0 0
-0.947259 0.161827 0
0.161827 -0.916234 0
0 0 0
0.260593 -0.00861996 0
-0.00861996 -0.840387 0
0 0 0
0.26047 -0.00426928 0
-0.00426928 -0.754687 0
0 0 0
-0.267007 0.000780886 0
0.000780886 -0.695052 0
0 0 0
-0.266977 0.00703349 0
0.00703349 -0.648882 0
0 0 0
0.070113 0.0136512 0
0.0136512 -0.608908 0
0 0 0
0.0701517 0.0051833 0
0.0051833 -0.584823 0
0 0 0
-0.219803 0.00774583 0
0.00774583 -0.556363 0
0 0 0
-0.220935 -0.025927 0
-0.025927 -0.506515 0
0 0 0
-0.555492 -0.0730318 0
-0.0730318 -0.465503 0
0 0 0
-0.864589 0.032093 0
0.032093 -0.611998 0
0 0 0
-0.863285 0.0721258 0
0.0721258 -0.788515 0
0 0 0
0.256694 0.00883873 0
0.00883873 -0.413094 0
0 0 0
0.256807 0.00538681 0
0.00538681 -0.345172 0
0 0 0
-0.250462 0.00516677 0
0.00516677 -0.309396 0
0 0 0
-0.250368 0.0153119 0
0.0153119 -0.280039 0
0 0 0
0.055445 0.0135221 0
0.0135221 -0.242037 0
0 0 0
0.0553688 0.00338319 0
0.00338319 -0.223551 0
0 0 0
-0.261464 0.0134136 0
0.0134136 -0.208994 0
0 0 0
-0.26256 0.00685813 0
0.00685813 -0.196649 0
0 0 0
-0.567676 -0.0223037 0
-0.0223037 -0.195442 0
0 0 0
-0.755701 -0.0206242 0
-0.0206242 -0.256266 0
0 0 0
-0.758891 0.0190653 0
0.0190653 -0.362094 0
0 0 0
0.236102 0.0102041 0
0.0102041 -0.0853565 0
0 0 0
0.235497 -0.00881785 0
-0.00881785 -0.085353 0
0 0 0
-0.222643 -0.00786474 0
-0.00786474 -0.0805554 0
0 0 0
-0.222203 0.00804593 0
0.00804593 -0.0739601 0
0 0 0
0.0360318 0.00711147 0
0.00711147 -0.0674082 0
0 0 0
0.0358887 -0.00297152 0
-0.00297152 -0.0609819 0
0 0 0
-0.245279 0.00509634 0
0.00509634 -0.0590921 0
0 0 0
-0.24436 0.0231655 0
0.0231655 -0.0714202 0
0 0 0
-0.528179 0.0141869 0
0.0141869 -0.0836502 0
0 0 0
-0.667541 -0.0040135 0
-0.0040135 -0.0903878 0
0 0 0
-0.669685 0.0253166 0
0.0253166 -0.0959899 0
0 0 0
0.203156 0.00954449 0
0.00954449 -0.112157 0
0 0 0
0.202578 -0.009605 0
-0.009605 -0.114953 0
0 0 0
-0.189191 -0.00663479 0
-0.00663479 -0.117206 0
0 0 0
-0.188712 0.00912093 0
0.00912093 -0.114483 0
0 0 0
0.0184405 0.00845133 0
0.00845133 -0.11128 0
0 0 0
0.0182741 5.1281e-05 0
5.1281e-05 -0.106944 0
0 0 0
-0.206724 0.000159656 0
0.000159656 -0.110252 0
0 0 0
-0.206046 0.0185193 0
0.0185193 -0.119733 0
0 0 0
-0.464372 0.00878561 0
0.00878561 -0.128912 0
0 0 0
-0.591017 -0.000742923 0
-0.000742923 -0.124008 0
0 0 0
-0.593322 0.0314607 0
0.0314607 -0.119239 0
0 0 0
0.171374 0.00864257 0
0.00864257 -0.192465 0
0 0 0
0.17092 -0.0088652 0
-0.0088652 -0.196728 0
0 0 0
-0.158942 -0.00545044 0
-0.00545044 -0.20369 0
0 0 0
-0.158587 0.0082749 0
0.0082749 -0.204938 0
0 0 0
0.00610548 0.00772221 0
0.00772221 -0.21082 0
0 0 0
0.00602334 0.0026979 0
0.0026979 -0.210485 0
0 0 0
-0.170681 0.00135453 0
0.00135453 -0.215991 0
0 0 0
-0.170158 0.0188861 0
0.0188861 -0.217266 0
0 0 0
-0.40538 0.00732322 0
0.00732322 -0.220042 0
0 0 0
-0.517507 0.00337497 0
0.00337497 -0.204014 0
0 0 0
-0.519216 0.0327656 0
0.0327656 -0.189609 0
0 0 0
0.146404 0.00906797 0
0.00906797 -0.232551 0
0 0 0
0.146073 -0.00379619 0
-0.00379619 -0.236751 0
0 0 0
-0.137041 -0.000252945 0
-0.000252945 -0.241594 0
0 0 0
-0.136792 0.00901353 0
0.00901353 -0.244345 0
0 0 0
-0.00115556 0.00679799 0
0.00679799 -0.246615 0
0 0 0
-0.00120336 0.00331849 0
0.00331849 -0.247773 0
0 0 0
-0.140205 0.00225425 0
0.00225425 -0.248691 0
0 0 0
-0.139793 0.0174204 0
0.0174204 -0.249896 0
0 0 0
-0.358281 0.004425 0
0.004425 -0.249587 0
0 0 0
-0.46621 -0.00343964 0
-0.00343964 -0.23494 0
0 0 0
-0.467241 0.0152881 0
0.0152881 -0.21946 0
0 0 0
0.127505 0.00877126 0
0.00877126 -0.244824 0
0 0 0
0.127258 -0.00167667 0
-0.00167667 -0.245356 0
0 0 0
-0.121822 0.000309813 0
0.000309813 -0.260422 0
0 0 0
-0.121637 0.00776887 0
0.00776887 -0.256896 0
0 0 0
-0.00598314 0.00530531 0
0.00530531 -0.253999 0
0 0 0
-0.00600035 -0.00804067 0
-0.00804067 -0.715455 0
0 0 0
-0.1149 0.00138961 0
0.00138961 -0.279804 0
0 0 0
-0.114504 0.0165913 0
0.0165913 -0.267569 0
0 0 0
-0.332417 0.00483518 0
0.00483518 -0.255094 0
0 0 0
-0.43193 -0.00232659 0
-0.00232659 -0.237521 0
0 0 0
-0.432362 0.0113338 0
0.0113338 -0.227729 0
0 0 0
