# vtk DataFile Version 3.0
MPM2D particles
ASCII
DATASET POLYDATA
POINTS 121 double
0.0142324 1.22761e-14 0
0.0423199 3.1884e-15 0
0.06703 7.56459e-16 0
0.0890636 1.78602e-16 0
0.112229 7.98015e-16 0
0.137809 7.6537e-12 0
0.162773 2.43815e-08 0
0.185281 3.75134e-06 0
0.205656 0.000410403 0
0.198177 0.000688968 0
0.188266 0.000138349 0
0.0184116 3.04999e-14 0
0.053622 5.61256e-15 0
0.0745411 1.40919e-15 0
0.0917055 4.53995e-16 0
0.11167 1.95159e-15 0
0.13845 2.87888e-11 0
0.163023 7.87001e-08 0
0.181346 4.90084e-06 0
0.197089 0.000193771 0
0.19623 0.000301062 0
0.191314 0.000163535 0
0.0222033 3.96092e-14 0
0.0620323 5.15428e-15 0
0.0792995 1.64779e-15 0
0.0934841 6.45564e-16 0
0.111286 2.71246e-15 0
0.139014 5.62955e-11 0
0.162861 1.23939e-07 0
0.178045 3.91486e-06 0
0.190959 8.0586e-05 0
0.19183 0.000130112 0
0.189423 0.000102804 0
0.0233027 4.40196e-14 0
0.064352 5.37869e-15 0
0.0809086 1.83413e-15 0
0.0944245 7.59346e-16 0
0.111786 4.13303e-15 0
0.13942 8.30618e-11 0
0.162219 1.39901e-07 0
0.175109 2.701e-06 0
0.186045 3.54153e-05 0
0.188368 7.18171e-05 0
0.187066 6.81664e-05 0
0.0242227 4.79315e-14 0
0.0661815 5.60429e-15 0
0.0822544 2.00586e-15 0
0.0953262 8.66877e-16 0
0.112471 6.50904e-15 0
0.139649 1.11559e-10 0
0.161243 1.41803e-07 0
0.172046 1.73627e-06 0
0.18117 1.50474e-05 0
0.184887 3.89928e-05 0
0.184863 4.66981e-05 0
0.0251707 5.32612e-14 0
0.0679609 6.01483e-15 0
0.0835984 2.26005e-15 0
0.096258 1.02083e-15 0
0.113145 1.05919e-14 0
0.139349 1.29725e-10 0
0.159547 1.279e-07 0
0.168365 1.00687e-06 0
0.175824 5.94693e-06 0
0.180207 1.70712e-05 0
0.181939 2.84457e-05 0
0.0258205 6.18884e-14 0
0.0690924 6.9351e-15 0
0.0844083 2.71525e-15 0
0.0967536 1.27522e-15 0
0.113147 1.39307e-14 0
0.13775 9.90277e-11 0
0.156979 8.60219e-08 0
0.164523 5.77605e-07 0
0.171014 2.70936e-06 0
0.175264 7.38201e-06 0
0.178297 1.56292e-05 0
0.0257307 7.48599e-14 0
0.0689623 8.61806e-15 0
0.0842123 3.44037e-15 0
0.0964794 1.64576e-15 0
0.112289 1.3109e-14 0
0.135231 5.32328e-11 0
0.154138 4.16776e-08 0
0.161378 3.75606e-07 0
0.167596 1.63551e-06 0
0.171737 4.31557e-06 0
0.175258 9.96127e-06 0
0.0250289 9.15457e-14 0
0.0678911 1.10571e-14 0
0.0833001 4.41425e-15 0
0.0956659 2.11555e-15 0
0.110963 9.9437e-15 0
0.132641 2.6478e-11 0
0.151484 2.0745e-08 0
0.159073 2.81039e-07 0
0.165363 1.23316e-06 0
0.169589 3.30935e-06 0
0.173305 7.93419e-06 0
0.0242096 1.10043e-13 0
0.0666046 1.39996e-14 0
0.0822037 5.55849e-15 0
0.0946605 2.66609e-15 0
0.109492 6.89594e-15 0
0.130291 1.37571e-11 0
0.148992 1.05493e-08 0
0.157261 2.05144e-07 0
0.163735 1.02955e-06 0
0.168078 2.83473e-06 0
0.171912 6.96917e-06 0
0.0234378 1.30092e-13 0
0.0653158 1.74599e-14 0
0.081057 6.90607e-15 0
0.093527 3.32572e-15 0
0.107887 4.46094e-15 0
0.128053 7.26996e-12 0
0.146531 5.31156e-09 0
0.155567 1.3158e-07 0
0.162293 8.81942e-07 0
0.166729 2.47631e-06 0
0.170595 6.13325e-06 0
VERTICES 121 242
1 0
1 1
1 2
1 3
1 4
1 5
1 6
1 7
1 8
1 9
1 10
1 11
1 12
1 13
1 14
1 15
1 16
1 17
1 18
1 19
1 20
1 21
1 22
1 23
1 24
1 25
1 26
1 27
1 28
1 29
1 30
1 31
1 32
1 33
1 34
1 35
1 36
1 37
1 38
1 39
1 40
1 41
1 42
1 43
1 44
1 45
1 46
1 47
1 48
1 49
1 50
1 51
1 52
1 53
1 54
1 55
1 56
1 57
1 58
1 59
1 60
1 61
1 62
1 63
1 64
1 65
1 66
1 67
1 68
1 69
1 70
1 71
1 72
1 73
1 74
1 75
1 76
1 77
1 78
1 79
1 80
1 81
1 82
1 83
1 84
1 85
1 86
1 87
1 88
1 89
1 90
1 91
1 92
1 93
1 94
1 95
1 96
1 97
1 98
1 99
1 100
1 101
1 102
1 103
1 104
1 105
1 106
1 107
1 108
1 109
1 110
1 111
1 112
1 113
1 114
1 115
1 116
1 117
1 118
1 119
1 120
POINT_DATA 121
VECTORS velocity double
4.24564 6.0054 0
1.97566 3.93419 0
0.828961 2.55706 0
0.736645 1.79569 0
0.607846 1.34298 0
0.409902 1.72221 0
0.136138 1.69736 0
-0.370107 0.0845047 0
0.0357957 -1.23561 0
-3.85221 5.45182 0
-8.18079 9.09795 0
2.78623 0.28743 0
0.139847 -0.902461 0
-0.256878 -1.42536 0
0.186529 -1.81678 0
0.470274 -2.0829 0
0.354714 -1.89358 0
0.213496 -1.92545 0
0.129283 -2.63464 0
0.63286 -3.38075 0
-0.0511931 -1.8604 0
-0.660504 -1.026 0
1.75499 -3.6675 0
-0.957323 -4.06993 0
-0.930906 -4.23472 0
-0.171984 -4.41772 0
0.387836 -4.57697 0
0.345197 -4.56639 0
0.319092 -4.5824 0
0.507381 -4.60133 0
0.984066 -4.70734 0
1.1932 -4.64233 0
1.4138 -4.68063 0
1.73801 -4.30831 0
-0.867713 -4.58243 0
-0.815401 -4.71256 0
-0.101698 -4.85833 0
0.434081 -4.99354 0
0.421976 -5.04821 0
0.406662 -5.06734 0
0.506097 -4.89051 0
0.738543 -4.76765 0
0.64197 -4.85055 0
0.664202 -5.02157 0
1.77733 -4.76243 0
-0.684068 -4.95981 0
-0.629456 -5.04692 0
-0.00172503 -5.14929 0
0.464424 -5.25084 0
0.485312 -5.33171 0
0.474001 -5.35174 0
0.439261 -5.07194 0
0.449939 -4.84213 0
-0.00189558 -4.97717 0
-0.213249 -5.25766 0
1.75367 -5.11952 0
-0.55162 -5.29031 0
-0.504339 -5.33622 0
0.0464283 -5.38831 0
0.444557 -5.44317 0
0.493992 -5.51056 0
0.497936 -5.54293 0
0.396549 -5.27134 0
0.299142 -5.0465 0
-0.344825 -5.16645 0
-0.797788 -5.4394 0
1.5717 -5.3678 0
-0.548225 -5.55246 0
-0.498467 -5.56286 0
0.0127066 -5.56893 0
0.3787 -5.58318 0
0.441104 -5.62852 0
0.467237 -5.67473 0
0.365067 -5.47411 0
0.249379 -5.28651 0
-0.405413 -5.39446 0
-1.0202 -5.62172 0
1.25605 -5.64118 0
-0.590686 -5.8306 0
-0.523812 -5.81583 0
-0.0464909 -5.78983 0
0.308592 -5.77539 0
0.383249 -5.79669 0
0.418955 -5.80299 0
0.295156 -5.70171 0
0.146502 -5.53187 0
-0.460587 -5.62084 0
-1.09911 -5.81131 0
0.869753 -6.07731 0
-0.62606 -6.23196 0
-0.539821 -6.19977 0
-0.118698 -6.15163 0
0.220142 -6.11413 0
0.308202 -6.11291 0
0.361258 -6.08682 0
0.214482 -6.05172 0
0.0381578 -5.88693 0
-0.525773 -5.92706 0
-1.1423 -6.05121 0
0.48042 -6.84444 0
-0.678046 -6.92006 0
-0.578826 -6.86058 0
-0.228664 -6.78595 0
0.086047 -6.71736 0
0.188824 -6.6849 0
0.269702 -6.62245 0
0.131355 -6.61811 0
-0.0458987 -6.47112 0
-0.590762 -6.44278 0
-1.20005 -6.46688 0
0.0392674 -8.13622 0
-0.795393 -8.10799 0
-0.683272 -8.0189 0
-0.420234 -7.91188 0
-0.142503 -7.77314 0
-0.0193604 -7.69921 0
0.114671 -7.55234 0
0.0147597 -7.55042 0
-0.130401 -7.45284 0
-0.657361 -7.32622 0
-1.26207 -7.21521 0
SCALARS mass double 1
LOOKUP_TABLE default
2.67769
2.67769
2.67769
2.67769
2.67769
2.67769
2.67769
2.67769
2.67769
2.67769
2.67769
2.67769
2.67769
2.67769
2.67769
2.67769
2.67769
2.67769
2.67769
2.67769
2.67769
2.67769
2.67769
2.67769
2.67769
2.67769
2.67769
2.67769
2.67769
2.67769
2.67769
2.67769
2.67769
2.67769
2.67769
2.67769
2.67769
2.67769
2.67769
2.67769
2.67769
2.67769
2.67769
2.67769
2.67769
2.67769
2.67769
2.67769
2.67769
2.67769
2.67769
2.67769
2.67769
2.67769
2.67769
2.67769
2.67769
2.67769
2.67769
2.67769
2.67769
2.67769
2.67769
2.67769
2.67769
2.67769
2.67769
2.67769
2.67769
2.67769
2.67769
2.67769
2.67769
2.67769
2.67769
2.67769
2.67769
2.67769
2.67769
2.67769
2.67769
2.67769
2.67769
2.67769
2.67769
2.67769
2.67769
2.67769
2.67769
2.67769
2.67769
2.67769
2.67769
2.67769
2.67769
2.67769
2.67769
2.67769
2.67769
2.67769
2.67769
2.67769
2.67769
2.67769
2.67769
2.67769
2.67769
2.67769
2.67769
2.67769
2.67769
2.67769
2.67769
2.67769
2.67769
2.67769
2.67769
2.67769
2.67769
2.67769
2.67769
SCALARS volume double 1
LOOKUP_TABLE default
8.33384e-16
2.1454e-16
3.97172e-17
9.44178e-18
4.86101e-17
4.66017e-13
1.32728e-09
2.02959e-07
1.60629e-05
7.72183e-06
7.16287e-07
8.96257e-16
1.53689e-16
1.92459e-17
6.28033e-18
4.15266e-17
6.1175e-13
1.19404e-09
7.3274e-08
1.63199e-06
8.18649e-07
2.33325e-07
3.89153e-16
3.92765e-17
6.81486e-18
2.89385e-18
2.47226e-17
5.24515e-13
6.9567e-10
2.30797e-08
2.63344e-07
1.30521e-07
4.07441e-08
3.31381e-16
2.85949e-17
5.39579e-18
2.45797e-18
2.9037e-17
6.10416e-13
5.42937e-10
1.07196e-08
9.17153e-08
6.18666e-08
2.24112e-08
3.5842e-16
2.74238e-17
5.51768e-18
2.64396e-18
4.47173e-17
8.06793e-13
4.77036e-10
5.84077e-09
3.51309e-08
4.06351e-08
1.65376e-08
5.28332e-16
3.51455e-17
7.49619e-18
3.70125e-18
8.74473e-17
1.14603e-12
4.50674e-10
3.36513e-09
1.34457e-08
2.57253e-08
1.83869e-08
7.12371e-16
4.22531e-17
9.14702e-18
4.62188e-18
1.10161e-16
8.39734e-13
2.6625e-10
1.59385e-09
5.03467e-09
1.09179e-08
1.33128e-08
8.39572e-16
4.79532e-17
1.04586e-17
5.19909e-18
8.4228e-17
3.60965e-13
1.07554e-10
8.13313e-10
2.38918e-09
5.0811e-09
8.61605e-09
8.75569e-16
5.2927e-17
1.13344e-17
5.57417e-18
4.91994e-17
1.35816e-13
4.7203e-11
4.85983e-10
1.4716e-09
3.1891e-09
6.33344e-09
8.96884e-16
6.18799e-17
1.25485e-17
6.21129e-18
2.85581e-17
5.84471e-14
2.41705e-11
3.16883e-10
1.12244e-09
2.43258e-09
5.28777e-09
9.35023e-16
7.23279e-17
1.43992e-17
7.05133e-18
1.6498e-17
1.4861e-14
1.21716e-11
1.95557e-10
9.01773e-10
2.01013e-09
4.47853e-09
TENSORS stress double
5076.67 50639.5 0
50639.5 318.751 0
0 0 0
5076.67 156716 0
156716 -5.97656 0
0 0 0
5076.67 158344 0
158344 -606.525 0
0 0 0
5076.67 94145.5 0
94145.5 -1343.1 0
0 0 0
5076.67 10227.7 0
10227.7 -524.508 0
0 0 0
5076.67 -129666 0
-129666 4470.02 0
0 0 0
5076.68 -250446 0
-250446 8568.75 0
0 0 0
5076.7 -309468 0
-309468 9385.31 0
0 0 0
5079.9 -351215 0
-351215 10110.2 0
0 0 0
5082.1 -307347 0
-307347 9828.97 0
0 0 0
5077.77 -270103 0
-270103 9488.86 0
0 0 0
5076.67 59275.5 0
59275.5 270.434 0
0 0 0
5076.67 186012 0
186012 -158.304 0
0 0 0
5076.67 135283 0
135283 -857.618 0
0 0 0
5076.67 83840.3 0
83840.3 -1431.42 0
0 0 0
5076.67 12274.2 0
12274.2 -633.658 0
0 0 0
5076.67 -134237 0
-134237 4595.06 0
0 0 0
5076.68 -248805 0
-248805 8577.81 0
0 0 0
5076.71 -297856 0
-297856 9242.48 0
0 0 0
5078.2 -326925 0
-326925 9807.02 0
0 0 0
5079.05 -270025 0
-270025 9772.05 0
0 0 0
5077.97 -241950 0
-241950 9598.54 0
0 0 0
5076.67 65309.6 0
65309.6 226.597 0
0 0 0
5076.67 156582 0
156582 -439.457 0
0 0 0
5076.67 113184 0
113184 -1016.69 0
0 0 0
5076.67 75109.4 0
75109.4 -1490.87 0
0 0 0
5076.67 15374.3 0
15374.3 -708.755 0
0 0 0
5076.67 -138262 0
-138262 4705.22 0
0 0 0
5076.68 -247231 0
-247231 8571.94 0
0 0 0
5076.71 -289070 0
-289070 9122.76 0
0 0 0
5077.31 -313022 0
-313022 9588.62 0
0 0 0
5077.7 -258125 0
-258125 9618.46 0
0 0 0
5077.49 -210965 0
-210965 9532.1 0
0 0 0
5076.67 69554.9 0
69554.9 213.887 0
0 0 0
5076.67 149899 0
149899 -517.003 0
0 0 0
5076.67 108805 0
108805 -1070.48 0
0 0 0
5076.67 73938.8 0
73938.8 -1522.31 0
0 0 0
5076.67 14489.7 0
14489.7 -610.989 0
0 0 0
5076.67 -140502 0
-140502 4784.58 0
0 0 0
5076.68 -242930 0
-242930 8548.66 0
0 0 0
5076.7 -279774 0
-279774 9016.26 0
0 0 0
5076.96 -308969 0
-308969 9411.91 0
0 0 0
5077.24 -265337 0
-265337 9494.89 0
0 0 0
5077.21 -215561 0
-215561 9447.78 0
0 0 0
5076.67 74089.5 0
74089.5 203.251 0
0 0 0
5076.67 145644 0
145644 -578.162 0
0 0 0
5076.67 106182 0
106182 -1115.47 0
0 0 0
5076.67 73235.6 0
73235.6 -1552.46 0
0 0 0
5076.67 12001.3 0
12001.3 -477.306 0
0 0 0
5076.67 -141697 0
-141697 4829.34 0
0 0 0
5076.68 -237620 0
-237620 8513.22 0
0 0 0
5076.69 -268742 0
-268742 8905.17 0
0 0 0
5076.79 -297416 0
-297416 9235.76 0
0 0 0
5076.98 -278888 0
-278888 9369.77 0
0 0 0
5077.04 -221685 0
-221685 9368.62 0
0 0 0
5076.67 78440.5 0
78440.5 192.291 0
0 0 0
5076.67 140679 0
140679 -637.647 0
0 0 0
5076.67 102330 0
102330 -1160.4 0
0 0 0
5076.67 71889.4 0
71889.4 -1583.61 0
0 0 0
5076.67 9124 0
9124 -345.743 0
0 0 0
5076.67 -140396 0
-140396 4770.66 0
0 0 0
5076.68 -231289 0
-231289 8451.68 0
0 0 0
5076.68 -254076 0
-254076 8771.61 0
0 0 0
5076.72 -275777 0
-275777 9042.09 0
0 0 0
5076.81 -281595 0
-281595 9200.73 0
0 0 0
5076.9 -240769 0
-240769 9263.18 0
0 0 0
5076.67 80853.7 0
80853.7 184.778 0
0 0 0
5076.67 134524 0
134524 -675.47 0
0 0 0
5076.67 98619.4 0
98619.4 -1187.48 0
0 0 0
5076.67 70763.1 0
70763.1 -1600.17 0
0 0 0
5076.67 9911.56 0
9911.56 -345.296 0
0 0 0
5076.67 -131218 0
-131218 4458.5 0
0 0 0
5076.67 -221827 0
-221827 8213.03 0
0 0 0
5076.68 -238985 0
-238985 8632.22 0
0 0 0
5076.7 -253818 0
-253818 8867.69 0
0 0 0
5076.73 -266648 0
-266648 9021.72 0
0 0 0
5076.8 -245303 0
-245303 9131.46 0
0 0 0
5076.67 79872.7 0
79872.7 185.817 0
0 0 0
5076.67 131583 0
131583 -671.123 0
0 0 0
5076.67 97130.4 0
97130.4 -1180.92 0
0 0 0
5076.67 71203.4 0
71203.4 -1591.01 0
0 0 0
5076.67 15911 0
15911 -512.872 0
0 0 0
5076.67 -115295 0
-115295 3966.58 0
0 0 0
5076.67 -209311 0
-209311 7658.2 0
0 0 0
5076.68 -226495 0
-226495 8518.14 0
0 0 0
5076.69 -237677 0
-237677 8743.68 0
0 0 0
5076.71 -248538 0
-248538 8893.86 0
0 0 0
5076.75 -240063 0
-240063 9021.4 0
0 0 0
5076.67 76724.8 0
76724.8 193.929 0
0 0 0
5076.67 131617 0
131617 -635.313 0
0 0 0
5076.67 98390.4 0
98390.4 -1150.43 0
0 0 0
5076.67 72924 0
72924 -1563.81 0
0 0 0
5076.67 24747.1 0
24747.1 -771.761 0
0 0 0
5076.67 -98262.4 0
-98262.4 3460.93 0
0 0 0
5076.67 -198624 0
-198624 7140.09 0
0 0 0
5076.68 -218046 0
-218046 8434.5 0
0 0 0
5076.68 -227596 0
-227596 8662.7 0
0 0 0
5076.7 -236394 0
-236394 8815.94 0
0 0 0
5076.74 -236034 0
-236034 8950.6 0
0 0 0
5076.67 73954.2 0
73954.2 203.402 0
0 0 0
5076.67 133054 0
133054 -592.306 0
0 0 0
5076.67 101314 0
101314 -1113.78 0
0 0 0
5076.67 75267.7 0
75267.7 -1530.2 0
0 0 0
5076.67 34317.9 0
34317.9 -1058.95 0
0 0 0
5076.67 -82791.3 0
-82791.3 3002.17 0
0 0 0
5076.67 -189947 0
-189947 6653.54 0
0 0 0
5076.66 -210869 0
-210869 8268.03 0
0 0 0
5076.68 -221029 0
-221029 8603.61 0
0 0 0
5076.7 -230094 0
-230094 8761.14 0
0 0 0
5076.73 -235510 0
-235510 8900.1 0
0 0 0
5076.67 71263.8 0
71263.8 212.326 0
0 0 0
5076.67 134214 0
134214 -549.221 0
0 0 0
5076.67 102526 0
102526 -1075.44 0
0 0 0
5076.67 77091.6 0
77091.6 -1492.31 0
0 0 0
5076.67 44093.8 0
44093.8 -1372.34 0
0 0 0
5076.67 -69798 0
-69798 2565.12 0
0 0 0
5076.67 -176145 0
-176145 6172.93 0
0 0 0
5076.67 -203491 0
-203491 7937.33 0
0 0 0
5076.68 -216452 0
-216452 8551.31 0
0 0 0
5076.69 -225050 0
-225050 8712.22 0
0 0 0
5076.72 -232541 0
-232541 8852.36 0
0 0 0
TENSORS strain double
0.129853 0.506395 0
0.506395 -26.6336 0
0 0 0
0.120967 1.56716 0
1.56716 -27.8902 0
0 0 0
-0.123147 1.58344 0
1.58344 -29.2175 0
0 0 0
-0.118155 0.941455 0
0.941455 -30.5358 0
0 0 0
0.0234034 0.102277 0
0.102277 -29.1847 0
0 0 0
0.0229906 -1.29666 0
-1.29666 -20.6672 0
0 0 0
-0.0868224 -2.50446 0
-2.50446 -12.9137 0
0 0 0
-0.0930326 -3.09468 0
-3.09468 -8.00997 0
0 0 0
-0.41311 -3.51215 0
-3.51215 -3.37528 0
0 0 0
-1.64627 -3.07347 0
-3.07347 -2.86409 0
0 0 0
-2.40426 -2.70103 0
-2.70103 -4.42766 0
0 0 0
0.387777 0.592755 0
0.592755 -26.809 0
0 0 0
0.319544 1.86012 0
1.86012 -28.3838 0
0 0 0
-0.367003 1.35283 0
1.35283 -29.6528 0
0 0 0
-0.353705 0.838403 0
0.838403 -30.6887 0
0 0 0
0.070227 0.122742 0
0.122742 -29.3708 0
0 0 0
0.068942 -1.34237 0
-1.34237 -20.4529 0
0 0 0
-0.261313 -2.48805 0
-2.48805 -12.8431 0
0 0 0
-0.276066 -2.97856 0
-2.97856 -8.82497 0
0 0 0
-0.844897 -3.26925 0
-3.26925 -5.20971 0
0 0 0
-1.94469 -2.70025 0
-2.70025 -4.77632 0
0 0 0
-2.56886 -2.4195 0
-2.4195 -5.37703 0
0 0 0
0.575677 0.653096 0
0.653096 -27.8176 0
0 0 0
0.14753 1.56582 0
1.56582 -29.52 0
0 0 0
-0.554406 1.13184 0
1.13184 -30.4671 0
0 0 0
-0.53901 0.751094 0
0.751094 -31.259 0
0 0 0
0.105981 0.153743 0
0.153743 -29.9102 0
0 0 0
0.104174 -1.38262 0
-1.38262 -20.6503 0
0 0 0
-0.422395 -2.47231 0
-2.47231 -13.2147 0
0 0 0
-0.444241 -2.8907 0
-2.8907 -9.79025 0
0 0 0
-1.07668 -3.13022 0
-3.13022 -6.77521 0
0 0 0
-2.0089 -2.58125 0
-2.58125 -6.52269 0
0 0 0
-2.5812 -2.10965 0
-2.10965 -7.07839 0
0 0 0
0.624235 0.695549 0
0.695549 -28.023 0
0 0 0
0.0908804 1.49899 0
1.49899 -29.7654 0
0 0 0
-0.604422 1.08805 0
1.08805 -30.6382 0
0 0 0
-0.592859 0.739388 0
0.739388 -31.3601 0
0 0 0
0.102789 0.144897 0
0.144897 -29.7622 0
0 0 0
0.101482 -1.40502 0
-1.40502 -20.5032 0
0 0 0
-0.560619 -2.4293 0
-2.4293 -13.3167 0
0 0 0
-0.592443 -2.79774 0
-2.79774 -10.3899 0
0 0 0
-1.06167 -3.08969 0
-3.08969 -7.82622 0
0 0 0
-1.90243 -2.65337 0
-2.65337 -7.36453 0
0 0 0
-2.47696 -2.15561 0
-2.15561 -7.76843 0
0 0 0
0.663164 0.740895 0
0.740895 -27.9813 0
0 0 0
0.0443083 1.45644 0
1.45644 -29.7493 0
0 0 0
-0.641268 1.06182 0
1.06182 -30.5708 0
0 0 0
-0.633226 0.732356 0
0.732356 -31.2413 0
0 0 0
0.0862955 0.120013 0
0.120013 -29.337 0
0 0 0
0.0849985 -1.41697 0
-1.41697 -20.2129 0
0 0 0
-0.709093 -2.3762 0
-2.3762 -13.289 0
0 0 0
-0.750095 -2.68742 0
-2.68742 -10.82 0
0 0 0
-1.13242 -2.97416 0
-2.97416 -8.69334 0
0 0 0
-1.73437 -2.78888 0
-2.78888 -7.94769 0
0 0 0
-2.38556 -2.21685 0
-2.21685 -8.1561 0
0 0 0
0.701787 0.784405 0
0.784405 -27.6315 0
0 0 0
-0.011337 1.40679 0
1.40679 -29.4355 0
0 0 0
-0.677616 1.0233 0
1.0233 -30.2236 0
0 0 0
-0.674014 0.718894 0
0.718894 -30.862 0
0 0 0
0.0511967 0.09124 0
0.09124 -28.6555 0
0 0 0
0.0487194 -1.40396 0
-1.40396 -19.8234 0
0 0 0
-0.882828 -2.31289 0
-2.31289 -13.1606 0
0 0 0
-0.92848 -2.54076 0
-2.54076 -11.1706 0
0 0 0
-1.28375 -2.75777 0
-2.75777 -9.4759 0
0 0 0
-1.59631 -2.81595 0
-2.81595 -8.53258 0
0 0 0
-2.10605 -2.40769 0
-2.40769 -8.34087 0
0 0 0
0.727448 0.808537 0
0.808537 -27.3592 0
0 0 0
-0.034854 1.34524 0
1.34524 -29.2215 0
0 0 0
-0.70429 0.986194 0
0.986194 -29.9956 0
0 0 0
-0.704363 0.707631 0
0.707631 -30.609 0
0 0 0
-0.00697121 0.0991156 0
0.0991156 -28.3686 0
0 0 0
-0.0123881 -1.31218 0
-1.31218 -20.0467 0
0 0 0
-1.01539 -2.21827 0
-2.21827 -13.5336 0
0 0 0
-1.06861 -2.38985 0
-2.38985 -11.7511 0
0 0 0
-1.39936 -2.53818 0
-2.53818 -10.3132 0
0 0 0
-1.58459 -2.66648 0
-2.66648 -9.378 0
0 0 0
-1.91818 -2.45303 0
-2.45303 -8.8471 0
0 0 0
0.723962 0.798727 0
0.798727 -27.1947 0
0 0 0
-0.0447554 1.31583 0
1.31583 -29.0868 0
0 0 0
-0.708174 0.971304 0
0.971304 -29.8605 0
0 0 0
-0.709818 0.712034 0
0.712034 -30.4888 0
0 0 0
-0.0695889 0.15911 0
0.15911 -28.5487 0
0 0 0
-0.0781112 -1.15295 0
-1.15295 -20.7785 0
0 0 0
-1.0252 -2.09311 0
-2.09311 -14.4046 0
0 0 0
-1.12893 -2.26495 0
-2.26495 -12.3407 0
0 0 0
-1.42846 -2.37677 0
-2.37677 -11.0062 0
0 0 0
-1.60271 -2.48538 0
-2.48538 -10.1023 0
0 0 0
-1.79279 -2.40063 0
-2.40063 -9.39617 0
0 0 0
0.696173 0.767248 0
0.767248 -27.13 0
0 0 0
-0.0317138 1.31617 0
1.31617 -29.0095 0
0 0 0
-0.696878 0.983904 0
0.983904 -29.7978 0
0 0 0
-0.699304 0.72924 0
0.72924 -30.4356 0
0 0 0
-0.119766 0.247471 0
0.247471 -28.9941 0
0 0 0
-0.13028 -0.982624 0
-0.982624 -21.6517 0
0 0 0
-0.948691 -1.98624 0
-1.98624 -15.281 0
0 0 0
-1.12964 -2.18046 0
-2.18046 -12.8377 0
0 0 0
-1.40371 -2.27596 0
-2.27596 -11.5005 0
0 0 0
-1.57596 -2.36394 0
-2.36394 -10.5809 0
0 0 0
-1.68122 -2.36034 0
-2.36034 -9.80727 0
0 0 0
0.662719 0.739542 0
0.739542 -27.0771 0
0 0 0
0.00308114 1.33054 0
1.33054 -28.8987 0
0 0 0
-0.686538 1.01314 0
1.01314 -29.7136 0
0 0 0
-0.689545 0.752677 0
0.752677 -30.3448 0
0 0 0
-0.155684 0.343179 0
0.343179 -29.4544 0
0 0 0
-0.167488 -0.827913 0
-0.827913 -22.4076 0
0 0 0
-0.803875 -1.89947 0
-1.89947 -16.071 0
0 0 0
-1.10248 -2.10869 0
-2.10869 -13.279 0
0 0 0
-1.36495 -2.21029 0
-2.21029 -11.8009 0
0 0 0
-1.54527 -2.30094 0
-2.30094 -10.8737 0
0 0 0
-1.61649 -2.3551 0
-2.3551 -10.0474 0
0 0 0
0.630158 0.712638 0
0.712638 -27.007 0
0 0 0
0.0332664 1.34214 0
1.34214 -28.7829 0
0 0 0
-0.681232 1.02526 0
1.02526 -29.5898 0
0 0 0
-0.683716 0.770916 0
0.770916 -30.2318 0
0 0 0
-0.180891 0.440938 0
0.440938 -29.9243 0
0 0 0
-0.193533 -0.69798 0
-0.69798 -23.5371 0
0 0 0
-0.702666 -1.76145 0
-1.76145 -16.8291 0
0 0 0
-1.05226 -2.03491 0
-2.03491 -13.7988 0
0 0 0
-1.33596 -2.16452 0
-2.16452 -12.0405 0
0 0 0
-1.52514 -2.2505 0
-2.2505 -11.078 0
0 0 0
-1.58407 -2.32541 0
-2.32541 -10.241 0
0 0 0
