# vtk DataFile Version 3.0
MPM2D particles
ASCII
DATASET POLYDATA
POINTS 121 double
0.0141466 0.00161702 0
0.0421133 0.00136686 0
0.0668789 0.00120642 0
0.0890247 0.00110264 0
0.112277 0.00103005 0
0.137926 0.00101986 0
0.163005 0.00107408 0
0.185975 0.00139258 0
0.20841 0.00184584 0
0.209846 0.00999758 0
0.201876 0.0192951 0
0.0180871 0.00478522 0
0.052901 0.00394394 0
0.0742044 0.00355957 0
0.0916237 0.00328955 0
0.111808 0.0030905 0
0.138808 0.00306025 0
0.163742 0.00326678 0
0.183136 0.00408279 0
0.201736 0.00510355 0
0.204056 0.00836631 0
0.201035 0.0128735 0
0.0216139 0.00728336 0
0.0611391 0.00605148 0
0.0788796 0.00557277 0
0.0933909 0.00521829 0
0.111502 0.00494339 0
0.139598 0.00490475 0
0.164029 0.00529522 0
0.180598 0.00647566 0
0.196344 0.00787462 0
0.199127 0.0098867 0
0.198086 0.01276 0
0.0225857 0.00847489 0
0.0633471 0.00727554 0
0.0804367 0.00684626 0
0.0943324 0.0065161 0
0.112069 0.00626943 0
0.140176 0.00627111 0
0.163698 0.00682831 0
0.17807 0.0082833 0
0.191615 0.00997165 0
0.195758 0.0116576 0
0.1958 0.0142079 0
0.0233822 0.00958961 0
0.0650734 0.00847819 0
0.0817375 0.00813194 0
0.0952433 0.00785981 0
0.112832 0.00768618 0
0.140592 0.00776751 0
0.163023 0.00849551 0
0.175324 0.0101712 0
0.186777 0.0120718 0
0.192324 0.0134983 0
0.193728 0.0157237 0
0.0241653 0.0110855 0
0.0667071 0.0101442 0
0.0830188 0.00994783 0
0.0961911 0.00979543 0
0.113622 0.00977459 0
0.140562 0.0100311 0
0.161709 0.0109634 0
0.172021 0.0128641 0
0.18157 0.0149608 0
0.187718 0.0162394 0
0.191058 0.0180174 0
0.0245954 0.0132326 0
0.0675959 0.0125323 0
0.0837145 0.0125617 0
0.0966922 0.0126088 0
0.113776 0.0128403 0
0.139318 0.0134248 0
0.159588 0.0145361 0
0.16867 0.016664 0
0.177201 0.0189582 0
0.183148 0.0202256 0
0.187945 0.0216022 0
0.024267 0.0159393 0
0.067098 0.0154454 0
0.0833254 0.0157263 0
0.0963833 0.0160074 0
0.113066 0.0165292 0
0.137162 0.0175365 0
0.157301 0.018768 0
0.166087 0.0211007 0
0.17449 0.0235803 0
0.180436 0.0249343 0
0.185903 0.0261394 0
0.0233464 0.0189186 0
0.0655514 0.0185506 0
0.0821444 0.0190686 0
0.0954827 0.0195782 0
0.111855 0.0203684 0
0.134893 0.0218059 0
0.155234 0.0232773 0
0.164373 0.0257097 0
0.173134 0.0283831 0
0.179434 0.029876 0
0.185391 0.0310778 0
0.0223282 0.0219644 0
0.0637278 0.0216981 0
0.0807299 0.0224447 0
0.0943458 0.0231844 0
0.110466 0.0242272 0
0.132826 0.0260958 0
0.153308 0.027988 0
0.163157 0.0303968 0
0.172451 0.0332415 0
0.17919 0.0348455 0
0.185606 0.036059 0
0.0213634 0.0251291 0
0.0618363 0.0249957 0
0.0792115 0.0259783 0
0.0930309 0.0269658 0
0.108911 0.0282758 0
0.130849 0.0306175 0
0.15141 0.0330715 0
0.16211 0.0354084 0
0.172001 0.0383797 0
0.179167 0.0400394 0
0.18595 0.041263 0
VERTICES 121 242
1 0
1 1
1 2
1 3
1 4
1 5
1 6
1 7
1 8
1 9
1 10
1 11
1 12
1 13
1 14
1 15
1 16
1 17
1 18
1 19
1 20
1 21
1 22
1 23
1 24
1 25
1 26
1 27
1 28
1 29
1 30
1 31
1 32
1 33
1 34
1 35
1 36
1 37
1 38
1 39
1 40
1 41
1 42
1 43
1 44
1 45
1 46
1 47
1 48
1 49
1 50
1 51
1 52
1 53
1 54
1 55
1 56
1 57
1 58
1 59
1 60
1 61
1 62
1 63
1 64
1 65
1 66
1 67
1 68
1 69
1 70
1 71
1 72
1 73
1 74
1 75
1 76
1 77
1 78
1 79
1 80
1 81
1 82
1 83
1 84
1 85
1 86
1 87
1 88
1 89
1 90
1 91
1 92
1 93
1 94
1 95
1 96
1 97
1 98
1 99
1 100
1 101
1 102
1 103
1 104
1 105
1 106
1 107
1 108
1 109
1 110
1 111
1 112
1 113
1 114
1 115
1 116
1 117
1 118
1 119
1 120
POINT_DATA 121
VECTORS velocity double
5.11965 8.82676 0
2.96302 6.89976 0
1.51446 5.62416 0
0.897331 4.93678 0
0.373685 4.57 0
0.140098 5.06438 0
-0.132144 5.00655 0
-0.528142 2.82685 0
-1.19703 1.01974 0
-6.49492 7.98731 0
-9.19226 11.8999 0
3.71254 3.16867 0
1.17442 2.14483 0
0.265013 1.68634 0
0.291001 1.34891 0
0.237286 1.15403 0
0.0828809 1.46102 0
-0.0572913 1.38584 0
-0.079053 0.221423 0
-0.201196 -0.895352 0
-1.36021 0.680032 0
-1.62871 1.65759 0
2.72447 -0.73808 0
-0.108716 -0.976787 0
-0.513446 -1.0917 0
-0.105398 -1.23261 0
0.155772 -1.33055 0
0.0714706 -1.20076 0
0.0436986 -1.25919 0
0.272914 -1.65068 0
0.445933 -2.05908 0
0.425548 -1.99661 0
0.687701 -1.95869 0
2.72513 -1.35972 0
-0.0660906 -1.47136 0
-0.431026 -1.55458 0
-0.0549912 -1.66116 0
0.201529 -1.73699 0
0.146815 -1.67454 0
0.1254 -1.72217 0
0.257403 -1.85832 0
0.340123 -1.99001 0
0.0637811 -2.11418 0
0.0583583 -2.237 0
2.7805 -1.79659 0
0.0816595 -1.83279 0
-0.272283 -1.87492 0
0.0257028 -1.94 0
0.231088 -1.98291 0
0.208886 -1.95021 0
0.185521 -1.97587 0
0.177646 -1.95545 0
0.119017 -1.93614 0
-0.464507 -2.14882 0
-0.742244 -2.41332 0
2.77719 -2.13204 0
0.182305 -2.14375 0
-0.172515 -2.14634 0
0.0546012 -2.16286 0
0.210515 -2.16002 0
0.216719 -2.11992 0
0.198688 -2.11575 0
0.11893 -2.05258 0
-0.00731462 -1.99723 0
-0.725541 -2.21284 0
-1.25996 -2.51408 0
2.62151 -2.35268 0
0.175216 -2.38234 0
-0.175463 -2.35081 0
0.013983 -2.32274 0
0.14514 -2.28184 0
0.164751 -2.22852 0
0.153966 -2.19628 0
0.0698419 -2.14571 0
-0.0596216 -2.10276 0
-0.754855 -2.30348 0
-1.43751 -2.59192 0
2.33527 -2.59519 0
0.159094 -2.63595 0
-0.181077 -2.58023 0
-0.0309601 -2.52101 0
0.0771077 -2.45542 0
0.109611 -2.38678 0
0.104328 -2.32076 0
-0.0148031 -2.27948 0
-0.173314 -2.24562 0
-0.81079 -2.42351 0
-1.50647 -2.6866 0
1.97891 -2.99958 0
0.177871 -3.01323 0
-0.156468 -2.94083 0
-0.0733415 -2.86013 0
-0.00824813 -2.77601 0
0.0379795 -2.69155 0
0.0477406 -2.59674 0
-0.106296 -2.55635 0
-0.293065 -2.52665 0
-0.887344 -2.6554 0
-1.56083 -2.85492 0
1.61978 -3.73424 0
0.188207 -3.67682 0
-0.148052 -3.578 0
-0.146749 -3.47157 0
-0.138756 -3.36099 0
-0.0778925 -3.25014 0
-0.0424295 -3.12206 0
-0.199461 -3.07778 0
-0.387458 -3.05146 0
-0.965459 -3.11198 0
-1.6353 -3.21185 0
1.21036 -4.99154 0
0.136704 -4.8383 0
-0.201003 -4.71103 0
-0.296001 -4.57317 0
-0.363175 -4.39724 0
-0.282341 -4.24857 0
-0.195655 -4.03891 0
-0.322248 -3.99866 0
-0.481311 -3.97756 0
-1.04467 -3.9394 0
-1.71317 -3.90236 0
SCALARS mass double 1
LOOKUP_TABLE default
2.67769
2.67769
2.67769
2.67769
2.67769
2.67769
2.67769
2.67769
2.67769
2.67769
2.67769
2.67769
2.67769
2.67769
2.67769
2.67769
2.67769
2.67769
2.67769
2.67769
2.67769
2.67769
2.67769
2.67769
2.67769
2.67769
2.67769
2.67769
2.67769
2.67769
2.67769
2.67769
2.67769
2.67769
2.67769
2.67769
2.67769
2.67769
2.67769
2.67769
2.67769
2.67769
2.67769
2.67769
2.67769
2.67769
2.67769
2.67769
2.67769
2.67769
2.67769
2.67769
2.67769
2.67769
2.67769
2.67769
2.67769
2.67769
2.67769
2.67769
2.67769
2.67769
2.67769
2.67769
2.67769
2.67769
2.67769
2.67769
2.67769
2.67769
2.67769
2.67769
2.67769
2.67769
2.67769
2.67769
2.67769
2.67769
2.67769
2.67769
2.67769
2.67769
2.67769
2.67769
2.67769
2.67769
2.67769
2.67769
2.67769
2.67769
2.67769
2.67769
2.67769
2.67769
2.67769
2.67769
2.67769
2.67769
2.67769
2.67769
2.67769
2.67769
2.67769
2.67769
2.67769
2.67769
2.67769
2.67769
2.67769
2.67769
2.67769
2.67769
2.67769
2.67769
2.67769
2.67769
2.67769
2.67769
2.67769
2.67769
2.67769
SCALARS volume double 1
LOOKUP_TABLE default
0.000109071
9.14852e-05
6.36723e-05
5.84581e-05
6.29102e-05
6.22709e-05
5.8861e-05
7.62101e-05
7.36907e-05
0.000125646
0.000120287
0.000138008
0.000109853
4.93532e-05
4.61646e-05
6.62809e-05
6.55772e-05
5.05818e-05
6.30218e-05
4.53138e-05
2.4853e-05
2.08476e-05
6.95576e-05
4.73263e-05
2.3594e-05
2.39238e-05
4.56382e-05
4.63182e-05
3.07189e-05
4.00767e-05
2.77054e-05
1.09161e-05
5.70177e-06
6.17328e-05
3.9907e-05
2.07295e-05
2.16483e-05
4.47714e-05
4.68877e-05
2.76455e-05
3.49048e-05
2.81464e-05
1.11692e-05
5.30978e-06
6.90892e-05
4.30182e-05
2.3147e-05
2.4754e-05
5.38625e-05
5.73885e-05
3.01121e-05
3.6732e-05
3.10431e-05
1.57984e-05
6.38401e-06
0.000105342
6.18992e-05
3.44117e-05
3.69969e-05
8.27719e-05
9.10975e-05
4.12843e-05
4.6862e-05
3.78026e-05
2.78649e-05
1.35259e-05
0.00014471
8.05484e-05
4.46143e-05
4.81925e-05
0.000104984
0.000118108
4.84708e-05
5.11901e-05
4.02344e-05
3.47945e-05
2.18181e-05
0.000168066
9.1794e-05
5.10686e-05
5.40622e-05
0.000110862
0.000124739
5.11054e-05
5.21299e-05
4.03967e-05
3.51072e-05
2.75795e-05
0.000168153
9.61174e-05
5.30617e-05
5.5955e-05
0.000106235
0.000118666
5.65887e-05
5.20412e-05
4.08735e-05
3.55201e-05
3.12882e-05
0.000164393
0.000105236
5.56974e-05
5.94934e-05
0.000106805
0.00011896
6.94049e-05
5.60623e-05
4.50353e-05
3.80994e-05
3.57277e-05
0.000163817
0.000115248
6.04498e-05
6.39863e-05
0.000112472
6.79548e-05
8.31676e-05
6.30686e-05
5.03007e-05
4.28296e-05
4.0796e-05
TENSORS stress double
5077.84 7640.92 0
7640.92 5324.52 0
0 0 0
5077.66 28552.5 0
28552.5 5156.46 0
0 0 0
5028.08 28435.6 0
28435.6 5050.25 0
0 0 0
5032.23 9600.07 0
9600.07 4983.51 0
0 0 0
5045.08 -2597.01 0
-2597.01 4980.39 0
0 0 0
5045.45 -1032.51 0
-1032.51 5148.74 0
0 0 0
5024.97 -2663.01 0
-2663.01 5475.26 0
0 0 0
5010.26 -22811.5 0
-22811.5 6351.59 0
0 0 0
4989.43 -29232.1 0
-29232.1 7202.79 0
0 0 0
4604.44 -2771.62 0
-2771.62 6969.19 0
0 0 0
4162.44 11281 0
11281 6327.76 0
0 0 0
5080.11 3914.33 0
3914.33 5182.08 0
0 0 0
4917.89 28535.2 0
28535.2 4993.12 0
0 0 0
4933.27 20913.1 0
20913.1 4939.39 0
0 0 0
4944.07 4829.99 0
4829.99 4893.83 0
0 0 0
4981.88 -3833.54 0
-3833.54 4900.64 0
0 0 0
4982.98 -2248.43 0
-2248.43 5078.76 0
0 0 0
4919.48 -1607 0
-1607 5423.36 0
0 0 0
4881.74 -19456.4 0
-19456.4 6144.57 0
0 0 0
4834.82 -21750.4 0
-21750.4 6828.46 0
0 0 0
4680.58 31829.1 0
31829.1 6802.18 0
0 0 0
4466.47 48606.3 0
48606.3 6524 0
0 0 0
5081.91 -1294.51 0
-1294.51 5067.08 0
0 0 0
4832.98 16486.3 0
16486.3 4888.49 0
0 0 0
4852.12 8690.08 0
8690.08 4849.57 0
0 0 0
4866.3 -149.547 0
-149.547 4816.38 0
0 0 0
4925.05 -3032.84 0
-3032.84 4829.68 0
0 0 0
4926.52 -3322.64 0
-3322.64 5015.47 0
0 0 0
4821.9 -1258.07 0
-1258.07 5360.14 0
0 0 0
4767.19 -17618.9 0
-17618.9 5959.61 0
0 0 0
4702.7 -20148.5 0
-20148.5 6520.28 0
0 0 0
4607.68 35095.5 0
35095.5 6556.44 0
0 0 0
4471.14 76396.5 0
76396.5 6413.19 0
0 0 0
5082.77 -261.596 0
-261.596 5016.73 0
0 0 0
4783.66 14617.4 0
14617.4 4835.94 0
0 0 0
4800.79 7675.23 0
7675.23 4797.22 0
0 0 0
4813.97 677.938 0
677.938 4765.06 0
0 0 0
4884.38 -1271.79 0
-1271.79 4784.05 0
0 0 0
4884.7 -3440.14 0
-3440.14 4968.54 0
0 0 0
4748.09 1225.95 0
1225.95 5291.07 0
0 0 0
4680.39 -14291 0
-14291 5795.95 0
0 0 0
4602.22 -25760.4 0
-25760.4 6261.32 0
0 0 0
4522.93 20867 0
20867 6362 0
0 0 0
4401.81 66915.9 0
66915.9 6272.28 0
0 0 0
5083.57 1597.31 0
1597.31 4970.34 0
0 0 0
4735.21 14167.8 0
14167.8 4785.71 0
0 0 0
4748.97 7876.2 0
7876.2 4745.23 0
0 0 0
4759.79 1896.87 0
1896.87 4712.12 0
0 0 0
4840.94 -105.486 0
-105.486 4736.34 0
0 0 0
4838.9 -3503.93 0
-3503.93 4915.73 0
0 0 0
4667.76 4088.58 0
4088.58 5203.74 0
0 0 0
4589.54 -9442.93 0
-9442.93 5620.67 0
0 0 0
4501.18 -23678.8 0
-23678.8 5997.51 0
0 0 0
4434.62 318.558 0
318.558 6162.25 0
0 0 0
4329.2 56175.6 0
56175.6 6137.12 0
0 0 0
5084.64 3226.44 0
3226.44 4909.9 0
0 0 0
4668.09 12920.1 0
12920.1 4718.55 0
0 0 0
4675.77 6867.65 0
6867.65 4673.56 0
0 0 0
4681.74 2564.39 0
2564.39 4637.02 0
0 0 0
4776.9 549.357 0
549.357 4663.82 0
0 0 0
4769.61 -4072.61 0
-4072.61 4831.51 0
0 0 0
4548.7 6388.09 0
6388.09 5062.09 0
0 0 0
4459.75 -2365.95 0
-2365.95 5394.06 0
0 0 0
4361.97 -12614.5 0
-12614.5 5690.2 0
0 0 0
4302.82 -11817.5 0
-11817.5 5883.99 0
0 0 0
4219.26 30866.7 0
30866.7 5950.49 0
0 0 0
5086.19 3886.27 0
3886.27 4827.55 0
0 0 0
4571.88 9165.35 0
9165.35 4626.92 0
0 0 0
4570.42 4929.64 0
4929.64 4574.08 0
0 0 0
4568.3 2594.41 0
2594.41 4530.66 0
0 0 0
4682.89 1064.54 0
1064.54 4550.77 0
0 0 0
4665.69 -4047.65 0
-4047.65 4697.35 0
0 0 0
4376.04 8038.96 0
8038.96 4848.21 0
0 0 0
4276.45 4399.85 0
4399.85 5124.74 0
0 0 0
4169.43 -776.615 0
-776.615 5374.67 0
0 0 0
4111.11 -7272.99 0
-7272.99 5561.49 0
0 0 0
4047.4 18269 0
18269 5699.71 0
0 0 0
5088.13 3446.13 0
3446.13 4729.28 0
0 0 0
4454.56 6033.06 0
6033.06 4520.22 0
0 0 0
4442.89 3156.14 0
3156.14 4457.58 0
0 0 0
4431.28 2627.96 0
2627.96 4405.12 0
0 0 0
4569.73 1974.21 0
1974.21 4408.82 0
0 0 0
4539.73 -2437.82 0
-2437.82 4530.47 0
0 0 0
4502.82 8013.78 0
8013.78 4617.82 0
0 0 0
4062.35 9517.83 0
9517.83 4861.47 0
0 0 0
3947.03 7355.22 0
7355.22 5100.49 0
0 0 0
3885.04 2527.12 0
2527.12 5284.78 0
0 0 0
3830.22 16011.9 0
16011.9 5456.03 0
0 0 0
5090.27 2715.93 0
2715.93 4624.66 0
0 0 0
4329.52 3927.9 0
3927.9 4409.76 0
0 0 0
4308.23 2652.91 0
2652.91 4337.03 0
0 0 0
4287.34 2831.19 0
2831.19 4275.07 0
0 0 0
4451.93 3119.82 0
3119.82 4257.95 0
0 0 0
4408.91 -121.561 0
-121.561 4356.93 0
0 0 0
4364.85 3613.32 0
3613.32 4437.01 0
0 0 0
3839.95 11980.3 0
11980.3 4625.46 0
0 0 0
3716.22 11368.7 0
11368.7 4872.48 0
0 0 0
3648.34 8571.31 0
8571.31 5066.37 0
0 0 0
3594.48 14148.4 0
14148.4 5257.74 0
0 0 0
5092.46 2723.13 0
2723.13 4518.21 0
0 0 0
4202.81 2774.01 0
2774.01 4298.66 0
0 0 0
4172.22 3427.47 0
3427.47 4216 0
0 0 0
4141.98 3256.67 0
3256.67 4144.49 0
0 0 0
4333.51 4196.38 0
4196.38 4105.14 0
0 0 0
4277.42 1957.92 0
1957.92 4183.91 0
0 0 0
4220.68 -1922.77 0
-1922.77 4249.6 0
0 0 0
3613.78 12549.9 0
12549.9 4405.8 0
0 0 0
3482.95 12872.9 0
12872.9 4668.65 0
0 0 0
3410.63 9829.2 0
9829.2 4876.7 0
0 0 0
3357.11 9685.23 0
9685.23 5086.58 0
0 0 0
5094.73 2676.41 0
2676.41 4407.02 0
0 0 0
4070.06 1334.68 0
1334.68 4182.2 0
0 0 0
4029.88 2385.41 0
2385.41 4089.45 0
0 0 0
3989.58 2898.73 0
2898.73 4007.97 0
0 0 0
4209.22 4717.45 0
4717.45 3944.13 0
0 0 0
4138.81 2152.38 0
2152.38 4002.81 0
0 0 0
4065.08 -2201.04 0
-2201.04 4048.49 0
0 0 0
3371.89 11725.7 0
11725.7 4180.64 0
0 0 0
3236.31 12588.8 0
12588.8 4463.72 0
0 0 0
3162.34 10003.2 0
10003.2 4687.56 0
0 0 0
3109.28 7687.36 0
7687.36 4912.57 0
0 0 0
TENSORS strain double
0.123803 0.0764092 0
0.0764092 -2.0109 0
0 0 0
0.116074 0.285525 0
0.285525 -2.17596 0
0 0 0
-0.118276 0.284356 0
0.284356 -2.29882 0
0 0 0
-0.113794 0.0960007 0
0.0960007 -2.38751 0
0 0 0
0.0259251 -0.0259701 0
-0.0259701 -2.45488 0
0 0 0
0.0256359 -0.0103251 0
-0.0103251 -2.46571 0
0 0 0
-0.0804869 -0.0266301 0
-0.0266301 -2.41705 0
0 0 0
-0.0819944 -0.228115 0
-0.228115 -2.16719 0
0 0 0
-0.393769 -0.292321 0
-0.292321 -1.89355 0
0 0 0
-1.53449 -0.0277162 0
-0.0277162 -0.215268 0
0 0 0
-2.22425 0.11281 0
0.11281 0.45675 0
0 0 0
0.369991 0.0391433 0
0.0391433 -2.02424 0
0 0 0
0.335675 0.285352 0
0.285352 -2.21393 0
0 0 0
-0.352732 0.209131 0
0.209131 -2.31516 0
0 0 0
-0.340725 0.0482999 0
0.0482999 -2.39297 0
0 0 0
0.0777848 -0.0383354 0
-0.0383354 -2.45476 0
0 0 0
0.0768938 -0.0224843 0
-0.0224843 -2.46553 0
0 0 0
-0.241944 -0.01607 0
-0.01607 -2.40383 0
0 0 0
-0.245358 -0.194564 0
-0.194564 -2.18941 0
0 0 0
-0.793517 -0.217504 0
-0.217504 -1.97323 0
0 0 0
-1.85861 0.318291 0
0.318291 -1.48556 0
0 0 0
-2.44593 0.486063 0
0.486063 -1.05721 0
0 0 0
0.548763 -0.0129451 0
-0.0129451 -2.8859 0
0 0 0
0.172086 0.164863 0
0.164863 -2.88096 0
0 0 0
-0.532162 0.0869008 0
0.0869008 -2.86401 0
0 0 0
-0.518453 -0.00149547 0
-0.00149547 -2.86403 0
0 0 0
0.118061 -0.0303284 0
-0.0303284 -2.86615 0
0 0 0
0.116939 -0.0332264 0
-0.0332264 -2.8515 0
0 0 0
-0.39098 -0.0125807 0
-0.0125807 -2.74748 0
0 0 0
-0.397576 -0.176189 0
-0.176189 -2.48362 0
0 0 0
-1.0051 -0.201485 0
-0.201485 -2.24373 0
0 0 0
-1.91584 0.350955 0
0.350955 -2.23854 0
0 0 0
-2.46495 0.763965 0
0.763965 -2.31025 0
0 0 0
0.59297 -0.00261596 0
-0.00261596 -3.04882 0
0 0 0
0.120339 0.146174 0
0.146174 -2.99702 0
0 0 0
-0.577134 0.0767523 0
0.0767523 -2.94538 0
0 0 0
-0.567211 0.00677938 0
0.00677938 -2.91265 0
0 0 0
0.118127 -0.0127179 0
-0.0127179 -2.88519 0
0 0 0
0.117822 -0.0344014 0
-0.0344014 -2.84029 0
0 0 0
-0.520322 0.0122595 0
0.0122595 -2.72065 0
0 0 0
-0.534967 -0.14291 0
-0.14291 -2.48059 0
0 0 0
-0.978466 -0.257604 0
-0.257604 -2.25343 0
0 0 0
-1.79949 0.20867 0
0.20867 -2.33265 0
0 0 0
-2.35301 0.669159 0
0.669159 -2.49026 0
0 0 0
0.627835 0.0159731 0
0.0159731 -2.97153 0
0 0 0
0.0785787 0.141678 0
0.141678 -2.87884 0
0 0 0
-0.608895 0.078762 0
0.078762 -2.80293 0
0 0 0
-0.602315 0.0189687 0
0.0189687 -2.74358 0
0 0 0
0.105127 -0.00105486 0
-0.00105486 -2.68839 0
0 0 0
0.105253 -0.0350393 0
-0.0350393 -2.62688 0
0 0 0
-0.659396 0.0408858 0
0.0408858 -2.49486 0
0 0 0
-0.682156 -0.0944293 0
-0.0944293 -2.28018 0
0 0 0
-1.03937 -0.236788 0
-0.236788 -2.09368 0
0 0 0
-1.62227 0.00318558 0
0.00318558 -2.17151 0
0 0 0
-2.25353 0.561756 0
0.561756 -2.40673 0
0 0 0
0.661003 0.0322644 0
0.0322644 -2.58511 0
0 0 0
0.0296013 0.129201 0
0.129201 -2.46586 0
0 0 0
-0.638063 0.0686765 0
0.0686765 -2.38078 0
0 0 0
-0.635523 0.0256439 0
0.0256439 -2.31223 0
0 0 0
0.0751821 0.00549357 0
0.00549357 -2.2318 0
0 0 0
0.0748636 -0.0407261 0
-0.0407261 -2.13782 0
0 0 0
-0.819693 0.0638809 0
0.0638809 -2.0205 0
0 0 0
-0.846184 -0.0236595 0
-0.0236595 -1.87272 0
0 0 0
-1.17707 -0.126145 0
-0.126145 -1.75914 0
0 0 0
-1.47132 -0.118175 0
-0.118175 -1.76566 0
0 0 0
-1.96181 0.308667 0
0.308667 -1.97177 0
0 0 0
0.678807 0.0388627 0
0.0388627 -2.28792 0
0 0 0
0.015673 0.0916535 0
0.0916535 -2.18898 0
0 0 0
-0.654378 0.0492964 0
0.0492964 -2.10765 0
0 0 0
-0.65484 0.0259441 0
0.0259441 -2.03155 0
0 0 0
0.0245414 0.0106454 0
0.0106454 -1.94601 0
0 0 0
0.022476 -0.0404765 0
-0.0404765 -1.82887 0
0 0 0
-0.944674 0.0803896 0
0.0803896 -1.73603 0
0 0 0
-0.966368 0.0439985 0
0.0439985 -1.6634 0
0 0 0
-1.27225 -0.00776615 0
-0.00776615 -1.59982 0
0 0 0
-1.43956 -0.0727299 0
-0.0727299 -1.57752 0
0 0 0
-1.75435 0.18269 0
0.18269 -1.7143 0
0 0 0
0.665352 0.0344613 0
0.0344613 -2.12732 0
0 0 0
0.0175336 0.0603306 0
0.0603306 -2.06186 0
0 0 0
-0.645672 0.0315614 0
0.0315614 -1.98363 0
0 0 0
-0.646929 0.0262796 0
0.0262796 -1.92671 0
0 0 0
-0.0290913 0.0197421 0
0.0197421 -1.84021 0
0 0 0
-0.03283 -0.0243782 0
-0.0243782 -1.72154 0
0 0 0
-0.974241 0.0801378 0
0.0801378 -1.65496 0
0 0 0
-1.00349 0.0951783 0
0.0951783 -1.60817 0
0 0 0
-1.27631 0.0735522 0
0.0735522 -1.59041 0
0 0 0
-1.43147 0.0252712 0
0.0252712 -1.57473 0
0 0 0
-1.60207 0.160119 0
0.160119 -1.6372 0
0 0 0
0.626519 0.0271593 0
0.0271593 -2.09022 0
0 0 0
0.0431885 0.039279 0
0.039279 -2.04482 0
0 0 0
-0.621021 0.0265291 0
0.0265291 -1.97205 0
0 0 0
-0.622327 0.0283119 0
0.0283119 -1.91899 0
0 0 0
-0.0699959 0.0311982 0
0.0311982 -1.84375 0
0 0 0
-0.0743035 -0.00121561 0
-0.00121561 -1.73188 0
0 0 0
-0.885919 0.0361332 0
0.0361332 -1.64795 0
0 0 0
-0.980046 0.119803 0
0.119803 -1.63432 0
0 0 0
-1.22453 0.113687 0
0.113687 -1.63096 0
0 0 0
-1.37512 0.0857131 0
0.0857131 -1.61917 0
0 0 0
-1.45873 0.141484 0
0.141484 -1.65754 0
0 0 0
0.581734 0.0272313 0
0.0272313 -2.06958 0
0 0 0
0.0908178 0.0277401 0
0.0277401 -2.00625 0
0 0 0
-0.597149 0.0342747 0
0.0342747 -1.94935 0
0 0 0
-0.598302 0.0325667 0
0.0325667 -1.88436 0
0 0 0
-0.096663 0.0419638 0
0.0419638 -1.81381 0
0 0 0
-0.100849 0.0195792 0
0.0195792 -1.70499 0
0 0 0
-0.72887 -0.0192277 0
-0.0192277 -1.60838 0
0 0 0
-0.93425 0.125499 0
0.125499 -1.60855 0
0 0 0
-1.158 0.128729 0
0.128729 -1.60342 0
0 0 0
-1.31385 0.098292 0
0.098292 -1.61196 0
0 0 0
-1.36087 0.0968523 0
0.0968523 -1.62631 0
0 0 0
0.537377 0.0267641 0
0.0267641 -2.02978 0
0 0 0
0.134486 0.0133468 0
0.0133468 -1.96289 0
0 0 0
-0.577643 0.0238541 0
0.0238541 -1.8899 0
0 0 0
-0.577474 0.0289873 0
0.0289873 -1.83482 0
0 0 0
-0.112233 0.0471745 0
0.0471745 -1.74867 0
0 0 0
-0.115733 0.0215238 0
0.0215238 -2.08873 0
0 0 0
-0.614569 -0.0220104 0
-0.0220104 -1.5469 0
0 0 0
-0.88063 0.117257 0
0.117257 -1.54832 0
0 0 0
-1.09973 0.125888 0
0.125888 -1.55412 0
0 0 0
-1.26178 0.100032 0
0.100032 -1.55004 0
0 0 0
-1.29402 0.0768736 0
0.0768736 -1.56423 0
0 0 0
