# vtk DataFile Version 3.0
MPM2D particles
ASCII
DATASET POLYDATA
POINTS 121 double
0.0142322 6.1401e-06 0
0.0423194 3.80439e-06 0
0.0670297 2.6687e-06 0
0.0890635 2.04423e-06 0
0.112229 1.97526e-06 0
0.13781 3.55791e-06 0
0.162776 8.31794e-06 0
0.185337 4.88469e-05 0
0.206743 0.000270379 0
0.201349 0.00116786 0
0.189804 0.00108999 0
0.0184107 1.73572e-05 0
0.0536207 9.71758e-06 0
0.0745405 7.41585e-06 0
0.0917054 5.97102e-06 0
0.11167 5.85029e-06 0
0.138451 1.08429e-05 0
0.163033 2.5882e-05 0
0.181451 0.000112314 0
0.198105 0.000438412 0
0.197904 0.000741768 0
0.192705 0.000834246 0
0.0222017 2.53453e-05 0
0.0620308 1.39427e-05 0
0.0792987 1.11767e-05 0
0.0934838 9.33788e-06 0
0.111286 9.27521e-06 0
0.139017 1.76176e-05 0
0.162878 4.17272e-05 0
0.178161 0.000144509 0
0.191675 0.000448349 0
0.192894 0.000626775 0
0.190462 0.000702244 0
0.0233008 2.91416e-05 0
0.0643503 1.64565e-05 0
0.0809078 1.35556e-05 0
0.0944242 1.15726e-05 0
0.111787 1.1904e-05 0
0.139424 2.27493e-05 0
0.16224 5.17247e-05 0
0.175215 0.0001526 0
0.186535 0.000404873 0
0.189168 0.000578334 0
0.18792 0.000660919 0
0.0242205 3.26476e-05 0
0.0661796 1.88999e-05 0
0.0822535 1.59291e-05 0
0.0953259 1.38582e-05 0
0.112471 1.4833e-05 0
0.139654 2.83413e-05 0
0.161266 6.04671e-05 0
0.172139 0.000153059 0
0.181499 0.00035041 0
0.185486 0.000524289 0
0.18558 0.000626701 0
0.0251681 3.73569e-05 0
0.0679588 2.2297e-05 0
0.0835974 1.92784e-05 0
0.0962577 1.71421e-05 0
0.113145 1.91687e-05 0
0.139355 3.63688e-05 0
0.159571 6.9893e-05 0
0.168443 0.000151671 0
0.176042 0.000301666 0
0.180615 0.000455509 0
0.182515 0.000586548 0
0.0258173 4.42895e-05 0
0.0690898 2.73039e-05 0
0.0844071 2.4189e-05 0
0.0967532 2.19778e-05 0
0.113148 2.51902e-05 0
0.137757 4.69319e-05 0
0.157005 8.01882e-05 0
0.164589 0.000152364 0
0.171175 0.000276845 0
0.17555 0.000405149 0
0.178746 0.000549133 0
0.0257268 5.34236e-05 0
0.0689592 3.36975e-05 0
0.0842108 3.03358e-05 0
0.0964788 2.79639e-05 0
0.11229 3.17901e-05 0
0.135239 5.78553e-05 0
0.154165 9.64677e-05 0
0.161439 0.000156859 0
0.167733 0.000275056 0
0.171975 0.000395975 0
0.175643 0.000545211 0
0.0250245 6.39281e-05 0
0.0678872 4.08394e-05 0
0.083298 3.70622e-05 0
0.0956652 3.44283e-05 0
0.110964 3.79817e-05 0
0.132649 6.77687e-05 0
0.151513 0.000112652 0
0.159131 0.000164459 0
0.165494 0.000287205 0
0.169816 0.000415197 0
0.173678 0.000576994 0
0.0242045 7.49219e-05 0
0.0665998 4.82876e-05 0
0.0822012 4.40218e-05 0
0.0946595 4.11047e-05 0
0.109493 4.36499e-05 0
0.1303 7.68165e-05 0
0.149022 0.000127995 0
0.157318 0.00017466 0
0.163864 0.000304149 0
0.168305 0.000443168 0
0.172289 0.0006205 0
0.0234321 8.64817e-05 0
0.06531 5.62354e-05 0
0.0810539 5.14406e-05 0
0.0935257 4.82534e-05 0
0.107888 4.90624e-05 0
0.128061 8.55788e-05 0
0.146561 0.000143008 0
0.155625 0.000192518 0
0.162422 0.000321618 0
0.166957 0.000471215 0
0.170974 0.000661332 0
VERTICES 121 242
1 0
1 1
1 2
1 3
1 4
1 5
1 6
1 7
1 8
1 9
1 10
1 11
1 12
1 13
1 14
1 15
1 16
1 17
1 18
1 19
1 20
1 21
1 22
1 23
1 24
1 25
1 26
1 27
1 28
1 29
1 30
1 31
1 32
1 33
1 34
1 35
1 36
1 37
1 38
1 39
1 40
1 41
1 42
1 43
1 44
1 45
1 46
1 47
1 48
1 49
1 50
1 51
1 52
1 53
1 54
1 55
1 56
1 57
1 58
1 59
1 60
1 61
1 62
1 63
1 64
1 65
1 66
1 67
1 68
1 69
1 70
1 71
1 72
1 73
1 74
1 75
1 76
1 77
1 78
1 79
1 80
1 81
1 82
1 83
1 84
1 85
1 86
1 87
1 88
1 89
1 90
1 91
1 92
1 93
1 94
1 95
1 96
1 97
1 98
1 99
1 100
1 101
1 102
1 103
1 104
1 105
1 106
1 107
1 108
1 109
1 110
1 111
1 112
1 113
1 114
1 115
1 116
1 117
1 118
1 119
1 120
POINT_DATA 121
VECTORS velocity double
5.10354 8.2369 0
2.83456 6.1672 0
1.38375 4.79095 0
0.825493 4.03009 0
0.39119 3.61005 0
0.329272 4.10789 0
0.155402 4.08998 0
-0.401826 2.08019 0
-1.19845 0.430517 0
-6.29758 7.29336 0
-8.88975 11.0681 0
3.64462 2.51918 0
0.978349 1.33117 0
0.139137 0.808733 0
0.219521 0.417699 0
0.250619 0.181599 0
0.277342 0.495103 0
0.231227 0.462858 0
0.0901627 -0.568648 0
-0.102396 -1.57191 0
-1.2048 -0.0222286 0
-1.40675 0.889245 0
2.61375 -1.43551 0
-0.296623 -1.83608 0
-0.635492 -2.0005 0
-0.176598 -2.18318 0
0.166113 -2.31424 0
0.270682 -2.17506 0
0.335999 -2.19114 0
0.47419 -2.47692 0
0.601549 -2.79918 0
0.605265 -2.74239 0
0.904562 -2.7397 0
2.59691 -2.07624 0
-0.256035 -2.34851 0
-0.554 -2.47828 0
-0.126198 -2.62376 0
0.215003 -2.72848 0
0.349509 -2.65497 0
0.423912 -2.66469 0
0.482727 -2.71438 0
0.530503 -2.77788 0
0.267242 -2.89575 0
0.290085 -3.04318 0
2.63637 -2.5303 0
-0.11105 -2.72583 0
-0.396503 -2.8126 0
-0.0452958 -2.91469 0
0.248966 -2.98259 0
0.413942 -2.93738 0
0.492259 -2.93179 0
0.42591 -2.84191 0
0.339241 -2.76945 0
-0.239987 -2.96524 0
-0.496618 -3.24327 0
2.61288 -2.88731 0
-0.0161915 -3.05627 0
-0.299793 -3.10185 0
-0.0168517 -3.15367 0
0.232649 -3.17178 0
0.420862 -3.11758 0
0.518375 -3.09297 0
0.393513 -2.97647 0
0.245108 -2.88131 0
-0.474734 -3.07553 0
-0.995961 -3.3762 0
2.43113 -3.13554 0
-0.036656 -3.31836 0
-0.311021 -3.32845 0
-0.0610557 -3.33426 0
0.166761 -3.31175 0
0.359304 -3.24291 0
0.485106 -3.19974 0
0.371 -3.11151 0
0.223469 -3.03725 0
-0.474716 -3.21836 0
-1.14964 -3.49654 0
2.11573 -3.40888 0
-0.0762626 -3.59646 0
-0.332176 -3.58139 0
-0.11445 -3.55513 0
0.0920499 -3.50791 0
0.287931 -3.42272 0
0.421568 -3.34111 0
0.307406 -3.28363 0
0.133505 -3.22256 0
-0.505527 -3.38321 0
-1.19375 -3.63359 0
1.72971 -3.84501 0
-0.0888452 -3.9978 0
-0.328827 -3.96531 0
-0.169439 -3.91693 0
-0.00347839 -3.85277 0
0.199042 -3.7509 0
0.349633 -3.63719 0
0.230883 -3.59292 0
0.0312768 -3.53827 0
-0.561684 -3.65166 0
-1.22438 -3.83924 0
1.34067 -4.61216 0
-0.113466 -4.68588 0
-0.344568 -4.62611 0
-0.258118 -4.55123 0
-0.145411 -4.4628 0
0.0671232 -4.33374 0
0.244738 -4.18431 0
0.146406 -4.14129 0
-0.0491543 -4.09369 0
-0.62227 -4.14069 0
-1.27674 -4.23029 0
0.899822 -5.90395 0
-0.203378 -5.87378 0
-0.424672 -5.78441 0
-0.42568 -5.67714 0
-0.382505 -5.526 0
-0.152995 -5.3584 0
0.0765673 -5.12556 0
0.0207502 -5.0814 0
-0.130651 -5.04994 0
-0.685245 -5.0003 0
-1.33353 -4.95536 0
SCALARS mass double 1
LOOKUP_TABLE default
2.67769
2.67769
2.67769
2.67769
2.67769
2.67769
2.67769
2.67769
2.67769
2.67769
2.67769
2.67769
2.67769
2.67769
2.67769
2.67769
2.67769
2.67769
2.67769
2.67769
2.67769
2.67769
2.67769
2.67769
2.67769
2.67769
2.67769
2.67769
2.67769
2.67769
2.67769
2.67769
2.67769
2.67769
2.67769
2.67769
2.67769
2.67769
2.67769
2.67769
2.67769
2.67769
2.67769
2.67769
2.67769
2.67769
2.67769
2.67769
2.67769
2.67769
2.67769
2.67769
2.67769
2.67769
2.67769
2.67769
2.67769
2.67769
2.67769
2.67769
2.67769
2.67769
2.67769
2.67769
2.67769
2.67769
2.67769
2.67769
2.67769
2.67769
2.67769
2.67769
2.67769
2.67769
2.67769
2.67769
2.67769
2.67769
2.67769
2.67769
2.67769
2.67769
2.67769
2.67769
2.67769
2.67769
2.67769
2.67769
2.67769
2.67769
2.67769
2.67769
2.67769
2.67769
2.67769
2.67769
2.67769
2.67769
2.67769
2.67769
2.67769
2.67769
2.67769
2.67769
2.67769
2.67769
2.67769
2.67769
2.67769
2.67769
2.67769
2.67769
2.67769
2.67769
2.67769
2.67769
2.67769
2.67769
2.67769
2.67769
2.67769
SCALARS volume double 1
LOOKUP_TABLE default
4.16801e-07
2.55947e-07
1.40127e-07
1.0788e-07
1.20318e-07
2.16637e-07
4.52837e-07
2.64388e-06
1.05753e-05
1.31834e-05
5.69757e-06
5.10025e-07
2.66103e-07
1.01282e-07
8.26537e-08
1.24472e-07
2.30419e-07
3.92746e-07
1.6808e-06
3.70386e-06
2.02811e-06
1.19883e-06
2.48992e-07
1.06251e-07
4.62209e-08
4.18899e-08
8.45448e-08
1.64161e-07
2.34277e-07
8.52915e-07
1.47079e-06
6.32113e-07
2.80024e-07
2.19358e-07
8.75017e-08
3.98776e-08
3.74184e-08
8.36438e-08
1.67202e-07
2.00801e-07
6.06335e-07
1.05217e-06
5.00718e-07
2.18545e-07
2.44103e-07
9.24899e-08
4.38161e-08
4.22418e-08
1.01899e-07
2.04994e-07
2.03492e-07
5.1546e-07
8.20468e-07
5.48836e-07
2.23137e-07
3.70526e-07
1.30299e-07
6.39575e-08
6.21615e-08
1.58263e-07
3.21351e-07
2.46382e-07
5.07439e-07
6.83634e-07
6.88988e-07
3.80999e-07
5.0973e-07
1.6637e-07
8.14938e-08
7.97133e-08
1.9922e-07
3.98064e-07
2.48328e-07
4.2085e-07
5.1547e-07
6.01068e-07
4.69801e-07
5.99063e-07
1.87515e-07
9.221e-08
8.83618e-08
2.04291e-07
3.92417e-07
2.49099e-07
3.39983e-07
4.02557e-07
4.67556e-07
4.73554e-07
6.11311e-07
1.95504e-07
9.51809e-08
9.06976e-08
1.87954e-07
3.4772e-07
2.56502e-07
2.84669e-07
3.43385e-07
4.01277e-07
4.62564e-07
6.10499e-07
2.13462e-07
9.93865e-08
9.57667e-08
1.80791e-07
3.26468e-07
2.93478e-07
2.70115e-07
3.32238e-07
3.81456e-07
4.72929e-07
6.21421e-07
2.32985e-07
1.07275e-07
1.02317e-07
1.81489e-07
1.75003e-07
3.27967e-07
2.86484e-07
3.29514e-07
3.8372e-07
4.85193e-07
TENSORS stress double
5076.68 20759.5 0
20759.5 4010.51 0
0 0 0
5076.68 67867.1 0
67867.1 3675.62 0
0 0 0
5076.57 61916.1 0
61916.1 3413.69 0
0 0 0
5076.59 19248.6 0
19248.6 3201.01 0
0 0 0
5076.59 -16004 0
-16004 3354.57 0
0 0 0
5076.53 -35322.7 0
-35322.7 4492.64 0
0 0 0
5076.28 -59855.3 0
-59855.3 5772.85 0
0 0 0
5074.4 -111671 0
-111671 7558.9 0
0 0 0
5064.31 -147963 0
-147963 9247.46 0
0 0 0
5023.02 -108604 0
-108604 8789.7 0
0 0 0
5026.13 -73065.4 0
-73065.4 7877.02 0
0 0 0
5076.69 20622.6 0
20622.6 3960.26 0
0 0 0
5076.28 76481.7 0
76481.7 3542.87 0
0 0 0
5076.38 46194.6 0
46194.6 3341.01 0
0 0 0
5076.43 11525.2 0
11525.2 3175.36 0
0 0 0
5076.43 -16594 0
-16594 3329.56 0
0 0 0
5076.22 -36877.9 0
-36877.9 4520.91 0
0 0 0
5075.45 -58148.5 0
-58148.5 5792.59 0
0 0 0
5071.43 -101403 0
-101403 7248.82 0
0 0 0
5056.48 -126320 0
-126320 8557.28 0
0 0 0
5042.5 -70392.7 0
-70392.7 8531.07 0
0 0 0
5038.08 -43684.3 0
-43684.3 8115.75 0
0 0 0
5076.69 18697 0
18697 3914.74 0
0 0 0
5076.11 55270.4 0
55270.4 3461.52 0
0 0 0
5076.22 28745.8 0
28745.8 3294.93 0
0 0 0
5076.3 4532.61 0
4532.61 3158.07 0
0 0 0
5076.28 -15308.2 0
-15308.2 3312.32 0
0 0 0
5075.94 -38247.1 0
-38247.1 4545.81 0
0 0 0
5074.7 -56640.7 0
-56640.7 5779.71 0
0 0 0
5069.91 -93709.3 0
-93709.3 6987 0
0 0 0
5055.92 -114127 0
-114127 8047.33 0
0 0 0
5047.68 -59324 0
-59324 8137.87 0
0 0 0
5044.13 -12955.8 0
-12955.8 7942.54 0
0 0 0
5076.69 20634.5 0
20634.5 3901.49 0
0 0 0
5076.01 50854.8 0
50854.8 3439.04 0
0 0 0
5076.13 25939.5 0
25939.5 3279.31 0
0 0 0
5076.21 4281.07 0
4281.07 3148.9 0
0 0 0
5076.17 -13833.6 0
-13833.6 3334.5 0
0 0 0
5075.73 -38573.8 0
-38573.8 4563.74 0
0 0 0
5074.22 -52555 0
-52555 5728.79 0
0 0 0
5069.51 -85358.9 0
-85358.9 6753.32 0
0 0 0
5057.85 -111456 0
-111456 7641.48 0
0 0 0
5049.84 -67412.9 0
-67412.9 7844.23 0
0 0 0
5045.98 -18142.3 0
-18142.3 7742.4 0
0 0 0
5076.7 23238 0
23238 3890.39 0
0 0 0
5075.91 48387.9 0
48387.9 3421.28 0
0 0 0
5076.03 24631.8 0
24631.8 3266.23 0
0 0 0
5076.12 4459.2 0
4459.2 3140.11 0
0 0 0
5076.05 -13095.8 0
-13095.8 3364.86 0
0 0 0
5075.49 -38690.5 0
-38690.5 4573.78 0
0 0 0
5073.8 -47567.4 0
-47567.4 5651.29 0
0 0 0
5069.47 -75305.5 0
-75305.5 6509.55 0
0 0 0
5060.32 -101324 0
-101324 7244.31 0
0 0 0
5052.28 -81899.4 0
-81899.4 7554.23 0
0 0 0
5047.51 -24853 0
-24853 7558.17 0
0 0 0
5076.7 25599.1 0
25599.1 3878.91 0
0 0 0
5075.78 45162.2 0
45162.2 3403.98 0
0 0 0
5075.9 22094 0
22094 3253.13 0
0 0 0
5075.98 4023.78 0
4023.78 3130.99 0
0 0 0
5075.86 -12798.7 0
-12798.7 3394.68 0
0 0 0
5075.16 -38810.3 0
-38810.3 4560.16 0
0 0 0
5073.35 -41790.7 0
-41790.7 5516.71 0
0 0 0
5069.52 -61816.9 0
-61816.9 6216.72 0
0 0 0
5062.53 -81300.4 0
-81300.4 6813.59 0
0 0 0
5055.39 -85934.3 0
-85934.3 7170.61 0
0 0 0
5049.31 -44750 0
-44750 7316.58 0
0 0 0
5076.7 26648.8 0
26648.8 3870.91 0
0 0 0
5075.58 40112.2 0
40112.2 3392.87 0
0 0 0
5075.7 19174.7 0
19174.7 3245.13 0
0 0 0
5075.79 3382.11 0
3382.11 3126.03 0
0 0 0
5075.61 -12002.7 0
-12002.7 3394.57 0
0 0 0
5074.71 -37172.8 0
-37172.8 4488.69 0
0 0 0
5073.35 -37167.8 0
-37167.8 5343.87 0
0 0 0
5069.46 -47957.9 0
-47957.9 5911.36 0
0 0 0
5063.64 -60836.7 0
-60836.7 6428.79 0
0 0 0
5057.67 -72462.6 0
-72462.6 6770.94 0
0 0 0
5050.98 -50343.4 0
-50343.4 7019.16 0
0 0 0
5076.71 25857.4 0
25857.4 3871.65 0
0 0 0
5075.32 37045.3 0
37045.3 3393.89 0
0 0 0
5075.45 17494.6 0
17494.6 3246.79 0
0 0 0
5075.55 3554.87 0
3554.87 3128.45 0
0 0 0
5075.33 -10051.3 0
-10051.3 3356.13 0
0 0 0
5074.25 -33131.1 0
-33131.1 4376.22 0
0 0 0
5072.67 -38054.2 0
-38054.2 5216.92 0
0 0 0
5069.23 -36480.1 0
-36480.1 5661.54 0
0 0 0
5063.69 -45780.7 0
-45780.7 6156.1 0
0 0 0
5058.04 -55449.1 0
-55449.1 6487.96 0
0 0 0
5051.1 -46034.4 0
-46034.4 6773.44 0
0 0 0
5076.72 24183.8 0
24183.8 3879.63 0
0 0 0
5075.03 36032.6 0
36032.6 3403.97 0
0 0 0
5075.18 17863.5 0
17863.5 3255.34 0
0 0 0
5075.29 4480.94 0
4480.94 3136.06 0
0 0 0
5075.07 -7467.46 0
-7467.46 3296.91 0
0 0 0
5073.84 -28309.1 0
-28309.1 4260.64 0
0 0 0
5072 -39882.3 0
-39882.3 5098.33 0
0 0 0
5068.85 -28777.4 0
-28777.4 5478.38 0
0 0 0
5063.09 -36421.9 0
-36421.9 5978.23 0
0 0 0
5057.1 -44001 0
-44001 6316.14 0
0 0 0
5049.56 -42645.1 0
-42645.1 6616.52 0
0 0 0
5076.72 23134.4 0
23134.4 3888.99 0
0 0 0
5074.73 36212.5 0
36212.5 3416.12 0
0 0 0
5074.9 19715.9 0
19715.9 3265.67 0
0 0 0
5075.02 5842.59 0
5842.59 3145.51 0
0 0 0
5074.83 -4831.75 0
-4831.75 3231.24 0
0 0 0
5073.45 -23916.7 0
-23916.7 4155.77 0
0 0 0
5071.35 -42957.6 0
-42957.6 4986.92 0
0 0 0
5069.44 -24939.5 0
-24939.5 5354.33 0
0 0 0
5062.27 -30388.7 0
-30388.7 5848.42 0
0 0 0
5055.76 -38204.2 0
-38204.2 6195.41 0
0 0 0
5047.49 -42597.5 0
-42597.5 6504.9 0
0 0 0
5076.73 22065.7 0
22065.7 3897.77 0
0 0 0
5074.41 36113.5 0
36113.5 3428.27 0
0 0 0
5074.6 19807.6 0
19807.6 3276.46 0
0 0 0
5074.73 6559.26 0
6559.26 3156.19 0
0 0 0
5074.6 -2623.59 0
-2623.59 3159.62 0
0 0 0
5073.08 -21477.6 0
-21477.6 4055.84 0
0 0 0
5070.72 -40763.8 0
-40763.8 4876.87 0
0 0 0
5068.7 -25553.9 0
-25553.9 5278.38 0
0 0 0
5061.42 -26285.7 0
-26285.7 5733.52 0
0 0 0
5054.41 -33611.9 0
-33611.9 6087.59 0
0 0 0
5045.53 -40078.4 0
-40078.4 6399.27 0
0 0 0
TENSORS strain double
0.129835 0.207595 0
0.207595 -7.43108 0
0 0 0
0.120957 0.678671 0
0.678671 -7.88927 0
0 0 0
-0.12314 0.619161 0
0.619161 -8.22827 0
0 0 0
-0.11815 0.192486 0
0.192486 -8.48276 0
0 0 0
0.0234103 -0.16004 0
-0.16004 -8.51866 0
0 0 0
0.0230071 -0.353227 0
-0.353227 -7.96662 0
0 0 0
-0.086772 -0.598553 0
-0.598553 -7.16152 0
0 0 0
-0.0926242 -1.11671 0
-1.11671 -5.46132 0
0 0 0
-0.413799 -1.47963 0
-1.47963 -3.79442 0
0 0 0
-1.6392 -1.08604 0
-1.08604 -2.33861 0
0 0 0
-2.39488 -0.730654 0
-0.730654 -2.37567 0
0 0 0
0.387728 0.206226 0
0.206226 -7.48767 0
0 0 0
0.31957 0.764817 0
0.764817 -8.042 0
0 0 0
-0.366984 0.461946 0
0.461946 -8.30092 0
0 0 0
-0.35369 0.115252 0
0.115252 -8.50806 0
0 0 0
0.0702476 -0.16594 0
-0.16594 -8.53065 0
0 0 0
0.0689925 -0.368779 0
-0.368779 -7.9518 0
0 0 0
-0.261155 -0.581485 0
-0.581485 -7.12659 0
0 0 0
-0.275162 -1.01403 0
-1.01403 -5.71843 0
0 0 0
-0.841851 -1.2632 0
-1.2632 -4.39685 0
0 0 0
-1.93929 -0.703927 0
-0.703927 -3.87848 0
0 0 0
-2.56181 -0.436843 0
-0.436843 -3.75593 0
0 0 0
0.575606 0.18697 0
0.18697 -8.38851 0
0 0 0
0.147568 0.552704 0
0.552704 -8.77213 0
0 0 0
-0.554377 0.287458 0
0.287458 -8.8855 0
0 0 0
-0.538986 0.0453261 0
0.0453261 -8.99249 0
0 0 0
0.106014 -0.153082 0
-0.153082 -8.95035 0
0 0 0
0.104256 -0.382471 0
-0.382471 -8.32484 0
0 0 0
-0.422141 -0.566407 0
-0.566407 -7.47538 0
0 0 0
-0.443127 -0.937093 0
-0.937093 -6.21439 0
0 0 0
-1.0729 -1.14127 0
-1.14127 -5.0682 0
0 0 0
-2.00366 -0.59324 0
-0.59324 -4.95853 0
0 0 0
-2.5752 -0.129558 0
-0.129558 -5.16788 0
0 0 0
0.624153 0.206345 0
0.206345 -8.56271 0
0 0 0
0.0909243 0.508548 0
0.508548 -8.90555 0
0 0 0
-0.604387 0.259395 0
0.259395 -8.97892 0
0 0 0
-0.592829 0.0428107 0
0.0428107 -9.04818 0
0 0 0
0.102831 -0.138336 0
-0.138336 -8.95824 0
0 0 0
0.101589 -0.385738 0
-0.385738 -8.3043 0
0 0 0
-0.560308 -0.52555 0
-0.52555 -7.48617 0
0 0 0
-0.591316 -0.853589 0
-0.853589 -6.39583 0
0 0 0
-1.05825 -1.11456 0
-1.11456 -5.4061 0
0 0 0
-1.89749 -0.674129 0
-0.674129 -5.29104 0
0 0 0
-2.47133 -0.181423 0
-0.181423 -5.51117 0
0 0 0
0.663073 0.23238 0
0.23238 -8.49482 0
0 0 0
0.0443586 0.483879 0
0.483879 -8.80103 0
0 0 0
-0.641226 0.246318 0
0.246318 -8.84656 0
0 0 0
-0.63319 0.044592 0
0.044592 -8.8859 0
0 0 0
0.0863479 -0.130958 0
-0.130958 -8.74623 0
0 0 0
0.0851327 -0.386905 0
-0.386905 -8.08541 0
0 0 0
-0.708736 -0.475674 0
-0.475674 -7.31969 0
0 0 0
-0.749017 -0.753055 0
-0.753055 -6.38967 0
0 0 0
-1.1296 -1.01324 0
-1.01324 -5.57097 0
0 0 0
-1.72997 -0.818994 0
-0.818994 -5.3672 0
0 0 0
-2.38029 -0.24853 0
-0.24853 -5.57746 0
0 0 0
0.701683 0.255991 0
0.255991 -8.11804 0
0 0 0
-0.0112778 0.451622 0
0.451622 -8.4013 0
0 0 0
-0.677566 0.22094 0
0.22094 -8.43445 0
0 0 0
-0.67397 0.0402378 0
0.0402378 -8.46158 0
0 0 0
0.0512649 -0.127987 0
-0.127987 -8.27458 0
0 0 0
0.0488909 -0.388103 0
-0.388103 -7.60236 0
0 0 0
-0.882425 -0.417907 0
-0.417907 -6.95011 0
0 0 0
-0.927474 -0.618169 0
-0.618169 -6.21594 0
0 0 0
-1.2815 -0.813004 0
-0.813004 -5.58759 0
0 0 0
-1.59268 -0.859343 0
-0.859343 -5.27607 0
0 0 0
-2.10126 -0.4475 0
-0.4475 -5.33835 0
0 0 0
0.727325 0.266488 0
0.266488 -7.82728 0
0 0 0
-0.0347817 0.401122 0
0.401122 -8.13272 0
0 0 0
-0.704227 0.191747 0
0.191747 -8.16732 0
0 0 0
-0.704307 0.0338211 0
0.0338211 -8.18464 0
0 0 0
-0.00688164 -0.120027 0
-0.120027 -7.98843 0
0 0 0
-0.0121714 -0.371728 0
-0.371728 -7.3278 0
0 0 0
-1.01488 -0.371678 0
-0.371678 -6.80308 0
0 0 0
-1.06766 -0.479579 0
-0.479579 -6.24955 0
0 0 0
-1.39744 -0.608367 0
-0.608367 -5.73816 0
0 0 0
-1.58159 -0.724626 0
-0.724626 -5.41234 0
0 0 0
-1.91391 -0.503434 0
-0.503434 -5.31971 0
0 0 0
0.723813 0.258574 0
0.258574 -7.66536 0
0 0 0
-0.0446661 0.370453 0
0.370453 -8.00429 0
0 0 0
-0.708095 0.174946 0
0.174946 -8.04166 0
0 0 0
-0.709746 0.0355487 0
0.0355487 -8.07771 0
0 0 0
-0.0694767 -0.100513 0
-0.100513 -7.90123 0
0 0 0
-0.0778525 -0.331311 0
-0.331311 -7.27514 0
0 0 0
-1.02462 -0.380542 0
-0.380542 -6.7891 0
0 0 0
-1.128 -0.364801 0
-0.364801 -6.3916 0
0 0 0
-1.42665 -0.457807 0
-0.457807 -5.94389 0
0 0 0
-1.59993 -0.554491 0
-0.554491 -5.63263 0
0 0 0
-1.78874 -0.460344 0
-0.460344 -5.43317 0
0 0 0
0.695995 0.241838 0
0.241838 -7.62057 0
0 0 0
-0.0316055 0.360326 0
0.360326 -7.97876 0
0 0 0
-0.696782 0.178635 0
0.178635 -8.02299 0
0 0 0
-0.699216 0.0448094 0
0.0448094 -8.06381 0
0 0 0
-0.119633 -0.0746746 0
-0.0746746 -7.93372 0
0 0 0
-0.129986 -0.283091 0
-0.283091 -7.34182 0
0 0 0
-0.948046 -0.398823 0
-0.398823 -6.8392 0
0 0 0
-1.1287 -0.287774 0
-0.287774 -6.56069 0
0 0 0
-1.40189 -0.364219 0
-0.364219 -6.12033 0
0 0 0
-1.57315 -0.44001 0
-0.44001 -5.805 0
0 0 0
-1.67706 -0.426451 0
-0.426451 -5.56543 0
0 0 0
0.66251 0.231344 0
0.231344 -7.59104 0
0 0 0
0.00320943 0.362125 0
0.362125 -7.93003 0
0 0 0
-0.686424 0.197159 0
0.197159 -7.99176 0
0 0 0
-0.689439 0.0584259 0
0.0584259 -8.0215 0
0 0 0
-0.155534 -0.0483175 0
-0.0483175 -7.93599 0
0 0 0
-0.167164 -0.239167 0
-0.239167 -7.36608 0
0 0 0
-0.803175 -0.429576 0
-0.429576 -6.85327 0
0 0 0
-1.10135 -0.249395 0
-0.249395 -6.63686 0
0 0 0
-1.36308 -0.303887 0
-0.303887 -6.18889 0
0 0 0
-1.54234 -0.382042 0
-0.382042 -5.88271 0
0 0 0
-1.61212 -0.425975 0
-0.425975 -5.60719 0
0 0 0
0.629917 0.220657 0
0.220657 -7.54286 0
0 0 0
0.0334161 0.361135 0
0.361135 -7.87644 0
0 0 0
-0.681097 0.198076 0
0.198076 -7.92336 0
0 0 0
-0.683592 0.0655926 0
0.0655926 -7.96329 0
0 0 0
-0.180724 -0.0262359 0
-0.0262359 -7.90609 0
0 0 0
-0.193181 -0.214776 0
-0.214776 -7.79858 0
0 0 0
-0.701916 -0.407638 0
-0.407638 -6.8448 0
0 0 0
-1.05106 -0.255539 0
-0.255539 -6.62911 0
0 0 0
-1.33403 -0.262857 0
-0.262857 -6.22339 0
0 0 0
-1.52209 -0.336119 0
-0.336119 -5.89501 0
0 0 0
-1.57951 -0.400784 0
-0.400784 -5.61332 0
0 0 0
