# vtk DataFile Version 3.0
MPM2D particles
ASCII
DATASET POLYDATA
POINTS 121 double
0.0142324 2.25085e-08 0
0.0423199 1.04323e-08 0
0.06703 5.70814e-09 0
0.0890636 3.51883e-09 0
0.112229 4.54539e-09 0
0.137809 4.18359e-08 0
0.162773 4.68922e-07 0
0.185298 1.13964e-05 0
0.206264 0.000234434 0
0.199696 0.000698683 0
0.18879 0.000324399 0
0.0184116 6.09427e-08 0
0.053622 2.37152e-08 0
0.0745411 1.47309e-08 0
0.0917055 1.00136e-08 0
0.11167 1.29859e-08 0
0.13845 1.32753e-07 0
0.163024 1.48272e-06 0
0.181373 2.05176e-05 0
0.197547 0.000222329 0
0.196973 0.00036689 0
0.19184 0.000299199 0
0.0222033 8.55732e-08 0
0.0620323 3.13259e-08 0
0.0792995 2.11843e-08 0
0.0934841 1.53872e-08 0
0.111286 2.00836e-08 0
0.139014 2.23512e-07 0
0.162863 2.36637e-06 0
0.178071 2.14648e-05 0
0.191224 0.000153023 0
0.192238 0.000229135 0
0.18979 0.000220476 0
0.0233027 9.72796e-08 0
0.064352 3.61393e-08 0
0.0809086 2.52888e-08 0
0.0944245 1.88933e-08 0
0.111786 2.66219e-08 0
0.13942 2.96105e-07 0
0.162221 2.81627e-06 0
0.17513 1.88359e-05 0
0.186196 0.000100678 0
0.188638 0.000168346 0
0.187341 0.000177634 0
0.0242227 1.07953e-07 0
0.0661815 4.07645e-08 0
0.0822544 2.9325e-08 0
0.0953262 2.24242e-08 0
0.112471 3.46692e-08 0
0.13965 3.74262e-07 0
0.161245 3.09407e-06 0
0.172062 1.55668e-05 0
0.181254 6.37965e-05 0
0.185065 0.00012172 0
0.185076 0.000145904 0
0.0251707 1.22321e-07 0
0.0679609 4.72565e-08 0
0.0835984 3.50236e-08 0
0.096258 2.74837e-08 0
0.113145 4.67909e-08 0
0.139349 4.7127e-07 0
0.159549 3.21021e-06 0
0.168376 1.22163e-05 0
0.175868 3.90868e-05 0
0.180307 7.82657e-05 0
0.182091 0.000113034 0
0.0258205 1.4405e-07 0
0.0690923 5.72273e-08 0
0.0844083 4.35951e-08 0
0.0967536 3.50646e-08 0
0.113147 6.14987e-08 0
0.13775 5.49842e-07 0
0.156982 3.1313e-06 0
0.164531 9.61512e-06 0
0.171041 2.64306e-05 0
0.17532 5.07793e-05 0
0.178398 8.3766e-05 0
0.0257306 1.73921e-07 0
0.0689623 7.07185e-08 0
0.0842123 5.4779e-08 0
0.0964794 4.47362e-08 0
0.112289 7.34358e-08 0
0.135231 5.78115e-07 0
0.15414 3.157e-06 0
0.161385 8.10345e-06 0
0.167615 2.11345e-05 0
0.171777 3.96598e-05 0
0.175334 6.85177e-05 0
0.0250289 2.09632e-07 0
0.0678911 8.66153e-08 0
0.0833001 6.75304e-08 0
0.0956659 5.55223e-08 0
0.110963 8.05477e-08 0
0.132641 5.74802e-07 0
0.151486 3.12484e-06 0
0.159079 7.3347e-06 0
0.16538 1.91502e-05 0
0.169623 3.62864e-05 0
0.173372 6.40668e-05 0
0.0242096 2.47772e-07 0
0.0666046 1.03718e-07 0
0.0822037 8.10835e-08 0
0.0946605 6.69511e-08 0
0.109492 8.4181e-08 0
0.130292 5.61343e-07 0
0.148993 3.0388e-06 0
0.157266 6.94461e-06 0
0.16375 1.82851e-05 0
0.16811 3.51943e-05 0
0.171976 6.30927e-05 0
0.0234377 2.88291e-07 0
0.0653158 1.22331e-07 0
0.081057 9.58258e-08 0
0.093527 7.94798e-08 0
0.107887 8.5292e-08 0
0.128053 5.4246e-07 0
0.146532 2.91056e-06 0
0.155571 6.89002e-06 0
0.162307 1.76408e-05 0
0.16676 3.43534e-05 0
0.170656 6.18686e-05 0
VERTICES 121 242
1 0
1 1
1 2
1 3
1 4
1 5
1 6
1 7
1 8
1 9
1 10
1 11
1 12
1 13
1 14
1 15
1 16
1 17
1 18
1 19
1 20
1 21
1 22
1 23
1 24
1 25
1 26
1 27
1 28
1 29
1 30
1 31
1 32
1 33
1 34
1 35
1 36
1 37
1 38
1 39
1 40
1 41
1 42
1 43
1 44
1 45
1 46
1 47
1 48
1 49
1 50
1 51
1 52
1 53
1 54
1 55
1 56
1 57
1 58
1 59
1 60
1 61
1 62
1 63
1 64
1 65
1 66
1 67
1 68
1 69
1 70
1 71
1 72
1 73
1 74
1 75
1 76
1 77
1 78
1 79
1 80
1 81
1 82
1 83
1 84
1 85
1 86
1 87
1 88
1 89
1 90
1 91
1 92
1 93
1 94
1 95
1 96
1 97
1 98
1 99
1 100
1 101
1 102
1 103
1 104
1 105
1 106
1 107
1 108
1 109
1 110
1 111
1 112
1 113
1 114
1 115
1 116
1 117
1 118
1 119
1 120
POINT_DATA 121
VECTORS velocity double
4.81892 7.49445 0
2.54894 5.42324 0
1.19494 4.04613 0
0.785377 3.28479 0
0.459362 2.85667 0
0.393707 3.32616 0
0.220024 3.30723 0
-0.317286 1.39519 0
-0.996596 -0.168209 0
-5.84955 6.65211 0
-8.61525 10.3866 0
3.35951 1.77648 0
0.69887 0.586594 0
0.000951035 0.0637189 0
0.197221 -0.327681 0
0.318899 -0.571177 0
0.341824 -0.287373 0
0.296841 -0.318885 0
0.178912 -1.27124 0
0.100891 -2.20963 0
-0.923234 -0.66689 0
-1.15304 0.222904 0
2.32827 -2.17846 0
-0.519392 -2.58087 0
-0.741589 -2.74564 0
-0.186899 -2.92862 0
0.234471 -3.06661 0
0.335217 -2.95819 0
0.402259 -2.97366 0
0.562318 -3.19406 0
0.771386 -3.46326 0
0.818111 -3.40449 0
1.11535 -3.41272 0
2.31129 -2.81926 0
-0.463181 -3.09336 0
-0.649252 -3.22347 0
-0.130153 -3.36923 0
0.283305 -3.48141 0
0.414092 -3.43857 0
0.490188 -3.45005 0
0.567839 -3.4443 0
0.671188 -3.46258 0
0.448045 -3.57209 0
0.477682 -3.72577 0
2.35062 -3.27338 0
-0.305877 -3.47074 0
-0.482684 -3.55783 0
-0.0431628 -3.66019 0
0.317189 -3.7363 0
0.478606 -3.72127 0
0.55822 -3.72144 0
0.507319 -3.58511 0
0.456882 -3.4746 0
-0.0856213 -3.65589 0
-0.326933 -3.93488 0
2.32696 -3.63047 0
-0.199049 -3.80124 0
-0.376918 -3.84713 0
-0.00842613 -3.8992 0
0.300807 -3.92625 0
0.485725 -3.90117 0
0.583479 -3.89004 0
0.470664 -3.73563 0
0.345094 -3.60911 0
-0.347275 -3.7856 0
-0.845786 -4.07989 0
2.14499 -3.87876 0
-0.211944 -4.06338 0
-0.382708 -4.07377 0
-0.0492829 -4.07983 0
0.234961 -4.06625 0
0.424565 -4.02477 0
0.549447 -4.00307 0
0.444172 -3.88733 0
0.312761 -3.78564 0
-0.36636 -3.94925 0
-1.01804 -4.21544 0
1.82934 -4.15213 0
-0.252533 -4.34152 0
-0.405231 -4.32674 0
-0.104532 -4.30073 0
0.160414 -4.26148 0
0.353682 -4.20183 0
0.48661 -4.14137 0
0.377686 -4.07312 0
0.217413 -3.9857 0
-0.405943 -4.12919 0
-1.07253 -4.36542 0
1.44304 -4.58826 0
-0.272483 -4.74289 0
-0.408105 -4.71069 0
-0.165028 -4.66253 0
0.0651061 -4.6049 0
0.265247 -4.52719 0
0.415296 -4.43458 0
0.299265 -4.39245 0
0.11267 -4.31112 0
-0.465177 -4.40698 0
-1.10631 -4.57961 0
1.05371 -5.35539 0
-0.305945 -5.43099 0
-0.431324 -5.37149 0
-0.260518 -5.29685 0
-0.0765952 -5.21333 0
0.133722 -5.10747 0
0.310935 -4.979 0
0.21408 -4.94539 0
0.0308208 -4.87365 0
-0.527005 -4.90265 0
-1.15935 -4.97686 0
0.612557 -6.64718 0
-0.404735 -6.61892 0
-0.51926 -6.52982 0
-0.435767 -6.42278 0
-0.313446 -6.27477 0
-0.0860357 -6.12968 0
0.143242 -5.91759 0
0.0889512 -5.88369 0
-0.0518647 -5.83622 0
-0.591021 -5.7682 0
-1.21706 -5.70778 0
SCALARS mass double 1
LOOKUP_TABLE default
2.67769
2.67769
2.67769
2.67769
2.67769
2.67769
2.67769
2.67769
2.67769
2.67769
2.67769
2.67769
2.67769
2.67769
2.67769
2.67769
2.67769
2.67769
2.67769
2.67769
2.67769
2.67769
2.67769
2.67769
2.67769
2.67769
2.67769
2.67769
2.67769
2.67769
2.67769
2.67769
2.67769
2.67769
2.67769
2.67769
2.67769
2.67769
2.67769
2.67769
2.67769
2.67769
2.67769
2.67769
2.67769
2.67769
2.67769
2.67769
2.67769
2.67769
2.67769
2.67769
2.67769
2.67769
2.67769
2.67769
2.67769
2.67769
2.67769
2.67769
2.67769
2.67769
2.67769
2.67769
2.67769
2.67769
2.67769
2.67769
2.67769
2.67769
2.67769
2.67769
2.67769
2.67769
2.67769
2.67769
2.67769
2.67769
2.67769
2.67769
2.67769
2.67769
2.67769
2.67769
2.67769
2.67769
2.67769
2.67769
2.67769
2.67769
2.67769
2.67769
2.67769
2.67769
2.67769
2.67769
2.67769
2.67769
2.67769
2.67769
2.67769
2.67769
2.67769
2.67769
2.67769
2.67769
2.67769
2.67769
2.67769
2.67769
2.67769
2.67769
2.67769
2.67769
2.67769
2.67769
2.67769
2.67769
2.67769
2.67769
2.67769
SCALARS volume double 1
LOOKUP_TABLE default
1.52795e-09
7.01861e-10
2.99717e-10
1.85697e-10
2.76868e-10
2.5473e-09
2.55273e-08
6.16558e-07
9.13174e-06
7.76684e-06
1.67705e-06
1.79084e-09
6.49392e-10
2.01184e-10
1.3861e-10
2.76284e-10
2.82096e-09
2.24959e-08
3.06753e-07
1.86824e-06
9.94117e-07
4.26097e-07
8.40732e-10
2.38711e-10
8.76043e-11
6.90255e-11
1.83059e-10
2.0825e-09
1.32824e-08
1.26541e-07
4.99606e-07
2.29517e-07
8.72818e-08
7.3232e-10
1.92149e-10
7.43914e-11
6.1087e-11
1.87051e-10
2.17607e-09
1.09296e-08
7.47545e-08
2.60634e-07
1.4491e-07
5.83596e-08
8.07232e-10
1.99478e-10
8.06605e-11
6.83494e-11
2.38155e-10
2.70668e-09
1.04087e-08
5.23663e-08
1.48926e-07
1.26799e-07
5.16466e-08
1.21338e-09
2.76139e-10
1.16187e-10
9.96581e-11
3.86293e-10
4.16336e-09
1.13117e-08
4.0829e-08
8.83708e-08
1.17927e-07
7.30456e-08
1.6581e-09
3.48674e-10
1.46864e-10
1.27171e-10
4.86322e-10
4.66258e-09
9.69235e-09
2.65323e-08
4.91149e-08
7.50998e-08
7.13438e-08
1.95056e-09
3.93487e-10
1.66495e-10
1.41349e-10
4.7186e-10
3.92015e-09
8.14746e-09
1.75468e-08
3.0874e-08
4.6695e-08
5.92625e-08
2.00498e-09
4.14592e-10
1.73409e-10
1.46254e-10
3.98536e-10
2.94839e-09
7.11054e-09
1.26836e-08
2.28533e-08
3.49682e-08
5.11405e-08
2.01941e-09
4.58435e-10
1.83037e-10
1.55966e-10
3.48609e-10
2.38488e-09
6.96276e-09
1.07286e-08
1.99352e-08
3.0202e-08
4.78709e-08
2.07207e-09
5.06739e-10
1.99808e-10
1.68507e-10
3.15452e-10
1.10888e-09
6.6699e-09
1.02413e-08
1.80378e-08
2.78869e-08
4.51773e-08
TENSORS stress double
5076.68 30977.4 0
30977.4 2771.99 0
0 0 0
5076.68 98251.3 0
98251.3 2433.65 0
0 0 0
5076.67 90993.5 0
90993.5 2106.93 0
0 0 0
5076.67 34996.3 0
34996.3 1797.04 0
0 0 0
5076.67 -18833.6 0
-18833.6 2306.08 0
0 0 0
5076.67 -70384.8 0
-70384.8 5011.92 0
0 0 0
5076.66 -124507 0
-124507 7474.94 0
0 0 0
5076.31 -196055 0
-196055 9036.89 0
0 0 0
5069.33 -250337 0
-250337 10483.7 0
0 0 0
5054.68 -203836 0
-203836 10012.4 0
0 0 0
5066.38 -159181 0
-159181 9268.43 0
0 0 0
5076.68 33839.9 0
33839.9 2721.64 0
0 0 0
5076.67 113670 0
113670 2295.51 0
0 0 0
5076.67 70727.7 0
70727.7 2001.29 0
0 0 0
5076.67 25674.4 0
25674.4 1759.89 0
0 0 0
5076.67 -18717.7 0
-18717.7 2246.94 0
0 0 0
5076.67 -72743.6 0
-72743.6 5079.67 0
0 0 0
5076.63 -123006 0
-123006 7492.29 0
0 0 0
5076.02 -182273 0
-182273 8764.33 0
0 0 0
5069.66 -220864 0
-220864 9879.41 0
0 0 0
5065.1 -163984 0
-163984 9834.67 0
0 0 0
5067.2 -132746 0
-132746 9480.88 0
0 0 0
5076.68 34635.9 0
34635.9 2675.97 0
0 0 0
5076.67 87370.5 0
87370.5 2177.22 0
0 0 0
5076.67 50400 0
50400 1934.37 0
0 0 0
5076.67 17605.6 0
17605.6 1734.87 0
0 0 0
5076.67 -16945.9 0
-16945.9 2206.26 0
0 0 0
5076.66 -74820.5 0
-74820.5 5139.34 0
0 0 0
5076.6 -121343 0
-121343 7481.08 0
0 0 0
5075.99 -171652 0
-171652 8535.29 0
0 0 0
5071.83 -203180 0
-203180 9443.15 0
0 0 0
5069.42 -149012 0
-149012 9510.86 0
0 0 0
5069.69 -100433 0
-100433 9341.34 0
0 0 0
5076.68 37362.3 0
37362.3 2662.73 0
0 0 0
5076.67 81551.4 0
81551.4 2144.6 0
0 0 0
5076.67 46620.1 0
46620.1 1911.74 0
0 0 0
5076.67 16785 0
16785 1721.64 0
0 0 0
5076.67 -16101.3 0
-16101.3 2259.22 0
0 0 0
5076.66 -75656.9 0
-75656.9 5182.33 0
0 0 0
5076.58 -116686 0
-116686 7436.58 0
0 0 0
5076.07 -160717 0
-160717 8331.38 0
0 0 0
5073.48 -196198 0
-196198 9096.18 0
0 0 0
5071.33 -154057 0
-154057 9263.27 0
0 0 0
5071.03 -103561 0
-103561 9172.96 0
0 0 0
5076.68 40626 0
40626 2651.64 0
0 0 0
5076.67 77977.6 0
77977.6 2118.86 0
0 0 0
5076.67 44498 0
44498 1892.81 0
0 0 0
5076.67 16417.5 0
16417.5 1708.96 0
0 0 0
5076.67 -16225.1 0
-16225.1 2331.65 0
0 0 0
5076.65 -76059.8 0
-76059.8 5206.58 0
0 0 0
5076.57 -110834 0
-110834 7368.84 0
0 0 0
5076.18 -147976 0
-147976 8118.7 0
0 0 0
5074.64 -181825 0
-181825 8754.62 0
0 0 0
5072.8 -165514 0
-165514 9016.95 0
0 0 0
5072.03 -108355 0
-108355 9016.88 0
0 0 0
5076.68 43667.3 0
43667.3 2640.22 0
0 0 0
5076.67 73675.2 0
73675.2 2093.84 0
0 0 0
5076.67 41146.9 0
41146.9 1873.91 0
0 0 0
5076.67 15418.1 0
15418.1 1695.86 0
0 0 0
5076.67 -16775.3 0
-16775.3 2402.92 0
0 0 0
5076.65 -75797.1 0
-75797.1 5174.79 0
0 0 0
5076.57 -103561 0
-103561 7251.19 0
0 0 0
5076.28 -131259 0
-131259 7863.14 0
0 0 0
5075.42 -157154 0
-157154 8381.89 0
0 0 0
5074.18 -165495 0
-165495 8688.43 0
0 0 0
5073.07 -125713 0
-125713 8810.96 0
0 0 0
5076.68 45182.8 0
45182.8 2632.4 0
0 0 0
5076.67 67940.4 0
67940.4 2077.93 0
0 0 0
5076.67 37737.3 0
37737.3 1862.52 0
0 0 0
5076.67 14476.3 0
14476.3 1688.89 0
0 0 0
5076.67 -15979.9 0
-15979.9 2403.16 0
0 0 0
5076.64 -72140.3 0
-72140.3 5005.67 0
0 0 0
5076.48 -96345.3 0
-96345.3 7039.86 0
0 0 0
5076.36 -114029 0
-114029 7596.52 0
0 0 0
5075.83 -132496 0
-132496 8047.48 0
0 0 0
5075.05 -147733 0
-147733 8343.49 0
0 0 0
5074 -128143 0
-128143 8555.83 0
0 0 0
5076.68 44325.9 0
44325.9 2633.48 0
0 0 0
5076.67 64951.8 0
64951.8 2079.75 0
0 0 0
5076.67 36175.4 0
36175.4 1865.27 0
0 0 0
5076.67 14814.6 0
14814.6 1692.74 0
0 0 0
5076.67 -12944.6 0
-12944.6 2312.38 0
0 0 0
5076.64 -64919.2 0
-64919.2 4739.17 0
0 0 0
5076.48 -93642.8 0
-93642.8 6739.23 0
0 0 0
5076.41 -99790.3 0
-99790.3 7378.35 0
0 0 0
5075.99 -114445 0
-114445 7810.03 0
0 0 0
5075.4 -127638 0
-127638 8098.11 0
0 0 0
5074.48 -121175 0
-121175 8343.83 0
0 0 0
5076.68 42147.4 0
42147.4 2641.93 0
0 0 0
5076.67 64586.7 0
64586.7 2094.82 0
0 0 0
5076.67 37095.8 0
37095.8 1878.1 0
0 0 0
5076.67 16232.3 0
16232.3 1704.18 0
0 0 0
5076.67 -8687.62 0
-8687.62 2172.12 0
0 0 0
5076.64 -56830 0
-56830 4465.22 0
0 0 0
5076.48 -92119.6 0
-92119.6 6458.51 0
0 0 0
5076.44 -90059.9 0
-90059.9 7218.42 0
0 0 0
5076.06 -103121 0
-103121 7655.08 0
0 0 0
5075.51 -114292 0
-114292 7948.83 0
0 0 0
5074.62 -116048 0
-116048 8207.89 0
0 0 0
5076.68 40508.8 0
40508.8 2651.8 0
0 0 0
5076.67 65544.6 0
65544.6 2112.91 0
0 0 0
5076.67 39611.1 0
39611.1 1893.52 0
0 0 0
5076.67 18201.8 0
18201.8 1718.32 0
0 0 0
5076.67 -4196.5 0
-4196.5 2016.53 0
0 0 0
5076.64 -49473.4 0
-49473.4 4216.68 0
0 0 0
5076.48 -92047.8 0
-92047.8 6194.89 0
0 0 0
5076.24 -84421.5 0
-84421.5 7069.8 0
0 0 0
5076.08 -95646.7 0
-95646.7 7542.03 0
0 0 0
5075.54 -107150 0
-107150 7843.91 0
0 0 0
5074.65 -114744 0
-114744 8111.08 0
0 0 0
5076.68 38884.7 0
38884.7 2661.09 0
0 0 0
5076.67 66224.8 0
66224.8 2131.04 0
0 0 0
5076.67 40396 0
40396 1909.65 0
0 0 0
5076.67 19603.7 0
19603.7 1734.27 0
0 0 0
5076.67 36.069 0
36.069 1846.75 0
0 0 0
5076.64 -44210.6 0
-44210.6 3979.91 0
0 0 0
5076.49 -86745.9 0
-86745.9 5934.49 0
0 0 0
5076.25 -82892.5 0
-82892.5 6890.58 0
0 0 0
5076.1 -90267.3 0
-90267.3 7442 0
0 0 0
5075.57 -101354 0
-101354 7750.26 0
0 0 0
5074.69 -111039 0
-111039 8019.57 0
0 0 0
TENSORS strain double
0.129853 0.309774 0
0.309774 -12.8471 0
0 0 0
0.120967 0.982513 0
0.982513 -13.5755 0
0 0 0
-0.123147 0.909935 0
0.909935 -14.1448 0
0 0 0
-0.118155 0.349963 0
0.349963 -14.6001 0
0 0 0
0.0234034 -0.188336 0
-0.188336 -14.3677 0
0 0 0
0.022991 -0.703848 0
-0.703848 -12.2886 0
0 0 0
-0.086822 -1.24507 0
-1.24507 -9.98511 0
0 0 0
-0.0930693 -1.96055 0
-1.96055 -6.90279 0
0 0 0
-0.417905 -2.50337 0
-2.50337 -3.93642 0
0 0 0
-1.65445 -2.03836 0
-2.03836 -2.85019 0
0 0 0
-2.40574 -1.59181 0
-1.59181 -3.57783 0
0 0 0
0.387777 0.338399 0
0.338399 -12.9439 0
0 0 0
0.319544 1.1367 0
1.1367 -13.8364 0
0 0 0
-0.367003 0.707277 0
0.707277 -14.2859 0
0 0 0
-0.353705 0.256744 0
0.256744 -14.6495 0
0 0 0
0.0702271 -0.187177 0
-0.187177 -14.4131 0
0 0 0
0.0689432 -0.727436 0
-0.727436 -12.2355 0
0 0 0
-0.261312 -1.23006 0
-1.23006 -9.93469 0
0 0 0
-0.276106 -1.82273 0
-1.82273 -7.3997 0
0 0 0
-0.847176 -2.20864 0
-2.20864 -5.07237 0
0 0 0
-1.94823 -1.63984 0
-1.63984 -4.57878 0
0 0 0
-2.5707 -1.32746 0
-1.32746 -4.77417 0
0 0 0
0.575676 0.346359 0
0.346359 -13.8812 0
0 0 0
0.14753 0.873705 0
0.873705 -14.6432 0
0 0 0
-0.554406 0.504 0
0.504 -14.9139 0
0 0 0
-0.53901 0.176056 0
0.176056 -15.1501 0
0 0 0
0.105982 -0.169459 0
-0.169459 -14.8558 0
0 0 0
0.104176 -0.748205 0
-0.748205 -12.5748 0
0 0 0
-0.422392 -1.21343 0
-1.21343 -10.2933 0
0 0 0
-0.444265 -1.71652 0
-1.71652 -8.09792 0
0 0 0
-1.07758 -2.0318 0
-2.0318 -6.13532 0
0 0 0
-2.01037 -1.49012 0
-1.49012 -5.95786 0
0 0 0
-2.58232 -1.00433 0
-1.00433 -6.31735 0
0 0 0
0.624235 0.373623 0
0.373623 -14.066 0
0 0 0
0.0908805 0.815514 0
0.815514 -14.7977 0
0 0 0
-0.604422 0.466201 0
0.466201 -15.022 0
0 0 0
-0.592859 0.16785 0
0.16785 -15.2144 0
0 0 0
0.102789 -0.161013 0
-0.161013 -14.8338 0
0 0 0
0.101485 -0.756569 0
-0.756569 -12.53 0
0 0 0
-0.560616 -1.16686 0
-1.16686 -10.3433 0
0 0 0
-0.592453 -1.60717 0
-1.60717 -8.45987 0
0 0 0
-1.06203 -1.96198 0
-1.96198 -6.78497 0
0 0 0
-1.9032 -1.54057 0
-1.54057 -6.515 0
0 0 0
-2.47767 -1.03561 0
-1.03561 -6.81364 0
0 0 0
0.663163 0.40626 0
0.40626 -14.007 0
0 0 0
0.0443084 0.779776 0
0.779776 -14.7099 0
0 0 0
-0.641268 0.44498 0
0.44498 -14.9019 0
0 0 0
-0.633226 0.164175 0
0.164175 -15.0603 0
0 0 0
0.0862957 -0.162251 0
-0.162251 -14.5809 0
0 0 0
0.085002 -0.760598 0
-0.760598 -12.2974 0
0 0 0
-0.70909 -1.10834 0
-1.10834 -10.2367 0
0 0 0
-0.750095 -1.47976 0
-1.47976 -8.64208 0
0 0 0
-1.13254 -1.81825 0
-1.81825 -7.25557 0
0 0 0
-1.73475 -1.65514 0
-1.65514 -6.81353 0
0 0 0
-2.38601 -1.08355 0
-1.08355 -7.02105 0
0 0 0
0.701787 0.436673 0
0.436673 -13.6393 0
0 0 0
-0.0113369 0.736752 0
0.736752 -14.3264 0
0 0 0
-0.677616 0.411469 0
0.411469 -14.502 0
0 0 0
-0.674014 0.154181 0
0.154181 -14.6445 0
0 0 0
0.051197 -0.167753 0
-0.167753 -14.069 0
0 0 0
0.0487238 -0.757971 0
-0.757971 -11.8323 0
0 0 0
-0.882824 -1.03561 0
-1.03561 -9.97108 0
0 0 0
-0.928475 -1.31259 0
-1.31259 -8.69466 0
0 0 0
-1.28378 -1.57154 0
-1.57154 -7.60437 0
0 0 0
-1.59644 -1.65495 0
-1.65495 -7.01732 0
0 0 0
-2.10629 -1.25713 0
-1.25713 -6.96731 0
0 0 0
0.727448 0.451828 0
0.451828 -13.3548 0
0 0 0
-0.034854 0.679404 0
0.679404 -14.0681 0
0 0 0
-0.70429 0.377373 0
0.377373 -14.2422 0
0 0 0
-0.704363 0.144763 0
0.144763 -14.3721 0
0 0 0
-0.00697086 -0.159799 0
-0.159799 -13.7827 0
0 0 0
-0.0123832 -0.721403 0
-0.721403 -11.6532 0
0 0 0
-1.01534 -0.963453 0
-0.963453 -9.98009 0
0 0 0
-1.0686 -1.14029 0
-1.14029 -8.96428 0
0 0 0
-1.39936 -1.32496 0
-1.32496 -8.05201 0
0 0 0
-1.58462 -1.47733 0
-1.47733 -7.4615 0
0 0 0
-1.91828 -1.28143 0
-1.28143 -7.17727 0
0 0 0
0.723962 0.443259 0
0.443259 -13.192 0
0 0 0
-0.0447553 0.649518 0
0.649518 -13.9385 0
0 0 0
-0.708174 0.361754 0
0.361754 -14.1148 0
0 0 0
-0.709817 0.148146 0
0.148146 -14.2626 0
0 0 0
-0.0695885 -0.129446 0
-0.129446 -13.7467 0
0 0 0
-0.0781063 -0.649192 0
-0.649192 -11.7509 0
0 0 0
-1.02516 -0.936428 0
-0.936428 -10.1358 0
0 0 0
-1.12892 -0.997903 0
-0.997903 -9.29938 0
0 0 0
-1.42844 -1.14445 0
-1.14445 -8.46826 0
0 0 0
-1.60271 -1.27638 0
-1.27638 -7.89994 0
0 0 0
-1.79282 -1.21175 0
-1.21175 -7.47972 0
0 0 0
0.696172 0.421474 0
0.421474 -13.1405 0
0 0 0
-0.0317137 0.645867 0
0.645867 -13.9032 0
0 0 0
-0.696878 0.370958 0
0.370958 -14.0878 0
0 0 0
-0.699304 0.162323 0
0.162323 -14.2413 0
0 0 0
-0.119765 -0.0868762 0
-0.0868762 -13.8584 0
0 0 0
-0.130275 -0.5683 0
-0.5683 -11.9722 0
0 0 0
-0.948649 -0.921196 0
-0.921196 -10.3443 0
0 0 0
-1.12963 -0.900599 0
-0.900599 -9.60995 0
0 0 0
-1.40369 -1.03121 0
-1.03121 -8.78188 0
0 0 0
-1.57595 -1.14292 0
-1.14292 -8.2046 0
0 0 0
-1.68123 -1.16048 0
-1.16048 -7.73253 0
0 0 0
0.662719 0.405088 0
0.405088 -13.1031 0
0 0 0
0.00308124 0.655446 0
0.655446 -13.8427 0
0 0 0
-0.686538 0.396111 0
0.396111 -14.0466 0
0 0 0
-0.689545 0.182018 0
0.182018 -14.1898 0
0 0 0
-0.155684 -0.041965 0
-0.041965 -13.9485 0
0 0 0
-0.167484 -0.494734 0
-0.494734 -12.1368 0
0 0 0
-0.803837 -0.920478 0
-0.920478 -10.5072 0
0 0 0
-1.10236 -0.844215 0
-0.844215 -9.79651 0
0 0 0
-1.36493 -0.956467 0
-0.956467 -8.95045 0
0 0 0
-1.54526 -1.0715 0
-1.0715 -8.37512 0
0 0 0
-1.61649 -1.14744 0
-1.14744 -7.85984 0
0 0 0
0.630158 0.388847 0
0.388847 -13.0474 0
0 0 0
0.0332666 0.662248 0
0.662248 -13.7774 0
0 0 0
-0.681231 0.40396 0
0.40396 -13.9677 0
0 0 0
-0.683716 0.196037 0
0.196037 -14.1213 0
0 0 0
-0.180891 0.00036069 0
0.00036069 -14.0144 0
0 0 0
-0.193529 -0.442106 0
-0.442106 -12.7029 0
0 0 0
-0.702633 -0.867459 0
-0.867459 -10.6457 0
0 0 0
-1.05215 -0.828925 0
-0.828925 -9.88991 0
0 0 0
-1.33595 -0.902673 0
-0.902673 -9.07344 0
0 0 0
-1.52512 -1.01354 0
-1.01354 -8.47024 0
0 0 0
-1.58406 -1.11039 0
-1.11039 -7.9469 0
0 0 0
