# vtk DataFile Version 3.0
MPM2D particles
ASCII
DATASET POLYDATA
POINTS 121 double
0.0142324 8.48882e-07 0
0.0423198 4.72096e-07 0
0.0670299 3.03608e-07 0
0.0890636 2.16358e-07 0
0.112229 2.24499e-07 0
0.137809 6.35892e-07 0
0.162774 2.38466e-06 0
0.185316 2.4439e-05 0
0.206552 0.000226897 0
0.200619 0.000854865 0
0.189277 0.000604246 0
0.0184115 2.36146e-06 0
0.0536219 1.15512e-06 0
0.074541 8.23169e-07 0
0.0917055 6.26504e-07 0
0.11167 6.58322e-07 0
0.13845 1.95984e-06 0
0.163027 7.46732e-06 0
0.181406 5.10727e-05 0
0.197849 0.000298419 0
0.197473 0.000501368 0
0.192273 0.000496963 0
0.0222031 3.39837e-06 0
0.0620322 1.61238e-06 0
0.0792994 1.22143e-06 0
0.093484 9.74063e-07 0
0.111286 1.03658e-06 0
0.139014 3.2161e-06 0
0.162868 1.19917e-05 0
0.178108 6.06011e-05 0
0.191448 0.000261149 0
0.192568 0.000375602 0
0.190117 0.000396526 0
0.0233025 3.8909e-06 0
0.0643518 1.88869e-06 0
0.0809085 1.4736e-06 0
0.0944244 1.20345e-06 0
0.111786 1.34231e-06 0
0.139421 4.18262e-06 0
0.162227 1.46297e-05 0
0.175163 5.95144e-05 0
0.186352 0.000208148 0
0.188892 0.000316694 0
0.187613 0.00035091 0
0.0242224 4.34363e-06 0
0.0661813 2.15616e-06 0
0.0822543 1.724e-06 0
0.0953261 1.43688e-06 0
0.112471 1.69314e-06 0
0.13965 5.23181e-06 0
0.161251 1.66914e-05 0
0.172091 5.53281e-05 0
0.181359 0.000159327 0
0.185256 0.000262548 0
0.185305 0.00031437 0
0.0251704 4.95211e-06 0
0.0679607 2.52893e-06 0
0.0835983 2.07732e-06 0
0.096258 1.77193e-06 0
0.113145 2.21449e-06 0
0.13935 6.67845e-06 0
0.159556 1.84936e-05 0
0.168399 5.00327e-05 0
0.175937 0.000119987 0
0.180437 0.000202564 0
0.182275 0.000273063 0
0.0258201 5.85645e-06 0
0.0690921 3.08537e-06 0
0.0844082 2.59953e-06 0
0.0967535 2.26808e-06 0
0.113147 2.91026e-06 0
0.137752 8.37973e-06 0
0.156988 2.00356e-05 0
0.16455 4.56743e-05 0
0.17109 9.76655e-05 0
0.17541 0.000159128 0
0.178541 0.000233141 0
0.0257302 7.06672e-06 0
0.068962 3.80948e-06 0
0.0842121 3.26221e-06 0
0.0964793 2.88844e-06 0
0.112289 3.61698e-06 0
0.135232 9.88272e-06 0
0.154147 2.29419e-05 0
0.161401 4.34725e-05 0
0.167656 8.91075e-05 0
0.17185 0.000142407 0
0.175455 0.000214491 0
0.0250284 8.47907e-06 0
0.0678907 4.63309e-06 0
0.0832998 3.99749e-06 0
0.0956658 3.56568e-06 0
0.110963 4.22043e-06 0
0.132642 1.10603e-05 0
0.151493 2.55817e-05 0
0.159094 4.30258e-05 0
0.165418 8.80096e-05 0
0.169692 0.000141547 0
0.173488 0.000216236 0
0.024209 9.96861e-06 0
0.0666041 5.5012e-06 0
0.0822034 4.76526e-06 0
0.0946603 4.27123e-06 0
0.109492 4.72454e-06 0
0.130293 1.20282e-05 0
0.149 2.78302e-05 0
0.157281 4.38679e-05 0
0.163787 8.94943e-05 0
0.168178 0.00014552 0
0.172092 0.000224668 0
0.0234371 1.15409e-05 0
0.0653151 6.43375e-06 0
0.0810566 5.58932e-06 0
0.0935268 5.03276e-06 0
0.107887 5.16021e-06 0
0.128054 1.28811e-05 0
0.146539 2.97863e-05 0
0.155587 4.69516e-05 0
0.162343 9.12924e-05 0
0.166827 0.000149629 0
0.170771 0.000231768 0
VERTICES 121 242
1 0
1 1
1 2
1 3
1 4
1 5
1 6
1 7
1 8
1 9
1 10
1 11
1 12
1 13
1 14
1 15
1 16
1 17
1 18
1 19
1 20
1 21
1 22
1 23
1 24
1 25
1 26
1 27
1 28
1 29
1 30
1 31
1 32
1 33
1 34
1 35
1 36
1 37
1 38
1 39
1 40
1 41
1 42
1 43
1 44
1 45
1 46
1 47
1 48
1 49
1 50
1 51
1 52
1 53
1 54
1 55
1 56
1 57
1 58
1 59
1 60
1 61
1 62
1 63
1 64
1 65
1 66
1 67
1 68
1 69
1 70
1 71
1 72
1 73
1 74
1 75
1 76
1 77
1 78
1 79
1 80
1 81
1 82
1 83
1 84
1 85
1 86
1 87
1 88
1 89
1 90
1 91
1 92
1 93
1 94
1 95
1 96
1 97
1 98
1 99
1 100
1 101
1 102
1 103
1 104
1 105
1 106
1 107
1 108
1 109
1 110
1 111
1 112
1 113
1 114
1 115
1 116
1 117
1 118
1 119
1 120
POINT_DATA 121
VECTORS velocity double
4.99779 7.95948 0
2.72795 5.8885 0
1.30878 4.51154 0
0.799402 3.7503 0
0.412791 3.3271 0
0.394084 3.81437 0
0.248225 3.79638 0
-0.334342 1.82439 0
-1.13143 0.208699 0
-6.14466 7.05542 0
-8.75718 10.813 0
3.53845 2.24155 0
0.873478 1.05195 0
0.0807735 0.529168 0
0.199279 0.137848 0
0.271296 -0.101133 0
0.343334 0.201289 0
0.324209 0.169621 0
0.165494 -0.831324 0
-0.0162252 -1.80921 0
-1.09294 -0.26215 0
-1.29008 0.64046 0
2.50727 -1.71335 0
-0.38288 -2.11547 0
-0.683321 -2.28016 0
-0.192898 -2.46308 0
0.186158 -2.59683 0
0.337722 -2.46913 0
0.429595 -2.48469 0
0.554539 -2.74527 0
0.690301 -3.04701 0
0.706773 -2.98945 0
1.01118 -2.99116 0
2.49031 -2.35415 0
-0.337174 -2.62795 0
-0.598273 -2.75799 0
-0.140413 -2.90369 0
0.235908 -3.01128 0
0.417309 -2.94923 0
0.518532 -2.95936 0
0.566438 -2.9877 0
0.618517 -3.03382 0
0.365492 -3.14849 0
0.393777 -3.29844 0
2.52965 -2.80826 0
-0.188155 -3.00532 0
-0.437801 -3.09234 0
-0.0575092 -3.19464 0
0.271044 -3.26569 0
0.482209 -3.23175 0
0.58825 -3.22813 0
0.512789 -3.12038 0
0.427079 -3.03335 0
-0.144341 -3.22361 0
-0.394902 -3.50209 0
2.50602 -3.16534 0
-0.0893841 -3.33581 0
-0.338122 -3.38163 0
-0.0269953 -3.43365 0
0.255892 -3.45517 0
0.48873 -3.41186 0
0.616577 -3.39219 0
0.484182 -3.26112 0
0.33456 -3.15398 0
-0.380929 -3.34146 0
-0.895966 -3.63975 0
2.32408 -3.41362 0
-0.107397 -3.59795 0
-0.347579 -3.60827 0
-0.0700987 -3.61427 0
0.190042 -3.59517 0
0.424593 -3.53656 0
0.583926 -3.50143 0
0.465749 -3.40261 0
0.315952 -3.31788 0
-0.380386 -3.49235 0
-1.05037 -3.76602 0
2.00847 -3.68699 0
-0.147384 -3.87608 0
-0.36921 -3.86123 0
-0.124107 -3.83517 0
0.113912 -3.791 0
0.349062 -3.71537 0
0.515813 -3.64169 0
0.405626 -3.58002 0
0.228954 -3.5089 0
-0.409175 -3.66305 0
-1.0934 -3.9081 0
1.62222 -4.12312 0
-0.162464 -4.27745 0
-0.367944 -4.24518 0
-0.180917 -4.19697 0
0.0161652 -4.13534 0
0.255864 -4.04253 0
0.43959 -3.93673 0
0.331744 -3.89321 0
0.129105 -3.82839 0
-0.463125 -3.93515 0
-1.12185 -4.11712 0
1.23293 -4.89025 0
-0.190077 -4.96555 0
-0.386188 -4.90599 0
-0.271851 -4.83129 0
-0.128239 -4.74478 0
0.120024 -4.62443 0
0.330642 -4.48288 0
0.247731 -4.44341 0
0.0506126 -4.38658 0
-0.521717 -4.42679 0
-1.17193 -4.51063 0
0.791824 -6.18204 0
-0.283004 -6.15348 0
-0.468918 -6.06431 0
-0.441962 -5.95722 0
-0.368037 -5.80734 0
-0.103841 -5.64819 0
0.158438 -5.42317 0
0.119447 -5.38287 0
-0.0291435 -5.3453 0
-0.582886 -5.28873 0
-1.2267 -5.23802 0
SCALARS mass double 1
LOOKUP_TABLE default
2.67769
2.67769
2.67769
2.67769
2.67769
2.67769
2.67769
2.67769
2.67769
2.67769
2.67769
2.67769
2.67769
2.67769
2.67769
2.67769
2.67769
2.67769
2.67769
2.67769
2.67769
2.67769
2.67769
2.67769
2.67769
2.67769
2.67769
2.67769
2.67769
2.67769
2.67769
2.67769
2.67769
2.67769
2.67769
2.67769
2.67769
2.67769
2.67769
2.67769
2.67769
2.67769
2.67769
2.67769
2.67769
2.67769
2.67769
2.67769
2.67769
2.67769
2.67769
2.67769
2.67769
2.67769
2.67769
2.67769
2.67769
2.67769
2.67769
2.67769
2.67769
2.67769
2.67769
2.67769
2.67769
2.67769
2.67769
2.67769
2.67769
2.67769
2.67769
2.67769
2.67769
2.67769
2.67769
2.67769
2.67769
2.67769
2.67769
2.67769
2.67769
2.67769
2.67769
2.67769
2.67769
2.67769
2.67769
2.67769
2.67769
2.67769
2.67769
2.67769
2.67769
2.67769
2.67769
2.67769
2.67769
2.67769
2.67769
2.67769
2.67769
2.67769
2.67769
2.67769
2.67769
2.67769
2.67769
2.67769
2.67769
2.67769
2.67769
2.67769
2.67769
2.67769
2.67769
2.67769
2.67769
2.67769
2.67769
2.67769
2.67769
SCALARS volume double 1
LOOKUP_TABLE default
5.76246e-08
3.17614e-08
1.59416e-08
1.14177e-08
1.36747e-08
3.87183e-08
1.29818e-07
1.3224e-06
8.85738e-06
9.57377e-06
3.13763e-06
6.93925e-08
3.16306e-08
1.12422e-08
8.67223e-09
1.40063e-08
4.16463e-08
1.13299e-07
7.63831e-07
2.51388e-06
1.36415e-06
7.10434e-07
3.33877e-08
1.22868e-08
5.05103e-09
4.36956e-09
9.44833e-09
2.99656e-08
6.73135e-08
3.57395e-07
8.54314e-07
3.77317e-07
1.57439e-07
2.92904e-08
1.0042e-08
4.33487e-09
3.89108e-09
9.43143e-09
3.07387e-08
5.678e-08
2.36281e-07
5.39637e-07
2.73235e-07
1.15577e-07
3.24797e-08
1.0551e-08
4.742e-09
4.37964e-09
1.16309e-08
3.78379e-08
5.61561e-08
1.86182e-07
3.72321e-07
2.74e-07
1.11523e-07
4.91225e-08
1.47777e-08
6.89129e-09
6.42517e-09
1.82824e-08
5.90021e-08
6.51712e-08
1.67265e-07
2.71475e-07
3.05613e-07
1.76781e-07
6.741e-08
1.87987e-08
8.75739e-09
8.22586e-09
2.30142e-08
7.10623e-08
6.20258e-08
1.26066e-07
1.81589e-07
2.35568e-07
1.98859e-07
7.92533e-08
2.11966e-08
9.91518e-09
9.12641e-09
2.32412e-08
6.70177e-08
5.92175e-08
9.4154e-08
1.30235e-07
1.67806e-07
1.85759e-07
8.10945e-08
2.21769e-08
1.02651e-08
9.39258e-09
2.08824e-08
5.6736e-08
5.82216e-08
7.44184e-08
1.05077e-07
1.36513e-07
1.72828e-07
8.12447e-08
2.43158e-08
1.07571e-08
9.95017e-09
1.95656e-08
5.11057e-08
6.37792e-08
6.77937e-08
9.76161e-08
1.24978e-07
1.70686e-07
8.29466e-08
2.66513e-08
1.16545e-08
1.06702e-08
1.90854e-08
2.6333e-08
6.82725e-08
6.98131e-08
9.33907e-08
1.21563e-07
1.69464e-07
TENSORS stress double
5076.68 24623.2 0
24623.2 3545.81 0
0 0 0
5076.68 79356.8 0
79356.8 3208.16 0
0 0 0
5076.66 72234.4 0
72234.4 2930.57 0
0 0 0
5076.67 23489.7 0
23489.7 2695.46 0
0 0 0
5076.66 -18814.2 0
-18814.2 2982.28 0
0 0 0
5076.64 -47621.2 0
-47621.2 4670.22 0
0 0 0
5076.57 -81522.1 0
-81522.1 6381.86 0
0 0 0
5075.62 -142181 0
-142181 8165.68 0
0 0 0
5067.08 -186620 0
-186620 9840.21 0
0 0 0
5040.34 -144134 0
-144134 9349.32 0
0 0 0
5050.75 -104293 0
-104293 8459.5 0
0 0 0
5076.68 25619.9 0
25619.9 3495.51 0
0 0 0
5076.63 90497.7 0
90497.7 3073.61 0
0 0 0
5076.64 54441 0
54441 2850.4 0
0 0 0
5076.65 15037.5 0
15037.5 2667.26 0
0 0 0
5076.64 -19195.5 0
-19195.5 2945.38 0
0 0 0
5076.58 -49411.5 0
-49411.5 4712.45 0
0 0 0
5076.35 -79903.4 0
-79903.4 6401.69 0
0 0 0
5074.47 -130328 0
-130328 7855.27 0
0 0 0
5063.96 -161422 0
-161422 9148.68 0
0 0 0
5055.31 -105085 0
-105085 9112.11 0
0 0 0
5055.41 -76281 0
-76281 8700.45 0
0 0 0
5076.68 24723 0
24723 3449.89 0
0 0 0
5076.62 66966.5 0
66966.5 2983.85 0
0 0 0
5076.63 35679.6 0
35679.6 2799.61 0
0 0 0
5076.64 7554.16 0
7554.16 2648.27 0
0 0 0
5076.62 -17765.9 0
-17765.9 2919.98 0
0 0 0
5076.52 -50987.5 0
-50987.5 4749.65 0
0 0 0
5076.15 -78322.7 0
-78322.7 6388.91 0
0 0 0
5074.05 -121314 0
-121314 7593.78 0
0 0 0
5065.49 -146722 0
-146722 8643.1 0
0 0 0
5060.61 -92207.9 0
-92207.9 8727.93 0
0 0 0
5059.68 -44824.2 0
-44824.2 8533.12 0
0 0 0
5076.68 26958.7 0
26958.7 3436.66 0
0 0 0
5076.61 61911 0
61911 2959.09 0
0 0 0
5076.62 32429.3 0
32429.3 2782.44 0
0 0 0
5076.63 7043.1 0
7043.1 2638.22 0
0 0 0
5076.61 -16476.3 0
-16476.3 2953.01 0
0 0 0
5076.47 -51463.2 0
-51463.2 4776.45 0
0 0 0
5076.03 -73978.6 0
-73978.6 6338.12 0
0 0 0
5074.09 -111801 0
-111801 7360.69 0
0 0 0
5067.72 -142095 0
-142095 8241.47 0
0 0 0
5063.09 -98904.8 0
-98904.8 8438.84 0
0 0 0
5061.6 -49069.9 0
-49069.9 8336.38 0
0 0 0
5076.68 29811.6 0
29811.6 3425.58 0
0 0 0
5076.6 58939.4 0
58939.4 2939.55 0
0 0 0
5076.61 30750.3 0
30750.3 2768.07 0
0 0 0
5076.62 6972.4 0
6972.4 2628.59 0
0 0 0
5076.59 -15991.4 0
-15991.4 2998.18 0
0 0 0
5076.42 -51662.9 0
-51662.9 4791.55 0
0 0 0
5075.94 -68601.4 0
-68601.4 6260.79 0
0 0 0
5074.27 -100540 0
-100540 7117.58 0
0 0 0
5069.8 -130050 0
-130050 7847.78 0
0 0 0
5065.38 -112016 0
-112016 8152.77 0
0 0 0
5063.15 -54908.9 0
-54908.9 8154.87 0
0 0 0
5076.68 32429.8 0
32429.8 3414.16 0
0 0 0
5076.58 55222.7 0
55222.7 2920.55 0
0 0 0
5076.6 27841.6 0
27841.6 2753.71 0
0 0 0
5076.61 6279.77 0
6279.77 2618.64 0
0 0 0
5076.57 -15942.8 0
-15942.8 3042.62 0
0 0 0
5076.35 -51668.3 0
-51668.3 4771.68 0
0 0 0
5075.86 -62151.5 0
-62151.5 6126.47 0
0 0 0
5074.49 -85601.8 0
-85601.8 6825.52 0
0 0 0
5071.47 -107939 0
-107939 7419.84 0
0 0 0
5067.92 -114222 0
-114222 7773.3 0
0 0 0
5064.89 -73655.9 0
-73655.9 7916.36 0
0 0 0
5076.68 33655.3 0
33655.3 3406.32 0
0 0 0
5076.56 49860.4 0
49860.4 2908.46 0
0 0 0
5076.58 24698.6 0
24698.6 2745.05 0
0 0 0
5076.59 5501.14 0
5501.14 2613.33 0
0 0 0
5076.53 -15145.7 0
-15145.7 3042.75 0
0 0 0
5076.27 -49434 0
-49434 4666.13 0
0 0 0
5075.72 -56550 0
-56550 5935.1 0
0 0 0
5074.68 -70229.7 0
-70229.7 6520.91 0
0 0 0
5072.42 -85592.3 0
-85592.3 7036.85 0
0 0 0
5069.77 -98820.6 0
-98820.6 7376.77 0
0 0 0
5066.59 -77820.4 0
-77820.4 7622.06 0
0 0 0
5076.68 32838.6 0
32838.6 3407.35 0
0 0 0
5076.53 46828.9 0
46828.9 2909.82 0
0 0 0
5076.55 23072.2 0
23072.2 2747.12 0
0 0 0
5076.57 5749.18 0
5749.18 2616.23 0
0 0 0
5076.5 -12873.8 0
-12873.8 2986.09 0
0 0 0
5076.2 -44453.9 0
-44453.9 4499.83 0
0 0 0
5075.58 -56376.2 0
-56376.2 5747.47 0
0 0 0
5074.77 -57511.6 0
-57511.6 6271.72 0
0 0 0
5072.78 -69190.6 0
-69190.6 6765.26 0
0 0 0
5070.48 -80420.2 0
-80420.2 7095.5 0
0 0 0
5067.37 -72309.6 0
-72309.6 7378.4 0
0 0 0
5076.68 30973.5 0
30973.5 3415.73 0
0 0 0
5076.5 46111.3 0
46111.3 2921.22 0
0 0 0
5076.53 23692.4 0
23692.4 2756.82 0
0 0 0
5076.54 6899.22 0
6899.22 2624.89 0
0 0 0
5076.47 -9796.15 0
-9796.15 2898.57 0
0 0 0
5076.14 -38668 0
-38668 4328.89 0
0 0 0
5075.45 -57214.1 0
-57214.1 5572.26 0
0 0 0
5074.78 -48897.4 0
-48897.4 6089.05 0
0 0 0
5072.83 -58945.9 0
-58945.9 6588.13 0
0 0 0
5070.51 -68113.9 0
-68113.9 6924.64 0
0 0 0
5067.28 -68129.7 0
-68129.7 7222.58 0
0 0 0
5076.68 29700.8 0
29700.8 3425.53 0
0 0 0
5076.47 46645.8 0
46645.8 2934.92 0
0 0 0
5076.5 25846.8 0
25846.8 2768.49 0
0 0 0
5076.52 8537.79 0
8537.79 2635.59 0
0 0 0
5076.44 -6613.05 0
-6613.05 2801.49 0
0 0 0
5076.09 -33401 0
-33401 4173.81 0
0 0 0
5075.34 -59359.3 0
-59359.3 5407.71 0
0 0 0
5074.59 -44392.2 0
-44392.2 5953.55 0
0 0 0
5072.76 -52261.7 0
-52261.7 6458.91 0
0 0 0
5070.32 -61705.6 0
-61705.6 6804.62 0
0 0 0
5066.9 -67506.7 0
-67506.7 7111.75 0
0 0 0
5076.68 28421.5 0
28421.5 3434.75 0
0 0 0
5076.44 46901.8 0
46901.8 2948.63 0
0 0 0
5076.47 26254.4 0
26254.4 2780.7 0
0 0 0
5076.49 9566.69 0
9566.69 2647.66 0
0 0 0
5076.42 -3807.82 0
-3807.82 2695.56 0
0 0 0
5076.05 -30128.7 0
-30128.7 4026.06 0
0 0 0
5075.25 -56247.1 0
-56247.1 5245.19 0
0 0 0
5074.44 -44371.5 0
-44371.5 5841.64 0
0 0 0
5072.67 -47581.5 0
-47581.5 6344.59 0
0 0 0
5070.14 -56565.8 0
-56565.8 6697.5 0
0 0 0
5066.58 -64444.3 0
-64444.3 7006.95 0
0 0 0
TENSORS strain double
0.129851 0.246232 0
0.246232 -9.34588 0
0 0 0
0.120966 0.793568 0
0.793568 -9.90505 0
0 0 0
-0.123146 0.722344 0
0.722344 -10.325 0
0 0 0
-0.118155 0.234897 0
0.234897 -10.6466 0
0 0 0
0.0234043 -0.188142 0
-0.188142 -10.6163 0
0 0 0
0.0229946 -0.476212 0
-0.476212 -9.64003 0
0 0 0
-0.0868101 -0.815221 0
-0.815221 -8.38517 0
0 0 0
-0.0929026 -1.42181 0
-1.42181 -6.14585 0
0 0 0
-0.415733 -1.8662 0
-1.8662 -3.96919 0
0 0 0
-1.64706 -1.44134 0
-1.44134 -2.64894 0
0 0 0
-2.40137 -1.04293 0
-1.04293 -2.95981 0
0 0 0
0.387771 0.256199 0
0.256199 -9.4175 0
0 0 0
0.319546 0.904977 0
0.904977 -10.0979 0
0 0 0
-0.367002 0.54441 0
0.54441 -10.4205 0
0 0 0
-0.353704 0.150375 0
0.150375 -10.6799 0
0 0 0
0.0702299 -0.191955 0
-0.191955 -10.6375 0
0 0 0
0.0689544 -0.494115 0
-0.494115 -9.61459 0
0 0 0
-0.261274 -0.799034 0
-0.799034 -8.34415 0
0 0 0
-0.275777 -1.30328 0
-1.30328 -6.49617 0
0 0 0
-0.844705 -1.61422 0
-1.61422 -4.77901 0
0 0 0
-1.94411 -1.05085 0
-1.05085 -4.26759 0
0 0 0
-2.56694 -0.76281 0
-0.76281 -4.26945 0
0 0 0
0.575668 0.24723 0
0.24723 -10.332 0
0 0 0
0.147534 0.669665 0
0.669665 -10.8536 0
0 0 0
-0.554404 0.356796 0
0.356796 -11.0196 0
0 0 0
-0.539008 0.0755416 0
0.0755416 -11.1698 0
0 0 0
0.105986 -0.177659 0
-0.177659 -11.0636 0
0 0 0
0.104194 -0.509875 0
-0.509875 -9.97826 0
0 0 0
-0.422333 -0.783227 0
-0.783227 -8.69671 0
0 0 0
-0.443893 -1.21314 0
-1.21314 -7.07091 0
0 0 0
-1.07563 -1.46722 0
-1.46722 -5.60379 0
0 0 0
-2.00752 -0.922079 0
-0.922079 -5.4662 0
0 0 0
-2.57942 -0.448242 0
-0.448242 -5.73396 0
0 0 0
0.624225 0.269587 0
0.269587 -10.5101 0
0 0 0
0.0908843 0.61911 0
0.61911 -10.9941 0
0 0 0
-0.604419 0.324293 0
0.324293 -11.1179 0
0 0 0
-0.592856 0.070431 0
0.070431 -11.2283 0
0 0 0
0.102795 -0.164763 0
-0.164763 -11.0632 0
0 0 0
0.101509 -0.514632 0
-0.514632 -9.95097 0
0 0 0
-0.560544 -0.739786 0
-0.739786 -8.72279 0
0 0 0
-0.592102 -1.11801 0
-1.11801 -7.32276 0
0 0 0
-1.06059 -1.42095 0
-1.42095 -6.06406 0
0 0 0
-1.90092 -0.989048 0
-0.989048 -5.88721 0
0 0 0
-2.4752 -0.490699 0
-0.490699 -6.13759 0
0 0 0
0.663152 0.298116 0
0.298116 -10.4455 0
0 0 0
0.0443127 0.589394 0
0.589394 -10.8951 0
0 0 0
-0.641264 0.307503 0
0.307503 -10.9896 0
0 0 0
-0.633223 0.069724 0
0.069724 -11.0688 0
0 0 0
0.0863029 -0.159914 0
-0.159914 -10.8398 0
0 0 0
0.0850324 -0.516629 0
-0.516629 -9.72827 0
0 0 0
-0.709008 -0.686014 0
-0.686014 -8.57962 0
0 0 0
-0.749782 -1.0054 0
-1.0054 -7.3901 0
0 0 0
-1.13152 -1.3005 0
-1.3005 -6.34881 0
0 0 0
-1.73296 -1.12016 0
-1.12016 -6.05086 0
0 0 0
-2.38387 -0.549089 0
-0.549089 -6.25944 0
0 0 0
0.701774 0.324298 0
0.324298 -10.0722 0
0 0 0
-0.0113319 0.552227 0
0.552227 -10.5008 0
0 0 0
-0.677612 0.278416 0
0.278416 -10.5816 0
0 0 0
-0.67401 0.0627977 0
0.0627977 -10.6473 0
0 0 0
0.0512065 -0.159428 0
-0.159428 -10.357 0
0 0 0
0.0487624 -0.516683 0
-0.516683 -9.25019 0
0 0 0
-0.882736 -0.621515 0
-0.621515 -8.25057 0
0 0 0
-0.928206 -0.856018 0
-0.856018 -7.30468 0
0 0 0
-1.28307 -1.07939 0
-1.07939 -6.49546 0
0 0 0
-1.59515 -1.14222 0
-1.14222 -6.07554 0
0 0 0
-2.10451 -0.736559 0
-0.736559 -6.0932 0
0 0 0
0.727433 0.336553 0
0.336553 -9.78374 0
0 0 0
-0.0348478 0.498604 0
0.498604 -10.2357 0
0 0 0
-0.704285 0.246986 0
0.246986 -10.3169 0
0 0 0
-0.704359 0.0550114 0
0.0550114 -10.3719 0
0 0 0
-0.00695842 -0.151457 0
-0.151457 -10.0708 0
0 0 0
-0.0123358 -0.49434 0
-0.49434 -9.00214 0
0 0 0
-1.01519 -0.5655 0
-0.5655 -8.15833 0
0 0 0
-1.06837 -0.702297 0
-0.702297 -7.43036 0
0 0 0
-1.39882 -0.855923 0
-0.855923 -6.76213 0
0 0 0
-1.58368 -0.988206 0
-0.988206 -6.33243 0
0 0 0
-1.91684 -0.778204 0
-0.778204 -6.16425 0
0 0 0
0.723944 0.328386 0
0.328386 -9.6215 0
0 0 0
-0.0447477 0.468289 0
0.468289 -10.1069 0
0 0 0
-0.708167 0.230722 0
0.230722 -10.1907 0
0 0 0
-0.709812 0.0574918 0
0.0574918 -10.2641 0
0 0 0
-0.0695732 -0.128738 0
-0.128738 -9.99785 0
0 0 0
-0.0780521 -0.444539 0
-0.444539 -8.99126 0
0 0 0
-1.02499 -0.563762 0
-0.563762 -8.19147 0
0 0 0
-1.12871 -0.575116 0
-0.575116 -7.64771 0
0 0 0
-1.42797 -0.691906 0
-0.691906 -7.05007 0
0 0 0
-1.60191 -0.804202 0
-0.804202 -6.63801 0
0 0 0
-1.79156 -0.723096 0
-0.723096 -6.35167 0
0 0 0
0.696151 0.309735 0
0.309735 -9.57418 0
0 0 0
-0.0317045 0.461113 0
0.461113 -10.0781 0
0 0 0
-0.69687 0.236924 0
0.236924 -10.1692 0
0 0 0
-0.699297 0.0689922 0
0.0689922 -10.2477 0
0 0 0
-0.119748 -0.0979615 0
-0.0979615 -10.0523 0
0 0 0
-0.130217 -0.38668 0
-0.38668 -9.10088 0
0 0 0
-0.948475 -0.572141 0
-0.572141 -8.28556 0
0 0 0
-1.12943 -0.488974 0
-0.488974 -7.87198 0
0 0 0
-1.40324 -0.589459 0
-0.589459 -7.28002 0
0 0 0
-1.57518 -0.681139 0
-0.681139 -6.862 0
0 0 0
-1.67999 -0.681297 0
-0.681297 -6.53097 0
0 0 0
0.662694 0.297008 0
0.297008 -9.5417 0
0 0 0
0.00309225 0.466458 0
0.466458 -10.0254 0
0 0 0
-0.686529 0.258468 0
0.258468 -10.1347 0
0 0 0
-0.689537 0.0853779 0
0.0853779 -10.2024 0
0 0 0
-0.155665 -0.0661305 0
-0.0661305 -10.079 0
0 0 0
-0.167422 -0.33401 0
-0.33401 -9.16411 0
0 0 0
-0.803654 -0.593593 0
-0.593593 -8.34096 0
0 0 0
-1.10204 -0.443922 0
-0.443922 -7.98713 0
0 0 0
-1.36448 -0.522617 0
-0.522617 -7.38757 0
0 0 0
-1.54448 -0.617056 0
-0.617056 -6.97589 0
0 0 0
-1.61522 -0.675067 0
-0.675067 -6.60603 0
0 0 0
0.630129 0.284215 0
0.284215 -9.49075 0
0 0 0
0.0332795 0.469018 0
0.469018 -9.96791 0
0 0 0
-0.68122 0.262544 0
0.262544 -10.0628 0
0 0 0
-0.683706 0.0956669 0
0.0956669 -10.1407 0
0 0 0
-0.18087 -0.0380782 0
-0.0380782 -10.0757 0
0 0 0
-0.193465 -0.301287 0
-0.301287 -9.63373 0
0 0 0
-0.702444 -0.562471 0
-0.562471 -8.37332 0
0 0 0
-1.05181 -0.443715 0
-0.443715 -8.00747 0
0 0 0
-1.33549 -0.475815 0
-0.475815 -7.45658 0
0 0 0
-1.52433 -0.565658 0
-0.565658 -7.02046 0
0 0 0
-1.58278 -0.644443 0
-0.644443 -6.64369 0
0 0 0
