# vtk DataFile Version 3.0
MPM2D particles
ASCII
DATASET POLYDATA
POINTS 121 double
0.0142324 1.01073e-07 0
0.0423199 5.0399e-08 0
0.0670299 2.95184e-08 0
0.0890636 1.93829e-08 0
0.112229 2.26027e-08 0
0.137809 1.21565e-07 0
0.162774 8.39668e-07 0
0.185303 1.46722e-05 0
0.206378 0.00022291 0
0.200039 0.000728702 0
0.18895 0.000396559 0
0.0184116 2.76647e-07 0
0.053622 1.18027e-07 0
0.0745411 7.78335e-08 0
0.0917055 5.55779e-08 0
0.11167 6.53478e-08 0
0.13845 3.80665e-07 0
0.163025 2.6452e-06 0
0.181383 2.79663e-05 0
0.197657 0.000239583 0
0.197153 0.000398434 0
0.191988 0.000349992 0
0.0222033 3.92305e-07 0
0.0620323 1.59696e-07 0
0.0792995 1.13468e-07 0
0.0934841 8.58405e-08 0
0.111286 1.01897e-07 0
0.139014 6.33468e-07 0
0.162864 4.23167e-06 0
0.178082 3.07005e-05 0
0.1913 0.000180698 0
0.192351 0.000266565 0
0.189899 0.000265745 0
0.0233027 4.4725e-07 0
0.064352 1.85461e-07 0
0.0809086 1.36078e-07 0
0.0944245 1.05685e-07 0
0.111786 1.33636e-07 0
0.13942 8.32181e-07 0
0.162223 5.08414e-06 0
0.175139 2.81242e-05 0
0.186246 0.000127895 0
0.188722 0.000206363 0
0.187429 0.000221874 0
0.0242226 4.97509e-07 0
0.0661815 2.10294e-07 0
0.0822544 1.58407e-07 0
0.0953262 1.25761e-07 0
0.112471 1.71514e-07 0
0.13965 1.04686e-06 0
0.161247 5.66682e-06 0
0.17207 2.43118e-05 0
0.181286 8.70936e-05 0
0.185125 0.000157176 0
0.185148 0.000188357 0
0.0251707 5.65118e-07 0
0.0679609 2.45029e-07 0
0.0835984 1.8992e-07 0
0.096258 1.5455e-07 0
0.113145 2.28187e-07 0
0.139349 1.32642e-06 0
0.15955 6.02892e-06 0
0.168382 2.01405e-05 0
0.175888 5.77299e-05 0
0.180346 0.000108326 0
0.182147 0.000152415 0
0.0258204 6.66635e-07 0
0.0690923 2.97691e-07 0
0.0844083 2.3695e-07 0
0.0967536 1.9746e-07 0
0.113147 2.99898e-07 0
0.137751 1.59966e-06 0
0.156983 6.13937e-06 0
0.164535 1.67758e-05 0
0.171054 4.19001e-05 0
0.175346 7.55996e-05 0
0.17844 0.00011921 0
0.0257306 8.04679e-07 0
0.0689623 3.67734e-07 0
0.0842123 2.9757e-07 0
0.0964794 2.51726e-07 0
0.112289 3.6471e-07 0
0.135231 1.77219e-06 0
0.154141 6.55827e-06 0
0.161389 1.48107e-05 0
0.167625 3.5235e-05 0
0.171797 6.21934e-05 0
0.175368 0.000101981 0
0.0250289 9.68137e-07 0
0.0678911 4.49018e-07 0
0.0833 3.65879e-07 0
0.0956659 3.11689e-07 0
0.110963 4.1149e-07 0
0.132641 1.85958e-06 0
0.151487 6.85267e-06 0
0.159082 1.3871e-05 0
0.165389 3.29952e-05 0
0.169641 5.8732e-05 0
0.173404 9.8137e-05 0
0.0242095 1.14184e-06 0
0.0666045 5.35702e-07 0
0.0822037 4.37932e-07 0
0.0946605 3.74763e-07 0
0.109492 4.4376e-07 0
0.130292 1.90727e-06 0
0.148995 7.01261e-06 0
0.157269 1.35373e-05 0
0.163759 3.22715e-05 0
0.168128 5.8246e-05 0
0.172007 9.86439e-05 0
0.0234377 1.3259e-06 0
0.0653157 6.29514e-07 0
0.081057 5.15856e-07 0
0.093527 4.43447e-07 0
0.107887 4.65306e-07 0
0.128053 1.93143e-06 0
0.146533 7.06452e-06 0
0.155575 1.39016e-05 0
0.162316 3.18046e-05 0
0.166777 5.79958e-05 0
0.170687 9.86222e-05 0
VERTICES 121 242
1 0
1 1
1 2
1 3
1 4
1 5
1 6
1 7
1 8
1 9
1 10
1 11
1 12
1 13
1 14
1 15
1 16
1 17
1 18
1 19
1 20
1 21
1 22
1 23
1 24
1 25
1 26
1 27
1 28
1 29
1 30
1 31
1 32
1 33
1 34
1 35
1 36
1 37
1 38
1 39
1 40
1 41
1 42
1 43
1 44
1 45
1 46
1 47
1 48
1 49
1 50
1 51
1 52
1 53
1 54
1 55
1 56
1 57
1 58
1 59
1 60
1 61
1 62
1 63
1 64
1 65
1 66
1 67
1 68
1 69
1 70
1 71
1 72
1 73
1 74
1 75
1 76
1 77
1 78
1 79
1 80
1 81
1 82
1 83
1 84
1 85
1 86
1 87
1 88
1 89
1 90
1 91
1 92
1 93
1 94
1 95
1 96
1 97
1 98
1 99
1 100
1 101
1 102
1 103
1 104
1 105
1 106
1 107
1 108
1 109
1 110
1 111
1 112
1 113
1 114
1 115
1 116
1 117
1 118
1 119
1 120
POINT_DATA 121
VECTORS velocity double
4.89055 7.68055 0
2.62059 5.60937 0
1.24047 4.23228 0
0.790942 3.47095 0
0.44066 3.04485 0
0.393797 3.52171 0
0.231426 3.50322 0
-0.323227 1.56655 0
-1.05628 -0.0181051 0
-5.98106 6.81314 0
-8.67211 10.5566 0
3.43115 1.96258 0
0.76873 0.77273 0
0.032861 0.249873 0
0.197994 -0.141512 0
0.299785 -0.383152 0
0.342375 -0.0916342 0
0.307956 -0.123164 0
0.174456 -1.0955 0
0.0513762 -2.05003 0
-0.996028 -0.505499 0
-1.20929 0.389408 0
2.39992 -1.99235 0
-0.464789 -2.39472 0
-0.718311 -2.55948 0
-0.189352 -2.74245 0
0.215075 -2.87869 0
0.336175 -2.76229 0
0.413389 -2.77775 0
0.560136 -3.01468 0
0.738882 -3.29726 0
0.772596 -3.23899 0
1.0736 -3.24459 0
2.38294 -2.63315 0
-0.412786 -2.90721 0
-0.628893 -3.03731 0
-0.134312 -3.18306 0
0.264276 -3.29335 0
0.415341 -3.24255 0
0.501719 -3.25344 0
0.568162 -3.26172 0
0.651115 -3.29148 0
0.415484 -3.40312 0
0.444898 -3.5553 0
2.42227 -3.08727 0
-0.2588 -3.28459 0
-0.464766 -3.37167 0
-0.0489581 -3.47402 0
0.298663 -3.54804 0
0.480016 -3.52518 0
0.570407 -3.52375 0
0.510301 -3.39919 0
0.446283 -3.29837 0
-0.107894 -3.48338 0
-0.352834 -3.76218 0
2.39861 -3.44436 0
-0.1552 -3.61509 0
-0.361438 -3.66097 0
-0.015912 -3.71303 0
0.282774 -3.73779 0
0.486905 -3.70517 0
0.596847 -3.69049 0
0.476728 -3.54569 0
0.342139 -3.42717 0
-0.359184 -3.60821 0
-0.8642 -3.90418 0
2.21664 -3.69264 0
-0.170147 -3.87723 0
-0.368697 -3.88761 0
-0.0576679 -3.89365 0
0.216929 -3.8778 0
0.424563 -3.82923 0
0.563318 -3.80197 0
0.453305 -3.6932 0
0.315105 -3.59851 0
-0.370469 -3.76661 0
-1.02916 -4.03592 0
1.901 -3.96602 0
-0.210498 -4.15537 0
-0.390865 -4.14057 0
-0.11242 -4.11455 0
0.14175 -4.07328 0
0.351827 -4.00702 0
0.498391 -3.94109 0
0.389237 -3.87554 0
0.222953 -3.79485 0
-0.405843 -3.94275 0
-1.07903 -4.18265 0
1.5147 -4.40215 0
-0.228504 -4.55674 0
-0.392083 -4.52452 0
-0.17144 -4.47636 0
0.0454679 -4.41708 0
0.26149 -4.33312 0
0.425131 -4.23506 0
0.312542 -4.19235 0
0.12009 -4.11783 0
-0.463 -4.21821 0
-1.11063 -4.39472 0
1.12538 -5.16928 0
-0.25963 -5.24484 0
-0.413313 -5.18533 0
-0.265106 -5.11068 0
-0.0973143 -5.02593 0
0.12824 -4.91407 0
0.318948 -4.7802 0
0.227781 -4.74417 0
0.0395383 -4.67859 0
-0.523537 -4.71223 0
-1.16242 -4.79045 0
0.684231 -6.46106 0
-0.35608 -6.43277 0
-0.499168 -6.34366 0
-0.438299 -6.2366 0
-0.335345 -6.08783 0
-0.0931595 -5.93693 0
0.149461 -5.7195 0
0.101414 -5.68296 0
-0.042016 -5.63957 0
-0.586419 -5.5763 0
-1.2189 -5.51993 0
SCALARS mass double 1
LOOKUP_TABLE default
2.67769
2.67769
2.67769
2.67769
2.67769
2.67769
2.67769
2.67769
2.67769
2.67769
2.67769
2.67769
2.67769
2.67769
2.67769
2.67769
2.67769
2.67769
2.67769
2.67769
2.67769
2.67769
2.67769
2.67769
2.67769
2.67769
2.67769
2.67769
2.67769
2.67769
2.67769
2.67769
2.67769
2.67769
2.67769
2.67769
2.67769
2.67769
2.67769
2.67769
2.67769
2.67769
2.67769
2.67769
2.67769
2.67769
2.67769
2.67769
2.67769
2.67769
2.67769
2.67769
2.67769
2.67769
2.67769
2.67769
2.67769
2.67769
2.67769
2.67769
2.67769
2.67769
2.67769
2.67769
2.67769
2.67769
2.67769
2.67769
2.67769
2.67769
2.67769
2.67769
2.67769
2.67769
2.67769
2.67769
2.67769
2.67769
2.67769
2.67769
2.67769
2.67769
2.67769
2.67769
2.67769
2.67769
2.67769
2.67769
2.67769
2.67769
2.67769
2.67769
2.67769
2.67769
2.67769
2.67769
2.67769
2.67769
2.67769
2.67769
2.67769
2.67769
2.67769
2.67769
2.67769
2.67769
2.67769
2.67769
2.67769
2.67769
2.67769
2.67769
2.67769
2.67769
2.67769
2.67769
2.67769
2.67769
2.67769
2.67769
2.67769
SCALARS volume double 1
LOOKUP_TABLE default
6.86111e-09
3.39072e-09
1.54993e-09
1.02288e-09
1.37678e-09
7.40185e-09
4.57101e-08
7.93817e-07
8.6892e-06
8.11919e-06
2.05251e-06
8.12942e-09
3.23193e-09
1.06299e-09
7.69322e-10
1.39032e-09
8.089e-09
4.01332e-08
4.1815e-07
2.01473e-06
1.08092e-06
4.98957e-07
3.85428e-09
1.21693e-09
4.69227e-10
3.85071e-10
9.28774e-10
5.90216e-09
2.37527e-08
1.81003e-07
5.90283e-07
2.67224e-07
1.05286e-07
3.36689e-09
9.86077e-10
4.00298e-10
3.41707e-10
9.38957e-10
6.1157e-09
1.97311e-08
1.11626e-07
3.31216e-07
1.77742e-07
7.29417e-08
3.72019e-09
1.02906e-09
4.3571e-10
3.83323e-10
1.17819e-09
7.57096e-09
1.9064e-08
8.17895e-08
2.03361e-07
1.63809e-07
6.67105e-08
5.60577e-09
1.43181e-09
6.30039e-10
5.60409e-10
1.88385e-09
1.17181e-08
2.12442e-08
6.7317e-08
1.30542e-07
1.6327e-07
9.85377e-08
7.67334e-09
1.81377e-09
7.98241e-10
7.16144e-10
2.37155e-09
1.3565e-08
1.9004e-08
4.62938e-08
7.787e-08
1.11831e-07
1.01566e-07
9.02464e-09
2.04612e-09
9.04432e-10
7.95356e-10
2.34344e-09
1.20171e-08
1.6926e-08
3.20715e-08
5.14771e-08
7.32382e-08
8.82307e-08
9.25953e-09
2.14926e-09
9.39533e-10
8.21033e-10
2.03598e-09
9.53863e-09
1.55938e-08
2.39873e-08
3.9379e-08
5.66074e-08
7.83575e-08
9.30629e-09
2.36782e-09
9.88581e-10
8.73033e-10
1.83769e-09
8.10315e-09
1.60685e-08
2.09152e-08
3.51867e-08
4.99916e-08
7.48649e-08
9.52979e-09
2.60768e-09
1.07562e-09
9.40166e-10
1.72093e-09
3.94822e-09
1.61898e-08
2.06649e-08
3.2523e-08
4.70861e-08
7.20344e-08
TENSORS stress double
5076.68 28443.5 0
28443.5 3081.02 0
0 0 0
5076.68 90716.6 0
90716.6 2742.47 0
0 0 0
5076.67 83184.2 0
83184.2 2440.98 0
0 0 0
5076.67 29576.4 0
29576.4 2169.83 0
0 0 0
5076.67 -19712.4 0
-19712.4 2596.29 0
0 0 0
5076.67 -61039.1 0
-61039.1 4894.33 0
0 0 0
5076.64 -106348 0
-106348 7060.68 0
0 0 0
5076.14 -174281 0
-174281 8731.59 0
0 0 0
5068.62 -225333 0
-225333 10288.1 0
0 0 0
5050.2 -180217 0
-180217 9800.78 0
0 0 0
5062.15 -137080 0
-137080 8989.14 0
0 0 0
5076.68 30561.9 0
30561.9 3030.64 0
0 0 0
5076.67 104407 0
104407 2605.98 0
0 0 0
5076.67 63733 0
63733 2348.54 0
0 0 0
5076.67 20541 0
20541 2137.31 0
0 0 0
5076.67 -19819.9 0
-19819.9 2546.06 0
0 0 0
5076.65 -63142.1 0
-63142.1 4951.86 0
0 0 0
5076.58 -104808 0
-104808 7079.25 0
0 0 0
5075.64 -161138 0
-161138 8440.28 0
0 0 0
5067.96 -197265 0
-197265 9640.44 0
0 0 0
5062.17 -140580 0
-140580 9597.75 0
0 0 0
5063.88 -110130 0
-110130 9216.09 0
0 0 0
5076.68 30682.8 0
30682.8 2984.93 0
0 0 0
5076.67 79019.3 0
79019.3 2502.48 0
0 0 0
5076.67 43921.3 0
43921.3 2289.98 0
0 0 0
5076.67 12665.1 0
12665.1 2115.42 0
0 0 0
5076.67 -18201.9 0
-18201.9 2511.51 0
0 0 0
5076.64 -64993.6 0
-64993.6 5002.54 0
0 0 0
5076.52 -103172 0
-103172 7067.27 0
0 0 0
5075.54 -151049 0
-151049 8195.29 0
0 0 0
5070.07 -180556 0
-180556 9170.81 0
0 0 0
5066.94 -126279 0
-126279 9245.87 0
0 0 0
5066.95 -78091.4 0
-78091.4 9063.96 0
0 0 0
5076.68 33213.5 0
33213.5 2971.68 0
0 0 0
5076.67 73451.8 0
73451.8 2473.93 0
0 0 0
5076.67 40315.8 0
40315.8 2270.18 0
0 0 0
5076.67 11946.5 0
11946.5 2103.85 0
0 0 0
5076.67 -17157.2 0
-17157.2 2556.49 0
0 0 0
5076.63 -65667.7 0
-65667.7 5039.05 0
0 0 0
5076.48 -98618.4 0
-98618.4 7019.68 0
0 0 0
5075.63 -140586 0
-140586 7977.09 0
0 0 0
5071.98 -174347 0
-174347 8797.67 0
0 0 0
5069.11 -131862 0
-131862 8978.66 0
0 0 0
5068.54 -81583.8 0
-81583.8 8882.24 0
0 0 0
5076.68 36313.3 0
36313.3 2960.59 0
0 0 0
5076.67 70076.3 0
70076.3 2451.41 0
0 0 0
5076.67 38339.7 0
38339.7 2253.62 0
0 0 0
5076.67 11676.7 0
11676.7 2092.75 0
0 0 0
5076.66 -17007.3 0
-17007.3 2618 0
0 0 0
5076.61 -65979.1 0
-65979.1 5059.64 0
0 0 0
5076.46 -92924 0
-92924 6947.23 0
0 0 0
5075.77 -128336 0
-128336 7749.51 0
0 0 0
5073.47 -160743 0
-160743 8431.05 0
0 0 0
5070.9 -143863 0
-143863 8713.48 0
0 0 0
5069.76 -86720.4 0
-86720.4 8714.12 0
0 0 0
5076.68 39185.9 0
39185.9 2949.16 0
0 0 0
5076.67 65966.9 0
65966.9 2429.51 0
0 0 0
5076.67 35134.4 0
35134.4 2237.08 0
0 0 0
5076.67 10778.4 0
10778.4 2081.28 0
0 0 0
5076.66 -17288.3 0
-17288.3 2678.53 0
0 0 0
5076.6 -65836.7 0
-65836.7 5032.64 0
0 0 0
5076.45 -85924.1 0
-85924.1 6821.39 0
0 0 0
5075.93 -112209 0
-112209 7476.07 0
0 0 0
5074.54 -136921 0
-136921 8031.59 0
0 0 0
5072.68 -144578 0
-144578 8360.59 0
0 0 0
5071.06 -104536 0
-104536 8492.69 0
0 0 0
5076.68 40585.7 0
40585.7 2941.32 0
0 0 0
5076.67 60354.8 0
60354.8 2415.59 0
0 0 0
5076.67 31812.6 0
31812.6 2227.11 0
0 0 0
5076.67 9890.36 0
9890.36 2075.18 0
0 0 0
5076.66 -16491.9 0
-16491.9 2678.73 0
0 0 0
5076.58 -62819 0
-62819 4889 0
0 0 0
5076.33 -79340.4 0
-79340.4 6616.65 0
0 0 0
5076.05 -95596.5 0
-95596.5 7190.83 0
0 0 0
5075.12 -113029 0
-113029 7673.53 0
0 0 0
5073.88 -127598 0
-127598 7990.76 0
0 0 0
5072.27 -107539 0
-107539 8218.8 0
0 0 0
5076.68 39744.8 0
39744.8 2942.4 0
0 0 0
5076.66 57352.1 0
57352.1 2417.19 0
0 0 0
5076.67 30229.4 0
30229.4 2229.52 0
0 0 0
5076.67 10198.9 0
10198.9 2078.56 0
0 0 0
5076.65 -13799.7 0
-13799.7 2601.63 0
0 0 0
5076.57 -56605.1 0
-56605.1 4662.65 0
0 0 0
5076.3 -77774 0
-77774 6361.31 0
0 0 0
5076.12 -81862.3 0
-81862.3 6957.45 0
0 0 0
5075.36 -95526.1 0
-95526.1 7419.41 0
0 0 0
5074.37 -108065 0
-108065 7727.95 0
0 0 0
5072.9 -101052 0
-101052 7991.52 0
0 0 0
5076.68 37691.3 0
37691.3 2950.85 0
0 0 0
5076.66 56870.8 0
56870.8 2430.37 0
0 0 0
5076.66 31050.9 0
31050.9 2240.74 0
0 0 0
5076.66 11528.4 0
11528.4 2088.57 0
0 0 0
5076.65 -10072.8 0
-10072.8 2482.51 0
0 0 0
5076.57 -49551 0
-49551 4429.99 0
0 0 0
5076.28 -77311.6 0
-77311.6 6122.88 0
0 0 0
5076.16 -72502.5 0
-72502.5 6786.37 0
0 0 0
5075.44 -84559.7 0
-84559.7 7253.61 0
0 0 0
5074.49 -95063.3 0
-95063.3 7568.16 0
0 0 0
5073.04 -96238.4 0
-96238.4 7845.93 0
0 0 0
5076.68 36198.5 0
36198.5 2960.72 0
0 0 0
5076.66 57689.2 0
57689.2 2446.2 0
0 0 0
5076.66 33447.3 0
33447.3 2254.23 0
0 0 0
5076.66 13388.9 0
13388.9 2100.94 0
0 0 0
5076.65 -6169.56 0
-6169.56 2350.37 0
0 0 0
5076.56 -43133.6 0
-43133.6 4218.9 0
0 0 0
5076.27 -78236 0
-78236 5898.97 0
0 0 0
5075.91 -67307.9 0
-67307.9 6642.1 0
0 0 0
5075.47 -77347.6 0
-77347.6 7132.66 0
0 0 0
5074.51 -88163.6 0
-88163.6 7455.88 0
0 0 0
5073.02 -95159.1 0
-95159.1 7742.29 0
0 0 0
5076.68 34711.9 0
34711.9 2970.02 0
0 0 0
5076.65 58229.6 0
58229.6 2462.05 0
0 0 0
5076.66 34107.9 0
34107.9 2268.34 0
0 0 0
5076.66 14667.9 0
14667.9 2114.88 0
0 0 0
5076.65 -2578.57 0
-2578.57 2206.17 0
0 0 0
5076.56 -38765.5 0
-38765.5 4017.81 0
0 0 0
5076.27 -73918.1 0
-73918.1 5677.81 0
0 0 0
5075.89 -66456.3 0
-66456.3 6489.87 0
0 0 0
5075.49 -72199.9 0
-72199.9 7025.63 0
0 0 0
5074.51 -82584.9 0
-82584.9 7355.66 0
0 0 0
5073.01 -91666.1 0
-91666.1 7644.33 0
0 0 0
TENSORS strain double
0.129853 0.284435 0
0.284435 -11.4002 0
0 0 0
0.120967 0.907166 0
0.907166 -12.0609 0
0 0 0
-0.123147 0.831842 0
0.831842 -12.5674 0
0 0 0
-0.118155 0.295764 0
0.295764 -12.9646 0
0 0 0
0.0234035 -0.197124 0
-0.197124 -12.8264 0
0 0 0
0.0229916 -0.610391 0
-0.610391 -11.2498 0
0 0 0
-0.0868199 -1.06348 0
-1.06348 -9.41096 0
0 0 0
-0.0930273 -1.74281 0
-1.74281 -6.65173 0
0 0 0
-0.417174 -2.25333 0
-2.25333 -3.98689 0
0 0 0
-1.65215 -1.80217 0
-1.80217 -2.80817 0
0 0 0
-2.40458 -1.3708 0
-1.3708 -3.37799 0
0 0 0
0.387776 0.305619 0
0.305619 -11.4869 0
0 0 0
0.319544 1.04407 0
1.04407 -12.2943 0
0 0 0
-0.367003 0.63733 0
0.63733 -12.6887 0
0 0 0
-0.353705 0.20541 0
0.20541 -13.007 0
0 0 0
0.0702274 -0.198199 0
-0.198199 -12.8608 0
0 0 0
0.0689451 -0.631421 0
-0.631421 -11.2093 0
0 0 0
-0.261305 -1.04808 0
-1.04808 -9.36413 0
0 0 0
-0.276028 -1.61138 0
-1.61138 -7.09237 0
0 0 0
-0.846433 -1.97265 0
-1.97265 -4.99777 0
0 0 0
-1.947 -1.4058 0
-1.4058 -4.49648 0
0 0 0
-2.56966 -1.1013 0
-1.1013 -4.61798 0
0 0 0
0.575676 0.306828 0
0.306828 -12.4151 0
0 0 0
0.147531 0.790193 0
0.790193 -13.0789 0
0 0 0
-0.554406 0.439213 0
0.439213 -13.3041 0
0 0 0
-0.53901 0.126651 0
0.126651 -13.503 0
0 0 0
0.105982 -0.182019 0
-0.182019 -13.2959 0
0 0 0
0.104179 -0.649936 0
-0.649936 -11.5598 0
0 0 0
-0.422382 -1.03172 0
-1.03172 -9.72039 0
0 0 0
-0.444181 -1.51049 0
-1.51049 -7.74325 0
0 0 0
-1.07704 -1.80556 0
-1.80556 -5.96977 0
0 0 0
-2.00958 -1.26279 0
-1.26279 -5.80713 0
0 0 0
-2.58154 -0.780914 0
-0.780914 -6.13147 0
0 0 0
0.624234 0.332135 0
0.332135 -12.5972 0
0 0 0
0.0908807 0.734518 0
0.734518 -13.2274 0
0 0 0
-0.604422 0.403158 0
0.403158 -13.408 0
0 0 0
-0.592859 0.119465 0
0.119465 -13.5648 0
0 0 0
0.10279 -0.171572 0
-0.171572 -13.2837 0
0 0 0
0.101489 -0.656677 0
-0.656677 -11.5229 0
0 0 0
-0.560604 -0.986184 0
-0.986184 -9.76125 0
0 0 0
-0.592377 -1.40586 0
-1.40586 -8.06301 0
0 0 0
-1.06166 -1.74347 0
-1.74347 -6.54712 0
0 0 0
-1.90259 -1.31862 0
-1.31862 -6.31243 0
0 0 0
-2.47703 -0.815838 0
-0.815838 -6.59249 0
0 0 0
0.663162 0.363133 0
0.363133 -12.536 0
0 0 0
0.0443086 0.700763 0
0.700763 -13.1347 0
0 0 0
-0.641267 0.383397 0
0.383397 -13.2843 0
0 0 0
-0.633226 0.116767 0
0.116767 -13.4083 0
0 0 0
0.0862964 -0.170073 0
-0.170073 -13.0443 0
0 0 0
0.0850073 -0.659791 0
-0.659791 -11.2948 0
0 0 0
-0.709076 -0.92924 0
-0.92924 -9.64061 0
0 0 0
-0.750031 -1.28336 0
-1.28336 -8.2012 0
0 0 0
-1.1323 -1.60743 0
-1.60743 -6.9467 0
0 0 0
-1.7343 -1.43863 0
-1.43863 -6.55952 0
0 0 0
-2.38547 -0.867204 0
-0.867204 -6.76729 0
0 0 0
0.701786 0.391859 0
0.391859 -12.166 0
0 0 0
-0.0113366 0.659669 0
0.659669 -12.7465 0
0 0 0
-0.677616 0.351344 0
0.351344 -12.8809 0
0 0 0
-0.674013 0.107784 0
0.107784 -12.99 0
0 0 0
0.0511979 -0.172883 0
-0.172883 -12.5457 0
0 0 0
0.0487305 -0.658367 0
-0.658367 -10.8238 0
0 0 0
-0.88281 -0.859241 0
-0.859241 -9.35069 0
0 0 0
-0.928423 -1.12209 0
-1.12209 -8.20091 0
0 0 0
-1.28362 -1.36921 0
-1.36921 -7.21817 0
0 0 0
-1.59614 -1.44578 0
-1.44578 -6.69493 0
0 0 0
-2.10586 -1.04536 0
-1.04536 -6.67062 0
0 0 0
0.727447 0.405857 0
0.405857 -11.8799 0
0 0 0
-0.0348536 0.603548 0
0.603548 -12.4852 0
0 0 0
-0.70429 0.318126 0
0.318126 -12.619 0
0 0 0
-0.704363 0.0989036 0
0.0989036 -12.7163 0
0 0 0
-0.00696963 -0.164919 0
-0.164919 -12.2594 0
0 0 0
-0.0123752 -0.62819 0
-0.62819 -10.6133 0
0 0 0
-1.0153 -0.793404 0
-0.793404 -9.31804 0
0 0 0
-1.06856 -0.955965 0
-0.955965 -8.41537 0
0 0 0
-1.39925 -1.13029 0
-1.13029 -7.59652 0
0 0 0
-1.58442 -1.27598 0
-1.27598 -7.06748 0
0 0 0
-1.91795 -1.07539 0
-1.07539 -6.82751 0
0 0 0
0.72396 0.397448 0
0.397448 -11.7174 0
0 0 0
-0.0447549 0.573521 0
0.573521 -12.356 0
0 0 0
-0.708173 0.302294 0
0.302294 -12.4921 0
0 0 0
-0.709817 0.101989 0
0.101989 -12.6076 0
0 0 0
-0.069587 -0.137997 0
-0.137997 -12.2066 0
0 0 0
-0.0780977 -0.566051 0
-0.566051 -10.6615 0
0 0 0
-1.02512 -0.77774 0
-0.77774 -9.41788 0
0 0 0
-1.12888 -0.818623 0
-0.818623 -8.70534 0
0 0 0
-1.42835 -0.955261 0
-0.955261 -7.96361 0
0 0 0
-1.60255 -1.08065 0
-1.08065 -7.45506 0
0 0 0
-1.79255 -1.01052 0
-1.01052 -7.08596 0
0 0 0
0.696171 0.376913 0
0.376913 -11.6675 0
0 0 0
-0.0317132 0.568708 0
0.568708 -12.3235 0
0 0 0
-0.696878 0.310509 0
0.310509 -12.4675 0
0 0 0
-0.699303 0.115284 0
0.115284 -12.5884 0
0 0 0
-0.119764 -0.100728 0
-0.100728 -12.2922 0
0 0 0
-0.130266 -0.49551 0
-0.49551 -10.8319 0
0 0 0
-0.948611 -0.773116 0
-0.773116 -9.57426 0
0 0 0
-1.1296 -0.725025 0
-0.725025 -8.98283 0
0 0 0
-1.40361 -0.845597 0
-0.845597 -8.24517 0
0 0 0
-1.5758 -0.950633 0
-0.950633 -7.72882 0
0 0 0
-1.68097 -0.962384 0
-0.962384 -7.31061 0
0 0 0
0.662717 0.361985 0
0.361985 -11.6321 0
0 0 0
0.00308186 0.576892 0
0.576892 -12.2664 0
0 0 0
-0.686538 0.334473 0
0.334473 -12.4292 0
0 0 0
-0.689544 0.133889 0
0.133889 -12.5396 0
0 0 0
-0.155682 -0.0616956 0
-0.0616956 -12.3534 0
0 0 0
-0.167475 -0.431336 0
-0.431336 -10.9503 0
0 0 0
-0.803799 -0.78236 0
-0.78236 -9.68815 0
0 0 0
-1.10228 -0.673079 0
-0.673079 -9.14006 0
0 0 0
-1.36485 -0.773476 0
-0.773476 -8.39036 0
0 0 0
-1.54511 -0.881636 0
-0.881636 -7.87763 0
0 0 0
-1.61623 -0.951591 0
-0.951591 -7.4179 0
0 0 0
0.630155 0.347119 0
0.347119 -11.5783 0
0 0 0
0.0332673 0.582296 0
0.582296 -12.2045 0
0 0 0
-0.681231 0.341079 0
0.341079 -12.3534 0
0 0 0
-0.683715 0.146679 0
0.146679 -12.474 0
0 0 0
-0.180889 -0.0257857 0
-0.0257857 -12.3878 0
0 0 0
-0.19352 -0.387655 0
-0.387655 -11.4725 0
0 0 0
-0.702595 -0.739181 0
-0.739181 -9.77829 0
0 0 0
-1.05207 -0.664563 0
-0.664563 -9.20017 0
0 0 0
-1.33587 -0.721999 0
-0.721999 -8.49266 0
0 0 0
-1.52497 -0.825849 0
-0.825849 -7.95338 0
0 0 0
-1.5838 -0.916661 0
-0.916661 -7.48602 0
0 0 0
